<?xml version="1.0" encoding="UTF-8" standalone="no"?>
<!DOCTYPE svg PUBLIC "-//W3C//DTD SVG 1.1//EN" "http://www.w3.org/Graphics/SVG/1.1/DTD/svg11.dtd">
<!-- Created with Vectornator (http://vectornator.io/) -->
<svg height="100%" stroke-miterlimit="10" style="fill-rule:nonzero;clip-rule:evenodd;stroke-linecap:round;stroke-linejoin:round;" version="1.1" viewBox="0 0 1800 2160" width="100%" xml:space="preserve" xmlns="http://www.w3.org/2000/svg" xmlns:vectornator="http://vectornator.io" xmlns:xlink="http://www.w3.org/1999/xlink">
<defs/>
<g id="Layer-Black" vectornator:layerName="Layer Black">
<path d="M837.714 1734.1L837.714 1734.1C838.311 1734.11 838.786 1734.73 838.776 1735.49L835.075 2019.79C835.065 2020.55 834.573 2021.16 833.977 2021.16L833.977 2021.16C833.38 2021.15 832.905 2020.53 832.915 2019.77L836.616 1735.47C836.626 1734.71 837.118 1734.1 837.714 1734.1Z" fill="#000000" fill-rule="nonzero" opacity="1" stroke="#000000" stroke-linecap="square" stroke-linejoin="bevel" stroke-width="12.9836" vectornator:layerName="Rectangle 1"/>
<path d="M1011.25 1735.57L1011.25 1735.57C1011.85 1735.58 1012.32 1736.2 1012.31 1736.96L1008.61 2021.25C1008.6 2022.02 1008.11 2022.63 1007.51 2022.62L1007.51 2022.62C1006.92 2022.62 1006.44 2022 1006.45 2021.23L1010.15 1736.94C1010.16 1736.18 1010.65 1735.56 1011.25 1735.57Z" fill="#000000" fill-rule="nonzero" opacity="1" stroke="#000000" stroke-linecap="square" stroke-linejoin="bevel" stroke-width="12.9836" vectornator:layerName="Rectangle 2"/>
</g>
<g id="Layer-Inner" vectornator:layerName="Layer Inner">
<path d="M970.842 941.341L1054.27 941.341C1070.12 941.341 1082.98 953.916 1082.98 969.428L1082.98 1160.24C1082.98 1175.76 1070.12 1188.33 1054.27 1188.33L970.842 1188.33C954.986 1188.33 942.131 1175.76 942.131 1160.24L942.131 969.428C942.131 953.916 954.986 941.341 970.842 941.341Z" fill="#3e68ff" fill-rule="nonzero" opacity="1" stroke="#3e68ff" stroke-linecap="square" stroke-linejoin="bevel" stroke-width="12.9836" vectornator:layerName="Rectangle 7"/>
<path d="M799.847 941.341L881.818 941.341C897.398 941.341 910.029 953.972 910.029 969.552L910.029 1161.21C910.029 1176.79 897.398 1189.42 881.818 1189.42L799.847 1189.42C784.267 1189.42 771.637 1176.79 771.637 1161.21L771.637 969.552C771.637 961.162 775.3 953.627 781.114 948.459C786.096 944.031 792.658 941.341 799.847 941.341Z" fill="#3e68ff" fill-rule="nonzero" opacity="1" stroke="#3e68ff" stroke-linecap="square" stroke-linejoin="bevel" stroke-width="12.9836" vectornator:layerName="Rectangle 8"/>
<path d="M1291.74 789.966L1351.33 848.348C1362.65 859.444 1363.04 877.423 1352.18 888.503L1218.65 1024.81C1207.79 1035.89 1189.81 1035.88 1178.48 1024.78L1118.89 966.398C1107.56 955.301 1107.18 937.323 1118.04 926.242L1251.57 789.937C1262.43 778.857 1280.41 778.87 1291.74 789.966Z" fill="#7996ff" fill-rule="nonzero" opacity="1" stroke="#7996ff" stroke-linecap="square" stroke-linejoin="bevel" stroke-width="12.9836" vectornator:layerName="Rectangle 7"/>
<path d="M1171.09 671.769L1229.64 729.133C1240.77 740.036 1240.95 757.897 1230.05 769.026L1095.92 905.934C1085.02 917.063 1067.16 917.246 1056.03 906.343L997.477 848.979C986.347 838.076 986.164 820.215 997.067 809.085L1131.19 672.178C1137.06 666.184 1144.95 663.365 1152.72 663.743C1159.38 664.066 1165.95 666.737 1171.09 671.769Z" fill="#3e68ff" fill-rule="nonzero" opacity="1" stroke="#3e68ff" stroke-linecap="square" stroke-linejoin="bevel" stroke-width="12.9836" vectornator:layerName="Rectangle 8"/>
<path d="M1504.35 633.543C1505.11 626.916 1505.19 629.743 1493.14 638.379C1482 646.366 1461.39 652.953 1442.02 650.239C1418.75 646.977 1409.41 638.724 1403.54 637.937C1400.81 637.571 1400.3 639.532 1396.84 643.063L1304 737.585C1293.1 748.714 1293.28 766.575 1304.41 777.479L1362.97 834.843C1374.1 845.746 1391.96 845.563 1402.86 834.433L1540.78 693.205C1541.95 692.013 1550.6 684.936 1548.86 685.573C1545.16 686.924 1541.05 685.73 1540.48 685.777C1540.48 685.777 1526 684.428 1517.91 680.501C1509.81 676.573 1508.1 670.067 1508.1 670.067C1508.1 670.067 1502.73 661.867 1501.88 656.187C1501.07 650.837 1502.21 645.947 1502.21 645.947C1502.21 645.947 1503.48 641.049 1504.35 633.543Z" fill="#072db7" fill-rule="nonzero" opacity="1" stroke="#072db7" stroke-linecap="square" stroke-linejoin="bevel" stroke-width="12.9836" vectornator:layerName="Rectangle 10"/>
<path d="M1382.69 514.329C1389.31 513.496 1386.48 513.447 1377.97 525.584C1370.1 536.81 1363.72 557.49 1366.64 576.823C1370.14 600.06 1378.49 609.319 1379.34 615.18C1379.73 617.903 1377.78 618.434 1374.28 621.929L1280.73 715.74C1269.71 726.758 1251.85 726.76 1240.83 715.745L1182.86 657.789C1171.85 646.773 1171.84 628.911 1182.86 617.893L1322.65 478.514C1323.83 477.335 1330.82 468.61 1330.2 470.362C1328.89 474.072 1330.12 478.167 1330.08 478.743C1330.08 478.743 1331.58 493.206 1335.59 501.26C1339.6 509.313 1346.13 510.956 1346.13 510.956C1346.13 510.956 1354.38 516.244 1360.07 517.037C1365.43 517.783 1370.31 516.594 1370.31 516.594C1370.31 516.594 1375.19 515.273 1382.69 514.329Z" fill="#072db7" fill-rule="nonzero" opacity="1" stroke="#072db7" stroke-linecap="square" stroke-linejoin="bevel" stroke-width="12.9836" vectornator:layerName="Rectangle 10"/>
<path d="M562.51 789.978L502.943 848.385C491.621 859.487 491.246 877.465 502.106 888.541L635.7 1024.79C646.561 1035.86 664.543 1035.84 675.865 1024.74L735.432 966.335C746.754 955.233 747.129 937.255 736.268 926.179L602.674 789.931C591.814 778.856 573.832 778.876 562.51 789.978Z" fill="#7996ff" fill-rule="nonzero" opacity="1" stroke="#7996ff" stroke-linecap="square" stroke-linejoin="bevel" stroke-width="12.9836" vectornator:layerName="Rectangle 7"/>
<path d="M683.108 671.728L624.579 729.118C613.455 740.026 613.279 757.887 624.187 769.012L758.371 905.861C769.279 916.986 787.14 917.162 798.265 906.254L856.794 848.864C867.919 837.956 868.095 820.095 857.187 808.97L723.002 672.121C717.128 666.13 709.237 663.314 701.468 663.695C694.81 664.021 688.242 666.695 683.108 671.728Z" fill="#3e68ff" fill-rule="nonzero" opacity="1" stroke="#3e68ff" stroke-linecap="square" stroke-linejoin="bevel" stroke-width="12.9836" vectornator:layerName="Rectangle 8"/>
<path d="M349.831 633.646C349.063 627.019 348.986 629.846 361.038 638.477C372.185 646.46 392.801 653.038 412.162 650.316C435.433 647.043 444.773 638.786 450.643 637.997C453.37 637.63 453.881 639.591 457.341 643.119L550.218 737.602C561.126 748.727 560.951 766.588 549.826 777.496L491.297 834.885C480.172 845.793 462.311 845.617 451.403 834.493L313.42 693.323C312.253 692.133 303.598 685.058 305.343 685.695C309.041 687.045 313.147 685.849 313.724 685.896C313.724 685.896 328.201 684.541 336.293 680.609C344.386 676.678 346.094 670.171 346.094 670.171C346.094 670.171 351.464 661.969 352.313 656.288C353.113 650.938 351.972 646.049 351.972 646.049C351.972 646.049 350.7 641.152 349.831 633.646Z" fill="#072db7" fill-rule="nonzero" opacity="1" stroke="#072db7" stroke-linecap="square" stroke-linejoin="bevel" stroke-width="12.9836" vectornator:layerName="Rectangle 10"/>
<path d="M471.44 514.38C464.82 513.549 467.649 513.499 476.164 525.633C484.041 536.855 490.422 557.533 487.516 576.867C484.023 600.106 475.677 609.367 474.832 615.229C474.439 617.953 476.395 618.482 479.891 621.976L573.485 715.747C584.506 726.761 602.368 726.755 613.381 715.734L671.325 657.754C682.338 646.733 682.332 628.871 671.312 617.858L531.461 478.539C530.281 477.36 523.29 468.638 523.91 470.39C525.224 474.1 523.99 478.195 524.031 478.772C524.031 478.772 522.538 493.235 518.53 501.29C514.522 509.345 507.999 510.991 507.999 510.991C507.999 510.991 499.746 516.283 494.058 517.078C488.7 517.827 483.822 516.639 483.822 516.639C483.822 516.639 478.937 515.321 471.44 514.38Z" fill="#072db7" fill-rule="nonzero" opacity="1" stroke="#072db7" stroke-linecap="square" stroke-linejoin="bevel" stroke-width="12.9836" vectornator:layerName="Rectangle 10"/>
<path d="M799.847 1207.76L881.818 1207.76C897.398 1207.76 910.029 1220.39 910.029 1235.97L910.029 1427.63C910.029 1443.21 897.398 1455.84 881.818 1455.84L799.847 1455.84C784.267 1455.84 771.637 1443.21 771.637 1427.63L771.637 1235.97C771.637 1227.58 775.3 1220.04 781.114 1214.88C786.096 1210.45 792.658 1207.76 799.847 1207.76Z" fill="#3e68ff" fill-rule="nonzero" opacity="1" stroke="#3e68ff" stroke-linecap="square" stroke-linejoin="bevel" stroke-width="12.9836" vectornator:layerName="Rectangle 13"/>
<path d="M970.842 1207.76L1054.27 1207.76C1070.12 1207.76 1082.98 1220.33 1082.98 1235.85L1082.98 1426.66C1082.98 1442.17 1070.12 1454.75 1054.27 1454.75L970.842 1454.75C954.986 1454.75 942.131 1442.17 942.131 1426.66L942.131 1235.85C942.131 1220.33 954.986 1207.76 970.842 1207.76Z" fill="#3e68ff" fill-rule="nonzero" opacity="1" stroke="#3e68ff" stroke-linecap="square" stroke-linejoin="bevel" stroke-width="12.9836" vectornator:layerName="Rectangle 14"/>
<path d="M968.747 1474.28L1052.17 1474.28C1068.03 1474.28 1080.88 1486.85 1080.88 1502.36L1080.88 1693.18C1080.88 1708.69 1068.03 1721.27 1052.17 1721.27L968.747 1721.27C952.89 1721.27 940.036 1708.69 940.036 1693.18L940.036 1502.36C940.036 1486.85 952.89 1474.28 968.747 1474.28Z" fill="#3e68ff" fill-rule="nonzero" opacity="1" stroke="#3e68ff" stroke-linecap="square" stroke-linejoin="bevel" stroke-width="12.9836" vectornator:layerName="Rectangle 10"/>
<path d="M799.847 1474.28L881.818 1474.28C897.398 1474.28 910.029 1486.91 910.029 1502.49L910.029 1694.15C910.029 1709.73 897.398 1722.36 881.818 1722.36L799.847 1722.36C784.267 1722.36 771.637 1709.73 771.637 1694.15L771.637 1502.49C771.637 1494.1 775.3 1486.56 781.114 1481.4C786.096 1476.97 792.658 1474.28 799.847 1474.28Z" fill="#3e68ff" fill-rule="nonzero" opacity="1" stroke="#3e68ff" stroke-linecap="square" stroke-linejoin="bevel" stroke-width="12.9836" vectornator:layerName="Rectangle 11"/>
</g>
<g id="Layer-Membrane" vectornator:layerName="Layer Membrane">
<path d="M970.345 935.202C970.069 935.202 969.808 935.288 969.533 935.296L969.283 935.296C951.594 935.296 937.252 949.339 937.252 966.64L937.252 969.358L937.252 1164.14C937.252 1171.22 940.701 1177.46 945.158 1182.61C949.68 1188.6 955.849 1193.15 963.064 1194.76C964.064 1195 965.18 1195.02 966.252 1195.14C967.132 1195.23 967.974 1195.48 968.877 1195.48L969.283 1195.48L1055.66 1195.48L1056.06 1195.48C1056.74 1195.48 1057.37 1195.27 1058.03 1195.23C1059.58 1195.12 1061.12 1194.99 1062.6 1194.67C1063.83 1194.41 1064.98 1194.01 1066.16 1193.61C1067.21 1193.25 1068.22 1192.88 1069.22 1192.42C1070.16 1191.98 1071.05 1191.51 1071.94 1190.98C1073.54 1190.05 1075.03 1189.01 1076.44 1187.83C1076.6 1187.68 1076.78 1187.57 1076.94 1187.42C1083.49 1181.7 1087.69 1173.49 1087.69 1164.23L1087.69 968.827L1087.69 967.171C1087.69 952.067 1076.72 939.46 1062.13 936.546C1062.1 936.54 1062.06 936.552 1062.03 936.546C1059.69 935.962 1057.29 935.577 1054.81 935.577L970.345 935.202Z" fill="none" opacity="1" stroke="#06195f" stroke-linecap="round" stroke-linejoin="round" stroke-width="3" vectornator:layerName="Curve 1"/>
<path d="M968.249 1468.14C967.973 1468.14 967.712 1468.22 967.437 1468.23L967.187 1468.23C949.498 1468.23 935.156 1482.28 935.156 1499.58L935.156 1502.29L935.156 1697.08C935.156 1704.15 938.606 1710.4 943.062 1715.54C947.584 1721.53 953.754 1726.09 960.968 1727.7C961.968 1727.94 963.085 1727.96 964.156 1728.08C965.036 1728.16 965.879 1728.42 966.781 1728.42L967.187 1728.42L1053.56 1728.42L1053.97 1728.42C1054.64 1728.42 1055.27 1728.21 1055.94 1728.17C1057.48 1728.06 1059.02 1727.93 1060.5 1727.61C1061.73 1727.35 1062.88 1726.95 1064.06 1726.54C1065.11 1726.19 1066.13 1725.81 1067.12 1725.36C1068.06 1724.92 1068.96 1724.45 1069.84 1723.92C1071.44 1722.99 1072.94 1721.94 1074.34 1720.76C1074.51 1720.62 1074.68 1720.5 1074.84 1720.36C1081.39 1714.63 1085.59 1706.42 1085.59 1697.17L1085.59 1501.76L1085.59 1500.11C1085.59 1485 1074.63 1472.4 1060.03 1469.48C1060 1469.48 1059.97 1469.49 1059.94 1469.48C1057.6 1468.9 1055.19 1468.51 1052.72 1468.51L968.249 1468.14Z" fill="none" opacity="1" stroke="#06195f" stroke-linecap="round" stroke-linejoin="round" stroke-width="3" vectornator:layerName="Curve 57"/>
<path d="M798.383 1468.14C798.107 1468.14 797.846 1468.22 797.57 1468.23L797.32 1468.23C779.632 1468.23 765.289 1482.28 765.289 1499.58L765.289 1502.29L765.289 1697.08C765.289 1704.15 768.739 1710.4 773.195 1715.54C777.717 1721.53 783.887 1726.09 791.102 1727.7C792.102 1727.94 793.218 1727.96 794.289 1728.08C795.169 1728.16 796.012 1728.42 796.914 1728.42L797.32 1728.42L883.695 1728.42L884.102 1728.42C884.776 1728.42 885.405 1728.21 886.07 1728.17C887.614 1728.06 889.158 1727.93 890.633 1727.61C891.865 1727.35 893.017 1726.95 894.195 1726.54C895.244 1726.19 896.263 1725.81 897.258 1725.36C898.196 1724.92 899.09 1724.45 899.977 1723.92C901.577 1722.99 903.072 1721.94 904.477 1720.76C904.639 1720.62 904.817 1720.5 904.977 1720.36C911.525 1714.63 915.727 1706.42 915.727 1697.17L915.727 1501.76L915.727 1500.11C915.727 1485 904.759 1472.4 890.164 1469.48C890.134 1469.48 890.1 1469.49 890.07 1469.48C887.73 1468.9 885.325 1468.51 882.852 1468.51L817.32 1468.29L798.383 1468.14Z" fill="none" opacity="1" stroke="#06195f" stroke-linecap="round" stroke-linejoin="round" stroke-width="3" vectornator:layerName="Curve 58"/>
<path d="M970.345 1201.62C970.069 1201.62 969.808 1201.7 969.533 1201.71L969.283 1201.71C951.594 1201.71 937.252 1215.76 937.252 1233.06L937.252 1235.78L937.252 1430.56C937.252 1437.63 940.701 1443.88 945.158 1449.03C949.68 1455.02 955.849 1459.57 963.064 1461.18C964.064 1461.42 965.18 1461.44 966.252 1461.56C967.132 1461.65 967.974 1461.9 968.877 1461.9L969.283 1461.9L1055.66 1461.9L1056.06 1461.9C1056.74 1461.9 1057.37 1461.69 1058.03 1461.65C1059.58 1461.54 1061.12 1461.41 1062.6 1461.09C1063.83 1460.83 1064.98 1460.43 1066.16 1460.03C1067.21 1459.67 1068.22 1459.29 1069.22 1458.84C1070.16 1458.4 1071.05 1457.93 1071.94 1457.4C1073.54 1456.47 1075.03 1455.42 1076.44 1454.24C1076.6 1454.1 1076.78 1453.98 1076.94 1453.84C1083.49 1448.12 1087.69 1439.9 1087.69 1430.65L1087.69 1235.24L1087.69 1233.59C1087.69 1218.48 1076.72 1205.88 1062.13 1202.96C1062.1 1202.96 1062.06 1202.97 1062.03 1202.96C1059.69 1202.38 1057.29 1201.99 1054.81 1201.99L970.345 1201.62Z" fill="none" opacity="1" stroke="#06195f" stroke-linecap="round" stroke-linejoin="round" stroke-width="3" vectornator:layerName="Curve 59"/>
<path d="M798.383 1201.62C798.107 1201.62 797.846 1201.7 797.57 1201.71L797.32 1201.71C779.632 1201.71 765.289 1215.76 765.289 1233.06L765.289 1235.78L765.289 1430.56C765.289 1437.63 768.739 1443.88 773.195 1449.03C777.717 1455.02 783.887 1459.57 791.102 1461.18C792.102 1461.42 793.218 1461.44 794.289 1461.56C795.169 1461.65 796.012 1461.9 796.914 1461.9L797.32 1461.9L883.695 1461.9L884.102 1461.9C884.776 1461.9 885.405 1461.69 886.07 1461.65C887.614 1461.54 889.158 1461.41 890.633 1461.09C891.865 1460.83 893.017 1460.43 894.195 1460.03C895.244 1459.67 896.263 1459.29 897.258 1458.84C898.196 1458.4 899.09 1457.93 899.977 1457.4C901.577 1456.47 903.072 1455.42 904.477 1454.24C904.639 1454.1 904.817 1453.98 904.977 1453.84C911.525 1448.12 915.727 1439.9 915.727 1430.65L915.727 1235.24L915.727 1233.59C915.727 1218.48 904.759 1205.88 890.164 1202.96C890.134 1202.96 890.1 1202.97 890.07 1202.96C887.73 1202.38 885.325 1201.99 882.852 1201.99L817.32 1201.78L798.383 1201.62Z" fill="none" opacity="1" stroke="#06195f" stroke-linecap="round" stroke-linejoin="round" stroke-width="3" vectornator:layerName="Curve 60"/>
<path d="M798.383 935.202C798.107 935.202 797.846 935.288 797.57 935.296L797.32 935.296C779.632 935.296 765.289 949.339 765.289 966.64L765.289 969.358L765.289 1164.14C765.289 1171.22 768.739 1177.46 773.195 1182.61C777.717 1188.6 783.887 1193.15 791.102 1194.76C792.102 1195 793.218 1195.02 794.289 1195.14C795.169 1195.23 796.012 1195.48 796.914 1195.48L797.32 1195.48L883.695 1195.48L884.102 1195.48C884.776 1195.48 885.405 1195.27 886.07 1195.23C887.614 1195.12 889.158 1194.99 890.633 1194.67C891.865 1194.41 893.017 1194.01 894.195 1193.61C895.244 1193.25 896.263 1192.88 897.258 1192.42C898.196 1191.98 899.09 1191.51 899.977 1190.98C901.577 1190.05 903.072 1189.01 904.477 1187.83C904.639 1187.68 904.817 1187.57 904.977 1187.42C911.525 1181.7 915.727 1173.49 915.727 1164.23L915.727 968.827L915.727 967.171C915.727 952.067 904.759 939.46 890.164 936.546C890.134 936.54 890.1 936.552 890.07 936.546C887.73 935.962 885.325 935.577 882.852 935.577L817.32 935.358L798.383 935.202Z" fill="none" opacity="1" stroke="#06195f" stroke-linecap="round" stroke-linejoin="round" stroke-width="3" vectornator:layerName="Curve 55"/>
<path d="M1295.68 785.233C1295.48 785.039 1295.23 784.918 1295.03 784.731L1294.85 784.556C1282.22 772.177 1262.14 772.172 1250.04 784.53L1248.13 786.472L1111.82 925.61C1106.87 930.666 1104.97 937.539 1104.55 944.335C1103.58 951.778 1104.81 959.347 1108.83 965.55C1109.38 966.419 1110.16 967.213 1110.85 968.048C1111.41 968.728 1111.84 969.499 1112.48 970.131L1112.77 970.415L1174.47 1030.86L1174.76 1031.15C1175.24 1031.62 1175.84 1031.91 1176.34 1032.34C1177.52 1033.35 1178.72 1034.33 1179.99 1035.14C1181.06 1035.81 1182.16 1036.33 1183.28 1036.87C1184.28 1037.35 1185.27 1037.79 1186.3 1038.17C1187.28 1038.51 1188.25 1038.8 1189.25 1039.04C1191.04 1039.5 1192.84 1039.79 1194.67 1039.94C1194.89 1039.95 1195.1 1039.99 1195.31 1040C1204 1040.49 1212.74 1037.56 1219.22 1030.95L1355.97 891.371L1357.13 890.188C1367.7 879.399 1368.68 862.718 1360.3 850.422C1360.28 850.397 1360.25 850.382 1360.23 850.357C1358.97 848.302 1357.52 846.344 1355.75 844.613L1295.68 785.233Z" fill="none" opacity="1" stroke="#193390" stroke-linecap="round" stroke-linejoin="round" stroke-width="3" vectornator:layerName="Curve 59"/>
<path d="M1508.82 655.493C1510.3 664.405 1510.45 663.746 1515.7 669.434C1520.95 675.123 1526.21 677.005 1529.82 678.247C1536.36 680.497 1545.28 679.219 1551.33 679.963C1553.64 680.246 1554.36 680.803 1554.36 680.803C1554.36 680.803 1555.93 681.913 1556.12 683.118C1556.5 685.527 1554.69 687.052 1554.69 687.052L1553.18 689.372L1551.33 691.436L1541.66 701.83L1405.35 840.967C1400.39 846.023 1393.56 848.068 1386.77 848.627C1379.35 849.741 1371.76 848.675 1365.48 844.78C1364.6 844.249 1363.79 843.481 1362.94 842.817C1362.25 842.264 1361.47 841.857 1360.82 841.225L1360.53 840.941L1298.83 780.495L1298.54 780.21C1298.06 779.739 1297.76 779.15 1297.31 778.654C1296.29 777.493 1295.28 776.319 1294.44 775.059C1293.75 774.012 1293.2 772.919 1292.64 771.807C1292.14 770.819 1291.68 769.839 1291.29 768.816C1290.92 767.847 1290.61 766.885 1290.35 765.886C1289.86 764.102 1289.52 762.307 1289.34 760.483C1289.33 760.267 1289.28 760.059 1289.27 759.843C1288.6 751.172 1291.34 742.366 1297.82 735.756C1297.82 735.756 1398.19 633.375 1401.27 631.047C1403.64 629.265 1405.34 632.628 1411.43 635.108C1417.52 637.587 1425.65 640.965 1425.65 640.965C1425.65 640.965 1436.53 644.873 1448.49 644.998C1460.45 645.122 1462.02 645.477 1473.14 641.816C1484.26 638.154 1493.67 630.113 1493.67 630.113C1493.67 630.113 1504 622.577 1507.83 623.316C1508.55 623.454 1510.21 624.746 1509.76 633.788C1509.03 648.567 1507.33 646.582 1508.82 655.493Z" fill="none" opacity="1" stroke="#06195f" stroke-linecap="round" stroke-linejoin="round" stroke-width="3" vectornator:layerName="Curve 61"/>
<path d="M1360.69 510.088C1351.77 508.697 1352.42 508.543 1346.68 503.351C1340.94 498.159 1339 492.918 1337.72 489.32C1335.4 482.803 1336.59 473.875 1335.78 467.826C1335.48 465.524 1334.91 464.814 1334.91 464.814C1334.91 464.814 1333.78 463.255 1332.58 463.075C1330.17 462.716 1328.66 464.545 1328.66 464.545L1326.35 466.074L1324.31 467.955L1314.02 477.73L1176.3 615.476C1171.3 620.481 1169.32 627.335 1168.83 634.126C1167.8 641.56 1168.94 649.14 1172.9 655.383C1173.44 656.258 1174.22 657.06 1174.89 657.902C1175.45 658.587 1175.87 659.363 1176.5 660.001L1176.79 660.289L1237.87 721.358L1238.16 721.646C1238.64 722.122 1239.23 722.42 1239.73 722.861C1240.9 723.873 1242.09 724.871 1243.36 725.689C1244.41 726.377 1245.51 726.907 1246.63 727.456C1247.62 727.945 1248.6 728.401 1249.63 728.782C1250.6 729.136 1251.57 729.435 1252.57 729.688C1254.36 730.162 1256.16 730.477 1257.98 730.637C1258.2 730.651 1258.41 730.694 1258.62 730.703C1267.3 731.286 1276.08 728.45 1282.62 721.906C1282.62 721.906 1383.96 620.483 1386.25 617.373C1388.01 614.991 1384.63 613.327 1382.09 607.26C1379.54 601.192 1376.08 593.102 1376.08 593.102C1376.08 593.102 1372.06 582.26 1371.81 570.302C1371.56 558.345 1371.19 556.779 1374.74 545.621C1378.28 534.463 1386.23 524.973 1386.23 524.973C1386.23 524.973 1393.66 514.567 1392.88 510.74C1392.73 510.026 1391.42 508.376 1382.39 508.918C1367.62 509.804 1369.62 511.48 1360.69 510.088Z" fill="none" opacity="1" stroke="#06195f" stroke-linecap="round" stroke-linejoin="round" stroke-width="3" vectornator:layerName="Curve 61"/>
<path d="M1174.34 666.358C1174.14 666.165 1173.89 666.043 1173.69 665.857L1173.51 665.682C1160.88 653.303 1140.8 653.297 1128.7 665.655L1126.79 667.597L990.484 806.735C985.53 811.791 983.626 818.664 983.207 825.46C982.245 832.904 983.467 840.472 987.49 846.675C988.038 847.544 988.824 848.338 989.505 849.174C990.071 849.853 990.495 850.625 991.14 851.256L991.43 851.54L1053.13 911.987L1053.42 912.271C1053.9 912.743 1054.5 913.034 1055 913.47C1056.18 914.47 1057.38 915.456 1058.65 916.261C1059.71 916.938 1060.82 917.458 1061.94 917.995C1062.94 918.474 1063.93 918.92 1064.96 919.29C1065.94 919.634 1066.91 919.924 1067.91 920.166C1069.7 920.622 1071.5 920.92 1073.33 921.061C1073.55 921.072 1073.76 921.113 1073.97 921.12C1082.66 921.615 1091.4 918.689 1097.88 912.08L1234.63 772.496L1235.79 771.313C1246.36 760.524 1247.34 743.843 1238.96 731.548C1238.94 731.522 1238.91 731.507 1238.89 731.482C1237.63 729.427 1236.18 727.469 1234.41 725.738L1187.75 679.722L1174.34 666.358Z" fill="none" opacity="1" stroke="#06195f" stroke-linecap="round" stroke-linejoin="round" stroke-width="3" vectornator:layerName="Curve 62"/>
<path d="M558.567 785.246C558.764 785.053 559.01 784.931 559.212 784.744L559.391 784.569C572.021 772.185 592.094 772.171 604.206 784.524L606.11 786.465L742.48 925.544C747.436 930.598 749.342 937.47 749.765 944.266C750.73 951.709 749.511 959.278 745.49 965.483C744.943 966.352 744.158 967.147 743.477 967.982C742.911 968.662 742.487 969.434 741.843 970.066L741.553 970.35L679.879 1030.82L679.589 1031.11C679.108 1031.58 678.513 1031.87 678.008 1032.31C676.827 1033.31 675.633 1034.29 674.357 1035.1C673.296 1035.78 672.191 1036.3 671.069 1036.84C670.071 1037.31 669.082 1037.76 668.051 1038.13C667.075 1038.48 666.107 1038.77 665.103 1039.01C663.31 1039.47 661.508 1039.76 659.68 1039.91C659.464 1039.92 659.256 1039.96 659.039 1039.97C650.357 1040.46 641.607 1037.54 635.129 1030.94L498.322 891.41L497.162 890.227C486.588 879.443 485.592 862.762 493.973 850.463C493.99 850.438 494.023 850.423 494.04 850.398C495.302 848.343 496.75 846.384 498.516 844.652L558.567 785.246Z" fill="none" opacity="1" stroke="#193390" stroke-linecap="round" stroke-linejoin="round" stroke-width="3" vectornator:layerName="Curve 59"/>
<path d="M345.371 655.598C343.891 664.51 343.744 663.851 338.495 669.542C333.246 675.233 327.986 677.118 324.375 678.361C317.836 680.614 308.92 679.34 302.863 680.086C300.558 680.37 299.843 680.928 299.843 680.928C299.843 680.928 298.272 682.038 298.081 683.243C297.697 685.652 299.512 687.176 299.512 687.176L301.018 689.496L302.878 691.56L312.551 701.949L448.921 841.028C453.876 846.082 460.71 848.123 467.496 848.679C474.919 849.791 482.51 848.721 488.793 844.823C489.673 844.292 490.482 843.523 491.331 842.859C492.022 842.306 492.802 841.898 493.446 841.267L493.736 840.982L555.41 780.509L555.7 780.225C556.182 779.753 556.485 779.164 556.931 778.668C557.955 777.507 558.964 776.332 559.795 775.072C560.493 774.025 561.034 772.931 561.595 771.819C562.093 770.831 562.559 769.85 562.95 768.827C563.314 767.859 563.623 766.896 563.885 765.897C564.377 764.113 564.71 762.318 564.888 760.493C564.904 760.277 564.95 760.07 564.961 759.853C565.63 751.183 562.881 742.377 556.403 735.77C556.403 735.77 455.991 633.432 452.904 631.106C450.541 629.325 448.843 632.689 442.75 635.171C436.658 637.653 428.534 641.034 428.534 641.034C428.534 641.034 417.652 644.947 405.693 645.077C393.733 645.206 392.164 645.562 381.042 641.905C369.92 638.249 360.509 630.211 360.509 630.211C360.509 630.211 350.178 622.68 346.343 623.42C345.627 623.558 343.964 624.851 344.417 633.893C345.156 648.672 346.852 646.686 345.371 655.598Z" fill="none" opacity="1" stroke="#06195f" stroke-linecap="round" stroke-linejoin="round" stroke-width="3" vectornator:layerName="Curve 61"/>
<path d="M493.433 510.13C502.359 508.734 501.702 508.581 507.442 503.386C513.183 498.192 515.117 492.95 516.395 489.351C518.71 482.834 517.521 473.906 518.325 467.857C518.631 465.555 519.195 464.844 519.195 464.844C519.195 464.844 520.32 463.284 521.527 463.104C523.94 462.744 525.447 464.572 525.447 464.572L527.752 466.1L529.797 467.98L540.094 477.751L677.87 615.438C682.877 620.441 684.853 627.294 685.345 634.085C686.385 641.518 685.243 649.099 681.286 655.344C680.747 656.219 679.97 657.021 679.298 657.864C678.738 658.549 678.323 659.325 677.685 659.964L677.398 660.251L616.342 721.347L616.054 721.634C615.578 722.111 614.986 722.409 614.486 722.85C613.315 723.863 612.131 724.861 610.863 725.68C609.809 726.368 608.71 726.899 607.593 727.449C606.6 727.938 605.615 728.394 604.588 728.775C603.616 729.13 602.651 729.43 601.65 729.682C599.861 730.157 598.063 730.474 596.236 730.634C596.02 730.648 595.812 730.692 595.595 730.701C586.919 731.287 578.14 728.455 571.595 721.914C571.595 721.914 470.216 620.534 467.92 617.425C466.161 615.044 469.541 613.379 472.081 607.31C474.621 601.241 478.079 593.15 478.079 593.15C478.079 593.15 482.095 582.306 482.339 570.348C482.582 558.39 482.953 556.825 479.402 545.668C475.852 534.512 467.904 525.025 467.904 525.025C467.904 525.025 460.471 514.623 461.248 510.795C461.393 510.081 462.701 508.43 471.738 508.969C486.51 509.848 484.507 511.525 493.433 510.13Z" fill="none" opacity="1" stroke="#06195f" stroke-linecap="round" stroke-linejoin="round" stroke-width="3" vectornator:layerName="Curve 61"/>
<path d="M679.856 666.319C680.053 666.126 680.299 666.004 680.502 665.817L680.68 665.642C693.31 653.258 713.383 653.244 725.496 665.597L727.399 667.538L863.769 806.617C868.725 811.671 870.632 818.544 871.054 825.34C872.019 832.783 870.8 840.352 866.779 846.556C866.232 847.426 865.447 848.22 864.766 849.055C864.2 849.735 863.777 850.507 863.132 851.139L862.842 851.423L801.168 911.896L800.878 912.18C800.397 912.652 799.802 912.944 799.297 913.38C798.117 914.381 796.922 915.367 795.646 916.173C794.585 916.85 793.481 917.37 792.358 917.908C791.36 918.387 790.371 918.834 789.34 919.205C788.364 919.549 787.396 919.839 786.393 920.082C784.599 920.539 782.798 920.837 780.97 920.979C780.753 920.99 780.545 921.031 780.328 921.038C771.646 921.537 762.897 918.615 756.418 912.008L619.611 772.483L618.451 771.301C607.877 760.516 606.882 743.836 615.262 731.537C615.28 731.511 615.312 731.496 615.329 731.471C616.591 729.416 618.04 727.457 619.805 725.725L666.443 679.689L679.856 666.319Z" fill="none" opacity="1" stroke="#06195f" stroke-linecap="round" stroke-linejoin="round" stroke-width="3" vectornator:layerName="Curve 62"/>
</g>
</svg>
