<?xml version="1.0" encoding="UTF-8" standalone="no"?>
<!DOCTYPE svg PUBLIC "-//W3C//DTD SVG 1.1//EN" "http://www.w3.org/Graphics/SVG/1.1/DTD/svg11.dtd">
<!-- Created with Vectornator (http://vectornator.io/) -->
<svg height="100%" stroke-miterlimit="10" style="fill-rule:nonzero;clip-rule:evenodd;stroke-linecap:round;stroke-linejoin:round;" version="1.1" viewBox="0 0 1800 2160" width="100%" xml:space="preserve" xmlns="http://www.w3.org/2000/svg" xmlns:vectornator="http://vectornator.io" xmlns:xlink="http://www.w3.org/1999/xlink">
<defs/>
<g id="Layer-Black" vectornator:layerName="Layer Black">
<path d="M839.009 1467.34L839.009 1467.34C839.606 1467.35 840.081 1467.97 840.071 1468.73L836.37 1753.02C836.36 1753.79 835.868 1754.4 835.272 1754.39L835.272 1754.39C834.675 1754.39 834.2 1753.77 834.21 1753L837.911 1468.71C837.921 1467.95 838.413 1467.33 839.009 1467.34Z" fill="#000000" fill-rule="nonzero" opacity="1" stroke="#000000" stroke-linecap="square" stroke-linejoin="bevel" stroke-width="12.9836" vectornator:layerName="Rectangle 1"/>
<path d="M1012.54 1468.81L1012.54 1468.81C1013.14 1468.81 1013.62 1469.44 1013.61 1470.2L1009.91 1754.49C1009.9 1755.25 1009.4 1755.87 1008.81 1755.86L1008.81 1755.86C1008.21 1755.86 1007.74 1755.23 1007.75 1754.47L1011.45 1470.18C1011.46 1469.42 1011.95 1468.8 1012.54 1468.81Z" fill="#000000" fill-rule="nonzero" opacity="1" stroke="#000000" stroke-linecap="square" stroke-linejoin="bevel" stroke-width="12.9836" vectornator:layerName="Rectangle 2"/>
</g>
<g id="Layer-Inner" vectornator:layerName="Layer Inner">
<path d="M970.842 941.341L1054.27 941.341C1070.12 941.341 1082.98 953.916 1082.98 969.428L1082.98 1160.24C1082.98 1175.76 1070.12 1188.33 1054.27 1188.33L970.842 1188.33C954.986 1188.33 942.131 1175.76 942.131 1160.24L942.131 969.428C942.131 953.916 954.986 941.341 970.842 941.341Z" fill="#5c5fc1" fill-rule="nonzero" opacity="1" stroke="#5c5fc1" stroke-linecap="square" stroke-linejoin="bevel" stroke-width="12.9836" vectornator:layerName="Rectangle 7"/>
<path d="M799.847 941.341L881.818 941.341C897.398 941.341 910.029 953.972 910.029 969.552L910.029 1161.21C910.029 1176.79 897.398 1189.42 881.818 1189.42L799.847 1189.42C784.267 1189.42 771.637 1176.79 771.637 1161.21L771.637 969.552C771.637 961.162 775.3 953.627 781.114 948.459C786.096 944.031 792.658 941.341 799.847 941.341Z" fill="#5c5fc1" fill-rule="nonzero" opacity="1" stroke="#5c5fc1" stroke-linecap="square" stroke-linejoin="bevel" stroke-width="12.9836" vectornator:layerName="Rectangle 8"/>
<path d="M1255.36 742.97L1329.39 781.43C1343.46 788.74 1349.07 805.824 1341.92 819.59L1253.95 988.919C1246.8 1002.68 1229.6 1007.92 1215.53 1000.61L1141.5 962.147C1127.42 954.837 1121.82 937.752 1128.97 923.987L1216.93 754.658C1224.09 740.893 1241.29 735.66 1255.36 742.97Z" fill="#8d8fcd" fill-rule="nonzero" opacity="1" stroke="#8d8fcd" stroke-linecap="square" stroke-linejoin="bevel" stroke-width="12.9836" vectornator:layerName="Rectangle 12"/>
<path d="M595.961 742.97L521.931 781.43C507.859 788.74 502.25 805.824 509.401 819.59L597.369 988.919C604.52 1002.68 621.724 1007.92 635.795 1000.61L709.826 962.147C723.897 954.837 729.507 937.752 722.356 923.987L634.387 754.658C627.236 740.893 610.032 735.66 595.961 742.97Z" fill="#8d8fcd" fill-rule="nonzero" opacity="1" stroke="#8d8fcd" stroke-linecap="square" stroke-linejoin="bevel" stroke-width="12.9836" vectornator:layerName="Rectangle 16"/>
<path d="M1105.48 665.106L1178.22 702.895C1192.05 710.078 1197.43 727.109 1190.25 740.934L1101.89 911.012C1094.71 924.838 1077.68 930.223 1063.85 923.04L991.113 885.251C977.287 878.068 971.901 861.037 979.084 847.212L1067.44 677.134C1071.31 669.689 1078.03 664.691 1085.58 662.786C1092.04 661.153 1099.1 661.791 1105.48 665.106Z" fill="#5c5fc1" fill-rule="nonzero" opacity="1" stroke="#5c5fc1" stroke-linecap="square" stroke-linejoin="bevel" stroke-width="12.9836" vectornator:layerName="Rectangle 13"/>
<path d="M745.841 665.106L673.101 702.895C659.275 710.078 653.89 727.109 661.072 740.934L749.429 911.012C756.612 924.838 773.643 930.223 787.469 923.04L860.209 885.251C874.035 878.068 879.42 861.037 872.238 847.212L783.881 677.134C780.013 669.689 773.288 664.691 765.747 662.786C759.284 661.153 752.221 661.791 745.841 665.106Z" fill="#5c5fc1" fill-rule="nonzero" opacity="1" stroke="#5c5fc1" stroke-linecap="square" stroke-linejoin="bevel" stroke-width="12.9836" vectornator:layerName="Rectangle 17"/>
<path d="M1413.1 531.331C1411.9 524.769 1412.8 527.45 1403.79 539.225C1395.46 550.116 1377.67 562.429 1358.35 565.481C1335.14 569.149 1323.8 563.981 1317.95 564.94C1315.24 565.386 1315.32 567.41 1313.04 571.796L1251.82 689.288C1244.63 703.114 1250.02 720.144 1263.85 727.327L1336.59 765.116C1350.41 772.299 1367.44 766.914 1374.63 753.088L1465.35 577.77C1466.12 576.29 1472.33 566.996 1470.85 568.115C1467.71 570.486 1463.43 570.542 1462.89 570.755C1462.89 570.755 1448.65 573.688 1439.76 572.292C1430.88 570.896 1427.34 565.172 1427.34 565.172C1427.34 565.172 1419.81 558.896 1417.34 553.711C1415.01 548.828 1414.67 543.818 1414.67 543.818C1414.67 543.818 1414.46 538.763 1413.1 531.331Z" fill="#42458b" fill-rule="nonzero" opacity="1" stroke="#42458b" stroke-linecap="square" stroke-linejoin="bevel" stroke-width="12.9836" vectornator:layerName="Rectangle 14"/>
<path d="M438.223 531.331C439.425 524.769 438.525 527.45 447.531 539.225C455.86 550.116 473.655 562.429 492.967 565.481C516.179 569.149 527.524 563.981 533.368 564.94C536.083 565.386 535.999 567.41 538.278 571.796L599.505 689.288C606.688 703.114 601.302 720.144 587.476 727.327L514.736 765.116C500.91 772.299 483.879 766.914 476.697 753.088L385.969 577.77C385.2 576.29 378.989 566.996 380.473 568.115C383.615 570.486 387.891 570.542 388.429 570.755C388.429 570.755 402.67 573.688 411.558 572.292C420.446 570.896 423.981 565.172 423.981 565.172C423.981 565.172 431.512 558.896 433.984 553.711C436.311 548.828 436.648 543.818 436.648 543.818C436.648 543.818 436.863 538.763 438.223 531.331Z" fill="#42458b" fill-rule="nonzero" opacity="1" stroke="#42458b" stroke-linecap="square" stroke-linejoin="bevel" stroke-width="12.9836" vectornator:layerName="Rectangle 18"/>
<path d="M1261.95 452.79C1268.04 450.062 1265.32 450.84 1260.72 464.932C1256.47 477.966 1256.41 499.606 1264.83 517.248C1274.96 538.452 1285.65 544.872 1288.17 550.232C1289.34 552.721 1287.62 553.799 1285.3 558.162L1223.18 675.183C1215.86 688.935 1198.77 694.147 1185.02 686.824L1112.67 648.298C1098.92 640.975 1093.7 623.891 1101.03 610.139L1194.08 436.045C1194.87 434.573 1199 424.189 1198.92 426.045C1198.75 429.978 1201.13 433.533 1201.26 434.097C1201.26 434.097 1206.91 447.494 1213.09 454.026C1219.28 460.559 1226 460.228 1226 460.228C1226 460.228 1235.44 462.878 1241.11 461.977C1246.45 461.128 1250.77 458.567 1250.77 458.567C1250.77 458.567 1255.06 455.88 1261.95 452.79Z" fill="#42458b" fill-rule="nonzero" opacity="1" stroke="#42458b" stroke-linecap="square" stroke-linejoin="bevel" stroke-width="12.9836" vectornator:layerName="Rectangle 15"/>
<path d="M589.368 452.79C583.279 450.062 585.999 450.84 590.599 464.932C594.853 477.966 594.917 499.606 586.489 517.248C576.36 538.452 565.673 544.872 563.152 550.232C561.981 552.721 563.697 553.799 566.02 558.162L628.141 675.183C635.464 688.935 652.549 694.147 666.301 686.824L738.653 648.298C752.406 640.975 757.618 623.891 750.295 610.139L657.24 436.045C656.456 434.573 652.317 424.189 652.399 426.045C652.572 429.978 650.195 433.533 650.066 434.097C650.066 434.097 644.413 447.494 638.227 454.026C632.041 460.559 625.322 460.228 625.322 460.228C625.322 460.228 615.883 462.878 610.211 461.977C604.868 461.128 600.549 458.567 600.549 458.567C600.549 458.567 596.262 455.88 589.368 452.79Z" fill="#42458b" fill-rule="nonzero" opacity="1" stroke="#42458b" stroke-linecap="square" stroke-linejoin="bevel" stroke-width="12.9836" vectornator:layerName="Rectangle 19"/>
<path d="M970.042 1207.52L1053.47 1207.52C1069.32 1207.52 1082.18 1220.09 1082.18 1235.6L1082.18 1426.42C1082.18 1441.93 1069.32 1454.5 1053.47 1454.5L970.042 1454.5C954.185 1454.5 941.331 1441.93 941.331 1426.42L941.331 1235.6C941.331 1220.09 954.185 1207.52 970.042 1207.52Z" fill="#5c5fc1" fill-rule="nonzero" opacity="1" stroke="#5c5fc1" stroke-linecap="square" stroke-linejoin="bevel" stroke-width="12.9836" vectornator:layerName="Rectangle 10"/>
<path d="M801.142 1207.52L883.113 1207.52C898.693 1207.52 911.324 1220.15 911.324 1235.73L911.324 1427.39C911.324 1442.97 898.693 1455.6 883.113 1455.6L801.142 1455.6C785.562 1455.6 772.932 1442.97 772.932 1427.39L772.932 1235.73C772.932 1227.34 776.595 1219.8 782.409 1214.63C787.391 1210.21 793.953 1207.52 801.142 1207.52Z" fill="#5c5fc1" fill-rule="nonzero" opacity="1" stroke="#5c5fc1" stroke-linecap="square" stroke-linejoin="bevel" stroke-width="12.9836" vectornator:layerName="Rectangle 11"/>
</g>
<g id="Layer-Membrane" vectornator:layerName="Layer Membrane">
<path d="M970.345 935.202C970.069 935.202 969.808 935.288 969.533 935.296L969.283 935.296C951.594 935.296 937.252 949.339 937.252 966.64L937.252 969.358L937.252 1164.14C937.252 1171.22 940.701 1177.46 945.158 1182.61C949.68 1188.6 955.849 1193.15 963.064 1194.76C964.064 1195 965.18 1195.02 966.252 1195.14C967.132 1195.23 967.974 1195.48 968.877 1195.48L969.283 1195.48L1055.66 1195.48L1056.06 1195.48C1056.74 1195.48 1057.37 1195.27 1058.03 1195.23C1059.58 1195.12 1061.12 1194.99 1062.6 1194.67C1063.83 1194.41 1064.98 1194.01 1066.16 1193.61C1067.21 1193.25 1068.22 1192.88 1069.22 1192.42C1070.16 1191.98 1071.05 1191.51 1071.94 1190.98C1073.54 1190.05 1075.03 1189.01 1076.44 1187.83C1076.6 1187.68 1076.78 1187.57 1076.94 1187.42C1083.49 1181.7 1087.69 1173.49 1087.69 1164.23L1087.69 968.827L1087.69 967.171C1087.69 952.067 1076.72 939.46 1062.13 936.546C1062.1 936.54 1062.06 936.552 1062.03 936.546C1059.69 935.962 1057.29 935.577 1054.81 935.577L970.345 935.202Z" fill="none" opacity="1" stroke="#313367" stroke-linecap="round" stroke-linejoin="round" stroke-width="3" vectornator:layerName="Curve 1"/>
<path d="M969.544 1201.38C969.268 1201.38 969.007 1201.46 968.732 1201.47L968.482 1201.47C950.793 1201.47 936.451 1215.51 936.451 1232.81L936.451 1235.53L936.451 1430.31C936.451 1437.39 939.901 1443.63 944.357 1448.78C948.879 1454.77 955.049 1459.32 962.263 1460.94C963.263 1461.18 964.379 1461.19 965.451 1461.31C966.331 1461.4 967.174 1461.66 968.076 1461.66L968.482 1461.66L1054.86 1461.66L1055.26 1461.66C1055.94 1461.66 1056.57 1461.45 1057.23 1461.41C1058.78 1461.29 1060.32 1461.16 1061.79 1460.84C1063.03 1460.59 1064.18 1460.18 1065.36 1459.78C1066.41 1459.43 1067.42 1459.05 1068.42 1458.59C1069.36 1458.16 1070.25 1457.69 1071.14 1457.16C1072.74 1456.23 1074.23 1455.18 1075.64 1454C1075.8 1453.86 1075.98 1453.74 1076.14 1453.59C1082.69 1447.87 1086.89 1439.66 1086.89 1430.41L1086.89 1235L1086.89 1233.34C1086.89 1218.24 1075.92 1205.63 1061.33 1202.72C1061.3 1202.71 1061.26 1202.73 1061.23 1202.72C1058.89 1202.14 1056.49 1201.75 1054.01 1201.75L969.544 1201.38Z" fill="none" opacity="1" stroke="#313367" stroke-linecap="round" stroke-linejoin="round" stroke-width="3" vectornator:layerName="Curve 57"/>
<path d="M799.678 1201.38C799.402 1201.38 799.141 1201.46 798.865 1201.47L798.615 1201.47C780.927 1201.47 766.584 1215.51 766.584 1232.81L766.584 1235.53L766.584 1430.31C766.584 1437.39 770.034 1443.63 774.49 1448.78C779.012 1454.77 785.182 1459.32 792.397 1460.94C793.396 1461.18 794.513 1461.19 795.584 1461.31C796.464 1461.4 797.307 1461.66 798.209 1461.66L798.615 1461.66L884.99 1461.66L885.397 1461.66C886.071 1461.66 886.7 1461.45 887.365 1461.41C888.909 1461.29 890.453 1461.16 891.928 1460.84C893.159 1460.59 894.312 1460.18 895.49 1459.78C896.539 1459.43 897.558 1459.05 898.553 1458.59C899.491 1458.16 900.385 1457.69 901.272 1457.16C902.872 1456.23 904.367 1455.18 905.772 1454C905.934 1453.86 906.112 1453.74 906.272 1453.59C912.82 1447.87 917.022 1439.66 917.022 1430.41L917.022 1235L917.022 1233.34C917.022 1218.24 906.054 1205.63 891.459 1202.72C891.429 1202.71 891.395 1202.73 891.365 1202.72C889.025 1202.14 886.62 1201.75 884.147 1201.75L818.615 1201.53L799.678 1201.38Z" fill="none" opacity="1" stroke="#313367" stroke-linecap="round" stroke-linejoin="round" stroke-width="3" vectornator:layerName="Curve 58"/>
<path d="M798.383 935.202C798.107 935.202 797.846 935.288 797.57 935.296L797.32 935.296C779.632 935.296 765.289 949.339 765.289 966.64L765.289 969.358L765.289 1164.14C765.289 1171.22 768.739 1177.46 773.195 1182.61C777.717 1188.6 783.887 1193.15 791.102 1194.76C792.102 1195 793.218 1195.02 794.289 1195.14C795.169 1195.23 796.012 1195.48 796.914 1195.48L797.32 1195.48L883.695 1195.48L884.102 1195.48C884.776 1195.48 885.405 1195.27 886.07 1195.23C887.614 1195.12 889.158 1194.99 890.633 1194.67C891.865 1194.41 893.017 1194.01 894.195 1193.61C895.244 1193.25 896.263 1192.88 897.258 1192.42C898.196 1191.98 899.09 1191.51 899.977 1190.98C901.577 1190.05 903.072 1189.01 904.477 1187.83C904.639 1187.68 904.817 1187.57 904.977 1187.42C911.525 1181.7 915.727 1173.49 915.727 1164.23L915.727 968.827L915.727 967.171C915.727 952.067 904.759 939.46 890.164 936.546C890.134 936.54 890.1 936.552 890.07 936.546C887.73 935.962 885.325 935.577 882.852 935.577L817.32 935.358L798.383 935.202Z" fill="none" opacity="1" stroke="#313367" stroke-linecap="round" stroke-linejoin="round" stroke-width="3" vectornator:layerName="Curve 55"/>
<path d="M1257.75 737.293C1257.5 737.165 1257.23 737.121 1256.99 737.001L1256.76 736.886C1241.07 728.731 1221.87 734.581 1213.89 749.934L1212.64 752.346L1122.84 925.194C1119.58 931.475 1119.76 938.605 1121.34 945.228C1122.59 952.628 1125.97 959.511 1131.63 964.27C1132.41 964.942 1133.39 965.472 1134.28 966.073C1135.02 966.557 1135.65 967.172 1136.45 967.588L1136.81 967.775L1213.46 1007.59L1213.82 1007.78C1214.42 1008.09 1215.08 1008.2 1215.69 1008.47C1217.11 1009.08 1218.54 1009.67 1219.99 1010.07C1221.21 1010.41 1222.41 1010.58 1223.65 1010.77C1224.74 1010.94 1225.82 1011.08 1226.91 1011.13C1227.94 1011.17 1228.96 1011.17 1229.99 1011.11C1231.83 1011.02 1233.64 1010.78 1235.43 1010.38C1235.64 1010.33 1235.86 1010.31 1236.07 1010.25C1244.51 1008.19 1252.03 1002.84 1256.29 994.631L1346.38 821.228L1347.14 819.758C1354.1 806.356 1350.18 790.112 1338.58 780.797C1338.55 780.778 1338.52 780.773 1338.49 780.754C1336.69 779.157 1334.73 777.707 1332.53 776.566L1257.75 737.293Z" fill="none" opacity="1" stroke="#313367" stroke-linecap="round" stroke-linejoin="round" stroke-width="3" vectornator:layerName="Curve 63"/>
<path d="M593.572 737.293C593.817 737.165 594.088 737.121 594.336 737.001L594.558 736.886C610.255 728.731 629.456 734.581 637.432 749.934L638.685 752.346L728.482 925.194C731.745 931.475 731.561 938.605 729.98 945.228C728.729 952.628 725.352 959.511 719.694 964.27C718.916 964.942 717.934 965.472 717.039 966.073C716.299 966.557 715.668 967.172 714.868 967.588L714.507 967.775L637.858 1007.59L637.498 1007.78C636.9 1008.09 636.245 1008.2 635.636 1008.47C634.214 1009.08 632.783 1009.67 631.328 1010.07C630.115 1010.41 628.907 1010.58 627.676 1010.77C626.582 1010.94 625.505 1011.08 624.411 1011.13C623.377 1011.17 622.367 1011.17 621.336 1011.11C619.487 1011.02 617.677 1010.78 615.888 1010.38C615.677 1010.33 615.466 1010.31 615.257 1010.25C606.808 1008.19 599.293 1002.84 595.027 994.631L504.943 821.228L504.18 819.758C497.217 806.356 501.137 790.112 512.745 780.797C512.769 780.778 512.804 780.773 512.828 780.754C514.636 779.157 516.593 777.707 518.788 776.566L593.572 737.293Z" fill="none" opacity="1" stroke="#313367" stroke-linecap="round" stroke-linejoin="round" stroke-width="3" vectornator:layerName="Curve 67"/>
<path d="M1423.78 551.023C1427.79 559.114 1427.74 558.441 1434.43 562.35C1441.11 566.26 1446.69 566.526 1450.51 566.66C1457.42 566.904 1465.57 563.081 1471.58 562.026C1473.87 561.625 1474.72 561.949 1474.72 561.949C1474.72 561.949 1476.54 562.552 1477.08 563.648C1478.15 565.84 1476.86 567.828 1476.86 567.828L1476.1 570.487L1474.92 573.003L1468.7 585.765L1378.91 758.613C1375.64 764.894 1369.71 768.843 1363.38 771.357C1356.6 774.588 1349.03 775.782 1341.88 773.889C1340.89 773.639 1339.89 773.14 1338.88 772.753C1338.06 772.426 1337.19 772.263 1336.39 771.848L1336.03 771.66L1259.39 731.84L1259.02 731.653C1258.43 731.342 1257.96 730.867 1257.39 730.524C1256.07 729.712 1254.77 728.884 1253.6 727.921C1252.63 727.124 1251.79 726.235 1250.93 725.336C1250.17 724.536 1249.43 723.735 1248.76 722.87C1248.13 722.05 1247.55 721.22 1247.01 720.341C1246.02 718.779 1245.18 717.159 1244.47 715.466C1244.4 715.264 1244.29 715.079 1244.22 714.875C1241.04 706.778 1241.1 697.554 1245.37 689.343C1245.37 689.343 1311.51 562.137 1313.78 559.011C1315.52 556.617 1318.12 559.338 1324.68 559.932C1331.23 560.526 1339.99 561.387 1339.99 561.387C1339.99 561.387 1351.54 561.95 1363.01 558.581C1374.49 555.212 1376.09 555.093 1385.66 548.347C1395.23 541.601 1401.88 531.165 1401.88 531.165C1401.88 531.165 1409.56 520.944 1413.45 520.532C1414.17 520.456 1416.14 521.206 1418.35 529.986C1421.96 544.336 1419.76 542.932 1423.78 551.023Z" fill="none" opacity="1" stroke="#313367" stroke-linecap="round" stroke-linejoin="round" stroke-width="3" vectornator:layerName="Curve 64"/>
<path d="M427.546 551.023C423.527 559.114 423.579 558.441 416.897 562.35C410.214 566.26 404.634 566.526 400.816 566.66C393.905 566.904 385.749 563.081 379.739 562.026C377.452 561.625 376.605 561.949 376.605 561.949C376.605 561.949 374.778 562.552 374.243 563.648C373.172 565.84 374.462 567.828 374.462 567.828L375.225 570.487L376.402 573.003L382.618 585.765L472.414 758.613C475.677 764.894 481.616 768.843 487.944 771.357C494.718 774.588 502.291 775.782 509.438 773.889C510.435 773.639 511.434 773.14 512.44 772.753C513.262 772.426 514.127 772.263 514.927 771.848L515.288 771.66L591.937 731.84L592.297 731.653C592.895 731.342 593.357 730.867 593.929 730.524C595.247 729.712 596.556 728.884 597.718 727.921C598.692 727.124 599.529 726.235 600.39 725.336C601.156 724.536 601.888 723.735 602.56 722.87C603.191 722.05 603.768 721.22 604.31 720.341C605.302 718.779 606.145 717.159 606.848 715.466C606.927 715.264 607.031 715.079 607.105 714.875C610.277 706.778 610.22 697.554 605.954 689.343C605.954 689.343 539.816 562.137 537.544 559.011C535.803 556.617 533.197 559.338 526.645 559.932C520.093 560.526 511.336 561.387 511.336 561.387C511.336 561.387 499.786 561.95 488.31 558.581C476.834 555.212 475.229 555.093 465.661 548.347C456.092 541.601 449.439 531.165 449.439 531.165C449.439 531.165 441.759 520.944 437.875 520.532C437.15 520.456 435.182 521.206 432.973 529.986C429.363 544.336 431.565 542.932 427.546 551.023Z" fill="none" opacity="1" stroke="#313367" stroke-linecap="round" stroke-linejoin="round" stroke-width="3" vectornator:layerName="Curve 68"/>
<path d="M1239.68 455.149C1230.73 456.422 1231.32 456.084 1224.31 452.792C1217.3 449.501 1213.92 445.053 1211.65 441.984C1207.53 436.427 1206.06 427.541 1203.52 421.991C1202.56 419.879 1201.81 419.364 1201.81 419.364C1201.81 419.364 1200.28 418.201 1199.07 418.381C1196.66 418.741 1195.75 420.93 1195.75 420.93L1194 423.065L1192.59 425.461L1185.59 437.813L1094.05 609.74C1090.72 615.988 1090.83 623.119 1092.35 629.758C1093.52 637.17 1096.83 644.087 1102.44 648.903C1103.21 649.583 1104.19 650.123 1105.07 650.733C1105.81 651.225 1106.43 651.846 1107.23 652.27L1107.59 652.461L1183.83 693.057L1184.19 693.248C1184.78 693.565 1185.44 693.676 1186.04 693.953C1187.46 694.579 1188.88 695.188 1190.33 695.6C1191.54 695.951 1192.75 696.138 1193.98 696.337C1195.07 696.515 1196.15 696.664 1197.24 696.728C1198.27 696.783 1199.28 696.788 1200.32 696.737C1202.16 696.669 1203.98 696.446 1205.77 696.066C1205.98 696.016 1206.19 695.997 1206.4 695.943C1214.87 693.969 1222.44 688.696 1226.79 680.528C1226.79 680.528 1294.13 553.956 1295.42 550.312C1296.41 547.522 1292.69 546.916 1288.49 541.854C1284.29 536.792 1278.61 530.064 1278.61 530.064C1278.61 530.064 1271.61 520.866 1267.88 509.501C1264.15 498.136 1263.34 496.746 1263.48 485.039C1263.62 473.332 1268.45 461.938 1268.45 461.938C1268.45 461.938 1272.52 449.818 1270.65 446.384C1270.31 445.744 1268.57 444.547 1260.09 447.702C1246.22 452.858 1248.62 453.877 1239.68 455.149Z" fill="none" opacity="1" stroke="#313367" stroke-linecap="round" stroke-linejoin="round" stroke-width="3" vectornator:layerName="Curve 65"/>
<path d="M611.643 455.149C620.587 456.422 620.003 456.084 627.011 452.792C634.018 449.501 637.4 445.053 639.673 441.984C643.79 436.427 645.261 427.541 647.797 421.991C648.762 419.879 649.509 419.364 649.509 419.364C649.509 419.364 651.041 418.201 652.248 418.381C654.661 418.741 655.568 420.93 655.568 420.93L657.326 423.065L658.733 425.461L665.727 437.813L757.274 609.74C760.601 615.988 760.49 623.119 758.976 629.758C757.8 637.17 754.493 644.087 748.884 648.903C748.113 649.583 747.136 650.123 746.247 650.733C745.512 651.225 744.888 651.846 744.091 652.27L743.733 652.461L667.492 693.057L667.134 693.248C666.539 693.565 665.886 693.676 665.279 693.953C663.863 694.579 662.439 695.188 660.987 695.6C659.778 695.951 658.572 696.138 657.343 696.337C656.25 696.515 655.175 696.664 654.082 696.728C653.049 696.783 652.038 696.788 651.007 696.737C649.157 696.669 647.345 696.446 645.551 696.066C645.34 696.016 645.129 695.997 644.919 695.943C636.449 693.969 628.881 688.696 624.532 680.528C624.532 680.528 557.189 553.956 555.901 550.312C554.914 547.522 558.633 546.916 562.835 541.854C567.037 536.792 572.708 530.064 572.708 530.064C572.708 530.064 579.717 520.866 583.442 509.501C587.168 498.136 587.98 496.746 587.843 485.039C587.706 473.332 582.876 461.938 582.876 461.938C582.876 461.938 578.806 449.818 580.667 446.384C581.014 445.744 582.748 444.547 591.234 447.702C605.104 452.858 602.699 453.877 611.643 455.149Z" fill="none" opacity="1" stroke="#313367" stroke-linecap="round" stroke-linejoin="round" stroke-width="3" vectornator:layerName="Curve 69"/>
<path d="M1107.01 658.982C1106.77 658.855 1106.49 658.811 1106.25 658.691L1106.03 658.576C1090.33 650.421 1071.13 656.271 1063.15 671.623L1061.9 674.036L972.101 846.884C968.838 853.165 969.022 860.295 970.603 866.918C971.854 874.318 975.231 881.201 980.889 885.96C981.667 886.632 982.649 887.162 983.545 887.762C984.285 888.247 984.915 888.862 985.715 889.278L986.076 889.465L1062.72 929.285L1063.09 929.472C1063.68 929.783 1064.34 929.888 1064.95 930.158C1066.37 930.77 1067.8 931.364 1069.26 931.762C1070.47 932.1 1071.68 932.274 1072.91 932.461C1074 932.628 1075.08 932.766 1076.17 932.819C1077.21 932.864 1078.22 932.858 1079.25 932.797C1081.1 932.71 1082.91 932.469 1084.7 932.071C1084.91 932.019 1085.12 931.998 1085.33 931.941C1093.78 929.881 1101.29 924.531 1105.56 916.32L1195.64 742.918L1196.4 741.448C1203.37 728.045 1199.45 711.802 1187.84 702.487C1187.81 702.468 1187.78 702.463 1187.75 702.444C1185.95 700.847 1183.99 699.396 1181.8 698.256L1123.74 667.851L1107.01 658.982Z" fill="none" opacity="1" stroke="#313367" stroke-linecap="round" stroke-linejoin="round" stroke-width="3" vectornator:layerName="Curve 66"/>
<path d="M744.311 658.982C744.556 658.855 744.827 658.811 745.075 658.691L745.297 658.576C760.994 650.421 780.195 656.271 788.171 671.623L789.424 674.036L879.22 846.884C882.483 853.165 882.3 860.295 880.719 866.918C879.468 874.318 876.09 881.201 870.433 885.96C869.655 886.632 868.673 887.162 867.777 887.762C867.037 888.247 866.407 888.862 865.606 889.278L865.246 889.465L788.597 929.285L788.237 929.472C787.638 929.783 786.984 929.888 786.374 930.158C784.953 930.77 783.522 931.364 782.066 931.762C780.854 932.1 779.646 932.274 778.415 932.461C777.32 932.628 776.244 932.766 775.15 932.819C774.116 932.864 773.105 932.858 772.075 932.797C770.226 932.71 768.416 932.469 766.626 932.071C766.416 932.019 766.205 931.998 765.995 931.941C757.546 929.881 750.032 924.531 745.766 916.32L655.682 742.918L654.918 741.448C647.955 728.045 651.876 711.802 663.484 702.487C663.508 702.468 663.543 702.463 663.567 702.444C665.374 700.847 667.332 699.396 669.526 698.256L727.578 667.851L744.311 658.982Z" fill="none" opacity="1" stroke="#313367" stroke-linecap="round" stroke-linejoin="round" stroke-width="3" vectornator:layerName="Curve 70"/>
</g>
</svg>
