<?xml version="1.0" encoding="UTF-8" standalone="no"?>
<!DOCTYPE svg PUBLIC "-//W3C//DTD SVG 1.1//EN" "http://www.w3.org/Graphics/SVG/1.1/DTD/svg11.dtd">
<!-- Created with Vectornator (http://vectornator.io/) -->
<svg height="100%" stroke-miterlimit="10" style="fill-rule:nonzero;clip-rule:evenodd;stroke-linecap:round;stroke-linejoin:round;" version="1.1" viewBox="0 0 1800 2160" width="100%" xml:space="preserve" xmlns="http://www.w3.org/2000/svg" xmlns:vectornator="http://vectornator.io" xmlns:xlink="http://www.w3.org/1999/xlink">
<defs/>
<g id="Layer-Black" vectornator:layerName="Layer Black">
<path d="M839.009 1467.34L839.009 1467.34C839.606 1467.35 840.081 1467.97 840.071 1468.73L836.37 1753.02C836.36 1753.79 835.868 1754.4 835.272 1754.39L835.272 1754.39C834.675 1754.39 834.2 1753.77 834.21 1753L837.911 1468.71C837.921 1467.95 838.413 1467.33 839.009 1467.34Z" fill="#000000" fill-rule="nonzero" opacity="1" stroke="#000000" stroke-linecap="square" stroke-linejoin="bevel" stroke-width="12.9836" vectornator:layerName="Rectangle 1"/>
<path d="M1012.54 1468.81L1012.54 1468.81C1013.14 1468.81 1013.62 1469.44 1013.61 1470.2L1009.91 1754.49C1009.9 1755.25 1009.4 1755.87 1008.81 1755.86L1008.81 1755.86C1008.21 1755.86 1007.74 1755.23 1007.75 1754.47L1011.45 1470.18C1011.46 1469.42 1011.95 1468.8 1012.54 1468.81Z" fill="#000000" fill-rule="nonzero" opacity="1" stroke="#000000" stroke-linecap="square" stroke-linejoin="bevel" stroke-width="12.9836" vectornator:layerName="Rectangle 2"/>
</g>
<g id="Layer-Inner" vectornator:layerName="Layer Inner">
<path d="M970.842 941.341L1054.27 941.341C1070.12 941.341 1082.98 953.916 1082.98 969.428L1082.98 1160.24C1082.98 1175.76 1070.12 1188.33 1054.27 1188.33L970.842 1188.33C954.986 1188.33 942.131 1175.76 942.131 1160.24L942.131 969.428C942.131 953.916 954.986 941.341 970.842 941.341Z" fill="#5c5fc1" fill-rule="nonzero" opacity="1" stroke="#5c5fc1" stroke-linecap="square" stroke-linejoin="bevel" stroke-width="12.9836" vectornator:layerName="Rectangle 7"/>
<path d="M799.847 941.341L881.818 941.341C897.398 941.341 910.029 953.972 910.029 969.552L910.029 1161.21C910.029 1176.79 897.398 1189.42 881.818 1189.42L799.847 1189.42C784.267 1189.42 771.637 1176.79 771.637 1161.21L771.637 969.552C771.637 961.162 775.3 953.627 781.114 948.459C786.096 944.031 792.658 941.341 799.847 941.341Z" fill="#5c5fc1" fill-rule="nonzero" opacity="1" stroke="#5c5fc1" stroke-linecap="square" stroke-linejoin="bevel" stroke-width="12.9836" vectornator:layerName="Rectangle 8"/>
<path d="M1328.72 882.15L1364.09 957.704C1370.81 972.064 1364.88 989.038 1350.83 995.615L1178.01 1076.52C1163.97 1083.1 1147.13 1076.79 1140.4 1062.43L1105.03 986.877C1098.31 972.516 1104.25 955.543 1118.29 948.965L1291.11 868.057C1305.16 861.479 1321.99 867.789 1328.72 882.15Z" fill="#8d8fcd" fill-rule="nonzero" opacity="1" stroke="#8d8fcd" stroke-linecap="square" stroke-linejoin="bevel" stroke-width="12.9836" vectornator:layerName="Rectangle 12"/>
<path d="M524.169 887.334L488.796 962.888C482.072 977.249 488.01 994.223 502.059 1000.8L674.873 1081.71C688.921 1088.29 705.76 1081.98 712.483 1067.62L747.856 992.061C754.58 977.701 748.642 960.727 734.594 954.15L561.78 873.241C547.731 866.664 530.892 872.974 524.169 887.334Z" fill="#8d8fcd" fill-rule="nonzero" opacity="1" stroke="#8d8fcd" stroke-linecap="square" stroke-linejoin="bevel" stroke-width="12.9836" vectornator:layerName="Rectangle 7"/>
<path d="M1257.1 729.185L1291.86 803.422C1298.47 817.533 1292.38 834.327 1278.27 840.933L1104.69 922.199C1090.58 928.806 1073.79 922.722 1067.18 908.612L1032.43 834.375C1025.82 820.264 1031.9 803.47 1046.01 796.864L1219.59 715.598C1227.19 712.04 1235.57 712.163 1242.71 715.237C1248.84 717.872 1254.05 722.674 1257.1 729.185Z" fill="#5c5fc1" fill-rule="nonzero" opacity="1" stroke="#5c5fc1" stroke-linecap="square" stroke-linejoin="bevel" stroke-width="12.9836" vectornator:layerName="Rectangle 13"/>
<path d="M595.785 734.37L561.028 808.607C554.422 822.717 560.505 839.512 574.615 846.118L748.193 927.384C762.303 933.99 779.097 927.907 785.703 913.797L820.46 839.559C827.066 825.449 820.983 808.655 806.873 802.048L633.295 720.782C625.696 717.225 617.319 717.347 610.174 720.422C604.051 723.056 598.833 727.858 595.785 734.37Z" fill="#5c5fc1" fill-rule="nonzero" opacity="1" stroke="#5c5fc1" stroke-linecap="square" stroke-linejoin="bevel" stroke-width="12.9836" vectornator:layerName="Rectangle 8"/>
<path d="M1582.65 810.09C1585.68 804.15 1584.77 806.826 1570.46 810.696C1557.22 814.275 1535.61 813.226 1518.42 803.903C1497.77 792.697 1491.9 781.694 1486.68 778.901C1484.25 777.604 1483.09 779.262 1478.61 781.358L1358.55 837.382C1344.44 843.989 1338.36 860.783 1344.97 874.893L1379.72 949.13C1386.33 963.241 1403.12 969.324 1417.23 962.718L1595.88 878.734C1597.39 878.026 1607.97 874.427 1606.12 874.413C1602.18 874.383 1598.75 871.827 1598.2 871.669C1598.2 871.669 1585.11 865.336 1578.9 858.822C1572.69 852.308 1573.37 845.615 1573.37 845.615C1573.37 845.615 1571.21 836.053 1572.4 830.434C1573.52 825.142 1576.3 820.96 1576.3 820.96C1576.3 820.96 1579.21 816.817 1582.65 810.09Z" fill="#42458b" fill-rule="nonzero" opacity="1" stroke="#42458b" stroke-linecap="square" stroke-linejoin="bevel" stroke-width="12.9836" vectornator:layerName="Rectangle 14"/>
<path d="M270.241 815.275C267.203 809.335 268.12 812.011 282.43 815.88C295.665 819.459 317.28 818.41 334.465 809.087C355.121 797.882 360.983 786.879 366.206 784.086C368.633 782.789 369.797 784.447 374.273 786.542L494.333 842.567C508.443 849.173 514.526 865.967 507.92 880.078L473.163 954.315C466.557 968.425 449.763 974.509 435.652 967.902L257.006 883.918C255.496 883.211 244.913 879.611 246.771 879.597C250.707 879.568 254.136 877.012 254.692 876.854C254.692 876.854 267.78 870.52 273.987 864.007C280.193 857.493 279.517 850.799 279.517 850.799C279.517 850.799 281.679 841.237 280.487 835.618C279.364 830.326 276.585 826.145 276.585 826.145C276.585 826.145 273.681 822.002 270.241 815.275Z" fill="#42458b" fill-rule="nonzero" opacity="1" stroke="#42458b" stroke-linecap="square" stroke-linejoin="bevel" stroke-width="12.9836" vectornator:layerName="Rectangle 10"/>
<path d="M1510.44 655.82C1516.93 657.357 1514.3 656.321 1502.08 664.709C1490.77 672.467 1477.56 689.606 1473.52 708.736C1468.66 731.728 1473.24 743.324 1471.98 749.111C1471.4 751.8 1469.38 751.612 1464.89 753.662L1344.4 808.77C1330.23 815.232 1313.49 808.979 1307.03 794.802L1273.03 720.215C1266.57 706.039 1272.82 689.307 1287 682.845L1466.75 601.248C1468.26 600.556 1477.87 594.83 1476.67 596.255C1474.14 599.271 1473.87 603.539 1473.63 604.064C1473.63 604.064 1469.97 618.137 1470.9 627.085C1471.84 636.032 1477.38 639.856 1477.38 639.856C1477.38 639.856 1483.26 647.701 1488.31 650.435C1493.06 653.011 1498.05 653.605 1498.05 653.605C1498.05 653.605 1503.09 654.079 1510.44 655.82Z" fill="#42458b" fill-rule="nonzero" opacity="1" stroke="#42458b" stroke-linecap="square" stroke-linejoin="bevel" stroke-width="12.9836" vectornator:layerName="Rectangle 15"/>
<path d="M342.448 661.004C335.956 662.542 338.588 661.505 350.81 669.894C362.114 677.652 375.326 694.791 379.366 713.92C384.223 736.913 379.644 748.509 380.903 754.296C381.487 756.985 383.505 756.797 388.002 758.847L508.485 813.954C522.662 820.417 539.393 814.163 545.856 799.986L579.857 725.4C586.319 711.223 580.066 694.492 565.889 688.029L386.139 606.432C384.622 605.74 375.021 600.015 376.215 601.439C378.744 604.455 379.02 608.723 379.26 609.249C379.26 609.249 382.921 623.321 381.984 632.269C381.047 641.217 375.512 645.041 375.512 645.041C375.512 645.041 369.632 652.885 364.58 655.62C359.823 658.195 354.837 658.789 354.837 658.789C354.837 658.789 349.8 659.263 342.448 661.004Z" fill="#42458b" fill-rule="nonzero" opacity="1" stroke="#42458b" stroke-linecap="square" stroke-linejoin="bevel" stroke-width="12.9836" vectornator:layerName="Rectangle 10"/>
<path d="M970.042 1207.52L1053.47 1207.52C1069.32 1207.52 1082.18 1220.09 1082.18 1235.6L1082.18 1426.42C1082.18 1441.93 1069.32 1454.5 1053.47 1454.5L970.042 1454.5C954.185 1454.5 941.331 1441.93 941.331 1426.42L941.331 1235.6C941.331 1220.09 954.185 1207.52 970.042 1207.52Z" fill="#5c5fc1" fill-rule="nonzero" opacity="1" stroke="#5c5fc1" stroke-linecap="square" stroke-linejoin="bevel" stroke-width="12.9836" vectornator:layerName="Rectangle 10"/>
<path d="M801.142 1207.52L883.113 1207.52C898.693 1207.52 911.324 1220.15 911.324 1235.73L911.324 1427.39C911.324 1442.97 898.693 1455.6 883.113 1455.6L801.142 1455.6C785.562 1455.6 772.932 1442.97 772.932 1427.39L772.932 1235.73C772.932 1227.34 776.595 1219.8 782.409 1214.63C787.391 1210.21 793.953 1207.52 801.142 1207.52Z" fill="#5c5fc1" fill-rule="nonzero" opacity="1" stroke="#5c5fc1" stroke-linecap="square" stroke-linejoin="bevel" stroke-width="12.9836" vectornator:layerName="Rectangle 11"/>
</g>
<g id="Layer-Membrane" vectornator:layerName="Layer Membrane">
<path d="M970.345 935.202C970.069 935.202 969.808 935.288 969.533 935.296L969.283 935.296C951.594 935.296 937.252 949.339 937.252 966.64L937.252 969.358L937.252 1164.14C937.252 1171.22 940.701 1177.46 945.158 1182.61C949.68 1188.6 955.849 1193.15 963.064 1194.76C964.064 1195 965.18 1195.02 966.252 1195.14C967.132 1195.23 967.974 1195.48 968.877 1195.48L969.283 1195.48L1055.66 1195.48L1056.06 1195.48C1056.74 1195.48 1057.37 1195.27 1058.03 1195.23C1059.58 1195.12 1061.12 1194.99 1062.6 1194.67C1063.83 1194.41 1064.98 1194.01 1066.16 1193.61C1067.21 1193.25 1068.22 1192.88 1069.22 1192.42C1070.16 1191.98 1071.05 1191.51 1071.94 1190.98C1073.54 1190.05 1075.03 1189.01 1076.44 1187.83C1076.6 1187.68 1076.78 1187.57 1076.94 1187.42C1083.49 1181.7 1087.69 1173.49 1087.69 1164.23L1087.69 968.827L1087.69 967.171C1087.69 952.067 1076.72 939.46 1062.13 936.546C1062.1 936.54 1062.06 936.552 1062.03 936.546C1059.69 935.962 1057.29 935.577 1054.81 935.577L970.345 935.202Z" fill="none" opacity="1" stroke="#313367" stroke-linecap="round" stroke-linejoin="round" stroke-width="3" vectornator:layerName="Curve 1"/>
<path d="M969.544 1201.38C969.268 1201.38 969.007 1201.46 968.732 1201.47L968.482 1201.47C950.793 1201.47 936.451 1215.51 936.451 1232.81L936.451 1235.53L936.451 1430.31C936.451 1437.39 939.901 1443.63 944.357 1448.78C948.879 1454.77 955.049 1459.32 962.263 1460.94C963.263 1461.18 964.379 1461.19 965.451 1461.31C966.331 1461.4 967.174 1461.66 968.076 1461.66L968.482 1461.66L1054.86 1461.66L1055.26 1461.66C1055.94 1461.66 1056.57 1461.45 1057.23 1461.41C1058.78 1461.29 1060.32 1461.16 1061.79 1460.84C1063.03 1460.59 1064.18 1460.18 1065.36 1459.78C1066.41 1459.43 1067.42 1459.05 1068.42 1458.59C1069.36 1458.16 1070.25 1457.69 1071.14 1457.16C1072.74 1456.23 1074.23 1455.18 1075.64 1454C1075.8 1453.86 1075.98 1453.74 1076.14 1453.59C1082.69 1447.87 1086.89 1439.66 1086.89 1430.41L1086.89 1235L1086.89 1233.34C1086.89 1218.24 1075.92 1205.63 1061.33 1202.72C1061.3 1202.71 1061.26 1202.73 1061.23 1202.72C1058.89 1202.14 1056.49 1201.75 1054.01 1201.75L969.544 1201.38Z" fill="none" opacity="1" stroke="#313367" stroke-linecap="round" stroke-linejoin="round" stroke-width="3" vectornator:layerName="Curve 57"/>
<path d="M799.678 1201.38C799.402 1201.38 799.141 1201.46 798.865 1201.47L798.615 1201.47C780.927 1201.47 766.584 1215.51 766.584 1232.81L766.584 1235.53L766.584 1430.31C766.584 1437.39 770.034 1443.63 774.49 1448.78C779.012 1454.77 785.182 1459.32 792.397 1460.94C793.396 1461.18 794.513 1461.19 795.584 1461.31C796.464 1461.4 797.307 1461.66 798.209 1461.66L798.615 1461.66L884.99 1461.66L885.397 1461.66C886.071 1461.66 886.7 1461.45 887.365 1461.41C888.909 1461.29 890.453 1461.16 891.928 1460.84C893.159 1460.59 894.312 1460.18 895.49 1459.78C896.539 1459.43 897.558 1459.05 898.553 1458.59C899.491 1458.16 900.385 1457.69 901.272 1457.16C902.872 1456.23 904.367 1455.18 905.772 1454C905.934 1453.86 906.112 1453.74 906.272 1453.59C912.82 1447.87 917.022 1439.66 917.022 1430.41L917.022 1235L917.022 1233.34C917.022 1218.24 906.054 1205.63 891.459 1202.72C891.429 1202.71 891.395 1202.73 891.365 1202.72C889.025 1202.14 886.62 1201.75 884.147 1201.75L818.615 1201.53L799.678 1201.38Z" fill="none" opacity="1" stroke="#313367" stroke-linecap="round" stroke-linejoin="round" stroke-width="3" vectornator:layerName="Curve 58"/>
<path d="M798.383 935.202C798.107 935.202 797.846 935.288 797.57 935.296L797.32 935.296C779.632 935.296 765.289 949.339 765.289 966.64L765.289 969.358L765.289 1164.14C765.289 1171.22 768.739 1177.46 773.195 1182.61C777.717 1188.6 783.887 1193.15 791.102 1194.76C792.102 1195 793.218 1195.02 794.289 1195.14C795.169 1195.23 796.012 1195.48 796.914 1195.48L797.32 1195.48L883.695 1195.48L884.102 1195.48C884.776 1195.48 885.405 1195.27 886.07 1195.23C887.614 1195.12 889.158 1194.99 890.633 1194.67C891.865 1194.41 893.017 1194.01 894.195 1193.61C895.244 1193.25 896.263 1192.88 897.258 1192.42C898.196 1191.98 899.09 1191.51 899.977 1190.98C901.577 1190.05 903.072 1189.01 904.477 1187.83C904.639 1187.68 904.817 1187.57 904.977 1187.42C911.525 1181.7 915.727 1173.49 915.727 1164.23L915.727 968.827L915.727 967.171C915.727 952.067 904.759 939.46 890.164 936.546C890.134 936.54 890.1 936.552 890.07 936.546C887.73 935.962 885.325 935.577 882.852 935.577L817.32 935.358L798.383 935.202Z" fill="none" opacity="1" stroke="#313367" stroke-linecap="round" stroke-linejoin="round" stroke-width="3" vectornator:layerName="Curve 55"/>
<path d="M1334.07 879.096C1333.95 878.846 1333.76 878.646 1333.64 878.4L1333.53 878.174C1326.03 862.154 1307.23 855.119 1291.56 862.455L1289.1 863.608L1112.7 946.197C1106.29 949.199 1102.1 954.97 1099.32 961.189C1095.81 967.824 1094.31 975.341 1095.91 982.56C1096.11 983.566 1096.57 984.585 1096.92 985.606C1097.21 986.441 1097.34 987.312 1097.72 988.129L1097.89 988.497L1134.52 1066.72L1134.69 1067.09C1134.97 1067.7 1135.43 1068.18 1135.75 1068.77C1136.51 1070.12 1137.28 1071.46 1138.19 1072.66C1138.95 1073.67 1139.8 1074.54 1140.67 1075.44C1141.43 1076.24 1142.2 1077 1143.04 1077.71C1143.83 1078.37 1144.64 1078.98 1145.49 1079.56C1147.02 1080.62 1148.6 1081.52 1150.26 1082.3C1150.46 1082.38 1150.64 1082.5 1150.84 1082.58C1158.8 1086.08 1168.02 1086.41 1176.4 1082.48L1353.37 999.627L1354.87 998.925C1368.55 992.521 1375.32 977.242 1371.77 962.788C1371.76 962.759 1371.73 962.733 1371.73 962.703C1371.26 960.337 1370.59 957.995 1369.54 955.755L1334.07 879.096Z" fill="none" opacity="1" stroke="#313367" stroke-linecap="round" stroke-linejoin="round" stroke-width="3" vectornator:layerName="Curve 63"/>
<path d="M518.82 884.281C518.937 884.031 519.125 883.831 519.249 883.585L519.355 883.358C526.855 867.338 545.655 860.304 561.323 867.639L563.786 868.792L740.19 951.382C746.601 954.383 750.791 960.154 753.564 966.373C757.072 973.008 758.577 980.526 756.981 987.745C756.772 988.751 756.315 989.77 755.969 990.791C755.677 991.625 755.55 992.497 755.168 993.314L754.995 993.682L718.371 1071.91L718.199 1072.28C717.913 1072.89 717.458 1073.37 717.138 1073.95C716.381 1075.3 715.607 1076.65 714.694 1077.85C713.937 1078.85 713.084 1079.73 712.221 1080.62C711.453 1081.42 710.683 1082.18 709.847 1082.89C709.053 1083.56 708.248 1084.17 707.392 1084.74C705.872 1085.8 704.288 1086.71 702.626 1087.48C702.427 1087.57 702.247 1087.68 702.046 1087.76C694.087 1091.27 684.868 1091.59 676.488 1087.67L499.517 1004.81L498.017 1004.11C484.339 997.705 477.571 982.427 481.12 967.973C481.127 967.943 481.152 967.918 481.16 967.888C481.623 965.521 482.295 963.179 483.343 960.94L518.82 884.281Z" fill="none" opacity="1" stroke="#313367" stroke-linecap="round" stroke-linejoin="round" stroke-width="3" vectornator:layerName="Curve 59"/>
<path d="M1579.15 832.215C1577.41 841.082 1577.78 840.516 1580.71 847.684C1583.64 854.851 1587.9 858.456 1590.85 860.885C1596.19 865.282 1604.99 867.208 1610.4 870.026C1612.46 871.098 1612.94 871.87 1612.94 871.87C1612.94 871.87 1614.02 873.46 1613.78 874.656C1613.29 877.047 1611.06 877.84 1611.06 877.84L1608.84 879.487L1606.37 880.769L1593.68 887.118L1417.27 969.708C1410.86 972.709 1403.75 972.232 1397.2 970.379C1389.85 968.824 1383.12 965.165 1378.59 959.316C1377.95 958.512 1377.46 957.508 1376.9 956.589C1376.45 955.829 1375.86 955.174 1375.48 954.357L1375.31 953.989L1338.68 875.763L1338.51 875.395C1338.22 874.785 1338.15 874.127 1337.9 873.506C1337.35 872.06 1336.81 870.606 1336.48 869.136C1336.19 867.91 1336.06 866.696 1335.93 865.459C1335.81 864.358 1335.71 863.277 1335.7 862.182C1335.7 861.147 1335.75 860.137 1335.85 859.11C1336.02 857.266 1336.33 855.468 1336.8 853.696C1336.86 853.488 1336.89 853.278 1336.96 853.071C1339.37 844.714 1345.02 837.427 1353.4 833.503C1353.4 833.503 1483.27 772.754 1486.97 771.655C1489.81 770.813 1490.22 774.559 1495.06 779.015C1499.9 783.471 1506.33 789.481 1506.33 789.481C1506.33 789.481 1515.16 796.953 1526.32 801.258C1537.47 805.563 1538.82 806.445 1550.52 806.91C1562.22 807.375 1573.84 803.137 1573.84 803.137C1573.84 803.137 1586.16 799.695 1589.49 801.731C1590.11 802.11 1591.22 803.903 1587.63 812.215C1581.77 825.802 1580.88 823.348 1579.15 832.215Z" fill="none" opacity="1" stroke="#313367" stroke-linecap="round" stroke-linejoin="round" stroke-width="3" vectornator:layerName="Curve 64"/>
<path d="M273.742 837.4C275.473 846.267 275.104 845.701 272.178 852.868C269.251 860.036 264.983 863.641 262.035 866.069C256.697 870.467 247.898 872.392 242.486 875.21C240.426 876.283 239.95 877.055 239.95 877.055C239.95 877.055 238.867 878.645 239.109 879.84C239.593 882.232 241.826 883.025 241.826 883.025L244.048 884.671L246.513 885.954L259.208 892.303L435.613 974.893C442.024 977.894 449.139 977.416 455.692 975.563C463.034 974.008 469.772 970.35 474.294 964.501C474.933 963.696 475.422 962.692 475.985 961.773C476.438 961.014 477.027 960.359 477.409 959.542L477.581 959.174L514.206 880.948L514.378 880.58C514.664 879.969 514.741 879.311 514.986 878.691C515.539 877.245 516.074 875.791 516.411 874.32C516.699 873.095 516.824 871.88 516.96 870.643C517.081 869.543 517.174 868.461 517.183 867.366C517.184 866.331 517.137 865.322 517.034 864.294C516.87 862.451 516.555 860.652 516.083 858.881C516.022 858.673 515.992 858.462 515.927 858.256C513.521 849.899 507.865 842.611 499.485 838.688C499.485 838.688 369.62 777.939 365.914 776.84C363.077 775.998 362.663 779.743 357.823 784.2C352.984 788.656 346.556 794.665 346.556 794.665C346.556 794.665 337.73 802.138 326.572 806.443C315.413 810.748 314.067 811.63 302.369 812.095C290.671 812.56 279.043 808.322 279.043 808.322C279.043 808.322 266.73 804.88 263.396 806.915C262.774 807.295 261.669 809.087 265.255 817.4C271.117 830.987 272.011 828.533 273.742 837.4Z" fill="none" opacity="1" stroke="#313367" stroke-linecap="round" stroke-linejoin="round" stroke-width="3" vectornator:layerName="Curve 61"/>
<path d="M1491.32 644.145C1483.45 639.715 1484.12 639.801 1480.56 632.927C1477 626.052 1477.02 620.465 1477.08 616.646C1477.19 609.731 1481.43 601.783 1482.79 595.835C1483.31 593.571 1483.03 592.709 1483.03 592.709C1483.03 592.709 1482.52 590.854 1481.45 590.263C1479.32 589.081 1477.27 590.267 1477.27 590.267L1474.57 590.892L1472 591.938L1458.94 597.49L1281.7 678.283C1275.26 681.219 1271.01 686.948 1268.18 693.138C1264.6 699.737 1263.02 707.239 1264.54 714.474C1264.74 715.482 1265.19 716.505 1265.52 717.53C1265.81 718.367 1265.92 719.24 1266.3 720.061L1266.47 720.43L1302.29 799.024L1302.46 799.394C1302.74 800.007 1303.19 800.493 1303.51 801.082C1304.25 802.44 1305.01 803.79 1305.91 805C1306.66 806.013 1307.5 806.895 1308.36 807.801C1309.12 808.606 1309.88 809.379 1310.71 810.095C1311.49 810.767 1312.29 811.386 1313.14 811.972C1314.65 813.043 1316.23 813.969 1317.88 814.758C1318.08 814.846 1318.26 814.96 1318.46 815.044C1326.38 818.629 1335.6 819.046 1344.02 815.208C1344.02 815.208 1474.45 755.695 1477.69 753.586C1480.17 751.971 1477.59 749.228 1477.33 742.655C1477.07 736.081 1476.67 727.291 1476.67 727.291C1476.67 727.291 1476.7 715.727 1480.65 704.44C1484.61 693.152 1484.81 691.556 1492.04 682.346C1499.26 673.137 1510.03 667.029 1510.03 667.029C1510.03 667.029 1520.63 659.884 1521.24 656.026C1521.36 655.307 1520.71 653.303 1512.05 650.646C1497.91 646.303 1499.2 648.574 1491.32 644.145Z" fill="none" opacity="1" stroke="#313367" stroke-linecap="round" stroke-linejoin="round" stroke-width="3" vectornator:layerName="Curve 65"/>
<path d="M361.565 649.329C369.439 644.899 368.769 644.986 372.33 638.111C375.891 631.237 375.87 625.65 375.808 621.831C375.696 614.916 371.459 606.968 370.097 601.02C369.578 598.756 369.858 597.893 369.858 597.893C369.858 597.893 370.367 596.038 371.434 595.447C373.568 594.266 375.62 595.452 375.62 595.452L378.314 596.077L380.888 597.122L393.952 602.674L571.186 683.468C577.627 686.404 581.876 692.132 584.712 698.323C588.287 704.922 589.869 712.424 588.346 719.658C588.147 720.667 587.7 721.69 587.365 722.714C587.081 723.552 586.963 724.424 586.589 725.245L586.42 725.615L550.592 804.209L550.424 804.579C550.144 805.192 549.694 805.678 549.38 806.266C548.637 807.624 547.877 808.974 546.976 810.184C546.229 811.198 545.385 812.08 544.531 812.985C543.772 813.791 543.009 814.563 542.18 815.279C541.393 815.951 540.594 816.57 539.745 817.157C538.235 818.228 536.661 819.153 535.006 819.942C534.808 820.031 534.629 820.144 534.429 820.229C526.506 823.813 517.291 824.23 508.871 820.392C508.871 820.392 378.434 760.88 375.195 758.771C372.715 757.156 375.299 754.413 375.555 747.839C375.812 741.265 376.221 732.476 376.221 732.476C376.221 732.476 376.191 720.912 372.236 709.624C368.281 698.337 368.08 696.74 360.852 687.531C353.623 678.321 342.858 672.214 342.858 672.214C342.858 672.214 332.256 665.069 331.646 661.211C331.532 660.491 332.18 658.487 340.834 655.83C354.98 651.487 353.691 653.759 361.565 649.329Z" fill="none" opacity="1" stroke="#313367" stroke-linecap="round" stroke-linejoin="round" stroke-width="3" vectornator:layerName="Curve 61"/>
<path d="M1262.04 725.256C1261.92 725.005 1261.74 724.805 1261.61 724.56L1261.51 724.333C1254.01 708.313 1235.21 701.278 1219.54 708.614L1217.08 709.767L1040.67 792.357C1034.26 795.358 1030.07 801.129 1027.3 807.348C1023.79 813.983 1022.28 821.501 1023.88 828.72C1024.09 829.726 1024.55 830.744 1024.89 831.765C1025.18 832.6 1025.31 833.471 1025.69 834.288L1025.87 834.656L1062.49 912.882L1062.66 913.25C1062.95 913.861 1063.4 914.342 1063.72 914.927C1064.48 916.278 1065.25 917.62 1066.17 918.821C1066.92 919.826 1067.78 920.7 1068.64 921.597C1069.41 922.395 1070.18 923.159 1071.01 923.867C1071.81 924.531 1072.61 925.141 1073.47 925.719C1074.99 926.775 1076.57 927.684 1078.24 928.457C1078.43 928.543 1078.61 928.655 1078.82 928.737C1086.77 932.241 1095.99 932.565 1104.37 928.641L1281.34 845.786L1282.84 845.084C1296.52 838.68 1303.29 823.401 1299.74 808.948C1299.73 808.918 1299.71 808.893 1299.7 808.863C1299.24 806.496 1298.57 804.154 1297.52 801.914L1269.93 742.473L1262.04 725.256Z" fill="none" opacity="1" stroke="#313367" stroke-linecap="round" stroke-linejoin="round" stroke-width="3" vectornator:layerName="Curve 66"/>
<path d="M590.845 730.44C590.962 730.19 591.151 729.99 591.275 729.744L591.381 729.518C598.881 713.498 617.681 706.463 633.349 713.799L635.811 714.952L812.216 797.541C818.627 800.543 822.817 806.314 825.59 812.533C829.098 819.168 830.603 826.685 829.007 833.904C828.798 834.91 828.341 835.929 827.995 836.95C827.702 837.785 827.576 838.656 827.193 839.473L827.021 839.841L790.397 918.067L790.225 918.435C789.939 919.045 789.483 919.527 789.163 920.112C788.407 921.462 787.633 922.804 786.719 924.005C785.963 925.011 785.11 925.884 784.247 926.781C783.479 927.579 782.708 928.344 781.873 929.051C781.079 929.715 780.273 930.326 779.418 930.904C777.898 931.96 776.314 932.869 774.651 933.641C774.453 933.728 774.272 933.839 774.071 933.922C766.112 937.426 756.893 937.749 748.513 933.826L571.543 850.971L570.043 850.269C556.364 843.865 549.597 828.586 553.146 814.132C553.153 814.103 553.178 814.077 553.186 814.047C553.649 811.681 554.32 809.339 555.369 807.099L582.957 747.658L590.845 730.44Z" fill="none" opacity="1" stroke="#313367" stroke-linecap="round" stroke-linejoin="round" stroke-width="3" vectornator:layerName="Curve 62"/>
</g>
</svg>
