<?xml version="1.0" encoding="UTF-8" standalone="no"?>
<!DOCTYPE svg PUBLIC "-//W3C//DTD SVG 1.1//EN" "http://www.w3.org/Graphics/SVG/1.1/DTD/svg11.dtd">
<!-- Created with Vectornator (http://vectornator.io/) -->
<svg height="100%" stroke-miterlimit="10" style="fill-rule:nonzero;clip-rule:evenodd;stroke-linecap:round;stroke-linejoin:round;" version="1.1" viewBox="0 0 1800 2880" width="100%" xml:space="preserve" xmlns="http://www.w3.org/2000/svg" xmlns:vectornator="http://vectornator.io" xmlns:xlink="http://www.w3.org/1999/xlink">
<defs/>
<g id="Layer-Black" vectornator:layerName="Layer Black"/>
<g id="Layer-Inner" vectornator:layerName="Layer Inner">
<path d="M717.969 923.281C716.466 923.535 714.991 924.098 713.625 924.969C708.161 928.451 706.58 935.693 710.062 941.156C715.644 949.921 721.842 958.221 728.844 965.906C751.582 990.864 780.79 1008.62 811.125 1022.84C839.729 1036.25 869.648 1046.62 899.281 1057.47C918.116 1064.36 936.927 1071.42 955.125 1079.88C959.44 1081.88 963.785 1083.79 968.25 1085.44C985.669 1091.87 1003.88 1095.99 1021 1103.25C1025.73 1105.25 1030.39 1107.51 1034.72 1110.28C1039.98 1113.65 1044.85 1117.85 1047.5 1123.62C1050.37 1129.84 1062.42 1139.97 1068.63 1137.1C1074.84 1134.23 1072.87 1119.43 1070 1113.22C1063.55 1099.33 1051.25 1090.31 1037.81 1083.75C1024.21 1077.11 1009.58 1072.79 995.156 1068.34C987.129 1065.87 979.042 1063.43 971.281 1060.19C968.418 1058.99 965.64 1057.62 962.812 1056.34C957.475 1053.94 952.076 1051.65 946.656 1049.44C931.899 1043.41 916.882 1038 901.875 1032.62C892.403 1029.23 882.921 1025.85 873.469 1022.41C846.422 1012.54 819.419 1002.02 794.406 987.625C775.928 976.994 758.553 964.137 744.406 948.094C739.013 941.978 734.226 935.433 729.844 928.562C727.232 924.465 722.477 922.52 717.969 923.281Z" fill="#0961cd" fill-rule="nonzero" opacity="1" stroke="none" vectornator:layerName="Curve 95"/>
<g opacity="1" vectornator:layerName="Curve 94">
<path d="M721.938 1608.69C720.329 1608.74 718.71 1609.1 717.156 1609.81C710.939 1612.67 708.202 1620.03 711.062 1626.25C717.274 1639.69 728.768 1649.71 740.906 1657.75C761.398 1671.32 784.489 1680.12 806.875 1689.97C810.774 1691.68 814.618 1693.5 818.5 1695.25C823.825 1697.65 829.217 1699.95 834.625 1702.16C849.273 1708.13 864.158 1713.46 879.062 1718.75C911.619 1730.31 944.673 1741.34 975.344 1757.44C997.287 1768.96 1018.05 1783.23 1034.5 1801.94C1039.87 1808.05 1044.66 1814.58 1049.03 1821.44C1052.51 1826.9 1059.75 1828.51 1065.22 1825.03C1070.68 1821.55 1072.29 1814.28 1068.81 1808.81C1063.25 1800.08 1057.06 1791.83 1050.09 1784.16C1027.63 1759.43 998.77 1741.81 968.719 1727.81C923.587 1706.78 875.269 1693.75 829.844 1673.44C826.494 1671.94 823.215 1670.36 819.875 1668.84C815.325 1666.77 810.715 1664.79 806.125 1662.81C790.657 1656.15 775.057 1649.55 760.562 1640.91C754.303 1637.17 748.179 1633.05 742.844 1628.06C739.093 1624.55 735.743 1620.61 733.594 1615.91C731.448 1611.24 726.764 1608.54 721.938 1608.69Z" fill="#0961cd" stroke="none"/>
</g>
<path d="M933.982 806.187L1017.41 806.187C1033.26 806.187 1046.12 818.762 1046.12 834.274L1046.12 1025.09C1046.12 1040.6 1033.26 1053.18 1017.41 1053.18L933.982 1053.18C918.125 1053.18 905.271 1040.6 905.271 1025.09L905.271 834.274C905.271 818.762 918.125 806.187 933.982 806.187Z" fill="#dbab38" fill-rule="nonzero" opacity="1" stroke="#dbab38" stroke-linecap="square" stroke-linejoin="bevel" stroke-width="12.9836" vectornator:layerName="Rectangle 12"/>
<path d="M839.901 1943.99L756.477 1943.76C740.62 1943.72 727.8 1931.11 727.842 1915.6L728.356 1724.78C728.398 1709.27 741.286 1696.73 757.142 1696.77L840.567 1697C856.423 1697.04 869.244 1709.65 869.202 1725.16L868.688 1915.98C868.646 1931.49 855.757 1944.03 839.901 1943.99Z" fill="#dbab38" fill-rule="nonzero" opacity="1" stroke="#dbab38" stroke-linecap="square" stroke-linejoin="bevel" stroke-width="12.9836" vectornator:layerName="Rectangle 24"/>
<path d="M1010.9 1944.45L928.925 1944.23C913.345 1944.19 900.748 1931.52 900.79 1915.94L901.307 1724.28C901.349 1708.7 914.013 1696.11 929.594 1696.15L1011.56 1696.37C1027.14 1696.41 1039.74 1709.08 1039.7 1724.66L1039.18 1916.31C1039.16 1924.7 1035.48 1932.23 1029.65 1937.38C1024.65 1941.8 1018.09 1944.47 1010.9 1944.45Z" fill="#dbab38" fill-rule="nonzero" opacity="1" stroke="#dbab38" stroke-linecap="square" stroke-linejoin="bevel" stroke-width="12.9836" vectornator:layerName="Rectangle 25"/>
<path d="M1254.88 654.812L1314.47 713.193C1325.79 724.29 1326.18 742.268 1315.32 753.349L1181.79 889.654C1170.93 900.734 1152.95 900.721 1141.62 889.624L1082.03 831.243C1070.7 820.146 1070.32 802.168 1081.18 791.088L1214.71 654.782C1225.57 643.702 1243.55 643.715 1254.88 654.812Z" fill="#e6c473" fill-rule="nonzero" opacity="1" stroke="#e6c473" stroke-linecap="square" stroke-linejoin="bevel" stroke-width="12.9836" vectornator:layerName="Rectangle 14"/>
<path d="M518.601 2094.5L459.166 2035.96C447.869 2024.83 447.535 2006.85 458.421 1995.8L592.323 1859.85C603.208 1848.8 621.191 1848.86 632.487 1859.99L691.922 1918.53C703.219 1929.66 703.553 1947.64 692.668 1958.69L558.765 2094.63C547.88 2105.69 529.898 2105.62 518.601 2094.5Z" fill="#e6c473" fill-rule="nonzero" opacity="1" stroke="#e6c473" stroke-linecap="square" stroke-linejoin="bevel" stroke-width="12.9836" vectornator:layerName="Rectangle 26"/>
<path d="M1134.23 536.614L1192.78 593.978C1203.91 604.881 1204.09 622.742 1193.19 633.872L1059.06 770.779C1048.16 781.908 1030.3 782.092 1019.17 771.188L960.616 713.824C949.487 702.921 949.304 685.06 960.207 673.931L1094.33 537.023C1100.2 531.03 1108.09 528.211 1115.86 528.588C1122.52 528.912 1129.09 531.582 1134.23 536.614Z" fill="#dbab38" fill-rule="nonzero" opacity="1" stroke="#dbab38" stroke-linecap="square" stroke-linejoin="bevel" stroke-width="12.9836" vectornator:layerName="Rectangle 15"/>
<path d="M638.931 2213.02L580.532 2155.5C569.432 2144.56 569.297 2126.7 580.23 2115.6L714.724 1979.06C725.657 1967.96 743.519 1967.82 754.619 1978.76L813.018 2036.28C824.118 2047.21 824.253 2065.07 813.32 2076.17L678.826 2212.72C672.938 2218.7 665.041 2221.49 657.272 2221.09C650.615 2220.75 644.053 2218.07 638.931 2213.02Z" fill="#dbab38" fill-rule="nonzero" opacity="1" stroke="#dbab38" stroke-linecap="square" stroke-linejoin="bevel" stroke-width="12.9836" vectornator:layerName="Rectangle 27"/>
<path d="M1467.49 498.389C1468.25 491.761 1468.33 494.589 1456.28 503.224C1445.14 511.212 1424.53 517.799 1405.16 515.085C1381.89 511.823 1372.55 503.569 1366.68 502.782C1363.95 502.417 1363.44 504.378 1359.98 507.908L1267.14 602.43C1256.24 613.56 1256.42 631.421 1267.55 642.324L1326.11 699.688C1337.24 710.591 1355.1 710.408 1366 699.279L1503.92 558.05C1505.09 556.859 1513.74 549.781 1512 550.419C1508.3 551.77 1504.19 550.576 1503.62 550.623C1503.62 550.623 1489.14 549.274 1481.04 545.346C1472.95 541.418 1471.24 534.912 1471.24 534.912C1471.24 534.912 1465.87 526.712 1465.01 521.032C1464.21 515.682 1465.35 510.792 1465.35 510.792C1465.35 510.792 1466.62 505.894 1467.49 498.389Z" fill="#bf8907" fill-rule="nonzero" opacity="1" stroke="#bf8907" stroke-linecap="square" stroke-linejoin="bevel" stroke-width="12.9836" vectornator:layerName="Rectangle 16"/>
<path d="M305.568 2250.35C304.785 2256.97 304.714 2254.14 316.786 2245.54C327.951 2237.58 348.582 2231.05 367.937 2233.82C391.2 2237.14 400.522 2245.42 406.39 2246.22C409.116 2246.6 409.631 2244.64 413.1 2241.12L506.19 2146.85C517.124 2135.75 516.989 2117.88 505.888 2106.95L447.49 2049.43C436.39 2038.5 418.528 2038.63 407.595 2049.73L269.293 2190.59C268.123 2191.78 259.451 2198.83 261.199 2198.2C264.899 2196.86 269.003 2198.06 269.579 2198.02C269.579 2198.02 284.053 2199.4 292.137 2203.35C300.221 2207.3 301.914 2213.81 301.914 2213.81C301.914 2213.81 307.265 2222.03 308.102 2227.71C308.889 2233.06 307.737 2237.95 307.737 2237.95C307.737 2237.95 306.454 2242.84 305.568 2250.35Z" fill="#bf8907" fill-rule="nonzero" opacity="1" stroke="#bf8907" stroke-linecap="square" stroke-linejoin="bevel" stroke-width="12.9836" vectornator:layerName="Rectangle 28"/>
<path d="M1345.83 379.175C1352.45 378.341 1349.62 378.292 1341.11 390.429C1333.24 401.655 1326.86 422.336 1329.78 441.669C1333.28 464.906 1341.63 474.164 1342.48 480.026C1342.87 482.749 1340.92 483.279 1337.42 486.774L1243.87 580.586C1232.85 591.604 1214.99 591.606 1203.97 580.59L1146 522.634C1134.99 511.618 1134.98 493.756 1146 482.738L1285.79 343.36C1286.97 342.18 1293.96 333.455 1293.34 335.207C1292.03 338.918 1293.26 343.012 1293.22 343.589C1293.22 343.589 1294.72 358.052 1298.73 366.105C1302.74 374.158 1309.27 375.801 1309.27 375.801C1309.27 375.801 1317.52 381.09 1323.21 381.882C1328.57 382.629 1333.45 381.439 1333.45 381.439C1333.45 381.439 1338.33 380.119 1345.83 379.175Z" fill="#bf8907" fill-rule="nonzero" opacity="1" stroke="#bf8907" stroke-linecap="square" stroke-linejoin="bevel" stroke-width="12.9836" vectornator:layerName="Rectangle 17"/>
<path d="M426.907 2369.89C420.285 2370.7 423.113 2370.76 431.656 2358.65C439.558 2347.44 445.987 2326.78 443.124 2307.44C439.683 2284.19 431.359 2274.91 430.527 2269.05C430.14 2266.32 432.097 2265.8 435.601 2262.31L529.408 2168.75C540.453 2157.76 558.315 2157.81 569.304 2168.86L627.115 2226.97C638.104 2238.01 638.058 2255.88 627.012 2266.86L486.846 2405.86C485.664 2407.04 478.652 2415.75 479.277 2414C480.599 2410.29 479.374 2406.19 479.417 2405.62C479.417 2405.62 477.956 2391.15 473.967 2383.08C469.977 2375.02 463.458 2373.36 463.458 2373.36C463.458 2373.36 455.217 2368.05 449.53 2367.24C444.174 2366.48 439.293 2367.66 439.293 2367.66C439.293 2367.66 434.405 2368.96 426.907 2369.89Z" fill="#bf8907" fill-rule="nonzero" opacity="1" stroke="#bf8907" stroke-linecap="square" stroke-linejoin="bevel" stroke-width="12.9836" vectornator:layerName="Rectangle 29"/>
<path d="M525.65 654.823L466.082 713.23C454.76 724.332 454.386 742.31 465.246 753.386L598.84 889.634C609.7 900.71 627.682 900.689 639.004 889.587L698.572 831.18C709.894 820.079 710.268 802.101 699.408 791.025L565.814 654.777C554.954 643.701 536.972 643.722 525.65 654.823Z" fill="#e6c473" fill-rule="nonzero" opacity="1" stroke="#e6c473" stroke-linecap="square" stroke-linejoin="bevel" stroke-width="12.9836" vectornator:layerName="Rectangle 18"/>
<path d="M1247.82 2096.45L1307.55 2038.2C1318.9 2027.13 1319.32 2009.16 1308.49 1998.05L1175.27 1861.44C1164.44 1850.34 1146.45 1850.31 1135.1 1861.38L1075.38 1919.63C1064.03 1930.7 1063.6 1948.68 1074.43 1959.78L1207.66 2096.39C1218.49 2107.49 1236.47 2107.52 1247.82 2096.45Z" fill="#e6c473" fill-rule="nonzero" opacity="1" stroke="#e6c473" stroke-linecap="square" stroke-linejoin="bevel" stroke-width="12.9836" vectornator:layerName="Rectangle 30"/>
<path d="M646.248 536.574L587.719 593.963C576.594 604.871 576.419 622.732 587.327 633.857L721.511 770.707C732.419 781.831 750.28 782.007 761.405 771.099L819.934 713.71C831.059 702.802 831.234 684.941 820.326 673.816L686.142 536.966C680.268 530.975 672.377 528.159 664.607 528.54C657.95 528.867 651.382 531.54 646.248 536.574Z" fill="#dbab38" fill-rule="nonzero" opacity="1" stroke="#dbab38" stroke-linecap="square" stroke-linejoin="bevel" stroke-width="12.9836" vectornator:layerName="Rectangle 19"/>
<path d="M1126.91 2214.38L1185.59 2157.14C1196.74 2146.27 1196.97 2128.41 1186.09 2117.25L1052.28 1980.04C1041.4 1968.89 1023.54 1968.66 1012.38 1979.54L953.699 2036.77C942.545 2047.65 942.321 2065.51 953.199 2076.66L1087.01 2213.88C1092.87 2219.88 1100.76 2222.72 1108.53 2222.36C1115.18 2222.05 1121.76 2219.4 1126.91 2214.38Z" fill="#dbab38" fill-rule="nonzero" opacity="1" stroke="#dbab38" stroke-linecap="square" stroke-linejoin="bevel" stroke-width="12.9836" vectornator:layerName="Rectangle 31"/>
<path d="M312.97 498.492C312.202 491.864 312.126 494.692 324.177 503.322C335.325 511.305 355.941 517.883 375.302 515.161C398.572 511.889 407.913 503.632 413.783 502.842C416.51 502.475 417.021 504.436 420.481 507.965L513.358 602.447C524.266 613.572 524.09 631.433 512.966 642.341L454.436 699.73C443.312 710.639 425.45 710.463 414.542 699.338L276.56 558.169C275.392 556.978 266.737 549.904 268.483 550.541C272.181 551.89 276.287 550.695 276.863 550.741C276.863 550.741 291.34 549.386 299.433 545.455C307.526 541.524 309.234 535.017 309.234 535.017C309.234 535.017 314.604 526.815 315.453 521.134C316.252 515.784 315.111 510.894 315.111 510.894C315.111 510.894 313.84 505.997 312.97 498.492Z" fill="#bf8907" fill-rule="nonzero" opacity="1" stroke="#bf8907" stroke-linecap="square" stroke-linejoin="bevel" stroke-width="12.9836" vectornator:layerName="Rectangle 20"/>
<path d="M1460.08 2253.36C1460.83 2259.99 1460.92 2257.16 1448.89 2248.49C1437.76 2240.48 1417.16 2233.85 1397.79 2236.52C1374.52 2239.73 1365.15 2247.96 1359.28 2248.73C1356.55 2249.09 1356.05 2247.13 1352.6 2243.59L1259.97 2148.86C1249.1 2137.71 1249.32 2119.85 1260.47 2108.97L1319.16 2051.74C1330.31 2040.86 1348.17 2041.08 1359.05 2052.24L1496.65 2193.78C1497.82 2194.97 1506.45 2202.07 1504.71 2201.43C1501.01 2200.07 1496.91 2201.25 1496.33 2201.2C1496.33 2201.2 1481.85 2202.52 1473.74 2206.43C1465.64 2210.34 1463.92 2216.84 1463.92 2216.84C1463.92 2216.84 1458.52 2225.03 1457.66 2230.71C1456.85 2236.05 1457.97 2240.95 1457.97 2240.95C1457.97 2240.95 1459.23 2245.85 1460.08 2253.36Z" fill="#bf8907" fill-rule="nonzero" opacity="1" stroke="#bf8907" stroke-linecap="square" stroke-linejoin="bevel" stroke-width="12.9836" vectornator:layerName="Rectangle 32"/>
<path d="M434.58 379.226C427.96 378.395 430.788 378.345 439.304 390.478C447.18 401.701 453.562 422.378 450.656 441.713C447.162 464.951 438.817 474.213 437.971 480.075C437.579 482.798 439.534 483.328 443.03 486.822L536.625 580.593C547.646 591.606 565.508 591.6 576.521 580.58L634.464 522.599C645.478 511.579 645.472 493.717 634.451 482.703L494.601 343.384C493.421 342.206 486.429 333.484 487.05 335.235C488.364 338.946 487.129 343.04 487.171 343.617C487.171 343.617 485.678 358.081 481.67 366.136C477.662 374.19 471.139 375.836 471.139 375.836C471.139 375.836 462.886 381.128 457.197 381.923C451.84 382.672 446.961 381.484 446.961 381.484C446.961 381.484 442.077 380.166 434.58 379.226Z" fill="#bf8907" fill-rule="nonzero" opacity="1" stroke="#bf8907" stroke-linecap="square" stroke-linejoin="bevel" stroke-width="12.9836" vectornator:layerName="Rectangle 21"/>
<path d="M1338.15 2372.29C1344.77 2373.14 1341.94 2373.18 1333.46 2361.03C1325.61 2349.78 1319.28 2329.09 1322.24 2309.76C1325.8 2286.53 1334.17 2277.3 1335.03 2271.44C1335.43 2268.71 1333.48 2268.18 1329.99 2264.68L1236.65 2170.65C1225.66 2159.61 1207.8 2159.57 1196.75 2170.56L1138.65 2228.38C1127.61 2239.37 1127.57 2257.23 1138.56 2268.28L1278.03 2407.97C1279.21 2409.15 1286.18 2417.9 1285.56 2416.14C1284.26 2412.43 1285.5 2408.34 1285.46 2407.76C1285.46 2407.76 1287 2393.3 1291.03 2385.26C1295.06 2377.21 1301.58 2375.58 1301.58 2375.58C1301.58 2375.58 1309.85 2370.31 1315.54 2369.53C1320.9 2368.8 1325.78 2370 1325.78 2370C1325.78 2370 1330.66 2371.33 1338.15 2372.29Z" fill="#bf8907" fill-rule="nonzero" opacity="1" stroke="#bf8907" stroke-linecap="square" stroke-linejoin="bevel" stroke-width="12.9836" vectornator:layerName="Rectangle 33"/>
<path d="M933.181 1072.36L1016.61 1072.36C1032.46 1072.36 1045.32 1084.94 1045.32 1100.45L1045.32 1291.26C1045.32 1306.78 1032.46 1319.35 1016.61 1319.35L933.181 1319.35C917.325 1319.35 904.47 1306.78 904.47 1291.26L904.47 1100.45C904.47 1084.94 917.325 1072.36 933.181 1072.36Z" fill="#dbab38" fill-rule="nonzero" opacity="1" stroke="#dbab38" stroke-linecap="square" stroke-linejoin="bevel" stroke-width="12.9836" vectornator:layerName="Rectangle 22"/>
<path d="M841.419 1677.82L757.995 1677.59C742.138 1677.55 729.318 1664.94 729.36 1649.43L729.874 1458.61C729.916 1443.1 742.804 1430.56 758.661 1430.6L842.085 1430.83C857.942 1430.87 870.762 1443.48 870.72 1458.99L870.206 1649.81C870.164 1665.32 857.276 1677.86 841.419 1677.82Z" fill="#dbab38" fill-rule="nonzero" opacity="1" stroke="#dbab38" stroke-linecap="square" stroke-linejoin="bevel" stroke-width="12.9836" vectornator:layerName="Rectangle 34"/>
<path d="M764.282 1072.36L846.253 1072.36C861.833 1072.36 874.463 1084.99 874.463 1100.57L874.463 1292.23C874.463 1307.81 861.833 1320.44 846.253 1320.44L764.282 1320.44C748.702 1320.44 736.071 1307.81 736.071 1292.23L736.071 1100.57C736.071 1092.18 739.734 1084.65 745.549 1079.48C750.531 1075.05 757.092 1072.36 764.282 1072.36Z" fill="#dbab38" fill-rule="nonzero" opacity="1" stroke="#dbab38" stroke-linecap="square" stroke-linejoin="bevel" stroke-width="12.9836" vectornator:layerName="Rectangle 36"/>
<path d="M1010.32 1678.27L928.348 1678.05C912.767 1678.01 900.171 1665.34 900.213 1649.76L900.73 1458.11C900.772 1442.53 913.436 1429.93 929.016 1429.97L1010.99 1430.19C1026.57 1430.23 1039.16 1442.9 1039.12 1458.48L1038.6 1650.14C1038.58 1658.53 1034.9 1666.05 1029.07 1671.2C1024.08 1675.62 1017.51 1678.29 1010.32 1678.27Z" fill="#dbab38" fill-rule="nonzero" opacity="1" stroke="#dbab38" stroke-linecap="square" stroke-linejoin="bevel" stroke-width="12.9836" vectornator:layerName="Rectangle 35"/>
<path d="M762.987 806.187L844.958 806.187C860.538 806.187 873.168 818.817 873.168 834.398L873.168 1026.06C873.168 1041.64 860.538 1054.27 844.958 1054.27L762.987 1054.27C747.407 1054.27 734.776 1041.64 734.776 1026.06L734.776 834.398C734.776 826.007 738.439 818.472 744.254 813.305C749.236 808.877 755.797 806.187 762.987 806.187Z" fill="#dbab38" fill-rule="nonzero" opacity="1" stroke="#dbab38" stroke-linecap="square" stroke-linejoin="bevel" stroke-width="12.9836" vectornator:layerName="Rectangle 13"/>
</g>
<g id="Layer-Membrane" vectornator:layerName="Layer Membrane">
<path d="M933.485 800.047C933.209 800.047 932.948 800.133 932.672 800.141L932.422 800.141C914.734 800.141 900.391 814.184 900.391 831.485L900.391 834.204L900.391 1028.98C900.391 1036.06 903.841 1042.31 908.297 1047.45C912.819 1053.44 918.989 1057.99 926.204 1059.61C927.204 1059.85 928.32 1059.87 929.391 1059.98C930.271 1060.07 931.114 1060.33 932.016 1060.33L932.422 1060.33L1018.8 1060.33L1019.2 1060.33C1019.88 1060.33 1020.51 1060.12 1021.17 1060.08C1022.72 1059.97 1024.26 1059.83 1025.73 1059.52C1026.97 1059.26 1028.12 1058.86 1029.3 1058.45C1030.35 1058.1 1031.36 1057.72 1032.36 1057.27C1033.3 1056.83 1034.19 1056.36 1035.08 1055.83C1036.68 1054.9 1038.17 1053.85 1039.58 1052.67C1039.74 1052.53 1039.92 1052.41 1040.08 1052.27C1046.63 1046.54 1050.83 1038.33 1050.83 1029.08L1050.83 833.672L1050.83 832.016C1050.83 816.913 1039.86 804.305 1025.27 801.391C1025.24 801.385 1025.2 801.397 1025.17 801.391C1022.83 800.807 1020.43 800.422 1017.95 800.422L933.485 800.047Z" fill="none" opacity="1" stroke="#be8805" stroke-linecap="round" stroke-linejoin="round" stroke-width="3" vectornator:layerName="Curve 63"/>
<path d="M840.382 1950.13C840.658 1950.13 840.919 1950.04 841.194 1950.04L841.444 1950.04C859.133 1950.09 873.513 1936.08 873.56 1918.78L873.567 1916.06L874.092 1721.28C874.111 1714.2 870.678 1707.95 866.236 1702.79C861.73 1696.79 855.573 1692.22 848.362 1690.59C847.363 1690.35 846.247 1690.33 845.176 1690.2C844.296 1690.11 843.454 1689.85 842.552 1689.85L842.146 1689.85L755.771 1689.62L755.365 1689.62C754.691 1689.62 754.061 1689.82 753.395 1689.86C751.851 1689.97 750.307 1690.1 748.831 1690.41C747.599 1690.67 746.445 1691.07 745.266 1691.46C744.217 1691.82 743.197 1692.19 742.2 1692.64C741.261 1693.08 740.365 1693.55 739.478 1694.07C737.875 1695 736.377 1696.04 734.969 1697.22C734.806 1697.36 734.628 1697.48 734.468 1697.62C727.904 1703.33 723.68 1711.53 723.656 1720.78L723.129 1916.19L723.124 1917.84C723.084 1932.95 734.017 1945.58 748.604 1948.54C748.634 1948.54 748.668 1948.53 748.698 1948.54C751.036 1949.13 753.441 1949.52 755.914 1949.53L840.382 1950.13Z" fill="none" opacity="1" stroke="#be8805" stroke-linecap="round" stroke-linejoin="round" stroke-width="3" vectornator:layerName="Curve 75"/>
<path d="M932.684 1066.22C932.408 1066.22 932.147 1066.31 931.872 1066.32L931.622 1066.32C913.933 1066.32 899.59 1080.36 899.59 1097.66L899.59 1100.38L899.59 1295.16C899.59 1302.24 903.04 1308.48 907.497 1313.63C912.018 1319.62 918.188 1324.17 925.403 1325.78C926.403 1326.02 927.519 1326.04 928.59 1326.16C929.47 1326.25 930.313 1326.5 931.215 1326.5L931.622 1326.5L1018 1326.5L1018.4 1326.5C1019.08 1326.5 1019.71 1326.29 1020.37 1326.25C1021.92 1326.14 1023.46 1326.01 1024.93 1325.69C1026.17 1325.43 1027.32 1325.03 1028.5 1324.63C1029.54 1324.27 1030.56 1323.9 1031.56 1323.44C1032.5 1323 1033.39 1322.53 1034.28 1322C1035.88 1321.07 1037.37 1320.02 1038.78 1318.85C1038.94 1318.7 1039.12 1318.59 1039.28 1318.44C1045.83 1312.72 1050.03 1304.51 1050.03 1295.25L1050.03 1099.85L1050.03 1098.19C1050.03 1083.09 1039.06 1070.48 1024.47 1067.57C1024.44 1067.56 1024.4 1067.57 1024.37 1067.57C1022.03 1066.98 1019.63 1066.6 1017.15 1066.6L932.684 1066.22Z" fill="none" opacity="1" stroke="#be8805" stroke-linecap="round" stroke-linejoin="round" stroke-width="3" vectornator:layerName="Curve 64"/>
<path d="M841.9 1683.96C842.176 1683.96 842.437 1683.87 842.713 1683.87L842.963 1683.87C860.651 1683.91 875.032 1669.91 875.078 1652.61L875.086 1649.89L875.611 1455.11C875.63 1448.03 872.197 1441.78 867.754 1436.62C863.249 1430.62 857.091 1426.05 849.881 1424.42C848.882 1424.18 847.765 1424.15 846.694 1424.03C845.814 1423.94 844.972 1423.68 844.07 1423.68L843.664 1423.68L757.289 1423.45L756.883 1423.45C756.209 1423.44 755.579 1423.65 754.914 1423.69C753.369 1423.8 751.826 1423.93 750.35 1424.24C749.117 1424.5 747.964 1424.9 746.784 1425.29C745.735 1425.65 744.715 1426.02 743.719 1426.47C742.78 1426.91 741.884 1427.38 740.996 1427.9C739.393 1428.83 737.895 1429.87 736.487 1431.05C736.324 1431.19 736.147 1431.31 735.986 1431.45C729.423 1437.16 725.199 1445.36 725.174 1454.61L724.647 1650.02L724.643 1651.67C724.602 1666.78 735.536 1679.41 750.123 1682.37C750.152 1682.37 750.186 1682.36 750.216 1682.37C752.555 1682.96 754.959 1683.35 757.432 1683.35L841.9 1683.96Z" fill="none" opacity="1" stroke="#be8805" stroke-linecap="round" stroke-linejoin="round" stroke-width="3" vectornator:layerName="Curve 76"/>
<path d="M762.818 1066.22C762.541 1066.22 762.28 1066.31 762.005 1066.32L761.755 1066.32C744.066 1066.32 729.724 1080.36 729.724 1097.66L729.724 1100.38L729.724 1295.16C729.724 1302.24 733.174 1308.48 737.63 1313.63C742.152 1319.62 748.322 1324.17 755.536 1325.78C756.536 1326.02 757.653 1326.04 758.724 1326.16C759.604 1326.25 760.447 1326.5 761.349 1326.5L761.755 1326.5L848.13 1326.5L848.536 1326.5C849.21 1326.5 849.839 1326.29 850.505 1326.25C852.049 1326.14 853.592 1326.01 855.068 1325.69C856.299 1325.43 857.452 1325.03 858.63 1324.63C859.678 1324.27 860.697 1323.9 861.693 1323.44C862.63 1323 863.525 1322.53 864.411 1322C866.012 1321.07 867.507 1320.02 868.911 1318.85C869.074 1318.7 869.252 1318.59 869.411 1318.44C875.96 1312.72 880.161 1304.51 880.161 1295.25L880.161 1099.85L880.161 1098.19C880.161 1083.09 869.194 1070.48 854.599 1067.57C854.569 1067.56 854.535 1067.57 854.505 1067.57C852.165 1066.98 849.759 1066.6 847.286 1066.6L781.755 1066.38L762.818 1066.22Z" fill="none" opacity="1" stroke="#be8805" stroke-linecap="round" stroke-linejoin="round" stroke-width="3" vectornator:layerName="Curve 87"/>
<path d="M769.891 1375.14C769.891 1349.31 822.594 1328.37 887.608 1328.37C952.622 1328.37 1005.33 1349.31 1005.33 1375.14C1005.33 1400.97 952.622 1421.9 887.608 1421.9C822.594 1421.9 769.891 1400.97 769.891 1375.14Z" fill="#ce741a" fill-rule="nonzero" opacity="1" stroke="#ad6114" stroke-linecap="round" stroke-linejoin="round" stroke-width="3" vectornator:layerName="Oval 1"/>
<path d="M1011.77 1684.42C1012.04 1684.42 1012.3 1684.33 1012.58 1684.32L1012.83 1684.32C1030.52 1684.37 1044.9 1670.37 1044.94 1653.07L1044.95 1650.35L1045.48 1455.57C1045.5 1448.49 1042.06 1442.24 1037.62 1437.08C1033.11 1431.08 1026.96 1426.51 1019.75 1424.87C1018.75 1424.63 1017.63 1424.61 1016.56 1424.49C1015.68 1424.4 1014.84 1424.14 1013.94 1424.14L1013.53 1424.14L927.155 1423.91L926.749 1423.9C926.075 1423.9 925.445 1424.11 924.78 1424.15C923.235 1424.26 921.691 1424.38 920.216 1424.7C918.983 1424.95 917.829 1425.35 916.65 1425.75C915.601 1426.11 914.581 1426.48 913.584 1426.93C912.645 1427.37 911.75 1427.83 910.862 1428.36C909.259 1429.29 907.761 1430.33 906.353 1431.51C906.19 1431.65 906.012 1431.76 905.852 1431.91C899.289 1437.62 895.065 1445.82 895.04 1455.07L894.513 1650.47L894.509 1652.13C894.468 1667.23 905.402 1679.87 919.988 1682.82C920.018 1682.83 920.052 1682.82 920.082 1682.82C922.421 1683.41 924.825 1683.81 927.298 1683.81L992.829 1684.21L1011.77 1684.42Z" fill="none" opacity="1" stroke="#be8805" stroke-linecap="round" stroke-linejoin="round" stroke-width="3" vectornator:layerName="Curve 77"/>
<path d="M761.523 800.047C761.246 800.047 760.985 800.133 760.71 800.141L760.46 800.141C742.771 800.141 728.429 814.184 728.429 831.485L728.429 834.204L728.429 1028.98C728.429 1036.06 731.879 1042.31 736.335 1047.45C740.857 1053.44 747.027 1057.99 754.241 1059.61C755.241 1059.85 756.358 1059.87 757.429 1059.98C758.309 1060.07 759.152 1060.33 760.054 1060.33L760.46 1060.33L846.835 1060.33L847.241 1060.33C847.915 1060.33 848.544 1060.12 849.21 1060.08C850.754 1059.97 852.297 1059.83 853.773 1059.52C855.004 1059.26 856.157 1058.86 857.335 1058.45C858.383 1058.1 859.402 1057.72 860.398 1057.27C861.335 1056.83 862.23 1056.36 863.116 1055.83C864.717 1054.9 866.212 1053.85 867.616 1052.67C867.779 1052.53 867.957 1052.41 868.116 1052.27C874.665 1046.54 878.866 1038.33 878.866 1029.08L878.866 833.672L878.866 832.016C878.866 816.913 867.899 804.305 853.304 801.391C853.274 801.385 853.24 801.397 853.21 801.391C850.87 800.807 848.464 800.422 845.991 800.422L780.46 800.204L761.523 800.047Z" fill="none" opacity="1" stroke="#be8805" stroke-linecap="round" stroke-linejoin="round" stroke-width="3" vectornator:layerName="Curve 66"/>
<path d="M1012.34 1950.59C1012.62 1950.59 1012.88 1950.51 1013.16 1950.5L1013.41 1950.5C1031.09 1950.55 1045.47 1936.54 1045.52 1919.24L1045.53 1916.52L1046.05 1721.74C1046.07 1714.67 1042.64 1708.41 1038.2 1703.25C1033.69 1697.25 1027.53 1692.68 1020.32 1691.05C1019.32 1690.81 1018.21 1690.79 1017.14 1690.67C1016.26 1690.58 1015.42 1690.32 1014.51 1690.32L1014.11 1690.31L927.733 1690.08L927.326 1690.08C926.652 1690.08 926.023 1690.29 925.357 1690.33C923.813 1690.43 922.269 1690.56 920.793 1690.88C919.561 1691.13 918.407 1691.53 917.228 1691.93C916.179 1692.28 915.158 1692.65 914.162 1693.11C913.223 1693.54 912.327 1694.01 911.439 1694.54C909.836 1695.46 908.339 1696.51 906.931 1697.68C906.768 1697.82 906.59 1697.94 906.43 1698.09C899.866 1703.79 895.642 1711.99 895.617 1721.25L895.091 1916.65L895.086 1918.31C895.045 1933.41 905.979 1946.05 920.566 1949C920.596 1949.01 920.63 1948.99 920.66 1949C922.998 1949.59 925.403 1949.98 927.876 1949.99L993.406 1950.38L1012.34 1950.59Z" fill="none" opacity="1" stroke="#be8805" stroke-linecap="round" stroke-linejoin="round" stroke-width="3" vectornator:layerName="Curve 78"/>
<path d="M1258.82 650.078C1258.62 649.885 1258.37 649.763 1258.17 649.577L1257.99 649.402C1245.36 637.023 1225.28 637.017 1213.18 649.375L1211.27 651.318L1074.96 790.455C1070.01 795.511 1068.11 802.384 1067.69 809.181C1066.72 816.624 1067.95 824.192 1071.97 830.395C1072.52 831.265 1073.3 832.058 1073.98 832.894C1074.55 833.573 1074.97 834.345 1075.62 834.976L1075.91 835.261L1137.61 895.707L1137.9 895.991C1138.38 896.463 1138.98 896.754 1139.48 897.19C1140.66 898.191 1141.86 899.176 1143.13 899.981C1144.19 900.658 1145.3 901.178 1146.42 901.716C1147.42 902.194 1148.41 902.64 1149.44 903.01C1150.42 903.354 1151.39 903.644 1152.39 903.886C1154.18 904.342 1155.98 904.64 1157.81 904.781C1158.03 904.792 1158.24 904.834 1158.45 904.84C1167.14 905.335 1175.88 902.41 1182.36 895.8L1319.11 756.216L1320.27 755.033C1330.84 744.244 1331.82 727.563 1323.44 715.268C1323.42 715.243 1323.39 715.227 1323.37 715.202C1322.11 713.147 1320.66 711.189 1318.89 709.458L1258.82 650.078Z" fill="none" opacity="1" stroke="#be8805" stroke-linecap="round" stroke-linejoin="round" stroke-width="3" vectornator:layerName="Curve 67"/>
<path d="M514.647 2099.22C514.844 2099.41 515.09 2099.54 515.291 2099.72L515.47 2099.9C528.072 2112.31 548.144 2112.37 560.285 2100.05L562.193 2098.11L698.878 1959.34C703.845 1954.3 705.767 1947.43 706.205 1940.63C707.187 1933.19 705.985 1925.62 701.978 1919.41C701.433 1918.54 700.65 1917.74 699.971 1916.9C699.406 1916.22 698.984 1915.45 698.342 1914.82L698.052 1914.53L636.516 1853.92L636.226 1853.63C635.746 1853.16 635.151 1852.87 634.648 1852.43C633.469 1851.43 632.277 1850.44 631.003 1849.63C629.944 1848.95 628.84 1848.43 627.719 1847.89C626.722 1847.41 625.734 1846.96 624.704 1846.58C623.729 1846.24 622.761 1845.94 621.758 1845.7C619.966 1845.24 618.165 1844.94 616.337 1844.79C616.121 1844.78 615.913 1844.74 615.696 1844.73C607.015 1844.21 598.259 1847.11 591.766 1853.71L454.643 1992.92L453.48 1994.1C442.882 2004.86 441.848 2021.54 450.201 2033.86C450.218 2033.88 450.251 2033.9 450.268 2033.92C451.525 2035.98 452.969 2037.94 454.731 2039.68L514.647 2099.22Z" fill="none" opacity="1" stroke="#be8805" stroke-linecap="round" stroke-linejoin="round" stroke-width="3" vectornator:layerName="Curve 79"/>
<path d="M1471.96 520.339C1473.44 529.25 1473.59 528.591 1478.84 534.28C1484.09 539.968 1489.35 541.851 1492.96 543.093C1499.5 545.342 1508.42 544.064 1514.47 544.809C1516.78 545.092 1517.5 545.649 1517.5 545.649C1517.5 545.649 1519.07 546.759 1519.26 547.963C1519.64 550.372 1517.83 551.897 1517.83 551.897L1516.32 554.218L1514.46 556.282L1504.8 566.675L1368.49 705.813C1363.53 710.869 1356.7 712.913 1349.91 713.472C1342.49 714.587 1334.9 713.52 1328.62 709.625C1327.74 709.095 1326.93 708.326 1326.08 707.662C1325.39 707.11 1324.61 706.702 1323.96 706.071L1323.67 705.786L1261.97 645.34L1261.68 645.056C1261.2 644.584 1260.9 643.995 1260.45 643.499C1259.43 642.339 1258.41 641.164 1257.58 639.905C1256.89 638.858 1256.34 637.764 1255.78 636.653C1255.28 635.664 1254.82 634.684 1254.43 633.661C1254.06 632.693 1253.75 631.73 1253.49 630.732C1253 628.948 1252.66 627.153 1252.48 625.328C1252.47 625.112 1252.42 624.905 1252.41 624.688C1251.74 616.018 1254.48 607.211 1260.96 600.602C1260.96 600.602 1361.33 498.22 1364.41 495.893C1366.78 494.111 1368.47 497.474 1374.57 499.953C1380.66 502.433 1388.79 505.81 1388.79 505.81C1388.79 505.81 1399.67 509.719 1411.63 509.843C1423.59 509.968 1425.16 510.323 1436.28 506.661C1447.4 503 1456.81 494.958 1456.81 494.958C1456.81 494.958 1467.14 487.422 1470.97 488.161C1471.69 488.299 1473.35 489.591 1472.9 498.633C1472.17 513.413 1470.47 511.427 1471.96 520.339Z" fill="none" opacity="1" stroke="#996e08" stroke-linecap="round" stroke-linejoin="round" stroke-width="3" vectornator:layerName="Curve 68"/>
<path d="M301.158 2228.38C299.698 2219.47 299.55 2220.13 294.313 2214.42C289.077 2208.72 283.822 2206.83 280.214 2205.57C273.68 2203.31 264.76 2204.56 258.706 2203.8C256.402 2203.51 255.687 2202.95 255.687 2202.95C255.687 2202.95 254.119 2201.84 253.93 2200.63C253.552 2198.22 255.37 2196.7 255.37 2196.7L256.881 2194.39L258.746 2192.33L268.443 2181.96L405.127 2043.19C410.095 2038.15 416.933 2036.12 423.72 2035.58C431.145 2034.49 438.734 2035.57 445.008 2039.49C445.887 2040.02 446.695 2040.79 447.542 2041.45C448.231 2042.01 449.011 2042.42 449.653 2043.05L449.943 2043.34L511.48 2103.95L511.769 2104.23C512.249 2104.71 512.551 2105.3 512.996 2105.79C514.017 2106.96 515.024 2108.13 515.852 2109.4C516.548 2110.45 517.087 2111.54 517.644 2112.65C518.141 2113.64 518.604 2114.62 518.993 2115.65C519.354 2116.62 519.661 2117.58 519.921 2118.58C520.409 2120.37 520.739 2122.16 520.912 2123.99C520.928 2124.2 520.973 2124.41 520.983 2124.63C521.633 2133.3 518.864 2142.1 512.371 2148.69C512.371 2148.69 411.728 2250.8 408.636 2253.12C406.268 2254.9 404.578 2251.53 398.491 2249.03C392.404 2246.54 384.288 2243.14 384.288 2243.14C384.288 2243.14 373.415 2239.2 361.455 2239.04C349.496 2238.89 347.928 2238.53 336.797 2242.16C325.667 2245.79 316.238 2253.81 316.238 2253.81C316.238 2253.81 305.89 2261.31 302.056 2260.56C301.342 2260.42 299.682 2259.13 300.154 2250.09C300.927 2235.31 302.618 2237.3 301.158 2228.38Z" fill="none" opacity="1" stroke="#996e08" stroke-linecap="round" stroke-linejoin="round" stroke-width="3" vectornator:layerName="Curve 80"/>
<path d="M1323.83 374.934C1314.91 373.542 1315.56 373.389 1309.82 368.197C1304.08 363.004 1302.14 357.764 1300.86 354.165C1298.54 347.649 1299.73 338.72 1298.92 332.672C1298.62 330.369 1298.05 329.66 1298.05 329.66C1298.05 329.66 1296.92 328.1 1295.72 327.92C1293.31 327.561 1291.8 329.39 1291.8 329.39L1289.49 330.919L1287.45 332.8L1277.16 342.575L1139.44 480.321C1134.44 485.327 1132.46 492.18 1131.97 498.972C1130.94 506.405 1132.08 513.986 1136.04 520.229C1136.58 521.104 1137.36 521.906 1138.03 522.748C1138.59 523.433 1139.01 524.209 1139.64 524.847L1139.93 525.134L1201.01 586.204L1201.3 586.491C1201.78 586.968 1202.37 587.265 1202.87 587.706C1204.04 588.718 1205.23 589.716 1206.49 590.534C1207.55 591.222 1208.65 591.753 1209.77 592.302C1210.76 592.791 1211.74 593.247 1212.77 593.627C1213.74 593.981 1214.71 594.281 1215.71 594.533C1217.5 595.007 1219.3 595.323 1221.12 595.483C1221.34 595.496 1221.55 595.54 1221.76 595.549C1230.44 596.132 1239.22 593.295 1245.76 586.752C1245.76 586.752 1347.1 485.328 1349.39 482.218C1351.15 479.837 1347.77 478.173 1345.23 472.105C1342.68 466.037 1339.22 457.948 1339.22 457.948C1339.22 457.948 1335.2 447.105 1334.95 435.148C1334.7 423.19 1334.33 421.624 1337.88 410.466C1341.42 399.308 1349.37 389.818 1349.37 389.818C1349.37 389.818 1356.8 379.413 1356.02 375.585C1355.87 374.871 1354.56 373.221 1345.53 373.763C1330.76 374.649 1332.76 376.326 1323.83 374.934Z" fill="none" opacity="1" stroke="#996e08" stroke-linecap="round" stroke-linejoin="round" stroke-width="3" vectornator:layerName="Curve 69"/>
<path d="M448.89 2374.19C457.813 2375.6 457.155 2375.76 462.884 2380.96C468.612 2386.17 470.535 2391.42 471.805 2395.02C474.105 2401.54 472.895 2410.47 473.686 2416.52C473.987 2418.82 474.549 2419.53 474.549 2419.53C474.549 2419.53 475.671 2421.09 476.877 2421.28C479.289 2421.64 480.8 2419.82 480.8 2419.82L483.109 2418.3L485.159 2416.42L495.477 2406.67L633.565 2269.3C638.583 2264.31 640.575 2257.46 641.082 2250.67C642.139 2243.24 641.014 2235.65 637.071 2229.4C636.534 2228.52 635.759 2227.72 635.089 2226.88C634.531 2226.19 634.118 2225.41 633.481 2224.77L633.195 2224.48L572.277 2163.25L571.99 2162.96C571.515 2162.48 570.923 2162.19 570.425 2161.74C569.256 2160.73 568.074 2159.73 566.808 2158.9C565.756 2158.21 564.658 2157.68 563.542 2157.13C562.55 2156.64 561.566 2156.18 560.54 2155.79C559.569 2155.44 558.604 2155.14 557.604 2154.88C555.816 2154.4 554.019 2154.08 552.193 2153.92C551.976 2153.9 551.769 2153.86 551.552 2153.85C542.877 2153.24 534.091 2156.06 527.532 2162.58C527.532 2162.58 425.923 2263.73 423.62 2266.84C421.856 2269.21 425.232 2270.89 427.758 2276.96C430.284 2283.03 433.724 2291.13 433.724 2291.13C433.724 2291.13 437.716 2301.99 437.932 2313.94C438.149 2325.9 438.515 2327.47 434.939 2338.62C431.364 2349.77 423.394 2359.24 423.394 2359.24C423.394 2359.24 415.938 2369.62 416.706 2373.45C416.85 2374.16 418.154 2375.82 427.193 2375.3C441.966 2374.45 439.967 2372.77 448.89 2374.19Z" fill="none" opacity="1" stroke="#996e08" stroke-linecap="round" stroke-linejoin="round" stroke-width="3" vectornator:layerName="Curve 81"/>
<path d="M1137.48 531.204C1137.28 531.01 1137.03 530.889 1136.83 530.702L1136.65 530.527C1124.02 518.148 1103.94 518.142 1091.84 530.501L1089.93 532.443L953.623 671.58C948.67 676.637 946.766 683.51 946.346 690.306C945.384 697.749 946.607 705.318 950.63 711.52C951.178 712.39 951.963 713.184 952.645 714.019C953.211 714.698 953.635 715.47 954.279 716.102L954.569 716.386L1016.27 776.832L1016.56 777.116C1017.04 777.588 1017.64 777.879 1018.14 778.316C1019.32 779.316 1020.52 780.302 1021.79 781.107C1022.85 781.784 1023.96 782.303 1025.08 782.841C1026.08 783.319 1027.07 783.766 1028.1 784.136C1029.08 784.48 1030.04 784.77 1031.05 785.011C1032.84 785.468 1034.64 785.765 1036.47 785.906C1036.69 785.918 1036.9 785.959 1037.11 785.966C1045.8 786.461 1054.54 783.535 1061.02 776.925L1197.77 637.341L1198.93 636.158C1209.5 625.37 1210.48 608.689 1202.1 596.393C1202.08 596.368 1202.05 596.353 1202.03 596.327C1200.77 594.273 1199.32 592.314 1197.55 590.584L1150.89 544.568L1137.48 531.204Z" fill="none" opacity="1" stroke="#be8805" stroke-linecap="round" stroke-linejoin="round" stroke-width="3" vectornator:layerName="Curve 70"/>
<path d="M635.666 2218.42C635.863 2218.62 636.109 2218.74 636.311 2218.92L636.489 2219.1C649.091 2231.51 669.164 2231.57 681.304 2219.25L683.212 2217.31L819.897 2078.54C824.864 2073.5 826.786 2066.63 827.224 2059.83C828.206 2052.39 827.004 2044.82 822.998 2038.61C822.452 2037.74 821.669 2036.94 820.99 2036.1C820.425 2035.42 820.004 2034.65 819.361 2034.02L819.072 2033.73L757.535 1973.12L757.245 1972.84C756.765 1972.36 756.171 1972.07 755.667 1971.63C754.489 1970.63 753.296 1969.64 752.022 1968.83C750.963 1968.15 749.86 1967.63 748.738 1967.09C747.741 1966.61 746.753 1966.16 745.723 1965.78C744.748 1965.44 743.781 1965.15 742.778 1964.9C740.985 1964.44 739.184 1964.14 737.357 1963.99C737.14 1963.98 736.932 1963.94 736.716 1963.93C728.035 1963.41 719.278 1966.31 712.785 1972.91L575.662 2112.12L574.5 2113.3C563.901 2124.06 562.868 2140.74 571.221 2153.06C571.238 2153.08 571.27 2153.1 571.287 2153.12C572.545 2155.18 573.989 2157.14 575.751 2158.88L622.284 2205.02L635.666 2218.42Z" fill="none" opacity="1" stroke="#be8805" stroke-linecap="round" stroke-linejoin="round" stroke-width="3" vectornator:layerName="Curve 82"/>
<path d="M521.706 650.092C521.904 649.898 522.15 649.777 522.352 649.59L522.531 649.415C535.161 637.03 555.234 637.016 567.346 649.369L569.25 651.31L705.62 790.389C710.575 795.443 712.482 802.316 712.905 809.112C713.87 816.555 712.651 824.124 708.63 830.328C708.082 831.198 707.297 831.992 706.617 832.828C706.05 833.507 705.627 834.279 704.983 834.911L704.693 835.195L643.019 895.668L642.729 895.953C642.247 896.425 641.652 896.716 641.148 897.152C639.967 898.153 638.773 899.14 637.496 899.945C636.436 900.622 635.331 901.142 634.209 901.681C633.211 902.16 632.221 902.606 631.191 902.977C630.215 903.321 629.247 903.611 628.243 903.854C626.45 904.311 624.648 904.609 622.82 904.751C622.604 904.762 622.396 904.804 622.179 904.811C613.497 905.309 604.747 902.387 598.269 895.781L461.461 756.255L460.302 755.073C449.728 744.289 448.732 727.608 457.113 715.309C457.13 715.284 457.163 715.268 457.18 715.243C458.442 713.188 459.89 711.229 461.656 709.498L521.706 650.092Z" fill="none" opacity="1" stroke="#be8805" stroke-linecap="round" stroke-linejoin="round" stroke-width="3" vectornator:layerName="Curve 71"/>
<path d="M1251.75 2101.19C1251.56 2101.39 1251.31 2101.51 1251.11 2101.69L1250.93 2101.87C1238.26 2114.22 1218.19 2114.18 1206.11 2101.79L1204.21 2099.85L1068.22 1960.4C1063.28 1955.33 1061.39 1948.46 1060.99 1941.66C1060.04 1934.21 1061.28 1926.65 1065.32 1920.45C1065.87 1919.59 1066.65 1918.79 1067.34 1917.96C1067.91 1917.28 1068.33 1916.51 1068.98 1915.88L1069.27 1915.6L1131.1 1855.29L1131.4 1855.01C1131.88 1854.54 1132.47 1854.25 1132.98 1853.81C1134.16 1852.81 1135.36 1851.83 1136.64 1851.03C1137.7 1850.35 1138.81 1849.84 1139.93 1849.3C1140.93 1848.83 1141.92 1848.38 1142.95 1848.01C1143.93 1847.67 1144.9 1847.38 1145.9 1847.15C1147.7 1846.69 1149.5 1846.4 1151.33 1846.26C1151.54 1846.25 1151.75 1846.21 1151.97 1846.2C1160.65 1845.73 1169.39 1848.67 1175.85 1855.3L1312.29 1995.19L1313.44 1996.38C1323.99 2007.19 1324.94 2023.87 1316.52 2036.15C1316.51 2036.18 1316.47 2036.19 1316.46 2036.22C1315.19 2038.27 1313.74 2040.22 1311.96 2041.95L1251.75 2101.19Z" fill="none" opacity="1" stroke="#be8805" stroke-linecap="round" stroke-linejoin="round" stroke-width="3" vectornator:layerName="Curve 83"/>
<path d="M308.511 520.443C307.031 529.356 306.884 528.697 301.635 534.388C296.386 540.078 291.126 541.963 287.515 543.207C280.976 545.459 272.059 544.185 266.003 544.932C263.698 545.216 262.983 545.773 262.983 545.773C262.983 545.773 261.412 546.884 261.22 548.088C260.837 550.498 262.651 552.022 262.651 552.022L264.157 554.342L266.018 556.405L275.69 566.794L412.06 705.873C417.016 710.927 423.849 712.969 430.636 713.525C438.058 714.636 445.65 713.566 451.932 709.668C452.812 709.138 453.622 708.369 454.471 707.704C455.161 707.152 455.942 706.744 456.586 706.112L456.876 705.828L518.55 645.355L518.84 645.07C519.321 644.598 519.624 644.009 520.071 643.514C521.094 642.352 522.104 641.178 522.935 639.918C523.633 638.87 524.174 637.776 524.734 636.665C525.233 635.676 525.699 634.696 526.09 633.673C526.453 632.704 526.762 631.742 527.024 630.743C527.517 628.959 527.85 627.163 528.028 625.339C528.044 625.123 528.089 624.915 528.1 624.699C528.77 616.028 526.02 607.223 519.542 600.616C519.542 600.616 419.131 498.277 416.044 495.952C413.68 494.17 411.983 497.534 405.89 500.016C399.797 502.498 391.674 505.879 391.674 505.879C391.674 505.879 380.792 509.792 368.832 509.922C356.873 510.052 355.303 510.407 344.181 506.751C333.059 503.094 323.648 495.057 323.648 495.057C323.648 495.057 313.317 487.525 309.482 488.266C308.767 488.404 307.104 489.696 307.556 498.738C308.295 513.518 309.991 511.531 308.511 520.443Z" fill="none" opacity="1" stroke="#996e08" stroke-linecap="round" stroke-linejoin="round" stroke-width="3" vectornator:layerName="Curve 72"/>
<path d="M1464.6 2231.42C1466.1 2222.51 1466.25 2223.17 1471.51 2217.49C1476.78 2211.81 1482.04 2209.94 1485.66 2208.71C1492.2 2206.47 1501.11 2207.77 1507.17 2207.04C1509.48 2206.76 1510.2 2206.21 1510.2 2206.21C1510.2 2206.21 1511.77 2205.1 1511.96 2203.9C1512.35 2201.49 1510.54 2199.96 1510.54 2199.96L1509.04 2197.64L1507.19 2195.57L1497.55 2185.15L1361.55 2045.71C1356.61 2040.64 1349.78 2038.58 1343 2038.01C1335.58 2036.87 1327.98 2037.92 1321.69 2041.81C1320.81 2042.33 1320 2043.1 1319.15 2043.76C1318.45 2044.31 1317.67 2044.72 1317.03 2045.35L1316.73 2045.63L1254.9 2105.94L1254.61 2106.22C1254.12 2106.69 1253.82 2107.28 1253.37 2107.78C1252.35 2108.93 1251.33 2110.11 1250.5 2111.36C1249.8 2112.41 1249.25 2113.5 1248.69 2114.61C1248.19 2115.6 1247.72 2116.58 1247.33 2117.6C1246.96 2118.57 1246.65 2119.53 1246.38 2120.53C1245.89 2122.31 1245.55 2124.11 1245.37 2125.93C1245.35 2126.15 1245.3 2126.35 1245.29 2126.57C1244.6 2135.24 1247.32 2144.05 1253.79 2150.68C1253.79 2150.68 1353.92 2253.28 1357 2255.62C1359.36 2257.41 1361.07 2254.05 1367.17 2251.58C1373.27 2249.11 1381.4 2245.76 1381.4 2245.76C1381.4 2245.76 1392.29 2241.87 1404.25 2241.77C1416.21 2241.68 1417.78 2241.33 1428.89 2245.01C1440 2248.7 1449.39 2256.76 1449.39 2256.76C1449.39 2256.76 1459.7 2264.32 1463.54 2263.59C1464.26 2263.45 1465.92 2262.17 1465.5 2253.12C1464.8 2238.34 1463.1 2240.32 1464.6 2231.42Z" fill="none" opacity="1" stroke="#996e08" stroke-linecap="round" stroke-linejoin="round" stroke-width="3" vectornator:layerName="Curve 84"/>
<path d="M456.573 374.975C465.499 373.58 464.841 373.426 470.582 368.232C476.322 363.037 478.257 357.796 479.535 354.196C481.849 347.679 480.66 338.751 481.464 332.702C481.77 330.4 482.334 329.69 482.334 329.69C482.334 329.69 483.46 328.13 484.666 327.95C487.079 327.589 488.586 329.418 488.586 329.418L490.891 330.946L492.937 332.826L503.234 342.597L641.009 480.283C646.016 485.287 647.993 492.139 648.484 498.931C649.525 506.363 648.383 513.945 644.425 520.189C643.887 521.065 643.11 521.867 642.437 522.709C641.878 523.395 641.463 524.171 640.825 524.809L640.538 525.096L579.481 586.192L579.194 586.48C578.718 586.957 578.126 587.254 577.626 587.696C576.455 588.708 575.27 589.707 574.003 590.525C572.949 591.213 571.85 591.744 570.733 592.294C569.74 592.783 568.755 593.24 567.728 593.621C566.756 593.975 565.791 594.275 564.789 594.528C563.001 595.003 561.202 595.319 559.376 595.48C559.16 595.494 558.952 595.537 558.735 595.546C550.059 596.133 541.28 593.3 534.735 586.759C534.735 586.759 433.356 485.379 431.06 482.271C429.301 479.89 432.681 478.224 435.221 472.156C437.761 466.087 441.219 457.996 441.219 457.996C441.219 457.996 445.235 447.151 445.479 435.194C445.722 423.236 446.092 421.67 442.542 410.514C438.991 399.357 431.043 389.87 431.043 389.87C431.043 389.87 423.61 379.468 424.388 375.64C424.532 374.927 425.841 373.276 434.878 373.814C449.65 374.694 447.647 376.371 456.573 374.975Z" fill="none" opacity="1" stroke="#996e08" stroke-linecap="round" stroke-linejoin="round" stroke-width="3" vectornator:layerName="Curve 73"/>
<path d="M1316.15 2376.48C1307.22 2377.86 1307.87 2378.01 1302.12 2383.19C1296.36 2388.37 1294.42 2393.61 1293.13 2397.2C1290.8 2403.71 1291.96 2412.64 1291.14 2418.69C1290.83 2420.99 1290.26 2421.7 1290.26 2421.7C1290.26 2421.7 1289.13 2423.26 1287.93 2423.43C1285.51 2423.79 1284.01 2421.96 1284.01 2421.96L1281.71 2420.42L1279.67 2418.54L1269.4 2408.74L1131.99 2270.68C1127 2265.66 1125.04 2258.8 1124.57 2252.01C1123.55 2244.58 1124.71 2237 1128.69 2230.76C1129.23 2229.89 1130.01 2229.09 1130.68 2228.25C1131.24 2227.57 1131.66 2226.79 1132.3 2226.15L1132.59 2225.87L1193.81 2164.94L1194.1 2164.65C1194.57 2164.17 1195.17 2163.88 1195.67 2163.44C1196.84 2162.43 1198.03 2161.43 1199.3 2160.62C1200.35 2159.93 1201.45 2159.41 1202.57 2158.86C1203.57 2158.37 1204.55 2157.92 1205.58 2157.54C1206.55 2157.19 1207.52 2156.89 1208.52 2156.64C1210.31 2156.17 1212.11 2155.86 1213.94 2155.7C1214.15 2155.69 1214.36 2155.65 1214.58 2155.64C1223.26 2155.08 1232.03 2157.93 1238.56 2164.49C1238.56 2164.49 1339.66 2266.14 1341.95 2269.26C1343.7 2271.64 1340.32 2273.3 1337.76 2279.36C1335.2 2285.42 1331.72 2293.51 1331.72 2293.51C1331.72 2293.51 1327.68 2304.34 1327.4 2316.3C1327.13 2328.25 1326.75 2329.82 1330.27 2340.98C1333.79 2352.15 1341.72 2361.66 1341.72 2361.66C1341.72 2361.66 1349.12 2372.08 1348.33 2375.91C1348.19 2376.62 1346.87 2378.27 1337.84 2377.7C1323.07 2376.78 1325.08 2375.11 1316.15 2376.48Z" fill="none" opacity="1" stroke="#996e08" stroke-linecap="round" stroke-linejoin="round" stroke-width="3" vectornator:layerName="Curve 85"/>
<path d="M642.995 531.165C643.193 530.971 643.439 530.85 643.641 530.663L643.82 530.488C656.45 518.104 676.523 518.089 688.635 530.442L690.539 532.384L826.909 671.463C831.864 676.517 833.771 683.389 834.194 690.185C835.159 697.628 833.94 705.197 829.919 711.401C829.371 712.271 828.587 713.065 827.906 713.901C827.339 714.581 826.916 715.353 826.272 715.984L825.982 716.269L764.308 776.741L764.018 777.026C763.537 777.498 762.941 777.789 762.437 778.226C761.256 779.226 760.062 780.213 758.786 781.018C757.725 781.696 756.62 782.216 755.498 782.754C754.5 783.233 753.51 783.679 752.48 784.05C751.504 784.394 750.536 784.685 749.532 784.927C747.739 785.384 745.937 785.682 744.109 785.824C743.893 785.836 743.685 785.877 743.468 785.884C734.786 786.382 726.036 783.46 719.558 776.854L582.75 637.329L581.591 636.146C571.017 625.362 570.021 608.681 578.402 596.382C578.419 596.357 578.452 596.342 578.469 596.316C579.731 594.261 581.179 592.302 582.945 590.571L629.583 544.535L642.995 531.165Z" fill="none" opacity="1" stroke="#be8805" stroke-linecap="round" stroke-linejoin="round" stroke-width="3" vectornator:layerName="Curve 74"/>
<path d="M1130.15 2219.79C1129.95 2219.99 1129.7 2220.11 1129.5 2220.29L1129.32 2220.47C1116.66 2232.82 1096.58 2232.78 1084.5 2220.39L1082.61 2218.45L946.611 2079C941.669 2073.93 939.78 2067.06 939.376 2060.26C938.431 2052.81 939.671 2045.25 943.708 2039.05C944.258 2038.18 945.045 2037.39 945.728 2036.56C946.296 2035.88 946.722 2035.11 947.367 2034.48L947.658 2034.2L1009.5 1973.89L1009.79 1973.61C1010.27 1973.14 1010.86 1972.85 1011.37 1972.41C1012.55 1971.41 1013.75 1970.43 1015.03 1969.63C1016.09 1968.95 1017.2 1968.44 1018.32 1967.9C1019.32 1967.43 1020.31 1966.98 1021.34 1966.61C1022.32 1966.27 1023.29 1965.98 1024.29 1965.74C1026.09 1965.29 1027.89 1965 1029.72 1964.86C1029.93 1964.85 1030.14 1964.81 1030.36 1964.8C1039.04 1964.33 1047.78 1967.27 1054.25 1973.9L1190.68 2113.79L1191.83 2114.98C1202.38 2125.79 1203.33 2142.47 1194.91 2154.75C1194.9 2154.78 1194.86 2154.79 1194.85 2154.82C1193.58 2156.87 1192.13 2158.82 1190.36 2160.55L1143.59 2206.46L1130.15 2219.79Z" fill="none" opacity="1" stroke="#be8805" stroke-linecap="round" stroke-linejoin="round" stroke-width="3" vectornator:layerName="Curve 86"/>
</g>
<g id="Layer-1" vectornator:layerName="Layer 1">
<path d="M1064.61 1115.98C1058.16 1115.4 1052.89 1115.09 1052.31 1121.55C1051.62 1129.4 1046.57 1138.89 1043.28 1146C1038.47 1156.42 1032.4 1166.23 1025.97 1175.72C1015.62 1190.99 1004.09 1205.47 992.125 1219.5C978.129 1235.91 963.464 1251.75 948.344 1267.12C944.676 1270.86 940.985 1274.56 937.25 1278.22C935.901 1279.54 934.548 1280.85 933.188 1282.16C932.801 1282.53 932.419 1282.91 932.031 1283.28C932 1283.31 931.969 1283.34 931.938 1283.38C931.959 1283.36 931.897 1283.42 931.875 1283.44C931.854 1283.46 931.834 1283.48 931.812 1283.5C931.765 1283.55 931.704 1283.58 931.656 1283.62C931.645 1283.63 931.636 1283.65 931.625 1283.66C931.614 1283.67 931.604 1283.68 931.594 1283.69C931.551 1283.73 931.425 1283.85 931.469 1283.81C931.308 1283.95 931.13 1284.08 930.969 1284.22C930.512 1284.61 930.049 1284.98 929.594 1285.38C928.135 1286.64 926.698 1287.91 925.25 1289.19C921.12 1292.82 917.006 1296.51 912.938 1300.22C901.006 1311.09 889.311 1322.18 877.812 1333.5C850.41 1360.49 824.114 1388.68 799.656 1418.38C779.945 1442.31 761.358 1467.27 745.094 1493.69C730.884 1516.77 718.247 1541.08 709.656 1566.84C702.396 1588.62 702.155 1594.06 706.543 1616.69C707.464 1621.45 712.413 1628.39 712.413 1628.39L717.762 1634.17C717.762 1634.17 723.101 1640.78 723.145 1633.94C723.279 1612.78 727.542 1590.12 734.656 1570.16C744.457 1542.65 758.984 1516.95 775 1492.62C791.478 1467.6 809.859 1443.86 829.25 1421.03C850.939 1395.5 873.92 1371.07 897.781 1347.56C908.684 1336.82 919.758 1326.26 931.062 1315.94C934.757 1312.57 938.469 1309.22 942.219 1305.91C944.08 1304.26 946.017 1302.68 947.844 1301C952.929 1296.31 957.742 1291.3 962.594 1286.38C970.8 1278.05 978.891 1269.59 986.812 1261C1000.12 1246.56 1013.01 1231.75 1025.19 1216.34C1034.59 1204.45 1043.59 1192.2 1051.66 1179.34C1056.41 1171.77 1060.85 1163.97 1064.59 1155.84C1069.01 1146.26 1072.33 1139.55 1072.54 1128C1072.59 1125.28 1071.38 1116.8 1070.56 1115.81C1069.43 1114.44 1068.36 1116.32 1064.61 1115.98Z" fill="#0961cd" fill-rule="nonzero" opacity="1" stroke="none" vectornator:layerName="Curve 97"/>
<path d="M1056.55 1796.8C1055.07 1796.16 1054.32 1795.2 1052.86 1796.09C1049.15 1798.35 1047.66 1801.64 1047.66 1801.64L1047.23 1816.37C1047.23 1816.37 1057.92 1840.95 1060.44 1852.59C1061.8 1858.91 1062.48 1865.38 1062.47 1871.84C1062.38 1908.71 1039.84 1941.86 1011.78 1964.06C1007.24 1967.65 1002.49 1971 997.594 1974.09C991.332 1978.05 984.807 1981.59 978.062 1984.66C969.183 1988.69 959.909 1991.92 950.406 1994.12C924.038 2000.25 896.215 1999.07 869.719 1994.41C846.001 1990.23 822.804 1983.05 800.719 1973.47C782.734 1965.67 765.406 1956.27 749.25 1945.16C727.105 1929.92 706.962 1911.36 692.438 1888.59C688.954 1883.13 681.713 1881.55 676.25 1885.03C670.787 1888.51 669.173 1895.76 672.656 1901.22C688.894 1926.7 711.156 1947.44 735.906 1964.53C756.223 1978.56 778.24 1990.09 801.156 1999.25C822.993 2007.98 845.735 2014.6 868.938 2018.5C898.578 2023.48 929.531 2024.28 958.875 2017.03C969.816 2014.33 980.453 2010.46 990.656 2005.69C998.385 2002.07 1005.87 1997.92 1013.03 1993.28C1048.91 1970.01 1078.69 1933.3 1085.69 1890.25C1086.67 1884.2 1087.17 1878.04 1087.19 1871.91C1087.22 1863.67 1086.36 1855.43 1084.62 1847.38C1081.54 1833.02 1075.65 1819.6 1068.03 1807.09C1065.36 1802.71 1059.54 1798.12 1056.55 1796.8Z" fill="#0961cd" fill-rule="nonzero" opacity="1" stroke="none" vectornator:layerName="Curve 98"/>
<path d="M864.25 731.531C849.143 731.621 834.05 733.227 819.375 736.844C808.969 739.409 798.789 742.931 788.969 747.219C781.654 750.413 774.536 754.045 767.656 758.094C730.543 779.936 697.969 815.462 690.625 859.125C689.632 865.031 689.126 871.01 689.125 877C689.124 885.581 690.143 894.191 692.156 902.531C695.336 915.707 701.907 927.52 708.942 939.061C712.507 944.903 714.876 935.683 720.717 932.119C723.416 930.472 725.331 928.833 726.23 927.557C727.276 926.072 726.953 924.886 725.035 921.742C719.327 912.399 718.807 907.394 716.219 896.719C714.74 890.621 713.934 884.335 713.844 878.062C713.309 840.977 737.953 808.879 766.719 787.969C771.37 784.587 776.188 781.427 781.156 778.531C787.563 774.797 794.204 771.489 801.031 768.594C809.693 764.921 818.676 761.912 827.844 759.781C854.211 753.654 882.035 754.833 908.531 759.5C932.248 763.677 955.446 770.83 977.531 780.406C995.516 788.205 1012.84 797.604 1029 808.719C1051.15 823.955 1071.29 842.516 1085.81 865.281C1089.3 870.744 1096.54 872.359 1102 868.875C1107.46 865.391 1109.08 858.119 1105.59 852.656C1089.36 827.18 1067.09 806.47 1042.34 789.375C1022.03 775.341 1000.01 763.79 977.094 754.625C955.257 745.892 932.516 739.276 909.312 735.375C894.489 732.883 879.357 731.441 864.25 731.531Z" fill="#0961cd" fill-rule="nonzero" opacity="0.997484" stroke="none" vectornator:layerName="Curve 96"/>
</g>
</svg>
