<?xml version="1.0" encoding="UTF-8"?>
<svg id="Capa_2" data-name="Capa 2" xmlns="http://www.w3.org/2000/svg" viewBox="0 0 163.2 233.95">
  <defs>
    <style>
      .cls-1 {
        fill: #d6404b;
      }

      .cls-2 {
        fill: #ef8090;
      }

      .cls-3 {
        fill: #6eaadd;
      }

      .cls-4 {
        fill: #5c9dd1;
      }

      .cls-5 {
        fill: #e55f6d;
      }

      .cls-6 {
        fill: #86bde7;
      }

      .cls-7 {
        fill: #9ed0f1;
      }

      .cls-8 {
        fill: #c03442;
      }
    </style>
  </defs>
  <g id="Capa_1-2" data-name="Capa 1">
    <g>
      <g>
        <path class="cls-1" d="M83.89,221.47c-.21,2.21-.66,6.66-4.17,9.39-3.85,2.99-9.66,2.58-13.56,0-2.32-1.54-3.65-3.63-4.43-5.46-.76-1.83-.98-3.4-1.05-3.93-.54-3.99.84-6.85,1.82-9.66,1.09-3.08.84-3.66,1.57-24,.62-17.14.83-17.76.26-21.13-1.09-6.4-2.1-12.4-6.78-17.21-2.22-2.28-3.83-2.83-4.96-5.48-2.21-5.19.58-11.01,1.3-12.52,2.32-4.83,4.59-4.95,6.79-8.87,1.29-2.3,1.76-4.51,1.56-14.87-.23-12.27-1.1-20.57-3.71-27.2-1.76-4.44-3.52-6.19-5.29-7.04-.88-.42-1.49-.5-3.91-1.57-1.39-.61-2.69-1.19-4.3-2.15-1.88-1.11-1.82-1.33-2.55-1.56-2.04-.65-3.62.74-6.06,1.76-4.12,1.71-8.47,1.4-11.35.58-1.07-.3-3.72-1.08-6.07-3.32-1.21-1.16-2.09-2.47-2.93-3.72-1.31-1.94-1.39-2.51-2.35-3.91-1.35-1.99-2.24-2.41-4.11-4.31-1.12-1.14-4.55-1.84-6.45-5.48-.71-1.34-.97-5.7-1.57-9-.62-3.39,0-4.71,0-9.78.02-6.2-.89-5.68-.48-8.02,1.46-8.37,12.41-13.37,13.59-13.89,2.93-1.3,4.48-1.33,8.8-3.52,3.64-1.85,3.82-2.47,6.07-3.13,2.14-.64,4.82-.43,10.17,0,4.78.37,5.96.76,6.85,1.76,1,1.11,1.15,2.44,1.37,4.3.23,1.97.08,3.93-.78,7.44-.88,3.6-1.56,4.95-1.96,6.45-.42,1.57-.49,3.15-.33,4.69v.02c.58,5.61,4.2,10.72,5.61,12.71,3.21,4.51,6.73,6.76,11.16,9.58,4.96,3.17,6.93,3.17,7.63,3.13,1.43-.07,2.94-.54,5.87-.39,2.36.13,3,.53,3.32.79,1.33,1.05,1.44,2.88,1.57,5.08.14,2.43.13,3.64-.59,6.07-1.83,6.15-.42,24.97,0,30.85.87,12.23,1.28,23.72,2.09,46.69.36,10.3.75,21.58.78,35.22.02,10.92.04,16.38,0,17.48-.35,10.44-1.04,12.19,0,17.21.85,4.11,1.95,6.01,1.56,9.92Z"/>
        <path class="cls-2" d="M33,2.06c1.68,0,3.81.17,6.74.41,4.78.37,5.96.76,6.85,1.76,1,1.11,1.15,2.44,1.37,4.3.23,1.97.08,3.93-.78,7.44-.88,3.6-1.56,4.95-1.96,6.45-.42,1.57-.49,3.15-.33,4.69v.02c.58,5.61,4.2,10.72,5.61,12.71,3.21,4.51,6.73,6.76,11.16,9.58,4.46,2.85,6.5,3.14,7.38,3.14.1,0,.18,0,.25,0,1.24-.06,2.53-.42,4.75-.42.35,0,.72,0,1.12.03,2.36.13,3,.53,3.32.79,1.33,1.05,1.44,2.88,1.57,5.08.14,2.43.13,3.64-.59,6.07-1.83,6.15-.42,24.97,0,30.85.87,12.23,1.28,23.72,2.09,46.69.36,10.3.75,21.58.78,35.22.02,10.92.04,16.38,0,17.48-.35,10.44-1.04,12.19,0,17.21.85,4.11,1.95,6.01,1.56,9.92-.21,2.21-.66,6.66-4.17,9.39-1.85,1.44-4.16,2.09-6.5,2.09-2.51,0-5.04-.75-7.06-2.09-2.32-1.54-3.65-3.63-4.43-5.46-.76-1.83-.98-3.4-1.05-3.93-.54-3.99.84-6.85,1.82-9.66,1.09-3.08.84-3.66,1.57-24,.62-17.14.83-17.76.26-21.13-1.09-6.4-2.1-12.4-6.78-17.21-2.22-2.28-3.83-2.83-4.96-5.48-2.21-5.19.58-11.01,1.3-12.52,2.32-4.83,4.59-4.95,6.79-8.87,1.29-2.3,1.76-4.51,1.56-14.87-.23-12.27-1.1-20.57-3.71-27.2-1.76-4.44-3.52-6.19-5.29-7.04-.88-.42-1.49-.5-3.91-1.57-1.39-.61-2.69-1.19-4.3-2.15-1.88-1.11-1.82-1.33-2.55-1.56-.36-.12-.71-.17-1.05-.17-1.58,0-3,1.09-5.01,1.93-2.17.9-4.41,1.24-6.46,1.24-1.84,0-3.53-.27-4.89-.66-1.07-.3-3.72-1.08-6.07-3.32-1.21-1.16-2.09-2.47-2.93-3.72-1.31-1.94-1.39-2.51-2.35-3.91-1.35-1.99-2.24-2.41-4.11-4.31-1.12-1.14-4.55-1.84-6.45-5.48-.71-1.34-.97-5.7-1.57-9-.62-3.39,0-4.71,0-9.78.02-6.2-.89-5.68-.48-8.02,1.46-8.37,12.41-13.37,13.59-13.89,2.93-1.3,4.48-1.33,8.8-3.52,3.64-1.85,3.82-2.47,6.07-3.13.97-.29,2.05-.41,3.43-.41M33,1.06c-1.54,0-2.68.14-3.72.45-1.43.42-2.11.84-3.15,1.47-.71.43-1.6.97-3.09,1.73-2.54,1.29-4.08,1.8-5.58,2.3-1.02.34-1.97.66-3.18,1.19C13,8.77,1.66,14.01.12,22.84c-.22,1.25-.1,1.86.05,2.69.17.89.42,2.23.41,5.49,0,1.91-.09,3.25-.17,4.44-.13,1.92-.22,3.31.19,5.53.21,1.17.38,2.48.55,3.76.31,2.42.58,4.52,1.12,5.53,1.45,2.77,3.74,4.02,5.26,4.85.58.31,1.12.61,1.36.86.65.66,1.19,1.15,1.66,1.58.88.8,1.51,1.38,2.34,2.59.42.62.66,1.06.94,1.56.32.6.69,1.27,1.41,2.35.87,1.3,1.78,2.65,3.07,3.88,2.59,2.47,5.53,3.29,6.49,3.56,1.12.32,2.92.7,5.16.7,2.43,0,4.73-.44,6.84-1.32.67-.28,1.29-.59,1.83-.86,1.09-.55,1.96-.99,2.8-.99.25,0,.5.04.75.12.24.07.3.12.62.35.32.23.8.57,1.73,1.12,1.72,1.03,3.15,1.65,4.41,2.2,1.43.63,2.25.93,2.85,1.15.41.15.7.25,1.03.41,1.27.61,2.97,1.9,4.79,6.51,2.37,6.02,3.39,13.55,3.64,26.85.2,10.34-.28,12.31-1.43,14.36-.93,1.65-1.87,2.58-2.86,3.56-1.28,1.26-2.61,2.57-3.96,5.37-2.46,5.15-2.9,9.64-1.32,13.34.85,2,1.97,2.95,3.25,4.04.6.51,1.22,1.04,1.91,1.75,4.45,4.57,5.45,10.42,6.5,16.62v.06c.44,2.56.41,3.47.07,12.15-.09,2.32-.2,5.18-.33,8.77-.16,4.34-.27,7.78-.36,10.54-.33,10.06-.35,10.88-1.16,13.16-.14.39-.28.78-.43,1.18-.91,2.47-1.94,5.27-1.44,8.95.19,1.45.57,2.85,1.12,4.18,1.08,2.52,2.69,4.51,4.8,5.91,2.2,1.46,4.91,2.26,7.62,2.26s5.17-.8,7.11-2.3c3.88-3.02,4.33-7.79,4.55-10.09.29-2.94-.22-4.88-.82-7.12-.25-.94-.51-1.92-.75-3.09-.7-3.35-.59-5.14-.34-9.46.11-1.92.25-4.3.36-7.51.03-.92.03-4.7.01-12.23v-5.28c-.04-13.78-.44-25.19-.79-35.25-.81-22.87-1.21-34.34-2.09-46.73l-.03-.48c-.43-5.98-1.73-24.19,0-30.01.76-2.57.78-3.86.63-6.41-.14-2.3-.26-4.48-1.95-5.81-.51-.41-1.38-.87-3.88-1-.42-.02-.81-.03-1.18-.03-1.46,0-2.55.15-3.43.27-.51.07-.95.13-1.37.15-.06,0-.13,0-.2,0-.81,0-2.78-.39-6.84-2.98-4.34-2.77-7.77-4.95-10.88-9.32-1.33-1.88-4.86-6.86-5.43-12.2,0-.02,0-.04,0-.06-.16-1.53-.06-2.99.3-4.33.14-.51.32-1.03.52-1.62.39-1.12.87-2.51,1.44-4.85.85-3.45,1.06-5.56.8-7.79-.23-1.99-.42-3.52-1.62-4.85-1.16-1.3-2.63-1.71-7.52-2.09-2.83-.23-5.08-.41-6.82-.41h0Z"/>
      </g>
      <g>
        <path class="cls-3" d="M161.15,38.16c-1.77,4.38-4.29,8.58-6.39,12.81-1.93,3.86-3.89,7.76-6.72,11.03-2.82,3.26-6.66,5.86-10.95,6.31-4.45.46-8.77-1.38-13.17-2.19-4.4-.81-9.75-.14-12.02,3.71-.84,1.43-1.13,3.1-1.68,4.67-1.13,3.19-3.35,5.87-5.19,8.72-6.51,10.08-9.81,27.2-4.38,38.49.98,2.03,2.33,3.89,3.1,6.01.99,2.7.97,5.64.93,8.52-.03,2.65-.09,5.41-1.26,7.8-.85,1.74-2.24,3.17-3.11,4.9-2.51,4.98-.61,11.6-.85,16.99-.18,3.86-.43,7.56-.17,11.45.19,2.81.48,5.81-1.37,8.41-.37.53-1.69,2.34-4.11,2.94-2.35.58-4.36-.34-5.42-.96-.29-.17-.51-.32-.64-.41-.3-.21-2.93-2.07-3.63-5.48-.57-2.78.7-3.85,1.09-8.22.22-2.49-.02-4.15-.2-6.06-.18-1.91-.25-7.73-.4-19.37-.26-20.46-.01-40.92.06-61.38.02-6.19.04-12.38.06-18.57.01-4.62-1.19-15.51,3.34-18.46.27-.18.98-.6,4.18-.79,2.19-.13,3.41-.02,5.22,0,3.16.04,4.75.06,6-.26.88-.22,2.6-.83,7.04-6.26,3.66-4.47,5.5-6.7,6.26-9.39.69-2.46,1.12-5.38.56-7.91-.65-3-2.58-5.54-3.35-8.5-1.34-5.15.88-11.97,5.66-14.64,3.12-1.75,6.2-1.06,12.26,0,2.68.46,5.15.92,7.83,2.61,2.17,1.38,1.78,1.86,5.22,4.7,1.77,1.47,3.61,2.72,7.3,5.22,2.24,1.52,2.98,1.96,4.3,3.03.04.03.08.06.13.1,2.13,1.72,3.28,2.66,4.18,4.17.29.49,1.08,1.93,1.3,6.78,0,3.72.38,6.05-1.01,9.48Z"/>
        <path class="cls-7" d="M124,1c2.05,0,4.51.48,7.89,1.07,2.68.46,5.15.92,7.83,2.61,2.17,1.38,1.78,1.86,5.22,4.7,1.77,1.47,3.61,2.72,7.3,5.22,2.24,1.52,2.98,1.96,4.3,3.03.04.03.08.06.13.1,2.13,1.72,3.28,2.66,4.18,4.17.29.49,1.08,1.93,1.3,6.78,0,3.72.38,6.05-1.01,9.48-1.77,4.38-4.29,8.58-6.39,12.81-1.93,3.86-3.89,7.76-6.72,11.03-2.82,3.26-6.66,5.86-10.95,6.31-.48.05-.96.07-1.44.07-3.94,0-7.8-1.54-11.73-2.26-1.06-.19-2.17-.3-3.28-.3-3.51,0-7.01,1.09-8.74,4.01-.84,1.43-1.13,3.1-1.68,4.67-1.13,3.19-3.35,5.87-5.19,8.72-6.51,10.08-9.81,27.2-4.38,38.49.98,2.03,2.33,3.89,3.1,6.01.99,2.7.97,5.64.93,8.52-.03,2.65-.09,5.41-1.26,7.8-.85,1.74-2.24,3.17-3.11,4.9-2.51,4.98-.61,11.6-.85,16.99-.18,3.86-.43,7.56-.17,11.45.19,2.81.48,5.81-1.37,8.41-.37.53-1.69,2.34-4.11,2.94-.52.13-1.03.18-1.52.18-1.68,0-3.08-.66-3.9-1.14-.29-.17-.51-.32-.64-.41-.3-.21-2.93-2.07-3.63-5.48-.57-2.78.7-3.85,1.09-8.22.22-2.49-.02-4.15-.2-6.06-.18-1.91-.25-7.73-.4-19.37-.26-20.46-.01-40.92.06-61.38.02-6.19.04-12.38.06-18.57.01-4.62-1.19-15.51,3.34-18.46.27-.18.98-.6,4.18-.79.79-.05,1.45-.06,2.06-.06,1.08,0,2,.05,3.16.06.94.01,1.74.02,2.43.02,1.64,0,2.69-.06,3.57-.28.88-.22,2.6-.83,7.04-6.26,3.66-4.47,5.5-6.7,6.26-9.39.69-2.46,1.12-5.38.56-7.91-.65-3-2.58-5.54-3.35-8.5-1.34-5.15.88-11.97,5.66-14.64,1.38-.77,2.75-1.07,4.37-1.07M124,0h0c-1.88,0-3.38.37-4.85,1.2-4.93,2.75-7.68,9.83-6.14,15.76.39,1.5,1.05,2.88,1.69,4.21.69,1.43,1.34,2.79,1.65,4.25.56,2.53.01,5.44-.55,7.43-.7,2.46-2.46,4.61-5.97,8.9l-.1.13c-4.42,5.4-5.94,5.78-6.51,5.92-.82.21-1.88.25-3.33.25-.69,0-1.48-.01-2.42-.02-.51,0-.97-.02-1.42-.03-.58-.02-1.14-.03-1.75-.03-.71,0-1.38.02-2.12.06-3.14.19-4.12.59-4.68.96-4.29,2.79-4.02,11.2-3.84,16.76.03.98.06,1.82.06,2.53l-.06,18.57c-.02,5.34-.05,10.67-.08,16.01-.09,14.87-.17,30.25.02,45.39v1.06c.16,10.99.23,16.5.4,18.39l.08.77c.16,1.57.31,3.05.12,5.11-.16,1.81-.47,3-.75,4.06-.37,1.42-.69,2.64-.32,4.45.73,3.55,3.27,5.56,4.04,6.1.15.1.39.27.71.45,1.45.85,2.94,1.28,4.41,1.28.59,0,1.18-.07,1.76-.21,1.87-.46,3.49-1.62,4.69-3.34,1.98-2.78,1.76-5.93,1.57-8.72l-.02-.33c-.22-3.32-.07-6.49.1-9.83l.07-1.5c.08-1.8-.07-3.75-.22-5.64-.3-3.85-.61-7.83.96-10.95.39-.78.91-1.51,1.45-2.27.59-.82,1.19-1.68,1.66-2.64,1.3-2.65,1.33-5.74,1.36-8.23.04-2.79.08-5.95-.99-8.88-.5-1.37-1.22-2.62-1.91-3.84-.44-.77-.86-1.5-1.23-2.26-5.32-11.06-1.98-27.76,4.32-37.51.46-.72.96-1.44,1.45-2.15,1.45-2.11,2.96-4.29,3.84-6.78.18-.53.34-1.06.49-1.57.31-1.06.6-2.06,1.11-2.93,1.81-3.06,5.71-3.52,7.88-3.52,1.02,0,2.07.1,3.1.29,1.33.25,2.69.6,4.01.94,2.55.66,5.2,1.34,7.89,1.34.53,0,1.05-.03,1.55-.08,4.15-.44,8.27-2.8,11.6-6.65,2.94-3.39,4.93-7.38,6.86-11.24.71-1.43,1.48-2.89,2.23-4.29,1.48-2.78,3-5.65,4.19-8.59,1.21-2.98,1.16-5.17,1.11-7.93-.01-.6-.03-1.24-.03-1.92-.24-5.26-1.14-6.79-1.44-7.29-1.01-1.69-2.29-2.72-4.41-4.44-.06-.05-.11-.08-.16-.12-1.02-.83-1.72-1.3-2.99-2.15-.39-.26-.83-.55-1.35-.91-3.64-2.47-5.47-3.7-7.22-5.16-1.63-1.34-2.36-2.13-2.94-2.76-.65-.69-1.16-1.24-2.38-2.02-2.93-1.85-5.61-2.31-8.2-2.75l-1.06-.19c-2.84-.5-5.09-.9-7.01-.9h0Z"/>
      </g>
      <path class="cls-8" d="M83.89,221.47c-.21,2.21-.66,6.66-4.17,9.39-3.85,2.99-9.66,2.58-13.56,0-2.32-1.54-3.65-3.63-4.43-5.46,1.66.65,3.52,1.75,6.09,1.17,5.42-1.23,10.02-9.01,8.48-13.82-.64-2-2.17-2.96-1.83-4.96.33-1.85,1.87-2.26,3-4.43,1.21-2.31.91-4.59.79-6-.91-10.73,4.09-29.17-1.05-64.57-1.09-7.51-2.38-14.03-3.28-20.07-.53-3.52-3.42-7.08-3.57-10.38-.11-2.54,3.74-4.39,3.98-6.91.41-4.34-.75-9.17-.26-13.5.54-4.67.26-9.39.52-14.09.08-1.28.22-3.57-1.17-5.6-1.15-1.69-2.86-2.47-3.78-2.87-2.62-1.15-3.35-.27-6.65-1.31-1.68-.53-3.92-1.26-5.09-3.26-.62-1.05-.58-1.82-.78-2.74-.85-3.71-4.84-5.69-6.27-6.65-4.82-3.25-6.23-12.26-5.97-18.27.58,5.61,4.2,10.72,5.61,12.71,3.21,4.51,6.73,6.76,11.16,9.58,4.96,3.17,6.93,3.17,7.63,3.13,1.43-.07,2.94-.54,5.87-.39,2.36.13,3,.53,3.32.79,1.33,1.05,1.44,2.88,1.57,5.08.14,2.43.13,3.64-.59,6.07-1.83,6.15-.42,24.97,0,30.85.87,12.23,1.28,23.72,2.09,46.69.36,10.3.75,21.58.78,35.22.02,10.92.04,16.38,0,17.48-.35,10.44-1.04,12.19,0,17.21.85,4.11,1.95,6.01,1.56,9.92Z"/>
      <path class="cls-5" d="M4.3,23.23c-.07-2.43,1.39-4.15,2.74-5.74,2.84-3.35,6.28-4.37,7.43-4.7,1.85-.52,3.45-.95,5.09-.13.96.48,2.44,1.65,2.48,3.13.05,1.91-2.31,3.37-6.13,5.74-1.93,1.19-1.85.89-3.26,1.83-3.8,2.53-4.44,4.67-5.87,4.43-1.45-.24-2.42-2.69-2.48-4.57Z"/>
      <path class="cls-5" d="M28.1,5.75c1.87-.96,1.74-1.39,2.8-1.83,1.19-.48,1.63-.06,4.5.13,2.11.14,2.14-.07,5.22.07,3.17.14,3.9.4,4.23.98.35.6.31,1.56-.19,2.15-1.46,1.73-6.64-.02-7.37-.26-1-.33-2.08-.8-3.59-.65-.92.09-1.67.38-2.02.52-1.23.49-2,1.12-3.59,1.57-.32.09-.69.18-1.04,0-.49-.24-.78-.92-.65-1.43.14-.57.75-.75,1.7-1.24Z"/>
      <path class="cls-5" d="M60.84,70.21c-1.04.65-2.16.96-3.52,1.08-1.09.1-5.3.41-9.1-2.35-1-.73-2.84-2.06-2.54-3.33.19-.81,1.21-1.48,2.15-1.47,1.47.02,1.78,1.7,3.72,2.74.46.25.98.44,4.6.59,4.8.19,6.44-.05,6.65.59.25.76-1.77,2.04-1.96,2.15Z"/>
      <path class="cls-2" d="M60.25,125.36c-.23-.18-2.38,1.98-4.17,4.68-1.41,2.12-2.94,4.42-3.26,7.64-.39,3.86,1.16,7.09,1.37,7.04.18-.04-.71-2.47-.2-5.87.1-.68.4-2.27,2.52-6.52,2.28-4.57,3.97-6.81,3.74-6.98Z"/>
      <path class="cls-4" d="M161.15,38.16c-1.77,4.38-4.29,8.58-6.39,12.81-1.93,3.86-3.89,7.76-6.72,11.03-2.82,3.26-6.66,5.86-10.95,6.31-4.45.46-8.77-1.38-13.17-2.19-4.4-.81-9.75-.14-12.02,3.71-.84,1.43-1.13,3.1-1.68,4.67-1.13,3.19-3.35,5.87-5.19,8.72-6.51,10.08-9.81,27.2-4.38,38.49.98,2.03,2.33,3.89,3.1,6.01.99,2.7.97,5.64.93,8.52-.03,2.65-.09,5.41-1.26,7.8-.85,1.74-2.24,3.17-3.11,4.9-2.51,4.98-.61,11.6-.85,16.99-.18,3.86-.43,7.56-.17,11.45.19,2.81.48,5.81-1.37,8.41-.37.53-1.69,2.34-4.11,2.94-2.35.58-4.36-.34-5.42-.96,1.71-1.12,3.91-2.69,5.52-5.41,2.04-3.46,1.88-7.7,1.56-16.18-.21-5.79-.32-8.68-1.56-11.48-2.1-4.71-5.13-6.32-4.44-8.87.71-2.58,4.16-2.03,6.18-5.21,1.22-1.92,1.3-4.21,0-10.58-1.92-9.47-3.06-9.29-3.57-13.68-.78-6.8,2.07-6.37,3.13-19.05.17-1.98.46-6.35,1.39-12.26.27-1.76-1.13-3.54-.83-4.66s2.31-1.64,2.83-2.64c1.59-3.03,2.31-3.15,5.22-6.4,6.96-7.79.05-10.3,2.81-12.63,3.11-2.63,4.84,2.49,10.23,1.03.39-.11.39-.03,4.44,0,3.91.02,5.89.03,6.78,0,2.8-.11,5.37-.2,7.83-1.05,4.09-1.4,6.44-4.36,10.43-9.39,2.96-3.72,2.45-4.01,5.48-7.56,2.61-3.06,3.83-3.82,5.22-6.26,0,0,1.9-3.34,2.35-7.57.38-3.54-.95-7.1-2.84-10.29.04.03.08.06.13.1,2.13,1.72,3.28,2.66,4.18,4.17.29.49,1.08,1.93,1.3,6.78,0,3.72.38,6.05-1.01,9.48Z"/>
      <path class="cls-6" d="M86.47,56.42c.1-1.3.22-2.77.98-3.91.89-1.34,2.33-1.73,4.37-2.28,2-.54,3.98-1.08,5.02,0,.55.57.8,1.56.52,2.35-.24.68-.81,1.05-4.04,2.41-2.75,1.15-3.11,1.21-3.59,1.83-.95,1.24-1.34,2.87-1.34,2.87-.18.75-.2,1.35-.68,1.63-.4.24-1.05.21-1.37-.13-.4-.42-.09-1.08.07-2.67.11-1.11,0-1.12.07-2.09Z"/>
      <path class="cls-6" d="M119.12,6.03c.62-1.02.87-2.32,1.73-2.76.62-.32,1.27-.53,2.23-.54.75,0,1.51,0,2.26.07.65.05,1.42.09,1.98.46.09.06.18.13.29.17.13.05.28.06.42.06,1.97.05,3.96.22,5.89.58,1.35.25,2.85.44,4.04,1.18.42.27.78.62,1.05,1.05.51.83.78,2.09.24,2.78-.67.85-2.37.58-3.67.38-1.33-.21-1.34-.47-2.68-.66-1.52-.22-1.63.1-3.15-.09-1.57-.2-1.6-.55-3.06-.66-1.21-.09-2.23-.17-2.93.47-.4.36-.33.62-1.21,1.79-.37.49-.55.74-.8.94-.23.19-1.11.93-2.26.75-.23-.03-.84-.13-1.27-.61-.71-.8-.39-2.09-.14-3.06.25-1,.66-1.68,1.04-2.31Z"/>
    </g>
  </g>
</svg>