<?xml version="1.0" encoding="UTF-8"?>
<svg id="Capa_2" data-name="Capa 2" xmlns="http://www.w3.org/2000/svg" viewBox="0 0 90.44 248.76">
  <defs>
    <style>
      .cls-1 {
        fill: #898686;
      }

      .cls-2 {
        fill: #468fbf;
      }

      .cls-3 {
        fill: #a3a1a1;
      }

      .cls-4 {
        fill: #0078b1;
      }

      .cls-5 {
        fill: #6eaadd;
      }

      .cls-6 {
        fill: #c5c3c3;
      }

      .cls-7 {
        fill: #5c9dd1;
      }

      .cls-8 {
        fill: #6c6a6a;
      }

      .cls-9 {
        fill: #dbdbdb;
      }

      .cls-10 {
        fill: #86bde7;
      }

      .cls-11 {
        fill: #b0b0b0;
      }

      .cls-12 {
        fill: #9ed0f1;
      }
    </style>
  </defs>
  <g id="Capa_1-2" data-name="Capa 1">
    <g>
      <path class="cls-1" d="M36.24,232.02c-.01,1.47-.46,1.44-1.2,4.59-.93,3.91-.27,4.11-1.01,5.8-1.54,3.53-5.46,5.01-6.66,5.46-.99.37-3.01.99-5.53.86-2.71-.14-4.93-1.12-6.8-1.92-1.83-.8-1.54-.91-2.67-1.27-2.89-.94-4.43-.11-5.79-1.27-.82-.69-1.04-1.63-1.27-2.67-.25-1.08-.26-2.26-.01-3.41.19-1.01.57-1.99,1.14-2.86.98-1.46,1.81-1.57,2.26-3.07.3-.94.12-1.42.14-2.72.04-2.04.52-3.58.87-4.74.74-2.4,1.29-4.21,2.93-5.46,1.36-1.05,3.5-1.73,5.39-1.87,1.19-.08,2.17.05,2.93-.67.48-.44.45-.83.94-2.13.68-1.83,1.02-2.74,1.73-3.2,1.25-.82,3.19-.26,4.33.53.49.34.97.82,1.4,1.54.63,1.05.79,1.99.8,2.92.03,1.58-.38,3.11.33,5.01.65,1.74,1.21,1.04,3.2,4.13,1.32,2.06,2.53,3.95,2.53,6.4Z"/>
      <path class="cls-2" d="M84.63,239.94c-.23,1.04-.45,1.98-1.27,2.67-1.36,1.16-2.9.33-5.8,1.27-1.12.35-.83.46-2.66,1.27-1.87.82-4.09,1.78-6.8,1.92-2.52.14-4.54-.49-5.53-.86-1.2-.45-5.12-1.93-6.66-5.46-.35-.82-.4-1.28-.44-1.99-.04-.75-.1-1.78-.57-3.81-.74-3.13-1.19-3.12-1.2-4.59,0-2.45,1.21-4.35,2.53-6.4,1.99-3.08,2.55-2.38,3.2-4.13,1.13-3.04-.57-5.11,1.13-7.93.44-.72.91-1.2,1.4-1.54,1.14-.79,3.08-1.34,4.33-.53.71.46,1.05,1.38,1.73,3.2.49,1.31.46,1.69.94,2.14.76.72,1.74.57,2.93.65.98.07,2.03.29,3.01.63.9.31,1.73.74,2.38,1.24,1.63,1.27,2.19,3.07,2.93,5.48.35,1.14.83,2.68.87,4.73.01,1.31-.16,1.78.14,2.72.45,1.5,1.28,1.61,2.26,3.07,1.23,1.87,1.59,4.25,1.13,6.27Z"/>
      <path class="cls-8" d="M36.24,232.02c-.01,1.47-.46,1.44-1.2,4.59-.93,3.91-.27,4.11-1.01,5.8-1.54,3.53-5.46,5.01-6.66,5.46-.99.37-3.01.99-5.53.86-2.71-.14-4.93-1.12-6.8-1.92-1.83-.8-1.54-.91-2.67-1.27-2.89-.94-4.43-.11-5.79-1.27-.82-.69-1.04-1.63-1.27-2.67-.25-1.08-.26-2.26-.01-3.41.99.98,2.32,1.98,4.1,2.34,1.53.31,2.23-.07,3.64.61,1.96.95,1.88,2.29,3.47,3.56,2.32,1.85,6.04,1.8,8.71.63.53-.23,3.35-1.47,4.44-4.18.54-1.35.11-1.73.8-3.54.87-2.3,1.8-2.32,2.13-4.01.35-1.8-.38-3.42-.8-4.36-.71-1.58-1.2-1.51-2.13-3.37-.54-1.09-1.12-2.25-1.16-3.73-.03-1.28.37-1.83,1.16-4.09.2-.6.38-1.13.52-1.59.03,1.58-.38,3.11.33,5.01.65,1.74,1.21,1.04,3.2,4.13,1.32,2.06,2.53,3.95,2.53,6.4Z"/>
      <path class="cls-4" d="M84.63,239.94c-.23,1.04-.45,1.98-1.27,2.67-1.36,1.16-2.9.33-5.8,1.27-1.12.35-.83.46-2.66,1.27-1.87.82-4.09,1.78-6.8,1.92-2.52.14-4.54-.49-5.53-.86-1.2-.45-5.12-1.93-6.66-5.46-.35-.82-.4-1.28-.44-1.99,1.29.99,3.2,2.75,6.54,3.61,1.54.41,4.37,1.13,7.25,0,1.72-.67,2.03-1.44,4.09-1.93,2.19-.53,2.97.08,4.26-.72,1.19-.75,2.17-2.3,2-3.73-.19-1.54-1.54-1.65-1.87-3.35-.26-1.29.41-1.81.79-3.72.4-1.96.12-3.53-.12-4.93-.19-1.02-.75-3.61-2.53-6.25-.31-.46-.64-.9-.97-1.28.9.31,1.73.74,2.38,1.24,1.63,1.27,2.19,3.07,2.93,5.48.35,1.14.83,2.68.87,4.73.01,1.31-.16,1.78.14,2.72.45,1.5,1.28,1.61,2.26,3.07,1.23,1.87,1.59,4.25,1.13,6.27Z"/>
      <g>
        <rect class="cls-11" x="23.53" y="117.14" width="4.98" height="98.44" rx="1.83" ry="1.83"/>
        <path class="cls-9" d="M26.68,216.08h-1.32c-1.28,0-2.33-1.04-2.33-2.33v-94.79c0-1.28,1.04-2.33,2.33-2.33h1.32c1.28,0,2.33,1.04,2.33,2.33v94.79c0,1.28-1.04,2.33-2.33,2.33ZM25.36,117.64c-.73,0-1.33.59-1.33,1.33v94.79c0,.73.59,1.33,1.33,1.33h1.32c.73,0,1.33-.59,1.33-1.33v-94.79c0-.73-.59-1.33-1.33-1.33h-1.32Z"/>
      </g>
      <g>
        <path class="cls-11" d="M27.9,108.08c1.1-.8,3.06-.95,4.26,0,.97.76.41,1.41,1.78,3.91.66,1.21,1.07,1.57,1.34,2.67.17.69.39,1.61,0,2.49-.43.96-1.15.86-2.3,2.02-1.04,1.05-.87,1.55-1.73,2.53-1.11,1.27-2.52,1.73-3.35,2-2.33.76-4.01.17-7.77-.53-6.16-1.14-5.62-.29-8.2-1.2-1.43-.5-4.94-1.79-7.73-5.26-2.64-3.29-3.19-6.72-3.47-8.6-.23-1.57-.83-6.1,1.53-11.13.69-1.47,2.82-5.84,7.8-8.4,4.72-2.43,10.18-2.06,12.19-1.4,2.26.74,3.3-.8,4.2-1.53,1.53-1.24,4.1.03,5.2.87.28.22.88.73,1.47,1.47.37.46.32.49.67.93.84,1.05,1.23,1,1.72,1.73.41.62.5,1.23.62,2,.11.75.2,1.35,0,2.07-.26.94-.97,1.91-1.93,2.4-.56.28-.92.26-1.47.73-.25.22-.44.46-.8.93-.55.72-.57.86-.8,1.13-.75.9-1.92,1.11-2.73,1.27-.55.1-.79-.18-1.57-.33-1.2-.23-1.52-1.05-2-1.47-.6-.52-1.77-2.45-2.8-2.93-.93-.44-3.32-.27-4.75-.04-1.14.18-2.25,1.28-3.34,1.91-.37.21-2.82.3-3.95,1.73-.68.86-.15,2.63-.45,4-.53,2.38-.84,4.48-.08,5.93.52,1,2.06,1.67,2.35,2,2.49,2.88,5.83,3.26,6.57,3.33,2.83.26,4.91-.8,5.69-1.2.31-.16,1.35-.71,2.27-1.8.44-.52,1.03-1.25.87-2-.08-.33-.25-.41-.27-.73-.05-.75.81-1.36.98-1.49Z"/>
        <path class="cls-9" d="M25.7,124.54c-1.14,0-2.33-.24-3.89-.55-.54-.11-1.13-.23-1.78-.35-3.11-.58-4.51-.64-5.44-.68-.94-.04-1.51-.07-2.83-.54-1.24-.44-5.01-1.77-7.95-5.42-2.78-3.46-3.31-7.09-3.57-8.84-.6-4.08-.07-7.92,1.57-11.41,1.86-3.95,4.55-6.85,8.02-8.63,4.99-2.56,10.63-2.07,12.58-1.43,1.6.53,2.43-.25,3.23-1.01.17-.16.33-.31.49-.44,1.8-1.46,4.59-.08,5.82.86.19.15.87.69,1.55,1.55.2.25.29.39.37.52.07.11.14.22.29.41.39.5.67.71.93.92.27.22.53.42.81.85.47.71.58,1.4.69,2.2.12.78.22,1.45-.01,2.27-.32,1.15-1.16,2.19-2.19,2.71-.22.11-.41.18-.59.25-.29.1-.49.18-.77.42-.21.19-.38.4-.73.86-.3.39-.43.6-.53.76-.09.15-.16.25-.28.39-.86,1.04-2.16,1.28-3.02,1.44-.46.08-.79-.03-1.1-.14-.17-.06-.38-.14-.65-.19-1.05-.2-1.56-.8-1.92-1.24-.11-.13-.2-.25-.31-.34-.24-.21-.54-.58-.87-1.01-.53-.67-1.25-1.58-1.81-1.85-.72-.34-2.84-.26-4.46,0-.65.1-1.37.61-2.06,1.11-.37.27-.74.53-1.11.74-.16.09-.39.14-.77.22-.86.17-2.3.47-3.03,1.39-.29.36-.27,1.1-.25,1.88.02.64.03,1.3-.11,1.92-.55,2.46-.78,4.35-.12,5.59.29.56,1.04,1.04,1.59,1.39.32.21.55.35.69.51,2.21,2.54,5.1,3.06,6.24,3.16,2.68.25,4.67-.77,5.42-1.15.81-.41,1.54-.99,2.11-1.68.35-.42.88-1.05.76-1.57-.02-.08-.05-.14-.09-.21-.07-.13-.17-.31-.19-.6-.04-.66.38-1.34,1.18-1.92h0c1.21-.88,3.42-1.13,4.87.01.62.49.76.98.92,1.61.15.54.35,1.29.98,2.46.2.37.38.66.54.92.36.58.64,1.04.85,1.87.17.71.44,1.77-.03,2.81-.3.68-.74.95-1.2,1.24-.34.21-.73.46-1.19.93-.51.51-.69.86-.89,1.26-.18.35-.38.75-.82,1.25-1.2,1.37-2.69,1.86-3.58,2.15-.83.27-1.58.38-2.36.38ZM18.34,87.19c-2.35,0-5.32.43-8.05,1.83-3.26,1.68-5.81,4.42-7.57,8.16-1.56,3.31-2.06,6.96-1.49,10.84.24,1.66.75,5.11,3.36,8.36,2.76,3.43,6.21,4.65,7.51,5.11,1.19.42,1.64.44,2.55.48.95.04,2.39.11,5.57.7.65.12,1.25.24,1.79.35,2.54.51,3.94.79,5.74.2.79-.26,2.11-.69,3.13-1.85.35-.4.51-.71.68-1.04.22-.44.45-.89,1.07-1.51.55-.55,1.01-.84,1.37-1.07.42-.26.64-.4.82-.8.32-.73.13-1.52-.03-2.16-.17-.68-.39-1.04-.73-1.58-.17-.27-.35-.57-.57-.96-.7-1.27-.91-2.08-1.07-2.68-.15-.56-.21-.79-.58-1.08-1.03-.81-2.76-.64-3.66.01l-.29-.4.29.41c-.5.36-.79.76-.77,1.05,0,.06.02.09.07.18.06.11.14.25.19.47.23,1-.52,1.9-.97,2.43-.66.79-1.5,1.45-2.42,1.92-.82.42-2.99,1.52-5.96,1.25-1.26-.11-4.46-.69-6.9-3.5-.05-.06-.29-.21-.48-.33-.64-.41-1.52-.97-1.94-1.77-.8-1.52-.58-3.52.03-6.27.11-.5.1-1.1.08-1.68-.02-.96-.05-1.87.46-2.52.96-1.21,2.69-1.56,3.62-1.75.22-.05.4-.07.49-.11.32-.19.66-.43,1.01-.68.79-.56,1.6-1.14,2.49-1.28.37-.06,3.7-.55,5.04.09.77.37,1.51,1.3,2.17,2.13.29.37.57.72.74.87.15.13.28.29.42.46.33.39.64.76,1.34.9.34.07.59.15.81.23.28.1.39.13.58.1.76-.14,1.81-.34,2.44-1.09.09-.1.14-.18.21-.29.11-.17.26-.4.58-.82.35-.47.57-.75.87-1.01.42-.37.76-.49,1.09-.6.15-.05.3-.11.48-.2.77-.39,1.43-1.21,1.68-2.09.17-.62.09-1.14-.01-1.86-.11-.74-.19-1.27-.54-1.8-.19-.29-.35-.42-.6-.61-.28-.22-.63-.5-1.09-1.08-.19-.24-.27-.37-.35-.5-.07-.11-.14-.22-.31-.44-.63-.79-1.26-1.29-1.38-1.38-1.13-.86-3.37-1.86-4.58-.88-.14.11-.29.25-.44.39-.82.77-2.07,1.94-4.23,1.23-.73-.24-2.09-.46-3.76-.46Z"/>
      </g>
      <g>
        <path class="cls-11" d="M29.28,66.85c1.1-.8,3.06-.95,4.26,0,.97.76.41,1.41,1.78,3.91.66,1.21,1.07,1.57,1.34,2.67.17.69.39,1.61,0,2.49-.43.96-1.15.86-2.3,2.02-1.04,1.05-.87,1.55-1.73,2.53-1.11,1.27-.93,4.09-4.06,4.38-2.44.22-3.3-2.21-7.07-2.91-6.16-1.14-5.62-.29-8.2-1.2-1.43-.5-4.94-1.79-7.73-5.26-2.64-3.29-3.19-6.72-3.47-8.6-.23-1.57-.83-6.1,1.53-11.13.69-1.47,2.82-5.84,7.8-8.4,4.72-2.43,10.18-2.06,12.19-1.4,2.26.74,3.3-.8,4.2-1.53,1.53-1.24,4.1.03,5.2.87.28.22.88.73,1.47,1.47.37.46.32.49.67.93.84,1.05,1.23,1,1.72,1.73.41.62.5,1.23.62,2,.11.75.2,1.35,0,2.07-.26.94-.97,1.91-1.93,2.4-.56.28-.92.26-1.47.73-.25.22-.44.46-.8.93-.55.72-.57.86-.8,1.13-.75.9-1.92,1.11-2.73,1.27-.55.1-.79-.18-1.57-.33-1.2-.23-1.52-1.05-2-1.47-.6-.52-1.77-2.45-2.8-2.93-.93-.44-3.32-.27-4.75-.04-1.14.18-2.25,1.28-3.34,1.91-.37.21-2.82.3-3.95,1.73-.68.86-.15,2.63-.45,4-.53,2.38-.84,4.48-.08,5.93.52,1,2.06,1.67,2.35,2,2.49,2.88,5.83,3.26,6.57,3.33,2.83.26,4.91-.8,5.69-1.2.31-.16,1.35-.71,2.27-1.8.44-.52,1.03-1.25.87-2-.08-.33-.25-.41-.27-.73-.05-.75.81-1.36.98-1.49Z"/>
        <path class="cls-9" d="M28.27,85.36c-1.22,0-2.1-.59-3.02-1.22-.96-.65-2.06-1.39-3.83-1.71-3.11-.58-4.51-.64-5.44-.68-.94-.04-1.51-.07-2.83-.54-1.24-.44-5.01-1.77-7.95-5.42-2.78-3.46-3.31-7.09-3.57-8.84-.6-4.08-.07-7.92,1.57-11.41,1.86-3.95,4.56-6.85,8.02-8.63,4.99-2.56,10.63-2.07,12.58-1.43,1.6.53,2.43-.25,3.23-1.01.17-.16.33-.31.49-.44,1.8-1.46,4.59-.08,5.82.86.19.15.87.69,1.55,1.55.2.25.29.39.37.52.07.11.14.22.29.41.39.5.67.71.93.92.27.22.53.42.81.85.47.72.57,1.4.69,2.2.12.78.22,1.45-.01,2.27-.32,1.15-1.16,2.19-2.19,2.71-.22.11-.41.18-.59.25-.28.1-.49.18-.77.42-.21.19-.38.4-.73.86-.3.39-.43.6-.53.76-.09.15-.16.25-.28.39-.86,1.03-2.16,1.28-3.02,1.44-.46.09-.79-.03-1.1-.14-.17-.06-.38-.14-.66-.19-1.05-.2-1.56-.8-1.92-1.24-.11-.13-.2-.25-.31-.34-.24-.21-.54-.58-.87-1.01-.53-.67-1.25-1.58-1.81-1.85-.72-.34-2.84-.26-4.46,0-.65.1-1.37.61-2.06,1.11-.37.27-.74.53-1.11.74-.16.09-.39.14-.77.22-.86.17-2.3.47-3.03,1.39-.29.36-.27,1.1-.25,1.88.02.64.03,1.3-.11,1.92-.55,2.46-.78,4.35-.13,5.59.29.56,1.04,1.04,1.59,1.39.32.21.56.35.69.52,2.2,2.54,5.1,3.06,6.24,3.16,2.68.25,4.67-.77,5.42-1.15.81-.41,1.54-.99,2.11-1.68.35-.42.88-1.05.76-1.57-.02-.08-.05-.13-.09-.21-.07-.13-.17-.31-.19-.6-.04-.66.38-1.34,1.18-1.92h0c1.22-.88,3.42-1.13,4.87.01.62.49.76.98.92,1.61.15.54.34,1.29.98,2.46.2.37.38.66.54.92.36.58.64,1.04.85,1.87.18.75.44,1.77-.03,2.81-.3.68-.74.95-1.2,1.24-.34.21-.73.46-1.19.93-.51.51-.69.86-.89,1.26-.18.35-.38.75-.82,1.25-.29.33-.49.82-.7,1.35-.54,1.32-1.22,2.97-3.69,3.19-.12.01-.24.02-.35.02ZM19.72,45.97c-2.35,0-5.32.43-8.05,1.83-3.27,1.68-5.81,4.42-7.57,8.16-1.56,3.31-2.06,6.96-1.49,10.84.24,1.66.75,5.11,3.36,8.35,2.76,3.43,6.21,4.65,7.51,5.11,1.19.42,1.64.44,2.55.48.95.04,2.39.11,5.58.7,1.98.37,3.21,1.2,4.2,1.87.97.66,1.67,1.13,2.73,1.04,1.87-.17,2.35-1.34,2.85-2.58.25-.61.48-1.18.88-1.63.35-.4.51-.71.68-1.04.22-.44.46-.89,1.07-1.51.55-.55,1.01-.84,1.37-1.07.42-.26.64-.4.82-.8.32-.72.13-1.52-.03-2.16-.17-.68-.39-1.04-.73-1.58-.17-.27-.35-.57-.57-.96-.7-1.27-.91-2.08-1.07-2.68-.15-.56-.21-.79-.58-1.08-1.03-.81-2.76-.64-3.66.01l-.29-.4.29.4c-.5.36-.79.76-.77,1.05,0,.06.02.09.07.18.06.11.14.25.19.47.23,1-.52,1.9-.97,2.43-.66.79-1.5,1.45-2.42,1.92-.82.42-2.99,1.52-5.96,1.25-1.26-.12-4.46-.69-6.9-3.5-.05-.06-.29-.21-.48-.33-.64-.41-1.52-.97-1.93-1.77-.8-1.52-.58-3.53.04-6.27.11-.5.1-1.1.08-1.68-.02-.96-.05-1.87.46-2.52.96-1.21,2.69-1.56,3.61-1.75.22-.05.4-.07.49-.11.32-.19.67-.43,1.01-.68.78-.56,1.6-1.14,2.48-1.28,1.36-.21,3.95-.43,5.04.09.77.37,1.51,1.3,2.17,2.13.29.37.57.72.74.87.15.13.28.29.42.46.33.39.64.76,1.34.9.34.07.59.15.81.23.28.1.39.13.58.1.76-.14,1.81-.34,2.44-1.09.09-.1.14-.18.21-.29.11-.17.26-.4.58-.82.35-.46.57-.75.87-1.01.42-.37.76-.49,1.09-.6.15-.05.3-.11.48-.2.77-.39,1.43-1.21,1.68-2.09.17-.62.09-1.14-.01-1.86-.11-.74-.19-1.27-.54-1.8-.19-.29-.35-.42-.6-.61-.28-.22-.63-.5-1.09-1.08-.19-.24-.27-.36-.35-.49-.07-.11-.14-.22-.31-.44-.63-.8-1.26-1.29-1.38-1.38-1.13-.86-3.37-1.86-4.58-.88-.14.11-.29.25-.44.39-.82.77-2.07,1.94-4.23,1.23-.73-.24-2.09-.46-3.76-.46Z"/>
      </g>
      <g>
        <path class="cls-11" d="M29.28,25.62c1.1-.8,3.06-.95,4.26,0,.97.76.41,1.41,1.78,3.91.66,1.21,1.07,1.57,1.34,2.67.17.69.39,1.61,0,2.49-.43.96-1.15.86-2.3,2.02-1.04,1.05-.87,1.55-1.73,2.53-1.11,1.27-.93,4.09-4.06,4.38-2.44.22-3.3-2.21-7.07-2.91-6.16-1.14-5.62-.29-8.2-1.2-1.43-.5-4.94-1.79-7.73-5.26-2.64-3.29-3.19-6.72-3.47-8.6-.23-1.57-.83-6.1,1.53-11.13.69-1.47,2.82-5.84,7.8-8.4,4.72-2.43,10.18-2.06,12.19-1.4,2.26.74,3.3-.8,4.2-1.53,1.53-1.24,4.1.03,5.2.87.28.22.88.73,1.47,1.47.37.46.32.49.67.93.84,1.05,1.23,1,1.72,1.73.41.62.5,1.23.62,2,.11.75.2,1.35,0,2.07-.26.94-.97,1.91-1.93,2.4-.56.28-.92.26-1.47.73-.25.22-.44.46-.8.93-.55.72-.57.86-.8,1.13-.75.9-1.92,1.11-2.73,1.27-.55.1-.79-.18-1.57-.33-1.2-.23-1.52-1.05-2-1.47-.6-.52-1.77-2.45-2.8-2.93-.93-.44-3.32-.27-4.75-.04-1.14.18-2.25,1.28-3.34,1.91-.37.21-2.82.3-3.95,1.73-.68.86-.15,2.63-.45,4-.53,2.38-.84,4.48-.08,5.93.52,1,2.06,1.67,2.35,2,2.49,2.88,5.83,3.26,6.57,3.33,2.83.26,4.91-.8,5.69-1.2.31-.16,1.35-.71,2.27-1.8.44-.52,1.03-1.25.87-2-.08-.33-.25-.41-.27-.73-.05-.75.81-1.36.98-1.49Z"/>
        <path class="cls-9" d="M28.27,44.13c-1.22,0-2.1-.59-3.02-1.22-.96-.65-2.06-1.39-3.83-1.71-3.11-.58-4.51-.64-5.44-.68-.94-.04-1.51-.07-2.83-.54-1.24-.44-5.01-1.77-7.95-5.42-2.78-3.46-3.31-7.09-3.57-8.84-.6-4.08-.07-7.92,1.57-11.41,1.86-3.95,4.56-6.85,8.02-8.63,4.99-2.56,10.63-2.07,12.58-1.43,1.6.53,2.43-.25,3.24-1.01.17-.16.33-.31.49-.44,1.67-1.35,4.39-.23,5.82.86.19.14.86.68,1.55,1.55.2.25.29.39.37.52.07.11.14.22.29.41.39.5.67.71.93.92.27.22.53.42.81.85.47.72.57,1.4.69,2.2.12.78.22,1.45-.01,2.27-.32,1.15-1.16,2.19-2.19,2.71-.22.11-.41.18-.6.25-.28.1-.49.18-.77.42-.21.18-.38.4-.73.86-.3.39-.43.6-.53.76-.09.15-.16.25-.28.39-.86,1.03-2.16,1.28-3.02,1.44-.46.08-.79-.03-1.1-.14-.17-.06-.38-.14-.66-.19-1.05-.2-1.56-.8-1.92-1.24-.11-.13-.2-.25-.31-.34-.24-.21-.54-.58-.87-1.01-.53-.67-1.25-1.58-1.81-1.85-.72-.34-2.84-.26-4.46,0-.65.1-1.37.61-2.06,1.11-.37.27-.74.53-1.11.74-.16.09-.39.14-.77.22-.86.17-2.3.47-3.03,1.39-.29.36-.27,1.1-.25,1.88.02.64.03,1.3-.11,1.92-.55,2.46-.78,4.35-.13,5.59.29.56,1.04,1.04,1.59,1.39.32.21.56.35.69.52,2.21,2.54,5.1,3.06,6.24,3.16,2.68.24,4.67-.77,5.42-1.15.79-.4,1.54-1,2.11-1.67.35-.42.88-1.05.76-1.57-.02-.08-.05-.14-.09-.21-.07-.13-.17-.31-.19-.6-.04-.66.38-1.34,1.18-1.92,1.21-.88,3.42-1.12,4.87.01.62.49.76.98.92,1.61.15.54.34,1.29.98,2.46.2.37.38.66.54.92.36.58.64,1.04.85,1.87.18.75.44,1.77-.03,2.81-.3.68-.74.95-1.2,1.24-.34.21-.73.46-1.19.93-.51.51-.69.86-.89,1.26-.18.35-.38.75-.82,1.25-.29.33-.49.82-.7,1.35-.54,1.32-1.22,2.97-3.69,3.19-.12.01-.24.02-.35.02ZM19.72,4.74c-2.35,0-5.32.43-8.05,1.83-3.26,1.68-5.81,4.42-7.57,8.16-1.56,3.31-2.06,6.96-1.49,10.84.24,1.66.75,5.11,3.36,8.36,2.76,3.43,6.21,4.65,7.51,5.11,1.19.42,1.64.44,2.55.48.95.04,2.39.11,5.57.7,1.97.37,3.21,1.2,4.2,1.87.97.66,1.68,1.14,2.73,1.04,1.87-.17,2.35-1.34,2.85-2.58.25-.61.48-1.18.88-1.63.35-.4.51-.71.68-1.04.22-.44.45-.89,1.07-1.51.55-.55,1.01-.84,1.37-1.07.42-.26.64-.4.82-.8.32-.72.13-1.52-.03-2.16-.17-.68-.39-1.04-.73-1.58-.17-.27-.35-.57-.57-.96-.7-1.27-.91-2.08-1.07-2.68-.15-.56-.21-.79-.58-1.08-1.03-.81-2.76-.64-3.66.01h0c-.5.36-.79.76-.77,1.05,0,.06.02.09.07.18.06.11.14.25.19.47.23,1-.52,1.9-.97,2.43-.83,1-1.78,1.6-2.42,1.92-.82.42-2.99,1.52-5.96,1.25-1.26-.12-4.46-.69-6.9-3.5-.05-.06-.29-.21-.48-.33-.64-.41-1.52-.97-1.93-1.77-.8-1.52-.58-3.53.04-6.27.11-.5.1-1.1.08-1.68-.02-.96-.05-1.87.46-2.52.96-1.21,2.69-1.56,3.62-1.75.22-.05.4-.07.49-.11.32-.19.66-.43,1.01-.68.79-.56,1.6-1.14,2.49-1.28,1.36-.21,3.95-.43,5.04.09.77.36,1.51,1.3,2.17,2.13.29.37.57.72.74.87.15.13.28.29.42.46.33.39.64.76,1.34.9.34.07.59.15.81.23.28.1.39.14.58.1.76-.14,1.81-.34,2.44-1.09.09-.1.14-.18.21-.29.11-.17.26-.4.58-.82.36-.47.57-.75.87-1.01.42-.37.76-.49,1.09-.6.15-.05.3-.11.48-.2.77-.39,1.43-1.21,1.68-2.09.17-.62.09-1.14-.01-1.86-.11-.74-.19-1.27-.54-1.8-.19-.29-.35-.42-.6-.61-.28-.22-.63-.5-1.09-1.08-.19-.24-.27-.36-.35-.49-.07-.11-.14-.23-.31-.44-.63-.8-1.26-1.29-1.38-1.38-1.13-.86-3.37-1.86-4.58-.88-.14.11-.29.25-.44.39-.82.77-2.07,1.94-4.23,1.23-.73-.24-2.09-.46-3.76-.46Z"/>
      </g>
      <g>
        <rect class="cls-5" x="61.44" y="115.46" width="4.98" height="98.44" rx="1.83" ry="1.83" transform="translate(127.85 329.37) rotate(180)"/>
        <path class="cls-12" d="M64.59,115.46c1,0,1.83.82,1.83,1.83v94.79c0,1-.82,1.83-1.83,1.83h-1.32c-1,0-1.83-.82-1.83-1.83v-94.79c0-1,.82-1.83,1.83-1.83h1.32M64.59,114.46h-1.32c-1.56,0-2.83,1.27-2.83,2.83v94.79c0,1.56,1.27,2.83,2.83,2.83h1.32c1.56,0,2.83-1.27,2.83-2.83v-94.79c0-1.56-1.27-2.83-2.83-2.83h0Z"/>
      </g>
      <g>
        <path class="cls-5" d="M62.04,106.4c-1.1-.8-3.06-.95-4.26,0-.97.76-.41,1.41-1.78,3.91-.66,1.21-1.07,1.57-1.34,2.67-.17.69-.39,1.61,0,2.49.43.96,1.15.86,2.3,2.02,1.04,1.05.87,1.55,1.73,2.53,1.11,1.27,2.52,1.73,3.35,2,2.33.76,4.01.17,7.77-.53,6.16-1.14,5.62-.29,8.2-1.2,1.43-.5,4.94-1.79,7.73-5.26,2.64-3.29,3.19-6.72,3.47-8.6.23-1.57.83-6.1-1.53-11.13-.69-1.47-2.82-5.84-7.8-8.4-4.72-2.43-10.18-2.06-12.19-1.4-2.26.74-3.3-.8-4.2-1.53-1.53-1.24-4.1.03-5.2.87-.28.22-.88.73-1.47,1.47-.37.46-.32.49-.67.93-.84,1.05-1.23,1-1.72,1.73-.41.62-.5,1.23-.62,2-.11.75-.2,1.35,0,2.07.26.94.97,1.91,1.93,2.4.56.28.92.26,1.47.73.25.22.44.46.8.93.55.72.57.86.8,1.13.75.9,1.92,1.11,2.73,1.27.55.1.79-.18,1.57-.33,1.2-.23,1.52-1.05,2-1.47.6-.52,1.77-2.45,2.8-2.93.93-.44,3.32-.27,4.75-.04,1.14.18,2.25,1.28,3.34,1.91.37.21,2.82.3,3.95,1.73.68.86.15,2.63.45,4,.53,2.38.84,4.48.08,5.93-.52,1-2.06,1.67-2.35,2-2.49,2.88-5.83,3.26-6.57,3.33-2.83.26-4.91-.8-5.69-1.2-.31-.16-1.35-.71-2.27-1.8-.44-.52-1.03-1.25-.87-2,.08-.33.25-.41.27-.73.05-.75-.81-1.36-.98-1.49Z"/>
        <path class="cls-12" d="M61.9,83.45c.58,0,1.13.15,1.59.52.73.6,1.56,1.73,3.06,1.73.34,0,.72-.06,1.14-.2.83-.27,2.23-.49,3.92-.49,2.44,0,5.48.46,8.27,1.89,4.98,2.55,7.1,6.92,7.8,8.4,2.36,5.03,1.76,9.56,1.53,11.13-.27,1.87-.82,5.31-3.47,8.6-2.79,3.47-6.3,4.76-7.73,5.26-2.57.91-2.04.06-8.2,1.2-2.52.47-4.1.89-5.57.89-.73,0-1.43-.1-2.2-.35-.83-.27-2.24-.73-3.35-2-.86-.98-.69-1.49-1.73-2.53-1.15-1.16-1.86-1.06-2.3-2.02-.39-.88-.17-1.8,0-2.49.27-1.1.68-1.45,1.34-2.67,1.36-2.5.81-3.15,1.78-3.91.58-.45,1.33-.65,2.07-.65.81,0,1.62.24,2.19.65.17.12,1.02.74.98,1.49-.02.32-.19.4-.27.73-.17.75.43,1.48.87,2,.91,1.09,1.95,1.64,2.27,1.8.7.36,2.44,1.24,4.82,1.24.28,0,.58-.01.88-.04.74-.07,4.07-.46,6.57-3.33.29-.33,1.82-1,2.35-2,.76-1.45.45-3.55-.08-5.93-.31-1.37.22-3.14-.45-4-1.13-1.43-3.58-1.52-3.95-1.73-1.09-.63-2.2-1.73-3.34-1.91-.78-.12-1.85-.23-2.81-.23-.8,0-1.52.07-1.94.27-1.03.48-2.2,2.41-2.8,2.93-.48.42-.8,1.24-2,1.47-.67.13-.94.35-1.35.35-.07,0-.14,0-.22-.02-.82-.15-1.99-.37-2.73-1.27-.23-.28-.25-.41-.8-1.13-.36-.47-.55-.71-.8-.93-.54-.47-.91-.45-1.47-.73-.96-.49-1.67-1.46-1.93-2.4-.2-.72-.11-1.32,0-2.07.12-.77.21-1.38.62-2,.48-.73.88-.68,1.72-1.73.35-.44.3-.47.67-.93.58-.73,1.18-1.25,1.47-1.47.77-.58,2.26-1.38,3.61-1.38M61.9,82.45c-1.58,0-3.26.86-4.22,1.59-.2.15-.92.73-1.64,1.64-.22.27-.32.43-.4.56-.06.1-.12.19-.26.37-.36.45-.6.64-.85.84-.28.22-.59.47-.92.96-.53.81-.65,1.58-.77,2.4-.12.8-.23,1.56.03,2.48.36,1.28,1.29,2.44,2.44,3.02.25.13.47.21.65.27.27.1.4.14.61.33.18.15.32.34.66.78.28.37.41.57.51.72.09.14.18.27.32.44.98,1.17,2.44,1.45,3.32,1.61.14.03.27.04.41.04.39,0,.69-.11.95-.2.18-.06.35-.12.58-.17,1.23-.23,1.82-.94,2.21-1.41.1-.12.19-.23.26-.29.28-.24.57-.61.94-1.08.47-.59,1.18-1.49,1.63-1.71.06-.03.43-.18,1.51-.18.79,0,1.79.08,2.66.22.54.08,1.2.56,1.84,1.02.37.27.75.54,1.15.77.23.14.49.19.93.28.79.16,2.12.43,2.74,1.21.18.22.16.96.14,1.55-.02.64-.03,1.36.12,2.04.52,2.35.75,4.14.17,5.25-.23.44-.94.9-1.41,1.2-.36.23-.62.39-.8.61-2.09,2.4-4.82,2.89-5.9,2.99-.26.02-.52.04-.78.04-2.14,0-3.7-.79-4.36-1.13-.74-.37-1.43-.92-1.95-1.55-.22-.26-.72-.86-.66-1.14,0-.01,0-.02.04-.08.08-.15.22-.41.25-.8.05-.84-.44-1.67-1.39-2.36-.74-.54-1.75-.84-2.78-.84s-1.98.31-2.69.87c-.76.59-.92,1.21-1.1,1.87-.15.55-.33,1.23-.94,2.35-.2.36-.37.65-.53.89-.37.59-.68,1.11-.91,2.01-.19.77-.48,1.94.06,3.14.36.81.91,1.16,1.39,1.46.33.21.68.43,1.11.86.45.46.61.76.8,1.14.19.38.41.81.89,1.35,1.29,1.48,2.92,2.01,3.8,2.29.85.27,1.64.4,2.51.4,1.19,0,2.42-.25,3.99-.56.54-.11,1.12-.22,1.77-.34,3.08-.57,4.46-.63,5.37-.68.95-.04,1.58-.07,2.98-.56,1.27-.45,5.15-1.81,8.18-5.58,2.87-3.57,3.41-7.29,3.68-9.08.61-4.18.07-8.12-1.62-11.7-1.9-4.05-4.68-7.03-8.24-8.86-3.22-1.65-6.53-2-8.73-2-1.64,0-3.18.2-4.23.54-.3.1-.57.15-.83.15-.8,0-1.34-.51-1.91-1.04-.18-.17-.35-.33-.52-.46-.61-.49-1.35-.74-2.22-.74h0Z"/>
      </g>
      <g>
        <path class="cls-5" d="M60.66,65.18c-1.1-.8-3.06-.95-4.26,0-.97.76-.41,1.41-1.78,3.91-.66,1.21-1.07,1.57-1.34,2.67-.17.69-.39,1.61,0,2.49.43.96,1.15.86,2.3,2.02,1.04,1.05.87,1.55,1.73,2.53,1.11,1.27.93,4.09,4.06,4.38,2.44.22,3.3-2.21,7.07-2.91,6.16-1.14,5.62-.29,8.2-1.2,1.43-.5,4.94-1.79,7.73-5.26,2.64-3.29,3.19-6.72,3.47-8.6.23-1.57.83-6.1-1.53-11.13-.69-1.47-2.82-5.84-7.8-8.4-4.72-2.43-10.18-2.06-12.19-1.4-2.26.74-3.3-.8-4.2-1.53-1.53-1.24-4.1.03-5.2.87-.28.22-.88.73-1.47,1.47-.37.46-.32.49-.67.93-.84,1.05-1.23,1-1.72,1.73-.41.62-.5,1.23-.62,2-.11.75-.2,1.35,0,2.07.26.94.97,1.91,1.93,2.4.56.28.92.26,1.47.73.25.22.44.46.8.93.55.72.57.86.8,1.13.75.9,1.92,1.11,2.73,1.27.55.1.79-.18,1.57-.33,1.2-.23,1.52-1.05,2-1.47.6-.52,1.77-2.45,2.8-2.93.93-.44,3.32-.27,4.75-.04,1.14.18,2.25,1.28,3.34,1.91.37.21,2.82.3,3.95,1.73.68.86.15,2.63.45,4,.53,2.38.84,4.48.08,5.93-.52,1-2.06,1.67-2.35,2-2.49,2.88-5.83,3.26-6.57,3.33-2.83.26-4.91-.8-5.69-1.2-.31-.16-1.35-.71-2.27-1.8-.44-.52-1.03-1.25-.87-2,.08-.33.25-.41.27-.73.05-.75-.81-1.36-.98-1.49Z"/>
        <path class="cls-12" d="M60.52,42.23c.58,0,1.13.15,1.59.52.73.6,1.56,1.73,3.06,1.73.34,0,.72-.06,1.14-.2.83-.27,2.23-.49,3.92-.49,2.44,0,5.48.46,8.27,1.89,4.98,2.55,7.1,6.92,7.8,8.4,2.36,5.03,1.76,9.56,1.53,11.13-.27,1.87-.82,5.31-3.47,8.6-2.79,3.47-6.3,4.76-7.73,5.26-2.57.91-2.04.06-8.2,1.2-3.6.67-4.54,2.92-6.76,2.92-.1,0-.2,0-.31-.01-3.13-.28-2.95-3.1-4.06-4.38-.86-.98-.69-1.49-1.73-2.53-1.15-1.16-1.86-1.06-2.3-2.02-.39-.88-.17-1.8,0-2.49.27-1.1.68-1.45,1.34-2.67,1.36-2.5.81-3.15,1.78-3.91.58-.45,1.33-.65,2.07-.65.81,0,1.62.24,2.19.65.17.12,1.02.74.98,1.49-.02.32-.19.4-.27.73-.17.75.43,1.48.87,2,.91,1.09,1.95,1.64,2.27,1.8.7.36,2.44,1.24,4.82,1.24.28,0,.58-.01.88-.04.74-.07,4.07-.46,6.57-3.33.29-.33,1.82-1,2.35-2,.76-1.45.45-3.55-.08-5.93-.31-1.37.22-3.14-.45-4-1.13-1.43-3.58-1.52-3.95-1.73-1.09-.63-2.2-1.73-3.34-1.91-.78-.12-1.85-.23-2.81-.23-.8,0-1.52.07-1.94.27-1.03.48-2.2,2.41-2.8,2.93-.48.42-.8,1.24-2,1.47-.67.13-.94.35-1.35.35-.07,0-.14,0-.22-.02-.82-.15-1.99-.37-2.73-1.27-.23-.28-.25-.41-.8-1.13-.36-.47-.55-.71-.8-.93-.54-.47-.91-.45-1.47-.73-.96-.49-1.67-1.46-1.93-2.4-.2-.72-.11-1.32,0-2.07.12-.77.21-1.38.62-2,.48-.73.88-.68,1.72-1.73.35-.44.3-.47.67-.93.58-.73,1.18-1.25,1.47-1.47.77-.58,2.26-1.38,3.61-1.38M60.52,41.23v1s0-1,0-1c-1.58,0-3.26.86-4.22,1.59-.2.15-.92.73-1.64,1.64-.22.27-.32.43-.4.56-.06.1-.12.19-.26.37-.36.45-.6.64-.85.84-.28.22-.59.47-.92.96-.53.81-.65,1.58-.77,2.4-.12.8-.23,1.56.03,2.48.36,1.28,1.29,2.44,2.44,3.02.25.13.47.21.65.27.27.1.4.14.61.33.17.15.32.34.66.78.28.37.41.57.51.72.09.14.18.27.32.44.98,1.17,2.44,1.45,3.32,1.61.14.03.27.04.41.04.39,0,.69-.11.95-.2.18-.06.35-.12.58-.17,1.23-.23,1.82-.94,2.21-1.41.1-.12.19-.23.26-.29.28-.24.57-.61.94-1.08.47-.59,1.18-1.49,1.63-1.71.06-.03.43-.18,1.51-.18.79,0,1.79.08,2.66.22.54.08,1.2.56,1.84,1.02.37.27.75.54,1.15.77.23.14.49.19.93.28.79.16,2.12.43,2.74,1.21.18.22.16.96.14,1.55-.02.64-.03,1.36.12,2.04.52,2.35.75,4.14.17,5.25-.23.44-.94.9-1.41,1.2-.36.23-.62.39-.8.61-2.09,2.4-4.82,2.89-5.9,2.99-.26.02-.52.04-.78.04-2.14,0-3.7-.79-4.36-1.13-.74-.37-1.43-.92-1.95-1.55-.22-.26-.72-.86-.66-1.14,0-.01,0-.02.04-.08.08-.15.22-.41.25-.8.05-.84-.44-1.67-1.39-2.36-.74-.54-1.75-.84-2.78-.84s-1.98.31-2.69.87c-.76.59-.92,1.21-1.1,1.87-.15.55-.33,1.23-.94,2.35-.2.36-.37.65-.53.89-.37.59-.68,1.11-.91,2.01-.19.77-.48,1.94.06,3.14.36.81.91,1.16,1.39,1.46.33.21.68.43,1.11.86.45.46.61.76.8,1.14.19.38.41.8.89,1.35.23.26.42.72.62,1.21.53,1.3,1.33,3.25,4.11,3.5.14.01.27.02.4.02,1.37,0,2.35-.66,3.3-1.3.97-.65,1.97-1.33,3.64-1.64,3.08-.57,4.46-.63,5.37-.68.95-.04,1.58-.07,2.98-.56,1.27-.45,5.15-1.81,8.18-5.58,2.87-3.57,3.41-7.29,3.68-9.08.61-4.18.07-8.12-1.62-11.7-1.9-4.05-4.68-7.03-8.24-8.86-3.22-1.65-6.53-2-8.73-2-1.64,0-3.18.2-4.23.54-.3.1-.57.15-.83.15-.8,0-1.34-.51-1.91-1.04-.18-.17-.35-.33-.52-.46-.61-.49-1.35-.74-2.22-.74h0Z"/>
      </g>
      <g>
        <path class="cls-5" d="M60.66,23.95c-1.1-.8-3.06-.95-4.26,0-.97.76-.41,1.41-1.78,3.91-.66,1.21-1.07,1.57-1.34,2.67-.17.69-.39,1.61,0,2.49.43.96,1.15.86,2.3,2.02,1.04,1.05.87,1.55,1.73,2.53,1.11,1.27.93,4.09,4.06,4.38,2.44.22,3.3-2.21,7.07-2.91,6.16-1.14,5.62-.29,8.2-1.2,1.43-.5,4.94-1.79,7.73-5.26,2.64-3.29,3.19-6.72,3.47-8.6.23-1.57.83-6.1-1.53-11.13-.69-1.47-2.82-5.84-7.8-8.4-4.72-2.43-10.18-2.06-12.19-1.4-2.26.74-3.3-.8-4.2-1.53-1.53-1.24-4.1.03-5.2.87-.28.22-.88.73-1.47,1.47-.37.46-.32.49-.67.93-.84,1.05-1.23,1-1.72,1.73-.41.62-.5,1.23-.62,2-.11.75-.2,1.35,0,2.07.26.94.97,1.91,1.93,2.4.56.28.92.26,1.47.73.25.22.44.46.8.93.55.72.57.86.8,1.13.75.9,1.92,1.11,2.73,1.27.55.1.79-.18,1.57-.33,1.2-.23,1.52-1.05,2-1.47.6-.52,1.77-2.45,2.8-2.93.93-.44,3.32-.27,4.75-.04,1.14.18,2.25,1.28,3.34,1.91.37.21,2.82.3,3.95,1.73.68.86.15,2.63.45,4,.53,2.38.84,4.48.08,5.93-.52,1-2.06,1.67-2.35,2-2.49,2.88-5.83,3.26-6.57,3.33-2.83.26-4.91-.8-5.69-1.2-.31-.16-1.35-.71-2.27-1.8-.44-.52-1.03-1.25-.87-2,.08-.33.25-.41.27-.73.05-.75-.81-1.36-.98-1.49Z"/>
        <path class="cls-12" d="M60.52,1c.58,0,1.13.15,1.59.52.73.6,1.56,1.73,3.06,1.73.34,0,.72-.06,1.14-.2.83-.27,2.23-.49,3.92-.49,2.44,0,5.48.46,8.27,1.89,4.98,2.55,7.1,6.92,7.8,8.4,2.36,5.03,1.76,9.56,1.53,11.13-.27,1.87-.82,5.31-3.47,8.6-2.79,3.47-6.3,4.76-7.73,5.26-2.57.91-2.04.06-8.2,1.2-3.6.67-4.54,2.92-6.76,2.92-.1,0-.2,0-.31-.01-3.13-.28-2.95-3.1-4.06-4.38-.86-.98-.69-1.49-1.73-2.53-1.15-1.16-1.86-1.06-2.3-2.02-.39-.88-.17-1.8,0-2.49.27-1.1.68-1.45,1.34-2.67,1.36-2.5.81-3.15,1.78-3.91.58-.45,1.33-.65,2.07-.65.81,0,1.62.24,2.19.65.17.12,1.02.74.98,1.49-.02.32-.19.4-.27.73-.17.75.43,1.48.87,2,.91,1.09,1.95,1.64,2.27,1.8.7.36,2.44,1.24,4.82,1.24.28,0,.57-.01.88-.04.74-.07,4.07-.46,6.57-3.33.29-.33,1.82-1,2.35-2,.76-1.45.45-3.55-.08-5.93-.31-1.37.22-3.14-.45-4-1.13-1.43-3.58-1.52-3.95-1.73-1.09-.63-2.2-1.73-3.34-1.91-.78-.12-1.85-.23-2.81-.23-.8,0-1.52.07-1.94.27-1.03.48-2.2,2.41-2.8,2.93-.48.42-.8,1.24-2,1.47-.67.13-.94.35-1.35.35-.07,0-.14,0-.22-.02-.82-.15-1.99-.37-2.73-1.27-.23-.28-.25-.41-.8-1.13-.36-.47-.55-.71-.8-.93-.54-.47-.91-.45-1.47-.73-.96-.49-1.67-1.46-1.93-2.4-.2-.72-.11-1.32,0-2.07.12-.77.21-1.38.62-2,.48-.73.88-.68,1.72-1.73.35-.44.3-.47.67-.93.58-.73,1.18-1.25,1.47-1.47.77-.58,2.26-1.38,3.61-1.38M60.52,0v1S60.52,0,60.52,0c-1.58,0-3.26.86-4.22,1.59-.2.15-.92.73-1.64,1.64-.22.27-.32.43-.4.56-.06.1-.12.19-.26.37-.36.45-.6.64-.85.84-.28.22-.59.47-.92.96-.53.81-.65,1.58-.77,2.4-.12.8-.23,1.56.03,2.48.36,1.28,1.29,2.44,2.44,3.02.25.13.47.21.65.27.27.1.4.14.61.33.17.15.32.34.66.78.28.37.41.57.51.72.09.14.18.27.32.44.98,1.17,2.44,1.45,3.32,1.61.14.03.27.04.41.04.39,0,.69-.11.95-.2.18-.06.35-.12.58-.17,1.23-.23,1.82-.94,2.21-1.41.1-.12.19-.23.26-.29.28-.24.57-.61.94-1.08.47-.59,1.18-1.49,1.63-1.71.06-.03.43-.18,1.51-.18.79,0,1.79.08,2.66.22.54.08,1.2.56,1.84,1.02.37.27.75.54,1.15.77.23.14.49.19.93.28.79.16,2.12.43,2.74,1.21.18.22.16.96.14,1.55-.02.64-.03,1.36.12,2.04.52,2.35.75,4.14.17,5.25-.23.44-.94.9-1.41,1.2-.36.23-.62.39-.8.61-2.09,2.4-4.82,2.89-5.9,2.99-.26.02-.52.04-.78.04-2.14,0-3.7-.79-4.36-1.13-.73-.37-1.43-.92-1.95-1.55-.22-.26-.72-.86-.66-1.14,0-.01,0-.02.04-.08.08-.15.22-.41.25-.8.05-.84-.44-1.67-1.39-2.36-.74-.54-1.75-.84-2.78-.84s-1.98.31-2.69.87c-.76.59-.92,1.21-1.1,1.87-.15.55-.33,1.23-.94,2.35-.2.36-.37.65-.53.89-.37.59-.68,1.11-.91,2.01-.19.77-.48,1.94.06,3.14.36.81.91,1.16,1.39,1.46.33.21.68.43,1.11.86.45.46.61.76.8,1.14.19.38.41.8.89,1.35.23.26.42.72.62,1.21.53,1.3,1.33,3.25,4.11,3.5.14.01.27.02.4.02,1.37,0,2.35-.66,3.3-1.3.97-.65,1.97-1.33,3.64-1.64,3.08-.57,4.46-.63,5.37-.68.95-.04,1.58-.07,2.98-.56,1.27-.45,5.15-1.81,8.18-5.58,2.87-3.57,3.41-7.29,3.68-9.08.61-4.18.07-8.12-1.62-11.7-1.9-4.05-4.68-7.03-8.24-8.86-3.22-1.65-6.53-2-8.73-2-1.64,0-3.18.2-4.23.54-.3.1-.57.15-.83.15-.8,0-1.34-.51-1.91-1.04-.18-.17-.35-.33-.52-.46C62.13.25,61.38,0,60.52,0h0Z"/>
      </g>
      <path class="cls-6" d="M19.49,6.12c-1.23-.92-3.1-.26-4.7.33-2.71,1-5.86,2.98-5.54,3.91.16.46,1.15.56,1.7.52,1.3-.08,1.53-.98,3.13-1.7.98-.44,1.87-.53,3.52-.72,1.74-.19,2.5-.06,2.74-.52.25-.49-.22-1.36-.85-1.83Z"/>
      <rect class="cls-6" x="24.88" y="125.94" width=".54" height="35.17" rx=".27" ry=".27"/>
      <rect class="cls-10" x="62.55" y="124.4" width=".77" height="35.17" rx=".27" ry=".27"/>
      <path class="cls-3" d="M10.78,227.64c-.94-.83-.88-4.43,2.38-7.73.46-.46,3.68-2.11,6.42-.91.92.4,2.07,1.35,2.09,2.48.01,1.08-2.52,1.18-4.17,2.35-2.07,1.46-1.13,3.08-3.91,3.98-2.1.68-2.64-.01-2.8-.16Z"/>
      <path class="cls-7" d="M60.21,221.83c-.91-.37-2.29,1.44-2.51,1.73-.16.21-1.85,2.46-1.04,3.52.31.41.92.54,1.37.49.17-.02.6-.1,1.37-.95.74-.81,1.4-1.53,1.5-2.64.06-.65-.03-1.89-.68-2.15Z"/>
      <path class="cls-7" d="M57.98,229.89c-.1-.47-.2-.97-.56-1.2-.45-.29-1.17-.08-1.59.27-.8.66-.68,1.92-.44,2.62.09.27.3.86.9,1.22.08.05.87.53,1.37.22.4-.25.4-.94.39-2.32,0-.26-.01-.51-.07-.81Z"/>
    </g>
  </g>
</svg>