<?xml version="1.0" encoding="UTF-8"?>
<svg id="Capa_2" xmlns="http://www.w3.org/2000/svg" viewBox="0 0 661.7237 1749.7731">
  <defs>
    <style>
      .cls-1 {
        fill: #70569b;
      }

      .cls-2 {
        fill: #a486ce;
      }

      .cls-3 {
        fill: #8566b2;
      }
    </style>
  </defs>
  <g id="Capa_1-2" data-name="Capa_1">
    <g>
      <path class="cls-1" d="M379.3727,847.4215c-6.4848,108.0262-94.6505,167.2122-182.9836,210.5996-51.4128,26.0578-105.5912,53.0024-143.3416,97.4479-41.6882,47.5788-49.0964,117.9019-15.4118,172.0215,22.9526,36.7766,60.2557,61.8879,85.4111,97.1707,28.688,39.0394,30.1358,83.7815,8.2039,126.3809-15.2101,29.2372-39.0607,53.8057-68.1866,69.0855-9.6914,4.9833-19.9551,8.8524-30.5545,11.2196,10.513-2.7334,20.5835-6.9399,30.0188-12.2114,56.2568-31.7686,98.25-107.2883,66.0402-169.234-18.9501-35.9777-53.658-59.5095-81.1586-88.9571-59.4464-59.3539-63.1694-153.0023-10.1496-218.2132,38.4843-48.697,93.618-78.8878,146.8674-108.1853,57.7183-31.7862,120.0401-69.3584,147.0104-131.8311,7.661-18.0105,11.6024-37.3244,12.2106-56.9973l36.024,1.7036h0Z"/>
      <path class="cls-1" d="M408.0982,847.0865c-2.2325,68.0934-29.0345,132.9093-63.5038,190.4333-21.2114,37.2887-46.7195,71.5936-62.8828,111.34-24.1784,58.6112-28.8184,121.6567,21.5224,167.6454,35.3881,34.3268,87.8126,59.7176,104.6654,109.8869,19.6506,58.6412-20.8045,115.2883-17.655,173.9067,2.6159,42.2676,26.7051,81.8113,60.9411,106.2632,17.3598,12.3177,37.5168,20.7914,58.6771,23.7011,0,.0001-.3839,3.2237-.3839,3.2237-21.8902-2.3057-42.9737-10.3937-61.3022-22.547-37.9693-25.3436-64.928-68.1195-67.6353-114.1215-4.2244-57.8897,37.2915-121.7076,8.6471-175.6572-10.8296-20.5966-29.0356-35.8583-47.4786-49.9351-35.6668-26.5647-76.2514-52.5342-92.0041-96.7088-23.5904-66.125,3.7178-137.8687,36.9077-195.509,31.83-55.8854,64.6617-109.8195,78.2333-172.1254,4.3918-20.0127,6.6744-40.3701,6.9679-60.8301l36.2837,1.0337h0Z"/>
      <path class="cls-1" d="M432.4518,830.7443c-14.6418,121.8609,44.5576,247.4582,3.4339,367.8242-13.1691,38.4957-36.977,72.3213-62.3075,103.6679-42.7777,53.8252-96.6304,106.6489-103.9116,178.2808-7.538,71.1762,28.2435,138.6782,26.2859,209.7159-.4824,20.4258-4.7031,40.6826-12.209,59.5401,14.2834-38.4747,11.3267-80.2479,1.9965-119.4766-11.4037-49.47-29.8082-98.8958-26.2138-150.6259,4.4981-74.1545,57.6949-131.8187,99.7432-188.5034,22.7812-30.5275,44.1367-62.8334,55.2396-99.5279,10.9483-36.2937,12.0781-74.7466,8.7633-112.3217-7.449-83.3628-34.3862-167.2476-26.7901-252.4829,0,0,35.9695,3.9097,35.9695,3.9097h0Z"/>
      <g>
        <path class="cls-2" d="M366.0623,886.4928c-13.4229,0-26.6777-2.1968-39.3965-6.5291-7.9844-2.7192-15.8955-6.3367-23.5127-10.7522-33.3818-19.3477-55.5703-58.5183-60.877-107.4678-3.1719-29.1489-.5947-58.5107,1.8965-86.9058l.5059-5.7759c.7529-8.6548,1.6025-18.7212,2.1611-28.6895.2803-5.0139.4854-9.9883.6094-14.7849,1.7832-65.7825-9.5029-129.603-32.6367-184.573-4.584-10.8955-9.8145-21.9324-14.8721-32.6057-14.2979-30.1697-29.0811-61.3663-32.6094-95.5898-3.6191-35.0582,5.1748-72.9618,24.7627-106.7269,28.2822-48.7424,75.6592-80.4977,123.6416-82.8744,2.0098-.0992,4.0508-.1497,6.0684-.1497,45.0244,0,91.5684,25.1963,124.5039,67.3999,30.4639,39.0365,47.1348,87.3518,60.6123,133.7483,8.2002,28.2159,15.4102,56.0615,21.4287,82.762,6.8379,30.2764,12.3975,60.2087,16.5215,88.9624,3.2637,22.7358,5.7285,45.3103,7.3242,67.0957.4688,6.479.8535,12.9856.8574,13.0505.0049.0813.458,7.8513.7676,15.2773,4.3545,105.6377-20.3564,163.0122-22.375,167.5037-13.0771,32.4614-36.6953,64.3831-64.8213,87.604-31.7129,26.1816-66.4863,40.0208-100.5605,40.0208Z"/>
        <path class="cls-1" d="M321.8038,131.5685c46.0312-.001,89.3239,27.6372,117.8026,64.1289,29.6398,37.98,45.71,84.6201,59.15,130.8901,7.8999,27.1802,15.0699,54.6201,21.2999,82.2603,6.6,29.2197,12.1499,58.6699,16.3999,88.2998,3.1702,22.0801,5.6301,44.2598,7.26,66.5098.47,6.4902.8501,12.9302.8501,12.9302,0,0,.45,7.6899.76,15.1299,4.4099,106.9702-21.7,163.8101-21.7,163.8101-24.8047,61.7529-89.1143,122.4653-157.5641,122.4653-12.157,0-24.4352-1.9126-36.656-6.0752-7.37-2.5103-14.7101-5.8398-21.99-10.0601-34.6801-20.1001-52.37-61.1802-56.6901-101.0298-3.29-30.2402-.2198-60.6401,2.42-91.0303.84-9.6499,1.64-19.2998,2.1799-28.9497.28-5.0103.49-10.02.62-15.04,1.74-64.1904-8.4099-128.9502-33.2999-188.0903-17.43-41.4297-42.25-81.0498-46.86-125.77-3.63-35.1597,5.92-71.0098,23.66-101.5898,24.5499-42.3101,67.85-76.23,116.71-78.6499,1.8856-.0933,3.7701-.1392,5.6475-.1392M321.8066,114.5685v17l-.0006-17c-2.1603,0-4.3429.0537-6.4896.1602-26.3253,1.3037-52.7482,10.7925-76.413,27.4414-21.6079,15.2012-40.3365,35.8301-54.161,59.6558-20.4828,35.3081-29.6688,75.0361-25.8661,111.8677,3.6772,35.6724,18.7791,67.5396,33.3835,98.3579,5.018,10.5889,10.2068,21.5386,14.7169,32.2583,22.6694,53.8638,33.7262,116.4648,31.9758,181.0371-.1226,4.7314-.3241,9.6206-.5999,14.5522-.5504,9.8398-1.3944,19.8315-2.1422,28.4243-.167,1.9233-.3356,3.8442-.5042,5.7646-2.5283,28.8062-5.1426,58.5933-1.8804,88.5786,2.5088,23.1411,9.0095,45.2622,18.7988,63.9653,11.5249,22.0195,27.0916,38.8198,46.267,49.9336,8.0968,4.6938,16.5198,8.5444,25.0338,11.4443,13.6034,4.6333,27.7804,6.9829,42.1367,6.9829,18.7179,0,37.7354-3.9531,56.524-11.7495,17.1405-7.1123,33.7772-17.2783,49.4482-30.2163,29.5745-24.417,53.4437-56.6699,67.2391-90.8457,2.6925-6.0791,27.4122-65.0654,23.0383-171.1641-.3127-7.5039-.7559-15.103-.7747-15.4229-.0162-.2759-.3928-6.6367-.8655-13.165-1.6119-22.0044-4.0973-44.7769-7.3882-67.6978-4.1561-28.9751-9.7565-59.1318-16.645-89.6294-6.0543-26.8604-13.308-54.8755-21.5579-83.2593-13.7128-47.2095-30.7242-96.4355-62.0725-136.6045-34.5344-44.2515-83.5818-70.6699-131.2017-70.6699h0Z"/>
      </g>
      <path class="cls-1" d="M374.6874,132.6407c17.0011-8.4867,37.1631-12.807,55.7265-7.0526,10.6366,3.2242,19.1404,10.3088,29.1381,14.6092,12.6471,5.4526,26.6335,9.0021,40.4767,9.3875,14.5751.6252,27.5608-5.6131,36.9715-16.7251-4.223,5.7317-9.5849,10.7522-15.919,14.3099-12.8796,7.2367-28.5709,6.4758-42.7118,4.3615-7.1574-1.155-14.298-2.8166-21.2458-5.3044-6.7587-2.3767-13.3606-5.8992-19.7386-8.8258-6.1836-2.8373-12.3662-4.2196-18.9952-4.3735-13.1532-.3428-26.0222,4.2104-37.5217,11.0498l-6.1808-11.4365h0Z"/>
      <path class="cls-1" d="M173.8964,259.7628c-13.934-2.9957-29.2705-1.7407-40.8966,6.9424-5.7493,4.1909-10.6315,10.0937-15.4317,16.267-6.1579,7.7952-11.7872,15.5442-16.0446,24.2682-3.0225,5.6586-8.1992,10.0377-13.6021,13.3349-6.9731,4.3509-15.2621,5.4094-22.6571,8.1961-14.9274,5.6043-23.8611,20.3814-27.6264,35.3381,2.7455-15.5989,11.2897-31.5425,26.3433-38.3242,7.147-3.3169,14.9809-4.7678,21.3167-9.319,4.415-3.1675,8.5395-6.9998,10.8068-12.014,0,0,2.4169-5.4029,2.4169-5.4029,3.4084-7.3911,7.9985-14.1434,12.4627-20.8384,4.6212-6.8397,9.4657-13.678,15.9553-19.1441,13.3383-11.5366,32.2419-14.6169,49.2045-12.1082,0-.0001-2.2478,12.8041-2.2478,12.8041h0Z"/>
      <path class="cls-1" d="M432.6248,174.9235c20.7404,1.5264,41.6306,7.6972,58.6405,19.8746,5.6268,3.9476,10.7195,8.0887,16.1235,11.6737,10.7912,7.0194,22.8642,13.0239,35.4212,16.0388,12.885,2.8165,26.4612-.2242,37.8801-6.6574-5.5159,3.7163-11.6383,6.6596-18.1689,8.4008-13.6224,3.9765-27.026,1.0411-39.9409-3.7972-6.3439-2.3293-12.5994-5.1066-18.5713-8.4328-5.9832-3.3081-11.5706-7.1357-17.1312-10.3877-11.0145-6.5386-23.1402-10.5824-35.7504-12.4257-6.276-.9058-12.6256-1.3204-18.9874-1.2964l.485-12.9907h0Z"/>
      <path class="cls-1" d="M265.1545,814.6954c-12.5644,14.337-22.0944,31.4556-25.4121,50.3863-1.176,6.3335-1.9338,13.0634-3.3434,19.7534-2.9648,13.3248-7.4047,26.2464-14.6509,37.8839-7.396,11.3867-19.662,19.1758-32.595,22.6347,12.333-4.4309,23.5131-12.7159,29.807-24.3056,5.9302-11.4714,9.282-24.532,11.0284-37.2861.8211-6.4332,1.0183-12.9937,1.711-19.8326,1.3061-13.7951,5.6663-27.4429,12.168-39.7075,3.2675-6.1621,7.0167-12.0572,11.1413-17.6543l10.1458,8.1279h0Z"/>
      <path class="cls-1" d="M175.0504,323.9801c-9.7958-.9989-20.4051-.1034-28.0703,6.3213-7.7675,7.5783-13.6178,17.4487-20.0285,26.2913-3.1365,4.2609-6.7088,10.5956-10.583,14.2113-10.8825,7.8527-23.5094,3.1453-34.6946-.0585-5.4868-1.7063-10.7819-3.9373-15.7989-6.6296,5.2503,2.2036,10.6856,3.9014,16.2084,5.0571,9.2755,1.7268,19.3505,4.4423,28.1017.0754,3.63-1.6887,4.9644-4.9858,7.0991-8.633,0,0,4.1572-7.4702,4.1572-7.4702,5.9718-10.1503,10.8726-20.7069,18.6876-29.7819,4.7084-4.919,10.5798-8.0127,16.9147-9.9598,6.1991-1.8701,12.5213-2.4194,18.6911-2.4052l-.6846,12.9819h0Z"/>
      <path class="cls-1" d="M287.8072,852.7267c-7.773,6.0446-14.8255,14.0213-15.9298,23.9614-.3813,10.8451,2.2068,22.0236,3.6801,32.8457.6765,5.2601,2.4664,12.2758,2.1645,17.5859-2.444,13.1955-14.8257,18.5142-25.1265,23.9245-5.1459,2.5565-10.5157,4.6009-16.0032,6.12,5.3187-2.0337,10.4213-4.5605,15.2129-7.54,7.8999-5.1587,17.0601-10.1551,20.3716-19.3578,1.4576-3.7288.1456-7.0341-.8307-11.1461,0,0-2.1542-8.2729-2.1542-8.2729-2.6938-11.4646-6.4428-22.4829-7.0606-34.4433.0059-6.8094,2.1144-13.1021,5.35-18.8863,3.1906-5.6343,7.3825-10.3984,11.8533-14.6504l8.4727,9.8594h0Z"/>
      <path class="cls-1" d="M316.3504,118.774c8.2924-10.9394,21.2677-20.4577,35.6816-20.3036,3.7449.0849,6.8921.7694,9.798,1.1361,5.9468.8718,11.8791.6887,17.9246.4506,8.6549-.3604,17.7754-1.5209,24.4946-7.3662,4.8255-3.8214,6.1845-9.843,9.2682-15.1319,6.4304-11.1695,17.6542-18.6318,29.6532-22.4096-5.7432,2.4013-11.1571,5.5732-15.7789,9.6069-4.6066,4.0181-8.4878,8.8848-10.9922,14.3052-1.2943,2.7041-2.1189,5.5776-3.3163,8.6338-3.572,9.7302-13.4091,15.7173-23.1146,17.9252-9.5361,2.0609-19.1599,3.256-28.9312,2.8886-6.1771-.4318-10.8584-.8238-16.2588,1.6039-7.6295,3.176-13.2922,9.201-17.8518,16.22,0,0-10.5764-7.5591-10.5764-7.5591h0Z"/>
      <path class="cls-1" d="M194.2145,204.8566c-10.8232-3.6901-22.5671-4.3221-33.8866-3.0682-9.1315.9078-18.2684,3.8814-24.8308,10.3924-2.9059,2.7989-4.0081,5.8876-6.3512,9.5103-9.1377,12.9907-26.3833,17.0897-41.3732,15.9687-8.4256-.458-16.9709-2.497-24.2869-6.9248-14.9359-8.6475-21.1422-27.2718-17.5916-43.5255-3.441,27.2607,14.9158,46.3357,41.9949,45.576,11.4313.0677,23.3855-2.8779,31.5765-11.0941,2.8872-2.8427,3.882-5.6021,5.7657-9.413,4.2604-8.2387,12.3739-14.0235,20.7832-17.4336,8.2502-3.2604,16.9075-4.3536,25.6089-5.0283,8.7788-.5385,17.6536.3638,26.205,2.5528l-3.6141,12.4873h0Z"/>
      <path class="cls-1" d="M275.3107,128.1129c.5788-12.3792,5.5735-26.4112,16.672-33.5277,4.1526-2.7694,8.9813-3.7147,13.046-6.1797,7.0587-4.5493,11.9206-12.6677,13.8658-20.8603,2.1598-9.1264-.3304-17.4027-7.461-23.4194-15.397-12.5625-14.4982-28.0446-5.114-44.1258-5.4051,10.7738-7.9522,25.4714.7788,34.9728,3.045,3.4335,7.3618,6.013,10.7842,9.3452,3.8203,3.6457,6.3983,8.6853,7.269,13.8736,1.7659,10.4547-1.5674,21.0874-7.5345,29.7202-2.0212,2.8833-4.503,5.5835-7.518,7.854-2.7111,2.0752-6.1473,3.6072-8.9818,5.0605-10.0704,5.161-13.1114,16.7822-12.8101,27.6011,0,0-12.9962-.3144-12.9962-.3144h0Z"/>
      <path class="cls-1" d="M491.1794,977.733c-5.5516-9.6758-8.5163-22.1902-3.635-32.8403,1.9919-4.3853,5.5597-7.8196,7.5089-12.1421,5.3389-12.2753,2.497-31.714-9.9674-38.4737-5.7914-2.8539-11.6147-2.2662-18.0271-4.7519-14.8501-5.4278-20.8417-21.8858-21.1679-36.4781-.0002.0001,12.9998-.0214,12.9998-.0214-.2546,5.7866.2488,11.4888,2.1343,16.3916,3.2835,8.6514,9.3592,11.8472,18.1033,13.7976,11.4841,2.5323,19.2504,10.2671,22.3458,21.4672,3.0566,11.5402,1.9311,24.6836-5.7,34.1307-2.0187,2.4828-4.146,4.6503-5.6985,7.376-5.4252,9.7859-3.4207,21.6899,1.1039,31.5444h0Z"/>
      <path class="cls-1" d="M519.6552,774.5704c8.3114,9.1922,14.6545,22.6689,11.7927,35.5386-.9952,4.8915-3.7557,8.9638-4.9035,13.5776-2.7512,13.0733,4.3234,30.961,17.834,35.1178,6.1169,1.7754,12.2932.0474,18.6756,1.0234,13.8421,1.8218,21.9277,15.0499,24.8641,27.5016-3.7551-11.4536-12.3037-23.6779-25.1938-24.2686-4.5799-.2905-9.4607.9203-14.2371.9671-5.2795.1047-10.6599-1.6552-14.9334-4.7232-8.6198-6.1743-13.7455-16.0685-15.594-26.3983-.5972-3.4703-.7386-7.1348-.199-10.8707.4614-3.3828,1.8209-6.8904,2.808-9.9194,3.5095-10.758-2.5205-21.1466-10.3572-28.6118,0,0,9.4437-8.9341,9.4437-8.9341h0Z"/>
      <path class="cls-1" d="M231.7446,158.8336c-3.4566-11.7471-9.945-23.2537-21.5768-28.0059-5.8873-2.4416-12.1838-1.9024-18.7411-1.7592-7.1098.2553-14.7821-.4688-21.7077-2.7827-28.7846-9.468-49.5218-34.4509-39.0588-65.4722-7.6196,30.1689,12.6637,52.2244,40.7932,59.208,6.4632,1.584,12.8502,1.662,19.4927.936,7.1655-.8022,15.1296-1.7707,22.4328.6642,7.7334,2.3759,14.3065,7.3031,19.3582,13.244,5.0699,5.9531,8.6295,12.8086,11.3065,19.7563l-12.2988,4.2114h0Z"/>
      <path class="cls-1" d="M196.2451,398.3956c-9.3265,3.9535-17.7042,10.4392-22.729,19.2817-1.6361,2.942-2.9633,6.4797-5.4326,9.2632-3.8346,4.3984-9.1727,7.228-14.559,8.7256-12.0695,3.0329-25.1172,1.4726-35.6147-4.9919-3.8591-2.4827-7.206-5.9161-11.8849-5.9729-7.7793-.5845-14.9692,3.9163-20.6917,8.8984-6.1686,5.1679-10.7689,11.9812-13.4488,19.6626,2.0084-7.8753,6.2103-15.375,12.0722-21.1562,5.8539-6.0371,13.3404-11.3872,22.1673-11.4658,5.3547-.4231,10.1403,3.0115,14.4664,5.4836,4.0017,2.1478,8.3634,3.2282,12.8953,3.6995,9.8294.8937,21.0274-.7732,27.3072-8.7264,1.6152-2.3043,2.3077-5.1089,3.6231-7.9293,2.2339-4.9677,5.435-9.5189,9.1009-13.5039,4.8814-5.3276,10.7916-9.6606,17.0998-12.9868l5.6284,11.7188h0Z"/>
      <path class="cls-1" d="M470.9555,222.5646c11.463.8545,23.0253,4.0335,32.5033,10.69,6.1974,3.9839,10.1793,10.3425,15.6904,14.7759,9.3401,7.2674,20.7417,13.458,32.9309,12.2274,13.9131-1.5324,28.7747-9.7794,27.2418-25.7168-.1512-13.1994,12.2953-21.5708,23.5514-25.4128-9.6819,3.4637-20.1058,9.5482-22.8153,20.1864-1.3793,5.1447.4182,10.7246-1.9146,15.685-3.5863,8.4025-12.1721,13.241-20.6023,15.7153-10.486,3.3614-21.9413,1.1618-31.6182-3.6539-6.5677-2.9816-12.9687-7.1306-18.1536-11.9957-7.4007-6.6655-17.0106-9.8087-26.7956-10.1291-3.2278-.0718-6.463.123-9.674.6235l-.3441-12.9951h0Z"/>
      <path class="cls-1" d="M217.2918,441.7574c-10.6851-.3256-22.7223,1.1849-28.9024,10.6243-2.8527,5.5578-5.8789,11.8014-9.6702,16.858-5.9596,8.483-13.2265,18.6784-23.9517,22.0391-8.7786,1.9673-17.7174,1.9608-26.6217,2.7279-10.4943.7071-18.0704-.3638-25.2852,8.8343-1.9483,2.4612-3.4765,5.2713-4.6906,8.2098.9604-3.0303,2.2498-5.9897,4.0321-8.686,6.7008-10.1765,14.7826-9.9782,25.6107-11.5911,6.2467-.9445,12.5905-1.9372,18.7498-3.0734,2.2318-.4381,4.4391-.8763,6.5072-1.6367,3.2175-1.3838,6.0888-3.6476,8.5214-6.1875,3.9905-4.231,7.0725-9.5933,10.3121-15.0581,1.5507-2.6533,2.9722-5.3154,4.1836-8.0425,2.0866-4.6203,3.3771-9.8954,6.8581-13.9341,3.5885-4.384,8.4414-7.7261,13.563-9.8574,6.797-2.8404,13.8595-3.8799,20.7191-4.2266l.0647,13h0Z"/>
      <path class="cls-1" d="M494.7237,269.3097c12.3336,8.7966,25.6047,16.6693,39.5313,22.754,4.1156,1.6934,7.7774,3.1565,12.0838,3.3466,7.1737.2537,14.5215-1.318,20.8897-4.6919,2.4839-1.3836,5.0173-3.0523,7.0719-4.9981,3.472-3.1338,5.4854-7.8491,9.5152-10.5532,12.1295-8.2404,28.7261-7.2818,41.4011-1.1786-12.4602-4.7487-28.4801-4.5517-39.1414,4.0523-3.5566,3.002-4.9923,7.6838-8.2716,11.0695-6.8165,7.4852-16.4491,11.9585-26.3706,13.5035-10.1253,1.9909-20.1748-1.9008-29.3732-5.4801-11.8838-4.6918-23.3936-10.392-34.4353-16.934l7.0992-10.8901h0Z"/>
      <path class="cls-1" d="M492.3256,821.6627c-.8319,15.1262-.3826,30.5502,1.9294,45.5713.7713,4.3833,1.4952,8.2592,3.638,11.9995,3.6246,6.1956,8.8839,11.5625,15.1413,15.1372,2.4985,1.3577,5.2631,2.6055,8.0067,3.2998,4.5053,1.2562,9.5658.4344,14.0066,2.3917,13.4514,5.8384,21.5217,20.3718,23.1481,34.3455-2.426-11.9099-9.5573-23.3896-20.3354-29.2227-2.5833-1.3308-5.2697-2.2838-8.164-2.3592-3.0317-.0587-6.5113.2312-9.6448-.3819-9.9713-1.7525-18.9041-7.4977-25.5182-15.0527-7.0998-7.4888-9.1892-18.0608-11.087-27.7471-2.3952-12.5497-3.7382-25.3232-4.1196-38.1518l12.9989.1704h0Z"/>
      <path class="cls-1" d="M252.0239,783.4777c-4.4885,12.0239-9.87,23.686-16.1755,34.7979-3.3329,5.7548-6.5008,11.2785-11.1189,16.3462-7.816,7.8083-18.8247,12.2264-29.775,12.8141-4.1638.162-8.4961-.2576-12.4391-1.6448-4.2689-1.7068-8.2875-2.7806-12.84-1.903-12.0845,2.0562-22.5234,10.6272-28.6563,21.1255,6.0307-12.7035,18.3574-23.8738,32.9674-25.0718,4.8366-.4237,9.3607,1.9817,14.0316,2.2425,11.2192.654,23.248-4.4099,30.5889-12.9036,3.4417-4.509,6.1094-10.1734,8.5641-15.4509,5.094-11.1231,9.2368-22.6436,12.4903-34.3731l12.3625,4.021h0Z"/>
      <path class="cls-1" d="M506.8132,312.1447c15.8153,1.2732,31.4936,6.3259,44.9218,14.4982,8.0617,4.8099,14.3529,1.6757,21.9628-2.2299,10.892-5.3978,21.8013-10.7891,33.2798-14.9788,2.8993-1.0131,5.8703-1.9535,9.0504-2.353,9.4211-.9536,18.3319,4.8451,24.2489,11.5576-6.4073-5.9832-14.9903-10.7337-23.8662-9.1505-8.5655,2.2038-16.3121,7.1006-24.0856,11.3412-5.2226,2.9841-10.3282,6.0915-15.4778,9.2697-5.4144,3.3831-11.8058,7.3812-18.6351,7.0081-6.586.201-12.7933-3.8354-18.5435-5.9882-10.6701-4.0863-22.094-6.0541-33.4097-5.9862l.5541-12.9883h0Z"/>
      <path class="cls-1" d="M507.0798,338.86c12.6032,1.5765,25.3979,6.1111,34.9684,14.8043,4.6225,4.0424,7.8828,9.1265,11.9587,13.3212,3.8262,3.9642,8.5924,7.4394,13.0455,10.6275,14.3011,10.235,24.5457,4.4277,37.7978-3.8001,7.4902-4.5189,14.3854-9.9354,20.6182-16.1179-3.7645,4.4927-7.8845,8.7178-12.3401,12.5947-4.4674,3.8821-9.2303,7.3184-14.1012,10.7202-7.8278,5.6899-17.0538,8.8538-26.7132,5.9138-6.0426-1.7829-11.1918-5.215-16.3612-8.4719-5.1067-3.1454-10.0478-7.5946-14.091-11.8824-5.6039-5.9573-12.2999-10.0264-20.0752-12.3138-5.0595-1.5166-10.3996-2.2344-15.794-2.4415l1.0872-12.9541h0Z"/>
      <path class="cls-1" d="M227.4579,468.4791c-17.1448,7.4154-23.2081,19.1725-26.1833,37.0685-.5748,3.0438-1.2798,7.3211-1.7131,10.3124-.5957,3.805-.5695,6.9176-1.4224,10.9585-3.6081,12.5601-20.5998,21.6184-32.9811,17.1129-.7822-.3595-2.0364-.8536-2.7445-1.339-7.5714-4.2594-9.6139-14.4329-18.2905-16.5913-10.3711-2.294-20.132,5.3484-27.7611,11.5725,9.7084-9.8982,25.961-21.4575,38.0906-8.3242,6.2699,6.9771,9.9263,12.5624,20.1692,10.441,6.6844-1.6175,13.0258-6.2661,15.8707-12.5911,1.2149-3.6153.5528-8.0606.9825-12.0259.2053-3.1985.6275-7.5952.9533-10.8009.8005-7.4482,1.9466-14.9748,4.9167-22.0922,4.4293-11.1503,14.0865-20.0153,24.4318-25.394,0,0,5.6809,11.6928,5.6809,11.6928h0Z"/>
      <path class="cls-1" d="M523.0821,374.8551c12.2756,5.3736,23.3852,13.1822,32.0862,23.2925,3.246,3.6554,5.6882,8.0237,9.1868,11.0973,8.8841,7.1786,21.6648,9.9436,32.865,6.5265,9.3685-2.833,16.7914-10.4991,20.5887-19.5159-1.4658,4.7779-3.8203,9.3594-7.1072,13.2911-12.0494,14.8545-35.4037,15.7147-50.8011,5.497-2.3868-1.6157-4.4154-3.686-6.1751-5.5571-3.3635-3.6677-6.5017-6.8065-10.4107-9.729-7.4823-5.7197-15.9503-9.9712-24.8218-12.7393l4.5891-12.1631h0Z"/>
      <path class="cls-1" d="M239.9868,508.7848c-8.5937,2.4582-17.3096,6.7664-19.9422,15.6841-1.1146,4.685-1.7043,11.1624-3.6694,15.9946-2.0766,5.3683-4.2736,10.4939-7.6568,15.2647-10.6558,15.033-29.9857,15.5897-46.4339,12.2839-5.3288-1.1023-10.4695-2.9099-15.284-5.2884,5.0303,1.8818,10.2622,3.1377,15.5366,3.6836,18.3513,1.6817,37.4959-1.1748,43.7829-21.0124,1.6882-4.7052,3.1323-9.5619,3.4683-14.5745.267-4.3148.372-9.0425,2.0218-13.1894,1.7033-4.5839,4.7435-8.6908,8.3084-11.8975,4.7553-4.2412,10.2125-7.0772,15.6826-9.2564l4.1857,12.3076h0Z"/>
      <path class="cls-1" d="M532.1635,420.8346c13.0275,2.8397,25.656,9.4673,34.3371,19.7925,4.0373,4.5321,6.7981,10.5332,10.5374,14.7642,7.6474,8.1359,21.0066,7.4231,31.3403,5.0446,6.1006-1.0285,11.1053-3.5406,16.7727-6.1211,11.5463-4.8182,24.7613-4.5212,36.5727-1.0525-11.7961-2.3327-24.4581-1.6111-35.1924,3.9946-5.1931,2.9946-10.998,6.3949-16.9678,7.9075-5.8909,1.7864-12.2293,3.3323-18.923,3.1545-11.5997-.3474-19.3129-5.3252-25.7617-14.6198-5.0405-6.8921-11.3633-12.2498-19.1171-15.6741-5.0088-2.2569-10.3921-3.6695-15.9247-4.4005l2.3264-12.79h0Z"/>
      <path class="cls-1" d="M247.1343,543.2799c-12.7897,5.9311-23.328,16.4006-28.5111,29.6949-2.919,6.7897-4.5099,15.3697-8.9744,21.8393-8.1176,12.292-24.7647,11.5992-37.3277,8.1638-4.9996-1.2996-9.8466-3.0076-14.6064-4.884,14.1994,3.7871,38.4127,9.3242,47.1141-6.2986,3.4344-6.6319,3.7897-13.9938,6.1136-21.4699,1.4789-5.1666,3.5969-10.3521,6.4662-15.1182,5.6506-9.5859,13.9779-17.5479,23.5002-23.3394l6.2255,11.4121h0Z"/>
      <path class="cls-1" d="M540.4011,457.0934c15.6435,10.4031,28.9275,25.1526,36.1715,42.5851,1.9377,4.6806,4.433,7.6695,8.5306,10.1878,5.3293,3.323,11.5726,5.0056,17.8289,5.8121,5.7186.7505,11.6243.7466,17.5015.3945,5.9241-.3504,12.3444-1.6978,18.1689.4585,5.8931,2.0259,10.6118,6.3042,13.9299,11.2373-3.7524-4.624-8.7573-8.3096-14.3942-9.6802-5.6222-1.5098-11.3374.3174-17.3408,1.2144-12.1251,1.8277-25.1434,2.3054-36.7611-2.5468-4.6275-2.0362-9.1479-4.9598-12.0825-9.1969-4.1492-6.389-7.1159-12.6776-12.1623-18.3479-7.2622-8.6354-16.2998-15.6056-26.1916-21.0392l6.8013-11.0786h0Z"/>
      <path class="cls-1" d="M252.3537,578.6671c-9.6472,13.7353-22.6043,25.6657-38.0611,32.5097-6.7987,3.3338-14.7872,4.6306-19.9448,10.3363-1.5507,1.7482-2.8972,3.7975-3.8415,5.9713-2.0333,4.66-2.1272,10.2812-3.9965,15.2138-3.763,10.4067-12.0633,18.4019-21.6371,23.3721,4.4398-2.9321,8.4507-6.478,11.6712-10.5952,3.1912-4.1187,5.6442-8.813,6.8548-13.7163,1.3436-5.227.7949-10.5971,2.5297-15.9502.8977-2.814,2.2409-5.4243,3.9769-7.8462,3.3134-4.7902,8.8662-7.8815,13.8244-10.3368,6.8989-3.4237,13.3961-7.3834,19.0808-12.4879,7.519-6.6259,13.631-14.7153,18.5765-23.4516l10.9668,6.981h0Z"/>
      <path class="cls-1" d="M546.3182,521.2789c12.1315,1.1467,24.6338,5.8561,33.0205,15.1373,3.9979,4.0645,6.54,10.1383,9.1568,14.6324,6.9116,10.427,22.7424,11.4471,33.8183,7.7774,2.4998-.8453,4.7325-1.8869,6.8895-3.4748,2.2372-1.7116,5.0727-3.0369,7.809-3.8017,8.1645-2.4193,17.0012-.9523,24.7114,2.0176-7.8562-2.1432-16.3269-2.7686-23.9189.2876-2.49.9906-4.6024,2.2215-6.6012,4.0581-2.1077,1.9118-4.7606,3.5206-7.3844,4.6864-10.7867,4.7528-23.9029,5.3406-34.5508-.4881-2.7545-1.5211-5.4386-3.7584-7.3684-6.318-1.9708-2.5327-3.3593-5.0522-4.7898-7.1001-4.0799-6.0749-10.1554-10.1422-17.0673-12.3443-4.5846-1.4575-9.4745-2.0801-14.4562-2.0903l.7314-12.9795h0Z"/>
      <path class="cls-1" d="M246.0678,626.5953c-10.3947,2.8529-21.6665,7.8755-25.8176,18.3301-1.5867,4.2701-1.8129,10.1461-3.8951,14.6572-4.2148,9.8311-11.5218,18.6645-21.182,23.4693-11.6426,5.925-25.9687,4.8187-37.4584-.839,22.2411,7.8927,43.239-.9089,51.2323-23.4639,2.0934-5.4485,1.2484-10.5452,2.7721-16.4882.7617-2.935,1.9904-5.6162,3.5113-8.1596,3.092-5.0654,7.4347-9.1382,12.0721-12.29,4.6541-3.1841,9.6352-5.5698,14.6729-7.5547l4.0924,12.3389h0Z"/>
      <path class="cls-1" d="M656.6174,598.0939c-17.4154,26.5389-42.7577,22.2383-63.3771,2.0149-2.0754-1.929-3.9897-4.0798-5.7711-6.3132-3.6001-4.4336-6.2144-9.627-9.167-11.9912-7.1657-5.6176-16.652-3.898-24.7988-.6661,0,0-4.1551-12.3183-4.1551-12.3183,11.863-3.6913,27.7483-3.4424,36.5843,6.8977,3.384,3.995,5.39,9.1369,8.1427,13.3479,2.6827,4.2495,6.1402,8.106,9.7043,11.6201,17.4427,17.3067,37.2658,16.7739,52.8376-2.5918h0Z"/>
      <path class="cls-1" d="M552.1429,602.2208c19.3841,3.1094,34.6428,12.9092,43.1326,30.8654,6.2544,13.0451,23.3686,17.2179,36.2948,12.3925,6.132-2.3349,11.2232-6.7239,14.8343-12.2867-2.6924,5.3975-6.9525,10.2963-12.2803,13.4038-9.9357,5.9001-22.7757,5.9934-33.1743,1.0255-2.4015-1.1124-4.7071-2.6885-6.7207-4.5552-3.7913-3.4838-6.2757-8.0173-9.2703-11.8408-5.3541-6.98-12.9585-11.648-21.3242-14.0381-4.1722-1.1821-8.5131-1.8237-12.9261-2.0454l1.4342-12.9209h0Z"/>
      <path class="cls-1" d="M245.8493,667.004c-7.9824,1.7484-15.672,5.8784-19.9014,12.897-2.2615,3.795-3.5186,8.6669-5.629,12.8725-6.7132,13.4846-18.5539,25.6173-33.617,28.9468-9.6461,2.2377-19.6965,1.2339-28.9872-1.7202,25.8556,5.1221,45.8452-5.6643,55.1114-30.3688,1.6548-4.639,2.262-9.3688,4.4391-14.1654,2.3768-5.2427,6.0659-9.6353,10.4471-13.1411,4.3795-3.5049,9.3918-6.0273,14.4816-7.7964l3.6554,12.4756h0Z"/>
      <path class="cls-1" d="M555.6617,644.3331c6.4088,6.2222,13.2476,12.0591,20.4413,17.478,3.6812,2.7524,7.3346,5.5391,10.9763,8.0342,3.5237,2.3541,6.8371,4.5216,11.0124,5.1548,6.5468,1.3532,12.7277-1.454,19.0947-3.0021,11.4818-2.8452,23.9868-.8895,34.3245,4.0875-10.8731-3.6704-22.564-4.126-33.1555-.1968-4.4042,1.6195-8.4928,3.8546-13.2511,4.9497-5.0529,1.135-10.5388.8833-15.4138-.9472-6.7917-2.5704-12.8267-6.4821-18.9714-9.9511-8.1269-4.7384-15.9962-9.9869-23.5291-15.7467l8.4717-9.8604h0Z"/>
      <path class="cls-1" d="M551.7184,688.3829c4.5422,10.1186,12.1755,19.7754,23.3236,22.3745,7.0591,1.578,14.3289.8402,21.7462.4176,5.1353-.3409,10.0804-.6949,15.0774-1.4347,3.7541-.499,7.9961-1.5045,11.9669-.9507,12.1291,1.5465,21.3121,10.7177,27.6783,20.4024-7.6045-9.2556-18.8151-18.353-31.3987-16.4762-7.2613,1.7565-15.1265,3.8037-22.5412,4.9114-10.4753,1.8214-22.1923,4.0214-32.5889-.2274-5.518-2.1444-10.3806-5.5653-14.476-9.5756-4.1096-4.0186-7.4802-8.626-10.3197-13.4404l11.532-6.001h0Z"/>
      <path class="cls-1" d="M249.0054,700.8312c-5.6572,13.8469-15.7093,27.4244-30.6366,32.1235-5.6821,1.7916-11.1998,1.7694-16.7442,2.8302-7.7789,1.4145-15.3855,4.3642-22.6281,7.5467-15.8286,6.8682-23.1513,22.1881-21.8896,39.0305-.8945-5.4118-.9961-11.0275.0371-16.5373,2.7919-15.4197,13.3897-24.4705,27.0088-30.7679,7.4725-3.9161,15.7778-6.7954,24.0233-8.3774,9.9151-1.7012,17.6824-7.9918,22.7047-16.5473,2.5113-4.2132,4.4083-8.8846,5.9017-13.7283l12.2229,4.4272h0Z"/>
      <path class="cls-1" d="M542.5917,736.09c4.2995,8.0015,10.351,16.4929,19.8237,17.1823,4.5694.1253,9.7344-2.596,14.4559-3.9639,5.4993-1.7716,11.1734-3.025,16.811-3.8082,8.3047-1.0265,17.2458-2.7609,25.7236-.6339,5.7395,1.3491,10.5075,5.507,14.3953,9.4749,6.0078,5.7063,14.8539,6.7727,22.8161,4.966-7.8509,2.687-17.5577,2.3121-24.3639-3.0836-6.7537-5.7976-12.4161-8.5747-21.4253-7.4933-10.3522,1.437-21.3892,4.0412-31.1082,8.187-4.5614,1.8952-9.32,4.7832-14.3708,5.7508-7.7264,1.5257-15.6283-1.4499-21.5781-6.0611-5.174-3.9805-9.0198-8.8857-12.362-13.8877l11.1826-6.6294h0Z"/>
      <path class="cls-1" d="M207.9413,177.9249c-19.9141-14.1468-48.0166-23.5879-72.5831-20.4241-3.1989.4085-6.3304,1.0374-9.3815,1.9505-4.6983,1.3032-9.4696,4.014-14.5448,4.8941-19.9803,2.8871-35.2447-14.3661-45.5567-29.1815,11.3137,13.7605,29.7842,31.8725,48.9502,23.2135,18.4589-10.3323,40.7428-11.0115,60.9945-6.4706,13.7099,2.7101,27.0674,7.8463,39.2158,15.1247l-7.0944,10.8936h0Z"/>
      <path class="cls-1" d="M184.7432,365.3707c-10.1361,1.8685-19.873,6.2864-26.8454,13.9414-3.8682,4.0625-5.8105,8.4971-8.6017,13.6543-1.8278,3.4987-5.2594,7.2632-9.2541,8.951-8.2605,4.0918-17.2811.1343-25.1739-2.2814-5.3547-1.6595-10.8016-2.6468-16.3894-2.8343-5.5753-.1523-11.2136.4922-16.7025,1.897-5.4933,1.3975-10.8213,3.5464-15.9011,6.2056,14.5458-9.7896,32.9073-13.9304,50.1626-10.0007,6.3958,1.0833,13.1365,3.9066,19.2607,1.4549,6.3087-2.4846,7.2961-9.2355,10.1384-15.0827,1.3228-2.828,2.9953-5.6225,4.9351-8.1625,3.8434-5.1099,8.6685-9.4004,14.0554-12.7915,5.3819-3.3936,11.2728-5.8638,17.2671-7.5884l3.0486,12.6372h0Z"/>
      <path class="cls-1" d="M637.4046,816.652c-29.1732,6.0174-52.9869-2.0685-77.7359-17.3387-4.7205-3.0561-8.98-7.2172-12.7914-11.1419-5.031-5.3564-9.7482-8.419-17.1248-8.09-2.1757.0515-4.3476.3753-6.5009.9358l-2.5027-12.7568c9.3787-1.4688,20.2367.245,27.4131,6.899,6.1603,5.6562,9.8373,12.5089,16.26,17.5648,22.3576,17.0991,44.1542,26.8765,72.9825,23.9279h0Z"/>
      <path class="cls-1" d="M157.7147,827.7897c15.2913-.0515,35.5718-4.6816,37.0587-22.8337.5965-7.9329-.786-17.0727.6948-25.3963,3.3153-21.4565,21.3812-36.6854,39.6992-46.0555-.0002-.0002,5.4531,11.8011,5.4531,11.8011-4.9155,1.9937-9.6882,4.27-14.1718,6.9468-11.0664,6.4726-20.5656,16.1873-23.8247,28.8136-2.1939,8.1049-1.5083,15.9499-3.0296,24.6157-3.7633,19.985-24.6923,23.7305-41.8797,22.1084h0Z"/>
      <path class="cls-1" d="M182.2795,231.2584c-21.5168-4.1377-45.1641-.0932-63.1055,12.8162-1.5589,1.1932-3.28,2.5148-4.7338,3.8166-4.2473,3.6847-7.2387,8.0034-10.6463,12.5855-8.9735,11.5523-23.7746,17.244-37.9187,18.5821,10.9506-2.0376,21.616-6.8679,29.5808-14.611,4.1218-3.9212,6.3286-8.8038,9.4817-13.5991,13.5726-19.8962,37.6831-30.2428,61.0867-32.5308,6.0044-.5639,12.0874-.5248,18.1337.0767l-1.8787,12.8638h0Z"/>
      <path class="cls-1" d="M408.285,147.4293c34.4567-5.4971,61.4123,8.9855,88.12,28.4725,8.0182,5.4419,14.7403,14.0868,24.3406,6.5621,2.4969-1.9628,4.8462-4.5781,7.7208-6.6377,8.4374-6.4162,20.1499-6.6632,29.729-3.348-6.5571-1.6002-13.5497-1.7956-19.7937.4061-3.1036,1.1104-5.9913,2.6851-8.4198,4.8511-2.4941,2.0942-4.4967,4.7441-7.1293,7.2031-10.8655,9.7397-19.7485,1.6957-29.6268-4.3215-14.1057-8.4935-28.9014-16.6078-44.874-20.5131-12.439-3.0693-25.3158-2.748-37.6999.108l-2.3669-12.7827h0Z"/>
      <path class="cls-1" d="M252.9141,138.9679c-1.382-13.5078-8.1036-23.1271-19.1732-30.7034-5.7121-4.1594-11.0597-8.0158-17.155-10.9968-1.7494-.8823-3.6965-1.8605-5.2989-3.2349-10.1699-9.5589-11.951-25.1497-7.9164-37.9105.3786-.8974.5834-1.8716,1.0895-2.812,1.1036-1.9622,3.4796-4.9466,4.7112-6.7506,4.0572-5.7137,8.1103-11.4881,12.0033-17.3095,1.8954-2.9248,3.8537-5.8457,5.0255-9.0029,2.254-6.5312,1.1734-13.9539-1.5828-20.247,1.6366,3.1113,2.8908,6.4687,3.4857,9.9922,1.48,7.8354-.9822,13.9158-4.8449,20.5229-3.4701,6.1668-7.0529,12.212-10.6916,18.2755-.7868,1.3515-3.2991,5.2626-3.8891,6.5292-1.2607,3.7758-1.7239,7.9251-1.5823,11.9107.3123,7.6629,2.9746,15.8604,8.9976,20.7623,1.1616.8077,2.4566,1.2943,3.8885,1.8935,5.0336,2.013,10.0112,4.7016,14.6571,7.5176,7.9783,4.7539,16.4143,9.9908,21.9284,17.8448,4.7402,6.4271,7.7589,14.0424,9.2005,21.7704l-12.8531,1.9487h0Z"/>
      <circle class="cls-3" cx="257.2385" cy="427.2297" r="12.861"/>
      <circle class="cls-3" cx="374.6393" cy="286.7993" r="18.1988"/>
      <circle class="cls-3" cx="302.2165" cy="579.9221" r="33.384"/>
      <circle class="cls-3" cx="334.982" cy="696.6003" r="18.1988"/>
      <circle class="cls-3" cx="204.2295" cy="332.6843" r="6.4305"/>
      <circle class="cls-3" cx="323.8442" cy="477.4334" r="6.4305"/>
      <circle class="cls-3" cx="494.8779" cy="565.0611" r="6.4305"/>
      <circle class="cls-3" cx="412.352" cy="456.3556" r="14.6473"/>
      <circle class="cls-3" cx="475.6619" cy="429.8288" r="14.6473"/>
      <circle class="cls-3" cx="475.6619" cy="694.6313" r="9.0784"/>
      <circle class="cls-3" cx="436.0776" cy="720.395" r="9.0784"/>
      <circle class="cls-3" cx="363.5014" cy="539.0835" r="11.1378"/>
      <circle class="cls-3" cx="424.9398" cy="628.9723" r="11.1378"/>
      <circle class="cls-3" cx="211.4885" cy="262.4922" r="11.1378"/>
      <circle class="cls-3" cx="274.3576" cy="337.8738" r="8.5811"/>
      <circle class="cls-3" cx="457.3891" cy="378.9117" r="7.3643"/>
      <circle class="cls-3" cx="302.2165" cy="781.4672" r="11.1378"/>
      <circle class="cls-3" cx="436.0776" cy="309.5471" r="11.1378"/>
      <circle class="cls-3" cx="491.174" cy="760.5032" r="11.1378"/>
      <circle class="cls-3" cx="447.2154" cy="259.7366" r="5.5689"/>
      <circle class="cls-3" cx="355.8391" cy="735.0423" r="5.5689"/>
      <circle class="cls-3" cx="334.982" cy="364.1486" r="11.1378"/>
      <circle class="cls-3" cx="263.8684" cy="220.1417" r="23.2871"/>
      <circle class="cls-3" cx="457.3891" cy="535.3789" r="19.7801"/>
      <circle class="cls-3" cx="370.3568" cy="187.7802" r="19.7801"/>
      <circle class="cls-3" cx="406.7543" cy="797.7958" r="22.2756"/>
    </g>
  </g>
</svg>