<?xml version="1.0" encoding="UTF-8"?>
<svg id="Capa_2" xmlns="http://www.w3.org/2000/svg" viewBox="0 0 661.7237 1749.7727">
  <defs>
    <style>
      .cls-1 {
        fill: #898686;
      }

      .cls-2 {
        fill: #a3a2a2;
      }

      .cls-3 {
        fill: #c4c2c2;
      }
    </style>
  </defs>
  <g id="Capa_1-2" data-name="Capa_1">
    <g>
      <path class="cls-1" d="M379.3726,847.4214c-6.4846,108.0269-94.6504,167.2114-182.9835,210.5996-51.413,26.058-105.5915,53.002-143.3417,97.4482-41.6882,47.5782-49.0962,117.9019-15.4118,172.021,22.9525,36.777,60.256,61.8879,85.411,97.171,28.6883,39.0393,30.1357,83.7817,8.2041,126.3809-15.2102,29.2372-39.0605,53.8056-68.1866,69.0855-9.6915,4.9831-19.9551,8.8524-30.5545,11.2196,10.5129-2.7334,20.5835-6.9399,30.0188-12.2114,56.2569-31.7686,98.2498-107.2884,66.0402-169.2343-18.9501-35.9772-53.6581-59.5097-81.1585-88.9568-59.4465-59.3532-63.1695-153.0028-10.1498-218.213,38.4844-48.6976,93.618-78.8879,146.8675-108.1858,57.7186-31.786,120.0401-69.3583,147.0103-131.8311,7.661-18.0102,11.6024-37.3242,12.2106-56.997l36.0239,1.7036h0Z"/>
      <path class="cls-1" d="M408.0982,847.0862c-2.2323,68.0939-29.0346,132.9093-63.5038,190.4338-21.2115,37.2887-46.7197,71.5932-62.8827,111.34-24.179,58.6112-28.8183,121.6561,21.5222,167.6451,35.388,34.3267,87.8128,59.7175,104.6654,109.8867,19.6509,58.6414-20.8045,115.2882-17.6548,173.907,2.6154,42.2677,26.7055,81.8115,60.9411,106.2634,17.3599,12.3171,37.517,20.7913,58.677,23.7009,0,.0001-.3841,3.2235-.3841,3.2235-21.8901-2.3057-42.9736-10.3935-61.3022-22.547-37.9695-25.3435-64.9275-68.1193-67.6353-114.1212-4.2236-57.8901,37.2913-121.708,8.6471-175.6574-10.8296-20.5971-29.0356-35.8579-47.4786-49.9351-35.6668-26.5646-76.2512-52.534-92.004-96.7088-23.5904-66.1241,3.7174-137.8691,36.9079-195.5085,31.8295-55.8859,64.662-109.8196,78.233-172.1257,4.3921-20.0129,6.6746-40.3701,6.968-60.8301l36.2837,1.0334h0Z"/>
      <path class="cls-1" d="M432.4517,830.7441c-14.6414,121.8611,44.5578,247.4584,3.4339,367.8244-13.1693,38.4955-36.9768,72.3213-62.3074,103.6674-42.778,53.8256-96.6304,106.6492-103.9117,178.2812-7.5377,71.1763,28.2438,138.6777,26.286,209.7159-.4823,20.4256-4.703,40.6824-12.2088,59.5396,14.2833-38.4747,11.3266-80.2475,1.9963-119.4766-11.4036-49.4704-29.8083-98.8952-26.2137-150.6259,4.4981-74.1543,57.6952-131.8186,99.7431-188.5032,22.7814-30.5273,44.1367-62.8334,55.2396-99.5279,10.9487-36.2936,12.0781-74.7469,8.7633-112.322-7.4485-83.3627-34.3862-167.2475-26.79-252.4826,0,0,35.9694,3.9097,35.9694,3.9097h0Z"/>
      <g>
        <path class="cls-3" d="M523.6263,755.5274c-29.21,72.72-113.19,143.99-194.22,116.39-7.37-2.51-14.71-5.84-21.99-10.06-34.6801-20.1-52.37-61.18-56.69-101.03-3.29-30.24-.22-60.64,2.42-91.03.84-9.65,1.64-19.3,2.18-28.95.28-5.01.49-10.02.62-15.04,1.74-64.19-8.41-128.95-33.3-188.09-17.43-41.43-42.25-81.05-46.86-125.77-3.63-35.16,5.92-71.01,23.66-101.59,24.55-42.31,67.85-76.23,116.71-78.65,48.12-2.38,93.81,26.01,123.4501,63.99,29.6399,37.98,45.71,84.62,59.1499,130.89,7.9,27.18,15.0701,54.62,21.3,82.26,6.6,29.22,12.1499,58.67,16.3999,88.3,3.17,22.08,5.6301,44.26,7.26,66.51.47,6.49.8501,12.93.8501,12.93,0,0,.45,7.69.76,15.13,4.4099,106.97-21.7001,163.81-21.7001,163.81Z"/>
        <path class="cls-1" d="M321.8038,131.568c46.0312-.001,89.324,27.6376,117.8025,64.1294,29.6399,37.98,45.71,84.62,59.1499,130.89,7.9001,27.1799,15.0701,54.62,21.3,82.26,6.6001,29.22,12.1499,58.6699,16.3999,88.2999,3.1702,22.0801,5.6301,44.26,7.26,66.51.47,6.4901.8501,12.9301.8501,12.9301,0,0,.45,7.6899.76,15.1299,4.4099,106.97-21.7,163.8101-21.7,163.8101-24.8044,61.7524-89.1143,122.4653-157.5642,122.4653-12.157,0-24.4351-1.9126-36.6558-6.0752-7.3701-2.51-14.71-5.8401-21.99-10.0601-34.6802-20.1001-52.3701-61.1799-56.6899-101.03-3.29-30.24-.2202-60.6401,2.4199-91.03.8398-9.6499,1.6399-19.3,2.1799-28.95.28-5.01.49-10.02.6201-15.04,1.74-64.1901-8.4102-128.95-33.3-188.09-17.4299-41.4301-42.25-81.05-46.8601-125.77-3.6299-35.16,5.9202-71.01,23.6602-101.59,24.5498-42.3101,67.8499-76.2299,116.71-78.65,1.8855-.0933,3.77-.1393,5.6475-.1394M321.8065,114.5681v17l-.0007-17c-2.1602,0-4.3428.0538-6.4893.1599-26.3254,1.3041-52.7483,10.7932-76.4131,27.4418-21.6079,15.2014-40.3364,35.8301-54.1611,59.6558-20.4827,35.308-29.6687,75.0363-25.8662,111.8676,3.6775,35.6722,18.7791,67.5396,33.3833,98.3575,5.0181,10.5891,10.2073,21.5388,14.7173,32.2592,22.6694,53.8643,33.7263,116.4651,31.9761,181.0369-.1228,4.7327-.3245,9.6221-.6001,14.552-.5508,9.8452-1.3945,19.8345-2.1423,28.4246-.1667,1.9214-.3352,3.8401-.5037,5.7585-2.5283,28.8083-5.1431,58.5977-1.8806,88.5842,2.5085,23.1414,9.0093,45.2627,18.7986,63.9658,11.5251,22.0198,27.0916,38.8201,46.2671,49.9336,8.0994,4.6948,16.5222,8.5457,25.0342,11.4446,13.6028,4.6333,27.7798,6.9827,42.1362,6.9827,18.7178,0,37.7354-3.9531,56.5239-11.7493,17.1406-7.1125,33.7773-17.2788,49.4482-30.2166,29.5767-24.4182,53.4451-56.6692,67.24-90.8472,2.6951-6.0852,27.4114-65.071,23.0376-171.1628-.3127-7.5037-.7559-15.1028-.7747-15.4226-.0164-.2761-.3928-6.6367-.8655-13.1647-1.6121-22.0074-4.0974-44.7797-7.3882-67.6984-4.1562-28.9764-9.7566-59.1329-16.645-89.6294-6.0549-26.8632-13.3086-54.8783-21.5579-83.2593-13.7129-47.2091-30.7244-96.4352-62.0725-136.6041-34.5344-44.2515-83.5815-70.6703-131.2017-70.6703h0Z"/>
      </g>
      <path class="cls-1" d="M374.6876,132.6404c17.0011-8.4866,37.1629-12.807,55.7263-7.0524,10.6363,3.2242,19.1404,10.3089,29.138,14.6089,12.6471,5.453,26.6338,9.0024,40.477,9.3876,14.575.6255,27.5605-5.6131,36.9714-16.725-4.223,5.7319-9.5849,10.7521-15.9191,14.3099-12.8796,7.237-28.5708,6.4758-42.7116,4.3613-7.1575-1.1546-14.2981-2.8165-21.2459-5.3043-6.7586-2.3766-13.3605-5.8993-19.7385-8.8255-6.1836-2.8377-12.3662-4.22-18.9952-4.3737-13.1531-.3428-26.0222,4.2106-37.5217,11.0499l-6.1807-11.4368h0Z"/>
      <path class="cls-1" d="M173.8963,259.7626c-13.9339-2.9959-29.2704-1.7402-40.8965,6.9423-5.7495,4.1911-10.6316,10.0937-15.4317,16.267-6.158,7.7955-11.7873,15.5441-16.0447,24.2683-3.0224,5.6585-8.199,10.038-13.602,13.3348-6.973,4.3513-15.2621,5.4094-22.6571,8.1961-14.9275,5.6047-23.8612,20.3814-27.6265,35.3382,2.7456-15.5986,11.2899-31.5428,26.3433-38.3239,7.1472-3.3173,14.981-4.7677,21.3167-9.3194,4.4149-3.1672,8.5397-6.9993,10.8068-12.0138,0,0,2.4172-5.4029,2.4172-5.4029,3.4081-7.3911,7.9987-14.1433,12.4627-20.8386,4.621-6.8399,9.4654-13.6779,15.9553-19.1438,13.338-11.5369,32.2418-14.6167,49.2044-12.1084,0-.0001-2.2478,12.8041-2.2478,12.8041h0Z"/>
      <path class="cls-1" d="M432.6248,174.9231c20.7401,1.5269,41.6303,7.697,58.6403,19.8748,5.6268,3.9476,10.7198,8.0886,16.1236,11.6738,10.7914,7.0191,22.8642,13.0237,35.4213,16.0387,12.8849,2.8165,26.4611-.2242,37.88-6.6574-5.5159,3.7162-11.6382,6.6599-18.1689,8.401-13.6221,3.9764-27.0261,1.041-39.9409-3.7972-6.3438-2.3294-12.5994-5.1066-18.5713-8.4329-5.9832-3.3081-11.5706-7.1359-17.1313-10.3877-11.0144-6.5385-23.1403-10.5823-35.7503-12.4259-6.2759-.9057-12.6257-1.3201-18.9875-1.2962l.4851-12.991h0Z"/>
      <path class="cls-1" d="M265.1544,814.6956c-12.5639,14.3364-22.0943,31.4555-25.412,50.3858-1.1759,6.3335-1.9337,13.0639-3.3434,19.7536-2.9646,13.3247-7.4049,26.2466-14.6509,37.8836-7.396,11.3869-19.6618,19.1757-32.595,22.6349,12.333-4.4311,23.5128-12.7158,29.8069-24.3054,5.9304-11.4719,9.2822-24.5321,11.0283-37.2866.8211-6.4327,1.0186-12.9937,1.711-19.8323,1.3062-13.7956,5.6663-27.4425,12.1683-39.7077,3.2673-6.1619,7.0165-12.0572,11.1413-17.6541l10.1455,8.1282h0Z"/>
      <path class="cls-1" d="M175.0503,323.98c-9.7958-.9992-20.4049-.1031-28.0703,6.3211-7.7674,7.5784-13.6176,17.4487-20.0285,26.2916-3.1364,4.2606-6.7089,10.5957-10.5828,14.2109-10.8826,7.8528-23.5092,3.1455-34.6947-.0582-5.4866-1.7063-10.782-3.9371-15.7989-6.6296,5.2505,2.2037,10.6855,3.9011,16.2085,5.0569,9.2754,1.727,19.3503,4.4422,28.1016.0758,3.6299-1.6892,4.9646-4.9855,7.0991-8.6334,0,0,4.1572-7.4698,4.1572-7.4698,5.9718-10.1505,10.8726-20.707,18.6877-29.7819,4.7082-4.9193,10.5796-8.0132,16.9148-9.9601,6.199-1.8698,12.5213-2.4193,18.6909-2.4051l-.6846,12.9819h0Z"/>
      <path class="cls-1" d="M287.8072,852.7268c-7.773,6.0442-14.8254,14.0208-15.93,23.9612-.3809,10.8451,2.207,22.0236,3.6801,32.8457.6764,5.26,2.4667,12.2759,2.1646,17.5859-2.444,13.1952-14.8258,18.5145-25.1265,23.9243-5.1459,2.5565-10.5158,4.6014-16.0031,6.12,5.3186-2.0332,10.4211-4.5605,15.2129-7.54,7.8996-5.1589,17.0601-10.1549,20.3715-19.3575,1.4576-3.7288.1456-7.0343-.8307-11.1464,0,0-2.1543-8.2729-2.1543-8.2729-2.6939-11.4645-6.4426-22.4828-7.0606-34.4431.0063-6.8094,2.1144-13.1024,5.3501-18.8863,3.1907-5.6343,7.3824-10.3987,11.8533-14.6506l8.4727,9.8599h0Z"/>
      <path class="cls-1" d="M316.3504,118.7738c8.2924-10.9391,21.2675-20.4579,35.6815-20.3034,3.745.0847,6.8923.7691,9.798,1.136,5.947.8718,11.8791.689,17.9246.4504,8.6549-.36,17.7754-1.5211,24.4949-7.366,4.8253-3.8216,6.1842-9.8428,9.2682-15.1319,6.4301-11.1701,17.6542-18.6312,29.6529-22.41-5.7429,2.4015-11.157,5.5737-15.7788,9.6073-4.6064,4.0178-8.4878,8.8845-10.9922,14.3052-1.2942,2.7042-2.1189,5.5778-3.3162,8.6339-3.5722,9.7299-13.4094,15.717-23.1146,17.925-9.5362,2.061-19.16,3.2556-28.9313,2.8884-6.177-.4314-10.8585-.8238-16.2588,1.6041-7.6295,3.176-13.2922,9.2008-17.8518,16.2199,0,0-10.5764-7.5591-10.5764-7.5591h0Z"/>
      <path class="cls-1" d="M194.2147,204.8564c-10.8235-3.6901-22.5671-4.3224-33.8867-3.0682-9.1313.908-18.2683,3.8813-24.8308,10.3923-2.9059,2.7988-4.008,5.8876-6.3513,9.5104-9.1377,12.9905-26.3833,17.0896-41.373,15.9684-8.4256-.458-16.971-2.497-24.2869-6.9244-14.9357-8.6478-21.1421-27.2719-17.5917-43.5258-3.4408,27.2611,14.9159,46.3352,41.9952,45.5763,11.4313.0672,23.3852-2.8782,31.5765-11.0941,2.8871-2.8432,3.8817-5.6018,5.7656-9.4131,4.2604-8.2388,12.3741-14.0236,20.7832-17.4337,8.2502-3.2602,16.9075-4.3536,25.6089-5.0282,8.7788-.5387,17.6536.3636,26.2051,2.5525l-3.614,12.4875h0Z"/>
      <path class="cls-1" d="M275.3106,128.1128c.5792-12.3791,5.5734-26.4117,16.6723-33.5277,4.1525-2.7698,8.9811-3.7148,13.046-6.1797,7.0584-4.5496,11.9205-12.6676,13.8655-20.8605,2.1601-9.1268-.3303-17.4024-7.4608-23.4194-15.397-12.5619-14.4986-28.0449-5.1141-44.1255-5.4051,10.7737-7.952,25.4715.7787,34.9727,3.0451,3.4333,7.3616,6.0133,10.7844,9.3451,3.8199,3.646,6.3982,8.6854,7.2687,13.8737,1.7661,10.4549-1.5675,21.0872-7.5345,29.7201-2.0211,2.8833-4.503,5.5834-7.5179,7.854-2.7114,2.0756-6.1471,3.6068-8.982,5.0606-10.0704,5.1612-13.1112,16.7819-12.81,27.6008,0,0-12.9963-.3142-12.9963-.3142h0Z"/>
      <path class="cls-1" d="M491.1795,977.7332c-5.5518-9.6765-8.5165-22.1899-3.6351-32.8406,1.9923-4.3857,5.5595-7.8195,7.5089-12.1423,5.339-12.275,2.4968-31.7142-9.9675-38.4735-5.7911-2.8543-11.6146-2.266-18.0268-4.7522-14.8502-5.4275-20.8417-21.8857-21.168-36.4778-.0002.0001,12.9998-.0214,12.9998-.0214-.2546,5.7864.2488,11.4885,2.1343,16.3914,3.2838,8.6518,9.3587,11.8473,18.1031,13.7979,11.484,2.5322,19.2507,10.2668,22.346,21.4672,3.0566,11.5407,1.9307,24.683-5.6999,34.131-2.0188,2.4826-4.1462,4.6498-5.6987,7.376-5.4255,9.7856-3.4205,21.6895,1.104,31.5444h0Z"/>
      <path class="cls-1" d="M519.6551,774.5703c8.3116,9.1922,14.6546,22.6688,11.7928,35.5386-.9951,4.8909-3.7558,8.9643-4.9035,13.5773-2.7512,13.0736,4.3233,30.9609,17.8338,35.118,6.117,1.7753,12.293.0473,18.6758,1.0231,13.842,1.8217,21.9275,15.0499,24.8641,27.5016-3.7552-11.4535-12.304-23.6779-25.1938-24.2681-4.5797-.2912-9.461.92-14.2371.9669-5.2795.1047-10.6602-1.6551-14.9333-4.7232-8.6199-6.1747-13.7454-16.0681-15.5941-26.3985-.5971-3.47-.7387-7.1348-.1989-10.8704.4612-3.3828,1.821-6.8908,2.8079-9.9194,3.5096-10.7582-2.5206-21.1468-10.3572-28.612,0,0,9.4436-8.9339,9.4436-8.9339h0Z"/>
      <path class="cls-1" d="M231.7444,158.8336c-3.4565-11.7474-9.9448-23.2539-21.5767-28.006-5.8873-2.4419-12.1838-1.9024-18.7412-1.7592-7.1096.2555-14.782-.4688-21.7078-2.7826-28.7847-9.4691-49.5215-34.4503-39.0587-65.4724-7.6198,30.1692,12.6637,52.2242,40.7932,59.2082,6.463,1.5842,12.8502,1.6617,19.4925.9361,7.1655-.803,15.1298-1.7705,22.4329.6641,7.7334,2.3759,14.3067,7.3031,19.3582,13.2441,5.0698,5.9529,8.6294,12.8083,11.3064,19.7561l-12.2988,4.2117h0Z"/>
      <path class="cls-1" d="M196.2449,398.3953c-9.3265,3.9536-17.704,10.4393-22.7288,19.2818-1.6362,2.9417-2.9634,6.4801-5.4326,9.2631-3.8343,4.399-9.1727,7.2279-14.559,8.7257-12.07,3.0331-25.1166,1.4725-35.6148-4.9918-3.8589-2.4826-7.2061-5.9165-11.8847-5.9729-7.7794-.5845-14.9691,3.9162-20.6918,8.8984-6.1687,5.1678-10.7691,11.9814-13.4487,19.6625,2.0085-7.875,6.2103-15.3749,12.072-21.1561,5.854-6.0371,13.3406-11.3872,22.1675-11.4661,5.3546-.4227,10.1403,3.0115,14.4664,5.4837,4.0017,2.1476,8.3634,3.2283,12.8953,3.6995,9.8293.8939,21.0278-.7731,27.3072-8.7265,1.615-2.3041,2.3078-5.1086,3.623-7.929,2.234-4.968,5.435-9.5189,9.101-13.5042,4.8814-5.3276,10.7915-9.6605,17.0999-12.9866l5.6282,11.7184h0Z"/>
      <path class="cls-1" d="M470.9554,222.5642c11.463.8546,23.0255,4.0336,32.5034,10.6901,6.1973,3.984,10.1793,10.3425,15.6904,14.7758,9.34,7.268,20.7415,13.4576,32.931,12.2277,13.913-1.5332,28.7744-9.7791,27.2417-25.7168-.1514-13.1993,12.2954-21.5711,23.5514-25.4131-9.6818,3.4635-20.1057,9.5483-22.8153,20.1862-1.3793,5.1447.4183,10.7246-1.9144,15.6851-3.5868,8.4024-12.172,13.241-20.6025,15.7154-10.4858,3.3611-21.9414,1.162-31.6181-3.6539-6.5678-2.9819-12.9688-7.1305-18.1537-11.9959-7.4009-6.6653-17.0108-9.8083-26.7956-10.1291-3.2278-.0718-6.4631.123-9.674.6237l-.3442-12.9954h0Z"/>
      <path class="cls-1" d="M217.2918,441.7573c-10.6849-.3258-22.7227,1.1849-28.9025,10.6243-2.8528,5.5579-5.8787,11.8012-9.67,16.8581-5.9596,8.4824-13.2266,18.6786-23.9518,22.0387-8.7784,1.9679-17.7175,1.9609-26.6217,2.728-10.4937.7068-18.0712-.3634-25.2854,8.8346-1.9481,2.461-3.4764,5.2711-4.6905,8.2098.9604-3.0305,2.2498-5.9899,4.0322-8.686,6.7004-10.1768,14.7829-9.9781,25.6107-11.5914,6.2465-.9446,12.5905-1.9369,18.7497-3.0732,2.2317-.4386,4.439-.8765,6.5071-1.6367,3.2176-1.384,6.089-3.6478,8.5215-6.1875,3.9905-4.2312,7.0725-9.5934,10.3122-15.0584,1.5505-2.6532,2.9722-5.3154,4.1836-8.0424,2.0865-4.6203,3.3768-9.8957,6.858-13.9341,3.5884-4.384,8.4415-7.7263,13.563-9.8574,6.7971-2.8406,13.8596-3.8798,20.7192-4.2265l.0647,12.9999h0Z"/>
      <path class="cls-1" d="M494.7237,269.3093c12.3336,8.7965,25.6045,16.6699,39.5315,22.754,4.1157,1.6937,7.7772,3.1562,12.0838,3.347,7.1736.2533,14.5213-1.3183,20.8897-4.6919,2.4839-1.3839,5.0174-3.0523,7.0718-4.9984,3.4719-3.1338,5.4855-7.8489,9.5152-10.5532,12.1296-8.2402,28.7259-7.2812,41.4011-1.1784-12.4602-4.7488-28.4801-4.5514-39.1414,4.0525-3.5569,3.0017-4.9923,7.684-8.2718,11.0692-6.8158,7.4859-16.4492,11.9582-26.3705,13.5037-10.1251,1.9908-20.1751-1.9008-29.3731-5.4803-11.8838-4.6914-23.3938-10.3916-34.4355-16.9337l7.0994-10.8904h0Z"/>
      <path class="cls-1" d="M492.3257,821.6626c-.8322,15.1261-.3826,30.5501,1.9291,45.5713.7713,4.3832,1.4952,8.2592,3.6382,11.9993,3.6241,6.196,8.8838,11.5624,15.1411,15.1372,2.4981,1.3582,5.2634,2.6056,8.0066,3.3,4.5053,1.2563,9.5657.4344,14.0066,2.3917,13.4518,5.8381,21.5217,20.3719,23.1482,34.3455-2.4257-11.91-9.5574-23.3894-20.3352-29.2229-2.5835-1.3309-5.2697-2.2832-8.1643-2.3592-3.0316-.0588-6.5111.2317-9.6448-.3817-9.9708-1.7527-18.9041-7.4981-25.5181-15.0527-7.0997-7.4888-9.1893-18.0609-11.0868-27.7471-2.3954-12.5497-3.7384-25.3232-4.1197-38.1518l12.999.1704h0Z"/>
      <path class="cls-1" d="M252.0237,783.4775c-4.4885,12.0237-9.8699,23.686-16.1755,34.7979-3.3328,5.7545-6.5003,11.2785-11.1188,16.346-7.8159,7.809-18.8245,12.2261-29.7751,12.8146-4.1635.1614-8.4961-.2577-12.4388-1.6453-4.2692-1.7065-8.2874-2.7807-12.8401-1.903-12.0845,2.0563-22.5233,10.6275-28.6563,21.1257,6.0307-12.7033,18.3572-23.8742,32.9675-25.0718,4.8365-.424,9.3606,1.982,14.0314,2.2422,11.2186.6546,23.2487-4.4101,30.589-12.9036,3.4418-4.5086,6.1094-10.1735,8.5641-15.4506,5.094-11.1231,9.2368-22.6438,12.4904-34.3731l12.3623,4.021h0Z"/>
      <path class="cls-1" d="M506.8133,312.1444c15.8151,1.2732,31.4935,6.326,44.9216,14.4981,8.0616,4.81,14.3531,1.6762,21.9629-2.2299,10.8919-5.3978,21.8013-10.7888,33.2798-14.9788,2.8994-1.0131,5.8701-1.9535,9.0506-2.3527,9.421-.9537,18.3315,4.8451,24.2488,11.5573-6.4076-5.9827-14.9902-10.7336-23.8662-9.1503-8.5656,2.2035-16.3123,7.1005-24.0856,11.3412-5.2226,2.984-10.328,6.0916-15.4779,9.2695-5.4144,3.3834-11.8057,7.3816-18.6351,7.0081-6.5862.2015-12.7931-3.8357-18.5434-5.988-10.6702-4.0864-22.094-6.0543-33.4097-5.9864l.5542-12.9882h0Z"/>
      <path class="cls-1" d="M507.0796,338.8596c12.6036,1.5769,25.398,6.1111,34.9685,14.8045,4.6223,4.0425,7.8829,9.1262,11.9587,13.3214,3.8263,3.9637,8.5926,7.4392,13.0454,10.6273,14.3014,10.2346,24.5456,4.428,37.7978-3.8004,7.4906-4.5184,14.3856-9.9354,20.6182-16.1177-3.7644,4.4928-7.8843,8.7179-12.3401,12.5945-4.4675,3.8829-9.2302,7.3182-14.1011,10.7205-7.8277,5.6895-17.054,8.8541-26.7132,5.9136-6.0424-1.7825-11.1917-5.2155-16.3613-8.4716-5.1065-3.1461-10.0475-7.5942-14.0907-11.8826-5.6038-5.9577-12.3001-10.0262-20.0753-12.3141-5.0595-1.5163-10.3996-2.2342-15.7941-2.4411l1.0872-12.9545h0Z"/>
      <path class="cls-1" d="M227.4578,468.4791c-17.1447,7.415-23.2084,19.1726-26.1831,37.0685-.575,3.0434-1.2798,7.3212-1.7132,10.312-.5956,3.8053-.5694,6.9176-1.4224,10.9585-3.6075,12.5603-20.5997,21.6181-32.9809,17.1132-.7821-.3598-2.0366-.8536-2.7448-1.3391-7.5714-4.2597-9.6139-14.4326-18.2903-16.5914-10.3711-2.2938-20.1321,5.3483-27.7611,11.5725,9.708-9.898,25.9618-21.4578,38.0905-8.3241,6.2699,6.977,9.9262,12.5623,20.1693,10.441,6.6846-1.6174,13.0257-6.2665,15.8708-12.5912,1.2148-3.6153.5527-8.0603.9826-12.026.2051-3.1978.6275-7.5953.9532-10.8006.8003-7.4482,1.9466-14.9746,4.9167-22.0922,4.4294-11.1504,14.0863-20.0154,24.432-25.394,0,0,5.6808,11.6929,5.6808,11.6929h0Z"/>
      <path class="cls-1" d="M523.0821,374.8549c12.2757,5.3737,23.3847,13.1824,32.0862,23.2923,3.2462,3.6552,5.6877,8.0243,9.1869,11.0973,8.8839,7.1789,21.6648,9.944,32.865,6.5266,9.3684-2.8329,16.7913-10.4991,20.5886-19.5156-1.4658,4.7778-3.8202,9.3593-7.1074,13.2909-12.0494,14.8544-35.4037,15.7145-50.8011,5.497-2.3867-1.6158-4.4153-3.6862-6.175-5.557-3.3633-3.6681-6.5017-6.8067-10.4107-9.729-7.4822-5.7197-15.9502-9.9713-24.8218-12.7396l4.5891-12.163h0Z"/>
      <path class="cls-1" d="M239.9869,508.7848c-8.5943,2.4578-17.309,6.7661-19.9424,15.6837-1.1144,4.6853-1.7043,11.1623-3.6694,15.995-2.0768,5.3679-4.2735,10.4941-7.6569,15.2644-10.6554,15.0332-29.9857,15.5898-46.4338,12.2842-5.3288-1.1023-10.4697-2.9101-15.2841-5.2885,5.0303,1.8817,10.2622,3.1379,15.5366,3.6835,18.3514,1.682,37.4956-1.1746,43.783-21.012,1.688-4.7054,3.1323-9.5617,3.4681-14.5748.2673-4.3148.3719-9.0423,2.0218-13.1894,1.7034-4.5837,4.7435-8.6908,8.3086-11.8974,4.7553-4.2415,10.2124-7.0772,15.6826-9.2564l4.1858,12.3077h0Z"/>
      <path class="cls-1" d="M532.1636,420.8344c13.0275,2.84,25.6559,9.4673,34.3369,19.7928,4.0378,4.5323,6.7981,10.5326,10.5375,14.7642,7.6477,8.1355,21.0066,7.4232,31.3404,5.0444,6.1004-1.0281,11.1054-3.5407,16.7724-6.1212,11.5463-4.8177,24.7616-4.521,36.5728-1.0524-11.7964-2.3323-24.4582-1.6115-35.1924,3.9948-5.1932,2.9945-10.9981,6.3943-16.9679,7.9075-5.8908,1.7864-12.2291,3.3323-18.923,3.1545-11.6-.3478-19.3126-5.3254-25.7615-14.6198-5.0403-6.8926-11.3632-12.2499-19.1172-15.6744-5.0087-2.2569-10.392-3.6694-15.9247-4.4002l2.3267-12.7902h0Z"/>
      <path class="cls-1" d="M247.1343,543.2798c-12.7898,5.9309-23.3281,16.4005-28.5111,29.6952-2.9191,6.7897-4.5102,15.3693-8.9744,21.8391-8.1176,12.2921-24.7646,11.5989-37.3278,8.1638-4.9994-1.2993-9.8466-3.0076-14.6064-4.884,14.1989,3.7871,38.4137,9.324,47.1141-6.2988,3.4345-6.6316,3.7896-13.9938,6.1136-21.4697,1.4788-5.1668,3.597-10.3522,6.4664-15.1185,5.6504-9.5859,13.9778-17.5477,23.5-23.3394l6.2256,11.4124h0Z"/>
      <path class="cls-1" d="M540.4012,457.0931c15.6436,10.4035,28.927,25.1526,36.1715,42.5851,1.9375,4.6807,4.4331,7.6693,8.5303,10.1878,5.3295,3.3227,11.5725,5.0058,17.829,5.812,5.7187.7506,11.6243.7466,17.5015.3949,5.924-.3508,12.3442-1.6979,18.1689.4583,5.8931,2.0259,10.6118,6.3042,13.9299,11.2372-3.7524-4.6239-8.7573-8.3094-14.394-9.6799-5.6223-1.51-11.3376.3174-17.3411,1.214-12.125,1.8284-25.1433,2.3057-36.761-2.5466-4.6278-2.0362-9.1477-4.9595-12.0825-9.1971-4.1493-6.3881-7.116-12.6778-12.1624-18.3474-7.2622-8.6358-16.2996-15.606-26.1916-21.0392l6.8015-11.0789h0Z"/>
      <path class="cls-1" d="M252.3538,578.6667c-9.6477,13.7359-22.6042,25.6658-38.0613,32.5099-6.7985,3.3338-14.7873,4.6303-19.9446,10.3363-1.5507,1.7484-2.8971,3.7973-3.8415,5.9711-2.0334,4.6606-2.1274,10.2811-3.9967,15.2141-3.7631,10.4066-12.0634,18.4022-21.6371,23.3718,4.4397-2.9321,8.4507-6.4778,11.6712-10.5947,3.1912-4.1189,5.6443-8.8132,6.855-13.7168,1.3432-5.227.7948-10.5969,2.5295-15.9502.8977-2.8137,2.241-5.4238,3.9771-7.8462,3.3131-4.7898,8.8664-7.8818,13.8243-10.3366,6.8991-3.4233,13.3961-7.3838,19.0807-12.4879,7.5191-6.6259,13.6311-14.7153,18.5765-23.4514l10.967,6.9805h0Z"/>
      <path class="cls-1" d="M546.3182,521.2787c12.1316,1.1467,24.6337,5.8561,33.0205,15.1375,3.998,4.0643,6.5402,10.138,9.1568,14.6322,6.9114,10.4269,22.7425,11.4468,33.8182,7.7773,2.4999-.8455,4.7327-1.8866,6.8895-3.4748,2.2372-1.7112,5.0731-3.037,7.8091-3.8018,8.1646-2.4186,17.0012-.9523,24.7114,2.0178-7.8562-2.1435-16.3267-2.7685-23.9189.2872-2.4899.9912-4.6024,2.2218-6.6011,4.0584-2.1077,1.912-4.7606,3.5205-7.3846,4.6864-10.7868,4.7531-23.9031,5.3408-34.5508-.4883-2.7546-1.5209-5.4387-3.7583-7.3684-6.3177-1.9709-2.533-3.3591-5.0525-4.7898-7.1-4.0798-6.0752-10.1553-10.1424-17.0671-12.3445-4.5847-1.4575-9.4746-2.0799-14.4563-2.0904l.7314-12.9794h0Z"/>
      <path class="cls-1" d="M246.0677,626.5952c-10.3946,2.8531-21.6661,7.8754-25.8174,18.3298-1.5866,4.2701-1.813,10.146-3.8952,14.6574-4.215,9.8308-11.5217,18.6645-21.1819,23.469-11.6427,5.9251-25.9687,4.8188-37.4585-.8387,22.2415,7.8925,43.2388-.9089,51.2324-23.4641,2.0936-5.4489,1.2483-10.5444,2.7721-16.4882.7616-2.935,1.9904-5.6162,3.5111-8.1596,3.0923-5.0654,7.4348-9.1377,12.0723-12.29,4.6541-3.1838,9.635-5.5698,14.6729-7.5547l4.0923,12.3391h0Z"/>
      <path class="cls-1" d="M656.6172,598.0938c-17.4149,26.5388-42.7582,22.2381-63.3771,2.0147-2.0753-1.9287-3.9896-4.0798-5.7711-6.3132-3.6001-4.4336-6.2144-9.627-9.1667-11.991-7.166-5.6176-16.652-3.898-24.799-.6663,0,0-4.1548-12.318-4.1548-12.318,11.8628-3.6911,27.7482-3.4425,36.5842,6.8977,3.384,3.9946,5.3901,9.137,8.1426,13.3476,2.683,4.2497,6.1398,8.1063,9.7046,11.6201,17.4418,17.3072,37.2662,16.7738,52.8374-2.5916h0Z"/>
      <path class="cls-1" d="M552.1429,602.2207c19.384,3.109,34.6427,12.9095,43.1326,30.8652,6.2544,13.0455,23.3688,17.218,36.2949,12.3925,6.132-2.3345,11.223-6.724,14.8342-12.2867-2.6924,5.3976-6.9525,10.2965-12.2803,13.4041-9.9359,5.8997-22.7755,5.9936-33.1743,1.0255-2.4016-1.1124-4.7073-2.6888-6.7207-4.5552-3.7911-3.4841-6.2758-8.0176-9.2703-11.8408-5.3541-6.9802-12.9584-11.648-21.3242-14.0381-4.1724-1.1821-8.5132-1.8237-12.926-2.0457l1.4341-12.9207h0Z"/>
      <path class="cls-1" d="M245.8492,667.0039c-7.9825,1.7485-15.672,5.8785-19.9014,12.8972-2.2614,3.7946-3.5185,8.6667-5.629,12.8723-6.7131,13.4846-18.5541,25.6173-33.6169,28.9468-9.6462,2.2374-19.6964,1.2336-28.9873-1.72,25.8562,5.1214,45.8446-5.6643,55.1115-30.369,1.6546-4.6393,2.2619-9.3686,4.439-14.1656,2.3767-5.2427,6.0659-9.635,10.4473-13.1411,4.3794-3.5046,9.3916-6.0269,14.4814-7.7961l3.6553,12.4756h0Z"/>
      <path class="cls-1" d="M555.6617,644.3328c6.4087,6.2224,13.2476,12.0591,20.4412,17.4783,3.6812,2.7522,7.3347,5.5391,10.9763,8.0339,3.5237,2.354,6.8373,4.5216,11.0124,5.1551,6.547,1.3526,12.7277-1.4537,19.095-3.0021,11.4816-2.8454,23.9867-.8897,34.3242,4.0873-10.8729-3.6702-22.5641-4.1261-33.1553-.1966-4.4045,1.619-8.4926,3.8547-13.2512,4.9495-5.0527,1.1357-10.5386.8829-15.4138-.9468-6.7914-2.5708-12.8269-6.4825-18.9712-9.9514-8.1272-4.7384-15.9963-9.9869-23.5292-15.7467l8.4717-9.8606h0Z"/>
      <path class="cls-1" d="M551.7186,688.3826c4.5419,10.1191,12.1754,19.775,23.3235,22.375,7.0593,1.5769,14.329.8405,21.7463.4171,5.135-.3407,10.0803-.6949,15.0771-1.4342,3.7542-.4996,7.9962-1.5048,11.967-.9507,12.1289,1.5457,21.3121,10.7176,27.6782,20.4019-7.6041-9.2554-18.8151-18.3529-31.3984-16.476-7.2613,1.7562-15.1265,3.8037-22.5413,4.9112-10.4753,1.822-22.1921,4.021-32.5888-.2271-5.5181-2.1444-10.3806-5.5651-14.4761-9.5758-4.1096-4.0183-7.4802-8.626-10.3198-13.4402l11.5322-6.0012h0Z"/>
      <path class="cls-1" d="M249.0054,700.8308c-5.6574,13.8474-15.7092,27.4242-30.6366,32.1239-5.6821,1.7908-11.1999,1.7692-16.744,2.8302-7.779,1.4141-15.3853,4.3642-22.6282,7.5462-15.8286,6.8685-23.1514,22.1884-21.8896,39.0308-.8945-5.4118-.9961-11.0275.0371-16.5375,2.792-15.4196,13.3896-24.4704,27.0087-30.7676,7.4724-3.9163,15.7777-6.7954,24.0233-8.3777,9.9151-1.7009,17.6826-7.9916,22.7047-16.5468,2.5113-4.2137,4.4083-8.8848,5.9017-13.7288l12.2229,4.4272h0Z"/>
      <path class="cls-1" d="M542.5916,736.0898c4.2998,8.0019,10.351,16.4925,19.8239,17.1825,4.5693.1248,9.7343-2.5964,14.4559-3.9639,5.4992-1.7718,11.1733-3.0255,16.811-3.8085,8.3046-1.0266,17.2458-2.761,25.7236-.6339,5.7393,1.3489,10.5074,5.5073,14.3953,9.4747,6.0075,5.7066,14.8537,6.7728,22.8158,4.966-7.8507,2.6873-17.5577,2.3123-24.3637-3.0836-6.7543-5.7981-12.4155-8.5736-21.4252-7.4933-10.3527,1.4375-21.389,4.0412-31.1083,8.1873-4.5613,1.8952-9.3203,4.7828-14.3708,5.7508-7.7264,1.5256-15.6282-1.4502-21.5781-6.0609-5.1741-3.9809-9.0198-8.886-12.3621-13.8882l11.1826-6.6292h0Z"/>
      <path class="cls-1" d="M207.9412,177.9247c-19.9142-14.1469-48.0164-23.5876-72.5832-20.4243-3.1988.4088-6.3304,1.0375-9.3814,1.9507-4.6984,1.3029-9.4695,4.0136-14.5447,4.8941-19.9803,2.8869-35.2447-14.3663-45.5569-29.1816,11.314,13.7607,29.7838,31.8722,48.9502,23.2137,18.4591-10.3326,40.7427-11.0119,60.9947-6.4708,13.7099,2.7099,27.0673,7.8461,39.2158,15.1247l-7.0945,10.8934h0Z"/>
      <path class="cls-1" d="M184.7432,365.3706c-10.1364,1.8682-19.8729,6.2863-26.8454,13.9413-3.8683,4.0626-5.8105,8.4971-8.6018,13.6543-1.8277,3.4987-5.2593,7.2631-9.2541,8.9509-8.2603,4.0921-17.2811.1342-25.174-2.2814-5.3547-1.6595-10.8015-2.6465-16.3892-2.8341-5.5754-.1523-11.2136.4924-16.7026,1.8971-5.4932,1.3975-10.821,3.5463-15.9011,6.2053,14.5462-9.7894,32.9073-13.9303,50.1629-10.0003,6.3955,1.0831,13.1362,3.9061,19.2604,1.4548,6.309-2.4848,7.2963-9.2355,10.1386-15.083,1.3228-2.8279,2.9952-5.6221,4.9351-8.1626,3.8435-5.1094,8.6685-9.4001,14.0554-12.7913,5.3818-3.3933,11.2727-5.8638,17.2671-7.5885l3.0486,12.6375h0Z"/>
      <path class="cls-1" d="M637.4046,816.6516c-29.1734,6.0178-52.9867-2.0684-77.7357-17.3384-4.7206-3.0563-8.9801-7.2169-12.7915-11.1421-5.0314-5.3566-9.748-8.4185-17.1249-8.09-2.1754.0518-4.3476.3755-6.5009.9358l-2.5027-12.7568c9.3788-1.4685,20.2369.2451,27.4131,6.8992,6.1603,5.6557,9.8374,12.509,16.2601,17.5645,22.3574,17.0996,44.1543,26.8767,72.9825,23.9279h0Z"/>
      <path class="cls-1" d="M157.7147,827.7893c15.2914-.051,35.5719-4.6814,37.0587-22.8334.5969-7.9332-.786-17.0723.6949-25.3963,3.3153-21.4565,21.3813-36.6858,39.6992-46.0555-.0002-.0002,5.4532,11.8008,5.4532,11.8008-4.9158,1.9939-9.6885,4.2703-14.1719,6.9468-11.0666,6.4724-20.5652,16.1878-23.8248,28.8136-2.1937,8.1048-1.5084,15.9498-3.0296,24.6161-3.7639,19.985-24.692,23.7298-41.8798,22.1079h0Z"/>
      <path class="cls-1" d="M182.2796,231.2581c-21.5168-4.1368-45.1645-.0936-63.1055,12.8166-1.559,1.193-3.2801,2.5146-4.7338,3.8165-4.247,3.684-7.239,8.0038-10.6462,12.5854-8.9733,11.5525-23.7748,17.2441-37.919,18.5821,10.9507-2.0375,21.6163-6.8679,29.581-14.611,4.1219-3.9209,6.3284-8.804,9.4817-13.599,13.5724-19.8961,37.6833-30.2432,61.0867-32.5307,6.0045-.5643,12.0875-.5251,18.1339.0766l-1.8787,12.8635h0Z"/>
      <path class="cls-1" d="M408.285,147.4293c34.4553-5.4975,61.4136,8.9855,88.12,28.4725,8.0181,5.4414,14.7406,14.0867,24.3406,6.562,2.4969-1.9627,4.8462-4.5781,7.7208-6.6377,8.4374-6.4162,20.1498-6.6636,29.729-3.348-6.5571-1.6005-13.5498-1.7954-19.7937.4062-3.1035,1.1101-5.9915,2.6848-8.4199,4.851-2.4939,2.0941-4.4966,4.7443-7.1292,7.203-10.8661,9.7401-19.7478,1.6955-29.6269-4.3212-14.1056-8.4941-28.9012-16.6078-44.874-20.5134-12.4388-3.0691-25.3157-2.7477-37.6997.1083l-2.3669-12.7827h0Z"/>
      <path class="cls-1" d="M252.9141,138.9677c-1.3818-13.5073-8.1036-23.1275-19.1731-30.7032-5.7122-4.1597-11.0598-8.0162-17.155-10.9968-1.7496-.8827-3.6965-1.8602-5.2991-3.2351-10.1694-9.5586-11.9511-25.15-7.9163-37.9103.3785-.8975.5833-1.8719,1.0894-2.8124,1.1035-1.9618,3.4798-4.9469,4.7113-6.7506,4.057-5.7133,8.1104-11.4882,12.0033-17.3091,1.8955-2.9252,3.8537-5.8458,5.0254-9.0033,2.2542-6.5309,1.1736-13.9538-1.5828-20.2467,1.6367,3.1113,2.8909,6.4687,3.4858,9.992,1.4799,7.8353-.9823,13.9156-4.845,20.5226-3.47,6.1671-7.0528,12.212-10.6916,18.2755-.787,1.3517-3.299,5.2628-3.8892,6.5296-1.2605,3.7759-1.7238,7.925-1.5822,11.9106.3125,7.6623,2.9742,15.8608,8.9977,20.762,1.1614.8082,2.4564,1.2946,3.8885,1.8936,5.0336,2.0128,10.0111,4.7018,14.657,7.5175,7.9784,4.7541,16.4142,9.9906,21.9286,17.8449,4.7401,6.4271,7.7589,14.0424,9.2005,21.7705l-12.8533,1.9486h0Z"/>
      <circle class="cls-2" cx="257.2385" cy="427.2295" r="12.861"/>
      <circle class="cls-2" cx="374.6392" cy="286.7991" r="18.1988"/>
      <circle class="cls-2" cx="302.2165" cy="579.9219" r="33.384"/>
      <circle class="cls-2" cx="334.982" cy="696.6001" r="18.1988"/>
      <circle class="cls-2" cx="204.2295" cy="332.6841" r="6.4305"/>
      <circle class="cls-2" cx="323.8442" cy="477.4332" r="6.4305"/>
      <circle class="cls-2" cx="494.8779" cy="565.0609" r="6.4305"/>
      <circle class="cls-2" cx="412.352" cy="456.3554" r="14.6473"/>
      <circle class="cls-2" cx="475.6618" cy="429.8286" r="14.6473"/>
      <circle class="cls-2" cx="475.6618" cy="694.6311" r="9.0784"/>
      <circle class="cls-2" cx="436.0776" cy="720.3948" r="9.0784"/>
      <circle class="cls-2" cx="363.5014" cy="539.0833" r="11.1378"/>
      <circle class="cls-2" cx="424.9398" cy="628.9721" r="11.1378"/>
      <circle class="cls-2" cx="211.4885" cy="262.492" r="11.1378"/>
      <circle class="cls-2" cx="274.3575" cy="337.8736" r="8.5811"/>
      <circle class="cls-2" cx="457.3891" cy="378.9115" r="7.3643"/>
      <circle class="cls-2" cx="302.2165" cy="781.4671" r="11.1378"/>
      <circle class="cls-2" cx="436.0776" cy="309.5469" r="11.1378"/>
      <circle class="cls-2" cx="491.174" cy="760.5031" r="11.1378"/>
      <circle class="cls-2" cx="447.2154" cy="259.7364" r="5.5689"/>
      <circle class="cls-2" cx="355.8391" cy="735.0421" r="5.5689"/>
      <circle class="cls-2" cx="334.982" cy="364.1484" r="11.1378"/>
      <circle class="cls-2" cx="263.8683" cy="220.1415" r="23.2871"/>
      <circle class="cls-2" cx="457.3891" cy="535.3787" r="19.7801"/>
      <circle class="cls-2" cx="370.3568" cy="187.78" r="19.7801"/>
      <circle class="cls-2" cx="406.7543" cy="797.7956" r="22.2756"/>
    </g>
  </g>
</svg>