<?xml version="1.0" encoding="UTF-8"?>
<svg id="Capa_2" xmlns="http://www.w3.org/2000/svg" viewBox="0 0 661.7237 1749.7726">
  <defs>
    <style>
      .cls-1 {
        fill: #70569b;
      }

      .cls-2 {
        fill: #5f488c;
      }

      .cls-3 {
        fill: #9570c2;
      }

      .cls-4 {
        fill: #b29ad8;
      }

      .cls-5 {
        fill: #a486ce;
      }

      .cls-6 {
        fill: #8566b2;
      }
    </style>
  </defs>
  <g id="Capa_1-2" data-name="Capa_1">
    <g>
      <path class="cls-4" d="M379.3727,847.421c-6.4847,108.0266-94.6502,167.212-182.9836,210.5996-51.4129,26.058-105.5915,53.0021-143.3416,97.4484-41.6885,47.5781-49.0961,117.9018-15.4118,172.021,22.9526,36.7766,60.2558,61.888,85.4111,97.1707,28.6878,39.0392,30.1359,83.7818,8.2039,126.3809-15.2101,29.237-39.0602,53.8059-68.1866,69.0855-9.6914,4.9833-19.9551,8.8524-30.5545,11.2196,10.513-2.7334,20.5835-6.9399,30.0188-12.2114,56.2568-31.7684,98.2499-107.2883,66.0402-169.234-18.9501-35.9776-53.6581-59.5095-81.1586-88.9571-59.4461-59.3533-63.1697-153.0026-10.1496-218.2127,38.484-48.6975,93.6179-78.8882,146.8673-108.1858,57.7184-31.7862,120.04-69.3583,147.0104-131.8311,7.661-18.0105,11.6024-37.3244,12.2105-56.9973l36.0241,1.7036h0Z"/>
      <path class="cls-4" d="M408.0983,847.0861c-2.2324,68.0938-29.0347,132.9091-63.5039,190.4338-21.2116,37.2888-46.7196,71.5931-62.8827,111.34-24.1786,58.6104-28.8184,121.6568,21.5223,167.6449,35.3881,34.3268,87.8126,59.7176,104.6654,109.8869,19.6507,58.6413-20.8044,115.2881-17.655,173.9067,2.6156,42.2679,26.7054,81.8113,60.9411,106.2637,17.3599,12.3169,37.5169,20.7911,58.6771,23.7006,0,.0001-.384,3.2237-.384,3.2237-21.8902-2.3057-42.9737-10.3937-61.3022-22.547-37.9696-25.3436-64.9278-68.1193-67.6353-114.1215-4.224-57.8902,37.2913-121.7071,8.6471-175.6572-10.8295-20.5968-29.0355-35.8579-47.4787-49.9351-35.6667-26.5647-76.2515-52.534-92.004-96.7088-23.5904-66.1242,3.7174-137.8691,36.9077-195.5085,31.8298-55.8861,64.6617-109.8197,78.2332-172.1259,4.3919-20.0127,6.6744-40.3701,6.968-60.8301l36.2837,1.0337h0Z"/>
      <path class="cls-4" d="M432.4518,830.7438c-14.6417,121.8611,44.5576,247.4585,3.434,367.8247-13.1695,38.4953-36.9769,72.3213-62.3075,103.6674-42.7778,53.8253-96.6306,106.6493-103.9116,178.2812-7.5378,71.1764,28.2437,138.6779,26.2858,209.7159-.4823,20.4253-4.703,40.6822-12.2089,59.5396,14.2834-38.4746,11.3266-80.2475,1.9964-119.4766-11.4036-49.4702-29.8082-98.8954-26.2138-150.6259,4.4982-74.1546,57.6949-131.8186,99.7432-188.5034,22.7813-30.5272,44.1366-62.8335,55.2396-99.5279,10.9484-36.2935,12.078-74.7468,8.7633-112.3217-7.4488-83.3629-34.3863-167.2474-26.7901-252.4829,0,0,35.9695,3.9097,35.9695,3.9097h0Z"/>
      <g>
        <path class="cls-3" d="M366.0623,885.4923c-13.312,0-26.4585-2.1787-39.0737-6.4758-7.9229-2.6982-15.7734-6.2883-23.3335-10.6709-33.104-19.186-55.1133-58.0806-60.3853-106.7104-3.1611-29.0557-.5879-58.3718,1.9004-86.7229l.5039-5.7642c.7549-8.6675,1.606-18.7485,2.1641-28.72.2808-5.0288.4863-10.0134.6104-14.8152,1.7871-65.9233-9.5254-129.8875-32.7148-184.9866-4.5923-10.9146-9.8267-21.9607-14.8892-32.6431-14.2612-30.0942-29.0083-61.2131-32.5186-95.2671-3.5977-34.8495,5.1504-72.5383,24.6328-106.1226,28.1143-48.4524,75.1787-80.0173,122.8267-82.3773,1.9927-.0985,4.0171-.1486,6.0186-.1486,44.7183,0,90.9668,25.0524,123.7148,67.0151,30.3604,38.9031,46.9907,87.1113,60.4395,133.4122,8.1953,28.1935,15.4004,56.0192,21.4146,82.7028,6.8325,30.2483,12.3867,60.1545,16.5073,88.8843,3.2598,22.7041,5.7212,45.2556,7.3159,67.0271.4688,6.4712.853,12.9712.8569,13.0361.0049.0811.458,7.8423.7671,15.2595,4.354,105.6216-20.375,162.8062-22.2969,167.0732-13.0151,32.3179-36.5303,64.1001-64.5371,87.2224-31.5308,26.032-66.084,39.7917-99.9238,39.7917Z"/>
        <path class="cls-4" d="M321.8034,131.568c46.0314-.001,89.3243,27.6372,117.803,64.1289,29.6399,37.9805,45.7099,84.6201,59.1499,130.8901,7.9,27.1802,15.07,54.6201,21.3,82.2603,6.6,29.2197,12.15,58.6699,16.4,88.2998,3.17,22.0801,5.6301,44.2603,7.26,66.5103.4699,6.4897.85,12.9297.85,12.9297,0,0,.45,7.6899.76,15.1299,4.41,106.9702-21.7,163.8101-21.7,163.8101-24.8046,61.7529-89.1141,122.4653-157.564,122.4653-12.157,0-24.4352-1.9126-36.656-6.0752-7.37-2.5098-14.71-5.8398-21.99-10.0601-34.68-20.1001-52.37-61.1797-56.69-101.0298-3.29-30.2402-.22-60.6401,2.42-91.0303.84-9.6499,1.64-19.2998,2.18-28.9497.28-5.0103.49-10.02.62-15.04,1.74-64.1899-8.41-128.9502-33.3-188.0903-17.43-41.4297-42.25-81.0498-46.86-125.77-3.63-35.1597,5.92-71.0098,23.66-101.5898,24.55-42.3101,67.85-76.23,116.71-78.6499,1.8856-.0933,3.7698-.1392,5.6471-.1392M321.8056,116.568v15l-.0007-15c-2.1275,0-4.2761.0532-6.3892.1572-25.9476,1.2852-52.0067,10.6494-75.3616,27.0801-21.3731,15.0361-39.9015,35.4463-53.582,59.0234-20.2724,34.9458-29.366,74.2446-25.6065,110.6587,3.6421,35.3315,18.6692,67.0415,33.2015,97.707,5.0273,10.6089,10.2257,21.5786,14.7529,32.3394,22.7791,54.1245,33.8897,117.0122,32.1317,181.8672-.1229,4.748-.3253,9.6577-.6021,14.6094-.5527,9.8765-1.3979,19.8823-2.1468,28.4858-.1671,1.9233-.3356,3.8438-.5043,5.7646-2.5197,28.7104-5.1253,58.3989-1.8843,88.189,2.482,22.8955,8.9079,44.7705,18.5823,63.2544,11.3469,21.6792,26.6547,38.2095,45.498,49.1304,7.9851,4.6294,16.2879,8.4253,24.6764,11.2817,13.3951,4.5625,27.3551,6.876,41.4913,6.876,18.4533,0,37.2129-3.9019,55.7575-11.5967,16.9572-7.0361,33.4235-17.1001,48.9413-29.9116,29.331-24.2153,52.9975-56.1948,66.6684-90.0786,2.5426-5.7217,27.253-64.333,22.8841-170.3062-.312-7.4868-.7543-15.0693-.7729-15.3887-.0163-.2744-.3918-6.6221-.8636-13.1362-1.6083-21.9561-4.0887-44.6821-7.3731-67.5591-4.1484-28.9219-9.7391-59.0259-16.6163-89.4727-6.0456-26.8223-13.2891-54.7974-21.5276-83.1421-13.6571-47.0176-30.5883-96.0288-61.7285-135.9321-34.1584-43.7695-82.6167-69.9004-129.626-69.9004h0Z"/>
      </g>
      <path class="cls-4" d="M374.6875,132.6403c17.0012-8.4869,37.1629-12.8067,55.7264-7.0526,10.6363,3.2248,19.1402,10.3088,29.1381,14.6092,12.6471,5.4527,26.6336,9.0022,40.4768,9.3875,14.5751.6252,27.5606-5.6131,36.9715-16.7251-4.2231,5.7317-9.585,10.7522-15.919,14.3099-12.8794,7.2377-28.5709,6.4754-42.7117,4.3615-7.1575-1.1545-14.2981-2.8166-21.2458-5.3044-6.7586-2.3765-13.3605-5.8995-19.7386-8.8253-6.1836-2.8378-12.3662-4.2201-18.9951-4.3739-13.1532-.3428-26.0222,4.2104-37.5218,11.0498l-6.1807-11.4365h0Z"/>
      <path class="cls-4" d="M173.8964,259.7623c-13.934-2.996-29.2704-1.7399-40.8966,6.9424-5.7494,4.1909-10.6314,10.0937-15.4317,16.267-6.1579,7.7952-11.7871,15.5442-16.0446,24.2682-3.0225,5.6586-8.1992,10.0377-13.6021,13.3349-6.973,4.3514-15.2621,5.4091-22.6571,8.1961-14.9274,5.6042-23.8611,20.3814-27.6265,35.3381,2.7456-15.5987,11.29-31.5428,26.3433-38.3237,7.147-3.3178,14.9808-4.7681,21.3167-9.3195,4.415-3.1674,8.5395-6.9996,10.8068-12.014,0,0,2.4169-5.4029,2.4169-5.4029,3.4084-7.3912,7.9986-14.143,12.4627-20.8384,4.6212-6.8397,9.4657-13.678,15.9553-19.1441,13.3383-11.537,32.2418-14.6161,49.2045-12.1082,0-.0001-2.2478,12.8041-2.2478,12.8041h0Z"/>
      <path class="cls-4" d="M432.6248,174.923c20.7404,1.5263,41.6302,7.6975,58.6405,19.8746,5.6268,3.9476,10.7196,8.0887,16.1235,11.6737,10.7912,7.0194,22.8642,13.0239,35.4211,16.0388,12.885,2.8165,26.4612-.2242,37.8801-6.6574-5.5159,3.7163-11.6383,6.6601-18.169,8.4008-13.6223,3.9765-27.0261,1.0411-39.9408-3.7972-6.3439-2.3293-12.5995-5.1066-18.5713-8.4328-5.9831-3.3081-11.5706-7.1357-17.1312-10.3877-11.0146-6.5383-23.1403-10.5822-35.7503-12.4257-6.276-.9058-12.6256-1.3204-18.9875-1.2964l.485-12.9907h0Z"/>
      <path class="cls-4" d="M265.1545,814.6954c-12.5641,14.3361-22.0946,31.4555-25.4121,50.3858-1.176,6.3335-1.9338,13.0639-3.3434,19.7534-2.9647,13.3248-7.4047,26.2464-14.6509,37.8839-7.396,11.3869-19.662,19.1757-32.595,22.6347,12.3329-4.4309,23.5127-12.7157,29.8069-24.3051,5.9303-11.4724,9.2821-24.532,11.0284-37.2866.8211-6.4327,1.0183-12.9937,1.7109-19.8326,1.3062-13.7951,5.6663-27.4429,12.1681-39.7075,3.2675-6.1621,7.0166-12.0572,11.1413-17.6543l10.1457,8.1284h0Z"/>
      <path class="cls-4" d="M175.0503,323.9796c-9.7958-.9989-20.405-.1034-28.0703,6.3213-7.7672,7.5783-13.6181,17.4491-20.0284,26.2918-3.1366,4.2607-6.709,10.5951-10.583,14.2108-10.8825,7.8526-23.5094,3.1453-34.6946-.0585-5.4868-1.7063-10.782-3.9368-15.7989-6.6296,5.2503,2.2041,10.6856,3.9014,16.2084,5.0571,9.2754,1.7266,19.3508,4.4427,28.1017.0754,3.63-1.6887,4.9644-4.9858,7.0991-8.633,0,0,4.1572-7.4702,4.1572-7.4702,5.9718-10.1501,10.8723-20.7069,18.6876-29.7814,4.7082-4.9198,10.5797-8.0131,16.9148-9.9603,6.199-1.8701,12.5212-2.4194,18.6911-2.4052l-.6847,12.9819h0Z"/>
      <path class="cls-4" d="M287.8073,852.7267c-7.7729,6.0437-14.8256,14.0211-15.9299,23.9609-.3812,10.8449,2.2069,22.024,3.6801,32.8457.6764,5.2599,2.4665,12.2761,2.1645,17.5859-2.444,13.1957-14.8257,18.5144-25.1265,23.9245-5.146,2.5565-10.5157,4.6014-16.0032,6.12,5.3186-2.0332,10.4212-4.5605,15.2129-7.54,7.8998-5.1589,17.0602-10.1548,20.3716-19.3578,1.4577-3.7287.1456-7.0342-.8307-11.1461,0,0-2.1541-8.2729-2.1541-8.2729-2.6939-11.4646-6.4427-22.4827-7.0607-34.4433.0061-6.8094,2.1143-13.1021,5.3501-18.8863,3.1906-5.6343,7.3824-10.3984,11.8533-14.6504l8.4727,9.8599h0Z"/>
      <path class="cls-4" d="M316.3504,118.7736c8.2924-10.9392,21.2676-20.458,35.6816-20.3031,3.7449.0844,6.8921.7689,9.798,1.1356,5.9469.8722,11.8791.6885,17.9246.4506,8.6549-.36,17.7754-1.5212,24.4947-7.3662,4.8255-3.8214,6.1844-9.843,9.2682-15.1319,6.4303-11.1695,17.6542-18.6318,29.6531-22.4096-5.7431,2.4013-11.1571,5.5737-15.7789,9.6069-4.6066,4.0181-8.4878,8.8848-10.9923,14.3052-1.2942,2.7041-2.1188,5.5781-3.3162,8.6343-3.5725,9.7298-13.4092,15.717-23.1146,17.9247-9.5361,2.0609-19.16,3.256-28.9312,2.8886-6.1771-.4315-10.8584-.8237-16.2588,1.6039-7.6294,3.1763-13.2921,9.2008-17.8518,16.22,0,0-10.5764-7.5591-10.5764-7.5591h0Z"/>
      <path class="cls-4" d="M194.2146,204.8561c-10.8233-3.6901-22.5671-4.3221-33.8866-3.0682-9.1312.9085-18.2684,3.8813-24.8308,10.3924-2.9057,2.7989-4.0079,5.8875-6.3512,9.5103-9.1376,12.9909-26.3832,17.0898-41.3732,15.9687-8.4256-.458-16.9709-2.497-24.2869-6.9243-14.9358-8.6483-21.1422-27.272-17.5916-43.526-3.4409,27.2609,14.9159,46.3354,41.995,45.5765,11.4312.0667,23.3852-2.878,31.5765-11.0941,2.8871-2.8437,3.8819-5.6017,5.7657-9.4135,4.2603-8.2386,12.3739-14.0235,20.7832-17.4336,8.2503-3.2602,16.9075-4.3535,25.6089-5.0283,8.7788-.5385,17.6536.3638,26.205,2.5528l-3.6141,12.4873h0Z"/>
      <path class="cls-4" d="M275.3107,128.1124c.5789-12.3795,5.5737-26.4113,16.6721-33.5277,4.1525-2.7697,8.9814-3.7144,13.046-6.1797,7.0586-4.5493,11.9206-12.6677,13.8657-20.8603,2.16-9.1265-.3303-17.4025-7.4609-23.4194-15.3967-12.5619-14.4986-28.0448-5.114-44.1253-5.4053,10.7735-7.9521,25.4711.7788,34.9723,3.0449,3.4338,7.3614,6.0133,10.7842,9.3452,3.8198,3.6461,6.3984,8.6853,7.269,13.8736,1.7659,10.4551-1.5674,21.0872-7.5345,29.7202-2.0212,2.8833-4.503,5.5835-7.518,7.854-2.711,2.0757-6.1473,3.6069-8.9818,5.0605-10.0705,5.1614-13.1113,16.7821-12.8102,27.6011,0,0-12.9962-.3144-12.9962-.3144h0Z"/>
      <path class="cls-4" d="M491.1794,977.733c-5.5517-9.6766-8.5164-22.1901-3.635-32.8408,1.9923-4.3854,5.5596-7.8195,7.5089-12.1421,5.339-12.2753,2.497-31.7139-9.9674-38.4737-5.7913-2.854-11.6147-2.2659-18.027-4.7519-14.8502-5.4278-20.8417-21.8858-21.1679-36.4781-.0002.0001,12.9997-.0214,12.9997-.0214-.2546,5.7866.2488,11.4888,2.1342,16.3916,3.2839,8.6517,9.3587,11.8474,18.1033,13.7976,11.4843,2.5329,19.2502,10.2667,22.3459,21.4672,3.0566,11.5411,1.9308,24.6831-5.7,34.1312-2.0189,2.4823-4.1463,4.6499-5.6986,7.376-5.4255,9.7857-3.4203,21.6896,1.1039,31.5444h0Z"/>
      <path class="cls-4" d="M519.6552,774.5699c8.3114,9.1922,14.6545,22.6689,11.7927,35.5386-.9952,4.8917-3.7557,8.9639-4.9035,13.5776-2.7511,13.0737,4.3234,30.9609,17.834,35.1178,6.1168,1.7757,12.2931.0473,18.6757,1.0234,13.8419,1.8217,21.9275,15.0498,24.864,27.5016-3.7552-11.4535-12.304-23.6782-25.1938-24.2681-4.5799-.2915-9.4608.9203-14.2371.9666-5.2797.1052-10.6601-1.6552-14.9334-4.7232-8.6198-6.1743-13.7455-16.0685-15.594-26.3983-.5972-3.4703-.7386-7.1348-.199-10.8707.4614-3.383,1.8211-6.8906,2.808-9.9194,3.5097-10.7581-2.5206-21.1466-10.3571-28.6118,0,0,9.4436-8.9341,9.4436-8.9341h0Z"/>
      <path class="cls-4" d="M231.7446,158.8336c-3.4567-11.7479-9.9449-23.2538-21.5768-28.0064-5.8873-2.4416-12.1838-1.9024-18.7411-1.7592-7.1098.2558-14.7821-.4688-21.7077-2.7823-28.7849-9.4698-49.5216-34.4499-39.0589-65.4727-7.6195,30.1688,12.6637,52.2246,40.7932,59.208,6.4632,1.5849,12.8501,1.6613,19.4927.9365,7.1655-.8033,15.1296-1.7706,22.4328.6637,7.7333,2.3759,14.3065,7.3031,19.3581,13.244,5.0699,5.9531,8.6295,12.8086,11.3065,19.7563l-12.2988,4.2119h0Z"/>
      <path class="cls-4" d="M196.2451,398.3951c-9.3265,3.9535-17.7042,10.4392-22.729,19.2817-1.6361,2.942-2.9633,6.4797-5.4326,9.2632-3.8346,4.3987-9.1727,7.2279-14.559,8.7256-12.0695,3.0329-25.1172,1.4726-35.6147-4.9919-3.8594-2.4822-7.2062-5.9162-11.8849-5.9729-7.7793-.5845-14.9691,3.9163-20.6917,8.8984-6.1684,5.1679-10.7691,11.9817-13.4488,19.6626,2.0084-7.8748,6.2103-15.3751,12.0721-21.1562,5.854-6.0369,13.3404-11.3873,22.1674-11.4658,5.3547-.4231,10.1403,3.0115,14.4664,5.4836,4.0018,2.1478,8.3634,3.2282,12.8954,3.6995,9.8295.8935,21.0275-.7726,27.3072-8.7264,1.6151-2.3042,2.3076-5.1085,3.6231-7.9288,2.2336-4.9684,5.4349-9.5191,9.1009-13.5044,4.8814-5.3276,10.7916-9.6606,17.0998-12.9868l5.6284,11.7188h0Z"/>
      <path class="cls-4" d="M470.9555,222.5641c11.4631.8545,23.0254,4.0335,32.5033,10.69,6.1974,3.984,10.1793,10.3425,15.6904,14.7759,9.3399,7.2679,20.7417,13.4572,32.9309,12.2279,13.9131-1.5341,28.7743-9.7787,27.2418-25.7168-.1514-13.1997,12.2952-21.5713,23.5515-25.4133-9.6819,3.4635-20.1059,9.5484-22.8153,20.1864-1.3792,5.1446.4183,10.725-1.9145,15.685-3.5864,8.4025-12.1721,13.241-20.6024,15.7153-10.4858,3.3618-21.9414,1.1615-31.6182-3.6539-6.5677-2.9818-12.9687-7.1301-18.1535-11.9957-7.4007-6.6654-17.0107-9.8087-26.7956-10.1291-3.2278-.0718-6.4631.123-9.6741.6235l-.3442-12.9951h0Z"/>
      <path class="cls-4" d="M217.2918,441.757c-10.6851-.3257-22.7223,1.185-28.9024,10.6243-2.8526,5.5578-5.8786,11.8012-9.6702,16.858-5.9595,8.4831-13.2262,18.6786-23.9517,22.0391-8.7786,1.9673-17.7174,1.9608-26.6216,2.7279-10.4943.7071-18.0704-.3638-25.2853,8.8343-1.9483,2.4612-3.4765,5.2713-4.6907,8.2103.9604-3.0308,2.2498-5.9902,4.0322-8.6865,6.7009-10.1768,14.7825-9.9777,25.6107-11.5911,6.2467-.9445,12.5905-1.9372,18.7498-3.0734,2.2317-.4379,4.4389-.8768,6.5072-1.6362,3.2172-1.3848,6.0888-3.6477,8.5214-6.188,3.9905-4.231,7.0725-9.5933,10.3121-15.0581,1.5507-2.6533,2.9722-5.3154,4.1836-8.0425,2.0866-4.6203,3.3771-9.8954,6.8581-13.9341,3.5885-4.384,8.4414-7.7261,13.563-9.8574,6.797-2.8404,13.8595-3.8794,20.7191-4.2261l.0647,12.9995h0Z"/>
      <path class="cls-4" d="M494.7237,269.3092c12.3336,8.7966,25.6047,16.6693,39.5314,22.754,4.1157,1.6936,7.7774,3.1559,12.0838,3.3471,7.1737.2529,14.5213-1.3187,20.8897-4.6919,2.4836-1.3843,5.0172-3.0526,7.0719-4.9986,3.4719-3.1339,5.4854-7.8491,9.5151-10.5532,12.1295-8.2405,28.726-7.2814,41.4012-1.1786-12.4603-4.7487-28.4801-4.5515-39.1415,4.0523-3.5565,3.0021-4.9923,7.6838-8.2716,11.0695-6.8159,7.4854-16.4494,11.9584-26.3706,13.5035-10.1252,1.9913-20.1748-1.901-29.3732-5.4801-11.8838-4.6918-23.3936-10.3915-34.4353-16.934l7.0993-10.8901h0Z"/>
      <path class="cls-4" d="M492.3257,821.6622c-.832,15.1262-.3825,30.5502,1.9293,45.5713.7713,4.3833,1.4952,8.2592,3.638,11.9995,3.6245,6.1959,8.8839,11.5622,15.1412,15.1372,2.4981,1.3583,5.2632,2.6052,8.0067,3.2998,4.5053,1.2566,9.5657.4346,14.0066,2.3917,13.4514,5.8384,21.5216,20.3718,23.1481,34.3455-2.426-11.9099-9.5573-23.3896-20.3354-29.2227-2.5833-1.3309-5.2697-2.2834-8.1641-2.3592-3.0317-.0588-6.5112.2316-9.6448-.3819-9.9711-1.7524-18.9041-7.4977-25.5181-15.0527-7.0998-7.4886-9.1891-18.061-11.087-27.7471-2.3952-12.5497-3.7383-25.3232-4.1196-38.1518l12.9989.1704h0Z"/>
      <path class="cls-4" d="M252.0239,783.4772c-4.4886,12.0239-9.87,23.686-16.1756,34.7979-3.3327,5.7547-6.5005,11.2784-11.1188,16.3462-7.8161,7.8091-18.8244,12.2259-29.7751,12.8146-4.1637.1613-8.4961-.2581-12.439-1.6453-4.269-1.7068-8.2875-2.7806-12.84-1.903-12.0845,2.0561-22.5235,10.6272-28.6563,21.1255,6.0308-12.7037,18.3573-23.8736,32.9675-25.0718,4.8365-.4235,9.3607,1.9819,14.0315,2.2425,11.2191.6543,23.2482-4.41,30.5889-12.9036,3.4417-4.509,6.1095-10.1733,8.5641-15.4509,5.094-11.1231,9.2367-22.6436,12.4904-34.3731l12.3625,4.021h0Z"/>
      <path class="cls-4" d="M506.8132,312.1442c15.8152,1.2731,31.4936,6.3261,44.9217,14.4982,8.0619,4.8098,14.353,1.676,21.9629-2.2299,10.8919-5.3978,21.8013-10.7891,33.2797-14.9788,2.8994-1.0131,5.8703-1.9535,9.0505-2.353,9.4211-.9536,18.3318,4.8451,24.2488,11.5576-6.4073-5.9834-14.9902-10.7335-23.8662-9.1505-8.5654,2.2038-16.3122,7.1006-24.0855,11.3412-5.2226,2.9841-10.3282,6.0915-15.4779,9.2697-5.4144,3.3831-11.8058,7.3812-18.6351,7.0081-6.5861.2011-12.7932-3.8354-18.5435-5.9882-10.67-4.0863-22.0939-6.0541-33.4096-5.9862l.5541-12.9883h0Z"/>
      <path class="cls-4" d="M507.0798,338.8595c12.6032,1.5765,25.3979,6.1111,34.9683,14.8043,4.6223,4.0428,7.8827,9.1265,11.9587,13.3217,3.8264,3.9634,8.5926,7.4391,13.0456,10.627,14.3015,10.235,24.5454,4.4278,37.7979-3.8001,7.4901-4.5188,14.3855-9.9351,20.6182-16.1179-3.7645,4.4927-7.8845,8.7178-12.3401,12.5947-4.4675,3.8821-9.2302,7.3184-14.1012,10.7202-7.8278,5.6898-17.0539,8.8542-26.7132,5.9138-6.0425-1.7822-11.1917-5.2156-16.3612-8.4714-5.1066-3.1465-10.0477-7.594-14.0909-11.8829-5.6039-5.9575-12.2999-10.0258-20.0753-12.3138-5.0595-1.5162-10.3996-2.2344-15.794-2.441l1.0872-12.9546h0Z"/>
      <path class="cls-4" d="M227.4579,468.4786c-17.1447,7.4154-23.2081,19.1726-26.1832,37.0685-.5748,3.0435-1.2798,7.3216-1.7131,10.3124-.5958,3.8054-.5695,6.9175-1.4224,10.9585-3.6084,12.5608-20.599,21.6176-32.9811,17.1134-.7821-.3599-2.0364-.8541-2.7446-1.3395-7.5716-4.2592-9.614-14.4326-18.2905-16.5913-10.3711-2.2941-20.132,5.3484-27.7611,11.5725,9.7085-9.8982,25.961-21.4575,38.0906-8.3242,6.2698,6.9771,9.9263,12.5624,20.1692,10.441,6.6846-1.6175,13.0258-6.266,15.8708-12.5911,1.2149-3.6153.5528-8.0602.9825-12.0259.2053-3.1981.6275-7.5953.9533-10.8009.8005-7.4481,1.9466-14.9745,4.9167-22.0922,4.4293-11.1503,14.0865-20.0153,24.4318-25.394,0,0,5.681,11.6928,5.681,11.6928h0Z"/>
      <path class="cls-4" d="M523.0821,374.8546c12.2756,5.3741,23.3851,13.182,32.0861,23.2925,3.2462,3.6554,5.6881,8.0237,9.1869,11.0973,8.8841,7.1785,21.6649,9.9441,32.865,6.5265,9.3684-2.833,16.7913-10.4991,20.5887-19.5159-1.4657,4.7779-3.8203,9.3594-7.1073,13.2911-12.0493,14.8544-35.4037,15.7148-50.801,5.497-2.3868-1.6157-4.4153-3.686-6.1751-5.5571-3.3634-3.6675-6.5017-6.8067-10.4106-9.7285-7.4823-5.7197-15.9503-9.9717-24.8218-12.7398l4.5892-12.1631h0Z"/>
      <path class="cls-4" d="M239.9868,508.7848c-8.5941,2.4573-17.309,6.7659-19.9423,15.6836-1.1146,4.6852-1.7042,11.1621-3.6694,15.9951-2.0769,5.3679-4.2736,10.4937-7.6569,15.2643-10.6557,15.0329-29.9857,15.59-46.4339,12.2839-5.3288-1.1023-10.4695-2.9099-15.284-5.2884,5.0303,1.8818,10.2622,3.1382,15.5367,3.6836,18.3513,1.6816,37.4958-1.1745,43.7829-21.0124,1.6883-4.705,3.1323-9.5616,3.4683-14.5745.2671-4.3148.372-9.0425,2.0218-13.1894,1.7034-4.5839,4.7434-8.6908,8.3085-11.8975,4.7553-4.2412,10.2125-7.0772,15.6827-9.2564l4.1857,12.3081h0Z"/>
      <path class="cls-4" d="M532.1635,420.8341c13.0277,2.8397,25.6561,9.4674,34.3371,19.793,4.0375,4.5317,6.7983,10.5327,10.5374,14.7642,7.6476,8.1354,21.0066,7.4227,31.3404,5.0441,6.1004-1.0281,11.1054-3.5407,16.7726-6.1211,11.5463-4.8177,24.7614-4.521,36.5727-1.0525-11.7962-2.332-24.4583-1.6119-35.1923,3.9951-5.1932,2.9938-10.998,6.3945-16.9678,7.907-5.8909,1.7869-12.2292,3.3323-18.923,3.1545-11.6001-.3476-19.3126-5.325-25.7616-14.6193-5.0402-6.8925-11.3632-12.2502-19.1171-15.6746-5.0087-2.2569-10.3921-3.6695-15.9247-4.4005l2.3265-12.79h0Z"/>
      <path class="cls-4" d="M247.1344,543.2794c-12.7896,5.9313-23.328,16.4005-28.5111,29.6954-2.919,6.7896-4.51,15.3693-8.9744,21.8388-8.117,12.2923-24.7649,11.5991-37.3277,8.1638-4.9996-1.2991-9.8466-3.0076-14.6064-4.884,14.1991,3.7874,38.4133,9.3241,47.1141-6.2986,3.4345-6.6319,3.7897-13.9938,6.1136-21.4699,1.4789-5.1666,3.5969-10.3521,6.4662-15.1182,5.6506-9.5859,13.9779-17.5479,23.5002-23.3394l6.2255,11.4121h0Z"/>
      <path class="cls-4" d="M540.4011,457.0929c15.6436,10.404,28.9274,25.1524,36.1715,42.5851,1.9377,4.6806,4.433,7.6695,8.5305,10.1878,5.3293,3.3229,11.5726,5.0056,17.8289,5.8121,5.7187.7505,11.6243.7466,17.5015.3945,5.9241-.3506,12.3443-1.6973,18.1689.4585,5.893,2.0259,10.6118,6.3042,13.9299,11.2373-3.7524-4.624-8.7573-8.3096-14.3941-9.6802-5.6223-1.5098-11.3375.3174-17.3409,1.2144-12.1251,1.8278-25.1434,2.3058-36.7611-2.5468-4.6275-2.0362-9.1478-4.9596-12.0824-9.1969-4.1492-6.3886-7.1158-12.6778-12.1623-18.3474-7.2622-8.6359-16.2997-15.6061-26.1917-21.0392l6.8013-11.0791h0Z"/>
      <path class="cls-4" d="M252.3538,578.6666c-9.6474,13.7358-22.6043,25.6655-38.0612,32.5097-6.7987,3.3338-14.7872,4.6306-19.9448,10.3363-1.5507,1.7487-2.8972,3.7975-3.8415,5.9713-2.0333,4.6605-2.1272,10.281-3.9965,15.2138-3.7631,10.4068-12.0633,18.4022-21.6371,23.3721,4.4397-2.9321,8.4507-6.478,11.6712-10.5947,3.1912-4.1191,5.6442-8.8135,6.8548-13.7168,1.3435-5.227.7948-10.5971,2.5297-15.9502.8977-2.814,2.2409-5.4238,3.9769-7.8462,3.3134-4.7902,8.8662-7.8814,13.8244-10.3368,6.8992-3.4234,13.3962-7.3834,19.0807-12.4879,7.519-6.6259,13.631-14.7153,18.5765-23.4511l10.9668,6.9805h0Z"/>
      <path class="cls-4" d="M546.3181,521.2784c12.1315,1.1466,24.6338,5.856,33.0205,15.1373,3.9979,4.0643,6.5401,10.1386,9.1568,14.6324,6.9114,10.427,22.7426,11.4471,33.8184,7.7774,2.4999-.8453,4.7325-1.8869,6.8895-3.4748,2.2373-1.7111,5.0728-3.0371,7.8091-3.8017,8.1645-2.4184,17.0011-.9525,24.7113,2.0176-7.8562-2.1434-16.3268-2.7683-23.9189.2876-2.49.9906-4.6024,2.2215-6.6011,4.0581-2.1074,1.9123-4.7605,3.5205-7.3845,4.6864-10.7868,4.7533-23.9028,5.3405-34.5508-.4881-2.7545-1.5211-5.4386-3.7584-7.3684-6.318-1.9709-2.5327-3.3592-5.0522-4.7898-7.1001-4.0799-6.0746-10.1553-10.1424-17.0672-12.3443-4.5846-1.4575-9.4745-2.0801-14.4562-2.0903l.7314-12.9795h0Z"/>
      <path class="cls-4" d="M246.0678,626.5948c-10.3948,2.8532-21.666,7.8756-25.8176,18.3301-1.5866,4.2698-1.8129,10.1459-3.8952,14.6572-4.2148,9.8311-11.5218,18.6644-21.182,23.4693-11.6426,5.925-25.9688,4.819-37.4584-.839,22.2412,7.8927,43.2389-.9088,51.2323-23.4639,2.0935-5.4489,1.2483-10.5444,2.7721-16.4882.7617-2.935,1.9904-5.6162,3.5113-8.1596,3.0921-5.0654,7.4347-9.1377,12.0721-12.29,4.6541-3.1841,9.6351-5.5698,14.6728-7.5547l4.0925,12.3389h0Z"/>
      <path class="cls-4" d="M656.6174,598.0934c-17.4156,26.539-42.7575,22.2384-63.3772,2.0149-2.0753-1.929-3.9897-4.0798-5.7711-6.3132-3.6001-4.4336-6.2143-9.627-9.1669-11.9912-7.166-5.6172-16.6519-3.8981-24.7989-.6661,0,0-4.155-12.3183-4.155-12.3183,11.8631-3.6909,27.748-3.4425,36.5843,6.8977,3.3841,3.9949,5.39,9.1369,8.1427,13.3479,2.6829,4.2494,6.1401,8.106,9.7044,11.6201,17.4428,17.3068,37.2657,16.7741,52.8376-2.5918h0Z"/>
      <path class="cls-4" d="M552.1429,602.2203c19.3841,3.1094,34.6427,12.9092,43.1326,30.8654,6.2544,13.0453,23.3687,17.218,36.2948,12.3925,6.132-2.3349,11.2232-6.7239,14.8342-12.2867-2.6923,5.3973-6.9525,10.2966-12.2802,13.4038-9.9357,5.9001-22.7757,5.9934-33.1743,1.0255-2.4015-1.1119-4.7071-2.6885-6.7207-4.5552-3.7911-3.4838-6.2757-8.0173-9.2702-11.8408-5.3543-6.98-12.9588-11.6479-21.3243-14.0381-4.1722-1.1821-8.513-1.8237-12.926-2.0454l1.4342-12.9209h0Z"/>
      <path class="cls-4" d="M245.8493,667.0035c-7.9826,1.7486-15.6722,5.8783-19.9014,12.8975-2.2616,3.7944-3.5186,8.6667-5.629,12.872-6.7132,13.4846-18.5539,25.6173-33.6169,28.9468-9.6461,2.2378-19.6965,1.2336-28.9873-1.7197,25.8564,5.1208,45.8447-5.664,55.1114-30.3693,1.6548-4.6388,2.262-9.3685,4.4391-14.1654,2.3768-5.2427,6.0659-9.6353,10.4471-13.1411,4.3795-3.5049,9.3918-6.0269,14.4815-7.7964l3.6554,12.4756h0Z"/>
      <path class="cls-4" d="M555.6617,644.3326c6.4088,6.2222,13.2476,12.0591,20.4413,17.478,3.6812,2.7524,7.3346,5.5391,10.9763,8.0342,3.5237,2.354,6.8372,4.5219,11.0125,5.1548,6.547,1.3532,12.7278-1.4537,19.0948-3.0021,11.4818-2.8452,23.9867-.8895,34.3244,4.0875-10.8731-3.6704-22.564-4.126-33.1555-.1968-4.4043,1.6193-8.4927,3.855-13.2511,4.9497-5.0528,1.1357-10.5385.8826-15.4138-.9468-6.7916-2.5713-12.8267-6.4823-18.9714-9.9516-8.1269-4.7384-15.9962-9.9869-23.5291-15.7467l8.4716-9.8604h0Z"/>
      <path class="cls-4" d="M551.7185,688.3824c4.5421,10.1193,12.1757,19.7746,23.3236,22.375,7.0593,1.5767,14.3289.8404,21.7463.4171,5.1352-.3409,10.0804-.6949,15.0773-1.4342,3.7542-.4997,7.9961-1.505,11.967-.9507,12.1291,1.5453,21.3121,10.7177,27.6783,20.4019-7.6045-9.2553-18.815-18.3532-31.3986-16.4762-7.2613,1.7564-15.1264,3.8037-22.5412,4.9114-10.4753,1.8219-22.1923,4.0212-32.5889-.2274-5.518-2.1444-10.3806-5.5648-14.476-9.5756-4.1096-4.0186-7.4803-8.626-10.3198-13.4404l11.532-6.001h0Z"/>
      <path class="cls-4" d="M249.0054,700.8307c-5.6573,13.8473-15.7091,27.4241-30.6365,32.1239-5.6821,1.7907-11.1999,1.7691-16.7442,2.8302-7.7788,1.4138-15.3853,4.3642-22.6281,7.5462-15.8286,6.8682-23.1513,22.1881-21.8897,39.0305-.8945-5.4118-.996-11.0275.0371-16.5373,2.792-15.4198,13.3897-24.4705,27.0088-30.7679,7.4726-3.9159,15.7777-6.7954,24.0232-8.3774,9.915-1.7011,17.6825-7.9916,22.7047-16.5468,2.5113-4.2137,4.4082-8.8851,5.9016-13.7288l12.2229,4.4272h0Z"/>
      <path class="cls-4" d="M542.5917,736.0895c4.2996,8.002,10.3511,16.4922,19.8237,17.1828,4.5693.1245,9.7342-2.5966,14.4559-3.9639,5.4993-1.7721,11.1734-3.0255,16.811-3.8087,8.3047-1.0265,17.2459-2.7604,25.7236-.6339,5.7394,1.349,10.5075,5.5074,14.3953,9.4749,6.0077,5.7063,14.8538,6.7726,22.816,4.966-7.8508,2.6873-17.5577,2.3121-24.3639-3.0836-6.7544-5.7985-12.4154-8.5733-21.4253-7.4933-10.3523,1.437-21.3892,4.0412-31.1082,8.187-4.5614,1.8952-9.3201,4.7832-14.3708,5.7508-7.7262,1.5258-15.6281-1.4502-21.5781-6.0606-5.174-3.9809-9.0198-8.8862-12.362-13.8882l11.1826-6.6294h0Z"/>
      <path class="cls-4" d="M207.9413,177.9244c-19.9142-14.147-48.0164-23.5874-72.5831-20.4241-3.1988.4085-6.3304,1.0374-9.3815,1.9505-4.6983,1.3032-9.4695,4.014-14.5448,4.8941-19.9803,2.8873-35.2448-14.3662-45.5568-29.1815,11.3143,13.761,29.7834,31.8717,48.9502,23.2139,18.4588-10.3333,40.7427-11.0116,60.9946-6.4711,13.7099,2.7101,27.0673,7.8463,39.2158,15.1247l-7.0945,10.8936h0Z"/>
      <path class="cls-4" d="M184.7431,365.3702c-10.1361,1.8685-19.873,6.2864-26.8454,13.9414-3.8682,4.0625-5.8106,8.4971-8.6017,13.6543-1.8279,3.4987-5.2594,7.2632-9.2541,8.951-8.2605,4.0918-17.2811.1343-25.1739-2.2814-5.3548-1.6595-10.8016-2.6468-16.3894-2.8343-5.5753-.1523-11.2136.4927-16.7025,1.897-5.4933,1.3975-10.8213,3.5464-15.9012,6.2056,14.5459-9.7896,32.9072-13.9304,50.1627-10.0007,6.3957,1.0833,13.1365,3.9066,19.2606,1.4549,6.3089-2.4846,7.2964-9.2358,10.1384-15.0827,1.3228-2.828,2.9953-5.6225,4.9351-8.1625,3.8435-5.1099,8.6685-9.4004,14.0554-12.7915,5.3819-3.3931,11.2728-5.8638,17.2671-7.5884l3.0486,12.6372h0Z"/>
      <path class="cls-4" d="M637.4046,816.6515c-29.1732,6.0174-52.9869-2.0683-77.7358-17.3387-4.7206-3.0562-8.98-7.2168-12.7915-11.1419-5.0311-5.3562-9.7485-8.4191-17.1248-8.09-2.1756.0515-4.3476.3753-6.5009.9358l-2.5027-12.7568c9.3788-1.4688,20.2365.2453,27.4131,6.899,6.16,5.6561,9.8374,12.5089,16.2601,17.5648,22.3577,17.0995,44.1538,26.8764,72.9825,23.9279h0Z"/>
      <path class="cls-4" d="M157.7147,827.7892c15.2916-.0512,35.5716-4.6813,37.0587-22.8337.5966-7.9331-.786-17.0723.6949-25.3963,3.3153-21.4565,21.3812-36.6854,39.6992-46.0555-.0002-.0002,5.453,11.8011,5.453,11.8011-4.9156,1.9937-9.6883,4.27-14.1718,6.9468-11.0664,6.4723-20.5657,16.188-23.8247,28.8136-2.1939,8.1049-1.5083,15.9495-3.0296,24.6161-3.764,19.985-24.6919,23.7298-41.8797,22.1079h0Z"/>
      <path class="cls-4" d="M182.2795,231.2579c-21.5167-4.1371-45.1648-.0939-63.1055,12.8167-1.5592,1.1927-3.28,2.5143-4.7338,3.8161-4.2473,3.6845-7.2387,8.0039-10.6463,12.5855-8.9735,11.5523-23.7747,17.244-37.9188,18.5821,10.9506-2.0376,21.6161-6.8679,29.5809-14.611,4.1218-3.9212,6.3286-8.8039,9.4816-13.5991,13.5726-19.8956,37.6832-30.2436,61.0867-32.5303,6.0044-.5644,12.0874-.5253,18.1337.0762l-1.8786,12.8638h0Z"/>
      <path class="cls-4" d="M408.285,147.4293c34.4557-5.4985,61.4131,8.9856,88.1201,28.472,8.0181,5.442,14.7403,14.0868,24.3406,6.5621,2.4969-1.9624,4.8462-4.5781,7.7207-6.6377,8.4374-6.4162,20.1499-6.6632,29.729-3.348-6.5572-1.6002-13.5497-1.7951-19.7937.4066-3.1036,1.1099-5.9914,2.6846-8.4198,4.8506-2.4941,2.0942-4.4966,4.7441-7.1292,7.2031-10.8657,9.7401-19.7479,1.6956-29.6268-4.321-14.1054-8.4942-28.9013-16.6081-44.8741-20.5136-12.4389-3.0693-25.3158-2.748-37.6999.1085l-2.3669-12.7827h0Z"/>
      <path class="cls-4" d="M252.9142,138.9674c-1.3821-13.5079-8.1036-23.127-19.1732-30.7034-5.7121-4.1594-11.0597-8.0158-17.155-10.9963-1.7493-.8833-3.6964-1.8604-5.2989-3.2354-10.1697-9.5582-11.9511-25.1499-7.9164-37.9101.3785-.8975.5833-1.8721,1.0895-2.8125,1.1035-1.9619,3.4797-4.9468,4.7112-6.7506,4.0571-5.7134,8.1102-11.4883,12.0033-17.309,1.8954-2.9253,3.8537-5.8462,5.0255-9.0034,2.254-6.5309,1.1736-13.954-1.5828-20.2466,1.6366,3.1108,2.8908,6.4687,3.4857,9.9917,1.48,7.8358-.9821,13.9156-4.8449,20.5229-3.4701,6.1668-7.0529,12.212-10.6916,18.2755-.7869,1.3515-3.2991,5.2627-3.8891,6.5292-1.2607,3.7759-1.7239,7.9251-1.5823,11.9107.3124,7.6629,2.9746,15.8603,8.9976,20.7623,1.1616.8077,2.4566,1.2943,3.8885,1.8935,5.0336,2.013,10.0113,4.7016,14.6571,7.5176,7.9783,4.7539,16.4143,9.9908,21.9284,17.8448,4.7402,6.4271,7.7589,14.0424,9.2006,21.7704l-12.8531,1.9487h0Z"/>
      <path class="cls-5" d="M207.8999,356.6539c-7.3685-18.9645-20.1454-51.8492-13.6841-92.3911,2.5034-15.7074,11.6788-56.3097,48.0383-87.4389,10.7425-9.1972,42.3132-36.2266,87.03-33.1819,41.0439,2.7946,67.5779,29.1839,76.5958,38.1525,16.2804,16.1916,24.0509,32.489,28.2827,41.5732,9.314,19.9935,15.5743,33.4322,10.0151,44.2803-8.7484,17.0715-42.2747,18.9592-65.3617,13.5921-26.7789-6.2254-28.4617-19.6421-49.5319-21.3334-25.6958-2.0626-51.0034,15.6592-64.3405,35.3158-19.073,28.1104-13.1241,59.3808-10.7234,72,4.1518,21.8237,11.8128,26.9883,24,56.1155,0,0,15.2884,36.539,20.4077,74.0159,8.571,62.7462-15.0967,122.0568-22.9608,121.1026-7.2449-.8791,4.674-52.2089-15.3873-131.0305-12.8085-50.3248-32.079-90.2484-32.0791-90.2485-10.622-22.006-13.7861-23.7567-20.3007-40.5237Z"/>
      <path class="cls-6" d="M523.6263,755.5272c-29.21,72.72-113.19,143.99-194.22,116.39-7.37-2.51-14.71-5.84-21.99-10.06-34.6801-20.1-52.37-61.18-56.69-101.03-4.33-39.85,2.36-79.96,4.6-119.98.28-5.01.49-10.02.62-15.04,6.2,9.16,11.03,17.2,14.12,23.46,1.09,2.21,8.49,17.55,21.04,36.71,15.39,23.5,26.25,40.09,44.83,53.43,10.5,7.54,38.75,27.82,73.53,21.1,38.17-7.38,57.18-42.05,61.66-50.22,8.59-15.66,10.7301-33.63,14.6801-68.93,4.59-41.06,2.9099-55.45,5.6199-84.8,3.76-40.73,11.8-64.9,18.2401-91.39,4.97-20.44,8.2599-39.2,10.39-56.32,11.52,51.01,19.84,102.72,23.6599,154.81.47,6.49.8501,12.93.8501,12.93,0,0,.45,7.69.76,15.13,4.4099,106.97-21.7001,163.81-21.7001,163.81Z"/>
      <path class="cls-1" d="M523.6263,755.5272c-29.21,72.72-113.19,143.99-194.22,116.39-7.37-2.51-14.71-5.84-21.99-10.06-34.6801-20.1-52.37-61.18-56.69-101.03-3.29-30.24-.22-60.64,2.42-91.03,4.7,9.46,8.55,19.15,11.3,28.7599,7.05,24.61,4.74,41.1801,20.43,68.42,8.08,14.03,25.53,44.34,60.25,54.13,30.57,8.61,57.27-3.54,72.51-10.48,32.9601-14.99,50.78-39.12,58.7101-50.12,20.25-28.13,26.1799-55.06,33.3199-87.49,2.35-10.62,2.64-14.09,11.12-83.74,7.36-60.46,7.97-64.7,10.21-73.01,1.3301-4.91,3.14-11.61,5.46-19.12,3.17,22.08,5.6301,44.26,7.26,66.51.47,6.49.8501,12.93.8501,12.93,0,0,.45,7.69.76,15.13,4.4099,106.97-21.7001,163.81-21.7001,163.81Z"/>
      <path class="cls-6" d="M377.191,681.1737c-1.9783-.4248-11.0997-2.3834-17.8105,4.0479-4.6213,4.4287-6.2873,11.0995-4.8575,17.001,1.9138,7.8988,8.6362,11.3762,10.1196,12.1436,1.2589.6512,7.3424,3.63,14.5723,1.6192,7.4613-2.0752,15.6763-9.3346,14.9771-18.6201-.7304-9.6993-10.6769-14.8335-17.001-16.1914Z"/>
      <path class="cls-6" d="M323.6614,682.8304c-2.6305-.7579-6.028-.1805-7.8933,2.0239-2.9803,3.522-.547,9.4217,2.2263,12.346.8769.9246,3.0958,3.2644,6.2742,3.0359,3.0213-.2173,5.4655-2.6515,6.2741-5.2622.9853-3.1811-.6743-5.9258-1.6191-7.4885-.8514-1.408-2.2982-3.801-5.2622-4.655Z"/>
      <path class="cls-6" d="M332.6504,588.6178c-3.8594-3.5253-15.2327.8261-15.7867,6.4766-.2601,2.6526,1.8976,5.2496,4.0479,6.4766,3.6653,2.0915,8.6639.9753,11.334-2.4287,2.6023-3.3175,2.697-8.4306.4048-10.5244Z"/>
      <path class="cls-6" d="M425.2092,453.818c-5.3821-3.2274-13.1236-2.0348-17.8106,2.8334-4.9774,5.1699-4.9576,12.8726-2.0239,18.2154.2733.4978,4.6274,8.1175,12.9531,8.0957.56-.0015,6.8167-.1224,10.9292-5.2622,4.1235-5.1536,2.8528-11.3052,2.4287-13.3579-.4204-2.0349-1.5658-7.5796-6.4766-10.5244Z"/>
      <path class="cls-6" d="M308.0827,403.076c-6.1859-3.4028-14.107.1844-16.7312,5.9369-1.5074,3.3045-1.496,7.8254,1.0795,11.334,3.881,5.2873,10.7424,4.4041,11.334,4.3177.3459-.0506,7.4764-1.2153,9.7148-7.556,1.8554-5.2557-.5951-11.3911-5.3971-14.0326Z"/>
      <path class="cls-6" d="M321.7027,303.6766c-3.207-.9766-7.8033,1.4402-9.7148,5.3972-1.897,3.9269-.5725,8.175,1.6191,10.7943,3.0059,3.5925,8.5148,5.1632,11.334,3.2383,4.8295-3.2975,2.8324-17.581-3.2383-19.4297Z"/>
      <path class="cls-6" d="M451.9153,652.6187c-3.1849-3.3719-8.9852-4.8855-13.7627-2.4287-5.3928,2.7731-7.0269,9.3425-5.6669,14.3024,1.1349,4.1394,4.5687,7.9371,9.1751,8.9053.7476.1572,3.9886.8383,7.0163-.8096,5.9225-3.2236,8.7593-14.1243,3.2383-19.9694Z"/>
      <path class="cls-3" d="M371.6639,257.0809c-.1645-2.1565-1.2999-6.52-4.7225-7.1512-3.0417-.561-5.9534,2.1831-6.8814,4.9923-.9062,2.7432.0596,5.6078,1.7541,7.4211,1.2625,1.351,3.9553,3.2161,6.4766,2.2938,2.988-1.0931,3.5453-5.3004,3.3732-7.556Z"/>
      <path class="cls-3" d="M287.3099,492.2378c-1.772-2.6996-5.4719-4.6722-8.2982-3.6431-4.0195,1.4637-5.1837,8.6026-2.6311,12.9531,1.4636,2.4945,4.7806,5.1485,7.691,4.2503,2.7565-.8507,3.6786-4.4344,4.0478-5.8694.328-1.2746,1.1936-4.639-.8096-7.6909Z"/>
      <path class="cls-6" d="M460.0328,366.2112c4.1855.3839,9.779-9.4804,10.1196-18.8226.1094-2.9994.3322-9.1131-4.0478-13.1555-.6641-.6129-4.452-4.1088-9.5125-3.0359-3.6691.7779-6.499,3.6376-7.4885,6.8813-.9607,3.1492.0402,5.9158.4048,6.8814,1.1309,2.9946,2.5129,2.7945,3.8455,5.6669,1.6785,3.6181.0528,5.1578,1.4168,9.1077.1564.453,2.1999,6.1957,5.2622,6.4766Z"/>
      <path class="cls-6" d="M455.5707,496.5934c-2.2806-1.3354-5.8371-1.8086-8.6354,0-3.1911,2.0625-3.4817,5.8548-3.6431,7.9608-.1219,1.5901-.305,3.9792,1.2144,5.9369,1.1172,1.4394,2.675,2.0275,4.4526,2.6986,1.6662.629,2.8035,1.0583,4.3178.9445,3.1339-.2356,5.2036-2.5961,6.4766-4.0478.9639-1.0993,1.5384-1.7545,1.754-2.8335.1352-.6765.2147-1.9469-1.754-5.2622-1.7891-3.0129-2.6837-4.5194-4.1828-5.3972Z"/>
      <path class="cls-6" d="M330.8448,485.048c-2.9028-2.0655-7.8347-3.6903-11.4858-1.6357-6.4933,3.6538-7.3361,18.0439,0,22.5646,4.541,2.7983,12.165,1.7841,15.757-3.3462,4.0877-5.8383.8201-13.9601-4.2712-17.5827Z"/>
      <path class="cls-6" d="M394.2338,564.885c-6.8918-2.6739-15.1324-.032-18.9548,6.1907-4.7177,7.6803-1.4698,18.8046,7.1257,22.6084,7.7722,3.4395,17.6321-.1174,20.9362-8.4088,3.2747-8.2177-1.3649-17.3865-9.107-20.3904Z"/>
      <path class="cls-6" d="M461.9505,282.6984c-6.7898-2.0276-14.8085,3.4153-15.6796,10.8863-.7646,6.5579,4.1061,13.5789,11.1182,14.024,7.0828.4496,12.5295-6.0523,12.8059-12.4552.2264-5.2459-2.9979-10.8884-8.2445-12.4552Z"/>
      <path class="cls-6" d="M500.2938,414.4314c-3.8434-4.7841-11.0154-7.9017-16.4618-5.5842-8.3754,3.5637-11.2594,19.3796-3.5273,26.41,4.9521,4.5027,14.3337,5.4694,19.9891,0,5.9279-5.733,4.4285-15.3133,0-20.8257Z"/>
      <path class="cls-3" d="M352.1205,198.6124c-8.0315-3.7852-19.2245.2844-21.2757,8.3499-1.7665,6.9462,3.5226,15.7737,12.9941,17.8637,6.5651,1.3474,12.9698-1.0409,15.8738-5.7623,4.2602-6.9264-.1893-16.9624-7.5922-20.4513Z"/>
      <path class="cls-6" d="M383.9194,393.3385c-12.7206-5.9951-30.4486.4504-33.6974,13.225-2.7979,11.0017,5.5793,24.9831,20.5806,28.2933,10.3981,2.134,20.5421-1.6486,25.1416-9.1265,6.7475-10.9703-.2998-26.8658-12.0248-32.3917Z"/>
      <path class="cls-3" d="M411.0004,225.1992c-3.9914-1.0082-9.1031,1.4159-10.7234,6.1199-1.6345,4.7451.9227,9.9545,5.3617,11.7447,3.7528,1.5134,8.2196.3286,10.4681-2.5532,3.7656-4.8262.8394-13.8096-5.1064-15.3114Z"/>
      <path class="cls-3" d="M284.343,557.2671c-3.233-1.4085-8.0313-.4518-9.5143,2.9071-1.3474,3.0516.7241,6.5402,2.876,8.2365,3.097,2.4414,8.3053,2.7037,10.4556,0,2.4269-3.0515.4753-9.2735-3.8173-11.1436Z"/>
      <path class="cls-3" d="M291.1112,243.7244c-2.5905-4.847-9.5777-6.8575-14.9194-4.7458-6.8998,2.7278-10.3494,12.055-6.6383,17.8723,2.5534,4.0027,7.9688,5.5161,12.2553,4.514,7.3724-1.7235,12.744-11.2009,9.3024-17.6405Z"/>
      <path class="cls-3" d="M401.4338,197.185c-2.7156-2.0575-7.02-2.1965-9.7021,0-3.9804,3.2598-3.23,10.715,1.0213,13.7086,2.4396,1.7178,6.1354,2.0393,8.6808.2985,4.201-2.873,4.3336-10.7237,0-14.0071Z"/>
      <path class="cls-3" d="M237.894,291.3191c-3.9224-1.9609-9.3486,1.0392-12.1038,3.6318-6.0798,5.7208-7.1893,17.018-1.1728,22.4356,3.1835,2.8666,8.5829,4.286,12.5106,2.2731,8.6982-4.4578,8.0897-24.679.766-28.3404Z"/>
      <path class="cls-3" d="M237.894,359.0517c-3.8358-1.9821-10.7083.0895-13.2766,5.0574-2.1458,4.1506-.3145,8.4411,0,9.1778,2.423,5.6766,9.4048,9.4195,13.2766,7.6492,5.7948-2.6496,6.5189-18.5159,0-21.8844Z"/>
      <path class="cls-3" d="M275.0287,440.0974c1.5359-5.3546-7.3129-13.7359-12.6241-11.8681-4.6905,1.6495-7.4241,11.5747-3.0638,15.7494,4.4069,4.2194,14.3176.8961,15.6879-3.8813Z"/>
      <path class="cls-1" d="M302.2165,723.6283c-5.3166-1.5795-10.8353,1.7477-13.6275,5.563-3.905,5.3361-3.0571,12.4199,0,17.1064,2.4955,3.8256,7.9815,8.3817,13.6275,6.8936,6.426-1.6936,8.4532-10.0027,8.4434-14.8107-.0091-4.4647-1.7886-12.7753-8.4434-14.7524Z"/>
      <path class="cls-1" d="M343.8389,800.6808c2.6997-3.471,3.6336-9.389,0-13.0213-3.6201-3.6188-9.6418-2.8379-12.9941,0-4.8163,4.0773-4.738,12.9217,0,16.0851,3.8143,2.5467,9.9011.9128,12.9941-3.0638Z"/>
      <path class="cls-1" d="M281.8088,680.5616c.8573-4.6711-11.1402-12.5614-15.6317-9.3276-2.7381,1.9714-2.8407,8.1878,0,14.7474,8.5221.1145,15.0546-2.2751,15.6317-5.4198Z"/>
      <path class="cls-1" d="M437.7512,767.3787c-5.9264-5.58-15.9535-.445-16.7933,0-6.6702,3.5343-12.7093,12.0808-9.9575,17.8508,2.7574,5.7816,12.7888,5.52,13.7872,5.4939,2.1766-.0568,8.8596-.2311,12.9636-5.4939,3.8271-4.9077,4.7439-13.3842,0-17.8508Z"/>
      <path class="cls-1" d="M514.9334,521.1063c-4.4667-1.4805-11.7964,6.6843-14.6396,14.2721-1.8135,4.8397-3.7577,14.6646,1.0896,17.8981,3.6964,2.4658,9.9901.1966,13.55-3.0638,8.8997-8.1509,5.8231-27.1763,0-29.1064Z"/>
      <path class="cls-1" d="M506.5362,628.9719c-.3936-3.2374-3.4229-5.2458-6.0039-4.6315-2.7491.6543-4.1195,4.077-3.2341,6.6383.5502,1.5916,2.0562,3.0959,3.9149,3.234,2.4189.1797,4.9728-1.9889,5.3231-5.2408Z"/>
      <path class="cls-1" d="M501.7834,686.4255c1.5255-1.9556,1.1595-4.6281,0-6.3513-1.2538-1.8632-3.8688-3.2606-6.1873-2.3296-2.652,1.0648-3.3982,4.5664-2.5532,6.9787.0999.2851,1.1405,3.0995,3.9875,3.5745,1.8558.3096,3.6877-.5068,4.7529-1.8723Z"/>
      <path class="cls-2" d="M537.0004,620.4255c-3.9473-3.991-13.2894-1.7392-15.0001,3.8046-1.0592,3.4326.7799,8.2162,4.9149,9.993,3.6133,1.5526,7.7427.2778,10.0852-2.5636,2.861-3.4701,2.5472-8.6585,0-11.234Z"/>
      <path class="cls-2" d="M537.0004,572.4174c-.0663-5.8914-3.0735-12.7948-6.0001-12.7578-3.1893.0402-6.5968,8.3267-5.6169,15.5167.5981,4.3894,3.0699,10.1198,5.8085,10.0991,2.9999-.0227,5.8751-6.9431,5.8086-12.858Z"/>
      <path class="cls-2" d="M530.3682,706.2127c3.8423-3.9782,4.28-11.2529,0-14.8297-4.1746-3.4887-10.7924-1.7507-14.1764,2.0638-2.9575,3.3336-4.1407,9.0375-1.2584,12.766,3.4376,4.4468,11.2804,4.3014,15.4348,0Z"/>
      <path class="cls-2" d="M492.7121,773.9651c5.1134,1.5958,11.8047-.8495,13.8241-6.5864,2.0393-5.7935-1.7798-11.8362-6.912-13.8983-4.7877-1.9237-10.8788-.4476-13.5601,3.7962-3.5681,5.6475-.0819,14.5883,6.6479,16.6885Z"/>
      <path class="cls-2" d="M474.3195,795.0978c1.4062-3.327-6.1796-11.3928-10.2128-9.8683-2.6718,1.0099-4.4202,6.4686-2.1562,9.8683,2.9885,4.4879,11.2089,2.7448,12.369,0Z"/>
      <path class="cls-2" d="M449.8089,837.9574c2.9279-3.2933,3.4508-9.3793,0-12.2553-3.5233-2.9365-9.1923-.8622-12.0577,2.1392-2.4276,2.5428-4.1256,7.0943-2.2402,10.1161,2.4725,3.9631,10.4822,4.2921,14.298,0Z"/>
      <path class="cls-2" d="M404.4042,828.7892c-3.1542-3.4965-9.5165-1.1944-10.1705-.9479-3.7924,1.4293-8.6443,5.4377-7.7441,9.6055.752,3.4813,5.1121,5.1984,7.7441,5.6171,1.151.1831,5.0256.6038,8.0857-2.0095,3.4938-2.9836,4.9501-9.0889,2.0848-12.2651Z"/>
      <path class="cls-2" d="M367.0854,868.5957c1.6425-2.3038,1.4339-5.7724,0-8.1702-2.4958-4.1736-8.8658-5.3735-13.0594-2.5532-3.019,2.0304-4.9957,6.202-3.7916,9.1915,2.0641,5.1249,13.3441,6.4509,16.8511,1.5319Z"/>
      <path class="cls-2" d="M330.8448,828.7892c-1.8056-4.7552-11.9365-5.5234-14.3126-1.9189-1.3683,2.0757-.1181,5.5302,1.5319,7.5127,1.9141,2.2997,5.7542,4.2863,9.1978,2.5532,3.1337-1.5771,4.5706-5.5458,3.5829-8.1469Z"/>
      <path class="cls-2" d="M291.1112,795.0978c.0048-4.9753-4.1628-9.8007-9.3024-9.8683-5.3654-.0706-10.2769,5.0636-9.7021,11.3663.798,4.2202,3.6242,7.5387,7.1489,8.3704,5.5388,1.3069,11.8497-3.7516,11.8555-9.8683Z"/>
      <path class="cls-2" d="M264.0849,734.7872c-2.3492-1.8909-5.9694-1.8909-8.3186,0-3.2332,2.6023-3.2332,8.1211,0,10.7234,2.3492,1.8909,5.9694,1.8909,8.3186,0,3.2332-2.6023,3.2332-8.1211,0-10.7234Z"/>
      <path class="cls-4" d="M204.9364,281.0211c-1.8908-33.735,12.101-59.7861,16.8974-68.4566,6.2421-11.2839,22.7229-41.0761,57.9457-56.2117,17.6635-7.5902,32.5431-8.2729,44.1539-8.8057,16.908-.7758,33.4814-1.5363,40.3537,8.8057,3.4982,5.2645,3.9191,12.5578,1.6593,18.1419-4.6415,11.4693-20.1213,14.5641-35.3929,17.4038-18.0283,3.3522-19.9415-.0295-32.9362,2.283-27.0319,4.8106-44.869,24.0924-51.6331,31.4043-3.8533,4.1654-16.4822,18.4637-24.1503,40.8766-8.9456,26.1469-5.552,47.0053-8.5307,47.2333-2.6148.2002-7.4156-15.7062-8.3667-32.6745Z"/>
    </g>
  </g>
</svg>