<?xml version="1.0" encoding="UTF-8"?>
<svg id="Capa_2" xmlns="http://www.w3.org/2000/svg" viewBox="0 0 661.7237 1749.7726">
  <defs>
    <style>
      .cls-1 {
        fill: #ffdaa9;
      }

      .cls-2 {
        fill: #f9bd5d;
      }

      .cls-3 {
        fill: #ffcb80;
      }

      .cls-4 {
        fill: #db963b;
      }

      .cls-5 {
        fill: #eaa94b;
      }

      .cls-6 {
        fill: #c17e2d;
      }
    </style>
  </defs>
  <g id="Capa_1-2" data-name="Capa_1">
    <g>
      <path class="cls-1" d="M379.3728,847.4213c-6.485,108.0264-94.6502,167.2119-182.9837,210.5996-51.413,26.0578-105.5913,53.0023-143.3416,97.4482-41.6884,47.5783-49.0963,117.9018-15.4118,172.021,22.9526,36.777,60.2556,61.8883,85.4111,97.171,28.688,39.0399,30.1357,83.7811,8.2039,126.3809-15.2101,29.2375-39.0604,53.8055-68.1866,69.0855-9.6914,4.9833-19.955,8.8524-30.5544,11.2196,10.5129-2.7334,20.5835-6.9399,30.0188-12.2114,56.257-31.7688,98.2497-107.2885,66.0402-169.2343-18.9504-35.977-53.6581-59.5097-81.1586-88.9568-59.4463-59.3535-63.1696-153.0026-10.1497-218.213,38.4843-48.6974,93.618-78.8879,146.8674-108.1858,57.7185-31.786,120.0403-69.3582,147.0103-131.8311,7.661-18.0102,11.6024-37.3242,12.2106-56.997l36.0242,1.7036h0Z"/>
      <path class="cls-1" d="M408.0982,847.0861c-2.2323,68.0939-29.0345,132.9093-63.5038,190.4338-21.2115,37.2888-46.7196,71.5934-62.8827,111.34-24.1784,58.6107-28.8185,121.6569,21.5224,167.6451,35.3877,34.3269,87.8128,59.7176,104.6654,109.8869,19.6506,58.6416-20.8046,115.288-17.655,173.9067,2.6155,42.2678,26.7056,81.8113,60.9411,106.2634,17.3598,12.3169,37.517,20.7914,58.677,23.7009,0,.0001-.3838,3.2235-.3838,3.2235-21.8901-2.3056-42.9739-10.3934-61.3022-22.547-37.9696-25.343-64.9279-68.1196-67.6353-114.1212-4.2243-57.8908,37.2912-121.7057,8.6471-175.6574-10.8303-20.5966-29.0355-35.8579-47.4786-49.9351-35.667-26.5642-76.2515-52.534-92.0041-96.7086-23.5905-66.1243,3.7176-137.8688,36.9077-195.5087,31.8298-55.8858,64.6617-109.8196,78.2333-172.1257,4.3918-20.0129,6.6743-40.3701,6.9678-60.8298l36.2837,1.0332h0Z"/>
      <path class="cls-1" d="M432.4519,830.7443c-14.6418,121.8611,44.5575,247.458,3.4339,367.8242-13.1696,38.4957-36.9769,72.3212-62.3076,103.6677-42.7776,53.8253-96.6307,106.6491-103.9115,178.281-7.5381,71.1761,28.2437,138.6779,26.2857,209.7159-.4823,20.4256-4.703,40.6824-12.2088,59.5396,14.2833-38.4745,11.3265-80.2475,1.9965-119.4764-11.4038-49.4704-29.8084-98.8953-26.2138-150.6262,4.4981-74.1543,57.6949-131.8186,99.7432-188.5032,22.7813-30.5275,44.1365-62.8334,55.2396-99.5279,10.9481-36.2937,12.0781-74.7467,8.7633-112.322-7.4493-83.3627-34.3861-167.2474-26.7902-252.4826,0,0,35.9697,3.9099,35.9697,3.9099h0Z"/>
      <g>
        <path class="cls-2" d="M523.6263,755.5273c-29.21,72.72-113.19,143.99-194.22,116.39-7.37-2.51-14.71-5.84-21.99-10.06-34.6801-20.1-52.37-61.18-56.69-101.03-3.29-30.24-.22-60.64,2.42-91.03.84-9.65,1.64-19.3,2.18-28.95.28-5.01.49-10.02.62-15.04,1.74-64.19-8.41-128.95-33.3-188.09-17.43-41.43-42.25-81.05-46.86-125.77-3.63-35.16,5.92-71.01,23.66-101.59,24.55-42.31,67.85-76.23,116.71-78.65,48.12-2.38,93.81,26.01,123.4501,63.99,29.6399,37.98,45.71,84.62,59.1499,130.89,7.9,27.18,15.0701,54.62,21.3,82.26,6.6,29.22,12.1499,58.67,16.3999,88.3,3.17,22.08,5.6301,44.26,7.26,66.51.47,6.49.8501,12.93.8501,12.93,0,0,.45,7.69.76,15.13,4.4099,106.97-21.7001,163.81-21.7001,163.81Z"/>
        <path class="cls-1" d="M321.8037,131.568c46.0315-.0011,89.324,27.6376,117.8027,64.1293,29.6399,37.9801,45.71,84.62,59.1499,130.89,7.8999,27.1801,15.0701,54.62,21.3,82.26,6.5999,29.22,12.1499,58.67,16.3999,88.3,3.1699,22.08,5.6301,44.26,7.26,66.51.47,6.49.8501,12.9299.8501,12.9299,0,0,.45,7.6899.76,15.1301,4.4099,106.97-21.7002,163.8098-21.7002,163.8098-24.8044,61.7524-89.1143,122.4653-157.5642,122.4653-12.157,0-24.4351-1.9126-36.6558-6.0752-7.3699-2.51-14.71-5.8401-21.99-10.0601-34.6799-20.1001-52.37-61.1799-56.6899-101.03-3.29-30.24-.22-60.6399,2.4199-91.03.84-9.6499,1.64-19.3,2.1801-28.95.28-5.01.49-10.02.62-15.04,1.74-64.1899-8.41-128.95-33.3-188.09-17.4299-41.4299-42.25-81.0499-46.86-125.77-3.63-35.1599,5.92-71.01,23.66-101.59,24.5499-42.3099,67.8501-76.23,116.71-78.65,1.8855-.0933,3.77-.1393,5.6475-.1393M321.8064,116.568v15l-.001-15c-2.1245,0-4.2734.0531-6.3896.1576-25.9475,1.2852-52.0066,10.6492-75.3616,27.0798-21.3733,15.0364-39.9016,35.4465-53.582,59.0238-20.2725,34.9453-29.366,74.2443-25.6066,110.6584,3.6422,35.3312,18.6691,67.041,33.2012,97.7065,5.0273,10.6089,10.2261,21.5789,14.7533,32.3398,22.7791,54.1243,33.8896,117.0122,32.1317,181.8669-.1229,4.7488-.3253,9.658-.6022,14.6091-.5522,9.8704-1.3977,19.8794-2.1467,28.4866-.1671,1.9229-.3357,3.8435-.5043,5.7642-2.5198,28.7107-5.1254,58.3989-1.8843,88.189,2.4819,22.8955,8.9078,44.7708,18.5823,63.2546,11.3468,21.6794,26.6547,38.2092,45.4979,49.1306,7.9849,4.6287,16.2874,8.4243,24.6758,11.2812,13.3955,4.5627,27.3555,6.8762,41.4917,6.8762,18.4534,0,37.2129-3.9019,55.7576-11.5967,16.957-7.0364,33.4233-17.1001,48.9414-29.9116,29.3311-24.2156,52.9976-56.1948,66.6685-90.0784,2.54-5.7156,27.2534-64.3264,22.8843-170.3064-.312-7.4868-.7542-15.0693-.7729-15.3884-.0161-.2747-.3918-6.6223-.8638-13.1372-1.6082-21.9536-4.0884-44.6793-7.373-67.5581-4.1482-28.9211-9.7388-59.0248-16.616-89.4733-6.0457-26.8209-13.2891-54.7961-21.5278-83.1417-13.657-47.0175-30.5879-96.0291-61.7285-135.932-34.1584-43.7695-82.6165-69.9008-129.6252-69.9008h0Z"/>
      </g>
      <path class="cls-1" d="M374.6875,132.6404c17.0011-8.4864,37.163-12.8072,55.7263-7.0524,10.6365,3.2242,19.1404,10.3089,29.1382,14.6089,12.647,5.4529,26.6336,9.0022,40.4767,9.3876,14.5751.6253,27.5606-5.6131,36.9714-16.725-4.223,5.7317-9.5849,10.752-15.9188,14.3099-12.8798,7.2369-28.5709,6.4756-42.7119,4.3613-7.1572-1.1546-14.2979-2.8165-21.2456-5.3043-6.7589-2.3766-13.3606-5.8993-19.7387-8.8255-6.1836-2.8378-12.3662-4.2201-18.9952-4.3738-13.1531-.3428-26.0222,4.2106-37.5217,11.0499l-6.1807-11.4366h0Z"/>
      <path class="cls-1" d="M173.8964,259.7626c-13.934-2.9962-29.2703-1.7401-40.8966,6.9422-5.7494,4.1912-10.6315,10.0938-15.4317,16.2671-6.1579,7.7955-11.7873,15.544-16.0446,24.2682-3.0226,5.6586-8.199,10.0379-13.6021,13.3349-6.9731,4.3512-15.262,5.4093-22.6571,8.196-14.9273,5.6047-23.8612,20.3814-27.6264,35.3383,2.7455-15.5987,11.2899-31.5429,26.3433-38.3239,7.1471-3.3174,14.981-4.7677,21.3167-9.3195,4.4151-3.167,8.5394-6.9996,10.8069-12.0136,0,0,2.4169-5.403,2.4169-5.403,3.4084-7.3911,7.9986-14.1433,12.4627-20.8386,4.6211-6.8397,9.4656-13.6779,15.9553-19.1438,13.3383-11.5368,32.2418-14.6167,49.2045-12.1082,0-.0001-2.2478,12.8041-2.2478,12.8041h0Z"/>
      <path class="cls-1" d="M432.6248,174.9231c20.7405,1.5267,41.6303,7.6973,58.6406,19.8746,5.6268,3.9476,10.7195,8.0887,16.1233,11.6738,10.7913,7.0191,22.8642,13.0239,35.4213,16.0388,12.8849,2.8162,26.4613-.2242,37.88-6.6574-5.5159,3.7162-11.6382,6.6599-18.1689,8.401-13.622,3.9763-27.0264,1.0408-39.9409-3.7972-6.3438-2.3295-12.5994-5.1066-18.5713-8.4331-5.9832-3.3081-11.5706-7.1357-17.1311-10.3877-11.0149-6.5384-23.1403-10.5821-35.7505-12.4259-6.2759-.9056-12.6255-1.32-18.9873-1.2961l.4849-12.991h0Z"/>
      <path class="cls-1" d="M265.1546,814.6954c-12.5643,14.3369-22.0947,31.4553-25.4121,50.386-1.176,6.3332-1.9338,13.0637-3.3435,19.7536-2.9647,13.3242-7.4047,26.247-14.6509,37.8834-7.3958,11.3872-19.662,19.1758-32.595,22.6351,12.333-4.431,23.5129-12.716,29.807-24.3056,5.9302-11.4716,9.2819-24.5323,11.0284-37.2863.8211-6.4329,1.0183-12.994,1.7108-19.8323,1.3062-13.7956,5.6663-27.4427,12.1682-39.7077,3.2674-6.1621,7.0165-12.0574,11.1413-17.6541l10.1458,8.1279h0Z"/>
      <path class="cls-1" d="M175.0503,323.9799c-9.7958-.999-20.405-.1033-28.0703,6.3213-7.7673,7.5782-13.6178,17.4488-20.0284,26.2916-3.1366,4.2606-6.709,10.5956-10.583,14.2109-10.8824,7.8527-23.5093,3.1454-34.6946-.0584-5.4867-1.7063-10.782-3.937-15.7989-6.6296,5.2504,2.2037,10.6855,3.9011,16.2084,5.0569,9.2756,1.727,19.3504,4.4425,28.1017.0758,3.6299-1.6891,4.9645-4.9857,7.0992-8.6334,0,0,4.1572-7.4698,4.1572-7.4698,5.9716-10.1506,10.8723-20.707,18.6876-29.7818,4.7081-4.9194,10.5796-8.0132,16.9147-9.9601,6.1991-1.87,12.5213-2.4193,18.6911-2.4052l-.6847,12.9819h0Z"/>
      <path class="cls-1" d="M287.8074,852.7267c-7.7732,6.0445-14.8255,14.0206-15.93,23.9612-.3814,10.8449,2.2068,22.0235,3.6801,32.8457.6758,5.2559,2.4671,12.2826,2.1643,17.5859-2.4438,13.1953-14.8258,18.5145-25.1264,23.9243-5.1461,2.5565-10.5158,4.6014-16.0032,6.12,5.3186-2.0332,10.4211-4.5605,15.2129-7.54,7.8998-5.1586,17.0598-10.1546,20.3715-19.3573,1.4578-3.7288.1455-7.0343-.8307-11.1466,0,0-2.154-8.2727-2.154-8.2727-2.694-11.4648-6.4427-22.4829-7.0606-34.4433.006-6.8096,2.1141-13.1022,5.3501-18.8863,3.1905-5.634,7.3824-10.3987,11.8531-14.6504l8.4729,9.8596h0Z"/>
      <path class="cls-1" d="M316.3504,118.7738c8.2924-10.9394,21.2676-20.458,35.6817-20.3034,3.7448.0847,6.892.7689,9.798,1.1359,5.9468.872,11.879.6889,17.9246.4505,8.6548-.3601,17.7754-1.5213,24.4946-7.366,4.8254-3.8218,6.1843-9.8428,9.2682-15.1319,6.4302-11.1701,17.6542-18.6314,29.6532-22.41-5.7432,2.4013-11.1572,5.5737-15.7791,9.6072-4.6064,4.0179-8.4878,8.8846-10.9922,14.3053-1.2942,2.7041-2.1189,5.5778-3.3162,8.6339-3.5722,9.7298-13.4092,15.7171-23.1146,17.925-9.5362,2.0609-19.1599,3.2556-28.9313,2.8884-6.1769-.4315-10.8586-.824-16.2588,1.6041-7.6294,3.176-13.292,9.2008-17.8518,16.2198,0,0-10.5764-7.5589-10.5764-7.5589h0Z"/>
      <path class="cls-1" d="M194.2146,204.8564c-10.8233-3.6901-22.5672-4.3225-33.8866-3.0682-9.1314.9079-18.2682,3.8813-24.8308,10.3922-2.9059,2.7988-4.0079,5.8877-6.3513,9.5104-9.1378,12.9907-26.3833,17.0897-41.3732,15.9684-8.4256-.458-16.9709-2.4969-24.2868-6.9243-14.9358-8.6479-21.1422-27.2719-17.5917-43.5259-3.4409,27.2609,14.9161,46.3354,41.995,45.5764,11.4312.0671,23.3852-2.878,31.5765-11.0941,2.8872-2.8433,3.8818-5.6017,5.7657-9.4132,4.2602-8.2388,12.374-14.0235,20.7831-17.4337,8.2503-3.2601,16.9076-4.3535,25.609-5.0281,8.7787-.5387,17.6536.3636,26.205,2.5525l-3.614,12.4875h0Z"/>
      <path class="cls-1" d="M275.3108,128.1128c.5787-12.3793,5.5733-26.4116,16.672-33.5279,4.1523-2.7695,8.9813-3.7148,13.046-6.1796,7.0582-4.5497,11.9207-12.6677,13.8658-20.8605,2.1598-9.1271-.3304-17.4023-7.461-23.4195-15.3972-12.5618-14.4981-28.045-5.1141-44.1254-5.4053,10.7736-7.9519,25.4715.7789,34.9726,3.0448,3.4334,7.3615,6.0133,10.7842,9.3451,3.8199,3.6461,6.3983,8.6855,7.269,13.8738,1.7656,10.455-1.5675,21.0871-7.5345,29.7201-2.0213,2.8832-4.503,5.5834-7.5182,7.854-2.7108,2.0755-6.1474,3.6066-8.9817,5.0605-10.0706,5.1611-13.1113,16.782-12.8103,27.6009,0,0-12.9961-.3142-12.9961-.3142h0Z"/>
      <path class="cls-1" d="M491.1795,977.733c-5.5517-9.676-8.5163-22.19-3.6351-32.8406,1.9923-4.3858,5.5595-7.8194,7.5089-12.1423,5.339-12.275,2.4967-31.7139-9.9673-38.4735-5.7912-2.8542-11.6149-2.266-18.0271-4.7522-14.85-5.4272-20.8418-21.886-21.168-36.4778-.0002.0001,12.9998-.0211,12.9998-.0211-.2546,5.7861.2488,11.4883,2.1343,16.3914,3.2839,8.6522,9.3588,11.8467,18.1034,13.7979,11.4839,2.5316,19.2506,10.2672,22.3457,21.467,3.0568,11.5407,1.931,24.683-5.6999,34.131-2.0188,2.4827-4.1462,4.6499-5.6987,7.376-5.4252,9.7857-3.4205,21.6895,1.104,31.5444h0Z"/>
      <path class="cls-1" d="M519.6553,774.5702c8.3112,9.1922,14.6545,22.6689,11.7925,35.5386-.995,4.8913-3.7556,8.9641-4.9035,13.5773-2.7511,13.0735,4.3233,30.961,17.8341,35.118,6.1168,1.7754,12.2933.0473,18.6755,1.0234,13.842,1.8214,21.9278,15.0499,24.8641,27.5016-3.7548-11.4538-12.3038-23.6778-25.1938-24.2683-4.5799-.2908-9.4608.9197-14.2371.9671-5.2797.1042-10.6599-1.6551-14.9333-4.7234-8.6196-6.1746-13.7455-16.0682-15.5941-26.3983-.5971-3.4703-.7384-7.1348-.1989-10.8704.4612-3.383,1.821-6.891,2.8079-9.9197,3.5095-10.7578-2.5205-21.1469-10.3572-28.6118,0,0,9.4438-8.9341,9.4438-8.9341h0Z"/>
      <path class="cls-1" d="M231.7445,158.8336c-3.4566-11.7474-9.9449-23.254-21.5768-28.006-5.8872-2.4419-12.1838-1.9026-18.7411-1.7592-7.1097.2555-14.7821-.4688-21.7078-2.7826-28.7847-9.4694-49.5216-34.4499-39.0588-65.4724-7.6195,30.1691,12.6637,52.2242,40.7932,59.208,6.4631,1.5845,12.8501,1.6617,19.4927.9362,7.1656-.803,15.1297-1.7706,22.4329.6641,7.7333,2.3759,14.3065,7.3031,19.358,13.244,5.0699,5.9529,8.6295,12.8085,11.3065,19.7561l-12.2988,4.2118h0Z"/>
      <path class="cls-1" d="M196.245,398.3953c-9.3265,3.9535-17.7042,10.4394-22.7289,19.2818-1.636,2.9417-2.9634,6.4801-5.4325,9.2629-3.8345,4.3991-9.1726,7.228-14.5591,8.7259-12.0696,3.033-25.1169,1.4726-35.6146-4.9919-3.8593-2.4824-7.2062-5.9165-11.885-5.9729-7.7792-.5843-14.9691,3.9162-20.6917,8.8984-6.1686,5.1679-10.7691,11.9814-13.4487,19.6626,2.0085-7.8751,6.2101-15.3751,12.0722-21.1561,5.8536-6.0373,13.3406-11.3873,22.1673-11.4662,5.3547-.4226,10.1402,3.0117,14.4664,5.4837,4.0016,2.1477,8.3635,3.2283,12.8953,3.6996,9.8293.8937,21.0277-.7729,27.3071-8.7266,1.6152-2.304,2.3077-5.1085,3.6231-7.9288,2.2338-4.9681,5.435-9.5189,9.1009-13.5042,4.8814-5.3276,10.7915-9.6605,17.0999-12.9867l5.6283,11.7185h0Z"/>
      <path class="cls-1" d="M470.9556,222.5641c11.4629.8546,23.0253,4.0338,32.5031,10.6903,6.1974,3.9838,10.1794,10.3423,15.6904,14.7757,9.3399,7.268,20.7417,13.4578,32.931,12.2277,13.9128-1.5328,28.7748-9.7793,27.2417-25.7167-.151-13.1995,12.2954-21.5711,23.5514-25.4132-9.6816,3.4636-20.1055,9.5484-22.8153,20.1862-1.3792,5.1449.4184,10.7247-1.9144,15.6852-3.5865,8.4025-12.1721,13.2408-20.6025,15.7153-10.4859,3.3615-21.9415,1.1618-31.6181-3.6539-6.5679-2.9817-12.9688-7.1305-18.1537-11.9958-7.4009-6.6655-17.0105-9.8082-26.7956-10.1292-3.2278-.0718-6.4629.1231-9.674.6239l-.344-12.9955h0Z"/>
      <path class="cls-1" d="M217.2918,441.7572c-10.6848-.3256-22.7226,1.1849-28.9023,10.6243-2.8527,5.5578-5.8788,11.8014-9.6701,16.8581-5.9597,8.4826-13.2265,18.6786-23.9518,22.0389-8.7785,1.9678-17.7173,1.961-26.6216,2.7279-10.4938.7068-18.0711-.3633-25.2854,8.8346-1.9482,2.461-3.4765,5.2712-4.6906,8.2099.9604-3.0305,2.2499-5.99,4.0322-8.6862,6.7005-10.1766,14.7828-9.978,25.6107-11.5913,6.2466-.9446,12.5905-1.9371,18.7498-3.0733,2.2316-.4385,4.439-.8765,6.5071-1.6366,3.2174-1.3841,6.0888-3.6479,8.5214-6.1876,3.9906-4.2312,7.0726-9.5933,10.3122-15.0584,1.5507-2.6531,2.9722-5.3153,4.1836-8.0424,2.0865-4.6202,3.3769-9.8956,6.8581-13.9339,3.5883-4.3842,8.4414-7.7262,13.563-9.8574,6.7971-2.8406,13.8595-3.8798,20.7191-4.2265l.0647,12.9998h0Z"/>
      <path class="cls-1" d="M494.7237,269.3093c12.3337,8.7965,25.6044,16.6696,39.5315,22.7538,4.1154,1.6939,7.7774,3.1561,12.0838,3.3471,7.1738.2533,14.5212-1.3185,20.8897-4.6919,2.4838-1.384,5.0174-3.0524,7.0718-4.9984,3.4723-3.1339,5.4854-7.8487,9.5152-10.5532,12.1296-8.2404,28.726-7.2812,41.4011-1.1786-12.4602-4.7486-28.4803-4.5514-39.1414,4.0525-3.5566,3.0018-4.9924,7.6839-8.2715,11.0692-6.8161,7.4857-16.4492,11.9585-26.3708,13.5037-10.1252,1.991-20.1748-1.9009-29.3731-5.4802-11.8838-4.6915-23.3936-10.3916-34.4353-16.9337l7.0991-10.8904h0Z"/>
      <path class="cls-1" d="M492.3257,821.6625c-.8319,15.126-.3829,30.5503,1.9294,45.5713.7713,4.383,1.4949,8.2592,3.638,11.9993,3.6242,6.1962,8.8838,11.5623,15.1411,15.1375,2.4983,1.3579,5.2634,2.6054,8.0069,3.2998,4.5052,1.2563,9.5658.4347,14.0066,2.3917,13.4513,5.838,21.5218,20.3722,23.1479,34.3455-2.4258-11.9099-9.5574-23.3895-20.3352-29.2227-2.5833-1.3311-5.2697-2.2832-8.164-2.3594-3.0319-.0588-6.5113.232-9.6448-.3817-9.9712-1.7526-18.9042-7.4978-25.5183-15.0527-7.0996-7.4886-9.1892-18.0609-11.0868-27.7469-2.3954-12.55-3.7384-25.3234-4.1197-38.152l12.999.1704h0Z"/>
      <path class="cls-1" d="M252.024,783.4774c-4.4886,12.0239-9.87,23.686-16.1757,34.7981-3.3328,5.7543-6.5006,11.2784-11.1188,16.3458-7.816,7.8089-18.8245,12.2263-29.7751,12.8146-4.1637.1619-8.4962-.2578-12.439-1.6453-4.269-1.7063-8.2875-2.7805-12.84-1.903-12.0846,2.0566-22.5234,10.6273-28.6563,21.1257,6.0307-12.7036,18.3573-23.8737,32.9674-25.0718,4.8365-.4237,9.3606,1.9817,14.0315,2.2425,11.2188.654,23.2486-4.41,30.5889-12.9039,3.4418-4.5087,6.1098-10.1733,8.5641-15.4506,5.0941-11.1231,9.2368-22.6436,12.4904-34.3731l12.3625,4.021h0Z"/>
      <path class="cls-1" d="M506.8133,312.1443c15.8155,1.2733,31.4935,6.3262,44.9218,14.4982,8.0614,4.81,14.3532,1.6762,21.9627-2.23,10.8921-5.3977,21.8014-10.7887,33.2798-14.9788,2.8994-1.013,5.8704-1.9535,9.0506-2.3526,9.4208-.9539,18.332,4.845,24.2488,11.5573-6.407-5.9829-14.9904-10.7338-23.8662-9.1503-8.5657,2.2032-16.3121,7.1006-24.0856,11.3412-5.2226,2.9839-10.328,6.0915-15.4777,9.2694-5.4142,3.3834-11.806,7.3815-18.6351,7.0082-6.5862.2014-12.7932-3.8357-18.5436-5.988-10.67-4.0864-22.0938-6.0543-33.4097-5.9866l.5542-12.9882h0Z"/>
      <path class="cls-1" d="M507.0799,338.8596c12.6034,1.5767,25.3978,6.111,34.9682,14.8045,4.6225,4.0426,7.8828,9.1261,11.9587,13.3214,3.8264,3.9638,8.5925,7.4392,13.0456,10.6272,14.3016,10.235,24.5453,4.4277,37.7978-3.8002,7.4902-4.5186,14.3853-9.9354,20.6182-16.1177-3.7646,4.4927-7.8845,8.7178-12.3401,12.5944-4.4675,3.8829-9.2303,7.3181-14.1013,10.7206-7.7928,5.6791-17.0928,8.8582-26.7132,5.9135-6.0423-1.7823-11.1917-5.2153-16.361-8.4715-5.1066-3.1463-10.0477-7.5942-14.091-11.8826-5.6038-5.9579-12.2998-10.0261-20.0753-12.3142-5.0595-1.5162-10.3996-2.2341-15.7939-2.441l1.0872-12.9545h0Z"/>
      <path class="cls-1" d="M227.4579,468.479c-17.1449,7.4149-23.2082,19.1728-26.1832,37.0685-.5748,3.0434-1.2798,7.3214-1.7131,10.312-.5958,3.8054-.5694,6.9176-1.4224,10.9585-3.6079,12.5605-20.5995,21.6182-32.981,17.1134-.7821-.3598-2.0366-.8535-2.7446-1.3392-7.5716-4.2597-9.6139-14.4325-18.2904-16.5914-10.3713-2.2938-20.1319,5.3485-27.7611,11.5726,9.7081-9.8981,25.9616-21.4577,38.0906-8.3242,6.2698,6.9771,9.926,12.5624,20.1692,10.441,6.6846-1.6171,13.0259-6.2664,15.8708-12.5911,1.2149-3.6153.5527-8.0602.9826-12.0262.2051-3.1977.6275-7.5952.9533-10.8005.8004-7.4483,1.9465-14.9747,4.9167-22.0922,4.4292-11.1504,14.0862-20.0153,24.4318-25.3941,0,0,5.6809,11.6929,5.6809,11.6929h0Z"/>
      <path class="cls-1" d="M523.0821,374.8547c12.2757,5.3739,23.3849,13.1824,32.0862,23.2923,3.246,3.6554,5.6881,8.0242,9.1869,11.0974,8.8841,7.1787,21.6647,9.944,32.865,6.5265,9.3684-2.8328,16.7916-10.4991,20.5886-19.5156-1.4658,4.7779-3.8203,9.3594-7.1071,13.2911-12.0494,14.8541-35.4039,15.7146-50.8011,5.497-2.3869-1.6158-4.4155-3.6862-6.1753-5.5571-3.3633-3.6681-6.5016-6.8068-10.4107-9.7289-7.4822-5.7197-15.9502-9.9713-24.8218-12.7396l4.5891-12.1631h0Z"/>
      <path class="cls-1" d="M239.9868,508.7848c-8.5941,2.4577-17.309,6.766-19.9423,15.6836-1.1145,4.6853-1.7043,11.1624-3.6694,15.9951-2.0769,5.3678-4.2736,10.494-7.6569,15.2643-10.6553,15.0331-29.9859,15.59-46.4339,12.2842-5.3288-1.1023-10.4695-2.9099-15.284-5.2884,5.0303,1.8816,10.2622,3.1379,15.5366,3.6833,18.351,1.6822,37.496-1.1747,43.7829-21.0119,1.6881-4.7054,3.1324-9.5618,3.4683-14.5748.2672-4.3148.3719-9.0423,2.0218-13.1894,1.7033-4.5838,4.7434-8.6907,8.3084-11.8975,4.7553-4.2414,10.2125-7.0772,15.6827-9.2562l4.1857,12.3077h0Z"/>
      <path class="cls-1" d="M532.1636,420.8344c13.0277,2.8399,25.6558,9.4673,34.3371,19.7928,4.0374,4.5323,6.7981,10.5326,10.5373,14.7642,7.6476,8.1355,21.0067,7.4233,31.3404,5.0443,6.1005-1.0279,11.1053-3.5406,16.7727-6.1212,11.5465-4.8176,24.7612-4.521,36.5726-1.0523-11.7959-2.3322-24.4582-1.6116-35.1921,3.9948-5.1935,2.9942-10.9981,6.3943-16.9679,7.9074-5.891,1.7865-12.2294,3.3323-18.923,3.1545-11.6004-.3479-19.3124-5.325-25.7618-14.6197-5.0403-6.8925-11.3632-12.25-19.1169-15.6746-5.009-2.2568-10.3923-3.6694-15.9247-4.4001l2.3264-12.7902h0Z"/>
      <path class="cls-1" d="M247.1344,543.2797c-12.7897,5.9309-23.3281,16.4006-28.5111,29.6952-2.9191,6.7898-4.5102,15.3694-8.9745,21.8391-8.1174,12.2923-24.7647,11.5989-37.3277,8.1638-4.9996-1.2993-9.8466-3.0076-14.6064-4.884,14.1989,3.7873,38.4137,9.324,47.1141-6.2988,3.4345-6.6317,3.7896-13.9938,6.1136-21.4697,1.4788-5.1668,3.5969-10.3521,6.4663-15.1182,5.6506-9.5862,13.9779-17.5479,23.5001-23.3396l6.2256,11.4124h0Z"/>
      <path class="cls-1" d="M540.4012,457.0931c15.6435,10.4035,28.9274,25.1526,36.1715,42.5851,1.9376,4.6806,4.4329,7.6696,8.5306,10.1877,5.3293,3.3229,11.5726,5.0059,17.8287,5.812,5.7187.7506,11.6243.7467,17.5015.3949,5.9242-.3508,12.3443-1.6977,18.1689.4583,5.8931,2.026,10.6118,6.3043,13.9299,11.2373-3.7524-4.6239-8.7573-8.3094-14.394-9.6799-5.6223-1.51-11.3374.3173-17.3408,1.214-12.1251,1.8282-25.1434,2.3058-36.7612-2.5467-4.6275-2.036-9.1478-4.9596-12.0822-9.197-4.1494-6.3881-7.116-12.6778-12.1624-18.3474-7.2622-8.6358-16.2998-15.606-26.1916-21.0392l6.8013-11.0789h0Z"/>
      <path class="cls-1" d="M252.3538,578.6666c-9.6474,13.7358-22.6042,25.666-38.0612,32.5099-6.7987,3.334-14.7874,4.6302-19.9447,10.3366-1.5507,1.7482-2.8971,3.7973-3.8415,5.9709-2.0334,4.6603-2.1272,10.2815-3.9965,15.2141-3.7632,10.4066-12.0634,18.4024-21.6371,23.3718,4.4397-2.9321,8.4506-6.4778,11.6712-10.5947,3.1912-4.1189,5.6442-8.813,6.8549-13.7168,1.3436-5.2266.7948-10.5971,2.5296-15.9502.8977-2.8137,2.2409-5.4238,3.977-7.8462,3.3136-4.7895,8.8664-7.8818,13.8244-10.3366,6.8989-3.4231,13.3962-7.3839,19.0807-12.4877,7.5191-6.6262,13.631-14.7155,18.5766-23.4516l10.9668,6.9805h0Z"/>
      <path class="cls-1" d="M546.3181,521.2786c12.1315,1.1469,24.6339,5.8561,33.0205,15.1377,3.998,4.0642,6.5402,10.138,9.1568,14.6321,6.9115,10.4274,22.7425,11.4465,33.8184,7.7774,2.4997-.8457,4.7325-1.8867,6.8895-3.4748,2.2372-1.7115,5.0728-3.037,7.8091-3.8019,8.1644-2.4184,17.0011-.9522,24.7111,2.0178-7.8561-2.1434-16.3267-2.7684-23.9189.2873-2.4899.9911-4.6022,2.2218-6.6011,4.0584-2.1078,1.9121-4.7604,3.5204-7.3846,4.6864-10.7867,4.753-23.903,5.3408-34.5508-.4884-2.7544-1.5209-5.4385-3.7582-7.3684-6.3177-1.9707-2.533-3.3591-5.0525-4.7898-7.0999-4.0797-6.0753-10.1553-10.1424-17.0671-12.3445-4.5847-1.4575-9.4746-2.0801-14.4563-2.0906l.7314-12.9794h0Z"/>
      <path class="cls-1" d="M246.0679,626.5951c-10.3949,2.853-21.6662,7.8756-25.8177,18.3301-1.5866,4.2698-1.8129,10.1459-3.8951,14.6572-4.2151,9.8309-11.5217,18.6646-21.1821,23.469-11.6426,5.9254-25.9686,4.8188-37.4584-.8387,22.2413,7.8927,43.239-.9089,51.2324-23.4641,2.0935-5.4488,1.2482-10.5444,2.772-16.4882.7617-2.935,1.9905-5.6162,3.5114-8.1596,3.092-5.0654,7.4347-9.1377,12.072-12.29,4.6542-3.1838,9.6351-5.5698,14.6729-7.5544l4.0925,12.3389h0Z"/>
      <path class="cls-1" d="M656.6175,598.0936c-17.4148,26.5384-42.7584,22.2386-63.3771,2.0147-2.0753-1.9287-3.9898-4.0798-5.7711-6.313-3.6001-4.4338-6.2144-9.6272-9.167-11.991-7.1654-5.6179-16.652-3.8977-24.7988-.6666,0,0-4.1551-12.318-4.1551-12.318,11.863-3.6909,27.7482-3.4425,36.5842,6.8977,3.3841,3.9945,5.3901,9.1373,8.1429,13.3476,2.6825,4.2497,6.1401,8.1063,9.7043,11.6201,17.4421,17.3073,37.266,16.7739,52.8376-2.5916h0Z"/>
      <path class="cls-1" d="M552.1429,602.2206c19.3833,3.1087,34.6433,12.9095,43.1326,30.8652,6.2542,13.0454,23.3686,17.2179,36.2949,12.3927,6.1318-2.335,11.2233-6.7241,14.8342-12.287-2.6921,5.3979-6.9526,10.2965-12.2803,13.4043-9.936,5.8996-22.7754,5.993-33.1743,1.0255-2.4014-1.1124-4.707-2.6888-6.7207-4.5555-3.791-3.4842-6.2757-8.0174-9.2703-11.8408-5.354-6.9802-12.9586-11.6479-21.3242-14.0381-4.1721-1.1821-8.5129-1.8235-12.926-2.0457l1.4341-12.9207h0Z"/>
      <path class="cls-1" d="M245.8494,667.0038c-7.9827,1.7484-15.6721,5.8785-19.9015,12.8972-2.2616,3.7951-3.5185,8.6666-5.629,12.8725-6.7136,13.4846-18.5541,25.617-33.617,28.9468-9.6462,2.237-19.6964,1.2334-28.9872-1.7202,25.8559,5.1216,45.845-5.6643,55.1114-30.369,1.6549-4.6393,2.2619-9.3685,4.4391-14.1656,2.3768-5.2424,6.0658-9.635,10.4471-13.1411,4.3795-3.5046,9.3917-6.0269,14.4814-7.7959l3.6555,12.4753h0Z"/>
      <path class="cls-1" d="M555.6616,644.3329c6.4089,6.2222,13.2476,12.0588,20.4414,17.4783,3.6812,2.752,7.3345,5.5391,10.9763,8.0337,3.5239,2.354,6.8369,4.5222,11.0124,5.1551,6.5468,1.3531,12.7278-1.4539,19.0947-3.0021,11.4817-2.8453,23.9868-.8894,34.3245,4.0875-13.2231-4.6279-27.0927-3.7301-39.453,2.3919-16.6729,7.6272-27.2484-.5132-41.3387-8.5377-8.1269-4.7381-15.9963-9.9866-23.5293-15.7461l8.4717-9.8606h0Z"/>
      <path class="cls-1" d="M551.7185,688.3827c4.5419,10.1191,12.1757,19.7749,23.3235,22.3747,7.0592,1.5772,14.329.8404,21.7463.4173,5.1353-.3409,10.0806-.6952,15.0774-1.4344,3.7539-.4995,7.9962-1.5048,11.9668-.9507,12.1291,1.5459,21.3121,10.7174,27.6784,20.4019-7.6043-9.2553-18.8154-18.3529-31.3987-16.4757-7.2615,1.7557-15.1265,3.8038-22.5413,4.9112-10.4751,1.8216-22.1924,4.0214-32.5888-.2274-5.5181-2.1442-10.3806-5.5651-14.4761-9.5756-4.1096-4.0186-7.4802-8.626-10.3196-13.4404l11.532-6.001h0Z"/>
      <path class="cls-1" d="M249.0054,700.8307c-5.657,13.8473-15.7092,27.4244-30.6364,32.1239-5.6821,1.791-11.1999,1.7693-16.7442,2.8302-7.7788,1.4142-15.3853,4.3641-22.6281,7.5462-15.8286,6.8687-23.1514,22.1881-21.8898,39.0308-.8945-5.4118-.9959-11.0275.0371-16.5375,2.792-15.419,13.39-24.471,27.0088-30.7674,7.4724-3.9165,15.7777-6.7956,24.0232-8.3777,9.9152-1.7014,17.6824-7.9916,22.7048-16.547,2.5113-4.2137,4.4082-8.8848,5.9016-13.7288l12.2229,4.4272h0Z"/>
      <path class="cls-1" d="M542.5918,736.0897c4.2994,8.0018,10.351,16.4924,19.8237,17.1825,4.5693.1248,9.7343-2.5962,14.4559-3.9639,5.4992-1.7718,11.1735-3.0255,16.811-3.8085,8.3047-1.0267,17.2458-2.7606,25.7236-.6339,5.7395,1.3491,10.5074,5.5069,14.3953,9.4749,6.0078,5.7064,14.8538,6.7729,22.8161,4.9658-7.8511,2.6876-17.5575,2.312-24.364-3.0833-6.7541-5.7982-12.4155-8.5736-21.4252-7.4935-10.3522,1.4374-21.3892,4.0412-31.1083,8.1873-4.5615,1.8956-9.32,4.7829-14.3708,5.7508-7.7265,1.5257-15.6283-1.4499-21.5781-6.0609-5.1738-3.9809-9.0198-8.886-12.3618-13.8879l11.1826-6.6294h0Z"/>
      <path class="cls-1" d="M207.9413,177.9247c-19.9144-14.1471-48.0162-23.5874-72.5832-20.4244-3.1988.4088-6.3303,1.0377-9.3814,1.9509-4.6983,1.3029-9.4696,4.0136-14.5448,4.894-19.9802,2.8871-35.2448-14.3663-45.5568-29.1816,11.314,13.761,29.7837,31.8721,48.9503,23.2138,18.4588-10.3327,40.7428-11.0119,60.9945-6.4708,13.7099,2.7097,27.0673,7.846,39.2159,15.1245l-7.0945,10.8936h0Z"/>
      <path class="cls-1" d="M184.7432,365.3706c-10.1363,1.8681-19.873,6.2863-26.8454,13.9413-3.868,4.0625-5.8106,8.4971-8.6016,13.6542-1.8279,3.4987-5.2594,7.2634-9.2541,8.9509-8.2603,4.0924-17.2811.134-25.1739-2.2813-5.3549-1.6596-10.8016-2.6466-16.3894-2.8343-5.5753-.1523-11.2135.4926-16.7024,1.8972-5.4934,1.3973-10.8213,3.5463-15.9012,6.2052,14.546-9.7891,32.9074-13.9303,50.1628-10.0003,6.3957,1.0831,13.1363,3.9062,19.2606,1.4548,6.3088-2.4847,7.2963-9.2356,10.1385-15.0829,1.3228-2.8279,2.9953-5.6222,4.9351-8.1626,3.8435-5.1095,8.6686-9.4003,14.0554-12.7914,5.3818-3.3932,11.2727-5.8638,17.2671-7.5885l3.0486,12.6376h0Z"/>
      <path class="cls-1" d="M637.4046,816.6515c-29.1728,6.0179-52.9872-2.0683-77.7357-17.3384-4.7206-3.056-8.98-7.2171-12.7915-11.1419-5.0309-5.3562-9.7484-8.4193-17.1247-8.09-2.1757.0515-4.3476.3753-6.5009.9356l-2.5027-12.7568c9.3788-1.4683,20.2367.2452,27.4131,6.8995,6.1602,5.6558,9.8373,12.5087,16.2599,17.5645,22.358,17.0993,44.1537,26.8765,72.9825,23.9276h0Z"/>
      <path class="cls-1" d="M157.7147,827.7894c15.2914-.0513,35.5718-4.6817,37.0587-22.8337.5967-7.933-.7861-17.0725.6949-25.3963,3.3153-21.4566,21.3812-36.6857,39.6992-46.0555-.0002-.0002,5.4531,11.8009,5.4531,11.8009-4.9156,1.9939-9.6884,4.2703-14.1719,6.9468-11.0663,6.4725-20.5654,16.1879-23.8247,28.8136-2.1938,8.1048-1.5084,15.9499-3.0296,24.6161-3.7641,19.9853-24.6918,23.7295-41.8798,22.1081h0Z"/>
      <path class="cls-1" d="M182.2796,231.2579c-21.5169-4.1368-45.1643-.0935-63.1055,12.8166-1.5591,1.193-3.2799,2.5146-4.7338,3.8166-4.247,3.6839-7.2388,8.0039-10.6462,12.5853-8.9733,11.5526-23.7747,17.2441-37.9188,18.5822,10.9507-2.0375,21.6162-6.8679,29.581-14.611,4.1217-3.9211,6.3286-8.804,9.4815-13.5991,13.5726-19.896,37.6833-30.2431,61.0868-32.5307,6.0043-.5641,12.0873-.5251,18.1337.0766l-1.8787,12.8635h0Z"/>
      <path class="cls-1" d="M408.2849,147.4293c34.4554-5.4976,61.4133,8.9852,88.12,28.4724,8.0183,5.4413,14.7406,14.0868,24.3406,6.562,2.4969-1.9626,4.8462-4.5781,7.7208-6.6375,8.4373-6.4162,20.1501-6.6636,29.729-3.3481-6.5571-1.6004-13.5496-1.7953-19.7937.4063-3.1035,1.11-5.9912,2.6847-8.4197,4.8508-2.4941,2.0942-4.4968,4.7443-7.1294,7.2031-10.8658,9.7398-19.7479,1.6957-29.6267-4.3212-14.1057-8.4939-28.9013-16.6079-44.874-20.5134-12.439-3.0693-25.316-2.7479-37.7.1083l-2.3669-12.7827h0Z"/>
      <path class="cls-1" d="M252.9142,138.9677c-1.382-13.5074-8.1036-23.1275-19.1732-30.7033-5.7122-4.1597-11.0597-8.0161-17.155-10.9966-1.7494-.8829-3.6964-1.8603-5.2988-3.2351-10.1698-9.5585-11.9511-25.1501-7.9165-37.9103.3786-.8974.5833-1.872,1.0895-2.8124,1.1035-1.9619,3.4797-4.9469,4.7112-6.7507,4.0572-5.7131,8.1103-11.4882,12.0034-17.309,1.8954-2.9253,3.8536-5.8458,5.0254-9.0033,2.2541-6.531,1.1737-13.9538-1.5828-20.2467,1.6366,3.1112,2.8909,6.4687,3.4857,9.9919,1.48,7.8356-.9821,13.9156-4.845,20.5226-3.4699,6.167-7.0528,12.2122-10.6915,18.2755-.7868,1.3516-3.2993,5.2628-3.8891,6.5296-1.261,3.7757-1.7239,7.9251-1.5823,11.9106.3123,7.6622,2.9743,15.8607,8.9976,20.762,1.1615.8082,2.4565,1.2946,3.8885,1.8937,5.0337,2.0129,10.0112,4.7019,14.6571,7.5175,7.9783,4.7542,16.4143,9.9906,21.9285,17.8449,4.7401,6.427,7.7589,14.0423,9.2005,21.7705l-12.8531,1.9486h0Z"/>
      <path class="cls-3" d="M207.8999,356.6541c-7.3685-18.9645-20.1454-51.8492-13.6841-92.3911,2.5034-15.7074,11.6788-56.3097,48.0383-87.4389,10.7425-9.1972,42.3132-36.2266,87.03-33.1819,41.0439,2.7946,67.5779,29.1839,76.5958,38.1525,16.2804,16.1916,24.0509,32.489,28.2827,41.5732,9.314,19.9935,15.5743,33.4322,10.0151,44.2803-8.7484,17.0715-42.2747,18.9592-65.3617,13.5921-26.7789-6.2254-28.4617-19.6421-49.5319-21.3334-25.6958-2.0626-51.0034,15.6592-64.3405,35.3158-19.073,28.1104-13.1241,59.3808-10.7234,72,4.1518,21.8237,11.8128,26.9883,24,56.1155,0,0,15.2884,36.539,20.4077,74.0159,8.571,62.7462-15.0967,122.0568-22.9608,121.1026-7.2449-.8791,4.674-52.2089-15.3873-131.0305-12.8085-50.3248-32.079-90.2484-32.0791-90.2485-10.622-22.006-13.7861-23.7567-20.3007-40.5237Z"/>
      <path class="cls-5" d="M523.6263,755.5273c-29.21,72.72-113.19,143.99-194.22,116.39-7.37-2.51-14.71-5.84-21.99-10.06-34.6801-20.1-52.37-61.18-56.69-101.03-4.33-39.85,2.36-79.96,4.6-119.98.28-5.01.49-10.02.62-15.04,6.2,9.16,11.03,17.2,14.12,23.46,1.09,2.21,8.49,17.55,21.04,36.71,15.39,23.5,26.25,40.09,44.83,53.43,10.5,7.54,38.75,27.82,73.53,21.1,38.17-7.38,57.18-42.05,61.66-50.22,8.59-15.66,10.7301-33.63,14.6801-68.93,4.59-41.06,2.9099-55.45,5.6199-84.8,3.76-40.73,11.8-64.9,18.2401-91.39,4.97-20.44,8.2599-39.2,10.39-56.32,11.52,51.01,19.84,102.72,23.6599,154.81.47,6.49.8501,12.93.8501,12.93,0,0,.45,7.69.76,15.13,4.4099,106.97-21.7001,163.81-21.7001,163.81Z"/>
      <path class="cls-4" d="M523.6263,755.5273c-29.21,72.72-113.19,143.99-194.22,116.39-7.37-2.51-14.71-5.84-21.99-10.06-34.6801-20.1-52.37-61.18-56.69-101.03-3.29-30.24-.22-60.64,2.42-91.03,4.7,9.46,8.55,19.15,11.3,28.7599,7.05,24.61,4.74,41.1801,20.43,68.42,8.08,14.03,25.53,44.34,60.25,54.13,30.57,8.61,57.27-3.54,72.51-10.48,32.9601-14.99,50.78-39.12,58.7101-50.12,20.25-28.13,26.1799-55.06,33.3199-87.49,2.35-10.62,2.64-14.09,11.12-83.74,7.36-60.46,7.97-64.7,10.21-73.01,1.3301-4.91,3.14-11.61,5.46-19.12,3.17,22.08,5.6301,44.26,7.26,66.51.47,6.49.8501,12.93.8501,12.93,0,0,.45,7.69.76,15.13,4.4099,106.97-21.7001,163.81-21.7001,163.81Z"/>
      <path class="cls-5" d="M377.191,681.1738c-1.9783-.4248-11.0997-2.3834-17.8105,4.0479-4.6213,4.4287-6.2873,11.0995-4.8575,17.001,1.9138,7.8988,8.6362,11.3762,10.1196,12.1436,1.2589.6512,7.3424,3.63,14.5723,1.6192,7.4613-2.0752,15.6763-9.3346,14.9771-18.6201-.7304-9.6993-10.6769-14.8335-17.001-16.1914Z"/>
      <path class="cls-5" d="M323.6614,682.8306c-2.6305-.7579-6.028-.1805-7.8933,2.0239-2.9803,3.522-.547,9.4217,2.2263,12.346.8769.9246,3.0958,3.2644,6.2742,3.0359,3.0213-.2173,5.4655-2.6515,6.2741-5.2622.9853-3.1811-.6743-5.9258-1.6191-7.4885-.8514-1.408-2.2982-3.801-5.2622-4.655Z"/>
      <path class="cls-5" d="M332.6504,588.618c-3.8594-3.5253-15.2327.8261-15.7867,6.4766-.2601,2.6526,1.8976,5.2496,4.0479,6.4766,3.6653,2.0915,8.6639.9753,11.334-2.4287,2.6023-3.3175,2.697-8.4306.4048-10.5244Z"/>
      <path class="cls-5" d="M425.2092,453.8182c-5.3821-3.2274-13.1236-2.0348-17.8106,2.8334-4.9774,5.1699-4.9576,12.8726-2.0239,18.2154.2733.4978,4.6274,8.1175,12.9531,8.0957.56-.0015,6.8167-.1224,10.9292-5.2622,4.1235-5.1536,2.8528-11.3052,2.4287-13.3579-.4204-2.0349-1.5658-7.5796-6.4766-10.5244Z"/>
      <path class="cls-5" d="M308.0827,403.0762c-6.1859-3.4028-14.107.1844-16.7312,5.9369-1.5074,3.3045-1.496,7.8254,1.0795,11.334,3.881,5.2873,10.7424,4.4041,11.334,4.3177.3459-.0506,7.4764-1.2153,9.7148-7.556,1.8554-5.2557-.5951-11.3911-5.3971-14.0326Z"/>
      <path class="cls-5" d="M321.7027,303.6767c-3.207-.9766-7.8033,1.4402-9.7148,5.3972-1.897,3.9269-.5725,8.175,1.6191,10.7943,3.0059,3.5925,8.5148,5.1632,11.334,3.2383,4.8295-3.2975,2.8324-17.581-3.2383-19.4297Z"/>
      <path class="cls-5" d="M451.9153,652.6189c-3.1849-3.3719-8.9852-4.8855-13.7627-2.4287-5.3928,2.7731-7.0269,9.3425-5.6669,14.3024,1.1349,4.1394,4.5687,7.9371,9.1751,8.9053.7476.1572,3.9886.8383,7.0163-.8096,5.9225-3.2236,8.7593-14.1243,3.2383-19.9694Z"/>
      <path class="cls-2" d="M371.6639,257.0811c-.1645-2.1565-1.2999-6.52-4.7225-7.1512-3.0417-.561-5.9534,2.1831-6.8814,4.9923-.9062,2.7432.0596,5.6078,1.7541,7.4211,1.2625,1.351,3.9553,3.2161,6.4766,2.2938,2.988-1.0931,3.5453-5.3004,3.3732-7.556Z"/>
      <path class="cls-2" d="M287.3099,492.238c-1.772-2.6996-5.4719-4.6722-8.2982-3.6431-4.0195,1.4637-5.1837,8.6026-2.6311,12.9531,1.4636,2.4945,4.7806,5.1485,7.691,4.2503,2.7565-.8507,3.6786-4.4344,4.0478-5.8694.328-1.2746,1.1936-4.639-.8096-7.6909Z"/>
      <path class="cls-5" d="M460.0328,366.2113c4.1855.3839,9.779-9.4804,10.1196-18.8226.1094-2.9994.3322-9.1131-4.0478-13.1555-.6641-.6129-4.452-4.1088-9.5125-3.0359-3.6691.7779-6.499,3.6376-7.4885,6.8813-.9607,3.1492.0402,5.9158.4048,6.8814,1.1309,2.9946,2.5129,2.7945,3.8455,5.6669,1.6785,3.6181.0528,5.1578,1.4168,9.1077.1564.453,2.1999,6.1957,5.2622,6.4766Z"/>
      <path class="cls-5" d="M455.5707,496.5936c-2.2806-1.3354-5.8371-1.8086-8.6354,0-3.1911,2.0625-3.4817,5.8548-3.6431,7.9608-.1219,1.5901-.305,3.9792,1.2144,5.9369,1.1172,1.4394,2.675,2.0275,4.4526,2.6986,1.6662.629,2.8035,1.0583,4.3178.9445,3.1339-.2356,5.2036-2.5961,6.4766-4.0478.9639-1.0993,1.5384-1.7545,1.754-2.8335.1352-.6765.2147-1.9469-1.754-5.2622-1.7891-3.0129-2.6837-4.5194-4.1828-5.3972Z"/>
      <path class="cls-5" d="M330.8449,485.0482c-2.9028-2.0655-7.8347-3.6903-11.4858-1.6357-6.4933,3.6538-7.3361,18.0439,0,22.5646,4.541,2.7983,12.165,1.7841,15.757-3.3462,4.0877-5.8383.8201-13.9601-4.2712-17.5827Z"/>
      <path class="cls-5" d="M394.2338,564.8851c-6.8918-2.6739-15.1324-.032-18.9548,6.1907-4.7177,7.6803-1.4698,18.8046,7.1257,22.6084,7.7722,3.4395,17.6321-.1174,20.9362-8.4088,3.2747-8.2177-1.3649-17.3865-9.107-20.3904Z"/>
      <path class="cls-5" d="M461.9505,282.6986c-6.7898-2.0276-14.8085,3.4153-15.6796,10.8863-.7646,6.5579,4.1061,13.5789,11.1182,14.024,7.0828.4496,12.5295-6.0523,12.8059-12.4552.2264-5.2459-2.9979-10.8884-8.2445-12.4552Z"/>
      <path class="cls-5" d="M500.2938,414.4316c-3.8434-4.7841-11.0154-7.9017-16.4618-5.5842-8.3754,3.5637-11.2594,19.3796-3.5273,26.41,4.9521,4.5027,14.3337,5.4694,19.9891,0,5.9279-5.733,4.4285-15.3133,0-20.8257Z"/>
      <path class="cls-2" d="M352.1206,198.6126c-8.0315-3.7852-19.2245.2844-21.2757,8.3499-1.7665,6.9462,3.5226,15.7737,12.9941,17.8637,6.5651,1.3474,12.9698-1.0409,15.8738-5.7623,4.2602-6.9264-.1893-16.9624-7.5922-20.4513Z"/>
      <path class="cls-5" d="M383.9195,393.3387c-12.7206-5.9951-30.4486.4504-33.6974,13.225-2.7979,11.0017,5.5793,24.9831,20.5806,28.2933,10.3981,2.134,20.5421-1.6486,25.1416-9.1265,6.7475-10.9703-.2998-26.8658-12.0248-32.3917Z"/>
      <path class="cls-2" d="M411.0004,225.1994c-3.9914-1.0082-9.1031,1.4159-10.7234,6.1199-1.6345,4.7451.9227,9.9545,5.3617,11.7447,3.7528,1.5134,8.2196.3286,10.4681-2.5532,3.7656-4.8262.8394-13.8096-5.1064-15.3114Z"/>
      <path class="cls-2" d="M284.343,557.2673c-3.233-1.4085-8.0313-.4518-9.5143,2.9071-1.3474,3.0516.7241,6.5402,2.876,8.2365,3.097,2.4414,8.3053,2.7037,10.4556,0,2.4269-3.0515.4753-9.2735-3.8173-11.1436Z"/>
      <path class="cls-2" d="M291.1112,243.7246c-2.5905-4.847-9.5777-6.8575-14.9194-4.7458-6.8998,2.7278-10.3494,12.055-6.6383,17.8723,2.5534,4.0027,7.9688,5.5161,12.2553,4.514,7.3724-1.7235,12.744-11.2009,9.3024-17.6405Z"/>
      <path class="cls-2" d="M401.4338,197.1851c-2.7156-2.0575-7.02-2.1965-9.7021,0-3.9804,3.2598-3.23,10.715,1.0213,13.7086,2.4396,1.7178,6.1354,2.0393,8.6808.2985,4.201-2.873,4.3336-10.7237,0-14.0071Z"/>
      <path class="cls-2" d="M237.894,291.3193c-3.9224-1.9609-9.3486,1.0392-12.1038,3.6318-6.0798,5.7208-7.1893,17.018-1.1728,22.4356,3.1835,2.8666,8.5829,4.286,12.5106,2.2731,8.6982-4.4578,8.0897-24.679.766-28.3404Z"/>
      <path class="cls-2" d="M237.894,359.0518c-3.8358-1.9821-10.7083.0895-13.2766,5.0574-2.1458,4.1506-.3145,8.4411,0,9.1778,2.423,5.6766,9.4048,9.4195,13.2766,7.6492,5.7948-2.6496,6.5189-18.5159,0-21.8844Z"/>
      <path class="cls-2" d="M275.0287,440.0976c1.5359-5.3546-7.3129-13.7359-12.6241-11.8681-4.6905,1.6495-7.4241,11.5747-3.0638,15.7494,4.4069,4.2194,14.3176.8961,15.6879-3.8813Z"/>
      <path class="cls-4" d="M302.2165,723.6285c-5.3166-1.5795-10.8353,1.7477-13.6275,5.563-3.905,5.3361-3.0571,12.4199,0,17.1064,2.4955,3.8256,7.9815,8.3817,13.6275,6.8936,6.426-1.6936,8.4532-10.0027,8.4434-14.8107-.0091-4.4647-1.7886-12.7753-8.4434-14.7524Z"/>
      <path class="cls-4" d="M343.8389,800.681c2.6997-3.471,3.6336-9.389,0-13.0213-3.6201-3.6188-9.6418-2.8379-12.9941,0-4.8163,4.0773-4.738,12.9217,0,16.0851,3.8143,2.5467,9.9011.9128,12.9941-3.0638Z"/>
      <path class="cls-4" d="M281.8089,680.5618c.8573-4.6711-11.1402-12.5614-15.6317-9.3276-2.7381,1.9714-2.8407,8.1878,0,14.7474,8.5221.1145,15.0546-2.2751,15.6317-5.4198Z"/>
      <path class="cls-4" d="M437.7512,767.3788c-5.9264-5.58-15.9535-.445-16.7933,0-6.6702,3.5343-12.7093,12.0808-9.9575,17.8508,2.7574,5.7816,12.7888,5.52,13.7872,5.4939,2.1766-.0568,8.8596-.2311,12.9636-5.4939,3.8271-4.9077,4.7439-13.3842,0-17.8508Z"/>
      <path class="cls-4" d="M514.9334,521.1065c-4.4667-1.4805-11.7964,6.6843-14.6396,14.2721-1.8135,4.8397-3.7577,14.6646,1.0896,17.8981,3.6964,2.4658,9.9901.1966,13.55-3.0638,8.8997-8.1509,5.8231-27.1763,0-29.1064Z"/>
      <path class="cls-4" d="M506.5362,628.972c-.3936-3.2374-3.4229-5.2458-6.0039-4.6315-2.7491.6543-4.1195,4.077-3.2341,6.6383.5502,1.5916,2.0562,3.0959,3.9149,3.234,2.4189.1797,4.9728-1.9889,5.3231-5.2408Z"/>
      <path class="cls-4" d="M501.7834,686.4256c1.5255-1.9556,1.1595-4.6281,0-6.3513-1.2538-1.8632-3.8688-3.2606-6.1873-2.3296-2.652,1.0648-3.3982,4.5664-2.5532,6.9787.0999.2851,1.1405,3.0995,3.9875,3.5745,1.8558.3096,3.6877-.5068,4.7529-1.8723Z"/>
      <path class="cls-6" d="M537.0004,620.4256c-3.9473-3.991-13.2894-1.7392-15.0001,3.8046-1.0592,3.4326.7799,8.2162,4.9149,9.993,3.6133,1.5526,7.7427.2778,10.0852-2.5636,2.861-3.4701,2.5472-8.6585,0-11.234Z"/>
      <path class="cls-6" d="M537.0004,572.4175c-.0663-5.8914-3.0735-12.7948-6.0001-12.7578-3.1893.0402-6.5968,8.3267-5.6169,15.5167.5981,4.3894,3.0699,10.1198,5.8085,10.0991,2.9999-.0227,5.8751-6.9431,5.8086-12.858Z"/>
      <path class="cls-6" d="M530.3682,706.2129c3.8423-3.9782,4.28-11.2529,0-14.8297-4.1746-3.4887-10.7924-1.7507-14.1764,2.0638-2.9575,3.3336-4.1407,9.0375-1.2584,12.766,3.4376,4.4468,11.2804,4.3014,15.4348,0Z"/>
      <path class="cls-6" d="M492.7121,773.9653c5.1134,1.5958,11.8047-.8495,13.8241-6.5864,2.0393-5.7935-1.7798-11.8362-6.912-13.8983-4.7877-1.9237-10.8788-.4476-13.5601,3.7962-3.5681,5.6475-.0819,14.5883,6.6479,16.6885Z"/>
      <path class="cls-6" d="M474.3195,795.0979c1.4062-3.327-6.1796-11.3928-10.2128-9.8683-2.6718,1.0099-4.4202,6.4686-2.1562,9.8683,2.9885,4.4879,11.2089,2.7448,12.369,0Z"/>
      <path class="cls-6" d="M449.8089,837.9576c2.9279-3.2933,3.4508-9.3793,0-12.2553-3.5233-2.9365-9.1923-.8622-12.0577,2.1392-2.4276,2.5428-4.1256,7.0943-2.2402,10.1161,2.4725,3.9631,10.4822,4.2921,14.298,0Z"/>
      <path class="cls-6" d="M404.4043,828.7894c-3.1542-3.4965-9.5165-1.1944-10.1705-.9479-3.7924,1.4293-8.6443,5.4377-7.7441,9.6055.752,3.4813,5.1121,5.1984,7.7441,5.6171,1.151.1831,5.0256.6038,8.0857-2.0095,3.4938-2.9836,4.9501-9.0889,2.0848-12.2651Z"/>
      <path class="cls-6" d="M367.0855,868.5959c1.6425-2.3038,1.4339-5.7724,0-8.1702-2.4958-4.1736-8.8658-5.3735-13.0594-2.5532-3.019,2.0304-4.9957,6.202-3.7916,9.1915,2.0641,5.1249,13.3441,6.4509,16.8511,1.5319Z"/>
      <path class="cls-6" d="M330.8449,828.7894c-1.8056-4.7552-11.9365-5.5234-14.3126-1.9189-1.3683,2.0757-.1181,5.5302,1.5319,7.5127,1.9141,2.2997,5.7542,4.2863,9.1978,2.5532,3.1337-1.5771,4.5706-5.5458,3.5829-8.1469Z"/>
      <path class="cls-6" d="M291.1112,795.0979c.0048-4.9753-4.1628-9.8007-9.3024-9.8683-5.3654-.0706-10.2769,5.0636-9.7021,11.3663.798,4.2202,3.6242,7.5387,7.1489,8.3704,5.5388,1.3069,11.8497-3.7516,11.8555-9.8683Z"/>
      <path class="cls-6" d="M264.0849,734.7873c-2.3492-1.8909-5.9694-1.8909-8.3186,0-3.2332,2.6023-3.2332,8.1211,0,10.7234,2.3492,1.8909,5.9694,1.8909,8.3186,0,3.2332-2.6023,3.2332-8.1211,0-10.7234Z"/>
      <path class="cls-1" d="M204.9364,281.0212c-1.8908-33.735,12.101-59.7861,16.8974-68.4566,6.2421-11.2839,22.7229-41.0761,57.9457-56.2117,17.6635-7.5902,32.5431-8.2729,44.1539-8.8057,16.908-.7758,33.4814-1.5363,40.3537,8.8057,3.4982,5.2645,3.9191,12.5578,1.6593,18.1419-4.6415,11.4693-20.1213,14.5641-35.3929,17.4038-18.0283,3.3522-19.9415-.0295-32.9362,2.283-27.0319,4.8106-44.869,24.0924-51.6331,31.4043-3.8533,4.1654-16.4822,18.4637-24.1503,40.8766-8.9456,26.1469-5.552,47.0053-8.5307,47.2333-2.6148.2002-7.4156-15.7062-8.3667-32.6745Z"/>
    </g>
  </g>
</svg>