<?xml version="1.0" encoding="UTF-8"?>
<svg id="Capa_2" xmlns="http://www.w3.org/2000/svg" viewBox="0 0 704.9132 1487.7026">
  <defs>
    <style>
      .cls-1 {
        fill: #70569b;
      }

      .cls-2 {
        fill: #604593;
      }

      .cls-3 {
        fill: #47327c;
      }

      .cls-4 {
        fill: #a486ce;
      }

      .cls-5 {
        fill: #8566b2;
      }
    </style>
  </defs>
  <g id="Capa_1-2" data-name="Capa_1">
    <g>
      <g>
        <path class="cls-4" d="M67.6563,1482.7026c-1.5098,0-3.0054-.0107-4.5186-.0325-14.8979-.2095-35.25-2.9673-47.5957-14.9167-3.4102-3.2898-6.0552-7.146-7.8555-11.4558-4.4053-10.4905-3.3677-22.718,3.083-36.3491v-.0198l.5127-1.0532c.5415-1.1028,1.1318-2.2361,1.8569-3.5669,2.2329-4.0762,4.8843-8.2507,8.1108-12.7722,35.9131-50.3748,83.6562-91.7026,129.8281-131.6702,51.894-44.9207,105.5552-91.3711,141.4214-150.2466,69.145-113.5054,63.9868-258.1956,49.8208-384.7627-1.7881-15.9885-3.7524-32.3789-5.6519-48.2297-14.7402-123.0042-29.9829-250.1958,12.145-369.8372,21.7402-61.7505,50.0469-117.177,84.1333-164.7393,38.6021-53.8633,83.8672-96.3713,134.5371-126.3435,23.3154-13.7954,48.687-21.7073,69.6094-21.7073,15.6758,0,29.0356,4.1914,39.708,12.4578,1.98,1.5325,3.8701,3.2117,5.6162,4.9897.2524.2529.5244.5352.7959.8176,1.3657,1.4421,2.6484,2.9541,3.8389,4.522.4697.6006.9814,1.3059,1.5679,2.1655,3.103,4.4966,5.6235,9.5664,7.4761,15.0474,1.1587,3.4541,2.0635,7.0828,2.6929,10.7954,2.0293,11.9985,1.3032,25.0645-2.0996,37.7871-5.2974,19.822-15.8101,37.5925-25.9766,54.7783-1.7339,2.9307-3.4658,5.8582-5.1694,8.7915-63.6138,109.4512-95.8501,243.9363-93.2246,388.9177.9937,55.019,6.8584,111.5098,12.5303,166.1409,12.2925,118.4019,25.0034,240.8345-11.1606,355.5728-30.3853,96.4019-96.7012,189.3547-197.1064,276.2773-106.2769,91.9958-210.2144,138.6416-308.9258,138.6416Z"/>
        <path class="cls-1" d="M637.0931,10c13.4854,0,26.1994,3.3188,36.6465,11.4106,1.77,1.3701,3.48,2.8804,5.11,4.54.26.2603.51.52.76.7803,1.24,1.3101,2.39,2.6699,3.46,4.0801.5.6396.97,1.2998,1.42,1.96,2.94,4.2598,5.21,8.9199,6.87,13.8296,1.09,3.25,1.92,6.6104,2.5,10.0303,1.98,11.71,1.07,24.1802-2,35.6602-6,22.4497-18.97,42.2598-30.64,62.3496-68.28,117.48-96.36,255.6602-93.9,391.52,3.15,174.4702,54.06,353.6802,1.6,520.1201-34.17,108.4099-109.67,199.6001-195.61,274-86.3139,74.7151-191.7326,137.4219-305.653,137.4219-1.4863,0-2.9579-.0105-4.447-.032-15.65-.22-33.58-3.24-44.19-13.51-2.82-2.72-5.12-5.96-6.72-9.79-4.53-10.7898-1.85-22.45,3.47-33.2798v-.01c.56-1.1401,1.15-2.26,1.76-3.3801,2.35-4.29,5.05-8.4199,7.79-12.26,76.04-106.6599,203.3-170.3499,271.45-282.22,69.13-113.48,65.3-255.8599,50.52-387.9199-15.38-137.5098-41-281.6899,6.24-415.8501,40.22-114.2397,110.23-225.5801,216.5-288.4399,19.8549-11.7476,44.5351-21.0107,67.0634-21.0107M637.0932,0c-29.8352,0-58.0142,14.0371-72.1556,22.4043-51.2702,30.3267-97.0458,73.3027-136.0548,127.7339-34.3621,47.9468-62.8881,103.7944-84.7856,165.9917-42.5146,120.7402-27.2015,248.521-12.3927,372.0942,1.8983,15.8403,3.8613,32.2202,5.6471,48.188,14.0715,125.729,19.2394,269.3877-49.1221,381.6062-35.4596,58.2078-88.8202,104.3982-140.4237,149.0676-46.394,40.1597-94.3671,81.6865-130.6285,132.5498-3.3413,4.6824-6.0954,9.0212-8.4179,13.2607-.7735,1.4202-1.3942,2.613-1.9652,3.7751l-1.0244,2.0854v.0859c-6.6508,14.5613-7.5574,27.8059-2.6904,39.3987,2.0579,4.9263,5.0877,9.3447,8.9981,13.1165,13.5098,13.0771,35.1875,16.0894,50.9917,16.3115,1.534.022,3.0533.033,4.5877.033,54.3444,0,110.7185-14.0305,167.5563-41.7017,47.379-23.0664,96.0433-56.092,144.6415-98.1594,46.9425-40.6392,86.88-82.9797,118.7033-125.8462,36.6317-49.3435,63.5135-100.7222,79.8994-152.7085,16.4-52.0325,24.2702-110.0725,24.0606-177.4368-.1856-59.6606-6.5454-120.9167-12.6956-180.1558-5.6608-54.5264-11.5146-110.9092-12.5042-165.7139-2.6086-144.0698,29.3938-277.6553,92.5475-386.3149,1.6921-2.9126,3.4506-5.8853,5.1512-8.7603,10.3383-17.4756,21.0287-35.5469,26.5037-56.0322,3.5861-13.4092,4.3465-27.21,2.1992-39.9092-.6737-3.9731-1.6421-7.8555-2.8789-11.543-2.008-5.939-4.7343-11.4204-8.1114-16.3164-.612-.8965-1.1804-1.6802-1.7345-2.3921-1.2851-1.6899-2.672-3.3232-4.1227-4.856l-.0256-.0269-.0258-.0269c-.2905-.3022-.5815-.604-.8832-.9062-1.8916-1.9219-3.9358-3.7363-6.077-5.3936-11.5669-8.9595-25.9567-13.5029-42.7673-13.5029h0Z"/>
      </g>
      <g>
        <path class="cls-2" d="M475.0958,253.0803c-1.6831,0-3.375-.2649-5.0293-.7871-13.6265-4.3008-21.3618-22.4919-20.0366-36.7837.0117-.1575.0254-.2451.0371-.3328,1.8135-17.8804,13.8198-32.51,23.5742-41.6504,7.5122-7.0371,16.0503-13.2676,24.3066-19.2927,5.313-3.8772,10.8071-7.8862,16.0322-12.1069,10.7886-8.7122,20.7744-18.6008,30.4316-28.1638,11.3994-11.2878,23.186-22.9597,36.2075-32.5684,13.5078-9.9617,28.7271-17.9875,43.4448-25.749,6.3564-3.3521,12.9292-6.8181,19.3042-10.4065,8.207-4.6184,15.252-9.0134,21.5376-13.4363,3.0688-2.1504,6.0342-4.376,8.8394-6.6338.2881.2461.5732.4958.8555.7485-1.9473,1.7354-4.0488,3.4417-6.2764,5.094-13.0068,9.6311-27.5986,17.2256-40.1567,23.384-29.9146,14.6768-59.5542,37.3699-85.7148,65.6265-18.0776,19.5178-29.9624,42.4348-35.3242,68.1133-1.229,5.8745-1.8442,11.8938-2.439,17.7151-.8794,8.6072-1.7104,16.7368-4.3486,24.5261-3.7739,11.1609-14.248,22.7039-25.2451,22.7039Z"/>
        <path class="cls-3" d="M526.6636,135.0654c-10.8993,15.8306-18.4049,33.4053-22.386,52.4727-1.2605,6.0244-1.8835,12.1211-2.486,18.0171-.8624,8.439-1.6768,16.4097-4.2105,23.8901-3.3698,9.9658-12.9247,20.7222-22.4853,20.7222-1.385,0-2.7822-.2192-4.1528-.6519-12.2866-3.8779-19.2334-20.5752-18.0129-33.7368l.007-.0752.0018-.0264.0148-.1143.0123-.0918.0094-.0928c1.7122-16.8911,13.2663-30.9268,22.6569-39.7261,7.3829-6.916,15.4714-12.8184,24.0348-19.0674,5.3407-3.8975,10.8632-7.9272,16.1424-12.1919,3.7109-2.9966,7.3224-6.1255,10.8541-9.3276M673.7397,21.4106c-3.38,2.8101-6.9,5.48-10.51,8.0103-6.85,4.8198-14.04,9.1997-21.29,13.2798-21.16,11.9102-43.51,21.9399-63.05,36.3501-24.2301,17.8799-43.31,41.8901-66.74,60.8101-13.32,10.7598-28.01,19.8398-40.5,31.54-12.39,11.6099-22.76,26.52-24.47,43.3901-.0201.1499-.04.2998-.05.4497-1.39,14.9902,6.44,34.8999,22.06,39.8301,1.9995.6313,3.9733.9219,5.9062.9219,13.0121,0,24.1206-13.1978,28.0038-24.6816,4.62-13.6401,3.93-28.48,6.88-42.5801,5.32-25.48,16.92-47.6304,34.61-66.73,23.47-25.3501,52.31-49.02,84.86-64.9902,14.07-6.8999,28.01-14.3301,40.61-23.6602,3.06-2.2695,6.02-4.73,8.79-7.3999-1.6299-1.6597-3.34-3.1699-5.11-4.54h0Z"/>
      </g>
      <g>
        <path class="cls-2" d="M538.2652,315.364c-14.5576,0-29.1206-12.3457-31.8008-26.9587-1.7368-9.502-.0249-20.0479,5.0884-31.3433.293-.6758.5854-1.2974.8872-1.9192,4.063-8.4124,9.5229-16.3394,14.8032-24.0054,1.4326-2.0798,2.8643-4.1587,4.2725-6.2498,7.3682-10.9568,14.2158-22.4722,20.8384-33.6084,9.75-16.3955,19.832-33.3491,31.6484-48.6047,10.8335-13.9897,23.4399-26.967,36.1758-39.4668-21.7573,22.979-42.0381,48.1355-49.8784,78.4026-5.1216,19.772-4.561,40.4236-4.0186,60.395.2749,10.1335.5596,20.6121.0889,30.7908-.4854,10.5408-2.0195,23.8606-9.6353,33.3857-4.7993,6.0073-11.186,9.1821-18.4697,9.1821Z"/>
        <path class="cls-3" d="M574.7617,160.5879c-2.9899,6.5103-5.4596,13.2598-7.2813,20.292-5.2248,20.1704-4.6585,41.0308-4.1108,61.2046.2737,10.0811.5566,20.5054.0909,30.5781-.465,10.1001-1.9083,22.8301-9.0021,31.7021-4.2868,5.3657-9.7349,8.0864-16.193,8.0864-6.1626,0-12.8408-2.625-18.3221-7.2021-5.6564-4.7231-9.4258-10.8916-10.6132-17.3657-1.6056-8.7837.0806-19.0264,4.8765-29.6201l.02-.0439.0192-.0444c.2208-.5103.4801-1.0708.8194-1.7705,3.9622-8.2036,9.1162-15.6865,14.5729-23.6089,1.4124-2.0508,2.8728-4.1709,4.2955-6.2842,7.4124-11.0225,14.2816-22.5737,20.9247-33.7446,6.3659-10.7046,12.8745-21.6494,19.9032-32.1787M683.0697,30.811c-27.88,40.6899-70.82,70.6299-101.37,110.0796-19.9601,25.77-34.41,55.3203-52.6,82.3701-6.74,10.0103-14.03,19.7402-19.28,30.6099-.32.6602-.63,1.3203-.92,1.9902-4.69,10.3599-7.3401,21.9102-5.3,33.0698,2.9915,16.312,19.0793,29.3462,34.6657,29.3462,7.5468,0,14.9765-3.0562,20.7443-10.2759,7.74-9.6802,9.7001-22.6899,10.2701-35.0703,1.3999-30.2798-3.7601-61.25,3.8399-90.5898,8.88-34.2798,33.93-61.7202,58.7101-87.0098,2.42-2.4702,4.85-4.9502,7.28-7.4404,7.69-7.8599,15.37-15.8398,22.57-24.1396,8.51-9.77,16.35-19.9902,22.81-30.98-.35-.5103-.7-1.0103-1.08-1.5103-.11-.1499-.22-.2998-.34-.4497h0Z"/>
      </g>
      <g>
        <path class="cls-2" d="M349.5215,1173.1184c-2.5806,0-4.584-.8088-5.9556-2.4043-1.6431-1.9116-2.2637-4.8401-1.7466-8.2463.0967-.658.2349-1.3198.4126-1.98,7.4023-26.6655,19.5884-52.5671,31.373-77.6157,14.6948-31.2341,29.8896-63.5337,36.3247-98.1472l.1152-.4578c9.9546-39.7639,10.8882-81.3293,10.4873-116.7393-.1377-12.3164-.4688-24.8303-.7891-36.9321-.7017-26.5278-1.4272-53.959-.1538-80.8772,1.5273-32.572,5.6621-59.668,12.6392-82.8379,3.1978-10.6628,7.1006-20.7607,11.6006-30.0164,1.3579-2.7954,2.8193-5.4739,4.3438-7.9617,1.0986-1.8042,2.2627-3.5552,3.4644-5.2112,10.8081-14.8933,18.0571-18.0195,22.2354-18.0195.6504,0,1.2935.0745,1.9102.2219,8.8726,2.1174,11.0571,18.8818,12.1074,26.9385l.1318,1.0095c4.7275,35.7249,10.8389,64.4604,16.749,92.2498,5.9146,27.8105,11.501,54.0789,14.7031,83.5242,10.1953,74.2678,3.4888,152.1624-18.3896,213.792-12.9902,36.5938-31.1392,67.5366-53.9414,91.9688-25.479,27.3005-56.8853,46.5107-93.3457,57.0972-1.5112.4258-2.9575.6448-4.2759.6448Z"/>
        <path class="cls-3" d="M473.875,602.7593v5.8252c.4275,0,.8303.0469,1.2325.1426,6.9194,1.6514,9.004,17.6504,9.8942,24.4824l.1328,1.0156c4.7425,35.8364,10.8657,64.6287,16.7873,92.4727,5.8986,27.7363,11.4702,53.9343,14.6565,83.2329l.0089.0813.0111.0811c10.1241,73.7402,3.4691,151.1353-18.2585,212.3401-12.8564,36.2156-30.7978,66.8174-53.3259,90.9561-25.1163,26.9114-56.0792,45.8494-91.984,56.2744-1.2766.3596-2.4571.542-3.5085.542-1.6931,0-2.9537-.4678-3.7467-1.3904-1.0656-1.2395-1.4577-3.3938-1.0715-5.939.0776-.5293.1925-1.0779.3295-1.5874,7.3424-26.45,19.4749-52.2383,31.208-77.1772,14.7613-31.3757,30.0246-63.8198,36.537-98.7698l.0106-.041c.0278-.1064.0549-.2119.0802-.3174,10.0379-40.1169,10.9791-81.9016,10.5761-117.4878-.138-12.3389-.4694-24.8638-.7898-36.9763-.7004-26.4753-1.4246-53.8521-.1562-80.6655,1.5168-32.3308,5.6117-59.197,12.5209-82.1394,3.1517-10.5093,6.9971-20.4604,11.43-29.5781,1.315-2.7075,2.7306-5.3018,4.216-7.7261,1.0542-1.7319,2.1741-3.4165,3.3288-5.0078,10.6183-14.6318,17.0126-16.8174,19.8792-16.8179l.0015-5.8252M473.8726,602.7593c-9.9054.0015-19.8471,12.6821-24.593,19.2217-1.27,1.75-2.47,3.5601-3.59,5.3999-1.63,2.6602-3.12,5.4102-4.48,8.21-4.75,9.77-8.63,19.98-11.77,30.4502-8.14,27.0298-11.46,55.8296-12.76,83.5398-1.86,39.3201.5,78.6599.94,117.98.44,38.8599-.93,78.1699-10.41,116.0398-.04.1702-.09.3401-.13.52-11.51,62.04-50.96,115.4502-67.66,175.6101-.21.78-.37,1.55-.48,2.3-1.1932,7.8601,2.779,14.0002,10.5819,14.0002,1.5485,0,3.2484-.2419,5.0881-.7603,156.26-45.3699,185.74-235.01,167.76-365.97-6.36-58.48-21.92-103.75-31.46-175.8398-1.18-8.9399-3.22-27.7202-14.45-30.3999-.8604-.2056-1.7227-.3018-2.587-.3018h0Z"/>
      </g>
      <path class="cls-5" d="M432.7996,285.8478c-6.9385-1.9219-19.7886,11.4893-16.4348,19.9565,2.0245,5.1112,10.1465,8.9086,16.0435,6.2609,4.4189-1.9841,5.8431-6.8037,6.2609-8.2174,2.1362-7.2291-.9437-16.6356-5.8696-18Z"/>
      <path class="cls-5" d="M453.5388,349.2391c-2.6919-2.2749-7.3979-2.493-10.1739-.3914-4.7966,3.6313-3.2321,13.7351,1.9565,17.6088.765.5712,2.9052,2.1689,5.087,1.5652,5.0496-1.3975,8.6431-14.124,3.1304-18.7826Z"/>
      <path class="cls-5" d="M403.5822,373.5c-1.2681-2.3269-4.0627-4.8081-7.0435-4.4348-4.411.5524-7.5714,7.1481-5.4783,11.4783,1.0194,2.109,3.2681,3.6456,5.7391,3.9131,2.6356.2853,5.5585-.8695,7.0435-3.3914,2.0056-3.4062.0388-7.0154-.2609-7.5652Z"/>
      <path class="cls-5" d="M440.2344,419.2826c-3.965-4.7463-10.7905-6.4114-16.4348-5.0869-9.6206,2.2576-15.4091,13.1074-13.6957,22.3042,1.1876,6.3743,6.3148,13.7571,13.6957,14.4783,6.6507.6497,11.5578-4.4585,12.913-5.8694,5.8828-6.124,9.908-18.1816,3.5217-25.8262Z"/>
      <path class="cls-5" d="M286.4518,1298.5436c.4701-8.0974-7.0454-14.7725-13.3043-14.8696-10.1957-.1584-18.7326,17.1121-14.087,24.2607,3.1967,4.9189,11.9435,3.9822,12.5217,3.9131,5.9964-.7163,14.3924-5.085,14.8696-13.3042Z"/>
      <path class="cls-5" d="M155.7562,1351.7608c-10.712-4.771-35.8066,14.5461-32.8696,31.3044,1.2211,6.9673,7.4608,14.4822,15.6522,15.6521,11.4957,1.6418,19.4065-10.2739,20.3478-11.7393,7.9497-12.3752,5.0784-31.5613-3.1304-35.2173Z"/>
      <path class="cls-5" d="M501.1475,126.4565c-2.4272-2.6329-7.4228-2.7825-10.6957-.2609-3.1031,2.3907-4.6243,7.1571-2.3478,10.6957,2.053,3.1913,6.3495,4.0699,9.3914,2.8695,4.9971-1.9722,6.9747-9.7002,3.6522-13.3043Z"/>
      <path class="cls-5" d="M577.3866,65.3478c-2.2244-1.9829-7.2982-.5802-9,2.7391-1.0093,1.9688-1.1431,5.2175.9783,6.8479,2.1385,1.6437,5.2151.6021,6.8478-.7826,2.6655-2.2607,3.2604-6.9445,1.174-8.8044Z"/>
      <path class="cls-5" d="M617.2996,76.5c-3.4025-2.6234-9.7049.4802-12.7174,2.7391-2.574,1.9301-7.3599,6.7029-5.8696,10.5652,1.3858,3.5914,7.3369,4.1633,8.8044,4.3043,1.7244.1658,4.6813.4498,7.2391-1.1738,5.2787-3.351,6.5378-13.355,2.5435-16.4348Z"/>
      <path class="cls-5" d="M635.3649,57.4565c-2.4388.2484-4.4412,3.2007-3.6522,4.9565.5605,1.2473,2.4664,1.75,3.9131,1.4347,2.1053-.4589,3.9174-2.7979,3.2609-4.5652-.4821-1.2977-2.175-1.9633-3.5217-1.826Z"/>
    </g>
  </g>
</svg>