<?xml version="1.0" encoding="UTF-8"?>
<svg id="Capa_2" xmlns="http://www.w3.org/2000/svg" viewBox="0 0 923.0533 1168.5358">
  <defs>
    <style>
      .cls-1 {
        fill: #bf3441;
      }

      .cls-2 {
        fill: #ba0c1c;
      }

      .cls-3 {
        fill: #d83954;
      }

      .cls-4 {
        fill: #e55e6c;
      }

      .cls-5 {
        fill: #d6404a;
      }

      .cls-6 {
        fill: #b22f3f;
      }

      .cls-7 {
        fill: #a5071b;
      }
    </style>
  </defs>
  <g id="Capa_1-2" data-name="Capa_1">
    <g>
      <path class="cls-5" d="M922.9907,616.5142c-2.66,149.4402-48.5199,282.3201-145.5699,396-97.04,113.6802-275.7,179.5701-421.8401,148.2202-86.75-18.6101-194.97-73.3401-251.2-141.96-55.43-67.6501-87.73-150.3501-99.38-237.5901C1.6107,755.8643-.0393,730.1543.0007,704.3243c.22-162.8101,67.16-330.6199,185.66-439.0798,96.11-87.97,224.5-131.1301,331.63-205.29,8.7599-6.0601,17.4301-12.3601,26.1801-18.51,19.1799-13.46,38.7899-26.1901,60.73-34.1101.98-.3499,1.97-.7,2.96-1.0199,31.38-10.4501,68.83-9.09,93.33,12.91,11.3099,10.1599,18.4501,23.0499,23.64,37.2v.01c7.73,21.03,11.14,44.8199,17.51,66.49,16.28,55.3701,54.64,101.03,83.35,151.0898,55.2101,96.2402,99.9701,231.5601,98,342.5Z"/>
      <path class="cls-1" d="M922.9907,616.5142c-2.66,149.4402-48.5199,282.3201-145.5699,396-97.04,113.6802-275.7,179.5701-421.8401,148.2202-86.75-18.6101-194.97-73.3401-251.2-141.96C32.8607,931.4844-.1593,819.1443.0007,704.3243c30.1,55.28,72.09,134.96,149.77,209.5801,40.15,38.5701,103.2895,89.6542,209.7396,115.8244,36.2899,8.9199,189.0995,40.0117,308.8696-47.4783,75.9401-55.48,106.7509-122.246,118.4308-185.7362,11.5901-62.96,5.4531-94.8234,4.9031-98.6234-6.35-43.5701-51.3287-89.1083-54.0787-125.9882-4.51-60.6301,48.1857-75.9082,53.8757-132.2583,3.9301-38.8999-8.34-85.9399-32.87-180-30.48-116.87-42.8-107.52-43.4299-154.5701-.28-20.2,1.6199-49.6899-18-70.8199-13.5901-14.64-31.6602-18.98-49.7001-23.09-14.97-3.41-28.5299-4.66-40.35-4.85,31.38-10.4501,68.83-9.09,93.33,12.91,28.12,25.26,30.4901,67.45,41.15,103.7,16.28,55.3701,54.64,101.03,83.35,151.0898,55.2101,96.2402,99.9701,231.5601,98,342.5Z"/>
      <path class="cls-6" d="M616.5407,72.7344c-11.5,40.3699-30.51,78.1299-49.41,115.6099-24.3999,48.3801-33.46,102.3401-52.86,152.6201-15.4,39.8999-38.9,90.0698-78.2999,111.1599-14.4601,7.74-30.8701,11.3101-47.24,12.3101-13.4701.8201-27.4302-.1501-39.6101-5.96-20.04-9.55-32.1599-30.6401-38.55-51.8901-2.96-9.8398-4.9099-20.0798-5.6699-30.3799-1.5-20.05,1.53-40.3101,10.4399-58.24,35.7001-71.72,135.24-86.6001,195.23-130.4102,38.9601-28.45,69.1001-70.0999,79.3301-117.2399,1.25-5.75,2.27-11.7301,5.51-16.64.83-1.25,1.86-2.42,3.02-3.4299,1.03-.8901,2.1499-1.6602,3.35-2.25,2.72-1.3701,5.7699-1.8401,8.65-.8701,9.22,3.13,8.78,16.25,6.11,25.6101Z"/>
      <path class="cls-2" d="M616.5407,72.7344c-11.5,40.3699-30.51,78.1299-49.41,115.6099-24.3999,48.3801-33.46,102.3401-52.86,152.6201-15.4,39.8999-38.9,90.0698-78.2999,111.1599-14.4601,7.74-30.8701,11.3101-47.24,12.3101-13.4701.8201-27.4302-.1501-39.6101-5.96-20.04-9.55-32.1599-30.6401-38.55-51.8901-2.96-9.8398-4.9099-20.0798-5.6699-30.3799,2.6599,5.52,6.35,11.52,11.8301,17.52,22.5999,24.73,54.8099,26.53,56.8699,26.6099,34.8501,1.4202,58.98-21.8,68.8701-31.3,14.99-14.4199,22.51-30.8298,37.5599-63.6499,16.2001-35.3398,15.3199-43.25,29.74-72.53,9.9401-20.1599,11.5699-18.8699,33.39-55.3,30.73-51.2899,46.24-77.5598,53.22-107.9999,4.12-17.9601,4.8401-32.08,5.4-41.5599,2.72-1.3701,5.7699-1.8401,8.65-.8701,9.22,3.13,8.78,16.25,6.11,25.6101Z"/>
      <path class="cls-6" d="M716.6307,505.1143c-23.11,29.03-65.52,40.26-100.55,28.01-13.7899-4.8201-26.6699-13.1199-35.1499-25.01-2.16-3.03-4-6.22-5.55-9.54-7.02-14.95-8.36-32.5-7.9299-49.24,1.22-47.3,14.3099-93.0701,24.3499-138.99,9.6201-44.01,19.3-89.99,34.0801-132.6099,11.78-33.9401,26.04-67.01,42.6699-98.8701,1.03-1.98,2.0701-3.95,3.1201-5.9099,2.97-5.5601,7.8199-11.97,13.97-10.5901,2.73.6201,4.46,2.39,5.45,4.77,1.8301,4.39,1.1301,10.8401-.48,15.76-12.08,37-30.52,72.9299-31.77,111.8301-1.1699,36.6799,13.16,72.02,29.54,104.8699,16.38,32.8401,35.24,64.96,44.3,100.53,9.05,35.5701,6.8099,76.28-16.05,104.99Z"/>
      <path class="cls-2" d="M716.6307,505.1143c-23.11,29.03-65.52,40.26-100.55,28.01-13.7899-4.8201-26.6699-13.1199-35.1499-25.01-2.16-3.03-4-6.22-5.55-9.54,7.4299,4.9302,15.77,8.96,25.1699,11.5,3.78,1.02,43.5,11.1401,69.6602-12.52,19.72-17.8398,20.71-44.9099,21.1299-56.3499.77-21.1702-5.34-34.54-14.8699-61.04,0,0-15.03-41.76-25.8301-82.96-17.01-64.9001-7.36-120.5601-3.9099-139.3,1.5499-8.4099,9.47-51.47,21.8198-79.04,1.03-1.98,2.0701-3.95,3.1201-5.9099,2.97-5.5601,7.8199-11.97,13.97-10.5901,2.73.6201,4.46,2.39,5.45,4.77,1.8301,4.39,1.1301,10.8401-.48,15.76-12.08,37-30.52,72.9299-31.77,111.8301-1.1699,36.6799,13.16,72.02,29.54,104.8699,16.38,32.8401,35.24,64.96,44.3,100.53,9.05,35.5701,6.8099,76.28-16.05,104.99Z"/>
      <path class="cls-2" d="M717.1407,929.9143c-74.64,97.9099-196.0801,103.4001-239.71,105.3699-108.03,4.8701-261.71-34.95-299.22-136.98-2.66-7.2598-19.91-56.3499-3.6-105.98,2.3-6.99,5.26-13.99,9.03-20.8899,16.98-31.1101,44.17-48.96,56.82-57.26,10.73-7.05,38.81-23.97,79.19-30.5901,49.9099-8.1899,63.4299,8.4001,102.89-2.8499,27.2999-7.79,29.7899-18.29,63.73-38.6001,26.8099-16.04,82.7101-49.49,143.4401-42.54,33.96,3.8901,66.3899,20.0601,91.4299,42.7002,9.87,8.8999,18.5801,18.8098,25.79,29.3699,54.8899,80.3801,19.3899,193.74-29.79,258.25Z"/>
      <path class="cls-1" d="M671.5173,68.6417c2.7933,21.7221,13.8518,72.567,18.5272,89.4728,7.8414,28.3537,28.7453,73.3968,40.0558,93.3462,1.2638,2.229,5.1927,9.0566,4.7029,17.92-.6048,10.9453-7.7788,21.9282-17.6575,27.1681-15.5572,8.2519-33.2099-.1852-37.2073-2.274-29.3258-15.3245-33.7753-60.0342-37.7303-99.775-5.7186-57.4621,1.6057-130.5206,11.1373-137.4649,2.7749-2.0218,7.5648-3.7579,11.3644-2.0411,5.4402,2.4582,6.4559,10.9139,6.8075,13.648Z"/>
      <path class="cls-1" d="M622.0064,53.7372c-15.4808,14.3848-55.069,45.2649-68.9724,54.9161-23.3183,16.1865-66.6263,36.6864-87.3292,44.4988-2.3133.8729-9.4417,3.5109-14.5499,10.3863-6.3082,8.4904-7.7678,21.064-3.6764,31.0481,6.4433,15.7232,24.7429,20.3635,28.9968,21.2822,31.2081,6.7385,62.1077-23.6716,89.5732-50.702,39.713-39.0839,79.3812-97.7856,76.5994-108.8195-.8098-3.2124-3.2903-7.4567-7.1678-8.529-5.552-1.5353-11.525,4.1084-13.4735,5.919Z"/>
      <path class="cls-1" d="M652.4607,62.1611c-10.1993,33.6342-.3966,56.3535-14.8112,132.5596-4.0018,21.1562-6.4419,37.0701-17.0311,57.2485-8.8595,16.8822-17.6316,33.598-36.8581,40.133-16.9181,5.7506-38.171,2.3405-52.8724-10.9969-2.6441-2.3988-14.6018-13.247-16.1768-29.9481-1.2561-13.3193,2.5145-26.8245,21.3965-55.8917,20.407-31.4148,80.3174-115.1176,91.7831-132.6021,1.4204-2.1659,4.368-6.6621,9.2857-7.5894,6.8895-1.2992,16.0564,4.5408,15.2843,7.0871Z"/>
      <path class="cls-4" d="M558.8619,40.6099c-6.2577-.4834-11.7971,3.8105-17.0425,8.309-8.9685,7.6912-16.9126,16.5767-23.5468,26.3534-.743,1.0951-1.4957,2.28-1.5266,3.6031-.046,1.9736,1.4929,3.5853,2.9519,4.9152,16.5708,15.1029,36.8204,25.7206,57.8623,33.4622,21.0417,7.7416,42.976,12.7345,64.8397,17.7008,14.5999,3.3163,29.2908,6.6428,44.245,7.3684,14.9541.7255,30.3368-1.282,43.6479-8.1354,1.5221-.7837,3.0929-1.7074,3.8947-3.2202.7382-1.3929.7-3.0541.6101-4.6281-.6417-11.2317-3.0037-22.3635-6.9781-32.8879-.8378-2.2185-1.8098-4.4994-3.62-6.0311-2.8195-2.3859-6.8932-2.3688-10.582-2.1837-23.8593,1.1975-47.7963,4.2502-71.556,1.7648-23.7598-2.4855-47.9937-11.3224-63.238-29.7156-4.1014-4.9486-7.6052-10.6135-12.9828-14.1337-2.4302-1.5908-4.75-2.3689-6.9788-2.5411Z"/>
      <path class="cls-4" d="M717.0457,72.922c-.387.6379-.8514,1.2282-1.4044,1.7547-2.141,2.0384-5.2095,2.7375-8.1431,3.1022-6.0402.751-12.1594.4359-18.2285-.0264-14.8062-1.1278-29.5461-3.1252-44.1184-5.9785-21.7152-4.252-43.7272-10.747-60.8485-24.7645-3.9-3.193-7.6661-7.019-8.8698-11.9135-2.9938-12.1731,13.964-17.6178,22.8186-19.6068,1.7569-.3947,3.5908-.7059,5.3473-.3093,3.604.8137,5.8568,4.2583,8.1608,7.1466,11.286,14.1484,30.2326,19.0274,47.5225,24.3763,6.4215,1.9866,12.8312,4.1582,19.4896,5.0792,6.6584.921,13.686.5124,19.711-2.4679,3.5887-1.7752,7.3451-4.5129,11.1862-3.3832,2.7109.7973,4.5138,3.342,5.7611,5.8775,1.9145,3.8918,3.0389,8.1701,3.2853,12.5003.1681,2.9545-.1698,6.1411-1.6697,8.6133Z"/>
      <path class="cls-6" d="M922.9907,616.5142c-2.66,149.4402-48.5199,282.3201-145.5699,396-97.04,113.6802-275.7,179.5701-421.8401,148.2202-86.75-18.6101-194.97-73.3401-251.2-141.96-55.43-67.6501-87.73-150.3501-99.38-237.5901,25.74,59.1499,57.4495,166.2497,143.2052,233.6748,174.9073,137.5201,304.2374,107.9997,341.2174,104.8696,46.2799-3.9202,178.8671-27.3967,270-136.1739,42.9082-51.2157,89.971-104.1087,114.2609-242.6087,5.1702-29.4502-4.4634-67.3618-21.1336-97.8218-12.98-23.73-28.1099-25.9099-36-50.0901-8.1299-24.95,1.53-42.3799,9.3901-79.8298,0,0,5.8199-27.73,7.83-97.04,2.0399-70.54-29.3099-104.6599-62.61-192.1301-4.17-10.96-40.77-108.2799-47.03-167.5999,7.73,21.03,11.14,44.8199,17.51,66.49,16.28,55.3701,54.64,101.03,83.35,151.0898,55.2101,96.2402,99.9701,231.5601,98,342.5Z"/>
      <path class="cls-7" d="M717.1407,929.9143c-74.64,97.9099-196.0801,103.4001-239.71,105.3699-108.03,4.8701-261.71-34.95-299.22-136.98-2.66-7.2598-19.91-56.3499-3.6-105.98,15.5,30.96,32.05,87.48,83.55,127.8401,70.6599,55.3699,164.46,46.8899,196.05,37.5601,24.5299-7.24,43.4299-18.78,43.4299-18.78,17.9099-10.9399,23.0801-18.76,35.22-27,24.95-16.9302,46.3601-13.22,70.4301-17.6101,53.34-9.71,97.71-55.1699,118.5699-97.4299,5.3501-10.8501,24.4-52.3999,16.4301-103.3101-3.2001-20.45-9.9901-37.46-17.15-51.2998,9.87,8.8999,18.5801,18.8098,25.79,29.3699,54.8899,80.3801,19.3899,193.74-29.79,258.25Z"/>
      <path class="cls-3" d="M475.3364,664.2505c16.8027-28.4868,50.7877-36.6863,86.8695-45.3914,29.9446-7.2246,57.1406-13.4219,88.4348-3.1304,11.2888,3.7124,36.6617,12.0566,40.6957,31.3042,1.9727,9.4124-1.2936,20.783-8.6088,28.1741-12.4043,12.533-28.9963,6.0913-79.826,3.9128-49.316-2.1138-74.2789-2.9036-89.2174,10.1741-2.2365,1.958-9.8448,9.0967-21.913,12.5217-3.9185,1.1121-17.0205,4.8306-22.6957-.7827-7.0427-6.9658-.1803-25.8623,6.2609-36.7825Z"/>
      <path class="cls-3" d="M375.945,699.8592c-16.9108-6.8987-36.9969-5.8564-54-4.3044-25.6619,2.3423-31.545,4.6814-36,9.7827-3.5524,4.0676-7.6315,11.5344-5.0869,16.8259,4.5016,9.3613,27.2614,6.7742,35.2174,5.8696,18.8534-2.1433,19.3114-7.7769,36-7.8259,6.2211-.0183,11.9139.7478,19.1738-2.3479,5.3119-2.2649,12.762-7.1514,12.1305-11.7393-.428-3.1096-4.4243-5.0327-7.4348-6.2607Z"/>
      <path class="cls-3" d="M248.9016,725.033c-11.7117-4.1216-26.7473,13.8013-28.9565,16.4348-5.4752,6.5266-13.7859,19.168-10.1739,23.4783,2.8953,3.4551,12.2038.0684,13.8261-.5217,9.7941-3.5632,8.6598-8.9824,20.6087-15.3914,3.3707-1.8079,6.7921-3.1633,9.6522-7.0435,1.069-1.4502,3.3958-4.6069,2.8696-8.3479-.5858-4.1648-4.4793-7.4309-7.8261-8.6086Z"/>
      <path class="cls-1" d="M312.6335,376.0455c-.9448-3.6924-.8723-7.6606-.4465-11.4812,1.3473-12.0923,5.9581-23.5859,11.3344-34.5007,16.7664-34.0386,44.6476-68.1299,82.3745-78.1863,4.2462-1.1318,7.1119,4.2756,3.7797,7.1401-8.5469,7.3474-16.8824,14.9304-24.4932,23.2327-11.0303,12.0325-20.5603,25.6965-26.1223,41.0427-4.913,13.5557-6.6083,28.0205-9.3368,42.1782-1.3981,7.2537-3.3829,14.9824-9.0203,19.7563-4.0558,3.4348-9.7473,4.8435-14.937,3.6973-5.1897-1.146-9.7585-4.8208-11.9906-9.6443-.484-1.0459-.8586-2.1279-1.1418-3.2349Z"/>
      <path class="cls-1" d="M587.2817,367.3846c2.7729-22.437,7.5397-44.6279,14.2295-66.2234.3762-1.2144,1.0255-4.8115,2.1669-5.5105,1.5667-.9597,2.13.5295,1.8423,2.2751-3.4253,20.7759-5.7748,41.8623-4.4164,62.8748.4266,6.6011,1.1234,13.6638-2.1173,19.4304-1.1572,2.0593-2.87,3.9084-5.0922,4.7095-2.2223.8013-4.9852.3391-6.4722-1.4963-1.53-1.8887-1.3905-4.5845-1.1501-7.0032.3004-3.0227.637-6.0417,1.0095-9.0564Z"/>
      <path class="cls-1" d="M623.8403,508.1697c-1.2306-5.7988-7.2709-9.0902-12.2704-12.3608-7.2909-4.7696-13.5878-11.1658-17.7697-18.809-8.8081-16.0982-7.4762-35.8256-3.3994-53.7173.6824-2.9946,1.4135-6.242.1467-9.0399-1.7894-3.9522-6.2969-3.4966-9.1401-1.15-3.4278,2.8291-4.5453,7.7527-5.0083,11.9547-1.0322,9.3691-1.5237,21.0826-.4091,30.4422,2.1799,18.3057,6.1455,34.9155,15.2831,50.9266,2.5819,4.5241,5.7684,8.8439,10.0975,11.7409s9.9625,4.1953,14.8639,2.4316,8.6032-7.032,7.6581-12.1546c-.0164-.0887-.0339-.1769-.0524-.2644Z"/>
      <path class="cls-4" d="M380.4773,196.1517c-51.7135,54.3405-58.2156,53.1357-74.0277,72.8845-34.3762,42.9348-50.6236,107.3046-51.1624,157.192-.2819,26.1001,3.7958,42.6843-.0003,82.446-1.5807,16.5565-3.9757,40.4333-12.1953,67.3192-5.5735,18.2306-19.8761,65.0136-54.7826,95.6517-35.4767,31.1386-97.882,50.5559-128.8097,15.4225-29.4847-33.494-15.8964-100.1362-6.1922-147.729,19.0305-93.3322,63.5517-154.7914,92.5112-193.8704,57.7766-77.9659,117.0163-116.1537,152.2474-138.3604,47.9447-30.2203,108.3464-57.8971,112.3276-48.5653,1.1428,2.6787-2.2898,8.5793-29.916,37.609Z"/>
      <path class="cls-5" d="M467.2551,189.0154c-10.1943,2.7051-18.8873-8.1274-13.9999-17.4736.8811-1.6848,1.9265-3.3745,3.1681-5.0305,6.4426-8.5925,14.6204-11.5438,26.0869-16.1738,27.4877-11.099,47.167-21.0604,47.4783-20.3479.2859.6543-9.3912,6.3914-25.1738,20.7391-2.1295,1.9359-6.2999,2.9203-14.4783,15.5219-4.6315,7.1362-5.2546,9.2461-8.2174,12.5217-3.0082,3.3259-7.3929,8.1736-14.6088,10.1738-.0852.0237-.1703.0466-.2551.0693Z"/>
      <path class="cls-5" d="M523.5973,254.1634c-8.2092-8.3953,3.5994-32.1667,9.3912-43.8259,12.8474-25.8625,29.6057-43.7939,31.0436-42.7827,1.3596.9563-15.08,15.9661-18,41.2175-.3577,3.0933-1.3538,13.6147-3.3914,29.4783-1.2594,9.8052-2.1555,15.7244-6.5217,18-3.6725,1.9141-9.441,1.0635-12.5217-2.0872Z"/>
      <path class="cls-5" d="M649.5973,198.8592c2.0031-.3782.59,21.2356,15.913,39.1304,11.473,13.3984,24.4426,15.5024,32.087,32.8696,1.4663,3.3313.2934,7.8495-2.3478,10.8913-3.4803,4.0081-11.1186,2.5926-18.7826-2.2826-13.6746-8.699-18.0831-24.3696-22.4347-40.6956-5.3816-20.1904-6.3514-39.5513-4.4348-39.9131Z"/>
    </g>
  </g>
</svg>