<?xml version="1.0" encoding="UTF-8"?>
<svg id="Capa_2" xmlns="http://www.w3.org/2000/svg" viewBox="0 0 949.0524 1194.5356">
  <defs>
    <style>
      .cls-1 {
        fill: #70569b;
      }

      .cls-2 {
        fill: #604593;
      }

      .cls-3 {
        fill: #47327c;
      }

      .cls-4 {
        fill: #a486ce;
      }

      .cls-5 {
        fill: #8566b2;
      }
    </style>
  </defs>
  <g id="Capa_1-2" data-name="Capa_1">
    <g>
      <g>
        <path class="cls-4" d="M444.6369,1188.0359c-26.7939,0-52.8418-2.6733-77.4199-7.946-79.8838-17.1372-193.7129-69.5706-254.8633-144.1956-53.6426-65.4683-88.4971-148.7524-100.7959-240.8496-3.3955-25.3613-5.0977-51.5144-5.0566-77.7305.1104-81.8745,17.0449-165.6985,48.9736-242.4089,32.7334-78.6453,80.7285-148.3074,138.7969-201.4556,57.7275-52.8386,127.8486-90.1443,195.6611-126.2217,45.9717-24.458,93.5098-49.7485,136.6582-79.6182,5.1768-3.5808,10.4268-7.3208,15.5029-10.9377,3.541-2.5227,7.084-5.0464,10.6396-7.5457,21.8965-15.3665,40.8613-27.1814,62.2598-34.906,1.0635-.3796,2.1162-.7507,3.166-1.0906,13.0059-4.3315,26.8613-6.6299,40.0146-6.6299,23.8115,0,44.4414,7.2229,59.6592,20.8879,10.9912,9.8733,19.0625,22.519,25.4004,39.7979l.3975,1.084v.0205c4.4814,12.4775,7.5381,25.8403,10.4971,38.7754,2.0605,9.0085,4.1904,18.324,6.749,27.0254,11.0322,37.5229,33.0898,71.46,54.4199,104.2793,9.5674,14.7207,19.4609,29.9421,28.332,45.4099,28.8115,50.2236,53.374,108.0098,71.0322,167.1108,19.1445,64.0759,28.7666,125.8826,27.8281,178.7385-1.3555,76.1663-14.0654,148.0002-37.7754,213.5068-24.3965,67.4019-61.1865,130.1824-109.3496,186.5979-40.1475,47.0315-94.5918,86.8555-157.4492,115.166-62.6543,28.2195-129.4893,43.1355-193.2783,43.1355Z"/>
        <path class="cls-1" d="M658.1745,13c20.3857-.0005,40.2864,5.728,55.3162,19.2241,11.3101,10.1602,18.4502,23.0503,23.6401,37.2002v.0098c7.73,21.0303,11.1399,44.8203,17.51,66.4902,16.28,55.3701,54.6399,101.0298,83.3499,151.0898,55.2102,96.2402,99.9702,231.5601,98,342.5-2.6599,149.4402-48.5198,282.3201-145.5698,396-80.6929,94.53-217.8445,156.0215-345.7837,156.0215-25.9185,0-51.438-2.5203-76.0564-7.8013-86.75-18.6101-194.97-73.3401-251.2-141.96-55.4299-67.6501-87.73-150.3501-99.3801-237.5901-3.3899-25.3201-5.0398-51.03-5-76.8601.2202-162.8101,67.1602-330.6201,185.6602-439.0801,96.1099-87.9697,224.5-131.1299,331.6299-205.29,8.76-6.0601,17.4302-12.3599,26.1802-18.5098,19.1799-13.46,38.7898-26.1899,60.73-34.1104.98-.3496,1.97-.6997,2.96-1.0195,12.1294-4.0396,25.1687-6.314,38.0137-6.3145M658.1775,0v13l-.001-13c-13.8262.0005-28.3704,2.4072-42.0642,6.9609-1.1545.374-2.2529.7627-3.2798,1.1289-22.1228,7.9863-41.5107,20.0508-63.8291,35.7134-3.5842,2.519-7.1892,5.0874-10.6753,7.5708-5.0608,3.6055-10.2939,7.3335-15.4333,10.8892-42.8408,29.6562-90.2085,54.8569-136.0161,79.2275-68.1694,36.2671-138.6597,73.7695-196.9951,127.1641-29.8191,27.2925-57.0454,58.8232-80.9219,93.7153-23.1848,33.8818-43.1995,70.9038-59.4875,110.0371C17.2202,549.8997.1125,634.5842.0007,717.3066c-.0408,26.501,1.6799,52.9475,5.115,78.6028,6.0806,45.5339,17.5652,89.0583,34.134,129.3594,17.3362,42.167,40.24,80.7727,68.0754,114.7449,27.5449,33.6143,68.3381,65.7378,117.9697,92.8984,45.3135,24.7974,95.2317,43.8091,140.5591,53.533,25.0261,5.3687,51.5325,8.0906,78.7832,8.0906,64.7031,0,132.4607-15.1143,195.948-43.7087,63.7256-28.7019,118.957-69.116,159.7231-116.8726,48.6711-57.011,85.8547-120.4673,110.5176-188.6057,23.9543-66.1809,36.7942-138.7202,38.1628-215.6033.9504-53.5166-8.7661-116.0066-28.0994-180.7151-17.7988-59.5728-42.5657-117.834-71.6226-168.4849-8.9602-15.6235-18.9036-30.9229-28.5198-45.7178-22.0461-33.9204-42.8696-65.959-53.634-102.5703-2.5017-8.5103-4.5161-17.3169-6.6487-26.6401-2.918-12.7578-5.9299-25.9258-10.3335-38.4478v-.0444l-.7949-2.1772c-6.6252-18.0625-15.5085-31.9297-27.1575-42.3945-16.4319-14.7549-38.5625-22.5532-64.001-22.5532h0Z"/>
      </g>
      <g>
        <path class="cls-2" d="M393.7619,473.1873c-11.8418,0-21.5576-1.8889-29.7041-5.7744-21.7393-10.3599-31.998-35.2249-36.1777-49.1245-2.9209-9.7078-4.7676-19.6042-5.4912-29.415-1.5244-20.3682,1.9277-39.6987,9.9824-55.9062,22.373-44.9478,71.6104-67.3081,119.2266-88.9321,26.085-11.8464,53.0596-24.0962,74.627-39.8467,41.5732-30.3584,71.123-74.0676,81.0732-119.9197l.3828-1.7874c1.0518-4.9529,2.0459-9.6309,4.4854-13.3286.5977-.8994,1.3672-1.7727,2.2188-2.5139.7725-.6675,1.5781-1.2112,2.3799-1.6055,1.2119-.6099,2.4092-.9219,3.502-.9219.5996,0,1.1807.0935,1.7275.2776,6.457,2.1919,4.9307,14.1138,3.2197,20.1111-11.4219,40.0962-30.5771,78.0825-49.1006,114.8181-14.7715,29.2878-24.0898,60.9307-33.1006,91.5315-6,20.3765-12.2051,41.4468-19.9404,61.4949-14.2031,36.7981-37.5576,88.1143-76.2256,108.8125-12.6123,6.751-27.8838,10.7163-45.3906,11.7856-2.665.1624-5.2539.2446-7.6943.2446Z"/>
        <path class="cls-3" d="M620.2673,68.6113c.1489,0,.2378.0239.27.0352,1.6401.5566,2.6157,6.6714.3479,14.6221-11.3062,39.6885-30.3621,77.478-48.7903,114.0229-14.9548,29.6523-24.3313,61.4941-33.3992,92.2876-5.9746,20.2891-12.1526,41.2695-19.8213,61.1445-13.9448,36.1294-36.8027,86.4741-74.1509,106.4658-12.0366,6.4429-26.686,10.2319-43.5398,11.2612-2.575.1567-5.0725.2363-7.4236.2363-11.1555,0-20.2373-1.7456-27.7676-5.3374-20.1731-9.6133-29.8376-33.1709-33.8035-46.3584-2.8254-9.3926-4.6128-18.9644-5.3135-28.4585-1.4631-19.5581,1.8306-38.0796,9.522-53.5576,9.6238-19.334,25.3511-36.0669,48.0806-51.1558,20.7976-13.8057,45.292-24.9297,68.98-35.687,26.2925-11.9404,53.4802-24.2871,75.4202-40.3096,42.4507-30.9995,72.6367-75.6851,82.8171-122.5962.1309-.6025.2593-1.207.3879-1.813.9609-4.5234,1.8687-8.7959,3.8254-11.7612.3845-.5791.8796-1.1396,1.4065-1.5986.4934-.4263.9766-.7568,1.4353-.9824l.0396-.0195.0396-.02c.5305-.2671,1.0544-.4204,1.4375-.4204M620.2663,59.6113c-1.8762,0-3.7485.5078-5.4856,1.3828-1.2.5898-2.3198,1.3599-3.3499,2.25-1.1602,1.0103-2.1902,2.1802-3.02,3.4302-3.24,4.9097-4.26,10.8901-5.51,16.6401-10.23,47.1396-40.3701,88.7896-79.3301,117.2397-59.99,43.8101-159.53,58.6899-195.23,130.4102-8.9099,17.9297-11.9399,38.1899-10.4399,58.2397.76,10.3003,2.71,20.54,5.6699,30.3799,6.3901,21.25,18.51,42.3403,38.55,51.8901,9.7898,4.6699,20.7283,6.2129,31.6394,6.2129,2.6638,0,5.3274-.0918,7.9707-.2529,16.3699-1,32.7798-4.5698,47.24-12.3101,39.3999-21.0898,62.8999-71.2598,78.2998-111.1597,19.4001-50.2803,28.4602-104.2402,52.8601-152.6201,18.8999-37.48,37.9099-75.2402,49.4099-115.6099,2.6702-9.3604,3.1101-22.48-6.1099-25.6104-1.0408-.3506-2.103-.5127-3.1646-.5127h0Z"/>
      </g>
      <g>
        <path class="cls-2" d="M658.5051,546.5234c-9.7217,0-19.1221-1.5635-27.9395-4.647-9.9062-3.4626-23.667-10.3289-32.9707-23.375-1.9482-2.7329-3.6768-5.7043-5.1367-8.8308-5.6426-12.0173-8.0283-27.0193-7.5098-47.2209.9639-37.3123,9.582-74.4346,17.918-110.3347,2.1143-9.1094,4.3018-18.5288,6.3311-27.8096l1.7236-7.8979c9.0459-41.4812,18.4004-84.3745,32.2119-124.1987,11.6943-33.696,25.9619-66.7566,42.4072-98.2622,1.0244-1.9697,2.0547-3.9229,3.0967-5.866,2.8125-5.2659,5.9199-8.4062,8.3145-8.4062.2324,0,.4619.0266.7041.0808.7998.1816,1.6387.5649,2.2812,2.1077,1.1836,2.8401.9404,7.915-.6025,12.6316-3.2295,9.8896-6.9951,19.9114-10.6377,29.6033-10.0371,26.7114-20.416,54.332-21.3535,83.4822-1.2373,38.7905,14.4766,75.8684,30.0107,107.0225,3.25,6.5164,6.6475,13.1008,9.9326,19.4685,13.2197,25.6233,26.8896,52.1189,34.0342,80.1643,10.0439,39.4797,4.501,76.321-15.21,101.0762-15.5586,19.5442-40.832,31.2122-67.6055,31.2122Z"/>
        <path class="cls-3" d="M696.1181,85.0913c.21,1.9673-.0776,4.9985-1.063,8.0093-3.197,9.793-6.9458,19.7681-10.5708,29.4146-10.166,27.0532-20.6785,55.0273-21.6389,84.9219-1.2693,39.7905,14.6963,77.5171,30.4817,109.1743,3.2639,6.5439,6.6687,13.1431,9.9612,19.5244,13.104,25.3989,26.6543,51.6621,33.6704,79.2075,4.4802,17.6084,5.7712,35.4956,3.7334,51.7275-2.2449,17.8843-8.3354,33.1714-18.1025,45.438-14.7124,18.4812-38.6689,29.5146-64.084,29.5146-9.2146,0-18.115-1.4785-26.4553-4.3953-9.2896-3.2471-22.1729-9.6543-30.7908-21.738-1.7903-2.5112-3.3796-5.2446-4.7319-8.1411-5.3306-11.3521-7.5801-25.7095-7.0796-45.1831.9507-36.8564,9.5171-73.7529,17.8018-109.4351,2.1179-9.1226,4.3081-18.5557,6.3435-27.8647l1.7229-7.894c9.0188-41.3545,18.3447-84.1167,32.0671-123.6865,11.6255-33.4946,25.8054-66.3511,42.1519-97.668,1.0127-1.9468,2.0452-3.9028,3.0742-5.8228,1.3997-2.6206,2.6323-4.2075,3.5088-5.1035M696.9519,75.1743c-5.3506.0005-9.5886,5.7393-12.281,10.7798-1.05,1.96-2.0901,3.9302-3.1201,5.9102-16.6299,31.8599-30.8899,64.9302-42.6699,98.8701-14.78,42.6196-24.46,88.5996-34.0801,132.6099-10.04,45.9199-23.1299,91.6899-24.3499,138.9897-.4302,16.7402.9099,34.29,7.9299,49.2402,1.55,3.3198,3.3899,6.5098,5.55,9.54,8.48,11.8901,21.3599,20.1899,35.1499,25.01,9.448,3.304,19.4265,4.8992,29.4248,4.8992,27.0718,0,54.2483-11.709,71.1252-32.9092,22.8599-28.71,25.1001-69.4199,16.05-104.9902-9.0601-35.5698-27.9202-67.6899-44.3-100.5298-16.3801-32.8501-30.71-68.1899-29.54-104.8701,1.25-38.8999,19.6899-74.8301,31.77-111.8301,1.6101-4.9199,2.3101-11.3696.48-15.7598-.99-2.3799-2.72-4.1499-5.45-4.77-.5747-.1289-1.1375-.1899-1.689-.1899h0Z"/>
      </g>
      <g>
        <path class="cls-2" d="M472.5832,1044.1794c-56.9766,0-117.3105-11.7117-165.5303-32.1323-57.3467-24.2854-95.9434-59.6587-111.6182-102.2957-3.291-8.9829-18.9395-56.189-3.5488-103.0222,2.3086-7.0183,5.2373-13.7937,8.7041-20.137,16.4492-30.1392,42.7168-47.3733,55.3398-55.6555,15.9268-10.4648,42.2891-24.1475,77.4482-29.9119,9.4727-1.5542,18.2715-2.3098,26.9004-2.3098,9.8174,0,17.9824.9675,25.8779,1.9033,7.2725.8618,14.1416,1.6758,21.6943,1.6758,9.6055,0,18.7959-1.345,28.9238-4.2322,17.2998-4.9365,25.2217-10.9954,36.1875-19.3813,6.8535-5.2415,15.3838-11.7649,28.6191-19.6851,23.2461-13.9077,71.6016-42.8386,124.4951-42.8386,5.4326,0,10.8574.3054,16.123.908,31.7148,3.6331,63.2949,18.3953,88.9238,41.5674,9.6445,8.6968,18.085,18.3076,25.0908,28.5693,30.6113,44.8262,29.6289,96.3938,23.416,131.7603-7.4893,42.6252-26.832,86.8096-53.0684,121.2241-31.3154,41.0796-74.793,70.3804-129.2246,87.0889-44.6055,13.6919-85.2656,15.5276-107.1094,16.5137-5.75.2593-11.6865.3909-17.6445.3909Z"/>
        <path class="cls-3" d="M626.0783,611.6567v9h.001c5.26,0,10.5115.2959,15.6072.8789,30.79,3.5271,61.4807,17.887,86.4272,40.4426,9.3757,8.4541,17.5796,17.7942,24.3848,27.7615,29.7568,43.5757,28.7686,93.8999,22.6992,128.4434-7.3687,41.9397-26.3999,85.4138-52.2144,119.2749-30.7346,40.3164-73.4526,69.0879-126.9675,85.5149-44.0579,13.5244-84.3464,15.3433-105.9905,16.3203-5.6819.2563-11.55.3862-17.4414.3862-56.3965,0-116.0903-11.582-163.7756-31.7759-39.1702-16.5881-89.9031-47.3511-109.147-99.6958-3.2034-8.7424-18.4268-54.6538-3.5015-100.0706,2.2244-6.76,5.0435-13.283,8.3809-19.3911,15.9089-29.1479,41.54-45.9651,53.8621-54.05,15.5605-10.2239,41.3259-23.5942,75.7056-29.2307,9.2275-1.5142,17.7881-2.2502,26.1707-2.2502,9.5518,0,17.582.9517,25.3479,1.8718,7.408.8779,14.405,1.7073,22.2241,1.7073,10.0344,0,19.6172-1.3997,30.1594-4.4053,18.1191-5.1704,26.7539-11.7737,37.686-20.134,7.1155-5.4417,15.1804-11.6091,28.1997-19.4001,11.8538-7.092,29.7673-17.8093,51.0439-26.604,25.0325-10.3469,48.9663-15.5933,71.1367-15.594l.0015-9M626.0766,611.6567c-54.1421.0015-102.4651,28.9148-126.8059,43.4775-33.9399,20.3101-36.4299,30.8101-63.73,38.6001-10.7319,3.0598-19.5413,4.0598-27.6897,4.0598-15.4082,0-28.4402-3.5791-47.572-3.5791-7.9517,0-16.9602.6187-27.6282,2.3691-40.3801,6.6201-68.46,23.54-79.1899,30.5901-12.6501,8.3-39.8401,26.1499-56.8201,57.26-3.77,6.8999-6.73,13.8999-9.03,20.8899-16.3101,49.6301.9399,98.7202,3.6001,105.98,35.4885,96.5312,174.9546,137.3752,281.373,137.3752,6.062,0,12.0247-.1328,17.8469-.3953,43.6299-1.9697,165.0698-7.46,239.71-105.3699,49.1799-64.51,84.6799-177.8699,29.79-258.25-7.21-10.5601-15.9202-20.47-25.79-29.3699-25.04-22.6401-57.47-38.8101-91.4299-42.7002-5.5935-.6401-11.1418-.9375-16.6343-.9375h0Z"/>
      </g>
      <path class="cls-5" d="M684.5174,81.6417c2.7933,21.7221,13.8518,72.567,18.5272,89.4728,7.8414,28.3537,28.7453,73.3968,40.0558,93.3462,1.2638,2.229,5.1927,9.0566,4.7029,17.92-.6048,10.9453-7.7788,21.9282-17.6575,27.1681-15.5572,8.2519-33.2099-.1852-37.2073-2.274-29.3258-15.3245-33.7753-60.0342-37.7303-99.775-5.7186-57.4621,1.6057-130.5206,11.1373-137.4649,2.7749-2.0218,7.5648-3.7579,11.3644-2.0411,5.4402,2.4582,6.4559,10.9139,6.8075,13.648Z"/>
      <path class="cls-5" d="M635.0065,66.7371c-15.4808,14.3848-55.069,45.2649-68.9724,54.9161-23.3183,16.1865-66.6263,36.6864-87.3292,44.4988-2.3133.8729-9.4417,3.5109-14.5499,10.3863-6.3082,8.4904-7.7678,21.064-3.6764,31.0481,6.4433,15.7232,24.7429,20.3635,28.9968,21.2822,31.2081,6.7385,62.1077-23.6716,89.5732-50.702,39.713-39.0839,79.3812-97.7856,76.5994-108.8195-.8098-3.2124-3.2903-7.4567-7.1678-8.529-5.552-1.5353-11.525,4.1084-13.4735,5.919Z"/>
      <path class="cls-5" d="M665.4608,75.1611c-10.1993,33.6342-.3966,56.3535-14.8112,132.5596-4.0018,21.1562-6.4419,37.0701-17.0311,57.2485-8.8595,16.8822-17.6316,33.598-36.8581,40.133-16.9181,5.7506-38.171,2.3405-52.8724-10.9969-2.6441-2.3988-14.6018-13.247-16.1768-29.9481-1.2561-13.3193,2.5145-26.8245,21.3965-55.8917,20.407-31.4148,80.3174-115.1176,91.7831-132.6021,1.4204-2.1659,4.368-6.6621,9.2857-7.5894,6.8895-1.2992,16.0564,4.5408,15.2843,7.0871Z"/>
      <path class="cls-4" d="M571.862,53.6098c-6.2577-.4834-11.7971,3.8105-17.0425,8.309-8.9685,7.6912-16.9126,16.5767-23.5468,26.3534-.743,1.0951-1.4957,2.28-1.5266,3.6031-.046,1.9736,1.4929,3.5853,2.9519,4.9152,16.5708,15.1029,36.8204,25.7206,57.8623,33.4622,21.0417,7.7416,42.976,12.7345,64.8397,17.7008,14.5999,3.3163,29.2908,6.6428,44.245,7.3684,14.9541.7255,30.3368-1.282,43.6479-8.1354,1.5221-.7837,3.0929-1.7074,3.8947-3.2202.7382-1.3929.7-3.0541.6101-4.6281-.6417-11.2317-3.0037-22.3635-6.9781-32.8879-.8378-2.2185-1.8098-4.4994-3.62-6.0311-2.8195-2.3859-6.8932-2.3688-10.582-2.1837-23.8593,1.1975-47.7963,4.2502-71.556,1.7648-23.7598-2.4855-47.9937-11.3224-63.238-29.7156-4.1014-4.9486-7.6052-10.6135-12.9828-14.1337-2.4302-1.5908-4.75-2.3689-6.9788-2.5411Z"/>
      <path class="cls-4" d="M730.0458,85.922c-.387.6379-.8514,1.2282-1.4044,1.7547-2.141,2.0384-5.2095,2.7375-8.1431,3.1022-6.0402.751-12.1594.4359-18.2285-.0264-14.8062-1.1278-29.5461-3.1252-44.1184-5.9785-21.7152-4.252-43.7272-10.747-60.8485-24.7645-3.9-3.193-7.6661-7.019-8.8698-11.9135-2.9938-12.1731,13.964-17.6178,22.8186-19.6068,1.7569-.3947,3.5908-.7059,5.3473-.3093,3.604.8137,5.8568,4.2583,8.1608,7.1466,11.286,14.1484,30.2326,19.0274,47.5225,24.3763,6.4215,1.9866,12.8312,4.1582,19.4896,5.0792,6.6584.921,13.686.5124,19.711-2.4679,3.5887-1.7752,7.3451-4.5129,11.1862-3.3832,2.7109.7973,4.5138,3.342,5.7611,5.8775,1.9145,3.8918,3.0389,8.1701,3.2853,12.5003.1681,2.9545-.1698,6.1411-1.6697,8.6133Z"/>
    </g>
  </g>
</svg>