<?xml version="1.0" encoding="UTF-8"?>
<svg id="Capa_2" xmlns="http://www.w3.org/2000/svg" viewBox="0 0 684.9119 1467.7027">
  <defs>
    <style>
      .cls-1 {
        fill: #f47731;
      }

      .cls-2 {
        fill: #fc9b65;
      }

      .cls-3 {
        fill: #d8601d;
      }
    </style>
  </defs>
  <g id="Capa_1-2" data-name="Capa_1">
    <g>
      <path class="cls-2" d="M681.863,82.2909c-6,22.45-18.97,42.26-30.64,62.35-68.28,117.48-96.36,255.66-93.9,391.5199,3.15,174.4702,54.06,353.6802,1.6,520.1201-34.17,108.4099-109.67,199.6001-195.61,274-87.44,75.6899-194.47,139.05-310.1,137.3899-15.65-.22-33.58-3.24-44.1901-13.51-2.8199-2.72-5.1199-5.96-6.72-9.79-4.53-10.7898-1.85-22.45,3.47-33.2798v-.01c.5601-1.1401,1.15-2.26,1.76-3.3801,2.3501-4.29,5.05-8.4199,7.79-12.26,76.04-106.6599,203.3-170.3499,271.45-282.22,69.13-113.48,65.3-255.8599,50.52-387.9199-15.38-137.51-41-281.6899,6.2401-415.8501,40.22-114.24,110.23-225.58,216.5-288.4399,31.74-18.78,75.81-31.21,103.71-9.6001,1.77,1.3701,3.48,2.8801,5.11,4.54.26.26.51.52.76.78,1.24,1.3101,2.39,2.67,3.46,4.0801.5.6399.97,1.2999,1.42,1.96,2.94,4.26,5.21,8.9199,6.87,13.83,1.09,3.25,1.92,6.61,2.5,10.03,1.98,11.71,1.07,24.1801-2,35.66Z"/>
      <path class="cls-3" d="M668.853,15.9508c-2.77,2.67-5.73,5.1301-8.79,7.4-12.6,9.33-26.54,16.76-40.61,23.66-32.55,15.97-61.39,39.64-84.86,64.99-17.69,19.1-29.29,41.25-34.61,66.73-2.95,14.1001-2.2599,28.9399-6.88,42.5801-4.46,13.1899-18.45,28.6399-33.91,23.76-15.62-4.9301-23.45-24.8401-22.06-39.8301.01-.15.03-.3.05-.45,1.71-16.8701,12.08-31.78,24.47-43.39,12.49-11.7001,27.18-20.78,40.5-31.54,23.43-18.92,42.5099-42.9301,66.74-60.8099,19.54-14.41,41.89-24.4401,63.05-36.3501,7.25-4.08,14.44-8.46,21.29-13.28,3.61-2.5299,7.13-5.2,10.51-8.01,1.77,1.3701,3.48,2.8801,5.11,4.54Z"/>
      <path class="cls-3" d="M674.493,22.7709c-6.46,10.99-14.3,21.21-22.81,30.98-7.2,8.3-14.88,16.28-22.57,24.14-2.43,2.49-4.86,4.97-7.28,7.4401-24.78,25.2899-49.83,52.73-58.71,87.0099-7.6,29.34-2.44,60.3101-3.84,90.59-.57,12.3801-2.53,25.3901-10.27,35.0701-17.68,22.13-50.97,5.14-55.41-19.0701-2.04-11.1599.61-22.71,5.3-33.0699.29-.67.6-1.33.92-1.99,5.25-10.87,12.54-20.6,19.28-30.61,18.19-27.05,32.64-56.6001,52.6-82.37,30.55-39.4501,73.49-69.39,101.37-110.08.12.1499.23.2999.34.45.38.5.73,1,1.08,1.51Z"/>
      <path class="cls-3" d="M344.613,1165.2709c-11.11,3.1301-17.1-3.8201-15.67-13.24.11-.75.27-1.52.48-2.3,16.7-60.1599,56.15-113.5701,67.66-175.6101.04-.1799.09-.3499.13-.52,9.48-37.8699,10.85-77.1799,10.41-116.0398-.44-39.3201-2.8-78.6599-.94-117.98,1.3-27.7102,4.62-56.51,12.76-83.54,3.14-10.47,7.02-20.6799,11.77-30.45,1.36-2.8,2.85-5.55,4.48-8.21,1.12-1.8401,2.32-3.6501,3.59-5.4001,5.16-7.1101,16.46-21.48,27.18-18.9199,11.23,2.6799,13.27,21.46,14.45,30.3999,9.54,72.0901,25.1,117.3601,31.46,175.8401,17.98,130.96-11.5,320.6001-167.76,365.97Z"/>
      <path class="cls-1" d="M422.803,275.8478c-6.9385-1.9219-19.7886,11.4893-16.4348,19.9565,2.0245,5.1112,10.1465,8.9086,16.0435,6.2609,4.4189-1.9841,5.8431-6.8037,6.2609-8.2174,2.1362-7.2291-.9437-16.6356-5.8696-18Z"/>
      <path class="cls-1" d="M443.5422,339.2391c-2.6919-2.2749-7.3979-2.493-10.1739-.3914-4.7966,3.6313-3.2321,13.7351,1.9565,17.6088.765.5712,2.9052,2.1689,5.087,1.5652,5.0496-1.3975,8.6431-14.124,3.1304-18.7826Z"/>
      <path class="cls-1" d="M393.5856,363.5c-1.2681-2.3269-4.0627-4.8081-7.0435-4.4348-4.411.5524-7.5714,7.1481-5.4783,11.4783,1.0194,2.109,3.2681,3.6456,5.7391,3.9131,2.6356.2853,5.5585-.8695,7.0435-3.3914,2.0056-3.4062.0388-7.0154-.2609-7.5652Z"/>
      <path class="cls-1" d="M430.2378,409.2826c-3.965-4.7463-10.7905-6.4114-16.4348-5.0869-9.6206,2.2576-15.4091,13.1074-13.6957,22.3042,1.1876,6.3743,6.3148,13.7571,13.6957,14.4783,6.6507.6497,11.5578-4.4585,12.913-5.8694,5.8828-6.124,9.908-18.1816,3.5217-25.8262Z"/>
      <path class="cls-1" d="M276.4552,1288.5436c.4701-8.0974-7.0454-14.7725-13.3043-14.8696-10.1957-.1584-18.7326,17.1121-14.087,24.2607,3.1967,4.9189,11.9435,3.9822,12.5217,3.9131,5.9964-.7163,14.3924-5.085,14.8696-13.3042Z"/>
      <path class="cls-1" d="M145.7596,1341.7609c-10.712-4.771-35.8066,14.5461-32.8696,31.3044,1.2211,6.9673,7.4608,14.4822,15.6522,15.6521,11.4957,1.6418,19.4065-10.2739,20.3478-11.7393,7.9497-12.3752,5.0784-31.5613-3.1304-35.2173Z"/>
      <path class="cls-1" d="M491.1509,116.4566c-2.4272-2.6329-7.4228-2.7825-10.6957-.2609-3.1031,2.3907-4.6243,7.1571-2.3478,10.6957,2.053,3.1913,6.3495,4.0699,9.3914,2.8695,4.9971-1.9722,6.9747-9.7002,3.6522-13.3043Z"/>
      <path class="cls-1" d="M567.39,55.3478c-2.2244-1.9829-7.2982-.5802-9,2.7391-1.0093,1.9688-1.1431,5.2175.9783,6.8479,2.1385,1.6437,5.2151.6021,6.8478-.7826,2.6655-2.2607,3.2604-6.9445,1.174-8.8044Z"/>
      <path class="cls-1" d="M607.303,66.5c-3.4025-2.6234-9.7049.4802-12.7174,2.7391-2.574,1.9301-7.3599,6.7029-5.8696,10.5652,1.3858,3.5914,7.3369,4.1633,8.8044,4.3043,1.7244.1658,4.6813.4498,7.2391-1.1738,5.2787-3.351,6.5378-13.355,2.5435-16.4348Z"/>
      <path class="cls-1" d="M625.3683,47.4566c-2.4388.2484-4.4412,3.2007-3.6522,4.9565.5605,1.2473,2.4664,1.75,3.9131,1.4347,2.1053-.4589,3.9174-2.7979,3.2609-4.5652-.4821-1.2977-2.175-1.9633-3.5217-1.826Z"/>
    </g>
  </g>
</svg>