<?xml version="1.0" encoding="UTF-8"?>
<svg id="Capa_2" xmlns="http://www.w3.org/2000/svg" viewBox="0 0 684.9135 1467.7027">
  <defs>
    <style>
      .cls-1 {
        fill: #f47731;
      }

      .cls-2 {
        fill: #fcb28d;
      }

      .cls-3 {
        fill: #ed7743;
      }

      .cls-4 {
        fill: #ff8c42;
      }

      .cls-5 {
        fill: #fc9b65;
      }

      .cls-6 {
        fill: #c64e12;
      }

      .cls-7 {
        fill: #e56525;
      }

      .cls-8 {
        fill: #d8601d;
      }
    </style>
  </defs>
  <g id="Capa_1-2" data-name="Capa_1">
    <g>
      <path class="cls-4" d="M681.8632,82.2909c-6,22.45-18.97,42.26-30.64,62.35-68.28,117.48-96.36,255.66-93.9,391.5199,3.15,174.4702,54.06,353.6802,1.6,520.1201-34.17,108.4099-109.67,199.6001-195.61,274-87.44,75.6899-194.47,139.05-310.1,137.3899-15.65-.22-33.58-3.24-44.1901-13.51-2.8199-2.72-5.1199-5.96-6.72-9.79-4.53-10.7898-1.85-22.45,3.47-33.2798v-.01c.5601-1.1401,1.15-2.26,1.76-3.3801,2.3501-4.29,5.05-8.4199,7.79-12.26,76.04-106.6599,203.3-170.3499,271.45-282.22,69.13-113.48,65.3-255.8599,50.52-387.9199-15.38-137.51-41-281.6899,6.2401-415.8501,40.22-114.24,110.23-225.58,216.5-288.4399,31.74-18.78,75.81-31.21,103.71-9.6001,1.77,1.3701,3.48,2.8801,5.11,4.54.26.26.51.52.76.78,1.24,1.3101,2.39,2.67,3.46,4.0801.5.6399.97,1.2999,1.42,1.96,2.94,4.26,5.21,8.9199,6.87,13.83,1.09,3.25,1.92,6.61,2.5,10.03,1.98,11.71,1.07,24.1801-2,35.66Z"/>
      <path class="cls-7" d="M668.8532,15.9508c-2.77,2.67-5.73,5.1301-8.79,7.4-12.6,9.33-26.54,16.76-40.61,23.66-32.55,15.97-61.39,39.64-84.86,64.99-17.69,19.1-29.29,41.25-34.61,66.73-2.95,14.1001-2.2599,28.9399-6.88,42.5801-4.46,13.1899-18.45,28.6399-33.91,23.76-15.62-4.9301-23.45-24.8401-22.06-39.8301.01-.15.03-.3.05-.45,1.71-16.8701,12.08-31.78,24.47-43.39,12.49-11.7001,27.18-20.78,40.5-31.54,23.43-18.92,42.5099-42.9301,66.74-60.8099,19.54-14.41,41.89-24.4401,63.05-36.3501,7.25-4.08,14.44-8.46,21.29-13.28,3.61-2.5299,7.13-5.2,10.51-8.01,1.77,1.3701,3.48,2.8801,5.11,4.54Z"/>
      <path class="cls-7" d="M674.4933,22.7709c-6.46,10.99-14.3,21.21-22.81,30.98-7.2,8.3-14.88,16.28-22.57,24.14-2.43,2.49-4.86,4.97-7.28,7.4401-24.78,25.2899-49.83,52.73-58.71,87.0099-7.6,29.34-2.44,60.3101-3.84,90.59-.57,12.3801-2.53,25.3901-10.27,35.0701-17.68,22.13-50.97,5.14-55.41-19.0701-2.04-11.1599.61-22.71,5.3-33.0699.29-.67.6-1.33.92-1.99,5.25-10.87,12.54-20.6,19.28-30.61,18.19-27.05,32.64-56.6001,52.6-82.37,30.55-39.4501,73.49-69.39,101.37-110.08.12.1499.23.2999.34.45.38.5.73,1,1.08,1.51Z"/>
      <path class="cls-8" d="M344.6132,1165.2709c-11.11,3.1301-17.1-3.8201-15.67-13.24.11-.75.27-1.52.48-2.3,16.7-60.1599,56.15-113.5701,67.66-175.6101.04-.1799.09-.3499.13-.52,9.48-37.8699,10.85-77.1799,10.41-116.0398-.44-39.3201-2.8-78.6599-.94-117.98,1.3-27.7102,4.62-56.51,12.76-83.54,3.14-10.47,7.02-20.6799,11.77-30.45,1.36-2.8,2.85-5.55,4.48-8.21,1.12-1.8401,2.32-3.6501,3.59-5.4001,5.16-7.1101,16.46-21.48,27.18-18.9199,11.23,2.6799,13.27,21.46,14.45,30.3999,9.54,72.0901,25.1,117.3601,31.46,175.8401,17.98,130.96-11.5,320.6001-167.76,365.97Z"/>
      <path class="cls-5" d="M341.6877,644.3161c-4.2513-15.3499-7.1686-30.8743-9.5839-46.3616-5.9403-38.0898-9.2615-76.2712-10.0269-114.4077-1.0502-52.3281,2.6458-106.543,35.6868-152.6326,16.5422-23.075,16.9332,21.3047,15.7993,28.764-14.56,95.7814-15.3799,192.6876-14.4935,289.546.0607,6.6343-13.8101,7.2234-15.7754.6665-.5561-1.8555-1.0911-3.7139-1.6065-5.5747Z"/>
      <path class="cls-5" d="M420.5485,174.8438c-.9772-.6024-2.6907.0717-5.3019,2.8949-22.081,23.8729-32.5322,55.8678-45.4192,85.7244-4.9742,11.5244-10.5095,24.0768-7.184,36.1803,1.2079,4.3964,4.196,8.9032,8.7154,9.5049,3.2852.4375,6.4653-1.3203,9.0558-3.3875,8.8489-7.061,13.6913-17.9856,16.8705-28.8508,4.8361-16.5277,6.564-33.7869,10.1481-50.6306,3.0797-14.4733,7.5314-28.635,12.8623-42.4387,1.5021-3.8895,1.8004-8.0431.253-8.9968Z"/>
      <path class="cls-5" d="M371.2836,690.2391c18.1334,7.2861,23.0219,55.2695,23.5056,119.739.6163,82.1335.9245,123.2004-11.7528,170.2175-11.8412,43.9165-27.6104,73.6262-50.2166,116.2173-16.3406,30.7864-36.6771,69.1013-70.5169,110.3479-62.6658,76.3818-139.0074,123.0442-143.1706,117.3914-2.034-2.7617,12.4249-19.0107,32.7654-41.8696,35.2911-39.6604,55.7817-55.3821,75.5029-75.1304,48.0285-48.0945,72.487-101.0393,86.1873-130.6958,8.0589-17.4446,26.3183-59.5051,38.4638-117.3911,18.1614-86.5579-9.9551-221.1794-6.6481-253.5654.5561-5.4456,2.016-11.2251,6.1732-14.6086,7.0498-5.7378,17.9111-1.3735,19.7068-.6521Z"/>
      <path class="cls-1" d="M681.8632,82.2909c-6,22.45-18.97,42.26-30.64,62.35-68.28,117.48-96.36,255.66-93.9,391.5199,3.15,174.4702,54.06,353.6802,1.6,520.1201-34.17,108.4099-109.67,199.6001-195.61,274-87.44,75.6899-194.47,139.05-310.1,137.3899-15.65-.22-33.58-3.24-44.1901-13.51-2.8199-2.72-5.1199-5.96-6.72-9.79-5.01-11.9299-1.2-24.9199,5.23-36.6699,29.3601,4.8101,60.3101,24.9302,109.27,20.9302,92.31-7.5303,161.74-93.6802,171.39-105.6501,20.71-25.7,28.46-44.98,65.74-86.8699,26.32-29.5701,39.13-38.71,58.7-58.7002,13.33-13.6199,63.73-66.0098,93.91-140.8699,31.02-76.95,27.86-145.8401,25.83-190.1702-2.19-47.5999-8.38-46.5-18.79-133.8298-6.13-51.47-11.69-98.0801-11.74-157.3-.09-109.54-.14-171.3999,35.22-220.7,8.37-11.67,24.68-30.9401,36.78-63.39,8.55-22.92,4.98-25.53,16.44-67.3,10.83-39.47,16.53-59.5699,30.52-77.48,4.58-5.87,6.22-6.86,28.96-33.65,13.27-15.6499,19.95-23.54,21.91-26.87,6.07-10.33,8.61-20.4,9.69-29.25,4.83,14.35,4.47,30.85.5,45.6901Z"/>
      <path class="cls-5" d="M633.325,6.6304c-5.4173-8.1074-38.2081,2.9829-61.4348,13.6957-34.2165,15.7816-57.7386,35.3848-71.6087,48.5217-19.0368,18.0306-37.7027,40.7504-35.2174,43.4348.8741.9442,4.3343-.6237,32.4783-19.5652,36.8223-24.7822,39.7986-28.0879,54-35.6088,19.0648-10.0964,28.5971-15.1447,39.5217-17.6086,2.6962-.6082,21.9799-4.8434,34.8261-13.3043,2.1994-1.4486,6.2305-4.3517,7.826-9.3914,1.0724-3.3871,1.1061-7.9331-.3913-10.174Z"/>
      <path class="cls-2" d="M618.476,6.9902c-4.4094.4888-8.9907,1.6588-10.4271,2.0234-22.6908,5.7594-44.3112,15.7078-63.4465,29.1943,20.0216-3.9451,37.485-17.5414,57.7979-19.4935,7.12-.6843,14.6661.032,21.0663-3.1619,1.6624-.8296,3.2722-1.9935,4.0225-3.6931,2.2009-4.9849-3.2597-5.507-9.0132-4.8693Z"/>
      <path class="cls-2" d="M360.4523,332.2931c-2.6923,2.2388-5.5005,5.25-6.571,6.8646-5.7993,8.7473-9.7065,18.606-13.0202,28.5643-7.8359,23.5477-12.5793,48.1224-14.0702,72.8948,7.5857-25.215,10.5481-52.0926,22.5868-75.5108,5.2104-10.1355,12.0562-19.4689,16.0705-30.1348,2.8933-7.6875-.9183-6.0687-4.9958-2.6781Z"/>
      <path class="cls-6" d="M344.6132,1165.2709c-11.11,3.1301-17.1-3.8201-15.67-13.24,7.29-5.22,19.78-8.3999,32.82-14.53,41.92-19.6899,62.96-57.27,82.17-91.5701,20.97-37.4299,43.143-118.1827,43.8265-138.5177,1.5652-46.5652-13.3565-76.1922-10.5665-131.4823,1.48-29.1899,5.27-40.1299,2.35-64.95-.85-7.21-2.12-14.4099-2.74-27-.7-14.24.16-20.6599,0-38.3499-.08-8.6602,1.39-17.05-1.04-28.3-1.73-7.99-3.99-12.22-7.83-14.0901-.81-.3999-4.28-1.95-10.43,0-12.01,3.8-18.86,16.1001-22.7,23.22-6.76,12.51-11.72,22.27-15.36,29.5801,3.14-10.47,7.02-20.6799,11.77-30.45,1.36-2.8,2.85-5.55,4.48-8.21,1.12-1.8401,2.32-3.6501,3.59-5.4001,5.16-7.1101,16.46-21.48,27.18-18.9199,11.23,2.6799,13.27,21.46,14.45,30.3999,9.54,72.0901,25.1,117.3601,31.46,175.8401,17.98,130.96-11.5,320.6001-167.76,365.97Z"/>
      <path class="cls-3" d="M447.7085,628.2885c-7.8405-.9626-17.9527,24.6282-19.9178,29.6013-8.4309,21.3359-11.0609,40.8223-11.9368,58.2788-1.4634,29.165,1.7206,57.6228,4.2232,57.6067,1.8511-.0122.6557-15.5859,6.8389-42.7368,4.7052-20.6606,9.3599-41.0991,18.7037-58.7959,3.0004-5.6821,4.3456-10.1748,7.0361-19.1602,2.233-7.4573,3.2374-12.7551.8101-18.1938-.9589-2.1484-2.7827-6.2349-5.7574-6.6001Z"/>
      <path class="cls-3" d="M423.9398,793.0288c-1.5603-4.6323-3.9186-7.8136-7.4376-5.6041-7.146,4.4867-4.0996,24.5487-3.4743,31.1557,3.0708,32.4497,2.8025,65.2145-.7994,97.6096,9.1413-35.0947,17.1192-71.1483,14.4868-107.3183-.2271-3.1205-.9627-10.461-2.7755-15.8429Z"/>
      <path class="cls-7" d="M681.8632,82.2909c-6,22.45-18.97,42.26-30.64,62.35-68.28,117.48-96.36,255.66-93.9,391.5199,3.15,174.4702,54.06,353.6802,1.6,520.1201-34.17,108.4099-109.67,199.6001-195.61,274-87.44,75.6899-194.47,139.05-310.1,137.3899-15.65-.22-33.58-3.24-44.1901-13.51-2.8199-2.72-5.1199-5.96-6.72-9.79-4.53-10.7898-1.85-22.45,3.47-33.2798.1301,7.3499-.6299,13.04,3.03,19.8899,9.87,18.4202,38.88,20.96,56.74,22.3,40.9301,3.0801,74.15-8.21,98.6101-18,65.4999-26.22,110.7699-58.75,120.9099-66.1299,87.96-64.0601,142.39-133.29,163.96-162.3901,42.14-56.8701,79.29-107.01,98.61-184.3,16.4-65.6399,14.7-129.95,14.08-149.0901-.65-20.0999-2.09-32.1899-8.21-97.4399-5.78-61.5298-8.95-76.8799-10.57-116.21-1.43-34.8398.79-25.03-.39-79.4399-.97-44.8101-2.96-73.24-2.35-124.4302.27-22.4897.82-31.1699,1.57-39.1299,1.83-19.6099,4.6-47.1699,16.43-78.26,8.77-23.05,12.43-21.53,24.26-51.6599,3.97-10.1001,3.95-11.27,15.26-46.17,16.51-50.9301,20.02-59.12,23.09-65.74,6.35-13.6901,12.05-23.29,22.7-41.2201,20.19-34.01,23.78-34.2999,30.26-48.5199,6.42-14.11,9.05-27.35,10.1-38.52,1.98,11.71,1.07,24.1801-2,35.66Z"/>
      <path class="cls-8" d="M678.9132,27.5609c-1.53,8.2999-10.28,13.09-12.33,14.2899-3.81,2.2201-8.97,6.34-14.9,11.9-6.81,6.38-14.63,14.6599-22.57,24.14-2.43,2.49-4.86,4.97-7.28,7.4401-24.78,25.2899-49.83,52.73-58.71,87.0099-7.6,29.34-2.44,60.3101-3.84,90.59-.57,12.3801-2.53,25.3901-10.27,35.0701-17.68,22.13-50.97,5.14-55.41-19.0701-2.04-11.1599.61-22.71,5.3-33.0699-1.26,6.9501-1.45,14.85,1.12,22.9401,1.08,3.4099,5.77,18.1699,18.26,21.3899,11.42,2.9601,21.39-5.78,21.91-6.26,8.39-7.58,9.24-18.7899,9.91-29.74,3.64-59.25,3.36-57.52,3.66-60,4.23-34.97,22.14-60.3699,27.52-67.8199,7.74-10.72,17.74-20.7101,37.7599-40.7001,7.55-7.5299,14.16-13.8099,25.63-25.8199,21.24-22.26,24.35-27.7899,26.51-33.0699.69-1.6901,1.45-3.75,2.23-5.52,1.02-2.29,2.09-4.0901,3.15-3.97,1.75.21,3.21,5.6399,2.35,10.27Z"/>
      <path class="cls-8" d="M668.8532,15.9508c-2.77,2.67-5.73,5.1301-8.79,7.4-12.6,9.33-26.54,16.76-40.61,23.66-32.55,15.97-61.39,39.64-84.86,64.99-17.69,19.1-29.29,41.25-34.61,66.73-2.95,14.1001-2.2599,28.9399-6.88,42.5801-4.46,13.1899-18.45,28.6399-33.91,23.76-15.62-4.9301-23.45-24.8401-22.06-39.8301.01-.15.03-.3.05-.45,1.55,5.96,4.36,13.1399,10.66,18.6199,1.5,1.3,9.7,8.4301,19.31,6.78,11.17-1.9099,16.87-14.4199,19.56-20.34,4.87-10.6901,3.24-15.95,5.48-29.22,3.45-20.35,11.84-34.88,15.65-41.48,6.36-11,13.63-18.55,28.18-33.65,8.27-8.5901,19.25-19.9,35.74-32.35,3-2.27,13.91-10.41,29.21-19.3,12.6299-7.34,19.3-9.99,36.79-19.83,17.25-9.7,17.24-10.76,19.82-11.74,1.44-.54,2.62-1.4,4.96-3.13.28-.2101,1.26-.9401,1.76-2.2201.19-.48.45-1.1599.13-1.76-.39-.71-1.37-.8199-1.56-.8398-1.64-.1901-3.07,1.1499-3.53,1.5599-1.7401,1.5499-4.1,2.7699-6.11,3.5299,3.61-2.5299,7.13-5.2,10.51-8.01,1.77,1.3701,3.48,2.8801,5.11,4.54Z"/>
      <path class="cls-7" d="M422.8033,275.8478c-6.9385-1.9219-19.7886,11.4893-16.4348,19.9565,2.0245,5.1112,10.1465,8.9086,16.0435,6.2609,4.4189-1.9841,5.8431-6.8037,6.2609-8.2174,2.1362-7.2291-.9437-16.6356-5.8696-18Z"/>
      <path class="cls-1" d="M443.5424,339.2391c-2.6919-2.2749-7.3979-2.493-10.1739-.3914-4.7966,3.6313-3.2321,13.7351,1.9565,17.6088.765.5712,2.9052,2.1689,5.087,1.5652,5.0496-1.3975,8.6431-14.124,3.1304-18.7826Z"/>
      <path class="cls-1" d="M393.5858,363.5c-1.2681-2.3269-4.0627-4.8081-7.0435-4.4348-4.411.5524-7.5714,7.1481-5.4783,11.4783,1.0194,2.109,3.2681,3.6456,5.7391,3.9131,2.6356.2853,5.5585-.8695,7.0435-3.3914,2.0056-3.4062.0388-7.0154-.2609-7.5652Z"/>
      <path class="cls-1" d="M430.238,409.2826c-3.965-4.7463-10.7905-6.4114-16.4348-5.0869-9.6206,2.2576-15.4091,13.1074-13.6957,22.3042,1.1876,6.3743,6.3148,13.7571,13.6957,14.4783,6.6507.6497,11.5578-4.4585,12.913-5.8694,5.8828-6.124,9.908-18.1816,3.5217-25.8262Z"/>
      <path class="cls-7" d="M276.4554,1288.5436c.4701-8.0974-7.0454-14.7725-13.3043-14.8696-10.1957-.1584-18.7326,17.1121-14.087,24.2607,3.1967,4.9189,11.9435,3.9822,12.5217,3.9131,5.9964-.7163,14.3924-5.085,14.8696-13.3042Z"/>
      <path class="cls-1" d="M145.7598,1341.7609c-10.712-4.771-35.8066,14.5461-32.8696,31.3044,1.2211,6.9673,7.4608,14.4822,15.6522,15.6521,11.4957,1.6418,19.4065-10.2739,20.3478-11.7393,7.9497-12.3752,5.0784-31.5613-3.1304-35.2173Z"/>
      <path class="cls-1" d="M491.1511,116.4566c-2.4272-2.6329-7.4228-2.7825-10.6957-.2609-3.1031,2.3907-4.6243,7.1571-2.3478,10.6957,2.053,3.1913,6.3495,4.0699,9.3914,2.8695,4.9971-1.9722,6.9747-9.7002,3.6522-13.3043Z"/>
      <path class="cls-7" d="M567.3902,55.3478c-2.2244-1.9829-7.2982-.5802-9,2.7391-1.0093,1.9688-1.1431,5.2175.9783,6.8479,2.1385,1.6437,5.2151.6021,6.8478-.7826,2.6655-2.2607,3.2604-6.9445,1.174-8.8044Z"/>
      <path class="cls-1" d="M607.3033,66.5c-3.4025-2.6234-9.7049.4802-12.7174,2.7391-2.574,1.9301-7.3599,6.7029-5.8696,10.5652,1.3858,3.5914,7.3369,4.1633,8.8044,4.3043,1.7244.1658,4.6813.4498,7.2391-1.1738,5.2787-3.351,6.5378-13.355,2.5435-16.4348Z"/>
      <path class="cls-7" d="M625.3685,47.4566c-2.4388.2484-4.4412,3.2007-3.6522,4.9565.5605,1.2473,2.4664,1.75,3.9131,1.4347,2.1053-.4589,3.9174-2.7979,3.2609-4.5652-.4821-1.2977-2.175-1.9633-3.5217-1.826Z"/>
    </g>
  </g>
</svg>