<?xml version="1.0" encoding="UTF-8"?>
<svg id="Capa_2" xmlns="http://www.w3.org/2000/svg" viewBox="0 0 923.0533 1168.5358">
  <defs>
    <style>
      .cls-1 {
        fill: #f47731;
      }

      .cls-2 {
        fill: #fc9b65;
      }

      .cls-3 {
        fill: #d8601d;
      }
    </style>
  </defs>
  <g id="Capa_1-2" data-name="Capa_1">
    <g>
      <path class="cls-2" d="M922.9907,616.5142c-2.66,149.4402-48.5199,282.3201-145.5699,396-97.04,113.6802-275.7,179.5701-421.8401,148.2202-86.75-18.6101-194.97-73.3401-251.2-141.96-55.43-67.6501-87.73-150.3501-99.38-237.5901C1.6107,755.8643-.0393,730.1543.0007,704.3243c.22-162.8101,67.16-330.6199,185.66-439.0798,96.11-87.97,224.5-131.1301,331.63-205.29,8.7599-6.0601,17.4301-12.3601,26.1801-18.51,19.1799-13.46,38.7899-26.1901,60.73-34.1101.98-.3499,1.97-.7,2.96-1.0199,31.38-10.4501,68.83-9.09,93.33,12.91,11.3099,10.1599,18.4501,23.0499,23.64,37.2v.01c7.73,21.03,11.14,44.8199,17.51,66.49,16.28,55.3701,54.64,101.03,83.35,151.0898,55.2101,96.2402,99.9701,231.5601,98,342.5Z"/>
      <path class="cls-3" d="M616.5407,72.7344c-11.5,40.3699-30.51,78.1299-49.41,115.6099-24.3999,48.3801-33.46,102.3401-52.86,152.6201-15.4,39.8999-38.9,90.0698-78.2999,111.1599-14.4601,7.74-30.8701,11.3101-47.24,12.3101-13.4701.8201-27.4302-.1501-39.6101-5.96-20.04-9.55-32.1599-30.6401-38.55-51.8901-2.96-9.8398-4.9099-20.0798-5.6699-30.3799-1.5-20.05,1.53-40.3101,10.4399-58.24,35.7001-71.72,135.24-86.6001,195.23-130.4102,38.9601-28.45,69.1001-70.0999,79.3301-117.2399,1.25-5.75,2.27-11.7301,5.51-16.64.83-1.25,1.86-2.42,3.02-3.4299,1.03-.8901,2.1499-1.6602,3.35-2.25,2.72-1.3701,5.7699-1.8401,8.65-.8701,9.22,3.13,8.78,16.25,6.11,25.6101Z"/>
      <path class="cls-3" d="M716.6307,505.1143c-23.11,29.03-65.52,40.26-100.55,28.01-13.7899-4.8201-26.6699-13.1199-35.1499-25.01-2.16-3.03-4-6.22-5.55-9.54-7.02-14.95-8.36-32.5-7.9299-49.24,1.22-47.3,14.3099-93.0701,24.3499-138.99,9.6201-44.01,19.3-89.99,34.0801-132.6099,11.78-33.9401,26.04-67.01,42.6699-98.8701,1.03-1.98,2.0701-3.95,3.1201-5.9099,2.97-5.5601,7.8199-11.97,13.97-10.5901,2.73.6201,4.46,2.39,5.45,4.77,1.8301,4.39,1.1301,10.8401-.48,15.76-12.08,37-30.52,72.9299-31.77,111.8301-1.1699,36.6799,13.16,72.02,29.54,104.8699,16.38,32.8401,35.24,64.96,44.3,100.53,9.05,35.5701,6.8099,76.28-16.05,104.99Z"/>
      <path class="cls-3" d="M717.1407,929.9143c-74.64,97.9099-196.0801,103.4001-239.71,105.3699-108.03,4.8701-261.71-34.95-299.22-136.98-2.66-7.2598-19.91-56.3499-3.6-105.98,2.3-6.99,5.26-13.99,9.03-20.8899,16.98-31.1101,44.17-48.96,56.82-57.26,10.73-7.05,38.81-23.97,79.19-30.5901,49.9099-8.1899,63.4299,8.4001,102.89-2.8499,27.2999-7.79,29.7899-18.29,63.73-38.6001,26.8099-16.04,82.7101-49.49,143.4401-42.54,33.96,3.8901,66.3899,20.0601,91.4299,42.7002,9.87,8.8999,18.5801,18.8098,25.79,29.3699,54.8899,80.3801,19.3899,193.74-29.79,258.25Z"/>
      <path class="cls-1" d="M671.5173,68.6417c2.7933,21.7221,13.8518,72.567,18.5272,89.4728,7.8414,28.3537,28.7453,73.3968,40.0558,93.3462,1.2638,2.229,5.1927,9.0566,4.7029,17.92-.6048,10.9453-7.7788,21.9282-17.6575,27.1681-15.5572,8.2519-33.2099-.1852-37.2073-2.274-29.3258-15.3245-33.7753-60.0342-37.7303-99.775-5.7186-57.4621,1.6057-130.5206,11.1373-137.4649,2.7749-2.0218,7.5648-3.7579,11.3644-2.0411,5.4402,2.4582,6.4559,10.9139,6.8075,13.648Z"/>
      <path class="cls-1" d="M622.0064,53.7372c-15.4808,14.3848-55.069,45.2649-68.9724,54.9161-23.3183,16.1865-66.6263,36.6864-87.3292,44.4988-2.3133.8729-9.4417,3.5109-14.5499,10.3863-6.3082,8.4904-7.7678,21.064-3.6764,31.0481,6.4433,15.7232,24.7429,20.3635,28.9968,21.2822,31.2081,6.7385,62.1077-23.6716,89.5732-50.702,39.713-39.0839,79.3812-97.7856,76.5994-108.8195-.8098-3.2124-3.2903-7.4567-7.1678-8.529-5.552-1.5353-11.525,4.1084-13.4735,5.919Z"/>
      <path class="cls-1" d="M652.4607,62.1611c-10.1993,33.6342-.3966,56.3535-14.8112,132.5596-4.0018,21.1562-6.4419,37.0701-17.0311,57.2485-8.8595,16.8822-17.6316,33.598-36.8581,40.133-16.9181,5.7506-38.171,2.3405-52.8724-10.9969-2.6441-2.3988-14.6018-13.247-16.1768-29.9481-1.2561-13.3193,2.5145-26.8245,21.3965-55.8917,20.407-31.4148,80.3174-115.1176,91.7831-132.6021,1.4204-2.1659,4.368-6.6621,9.2857-7.5894,6.8895-1.2992,16.0564,4.5408,15.2843,7.0871Z"/>
      <path class="cls-2" d="M558.8619,40.6099c-6.2577-.4834-11.7971,3.8105-17.0425,8.309-8.9685,7.6912-16.9126,16.5767-23.5468,26.3534-.743,1.0951-1.4957,2.28-1.5266,3.6031-.046,1.9736,1.4929,3.5853,2.9519,4.9152,16.5708,15.1029,36.8204,25.7206,57.8623,33.4622,21.0417,7.7416,42.976,12.7345,64.8397,17.7008,14.5999,3.3163,29.2908,6.6428,44.245,7.3684,14.9541.7255,30.3368-1.282,43.6479-8.1354,1.5221-.7837,3.0929-1.7074,3.8947-3.2202.7382-1.3929.7-3.0541.6101-4.6281-.6417-11.2317-3.0037-22.3635-6.9781-32.8879-.8378-2.2185-1.8098-4.4994-3.62-6.0311-2.8195-2.3859-6.8932-2.3688-10.582-2.1837-23.8593,1.1975-47.7963,4.2502-71.556,1.7648-23.7598-2.4855-47.9937-11.3224-63.238-29.7156-4.1014-4.9486-7.6052-10.6135-12.9828-14.1337-2.4302-1.5908-4.75-2.3689-6.9788-2.5411Z"/>
      <path class="cls-2" d="M717.0457,72.922c-.387.6379-.8514,1.2282-1.4044,1.7547-2.141,2.0384-5.2095,2.7375-8.1431,3.1022-6.0402.751-12.1594.4359-18.2285-.0264-14.8062-1.1278-29.5461-3.1252-44.1184-5.9785-21.7152-4.252-43.7272-10.747-60.8485-24.7645-3.9-3.193-7.6661-7.019-8.8698-11.9135-2.9938-12.1731,13.964-17.6178,22.8186-19.6068,1.7569-.3947,3.5908-.7059,5.3473-.3093,3.604.8137,5.8568,4.2583,8.1608,7.1466,11.286,14.1484,30.2326,19.0274,47.5225,24.3763,6.4215,1.9866,12.8312,4.1582,19.4896,5.0792,6.6584.921,13.686.5124,19.711-2.4679,3.5887-1.7752,7.3451-4.5129,11.1862-3.3832,2.7109.7973,4.5138,3.342,5.7611,5.8775,1.9145,3.8918,3.0389,8.1701,3.2853,12.5003.1681,2.9545-.1698,6.1411-1.6697,8.6133Z"/>
    </g>
  </g>
</svg>