<?xml version="1.0" encoding="UTF-8"?>
<svg id="Capa_2" data-name="Capa 2" xmlns="http://www.w3.org/2000/svg" viewBox="0 0 46.13 46.13">
  <defs>
    <style>
      .cls-1 {
        fill: #639648;
      }

      .cls-2 {
        fill: #367710;
      }

      .cls-3 {
        fill: #56843c;
      }

      .cls-4 {
        fill: #70a856;
      }
    </style>
  </defs>
  <g id="Capa_1-2" data-name="Capa 1">
    <g>
      <g>
        <path class="cls-1" d="M45.63,23.07c0,12.46-10.1,22.56-22.57,22.56-9.11,0-16.95-5.4-20.51-13.17-1.32-2.86-2.05-6.04-2.05-9.39C.5,10.6,10.6.5,23.06.5c9.36,0,17.39,5.7,20.81,13.81,1.13,2.7,1.76,5.66,1.76,8.76Z"/>
        <path class="cls-2" d="M23.06,46.13c-8.99,0-17.22-5.28-20.96-13.46-1.39-3.01-2.1-6.24-2.1-9.6C0,10.35,10.34,0,23.06,0c9.3,0,17.65,5.54,21.27,14.12,1.19,2.85,1.8,5.86,1.8,8.95,0,12.72-10.35,23.06-23.07,23.06ZM23.06,1C10.9,1,1,10.9,1,23.07c0,3.21.67,6.3,2,9.18,3.58,7.82,11.46,12.88,20.06,12.88,12.17,0,22.07-9.9,22.07-22.06,0-2.96-.58-5.84-1.72-8.57C39.95,6.3,31.96,1,23.06,1Z"/>
      </g>
      <path class="cls-3" d="M45.63,23.07c0,12.46-10.1,22.56-22.57,22.56-9.11,0-16.95-5.4-20.51-13.17,2.41,1.35,5.52,2.92,9.42,3.85,2.42.57,10.11,2.41,17.32-1.28,4.87-2.49,7.37-6.4,9.78-10.27,2.32-3.72,3.8-7.33,4.8-10.45,1.13,2.7,1.76,5.66,1.76,8.76Z"/>
      <path class="cls-4" d="M23.84,2.72c-.84-.17-1.73-.18-2.59-.12-5.03.35-9.87,2.93-12.98,6.9-.61.78-2.49,3.33-.7,3.88.43.14.91.04,1.34-.09,3.64-1.09,6.18-4.53,9.78-5.75,2.07-.7,4.39-.62,6.33-1.61.54-.28,1.08-.7,1.14-1.3.07-.75-.64-1.34-1.33-1.62-.32-.13-.65-.22-.98-.29Z"/>
      <path class="cls-4" d="M5.42,14.47c-1.1.11-1.79,1.34-2.27,2.23-.94,1.73-2.09,4.96-.95,5.82.44.34,1.17.27,1.61,0,.42-.25.5-.6,1.15-2.81.37-1.26.51-1.72.76-2.32.2-.48.42-.95.66-1.42.29-.57.43-.78.34-1-.14-.38-.81-.54-1.3-.49Z"/>
    </g>
  </g>
</svg>