<?xml version="1.0" encoding="UTF-8"?>
<svg id="Capa_2" data-name="Capa 2" xmlns="http://www.w3.org/2000/svg" viewBox="0 0 35.9 129.2">
  <defs>
    <style>
      .cls-1 {
        fill: #898686;
      }

      .cls-2 {
        fill: #a3a2a2;
      }

      .cls-3 {
        fill: #c4c2c2;
      }

      .cls-4 {
        fill: #b0b0b0;
      }

      .cls-5 {
        fill: #847a7a;
      }
    </style>
  </defs>
  <g id="Capa_1-2" data-name="Capa 1">
    <g>
      <g>
        <path class="cls-4" d="M35.37,5.89v115.83c0,3.83-7.8,6.94-17.42,6.94-5.77,0-10.88-1.12-14.05-2.84-2.11-1.15-3.36-2.56-3.36-4.1V5.89c0,3.06,7.8,5.53,17.41,5.53,8.24,0,15.15-1.81,16.96-4.26.3-.41.46-.83.46-1.27Z"/>
        <path class="cls-1" d="M17.95,129.2c-5.69,0-10.9-1.06-14.3-2.9-2.38-1.3-3.64-2.88-3.64-4.57V5.89h1.07c0,2.36,6.93,4.99,16.88,4.99,7.85,0,14.8-1.7,16.53-4.04.24-.33.36-.64.36-.95h1.07v115.83c0,4.19-7.89,7.47-17.96,7.47ZM1.07,8.07v113.65c0,1.61,1.68,2.86,3.08,3.63,3.2,1.74,8.36,2.77,13.79,2.77,9.15,0,16.88-2.93,16.88-6.4V8.04c-2.49,2.33-9.2,3.92-16.88,3.92-6.93,0-14.2-1.35-16.88-3.88Z"/>
      </g>
      <g>
        <path class="cls-1" d="M35.37,5.89c0,3.06-7.8,5.53-17.42,5.53S.54,8.95.54,5.89,8.34.37,17.95.37s17.42,2.47,17.42,5.52Z"/>
        <path class="cls-5" d="M17.95,11.79C7.97,11.79.16,9.2.16,5.89S7.97,0,17.95,0s17.79,2.59,17.79,5.89-7.82,5.9-17.79,5.9ZM17.95.74C7.75.74.91,3.41.91,5.89s6.85,5.16,17.04,5.16,17.05-2.67,17.05-5.16S28.14.74,17.95.74Z"/>
      </g>
      <path class="cls-2" d="M35.37,5.89v115.83c0,3.83-7.8,6.94-17.42,6.94-5.77,0-10.88-1.12-14.05-2.84,5-1.96,10.23-5.13,14.06-10.36,3.49-4.77,4.53-9.49,5.08-12.13,5.18-24.8,7.78-37.19,8.22-48.91.28-7.48,1.15-30.64,3.65-47.26.3-.41.46-.83.46-1.27Z"/>
      <path class="cls-3" d="M5.57,18.81c-.92,0-1.68.76-1.68,1.68v38.25c0,.92.76,1.68,1.68,1.68s1.68-.76,1.68-1.68V20.49c0-.92-.76-1.68-1.68-1.68Z"/>
    </g>
  </g>
</svg>