<?xml version="1.0" encoding="UTF-8"?>
<svg id="Capa_2" data-name="Capa 2" xmlns="http://www.w3.org/2000/svg" viewBox="0 0 124.33 66.94">
  <defs>
    <style>
      .cls-1 {
        fill: #639648;
      }

      .cls-2 {
        fill: #94c67d;
      }

      .cls-3 {
        fill: #70a856;
      }

      .cls-4 {
        fill: #7bb662;
      }
    </style>
  </defs>
  <g id="Capa_1-2" data-name="Capa 1">
    <g>
      <g>
        <path class="cls-4" d="M123.95,33.89c.13.21.09,1.36,0,3.65-.11,3.12-.13,3.54-.2,4.38-.32,4.24-.79,4.78-1.04,5.01-.83.79-1.94.79-3.65.79-.98,0-3.65-.01-6-1.7-1.26-.91-1.13-1.36-2.74-3.26-.75-.89-1.55-1.68-2.35-2.41h-54.65v10.16c0,8.91-7.22,16.14-16.13,16.14H1.67c-1.12,0-1.38-1.57-.32-1.93l2.12-.74c5.19-1.79,9.9-4.61,13.87-8.25,3.97-3.63,7.2-8.06,9.45-13.08,4.13-.92,7.09-4.56,7.14-8.79v-.52c.07-4.33-2.91-8.1-7.13-9.04h-.01C22.3,14.27,13.86,6.55,3.47,2.96l-2.55-.88C-.06,1.74.18.3,1.22.3h35.97c8.91,0,16.13,7.22,16.13,16.13v10.62h54.87c.72-.68,1.44-1.41,2.13-2.22,1.61-1.9,1.48-2.35,2.74-3.26,2.35-1.69,5.02-1.7,6-1.7,1.71,0,2.82,0,3.65.79.18.16.47.49.74,2.2.1.69.21,1.6.3,2.81.07.84.09,1.26.2,4.38.09,2.29.13,3.44,0,3.65-.02.03-.05.06-.07.09.02.04.05.07.07.1Z"/>
        <path class="cls-1" d="M37.19,66.94H1.67c-.75,0-1.18-.54-1.27-1.08s.14-1.19.85-1.43l2.12-.74c5.14-1.77,9.77-4.53,13.77-8.19,4-3.66,7.16-8.03,9.38-12.98l.06-.14.15-.03c4.02-.89,6.86-4.39,6.91-8.5v-.52c.07-4.16-2.84-7.84-6.9-8.74h-.19l-.02-.17C22.08,14.51,13.64,6.79,3.37,3.24l-2.55-.88C.15,2.12-.07,1.51.02,1.01.1.51.51,0,1.22,0h35.97c9.06,0,16.43,7.37,16.43,16.43v10.32h54.46c.79-.75,1.44-1.43,2.02-2.12.65-.77,1.01-1.29,1.3-1.71.43-.62.71-1.03,1.49-1.6,2.44-1.76,5.25-1.76,6.17-1.76,1.77,0,2.94,0,3.86.87.27.24.56.7.83,2.37.13.87.23,1.79.3,2.83.07.83.09,1.2.2,4.39.11,2.7.12,3.45-.01,3.75.13.31.12,1.06.01,3.76-.11,3.19-.13,3.56-.2,4.39-.34,4.47-.86,4.95-1.13,5.2-.91.87-2.08.87-3.85.87-.92,0-3.73,0-6.17-1.76-.79-.57-1.07-.98-1.49-1.6-.29-.42-.65-.95-1.3-1.71-.63-.75-1.35-1.49-2.24-2.31h-54.24v9.86c0,9.06-7.37,16.44-16.43,16.44ZM27,42.9c-2.25,4.97-5.43,9.36-9.46,13.04-4.05,3.71-8.75,6.51-13.97,8.31l-2.12.74c-.41.14-.51.5-.46.77s.25.58.68.58h35.52c8.73,0,15.83-7.11,15.83-15.84v-10.46h55.06l.08.08c.95.87,1.71,1.64,2.38,2.44.67.79,1.04,1.33,1.33,1.76.42.61.65.95,1.35,1.45,2.29,1.64,4.86,1.64,5.83,1.64,1.68,0,2.7,0,3.45-.71.16-.15.63-.58.95-4.82.07-.83.09-1.19.2-4.37.07-1.66.13-3.22.04-3.49-.03-.04-.06-.08-.08-.12l-.08-.15.15-.22c.1-.23.04-1.74-.03-3.49-.11-3.18-.13-3.54-.2-4.37-.08-1.03-.17-1.94-.3-2.79-.27-1.69-.54-1.93-.64-2.02-.75-.71-1.77-.71-3.45-.71-.97,0-3.54,0-5.83,1.64-.7.51-.93.84-1.35,1.45-.3.43-.67.97-1.34,1.76-.62.73-1.3,1.44-2.15,2.24l-.09.08h-55.29v-10.92c0-8.73-7.1-15.83-15.83-15.83H1.22c-.39,0-.58.28-.61.51-.04.24.04.56.41.69l2.55.88c10.38,3.59,18.91,11.37,23.43,21.36,4.26,1.02,7.3,4.91,7.24,9.3v.52c-.06,4.34-3.02,8.03-7.24,9.04Z"/>
      </g>
      <path class="cls-3" d="M123.95,33.89c.13.21.09,1.36,0,3.65-.11,3.12-.13,3.54-.2,4.38-.32,4.24-.79,4.78-1.04,5.01-.83.79-1.94.79-3.65.79-.98,0-3.65-.01-6-1.7-1.26-.91-1.13-1.36-2.74-3.26-.75-.89-1.55-1.68-2.35-2.41h-54.65v10.16c0,8.91-7.22,16.14-16.13,16.14H4.85c2.48-.34,8.52.15,17.9-2.35,11.13-2.96,15.33-7.02,16.82-8.61,1.59-1.69,3.95-4.21,5.35-8.22,1.62-4.64.51-7.2,2.48-9.52,2.1-2.46,5.8-2.43,9.78-2.35,16.46.37,26.11,1.11,33.26,1.12,8.01.02,12.02.03,12.13,0,.83-.17,2.56-.6,4.57,0,1.79.54,2.06,1.38,3.91,2.28.46.22,3.92,1.84,6.52.78,2.24-.92,3.16-3.55,3.92-6.31,1.11-4.07,1.66-7.71,1.96-10.61.1.69.21,1.6.3,2.81.07.84.09,1.26.2,4.38.09,2.29.13,3.44,0,3.65-.02.03-.05.06-.07.09.02.04.05.07.07.1Z"/>
      <path class="cls-2" d="M16.52,2.29c-.92-.46-2.75-.59-6.41-.83-2.84-.19-5.46-.37-5.53,0-.08.44,3.75.73,7.78,2.98,5.77,3.23,7.44,7.99,8.32,7.53,1.02-.53.04-7.57-4.16-9.68Z"/>
    </g>
  </g>
</svg>