<?xml version="1.0" encoding="UTF-8"?>
<svg id="Capa_2" data-name="Capa 2" xmlns="http://www.w3.org/2000/svg" viewBox="0 0 103.99 99.5">
  <defs>
    <style>
      .cls-1 {
        fill: #70569b;
      }

      .cls-2 {
        fill: #9570c2;
      }

      .cls-3 {
        fill: #a486ce;
      }

      .cls-4 {
        fill: #8566b2;
      }
    </style>
  </defs>
  <g id="Capa_1-2" data-name="Capa 1">
    <g>
      <g>
        <path class="cls-2" d="M101.1,44.05l-21.62,15.71c-1.99,1.45-2.82,4.01-2.06,6.34l8.26,25.42c1.7,5.23-4.28,9.57-8.73,6.34l-21.62-15.71c-1.99-1.44-4.68-1.44-6.67,0l-21.62,15.71c-4.45,3.23-10.43-1.11-8.73-6.34l8.07-24.83.19-.59c.76-2.33-.07-4.89-2.06-6.34L2.89,44.05c-4.45-3.23-2.16-10.26,3.33-10.26h26.73c2.45,0,4.63-1.58,5.39-3.92l8.26-25.42c1.7-5.22,9.09-5.22,10.79,0l8.26,25.42c.72,2.23,2.73,3.77,5.05,3.91.11.01.23.01.34.01h26.73c5.49,0,7.78,7.03,3.33,10.26Z"/>
        <path class="cls-1" d="M80.29,99.5c-1.27,0-2.54-.4-3.65-1.21l-21.62-15.71c-1.81-1.31-4.24-1.31-6.04,0l-21.62,15.71c-2.22,1.61-5.09,1.61-7.3,0-2.21-1.61-3.1-4.33-2.25-6.94l8.26-25.42c.69-2.12-.06-4.43-1.87-5.74L2.57,44.48c-2.22-1.61-3.1-4.33-2.26-6.94.85-2.61,3.16-4.29,5.9-4.29h26.73c2.23,0,4.19-1.43,4.88-3.55l8.26-25.42c.85-2.6,3.17-4.29,5.9-4.29s5.06,1.68,5.9,4.28l8.26,25.42c.65,2.02,2.45,3.41,4.57,3.54.11.01.21.01.31,0h26.73c2.74,0,5.06,1.68,5.9,4.29.85,2.6-.04,5.33-2.26,6.94l-21.62,15.71c-1.81,1.32-2.56,3.62-1.87,5.74l8.26,25.42c.85,2.61-.04,5.33-2.25,6.94-1.11.81-2.38,1.21-3.65,1.21ZM51.99,80.53c1.28,0,2.56.4,3.65,1.18l21.62,15.71c1.84,1.33,4.21,1.33,6.05,0,1.83-1.33,2.56-3.58,1.86-5.74l-8.26-25.42c-.83-2.56.07-5.35,2.25-6.94l21.62-15.71c1.83-1.33,2.57-3.58,1.87-5.74-.7-2.16-2.62-3.55-4.88-3.55h-26.73c-.13,0-.27,0-.39-.01-2.55-.15-4.72-1.83-5.51-4.28l-8.26-25.42c-.7-2.15-2.62-3.54-4.89-3.54s-4.18,1.39-4.89,3.55l-8.26,25.42c-.83,2.57-3.2,4.29-5.9,4.29H6.22c-2.27,0-4.18,1.39-4.88,3.55-.7,2.16.03,4.41,1.87,5.74l21.62,15.71c2.18,1.59,3.09,4.38,2.25,6.94l-.19.59-8.07,24.83c-.7,2.16.03,4.41,1.86,5.74,1.83,1.33,4.21,1.33,6.05,0l21.62-15.71c1.09-.79,2.37-1.19,3.65-1.19Z"/>
      </g>
      <path class="cls-4" d="M101.1,44.05l-21.62,15.71c-1.99,1.45-2.82,4.01-2.06,6.34l8.26,25.42c1.7,5.23-4.28,9.57-8.73,6.34l-21.62-15.71c-1.99-1.44-4.68-1.44-6.67,0l-21.62,15.71c-4.45,3.23-10.43-1.11-8.73-6.34l8.07-24.83c.29.49-.82,13.15,1.82,14.55,1.32.7,4.99-.68,7.73-2.64,2.53-1.82,2.11-2.44,4.5-4.21,1.26-.93,4.48-3.33,8.6-3.26,2.57.04,4.4,1.02,6.75,2.28,4.76,2.55,4.76,4.44,8.22,5.58.62.2,5.32,1.74,8.41-.69,2.82-2.2,2.83-6.52,2.84-9,.02-3.89-1.2-4.05-.68-6.75.48-2.5,1.92-4.35,4.69-7.92,2.05-2.63,2.47-2.64,3.13-4.11.39-.85,1.82-4.3.49-7.34-1.01-2.32-2.89-2.68-6.36-4.98-1.55-1.03-4.04-2.69-5.82-4.42.11.01.23.01.34.01h26.73c5.49,0,7.78,7.03,3.33,10.26Z"/>
      <path class="cls-3" d="M36.99,35.82c.83-.6,1.56-1.36,2.16-2.2.98-1.37,1.65-2.93,2.24-4.51,1.44-3.87,2.4-7.9,3.41-11.9.52-2.05,1.05-4.09,1.66-6.12.31-1.01.63-2.01.99-3,.1-.27.72-2.56,1.23-1.8.1.14.09.33.09.5-.27,6.35-2.55,12.42-3.77,18.66-.37,1.88-.64,3.78-1.24,5.6-.6,1.82-1.57,3.57-3.09,4.74-1.51,1.17-3.63,1.67-5.4.93.62-.22,1.19-.54,1.72-.92Z"/>
    </g>
  </g>
</svg>