<?xml version="1.0" encoding="UTF-8"?>
<svg id="Capa_2" data-name="Capa 2" xmlns="http://www.w3.org/2000/svg" viewBox="0 0 163.92 69.61">
  <defs>
    <style>
      .cls-1 {
        fill: #f47731;
      }

      .cls-2 {
        fill: #ff8c42;
      }

      .cls-3 {
        fill: #fc9b65;
      }
    </style>
  </defs>
  <g id="Capa_1-2" data-name="Capa 1">
    <g>
      <path class="cls-2" d="M163.37,25.94c-1.65,7.9-6.53,12.81-8.22,14.48-7.22,7.1-19.55,12.03-29.74,9-3.86-1.15-5.6-2.9-8.74-2.09-4.19,1.09-4.26,5.05-10,10.96-5.04,5.18-10.1,7.39-12.95,8.61-4.09,1.73-9.36,3.97-11.74,1.82,0,0,0,0-.02,0s-.01,0-.01,0c-2.39,2.15-7.66-.09-11.74-1.82-2.86-1.22-7.92-3.43-12.96-8.61-5.74-5.91-5.81-9.87-10-10.96-3.13-.81-4.88.94-8.74,2.09-5.26,1.56-11.09,1.01-16.49-.88-5.06-1.76-9.75-4.69-13.25-8.12-1.69-1.67-6.56-6.58-8.22-14.48-1.13-5.41-.21-9.64,0-10.57.55-2.35,2.13-9.17,8.22-12.91C14.77-1.22,21.63.24,22.86.5c1.61.35,4.51,1.23,10.3,3,2.52.77,3.13.99,4.31,1.05,3.33.17,4.26-1.23,8.87-2.09.64-.12,3.36-.6,6.85-.26,2.46.24,4.35.45,5.28,1.83.68,1.02.21,1.74.78,4.04.33,1.31.78,2.27,1.5,3.65,3.47,6.65,7.76,13.7,7.76,13.7,4.78,7.86,5.48,9.15,7.7,12.26,2.45,3.43,9.06,3.43,11.51,0,2.21-3.11,2.91-4.4,7.69-12.26,0,0,4.29-7.05,7.76-13.7.72-1.38,1.17-2.34,1.5-3.65.58-2.3.1-3.02.78-4.04.93-1.38,2.82-1.59,5.28-1.83,3.49-.34,6.21.14,6.86.26,4.6.86,5.53,2.26,8.86,2.09,1.18-.06,1.79-.28,4.31-1.05,5.8-1.77,8.69-2.65,10.3-3,.89-.19,4.72-1,9.04-.05,1.66.37,3.39.99,5.05,2.01,6.1,3.74,7.67,10.56,8.22,12.91.21.93,1.13,5.16,0,10.57Z"/>
      <path class="cls-1" d="M163.37,25.94c-1.65,7.9-6.53,12.81-8.22,14.48-7.22,7.1-19.55,12.03-29.74,9-3.86-1.15-5.6-2.9-8.74-2.09-4.19,1.09-4.26,5.05-10,10.96-5.04,5.18-10.1,7.39-12.95,8.61-4.09,1.73-9.36,3.97-11.74,1.82,0,0,0,0-.02,0s-.01,0-.01,0c-2.39,2.15-7.66-.09-11.74-1.82-2.86-1.22-7.92-3.43-12.96-8.61-5.74-5.91-5.81-9.87-10-10.96-3.13-.81-4.88.94-8.74,2.09-5.26,1.56-11.09,1.01-16.49-.88,2.24.09,4.5-.17,6.71-.95,12.1-4.29,12.13-4.3,12.13-4.3,3.97-1.61,5.41-2.41,7.82-2.22,1.61.12,3.32.66,9.13,4.83,5.05,3.62,5.66,4.59,8.16,6.26,2.45,1.64,6.79,4.37,12.84,4.95,1.76.17,8.33.71,14.35-3.13,2.07-1.32,3.93-3.63,7.57-8.21,7.87-9.92,8.19-12.27,11.74-13.44,2.93-.96,3.03.53,11.08.13,3.91-.19,6.54-.32,9.66-1.43,2.94-1.05,5.13-2.8,9.39-6.26,6.25-5.08,9.4-7.7,10.56-11.35.32-.99,1.56-4.93,0-8.81-.68-1.7-1.77-3.05-3.06-4.16,1.66.37,3.39.99,5.05,2.01,6.1,3.74,7.67,10.56,8.22,12.91.21.93,1.13,5.16,0,10.57Z"/>
      <path class="cls-3" d="M7.36,8.2c2.7-3.44,6.44-4.47,8.22-4.96,3.9-1.07,6.58-.36,7.43-.1,1.18.36,2.97.91,3.33,2.34.24.95-.22,2.04-.88,2.72-1.36,1.39-3.29.76-6.65,1.11,0,0-2.99.31-5.87,1.47-5.32,2.14-7.1,6.29-8.04,5.77-.92-.51-.15-5.01,2.47-8.35Z"/>
      <path class="cls-3" d="M44.9,4.03c1.36-.6,2.48-.65,4.43-.72,2.76-.09,4.17.26,4.57.36.97.25,2.52.66,2.54,1.27.02.61-1.51,1.32-2.87,1.3-1.17-.01-1.83-.59-2.61-.98-3.51-1.75-7.89.75-8.09.2-.11-.29,1.1-1.03,2.02-1.43Z"/>
    </g>
  </g>
</svg>