<?xml version="1.0" encoding="UTF-8"?>
<svg id="Capa_2" data-name="Capa 2" xmlns="http://www.w3.org/2000/svg" viewBox="0 0 130.2 69.77">
  <defs>
    <style>
      .cls-1 {
        fill: #599dd1;
      }

      .cls-2 {
        fill: #4291c1;
      }

      .cls-3 {
        fill: #86bfea;
      }

      .cls-4 {
        fill: #6cace4;
      }
    </style>
  </defs>
  <g id="Capa_1-2" data-name="Capa 1">
    <g>
      <g>
        <path class="cls-4" d="M129.67,34.89c0,18.97-15.37,34.35-34.35,34.35-11.36,0-21.43-5.53-27.69-14.03l-55.35-7.01c-3.44-.44-6.44-2.15-8.55-4.63-2-2.35-3.19-5.39-3.19-8.68,0-6.76,5.03-12.46,11.74-13.31l55.35-7.01C73.89,6.06,83.96.54,95.32.54c14.5,0,26.89,8.97,31.93,21.66,1.56,3.93,2.42,8.21,2.42,12.69Z"/>
        <path class="cls-2" d="M95.32,69.77c-10.96,0-21.4-5.25-27.98-14.06l-55.12-6.98c-3.47-.44-6.63-2.15-8.89-4.81-2.14-2.51-3.32-5.72-3.32-9.03,0-7.01,5.25-12.96,12.21-13.84l55.12-6.98C73.9,5.25,84.35,0,95.32,0c14.39,0,27.12,8.63,32.43,22,1.63,4.11,2.46,8.44,2.46,12.89,0,19.24-15.65,34.88-34.88,34.88ZM95.32,1.07c-10.71,0-20.9,5.16-27.26,13.81l-.14.18-.23.03-55.35,7.01c-6.43.81-11.27,6.31-11.27,12.78,0,3.05,1.09,6.01,3.06,8.33,2.09,2.46,5.01,4.04,8.21,4.45l55.58,7.04.14.18c6.37,8.65,16.56,13.81,27.26,13.81,18.65,0,33.81-15.17,33.81-33.81,0-4.31-.8-8.51-2.38-12.49-5.14-12.95-17.48-21.32-31.43-21.32Z"/>
      </g>
      <path class="cls-1" d="M129.67,34.89c0,18.97-15.37,34.35-34.35,34.35-11.36,0-21.43-5.53-27.69-14.03l-55.35-7.01c-3.44-.44-6.44-2.15-8.55-4.63,4.4.38,13.25,2.28,32.03,4.58,17.83,2.18,23.48,2.14,29.35,0,1.71-.63,4.18-1.7,7.69-1.62,7.16.17,10.24,4.94,15.4,7.1,9.35,3.91,21.63-2.47,27.39-7.31,7.81-6.56,10.52-16.1,11.66-24.12,1.56,3.93,2.42,8.21,2.42,12.69Z"/>
      <path class="cls-3" d="M85.97,4.45c3.1-1.24,5.77-1.12,9.39-.91,1.41.08,4.87.34,8.93,1.76,3.09,1.08,4.16,1.99,4.37,3.07.12.58,0,1.34-.46,1.83-.21.23-.69.59-3.2.46-1.24-.07-2.33-.22-3.59-.46-1.08-.2-1.31-.28-3.33-.72-2.78-.61-2.62-.52-4.3-.91-2.29-.53-2.48-.66-3.91-.91-.81-.14-1.84-.32-3.07-.39-3.23-.18-3.43-.14-3.6-.53-.18-.44.26-1.28,2.75-2.27Z"/>
      <path class="cls-3" d="M78.08,9.14c-1.22.26-2.41.77-3.91,1.83-1.65,1.16-2.5,1.78-2.48,2.67.01.47.27,1.03.72,1.24.76.35,1.79-.47,3.33-1.7.66-.52,1.09-.95,1.96-1.79,1.92-1.88,1.88-2.16,1.83-2.25-.14-.26-.88-.12-1.43,0Z"/>
      <path class="cls-3" d="M12.8,23.62c-1.09-.72-2.89.21-3.72.65-3.5,1.87-5.83,5.48-5.36,5.97.38.39,2.02-1.74,5.59-2.87.81-.25,1.54-.68,3-1.53.58-.34,1.11-.67,1.14-1.17.03-.45-.36-.85-.65-1.04Z"/>
    </g>
  </g>
</svg>