<?xml version="1.0" encoding="UTF-8"?>
<svg id="Capa_2" data-name="Capa 2" xmlns="http://www.w3.org/2000/svg" viewBox="0 0 72.55 97.27">
  <defs>
    <style>
      .cls-1 {
        fill: #f47731;
      }

      .cls-2 {
        fill: #ff8c42;
      }

      .cls-3 {
        fill: #fc9b65;
      }

      .cls-4 {
        fill: #e56525;
      }
    </style>
  </defs>
  <g id="Capa_1-2" data-name="Capa 1">
    <g>
      <g>
        <path class="cls-2" d="M72.02,15.53c0,6.63-4.3,12.24-10.27,14.23l-7.02,34.97c1.82,3.14,2.88,6.78,2.88,10.67,0,11.78-9.55,21.33-21.33,21.33-9.53,0-17.59-6.25-20.32-14.88-.65-2.03-1-4.2-1-6.45,0-2.61.49-5.09,1.34-7.4l-5.64-38.3C4.78,27.67.54,22.1.54,15.53.54,7.25,7.26.53,15.54.53h41.48c1.22,0,2.41.15,3.55.42,6.58,1.6,11.45,7.52,11.45,14.58Z"/>
        <path class="cls-4" d="M36.28,97.27c-9.57,0-17.94-6.13-20.83-15.25-.68-2.12-1.02-4.35-1.02-6.61,0-2.51.45-5.02,1.33-7.46l-5.57-37.85C4.07,27.85,0,22.04,0,15.54,0,6.97,6.97,0,15.54,0h41.48c1.22,0,2.46.15,3.67.43,6.98,1.7,11.86,7.91,11.86,15.1,0,6.59-4.14,12.43-10.34,14.64l-6.92,34.47c1.87,3.29,2.85,7.01,2.85,10.76,0,12.06-9.81,21.86-21.87,21.86ZM15.54,1.07C7.56,1.07,1.07,7.56,1.07,15.54c0,6.16,3.92,11.65,9.76,13.66l.31.11.05.32,5.66,38.43-.05.13c-.87,2.36-1.31,4.79-1.31,7.22,0,2.15.33,4.27.97,6.29,2.75,8.68,10.71,14.51,19.81,14.51,11.47,0,20.79-9.33,20.79-20.79,0-3.63-.97-7.23-2.81-10.4l-.1-.18,7.12-35.47.29-.1c5.92-1.97,9.9-7.49,9.9-13.72,0-6.7-4.54-12.48-11.04-14.06-1.13-.27-2.28-.41-3.42-.41H15.54Z"/>
      </g>
      <path class="cls-1" d="M72.02,15.53c0,6.63-4.3,12.24-10.27,14.23l-7.02,34.97c1.82,3.14,2.88,6.78,2.88,10.67,0,11.78-9.55,21.33-21.33,21.33-9.53,0-17.59-6.25-20.32-14.88,2.09,1.38,4.69,2.72,7.93,3.63,2.86.8,9.7,2.61,15.65-.95.78-.46,5.43-3.25,6.19-7.96.45-2.8-.88-3.81-1.36-7.17-.52-3.66.67-5.1,3.26-13.17,2.86-8.91,3.54-13.78,3.78-15.92.77-6.62-.09-8.89-.65-10.04-.85-1.76-1.91-2.76-1.56-3.91.46-1.56,3.19-1.12,7.56-2.61,2.45-.84,4.6-1.58,6.26-3.26,3.81-3.87,2.7-10.36,2.61-10.83-.76-4.09-3.22-6.88-5.06-8.71,6.58,1.6,11.45,7.52,11.45,14.58Z"/>
      <path class="cls-3" d="M4.35,9.34c.34-.76,1.06-2.02,3.2-3.65,1.5-1.14,3.66-2.75,6.39-2.71,1.55.02,1.93.56,2.01.68.41.65.12,1.65-.38,2.25-.52.63-1.09.58-2.35,1.04-1.08.39-1.78.84-3.2,1.73-1.62,1.02-2.42,1.53-2.93,2.15-.48.59-.75,1.12-1.43,1.34-.5.16-1.23.15-1.6-.26-.58-.64.02-1.96.29-2.58Z"/>
      <path class="cls-3" d="M3.44,13.74c-.21.13-.4.35-.68,1.4-.37,1.35-.55,2.03-.26,2.64.2.42.66.99,1.14.95.58-.06.91-.99,1.17-1.76.43-1.25.43-1.94.39-2.22-.05-.39-.11-.77-.42-1.01-.38-.29-.96-.24-1.34,0Z"/>
    </g>
  </g>
</svg>