<?xml version="1.0" encoding="UTF-8"?>
<svg id="Capa_2" data-name="Capa 2" xmlns="http://www.w3.org/2000/svg" viewBox="0 0 112.08 71.44">
  <defs>
    <style>
      .cls-1 {
        fill: #70569b;
      }

      .cls-2 {
        fill: #9570c2;
      }

      .cls-3 {
        fill: #a486ce;
      }

      .cls-4 {
        fill: #8566b2;
      }
    </style>
  </defs>
  <g id="Capa_1-2" data-name="Capa 1">
    <g>
      <g>
        <path class="cls-2" d="M102.11,70.94h-9.54l-33.65-34.6c-1.57-1.62-4.17-1.61-5.73.02l-26.96,28.13-6.18,6.45h-10.07c-5.85,0-10.3-5.24-9.35-11.01L7.82,16.11C7.82,7.49,14.8.5,23.42.5h65.25c6.7,0,12.41,4.22,14.62,10.15.63,1.7.98,3.54.98,5.46l7.19,43.82c.95,5.77-3.5,11.01-9.35,11.01Z"/>
        <path class="cls-1" d="M102.11,71.44h-9.75l-33.8-34.75c-.66-.68-1.55-1.06-2.5-1.06h-.01c-.95,0-1.84.38-2.5,1.08l-33.29,34.73h-10.28c-2.94,0-5.71-1.28-7.61-3.52-1.9-2.24-2.71-5.18-2.24-8.07L7.32,16.03c0-8.8,7.22-16.03,16.09-16.03h65.25c6.69,0,12.75,4.21,15.09,10.48.67,1.81,1.01,3.71,1.01,5.63l7.18,43.74c.48,2.89-.34,5.84-2.24,8.07-1.9,2.24-4.67,3.52-7.61,3.52ZM92.78,70.44h9.33c2.64,0,5.14-1.15,6.85-3.17,1.71-2.01,2.44-4.66,2.01-7.26l-7.19-43.82c0-1.89-.33-3.67-.96-5.37-2.19-5.88-7.88-9.82-14.15-9.82H23.42c-8.33,0-15.1,6.78-15.1,15.11L1.12,60.01c-.43,2.6.3,5.25,2.01,7.26,1.71,2.01,4.2,3.17,6.84,3.17h9.86l32.99-34.43c.85-.89,2-1.38,3.22-1.38h.02c1.22,0,2.36.48,3.21,1.36l33.5,34.45Z"/>
      </g>
      <path class="cls-3" d="M11.03,13.46c1.24-7.3,9.6-10.81,16.4-9.42.59.12,1.23.31,1.57.82.36.55.23,1.32-.16,1.85s-.99.87-1.59,1.14c-3.84,1.79-8.51,1.89-11.77,4.59-.94.78-1.73,1.75-2.75,2.42-.51.34-1.31.54-1.66.03-.17-.24-.15-.57-.12-.86.02-.2.05-.39.08-.58Z"/>
      <path class="cls-4" d="M102.11,70.94h-9.54l-33.65-34.6c-1.57-1.62-4.17-1.61-5.73.02l-26.96,28.13c8.35-10.73,16.71-21.45,25.06-32.18,4.69-6.03,9.23-3.39,13.96,1.09,5.21,4.94,11.5,8.72,18.31,11,3.15,1.05,6.56,1.79,9.79.97,10.75-2.74,10.18-23.45,9.94-34.72.63,1.7.98,3.54.98,5.46l7.19,43.82c.95,5.77-3.5,11.01-9.35,11.01Z"/>
    </g>
  </g>
</svg>