<?xml version="1.0" encoding="UTF-8"?>
<svg id="Capa_2" data-name="Capa 2" xmlns="http://www.w3.org/2000/svg" viewBox="0 0 76.24 77.56">
  <defs>
    <style>
      .cls-1 {
        fill: #898686;
      }

      .cls-2 {
        fill: #a3a2a2;
      }

      .cls-3 {
        fill: #c4c2c2;
      }

      .cls-4 {
        fill: #b0b0b0;
      }
    </style>
  </defs>
  <g id="Capa_1-2" data-name="Capa 1">
    <g>
      <g>
        <path class="cls-4" d="M75.69,68.21c-.22.86-2.59.32-5.85,2.3-1.25.76-2.59,1.57-3.29,3.09-2.12,4.56-3.4,3.57-7.61,2.65-3-.65-9.14-.45-9.14-.45h-28.99c-11.36,0-20.17-9.69-20.26-21.03-.02-1.61.14-3.25.49-4.9l.71-3.33c1.09-5.11,1.09-10.4,0-15.51l-.71-3.33C-1.8,14.4,7.83,1.77,20.81,1.77l28.99.05c3.91.16,7.87.82,11.52-.86,2.85-1.31,3.9.6,5.23,3.45.7,1.52,2.04,2.34,3.29,3.1,3.26,1.97,5.63,1.43,5.85,2.29.35,1.4-6.1,2.69-11.81,7.69-.53.46-1.04.95-1.51,1.45-6.62,6.79-9.2,16.9-7.31,26.23,1.11,5.5,3.94,10.68,8,14.56,1.37,1.3,12.87,7.53,12.63,8.48Z"/>
        <path class="cls-1" d="M62.97,77.56c-.78,0-1.68-.2-2.78-.46-.42-.1-.87-.21-1.37-.32-2.9-.63-8.95-.44-9.01-.44h-29.01C9.43,76.34.11,66.67.01,54.78c-.02-1.66.15-3.35.5-5.02l.71-3.33c1.08-5.07,1.08-10.21,0-15.29l-.71-3.33c-1.44-6.74.18-13.62,4.44-18.88C8.91,4.04,14.69,1.24,20.81,1.24l28.99.05c.71.03,1.41.07,2.1.12,3.25.2,6.31.4,9.19-.93,3.47-1.59,4.72,1.1,5.94,3.71.63,1.38,1.88,2.14,3.08,2.87,1.74,1.05,3.18,1.35,4.24,1.57.93.19,1.67.34,1.85,1.05.27,1.06-1.02,1.69-3.35,2.83-2.36,1.15-5.58,2.73-8.62,5.39-.52.45-1.01.92-1.47,1.41-6.33,6.5-9.08,16.36-7.18,25.76,1.09,5.42,3.88,10.49,7.85,14.28.5.47,2.76,1.84,4.95,3.16,7.12,4.3,8.02,5.07,7.83,5.83h0c-.18.71-.92.86-1.85,1.05-1.05.22-2.5.52-4.24,1.58-1.21.74-2.45,1.49-3.08,2.86-1.34,2.87-2.44,3.73-4.06,3.73ZM51.99,75.24c2.08,0,5.16.08,7.06.49.5.11.97.22,1.39.32,3.1.75,3.94.95,5.62-2.68.76-1.66,2.21-2.54,3.48-3.31,1.92-1.16,3.53-1.5,4.6-1.72.31-.06.68-.14.89-.22-.85-.86-4.64-3.15-7.21-4.7-2.44-1.47-4.55-2.75-5.13-3.3-4.12-3.94-7.02-9.21-8.16-14.84-1.97-9.74.88-19.97,7.45-26.71.48-.51,1-1.01,1.54-1.48,3.15-2.76,6.45-4.37,8.86-5.55,1.25-.61,2.68-1.31,2.78-1.64-.08-.03-.61-.14-1.03-.23-1.07-.22-2.68-.55-4.57-1.7-1.28-.78-2.73-1.66-3.5-3.33-1.44-3.08-2.25-4.23-4.52-3.19-3.13,1.44-6.47,1.23-9.71,1.02-.69-.04-1.37-.09-2.06-.12l-28.97-.05c-5.79,0-11.27,2.66-15.02,7.3C1.73,14.62.19,21.17,1.56,27.59l.71,3.33c1.11,5.22,1.11,10.51,0,15.73l-.71,3.33c-.34,1.59-.5,3.2-.48,4.78.09,11.31,8.94,20.5,19.72,20.5h28.99c.09,0,.97-.03,2.19-.03Z"/>
      </g>
      <path class="cls-2" d="M75.69,68.21c-.22.86-2.59.32-5.85,2.3-1.25.76-2.59,1.57-3.29,3.09-2.12,4.56-3.4,3.57-7.61,2.65-3-.65-9.14-.45-9.14-.45h-28.99c-11.36,0-20.17-9.69-20.26-21.03,2.51,2.37,5.94,5.16,10.86,7.46,5.75,2.68,11.14,3.35,21.92,4.7,0,0,5.88.73,15.52-.26,4.3-.45,6.08-.95,6.91-2.35,1.42-2.39-1.05-5.45-2.87-10.57,0,0-2.53-7.11-1.95-14.96.55-7.57,5.81-15.96,11.43-19.85-6.62,6.79-9.2,16.9-7.31,26.23,1.11,5.5,3.94,10.68,8,14.56,1.37,1.3,12.87,7.53,12.63,8.48Z"/>
      <path class="cls-3" d="M7.4,10.22c2.53-3.09,5.51-4.48,7.08-5.18,2.14-.96,4.66-2.06,7.34-1.27.4.12,1.72.51,1.79,1.21.1.89-1.85,1.77-2.97,2.28-1.8.82-2.84.94-4.86,1.5-1.73.48-3.48.96-5.28,1.86-3.33,1.66-4.89,3.74-5.22,3.46-.31-.26.8-2.23,2.12-3.85Z"/>
      <path class="cls-3" d="M2.33,24.46c-.13-.72-.24-1.82,0-3.38.42-2.72,1.66-5.12,1.91-5.04.14.05-.11.86-.39,2.59-.78,4.73-.45,7.85-.83,7.88-.3.02-.67-1.96-.68-2.05Z"/>
    </g>
  </g>
</svg>