<?xml version="1.0" encoding="UTF-8"?>
<svg id="Capa_2" data-name="Capa 2" xmlns="http://www.w3.org/2000/svg" viewBox="0 0 81.48 90.71">
  <defs>
    <style>
      .cls-1 {
        fill: #599dd1;
      }

      .cls-2 {
        fill: #4291c1;
      }

      .cls-3 {
        fill: #86bfea;
      }

      .cls-4 {
        fill: #6cace4;
      }
    </style>
  </defs>
  <g id="Capa_1-2" data-name="Capa 1">
    <g>
      <g>
        <path class="cls-4" d="M77.64,65.2h-17.45c-1.11,0-2.14.56-2.76,1.48l-14.81,22.05c-1.32,1.97-4.21,1.97-5.52,0l-12.73-18.94-2.09-3.11c-.61-.92-1.65-1.48-2.76-1.48H3.84c-2.63,0-4.22-2.89-2.81-5.11L37.93,2.04C39.24-.01,42.24-.01,43.55,2.04l6.64,10.45,30.26,47.6c1.41,2.22-.18,5.11-2.81,5.11Z"/>
        <path class="cls-2" d="M39.85,90.71h0c-1.28,0-2.46-.64-3.17-1.7l-14.82-22.05c-.52-.79-1.4-1.26-2.34-1.26H3.84c-1.42,0-2.68-.74-3.36-1.98-.68-1.24-.63-2.7.13-3.89L37.51,1.77c.71-1.11,1.92-1.77,3.23-1.77h0c1.32,0,2.52.66,3.23,1.77l36.9,58.05c.76,1.2.81,2.66.13,3.9-.68,1.24-1.94,1.98-3.36,1.98h-17.45c-.94,0-1.81.47-2.34,1.26l-14.81,22.05c-.71,1.06-1.9,1.7-3.18,1.7ZM40.74,1c-.97,0-1.87.49-2.39,1.31L1.45,60.36c-.56.89-.6,1.96-.09,2.88.5.92,1.43,1.46,2.48,1.46h15.68c1.28,0,2.47.64,3.18,1.7l14.82,22.05c.53.8,1.38,1.25,2.34,1.26h0c.96,0,1.81-.46,2.35-1.26l14.81-22.05c.72-1.07,1.9-1.7,3.17-1.7h17.45c1.05,0,1.98-.55,2.48-1.46.5-.92.47-1.99-.09-2.88L43.13,2.31c-.52-.82-1.42-1.31-2.39-1.31Z"/>
      </g>
      <path class="cls-1" d="M77.64,65.2h-17.45c-1.11,0-2.14.56-2.76,1.48l-14.81,22.05c-1.32,1.97-4.21,1.97-5.52,0l-12.73-18.94c.7.44,1.45.92,2.28,1.44,4.16,2.62,6.24,3.93,8.02,5.96,2.07,2.37,2.38,3.76,3.85,3.98,2.04.31,3.94-1.97,6.26-4.82,1.73-2.13,3.2-4.4,5.87-9.53,2.1-4.04,1.64-6.9,3.91-7.95,1.42-.66,2.28-.01,3.52-.78,2.33-1.45,2.25-5.53,2.22-6.79-.18-8.96-8.49-28.82-10.11-38.81l30.26,47.6c1.41,2.22-.18,5.11-2.81,5.11Z"/>
      <path class="cls-3" d="M25.91,35.73c-.08.62-.4,1.2-.77,1.71-.99,1.34-2.41,2.38-3.12,3.89-.38.81-.58,1.76-1.28,2.31-.73.57-1.77.5-2.66.28-1.04-.26-2.16-.83-2.38-1.87-.37-1.75,1.78-3.21,2.81-4.31,1.21-1.3,2.43-2.63,3.99-3.53.86-.5,2.02-.82,2.8-.21.5.39.7,1.08.62,1.73Z"/>
      <path class="cls-3" d="M11.78,49.08c-2.63,3.26-4.11,5.28-4.11,5.28-3.34,4.58-3.85,5.18-3.59,6,.2.64.82,1.28,3.59,2.09,5.45,1.59,11.34,1.49,11.48.52.1-.71-3.11-.78-5.22-3.72-1.28-1.78-1.49-3.69-1.57-4.5-.42-4.27,1.96-7.57,1.5-7.83-.21-.12-.8.56-2.09,2.15Z"/>
    </g>
  </g>
</svg>