<?xml version="1.0" encoding="UTF-8"?>
<svg id="Capa_2" data-name="Capa 2" xmlns="http://www.w3.org/2000/svg" viewBox="0 0 103.36 80.21">
  <defs>
    <style>
      .cls-1 {
        fill: #f9bd5d;
      }

      .cls-2 {
        fill: #ffcb80;
      }

      .cls-3 {
        fill: #db963b;
      }

      .cls-4 {
        fill: #eaa94b;
      }
    </style>
  </defs>
  <g id="Capa_1-2" data-name="Capa 1">
    <g>
      <g>
        <path class="cls-1" d="M100.7,47.7l-17.91,26.31c-2.52,3.69-6.69,5.9-11.16,5.9H31.72c-4.47,0-8.65-2.21-11.17-5.9l-10.58-15.55-7.32-10.76c-3.12-4.58-3.12-10.61,0-15.19L20.55,6.2C23.01,2.61,27.04.41,31.38.31c.01,11.2,9.09,20.28,20.29,20.28S71.95,11.51,71.96.31c3.72.09,7.21,1.71,9.68,4.44.41.45.8.94,1.15,1.46l17.91,26.31c3.12,4.58,3.12,10.61,0,15.19Z"/>
        <path class="cls-3" d="M71.63,80.21H31.72c-4.57,0-8.84-2.25-11.42-6.03L2.41,47.87c-3.21-4.71-3.21-10.81,0-15.52L20.31,6.04C22.82,2.36,26.96.11,31.38,0h.3s0,.3,0,.3c.01,11.02,8.98,19.98,19.99,19.98S71.66,11.32,71.67.3v-.3h.3c3.76.1,7.37,1.75,9.89,4.55.44.48.83.99,1.18,1.49l17.91,26.31c3.21,4.71,3.21,10.81,0,15.52l-17.91,26.31c-2.58,3.78-6.84,6.03-11.41,6.03ZM31.09.61c-4.12.19-7.95,2.33-10.29,5.76L2.9,32.68c-3.07,4.51-3.07,10.34,0,14.86l17.9,26.31c2.47,3.61,6.55,5.77,10.92,5.77h39.91c4.37,0,8.45-2.16,10.92-5.77l17.91-26.31c3.07-4.51,3.07-10.34,0-14.86l-17.91-26.31c-.33-.49-.71-.97-1.12-1.43-2.35-2.6-5.68-4.17-9.17-4.33-.17,11.21-9.34,20.27-20.58,20.27S31.27,11.82,31.09.61Z"/>
      </g>
      <path class="cls-4" d="M100.7,47.7l-17.91,26.31c-2.52,3.69-6.69,5.9-11.16,5.9H31.72c-4.47,0-8.65-2.21-11.17-5.9l-10.58-15.55c5.04,3.25,11.45,9.38,21.42,11.7,13.71,3.19,25.82-2.75,29.8-4.69,4.66-2.29,16.03-7.86,21.34-20.09,3.46-7.99,2.84-15.39,2.08-24.52-.6-7.24-1.89-12.36-2.97-16.12.41.45.8.94,1.15,1.46l17.91,26.31c3.12,4.58,3.12,10.61,0,15.19Z"/>
      <path class="cls-2" d="M10.82,25.67c2.88-4.82,5.76-9.65,8.64-14.48,1.37-2.29,3.78-7.07,7.05-6.78.58.05,1.17.48,1.19,1.06.01.39-.22.74-.45,1.07-4.86,6.88-10.38,13.29-16.44,19.12Z"/>
    </g>
  </g>
</svg>