<?xml version="1.0" encoding="UTF-8"?>
<svg id="Capa_2" data-name="Capa 2" xmlns="http://www.w3.org/2000/svg" viewBox="0 0 104.85 380.41">
  <defs>
    <style>
      .cls-1 {
        fill: #599dd1;
      }

      .cls-2 {
        fill: #4291c1;
      }

      .cls-3 {
        fill: #6cace4;
      }
    </style>
  </defs>
  <g id="Capa_1-2" data-name="Capa 1">
    <g>
      <g>
        <path class="cls-3" d="M60.27,49.93c0,24.35,19.74,44.09,44.08,44.09v40.48h-31.49c-8.26,0-14.96,6.7-14.96,14.96v62.98c0,8.26,6.7,14.96,14.96,14.96h31.49v38.5c-6.03.32-10.68,2.29-11.76,2.77-8.39,3.69-14.3,11-18.11,19.15-3.26,6.95-5.19,14.43-7.51,21.74-3.25,10.22-3.5,21.82-3.23,32.54.09,3.33.64,6.75,2.37,9.59,2.12,3.48,5.8,5.74,9.62,7.13,3.8,1.37,7.88,2.2,11.83,2.99,1.98.39,2.81-.95,3.53,1.56.13.45-12.85,15.85-14.34,16.5-30.27-10.18-55.55-51.92-67.97-108.7C3.46,246.9.5,219.87.5,191.39.5,85.96,41.09.5,91.16.5c4.48,0,8.89.68,13.19,2.01v3.33c-24.34,0-44.08,19.74-44.08,44.09Z"/>
        <path class="cls-2" d="M76.77,380.41l-.18-.06c-30.04-10.1-55.57-50.87-68.3-109.07C2.79,246.18,0,219.3,0,191.39,0,85.86,40.89,0,91.16,0c4.49,0,8.98.68,13.34,2.03l.35.11v4.2h-.5c-24.03,0-43.58,19.55-43.58,43.59s19.55,43.59,43.58,43.59h.5v41.48h-31.99c-7.97,0-14.46,6.49-14.46,14.46v62.98c0,7.97,6.49,14.46,14.46,14.46h31.99v39.47l-.47.02c-5.59.3-9.96,2.01-11.58,2.73-9.39,4.13-14.89,12.56-17.86,18.9-2.5,5.33-4.25,11.08-5.94,16.64-.51,1.68-1.02,3.36-1.55,5.04-3.28,10.33-3.46,22.16-3.21,32.38.11,3.92.86,6.98,2.3,9.34,1.8,2.95,5.04,5.35,9.36,6.92,3.85,1.39,8.05,2.23,11.76,2.97.57.11,1.04.06,1.45.02,1.12-.13,1.9-.05,2.46,1.9.07.25.19.64-6.66,8.64-2.55,2.97-6.97,8.03-7.96,8.46l-.18.08ZM91.16,1C41.45,1,1,86.41,1,191.39c0,27.84,2.78,54.64,8.27,79.67,12.62,57.71,37.82,98.15,67.43,108.26,1.85-1.32,12.84-14.25,13.87-15.98-.34-1.12-.56-1.09-1.34-1.01-.46.05-1.03.11-1.75-.03-3.74-.75-7.98-1.6-11.9-3.01-4.54-1.65-7.96-4.19-9.88-7.34-1.53-2.52-2.33-5.73-2.44-9.84-.26-10.3-.08-22.24,3.25-32.71.53-1.67,1.04-3.35,1.55-5.02,1.7-5.6,3.46-11.38,5.99-16.78,3.04-6.5,8.69-15.14,18.36-19.4,1.62-.72,5.93-2.41,11.46-2.78v-37.53h-30.99c-8.52,0-15.46-6.94-15.46-15.46v-62.98c0-8.52,6.94-15.46,15.46-15.46h30.99v-39.48c-24.35-.27-44.08-20.17-44.08-44.59S79.5,5.61,103.85,5.34v-2.46c-4.15-1.25-8.42-1.88-12.69-1.88Z"/>
      </g>
      <path class="cls-1" d="M104.35,227.4v38.5c-6.03.32-10.68,2.29-11.76,2.77-8.39,3.69-14.3,11-18.11,19.15-3.26,6.95-5.19,14.43-7.51,21.74-3.25,10.22-3.5,21.82-3.23,32.54.09,3.33.64,6.75,2.37,9.59,2.12,3.48,5.8,5.74,9.62,7.13,3.8,1.37,7.88,2.2,11.83,2.99,1.98.39,2.81-.95,3.53,1.56.13.45-12.85,15.85-14.34,16.5-30.27-10.18-55.55-51.92-67.97-108.7,2.74,4.82,5.95,10.68,9.72,17.59,5.06,9.27,10.5,18.33,15.26,27.76,5.91,11.72,7.94,17.04,10.57,16.85,3.48-.26,3.09-10.79,8.09-27.4,3.34-11.06,7.49-24.3,18.12-34.82,8.03-7.95,18.18-5.47,20.55-12.72,1.27-3.89.04-8.43-2.16-11.35-3.44-4.57-8.46-4.06-15.65-6.65-8.4-3.02-15.47-8.72-19.17-13.7-4.41-5.91-4.56-14.78-4.7-32.28-.14-18.73,1.8-30.04,3.01-36,2.57-12.55,3.95-18.9,8.73-22.5,6.54-4.91,16.36-3.91,23.96-1.45h-12.25c-8.26,0-14.96,6.7-14.96,14.96v62.98c0,8.26,6.7,14.96,14.96,14.96h31.49Z"/>
    </g>
  </g>
</svg>