<?xml version="1.0" encoding="UTF-8"?>
<svg id="Capa_2" data-name="Capa 2" xmlns="http://www.w3.org/2000/svg" viewBox="0 0 130.2 69.77">
  <defs>
    <style>
      .cls-1 {
        fill: #639648;
      }

      .cls-2 {
        fill: #94c67d;
      }

      .cls-3 {
        fill: #70a856;
      }

      .cls-4 {
        fill: #7bb662;
      }
    </style>
  </defs>
  <g id="Capa_1-2" data-name="Capa 1">
    <g>
      <g>
        <path class="cls-4" d="M.54,34.89c0,18.97,15.37,34.35,34.35,34.35,11.36,0,21.43-5.53,27.69-14.03l55.35-7.01c3.44-.44,6.44-2.15,8.55-4.63,2-2.35,3.19-5.39,3.19-8.68,0-6.76-5.03-12.46-11.74-13.31l-55.35-7.01C56.32,6.06,46.25.54,34.89.54,20.39.54,8,9.51,2.96,22.2c-1.56,3.93-2.42,8.21-2.42,12.69Z"/>
        <path class="cls-1" d="M34.89,69.77C15.65,69.77,0,54.12,0,34.89c0-4.44.83-8.78,2.46-12.89C7.77,8.63,20.49,0,34.89,0c10.97,0,21.41,5.25,27.98,14.06l55.12,6.98c6.96.88,12.21,6.83,12.21,13.84,0,3.31-1.18,6.51-3.32,9.03-2.26,2.66-5.42,4.37-8.89,4.81l-55.12,6.98c-6.58,8.81-17.02,14.06-27.98,14.06ZM34.89,1.07C20.94,1.07,8.6,9.44,3.45,22.39c-1.58,3.98-2.38,8.19-2.38,12.49,0,18.65,15.17,33.81,33.82,33.81,10.7,0,20.89-5.16,27.26-13.81l.14-.18.23-.03,55.35-7.01c3.2-.41,6.12-1.99,8.21-4.45,1.97-2.32,3.06-5.28,3.06-8.33,0-6.47-4.85-11.96-11.27-12.78l-55.58-7.04-.14-.18C55.78,6.23,45.59,1.07,34.89,1.07Z"/>
      </g>
      <path class="cls-3" d="M.54,34.89c0,18.97,15.37,34.35,34.35,34.35,11.36,0,21.43-5.53,27.69-14.03l55.35-7.01c3.44-.44,6.44-2.15,8.55-4.63-4.4.38-13.25,2.28-32.03,4.58-17.83,2.18-23.48,2.14-29.35,0-1.71-.63-4.18-1.7-7.69-1.62-7.16.17-10.24,4.94-15.4,7.1-9.35,3.91-21.63-2.47-27.39-7.31-7.81-6.56-10.52-16.1-11.66-24.12-1.56,3.93-2.42,8.21-2.42,12.69Z"/>
      <path class="cls-2" d="M44.23,4.45c-3.1-1.24-5.77-1.12-9.39-.91-1.41.08-4.87.34-8.93,1.76-3.09,1.08-4.16,1.99-4.37,3.07-.12.58,0,1.34.46,1.83.21.23.69.59,3.2.46,1.24-.07,2.33-.22,3.59-.46,1.08-.2,1.31-.28,3.33-.72,2.78-.61,2.62-.52,4.3-.91,2.29-.53,2.48-.66,3.91-.91.81-.14,1.84-.32,3.07-.39,3.23-.18,3.43-.14,3.6-.53.18-.44-.26-1.28-2.75-2.27Z"/>
      <path class="cls-2" d="M52.12,9.14c1.22.26,2.41.77,3.91,1.83,1.65,1.16,2.5,1.78,2.48,2.67-.01.47-.27,1.03-.72,1.24-.76.35-1.79-.47-3.33-1.7-.66-.52-1.09-.95-1.96-1.79-1.92-1.88-1.88-2.16-1.83-2.25.14-.26.88-.12,1.43,0Z"/>
      <path class="cls-2" d="M117.4,23.62c1.09-.72,2.89.21,3.72.65,3.5,1.87,5.83,5.48,5.36,5.97-.38.39-2.02-1.74-5.59-2.87-.81-.25-1.54-.68-3-1.53-.58-.34-1.11-.67-1.14-1.17-.03-.45.36-.85.65-1.04Z"/>
    </g>
  </g>
</svg>