<?xml version="1.0" encoding="UTF-8"?>
<svg id="Capa_2" data-name="Capa 2" xmlns="http://www.w3.org/2000/svg" viewBox="0 0 81.21 78.09">
  <defs>
    <style>
      .cls-1 {
        fill: #639648;
      }

      .cls-2 {
        fill: #94c67d;
      }

      .cls-3 {
        fill: #70a856;
      }

      .cls-4 {
        fill: #7bb662;
      }
    </style>
  </defs>
  <g id="Capa_1-2" data-name="Capa 1">
    <g>
      <g>
        <path class="cls-4" d="M80.71,14.59v48.91c0,7.78-6.3,14.09-14.08,14.09H14.58c-7.38,0-13.43-5.68-14.03-12.91-.03-.39-.05-.78-.05-1.18V14.59C.5,6.81,6.8.5,14.58.5h52.05c7.03,0,12.86,5.16,13.91,11.89.11.72.17,1.45.17,2.2Z"/>
        <path class="cls-1" d="M66.63,78.09H14.58c-7.52,0-13.91-5.87-14.53-13.37-.03-.41-.05-.81-.05-1.22V14.59C0,6.54,6.54,0,14.58,0h52.05c7.12,0,13.31,5.29,14.4,12.31.12.77.18,1.52.18,2.28v48.91c0,8.04-6.54,14.59-14.58,14.59ZM14.58,1C7.09,1,1,7.1,1,14.59v48.91c0,.39.02.76.05,1.14.58,6.98,6.52,12.45,13.53,12.45h52.05c7.49,0,13.58-6.1,13.58-13.59V14.59c0-.71-.05-1.4-.16-2.12-1.02-6.54-6.79-11.47-13.42-11.47H14.58Z"/>
      </g>
      <path class="cls-2" d="M22.51,6.46c-.71-1.22-3.37-.81-4.37-.65-1.21.19-2.28.67-4.43,1.63-2.69,1.2-3.15,1.68-3.46,2.15-.68,1.03-.75,2.2-.78,2.8-.05.88-.09,1.44.26,1.76.7.65,2.43-.17,3.59-.72,2.13-1.01,2.15-1.63,4.11-2.41,1.04-.41,1.32-.35,2.54-.91,1.95-.89,2.33-1.55,2.48-1.89.07-.16.46-1.07.07-1.76Z"/>
      <path class="cls-3" d="M80.71,14.59v48.91c0,7.78-6.3,14.09-14.08,14.09H14.58c-7.38,0-13.43-5.68-14.03-12.91,2.13,1.38,4.93,2.96,8.49,4.3,11.77,4.43,27.35,4.51,40.96-2.74,1.96-1.05,12.16-6.66,19.17-18.26,1.65-2.74,3.18-5.89,7.83-22.44,1.51-5.38,2.65-9.69,3.54-13.15.11.72.17,1.45.17,2.2Z"/>
    </g>
  </g>
</svg>