<?xml version="1.0" encoding="UTF-8"?>
<svg id="Capa_2" data-name="Capa 2" xmlns="http://www.w3.org/2000/svg" viewBox="0 0 79.48 84.61">
  <defs>
    <style>
      .cls-1 {
        fill: #898686;
      }

      .cls-2 {
        fill: #a3a2a2;
      }

      .cls-3 {
        fill: #c4c2c2;
      }

      .cls-4 {
        fill: #b0b0b0;
      }
    </style>
  </defs>
  <g id="Capa_1-2" data-name="Capa 1">
    <g>
      <g>
        <path class="cls-4" d="M68.41,66.83h-10.69c-.28,9.7-8.21,17.49-17.98,17.49s-17.71-7.79-17.99-17.49h-10.69c-4.19,0-7.77-2.38-9.55-5.79-.99-1.9-1.43-4.11-1.12-6.42L6.47,9.63C7.2,4.29,11.76.3,17.14.3h45.19c4.29,0,8.06,2.54,9.78,6.28.44.94.74,1.97.89,3.05l6.08,44.99c.88,6.46-4.15,12.21-10.67,12.21Z"/>
        <path class="cls-1" d="M39.74,84.61c-9.87,0-17.84-7.66-18.28-17.49h-10.4c-4.14,0-7.9-2.28-9.81-5.95-1.06-2.03-1.46-4.32-1.15-6.6L6.18,9.59C6.93,4.12,11.64,0,17.14,0h45.19c4.3,0,8.25,2.53,10.05,6.45.45.96.76,2.02.91,3.13l6.08,44.99c.43,3.16-.53,6.35-2.63,8.76-2.1,2.41-5.14,3.79-8.34,3.79h-10.4c-.43,9.83-8.4,17.49-18.27,17.49ZM17.14.59c-5.21,0-9.67,3.9-10.38,9.07L.69,54.66c-.29,2.16.09,4.32,1.09,6.24,1.81,3.47,5.37,5.63,9.29,5.63h10.98v.29c.29,9.65,8.06,17.2,17.7,17.2s17.41-7.56,17.68-17.2v-.29h10.99c3.03,0,5.9-1.31,7.89-3.59,1.99-2.28,2.89-5.3,2.49-8.29l-6.08-44.99c-.15-1.05-.44-2.05-.86-2.96-1.71-3.71-5.44-6.11-9.51-6.11H17.14Z"/>
      </g>
      <path class="cls-2" d="M68.41,66.83h-10.69c-.28,9.7-8.21,17.49-17.98,17.49s-17.71-7.79-17.99-17.49h-10.69c-4.19,0-7.77-2.38-9.55-5.79,1.53.86,3.49,1.63,6.01,1.89,6.46.67,10.46-2.67,14.67,0,1.75,1.11,1.21,1.78,3.82,3.91,3.26,2.67,6.72,3.76,8.71,4.21,4.45,1.02,7.83.29,11.44-.49,3.42-.73,4.74-1.57,5.68-2.54,1.08-1.12.75-2.56,2.05-3.82.8-.78,1.68-1.08,3.03-1.46,4.02-1.16,5.7-1.13,7.05-1.57,1.5-.49,3.76-1.95,6.06-8.61,3.18-9.23,2.76-17.86,2.64-20.64-.52-11.76-.9-20.41-.56-25.34.44.94.74,1.97.89,3.05l6.08,44.99c.88,6.46-4.15,12.21-10.67,12.21Z"/>
      <path class="cls-3" d="M20.73,2.86c-2.49-.12-3.6-.15-4.99.39-.7.27-2.9,1.25-5.18,5.18-3.29,5.66-3.78,12.33-2.84,12.62.7.21,1.5-3.34,5.09-7.24,2.77-3.01,5.77-4.55,7.92-5.67,6.33-3.3,10.94-3.45,10.86-4.26-.05-.49-3.65-.68-10.86-1.03Z"/>
    </g>
  </g>
</svg>