<?xml version="1.0" encoding="UTF-8"?>
<svg id="Capa_2" data-name="Capa 2" xmlns="http://www.w3.org/2000/svg" viewBox="0 0 34.33 34.33">
  <defs>
    <style>
      .cls-1 {
        fill: #639648;
      }

      .cls-2 {
        fill: #367710;
      }

      .cls-3 {
        fill: #56843c;
      }

      .cls-4 {
        fill: #70a856;
      }
    </style>
  </defs>
  <g id="Capa_1-2" data-name="Capa 1">
    <g>
      <g>
        <path class="cls-1" d="M33.96,17.17c0,9.27-7.52,16.79-16.8,16.79-6.78,0-12.62-4.02-15.27-9.8-.98-2.13-1.53-4.5-1.53-6.99C.37,7.89,7.89.37,17.16.37c6.97,0,12.94,4.24,15.49,10.28.84,2.01,1.31,4.21,1.31,6.52Z"/>
        <path class="cls-2" d="M17.16,34.33c-6.69,0-12.81-3.93-15.6-10.02-1.04-2.24-1.56-4.65-1.56-7.14C0,7.7,7.7,0,17.16,0c6.93,0,13.14,4.12,15.83,10.51.89,2.12,1.34,4.37,1.34,6.66,0,9.46-7.7,17.16-17.17,17.16ZM17.16.74C8.11.74.74,8.11.74,17.17c0,2.39.5,4.69,1.49,6.83,2.67,5.82,8.53,9.59,14.93,9.59,9.06,0,16.43-7.37,16.43-16.42,0-2.2-.43-4.34-1.28-6.38C29.73,4.69,23.79.74,17.16.74Z"/>
      </g>
      <path class="cls-3" d="M33.96,17.17c0,9.27-7.52,16.79-16.8,16.79-6.78,0-12.62-4.02-15.27-9.8,1.79,1,4.11,2.17,7.01,2.87,1.8.42,7.52,1.79,12.89-.95,3.62-1.85,5.49-4.76,7.28-7.64,1.73-2.77,2.83-5.46,3.57-7.78.84,2.01,1.31,4.21,1.31,6.52Z"/>
      <path class="cls-4" d="M17.75,2.02c-.63-.13-1.28-.13-1.93-.09-3.75.26-7.35,2.18-9.66,5.14-.45.58-1.85,2.48-.52,2.89.32.1.67.03,1-.07,2.71-.81,4.6-3.37,7.28-4.28,1.54-.52,3.26-.46,4.71-1.2.4-.2.8-.52.85-.97.05-.56-.47-1-.99-1.21-.24-.1-.48-.17-.73-.22Z"/>
      <path class="cls-4" d="M4.03,10.77c-.82.08-1.33,1-1.69,1.66-.7,1.29-1.55,3.69-.71,4.33.33.25.87.2,1.2,0,.31-.18.37-.45.86-2.09.28-.94.38-1.28.56-1.73.15-.36.32-.71.49-1.06.22-.43.32-.58.25-.75-.11-.28-.61-.4-.96-.36Z"/>
    </g>
  </g>
</svg>