<?xml version="1.0" encoding="UTF-8"?>
<svg id="Capa_2" data-name="Capa 2" xmlns="http://www.w3.org/2000/svg" viewBox="0 0 110.74 65.69">
  <defs>
    <style>
      .cls-1 {
        fill: #639648;
      }

      .cls-2 {
        fill: #94c67d;
      }

      .cls-3 {
        fill: #70a856;
      }

      .cls-4 {
        fill: #7bb662;
      }
    </style>
  </defs>
  <g id="Capa_1-2" data-name="Capa 1">
    <g>
      <g>
        <path class="cls-4" d="M110.2,39.09c0,13.97-11.32,25.29-25.29,25.29-5.6,0-10.76-1.82-14.95-4.89-3.74,3.51-8.76,5.67-14.29,5.67s-10.8-2.26-14.57-5.92c-4.24,3.22-9.54,5.14-15.28,5.14s-11.33-2.02-15.63-5.42C4.3,54.34.53,47.16.53,39.09.53,25.12,11.85,13.8,25.82,13.8c3.46,0,6.75.7,9.75,1.95C38.05,6.97,46.1.54,55.67.54s17.49,6.33,20.04,14.99c2.85-1.11,5.95-1.73,9.2-1.73,4.67,0,9.03,1.26,12.78,3.47,7.48,4.38,12.51,12.51,12.51,21.82Z"/>
        <path class="cls-1" d="M55.67,65.69c-5.45,0-10.62-2.04-14.61-5.76-4.45,3.26-9.7,4.98-15.24,4.98-5.86,0-11.38-1.91-15.96-5.54C3.6,54.46,0,47.06,0,39.09,0,24.85,11.58,13.26,25.82,13.26c3.24,0,6.4.59,9.41,1.77C38.01,6.15,46.33,0,55.67,0s17.54,6.07,20.38,14.82c7.16-2.61,15.38-1.87,21.91,1.98,7.88,4.61,12.77,13.15,12.77,22.28,0,14.24-11.58,25.82-25.83,25.82-5.38,0-10.53-1.64-14.91-4.74-3.95,3.56-9.02,5.52-14.33,5.52ZM41.15,58.53l.33.32c3.83,3.72,8.87,5.77,14.2,5.77s10.13-1.96,13.92-5.53l.32-.3.36.26c4.27,3.13,9.33,4.79,14.63,4.79,13.65,0,24.75-11.1,24.75-24.75,0-8.75-4.69-16.94-12.25-21.36-6.41-3.78-14.52-4.43-21.51-1.7l-.54.21-.17-.56c-2.53-8.6-10.56-14.61-19.53-14.61s-17.12,6.09-19.59,14.82l-.16.58-.56-.23c-3.04-1.27-6.25-1.91-9.54-1.91C12.17,14.33,1.07,25.44,1.07,39.09c0,7.65,3.45,14.74,9.45,19.45,4.39,3.47,9.68,5.31,15.3,5.31s10.62-1.74,14.96-5.03l.37-.28Z"/>
      </g>
      <path class="cls-3" d="M110.2,39.09c0,13.97-11.32,25.29-25.29,25.29-5.6,0-10.76-1.82-14.95-4.89-3.74,3.51-8.76,5.67-14.29,5.67s-10.8-2.26-14.57-5.92c-4.24,3.22-9.54,5.14-15.28,5.14s-11.33-2.02-15.63-5.42c2.41.63,4.55,1.01,6.31,1.25,7.7,1.04,11.55,1.55,15.65-.49,3.55-1.77,5.44-4.47,9.4-4.3,1.72.07,1.74.6,5.08,1.27,1.54.31,4.58.89,8.42.58,3.76-.3,6.18-.49,8.31-2.25,1.79-1.47,1.96-2.88,3.72-3.47,2.07-.69,4.14.51,4.99.93,5.73,2.89,15,1,19.27-1.14,6.93-3.48,10.54-12.57,10.68-19.76.1-5.33-1.71-10.12-4.33-14.31,7.48,4.38,12.51,12.51,12.51,21.82Z"/>
      <path class="cls-2" d="M9.12,24.45c.59-.79,2.07-2.62,4.6-4.3,2.53-1.69,4.71-2.29,6.85-2.88.99-.27,2.93-.76,5.23-.35,1.25.22,1.6.53,1.71.83.29.79-.89,1.95-1.71,2.54-1.35.98-2.39.88-4.94,1.52-1.4.35-2.35.69-3.96,1.27-2.2.79-3.87,1.4-5.77,2.54-2.55,1.54-3.66,2.94-3.96,2.69-.34-.29.81-2.34,1.96-3.86Z"/>
      <path class="cls-2" d="M46.2,5.52c.58-.5,2.68-2.21,6.07-2.93,1.97-.42,4.59-.56,4.74,0,.13.48-1.56,1.32-1.64,1.36-1.53.75-11.28,5.12-11.67,4.66-.24-.28,1.16-1.94,2.49-3.08Z"/>
    </g>
  </g>
</svg>