<?xml version="1.0" encoding="UTF-8"?>
<svg id="Capa_2" data-name="Capa 2" xmlns="http://www.w3.org/2000/svg" viewBox="0 0 147.98 295.17">
  <defs>
    <style>
      .cls-1 {
        fill: #70569b;
      }

      .cls-2 {
        fill: #9570c2;
      }

      .cls-3 {
        fill: #a486ce;
      }

      .cls-4 {
        fill: #8566b2;
      }
    </style>
  </defs>
  <g id="Capa_1-2" data-name="Capa 1">
    <g>
      <g>
        <path class="cls-2" d="M135.04,74.37c-10.14,9.78-25.79.7-39.93,1.34v155.57c8.55,6.42,14.08,16.65,14.08,28.17,0,19.45-15.76,35.22-35.21,35.22s-35.22-15.77-35.22-35.22c0-7.49,2.34-14.43,6.33-20.14,2.14-3.07,4.76-5.78,7.75-8.03V75.71c-14.14-.64-29.79,8.44-39.93-1.34C-5.36,56.76-5.67.99,27.31.5c5.93-.09,12.13,1.64,16.29,5.87,4.08,4.16,5.67,10.06,7.67,15.53,1.99,5.47,4.96,11.18,10.31,13.47,3.14,1.34,8.86,1.44,12.4,3.13,3.53-1.69,9.25-1.79,12.39-3.13,5.35-2.29,8.32-8,10.31-13.47,2-5.47,3.59-11.37,7.67-15.53,4.16-4.23,10.36-5.96,16.29-5.87,7.87.12,13.84,3.38,18.13,8.52,13.68,16.4,10.18,51.94-3.73,65.35Z"/>
        <path class="cls-1" d="M73.98,295.17c-19.7,0-35.72-16.02-35.72-35.72,0-7.35,2.22-14.42,6.42-20.43,2.12-3.04,4.7-5.73,7.66-7.99V76.19c-4.68-.13-9.59.77-14.34,1.65-9.58,1.78-18.62,3.46-25.44-3.11C.62,63.22-3.7,36.09,3.52,17.83,6.68,9.81,13.38.21,27.3,0c6.7-.09,12.79,2.09,16.65,6.02,3.53,3.6,5.24,8.47,6.88,13.18.3.85.59,1.69.9,2.53,1.64,4.52,4.47,10.8,10.04,13.18,1.4.6,3.35.94,5.43,1.31,2.38.42,4.84.86,6.78,1.73,1.93-.87,4.39-1.31,6.77-1.73,2.07-.37,4.02-.71,5.42-1.31,5.56-2.38,8.39-8.66,10.04-13.18.31-.84.6-1.68.9-2.53,1.65-4.71,3.35-9.58,6.88-13.18,3.78-3.84,9.67-6.02,16.21-6.02.15,0,.3,0,.45,0,7.56.12,13.78,3.04,18.51,8.7,14.31,17.16,9.87,52.88-3.77,66.03-6.81,6.57-15.86,4.89-25.44,3.11-4.75-.88-9.65-1.79-14.34-1.65v154.84c8.95,6.82,14.08,17.16,14.08,28.42,0,19.7-16.02,35.72-35.71,35.72ZM51.37,75.18c.5,0,1,.01,1.5.03l.48.02v156.3l-.2.15c-2.96,2.23-5.53,4.89-7.64,7.92-4.08,5.84-6.24,12.71-6.24,19.85,0,19.15,15.58,34.72,34.72,34.72s34.71-15.58,34.71-34.72c0-11.02-5.06-21.15-13.88-27.77l-.2-.15V75.24l.48-.02c4.95-.22,10.08.73,15.05,1.65,9.31,1.73,18.11,3.36,24.56-2.85h0c13.36-12.88,17.71-47.87,3.69-64.67-4.53-5.42-10.5-8.23-17.75-8.34-6.46-.11-12.25,1.99-15.93,5.72-3.38,3.44-5.04,8.2-6.65,12.81-.3.85-.6,1.7-.9,2.54-1.71,4.69-4.66,11.22-10.58,13.76-1.5.64-3.51,1-5.64,1.37-2.41.43-4.89.87-6.73,1.75l-.22.1-.22-.1c-1.84-.88-4.33-1.32-6.74-1.75-2.13-.38-4.14-.73-5.64-1.37-5.92-2.53-8.88-9.07-10.58-13.76-.31-.84-.6-1.69-.9-2.54-1.61-4.6-3.28-9.37-6.65-12.81-3.67-3.73-9.47-5.83-15.92-5.72C13.95,1.2,7.5,10.46,4.44,18.2c-7.08,17.94-2.88,44.54,8.81,55.82,6.45,6.22,15.25,4.58,24.56,2.85,4.46-.83,9.07-1.68,13.55-1.68Z"/>
      </g>
      <path class="cls-4" d="M135.04,74.37c-10.14,9.78-25.79.7-39.93,1.34v155.57c8.55,6.42,14.08,16.65,14.08,28.17,0,19.45-15.76,35.22-35.21,35.22s-35.22-15.77-35.22-35.22c0-7.49,2.34-14.43,6.33-20.14-.65,4.01-.96,9.69,1.1,15.84.91,2.71,4.05,12.08,13.31,16.04,7.46,3.19,14.5.99,17.02.2,3.63-1.14,9-2.83,11.93-8.02,2.73-4.85,2.55-11.34,0-15.85-2.29-4.09-5.37-4.52-6.65-9-.81-2.84-.25-5.04.2-7.63,1.01-5.85.38-11.87.64-17.81,3.15-73.07,4.71-109.6,3.07-124.11-.84-7.53,1.26-15.11,1.57-22.69.07-1.86.16-4.45,1.83-5.48,3.03-1.88,7.6,3.67,15.13,5.22,7.28,1.5,13.61-1.51,15.39-2.35,13.52-6.41,16.35-25.81,18-37.04.96-6.59,1.21-12.56,1.14-17.61,13.68,16.4,10.18,51.94-3.73,65.35Z"/>
      <path class="cls-3" d="M9.75,15.63c.86-6.27,5.21-9.04,5.21-9.04,2.96-1.89,7.63-2.91,9.99-.89.76.65,1.59,1.88,1.26,2.79-.08.22-.32.68-2.92,1.49-2.22.69-2.49.5-3.88,1.06-1.23.49-2.08,1.08-3.14,1.8-1.2.82-1.79,1.23-2.36,1.92-.45.55-.63.94-1.34,1.66-.74.75-1.21,1-1.7,1.02-.15,0-.53.02-.82-.23-.47-.4-.35-1.24-.31-1.57Z"/>
      <path class="cls-3" d="M6.47,36.51c-.49.02-1.22-2.44-1.27-4.95-.08-4.23,1.78-7.97,3.77-8.84.24-.1.93-.4,1.35-.1.45.33.34,1.19.27,1.7-.15,1.05-.51,1.56-1.13,2.87-.37.77-.86,1.79-1.25,3.04-.28.91-.23,1.05-.61,2.67-.55,2.4-.82,3.6-1.14,3.61Z"/>
    </g>
  </g>
</svg>