<?xml version="1.0" encoding="UTF-8"?>
<svg id="Capa_2" xmlns="http://www.w3.org/2000/svg" viewBox="0 0 1773.9415 410.168">
  <defs>
    <style>
      .cls-1 {
        fill: #70569b;
      }

      .cls-2 {
        fill: #a486ce;
      }
    </style>
  </defs>
  <g id="Capa_1-2" data-name="Capa_1">
    <g>
      <g>
        <path class="cls-2" d="M1026.1963,407.6682c-22.6953,0-47.1533-2.5718-76.9727-8.0933-13.9111-2.5691-28.0117-5.5549-41.6475-8.4424-37.2871-7.8958-75.8428-16.0605-114.2715-16.4622-1.002-.0103-2.0146-.0151-3.0176-.0151-32.7285,0-66.2969,5.4277-98.7598,10.6768-32.29,5.2209-65.6797,10.6199-98.0742,10.6216-25.6162.0015-48.251-3.3447-69.1982-10.2297-61.4102-20.1902-108.6602-71.4502-154.3555-121.0222-25.3408-27.4917-51.5449-55.9194-79.9707-78.9207-59.0928-47.7898-131.832-74.325-204.8174-74.717-2.5322-.0137-4.7656-1.4673-5.9736-3.8884-1.3105-2.6238-1.0547-5.8008.6514-8.0942.0156-.022.0381-.0503.0605-.0784l-.001-.0002c2.4375-3.1121,5.249-5.8945,8.3574-8.2695,4.624-3.5405,9.9512-5.3064,14.5518-6.5667,2.083-.5813,4.166-1.0964,5.9277-1.5232,3.293-.8315,6.7871-1.5239,10.3613-2.052,5.6055-.8257,11.4336-1.2439,17.3232-1.2439,5.9746,0,12.1416.4299,18.3281,1.2786,27.3838,3.748,56.5498,15.3833,89.1631,35.5703,50.8965,31.5276,101.4189,75.1238,158.998,137.2002,3.1895,3.4399,6.3779,6.9055,9.5723,10.3779,31.417,34.1489,63.9033,69.4604,104.4541,86.8965,21.3145,9.1682,45.0752,13.625,72.6416,13.625,28.5527,0,58.3916-4.7483,87.248-9.3401,29.4502-4.6863,59.9023-9.5322,89.6553-9.5322,2.335,0,4.6719.03,6.9463.0891,33.6777.8735,67.2695,8.543,99.7539,15.9597,34.1191,7.79,69.3994,15.8452,104.4014,15.8452,4.2461,0,8.4785-.1187,12.5801-.353,14.876-.8459,29.9775-3.3281,44.582-5.7285,18.2217-2.9949,37.0654-6.092,55.8174-6.092h.001c1.5566,0,3.1104.021,4.6689.0647,6.1865.1782,13.4658,3.5029,17.7021,8.0845,4.4307,4.8013,5.0605,10.4204,1.6865,15.0334-1.9531,2.6826-4.7598,3.9563-7.4678,5.0308-24.1006,9.6289-50.5664,14.3108-80.9062,14.3108Z"/>
        <path class="cls-1" d="M136.3696,81.8472c6.0137,0,12.0278.438,17.989,1.2559,31.2024,4.271,60.8552,18.3013,88.1875,35.2192,58.4712,36.2197,110.2439,84.77,158.48,136.7744,34.9463,37.6865,69.7117,78.4531,114.8721,97.8711,23.8367,10.2529,48.4995,13.8281,73.6282,13.8281,57.7673,0,118.0647-18.8721,176.9036-18.8721,2.2974,0,4.5889.0288,6.8816.0884,68.8623,1.7852,135.6475,31.8057,204.2207,31.8057,4.2349,0,8.4729-.1143,12.7224-.3569,33.5632-1.9092,66.7046-11.8164,100.2563-11.8164,1.5334,0,3.0652.0205,4.6003.0635,5.5315.1592,12.1121,3.146,15.9375,7.2827,3.2212,3.4912,4.4814,7.7891,1.5039,11.8604-1.585,2.1763-4.0383,3.2563-6.3716,4.1826-25.7288,10.2793-52.7356,14.1343-79.9858,14.1343-25.5674,0-51.3484-3.3911-76.5168-8.0513-51.9944-9.6021-103.5854-24.3945-156.3479-24.9463-1.011-.0103-2.0322-.0151-3.0439-.0156-65.6069-.002-132.199,21.2988-196.8345,21.2988-23.105,0-45.9446-2.7183-68.4172-10.1045-94.5579-31.0889-153.5317-134.7759-233.5344-199.5117-59.6733-48.2593-132.8132-74.8779-206.375-75.2734-3.615-.0195-5.668-4.8472-3.3303-7.9912.0076-.0098.0149-.0195.0217-.0283,2.323-2.9658,5.0056-5.6079,7.9067-7.8247,4.0806-3.1245,8.8582-4.8174,13.6943-6.1421,1.9534-.5449,3.9282-1.0376,5.8562-1.5044,3.3462-.8452,6.7329-1.5054,10.1384-2.0088,5.6204-.8276,11.2886-1.2173,16.957-1.2173M136.3696,76.8472c-6.012,0-11.9622.4277-17.6855,1.2705-3.665.542-7.2419,1.251-10.6345,2.1079-1.7266.418-3.8303.9375-5.9749,1.5356-4.8113,1.3179-10.4229,3.1846-15.3909,6.9888-3.2708,2.499-6.2339,5.4307-8.8032,8.7114-.0149.019-.0408.0522-.0552.0718-.0234.0298-.02.0259-.0427.0562-2.2974,3.0898-2.635,7.1904-.8821,10.7026,1.614,3.2334,4.7554,5.2534,8.1978,5.272,72.4197.3892,144.6047,26.7271,203.2581,74.1611,28.2832,22.8862,54.4248,51.2456,79.7056,78.6719,22.8796,24.8213,46.5381,50.4868,71.6873,71.9727,28.428,24.2866,55.8142,40.5532,83.7239,49.7295,21.1997,6.9678,44.0898,10.355,69.979,10.355,32.5972,0,66.0889-5.4165,98.4775-10.6543,32.3647-5.2339,65.8311-10.646,98.3569-10.645.9949,0,1.999.0054,2.9932.0156,38.1799.3989,76.614,8.5381,113.7827,16.4087,13.6501,2.8906,27.7651,5.8799,41.708,8.4546,29.9707,5.5493,54.5737,8.1343,77.4248,8.1343,30.6641,0,57.4343-4.7402,81.8408-14.4912,2.9038-1.1528,6.2092-2.6567,8.5583-5.8823,4.1277-5.644,3.4307-12.4487-1.8708-18.1943-4.7351-5.1201-12.5574-8.6914-19.4685-8.8901-1.5596-.0435-3.1543-.0654-4.7441-.0654-18.9573,0-37.9019,3.1138-56.2224,6.125-14.54,2.3896-29.5752,4.8608-44.3179,5.6992-4.0566.2319-8.2412.3491-12.4385.3491-34.72,0-69.8604-8.0234-103.8435-15.7822-32.6047-7.4443-66.3196-15.1421-100.2478-16.022-2.2954-.0596-4.6545-.0898-7.011-.0898-29.95,0-60.502,4.8618-90.0481,9.563-28.7603,4.5767-58.4998,9.3091-86.8555,9.3091-27.219,0-50.6567-4.3901-71.6526-13.4214-40.0603-17.2251-72.3625-52.3364-103.6016-86.292-3.197-3.4751-6.3877-6.9429-9.5798-10.3853-57.7349-62.2456-108.4211-105.9766-159.5132-137.6255-32.9182-20.3755-62.4036-32.1255-90.1423-35.9229-6.2974-.8633-12.5784-1.3018-18.6672-1.3018h0Z"/>
      </g>
      <g>
        <path class="cls-2" d="M1028.458,288.3325c-4.6074,0-9.292-.0999-13.9238-.2969-90.1016-3.804-152.9092-43.6218-176.5537-58.6113-14.0322-8.927-62.7207-42.4993-100.2041-99.791-28.5537-43.6702-25.1504-62.4578-20.5811-69.7703,4.376-7.0837,12.7148-12.2332,19.8203-12.2332,1.2783,0,2.5205.1587,3.6953.4712.8711.2361,1.6396.5291,2.3594.8987,7.8154,3.8096,9.9785,14.8557,12.7188,28.8408,1.5859,8.1016,3.3848,17.2842,6.5596,26.6721,13.1797,39.0535,42.8486,61.6121,80.4111,90.1721,12.2217,9.2957,34.9688,26.5984,68.8525,40.5532,34.1543,14.0647,70.9004,21.196,109.2178,21.196,23.416,0,47.248-2.7522,68.918-7.9595,29.7461-7.1619,46.4121-16.2944,74.0225-31.4248,7.8389-4.2957,16.7236-9.1646,26.9639-14.5576,11.8662-6.2288,119.2324-61.7625,234.4092-93.7004,57.2207-15.8706,108.8496-23.9177,153.4531-23.9177,62.4404,0,95.4531,16.4231,100.9258,23.915,2.2529,3.0845,4.0996,6.6492,5.4902,10.5959,1.2451,3.4343,1.6582,5.9114,1.6748,6.0151.2051,1.2693,1.8828,12.5125-1.8809,18.1204-2.2285,3.293-6.2959,4.8901-12.4424,4.8901-11.085,0-28.0713-5.333-44.498-10.4907-7.8564-2.4666-15.9795-5.0171-23.127-6.8679-11.3701-2.937-22.8398-4.3052-36.0947-4.3052-22.7959,0-49.502,3.9402-89.9248,9.9045-102.3086,15.092-172.7373,48.5288-175.6855,49.9448-24.9482,12.0295-40.7822,22.1396-56.0947,31.917-19.2461,12.2886-37.4248,23.896-70.8652,37.1582-32.7939,13.0054-82.3516,32.6594-147.6162,32.6611Z"/>
        <path class="cls-1" d="M737.0151,50.1299c1.0415,0,2.064.124,3.0522.3872.6484.1753,1.2693.4028,1.8618.707,10.8286,5.2793,9.498,28.7969,18.051,54.0894,13.418,39.7598,44.1699,63.1553,81.2671,91.3613,13.2527,10.0811,35.9011,27.0732,69.4131,40.875,40.1956,16.5527,78.7207,21.3843,110.1687,21.3843,33.1191,0,58.3892-5.3579,69.5029-8.0288,38.7004-9.3174,55.7209-22.0566,101.5674-46.2012,10.6714-5.6016,117.6616-61.2676,233.9124-93.5034,64.3608-17.8511,114.6467-23.8257,152.7844-23.8271,65.2451-.002,94.9556,17.48,98.9082,22.8901,2.5151,3.4448,4.1362,7.0737,5.1514,9.9521,1.1865,3.2764,1.5645,5.5879,1.5645,5.5879.7544,4.6753,1.0239,12.5786-1.4893,16.3232-1.8203,2.6909-5.4736,3.7837-10.3667,3.7837-15.9512,0-45.0938-11.6064-66.998-17.2788-11.8394-3.0581-23.5581-4.3848-36.7217-4.3848-22.9321-.0005-50.2566,4.0244-90.2905,9.9312-94.3108,13.9121-162.5369,43.5044-176.4019,50.1641-56.9487,27.4595-67.428,45.459-126.7998,69.0049-34.8733,13.8306-83.3494,32.4854-146.6931,32.4854-4.5322,0-9.1335-.0957-13.8186-.2949-87.634-3.6992-149.0547-41.5728-175.321-58.2251-8.6521-5.5039-60.0347-38.8008-99.4514-99.0479-30.9766-47.3765-22.9922-63.1729-20.553-67.0767,3.7434-6.0586,11.0867-11.0581,17.7-11.0581M737.0151,45.1299c-8.0405,0-17.0681,5.5229-21.9536,13.4302-5.9543,9.5293-7.2231,29.854,20.6218,72.4409,37.7583,57.7124,86.8162,91.5376,100.9526,100.5303,23.8049,15.0918,87.022,55.1704,177.7937,59.002,4.6633.1987,9.3843.2993,14.0295.2993,65.7383,0,115.5649-19.7612,148.5366-32.8374,33.6633-13.3506,51.9399-25.0205,71.2898-37.3755,15.251-9.7378,31.021-19.8071,55.8381-31.7734,2.9272-1.4062,73.0237-34.6846,174.96-49.7212,40.3154-5.9487,66.9495-9.8784,89.5608-9.8779,13.0386,0,24.3101,1.3428,35.4712,4.2261,7.082,1.834,15.1748,4.3745,23.0005,6.8315,16.6069,5.2144,33.7793,10.606,45.248,10.606,6.9414,0,11.8228-2.0127,14.5078-5.9819,4.2197-6.2871,2.6431-17.6978,2.2842-19.9214-.0479-.2939-.4922-2.8848-1.7993-6.4941-1.459-4.1372-3.4199-7.9185-5.8145-11.1978-5.9458-8.1387-38.9292-24.9419-102.936-24.9419-44.8438.0015-96.6973,8.0796-154.1311,24.0088-115.4329,32.0093-223.0129,87.6548-234.8997,93.8945-10.2654,5.4062-19.1602,10.2803-27.0076,14.5811-27.428,15.0303-43.9834,24.1025-73.4065,31.1865-21.4792,5.1611-45.1089,7.8896-68.3325,7.8896-37.9885,0-74.4138-7.0679-108.2649-21.0078-33.5847-13.8315-56.1609-31.0049-68.2896-40.231-37.2229-28.3013-66.623-50.6553-79.5569-88.9805-3.1226-9.2339-4.9041-18.3301-6.4761-26.3555-2.8677-14.6392-5.1335-26.208-14.0706-30.6045-.8677-.4419-1.7837-.79-2.7988-1.0645-1.4021-.3735-2.8618-.5605-4.3572-.5605h0Z"/>
      </g>
      <g>
        <path class="cls-2" d="M1366.041,197.4919c-23.9219,0-48.3799-2.1262-72.6924-6.3198-44.0723-7.5828-77.9629-20.8318-103.6064-40.5037-14.8291-11.3855-27.5381-25.4177-39.8291-38.988-8.3193-9.1851-16.9209-18.6829-26.0635-27.2183-22.9629-21.4426-47.96-33.2515-70.3848-33.2515-3.7607,0-7.5146.3252-11.1572.967-20,3.5222-36.0771,15.896-53.0996,28.9961-10.541,8.113-21.4424,16.5022-33.3633,22.5867-14.8086,7.5508-31.6416,11.542-48.6797,11.5422-12.0898,0-23.8701-1.9736-35.0117-5.8662-20.501-7.1562-38.2178-20.3792-55.3516-33.1667-17.333-12.9368-35.2559-26.3142-55.7695-33.0254-9.2852-3.0396-19.1377-4.5808-29.2822-4.5808-30.4521,0-59.5928,13.5405-77.9531,36.2207-.7539.9316-1.4971,1.8816-2.2412,2.8333-3.6572,4.678-7.4395,9.5146-12.8223,12.5925-2.8877,1.6599-6.3506,2.5754-9.748,2.5754-4.2041,0-7.9355-1.3928-10.5176-3.9238-.5947-.5439-1.1396-1.207-1.7119-2.0811-3.8037-5.9331-2.3037-14.0728,4.2119-22.9397,9.2656-12.6121,19.4795-21.978,31.2256-28.6331,10.5078-5.9546,22.9102-10.7202,39.0303-14.998,18.6963-4.9619,35.1162-7.4724,50.2002-7.6746.665-.0088,1.333-.0134,2-.0134,24.542,0,47.2842,5.8784,65.7676,16.9998,11.1357,6.6956,20.9561,15.7542,30.4521,24.5144,14.8955,13.7405,28.9639,26.7185,47.5479,31.1897,4.418,1.0627,9.042,1.6018,13.7422,1.6018,18.4043,0,38.8516-8.0264,62.5098-24.5374,4.376-3.0491,8.8047-6.2781,13.0879-9.4006,18.4893-13.4802,37.6074-27.4192,60.1807-32.844,6.75-1.6201,13.7598-2.4419,20.834-2.4419,34.1934,0,70.7246,19.1526,97.7227,51.2327,5.6377,6.7117,10.9033,13.8904,15.9961,20.8325,9.0029,12.2722,18.3115,24.9622,29.7646,35.1077,31.3018,27.7522,76.8174,35.1736,113.3896,41.1365,27.0283,4.4121,51.3721,8.0645,75.5986,8.0645,19.0889,0,35.7432-2.3154,50.9131-7.0784,2.4092-.7346,4.8799-1.585,7.5732-2.606l1.3945-.5386c4.6006-1.7837,9.3574-3.6279,14.3867-3.6279,1.2754,0,2.5283.1233,3.7236.3667,6.4932,1.3257,11.6191,7.9197,10.7559,13.8347-.1895,1.3738-.7119,2.6887-1.5518,3.8892-2.2109,3.1646-5.8213,4.4131-9.3311,5.4204-32.1602,9.1274-66.4219,13.7544-101.8408,13.7544Z"/>
        <path class="cls-1" d="M743.4238,15.1221c22.2957,0,45.2798,5.0898,64.4788,16.6416,27.8582,16.75,47.1047,48.3896,78.7034,55.9927,4.7651,1.146,9.5518,1.6709,14.3276,1.6709,22.5747,0,44.9358-11.7241,63.9402-24.9868,23.0244-16.0435,45.1218-35.3032,72.4224-41.8638,6.7244-1.6143,13.5027-2.3726,20.25-2.3726,36.2842,0,71.8718,21.8984,95.8093,50.3423,15.5967,18.5669,27.8652,40.123,46.0171,56.2017,30.8728,27.3726,73.9456,35.0967,114.644,41.7324,24.9802,4.0776,50.7412,8.0967,76.002,8.0967,17.6052,0,34.9636-1.9502,51.6611-7.1929,2.5847-.7881,5.1465-1.6816,7.7104-2.6533,4.8179-1.8452,9.8411-4.0044,14.894-4.0044,1.0747,0,2.1499.0977,3.2256.3164,5.0684,1.0352,9.4648,6.3379,8.7808,11.0239-.1321.9639-.4998,1.9209-1.1267,2.8174-1.7725,2.5371-4.9924,3.5952-7.9714,4.4507-32.8518,9.3232-66.9773,13.6572-101.1519,13.6572-24.2048,0-48.4292-2.1719-72.2666-6.2837-36.5-6.2798-73.1194-17.4775-102.5103-40.0234-24.6582-18.9326-42.9973-44.8472-65.7078-66.0503-19.8589-18.5439-45.5156-33.9238-72.0911-33.9243-3.8496,0-7.717.3223-11.5903,1.0049-33.5566,5.9097-56.8118,36.3262-87.167,51.8184-14.6499,7.4702-31.0996,11.269-47.5425,11.269-11.6108,0-23.2173-1.8936-34.1873-5.7261-40.8972-14.2759-69.9866-52.7349-111.1682-66.2085-9.7109-3.1787-19.8787-4.7041-30.0596-4.7046-30.3057-.001-60.7612,13.5103-79.8962,37.1479-4.3645,5.3906-8.3545,11.3936-14.3621,14.8286-2.5225,1.4502-5.5579,2.2456-8.5063,2.2456-3.3289,0-6.5476-1.0132-8.7986-3.2407-.5098-.459-.938-1.0205-1.3386-1.6333-3.9282-6.1265-.1926-14.2017,4.134-20.0908,8.3579-11.3755,18.1135-20.9521,30.4431-27.938,11.989-6.793,25.1667-11.2344,38.4397-14.7568,16.2051-4.3008,32.8279-7.3662,49.5923-7.5908.6543-.0088,1.3108-.0132,1.9666-.0132M743.4238,10.1221c-.6782,0-1.3572.0044-2.0339.0137-15.291.2046-31.9104,2.7422-50.8074,7.7578-16.3318,4.334-28.9219,9.1763-39.6221,15.2393-12.0581,6.832-22.5278,16.4248-32.0076,29.3276-7.1707,9.7603-8.7026,18.9053-4.314,25.75.7026,1.0747,1.3687,1.8828,2.1104,2.5664,3.0498,2.9727,7.3904,4.6084,12.2361,4.6084,3.8274,0,7.7332-1.0332,10.9983-2.9102,5.7991-3.3159,9.7349-8.3491,13.5408-13.2163.7356-.9409,1.4697-1.8804,2.2153-2.8013,17.8916-22.1011,46.3064-35.2954,76.01-35.2939,9.8816.0005,19.4719,1.5,28.5044,4.4565,20.1243,6.584,37.0901,19.2466,55.052,32.6528,17.2849,12.9009,35.1584,26.2412,56.0237,33.5244,11.4058,3.9849,23.4629,6.0054,35.8352,6.0054,17.4304,0,34.6558-4.0854,49.8137-11.8145,12.1289-6.1904,23.1228-14.6514,33.7546-22.8335,16.7717-12.9077,32.613-25.0996,52.0083-28.5151,3.5-.6167,7.1077-.9292,10.7229-.9292,21.79.0005,46.1807,11.5703,68.6787,32.5786,9.0659,8.4644,17.6326,17.9229,25.9172,27.0698,12.365,13.6523,25.1514,27.77,40.1582,39.292,25.9756,19.9263,60.2253,33.332,104.7075,40.9854,24.4502,4.2173,49.05,6.356,73.1143,6.356,35.6494,0,70.1411-4.6587,102.5168-13.8472,2.927-.8403,7.801-2.2402,10.7053-6.397,1.0691-1.5288,1.7363-3.2124,1.9814-5.0024,1.0544-7.2222-4.8931-15-12.7339-16.6016-1.3623-.2773-2.7832-.4175-4.2258-.4175-5.4973,0-10.7002,2.0176-15.2908,3.7974-.4658.1807-.9297.3608-1.3921.5376-2.625.9951-5.0444,1.8281-7.3801,2.54-14.9634,4.6978-31.3721,6.9756-50.2029,6.9756-24.0369,0-48.2761-3.6372-75.1965-8.0312-36.2546-5.9111-81.3738-13.2681-112.1323-40.5391-11.2554-9.9697-20.0735-21.9907-29.4094-34.7168-5.1165-6.9746-10.4072-14.187-16.0962-20.9595-12.7383-15.1362-28.1921-27.9307-44.6943-37.0034-17.9954-9.8936-36.9946-15.1235-54.9436-15.1235-7.2708,0-14.4766.8452-21.417,2.5112-23.0598,5.5415-42.3835,19.6299-61.071,33.2544-4.2725,3.1152-8.6904,6.3359-13.0427,9.3687-23.2278,16.2104-43.207,24.0894-61.0818,24.0894-4.5034,0-8.9307-.5156-13.1584-1.5322-17.9504-4.3188-31.7869-17.083-46.4358-30.5962-9.5894-8.8457-19.5049-17.9927-30.8604-24.8203-18.8706-11.3545-42.0583-17.3564-67.0552-17.3564h0Z"/>
      </g>
      <g>
        <path class="cls-2" d="M1133.6914,406.6052c-3.0195,0-12.207,0-16.4502-6.1177-2.0898-3.0505-2.6465-7.1782-1.6182-11.948,1.209-5.6479,4.1006-10.4404,5.2881-12.2385,2.6064-3.9832,7.5215-9.6013,16.0996-13.699l.1016-.0483c22.7559-10.7881,71.2383-45.1001,95.4316-74.3208,16.04-19.3933,22.7783-38.0029,29.9121-57.7053,6.4834-17.96,8.1865-29.3071,9.9893-41.3201,1.6523-11.0137,3.3604-22.4023,8.6768-39.8755,5.9023-19.4517,14.8223-48.8501,35.291-74.4971,24.5391-30.8022,54.9766-42.9265,84.4121-54.6514,31.6201-12.5605,57.4385-17.6836,89.1182-17.6836,14.0381,0,28.0283.9492,44.2275,2.0483,19.7676,1.3411,42.1719,2.8613,69.5566,2.8613,12.5059,0,24.835-.3081,37.6934-.9419l.4531-.0222c2.4717-.1228,5.8584-.291,9.5488-.291,17.7607,0,28.5332,3.9204,32.9326,11.9854.9365,1.7434,1.5605,3.5801,1.8652,5.4741,1.2588,6.8884-1.0479,15.0591-5.8867,20.7627-5.29,6.1985-13.2363,9.0825-25.0107,9.0825-10.8164,0-23.7324-2.4663-37.4072-5.0771-3.792-.7241-7.6572-1.4622-11.5684-2.1655-.4951-.0886-50.2529-8.895-100.9277-8.895-6.2051,0-12.2568.1326-17.9854.3943-47.5254,2.1577-86.2646,15.9062-118.4326,42.0317-7.3486,5.9619-29.709,24.1021-44.9092,54.6213-6.6895,13.4126-8.3398,21.8159-11.3359,37.0715-2.0371,10.3711-4.8271,24.575-10.332,45.7124-9.6152,36.8975-14.4404,55.4175-24.3135,74.0195-15.1777,28.5403-32.9111,44.8457-59.7549,69.5273-8.3027,7.6143-51.2256,45.4858-83.8262,45.9016l-.8389.0039Z"/>
        <path class="cls-1" d="M1489.9441,5c31.4409,0,64.3962,4.9097,113.7834,4.9097,11.6333,0,24.1636-.272,37.8164-.9448,2.5601-.1265,6.0273-.3105,9.8794-.3105,11.2358-.0005,25.7632,1.564,30.7378,10.6826.769,1.4341,1.3247,3.0186,1.5908,4.6733,1.1519,6.3081-1.1021,13.7725-5.3242,18.749-5.188,6.0786-13.2158,8.2002-23.1055,8.2002-13.5249,0-30.5332-3.9668-48.5322-7.2031,0,0-49.8706-8.9346-101.3726-8.9351-6.0371,0-12.0925.1226-18.0967.397-27.4875,1.248-76.1526,7.063-119.8953,42.5889-8.8071,7.145-30.4482,25.0845-45.571,55.4473-11.5425,23.145-8.3865,31.5762-21.8486,83.2681-9.5815,36.7705-14.3721,55.1431-24.1028,73.4775-14.9812,28.1709-32.3831,44.167-59.2651,68.8838-5.666,5.1963-49.4216,44.8003-82.1401,45.2178-.2483.002-.5188.0039-.8071.0039-3.877,0-11.1238-.3252-14.3945-5.0425-1.8816-2.7471-2.0132-6.3594-1.2285-9.9966.9062-4.2354,3.0156-8.4888,4.9292-11.3877,5.4421-8.3145,13.3916-12.0068,15.1943-12.8701,22.9807-10.8945,71.7109-45.3091,96.2783-74.9814,16.3064-19.7139,23.2644-38.9131,30.3369-58.4482,12.3865-34.3105,7.5029-44.4907,18.7073-81.3193,5.9216-19.5161,14.7012-48.4146,34.8535-73.665,23.6797-29.7241,53.0212-41.7944,83.3831-53.8882,34.7603-13.8081,60.9141-17.5063,88.1938-17.5063M1489.9441,0c-31.5981,0-58.5259,5.3413-90.0396,17.8594-29.7432,11.8477-60.4944,24.0962-85.448,55.4194-20.7659,26.0195-29.7695,55.6934-35.7275,75.3291-5.3682,17.6455-7.0908,29.1265-8.7568,40.2295-1.7837,11.8867-3.4683,23.1147-9.8687,40.8438-7.0554,19.4878-13.7209,37.8989-29.4868,56.959-23.9758,28.958-72.0237,62.9629-94.5674,73.6504l-.1184.0566c-9.0986,4.3472-14.3308,10.3354-17.1177,14.5933-1.2544,1.9004-4.3367,7.0127-5.635,13.0796-1.1755,5.4497-.4871,10.248,1.9929,13.8687,5.0034,7.2168,15.1765,7.2168,18.5195,7.2168.3022,0,.5857-.002.8457-.0039,14.7576-.1885,32.9072-7.479,53.97-21.6699,14.9692-10.0859,27.0234-20.7471,31.511-24.8628,27.062-24.8823,44.9221-41.3037,60.3003-70.2212,10.0132-18.8667,14.8635-37.4805,24.5266-74.5645,5.5244-21.2119,8.3225-35.459,10.3657-45.8618,3.0505-15.5312,4.5815-23.3267,11.1189-36.4355,14.9602-30.0361,37.0032-47.9194,44.2468-53.7959,31.7395-25.7773,70.0007-39.3442,116.9719-41.4771,5.6919-.2598,11.7036-.3916,17.8699-.3916,50.4736.0005,99.9966,8.7681,100.4907,8.8569,3.8916.6992,7.7798,1.4419,11.5405,2.1597,13.7935,2.6338,26.8218,5.1216,37.8735,5.1216,12.3901,0,21.1919-3.2563,26.9087-9.9541,5.3008-6.2476,7.8252-15.2031,6.4492-22.8413-.3516-2.1494-1.0625-4.2319-2.1128-6.1904-4.895-8.9727-16.3843-13.3193-35.1411-13.3193-3.7573,0-7.1797.1699-9.6787.2944l-.4502.022c-12.8154.6318-25.105.939-37.5698.939-27.3003,0-49.6597-1.5171-69.3867-2.8555-16.2446-1.1025-30.2742-2.0542-44.3967-2.0542h0Z"/>
      </g>
      <g>
        <path class="cls-2" d="M1742.5059,393.2988c-4.5781,0-9.2607-.554-13.3916-1.0425-52.208-6.2126-117.1816-13.9443-164.2666-51.3945-8.7012-6.9099-16.8418-14.8669-24.7148-22.5618-15.8701-15.511-30.8594-30.1621-50.5635-37.689-10.0225-3.8086-21.0273-5.6606-33.6377-5.6606-9.8066,0-20.4365,1.1357-32.4951,3.4719-14.1602,2.7383-28.4043,6.6499-42.1797,10.4329-23.4912,6.4509-47.7832,13.1213-72.6104,14.2642-2.6162.1199-5.2891.1807-7.9463.1809-44.0088.001-86.4961-16.4768-122.8652-31.9221-14.4736-6.1643-21.3623-14.2078-19.9219-23.2617.6172-3.8325,2.7812-7.1343,6.2598-9.5537,3.417-2.3462,7.7646-3.6338,12.2559-3.6338,1.9102,0,3.7686.2383,5.5234.708,7.2334,1.9458,13.1162,6.5532,18.8057,11.0088,1.3926,1.0908,2.832,2.2185,4.251,3.2722,1.3486.9907,2.8057,2.0103,4.5732,3.2007,18.5508,12.1414,42.0381,18.3069,69.7822,18.3069,16.0166,0,33.5205-2.0601,52.0283-6.123,13.6836-2.9934,27.4688-6.7815,40.8008-10.4446,21.667-5.9536,44.0723-12.1099,66.8662-15.1057,8.5957-1.1328,16.4756-1.6836,24.0879-1.6836,28.3682,0,51.7949,7.7566,73.7246,24.4106,9.4033,7.1326,18.2715,15.1614,26.8486,22.926,10.582,9.5811,21.5254,19.488,33.417,27.6274,33.0635,22.5947,77.6504,34.2649,132.5234,34.6855l1.3291.0098c8.3223.0574,16.9287.1165,24.8818,3.3933,5.1885,2.1523,9.7441,5.9331,12.5049,10.3752,2.2969,3.6658,3.3379,7.6887,3.0049,11.6262-.832,9.6636-9.3184,16.3452-17.3613,18.6819-3.4268,1.0049-7.1953,1.4941-11.5146,1.4941Z"/>
        <path class="cls-1" d="M1176.4282,237.4292c1.6599,0,3.3101.2036,4.8772.623,8.4692,2.2778,15.1392,8.6191,22.2134,13.873,1.5381,1.1299,3.0845,2.2017,4.6672,3.2671,20.8416,13.6411,45.7275,18.7329,71.178,18.7329,17.635,0,35.5391-2.4434,52.5642-6.1812,35.9478-7.8643,70.8257-20.6992,107.4573-25.5132,8.1602-1.0757,16.071-1.6621,23.762-1.6626,26.0188-.001,49.5735,6.7095,72.2131,23.9019,20.9446,15.8872,38.6912,35.7905,60.365,50.6255,38.666,26.4233,87.0703,34.7637,133.916,35.1226,8.5386.0684,17.3633-.0464,25.2783,3.2144,4.5688,1.8955,8.7632,5.2485,11.334,9.3838,1.9019,3.0361,2.9409,6.4912,2.6362,10.0957-.6895,8.0122-7.8418,14.2476-15.5669,16.4917-3.519,1.0322-7.1514,1.395-10.8184,1.395-4.3608,0-8.7705-.5132-13.0967-1.0249-57.3125-6.8203-117.8486-14.9531-163.0039-50.8687-25.5332-20.2764-45.4973-48.999-75.9434-60.6294-11.0286-4.1914-22.7156-5.8252-34.5298-5.8257-11.0225,0-22.155,1.4224-32.9702,3.5176-38.375,7.4214-75.3738,22.8564-114.4297,24.6543-2.613.1196-5.2263.1782-7.8306.1782-42.0759,0-82.9756-15.1978-121.8879-31.7231-9.1572-3.8999-19.9939-10.7446-18.4307-20.5679.5391-3.3467,2.5161-6.0146,5.218-7.894,3.0181-2.0723,6.9478-3.186,10.8281-3.186M1176.4282,232.4292c-4.991,0-9.8416,1.4434-13.6584,4.0645-4.0151,2.7925-6.6074,6.7715-7.324,11.2207-1.1462,7.2021,1.6389,17.5439,21.408,25.9629,36.5984,15.543,79.3647,32.123,123.8469,32.123,2.6936,0,5.4053-.0615,8.0596-.1836,25.1077-1.1558,49.5356-7.8638,73.1594-14.3511,13.7295-3.7705,27.9265-7.6689,41.9907-10.3887,11.9021-2.3057,22.3757-3.4268,32.0208-3.4263,12.3027,0,23.0166,1.7988,32.7537,5.499,19.2117,7.3389,34.0212,21.8135,49.7004,37.1382,7.9185,7.7393,16.106,15.7417,24.9097,22.7329,47.6372,37.8896,113.0015,45.668,165.5225,51.918,4.2031.4971,8.9629,1.0601,13.6875,1.0601,4.562,0,8.561-.5225,12.2256-1.5972,8.8491-2.5708,18.2085-10.0205,19.1411-20.8608.3794-4.4883-.7896-9.043-3.3804-13.1787-3.022-4.8613-8.0024-9.0024-13.6553-11.3477-8.4141-3.4668-17.2671-3.5273-25.8286-3.5864l-1.3257-.0098c-54.3677-.4165-98.4873-11.9399-131.1348-34.2505-11.7485-8.0415-22.6274-17.8906-33.1484-27.4155-8.6157-7.8003-17.5254-15.8662-27.0161-23.0659-22.3857-16.9995-46.291-24.918-75.2295-24.918-7.7305.0005-15.7166.5581-24.4207,1.7056-22.9631,3.0176-45.4524,9.1973-67.2012,15.1729-13.3005,3.6548-27.054,7.4341-40.6714,10.4131-18.3354,4.0249-35.6597,6.0654-51.4956,6.0654-27.2358,0-50.2537-6.022-68.4136-17.8994-1.7209-1.1587-3.1426-2.1538-4.4714-3.1304-1.3721-1.019-2.7354-2.0864-4.1785-3.2168-5.8867-4.6104-11.9736-9.3779-19.6965-11.4551-1.9717-.5278-4.0476-.7944-6.1758-.7944h0Z"/>
      </g>
      <g>
        <path class="cls-2" d="M21.0205,317.2959c-7.6514.0005-13.751-3.5454-16.7334-9.7283-4.041-8.2893-1.0127-18.106,7.0479-22.8254.6826-.3999,1.3711-.7922,2.0605-1.1843.6709-.3826,1.3428-.7651,2.0088-1.1548,5.3906-3.0652,10.8896-6.0498,16.208-8.9363,9.5684-5.1929,19.4629-10.5627,28.8477-16.4668,15.8281-9.9761,31.5771-20.6858,46.8066-31.043,14.8203-10.0779,30.1436-20.499,45.5615-30.2593,39.4072-24.9109,99.3008-58.0781,164.1973-58.512l1.3975-.0049c46.7451,0,91.8623,16.5154,135.4941,32.4866,43.0459,15.7571,87.5576,32.0505,133.041,32.0505,2.8252,0,5.6709-.0627,8.4551-.187,41.375-1.8503,80.9766-17.7935,119.2744-33.2119,34.6045-13.9312,70.3867-28.3364,107.8438-32.6628,8.8828-1.0293,18.5557-1.551,28.749-1.551,41.5547,0,87.1748,8.501,127.4238,16.0015,6.1797,1.1516,12.2402,2.2812,18.1514,3.3547l5.4561.9878c34.3193,6.2185,59.1162,10.7112,94.8896,12.2397,2.3252.1116,4.4688.6309,6.3828,1.5442,5.6533,2.7092,9.084,8.6726,8.7451,15.1938-.3379,6.4871-4.2715,11.6921-10.5225,13.9238-5.8809,2.092-12.0283,3.3616-18.2744,3.7744-1.7998.1172-3.6494.1765-5.501.1765-17.6816,0-34.8672-5.2803-51.4883-10.387-55.6543-17.1064-110.0889-32.4614-164.1758-32.4614-11.6611,0-23.1348.7266-34.1016,2.1594-38.8701,5.0713-76.8281,19.6904-113.5371,33.8281-45.1826,17.4014-91.9033,35.3953-140.2676,35.3967-4.6221,0-9.2646-.1648-13.7988-.49-38.585-2.7551-75.085-17.687-110.3828-32.1274-32.2363-13.1875-65.5703-26.824-100.2422-31.0303-7.8428-.9502-15.9277-1.4319-24.0283-1.4319-43.8945,0-90.5684,13.6494-138.7266,40.5691-39.3857,22.0002-75.7178,50.3364-110.8525,77.7395-11.0625,8.6284-22.502,17.5503-33.8711,26.1458-4.2461,3.2144-8.6602,5.5034-13.1162,6.8027-2.9385.8501-5.7705,1.2805-8.4219,1.2808Z"/>
        <path class="cls-1" d="M851.28,136.605c47.6638-.0005,100.666,11.2397,145.1284,19.3159,37.2437,6.7344,62.8669,11.6499,100.6868,13.2656,2.0442.0981,3.8535.5596,5.4128,1.3032,9.7483,4.6724,10.3354,20.2661-1.5425,24.5068-5.6606,2.0137-11.6609,3.2417-17.5986,3.6338-1.7812.1162-3.5618.1714-5.3374.1714-17.2271,0-34.1875-5.187-50.7517-10.2764-53.7002-16.5059-109.2043-32.5718-164.9094-32.5723-11.4724,0-22.9512.6816-34.4268,2.1807-87.2405,11.3823-166.5579,69.2036-253.4792,69.2036-4.521,0-9.0569-.1562-13.6211-.4834-73.3569-5.2383-137.4888-54.2881-210.5034-63.146-8.1023-.9814-16.2263-1.4497-24.3293-1.4502-48.7537-.002-97.0891,16.9302-139.9463,40.8872-51.9783,29.0342-97.5176,68.166-145.012,104.0732-3.7129,2.8105-7.8271,5.0908-12.3081,6.3965-2.8123.814-5.3894,1.1812-7.7224,1.1812-7.2883,0-12.198-3.582-14.4812-8.3145-3.1855-6.5347-1.3762-15.2285,6.0588-19.582,1.3491-.7891,2.7207-1.5493,4.0698-2.3389,15.0042-8.5308,30.4443-16.2095,45.1238-25.4443,31.2715-19.71,61.1475-41.5376,92.3743-61.3062,49.3779-31.2139,104.4646-57.7339,162.8762-58.1245.4565-.0029.9246-.0049,1.3806-.0049,92.4792,0,176.5579,64.5371,268.5356,64.5371,2.8494,0,5.7017-.0615,8.5669-.1895,79.1353-3.5391,148.6052-56.8003,227.2939-65.8887,9.1826-1.064,18.7129-1.5342,28.4614-1.5347M851.2849,131.605v5l-.0022-5c-10.2925.0005-20.062.5278-29.0396,1.5679-37.7908,4.3647-73.7319,18.8345-108.4897,32.8271-38.1033,15.3398-77.5037,31.2021-118.4521,33.0332-2.7454.1226-5.5527.1846-8.3435.1846-45.04,0-89.3398-16.2158-132.1814-31.8979-43.8364-16.0464-89.1655-32.6392-136.3542-32.6392-.4678,0-.9478.0015-1.416.0049-27.8354.1865-56.1633,6.0225-86.6003,17.8428-24.3662,9.4624-50.1787,22.8916-78.9124,41.0557-15.4556,9.7842-30.7981,20.2178-45.6355,30.3076-15.2114,10.3442-30.9407,21.041-46.7329,30.9946-9.313,5.8589-19.1709,11.209-28.7041,16.3828-5.3291,2.8926-10.8396,5.8828-16.2249,8.9448-.0183.0103-.0364.021-.0544.0312-.6619.3877-1.3296.7676-1.9973,1.1479-.6924.3945-1.3845.7886-2.071,1.1904-9.2024,5.3882-12.6531,16.6035-8.0291,26.0889,3.3569,6.9585,10.4539,11.1235,18.9756,11.1235,2.8865,0,5.9521-.4639,9.1123-1.3784,4.7576-1.3862,9.4434-3.812,13.936-7.2129,11.3801-8.6035,22.8259-17.5308,33.8948-26.1636,35.0623-27.3462,71.3186-55.6235,110.5376-77.5308,47.7854-26.7119,94.0493-40.2544,137.5076-40.2524,8.0042.0005,15.9875.4761,23.7285,1.4141,34.3369,4.1655,67.5125,17.7373,99.5959,30.8623,35.4802,14.5146,72.1685,29.5234,111.1526,32.3071,4.5901.3296,9.2932.4961,13.9773.4961,48.8289,0,95.7703-18.0791,141.1663-35.563,36.5713-14.0854,74.3872-28.6504,112.96-33.6826,10.8613-1.4189,22.2263-2.1387,33.7798-2.1387,53.7402.0005,107.9758,15.3032,163.4404,32.3516,16.7971,5.1606,34.1655,10.4971,52.2207,10.4971,1.905,0,3.8101-.0615,5.6624-.1821,6.4805-.4277,12.8545-1.7441,18.9495-3.9121,7.1311-2.5459,11.7976-8.7339,12.1836-16.1504.3923-7.5322-3.5942-14.4312-10.1558-17.5762-2.2251-1.0615-4.6897-1.6616-7.3342-1.7886-35.6338-1.5225-60.3635-6.0034-94.5906-12.2056l-5.4463-.9863c-5.9009-1.0718-11.8472-2.1797-18.1428-3.353-40.3523-7.5195-86.0889-16.0425-127.8704-16.0425h0Z"/>
      </g>
      <g>
        <path class="cls-2" d="M105.6221,406.2607c-4.1953.0002-7.6904-1.5981-10.3877-4.7507-3.2129-3.7993-4.4287-8.8499-3.3447-13.8677.7207-3.5649,2.6426-6.9011,5.4023-9.3621,43.251-38.5708,101.4629-60.6921,159.709-60.6921,6.3672,0,12.7666.2749,19.0176.8174,25.501,2.2224,50.9199,7.7378,75.502,13.0713,31.6709,6.8718,64.4189,13.9773,97.335,13.9773,2.6904,0,5.3896-.0474,8.0225-.1411,61.3994-2.1677,117.7695-31.2661,172.2842-59.4062,40.7959-21.0591,82.9805-42.8347,127.7041-53.8613,10.0488-2.4741,19.6152-3.7285,28.4336-3.7285,4.6533,0,9.0908.3601,13.1904,1.0701,2.0674.3481,3.9512.7607,5.75,1.259,6.4268,1.7871,8.5156,7.9434,7.2178,12.8291-1.1543,4.3171-4.6357,7.2996-9.0859,7.7876-58.0547,6.5151-112.9521,34.8015-166.043,62.1567-59.7832,30.8042-121.6025,62.6572-188.8496,64.1987-1.7295.0393-3.46.0586-5.1875.0586-31.3125,0-62.9316-6.3523-93.5088-12.4954-29.8916-6.0051-60.8008-12.2146-90.7109-12.2146-15.7471,0-30.0352,1.6655-43.6816,5.092-24.9189,6.2581-48.126,18.8684-70.5684,31.0635-8.0322,4.3647-16.3389,8.8779-24.625,13.0493-3.7373,1.9011-8.667,4.0889-13.5752,4.0891Z"/>
        <path class="cls-1" d="M785.2998,230.8169c4.3462,0,8.6348.3184,12.7642,1.0337,1.8733.3154,3.7183.7085,5.5078,1.2046,4.8242,1.3413,6.4966,5.9126,5.4702,9.7783-.791,2.958-3.1658,5.5298-6.9424,5.9438-123.8538,13.8989-228.2905,123.4438-354.6772,126.3418-1.7095.0386-3.4197.0576-5.1289.0576-61.8225,0-123.6052-24.7104-184.2217-24.7104-14.8386,0-29.6072,1.481-44.2896,5.1675-34.1826,8.585-64.2192,28.4531-95.7087,44.3047-3.8411,1.9541-8.2881,3.8223-12.4509,3.8223-3.1123,0-6.0654-1.0439-8.4893-3.876-2.8318-3.3496-3.6748-7.6616-2.8-11.7148.6096-3.0151,2.2083-5.8716,4.6233-8.0239,42.5085-37.9082,100.7451-60.0581,158.0449-60.0581,6.2874,0,12.5588.2666,18.8018.8081,58.2432,5.0762,114.3105,27.0581,173.0532,27.0581,2.7002,0,5.3984-.0459,8.1104-.1426,107.6934-3.8018,195.8577-87.54,300.4978-113.3389,8.8323-2.1748,18.4641-3.6553,27.8352-3.6558M785.3018,225.8169v5l-.0005-5h-.0015c-9.0215.0005-18.7886,1.2788-29.0305,3.8008-45.0115,11.0977-87.3293,32.9419-128.2537,54.0674-56.7673,29.3032-110.3865,56.9819-171.2251,59.1294-2.6028.0928-5.2715.1396-7.9341.1396-32.6477,0-65.2634-7.0767-96.8049-13.9204-24.6587-5.3501-50.1567-10.8828-75.8142-13.1187-6.3252-.5488-12.7964-.8271-19.2356-.8271-28.7092,0-58.5671,5.5811-86.3459,16.1396-27.771,10.5557-53.7148,26.1812-75.0271,45.187-3.1523,2.8096-5.3499,6.6191-6.189,10.729-1.2371,5.7729.1746,11.5918,3.8752,15.9692,3.1687,3.7026,7.4177,5.6479,12.3074,5.6479,5.4392,0,10.7229-2.333,14.7183-4.3657,8.3022-4.1792,16.6252-8.7017,24.6746-13.0757,22.3064-12.1211,45.3726-24.6548,69.9851-30.8359,13.4441-3.376,27.533-5.0171,43.0715-5.0171,29.6616,0,60.4473,6.1851,90.2192,12.166,30.6982,6.1675,62.4417,12.5444,94.0024,12.5444,1.7542,0,3.5181-.0195,5.2424-.0591,67.824-1.5552,129.9031-33.542,189.9382-64.4761,52.8892-27.2515,107.5789-55.4312,165.1831-61.8955,5.4868-.6016,9.7888-4.2886,11.2151-9.6206,1.8892-7.1157-1.9644-13.9424-8.9612-15.8877-1.8596-.5151-3.8828-.9585-6.0171-1.3179-4.217-.7305-8.7981-1.103-13.5923-1.103h0Z"/>
      </g>
      <g>
        <path class="cls-2" d="M820.8936,376.7522c-7.4238,0-14.9795-2.855-21.3916-5.6477-31.0195-13.5046-55.3545-29.115-74.3975-47.7231-22.7871-22.2104-37.9785-49.5576-42.7744-77.0012-1.4287-8.1685-2.0049-16.5549-2.5625-24.6655-.8145-11.8306-1.6553-24.064-5.1924-35.4041-9.6797-31.0146-40.6348-56.3804-82.8057-67.8523-32.6748-8.8721-67.7021-9.7822-101.5771-10.6624-42.8477-1.1135-87.1553-2.2646-126.999-19.584-8.8535-3.8411-19.6709-9.5916-24.7607-20.0459-4.3252-8.8389-2.9951-15.1216-1.1172-18.8347,2.5518-5.0471,7.8057-8.6289,14.4131-9.8269,1.6514-.3137,3.3896-.4749,5.1445-.4749,2.8799,0,5.7715.4265,8.5957,1.2673,11.4385,3.4026,22.251,8.6482,32.7061,13.7214,7.085,3.4373,14.4102,6.9917,21.7988,9.8987,30.0801,11.8513,62.7842,14.3254,96.4443,15.9888l6.8379.3262c30.4971,1.4417,62.0332,2.9324,91.7637,11.8262,21.209,6.3616,59.5771,22.5437,78.2715,59.4502,10.0625,19.8948,12.5205,42.4907,14.8965,64.3425,2.334,21.4634,4.7471,43.6575,14.4629,62.7769,9.2637,18.2312,25.8662,34.2966,46.749,45.2368,4.8301,2.5315,9.9297,4.8271,14.8613,7.0474,6.9795,3.1418,14.1953,6.3909,20.9199,10.4148,6.7705,4.021,12.4814,8.6289,16.9648,13.6912,3.3242,3.7578,5.9629,7.7598,7.8447,11.8958.9004,1.98.8105,4.177-.2246,6.0737-1.0391,1.9062-2.8486,3.1775-4.9639,3.4873-1.2568.1841-2.5713.2776-3.9082.2776Z"/>
        <path class="cls-1" d="M356.8726,41.5298c2.5813,0,5.2476.3784,7.8826,1.1631,18.9753,5.6445,35.949,16.3291,54.3037,23.5508,30.7109,12.1001,64.2627,14.5298,97.2361,16.1587,32.9744,1.603,66.3843,2.5908,98.0081,12.0508,31.623,9.4854,61.8408,28.7349,76.7581,58.1851,19.7395,39.0264,9.5417,88.1191,29.3606,127.1221,10.2188,20.1113,27.8572,35.8613,47.8179,46.3188,11.7188,6.1411,24.3225,10.6089,35.657,17.3931,6.0149,3.5718,11.7444,7.9717,16.3784,13.2031,3.0129,3.4072,5.5715,7.1675,7.4402,11.2739.0068.0146.0137.0298.0205.0449,1.1609,2.5552-.519,5.5996-3.2957,6.0068-1.1716.1719-2.3552.251-3.5459.251-6.856,0-13.9487-2.6323-20.3938-5.4395-26.8796-11.7021-52.6699-26.7192-73.6489-47.2192-21.0056-20.4746-37.0081-46.7393-42.0583-75.6436-3.5022-20.0229-1.7749-40.9673-7.8306-60.3838-11.3459-36.3535-47.7776-59.5205-84.5364-69.52-74.4263-20.2085-157.5112.6157-228.2356-30.1265-9.425-4.0889-19.0176-9.6196-23.51-18.8477-6.8643-14.0278.6663-23.144,11.4941-25.1074,1.5137-.2876,3.0896-.4346,4.698-.4346M356.8733,36.5298c-1.9121,0-3.8069.1758-5.6321.5225-7.3445,1.3315-13.2485,5.3989-16.1575,11.1514-2.1335,4.2192-3.6736,11.2988,1.1055,21.0659,5.4438,11.1821,16.7607,17.2236,26.0112,21.2368,40.2861,17.5112,84.8401,18.6689,127.927,19.7886,33.7268.8765,68.6018,1.7827,100.9885,10.5762,41.3403,11.2461,71.6492,35.9878,81.0735,66.1846,3.449,11.0586,4.2429,22.6045,5.0835,34.8291.562,8.1748,1.1433,16.6284,2.5947,24.9263,4.8845,27.9556,20.3311,55.7856,43.4937,78.3628,19.26,18.8203,43.8411,34.5957,75.1431,48.2231,6.6475,2.895,14.5066,5.855,22.3896,5.855,1.4573,0,2.894-.1021,4.2705-.3037,2.9001-.4253,5.377-2.1616,6.7964-4.7637,1.4143-2.5928,1.5334-5.603.3269-8.2588-.0039-.0083-.0129-.0278-.0217-.0474h0c-1.9849-4.3618-4.759-8.5723-8.2456-12.5151-4.6584-5.2593-10.5693-10.0322-17.571-14.1904-6.8345-4.0908-14.1196-7.3701-21.165-10.542-4.897-2.2046-9.9609-4.4844-14.7241-6.9805-20.4282-10.7026-36.6514-26.3838-45.6812-44.1553-9.5083-18.7119-11.7903-39.6973-14.2063-61.915-2.4006-22.0737-4.8828-44.8994-15.1499-65.1987-7.4404-14.6885-18.7595-27.5981-33.6445-38.3726-13.126-9.5015-29.0806-17.228-46.1389-22.3447-30.0259-8.9819-61.7151-10.4805-92.3606-11.9292-2.282-.1079-4.5627-.2158-6.8413-.3267-33.4397-1.6519-65.9207-4.105-95.646-15.8164-7.3013-2.873-14.5833-6.4058-21.6255-9.8228-10.5457-5.1167-21.4504-10.4077-33.0854-13.8687-3.0544-.9092-6.1863-1.3706-9.3074-1.3706h0Z"/>
      </g>
    </g>
  </g>
</svg>