<?xml version="1.0" encoding="UTF-8"?>
<svg id="Capa_2" xmlns="http://www.w3.org/2000/svg" viewBox="0 0 1842.3437 472.3711">
  <defs>
    <style>
      .cls-1 {
        fill: #70569b;
      }

      .cls-2 {
        fill: #a486ce;
      }
    </style>
  </defs>
  <g id="Capa_1-2" data-name="Capa_1">
    <g>
      <g>
        <path class="cls-2" d="M16.7506,306.4844c-6.5684.0002-12.2368-3.7039-13.7847-9.0081-.5391-1.8196-.6099-3.7878-.207-5.8398.5527-2.9055,2.0986-5.991,4.5918-9.1565.9395-1.189,2.0049-2.4189,3.1704-3.6594,8.9204-9.3699,20.9575-15.3215,32.5229-20.6152,7.2817-3.3237,14.2534-6.5359,21.0156-9.6514,39.7935-18.335,71.2246-32.8169,115.2935-47.0623,25.1987-8.1235,65.3569-15.0676,91.4258-15.8096,9.2881-.2573,18.4102-.4883,27.9131-.4883,23.937,0,41.96,1.5579,56.7183,4.9023l6.1689,1.4358c18.145,4.3528,35.2749,10.0425,51.8408,15.5447,23.5781,7.8313,45.8491,15.2283,70.9844,19.2043,17.3916,2.7417,33.0088,4.0747,47.7422,4.075,31.4175.0002,57.3813-6.0698,79.3745-18.5574,6.7271-3.825,13.437-8.3833,19.9258-12.7917,16.0317-10.8918,32.6099-22.1543,51.728-24.1279,1.4785-.1753,3.1436-.2803,5.0537-.3174.0166-.0002.0332-.0005.0488-.0005.9824,0,1.876.5759,2.2803,1.4746.4102.9133.2363,1.9836-.4424,2.7202-32.707,35.4705-75.1938,59.0757-119.6353,66.4675-11.0952,1.8394-22.8354,2.772-34.896,2.7725-38.4775.0015-77.3643-9.3831-114.9707-18.4587-25.5659-6.1699-52.0024-12.5498-78.1162-15.9417-15.2466-1.9851-30.9287-2.9917-46.6104-2.9917-87.2085,0-179.8818,31.2285-260.9487,87.9329l-.2886.2014c-4.6895,3.2725-9.5386,6.6565-15.4614,7.563-.7939.1216-1.6138.1831-2.4375.1833Z"/>
        <path class="cls-1" d="M688.2772,177.061c-31.1158,33.7456-72.9178,58.1636-118.2075,65.6963-11.5102,1.9082-23.0083,2.7383-34.4855,2.7383-64.2244,0-128.0403-25.9727-192.765-34.3794-15.6141-2.0332-31.2835-3.0122-46.9323-3.0122-93.1291-.001-185.6057,34.6812-262.3818,88.3843-4.5355,3.1636-9.2331,6.5054-14.6952,7.3413-.6754.1035-1.3662.1548-2.0603.1548-4.9191,0-10.0284-2.564-11.384-7.208-.4527-1.5293-.4598-3.0986-.1536-4.6582.5545-2.9126,2.23-5.7139,4.1025-8.0913.9495-1.2017,1.9768-2.3745,3.0287-3.4946,8.6001-9.0337,20.2962-14.8149,31.7413-20.0537,49.3025-22.5034,84.4983-39.9478,136.0377-56.6084,24.5685-7.9199,64.6932-14.9482,90.7282-15.689,8.8022-.2441,18.2323-.4873,27.8414-.4873,19.183,0,39.0847.9697,56.1657,4.8403,2.0516.478,4.1034.9551,6.155,1.4326,42.9721,10.3091,79.356,27.8794,123.0012,34.7832,15.8197,2.4941,32.0471,4.106,48.1339,4.106,28.2697,0,56.1136-4.9751,80.6081-18.8833,23.2836-13.2388,44.5326-33.9082,70.6763-36.6069,1.6002-.1895,3.2235-.2729,4.8453-.3047M688.2779,172.061c-.0328,0-.0656.0005-.0985.001-1.9802.0386-3.713.1479-5.2958.334-19.7296,2.0483-36.5633,13.4839-52.8418,24.543-6.4482,4.3809-13.116,8.9106-19.7577,12.687-21.6032,12.2666-47.1628,18.23-78.1367,18.23-14.6007,0-30.0908-1.3232-47.3551-4.0449-24.9301-3.9434-47.1061-11.3091-70.5844-19.1069-16.6156-5.519-33.7969-11.2256-52.0292-15.5991l-2.0062-.4673-4.1806-.9731c-14.9745-3.3936-33.1728-4.9707-57.3003-4.9707-9.538,0-18.6777.2314-27.9799.4893-26.2711.7476-66.7351,7.7437-92.1238,15.9282-44.2154,14.293-75.7073,28.8027-115.5775,47.1733-6.7497,3.1099-13.7292,6.3257-21.0022,9.645-11.7924,5.3979-24.0717,11.4756-33.2866,21.1548-1.2392,1.3198-2.3519,2.604-3.3305,3.8428-2.748,3.4888-4.4593,6.9375-5.0911,10.2559-.4757,2.4229-.3864,4.7915.271,7.0127,1.8519,6.3442,8.5069,10.7886,16.1784,10.7886.9504,0,1.8984-.0718,2.8177-.2124,6.497-.9946,11.8186-4.708,16.5136-7.9844l.2847-.1982c80.657-56.418,172.8215-87.4863,259.5213-87.4854,15.5749,0,31.148.999,46.2868,2.9702,25.9823,3.375,52.3532,9.7388,77.8558,15.8931,37.7477,9.1094,76.7806,18.5288,115.5547,18.5288,12.1946,0,24.0724-.9443,35.3033-2.8062,44.9899-7.4829,87.9842-31.3623,121.0656-67.2393,1.3579-1.4731,1.7058-3.6143.8839-5.4409-.8083-1.7969-2.595-2.9487-4.5591-2.9487h0Z"/>
      </g>
      <g>
        <path class="cls-2" d="M187.4434,441.5117c-4.1953.0005-7.6904-1.5979-10.3882-4.7502-3.2119-3.7993-4.4272-8.8499-3.3447-13.8677.7212-3.5657,2.6426-6.9019,5.4043-9.363,43.2505-38.5703,101.4624-60.6917,159.7085-60.6917,6.3677,0,12.7661.2749,19.0176.8174,25.5,2.2224,50.9189,7.7378,75.501,13.0713,31.6704,6.8718,64.4189,13.9773,97.3354,13.9773,2.6904,0,5.3896-.0474,8.022-.1411,61.3994-2.1677,117.7695-31.2659,172.2842-59.4062,40.7959-21.0588,82.9805-42.8347,127.7041-53.8611,10.0479-2.4741,19.6143-3.7288,28.4336-3.7288,4.6523,0,9.0908.3601,13.1904,1.0703,2.0371.343,3.9756.7671,5.75,1.2588,6.4268,1.7871,8.5156,7.9436,7.2178,12.8291-1.1543,4.3174-4.6357,7.2996-9.0859,7.7876-58.0547,6.5151-112.9531,34.8015-166.043,62.157-59.7832,30.8042-121.6025,62.657-188.8496,64.1987-1.7285.0393-3.4585.0586-5.187.0586-31.312,0-62.9312-6.3523-93.5093-12.4956-29.8916-6.0051-60.8013-12.2146-90.7114-12.2146-15.7466,0-30.0342,1.6655-43.6807,5.092-24.9199,6.2585-48.1274,18.8691-70.5713,31.0647-8.0317,4.3643-16.3369,8.8772-24.6226,13.0481-3.7368,1.9011-8.667,4.0889-13.5752,4.0891Z"/>
        <path class="cls-1" d="M867.1212,266.0679c4.3461,0,8.6348.3184,12.7642,1.0337,1.8732.3154,3.7181.7085,5.5078,1.2046,4.8242,1.3413,6.4966,5.9126,5.4703,9.7783-.7911,2.958-3.1659,5.5303-6.9426,5.9443-123.8536,13.8989-228.2903,123.4438-354.6772,126.3413-1.7093.0391-3.4196.0576-5.1288.0576-61.8226,0-123.6053-24.7104-184.2217-24.7104-14.8387,0-29.6073,1.481-44.2896,5.1675-34.1826,8.585-64.2191,28.4531-95.7088,44.3047-3.8411,1.9541-8.2882,3.8223-12.451,3.8223-3.1122,0-6.0654-1.0439-8.4891-3.876-2.8318-3.3496-3.6749-7.6616-2.8-11.7148.6097-3.0151,2.2084-5.8711,4.6233-8.0234,42.5085-37.9087,100.7451-60.0586,158.045-60.0586,6.2873,0,12.5587.2666,18.8016.8081,58.2433,5.0762,114.3106,27.0586,173.0535,27.0586,2.7001,0,5.3983-.0464,8.1103-.1431,107.6935-3.8018,195.8575-87.54,300.4979-113.3389,8.8323-2.1748,18.464-3.6558,27.8351-3.6558M867.1233,261.0679v5l-.0006-5h-.0016c-9.0208,0-18.788,1.2788-29.0304,3.8008-45.0115,11.0977-87.3292,32.9419-128.2538,54.0674-56.7672,29.3037-110.3863,56.9819-171.2251,59.1294-2.6027.0928-5.2715.1396-7.9339.1396-32.6478,0-65.2634-7.0767-96.8051-13.9204-24.6586-5.3501-50.1567-10.8823-75.8142-13.1187-6.3251-.5488-12.7963-.8271-19.2357-.8271-28.7091,0-58.5669,5.5811-86.3458,16.1396-27.7711,10.5557-53.715,26.1812-75.0271,45.1875-3.1519,2.8091-5.3489,6.6177-6.1885,10.7266-1.2379,5.7734.1737,11.5933,3.8749,15.9712,3.1686,3.7026,7.4177,5.6479,12.3074,5.6479,5.4389,0,10.7226-2.333,14.7181-4.3657,8.3025-4.1792,16.626-8.7021,24.6755-13.0762,22.3063-12.1206,45.3719-24.6543,69.9841-30.8354,13.4441-3.376,27.5331-5.0171,43.0716-5.0171,29.6616,0,60.4473,6.1851,90.2193,12.166,30.6982,6.1675,62.4416,12.5444,94.0024,12.5444,1.7542,0,3.5179-.0195,5.2424-.0591,67.8241-1.5547,129.9034-33.5415,189.9387-64.4756,52.889-27.2515,107.5785-55.4312,165.1826-61.8955,5.4866-.6016,9.7889-4.2886,11.2152-9.6211,1.889-7.1157-1.9645-13.9424-8.9612-15.8877-1.8601-.5156-3.8832-.9585-6.017-1.3179-4.217-.7305-8.798-1.103-13.5923-1.103h0Z"/>
      </g>
      <g>
        <path class="cls-2" d="M902.7149,412.0032c-7.4229,0-14.9795-2.8547-21.3916-5.6475-31.0195-13.5051-55.3555-29.1155-74.3975-47.7231-22.7871-22.2109-37.9785-49.5579-42.7744-77.0015-1.4287-8.1685-2.0049-16.5549-2.5625-24.6655-.8145-11.8306-1.6553-24.064-5.1924-35.4041-9.6797-31.0149-40.6348-56.3804-82.8057-67.8523-32.6748-8.8721-67.7021-9.7822-101.5767-10.6624-42.8481-1.1133-87.1553-2.2646-126.999-19.584-8.854-3.8411-19.6719-9.5913-24.7612-20.0457-4.3252-8.8389-2.9956-15.1216-1.1177-18.8345,2.5522-5.0474,7.8057-8.6294,14.4141-9.8274,1.6509-.3137,3.3882-.4746,5.1436-.4746,2.8799,0,5.772.4263,8.5962,1.2673,11.439,3.4026,22.2505,8.6482,32.7061,13.7212,7.0845,3.4373,14.4106,6.9917,21.7993,9.8987,30.0791,11.8513,62.7837,14.3254,96.4443,15.9888l6.8374.3262c30.4971,1.4417,62.0332,2.9326,91.7637,11.8262,21.209,6.3618,59.5771,22.5439,78.2725,59.4502,10.0625,19.8945,12.5195,42.49,14.8955,64.3416,2.334,21.4639,4.7471,43.6582,14.4629,62.7778,9.2637,18.2312,25.8662,34.2966,46.749,45.2368,4.8301,2.5312,9.9287,4.8269,14.8604,7.0469,6.9795,3.1421,14.1973,6.3911,20.9209,10.4155,6.7705,4.0205,12.4814,8.6284,16.9648,13.6909,3.3242,3.7583,5.9629,7.76,7.8447,11.8958.9004,1.9802.8105,4.177-.2246,6.074-1.0391,1.906-2.8486,3.1772-4.9639,3.4871-1.2568.1841-2.5713.2776-3.9082.2776Z"/>
        <path class="cls-1" d="M438.6939,76.7808c2.5812,0,5.2474.3784,7.8826,1.1631,18.9752,5.6445,35.949,16.3291,54.3036,23.5508,30.711,12.1001,64.2628,14.5298,97.2362,16.1587,32.9741,1.603,66.3843,2.5913,98.0081,12.0508,31.6229,9.4854,61.8407,28.7349,76.7579,58.1851,19.7396,39.0264,9.5419,88.1196,29.3606,127.1221,10.2186,20.1113,27.8571,35.8618,47.8179,46.3188,11.7189,6.1416,24.3225,10.6089,35.657,17.3931,6.0149,3.5718,11.7445,7.9722,16.3783,13.2031,3.0131,3.4072,5.5717,7.1675,7.4403,11.2739.0068.0151.0137.0303.0206.0449,1.1609,2.5552-.5193,5.6001-3.2958,6.0068-1.1716.1719-2.3562.251-3.5468.251-6.8561,0-13.9478-2.6323-20.3931-5.4395-26.8794-11.7021-52.6698-26.7192-73.6487-47.2192-21.0059-20.4746-37.0082-46.7393-42.0585-75.6436-3.5021-20.0229-1.7749-40.9668-7.8306-60.3833-11.3458-36.354-47.7777-59.5205-84.5363-69.5205-74.4264-20.2085-157.5112.6157-228.2356-30.1265-9.425-4.0889-19.0176-9.6196-23.5103-18.8477-6.8642-14.0278.6663-23.144,11.4943-25.1074,1.5139-.2876,3.0895-.4346,4.698-.4346M438.6947,71.7808c-1.9119,0-3.8066.1758-5.6318.5225-7.3448,1.3315-13.249,5.3989-16.1579,11.1514-2.1336,4.2192-3.6736,11.2988,1.1055,21.0659,5.444,11.1821,16.7609,17.2236,26.0115,21.2368,40.2861,17.5112,84.84,18.6689,127.927,19.7886,33.7267.8765,68.6017,1.7827,100.9883,10.5762,41.3408,11.2466,71.6495,35.9888,81.0735,66.1851,3.449,11.0586,4.2429,22.605,5.0836,34.8291.5621,8.1748,1.1433,16.6279,2.5946,24.9258,4.8845,27.9556,20.3311,55.7856,43.4938,78.3628,19.2598,18.8198,43.8407,34.5952,75.1428,48.2231,6.6477,2.895,14.507,5.855,22.3889,5.855,1.4576,0,2.8949-.1021,4.2717-.3037,2.8562-.4185,5.3967-2.1992,6.7955-4.7627,1.4148-2.5933,1.5341-5.604.3274-8.2598-.0095-.021-.0193-.042-.0292-.063-1.9775-4.3462-4.7518-8.5571-8.2384-12.4995-4.6589-5.2598-10.5697-10.0327-17.5709-14.1904-6.8337-4.0903-14.1183-7.3696-21.1628-10.541-4.8978-2.2046-9.9623-4.4849-14.7261-6.9814-20.4282-10.7017-36.6511-26.3828-45.6812-44.1553-9.5082-18.7114-11.7903-39.6968-14.2063-61.9146-2.4005-22.0742-4.8828-44.8999-15.1501-65.1992-7.4403-14.6885-18.7594-27.5981-33.6444-38.3726-13.126-9.5015-29.0807-17.228-46.1388-22.3447-30.0269-8.9819-61.7169-10.4805-92.3636-11.9297-2.281-.1079-4.5606-.2153-6.8383-.3262-33.4399-1.6519-65.9211-4.105-95.6461-15.8164-7.3013-2.873-14.5833-6.4062-21.6256-9.8228-10.5457-5.1167-21.4506-10.4077-33.0853-13.8687-3.0546-.9092-6.1865-1.3706-9.3074-1.3706h0Z"/>
      </g>
      <g>
        <path class="cls-2" d="M946.9972,427.1057c-2.5371,0-4.9287-.4751-7.1074-1.4124-9.6387-4.1428-12.2666-16.28-9.2383-25.6206.4365-1.3347.9834-2.5881,1.626-3.7329,5.1904-9.5125,15.2168-15.011,24.3379-19.1316,7.9199-3.5662,16.1797-6.7063,24.168-9.7432,16.6953-6.3469,33.958-12.9099,48.3711-23.5493,32.0791-23.6553,46.3252-63.467,60.1025-101.968,1.6797-4.6965,3.3525-9.3706,5.0488-13.991,1.8418-4.9902,3.7607-10.019,5.7041-14.9507,9.0996-22.8816,18.8047-43.0833,29.6729-61.7666,12.0879-20.7864,25.4951-39.2673,39.8486-54.9292,16.4316-17.9202,34.0127-32.2297,52.2559-42.5315,22.4004-12.6096,44.4521-24.718,67.9648-34.2698,26.3926-10.6968,50.3584-16.2405,73.2705-16.9485,1.2627-.0398,2.5342-.0603,3.8115-.0603,12.8486,0,31.1035,2.1157,45.1035,12.1953,1.3652.9773,2.7373,2.1021,4.0703,3.3386,2.0947,1.8628,4.1094,4.063,5.9492,6.5046,1.1572,1.5676,3.7871,5.6292,3.5029,9.8882-.0488,1.772-.6689,3.4395-1.8389,4.8616-1.2256,1.5093-2.9854,2.5437-5.2188,3.0632-1.6055.4272-3.2881.5261-4.8564.5667-.0215.0005-.1104.0005-.1338-.0002-.7354.0161-1.5635.0239-2.3906.0239-8.1133,0-16.2773-.7578-24.1729-1.491-6.1191-.5681-12.4473-1.1558-18.6562-1.3777-1.9541-.0706-3.9453-.1064-5.9199-.1064-26.2686,0-55.0918,6.3855-85.6689,18.979-44.0459,18.1055-77.8252,42.8706-100.4023,73.6084-20.6836,28.1721-32.3447,62.1665-43.6221,95.0417-9.5596,27.8684-19.4453,56.6858-34.8262,82.2729-26.4795,44.0156-71.4404,81.7393-133.6338,112.1238-5.4111,2.6543-11.2334,5.1123-17.1221,5.1128Z"/>
        <path class="cls-1" d="M1366.8321,5c15.41,0,31.6091,3.0586,43.6448,11.7241,1.3322.9536,2.609,2.0098,3.8312,3.1431,2.0648,1.8374,3.9399,3.9043,5.6523,6.1758,1.7363,2.3511,3.1896,5.4517,3.0054,8.2178-.0361,1.2534-.4355,2.4189-1.2755,3.4399-.9758,1.2007-2.3544,1.8672-3.8547,2.2163-1.4227.3774-2.9155.4653-4.3545.5024l-.0261-.001c-.8107.0161-1.6233.0234-2.4335.0234-14.2725,0-28.4553-2.3564-42.7405-2.8667-2.0026-.0728-4.0096-.1084-6.0101-.1084-29.6982-.001-59.104,7.835-86.6189,19.168-39.2892,16.1499-76.3225,40.2085-101.4653,74.4399-38.4225,52.333-45.1304,121.8667-78.5759,177.5063-30.1492,50.1133-80.0314,85.4883-132.5886,111.1655-5.0121,2.4585-10.6218,4.8594-16.0243,4.8594-2.0867,0-4.1417-.3579-6.1205-1.209-8.0831-3.4746-10.6022-14.0571-7.8477-22.5532.3727-1.1396.8491-2.2505,1.4279-3.2793,4.7748-8.7515,14.1018-13.9736,23.1875-18.0781,24.5011-11.0332,51.3838-17.606,72.9938-33.5591,36.6481-27.0244,50.3252-74.3701,66.0133-117.1089,1.8431-4.9932,3.7378-9.958,5.6838-14.8955,8.3989-21.1182,18.0653-41.7554,29.5076-61.4263,11.3049-19.4399,24.3339-37.9146,39.5305-54.4971,15.0883-16.4551,32.2155-31.0732,51.6427-42.0439,22.0043-12.3862,44.2389-24.6094,67.6769-34.1304,23.0669-9.3496,47.4418-15.9946,72.4058-16.7661,1.2367-.0391,2.483-.0591,3.7328-.0591M1366.8338,0h-.0017c-1.2839,0-2.5928.0205-3.89.0615-23.2106.7173-47.4586,6.3208-74.1267,17.1299-23.6464,9.6055-45.7772,21.7563-68.2513,34.4072-18.4785,10.4346-36.2665,24.9082-52.8754,43.022-14.4763,15.7964-27.9904,34.4229-40.1675,55.3623-10.9283,18.7876-20.6864,39.0981-29.8313,62.0923-1.9586,4.9688-3.884,10.0146-5.7285,15.0117-1.7035,4.6411-3.4091,9.4072-5.0583,14.0166-13.6508,38.1489-27.7662,77.5967-59.2317,100.7993-14.1379,10.437-30.4772,16.6489-47.7758,23.2251-8.0227,3.0498-16.3186,6.2036-24.3036,9.7993-9.4966,4.29-19.9469,10.0439-25.5092,20.2158-.7164,1.2783-1.3239,2.6733-1.8057,4.147-3.3776,10.4175-.3241,23.9937,10.6255,28.7007,2.4919,1.0713,5.2157,1.6152,8.095,1.6152,6.3967,0,12.5403-2.5811,18.2264-5.3706,28.952-14.1445,54.3988-29.9619,75.6261-47.0098,24.7751-19.8965,44.6407-42.1245,59.0449-66.0669,15.5176-25.8149,25.4465-54.7593,35.0485-82.7505,11.2167-32.6982,22.8152-66.5093,43.2734-94.3745,22.3005-30.3618,55.7222-54.8467,99.3358-72.7744,30.2784-12.4712,58.7804-18.793,84.7178-18.7925,1.9467,0,3.908.0356,5.8296.105,6.1415.2192,12.4342.8037,18.5195,1.3687,7.9514.7383,16.1735,1.5015,24.4017,1.5015.8149,0,1.6322-.0073,2.4479-.0229h.0261c.0398,0,.0787,0,.1146-.001,1.6985-.0439,3.5312-.1533,5.4348-.6489,2.7511-.6548,4.9462-1.9717,6.5255-3.915,1.4705-1.7871,2.3021-3.9902,2.3901-6.355.2867-4.8643-2.3647-9.2422-3.9781-11.4263-1.958-2.5981-4.0719-4.9082-6.3125-6.9072-1.3989-1.2944-2.8395-2.4741-4.2826-3.5068-14.5294-10.4609-33.3367-12.6587-46.5535-12.6587h0Z"/>
      </g>
      <g>
        <path class="cls-2" d="M1723.4464,462.5894c-5.0039,0-10.4639-2.0615-14.9795-5.6555-4.4922-3.5981-7.8809-8.1855-11.1592-12.6221-.8184-1.1089-1.6367-2.2166-2.4707-3.3066-22.2275-29.2466-53.8174-43.6267-76.4053-50.5413-22.3027-6.8279-47.3799-10.1467-76.6631-10.1467-5.1963,0-10.6523.106-16.2148.3147-12.0049.4587-24.29,1.3694-36.1709,2.25-17.1299,1.27-34.8428,2.583-52.1846,2.5833-19.7666.0005-36.8887-1.7485-52.3467-5.3464-36.7812-8.5562-73.332-30.0762-105.6992-62.2336-29.751-29.5576-53.2549-64.708-74.2236-98.29-5.0703-8.1147-12.2656-23.1348-3.4854-32.5503,2.6689-2.843,6.2295-4.3425,10.3037-4.3425.542,0,1.1006.0264,1.6602.0784,7.3096.6548,14.1816,5.4475,17.8428,9.3523,6.1406,6.5308,9.6055,14.8528,12.9551,22.9011l.8193,1.9641c30.2529,72.0432,83.9277,123.4321,143.5771,137.4636,14.0957,3.3196,29.6572,4.9331,47.5762,4.9331,16.834,0,34.1543-1.4001,50.9043-2.7542,16.9395-1.3694,34.4551-2.7854,51.6719-2.7854,8.3057,0,15.9004.3193,23.2168.9761,41.0889,3.6765,80.5566,19.02,117.0869,35.053,16.8564,7.4165,33.1064,15.0288,46.6611,26.5752,8.2178,6.9709,13.0361,13.8943,14.7266,21.1626.168.6934.29,1.3804.3594,2.0259.0947.6028.1631,1.2134.2021,1.8159.3887,7.4614-2.8652,16.4683-11.0029,19.8474-2.0312.8474-4.2383,1.2781-6.5576,1.2781Z"/>
        <path class="cls-1" d="M1211.7469,185.2021c.4728,0,.9493.0234,1.4293.0679,6.0238.5396,12.4454,4.5151,16.2502,8.5728,6.3165,6.7178,9.7209,15.6001,13.2927,24.1216,26.9382,64.1494,77.559,122.9937,145.3107,138.9312,15.8585,3.7349,31.9446,4.9995,48.1479,4.9995,33.9298,0,68.4045-5.5396,102.5765-5.54,7.6838,0,15.3496.2803,22.9924.9663,40.4979,3.6235,79.0765,18.5122,116.3063,34.8521,16.2134,7.1338,32.5452,14.689,46.0444,26.189,6.2527,5.3042,12.052,11.8247,13.9131,19.8262.1404.5791.2537,1.1836.3147,1.7871.0886.5513.1514,1.1021.1877,1.6519.3701,7.1221-2.9319,14.6611-9.4678,17.375-1.7964.7495-3.6882,1.0869-5.5984,1.0869-4.7583,0-9.6299-2.0923-13.4233-5.1118-5.3154-4.2573-9.0691-10.0913-13.2014-15.4912-19.0941-25.1255-47.4926-42.1787-77.6588-51.4131-24.9757-7.646-51.2096-10.2559-77.3964-10.2563-5.4419,0-10.88.1128-16.3064.3164-29.3419,1.1216-58.9896,4.832-88.2621,4.832-17.4403,0-34.7441-1.3164-51.78-5.2817-39.8907-9.2793-75.4523-32.709-104.5043-61.5718-29.052-28.8633-52.1716-63.0981-73.8646-97.8408-4.8236-7.7212-11.3043-21.4502-3.7776-29.5215,2.3684-2.5229,5.3265-3.5474,8.475-3.5474M1211.7468,180.2026c-4.7819,0-8.973,1.772-12.1204,5.125-7.3615,7.894-6.2273,20.5298,3.1826,35.5923,21.0479,33.71,44.6512,69.0034,74.5812,98.7388,32.6979,32.4849,69.6617,54.2339,106.8954,62.895,15.6442,3.6411,32.9523,5.4116,52.9128,5.4116,17.4358,0,35.1969-1.3169,52.3733-2.5903,11.8575-.8794,24.1189-1.7881,36.0797-2.2451,5.527-.2075,10.9502-.313,16.1156-.313,29.0331.0005,53.8708,3.2837,75.9326,10.0371,31.4329,9.6226,58.1187,27.2578,75.1415,49.6577.8281,1.082,1.6575,2.2046,2.4595,3.29,3.3716,4.5635,6.8584,9.2827,11.5972,13.0786,4.9619,3.9492,10.9895,6.209,16.5493,6.209,2.6509,0,5.1824-.4956,7.5237-1.4727,8.0132-3.3271,13.0542-12.2695,12.5354-22.249-.0012-.0229-.0024-.0464-.0042-.0698-.0432-.6543-.1165-1.3188-.2183-1.9766-.082-.7388-.2209-1.5151-.4141-2.311-1.8057-7.7646-6.8916-15.1265-15.5376-22.4609-13.802-11.7578-30.2336-19.4585-47.2654-26.9526-36.7296-16.1201-76.4276-31.5469-117.8744-35.2554-7.39-.6636-15.0571-.9863-23.4379-.9863-17.3177.0005-34.884,1.4204-51.8719,2.7935-16.7014,1.3506-33.9713,2.7466-50.7047,2.7466-17.7235,0-33.0979-1.5918-47.0018-4.8662-58.8754-13.8496-111.9017-64.6909-141.8468-136.0005-.2717-.6479-.5437-1.3013-.816-1.9561-3.4363-8.2544-6.9895-16.79-13.444-23.6548-3.9576-4.2202-11.4293-9.4092-19.4468-10.1274-.6196-.0576-1.2561-.0874-1.8756-.0874h0Z"/>
      </g>
      <g>
        <path class="cls-2" d="M1222.5557,389.5977c-26.0088,0-54.1006-2.6636-88.4082-8.3821-15.7666-2.6213-31.752-5.6606-47.2109-8.5999-42.3174-8.0454-86.0752-16.3652-129.6904-16.9153-1.5771-.0195-3.165-.0291-4.7441-.0291-36.707,0-74.2988,5.2402-110.6523,10.3079-36.1211,5.0354-73.4727,10.2422-109.7197,10.2422-29.501.0002-55.5273-3.4253-79.5664-10.4714-69.5566-20.3943-123.2705-71.8115-175.2153-121.5356-28.8306-27.5977-58.6426-56.135-90.9614-79.2598-67.2368-48.0825-149.8906-74.9338-232.7354-75.6072-2.9102-.0234-5.4814-1.6948-6.7104-4.3621-1.2017-2.6096-.814-5.5798,1.0132-7.7517.0161-.0195.0576-.0671.0747-.0859,2.7354-3.0867,5.8999-5.8494,9.3979-8.2029,5.1724-3.4866,11.1479-5.2158,16.311-6.4475,2.354-.572,4.7065-1.0779,6.6963-1.4968,3.7153-.8162,7.6528-1.4919,11.6816-2.0037,6.146-.7786,12.5347-1.1731,18.9897-1.1731,6.9165,0,14.062.4524,21.2378,1.3447,30.9663,3.8435,63.9937,15.5703,100.9697,35.8506,57.7725,31.7107,115.1743,75.4905,180.6479,137.7783,3.6274,3.4519,7.2529,6.9292,10.8862,10.4138,35.7583,34.2954,72.7339,69.7588,118.8413,87.3848,24.5449,9.3865,51.9434,13.9495,83.7627,13.9495,32.04,0,65.4629-4.5828,97.7852-9.0146,32.9336-4.5156,66.9873-9.1851,100.2588-9.1851,3.0557,0,6.1064.0398,9.0693.1179,38.1074,1.001,76.1748,8.7939,112.9883,16.3303,39.0566,7.9956,79.4434,16.2634,119.5234,16.2634,4.4775,0,8.9463-.1035,13.2822-.3074,16.8877-.7905,34.0088-3.2173,50.5654-5.5642,20.3701-2.8872,41.4346-5.873,62.3809-5.873,2.0283,0,4.0557.0283,6.0273.0835,6.876.198,14.9951,3.5022,19.7451,8.0354,5.0986,4.8755,5.8271,10.583,1.9502,15.2693-2.1699,2.6357-5.2959,3.8794-8.3105,4.927-26.8809,9.3997-56.375,13.9697-90.1611,13.9697Z"/>
        <path class="cls-1" d="M211.1074,60.3237c6.9935,0,13.9913.4634,20.9273,1.3257,35.3775,4.3911,69.0363,18.5371,100.0763,35.5615,66.4031,36.4482,125.2623,85.2026,180.127,137.3979,39.7484,37.8247,79.3035,78.729,130.5577,98.3223,27.4222,10.4868,55.774,14.1143,84.6553,14.1143,64.7158,0,132.1414-18.1997,198.0433-18.1997,3.0063,0,6.0039.0381,9.0035.1172,78.3859,2.0586,154.5115,32.5942,232.5785,32.5942,4.463,0,8.9226-.0996,13.3992-.3101,37.7814-1.769,75.0598-11.4341,112.8293-11.4341,1.9849,0,3.9697.0264,5.9574.0825,6.2694.1802,13.7385,3.1929,18.0897,7.3447,3.6638,3.5039,5.1086,7.8071,1.7499,11.8672-1.788,2.1709-4.5642,3.2412-7.205,4.1587-28.7257,10.0449-58.8835,13.8315-89.3411,13.8315-29.3837,0-59.0458-3.5225-87.9967-8.3481-58.9612-9.8022-117.485-24.7944-177.2815-25.5488-1.588-.0195-3.1871-.0293-4.7761-.0293-73.491-.002-147.9581,20.5503-220.373,20.5503-26.6167,0-52.9532-2.7764-78.8619-10.3706-107.2797-31.4551-174.5115-135.3799-265.4252-200.4297-67.8118-48.4941-150.8016-75.396-234.1695-76.0737-4.0968-.0332-6.4418-4.8691-3.8046-8.0049.0086-.0098.0168-.0195.0246-.0283,2.6211-2.957,5.6512-5.5889,8.9303-7.7954,4.6126-3.1089,10.0205-4.7837,15.496-6.0898,2.2117-.5376,4.4477-1.0225,6.631-1.4824,3.7886-.832,7.6245-1.4795,11.4817-1.9697,6.1893-.7837,12.4313-1.1533,18.6766-1.1533M211.1074,55.3237c-6.56,0-13.0551.4014-19.3047,1.1929-4.1066.522-8.1185,1.2104-11.926,2.0464-1.9672.4141-4.3443.9253-6.7394,1.5073-5.3603,1.2788-11.6034,3.0913-17.1097,6.8027-3.67,2.4692-6.9943,5.3721-9.8776,8.625-.0155.0176-.0453.0518-.0607.0693-.0129.0151-.036.042-.0488.0571-2.4568,2.9214-2.9817,6.9087-1.37,10.4072,1.6381,3.5557,5.0718,5.7842,8.9609,5.8159,82.3353.6689,164.4799,27.355,231.3014,75.1406,32.1732,23.0205,61.9197,51.4951,90.6868,79.0322,26.0151,24.9028,52.9158,50.6533,81.4751,72.2197,32.2272,24.3359,63.2252,40.6611,94.7651,49.9087,24.2714,7.1143,50.5273,10.5723,80.2686,10.5723,36.4191,0,73.8558-5.2188,110.0602-10.2661,36.271-5.0562,73.7769-10.2847,110.3127-10.2837,1.5685,0,3.147.0093,4.7144.0288,43.3933.5474,87.0409,8.8462,129.2513,16.8711,15.4741,2.9424,31.4752,5.9844,47.272,8.6108,34.4438,5.7412,62.6667,8.4155,88.8168,8.4155,34.0721,0,63.8358-4.6162,90.9916-14.1118,3.1937-1.1094,6.8278-2.5596,9.4139-5.6997,4.7264-5.7134,3.9039-12.8662-2.1536-18.6597-5.2457-5.0054-13.8448-8.5117-21.4017-8.729-2.0011-.0562-4.0526-.0845-6.1011-.0845-21.1223,0-42.2748,2.998-62.7308,5.8975-16.5002,2.3389-33.5623,4.7568-50.3324,5.542-4.2983.2021-8.7274.3047-13.1654.3047-39.8265,0-80.0867-8.2417-119.0211-16.2124-36.9204-7.5581-75.0978-15.3735-113.4261-16.3804-2.9803-.0786-6.054-.1187-9.1348-.1187-33.4419,0-67.5819,4.6812-100.5977,9.2085-32.2393,4.4204-65.5759,8.9912-97.4457,8.9912-31.5083,0-58.615-4.5088-82.8693-13.7847-45.6346-17.4448-82.424-52.7295-118.0022-86.8521-3.636-3.4873-7.2646-6.9673-10.8948-10.4219-65.6338-62.4404-123.201-106.3413-181.1678-138.1587-37.2595-20.436-70.5798-32.2573-101.8663-36.1406-7.2763-.9048-14.5248-1.3638-21.5431-1.3638h0Z"/>
      </g>
      <g>
        <path class="cls-2" d="M1110.2794,323.5835c-4.6074.0002-9.292-.0999-13.9238-.2969-90.1006-3.8037-152.9092-43.6216-176.5537-58.6113-14.0322-8.927-62.7207-42.4993-100.2041-99.791-28.5537-43.6694-25.1504-62.4575-20.5811-69.7703,4.376-7.0835,12.7139-12.2329,19.8203-12.2329,1.2773,0,2.5205.1584,3.6953.4712.8701.2354,1.6387.5283,2.3594.8984,7.8154,3.8096,9.9785,14.8557,12.7188,28.8408,1.5859,8.1018,3.3848,17.2844,6.5596,26.6724,13.1797,39.0532,42.8486,61.6116,80.4111,90.1719,12.2207,9.2954,34.9668,26.5977,68.8525,40.5535,34.1543,14.0645,70.9004,21.196,109.2178,21.196,23.416,0,47.2471-2.7524,68.918-7.9597,29.7461-7.1616,46.4111-16.2942,74.0215-31.4246,7.8389-4.2957,16.7236-9.1646,26.9648-14.5579,11.8662-6.2288,119.2324-61.7625,234.4092-93.7004,57.2207-15.8706,108.8496-23.9177,153.4531-23.9177,62.4404,0,95.4531,16.4231,100.9258,23.915,2.2529,3.0845,4.0996,6.6492,5.4902,10.5959,1.2451,3.4343,1.6582,5.9114,1.6748,6.0151.2051,1.2693,1.8828,12.5125-1.8809,18.1204-2.2285,3.293-6.2959,4.8904-12.4424,4.8904-11.085,0-28.0713-5.3333-44.498-10.4907-7.8564-2.4668-15.9795-5.0173-23.127-6.8682-11.3701-2.937-22.8398-4.3049-36.0938-4.3049-22.7959,0-49.502,3.9402-89.9258,9.9043-102.3086,15.092-172.7373,48.5288-175.6855,49.9448-24.9482,12.0293-40.7822,22.1394-56.0947,31.917-19.2461,12.2886-37.4248,23.896-70.8652,37.1582-32.7939,13.0054-82.3525,32.6597-147.6162,32.6611Z"/>
        <path class="cls-1" d="M818.8365,85.3809c1.0414,0,2.0637.124,3.0521.3872.6487.1758,1.2695.4028,1.8621.707,10.8286,5.2793,9.4979,28.7969,18.0509,54.0894,13.4178,39.7598,44.1699,63.1553,81.2672,91.3613,13.2526,10.0811,35.901,27.0732,69.413,40.875,40.1954,16.5527,78.7206,21.3843,110.1687,21.3843,33.119,0,58.3892-5.3579,69.5028-8.0288,38.7006-9.3174,55.7212-22.0566,101.5674-46.2012,10.6714-5.6016,117.6617-61.2676,233.9125-93.5034,64.361-17.8511,114.647-23.8257,152.7844-23.8271,65.2451-.002,94.9553,17.48,98.908,22.8901,2.5154,3.4453,4.1365,7.0737,5.1516,9.9526,1.1868,3.2759,1.5647,5.5874,1.5647,5.5874.7542,4.6753,1.0234,12.5791-1.4895,16.3237-1.8206,2.6909-5.4731,3.7837-10.3662,3.7837-15.9509,0-45.094-11.6069-66.9988-17.2793-11.8395-3.0581-23.5579-4.3848-36.7214-4.3848-22.9324-.0005-50.2566,4.0244-90.2904,9.9312-94.3109,13.9126-162.5369,43.5049-176.4021,50.1646-56.9485,27.4595-67.4279,45.4585-126.7998,69.0044-34.8733,13.8306-83.3516,32.4858-146.6953,32.4858-4.5322,0-9.1313-.0957-13.8164-.2949-87.6339-3.6997-149.0546-41.5732-175.3209-58.2256-8.6522-5.5039-60.0347-38.8008-99.4514-99.0479-30.9766-47.3765-22.9922-63.1729-20.553-67.0767,3.7434-6.0586,11.0867-11.0581,17.7-11.0581M818.8365,80.3809c-8.0404,0-17.0681,5.5229-21.9535,13.4302-5.9545,9.5293-7.2233,29.854,20.6217,72.4409,37.7589,57.7129,86.8164,91.5381,100.9526,100.5303,23.8049,15.0918,87.022,55.1704,177.7936,59.0024,4.6614.1982,9.3813.2993,14.0273.2993,65.7399,0,115.567-19.7617,148.5387-32.8379,33.6636-13.3506,51.9406-25.0205,71.2905-37.3755,15.2507-9.7378,31.0205-19.8066,55.8375-31.7729,2.9272-1.4062,73.0229-34.6846,174.9602-49.7217,40.3153-5.9487,66.9492-9.8784,89.5605-9.8779,13.0387,0,24.3098,1.3428,35.4713,4.2261,7.0823,1.834,15.1753,4.375,23.0017,6.832,16.6069,5.2144,33.7791,10.606,45.2473,10.606,6.9414,0,11.8223-2.0127,14.5076-5.9819,4.2192-6.2871,2.6431-17.6978,2.2842-19.9219-.0479-.2939-.4922-2.8848-1.7996-6.4941-1.4585-4.1362-3.4194-7.917-5.8145-11.1978-5.946-8.1387-38.9292-24.9419-102.9358-24.9419-44.8436.0015-96.6974,8.0796-154.1313,24.0088-115.4332,32.0093-223.0131,87.6548-234.8999,93.8945-10.2649,5.4062-19.1593,10.2803-27.0066,14.5806-27.4283,15.0303-43.9838,24.103-73.4073,31.187-21.479,5.1611-45.1086,7.8896-68.3324,7.8896-37.9884,0-74.4139-7.0679-108.2648-21.0078-33.5852-13.8315-56.1611-31.0049-68.2897-40.231-37.2229-28.3013-66.6232-50.6553-79.5569-88.9805-3.1226-9.2339-4.9043-18.3301-6.4762-26.3555-2.8678-14.6411-5.1346-26.2114-14.074-30.6064-.8633-.439-1.7772-.7866-2.792-1.0615-1.4055-.3745-2.8654-.5615-4.3605-.5615h0Z"/>
      </g>
      <g>
        <path class="cls-2" d="M1447.8624,232.7432c-23.9219,0-48.3799-2.1265-72.6924-6.3201-44.0723-7.5823-77.9619-20.8313-103.6064-40.5037-14.8281-11.3853-27.5381-25.4172-39.8281-38.9873-8.3193-9.1853-16.9219-18.6831-26.0645-27.2188-22.9629-21.4429-47.959-33.2517-70.3848-33.2517-3.7607,0-7.5146.3252-11.1572.967-19.999,3.5222-36.0771,15.896-53.0996,28.9961-10.541,8.113-21.4424,16.5024-33.3633,22.5869-14.8086,7.5508-31.6416,11.542-48.6797,11.542-12.0898.0002-23.8701-1.9734-35.0117-5.866-20.501-7.1562-38.2178-20.3792-55.3506-33.1667-17.334-12.937-35.2568-26.3142-55.7705-33.0256-9.2852-3.0396-19.1377-4.5808-29.2822-4.5808-30.4512,0-59.5928,13.5405-77.9531,36.2209-.7549.9316-1.4971,1.8821-2.2422,2.834-3.6572,4.6772-7.4385,9.5139-12.8213,12.5918-2.8867,1.6594-6.3506,2.5752-9.748,2.5752-4.2031.0005-7.9355-1.3926-10.5176-3.9238-.5947-.5437-1.1396-1.2065-1.7119-2.0806-3.8037-5.9333-2.3037-14.0732,4.2119-22.9402,9.2656-12.6121,19.4795-21.978,31.2256-28.6331,10.5088-5.9546,22.9111-10.7205,39.0303-14.998,18.6973-4.9619,35.1172-7.4724,50.2002-7.6746.665-.0088,1.333-.0134,2-.0134,24.542,0,47.2842,5.8784,65.7676,16.9998,11.1357,6.6956,20.9561,15.7542,30.4531,24.5146,14.8945,13.7402,28.9639,26.7183,47.5469,31.1895,4.4189,1.0627,9.042,1.6018,13.7422,1.6018,18.4043,0,38.8516-8.0261,62.5098-24.5371,4.376-3.0493,8.8047-6.2783,13.0879-9.4011,18.4893-13.48,37.6074-27.4189,60.1807-32.8438,6.75-1.6201,13.7598-2.4419,20.834-2.4419,34.1934,0,70.7246,19.1526,97.7227,51.2329,5.6377,6.7117,10.9043,13.8906,15.9971,20.833,9.002,12.272,18.3115,24.9619,29.7637,35.1072,31.3018,27.752,76.8174,35.1733,113.3896,41.1362,27.0283,4.4121,51.3721,8.0645,75.5986,8.0645,19.0889,0,35.7432-2.3154,50.9131-7.0784,2.4072-.7339,4.8779-1.5845,7.5742-2.606l1.3955-.5388c4.5996-1.7834,9.3555-3.6277,14.3848-3.6277,1.2754,0,2.5283.1233,3.7236.3667,6.4932,1.3257,11.6191,7.9197,10.7559,13.8347-.1895,1.3735-.7119,2.6887-1.5518,3.8892-2.2109,3.1641-5.8213,4.4128-9.3301,5.4207-32.1611,9.1274-66.4238,13.7544-101.8418,13.7544Z"/>
        <path class="cls-1" d="M825.2452,50.373c22.2957,0,45.2799,5.0898,64.4789,16.6416,27.8582,16.75,47.1046,48.3896,78.7034,55.9927,4.7653,1.146,9.552,1.6709,14.328,1.6709,22.5745,0,44.9353-11.7236,63.9398-24.9868,23.0243-16.0435,45.1218-35.3032,72.4224-41.8638,6.7244-1.6143,13.5027-2.3726,20.25-2.3726,36.2841,0,71.8718,21.8984,95.8093,50.3423,15.5964,18.5669,27.865,40.123,46.017,56.2017,30.8728,27.3726,73.9454,35.0967,114.644,41.7324,24.9801,4.0781,50.7401,8.0967,76.0009,8.0967,17.6052,0,34.9647-1.9502,51.6622-7.1929,2.5847-.7881,5.1466-1.6816,7.7104-2.6533,4.8179-1.8452,9.8409-4.0044,14.8942-4.0044,1.0745,0,2.1498.0977,3.2255.3164,5.0684,1.0352,9.4648,6.3379,8.7809,11.0244-.1323.9634-.4998,1.9204-1.1268,2.8169-1.7725,2.5371-4.9924,3.5952-7.9714,4.4507-32.8519,9.3237-66.9763,13.6572-101.1509,13.6572-24.2048,0-48.4302-2.1719-72.2677-6.2837-36.4998-6.2798-73.1194-17.4775-102.5101-40.0234-24.6581-18.9326-42.9974-44.8467-65.7076-66.0503-19.859-18.5439-45.5149-33.9238-72.0905-33.9238-3.8495-.0005-7.7177.3223-11.5911,1.0049-33.5565,5.9092-56.8118,36.3257-87.1669,51.8179-14.65,7.4702-31.1,11.269-47.5427,11.269-11.6108,0-23.2173-1.8936-34.1873-5.7261-40.897-14.2759-69.9865-52.7349-111.1682-66.2085-9.7108-3.1787-19.8784-4.7041-30.0594-4.7046-30.3055-.001-60.7614,13.5103-79.8962,37.1479-4.3646,5.3906-8.3544,11.394-14.3619,14.8286-2.5225,1.4502-5.5576,2.2456-8.5063,2.2456-3.3287,0-6.5476-1.0132-8.7987-3.2407-.5098-.459-.938-1.02-1.3387-1.6333-3.9281-6.126-.1924-14.2017,4.1342-20.0908,8.3579-11.3755,18.1135-20.9517,30.4431-27.938,11.9889-6.793,25.1666-11.2344,38.4397-14.7568,16.205-4.3008,32.8279-7.3662,49.5924-7.5908.6543-.0088,1.3108-.0132,1.9664-.0132M825.2452,45.373c-.6781,0-1.3572.0044-2.0338.0137-15.2914.2046-31.9108,2.7422-50.8076,7.7578-16.3315,4.334-28.9219,9.1763-39.6219,15.2393-12.0586,6.8325-22.5283,16.4258-32.0076,29.3276-7.1708,9.7607-8.7028,18.9053-4.314,25.75.7013,1.0732,1.3677,1.8818,2.1101,2.5664,3.05,2.9731,7.3905,4.6089,12.2365,4.6089,3.8274,0,7.7334-1.0337,10.9985-2.9111,5.7982-3.3145,9.7335-8.3472,13.5392-13.2144.7361-.9414,1.4706-1.8813,2.2166-2.8027,17.8914-22.1011,46.3063-35.2954,76.0101-35.2939,9.8813.0005,19.4717,1.5,28.5042,4.4565,20.1244,6.584,37.0903,19.2466,55.0522,32.6528,17.285,12.9009,35.1584,26.2412,56.0234,33.5244,11.4058,3.9849,23.463,6.0054,35.8352,6.0054,17.4305,0,34.656-4.0854,49.814-11.8145,12.1289-6.1904,23.1226-14.6514,33.7543-22.8335,16.7716-12.9077,32.613-25.0991,52.0085-28.5146,3.5005-.6167,7.1084-.9297,10.7238-.9292,21.7896,0,46.1799,11.5698,68.6781,32.5781,9.0651,8.4639,17.6312,17.9219,25.9153,27.0684,12.3657,13.6528,25.1525,27.771,40.1597,39.2935,25.9757,19.9263,60.2252,33.332,104.7076,40.9854,24.4508,4.2173,49.0511,6.356,73.1154,6.356,35.6494,0,70.1407-4.6587,102.516-13.8472,2.9269-.8403,7.8008-2.2402,10.7052-6.397,1.0685-1.5278,1.7356-3.2104,1.9816-5,1.0543-7.2246-4.8933-15.0024-12.734-16.604-1.3624-.2773-2.7832-.4175-4.226-.4175-5.4971,0-10.6997,2.0176-15.2899,3.7974-.4661.1807-.9304.3608-1.3928.5376-2.6245.9951-5.0439,1.8276-7.38,2.54-14.9639,4.6982-31.3729,6.9756-50.2042,6.9756-24.0392,0-48.277-3.6372-75.1952-8.0312-36.2548-5.9111-81.3739-13.2681-112.1326-40.5391-11.2557-9.9702-20.0741-21.9912-29.4102-34.7183-5.1162-6.9741-10.4065-14.186-16.0953-20.958-12.738-15.1362-28.1921-27.9307-44.6942-37.0034-17.9955-9.8936-36.9946-15.1235-54.9436-15.1235-7.2708,0-14.4767.8452-21.4172,2.5112-23.0598,5.5415-42.3835,19.6299-61.0712,33.2549-4.2725,3.1147-8.6903,6.3359-13.0425,9.3682-23.2272,16.2104-43.2061,24.0894-61.0813,24.0894-4.5038,0-8.931-.5156-13.1587-1.5322-17.9504-4.3188-31.7871-17.083-46.4362-30.5962-9.589-8.8457-19.5045-17.9927-30.8601-24.8203-18.8707-11.3545-42.0586-17.3564-67.0553-17.3564h0Z"/>
      </g>
      <g>
        <path class="cls-2" d="M1274.6837,469.8711c-12.3389.0002-17.2559-5.2136-19.207-9.5874-1.5742-3.5486-1.5635-7.4963.0303-11.4214,2.2666-5.49,7.4854-10.2563,13.2998-12.1562,3.4199-1.1133,7.1074-1.6313,11.6074-1.6313,3.3965,0,6.834.2998,10.1582.5898,1.7617.1536,3.584.3125,5.3486.4209,1.6807.0945,3.458.1538,5.5791.1858h.1738c35.2764,0,71.7939-18.936,108.5391-56.2817,9.832-9.9778,19.3145-20.6768,28.4854-31.0234,14.9043-16.8154,30.3164-34.2031,47.7803-49.1553,27.627-23.6714,54.5889-34.697,84.8506-34.697,3.1104,0,6.3096.1172,9.5098.3484,11.7734.8435,23.5869,2.73,35.0107,4.5542,14.0967,2.251,28.6729,4.5786,43.0791,4.9075,1.1719.0259,2.3496.0386,3.5205.0386,39.042,0,81.5869-14.573,126.4521-43.3142l1.1211-.7188c7.0039-4.4944,14.2461-9.1418,22.6982-10.7373,1.6807-.3132,3.4082-.4714,5.1387-.4714,3.9238,0,7.7285.8086,11.0029,2.3386,3.9248,1.8184,6.9922,4.6208,8.8633,8.1011,4.5781,8.5522,1.1133,18.7832-4.3496,25.1301-5.5957,6.5354-13.5781,10.4868-20.6211,13.9734-42.6797,21.0908-95.793,47.3379-149.9854,47.3379-5.2744,0-10.5586-.2473-15.7051-.7351-11.0615-1.04-22.2256-3.2632-33.0225-5.4131-14.5254-2.8923-29.5449-5.8831-44.0713-5.8831-6.7568,0-12.9287.623-18.8682,1.9048-18.6436,4.0564-36.6328,14.9446-56.6064,34.2644-10.3691,10.0232-20.1689,21.0757-29.6455,31.7644-16.1621,18.2283-32.874,37.0771-53.0537,51.5876-37.957,27.2827-85.4209,37.4343-126.9297,44.8079-3.6514.6448-7.0762.9714-10.1836.9714Z"/>
        <path class="cls-1" d="M1817.8587,222.2207c3.4497-.0005,6.9167.6885,9.9446,2.1035,3.251,1.5054,6.0076,3.8335,7.7197,7.02,3.7959,7.0898,1.2063,16.2178-4.0413,22.3154-5.2214,6.0981-12.6487,9.8057-19.8359,13.3638-47.0791,23.2646-96.9971,47.0786-148.8762,47.0786-5.1403,0-10.2903-.2334-15.4684-.7241-25.8959-2.4346-51.7567-11.3071-77.3319-11.3076-6.4847,0-12.9504.5703-19.3945,1.9609-22.2839,4.8491-41.4119,19.0435-57.8167,34.9116-28.1029,27.165-50.6781,60.2939-82.4208,83.1191-36.441,26.1934-81.7068,36.5244-125.9076,44.376-3.0731.543-6.4436.9331-9.7465.9331-7.2313,0-14.1418-1.8701-16.9236-8.106-1.3749-3.0981-1.1747-6.4131.0635-9.4624,1.9952-4.8315,6.6132-9.0386,11.7598-10.7207,3.5082-1.1416,7.1427-1.5073,10.8303-1.5073,5.0789,0,10.2592.6934,15.3546,1.0063,1.9054.1069,3.7863.1611,5.6941.1899h.2117c42.0867,0,80.5024-26.7217,110.3212-57.0278,25.827-26.2114,48.0447-56.0039,76.1096-80.0332,25.0292-21.4463,50.9243-34.0962,83.2249-34.0962,3.0533,0,6.1578.1128,9.3304.3418,26.2209,1.8789,51.955,8.8682,78.2128,9.4673,1.1917.0264,2.3887.0396,3.5781.0396,45.5419,0,89.3561-19.082,127.7994-43.709,7.1914-4.6035,14.5227-9.5166,22.9346-11.105,1.5249-.2842,3.0979-.4277,4.6741-.4277M1817.8592,217.2207h-.0002c-1.8843,0-3.7651.1724-5.5901.5122-8.9424,1.6885-16.3933,6.4702-23.5989,11.0942l-1.1157.7153c-44.458,28.4795-86.5483,42.9199-125.1036,42.9199-1.1541,0-2.3207-.0132-3.4675-.0386-14.2336-.3247-28.7253-2.6387-42.7399-4.8765-11.4768-1.8325-23.3445-3.7275-35.2262-4.5791-3.2578-.2354-6.5182-.3545-9.6877-.3545-16.3802,0-31.5277,3.0776-46.3081,9.4097-13.3966,5.7393-26.5364,14.2075-40.17,25.8896-17.5929,15.063-33.0629,32.5161-48.0236,49.395-9.1494,10.3223-18.6106,20.9966-28.3944,30.9258-36.2601,36.8525-72.1783,55.5371-106.7595,55.5371h-.1721c-2.0708-.0317-3.8046-.0894-5.4536-.1821-1.7054-.105-3.4307-.2554-5.2572-.4146-3.3781-.2949-6.8711-.5996-10.3774-.5996-4.77,0-8.7031.5571-12.3774,1.7529-6.585,2.1519-12.2667,7.3496-14.834,13.5664-1.84,4.5312-1.8403,9.2798-.0125,13.3994,2.2566,5.0581,7.8135,11.0776,21.4939,11.0776,3.2522,0,6.8241-.3398,10.6161-1.0093,41.785-7.4224,89.5736-17.6509,127.9563-45.2397,20.4056-14.6733,37.2113-33.6274,53.4637-51.9575,9.4462-10.6538,19.214-21.6704,29.5137-31.6265,19.625-18.9834,37.23-29.666,55.4049-33.6211,5.7555-1.2417,11.7544-1.8467,18.3313-1.8467,14.2809.0005,28.514,2.8345,43.5829,5.835,10.8593,2.1626,22.0881,4.3984,33.281,5.4507,5.2205.4946,10.5835.7461,15.9364.7461,54.7749,0,108.1797-26.3906,151.0913-47.5962,7.2612-3.5947,15.4875-7.667,21.4189-14.5942,6.011-6.9854,9.7864-18.3359,4.6511-27.9272-2.1323-3.9688-5.5984-7.147-10.0269-9.1973-3.5872-1.6768-7.7578-2.5664-12.0449-2.5664h0Z"/>
      </g>
      <g>
        <path class="cls-2" d="M1215.5157,441.8564c-3.0205,0-12.21,0-16.4531-6.1179-2.0889-3.0503-2.6465-7.1777-1.6182-11.948,1.209-5.6479,4.1006-10.4402,5.2881-12.2383,2.6064-3.9832,7.5215-9.6016,16.0996-13.6992l.1016-.0483c22.7559-10.7881,71.2383-45.1001,95.4316-74.3208,16.0391-19.3906,22.7783-38.0015,29.9121-57.7051,6.4834-17.9602,8.1865-29.3071,9.9893-41.3203,1.6523-11.0137,3.3604-22.4023,8.6768-39.8755,5.9023-19.4517,14.8223-48.8501,35.291-74.4971,24.5391-30.802,54.9766-42.9263,84.4121-54.6511,31.2041-12.3955,57.8564-17.6838,89.1191-17.6838,14.0371,0,28.0273.9495,44.2266,2.0483,19.7676,1.3411,42.1719,2.8613,69.5566,2.8613,12.5059,0,24.835-.3081,37.6934-.9419l.4531-.0222c2.4717-.1228,5.8584-.291,9.5488-.291,17.7607,0,28.5332,3.9204,32.9326,11.9854.9365,1.7434,1.5605,3.5801,1.8652,5.4741,1.2588,6.8884-1.0479,15.0591-5.8867,20.7627-5.29,6.1985-13.2363,9.0825-25.0117,9.0825-10.8154,0-23.7324-2.4663-37.4072-5.0774-3.792-.7241-7.6562-1.4619-11.5674-2.1653-.4951-.0886-50.2539-8.895-100.9287-8.895-6.2051,0-12.2559.1326-17.9844.3943-47.5264,2.158-86.2656,15.9067-118.4326,42.0317-7.3486,5.9619-29.709,24.1021-44.9092,54.6216-6.6895,13.4126-8.3398,21.8159-11.3359,37.0713-2.0371,10.3713-4.8271,24.575-10.332,45.7124-9.6152,36.8977-14.4414,55.418-24.3135,74.0195-15.1777,28.54-32.9111,44.8452-59.7539,69.5261-8.3037,7.6155-51.2266,45.4871-83.8271,45.9031l-.8359.0039Z"/>
        <path class="cls-1" d="M1571.7657,40.251c31.441,0,64.3953,4.9097,113.7825,4.9097,11.6335,0,24.1643-.272,37.8171-.9448,2.5601-.1265,6.0273-.3105,9.8794-.3105,11.2358-.0005,25.7632,1.564,30.7378,10.6826.7693,1.4341,1.325,3.019,1.5911,4.6733,1.1516,6.3081-1.1023,13.7725-5.3242,18.7495-5.1882,6.0786-13.2156,8.1997-23.105,8.1997-13.5251,0-30.5342-3.9668-48.533-7.2031,0,0-49.8707-8.9346-101.3727-8.9351-6.037,0-12.0925.1226-18.0967.397-27.4874,1.248-76.1526,7.063-119.895,42.5889-8.8074,7.1455-30.4484,25.085-45.5712,55.4473-11.5424,23.145-8.3864,31.5762-21.8485,83.2681-9.5817,36.7705-14.3722,55.1431-24.1029,73.478-14.9811,28.1704-32.3832,44.1665-59.2653,68.8833-5.6659,5.1963-49.4215,44.8008-82.14,45.2178-.2482.002-.5186.0039-.8071.0039-3.8768,0-11.1237-.3252-14.3945-5.0425-1.8817-2.7471-2.0131-6.3594-1.2285-9.9966.9061-4.2354,3.0156-8.4888,4.9292-11.3877,5.442-8.314,13.3917-12.0068,15.1943-12.8701,22.9807-10.894,71.7111-45.3091,96.2782-74.9814,16.3065-19.7139,23.2645-38.9126,30.3369-58.4482,12.3867-34.3105,7.5031-44.4907,18.7074-81.3193,5.9215-19.5161,14.7013-48.4146,34.8535-73.665,23.6796-29.7241,53.0212-41.7944,83.3831-53.8882,34.7603-13.8076,60.9143-17.5063,88.1941-17.5063M1571.7658,35.251c-31.5983,0-58.5261,5.3413-90.04,17.8594-29.7432,11.8477-60.4944,24.0962-85.448,55.4199-20.7662,26.0195-29.7695,55.6929-35.7273,75.3286-5.3683,17.645-7.0909,29.126-8.7568,40.229-1.7837,11.8872-3.4684,23.1147-9.8689,40.8442-7.0548,19.4873-13.7198,37.8975-29.4868,56.959-23.9764,28.959-72.024,62.9639-94.5671,73.6504l-.1187.0566c-9.0988,4.3477-14.3306,10.3359-17.1174,14.5933-1.2544,1.9004-4.337,7.0127-5.6351,13.0801-1.1754,5.4497-.4869,10.248,1.9929,13.8682,5.0038,7.2168,15.1766,7.2168,18.5195,7.2168.3024,0,.5857-.002.8457-.0039,14.7574-.188,32.9071-7.479,53.97-21.6699,14.9694-10.0854,27.0233-20.7471,31.511-24.8628,27.0629-24.8833,44.9225-41.3042,60.3003-70.2207,10.0129-18.8667,14.8634-37.481,24.5269-74.5649,5.5243-21.2124,8.3226-35.4595,10.3657-45.8623,3.0504-15.5308,4.5815-23.3262,11.1188-36.4351,14.9597-30.0352,37.0032-47.9189,44.2468-53.7959,31.7394-25.7773,70.0005-39.3442,116.9717-41.4771,5.6919-.2598,11.7037-.3916,17.8699-.3916,50.4738.0005,99.9965,8.7681,100.4908,8.8569,3.8914.6992,7.78,1.4419,11.5403,2.1597,13.7939,2.6338,26.8225,5.1216,37.8745,5.1216,12.3894,0,21.1912-3.2559,26.908-9.9536,5.2998-6.2476,7.8245-15.2012,6.45-22.8384-.3518-2.1514-1.0627-4.2349-2.1135-6.1938-4.895-8.9727-16.3848-13.3193-35.1421-13.3193-3.7561,0-7.1785.1699-9.6775.2944l-.4507.022c-12.8162.6318-25.106.939-37.5706.939-27.2999,0-49.6589-1.5171-69.3859-2.8555-16.2444-1.1021-30.2737-2.0542-44.3962-2.0542h0Z"/>
      </g>
      <g>
        <path class="cls-2" d="M114.5977,444.7642c-6.4609.0005-11.9863-2.9141-15.1597-7.9966-4.916-7.802-2.9707-17.8892,4.5303-23.4548.6343-.4705,1.2739-.9333,1.9136-1.3962.6284-.4548,1.2568-.9092,1.8789-1.3706,5.0254-3.6309,10.1675-7.1934,15.1406-10.6384,8.9497-6.2009,18.2041-12.6125,26.895-19.5005,14.6528-11.6335,29.147-23.9873,43.1636-35.9346,13.6401-11.626,27.7441-23.6477,42.0122-35.0222,36.4736-29.0374,92.418-68.5037,156.8843-75.9719,7.9863-.9275,16.3423-1.3979,24.8354-1.3979,38.5098,0,77.2788,9.5798,114.771,18.8442,37.0757,9.1614,75.4136,18.6348,113.0566,18.6348,10.7158,0,21.166-.7747,31.0605-2.3022,40.9297-6.3259,78.5693-26.4692,114.9688-45.949,32.8896-17.6016,66.8994-35.8025,103.668-44.165,20.1172-4.5833,43.7627-6.8113,72.2861-6.8113s58.2764,2.2534,84.5293,4.2415c6.2695.4749,12.418.9404,18.4111,1.3669l5.5283.3901c23.5986,1.6689,42.2383,2.9871,62.9395,2.9871,10.7236,0,21.4268-.3625,32.7207-1.1086.3984-.0242.7783-.0356,1.1514-.0356,1.8896,0,3.6934.2954,5.3604.8782,5.9141,2.0808,9.9717,7.637,10.3408,14.1567.3672,6.4854-2.9785,12.0864-8.9502,14.9827-5.6182,2.717-11.5918,4.6455-17.7568,5.7336-5.0908.8931-10.3389,1.3271-16.0479,1.3271-14.082,0-28.1279-2.6931-41.7119-5.2976-44.7305-8.582-88.4785-16.2852-131.9326-16.2852-24.8682,0-47.2627,2.5063-68.4619,7.6619-38.0918,9.2563-74.2393,27.9053-109.1982,45.9404-47.0957,24.2969-95.7949,49.4209-149.374,51.407-2.332.0872-4.7178.1313-7.0908.1313-36.1392,0-71.7183-10.218-106.1255-20.0999-33.4766-9.6143-68.0923-19.5559-103.0161-19.9778-.7656-.009-1.5366-.0137-2.3018-.0137-49.5479,0-103.2319,19.5613-155.249,56.5688-36.7695,26.1421-69.8154,58.2522-101.7729,89.3049-10.061,9.7759-20.4644,19.8845-30.833,29.6609-3.873,3.656-8.0122,6.4102-12.3013,8.1848-3.7529,1.5442-7.3726,2.3267-10.7627,2.3267Z"/>
        <path class="cls-1" d="M966.5013,172.8315c35.0662,0,71.093,3.3486,102.7642,5.6025,25.8754,1.8203,46.2351,3.3833,68.6433,3.3833,10.2872,0,21.0037-.3296,32.8881-1.1143.3335-.02.662-.0303.9849-.0303,1.6559,0,3.1729.2617,4.5375.7388,10.1975,3.5874,12.472,19.0259,1.124,24.5293-5.4089,2.6157-11.2406,4.4873-17.1006,5.521-5.1768.9087-10.3879,1.2896-15.6135,1.2896-13.7664,0-27.6335-2.644-41.2408-5.2529-43.583-8.3618-88.2623-16.3286-132.4028-16.3296-23.2465-.0005-46.3376,2.2085-69.0532,7.7324-89.9384,21.8555-165.5812,93.8496-258.0739,97.2783-2.3325.0874-4.674.1299-6.9979.1299-70.8969,0-137.9012-39.2173-209.1117-40.0776-.7759-.0093-1.5568-.0137-2.3318-.0137-56.428-.002-110.6747,24.2876-156.6986,57.0317-48.5235,34.499-89.551,78.3384-132.8715,119.1836-3.3863,3.1968-7.2292,5.9097-11.5421,7.6938-3.6125,1.4863-6.8958,2.1367-9.8072,2.1367-6.0871,0-10.5536-2.8403-13.0389-6.8203-3.8752-6.1509-3.0194-14.9897,3.8998-20.1235,1.2556-.9312,2.5365-1.8354,3.792-2.7666,13.9908-10.1074,28.5072-19.415,42.0987-30.1875,28.9499-22.9844,56.2828-47.9233,85.1819-70.9614,45.702-36.3843,97.5883-68.7207,155.6131-75.4429,8.1912-.9512,16.3774-1.3813,24.5487-1.3813,76.3251,0,151.8456,37.4785,227.8269,37.4785,10.4726,0,20.9491-.7114,31.4425-2.3315,78.2847-12.0996,141.5697-72.5791,218.809-90.147,22.1183-5.0391,46.6809-6.749,71.7302-6.749M966.5013,167.8315c-28.7118,0-52.5382,2.2485-72.8408,6.874-37.0946,8.437-71.2548,26.7183-104.2904,44.3979-36.2151,19.3809-73.6632,39.4219-114.1716,45.6826-9.7688,1.5083-20.0908,2.2729-30.6788,2.2729-37.3392,0-75.5266-9.436-112.4568-18.5615-37.6372-9.3003-76.556-18.917-115.3701-18.917-8.5895,0-17.043.4761-25.1257,1.4146-27.6517,3.2036-55.1795,12.0771-84.1554,27.1279-23.1969,12.0488-47.4009,28.1978-73.9949,49.3701-14.3031,11.4019-28.4231,23.4375-42.0783,35.0762-14.0007,11.9336-28.478,24.2734-43.0983,35.8809-8.6238,6.8354-17.8443,13.2231-26.7612,19.4009-4.9832,3.4526-10.136,7.0225-15.1566,10.6499-.0169.0122-.0337.0239-.0503.0366-.6111.4531-1.2285.8999-1.8457,1.3462-.6511.4712-1.302.9424-1.9466,1.4204-8.5625,6.353-10.7769,17.8765-5.1517,26.8047,3.6292,5.812,9.9276,9.1553,17.2694,9.1553,3.7174,0,7.6571-.8452,11.7097-2.5127,4.5801-1.895,8.9752-4.8145,13.072-8.6821,10.3804-9.7871,20.7909-19.9028,30.8586-29.6855,31.89-30.9868,64.8657-63.0283,101.4778-89.0586,51.5944-36.7075,104.7775-56.1084,153.8012-56.1069.7554,0,1.5165.0044,2.2725.0132,34.588.418,69.0381,10.3125,102.3541,19.8809,34.5729,9.9297,70.3229,20.1973,106.8171,20.1973,2.4044,0,4.8217-.0449,7.1848-.1333,54.1353-2.0068,103.0864-27.2607,150.4258-51.6836,34.8279-17.9678,70.8414-36.5469,108.6417-45.7324,21.0068-5.1089,43.2079-7.5918,67.8727-7.5913,43.2407.001,86.8578,7.6826,131.4607,16.2402,13.6995,2.6265,27.8646,5.3423,42.183,5.3423,5.8547,0,11.2448-.4463,16.4778-1.3647,6.3953-1.1284,12.5887-3.1279,18.4131-5.9443,6.813-3.3042,10.7809-9.9614,10.3605-17.3765-.4269-7.5303-5.1379-13.9565-12.002-16.3711-1.942-.6792-4.0239-1.022-6.1968-1.022-.426,0-.8596.0132-1.2888.0396-11.2661.7441-21.916,1.105-32.584,1.105-20.6133,0-39.2158-1.3154-62.7676-2.981l-5.5249-.3901c-5.981-.4253-12.0106-.8823-18.3944-1.3657-26.2979-1.9917-56.1045-4.249-84.7207-4.249h0Z"/>
      </g>
    </g>
  </g>
</svg>