<?xml version="1.0" encoding="UTF-8"?>
<svg id="Capa_2" xmlns="http://www.w3.org/2000/svg" viewBox="0 0 1773.9418 410.168">
  <defs>
    <style>
      .cls-1 {
        fill: #e55e6c;
      }

      .cls-2 {
        fill: #b22f3f;
      }
    </style>
  </defs>
  <g id="Capa_1-2" data-name="Capa_1">
    <g>
      <g>
        <path class="cls-1" d="M1112.5528,386.8509c-1.585,2.1766-4.0383,3.2565-6.3717,4.1828-49.8686,19.9241-104.5092,15.7104-156.5027,6.0831-51.9944-9.6019-103.5854-24.3945-156.3478-24.9461-90.0286-.9185-181.9869,39.5461-268.2956,11.1784-94.5579-31.0888-153.5318-134.7756-233.5344-199.5115-59.6735-48.2595-132.8132-74.8782-206.3752-75.2734-3.6149-.0194-5.6679-4.8471-3.3302-7.991.0076-.0102.0149-.0198.0218-.0287,2.3228-2.9656,5.0055-5.6075,7.9066-7.8247,4.0807-3.1244,8.8582-4.8172,13.6943-6.1418,1.9534-.545,3.9283-1.0374,5.8563-1.5047,3.346-.8448,6.7329-1.5053,10.1383-2.0085,11.5828-1.7059,23.3657-1.5499,34.946.0384,31.2026,4.271,60.8554,18.3015,88.1876,35.2192,58.4711,36.2199,110.2438,84.7702,158.48,136.7746,34.9463,37.6867,69.7116,78.4529,114.8721,97.8709,80.7737,34.7444,170.8603-7.2118,257.4133-4.9556,73.1151,1.8959,143.8839,35.6201,216.9431,31.4487,35.0968-1.9963,69.7304-12.738,104.8567-11.7529,5.5315.1592,12.112,3.1463,15.9375,7.2828,3.2212,3.4913,4.4815,7.7891,1.5039,11.8603Z"/>
        <path class="cls-2" d="M136.3701,81.8473c6.0137,0,12.0271.438,17.9883,1.2556,31.2026,4.271,60.8555,18.3014,88.1877,35.2193,58.4712,36.2198,110.2439,84.7701,158.48,136.7744,34.9463,37.6867,69.7117,78.453,114.8721,97.871,23.8367,10.2533,48.4998,13.8283,73.6284,13.8283,57.7671,0,118.0645-18.8723,176.9033-18.8723,2.2974,0,4.5889.0287,6.8816.0885,68.8623,1.7856,135.6472,31.8057,204.2205,31.8057,4.2351,0,8.4731-.1143,12.7227-.357,33.563-1.9091,66.7065-11.8159,100.2588-11.8167,1.5332,0,3.063.0206,4.5981.0637,5.5312.1593,12.1118,3.1463,15.9375,7.2829,3.2212,3.4913,4.4814,7.7892,1.5039,11.8603-1.5854,2.1766-4.0386,3.2564-6.3721,4.1827-25.7285,10.2794-52.7349,14.1345-79.9854,14.1345-25.5674,0-51.3489-3.3911-76.5173-8.0515-51.9944-9.6017-103.5854-24.3944-156.3477-24.946-1.011-.0103-2.0322-.0154-3.0439-.0154-65.6069-.0022-132.1985,21.2985-196.8337,21.2985-23.105,0-45.9453-2.7185-68.418-10.1048-94.5579-31.0887-153.5317-134.7756-233.5344-199.5114-59.6736-48.2596-132.8132-74.8783-206.3752-75.2734-3.6147-.0194-5.6677-4.8471-3.3301-7.9911.0076-.0101.0149-.0197.0217-.0287,2.323-2.9656,5.0056-5.6074,7.9067-7.8247,4.0806-3.1244,8.8582-4.8171,13.6941-6.1419,1.9536-.545,3.9285-1.0374,5.8564-1.5046,3.3459-.8449,6.7329-1.5053,10.1382-2.0086,5.6204-.8277,11.2893-1.2172,16.9578-1.2172M136.3701,76.8473c-6.0112,0-11.9619.4274-17.6863,1.2704-3.6616.5413-7.2383,1.2502-10.6335,2.1074-1.7371.4206-3.8472.9424-5.9761,1.5363-4.8113,1.3179-10.4226,3.1844-15.3904,6.9881-3.2715,2.5003-6.2346,5.4321-8.803,8.7113-.0139.0176-.0276.0353-.041.053-.01.0131-.0417.0549-.0513.068-2.3032,3.0973-2.6411,7.1984-.8877,10.7107,1.614,3.233,4.7551,5.2529,8.1975,5.2713,72.4194.3891,144.6045,26.7267,203.2581,74.1613,28.2832,22.886,54.4246,51.2457,79.7056,78.6716,22.8794,24.821,46.5381,50.4872,71.6873,71.9727,28.428,24.2866,55.8142,40.5532,83.7239,49.7293,21.2,6.9678,44.0901,10.355,69.9795,10.355,32.5972,0,66.0886-5.416,98.4773-10.6538,32.3645-5.2337,65.8308-10.6457,98.3567-10.6447.9946,0,1.999.005,2.9932.0151,38.1787.3991,76.6118,8.5377,113.7793,16.4083,13.6511,2.8907,27.7673,5.8799,41.7112,8.4549,29.9712,5.5496,54.5747,8.1346,77.4253,8.1346,30.6636,0,57.4341-4.7401,81.8403-14.4913,2.9038-1.1524,6.209-2.6566,8.5586-5.8818,4.1279-5.6444,3.4307-12.449-1.8706-18.1949-4.7354-5.1203-12.5576-8.6912-19.4683-8.8902-1.5601-.0437-3.1538-.0659-4.7427-.0659-18.9565.0004-37.9014,3.1142-56.2222,6.1252-14.541,2.3899-29.5771,4.8611-44.3201,5.6996-4.0566.2316-8.2412.349-12.4387.349-34.72,0-69.8606-8.0233-103.844-15.7824-32.6045-7.4442-66.3191-15.1418-100.2471-16.0216-2.2954-.0598-4.6545-.0901-7.011-.0901-29.95,0-60.502,4.8617-90.0481,9.5633-28.7603,4.5766-58.4998,9.309-86.8555,9.309-27.219,0-50.6567-4.3902-71.6526-13.4214-40.0608-17.2253-72.3638-52.3374-103.6028-86.2936-3.1968-3.4745-6.3867-6.9421-9.5786-10.384-57.7349-62.2451-108.4211-105.9764-159.5132-137.6253-32.9187-20.3756-62.4041-32.1257-90.1426-35.9226-6.2979-.8637-12.5786-1.3017-18.6665-1.3017h0Z"/>
      </g>
      <g>
        <path class="cls-1" d="M1682.7309,142.1272c-7.7551,11.4635-48.741-6.0828-77.3649-13.4953-32.465-8.386-63.9978-3.7509-127.0119,5.5463-94.3109,13.9123-162.5369,43.5046-176.4021,50.1643-56.9487,27.4595-67.4278,45.4589-126.7998,69.0048-37.3686,14.8202-90.3479,35.1774-160.5117,32.1905-87.6339-3.6996-149.0546-41.573-175.321-58.2251-8.6522-5.5041-60.0346-38.8008-99.4513-99.0482-30.9766-47.3762-22.9923-63.1728-20.553-67.0766,4.3327-7.0126,13.4874-12.6054,20.7521-10.6709.6486.1757,1.2694.4029,1.862.7072,10.8287,5.2792,9.498,28.797,18.0511,54.0894,13.4178,39.7598,44.1698,63.1554,81.2671,91.3612,13.2525,10.081,35.901,27.0732,69.413,40.8749,82.5267,33.9843,158.0049,18.5621,179.6716,13.3557,38.7005-9.3174,55.7211-22.0566,101.5674-46.2013,10.6713-5.6014,117.6617-61.2676,233.9124-93.5032,174.4687-48.3903,245.4293-9.5098,251.6924-.9373,2.5153,3.4451,4.1364,7.0736,5.1515,9.9524,1.1867,3.276,1.5646,5.5876,1.5646,5.5876.7544,4.6755,1.0236,12.5789-1.4894,16.3235Z"/>
        <path class="cls-2" d="M737.0152,50.13c1.0415,0,2.0637.1238,3.052.3869.6487.1757,1.2695.4029,1.8621.7072,10.8286,5.2792,9.498,28.7971,18.051,54.0895,13.4177,39.7597,44.1699,63.1553,81.2671,91.3611,13.2527,10.0811,35.9011,27.0733,69.4131,40.8751,40.1956,16.5523,78.7209,21.3843,110.1689,21.3843,33.1191,0,58.3887-5.3582,69.5024-8.0287,38.7007-9.3173,55.7212-22.0565,101.5674-46.2012,10.6714-5.6015,117.6616-61.2676,233.9126-93.5033,64.3608-17.851,114.647-23.8258,152.7847-23.827,65.2451-.002,94.9551,17.4796,98.9077,22.8898,2.5151,3.4452,4.1362,7.0736,5.1514,9.9524,1.187,3.2761,1.5649,5.5876,1.5649,5.5876.7544,4.6756,1.0234,12.5789-1.4897,16.3236-1.8203,2.6909-5.4731,3.7836-10.3662,3.7836-15.9507,0-45.0938-11.6064-66.9985-17.2789-11.8394-3.0582-23.5576-4.3848-36.7212-4.3849-22.9326-.0003-50.2568,4.0246-90.2905,9.9313-94.311,13.9123-162.5371,43.5045-176.4023,50.1643-56.9487,27.4595-67.4277,45.4588-126.7998,69.0048-34.8735,13.8305-83.3506,32.4851-146.6943,32.4851-4.5322,0-9.1323-.0952-13.8174-.2947-87.6338-3.6996-149.0544-41.5729-175.3208-58.2251-8.6523-5.5042-60.0347-38.8008-99.4514-99.0483-30.9766-47.3761-22.9922-63.1728-20.553-67.0765,3.7432-6.0586,11.0867-11.0579,17.7-11.0579M737.0152,45.13c-8.0405,0-17.0681,5.5225-21.9536,13.4299-5.9543,9.5295-7.2234,29.8539,20.6218,72.4408,37.7576,57.7115,86.8162,91.538,100.9526,100.5308,23.8049,15.0917,87.0222,55.1697,177.7935,59.0019,4.6616.1984,9.3818.2991,14.0283.2991,65.7393,0,115.5659-19.7609,148.5376-32.8372,33.6636-13.3505,51.9404-25.0204,71.29-37.3755,15.251-9.7377,31.021-19.8071,55.8379-31.7735,2.9277-1.406,73.0229-34.6843,174.9609-49.7215,40.3149-5.9484,66.9487-9.8781,89.5605-9.8779,13.0386.0001,24.3096,1.3429,35.4707,4.226,7.0825,1.8341,15.1753,4.3751,23.002,6.8323,16.6069,5.214,33.7788,10.6056,45.2471,10.6056,6.9414,0,11.8223-2.0127,14.5073-5.982,4.2202-6.2875,2.6436-17.698,2.2847-19.9216-.0479-.2939-.4922-2.8852-1.8003-6.4945-1.458-4.1357-3.4189-7.9167-5.8135-11.1972-5.9463-8.1388-38.9292-24.9416-102.9351-24.9416-44.8447.0015-96.6982,8.0792-154.1323,24.0088-115.4272,32.0075-223.0127,87.6545-234.8999,93.8943-10.2646,5.406-19.1592,10.28-27.0063,14.5803-27.4282,15.0307-43.9839,24.1032-73.4077,31.1871-21.479,5.1613-45.1089,7.8897-68.332,7.8897-37.9883,0-74.4141-7.068-108.2651-21.0076-33.5845-13.8317-56.1609-31.0051-68.2896-40.2312-37.2231-28.3013-66.6233-50.6549-79.5571-88.9804-3.1223-9.2336-4.9041-18.3297-6.4758-26.3551-2.8682-14.643-5.135-26.2143-14.0774-30.6084-.863-.4387-1.7761-.7858-2.7898-1.0604-1.4045-.3741-2.8643-.5609-4.3594-.5609h0Z"/>
      </g>
      <g>
        <path class="cls-1" d="M1476.2906,174.0671c-.1323.9635-.4997,1.9206-1.1268,2.8172-1.7725,2.5372-4.9925,3.5951-7.9714,4.4505-56.1199,15.9271-115.9251,17.2906-173.4185,7.3737-36.4998-6.2797-73.1194-17.4776-102.5101-40.0236-24.6581-18.9324-42.9974-44.8467-65.7077-66.05-22.7357-21.2301-53.0682-38.313-83.6815-32.9193-33.5565,5.9096-56.8117,36.3261-87.1668,51.8183-24.9948,12.7448-55.2246,14.8027-81.7299,5.5427-40.897-14.2757-69.9865-52.7349-111.1682-66.2082-38.6172-12.6415-84.3926.8646-109.9558,32.4431-4.3646,5.3908-8.3543,11.3939-14.3619,14.8286-5.3701,3.0873-13.06,3.2061-17.3051-.9948-.5097-.4592-.9379-1.0205-1.3387-1.6336-3.9282-6.1261-.1924-14.2017,4.1341-20.0905,8.3578-11.3757,18.1135-20.9521,30.4431-27.9382,11.9889-6.7931,25.1666-11.2344,38.4396-14.7568,16.205-4.3006,32.8279-7.3662,49.5924-7.591,22.9054-.3072,46.6818,4.7371,66.4454,16.6287,27.8582,16.75,47.1046,48.3897,78.7034,55.9925,27.2888,6.5634,55.2426-7.2467,78.2678-23.316,23.0243-16.0434,45.1218-35.3031,72.4224-41.8638,42.8854-10.2948,87.6704,14.2365,116.0593,47.9698,15.5965,18.5669,27.8651,40.1231,46.0169,56.2017,30.8729,27.3727,73.9455,35.0968,114.6441,41.7325,42.39,6.9196,87.0072,13.6685,127.663.9038,2.5848-.7882,5.1466-1.6818,7.7105-2.6535,5.8424-2.2375,11.9856-4.9362,18.1197-3.6879,5.0684,1.0351,9.4648,6.3381,8.7808,11.0242Z"/>
        <path class="cls-2" d="M743.4236,15.1218c22.2957,0,45.28,5.0899,64.479,16.6419,27.8582,16.75,47.1047,48.3898,78.7034,55.9926,4.7651,1.1461,9.5518,1.6711,14.3276,1.6711,22.5747,0,44.9358-11.7239,63.9402-24.9871,23.0244-16.0435,45.1221-35.3032,72.4224-41.8639,6.7246-1.6142,13.5024-2.3727,20.25-2.3727,36.2837,0,71.8716,21.8987,95.8096,50.3425,15.5962,18.5668,27.8647,40.1231,46.0166,56.2018,30.873,27.3727,73.9458,35.0967,114.644,41.7325,24.9805,4.0777,50.7412,8.0969,76.0015,8.0969,17.6055,0,34.9644-1.9505,51.6616-7.193,2.585-.7882,5.147-1.6819,7.7104-2.6535,4.8184-1.8452,9.8418-4.004,14.8945-4.0043,1.0747,0,2.1494.0975,3.2251.3164,5.0684,1.035,9.4648,6.3381,8.7812,11.0242-.1323.9635-.5,1.9206-1.127,2.8172-1.7725,2.5373-4.9927,3.5951-7.9717,4.4505-32.8516,9.3235-66.9766,13.6573-101.1514,13.6573-24.2046,0-48.4297-2.1719-72.2671-6.2836-36.4995-6.2796-73.1191-17.4775-102.5103-40.0235-24.6577-18.9325-42.9971-44.8468-65.7075-66.05-19.8594-18.544-45.5156-33.9238-72.0913-33.9244-3.8496,0-7.7168.3225-11.5903,1.005-33.5562,5.9096-56.8115,36.3261-87.1667,51.8184-14.6499,7.47-31.0999,11.2689-47.5427,11.2689-11.6108,0-23.2173-1.8936-34.1873-5.7262-40.897-14.2758-69.9863-52.7349-111.1682-66.2082-9.7109-3.1789-19.8787-4.7043-30.0596-4.7047-30.3057-.0013-60.7612,13.5103-79.896,37.1478-4.3647,5.3908-8.3545,11.394-14.3621,14.8286-2.5225,1.4502-5.5579,2.2456-8.5066,2.2456-3.3289,0-6.5474-1.0127-8.7983-3.2403-.5098-.4593-.938-1.0206-1.3389-1.6336-3.928-6.1261-.1924-14.2018,4.1343-20.0906,8.3577-11.3756,18.1135-20.952,30.4431-27.9382,11.9888-6.7931,25.1665-11.2344,38.4395-14.7568,16.2051-4.3006,32.8281-7.3661,49.5925-7.5909.6543-.0088,1.3108-.0132,1.9663-.0132M743.4236,10.1218c-.678,0-1.3569.0045-2.0337.0136-15.2908.2051-31.9102,2.7426-50.8076,7.7578-16.332,4.3344-28.9224,9.1767-39.6221,15.2393-12.0586,6.8328-22.5283,16.4261-32.0073,29.3281-7.1709,9.7598-8.7031,18.9046-4.3142,25.7496.7017,1.0732,1.3667,1.8806,2.1072,2.5638,3.0505,2.9745,7.3923,4.6115,12.2393,4.6115,3.8276,0,7.7336-1.0338,10.9988-2.9109,5.7983-3.3151,9.7336-8.3478,13.5393-13.2148.7361-.9412,1.4707-1.8809,2.2166-2.8021,17.8914-22.1014,46.3062-35.2954,76.0098-35.2941,9.8813.0004,19.4717,1.4998,28.5044,4.4566,20.1245,6.5841,37.0906,19.2468,55.0525,32.6529,17.2849,12.9008,35.1582,26.2408,56.0232,33.5241,11.406,3.9847,23.4631,6.0054,35.8352,6.0054,17.4304,0,34.6558-4.0854,49.814-11.8145,12.1292-6.1902,23.123-14.6513,33.7549-22.8336,16.7715-12.9075,32.6128-25.0992,52.0078-28.5148,3.5-.6167,7.1079-.9293,10.7231-.9292,21.79.0005,46.1807,11.5706,68.6787,32.5788,9.0659,8.4641,17.6323,17.9225,25.917,27.0693,12.3652,13.6525,25.1514,27.7699,40.1582,39.2921,25.9761,19.9263,60.2256,33.3322,104.7075,40.9853,24.4507,4.2174,49.0508,6.356,73.1147,6.356,35.6494,0,70.1411-4.6589,102.5166-13.8473,2.9272-.8405,7.8013-2.2401,10.7056-6.3971,1.0684-1.5284,1.7358-3.2113,1.9814-5.0001,1.0537-7.2245-4.894-15.0025-12.7344-16.6036-1.3618-.2772-2.7817-.4174-4.2231-.4174-5.4985.0002-10.7012,2.0172-15.2915,3.7967-.4663.1808-.9312.3611-1.3936.5382-2.6255.9951-5.0444,1.8279-7.3809,2.5402-14.9629,4.6979-31.3716,6.9756-50.2031,6.9756-24.0386,0-48.2769-3.6374-75.1958-8.0316-36.2549-5.9113-81.374-13.2679-112.1328-40.5391-11.2554-9.9701-20.0737-21.9912-29.4097-34.718-5.1162-6.9743-10.4067-14.1861-16.0952-20.9585-12.7383-15.1361-28.1924-27.9304-44.6948-37.0032-17.9956-9.8938-36.9946-15.1233-54.9434-15.1233-7.271,0-14.4766.8448-21.417,2.5108-23.0601,5.5416-42.384,19.6303-61.0718,33.2552-4.2725,3.1148-8.6899,6.3358-13.0422,9.3682-23.2273,16.2104-43.2061,24.0894-61.0813,24.0894-4.5037,0-8.9309-.5155-13.1587-1.5325-17.9502-4.3189-31.7869-17.0828-46.4358-30.5961-9.5894-8.8456-19.5049-17.9925-30.8604-24.8201-18.8708-11.3547-42.0586-17.3568-67.0554-17.3568h0Z"/>
      </g>
      <g>
        <path class="cls-1" d="M1678.4279,42.7595c-12.2838,14.3918-40.4784,6.5995-71.6379.9966,0,0-62.2423-11.1518-119.4692-8.5377-27.4875,1.248-76.1526,7.0629-119.8951,42.5885-8.8073,7.1455-30.4483,25.0849-45.5711,55.4473-11.5425,23.1453-8.3864,31.5763-21.8486,83.2684-9.5817,36.7705-14.3721,55.143-24.1028,73.4776-14.9812,28.1708-32.3832,44.1667-59.2653,68.8835-5.666,5.1963-49.4216,44.8005-82.14,45.2179-3.5826.0277-11.6875.0296-15.2017-5.0387-1.8817-2.7471-2.0131-6.3592-1.2286-9.9965.9062-4.2355,3.0157-8.4886,4.9293-11.3878,5.4421-8.3141,13.3917-12.0069,15.1943-12.87,22.9807-10.8943,71.7111-45.3091,96.2783-74.9815,16.3065-19.7139,23.2644-38.9128,30.3369-58.4483,12.3867-34.3105,7.503-44.4908,18.7073-81.3192,5.9216-19.5163,14.7013-48.4145,34.8535-73.665,23.6797-29.7242,53.0213-41.7946,83.3831-53.8883,84.2596-33.4704,117.8926-7.5342,239.7936-13.5414,10.0276-.4955,33.937-1.8726,40.6174,10.3722.7692,1.4337,1.3248,3.0186,1.5909,4.6731,1.1518,6.3082-1.1023,13.7726-5.3242,18.7493Z"/>
        <path class="cls-2" d="M1489.9441,5c31.4409,0,64.3965,4.9095,113.7837,4.9095,11.6333,0,24.1631-.2719,37.8159-.9447,2.5601-.1265,6.0273-.3104,9.8794-.3105,11.2358-.0002,25.7632,1.5641,30.7383,10.6827.769,1.4337,1.3247,3.0187,1.5908,4.6731,1.1519,6.3083-1.1025,13.7726-5.3242,18.7494-5.1885,6.0785-13.2158,8.1998-23.1055,8.1998-13.5249,0-30.5337-3.9668-48.5327-7.2032,0,0-49.8687-8.9344-101.3711-8.9347-6.0366,0-12.0938.1227-18.0981.397-27.4873,1.248-76.1523,7.0629-119.895,42.5885-8.8071,7.1456-30.4482,25.0849-45.5713,55.4473-11.542,23.1453-8.3862,31.5763-21.8481,83.2685-9.582,36.7704-14.3726,55.1429-24.103,73.4775-14.981,28.1708-32.3833,44.1667-59.2651,68.8836-5.666,5.1963-49.4219,44.8005-82.1401,45.2178-.2476.0019-.5176.0037-.8057.0037-3.8765,0-11.125-.3246-14.396-5.0425-1.8818-2.7471-2.0132-6.3591-1.2285-9.9965.9062-4.2354,3.0156-8.4886,4.9292-11.3878,5.4419-8.3141,13.3916-12.0068,15.1943-12.8699,22.9805-10.8943,71.7109-45.3091,96.2783-74.9815,16.3062-19.7139,23.2642-38.9128,30.3369-58.4483,12.3867-34.3105,7.5029-44.4907,18.707-81.3192,5.9219-19.5163,14.7017-48.4145,34.8535-73.665,23.6797-29.7242,53.0215-41.7946,83.3833-53.8883,34.7603-13.8077,60.9141-17.5062,88.1938-17.5062M1489.9441,0c-31.5981,0-58.5259,5.3411-90.0396,17.8593-29.7432,11.8473-60.4946,24.0963-85.4482,55.4197-20.7651,26.0188-29.769,55.6928-35.7275,75.3287-5.3682,17.6452-7.0908,29.1261-8.7563,40.2288-1.7837,11.8871-3.4683,23.1152-9.8691,40.8444-7.0552,19.4878-13.7207,37.8988-29.4868,56.9593-23.9756,28.9579-72.0234,62.9631-94.5669,73.6503l-.1167.0557c-9.0996,4.3468-14.332,10.3354-17.1196,14.594-1.2544,1.9006-4.3369,7.0135-5.6348,13.0799-1.1758,5.4497-.4873,10.2481,1.9927,13.8684,5.0039,7.2168,15.1777,7.2168,18.521,7.2168.3018,0,.5845-.0019.8442-.0039,14.7573-.1882,32.9067-7.4789,53.9697-21.67,14.9692-10.0855,27.0234-20.747,31.5112-24.8627,27.0645-24.8847,44.9233-41.3051,60.3003-70.2209,10.0127-18.8659,14.8633-37.48,24.5269-74.5643,5.5244-21.2124,8.3228-35.4597,10.3657-45.8625,3.0503-15.5309,4.5815-23.3266,11.1187-36.4355,14.959-30.0332,37.0029-47.9186,44.2471-53.7959,31.7393-25.7772,70.0005-39.3437,116.9712-41.4764,5.6938-.2601,11.7065-.3918,17.8716-.3918,50.4365.0003,99.9951,8.7678,100.4897,8.8563,3.8906.6996,7.7783,1.442,11.5386,2.1598,13.7939,2.6339,26.8232,5.1217,37.8755,5.1217,12.3896,0,21.1914-3.2558,26.9087-9.9537,5.3003-6.2485,7.8247-15.2036,6.4492-22.841-.3516-2.1501-1.0625-4.2329-2.1128-6.1911-4.8955-8.9727-16.3853-13.3192-35.1426-13.3192-3.7573,0-7.1807.1702-9.6802.2943l-.4478.0223c-12.8154.6316-25.1045.9386-37.5693.9386-27.3003,0-49.6597-1.517-69.3867-2.8555-16.2451-1.1022-30.2744-2.054-44.397-2.054h0Z"/>
      </g>
      <g>
        <path class="cls-1" d="M1753.3232,389.404c-7.7036,2.2591-15.9506,1.3117-23.915.3696-57.3124-6.8201-117.8487-14.9529-163.0039-50.8684-25.5332-20.2767-45.4973-48.9992-75.9433-60.6297-21.318-8.1011-45.0932-6.6486-67.5-2.3078-38.3751,7.4212-75.3738,22.8564-114.4296,24.6542-44.831,2.0555-88.3975-13.9968-129.7185-31.545-9.1575-3.8999-19.994-10.7447-18.4308-20.568.5392-3.3465,2.5162-6.0145,5.2182-7.8938,4.3091-2.9591,10.4749-3.9634,15.7052-2.5633,8.4692,2.278,15.1392,8.6193,22.2135,13.873,1.538,1.1299,3.0843,2.2019,4.6671,3.2673,35.2829,23.093,82.1465,21.6834,123.7423,12.5519,35.9476-7.8643,70.8256-20.6993,107.4571-25.5135,35.7669-4.7141,66.6437-.035,95.9752,22.2395,20.9444,15.8871,38.6914,35.7904,60.3652,50.6253,38.666,26.4236,87.0702,34.7636,133.916,35.1226,8.5384.0684,17.3629-.0465,25.278,3.2145,4.5688,1.8953,8.7633,5.2484,11.334,9.3837,1.9021,3.0359,2.9412,6.491,2.6365,10.0955-.6896,8.0125-7.842,14.2475-15.5671,16.492Z"/>
        <path class="cls-2" d="M1176.4285,237.4289c1.6597,0,3.3101.2036,4.877.6231,8.4692,2.278,15.1392,8.6193,22.2134,13.873,1.5381,1.1299,3.0845,2.2019,4.667,3.2674,20.8418,13.641,45.728,18.733,71.1787,18.733,17.6348,0,35.5386-2.4435,52.564-6.1811,35.9473-7.8643,70.8252-20.6993,107.457-25.5135,8.1602-1.0755,16.0708-1.6621,23.7612-1.6624,26.019-.0008,49.5742,6.7093,72.2139,23.9018,20.9443,15.887,38.6914,35.7904,60.3652,50.6254,38.666,26.4236,87.0703,34.7635,133.916,35.1227,8.5386.0684,17.3628-.0465,25.2778,3.2144,4.5688,1.8954,8.7632,5.2484,11.334,9.3837,1.9023,3.0359,2.9414,6.491,2.6367,10.0956-.6895,8.0125-7.8423,14.2475-15.5674,16.492-3.5186,1.0318-7.1509,1.3947-10.8174,1.3947-4.3608,0-8.7705-.5133-13.0977-1.0251-57.312-6.8201-117.8486-14.9529-163.0039-50.8683-25.5332-20.2766-45.4971-48.9992-75.9434-60.6296-11.0283-4.191-22.7153-5.8251-34.5298-5.8252-11.022,0-22.1548,1.4222-32.9702,3.5174-38.375,7.4213-75.3735,22.8564-114.4292,24.6543-2.6133.1198-5.2261.1782-7.8301.1782-42.0762,0-82.9761-15.1978-121.8887-31.7231-9.1572-3.8999-19.9937-10.7448-18.4307-20.568.5391-3.3464,2.5161-6.0145,5.2183-7.8938,3.0181-2.0727,6.9478-3.1864,10.8281-3.1864M1176.4285,232.4289c-4.9907,0-9.8418,1.4435-13.6587,4.0646-4.0146,2.7922-6.6074,6.771-7.3242,11.2204-1.146,7.2025,1.6396,17.5442,21.4082,25.9633,36.5991,15.5428,79.3657,32.123,123.8472,32.123,2.6934,0,5.4053-.0617,8.0596-.1835,25.1074-1.1557,49.5352-7.8638,73.1582-14.3511,13.73-3.7703,27.9272-7.669,41.9912-10.3888,11.9023-2.3058,22.376-3.4265,32.021-3.4265,12.3027,0,23.0166,1.7988,32.7534,5.4991,19.2119,7.3389,34.022,21.8137,49.7012,37.1384,7.918,7.7391,16.1055,15.7416,24.9092,22.7329,47.6372,37.8896,113.0015,45.6678,165.5225,51.9178,4.2031.4971,8.9629,1.0601,13.6885,1.0601,4.562,0,8.5605-.5223,12.2246-1.5968,8.8496-2.5713,18.209-10.0215,19.1416-20.8613.3794-4.4889-.79-9.0435-3.3813-13.1791-3.0215-4.8607-8.002-9.0022-13.6548-11.3472-8.4141-3.4666-17.2661-3.5274-25.8271-3.5863l-1.3267-.0096c-54.3682-.4168-98.4878-11.9405-131.1348-34.2509-11.7485-8.0414-22.6279-17.8907-33.1489-27.4156-8.6157-7.8003-17.5249-15.8662-27.0156-23.0652-22.3857-16.9997-46.2915-24.9182-75.231-24.9182-7.73.0003-15.7158.5581-24.4194,1.7053-22.9634,3.0178-45.4526,9.1974-67.2017,15.1734-13.3003,3.6546-27.0537,7.4336-40.6704,10.4127-18.3354,4.0251-35.6597,6.0656-51.4956,6.0656-27.2349,0-50.251-6.0215-68.4106-17.8971-1.7222-1.1597-3.1445-2.1556-4.4751-3.1328-1.3721-1.0191-2.7354-2.0868-4.1787-3.2173-5.8862-4.6102-11.9731-9.3773-19.6958-11.4545-1.9717-.5279-4.0479-.7947-6.1758-.7947h0Z"/>
      </g>
      <g>
        <path class="cls-1" d="M1100.9655,194.9963c-5.6606,2.0138-11.6608,3.2419-17.5984,3.6342-19.0614,1.2419-37.8178-4.4915-56.0893-10.1053-64.7594-19.905-132.1399-39.1701-199.336-30.3913-91.7778,11.974-174.7813,75.3412-267.1004,68.7203-73.357-5.2383-137.4888-54.288-210.5035-63.1462-56.8511-6.8865-114.2952,11.4987-164.2755,39.4372-51.9784,29.0341-97.5177,68.1661-145.0119,104.0729-3.7129,2.8107-7.8273,5.0908-12.3083,6.397-11.5976,3.3562-19.1893-.8859-22.2035-7.1334-3.1855-6.5347-1.3762-15.2284,6.0588-19.5819,1.3492-.7895,2.7207-1.5496,4.0697-2.3391,15.0042-8.5306,30.4444-16.2093,45.1239-25.4444,31.2715-19.7096,61.1475-41.5375,92.3743-61.3061,49.3779-31.214,104.4647-57.7339,162.8762-58.1244,95.8865-.6686,182.6794,68.6111,278.4832,64.3428,79.135-3.5393,148.6051-56.8003,227.2939-65.8887,54.0795-6.2658,120.0336,8.053,173.5898,17.7813,37.2437,6.7341,62.8669,11.6497,100.6868,13.2656,2.0442.0982,3.8536.5594,5.4128,1.3029,9.7484,4.6724,10.3354,20.2664-1.5425,24.5068Z"/>
        <path class="cls-2" d="M851.2805,136.6052c47.6638-.0009,100.6655,11.2395,145.1279,19.3159,37.2437,6.734,62.8667,11.6497,100.6865,13.2655,2.0444.0981,3.8535.5594,5.4131,1.3029,9.7485,4.6725,10.3354,20.2663-1.5425,24.5068-5.6606,2.0139-11.6611,3.2419-17.5986,3.6342-1.7812.116-3.5605.1712-5.3364.1712-17.2271,0-34.189-5.1872-50.7529-10.2764-53.7-16.5058-109.2041-32.5714-164.9092-32.5718-11.4724,0-22.9512.6812-34.4268,2.1805-87.2405,11.382-166.5583,69.2038-253.4797,69.2038-4.5208,0-9.0564-.1561-13.6206-.4835-73.3572-5.2383-137.489-54.288-210.5037-63.1462-8.1023-.9814-16.2256-1.4496-24.3286-1.4499-48.7532-.0021-97.0896,16.9303-139.9468,40.887-51.9783,29.0341-97.5178,68.1661-145.012,104.0729-3.7129,2.8108-7.8271,5.0909-12.3083,6.3969-2.8123.8139-5.3892,1.1809-7.7222,1.1809-7.2881,0-12.198-3.5818-14.4812-8.3143-3.1855-6.5346-1.3762-15.2285,6.0588-19.5818,1.3491-.7896,2.7205-1.5497,4.0696-2.3392,15.0044-8.5306,30.4446-16.2092,45.124-25.4443,31.2715-19.7097,61.1475-41.5375,92.3743-61.3062,49.3779-31.2139,104.4646-57.7339,162.8762-58.1243.4565-.0032.9248-.0048,1.3809-.0048,92.4792,0,176.5579,64.537,268.5356,64.537,2.8496,0,5.7014-.0618,8.5667-.1895,79.135-3.5394,148.6052-56.8003,227.2939-65.8888,9.1826-1.0639,18.7134-1.5343,28.4619-1.5345M851.2864,131.6052v5l-.0022-5c-10.2939.0002-20.0635.5275-29.041,1.5677-37.7908,4.3648-73.7322,18.8343-108.4902,32.8274-38.103,15.3397-77.5034,31.2017-118.4517,33.0331-2.7451.1225-5.5525.1845-8.3433.1845-45.04,0-89.3398-16.216-132.1814-31.898-43.8364-16.0463-89.1653-32.6389-136.354-32.6389-.468,0-.9485.0015-1.4165.0049-27.8354.186-56.1633,6.0223-86.6003,17.8423-24.3662,9.4624-50.1787,22.8918-78.9121,41.0555-15.4546,9.7838-30.7961,20.2166-45.6326,30.306-15.2126,10.3451-30.9429,21.0425-46.7361,30.9965-9.3142,5.8597-19.1729,11.2103-28.7073,16.3848-5.3281,2.8917-10.8379,5.8817-16.2219,8.9429-.0181.0103-.0364.0208-.0544.0314-.6575.3849-1.3208.7625-1.9839,1.1403-.697.3971-1.394.7943-2.0854,1.1989-9.2012,5.3874-12.6519,16.6026-8.0278,26.088,3.3569,6.9583,10.4539,11.1234,18.9756,11.1234,2.8867,0,5.9524-.4637,9.1121-1.378,4.7588-1.3869,9.4448-3.8129,13.9363-7.2134,11.3806-8.6042,22.8271-17.5314,33.8965-26.1649,35.062-27.3457,71.3174-55.6224,110.5359-77.5292,47.7854-26.7115,94.0493-40.2542,137.5083-40.2523,8.0037.0005,15.9868.4762,23.7275,1.4137,34.3367,4.1657,67.5122,17.7375,99.5952,30.8625,35.4805,14.5146,72.1689,29.5235,111.1536,32.3072,4.5901.3294,9.2932.4963,13.9768.4963,48.8289,0,95.7705-18.0794,141.1665-35.5634,36.571-14.0852,74.3875-28.65,112.9602-33.6825,10.8613-1.4191,22.2263-2.1385,33.7798-2.1385,53.7393.0005,107.9753,15.3031,163.4399,32.3512,16.7969,5.1608,34.1655,10.4971,52.2222,10.4971,1.9043,0,3.8091-.0612,5.6616-.1819,6.481-.4282,12.855-1.7446,18.9492-3.9128,7.1309-2.5457,11.7974-8.7334,12.1836-16.15.3926-7.5322-3.5942-14.4314-10.1558-17.5763-2.2261-1.0612-4.6904-1.6614-7.3345-1.7885-35.6304-1.5223-60.3579-6.0026-94.5811-12.2037l-5.4556-.9877c-5.9004-1.0719-11.8459-2.1798-18.1406-3.3528-40.3525-7.5199-86.0891-16.0429-127.8711-16.0429h0Z"/>
      </g>
      <g>
        <path class="cls-1" d="M809.0421,242.8336c-.7911,2.9577-3.1659,5.53-6.9426,5.944-123.8536,13.899-228.2905,123.4439-354.6772,126.3414-78.6675,1.7874-157.3222-38.6476-233.6401-19.485-34.1826,8.5848-64.2191,28.4527-95.7088,44.3045-6.7129,3.415-15.2744,6.5671-20.9401-.0536-2.8317-3.3496-3.6749-7.6615-2.8001-11.715.6097-3.015,2.2084-5.8712,4.6232-8.0236,47.1729-42.068,113.709-64.7279,176.8467-59.2503,60.9204,5.3097,119.452,29.1128,181.1637,26.9154,107.6935-3.8018,195.8576-87.54,300.4979-113.3386,12.9284-3.1834,27.5659-4.8798,40.5992-2.6223,1.8732.3156,3.7182.7086,5.5079,1.2047,4.8242,1.3414,6.4966,5.9125,5.4703,9.7784Z"/>
        <path class="cls-2" d="M785.3001,230.8169c4.3462,0,8.6345.3182,12.7639,1.0335,1.873.3156,3.718.7086,5.5078,1.2047,4.8242,1.3415,6.4966,5.9125,5.4702,9.7784-.791,2.9578-3.1658,5.53-6.9426,5.944-123.8535,13.899-228.2903,123.4439-354.677,126.3414-1.7095.0388-3.4207.0578-5.1301.0578-61.8225,0-123.604-24.7101-184.2205-24.7101-14.8386,0-29.6072,1.4807-44.2896,5.1673-34.1826,8.5849-64.2192,28.4528-95.709,44.3045-3.8411,1.9541-8.2883,3.8223-12.4512,3.8223-3.1121,0-6.0649-1.0436-8.4888-3.8759-2.8318-3.3495-3.675-7.6615-2.8-11.715.6096-3.015,2.2083-5.8713,4.623-8.0236,42.5088-37.9084,100.7454-60.0583,158.0452-60.0583,6.2874,0,12.5586.2664,18.8015.808,58.2432,5.0764,114.3103,27.0582,173.0532,27.0582,2.7,0,5.3987-.0463,8.1106-.1429,107.6934-3.8018,195.8574-87.54,300.4978-113.3386,8.8323-2.1748,18.4644-3.6556,27.8354-3.6558M785.302,225.8169v5l-.0005-5h-.0015c-9.022.0002-18.7893,1.279-29.031,3.8008-45.0115,11.0974-87.3293,32.942-128.2539,54.0674-56.7671,29.3034-110.3862,56.9816-171.2246,59.1293-2.6028.0927-5.2717.1397-7.9343.1397-32.6482,0-65.2639-7.0768-96.8057-13.9205-24.6582-5.3502-50.156-10.8826-75.8135-13.1188-6.325-.5488-12.7961-.8269-19.2356-.8269-28.709,0-58.5667,5.581-86.3457,16.1397-27.771,10.5557-53.7151,26.1811-75.0273,45.1869-3.1531,2.8105-5.3508,6.6212-6.1895,10.7321-1.2361,5.7718.1758,11.5895,3.876,15.9663,3.1687,3.7027,7.4177,5.6478,12.3071,5.6478,5.439,0,10.7227-2.3332,14.7183-4.3658,8.302-4.1791,16.625-8.7017,24.6743-13.0754,22.3066-12.1211,45.3728-24.6548,69.9856-30.8362,13.4441-3.3757,27.533-5.0167,43.0715-5.0167,29.6616,0,60.447,6.1847,90.2188,12.1658,30.698,6.1672,62.4409,12.5443,94.0017,12.5443,1.7522,0,3.5164-.0199,5.2437-.0591,67.824-1.5549,129.9033-33.542,189.9387-64.4759,52.8889-27.2516,107.5784-55.431,165.1824-61.8954,5.4866-.6014,9.7891-4.2885,11.2153-9.6209,1.8889-7.1157-1.9646-13.942-8.9612-15.8875-1.8584-.5152-3.8811-.9582-6.0166-1.318-4.2173-.7306-8.7981-1.103-13.5925-1.103h0Z"/>
      </g>
      <g>
        <path class="cls-1" d="M827.7356,367.9943c1.1609,2.5549-.5192,5.5996-3.2958,6.0066-7.9188,1.1605-16.3753-1.894-23.9397-5.1882-26.8795-11.7023-52.6698-26.7195-73.6487-47.2193-21.0058-20.4747-37.0081-46.7395-42.0585-75.6437-3.5021-20.0231-1.7749-40.9671-7.8305-60.3836-11.3458-36.3536-47.7777-59.5205-84.5363-69.5202-74.4263-20.2085-157.5112.6158-228.2356-30.1267-9.425-4.0886-19.0176-9.6195-23.5102-18.8473-6.8642-14.0278.6663-23.1443,11.4943-25.1075,3.9432-.7491,8.3034-.5451,12.5806.7286,18.9752,5.6443,35.949,16.329,54.3036,23.5505,30.711,12.1002,64.2628,14.53,97.2362,16.159,32.9742,1.6029,66.3843,2.5909,98.0081,12.0506,31.6229,9.4855,61.8407,28.735,76.7579,58.1849,19.7396,39.0265,9.5418,88.1196,29.3606,127.1222,10.2186,20.1115,27.857,35.8616,47.8179,46.3189,11.7188,6.1413,24.3225,10.609,35.6569,17.3929,6.0149,3.5717,11.7445,7.9721,16.3783,13.2035,3.0131,3.4071,5.5716,7.1672,7.4402,11.2735.0069.0151.0138.0302.0206.0453Z"/>
        <path class="cls-2" d="M356.8728,41.5296c2.5813,0,5.2473.3786,7.8823,1.1633,18.9751,5.6443,35.949,16.329,54.3037,23.5505,30.7109,12.1002,64.2627,14.53,97.2361,16.159,32.9741,1.6029,66.3843,2.5909,98.0081,12.0506,31.623,9.4855,61.8408,28.7349,76.7581,58.1848,19.7395,39.0265,9.5417,88.1197,29.3606,127.1222,10.2185,20.1115,27.8569,35.8617,47.8179,46.3189,11.7188,6.1414,24.3225,10.6091,35.657,17.3929,6.0146,3.5718,11.7444,7.9721,16.3782,13.2035,3.0132,3.4072,5.5718,7.1672,7.4404,11.2735.0068.0151.0137.0302.0205.0453,1.1609,2.5548-.5193,5.5996-3.2957,6.0065-1.1716.1717-2.356.2512-3.5466.2512-6.8562,0-13.948-2.6326-20.3933-5.4394-26.8794-11.7023-52.6697-26.7195-73.6487-47.2192-21.0059-20.4747-37.0081-46.7396-42.0583-75.6437-3.5022-20.0231-1.7749-40.9671-7.8306-60.3836-11.3459-36.3536-47.7778-59.5204-84.5364-69.5201-74.4263-20.2085-157.5112.6158-228.2356-30.1267-9.425-4.0886-19.0176-9.6195-23.5103-18.8474-6.864-14.0277.6663-23.1443,11.4944-25.1075,1.5139-.2876,3.0898-.4347,4.6982-.4348M356.8736,36.5296h-.0002c-1.9124,0-3.8071.1759-5.6321.5226-7.3442,1.3314-13.2485,5.3985-16.1575,11.151-2.1335,4.2195-3.6738,11.2993,1.1052,21.0662,5.4443,11.1825,16.7612,17.2239,26.0117,21.2368,40.2859,17.5116,84.8401,18.6692,127.9272,19.7888,33.7266.8764,68.6016,1.7825,100.988,10.5762,41.3406,11.2462,71.6492,35.9883,81.0735,66.1845,3.449,11.0585,4.2429,22.6047,5.0835,34.8288.562,8.1751,1.1433,16.6287,2.5947,24.9267,4.8848,27.9559,20.3311,55.7859,43.4937,78.3628,19.26,18.8201,43.8411,34.5954,75.1428,48.2231,6.6479,2.8952,14.5073,5.855,22.3892,5.855,1.458,0,2.895-.1023,4.2717-.304,2.8564-.4187,5.397-2.1994,6.7957-4.7633,1.4146-2.5931,1.5337-5.6033.3269-8.2589-.0002-.0009-.0212-.047-.0215-.0479-1.9849-4.3616-4.7593-8.5722-8.2461-12.5149-4.6582-5.2591-10.5688-10.0323-17.5706-14.1902-6.834-4.0903-14.1184-7.3698-21.1631-10.5412-4.8977-2.2049-9.9622-4.4848-14.7258-6.9814-20.4287-10.7021-36.6516-26.3833-45.6812-44.1551-9.5085-18.7119-11.7905-39.6974-14.2065-61.915-2.4006-22.0742-4.8828-44.8998-15.1501-65.1992-7.4402-14.6886-18.7593-27.5981-33.6443-38.3726-13.126-9.5013-29.0806-17.228-46.1389-22.3447-30.0269-8.9819-61.7168-10.4802-92.3633-11.9292-2.281-.1078-4.5608-.2156-6.8386-.3263-33.4397-1.6521-65.9207-4.105-95.646-15.8168-7.3015-2.8728-14.5835-6.4059-21.6257-9.8228-10.5457-5.1166-21.4504-10.4075-33.0852-13.8683-3.0542-.9095-6.186-1.3708-9.3071-1.3708h0Z"/>
      </g>
    </g>
  </g>
</svg>