<?xml version="1.0" encoding="UTF-8"?>
<svg id="Capa_2" xmlns="http://www.w3.org/2000/svg" viewBox="0 0 1842.3438 472.371">
  <defs>
    <style>
      .cls-1 {
        fill: #4291c1;
      }

      .cls-2 {
        fill: #86bfea;
      }
    </style>
  </defs>
  <g id="Capa_1-2" data-name="Capa_1">
    <g>
      <g>
        <path class="cls-2" d="M688.2772,177.0609c-31.1158,33.7455-72.9178,58.1633-118.2075,65.6963-75.9194,12.5857-150.9592-21.732-227.2506-31.6411-108.5368-14.1313-219.6369,22.645-309.314,85.3718-4.5355,3.1636-9.2331,6.5058-14.6953,7.3417-5.4622.8366-11.8975-1.7541-13.4442-7.0537-.4527-1.5293-.4599-3.0984-.1536-4.6582.5544-2.9122,2.23-5.7136,4.1024-8.0913.9496-1.2014,1.9768-2.3743,3.0288-3.4946,8.6001-9.0335,20.2961-14.8148,31.7413-20.0537,49.3024-22.5031,84.4982-39.9476,136.0377-56.6082,24.5685-7.9201,64.6932-14.9482,90.7282-15.6891,26.3746-.7308,58.37-1.4568,84.0071,4.3531,2.0516.4778,4.1034.9549,6.155,1.4324,42.9721,10.3091,79.356,27.8797,123.0012,34.7834,43.62,6.8769,90.3089,7.0446,128.7419-14.7776,23.2836-13.2387,44.5326-33.9081,70.6763-36.6067,1.6002-.1895,3.2236-.2733,4.8454-.3048Z"/>
        <path class="cls-1" d="M688.2772,177.0609c-31.1158,33.7454-72.9177,58.1633-118.2074,65.6962-11.5103,1.9081-23.0088,2.7386-34.486,2.7386-64.2245,0-128.0399-25.9729-192.7648-34.3797-15.614-2.0329-31.2834-3.0123-46.9323-3.0124-93.1292-.0005-185.6056,34.6814-262.3817,88.3843-4.5355,3.1636-9.2332,6.5058-14.6953,7.3417-.675.1034-1.3658.1545-2.0597.1545-4.9193,0-10.0289-2.5636-11.3845-7.2082-.4528-1.5293-.4598-3.0984-.1536-4.6582.5544-2.9122,2.23-5.7136,4.1024-8.0912.9496-1.2014,1.9768-2.3744,3.0287-3.4946,8.6002-9.0335,20.2961-14.8147,31.7413-20.0537,49.3025-22.5031,84.4983-39.9476,136.0377-56.6081,24.5686-7.9202,64.6931-14.9483,90.7281-15.6891,8.8022-.2439,18.2334-.4873,27.8425-.4873,19.1831,0,39.0836.9695,56.1647,4.8404,2.0515.4778,4.1033.9549,6.1549,1.4324,42.972,10.3091,79.356,27.8797,123.0012,34.7834,15.8197,2.494,32.046,4.1058,48.1329,4.1058,28.2697,0,56.1145-4.9755,80.609-18.8835,23.2836-13.2386,44.5325-33.9081,70.6763-36.6067,1.6002-.1894,3.2235-.2732,4.8453-.3047M688.2778,172.0609c-.0326,0-.0651.0003-.0977.0009-1.9762.0385-3.7084.1476-5.2937.3335-19.7312,2.0474-36.5649,13.4835-52.8441,24.5432-6.4485,4.3809-13.1162,8.9109-19.7582,12.6873-21.6034,12.2664-47.1633,18.2299-78.1377,18.2299-14.601,0-30.0907-1.3231-47.3541-4.0448-24.9301-3.9434-47.1061-11.309-70.5842-19.1071-16.6157-5.5187-33.797-11.2254-52.0293-15.5993l-2.2928-.5337-3.8943-.9064c-14.9735-3.3933-33.1713-4.9707-57.2988-4.9707-9.5355,0-18.6769.2314-27.9811.4892-26.272.7476-66.7358,7.7441-92.1237,15.9284-44.2137,14.2924-75.7043,28.8016-115.573,47.1709-6.7512,3.1106-13.7322,6.327-21.0068,9.6474-11.7925,5.398-24.072,11.4759-33.2865,21.1547-1.2377,1.3179-2.3502,2.6021-3.33,3.8417-2.7488,3.4904-4.46,6.9389-5.0917,10.2566-.4757,2.4228-.3865,4.7918.2711,7.0128,1.8517,6.3445,8.507,10.7887,16.179,10.7887.9498,0,1.8975-.0714,2.8165-.2121,6.4969-.9943,11.8181-4.7075,16.5128-7.9836l.286-.1996c80.657-56.4175,172.8215-87.4857,259.5212-87.4852,15.5748,0,31.1479.9995,46.2867,2.9706,25.9825,3.3747,52.3534,9.7386,77.8562,15.8929,37.7474,9.1092,76.78,18.5286,115.5541,18.5286,12.1945,0,24.0724-.944,35.3037-2.8059,44.9896-7.483,87.984-31.3623,121.0654-67.2395,1.3579-1.4726,1.7059-3.6135.8843-5.4404-.8083-1.797-2.595-2.949-4.5594-2.949h0Z"/>
      </g>
      <g>
        <path class="cls-2" d="M890.8635,278.0844c-.7911,2.9577-3.1659,5.53-6.9426,5.944-123.8536,13.899-228.2905,123.4439-354.6772,126.3414-78.6675,1.7874-157.3222-38.6476-233.6401-19.485-34.1826,8.5848-64.2191,28.4527-95.7088,44.3045-6.7129,3.415-15.2744,6.5671-20.9401-.0536-2.8317-3.3496-3.6749-7.6615-2.8001-11.715.6097-3.015,2.2084-5.8712,4.6232-8.0236,47.1729-42.068,113.709-64.7279,176.8467-59.2503,60.9204,5.3097,119.452,29.1128,181.1637,26.9154,107.6935-3.8018,195.8576-87.54,300.4979-113.3386,12.9284-3.1834,27.5659-4.8798,40.5992-2.6223,1.8732.3156,3.7182.7086,5.5079,1.2047,4.8242,1.3414,6.4966,5.9125,5.4703,9.7784Z"/>
        <path class="cls-1" d="M867.1215,266.0678c4.3461,0,8.6345.3182,12.7639,1.0335,1.8732.3156,3.7181.7086,5.5078,1.2047,4.8242,1.3415,6.4966,5.9125,5.4703,9.7784-.7911,2.9578-3.1659,5.53-6.9426,5.944-123.8536,13.899-228.2904,123.4439-354.6771,126.3414-1.7094.0388-3.4208.0578-5.13.0578-61.8225,0-123.6042-24.7101-184.2206-24.7101-14.8387,0-29.6073,1.4807-44.2896,5.1673-34.1826,8.5849-64.2191,28.4528-95.7089,44.3045-3.8412,1.9541-8.2883,3.8223-12.4512,3.8223-3.1122,0-6.0651-1.0436-8.4889-3.8759-2.8317-3.3495-3.6749-7.6615-2.8-11.715.6097-3.015,2.2084-5.8713,4.6232-8.0236,42.5085-37.9084,100.7452-60.0583,158.0452-60.0583,6.2874,0,12.5587.2664,18.8015.808,58.2433,5.0764,114.3102,27.0582,173.0531,27.0582,2.7001,0,5.3987-.0463,8.1106-.1429,107.6935-3.8018,195.8575-87.5399,300.4979-113.3386,8.8323-2.1748,18.4642-3.6556,27.8353-3.6558M867.1235,261.0678v5l-.0006-5h-.0015c-9.0217.0002-18.7891,1.279-29.0308,3.8008-45.0116,11.0974-87.3293,32.942-128.2539,54.0674-56.7672,29.3033-110.3861,56.9816-171.225,59.1293-2.6027.0927-5.2716.1397-7.9343.1397-32.6479,0-65.2637-7.0767-96.8054-13.9205-24.6583-5.3502-50.1561-10.8826-75.8135-13.1188-6.3251-.5488-12.7963-.8269-19.2356-.8269-28.709,0-58.5669,5.581-86.3458,16.1397-27.7711,10.5558-53.7151,26.1811-75.0271,45.1869-3.1527,2.81-5.3502,6.62-6.1893,10.7304-1.2368,5.7724.175,11.5907,3.8757,15.968,3.1686,3.7027,7.4176,5.6478,12.3071,5.6478,5.4388,0,10.7227-2.3332,14.7183-4.3658,8.3021-4.1792,16.6251-8.7018,24.6743-13.0755,22.3066-12.121,45.3728-24.6547,69.9854-30.8361,13.4441-3.3757,27.5331-5.0167,43.0717-5.0167,29.6615,0,60.4469,6.1847,90.2188,12.1658,30.698,6.1672,62.441,12.5443,94.0018,12.5443,1.752,0,3.5161-.0199,5.2435-.0591,67.8241-1.5549,129.9033-33.542,189.9386-64.4759,52.889-27.2516,107.5785-55.431,165.1826-61.8954,5.4866-.6014,9.7888-4.2884,11.2152-9.6207,1.8889-7.116-1.9646-13.9422-8.9611-15.8877-1.8583-.5152-3.8813-.9582-6.0166-1.318-4.2173-.7306-8.7981-1.103-13.5925-1.103h0Z"/>
      </g>
      <g>
        <path class="cls-2" d="M909.5571,403.2452c1.1609,2.5549-.5192,5.5996-3.2958,6.0066-7.9188,1.1605-16.3753-1.894-23.9397-5.1882-26.8795-11.7023-52.6698-26.7195-73.6487-47.2193-21.0058-20.4747-37.0081-46.7395-42.0585-75.6437-3.5021-20.0231-1.7749-40.9671-7.8305-60.3836-11.3458-36.3536-47.7777-59.5205-84.5363-69.5202-74.4263-20.2085-157.5112.6158-228.2356-30.1267-9.425-4.0886-19.0176-9.6195-23.5102-18.8473-6.8642-14.0278.6663-23.1443,11.4943-25.1075,3.9432-.7491,8.3034-.5451,12.5806.7286,18.9752,5.6443,35.949,16.329,54.3036,23.5505,30.711,12.1002,64.2628,14.53,97.2362,16.159,32.9742,1.6029,66.3843,2.5909,98.0081,12.0506,31.6229,9.4855,61.8407,28.735,76.7579,58.1849,19.7396,39.0265,9.5418,88.1196,29.3606,127.1222,10.2186,20.1115,27.857,35.8616,47.8179,46.3189,11.7188,6.1413,24.3225,10.609,35.6569,17.3929,6.0149,3.5717,11.7445,7.9721,16.3783,13.2035,3.0131,3.4071,5.5716,7.1672,7.4402,11.2735.0069.0151.0138.0302.0206.0453Z"/>
        <path class="cls-1" d="M438.6942,76.7805c2.5813,0,5.2473.3786,7.8823,1.1633,18.9752,5.6443,35.949,16.329,54.3037,23.5505,30.7109,12.1002,64.2627,14.53,97.2362,16.1591,32.9741,1.6029,66.3843,2.5909,98.0081,12.0505,31.6229,9.4855,61.8407,28.735,76.7579,58.1849,19.7396,39.0266,9.5417,88.1196,29.3606,127.1222,10.2186,20.1115,27.8571,35.8616,47.8179,46.3189,11.7189,6.1413,24.3225,10.609,35.657,17.3929,6.0148,3.5717,11.7445,7.9721,16.3783,13.2035,3.0131,3.4072,5.5717,7.1672,7.4403,11.2735.0068.0151.0137.0302.0205.0453,1.1609,2.5548-.519,5.5996-3.2957,6.0065-1.1715.1717-2.356.2512-3.5465.2512-6.8561,0-13.948-2.6326-20.3933-5.4394-26.8794-11.7023-52.6698-26.7195-73.6487-47.2193-21.0059-20.4746-37.0082-46.7395-42.0585-75.6436-3.5021-20.0232-1.775-40.9671-7.8306-60.3836-11.3458-36.3536-47.7777-59.5205-84.5363-69.5202-74.4264-20.2085-157.5112.6158-228.2356-30.1268-9.425-4.0886-19.0176-9.6195-23.5103-18.8473-6.8643-14.0278.6663-23.1443,11.4943-25.1075,1.5139-.2876,3.0898-.4347,4.6982-.4348M438.6949,71.7805h-.0001c-1.9124,0-3.8073.1759-5.6321.5226-7.3444,1.3314-13.2485,5.3986-16.1576,11.1512-2.1337,4.2194-3.6738,11.2992,1.1053,21.0662,5.4443,11.1824,16.7612,17.2238,26.0116,21.2366,40.286,17.5116,84.8401,18.6693,127.9272,19.7888,33.7267.8764,68.6016,1.7825,100.988,10.5762,41.3407,11.2462,71.6494,35.9883,81.0735,66.1844,3.449,11.0587,4.2429,22.605,5.0835,34.8293.5621,8.175,1.1434,16.6284,2.5948,24.9262,4.8845,27.9557,20.3309,55.7858,43.4937,78.3627,19.2599,18.82,43.8407,34.5954,75.1428,48.2231,6.6481,2.8952,14.5074,5.855,22.3892,5.855,1.4579,0,2.8949-.1023,4.2716-.304,2.8564-.4186,5.397-2.1992,6.7957-4.7632,1.4146-2.5931,1.5337-5.6034.3269-8.259-.0002-.0009-.0212-.047-.0215-.0479-1.9849-4.3615-4.759-8.572-8.2458-12.5148-4.6587-5.2596-10.5695-10.0328-17.5708-14.1904-6.8342-4.0905-14.1189-7.3699-21.1638-10.5414-4.8975-2.2049-9.9617-4.4847-14.7253-6.981-20.4282-10.7022-36.6512-26.3834-45.681-44.1552-9.5082-18.7118-11.7903-39.6972-14.2064-61.9148-2.4004-22.0742-4.8827-44.8999-15.15-65.1993-7.4402-14.6886-18.7594-27.5981-33.6443-38.3726-13.1261-9.5013-29.0807-17.228-46.1389-22.3447-30.0267-8.9819-61.7166-10.4802-92.3632-11.9292-2.2811-.1078-4.5609-.2156-6.8386-.3263-33.4401-1.6522-65.9211-4.1051-95.6461-15.8169-7.3015-2.8727-14.5836-6.4059-21.626-9.8228-10.5457-5.1166-21.4504-10.4075-33.0851-13.8682-3.0541-.9095-6.1859-1.3708-9.3071-1.3708h0Z"/>
      </g>
      <g>
        <path class="cls-2" d="M1422.9658,34.2604c-.0361,1.2538-.4355,2.419-1.2754,3.4404-.9759,1.2006-2.3545,1.8669-3.8548,2.2159-1.4228.3774-2.9155.4653-4.3545.5024l-.0261-.0008c-15.0937.2973-30.078-2.304-45.174-2.8433-31.7322-1.1487-63.2606,6.9633-92.629,19.0594-39.2892,16.15-76.3225,40.2088-101.4654,74.4399-38.4224,52.3331-45.1303,121.8667-78.5759,177.5064-30.1491,50.1135-80.0313,85.4886-132.5886,111.1657-6.9479,3.4079-15.043,6.7043-22.1447,3.6502-8.0832-3.4746-10.6021-14.0572-7.8476-22.5533.3727-1.1395.8491-2.2501,1.4278-3.2793,4.7749-8.7514,14.1019-13.9734,23.1875-18.0777,24.5012-11.0334,51.3838-17.6062,72.9938-33.5595,36.6481-27.0243,50.3252-74.3698,66.0133-117.1086,1.8432-4.9929,3.7377-9.9579,5.6839-14.8955,8.3989-21.1182,18.0652-41.7554,29.5075-61.4262,11.3049-19.4398,24.3339-37.9147,39.5305-54.4972,15.0883-16.4548,32.2154-31.0732,51.6428-42.0437,22.0042-12.3864,44.2389-24.6094,67.6768-34.1307,23.0669-9.3494,47.4418-15.9944,72.4058-16.7658,16.4858-.5189,34.3659,2.2966,47.3776,11.665,1.3321.9533,2.6089,2.0098,3.8312,3.1428,2.0648,1.8374,3.9399,3.9042,5.6523,6.1761,1.7363,2.3507,3.1896,5.4515,3.0053,8.2174Z"/>
        <path class="cls-1" d="M1366.8336,5c15.4092,0,31.6084,3.059,43.6433,11.7241,1.332.9534,2.6089,2.0098,3.8313,3.1428,2.0647,1.8374,3.9399,3.9042,5.6523,6.1761,1.7361,2.3507,3.1895,5.4515,3.0051,8.2174-.0361,1.2539-.4355,2.419-1.2754,3.4404-.9758,1.2006-2.3545,1.8669-3.8547,2.2159-1.4229.3774-2.9155.4653-4.3545.5024l-.0261-.0008c-.8108.016-1.623.0236-2.4331.0236-14.2725,0-28.4558-2.3566-42.741-2.8669-2.0027-.0725-4.0088-.1081-6.0095-.1082-29.698-.0008-59.1045,7.8348-86.6194,19.1676-39.2893,16.15-76.3225,40.2088-101.4653,74.4399-38.4224,52.3331-45.1304,121.8667-78.5759,177.5064-30.1492,50.1135-80.0312,85.4886-132.5886,111.1657-5.0122,2.4583-10.6221,4.8589-16.0244,4.8589-2.0867,0-4.1416-.3578-6.1204-1.2088-8.0833-3.4746-10.6021-14.0572-7.8477-22.5533.3728-1.1394.8491-2.2501,1.4277-3.2793,4.7749-8.7514,14.1021-13.9734,23.1875-18.0777,24.5012-11.0334,51.3838-17.6062,72.9939-33.5595,36.6482-27.0243,50.3252-74.3698,66.0132-117.1086,1.8433-4.993,3.7378-9.9579,5.6841-14.8956,8.3989-21.1182,18.0652-41.7554,29.5073-61.4262,11.3049-19.4398,24.334-37.9146,39.5305-54.4971,15.0884-16.4548,32.2156-31.0732,51.6428-42.0436,22.0042-12.3864,44.239-24.6094,67.6768-34.1307,23.0671-9.3494,47.4419-15.9944,72.4058-16.7658,1.2375-.039,2.4836-.0591,3.7344-.0591M1366.8344,0h-.0007c-1.2825,0-2.5918.0207-3.8916.0616-23.21.7172-47.458,6.3204-74.1267,17.1294-23.6487,9.6069-45.7783,21.7573-68.2512,34.4074-18.4778,10.4343-36.2656,24.9077-52.8755,43.0216-14.4763,15.7966-27.9902,34.423-40.1675,55.3628-10.9282,18.7872-20.686,39.0979-29.8311,62.092-1.9543,4.9576-3.8796,10.0036-5.7288,15.0117-1.7036,4.6409-3.4089,9.4069-5.0581,14.016-13.6506,38.1492-27.7661,77.5973-59.2319,100.8-14.1379,10.4371-30.4771,16.6487-47.7756,23.2249-8.0227,3.05-16.3186,6.2039-24.3037,9.7997-9.4966,4.2901-19.9475,10.0449-25.5098,20.2163-.7158,1.2781-1.3228,2.6725-1.8047,4.1449-3.3777,10.4189-.3242,23.995,10.6252,28.7017,2.4919,1.0717,5.2158,1.6152,8.095,1.6152,6.3965,0,12.54-2.5808,18.2263-5.3698,28.9521-14.1447,54.3989-29.9623,75.6262-47.0099,24.7751-19.8967,44.6406-42.1249,59.0449-66.0674,15.5176-25.8151,25.4465-54.7593,35.0486-82.7505,11.2166-32.6981,22.8152-66.5094,43.2732-94.3744,22.3008-30.3619,55.7224-54.847,99.3359-72.7744,30.2778-12.4707,58.78-18.7929,84.7185-18.7921,1.9473,0,3.9084.0354,5.8286.1049,6.1414.2194,12.4336.8036,18.5188,1.3685,7.9519.7383,16.1743,1.5016,24.4031,1.5016.8179,0,1.6377-.0075,2.4563-.0231.0046,0,.0095,0,.0142,0,.0413,0,.0815-.0004.1177-.0013,1.698-.0439,3.53-.1532,5.4331-.6483,2.752-.6546,4.9478-1.9714,6.5273-3.9147,1.4705-1.7881,2.3018-3.9908,2.3899-6.3542.2874-4.8648-2.3643-9.2429-3.9775-11.4275-1.9575-2.5971-4.0715-4.9079-6.313-6.9074-1.4014-1.296-2.8418-2.4757-4.2827-3.507-14.5288-10.4608-33.3359-12.6583-46.5527-12.6583h0Z"/>
      </g>
      <g>
        <path class="cls-2" d="M1729.0453,459.0023c-6.2715,2.6171-13.7056.2067-19.0218-4.0247-5.3153-4.2575-9.069-10.0914-13.2013-15.4916-19.0941-25.1254-47.4926-42.1785-77.6588-51.413-30.166-9.2348-62.1647-11.1234-93.7028-9.9396-46.8236,1.7892-94.4124,10.171-140.0421-.4499-39.8907-9.2793-75.4522-32.7089-104.5042-61.5719-29.052-28.863-52.1716-63.0982-73.8647-97.8409-4.8236-7.7208-11.3043-21.45-3.7776-29.5211,2.724-2.9021,6.2277-3.8209,9.9043-3.4798,6.0238.5398,12.4454,4.5155,16.2503,8.5728,6.3165,6.7179,9.7209,15.6004,13.2927,24.1216,26.9382,64.1494,77.5589,122.9937,145.3106,138.931,56.533,13.3143,115.8522-4.7691,173.7169.4259,40.4979,3.6236,79.0766,18.5124,116.3063,34.8524,16.2134,7.1337,32.5451,14.6889,46.0445,26.1889,6.2527,5.3042,12.052,11.8244,13.9131,19.8259.1402.5791.2535,1.1837.3146,1.787.0886.5515.1513,1.1022.1876,1.6522.3702,7.1218-2.9318,14.661-9.4677,17.3749Z"/>
        <path class="cls-1" d="M1211.7474,185.2021c.4727,0,.949.023,1.4287.0675,6.0239.5398,12.4456,4.5155,16.2505,8.5728,6.3164,6.7179,9.7207,15.6004,13.2927,24.1216,26.938,64.1494,77.5588,122.9937,145.3105,138.9311,15.8584,3.7349,31.9446,4.9995,48.1479,4.9995,33.9297,0,68.4045-5.5396,102.5764-5.5398,7.6838,0,15.3496.28,22.9924.9661,40.498,3.6237,79.0767,18.5124,116.3064,34.8524,16.2134,7.1337,32.5452,14.6888,46.0444,26.1888,6.2527,5.3042,12.052,11.8244,13.9131,19.8259.1404.5792.2537,1.1837.3147,1.787.0886.5515.1514,1.1022.1877,1.6522.3701,7.1218-2.9319,14.6611-9.4678,17.3749-1.7964.7496-3.6882,1.0868-5.5984,1.0868-4.7583,0-9.6299-2.0921-13.4233-5.1115-5.3154-4.2575-9.0691-10.0914-13.2014-15.4916-19.094-25.1254-47.4927-42.1785-77.6587-51.4131-24.9758-7.6458-51.208-10.256-77.3948-10.256-5.4419,0-10.8816.1127-16.3081.3164-29.342,1.1212-58.9897,4.8317-88.2622,4.8317-17.4404,0-34.7439-1.3163-51.78-5.2816-39.8906-9.2793-75.4521-32.7089-104.5042-61.5719-29.052-28.8631-52.1716-63.0982-73.8647-97.8409-4.8235-7.7207-11.3042-21.4499-3.7776-29.5211,2.3687-2.5234,5.3271-3.5474,8.4756-3.5474M1211.7474,180.2022c-4.7822,0-8.9739,1.7723-12.1211,5.1253-7.3616,7.8942-6.2273,20.5302,3.1826,35.5923,21.0483,33.7101,44.6523,69.0043,74.5813,98.7387,32.6975,32.4849,69.6614,54.2336,106.8953,62.8948,15.6443,3.6414,32.9524,5.4116,52.9128,5.4116,17.4351,0,35.1956-1.3167,52.3713-2.5901,11.8582-.8791,24.1201-1.7882,36.0818-2.2453,5.5286-.2075,10.9521-.3127,16.1174-.3127,29.0315,0,53.8687,3.2832,75.9309,10.037,31.4331,9.6225,58.1189,27.2578,75.1414,49.6573.8279,1.0819,1.657,2.2041,2.4587,3.2894,3.3721,4.564,6.8586,9.2836,11.5979,13.0795,4.9617,3.9494,10.9893,6.209,16.5491,6.209,2.6514,0,5.1826-.4954,7.5239-1.4725,8.0132-3.3271,13.0542-12.2695,12.5354-22.2487-.0012-.0236-.0024-.0472-.0042-.0709-.0432-.6537-.1165-1.3173-.218-1.975-.082-.7389-.2212-1.5157-.4143-2.312-1.8057-7.7645-6.8916-15.1263-15.5378-22.4608-13.8022-11.7582-30.2336-19.4589-47.2651-26.9525-36.7295-16.1204-76.4272-31.5473-117.8745-35.2559-7.3899-.6635-15.0571-.9861-23.4377-.9861-17.3181.0002-34.8845,1.4202-51.8726,2.7936-16.7012,1.3502-33.9709,2.7462-50.7041,2.7462-17.7236,0-33.0979-1.5918-47.0017-4.8663-58.8757-13.8494-111.9019-64.6904-141.8469-136.0001-.2722-.6495-.5444-1.304-.8174-1.9595-3.436-8.2532-6.989-16.7875-13.4424-23.6512-3.958-4.2205-11.4299-9.4094-19.447-10.1279-.6204-.0575-1.2563-.0874-1.875-.0874h0Z"/>
      </g>
      <g>
        <path class="cls-2" d="M1319.1018,369.1073c-1.7879,2.1707-4.5641,3.2413-7.2049,4.1588-56.4386,19.7349-118.3779,15.3112-177.3379,5.4832-58.961-9.8024-117.4848-24.7946-177.2814-25.5488-102.0311-1.2641-206.0902,38.8522-304.011,10.1502-107.2797-31.455-174.5115-135.3796-265.4252-200.4296-67.8119-48.4938-150.8018-75.3961-234.1695-76.0736-4.0968-.0333-6.4419-4.8694-3.8047-8.0047.0086-.0102.0168-.0197.0246-.0287,2.6211-2.9571,5.6511-5.5889,8.9304-7.7952,4.6126-3.1091,10.0204-4.7837,15.4959-6.09,2.2117-.5376,4.4478-1.0225,6.6311-1.4824,3.7887-.8321,7.6245-1.4796,11.4818-1.9698,13.12-1.6616,26.4739-1.4604,39.6038.1725,35.3776,4.3912,69.0364,18.5371,100.0763,35.5615,66.4031,36.4482,125.2623,85.2025,180.1269,137.3978,39.7485,37.8249,79.3037,78.7291,130.5577,98.3225,91.6724,35.0582,193.6047-6.557,291.7022-3.9685,82.8671,2.1766,163.1973,36.1762,245.9777,32.2846,39.7669-1.8618,78.9751-12.4718,118.7868-11.3519,6.2694.1805,13.7384,3.1931,18.0896,7.3447,3.6639,3.5041,5.1086,7.8072,1.7499,11.8674Z"/>
        <path class="cls-1" d="M211.1068,60.3236c6.9935,0,13.9918.463,20.9279,1.3256,35.3777,4.3912,69.0364,18.5371,100.0764,35.5615,66.4031,36.4483,125.2622,85.2026,180.1268,137.3979,39.7485,37.8248,79.3037,78.7291,130.5577,98.3224,27.4222,10.4871,55.774,14.1143,84.6552,14.1143,64.7158,0,132.1418-18.1997,198.0437-18.1997,3.0066,0,6.0034.0378,9.0032.1169,78.386,2.0589,154.5115,32.5945,232.5786,32.5945,4.4629,0,8.9226-.0995,13.3992-.3099,37.7812-1.7689,75.0608-11.4342,112.8303-11.4346,1.9846,0,3.9688.0266,5.9565.0826,6.2693.1806,13.7383,3.1932,18.0896,7.3448,3.6638,3.5042,5.1086,7.8072,1.7498,11.8674-1.7878,2.1708-4.564,3.2414-7.2048,4.1588-28.7256,10.0445-58.8833,13.8313-89.3408,13.8313-29.3838,0-59.0461-3.5222-87.9971-8.3481-58.9609-9.8023-117.4849-24.7946-177.2815-25.5488-1.5879-.0197-3.1865-.0293-4.7756-.0294-73.4908-.0019-147.9576,20.5501-220.3724,20.5501-26.6168,0-52.9542-2.7764-78.8628-10.3706-107.2798-31.4549-174.5116-135.3795-265.4253-200.4296-67.8118-48.4939-150.8018-75.3961-234.1696-76.0737-4.0967-.0332-6.4418-4.8694-3.8046-8.0046.0087-.0101.0167-.0197.0247-.0286,2.621-2.9571,5.6511-5.5891,8.9303-7.7954,4.6125-3.1091,10.0204-4.7837,15.4958-6.0898,2.2117-.5377,4.4478-1.0226,6.631-1.4825,3.7889-.832,7.6246-1.4795,11.4819-1.9698,6.1892-.7838,12.4307-1.1531,18.6759-1.1531M211.1069,55.3236c-6.5604,0-13.0553.4012-19.3042,1.1928-4.1069.522-8.1187,1.2105-11.9261,2.0465-1.9688.4146-4.3469.926-6.7399,1.5077-5.3604,1.2786-11.6036,3.0912-17.1093,6.8022-3.6692,2.4688-6.9935,5.3714-9.8773,8.6249-.024.0271-.0721.0829-.0956.1103-2.4706,2.9371-2.9957,6.9248-1.3843,10.4231,1.6382,3.556,5.0718,5.7848,8.9609,5.8163,82.3348.6691,164.4794,27.3546,231.3016,75.1409,32.1731,23.0202,61.9194,51.4948,90.6863,79.0318,26.0153,24.9028,52.916,50.6534,81.4752,72.2195,32.2274,24.336,63.2255,40.6614,94.7654,49.9091,24.2716,7.1143,50.528,10.5726,80.2697,10.5726,36.4192,0,73.8561-5.2189,110.0604-10.2661,36.2708-5.0563,73.7764-10.2849,110.312-10.284,1.5684,0,3.1462.0095,4.7136.0291,43.3936.5472,87.0413,8.8457,129.2517,16.8709,15.4741,2.942,31.4751,5.9843,47.272,8.6104,34.4436,5.7414,62.6665,8.4157,88.8169,8.4157,34.072,0,63.8354-4.6158,90.9912-14.1114,3.1936-1.1095,6.8276-2.5597,9.4141-5.6999,4.7261-5.7132,3.9038-12.8663-2.1536-18.6595-5.2461-5.0052-13.845-8.5116-21.4014-8.7294-2.0015-.0562-4.0527-.0846-6.1008-.0846-21.1223.0003-42.2747,2.9983-62.7307,5.8977-16.5005,2.3388-33.563,4.7572-50.3333,5.5424-4.2983.202-8.7275.3045-13.1653.3045-39.8269,0-80.0872-8.242-119.022-16.2125-36.9202-7.5582-75.0974-15.3737-113.4255-16.3805-2.9802-.0786-6.0537-.1186-9.1343-.1186-33.4417,0-67.5818,4.6811-100.5978,9.2082-32.2393,4.4205-65.5762,8.9915-97.446,8.9915-31.5081,0-58.6147-4.5089-82.869-13.7845-45.6346-17.4453-82.4242-52.7299-118.0024-86.8528-3.6359-3.4872-7.2644-6.9672-10.8945-10.4217-65.6335-62.4402-123.2007-106.3409-181.1678-138.1588-37.2592-20.4355-70.5795-32.2569-101.8663-36.1403-7.2762-.9049-14.525-1.3637-21.5436-1.3637h0Z"/>
      </g>
      <g>
        <path class="cls-2" d="M1764.5523,177.378c-7.7551,11.4635-48.741-6.0828-77.3649-13.4953-32.465-8.386-63.9978-3.7509-127.0119,5.5463-94.3109,13.9123-162.5369,43.5046-176.4021,50.1643-56.9487,27.4595-67.4278,45.4589-126.7998,69.0048-37.3686,14.8202-90.3479,35.1774-160.5117,32.1905-87.6339-3.6996-149.0546-41.573-175.321-58.2251-8.6522-5.5041-60.0346-38.8008-99.4513-99.0482-30.9766-47.3762-22.9923-63.1728-20.553-67.0766,4.3327-7.0126,13.4874-12.6054,20.7521-10.6709.6486.1757,1.2694.4029,1.862.7072,10.8287,5.2792,9.498,28.797,18.0511,54.0894,13.4178,39.7598,44.1698,63.1554,81.2671,91.3612,13.2525,10.081,35.901,27.0732,69.413,40.8749,82.5267,33.9843,158.0049,18.5621,179.6716,13.3557,38.7005-9.3174,55.7211-22.0566,101.5674-46.2013,10.6713-5.6014,117.6617-61.2676,233.9124-93.5032,174.4687-48.3903,245.4293-9.5098,251.6924-.9373,2.5153,3.4451,4.1364,7.0736,5.1515,9.9524,1.1867,3.276,1.5646,5.5876,1.5646,5.5876.7544,4.6755,1.0236,12.5789-1.4894,16.3235Z"/>
        <path class="cls-1" d="M818.8367,85.3809c1.0414,0,2.0636.1238,3.052.3869.6486.1757,1.2695.4029,1.8619.7072,10.8286,5.2792,9.498,28.7969,18.0511,54.0895,13.4178,39.7598,44.1698,63.1553,81.267,91.3611,13.2527,10.0811,35.9011,27.0733,69.4131,40.8749,40.1956,16.5524,78.7214,21.3845,110.1694,21.3845,33.1191,0,58.3884-5.3581,69.5022-8.0286,38.7004-9.3175,55.7209-22.0567,101.5674-46.2013,10.6714-5.6015,117.6616-61.2676,233.9124-93.5033,64.3608-17.851,114.647-23.8258,152.7844-23.827,65.2454-.002,94.9553,17.4796,98.908,22.8898,2.5154,3.4451,4.1365,7.0736,5.1516,9.9524,1.1868,3.276,1.5645,5.5876,1.5645,5.5876.7544,4.6756,1.0237,12.5789-1.4893,16.3236-1.8206,2.691-5.4734,3.7836-10.3662,3.7836-15.9512,0-45.094-11.6064-66.9988-17.2789-11.8396-3.0582-23.5579-4.3848-36.7214-4.3849-22.9324-.0003-50.2566,4.0246-90.2905,9.9313-94.3108,13.9123-162.5369,43.5045-176.4019,50.1643-56.9487,27.4595-67.428,45.4588-126.7998,69.0048-34.8733,13.8306-83.3508,32.4851-146.6946,32.4851-4.5322,0-9.1321-.0952-13.8171-.2947-87.634-3.6995-149.0547-41.5729-175.321-58.2251-8.6521-5.5041-60.0347-38.8008-99.4514-99.0483-30.9766-47.3761-22.9922-63.1728-20.553-67.0765,3.7434-6.0586,11.0869-11.0579,17.7001-11.0579M818.8368,80.3809c-8.0405,0-17.0684,5.5225-21.9537,13.4297-5.9546,9.5296-7.2235,29.854,20.6217,72.4409,37.7563,57.7096,86.8157,91.5375,100.9526,100.5307,23.8052,15.0919,87.0222,55.17,177.7937,59.002,4.6614.1984,9.3816.2991,14.0281.2991,65.7393,0,115.5664-19.761,148.5381-32.8372,33.6633-13.3504,51.9399-25.0204,71.2898-37.3755,15.2507-9.7377,31.0208-19.8071,55.8381-31.7735,2.9272-1.406,73.022-34.6841,174.96-49.7215,40.3154-5.9484,66.9495-9.8781,89.5608-9.8779,13.0386.0001,24.3098,1.3429,35.4709,4.226,7.0825,1.8341,15.1753,4.3751,23.0017,6.8323,16.6069,5.214,33.7793,10.6056,45.2476,10.6056,6.9412,0,11.8223-2.0127,14.5076-5.982,4.2195-6.2876,2.6428-17.698,2.2842-19.9216-.0479-.2936-.4922-2.8849-1.7998-6.4943-1.4583-4.1364-3.4194-7.9175-5.8145-11.1977-5.946-8.1385-38.929-24.9413-102.9348-24.9413-44.8442.0015-96.698,8.0792-154.1321,24.0088-115.4272,32.0075-223.0122,87.6545-234.8997,93.8943-10.2654,5.4061-19.1599,10.2803-27.0073,14.5807-27.428,15.0305-43.9834,24.1028-73.4067,31.1868-21.4792,5.1612-45.1086,7.8896-68.3318,7.8896-37.989,0-74.4146-7.068-108.2656-21.0077-33.5847-13.8316-56.1609-31.0049-68.2896-40.2311-37.2229-28.3012-66.6229-50.6547-79.5568-88.9804-3.1226-9.2337-4.9043-18.33-6.4763-26.3553-2.8685-14.6448-5.1354-26.2169-14.0804-30.6097-.8621-.438-1.7742-.7846-2.7865-1.0588-1.4044-.3741-2.8641-.5609-4.3593-.5609h0Z"/>
      </g>
      <g>
        <path class="cls-2" d="M1558.112,209.318c-.1323.9635-.4997,1.9206-1.1268,2.8172-1.7725,2.5372-4.9925,3.5951-7.9714,4.4505-56.1199,15.9271-115.9251,17.2906-173.4185,7.3737-36.4998-6.2797-73.1194-17.4776-102.5101-40.0236-24.6581-18.9324-42.9974-44.8467-65.7077-66.05-22.7357-21.2301-53.0682-38.313-83.6815-32.9193-33.5565,5.9096-56.8117,36.3261-87.1668,51.8183-24.9948,12.7448-55.2246,14.8027-81.7299,5.5427-40.897-14.2757-69.9865-52.7349-111.1682-66.2082-38.6172-12.6415-84.3926.8646-109.9558,32.4431-4.3646,5.3908-8.3543,11.3939-14.3619,14.8286-5.3701,3.0873-13.06,3.2061-17.3051-.9948-.5097-.4592-.9379-1.0205-1.3387-1.6336-3.9282-6.1261-.1924-14.2017,4.1341-20.0905,8.3578-11.3757,18.1135-20.9521,30.4431-27.9382,11.9889-6.7931,25.1666-11.2344,38.4396-14.7568,16.205-4.3006,32.8279-7.3662,49.5924-7.591,22.9054-.3072,46.6818,4.7371,66.4454,16.6287,27.8582,16.75,47.1046,48.3897,78.7034,55.9925,27.2888,6.5634,55.2426-7.2467,78.2678-23.316,23.0243-16.0434,45.1218-35.3031,72.4224-41.8638,42.8854-10.2948,87.6704,14.2365,116.0593,47.9698,15.5965,18.5669,27.8651,40.1231,46.0169,56.2017,30.8729,27.3727,73.9455,35.0968,114.6441,41.7325,42.39,6.9196,87.0072,13.6685,127.663.9038,2.5848-.7882,5.1466-1.6818,7.7105-2.6535,5.8424-2.2375,11.9856-4.9362,18.1197-3.6879,5.0684,1.0351,9.4648,6.3381,8.7808,11.0242Z"/>
        <path class="cls-1" d="M825.245,50.3727c22.2958,0,45.28,5.0899,64.4791,16.6419,27.858,16.75,47.1046,48.3898,78.7032,55.9926,4.7651,1.1461,9.5518,1.6711,14.3276,1.6711,22.5747,0,44.9358-11.7239,63.9402-24.9871,23.0244-16.0435,45.1218-35.3032,72.4224-41.8639,6.7244-1.6142,13.5024-2.3727,20.2498-2.3727,36.2842,0,71.8721,21.8987,95.8096,50.3425,15.5967,18.5668,27.8652,40.123,46.0171,56.2018,30.8728,27.3727,73.9456,35.0967,114.644,41.7325,24.9802,4.0777,50.741,8.0969,76.0015,8.0969,17.6052,0,34.9641-1.9505,51.6616-7.193,2.5847-.7882,5.1465-1.6819,7.7104-2.6535,4.8179-1.8452,9.8413-4.004,14.8945-4.0043,1.0747,0,2.1494.0975,3.2251.3164,5.0684,1.0351,9.4648,6.3381,8.7808,11.0242-.1321.9635-.4998,1.9206-1.1267,2.8172-1.7725,2.5373-4.9924,3.5951-7.9714,4.4505-32.8518,9.3236-66.9766,13.6573-101.1511,13.6573-24.2048,0-48.4299-2.172-72.2673-6.2837-36.5-6.2795-73.1194-17.4775-102.5103-40.0235-24.6582-18.9325-42.9973-44.8468-65.7078-66.05-19.8589-18.544-45.5156-33.9238-72.0911-33.9244-3.8496,0-7.717.3225-11.5903,1.005-33.5566,5.9097-56.8118,36.3261-87.167,51.8184-14.6499,7.47-31.0996,11.2689-47.5425,11.2689-11.6108,0-23.2173-1.8936-34.1873-5.7262-40.8972-14.2758-69.9866-52.7349-111.1683-66.2082-9.7108-3.1789-19.8785-4.7043-30.0596-4.7047-30.3055-.0013-60.7612,13.5103-79.8962,37.1478-4.3645,5.3908-8.3542,11.394-14.3618,14.8286-2.5225,1.4502-5.5579,2.2456-8.5066,2.2456-3.3289,0-6.5474-1.0127-8.7985-3.2403-.5098-.4593-.938-1.0206-1.3387-1.6336-3.9281-6.1261-.1924-14.2018,4.1342-20.0905,8.3578-11.3758,18.1135-20.9521,30.4431-27.9382,11.9889-6.7931,25.1666-11.2345,38.4396-14.7569,16.2051-4.3006,32.828-7.3661,49.5924-7.591.6543-.0088,1.3108-.0132,1.9663-.0132M825.245,45.3727c-.678,0-1.3571.0045-2.0337.0136-15.2906.2051-31.91,2.7426-50.8076,7.7578-16.3317,4.3342-28.9219,9.1767-39.6218,15.2394-12.0587,6.8326-22.5284,16.4259-32.0077,29.3281-7.1708,9.7598-8.7028,18.9046-4.3138,25.7496.701,1.0727,1.3663,1.8804,2.1072,2.5639,3.0504,2.9745,7.392,4.6113,12.2391,4.6113,3.8275,0,7.7336-1.0338,10.9988-2.9109,5.7987-3.3152,9.7341-8.3482,13.5398-13.2155.7358-.9411,1.4702-1.8805,2.2158-2.8015,17.8915-22.1013,46.3064-35.2953,76.01-35.294,9.8812.0004,19.4717,1.4998,28.5044,4.4566,20.1244,6.584,37.0903,19.2467,55.0522,32.6528,17.285,12.9008,35.1583,26.2409,56.0238,33.5242,11.4058,3.9847,23.4629,6.0054,35.835,6.0054,17.4304,0,34.6558-4.0854,49.8137-11.8145,12.1289-6.1902,23.1228-14.6512,33.7546-22.8335,16.7717-12.9075,32.613-25.0993,52.0083-28.5149,3.5-.6167,7.1077-.9293,10.7229-.9292,21.7903.0005,46.1807,11.5705,68.6787,32.5788,9.0659,8.4641,17.6323,17.9222,25.9167,27.0691,12.3652,13.6526,25.1516,27.77,40.1587,39.2923,25.9761,19.9266,60.2256,33.3326,104.7075,40.9853,24.4507,4.2174,49.0508,6.356,73.115,6.356,35.6492,0,70.1406-4.6589,102.5161-13.8473,2.9272-.8405,7.8015-2.24,10.7053-6.3971,1.0691-1.5288,1.7363-3.2121,1.9814-5.0013,1.0544-7.223-4.8931-15.0012-12.7339-16.6025-1.3621-.2772-2.782-.4174-4.2234-.4174-5.499.0002-10.7019,2.0174-15.2922,3.7971-.4661.1807-.9304.3608-1.3928.5379-2.6265.9954-5.0461,1.8284-7.3806,2.5403-14.9631,4.6979-31.3718,6.9756-50.2029,6.9756-24.0386,0-48.2771-3.6374-75.1963-8.0316-36.2546-5.9112-81.374-13.2678-112.1323-40.5391-11.2554-9.9698-20.0735-21.9905-29.4092-34.7168-5.1165-6.9748-10.4072-14.1871-16.0964-20.9596-12.7383-15.1361-28.1921-27.9304-44.6946-37.0032-17.9954-9.8938-36.9946-15.1233-54.9436-15.1233-7.2708,0-14.4766.8448-21.4167,2.5108-23.0601,5.5416-42.3838,19.6302-61.0715,33.2549-4.2725,3.1149-8.6902,6.3359-13.0422,9.3685-23.2273,16.2103-43.2063,24.0894-61.0815,24.0894-4.5037,0-8.9309-.5155-13.1587-1.5325-17.9504-4.3189-31.7869-17.0828-46.436-30.5962-9.5891-8.8456-19.5045-17.9925-30.86-24.82-18.8711-11.3547-42.059-17.3568-67.0555-17.3568h0Z"/>
      </g>
      <g>
        <path class="cls-2" d="M1831.4819,253.6595c-5.2215,6.0979-12.6487,9.8057-19.8361,13.3638-51.7438,25.5697-106.9052,51.7993-164.3446,46.3545-32.4619-3.0521-64.8677-16.2207-96.7264-9.3466-22.2839,4.8487-41.4119,19.0435-57.8167,34.9114-28.1029,27.1653-50.6781,60.294-82.4209,83.1191-36.441,26.1934-81.7067,36.5244-125.9076,44.3762-9.8016,1.731-22.6176,1.911-26.67-7.173-1.3749-3.0983-1.1748-6.4129.0634-9.4624,1.9952-4.8315,6.6133-9.0386,11.7599-10.7205,8.3397-2.7142,17.3897-1.0418,26.1849-.5014,1.9054.1072,3.7862.1613,5.694.1901,42.1682.0899,80.6649-26.6717,110.5329-57.0281,25.8271-26.2114,48.0447-56.0039,76.1096-80.033,27.3952-23.4733,55.8204-36.407,92.5553-33.7543,26.2209,1.8789,51.955,8.8683,78.2128,9.4675,46.8208,1.0339,91.9302-18.3998,131.3775-43.6698,7.1915-4.6034,14.5227-9.5166,22.9346-11.1047,4.8627-.9058,10.2075-.3859,14.6187,1.6757,3.2509,1.5055,6.0075,3.8332,7.7197,7.0197,3.7959,7.0899,1.2064,16.2182-4.0412,22.3157Z"/>
        <path class="cls-1" d="M1817.859,222.2204c3.4495,0,6.9167.6887,9.9443,2.1037,3.251,1.5054,6.0076,3.8332,7.7197,7.0197,3.7959,7.0899,1.2063,16.2182-4.0413,22.3157-5.2214,6.0978-12.6487,9.8057-19.8359,13.3637-47.0791,23.2646-96.9973,47.0785-148.8765,47.0785-5.1404,0-10.29-.2332-15.4683-.724-25.8958-2.4348-51.7561-11.3073-77.3313-11.3074-6.4849,0-12.9509.5704-19.395,1.9608-22.2839,4.8488-41.4119,19.0435-57.8167,34.9115-28.103,27.1653-50.678,60.2939-82.4209,83.119-36.4409,26.1935-81.7068,36.5244-125.9075,44.3763-3.0732.5427-6.4434.933-9.7463.933-7.2312,0-14.1418-1.8702-16.9236-8.1061-1.375-3.0983-1.1748-6.4129.0632-9.4624,1.9954-4.8315,6.6133-9.0387,11.76-10.7204,3.5081-1.1418,7.1433-1.5074,10.8311-1.5074,5.0789,0,10.2583.6929,15.3538,1.006,1.9055.1073,3.7861.1614,5.6941.1901.0696.0001.1426.0002.2122.0002,42.0867,0,80.502-26.722,110.3206-57.0283,25.8271-26.2114,48.0447-56.0038,76.1096-80.033,25.031-21.4475,50.9221-34.0961,83.2256-34.0961,3.0513,0,6.1594.1128,9.3298.3418,26.2209,1.8789,51.9551,8.8683,78.2126,9.4675,1.1917.0263,2.3875.0394,3.5769.0394,45.542,0,89.3574-19.0823,127.8008-43.7092,7.1914-4.6034,14.5225-9.5165,22.9346-11.1047,1.5251-.2841,3.0979-.428,4.6743-.428M1817.859,217.2204c-1.8833,0-3.7639.1724-5.5898.5126-8.9424,1.6882-16.3931,6.4693-23.5981,11.0931l-1.1167.7159c-44.4583,28.4802-86.5491,42.9203-125.105,42.9203-1.1533,0-2.3196-.0128-3.4663-.0382-14.2332-.3248-28.7249-2.6389-42.739-4.8767-11.4773-1.8327-23.345-3.7278-35.2268-4.5793-3.2573-.2352-6.5173-.3545-9.6873-.3545-16.3816,0-31.5293,3.0778-46.3088,9.4092-13.3955,5.7386-26.5352,14.2072-40.1702,25.8901-17.5925,15.0628-33.0625,32.5159-48.0229,49.3944-9.1497,10.3226-18.6108,20.9966-28.3948,30.9261-36.26,36.853-72.178,55.5377-106.759,55.5377l-.1731-.0002c-2.0723-.0316-3.8057-.0896-5.4521-.1822-1.7068-.1049-3.4321-.2554-5.2588-.4147-3.3774-.2946-6.8699-.5992-10.376-.5992-4.7053,0-8.7544.5734-12.3784,1.7529-6.5845,2.1515-12.2664,7.3491-14.834,13.5662-1.8398,4.5316-1.8401,9.2803-.012,13.3994,2.2563,5.0583,7.8132,11.0778,21.4937,11.0778,3.2522,0,6.8237-.3395,10.616-1.0092,41.7854-7.4229,89.5742-17.6515,127.9561-45.2401,20.4062-14.6732,37.2119-33.6277,53.4646-51.958,9.4458-10.6537,19.2136-21.67,29.5132-31.626,19.6255-18.9834,37.2302-29.6663,55.4045-33.6208,5.7559-1.2419,11.7551-1.8465,18.332-1.8465,14.2812,0,28.5144,2.8343,43.5835,5.8349,10.8586,2.1623,22.0872,4.3983,33.2798,5.4506,5.2205.4948,10.5835.7459,15.9363.7459,54.7744,0,108.1797-26.3907,151.0916-47.5959,7.261-3.5946,15.4871-7.6669,21.4187-14.5943,6.0115-6.9851,9.7866-18.3362,4.6514-27.9278-2.1321-3.9682-5.5981-7.1461-10.0266-9.1968-3.5872-1.6765-7.7578-2.5666-12.0454-2.5666h0Z"/>
      </g>
      <g>
        <path class="cls-2" d="M1760.2493,78.0104c-12.2838,14.3918-40.4784,6.5995-71.6379.9966,0,0-62.2423-11.1518-119.4692-8.5377-27.4875,1.248-76.1526,7.0629-119.8951,42.5885-8.8073,7.1455-30.4483,25.0849-45.5711,55.4473-11.5425,23.1453-8.3864,31.5763-21.8486,83.2684-9.5817,36.7705-14.3721,55.143-24.1028,73.4776-14.9812,28.1708-32.3832,44.1667-59.2653,68.8835-5.666,5.1963-49.4216,44.8005-82.14,45.2179-3.5826.0277-11.6875.0296-15.2017-5.0387-1.8817-2.7471-2.0131-6.3592-1.2286-9.9965.9062-4.2355,3.0157-8.4886,4.9293-11.3878,5.4421-8.3141,13.3917-12.0069,15.1943-12.87,22.9807-10.8943,71.7111-45.3091,96.2783-74.9815,16.3065-19.7139,23.2644-38.9128,30.3369-58.4483,12.3867-34.3105,7.503-44.4908,18.7073-81.3192,5.9216-19.5163,14.7013-48.4145,34.8535-73.665,23.6797-29.7242,53.0213-41.7946,83.3831-53.8883,84.2596-33.4704,117.8926-7.5342,239.7936-13.5414,10.0276-.4955,33.937-1.8726,40.6174,10.3722.7692,1.4337,1.3248,3.0186,1.5909,4.6731,1.1518,6.3082-1.1023,13.7726-5.3242,18.7493Z"/>
        <path class="cls-1" d="M1571.7655,40.2509c31.4409,0,64.3967,4.9095,113.7837,4.9095,11.6335,0,24.1633-.2719,37.8162-.9447,2.5601-.1265,6.0273-.3104,9.8796-.3105,11.2358-.0002,25.7629,1.5641,30.7375,10.6827.7693,1.4338,1.325,3.0187,1.5911,4.6731,1.1516,6.3082-1.1023,13.7726-5.3242,18.7493-5.1882,6.0786-13.2158,8.1998-23.1052,8.1998-13.5254,0-30.5339-3.9668-48.5327-7.2032,0,0-49.8691-8.9344-101.3711-8.9347-6.0369,0-12.094.1227-18.0981.3969-27.4875,1.248-76.1526,7.0628-119.8953,42.5885-8.8071,7.1455-30.4482,25.0849-45.571,55.4473-11.5425,23.1452-8.3865,31.5763-21.8486,83.2684-9.5815,36.7705-14.3721,55.143-24.1028,73.4776-14.9812,28.1708-32.3831,44.1667-59.2651,68.8836-5.666,5.1962-49.4216,44.8006-82.1401,45.2178-.2478.0019-.5178.0037-.8059.0037-3.8765,0-11.1248-.3246-14.3958-5.0425-1.8816-2.7471-2.0132-6.3591-1.2285-9.9965.9062-4.2354,3.0156-8.4886,4.9292-11.3878,5.4421-8.3141,13.3916-12.0068,15.1943-12.87,22.9807-10.8943,71.7109-45.309,96.2783-74.9815,16.3064-19.7138,23.2644-38.9128,30.3369-58.4482,12.3865-34.3105,7.5029-44.4908,18.7073-81.3192,5.9216-19.5163,14.7012-48.4145,34.8535-73.665,23.6797-29.7242,53.0212-41.7946,83.3831-53.8883,34.7603-13.8077,60.9141-17.5062,88.1938-17.5062M1571.7655,35.2509c-31.5979,0-58.5256,5.3411-90.0396,17.8593-29.7432,11.8472-60.4941,24.0961-85.448,55.4197-20.7661,26.0195-29.7698,55.6931-35.7275,75.3288-5.3682,17.6455-7.0908,29.1264-8.7568,40.2293-1.7837,11.887-3.4683,23.1148-9.8687,40.8438-7.0552,19.4877-13.7207,37.8985-29.4868,56.9593-23.9761,28.9584-72.0239,62.9633-94.5674,73.6503l-.1169.0559c-9.0991,4.3469-14.3318,10.3354-17.1191,14.5938-1.2544,1.9007-4.3369,7.0136-5.635,13.08-1.1755,5.4494-.4871,10.2477,1.9929,13.8682,5.0037,7.2169,15.1775,7.2169,18.5208,7.2169.3018,0,.585-.0019.8445-.0039,14.7573-.1881,32.907-7.4788,53.97-21.67,14.969-10.0854,27.0232-20.7469,31.511-24.8627,27.0625-24.8828,44.9224-41.3038,60.3003-70.2209,10.0132-18.8669,14.8635-37.4807,24.5266-74.5645,5.5244-21.2122,8.3225-35.4593,10.3657-45.8622,3.0505-15.5309,4.5815-23.3266,11.1191-36.4355,14.959-30.0338,37.0029-47.9188,44.2466-53.796,31.7395-25.7773,70.0007-39.3438,116.9719-41.4764,5.6936-.2601,11.7058-.3918,17.8713-.3918,50.4365.0002,99.9949,8.7678,100.4897,8.8563,3.8904.6996,7.7783,1.4419,11.5381,2.1598,13.7944,2.6338,26.8235,5.1217,37.876,5.1217,12.3896,0,21.1914-3.2559,26.9082-9.9538,5.2998-6.2473,7.8245-15.2014,6.4497-22.839-.3516-2.1513-1.0627-4.2348-2.1138-6.1936-4.8945-8.972-16.3838-13.3186-35.1406-13.3186-3.7583,0-7.1816.1702-9.6812.2944l-.448.0222c-12.8152.6316-25.1042.9386-37.5693.9386-27.3,0-49.6594-1.517-69.3867-2.8555-16.2449-1.1022-30.2744-2.054-44.397-2.054h0Z"/>
      </g>
      <g>
        <path class="cls-2" d="M1177.4432,205.9409c-5.4089,2.6157-11.2405,4.4872-17.1006,5.521-18.8143,3.3015-38.0818-.3642-56.8544-3.9637-66.5359-12.7655-135.6081-24.6104-201.4562-8.597-89.9382,21.8554-165.581,93.8495-258.0738,97.2782-73.4924,2.747-142.5649-39.0593-216.1095-39.9478-57.2626-.6812-112.3744,23.8245-159.0304,57.0179-48.5236,34.4992-89.5511,78.3385-132.8717,119.1837-3.3862,3.1967-7.2291,5.9096-11.542,7.6939-11.1653,4.594-19.1722,1.2002-22.8461-4.6837-3.8753-6.1507-3.0194-14.9894,3.8997-20.1234,1.2557-.9312,2.5366-1.8355,3.7921-2.7666,13.9907-10.1073,28.5072-19.415,42.0987-30.1874,28.9499-22.9843,56.2828-47.9231,85.1819-70.9612,45.702-36.3842,97.5883-68.7211,155.6131-75.4432,95.2486-11.0622,189.0421,48.3976,283.8182,33.7659,78.2846-12.0995,141.5696-72.5794,218.809-90.1469,53.0812-12.093,120.199-5.0103,174.4943-1.1469,37.7543,2.6558,63.7595,4.764,101.5315,2.2694,2.0427-.1241,3.8915.1382,5.5222.7082,10.1976,3.5878,12.4721,19.0262,1.124,24.5296Z"/>
        <path class="cls-1" d="M966.5026,172.8317c35.0662,0,71.0918,3.3484,102.7629,5.602,25.8755,1.8202,46.2371,3.3834,68.6455,3.3834,10.2871,0,21.0015-.3291,32.886-1.114.3335-.0202.6619-.0302.9849-.0302,1.6558,0,3.1729.2614,4.5374.7385,10.1975,3.5877,12.4722,19.0262,1.124,24.5295-5.4089,2.6157-11.2405,4.4872-17.1006,5.5209-5.1755.9082-10.3889,1.2893-15.6133,1.2893-13.7676,0-27.6328-2.6436-41.2412-5.2529-43.583-8.3618-88.2625-16.3286-132.4028-16.3296-23.2466-.0005-46.3376,2.2083-69.0532,7.7325-89.9382,21.8554-165.5811,93.8495-258.0737,97.2783-2.3325.0872-4.674.1297-6.9978.1297-70.897,0-137.9012-39.2171-209.1119-40.0775-.7759-.0092-1.5571-.0138-2.3323-.0139-56.428-.0017-110.6742,24.2882-156.698,57.0319-48.5236,34.4991-89.5513,78.3385-132.8717,119.1837-3.3862,3.1966-7.2292,5.9095-11.542,7.6938-3.6125,1.4864-6.8958,2.1368-9.8073,2.1368-6.0872,0-10.5537-2.8403-13.0388-6.8205-3.8755-6.1508-3.0194-14.9893,3.8997-20.1235,1.2556-.9311,2.5366-1.8354,3.7921-2.7666,13.9908-10.1072,28.5072-19.4149,42.0988-30.1874,28.9498-22.9843,56.2826-47.9231,85.1818-70.9612,45.7021-36.3841,97.5884-68.7211,155.6132-75.4432,8.1913-.9513,16.3768-1.3813,24.5481-1.3813,76.3251,0,151.8466,37.4788,227.8278,37.4788,10.4727,0,20.949-.7115,31.4424-2.3315,78.2845-12.0995,141.5696-72.5795,218.8088-90.1469,22.1184-5.039,46.6821-6.7489,71.7314-6.7489M966.5028,167.8317c-28.7122,0-52.5393,2.2485-72.8423,6.8738-37.0947,8.4369-71.2552,26.7183-104.2909,44.398-36.215,19.3809-73.6628,39.4218-114.1711,45.6826-9.7687,1.5081-20.0907,2.2729-30.6786,2.2729-37.3391,0-75.5267-9.4362-112.4572-18.5617-37.6375-9.3001-76.5564-18.9171-115.3705-18.9171-8.5901,0-17.0432.476-25.1251,1.4146-27.6515,3.2034-55.1796,12.0771-84.1554,27.1278-23.1968,12.0489-47.4008,28.198-73.995,49.3703-14.3029,11.402-28.4225,23.4368-42.0773,35.0755-14.001,11.9336-28.4785,24.2736-43.0992,35.8816-8.6243,6.8354-17.8451,13.2237-26.7625,19.4017-4.9828,3.4521-10.1353,7.0219-15.1554,10.6485-.017.0123-.0338.0246-.0507.0371-.6138.4554-1.234.904-1.8541,1.3526-.6479.4689-1.2958.938-1.9374,1.4137-8.5631,6.3539-10.7772,17.8772-5.152,26.8052,3.6289,5.8118,9.9272,9.1551,17.2692,9.1551,3.7174,0,7.6571-.8454,11.7097-2.5129,4.5802-1.8948,8.9751-4.8146,13.0717-8.6818,10.3805-9.7872,20.791-19.9028,30.8586-29.6854,31.8901-30.9868,64.8658-63.0286,101.4781-89.0591,51.595-36.7072,104.7778-56.1085,153.8007-56.1069.7555,0,1.517.0045,2.2729.0135,34.5881.4178,69.0385,10.3122,102.3544,19.8808,34.573,9.9295,70.323,20.1971,106.817,20.1971,2.4043,0,4.8217-.0448,7.1847-.1332,54.1351-2.0068,103.0863-27.2608,150.4259-51.6834,34.8279-17.9677,70.8412-36.5471,108.6415-45.7328,21.0077-5.1088,43.2086-7.5917,67.8727-7.5911,43.24.0009,86.8574,7.6823,131.4607,16.24,13.6992,2.6266,27.864,5.3424,42.1833,5.3424,5.8545,0,11.2444-.4463,16.4775-1.3646,6.395-1.1282,12.5886-3.1279,18.4131-5.9443,6.8127-3.304,10.7808-9.9611,10.3606-17.3759-.4268-7.5305-5.1379-13.9568-12.002-16.3717-1.9424-.6791-4.0242-1.0218-6.1968-1.0218-.426,0-.8596.0132-1.2888.0394-11.2644.744-21.9138,1.1048-32.5823,1.1048-20.6128,0-39.2161-1.3155-62.7686-2.9809l-5.5259-.3902c-5.98-.4255-12.0088-.882-18.3914-1.3654-26.2981-1.9917-56.105-4.2489-84.7222-4.2489h0Z"/>
      </g>
    </g>
  </g>
</svg>