<?xml version="1.0" encoding="UTF-8"?>
<svg id="Capa_2" xmlns="http://www.w3.org/2000/svg" viewBox="0 0 513.4095 513.1465">
  <defs>
    <style>
      .cls-1 {
        fill: #1e86c6;
      }

      .cls-2 {
        fill: #0476af;
      }

      .cls-3 {
        fill: #4291c1;
      }

      .cls-4 {
        fill: #86bfea;
      }
    </style>
  </defs>
  <g id="Capa_1-2" data-name="Capa_1">
    <g>
      <g>
        <path class="cls-4" d="M502.9612,256.5682c0,30.1799-13.602,57.67-23.5361,84.38-9.4429,25.37-14.781,50.17-31.5599,70.7999-18.9621,23.3101-51.0569,36.51-77.2568,51.6101-36.1556,20.84-69.1674,39.34-113.9037,39.34-32.6297,0-59.943-14.41-88.4462-25.9401-24.1803-9.7799-50.3037-15.21-69.9536-31.73-10.6982-9-19.6936-19.4399-27.619-30.76-2.1178-3.01-4.1484-6.08-6.1243-9.21-8.4494-13.34-15.7636-27.61-22.9248-41.96-16.495-33.04-31.1886-67.1001-31.1886-106.53,0-29.97,15.6434-54.02,25.4574-80.58,10.7856-29.1801,16.6587-60.4401,36.9964-83.2101,22.1825-24.85,61.6242-36.1799,92.1797-50.4199,31.5708-14.71,54.4956-31.91,91.623-31.91,36.5489,0,68.5671,13.71,99.7449,27.98,15.2832,7,30.3482,14.22,44.3869,22.7,6.5609,3.96,12.9143,8.2,18.9621,12.82,8.2749,6.3199,15.9927,13.35,22.9576,21.37,18.3835,21.17,26.0033,46.36,36.3523,72.95,10.7527,27.6401,23.8526,56.8601,23.8526,88.3Z"/>
        <path class="cls-3" d="M256.7047,10.4482c36.5489,0,68.5671,13.71,99.7449,27.98,15.2833,7,30.3483,14.22,44.3869,22.7,6.5609,3.9601,12.9144,8.2001,18.9621,12.8201,8.2749,6.3199,15.9927,13.35,22.9576,21.37,18.3835,21.17,26.0034,46.36,36.3524,72.95,10.7526,27.6401,23.8525,56.8601,23.8525,88.3,0,30.1799-13.602,57.67-23.5361,84.38-9.4428,25.37-14.7809,50.17-31.5599,70.7999-18.9621,23.3101-51.0569,36.51-77.2567,51.61-36.1556,20.84-69.1674,39.34-113.9037,39.34-32.6297,0-59.943-14.41-88.4462-25.9401-24.1803-9.7799-50.3037-15.21-69.9536-31.7299-10.6983-9-19.6936-19.44-27.619-30.7601-2.1178-3.0099-4.1483-6.0799-6.1243-9.2099-8.4494-13.34-15.7635-27.61-22.9248-41.96-16.495-33.04-31.1887-67.1001-31.1887-106.53,0-29.97,15.6435-54.02,25.4575-80.58,10.7856-29.1801,16.6588-60.4401,36.9964-83.2101,22.1825-24.85,61.6242-36.1799,92.1797-50.4199,31.5707-14.7101,54.4955-31.91,91.6229-31.91M256.7047,0c-31.4657,0-53.3518,11.2587-76.523,23.1785-6.2595,3.2201-12.7322,6.5499-19.5126,9.7091-7.1807,3.3464-14.8317,6.5133-22.932,9.8661-26.6555,11.0331-54.2185,22.4419-72.6295,43.0668-16.8245,18.8367-24.446,42.4521-31.8167,65.2902-2.2706,7.0355-4.6185,14.3107-7.1854,21.2552-2.5909,7.0118-5.7184,14.0969-8.743,20.9487C8.8266,212.6517,0,232.6472,0,256.5682c0,42.9265,16.6668,79.9055,32.2889,111.1969,6.9838,13.9946,14.5476,28.8347,23.4462,42.8839,2.1754,3.4459,4.2735,6.6007,6.4058,9.6314,9.1398,13.0549,18.7736,23.7717,29.438,32.7432,15.7496,13.241,34.7556,19.8474,53.1359,26.2361,6.5146,2.2644,13.251,4.606,19.6262,7.1844,4.7283,1.9127,9.543,3.9568,14.1991,5.9337,24.0491,10.2104,48.9171,20.7687,78.1646,20.7687,48.4478,0,84.376-20.709,119.1213-40.7361,5.8109-3.349,11.8645-6.573,18.2737-9.9863,22.5621-12.0159,45.8925-24.4408,61.8706-44.0826,14.0555-17.2815,20.7461-37.1827,27.2163-56.4287,1.9092-5.6793,3.8835-11.5519,6.0305-17.3199,1.8152-4.8806,3.7261-9.7141,5.7493-14.8314,9.0672-22.9335,18.443-46.6479,18.443-73.1933,0-29.9846-10.6676-56.9329-20.984-82.9939-1.2076-3.0508-2.4076-6.082-3.5794-9.0942-1.5536-3.9917-3.0713-8.0216-4.5391-11.9188-8.6628-23.002-16.8453-44.7283-33.6617-64.0936-7.1282-8.2081-15.1438-15.6735-24.5048-22.823-6.0743-4.6404-12.5855-9.0438-19.9046-13.4615-14.7081-8.8845-30.5295-16.427-45.4353-23.2542C327.4913,13.6835,294.4677,0,256.7047,0h0Z"/>
      </g>
      <g>
        <path class="cls-1" d="M307.4397,208.0338c-3.9745,23.0129-17.0837,37.5762-36.1808,58.8063-15.5252,17.2613-24.6673,27.4187-42.0195,34.2153-22.6839,8.88-43.6676,5.8472-53.6897,4.2761-12.6916-1.9877-35.6067-5.5807-52.5189-23.5252-14.1979-15.0619-16.5021-32.1047-17.5088-39.557-2.2967-17.0088,1.8195-30.4585,5.794-41.5586.4027-1.1407.8128-2.2542,1.208-3.3471,3.3556-9.2079,8.1504-21.961,19.8428-35.281,16.3828-18.6548,35.9348-26.6195,44.3536-29.9393,10.9914-4.3307,33.3397-12.8282,61.8623-8.5522,6.6292.9974,20.1932,3.0329,33.7798,9.8022,8.814,4.3854,17.6281,10.7585,24.5779,20.1371,16.1591,21.8176,11.9609,46.0805,10.4993,54.5234Z"/>
        <path class="cls-2" d="M222.8926,127.1028h0c4.9987.0001,10.0436.3763,15.0119,1.1211,6.3142.95,19.4531,2.9265,32.3636,9.359,9.4781,4.7158,17.1811,11.0166,22.894,18.7261,14.963,20.2025,11.0992,42.5209,9.6444,50.9247-3.7416,21.6643-16.1818,35.4939-35.0435,56.4622-15.4193,17.1436-23.9131,26.5872-40.2375,32.9813-9.7429,3.814-20.373,5.7478-31.5949,5.7478-8.5615,0-15.7766-1.131-19.6533-1.7386-12.7209-1.9924-34.0121-5.327-49.825-22.1051-13.1644-13.9656-15.3411-30.0801-16.2706-36.9611-2.1545-15.9561,1.7408-28.6752,5.5681-39.3643.2764-.7831.5565-1.5532.8326-2.3124l.3593-.99c3.0251-8.3008,7.5966-20.8452,18.958-33.7882,15.9748-18.1902,35.2785-25.8022,42.5443-28.6675,7.7397-3.0494,23.8447-9.3949,44.4485-9.395M222.8918,122.4009c-20.9847.0002-37.2877,6.2223-46.1713,9.7224-8.4189,3.3198-27.9708,11.2845-44.3536,29.9393-11.6924,13.3201-16.4872,26.0731-19.8428,35.281-.3952,1.0929-.8053,2.2064-1.208,3.347-3.9745,11.1001-8.0907,24.5498-5.794,41.5586,1.0067,7.4524,3.3108,24.4951,17.5088,39.557,16.9122,17.9445,39.8273,21.5375,52.5189,23.5253,4.7009.7369,11.8123,1.7953,20.3808,1.7953,9.6992,0,21.265-1.3566,33.3089-6.0714,17.3522-6.7966,26.4943-16.954,42.0195-34.2153,19.0972-21.2301,32.2064-35.7933,36.1808-58.8063,1.4616-8.4429,5.6599-32.7058-10.4993-54.5233-6.9498-9.3787-15.7639-15.7518-24.5779-20.1372-13.5865-6.7693-27.1506-8.8048-33.7798-9.8021-5.4698-.8201-10.7119-1.1703-15.691-1.1703h0Z"/>
      </g>
      <ellipse class="cls-3" cx="49.353" cy="265.91" rx="12.2639" ry="11.2342"/>
      <ellipse class="cls-3" cx="361.4889" cy="64.932" rx="12.2639" ry="11.2342"/>
      <ellipse class="cls-3" cx="264.205" cy="44.9986" rx="17.3538" ry="15.8968"/>
      <ellipse class="cls-3" cx="281.5588" cy="360.1242" rx="17.3538" ry="15.8968"/>
      <ellipse class="cls-3" cx="105.7906" cy="116.7838" rx="6.132" ry="5.6171"/>
      <ellipse class="cls-3" cx="156.3386" cy="112.672" rx="6.132" ry="5.6171"/>
      <ellipse class="cls-3" cx="49.353" cy="218.7358" rx="6.132" ry="5.6171"/>
      <ellipse class="cls-3" cx="388.2552" cy="230.2284" rx="6.132" ry="5.6171"/>
      <ellipse class="cls-3" cx="298.9126" cy="283.467" rx="6.132" ry="5.6171"/>
      <ellipse class="cls-3" cx="168.6025" cy="328.7175" rx="6.132" ry="5.6171"/>
      <ellipse class="cls-3" cx="349.225" cy="190.284" rx="6.132" ry="5.6171"/>
      <ellipse class="cls-3" cx="197.9622" cy="383.1382" rx="13.9015" ry="12.7343"/>
      <ellipse class="cls-3" cx="432.433" cy="359.7187" rx="6.132" ry="5.6171"/>
      <ellipse class="cls-3" cx="316.3163" cy="410.5049" rx="10.3626" ry="9.4925"/>
      <ellipse class="cls-3" cx="274.112" cy="91.0092" rx="6.132" ry="5.6171"/>
      <ellipse class="cls-3" cx="74.0779" cy="127.12" rx="9.6404" ry="8.8309"/>
      <ellipse class="cls-3" cx="440.8156" cy="124.4626" rx="8.3826" ry="7.6787"/>
      <ellipse class="cls-3" cx="397.7252" cy="283.2263" rx="9.4699" ry="8.6748"/>
      <ellipse class="cls-3" cx="405.713" cy="318.7919" rx="17.8085" ry="16.3133"/>
      <ellipse class="cls-3" cx="364.621" cy="432.9471" rx="8.6569" ry="7.93"/>
      <ellipse class="cls-3" cx="226.2229" cy="335.1052" rx="8.6569" ry="7.93"/>
      <ellipse class="cls-3" cx="326.8745" cy="455.4519" rx="8.6569" ry="7.93"/>
      <ellipse class="cls-3" cx="206.9453" cy="71.6703" rx="10.6207" ry="9.729"/>
      <ellipse class="cls-3" cx="145.7178" cy="442.676" rx="10.6207" ry="9.729"/>
      <ellipse class="cls-3" cx="436.9217" cy="163.726" rx="10.6207" ry="9.729"/>
      <ellipse class="cls-3" cx="424.8722" cy="205.2246" rx="6.8937" ry="6.3149"/>
      <ellipse class="cls-3" cx="323.1475" cy="142.5729" rx="6.8937" ry="6.3149"/>
      <ellipse class="cls-3" cx="342.7628" cy="300.6185" rx="15.8883" ry="14.5542"/>
      <ellipse class="cls-3" cx="409.0373" cy="401.6866" rx="11.5279" ry="10.56"/>
      <ellipse class="cls-3" cx="392.0732" cy="126.5242" rx="15.1219" ry="13.8522"/>
      <ellipse class="cls-3" cx="136.8166" cy="75.1225" rx="8.1827" ry="7.4957"/>
      <ellipse class="cls-3" cx="469.101" cy="228.6084" rx="7.0224" ry="6.4328"/>
      <ellipse class="cls-3" cx="349.225" cy="240.8482" rx="7.0224" ry="6.4328"/>
      <ellipse class="cls-3" cx="126.1958" cy="369.8532" rx="10.6207" ry="9.729"/>
      <ellipse class="cls-3" cx="326.8745" cy="96.5733" rx="10.6207" ry="9.729"/>
      <ellipse class="cls-3" cx="361.4889" cy="364.7922" rx="16.1456" ry="14.7899"/>
      <ellipse class="cls-3" cx="402.8198" cy="84.2686" rx="5.3104" ry="4.8645"/>
      <ellipse class="cls-3" cx="238.1452" cy="105.9124" rx="5.3104" ry="4.8645"/>
      <ellipse class="cls-3" cx="387.572" cy="167.8055" rx="9.9375" ry="9.1031"/>
      <ellipse class="cls-3" cx="250.3613" cy="468.2464" rx="5.3104" ry="4.8645"/>
      <ellipse class="cls-3" cx="111.2369" cy="323.1004" rx="5.3104" ry="4.8645"/>
      <ellipse class="cls-3" cx="326.8745" cy="47.9774" rx="10.6207" ry="9.729"/>
      <ellipse class="cls-3" cx="100.6161" cy="403.7602" rx="10.6207" ry="9.729"/>
      <ellipse class="cls-3" cx="78.4102" cy="182.1579" rx="22.2059" ry="20.3415"/>
      <ellipse class="cls-3" cx="457.4267" cy="279.7969" rx="18.8618" ry="17.2781"/>
      <ellipse class="cls-3" cx="49.4238" cy="324.082" rx="18.8618" ry="17.2781"/>
      <ellipse class="cls-3" cx="254.0762" cy="423.2181" rx="21.2414" ry="19.4579"/>
    </g>
  </g>
</svg>