<?xml version="1.0" encoding="UTF-8"?>
<svg id="Capa_2" xmlns="http://www.w3.org/2000/svg" viewBox="0 0 513.4093 513.1465">
  <defs>
    <style>
      .cls-1 {
        fill: #70569b;
      }

      .cls-2 {
        fill: #604593;
      }

      .cls-3 {
        fill: #47327c;
      }

      .cls-4 {
        fill: #a486ce;
      }
    </style>
  </defs>
  <g id="Capa_1-2" data-name="Capa_1">
    <g>
      <g>
        <path class="cls-4" d="M256.705,507.9221c-28.1855,0-52.5566-10.3472-76.125-20.354-4.6758-1.9849-9.5107-4.0376-14.2803-5.9673-6.4951-2.627-13.2939-4.9897-19.8682-7.2749-17.9336-6.2339-36.4775-12.6797-51.4883-25.2993-10.3135-8.6758-19.6475-19.0649-28.5361-31.7622-2.0693-2.9409-4.1201-6.0244-6.2627-9.4165-8.7646-13.8384-16.2578-28.5425-23.1826-42.417-15.3555-30.7568-31.7383-67.0718-31.7383-108.8628,0-22.8193,8.6016-42.3027,16.9189-61.145,3.0566-6.9243,6.2168-14.084,8.8633-21.2456,2.6045-7.0474,4.9697-14.3755,7.2568-21.4619,7.2041-22.3213,14.6523-45.4023,30.7432-63.4175,17.6143-19.7324,44.6162-30.9087,70.7285-41.7168,8.1543-3.3755,15.8574-6.564,23.1406-9.9585,6.874-3.2026,13.3926-6.5557,19.6963-9.7988,22.5928-11.6226,43.9326-22.6001,74.1338-22.6001,36.71,0,69.1572,13.4595,101.9189,28.4541,14.7646,6.7617,30.4229,14.2256,44.9141,22.9785,7.1514,4.3164,13.5078,8.6147,19.4316,13.1401,9.0762,6.9321,16.8389,14.1597,23.7314,22.0957,16.2021,18.6592,24.2246,39.9609,32.7178,62.5132,1.4727,3.9097,2.9951,7.9521,4.5576,11.9683,1.1758,3.0215,2.3789,6.0615,3.5908,9.1211,10.1357,25.6064,20.6182,52.084,20.6182,81.0732,0,25.5518-9.1904,48.7964-18.0781,71.2754-1.9443,4.9155-3.9541,9.9985-5.7861,14.9258-2.1768,5.8472-4.1641,11.7598-6.0859,17.4775-6.6133,19.6709-12.8594,38.251-26.3174,54.7979-15.3125,18.8237-38.1699,30.9966-60.2744,42.7686-6.4482,3.4346-12.54,6.6782-18.4268,10.0713-34.1494,19.6836-69.4619,40.0376-116.5117,40.0376Z"/>
        <path class="cls-1" d="M256.7047,10.4482c36.5488,0,68.5671,13.71,99.7449,27.98,15.2832,7,30.3481,14.22,44.387,22.7,6.5608,3.96,12.9143,8.2,18.9622,12.8201,8.2749,6.3198,15.9927,13.3499,22.9575,21.3699,18.3835,21.1702,26.0032,46.3601,36.3523,72.95,10.7527,27.6401,23.8525,56.8601,23.8525,88.3,0,30.1799-13.6021,57.6702-23.5359,84.3801-9.4431,25.3699-14.781,50.1699-31.5601,70.7998-18.9622,23.3101-51.0569,36.51-77.2568,51.6101-36.1555,20.8401-69.1672,39.3401-113.9036,39.3401-32.6296,0-59.9431-14.4102-88.4462-25.9402-24.1803-9.7798-50.3037-15.21-69.9536-31.73-10.6982-9-19.6936-19.4399-27.619-30.76-2.1178-3.01-4.1483-6.0798-6.1241-9.21-8.4495-13.3398-15.7637-27.6099-22.9249-41.96-16.495-33.04-31.1886-67.1001-31.1886-106.53,0-29.97,15.6434-54.02,25.4574-80.5798,10.7856-29.1802,16.6587-60.4402,36.9963-83.2102,22.1825-24.8499,61.6243-36.1799,92.1797-50.4199,31.5708-14.71,54.4956-31.9099,91.623-31.9099M256.7047,0c-31.4656,0-53.3518,11.2585-76.5229,23.1782-6.2596,3.2202-12.7323,6.55-19.5128,9.7092-7.1809,3.3464-14.8319,6.5134-22.9323,9.8662-26.6554,11.0332-54.2184,22.4419-72.6293,43.0667-16.8243,18.8364-24.4459,42.4519-31.8164,65.29-2.2708,7.0356-4.6187,14.3108-7.1855,21.2556-2.5909,7.0117-5.7185,14.0967-8.743,20.9485C8.8265,212.6516,0,232.6472,0,256.5681c0,42.9265,16.6667,79.9055,32.2888,111.197,6.9836,13.9941,14.5472,28.834,23.4463,42.8838,2.1746,3.4448,4.2727,6.5999,6.4056,9.6313,9.14,13.0547,18.7737,23.7715,29.438,32.7432,15.75,13.2412,34.7561,19.8474,53.1366,26.2363,6.5145,2.2644,13.2507,4.606,19.6256,7.1843,4.7285,1.9126,9.5433,3.957,14.1996,5.9338,24.0492,10.2104,48.9169,20.7686,78.1642,20.7686,48.448,0,84.376-20.709,119.1213-40.7361,5.8105-3.3489,11.864-6.573,18.2729-9.9861,22.5625-12.0159,45.8931-24.4409,61.8713-44.083,14.0552-17.281,20.7456-37.1816,27.2158-56.427,1.9094-5.6797,3.8838-11.553,6.031-17.3213,1.8152-4.8811,3.7266-9.7151,5.7498-14.8328,9.0669-22.9331,18.4424-46.6472,18.4424-73.1921,0-29.9846-10.6675-56.9329-20.9839-82.9939-1.2078-3.0508-2.4077-6.0818-3.5796-9.0942-1.5537-3.9922-3.0715-8.0225-4.5396-11.9199-8.6626-23.0017-16.845-44.7275-33.6611-64.0925-7.1282-8.2083-15.1438-15.6736-24.5046-22.8228-6.0742-4.6404-12.5857-9.0439-19.9048-13.4617-14.7085-8.8845-30.5295-16.427-45.4353-23.2542C327.4913,13.6833,294.4679,0,256.7047,0h0Z"/>
      </g>
      <g>
        <path class="cls-2" d="M195.9305,304.7756c-8.7451,0-16.0771-1.1494-20.0166-1.7671-12.165-1.9053-34.8076-5.4517-51.1719-22.8145-13.6816-14.5142-15.9297-31.1538-16.8896-38.2598-2.2256-16.4795,1.7637-29.521,5.6768-40.4512.29-.8198.5791-1.6152.8643-2.3994l.3418-.9399c3.083-8.4609,7.7451-21.2544,19.3984-34.5303,16.3496-18.6172,36.0371-26.3804,43.4492-29.3032,7.874-3.1025,24.2598-9.5586,45.3096-9.5586,5.1152,0,10.2773.3853,15.3418,1.1445,6.457.9717,19.8428,2.9858,33.0791,9.5811,9.8145,4.8828,17.8008,11.4209,23.7383,19.4331,15.5625,21.0112,11.5732,44.0493,10.0713,52.7227-3.8574,22.335-16.4795,36.3662-35.5859,57.6055-15.6855,17.4399-24.3125,27.0308-41.1553,33.6279-10.0166,3.9209-20.9346,5.9092-32.4512,5.9092Z"/>
        <path class="cls-3" d="M222.8927,127.1028h0c4.9988,0,10.0437.3762,15.011,1.1208,6.3142.95,19.4534,2.9265,32.3643,9.3594,9.4783,4.7156,17.1812,11.0164,22.894,18.7258,14.9629,20.2026,11.0991,42.521,9.6443,50.9246-3.7415,21.6643-16.1816,35.4939-35.0432,56.4624-15.4197,17.1438-23.9136,26.5872-40.2375,32.9812-9.7429,3.814-20.373,5.7478-31.5947,5.7478-8.5625,0-15.777-1.1311-19.6537-1.7388-12.7208-1.9922-34.0116-5.3264-49.825-22.105-13.1642-13.9653-15.3411-30.0798-16.2706-36.9609-2.1544-15.9563,1.7408-28.6753,5.5684-39.3645.2771-.7852.558-1.5574.8348-2.3186l.3569-.9836c3.0251-8.3008,7.5967-20.8452,18.958-33.7883,15.9757-18.1912,35.2788-25.8022,42.5444-28.6672,7.7394-3.0496,23.8436-9.3948,44.4486-9.395M222.8917,122.4009c-20.9846.0002-37.2878,6.2222-46.1713,9.7224-8.4189,3.3196-27.9708,11.2844-44.3536,29.9392-11.6924,13.3201-16.4872,26.0732-19.8428,35.281-.3953,1.093-.8054,2.2065-1.208,3.3472-3.9746,11.1001-8.0907,24.5498-5.7941,41.5586,1.0067,7.4521,3.3109,24.4951,17.5088,39.5569,16.9122,17.9446,39.8273,21.5376,52.5189,23.5251,4.7008.7371,11.8125,1.7954,20.3811,1.7954,9.699,0,21.2646-1.3564,33.3086-6.0713,17.3521-6.7966,26.4941-16.9541,42.0195-34.2153,19.0972-21.2302,32.2063-35.7935,36.1807-58.8064,1.4617-8.4429,5.6599-32.7058-10.4993-54.5234-6.9497-9.3787-15.7639-15.7517-24.5779-20.137-13.5864-6.7693-27.1504-8.8049-33.7798-9.8022-5.4697-.8201-10.7117-1.1702-15.6909-1.1702h0Z"/>
      </g>
      <ellipse class="cls-1" cx="49.3529" cy="265.9099" rx="12.2639" ry="11.2342"/>
      <ellipse class="cls-1" cx="361.4889" cy="64.9319" rx="12.2639" ry="11.2342"/>
      <ellipse class="cls-1" cx="264.2049" cy="44.9985" rx="17.3538" ry="15.8968"/>
      <ellipse class="cls-1" cx="281.5587" cy="360.1242" rx="17.3538" ry="15.8968"/>
      <ellipse class="cls-1" cx="105.7906" cy="116.7837" rx="6.132" ry="5.6171"/>
      <ellipse class="cls-1" cx="156.3385" cy="112.6719" rx="6.132" ry="5.6171"/>
      <ellipse class="cls-1" cx="49.3529" cy="218.7357" rx="6.132" ry="5.6171"/>
      <ellipse class="cls-1" cx="388.2551" cy="230.2283" rx="6.132" ry="5.6171"/>
      <ellipse class="cls-1" cx="298.9126" cy="283.4669" rx="6.132" ry="5.6171"/>
      <ellipse class="cls-1" cx="168.6024" cy="328.7174" rx="6.132" ry="5.6171"/>
      <ellipse class="cls-1" cx="349.225" cy="190.2839" rx="6.132" ry="5.6171"/>
      <ellipse class="cls-1" cx="197.9621" cy="383.1381" rx="13.9015" ry="12.7343"/>
      <ellipse class="cls-1" cx="432.4329" cy="359.7186" rx="6.132" ry="5.6171"/>
      <ellipse class="cls-1" cx="316.3162" cy="410.5048" rx="10.3626" ry="9.4925"/>
      <ellipse class="cls-1" cx="274.1119" cy="91.0091" rx="6.132" ry="5.6171"/>
      <ellipse class="cls-1" cx="74.0779" cy="127.1199" rx="9.6404" ry="8.8309"/>
      <ellipse class="cls-1" cx="440.8155" cy="124.4625" rx="8.3826" ry="7.6787"/>
      <ellipse class="cls-1" cx="397.7251" cy="283.2262" rx="9.4699" ry="8.6748"/>
      <ellipse class="cls-1" cx="405.713" cy="318.7918" rx="17.8085" ry="16.3133"/>
      <ellipse class="cls-1" cx="364.6209" cy="432.947" rx="8.6569" ry="7.93"/>
      <ellipse class="cls-1" cx="226.2228" cy="335.1051" rx="8.6569" ry="7.93"/>
      <ellipse class="cls-1" cx="326.8745" cy="455.4518" rx="8.6569" ry="7.93"/>
      <ellipse class="cls-1" cx="206.9452" cy="71.6702" rx="10.6207" ry="9.729"/>
      <ellipse class="cls-1" cx="145.7178" cy="442.6759" rx="10.6207" ry="9.729"/>
      <ellipse class="cls-1" cx="436.9217" cy="163.726" rx="10.6207" ry="9.729"/>
      <ellipse class="cls-1" cx="424.8721" cy="205.2245" rx="6.8937" ry="6.3149"/>
      <ellipse class="cls-1" cx="323.1475" cy="142.5728" rx="6.8937" ry="6.3149"/>
      <ellipse class="cls-1" cx="342.7627" cy="300.6184" rx="15.8883" ry="14.5542"/>
      <ellipse class="cls-1" cx="409.0372" cy="401.6866" rx="11.5279" ry="10.56"/>
      <ellipse class="cls-1" cx="392.0731" cy="126.5241" rx="15.1219" ry="13.8522"/>
      <ellipse class="cls-1" cx="136.8165" cy="75.1224" rx="8.1827" ry="7.4957"/>
      <ellipse class="cls-1" cx="469.1009" cy="228.6083" rx="7.0224" ry="6.4328"/>
      <ellipse class="cls-1" cx="349.225" cy="240.8481" rx="7.0224" ry="6.4328"/>
      <ellipse class="cls-1" cx="126.1958" cy="369.8531" rx="10.6207" ry="9.729"/>
      <ellipse class="cls-1" cx="326.8745" cy="96.5732" rx="10.6207" ry="9.729"/>
      <ellipse class="cls-1" cx="361.4889" cy="364.7921" rx="16.1456" ry="14.7899"/>
      <ellipse class="cls-1" cx="402.8197" cy="84.2685" rx="5.3104" ry="4.8645"/>
      <ellipse class="cls-1" cx="238.1451" cy="105.9123" rx="5.3104" ry="4.8645"/>
      <ellipse class="cls-1" cx="387.5719" cy="167.8054" rx="9.9375" ry="9.1031"/>
      <ellipse class="cls-1" cx="250.3612" cy="468.2463" rx="5.3104" ry="4.8645"/>
      <ellipse class="cls-1" cx="111.2368" cy="323.1003" rx="5.3104" ry="4.8645"/>
      <ellipse class="cls-1" cx="326.8745" cy="47.9773" rx="10.6207" ry="9.729"/>
      <ellipse class="cls-1" cx="100.6161" cy="403.7601" rx="10.6207" ry="9.729"/>
      <ellipse class="cls-1" cx="78.4101" cy="182.1578" rx="22.2059" ry="20.3415"/>
      <ellipse class="cls-1" cx="457.4267" cy="279.7968" rx="18.8618" ry="17.2781"/>
      <ellipse class="cls-1" cx="49.4237" cy="324.0819" rx="18.8618" ry="17.2781"/>
      <ellipse class="cls-1" cx="254.0762" cy="423.218" rx="21.2414" ry="19.4579"/>
    </g>
  </g>
</svg>