<?xml version="1.0" encoding="UTF-8"?>
<svg id="Capa_2" data-name="Capa 2" xmlns="http://www.w3.org/2000/svg" viewBox="0 0 1769.3762 1866.9307">
  <defs>
    <style>
      .cls-1 {
        fill: #9fa09b;
      }

      .cls-2 {
        fill: #c3cacc;
      }

      .cls-3 {
        fill: #acb0b1;
      }

      .cls-4 {
        fill: #a5a39f;
      }

      .cls-5 {
        fill: #a5a69f;
      }

      .cls-6 {
        fill: #9c9b94;
      }

      .cls-7 {
        fill: #7c7b7c;
      }

      .cls-8 {
        fill: #101210;
      }

      .cls-9 {
        fill: #c3cccd;
      }

      .cls-10 {
        fill: #969997;
      }

      .cls-11 {
        fill: #9d9898;
      }

      .cls-12 {
        fill: #999994;
      }

      .cls-13 {
        fill: #ada9a4;
      }

      .cls-14 {
        fill: #2e2e30;
      }

      .cls-15 {
        fill: #a4a19d;
      }

      .cls-16 {
        fill: #547593;
        stroke: #243649;
        stroke-width: 9px;
      }

      .cls-16, .cls-17 {
        stroke-miterlimit: 10;
      }

      .cls-18 {
        fill: #6e6e6b;
      }

      .cls-19 {
        fill: #070809;
      }

      .cls-20 {
        fill: #babcb6;
      }

      .cls-21 {
        fill: #a7a7a2;
      }

      .cls-22 {
        fill: #959998;
      }

      .cls-23 {
        fill: #c3cacd;
      }

      .cls-24 {
        fill: #8e9492;
      }

      .cls-25 {
        fill: #adb0b1;
      }

      .cls-26 {
        fill: #c1cccd;
      }

      .cls-27 {
        fill: #969c9b;
      }

      .cls-28 {
        fill: #adaba5;
      }

      .cls-29 {
        fill: #d3d2d0;
      }

      .cls-30 {
        fill: #b3b2ae;
      }

      .cls-31 {
        fill: #b0afb0;
      }

      .cls-17 {
        stroke: #000;
        stroke-width: 3.5527px;
      }

      .cls-17, .cls-32 {
        fill: #969f9c;
      }

      .cls-33 {
        fill: #151819;
      }

      .cls-34 {
        fill: #8d8d8c;
      }

      .cls-35 {
        fill: #c2cacd;
      }

      .cls-36 {
        fill: #9b9893;
      }

      .cls-37 {
        fill: #0f0f0f;
      }

      .cls-38 {
        fill: #8c948f;
      }

      .cls-39 {
        fill: #949192;
      }

      .cls-40 {
        fill: #727270;
      }

      .cls-41 {
        fill: #09090a;
      }

      .cls-42 {
        fill: #242520;
      }

      .cls-43 {
        fill: #989d9c;
      }

      .cls-44 {
        fill: #8e8b87;
      }

      .cls-45 {
        fill: #838480;
      }

      .cls-46 {
        fill: #181a19;
      }

      .cls-47 {
        fill: #454641;
      }

      .cls-48 {
        fill: #272828;
      }

      .cls-49 {
        fill: #c1cbcb;
      }

      .cls-50 {
        fill: #969b9a;
      }

      .cls-51 {
        fill: #454642;
      }

      .cls-52 {
        fill: #949796;
      }

      .cls-53 {
        fill: #0a0c0d;
      }

      .cls-54 {
        fill: #abb0b2;
      }

      .cls-55 {
        fill: #3a3a37;
      }

      .cls-56 {
        fill: #b1aeaa;
      }

      .cls-57 {
        fill: #070707;
      }

      .cls-58 {
        fill: #b4b2af;
      }

      .cls-59 {
        fill: #111011;
      }

      .cls-60 {
        fill: #052742;
      }

      .cls-61 {
        fill: #171818;
      }

      .cls-62 {
        fill: #0c0c0d;
      }

      .cls-63 {
        fill: #242526;
      }

      .cls-64 {
        fill: #e6e6e6;
      }
    </style>
  </defs>
  <g id="Capa_1-2" data-name="Capa 1">
    <g>
      <g>
        <path class="cls-19" d="M235.4077,56.3608c16.2611-4.5027,24.5974,11.2974,4.7803,10.0487l-4.7803,1.3143c-.72,1.8532-3.1468,1.1414-4.3501-.1427-3.044,3.4313-6.6234,6.4581-10.7382,9.0801-3.23,3.6839-7.8967,5.3181-14,4.9025,79.3366,32.151,158.4389,66.1369,237.3067,101.9579,1.1437,10.1633,4.3319,18.7063,9.5647,25.6291l884.6521,30.2025c65.5416,10.5093,93.7435,54.3712,100.4752,117.8834l-11.3235,1050.4862c-6.5656,60.979-32.5894,101.2408-98.1779,100.6725-286.0728-36.5296-572.1337-72.2719-858.1828-107.227l-.28,215.6269,1061.8637,161.1737,2.0467,4.7085c4.479-6.9171,14.1481-.6143,10.7839,7.0769-1.0153,1.6328-.3273,7.143-5.3505,6.378l-1073.9264-163.5549c-.3102,24.6404-3.3845,70.9281-31.4482,78.0417l-1.5853,126.6023-107.5723,24.8098c-15.8706,3.6603-32.0171.0134-48.1036,1.9-4.6084-1.7716-7.6989-3.2716-10.9976-7.4576L26.1091,1551.9718l-4.352-245.1477-10.9359-736.7158L3.0081,87.7937c-.0769-4.7492.4043-7.439,2.0276-9.5452,1.8493-2.3993,4.8604-3.1693,8.6427-3.4282l148.8983-10.1924c25.2514-1.7285,48.7852-7.0441,72.831-8.2673Z"/>
        <path class="cls-62" d="M1746.5999,39.5853l-.2394,4.7784-153.0114,61.8335c-9.1211,340.7472,1.6521,683.0496-8.1751,1026.0019-5.793,202.1662-3.3271,375.4449-9.37,578.3819,0,0-22.0085,52.7608-22.3677,58.3773-3.4721-1.4913-2.3837,1.6651-.4572,1.1644.2721-.076.4136-.4788.4572-1.1644.5986.2612,1.3279.6529,2.2204,1.2298-3.0476,6.2476-5.5836,14.8027-10.6122,19.5699-2.3293-4.0598-6.2476-6.3889-10.7755-7.0857l-4.3101-1.6217c16.555-557.5153,32.0216-1115.1286,46.4106-1672.818L222.9403,81.0655l-2.6231-4.4082c.3918-2.5688-.7075-6.7155,1.7306-8.011,2.9279-1.5564,6.2803-1.1535,9.0122-1.0666,18.3945,1.2736,37.246.8926,56.5656-1.1647l1293.827,25.9047,134.4754-52.5167-44.1576-1.8067-3.0041-4.4733c.1742-1.7089.7184-4.2777,1.9265-4.3755,9.9265-.7512,66.8296-1.8396,71.6948,1.2298,4.6802,1.7416,6.215,4.4409,4.2122,9.2081Z"/>
        <path class="cls-62" d="M1553.4364,1768.9583c-.0436.6856-.1851,1.0884-.4572,1.1644-1.9265.5006-3.0149-2.6557.4572-1.1644Z"/>
        <path class="cls-19" d="M1746.8649,24.0468c14.6309.6498,20.6937,7.2359,18.1884,19.7582-.0792,8.7244.4136,17.3499-.4567,26.0932-1.1905,16.5439-1.7614,33.2146-1.7128,50.0119.6128,5.4095-.6065,10.4086-.7251,15.7004-1.6786,6.8038-6.0999,10.4032-9.7161,3.7729,1.983-33.5519,2.2551-66.8648.8163-99.9388-.0517,6.2863-5.0737,5.9858-6.6566.137-3.031-4.9217-8.0261-6.8454-14.693-6.7705l-63.1461.7095-1.5749,4.3212-942.5987-17.9804-431.6738,45.9101-3.132-4.0404c-8.4096.7546-23.3143-.2175-13.1759-9.3598L727.1963,3l1019.6687,21.0468Z"/>
        <path class="cls-19" d="M1741.122,972.2875l-6.671,291.177-3.9679,148.7492-174.828,357.9762-3.6096,3.1507c-3.2617-4.0417-4.3441-6.3826-5.473-9.206-1.7936-2.5864-1.5997-6.3071.5816-11.1622l167.4856-345.7008,12.551-469.4797,4.4206-2.5782c7.3283-7.9187,8.5249-1.1892,9.6553,6.3473l-.1446,30.7265Z"/>
        <path class="cls-62" d="M1762.1588,135.6105l-3.6491,162.7825-9.0962,371.6298-8.2914,302.2647-.556-30.6447c-.0889-4.8996-5.9468-6.077-8.9548-6.4291-1.7348-.2173-4.321-.9577-4.2976-2.1825,4.9127-257.0117,11.9056-523.0973,19.2488-780.0064,1.013-35.4413,1.8684-70.8817,2.5257-106.329l4.1707-7.251c3.569-.0734,2.3481,16.9875,4.1091,32.9269.9279,8.3989-3.7728,17.0708-3.7361,25.7002l.1755,41.3147,8.3513-3.7761Z"/>
        <path class="cls-62" d="M276.608,52.3714c.2552,2.6513,1.0362,5.816,2.9902,7.0675,3.2699,2.0942,6.9788,1.6186,10.1856,2.2922-.8403,1.1981-1.7349,2.331-2.82,3.2356-5.3898,4.4933-42.0101,3.3211-51.5562,2.7569,3.0545-3.6345,7.4473-2.5996,13.1358-2.3333-1.9687-2.2369-1.6292-4.3811-2.7721-6.82-1.8183-2.0621-7.4985-2.3554-10.3637-2.2097,13.2326-3.5687,27.5572-2.4944,41.2003-3.9893Z"/>
        <path class="cls-62" d="M1762.8839,119.9101c.0783.6909-2.7487-55.8756,1.7128-50.0119-1.6624,16.7011,2.3329,33.8795-1.7128,50.0119Z"/>
        <path class="cls-62" d="M1765.0533,43.805c-.575-3.8695.2249-8.2726-2.7375-11.8974-5.2406-6.4123-18.3698-4.2392-15.4509-7.8608,4.7977.099,11.4569-1.3799,15.5877,1.8872,6.9049,5.4612,2.6477,12.6952,2.6007,17.8711Z"/>
        <path class="cls-64" d="M220.3194,76.6612l675.8064,13.8177,561.1103,11.3704,123.9988,2.1123-5.7631,216.3556-17.0843,621.4326-14.7338,519.1203-9.3894,321.8071-1068.2658-161.7879.2929-225.564,855.6394,107.8324c37.2187,6.2133,71.852-12.1601,88.8375-45.6136,8.1159-15.9845,11.7431-33.6599,11.9383-52.998l5.5426-549.1821,5.7193-498.1106c.2739-23.8532-10.3799-45.5216-19.9291-65.2531-8.0366-16.606-21.8565-28.8416-38.6653-35.4587-12.6794-4.9915-25.1441-12.4441-39.7705-12.9607l-327.2976-11.5593-556.6466-18.5845c-9.2468-6.9323-9.6246-17.3367-10.9456-27.2452-22.2441-11.2916-45.748-20.9102-69.2346-30.7461l-186.5427-78.1219c12.9453-.3996,24.1012-.8932,35.3832-.6625Z"/>
        <path class="cls-64" d="M26.4092,93.7656c3.3458-.789,5.0187-1.1834,5.0187-1.1834,78.9405,35.2321,157.7197,70.7525,236.3377,106.5612,2.6276,3.614,3.9414,5.4211,3.9414,5.4211,2.7549,547.5511,5.0354,1093.7889,6.8413,1638.7135l-4.3494,2.6405-236.7371-298.8645-7.52-533.5102-8.926-545.4928L15.0724,90.6521c4.9591.3983,8.308,1.7395,11.3368,3.1134Z"/>
        <path class="cls-23" d="M1340.2156,1237.5724l-1.0348,22.7004c1.929,5.1376,3.7829,10.3958,5.5617,15.7747l21.3497,4.4428c10.5851,11.5498,5.6828,30.5626-6.608,39.9246,4.4771,8.0449,4.675,13.1009.5936,15.1682-.4617,3.1015-2.8193,5.835-3.9105,8.7034l-2.5956,4.0653-857.091-104.2072c-4.4611-.8385-4.2371-4.9622-3.2393-8.985l334.8721-221.8472,5.2594-1.4594c178.0779,17.7324,356.141,36.5217,534.1891,56.368,13.2636,5.1487,7.6016,18.1652-1.5948,25.5776l-20.6267,16.5496-.6923,59.3147c7.3851.3718,15.4672,1.6695,24.2463,3.8929,6.8707,5.4652,5.9869,14.3699,1.2203,21.1924-11.3666,8.3768-20.2823,17.6387-26.747,27.7859,2.659,8.5462,1.6083,13.559-3.1522,15.0384Z"/>
        <path class="cls-31" d="M331.2867,1848.5436c-6.8028,2.8003-10.1953,2.0324-10.1775-2.3039l-13.0016-1641.248,1.5457-4.9004c26.571-4.3962,53.2986-5.5742,80.1827-3.5339,12.9268-.9589,26.5494-.9426,40.5133-1.7978l-2.1186,403.7135-4.7117,798.1639-2.1791,430.1885-90.0531,21.7181Z"/>
        <path class="cls-53" d="M500.7633,258.5202l-2.1406,3.9899c-7.0886-1.1796-12.8678-.1163-17.3378,3.1897l3.6531,5.5126c.2403,100.5865,1.3236,200.9313,3.2497,301.0346,101.1115-38.4,202.1005-78.0971,302.967-119.0911l1.0225-61.1291,4.3923-2.487c2.4863,19.2012,3.3864,38.7711,2.7002,58.7097,6.8612,2.0777,2.67,2.831,2.6487,2.4846-.1097-1.7824,24.4223-14.3273,27.1512-6.8677.9934-4.4879,3.1142-4.6827,4.8867-.4395l1.7524-4.2606,505.4006,27.2922c1.6973-14.9678,2.7548-30.718,3.1725-47.2505,8.9346-7.1596,18.4225-13.6846,28.4636-19.5749,4.2382-41.0347-16.9004-94.1665-66.0805-98.5393l-3.3724-4.5866-.0627-3.2695-20.1913-1.5046-3.6087-4.4658,4.4929-4.598c69.3752-1.3291,97.4363,32.0926,106.656,97.9742-2.0711,294.9615-5.2234,590.7194-9.4568,887.2739l-5.7074,2.2673-3.5417-2.3342-.2359-20.3148-3.15-3.5869c-4.5775-1.3685-6.2103-6.9862-4.8984-16.8531-1.8218-.9572-8.365-2.0053-9.3371-1.2823-1.7563,1.3064-2.7545,41.6055-1.7431,43.5465.8177,1.5693,13.8949,2.1994,15.8701-1.247,2.9283-5.6928,6.3678-3.6878,7.0361,2.0717,7.2755,32.2965,5.3034,68.3403,3.3802,101.7452-.1939,3.3678-.9938,6.7064-1.8779,10.0601-.8922,3.3845-2.1011,6.6856-3.4005,9.9628l-1.9219-55.207c-1.9572-3.3438-9.1258-1.1623-11.5166-1.1628.4322-2.9033-2.1054-6.6511-3.4126-9.4223-7.6295-16.1746,16.8362-6.597,9.1706-41.5908l-24.8572-4.8228c-3.2082-14.2643-4.6078-29.1436-.7631-42.1748q5.0506,21.9553,0,0c1.8317-6.2085-4.5591-15.8791,1.4671-22.537,7.6322-8.4322,16.7555-14.855,25.1454-23.1002,3.0312-2.9789,4.1704-13.2986.02-14.6571-9.0334-2.9567-17.8521-.7066-25.7825-5.946-1.37-20.8899-.6091-41.4835.3438-62.3509,9.4304-11.7251,36.6689-23.3869,28.225-36.1491l-130.1858-14.73-142.6142-14.8233-180.3986-18.4902-84.9766-8.7609-72.071,48.1718-265.079,175.3003,861.8583,104.7869c.8801,2.3142,4.0014,3.4833,6.1084,3.995l.6055,5.1835c-14.7821,14.8187-31.8238,29.018-54.3418,26.4943-239.0566-29.2624-477.8656-59.1404-716.4271-89.6342-16.4457,13.6188-33.8241,26.3396-51.8287,37.8262-1.449.9244-3.2819,1.2795-5.1998,1.6141-1.958.3416-3.9683.3831-5.9936.3388l-.4795-3.2817,1.4714-7.0147c14.0444-10.7891,28.5461-20.9024,43.5051-30.3401l-69.8134-9.4803c-21.3187-3.3628-33.2519-26.6354-24.0783-45.8815,113.8649-74.9694,227.8895-150.5156,342.0737-226.6385-4.1521-2.0446-10.0173-2.7756-17.5956-2.1928l-3.4252-4.2973c-3.8437,2.7765-6.3301,3.9957-5.9828-1.6493-1.937,2.032-4.5506,3.2191-7.8407,3.5614l-296.4325-29.4896c.953,8.9464-.6985,15.8237-4.9544,20.6319,1.759,21.4884,1.286,44.2775.0192,66.0312-.0712,1.222-1.0089,2.3935-2.1943,3.5506l-4.5302-6.0663c-.4889-28.5601-.7313-56.9538-.7271-85.181l-5.1945-.4882-1.9619,258.7264-4.37,2.6147-.8899-262.8082c-.0217-6.4096-3.3385-10.7249-8.4725-11.0675-1.6776-.2218-4.0791-.6566-4.3475-1.942-.5343-2.558-.5379-31.6266.0447-34.0815l4.3542-3.1049c3.3712-5.845,9.9913-1.9999,10.4071,4.0122,5.1878-.0156,5.609,4.4267,4.8125,8.595,3.3203,2.288,1.8265,3.846-4.4814,4.6742l4.2119,2.7918c-.7309,4.8997-.5786,9.7105.4569,14.4325l839.6568,83.508c9.671-1.3178,18.6003-6.2439,26.7879-14.7784,2.858-1.217,5.4275-1.5769,7.7421.8237,5.1441-3.7641,6.9646-1.2759,4.3901,4.5543,3.7064,6.181,4.7338,14.1095,3.0822,23.7853-2.5805.5626,10.2052,2.6167,11.5264,1.924,1.7722-.9292,1.5587-34.9075.8907-38.7216-8.0537,4.6391-5.3602-6.298-.3197-8.6292,2.7327-5.1542,4.2155-16.5441-.137-19.7582l-3.1749,12.4144c-2.2159.1974-3.7771-.8356-4.7832-2.912-6.3296,6.7769-24.3147,4.1114-33.6335,2.0839-13.1623-2.8638-20.2738-5.6434-23.2666-19.7932-5.5383-5.9594-9.6629-12.7246-12.3741-20.2958-1.234-54.0428-1.1387-108.2469.2857-162.6121l3.7483-22.7621-462.2898-35.3568-351.4919,184.4913-4.3894-2.6079c-6.214.1667-6.1768-4.6984-.3083-6.4263-4.4524-5.4705,1.1331-8.9811,6.4038-4.3417,3.4681.9542,4.4413.3459,6.6921-2.2558-3.3875-1.9247-2.6187-2.6667,2.3063-2.2258l-.7007-4.5514,301.8404-160.0923c-.1103-45.4346-.1655-68.1518-.1655-68.1518l-304.9246-19.0634-2.3977-4.5073c-2.9545,3.6126-3.6894,1.6367-4.8353-2.3057-2.8062,5.1103-6.1819,8.0095-10.1274,8.6977-3.6881.0682-5.5336-2.8574-5.5365-8.7768-.3772,71.5835-1.4155,143.2101-3.1148,214.88l-2.8748,13.7084-4.3475-1.5018c-.6385-96.1152.05-191.7921,2.0653-287.0307l4.4401-3.0697c.7837-1.9598,2.2903-3.413,4.5197-4.3595l.0086-185.1152c.0868-4.4082,2.1573-5.4595,6.5352-4.2609l2.8998.386c.7106,125.8823,1.0659,188.8234,1.0659,188.8234l3.9524,2.8312c3.3149,2.6122,3.917,1.1368,1.806-4.4262.4767-9.0449.1049-17.8767-1.1152-26.4952l-4.3669-1.4412c-.5051-62.0953-.7354-124.1653-.6908-186.21l2.8827-1.5245c1.089-13.1903,2.5248-30.78.8309-44.1936-.0095-.0753-.5948.2567-1.3446.705l-2.9339-2.4891-1.9352-38.7281-3.3915,4.2747c-.0491,5.2851-4.7811,5.2475-8.8886,4.326-6.7151-2.4635-9.397-19.115-4.0304-23.7475,3.8574.974,7.9573-.3417,8.6174-4.5886,4.9794-5.0378,29.4851-4.7609,36.4325-2.8831,1.6545.4472,1.5955,2.5121.569,4.5724Z"/>
        <path class="cls-64" d="M1668.7632,33.5207l68.2949,2.7278-154.9669,60.3194-559.313-11.3408-543.4742-10.5024-241.6419-4.9951c-3.2586-.0674-6.4489.8258-6.6046-2.1485l4.3501.1427c18.2436-.0397,36.388-4.0802,54.3762-5.9925L724.4458,15.521l148.6204,2.3487,554.0686,11.3042,241.6285,4.3468Z"/>
        <path class="cls-55" d="M1396.8824,894.0079c2.1323-5.4518,1.5921-14.1707-1.5814-19.0555l5.0304-508.6666c-6.3696-57.3942-29.3806-82.4609-86.5087-90.2742l-834.4344-29.1856c-1.673-.0587-2.4012-.809-2.5447-3.0589-3.861-.1377-10.5059,1.5581-14.2069-1.6993-4.0631-3.5761-5.283-11.5958-4.7989-16.5356l169.0878,5.5846,191.5381,6.234,294.7094,9.9223,207.4634,7.009c15.0756.5093,30.2744,2.7917,42.9815,9.7143,8.9342,4.8673,19.2344,7.3825,26.5145,14.7028,14.3396,14.4189,22.5622,33.4418,27.5,52.9358,2.1687,8.5618,5.7404,16.051,5.621,25.6216l-3.5966,288.2132-9.2602,771.8823c-.3039,25.3302-14.3768,46.8006-29.8479,59.6046-20.7909,17.2067-43.0826,17.6057-68.2235,14.3567l-178.7584-23.1018-271.9041-34.4336-391.5165-49.6759c-5.7558-1.1019-3.5462-16.4987-2.3915-18.4339,8.4469,2.0204,15.2195,4.9052,23.4249,5.2972,21.0833,1.0072,40.7342,5.3097,61.9044,7.9451l125.4642,15.6185,76.8285,9.5923,71.6602,9.1135,102.6898,12.4859,28.2404,4.3898,73.8173,9.1377,266.5188,33.8981c20.7599,2.6404,41.1214.5343,59.348-9.3886,20.0631-10.9227,33.1014-32.5209,33.5347-55.2943l1.7644-92.7206,2.5319-197.8417,1.4003-223.8933Z"/>
        <path class="cls-50" d="M1362.2758,1348.2816c.9436.2292,3.6767.4637,3.5785,2.5753-.809,17.3937,3.85,59.8909-13.7351,72.2656-11.8903,8.3673-29.0823,11.5455-44.9927,9.5372l-776.2269-97.979c-1.8027-.2275-3.4377-1.9661-3.8093-2.587s1.7357-1.568,2-1.9895c20.7364-12.8685,40.3517-27.1043,61.618-43.6367l716.3188,88.9583c26.0259,3.2321,39.7177-13.2876,55.2487-27.1443Z"/>
        <path class="cls-30" d="M1392.4467,876.6124l-.3841,59.0027-2.4682,208.4852-1.7199,173.9667-1.3344,76.1392c-.4037,23.0347-8.2853,46.3761-26.7115,60.4988-16.4865,12.636-37.7041,15.1982-58.3262,12.5727l-194.4335-24.7547-629.4404-79.75c-4.4371-.5622-8.379-4.1807-10.0413-6.1619-1.9532-2.328-1.8306-7.4884.5228-11.5144,12.8296,9.4364,26.1491,8.6612,39.167,10.3132,3.1027.2103,5.883-.2953,8.3408-1.5168,261.6882,33.2232,522.5583,65.9288,782.6103,98.1167,6.4904-.8173,12.542-.4293,18.1548,1.1639,31.508-5.0281,55.4362-29.6409,57.1335-61.2208,2.1659-40.2987,2.4611-81.1588,1.8983-121.7682,3.9323-6.2539,1.413-13.299,1.5244-22.3175l6.9202-560.2862,2.8607-295.5683c.1623-16.7644-3.8728-32.0073-8.2814-47.1484-13.327-45.7715-56.275-60.5651-99.0086-57.5971l-1.6608,4.1293c-257.1719-9.382-515.3289-18.9799-774.4711-28.7936l-2.5347-4.0827c1.5654-3.4664-31.5965-.212-37.0015-1.6893-1.2971-.3025-1.1345-5.1828-.65-5.8872.6529-.9492,13.4999-4.0095,15.0368-4.1618l832.9366,29.1162c51.1846,4.4299,79.4171,27.0238,88.1811,80.1014.3988,173.2101-1.251,346.8638-3.9678,519.1798-.0078.4925-1.253.9656-2.8519,1.4331Z"/>
        <path class="cls-45" d="M455.1444,261.4194c1.8296,7.0941,3.2441,16.5337,4.0304,23.7475l4.8889,6.0727c-.2471,192.7961-.3707,289.1942-.3707,289.1942l-4.3527,2.6303-1.759,61.1932-.3989,230.4089,4.3547,2.4317c.0251,13.3466.0502,26.7003.0753,40.061l-4.3444,3.0563-.0514,39.1284-3.5316,684.2477c-.1828,35.4173-19.6119,65.1304-19.5086,45.6118l4.7549-898.6363,2.9133-566.6237c7.6995,10.9571,10.0916,25.0367,13.2998,37.4764Z"/>
        <path class="cls-59" d="M366.0988,191.518c.1518,1.8809,1.3475,3.7092,4.1329,3.8747l19.6042,1.1647-77.3989,5.7416,1.9919,258.9975,2.0783,313.0816,2.0179,245.5238.3749,36.971,1.916,273.9021.2404,22.3105,1.8513,219.1017.2216,28.5913,2.3439,246.9264c2.4053,1.4725,4.2393.8662,5.8133.8386-3.2277.7784-5.88,4.3076-11.3,4.2921l-38.7089-.1109c-2.1359-1.7192-5.6372-4.9865-7.0789-6.8065l-.0471-190.6477-.5231-46.0026-3.9067-880.4372-2.3719-525.7708L26.4092,93.7656c1.3806.0546,3.1838-.088,3.8313-1.4702.3608-.7701.8442-2.0417.7128-2.8673,3.1428-2.2036,7.4533-2.305,12.9315-.3044l227.057,102.5821,92.3888-4.4031,2.7682,4.2153Z"/>
        <path class="cls-64" d="M366.0988,191.518l-95.5144,4.7968L45.7353,94.7557c-5.5269-2.4964-9.8023-4.7583-14.782-5.3276-.1592-1.0006-1.2976-1.8181-1.1575-3.7175l127.7051-7.4224,257.0507,108.5606-48.4528,4.6691Z"/>
        <path class="cls-50" d="M483.363,1063.6136l2.1862.1616c-.4916,44.8279.0942,89.4629,1.7573,133.9051l4.3756,1.733c103.3917-66.6308,206.4138-132.7761,309.0664-198.436,10.1101-.1697,20.4614-.3661,31.8626,3.9594-25.0806,18.5831-48.3923,33.3188-73.5256,49.891l-276.2329,182.1404c-3.3231,2.1911-5.9503,35.1155,23.2031,38.9721,26.2689,3.475,52.472,5.8445,78.8318,11.2602-17.5197,12.24-40.5904,25.4735-56.2766,39.6222-21.9364,14.2858-61.0861-32.8011-61.5057-59.784l-.5259-33.8193,2.0131-265.4688c3.6596-1.2243,11.2959-.9068,14.2221,2.9152-2.4623,11.8611-1.5619,24.7176-.1911,36.5944,2.2303,19.3244-.1293,37.9987.7398,56.3535Z"/>
        <path class="cls-37" d="M1396.8824,894.0079c.0338-5.4047.7908-10.9682-.6163-16.9925-.2473-1.0588-3.4217-.3652-3.8194-.403l1.672-128.2372,2.0241-165.3142,1.9123-204.1444c.2586-27.6078-6.4434-55.7164-25.9457-75.8065-11.9439-12.3039-31.4868-22.8012-50.5045-23.4751l-848.6622-30.0694c-3.4576-.1225-5.4069.769-7.6361,1.1944-1.7725.3383-.1101,4.2095-1.5446,6.0707-3.6363.9917-1.8815-4.0006-2.1139-5.8114-.4655-3.628,5.2262-3.1458,8.9222-3.2803l5.0191-.1827c1.5497-.0564,1.6175-2.0302,1.2543-3.7894l191.449,6.8296,224.1417,7.798,419.1015,14.1546c16.8278.5683,32.0998,6.1731,46.2813,12.4741,29.9475,13.3059,45.642,55.7083,45.291,87.1413l-1.2878,115.3233-2.0841,206.9752-1.654,186.2716c-.0445,5.0108,3.669,11.0029-1.1999,13.273Z"/>
        <path class="cls-22" d="M1312.2839,1448.7677l-1.8972,2.7288s-8.7254-.2006-26.1761-.6017l-769.1788-97.0756-1.2011-2.7241c-17.1547-2.1432-32.7555-3.9345-46.6775-12.099-.142-14.4812-1.3338-27.0538.5532-41.8863,16.2279,27.9161,39.4453,43.0757,70.6344,47.025l755.6668,95.6863c15.1752,1.9216,26.4021,2.3914,40.319.1602-6.9606,7.8527-15.44,5.4173-22.0426,8.7864Z"/>
        <path class="cls-8" d="M1312.2839,1448.7677c.027,2.38,1.8197,4.0343,4.0989,4.4059-12.6087,2.0121-23.1984,2.0761-37.68.2333l-295.2723-37.5739-476.1535-60.4232c.8209-.255,4.1187-1.1682,6.615-1.2639,1.3348-.0512.6531-1.0353-.0613-3.0507l502.23,62.746,258.6114,32.5691c13.0852,1.6479,24.0523,4.1992,37.6117,2.3574Z"/>
        <path class="cls-31" d="M1753.2589,39.4447c.398,16.63,1.0481,33.5709-.7481,50.9994-2.1656,21.0124-1.047,40.2917-1.5993,62.6737l-19.3004,782.0959-12.6638,473.7012-166.6409,343.4033c-3.9701,3.9683,14.5536-667.8207,14.5536-667.8207l15.6166-599.1094,6.7435-244.1868,4.8935-140.416,152.4887-61.2036,6.6566-.137Z"/>
        <path class="cls-41" d="M251.1849,862.4317c.0951,6.7636-2.6838,13.9893-7.7313,15.4017-14.3122,4.0047-27.6497,5.3212-43.3934,5.6803l-155.6333-134.92c-9.027-7.8256-8.7583-24.2178-8.9224-35.1671l-3.6336-242.4124c-.3216-21.4549,32.5777-14.4403,49.4185-16.1308l154.883,100.7993c7.1454,4.6503,11.396,11.0364,11.4801,19.5527l1.1941,120.9586,2.3384,166.2377Z"/>
        <path class="cls-2" d="M1364.0774,1007.6958c-1.6199,12.1299-7.7999,15.3699-17.9799,9.72l-872.32-81.9202-1.29-2.6699c-3.86-.8799-5.07-4.95-4.81-8.6001-.97-5.3599,2.59-7.25,7.25-4.1499l355.2-186.4399,281.31,21.8899,187.79,14.1301c-3.81,9.4199-5.31,17.72-5.54,27.3398-.02.4902-.02.9902-.03,1.4902l-.35,31.8298-.27,25.3899-.36,33.0701-.24,21.6501-.36,33.0498-.05,4.6702c-.13,12.3999,5.33,19.0999,12.36,27.77,6.89,8.47-7.02,20.6299,53.95,21.0198,5.6201-3.25,6.3901,5.9502,5.7399,10.7603Z"/>
        <path class="cls-35" d="M1353.5584,669.9387c-2.4279,1.948-3.6419,2.9221-3.6419,2.9221-293.5789-19.7-586.8916-39.9363-879.9379-60.7088-1.4111-6.5076-1.2997-12.6347.334-18.3812l361.2283-142.6368,330.1472,18.2278,183.7923,10.5483c8.6084,11.9294,19.5703,5.1955,31.5069,9.1942l-.4571,28.2725-29.3815,20.1504-2.0363,56.5087c-.5616,15.5859,17.4004,9.6192,29.6644,13.7641,4.9058,34.975-8.9403,25.0598-12.5864,35.534-2.3504,6.7519,2.2094,10.7844,3.2056,16.6813.9731,5.7606-7.0648,10.2459-11.8377,9.9233Z"/>
        <path class="cls-32" d="M837.7128,279.1231c10.4466.2233,20.7757.7998,30.9872,1.7293l1.6713-4.2915c143.9313,4.4892,287.7683,10.154,431.5111,16.9943l1.4102,2.9519c22.1108.7965,46.0398,14.4323,57.7049,32.8063,14.0954,22.202,16.7,47.5538,16.6571,72.3228l-29.7529,19.2583-1.0872,50.2271-512.8582-27.6949c-1.3715-.2086-2.4395-.4245-2.4453-.6659-.8961-37.1947-.9472-75.3801-.2835-112.6024.0092-.5146,1.0204-1.0113,2.3179-1.5028-1.2252-15.3996-1.4876-30.9742-.7874-46.7238-4.3034-4.6418.8399-7.3476,4.9548-2.8087Z"/>
        <path class="cls-54" d="M796.5696,278.4953c1.2194.2151,2.1686.4342,2.1721.6674.5403,36.0346.1802,72.8416-.5294,108.8987-.0099.5033-.7255.9928-1.6427,1.4783l-1.119,66.8941-311.4775,123.4045-2.204-122.8435-.8138-141.3397c-.1007-17.4865-2.2767-34.0025.3295-49.9553l.501-2.8813c104.0329,2.6889,208.1316,6.4301,312.2961,11.2234l2.4876,4.4534Z"/>
        <path class="cls-25" d="M490.0194,904.8287c-3.0463,2.0509-7.2701,2.2662-6.7635-1.6509l-1.9769-253.2483,2.3923-1.4669,311.7253,19.4885c1.8275,26.1357,1.6503,49.9732.159,74.8251l-305.5362,162.0525Z"/>
        <path class="cls-3" d="M794.7656,999.328l2.3528,1.8554c-100.1395,67.4332-205.2059,134.8942-307.8584,199.4212-1.1843.7445-3.001-5.8033-2.8178-8.1587-.5664-66.2286-.8678-132.3666-.9043-198.4141-.4839-8.2232.3962-16.2923.6991-25.3882l64.5947,5.9082,165.144,16.6299,78.7899,8.1464Z"/>
        <path class="cls-27" d="M1309.2435,729.5253l.007,23.2098c.0018,5.927-3.7893,9.8004-10.4064,9.2795l-246.0391-19.3679-218.435-16.5864c-1.2378-18.4028-1.2539-35.5099-.0419-54.6778l486.0761,34.2104c9.4282.6636,14.5138-9.0857,22.4889-11.5789,1.5946,6.0243,1.6409,13.644.3407,20.3126-8.645.6695-33.9962-4.3918-33.9903,15.1986Z"/>
        <path class="cls-26" d="M1346.8621,1024.2741c-10.9714,3.8886-19.9808,19.7958-34.8586,18.2896l-156.9246-15.8862-686.2141-67.9639c-2.3159-7.5844-1.1104-14.4823-.8585-21.217l5.3074-2.0487,873.9991,82.0832c5.5026,2.8891,6.1193,5.3477-.4509,6.743Z"/>
        <path class="cls-9" d="M1350.8868,676.0967c-8.7996,7.9735-18.2238,15.1783-30.0025,21.5317l-204.9429-14.7207-410.6126-28.9196-234.6794-16.5803c-2.8412-7.4085-1.4664-16.7349-.2528-24.8128,292.8569,20.0852,585.9162,40.2533,879.1777,60.5043l1.3123,2.9974Z"/>
        <path class="cls-49" d="M1346.0944,1349.5337c-9.7655,15.0189-25.3182,19.4386-43.54,17.1695l-792.4316-98.6791c-7.6101-.9477-12.9166-1.9494-16.0085-7.3122-2.446-4.2425-5.7321-10.4701-3.1708-15.9744l770.8048,94.5065,84.3461,10.2897Z"/>
        <path class="cls-19" d="M500.7633,258.5202l513.248,18.8206,265.4186,9.9264c7.9063.2957,18.6611,4.7607,28.5197,1.8045,1.3736,3.8339-1.9481,7.3728-4.657,7.4354l-434.5925-15.6548c-10.1789-.9631-20.508-1.5395-30.9872-1.7293-2.7997.2137-3.8745,2.322-3.8967,5.9009l-.2707,43.6317-2.7854,1.7013c-.0696-17.4239-.713-34.5094-1.9301-51.2567-.2571,1.6669-.7302,4.0894-1.9807,4.3104-5.6973,1.007-24.378,1.2347-25.9295-4.864-1.273,4.1593-3.174,4.1407-4.3501-.0514l-315.2847-12.7955c.2894-1.7716-1.7401-3.3858-1.5748-6.3507l21.0532-.8289Z"/>
        <path class="cls-12" d="M1328.2064,973.9501c-4.1136,1.2009,39.1773-19.3293,25.089-41.4157-4.4244-6.9362-11.6011-9.5128-22.4313-7.966l2.0524-133.2759c.2105-13.6702,31.1839-25.393,22.9036-44.1964-3.4118-7.7476-12.093-15.4961-21.8855-12.0819-6.3133,2.2012-9.2611,7.8053-14.8903,11.2107-1.9465-7.6897-1.9153-15.1353,1.3613-22.5489,10.2181-.0577,41.4171-4.2712,41.2934,9.6556l-2.1905,246.5898c-.046,5.1762-3.2051,8.9753-8.0972,8.4336-8.5853-.9506-39.861-2.296-35.2695-10.883l12.0646-3.522Z"/>
        <path class="cls-46" d="M1358.3367,996.931c5.0347.0812,4.9212-5.9379,7.9581-9.5025,4.1825,3.0864,3.0803,14.8903.137,19.7582.0196,2.8292-4.126,6.9437.3197,8.6292,4.5682,6.6654-9.8911,19.1078-15.4993,13.0124-1.1465-1.8005-2.5675-3.4204-4.3901-4.5543.4765-1.2306,1.8267-2.7448-.7368-4.1466l-878.119-82.6309,4.4814-4.6742,884.4308,82.9013c7.4947-5.2405,5.2422-13.3069,1.4181-18.7926Z"/>
        <path class="cls-33" d="M1353.5584,669.9387c.0599,2.4555-.8897,4.5434-2.6717,6.1581l-469.4416-32.6095-410.3327-27.3671c-1.9354,7.8818-.2644,14.4248-.463,21.2877-4.6412,3.0187-1.864-21.5705-1.8563-27.2216.0066-4.8579-3.4331-13.8303,1.5195-16.4154.3525,5.3473-1.0833,10.7462,1.0168,16.5387l882.229,59.6292Z"/>
        <path class="cls-38" d="M828.83,279.1002c2.4759,53.1991,3.6929,109.175,2.6801,163.2663-.0096.5149-1.0743,1.0101-2.4403,1.4997-9.4824,2.0238-17.7402,7.1596-28.4276,10.2309-1.5019-1.5043-1.3887-4.1584-1.3723-5.8478-.3549-112.1585-.5324-168.2378-.5324-168.2378l2.1823-1.4649,27.9103.5536Z"/>
        <path class="cls-52" d="M478.8359,646.1569l2.4394,3.2587,1.9727,252.275c2.5919,3.4341,1.8496,5.974-2.227,7.6197-3.3343,1.1293-5.022,2.5718-6.4038,4.3417-1.7436,7.8966-8.1973,6.152-10.7346-1.8769l.471-254.2751,4.355-2.6454c.0062-3.3546,3.2833-6.1703,1.9192-9.5538,3.5712.0516,5.8224.2647,8.2082.856Z"/>
        <path class="cls-43" d="M1340.3463,1060.6027l-107.0872-11.6041-340.5724-35.3273c-20.9642-2.1746-42.3157.9664-60.6911-10.0075l376.6299,36.937,103.0754,10.9101c11.2033,1.1858,19.3007-6.1163,28.1958-12.5537,2.2333,7.3234,1.6035,13.2878.4495,21.6456Z"/>
        <path class="cls-19" d="M468.0634,280.8409c1.264.2775,2.4465.6553,3.3442,1.3839,4.068,3.3019,2.9937,92.9993,2.3662,104.572-.0752,1.3866-1.7035,2.1354-3.3698,2.5317-.743.9778-2.2289,2.246-2.2284,4.6692l.0357,190.4959c-3.9832.5649-6.2477-1.4098-8.8709-1.4295l.2443-245.4752c.0184-18.528,1.438-35.4709-.4098-52.422.9458-4.0621,5.2398-4.5917,8.8886-4.326Z"/>
        <path class="cls-28" d="M1307.8311,963.1161c-.1809-54.155.1825-109.3907,1.0903-165.7072.0809-14.6139,5.1452-26.4268,14.6231-37.3488,4.7922-5.5225,13.9572-16.0297,20.8115-11.7904,13.1218,10.8045-20.6892,23.3268-20.9664,41.7518l-2.185,145.2168c-.0462,3.0674,1.7626,5.054,3.1583,5.4357,6.3321,1.7319,9.7566-10.2972,17.5888-5.6242,3.7722,2.2507,5.5341,7.31,2.9816,11.698-4.0555,6.9718-26.9631,29.4539-37.1021,16.3683Z"/>
        <path class="cls-19" d="M468.7085,654.8546l-.4787,258.4366c-.0038,2.0672,4.5052.5862,6.3873.3608l.3083,6.4263c-2.3603,1.2389-4.0587,4.3412-7.2501,4.1491-3.7809-.4977-6.7507-3.1254-10.4071-4.0122l-.0856-45.5489c-.1459-77.5938-.319-156.2754,3.0855-235.1991,8.4692,2.9491,7.7129,9.694,8.4405,15.3874Z"/>
        <path class="cls-61" d="M794.7656,999.328c1.9837.2051,3.9962,1.6827,5.9828,1.6493-2.5038,3.5181-5.752,5.9156-10.6013,9.0368l-303.9719,195.6451c-2.7767-7.6251-2.4665-15.3443-.8318-22.2139,2.1224-8.9191-1.6957-16.189-1.7181-24.3419l-.2623-95.4899c-.0624-22.7186,3.5506-46.2086,2.175-69.5818.8309-.2515,2.143.7211,2.1444,2.4424l.1423,182.1944c.005,6.421.0723,12.0994,2.5121,18.909l296.7246-190.5595c3.9682-2.5484,6.9165-4.1944,7.7043-7.6901Z"/>
        <path class="cls-10" d="M476.3241,317.7834c2.9904,13.7419,2.1483,29.4776.5138,43.4886l2.175,189.1756c1.6308,10.0658,2.098,21.1758-.6908,30.9214-2.306,1.0777-4.4191,2.8892-8.0548,2.6526l.1367-194.6932.4021-84.5264c.0418-8.7973-.7484-16.6109-2.7427-23.9613-1.0151-3.7412-.3693-8.4188-.8301-13.2207-.1904-1.9845,7.7227-2.2277,7.8648.1632,1.0515,17.6957-.773,33.6703,1.2259,50Z"/>
        <path class="cls-29" d="M1344.3559,748.2696c-18.1255,8.7102-30.8659,27.8755-31.0862,49.2476l-1.6448,159.5416c-.0222,2.1537-.5423,4.5327-1.1569,5.926-.2917.6613-1.8517.0852-2.6369.1312-3.4823-3.5027-5.8654-7.8633-5.8166-13.1085l1.4715-158.1358c.1697-18.2319,18.0081-36.3245,31.0194-46.899,2.1741-1.7669,5.6507-.9562,7.6326-.1342,1.1414.4734,1.0912,2.4846,2.2179,3.4311Z"/>
        <path class="cls-24" d="M830.2515,724.2091c-10.0468,6.5596-19.129,10.2704-30.1049,15.7511.7004-24.6137,1.4878-46.7056-.5781-70.7432l29.41,1.8326,1.273,53.1595Z"/>
        <path class="cls-63" d="M483.6712,648.4626l.1756,78.3404,1.6628,175.8389c.0266,2.8128,3.4555,2.4775,4.5098,2.1868-1.357.9109-1.6879,2.0171-2.3063,2.2258-.9086,2.991-4.2886,3.6306-6.6921,2.2558l-.4093-121.9442-1.7757-141.2092c2.4885.6168,3.5614,2.226,4.8353,2.3057Z"/>
        <path class="cls-13" d="M1377.3098,479.5316c-7.8508.538-13.995.1322-21.3043-1.4984l.4495-51.3927c7.4156-.8637,14.3939-.7466,21.3092,1.6288l-.4544,51.2623Z"/>
        <path class="cls-15" d="M1369.7672,1166.9232c-6.9098,1.4612-13.1179-.2712-20.1605-1.8613l.4022-50.667c6.8706-1.0323,13.1854-.0096,19.996,1.9574l-.2377,50.5708Z"/>
        <path class="cls-56" d="M1376.0839,596.1052c-6.734,3.7244-14.4384,1.1424-21.9593-.9289l1.0451-51.3516c7.8157-1.5141,14.2373-.6656,21.1647.6828l-.2505,51.5976Z"/>
        <path class="cls-4" d="M1368.4869,1243.9488c4.4944,4.7485,5.1168,19.9828-.1085,24.1641.3643,4.1582-1.6397,6.9269-3.4215,7.004-2.2707.0983-14.1391-.4198-15.7504-2.4893-1.6551-2.1259-.8168-5.7269-.7619-8.9125l.7186-41.7425c4.7995-.8347,13.732-1.042,17.7827,1.9431,2.9788,5.9676-.0308,13.951,1.541,20.0331Z"/>
        <path class="cls-21" d="M1353.6041,713.5415c-2.2247-8.7099-1.9311-19.5063.1142-28.1478,7.124-5.8026,12.5092-11.8372,21.0427-15.507l-.7464,45.0637c-7.0701.7513-14.6284,1.1805-20.4105-1.4089Z"/>
        <path class="cls-21" d="M1351.2521,1028.8284c6.2809-2.6871,11.4192-7.5847,15.4993-13.0124,8.4924-8.7819,3.0156,37.2132,4.1071,42.891-7.5055.5418-13.8325-.093-20.5211-2.6339-.7682-9.7835-.2374-18.5583.9146-27.2448Z"/>
        <path class="cls-14" d="M800.9197,278.5466l-1.6499,169.7027c.8677-19.67-2.7002-39.6899-2.7002-58.7097v-111.0444c1.4394.0584,2.9128.0229,4.3501.0514Z"/>
        <path class="cls-48" d="M833.5454,328.6556l.411,114.7712c-1.5122-.0817-3.4048.1232-4.8867.4395l-.2398-164.766c1.1108.022,2.5746-.6621,2.5766,1.5018l.0423,45.7765c.0014,1.5047,1.2205,2.5301,2.0966,2.277Z"/>
        <path class="cls-40" d="M1372.9774,832.3428c-2.0248,1.3385-3.7377-1.4662-4.4749-3.3901l.0025-46.0129c.688-1.9624,2.046-3.7565,4.3965-4.1405l.0759,53.5435Z"/>
        <path class="cls-19" d="M1340.2156,1237.5724c6.3878,8.5409,10.0119,20.7626,2.4077,30.564-5.3278-11.2287-.529-21.1294-2.4077-30.564Z"/>
        <path class="cls-19" d="M1375.4146,1270.1846c-2.5206-.0024-4.6484-1.5264-7.0361-2.0717-.6527-7.4505-.9493-14.8978.1085-24.1641l6.5805-2.2052.3471,28.441Z"/>
        <path class="cls-1" d="M1369.8142,889.9639c7.4686.3968-.3731,41.775-.388,53.8002-1.0553-17.6564-1.9182-34.4066.388-53.8002Z"/>
        <path class="cls-44" d="M1369.6327,1110.364c-4.7567.3043-8.9446.569-13.9754-1.7509,3.8783-4.6951,8.2127-7.7981,13.6668-11.7889,1.5095,4.2975,1.1653,8.5815.3085,13.5398Z"/>
        <path class="cls-36" d="M1367.4205,1217.6998c-5.2567.0751-8.1732-.0654-11.7634-2.5714,2.9792-4.739,6.8577-7.9946,12.1402-11.3264,1.1776,4.6125,1.0416,8.7242-.3768,13.8978Z"/>
        <path class="cls-34" d="M1375.3575,538.7268c-4.9876.3803-8.2627-.1834-12.5397-.4311,2.7517-3.6555,7.124-7.393,12.2861-8.3407,2.0886,1.2882,1.8777,5.9023.2536,8.7718Z"/>
        <path class="cls-19" d="M476.8378,361.2721c-.1645-14.3103,1.2264-29.2726-.5138-43.4886,1.1979-1.9409-1.4957-5.6898,2.465-6.8779l.1988,48.1162c.006,1.4528-1.3458,2.5071-2.1501,2.2503Z"/>
        <path class="cls-19" d="M478.3221,581.3691c.4189-10.3034.8094-20.6044.6908-30.9214,5.126-.0818-.4526,20.3802,3.7483,29.0132,1.0906,2.2412,4.1618,3.3719,2.1549,6.4342-1.3616,2.0776-3.7139,2.271-4.896-.5254-.4412-1.0437-1.7726-2.167-1.698-4.0005Z"/>
        <path class="cls-11" d="M1372.1636,756.6848c-3.4974-8.5203.0851-16.5429-1.7334-25.4477-.6924-3.3906-5.0522-8.0689,1.9348-10.0351.8063,12.2874,1.293,23.3285-.2014,35.4828Z"/>
        <path class="cls-20" d="M1366.4318,1007.1868l-.137-19.7582c.9002-1.0566,1.3734-3.5197,3.5119-2.0214,1.485,1.0404,2.8535,23.546-3.3749,21.7796Z"/>
        <path class="cls-6" d="M1377.532,419.7636c-1.9668,4.8628-9.4763,2.7292-12.7228.9189,3.4217-3.2738,6.3982-5.0414,10.2083-7.1512,1.4853-.8225,4.1057,2.2979,2.5145,6.2323Z"/>
        <path class="cls-5" d="M1373.8176,658.5533c-2.6493-2.565-3.681-6.5699-4.3463-10.8949-.3853-2.505,3.3945-4.5696,5.372-4.2258.1636,5.4114,1.6933,9.0863-1.0257,15.1207Z"/>
        <path class="cls-18" d="M1371.7164,775.5577c-3.0364-3.2797-3.1305-8.9509,1.1922-12.3293,1.1834,4.0154,2.0335,7.6692-1.1922,12.3293Z"/>
        <path class="cls-33" d="M1353.6041,713.5415c-3.9564,6.8273-3.164-35.7994.1142-28.1478l-.1142,28.1478Z"/>
        <path class="cls-58" d="M1369.7507,976.8428c-1.9432-8.4192-1.8205-16.9055-.1127-26.5061,1.9431,8.4187,1.8206,16.9051.1127,26.5061Z"/>
        <path class="cls-39" d="M1369.6817,887.7474c-1.601-4.6172-3.0889-10.8936,2.2004-15.7465,1.601,4.6172,3.0889,10.8936-2.2004,15.7465Z"/>
        <path class="cls-7" d="M1371.0555,851.6909c-4.0669-3.6493-3.7824-9.4538-.1591-13.2374,3.2133,4.0919,3.4373,7.7581.1591,13.2374Z"/>
        <path class="cls-19" d="M487.7131,907.0545c.5357,2.5459.0284,4.9045-3.2273,4.4496-1.4678-.205-3.4569.1888-3.4649-2.1939,1.7422-.5901,3.3152-1.8502,6.6921-2.2558Z"/>
        <path class="cls-64" d="M317.6923,1593.2319l1.5359,257.203-38.6936.1473-.7362-193.6426c-.0605-15.9168-2.3122-29.1557.1666-46.0771l-3.8931-979.8032-1.1996-425.8716c11.2849-1.7928,20.623-1.9019,31.7951-2.3248l1.9943,171.5447,2.1306,291.2942,2.037,356.5338,2.253,310.7067,1.1359,132.9277,1.4741,127.3619Z"/>
        <path class="cls-42" d="M155.6976,769.2387l-.1349,61.4121-88.0375-75.1555c-9.2896-7.9303-20.3115-15.5486-20.5448-29.4481l-3.6372-216.7116c-.2407-14.3416-2.2453-26.8008.1655-41.3782l110.1077,72.9933c2.3906,37.6088.5586,73.8231.98,111.6877l1.1072,99.4782c.0616,5.5356.0088,10.3377-.0061,17.1221Z"/>
        <path class="cls-42" d="M208.9834,872.6882l-1.4616-78.8295-2.1773-167.0443c-.244-18.7184-.0183-35.4352.2815-53.9471,11.2131-1.0475,21.7806-2.5336,33.0525.7811l1.8402,295.3589-31.5353,3.6809Z"/>
        <path class="cls-47" d="M202.1662,750.4031l.8011,119.958c-12.4688-9.8601-22.0029-17.1407-31.7619-27.1562l-2.6755-203.3009-.3576-88.5096,30.6191,19.3949c.5816,9.8091,1.5168,19.415,1.6369,29.7729l1.7379,149.841Z"/>
        <path class="cls-51" d="M229.3243,563.8436c-9.295,3.5429-17.4685,2.1341-26.8527,2.2173l-148.0288-98.1439c8.0401-3.3551,15.7384-3.2001,24.4016-2.0325l150.4799,97.9591Z"/>
        <path class="cls-60" d="M159.2811,635.2505c-1.2722-28.7997-1.6431-57.8118-1.1128-87.0365.0306-2.6933.928-3.6799,3.2878-2.1152,5.2434,50.2444,1.1101,101.795,2.421,154.2622l1.4153,56.6449.5543,80.4371c-4.6167-.967-4.6283-4.6219-4.5474-8.6642.6772-33.8162-.8182-66.1911-1.1368-100.0018l-.8814-93.5264Z"/>
        <path class="cls-42" d="M161.4561,546.0988c-.8243-.2564-2.1435.7789-2.144,2.3226l-.031,86.8291c-.8322.2562-2.1336-.7766-2.1358-2.3237l-.1225-86.2073c-.003-2.1406,1.4476-3.1844,3.0867-2.8756.9294.1751,1.2043.8903,1.3467,2.2549Z"/>
        <path class="cls-48" d="M868.7001,280.8523c-10.4052-.3748-21.2507,1.6609-30.9872-1.7293,1.2302-.0939,34.979-2.139,30.9872,1.7293Z"/>
        <path class="cls-16" d="M146.393,757.0659c-.1153.6627-.2047,1.3283-.2375,2.0007-.1573,3.2193.9833,6.338,1.7097,9.4782.5939,2.5673.9117,5.272.2563,7.8243-1.0044,3.9109-3.9427,6.4304-7.9139,5.035l-83.0479-68.5c-1.7291-65.2901-2.5655-130.5262-2.5094-195.7085l4.8811-.0654,84.6157,57.6101c.4233,32.5029.9546,65.0044,1.5947,97.5038.5625,23.9994,1.0374,47.9961,1.6842,71.9934.0841,3.1216.1668,6.2665-.3521,9.3458-.1964,1.1653-.4786,2.3194-.681,3.4827Z"/>
        <path class="cls-57" d="M150.7542,749.3412c-.24-1.1399-3.2-176.3499-3.2-176.3499l-85.47-57.7002c-2.33-1.5698-5.71-2.27-7.65-1.5898-1.21.4199-3.46,1.74-3.42,4.29l1.07,67.27,2.27,128.8599,93.47,78.4199c3.75-9.8999,2.93-43.1799,2.93-43.2ZM142.0274,778.1982l-82.4032-66.797-2.92-192.7,84.01,56.21,2.78,114.5498s.5832,82.107-1.4668,88.7372Z"/>
        <path class="cls-57" d="M150.7542,749.3412c-.24-1.1399-.5099-2.1499-.83-3.02.45,1.02.72,2.04.83,3.02Z"/>
      </g>
      <path d="M727.1963,3l1019.6688,21.0466c.1616.0034.3248.0049.4905.0049,2.1234,0,4.5662-.2544,6.9751-.2544,2.9824,0,5.9137.3901,8.1218,2.1367,5.3843,4.2583,3.9817,9.5942,3.0804,14.1921-.0757,1.1682-.2205,2.3838-.4795,3.679-.0793,8.7246.4133,17.3499-.4569,26.0933-.141,1.9597-.2443,3.9272-.3682,5.8906-.4628,14.822,2.2263,29.8757-1.3434,44.1157,0-.01-.0002-.0273-.0009-.0493,0,.0181-.0005.0366-.0005.0549.6129,5.4094-.6064,10.4084-.7247,15.7002l-3.6493,162.7827-9.0962,371.6299-8.2915,302.2644-6.6711,291.1772-3.9679,148.749-174.8269,357.9744h.0007c-3.0471,6.2461-5.5826,14.7988-10.6088,19.5669-.9498,1.5283-.4086,6.4492-4.4501,6.4492-.2776,0-.5774-.0229-.9001-.0723l-1073.9265-163.5547c-.3102,24.6404-3.3845,70.9282-31.4483,78.0417l-1.5852,126.6023-107.5721,24.8096c-5.907,1.3623-11.8504,1.7124-17.8165,1.7124-6.3134,0-12.6511-.3921-18.9908-.3921-3.7657,0-7.5331.1382-11.2965.5796-4.6083-1.7715-7.6988-3.271-10.9974-7.4575L26.1092,1551.9717l-4.3521-245.1477-10.9357-736.7158L3.0082,87.7937c-.0769-4.749.404-7.4392,2.0276-9.5452,1.8493-2.3992,4.8602-3.1692,8.6426-3.428l148.8981-10.1924c25.2514-1.7285,48.7852-7.0442,72.8312-8.2673,13.2324-3.5688,27.5571-2.4944,41.2002-3.9895L727.1963,3M1668.7632,33.5208h.0033v-.0002l-.0033.0002M1746.6011,39.582l.0012-.0005s-.0002-.0005-.0007-.0007c0,.0005-.0002.0007-.0005.0012M220.3194,76.6611v-.0002.0002M1534.2642,1782.6772c.0012-.002.0026-.0034.0038-.0054l-.0035-.001-.0002.0063M1762.885,119.9045c.0001.0068-.0001.0105-.0004.0105s-.0006-.0015-.001-.0049c.0005-.0017.001-.0037.0013-.0056M727.1947,0c-.1086,0-.217.0061-.325.0178l-450.5883,49.3713c-4.7633.522-9.7486.73-14.5698.9309-8.8655.3696-18.029.7517-26.7724,3.061-12.5573.6577-25.1995,2.4414-37.4297,4.1672-11.3807,1.6057-23.1488,3.2661-35.1376,4.0867L13.4737,71.8274c-3.5764.2446-8.0376.9875-10.814,4.5898C.3466,79.4175-.0696,83.0134.0087,87.8423l7.8131,482.3145,10.9355,736.7119,4.3524,245.1562c.0117.6553.2376,1.2888.6433,1.8037l239.9552,304.5015c3.8543,4.8921,7.6783,6.6333,12.2771,8.4009.3445.1323.7095.1997,1.0764.1997.1164,0,.233-.0068.3493-.0205,3.2552-.3813,6.7338-.5591,10.9471-.5591,3.1267,0,6.3271.0991,9.4224.1948,3.1312.0972,6.3688.1973,9.5686.1973,7.4224,0,13.1252-.5518,18.4907-1.7891l107.5721-24.8096c1.3476-.311,2.3081-1.5029,2.3255-2.8857l1.5575-124.3875c12.1736-4.0715,20.931-15.4612,26.0504-33.8979,3.2031-11.5361,4.9632-25.6013,5.3643-42.9143l1070.5364,163.0386c.4659.0708.9202.1064,1.3518.1064,5.3298,0,6.3601-4.8403,6.8-6.9072.056-.2637.1263-.5938.1875-.8296,3.8618-3.9233,6.2925-9.6533,8.4468-14.7324.7933-1.8701,1.5426-3.6362,2.3207-5.2314l174.8258-357.9734c.1884-.3857.2916-.8074.3033-1.2366l3.9678-148.749,6.6715-291.1882,8.2909-302.251,9.0964-371.6389,3.6495-162.7888c.0419-1.8713.2305-3.7058.4301-5.6479.3247-3.1594.6599-6.4209.333-9.9092,2.3368-9.7224,1.9358-19.7725,1.5479-29.4968-.1932-4.8403-.3928-9.845-.2435-14.6963.0427-.679.0831-1.3584.1233-2.0378.0741-1.248.1482-2.4961.2375-3.7407.624-6.3054.5592-12.5823.4966-18.6536-.025-2.4229-.051-4.925-.0321-7.3879.223-1.1731.3748-2.3511.4622-3.5859l.1028-.5173c.8953-4.4771,2.2478-11.2427-4.3024-16.4231-3.1195-2.4673-6.9736-2.7837-9.9827-2.7837-1.3236,0-2.6169.0701-3.8678.1377-1.1107.0598-2.16.1167-3.1074.1167-.1448,0-.2874-.0012-.4286-.0042L727.2582.0007c-.0212-.0005-.0424-.0007-.0636-.0007h0Z"/>
      <ellipse class="cls-17" cx="844.3713" cy="479.6434" rx="40.326" ry="16.6919"/>
      <ellipse class="cls-17" cx="950.9249" cy="489.6008" rx="40.326" ry="16.6919"/>
      <ellipse class="cls-17" cx="1061.9032" cy="496.3353" rx="40.326" ry="16.6919"/>
      <ellipse class="cls-17" cx="1168.4568" cy="506.2928" rx="40.326" ry="16.6919"/>
      <ellipse class="cls-17" cx="1284.3717" cy="513.0272" rx="40.326" ry="16.6919"/>
      <ellipse class="cls-17" cx="730.9247" cy="529.7192" rx="40.326" ry="16.6919"/>
      <ellipse class="cls-17" cx="837.4782" cy="539.6766" rx="40.326" ry="16.6919"/>
      <ellipse class="cls-17" cx="948.4566" cy="546.4111" rx="40.326" ry="16.6919"/>
      <ellipse class="cls-17" cx="1055.0102" cy="556.3685" rx="40.326" ry="16.6919"/>
      <ellipse class="cls-17" cx="1170.925" cy="563.103" rx="40.326" ry="16.6919"/>
      <ellipse class="cls-17" cx="1286.8399" cy="571.6116" rx="40.326" ry="16.6919"/>
      <ellipse class="cls-17" cx="617.7126" cy="582.9608" rx="40.326" ry="16.6919"/>
      <ellipse class="cls-17" cx="724.2662" cy="592.9183" rx="40.326" ry="16.6919"/>
      <ellipse class="cls-17" cx="835.2446" cy="599.6528" rx="40.326" ry="16.6919"/>
      <ellipse class="cls-17" cx="941.7981" cy="609.6102" rx="40.326" ry="16.6919"/>
      <ellipse class="cls-17" cx="1057.713" cy="616.3447" rx="40.326" ry="16.6919"/>
      <ellipse class="cls-17" cx="1161.5637" cy="622.4723" rx="40.326" ry="16.6919"/>
      <ellipse class="cls-17" cx="1275.0103" cy="626.3021" rx="40.326" ry="16.6919"/>
      <ellipse class="cls-17" cx="836.0576" cy="1063.9839" rx="40.326" ry="16.6919"/>
      <ellipse class="cls-17" cx="940.497" cy="1074.4852" rx="40.326" ry="16.6919"/>
      <ellipse class="cls-17" cx="1055.9086" cy="1087.4103" rx="40.326" ry="16.6919"/>
      <ellipse class="cls-17" cx="1171.7381" cy="1099.8258" rx="40.326" ry="16.6919"/>
      <ellipse class="cls-17" cx="1297.0143" cy="1120.7942" rx="40.326" ry="16.6919"/>
      <ellipse class="cls-17" cx="741.099" cy="1127.5287" rx="40.326" ry="16.6919"/>
      <ellipse class="cls-17" cx="852.0773" cy="1139.0691" rx="40.326" ry="16.6919"/>
      <ellipse class="cls-17" cx="963.0557" cy="1154.178" rx="40.326" ry="16.6919"/>
      <ellipse class="cls-17" cx="1069.2388" cy="1160.9125" rx="40.326" ry="16.6919"/>
      <ellipse class="cls-17" cx="1181.0994" cy="1177.6044" rx="40.326" ry="16.6919"/>
      <ellipse class="cls-17" cx="1297.0143" cy="1186.113" rx="40.326" ry="16.6919"/>
      <ellipse class="cls-17" cx="627.887" cy="1197.4623" rx="40.326" ry="16.6919"/>
      <ellipse class="cls-17" cx="734.4406" cy="1207.4197" rx="40.326" ry="16.6919"/>
      <ellipse class="cls-17" cx="836.0576" cy="1221.4336" rx="40.326" ry="16.6919"/>
      <ellipse class="cls-17" cx="946.4517" cy="1234.4147" rx="40.326" ry="16.6919"/>
      <ellipse class="cls-17" cx="1055.9086" cy="1248.2809" rx="40.326" ry="16.6919"/>
      <ellipse class="cls-17" cx="1154.0811" cy="1268.1364" rx="40.326" ry="16.6919"/>
      <ellipse class="cls-17" cx="1263.1029" cy="1275.1283" rx="40.326" ry="16.6919"/>
      <ellipse class="cls-17" cx="855.8971" cy="780.2825" rx="40.326" ry="16.6919"/>
      <ellipse class="cls-17" cx="962.4506" cy="790.2399" rx="40.326" ry="16.6919"/>
      <ellipse class="cls-17" cx="1073.429" cy="796.9744" rx="40.326" ry="16.6919"/>
      <ellipse class="cls-17" cx="1179.9826" cy="806.9319" rx="40.326" ry="16.6919"/>
      <path class="cls-17" d="M1293.6875,796.9956c-.02.4902-.02.9902-.03,1.4902l-.35,31.8298c-21.06-.55-37.74-7.79-37.74-16.6499,0-8.9102,16.88-16.1902,38.12-16.6702Z"/>
      <ellipse class="cls-17" cx="742.4504" cy="830.3583" rx="40.326" ry="16.6919"/>
      <ellipse class="cls-17" cx="849.004" cy="840.3157" rx="40.326" ry="16.6919"/>
      <ellipse class="cls-17" cx="959.9824" cy="847.0502" rx="40.326" ry="16.6919"/>
      <ellipse class="cls-17" cx="1066.5359" cy="857.0076" rx="40.326" ry="16.6919"/>
      <ellipse class="cls-17" cx="1182.4508" cy="863.7421" rx="40.326" ry="16.6919"/>
      <path class="cls-17" d="M1293.0375,855.7056l-.36,33.0701c-19.58-1.1399-34.64-8.1099-34.64-16.53,0-8.46,15.25-15.46,35-16.54Z"/>
      <ellipse class="cls-17" cx="629.2384" cy="883.5999" rx="40.326" ry="16.6919"/>
      <ellipse class="cls-17" cx="735.792" cy="893.5574" rx="40.326" ry="16.6919"/>
      <ellipse class="cls-17" cx="846.7703" cy="900.2919" rx="40.326" ry="16.6919"/>
      <ellipse class="cls-17" cx="953.3239" cy="910.2493" rx="40.326" ry="16.6919"/>
      <ellipse class="cls-17" cx="1069.2388" cy="916.9838" rx="40.326" ry="16.6919"/>
      <ellipse class="cls-17" cx="1173.0895" cy="923.1114" rx="40.326" ry="16.6919"/>
      <path class="cls-17" d="M1292.4375,910.4258l-.36,33.0498c-1.81.1101-3.66.1602-5.54.1602-22.27,0-40.33-7.48-40.33-16.6899,0-9.2202,18.06-16.7002,40.33-16.7002,2.01,0,3.98.0601,5.9.1802Z"/>
    </g>
  </g>
</svg>