<?xml version="1.0" encoding="UTF-8"?>
<svg id="Capa_2" data-name="Capa 2" xmlns="http://www.w3.org/2000/svg" viewBox="0 0 2167.9302 1702.0019">
  <defs>
    <style>
      .cls-1 {
        fill: #547593;
      }

      .cls-2 {
        fill: #010101;
      }

      .cls-3 {
        fill: #263646;
      }

      .cls-4 {
        fill: #040405;
      }

      .cls-5 {
        fill: #2e4588;
      }

      .cls-6 {
        fill: #040505;
      }

      .cls-7 {
        fill: #030404;
      }

      .cls-8 {
        fill: #adadac;
      }

      .cls-9 {
        fill: #060606;
      }

      .cls-10 {
        fill: #030304;
      }

      .cls-11 {
        fill: #060607;
      }

      .cls-12 {
        fill: #060707;
      }

      .cls-13 {
        fill: #bbb;
      }

      .cls-14 {
        fill: none;
        stroke: #000;
        stroke-linecap: round;
        stroke-linejoin: round;
        stroke-width: 9px;
      }

      .cls-15 {
        fill: #b0afb0;
      }

      .cls-16 {
        fill: #030303;
      }

      .cls-17 {
        fill: #4d647e;
      }

      .cls-18 {
        fill: #050605;
      }

      .cls-19 {
        fill: #a9a9a8;
      }

      .cls-20 {
        fill: #020303;
      }

      .cls-21 {
        fill: #484849;
      }

      .cls-22 {
        fill: #243649;
      }

      .cls-23 {
        fill: #6985a0;
      }

      .cls-24 {
        fill: #040404;
      }

      .cls-25 {
        fill: #06080f;
      }

      .cls-26 {
        fill: #070707;
      }

      .cls-27 {
        fill: #052742;
      }

      .cls-28 {
        fill: #e6e6e6;
      }
    </style>
  </defs>
  <g id="Capa_1-2" data-name="Capa 1">
    <g>
      <g>
        <path d="M2055.8472,111.4029l-233.8989-49.4312c-124.219-26.2519-248.6367-42.4819-374.6738-57.0659-32.8909-3.8058-62.7502-2.067-94.4297,6.6253l-404.5366,110.9988c-72.2759,19.8314-535.8196,159.1367-570.533,181.4348-19.304,12.4-32.8586,31.961-42.5281,53.023-18.3379,39.9436-39.4326,75.6863-64.9509,111.7054L45.8875,785.4478c-12.1179,17.1046-22.9397,32.3643-31.332,51.3878-11.0842,25.1256-16.532,54.021-5.6064,80.5803,45.7234,111.152,95.1841,218.951,148.1819,326.5889l34.6963,70.4674c21.6082,43.8857,55.4788,76.7635,97.5981,102.359l155.3735,78.6375c131.5713,66.5907,490.1531,208.5986,634.1934,203.3943,52.8773-1.9104,101.9508-18.4607,148.3994-43.1279,27.7822-14.7543,52.2766-32.1868,77.8726-50.9335l755.3975-553.2582c15.9824-11.7056,28.7344-23.4843,38.2211-40.723,13.5781-24.6735,23.1205-51.2236,25.0482-80.6379l37.2781-568.8195c6.908-105.4069,17.6404-210.3605-105.3618-249.96Z"/>
        <path class="cls-15" d="M1134.6131,1686.949c-46.2882-110.9526-96.8851-225.4373-147.1933-337.4085l8.8696-6.2609c24.0406-18.3347,38.9164-43.2959,55.5652-69.3913,57.6023-90.2859,113.0064-176.2429,170.6087-266.5288,67.1008-105.1739,129.9562-240.6328,243.1304-303.9929,99.3801-55.6375,211.5691-107.6468,313.3043-158.8696,95.5164-48.0916,191.6461-95.1258,287.1625-143.2174,21.371-10.7601,40.5101-18.1965,61.8809-28.9565,14.1418-7.1203,23.9794-12.0544,36.7209-21.6471l-45.0899,582.1133c-2.2821,35.0157-22.465,86.067-51.7953,107.6643l-137.8629,101.5148-650.2467,475.3801c-43.9857,32.1569-93.0761,57.0902-145.0546,69.6004Z"/>
        <path class="cls-13" d="M980.8073,1330.949c-3.4772-.4943-5.7455-3.2087-6.8049-8.1431l-69.2109-141.6522c25.5257-15.3366,46.4097-39.6953,62.0792-64.0686l133.7706-208.076,120.1571-189.9972c31.5063-49.8191,43.0161-113.776,26.7542-169.6167l-.4662-4.2029c186.0444-87.7489,375.0697-184.5643,562.0454-274.68,0,0,13.0467,20.1853,11.6807,24.5785.4976.6559,1.4633,2.8238,3.6534,1.8455,72.6443-32.4502,144.1784-64.8756,214.8573-101.6105,11.0838-5.7607,23.9092-11.209,31.1396-20.9081,8.8178-11.8283.9867-29.7094-7.0212-39.8161-7.9662-10.054-17.9433-14.9931-28.5959-22.9083,53.3762,8.5078,100.6068,40.2879,116.7905,96.5101,7.8074,27.1231,9.9646,54.3298,9.2082,82.8063-.7585,28.5565,2.3679,46.8109-35.0114,65.6412l-654.677,329.8008c-24.7755,12.4809-46.7351,25.406-67.9107,43.1102-33.2796,27.8238-61.4269,59.8395-84.9845,96.8009l-277.8816,435.9914c-16.7667,26.3067-35.9663,50.0573-59.5719,68.5948Z"/>
        <path class="cls-13" d="M904.7916,1181.1537c3.0416-.6154,5.3675,1.2342,7.0102,4.6267l61.1756,126.3425c3.238,6.6873,7.1632,12.2682,7.83,18.8261-53.0628,41.6703-117.5682,54.5813-183.2245,41.0089-120.796-24.9707-238.6397-58.8729-354.9462-100.7749-103.1522-37.1628-201.9591-81.1149-298.041-133.4449-16.879-9.193-38.9264-18.8484-48.3454-36.0167-27.3573-49.8652-46.3662-101.9677-70.4032-154.3315,10.2376,5.2699,15.7231,10.9878,24.7391,16.3827,65.9154,39.4417,133.8083,74.7941,205.208,104.7822,164.9708,69.2883,337.056,119.8282,514.613,143.5291,47.279,6.3109,95.4943-7.5639,134.3844-30.9302Z"/>
        <path class="cls-28" d="M962.247,1116.2839c-43.5579,67.7851-122.7852,102.341-201.6716,90.6096-176.1844-26.2008-346.7089-75.5739-510.3733-145.5028-69.6546-29.7613-135.812-64.3298-200.134-103.1596-30.8347-18.6142-46.8851-49.0439-41.5667-85.7982,3.3719-23.3027,13.4118-44.5075,27.5286-64.4812l237.4165-335.9167c23.7027-33.5366,44.4443-66.4205,61.0424-103.6971,6.1235-13.7524,13.0426-25.8124,21.9708-37.999,17.6154-24.0442,46.344-38.9713,77.6423-34.3894,238.2423,34.8768,472.4816,88.539,702.1977,160.7909,58.4041,18.3697,103.1452,53.7001,112.214,116.7349,4.3161,30.0002,2.8424,59.4899-6.8442,88.2923-7.0827,21.0599-15.0755,40.3407-27.1829,59.3989l-144.2575,227.0748-107.9821,168.0425Z"/>
        <path class="cls-2" d="M555.0225,350.676c60.1596,9.486,119.4574,21.1938,180.3522,33.9954,107.2962,22.5565,211.1236,51.061,315.3934,84.3259,33.5683,10.7092,65.26,18.9902,97.3904,33.3381,20.2023,9.0214,38.84,25.2779,50.3325,44.2638,17.9232,29.6097,18.4497,65.3996,9.7554,97.9062-6.7089,25.0834-18.2676,46.2809-31.9798,67.9405l-48.8169,77.1105-187.6359,294.3951c-36.2828,56.9266-102.9275,89.36-171.0741,79.8691-161.4907-22.4912-318.7753-65.7204-470.2658-125.9073-76.222-30.2829-148.822-65.9029-219.0812-107.0635-35.5388-20.82-48.9555-62.8462-32.7669-100.1768,7.0415-16.2375,14.8288-30.0603,25.4321-44.7795l242.6501-336.8407c9.3892-13.0338,26.0715-17.1273,35.8108-28.0566,2.5473-3.7065,4.661-4.4676,6.3412-2.2835,4.3736-7.086,12.0165-11.6484,22.9286-13.687l160.7476-53.7263,14.4865-.6235Z"/>
        <path class="cls-21" d="M555.0225,350.676c-.0033.0011-236.7338,96.1932-237.3227,94.7559-1.1079-2.7036,60.5431-80.0145,69.3143-89.2646,4.3638-4.6021,9.2123-8.8102,14.7489-11.9036,24.9848-13.9595,56.1163-7.1573,82.9887-3.7758,22.1066,2.7817,44.1552,6.036,66.1593,9.5327.9429.1498,3.1829.9658,4.1115.6555Z"/>
        <path class="cls-27" d="M729.2408,1133.2657c-125.9082-22.1761-247.7355-53.7778-367.1803-97.4006-89.0216-32.5118-173.0783-72.644-255.906-117.8027-26.7231-14.5698-44.8988-36.0388-40.296-69.0182,2.3961-17.1684,10.1307-33.713,19.8772-49.6097l166.0853-233.134,72.242-100.4502,843.1751,218.2058-168.7784,263.899-75.7396,116.6393c-26.6112,39.197-65.6784,66.167-112.5181,73.4234-27.6632,4.2855-52.2364.3072-80.9613-4.7521Z"/>
        <path class="cls-25" d="M754.1985,1064.4086c-10.0302,15.2577-22.9348,18.6327-38.9457,13.3551l-530.0226-174.708c-11.4129-3.762-12.1981-18.6462-6.4732-26.7097l228.0695-321.2353c7.6793-10.8162,17.9276-18.3405,32.5741-14.5295l538.8811,140.2138c7.0958,1.8463,10.5522,8.0854,12.1931,12.2091,2.0722,5.2075-.3536,12.5238-4.0215,18.1032l-232.2549,353.3014Z"/>
        <path class="cls-5" d="M749.377,1063.6015c-9.377,14.2678-21.5623,13.8809-35.1599,9.404l-522.7291-172.1063c-5.3966-1.7768-8.7343-3.1094-10.5598-7.2983-1.6951-3.8896-2.3411-9.2813,1.1529-14.1971l229.5867-323.0115c6.2826-8.8392,15.7494-14.3565,27.6496-11.2622l536.8781,139.5968c5.0339,1.3089,7.955,4.161,9.2506,7.0357,1.7726,3.933,2.2351,9.2396-.8416,13.9212l-235.2274,357.9179Z"/>
        <path class="cls-13" d="M987.4198,1349.5405c52.0247,113.823,101.2961,213.1298,148.3347,329.9152,1.4958,3.7137,1.0185,5.7705-1.1414,7.4933-87.0606,20.9537-180.1107-2.1009-262.0262-31.7428l-5.3033-3.041c-24.8621-36.7495-44.276-77.4069-59.8845-119.0031-2.66-5.8876-19.3847-11.8611-18.0558-8.1569,14.2498,39.7193,33.7782,78.0372,58.5324,112.3444l2.8319,10.35c3.7962,4.5892-21.6397-5.116-22-5.2598-3.5246-2.4885-6.2001-5.3275-8.6881-9.1677-23.0497-35.5777-41.641-72.5213-56.347-112.1318-3.5201-6.4016-9.8006-11.1332-17.3071-9.6312,14.372,39.2535,33.3373,76.7677,57.2415,111.1717l2.8329,11.0292c-6.8444,2.3406-13.8556-4.0768-19.9738-6.2677-1.844-.6864-4.0949-1.6901-5.2846-3.2236-6.716-8.6572-13.2027-19.297-18.7362-28.9893-15.8118-27.6953-29.4395-56.5895-40.7399-86.2461-.3177-5.8823-17.6077-13.2865-15.8676-8.136,12.8265,37.9667,33.6124,74.9751,56.1593,107.9565l2.9309,10.6911c-6.3964,3.1792-12.9621-4.1108-18.4462-6.1417-1.811-.9016-3.5744-1.8672-5.171-3.0568-1.5424-1.1492-3.0026-2.3267-4.0297-3.7982-23.3749-33.4865-41.2539-72.6012-56.2469-110.0427.2445-5.4174-17.4381-13.4633-16.3001-10.2504,13.875,39.1751,35.0898,77.4014,59.493,110.9305l2.365,9.4879c-7.9753-.0719-14.5738-5.2478-21.8425-7.8268l-6.732-5.1762c-24.2835-33.4284-41.4682-72.1366-56.9265-110.1432-1.7608-3.8179-11.4425-13.0033-14.4261-10.5584-3.3426,2.7391,20.823,50.3627,24.8408,57.9262,10.2556,19.3059,21.3004,38.4498,35.3524,55.0975l-.5233,5.3528c-7.7736.4648-15.5577-3.6368-21.9317-7.9843-9.1032-6.4839-18.181-20.1755-23.6171-30.3784-14.2425-26.7319-27.8912-53.94-38.9124-82.1077-2.1371-4.7849-9.0187-12.8212-14.5151-11.8077-3.7615.6936,26.5965,60.1165,31.2952,68.9042,6.2768,11.7393,13.5497,22.9372,20.8266,34.0719l3.222,11.7325c-5.4262,2.0369-12.5646-2.039-15.9843-6.8188-1.9168-.9248-3.7848-1.9171-5.4817-3.1456-1.6534-1.197-3.2249-2.4157-4.3303-3.9579-22.5965-31.5235-38.8821-68.6305-53.8214-104.0833.1976-5.3533-15.3569-12.8067-14.0326-9.1205,12.8086,35.6524,33.6336,70.7238,54.6046,102.1431l2.9354,10.7521c-7.0644,1.7903-14.1043-2.7645-18.1575-8.5144l-5.5982-3.3782c-23.6833-32.4514-42.7285-67.449-57.1356-104.9928.18-4.3723-14.4743-12.101-13.8412-10.3257,12.6878,35.5816,33.9374,70.2303,55.0125,101.5267l3.447,11.5479c-8.1956.2778-14.9032-4.2415-19.4803-10.3779l-4.9926-2.2956c-23.7622-32.1056-42.8474-67.0283-57.2556-104.7681-2.7415-5.5866-14.1911-14.7273-10.6335-5.3079,12.63,33.4399,30.6689,64.591,50.4258,94.257,0,0,.8029,3.55,2.4086,10.6501-5.6246,1.1639-14.4476-3.106-18.0052-8.5249l-5.4283-3.4486c-23.4031-30.3666-39.7013-66.6074-54.5987-101.5265-2.0606-4.0093-8.0776-10.2454-12.7868-9.8495-5.5407.4658,46.1788,90.9705,52.14,98.0328l2.4428,10.9283c-5.5445-2.9183-14.5739-3.9569-18.1995-9.6273-1.7319-.8154-3.4178-1.6944-4.9429-2.7961-1.4649-1.0582-2.8464-2.1457-3.8019-3.5209-20.6269-29.6879-36.6553-64.4862-50.4038-97.5111-1.3847-4.2285-13.1538-14.182-10.3569-6.5942,11.9801,32.5014,29.9589,62.4586,48.4881,91.5511,0,0,.5824,3.3491,1.7471,10.0472-5.8727,1.4155-9.6667-3.8252-14.5302-6.0472-10.1244-7.6911-17.4855-18.9832-24-30.5695-13.2351-23.5392-25.4095-47.7177-35.4763-72.597.1979-3.7873-11.839-11.1787-11.3978-9.9907,12.1255,32.6532,29.9899,63.1368,48.8054,92.3189,0,0,.8295,3.6355,2.4885,10.9065-6.2679,1.6892-9.7297-5.7339-14.6141-7.3386l-8.105-5.5908c-20.1916-29.776-37.3085-62.1955-50.2013-95.2131-2.6514-5.4189-13.2198-15.212-8.8909-5.1543,11.8921,30.607,28.7715,59.3084,46.7922,86.626l2.8933,11.1485c-6.027.2879-12.4375-5.0027-16.0682-10.21-8.2031-4.723-14.493-11.8596-18.8695-21.4097-15.4359-26.8409-29.56-54.0165-42.3723-81.5268-6.9396-7.2262-6.8497-5.1837-2.9981,4.1654,11.6543,28.2891,27.1364,54.8703,43.8932,80.3836,0,0,.7805,3.5447,2.3415,10.6342-4.4235.6963-11.5476-3.5131-14.2782-7.79-3.3093-.9832-5.7946-2.9523-7.8048-5.679-20.4123-27.6867-35.71-60.8343-48.9267-92.0828-11.374-14.3819-10.6632-9.4419-2.2757,8.5218,11.7381,25.1396,25.24,49.3214,40.9006,72.2303,0,0,.7162,3.4232,2.1485,10.2696-5.3767-1.252-9.1073-5.3676-13.9423-7.5958-10.1759-7.7697-17.536-19.1808-24.0901-30.5664-12.5134-21.7379-23.5302-44.1472-33.0841-67.1085-2.225-4.2642-5.2714-8.1586-9.9064-9.774,13.5248,31.2069,29.1893,61.2787,46.9933,90.2154l.334,5.3701c.3299.9114-.4419.8873-1.5135.593-43.4971-24.4646-77.2644-60.6769-99.1472-106.3489l-90.3054-179.2068c15.7692,10.6747,31.2523,19.8337,47.2374,28.2812,85.0579,44.9498,164.4018,82.4075,254.9849,116.2174,124.839,46.5958,245.6992,86.5597,375.9281,113.4783,25.6583,5.3036,59.8156,7.8486,86.6087,5.7391,42.4099-3.339,86.6814-14.4274,120.7826-40.4348Z"/>
        <path class="cls-10" d="M872.5869,1655.2062c-6.3095.6236-17.3414-1.7101-21.8793-7.5066-27.6999-35.3832-49.2058-78.0355-65.0138-121.2125-.8707-2.3781.7827-4.9937,1.914-5.7909,5.4446-3.8365,21.436,5.446,23.7247,11.4869,15.2864,40.3473,33.1807,78.8414,57.3637,114.6927,2.0463,3.0337,3.4641,5.5688,3.8906,8.3304Z"/>
        <path class="cls-16" d="M828.7076,1642.4398c-6.9532-2.775-16.5779-3.4783-22.2677-8.7297-26.9221-37.7506-49.3665-78.6045-64.7419-124.6806,10.9536-5.5928,22.6472,2.3439,26.6961,12.8593,15.4442,40.1097,33.2096,78.117,58.0152,113.6102,1.7063,2.4415,1.998,4.9818,2.2982,6.9408Z"/>
        <path class="cls-20" d="M786.4661,1627.4424c-5.9236-.2106-16.9458-1.9221-21.5381-7.9475-27.2386-35.7392-48.5236-77.869-64.799-122.6364,10.9877-5.2551,22.281,2.4875,26.323,12.915,15.0014,38.7006,32.2656,75.4061,56.212,109.4298,2.0631,2.9313,3.5957,5.4468,3.8021,8.2391Z"/>
        <path class="cls-16" d="M746.4819,1613.3532c-5.3233-.6803-15.4849-1.2932-19.8898-6.7296-28.0916-34.6699-50.8495-79.3515-67.3407-123.7467,13.1211-4.5792,23.3083,5.1067,27.4091,16.3353,15.107,41.3654,36.2949,78.1822,59.8214,114.141Z"/>
        <path class="cls-16" d="M704.7496,1598.7968c-6.1019-2.165-13.6022-2.4512-18.4147-7.5013-22.8359-23.9634-53.8374-85.3431-66.5045-121.1458,11.2698-4.4158,21.9521,3.7286,26.0842,14.2759,14.3874,36.7243,31.0173,71.4465,53.3353,104.0772,2.5213,3.6863,5.3273,6.4676,5.4998,10.294Z"/>
        <path class="cls-6" d="M664.4031,1583.3112c-6.431-.8505-17.3824-3.4753-21.7008-9.5853-22.2357-31.4612-40.2017-65.1109-55.2141-101.5888-1.8644-4.5301-7.4956-12.1518-4.0292-16.466,10.6663-3.2511,19.3424,6.6369,23.1267,15.8595,11.0155,26.8449,22.4271,52.2287,36.5429,77.4532,6.8805,12.2952,16.1127,22.1784,21.2744,34.3275Z"/>
        <path class="cls-7" d="M626.7181,1566.907c2.684,7.5304-16.8693-3.1097-20.126-7.4121-26.2985-34.7425-46.2726-74.3135-63.3802-116.7001,11.6652-4.3094,20.7492,4.0254,24.5935,13.6701,15.7358,39.4788,34.5939,76.45,58.9126,110.442Z"/>
        <path class="cls-7" d="M588.4346,1550.9805c-.231,1.1249.3631,2.4347-1.0307,3.3008-5.5079-3.962-13.4908-4.0951-17.0849-8.9228-26.1328-35.1031-47.5537-73.5867-63.7531-116.5201,12.7596-3.0627,21.0408,6.792,25.3333,17.4034,15.1841,37.5365,33.7183,72.37,56.5353,104.7388Z"/>
        <path class="cls-24" d="M550.8388,1534.9805c1.716,9.5985-20.5415-8.1811-20.0472-7.4646-24.0929-34.9254-45.6259-71.895-60.1965-113.3335,12.0874-1.6618,19.325,6.1382,23.3334,15.574,15.8605,37.3359,33.1579,73.3798,56.9103,105.2241Z"/>
        <path class="cls-24" d="M512.7863,1518.991c.2959.9896-.2447,2.0233-.8798,1.9384-1.099-.147-2.5842-.0294-3.7806-.6591l-13.5705-7.1428c-23.3657-34.8213-44.3859-71.2023-60.206-112.4442,10.8971-2.8248,19.7776,5.3129,23.6432,15.0584,14.6856,37.0236,33.4451,70.7322,54.7937,103.2494Z"/>
        <path class="cls-4" d="M476.3559,1503.5001c-5.0225.7238-15.7872-3.4871-19.2704-8.8241-22.2417-34.0791-43.4397-69.1211-57.3023-109.383,11.6429-.8084,19.249,7.188,22.777,16.5062,13.8951,36.7005,33.1191,69.3624,53.7957,101.7009Z"/>
        <path class="cls-12" d="M442.5554,1488.6288c-5.8527-2.6741-15.3108-4.3595-19.5801-9.9318-22.5823-33.2091-42.5011-68.2541-57.3299-107.368,11.7161-1.4634,18.5071,6.1721,22.3046,15.0971,13.074,30.7268,26.4438,60.4223,45.924,87.6557,3.5871,5.0148,7.4269,9.2543,8.6814,14.5471Z"/>
        <path class="cls-9" d="M408.3611,1471.3584c-5.101-1.6759-13.6808-2.8093-17.5118-8.1837-23.0743-32.3706-42.3919-67.4839-57.6408-106.8861,12.3831-1.8049,19.5342,8.7087,23.3566,18.9851,13.0373,35.0502,32.1376,65.5436,51.796,96.0848Z"/>
        <path class="cls-26" d="M374.7811,1452.9647c.6512,7.8234-19.1138-9.3739-18.0052-7.7533-21.9639-32.1092-41.6289-66.2775-55.711-104.0807,12.8533-.527,18.3119,8.5057,22.0901,17.6591,14.0044,33.9284,31.1699,64.836,51.6261,94.1749Z"/>
        <path class="cls-11" d="M342.4976,1437.4214c.485,1.1734-.4049.9505-1.4129.9157-6.3467-.1347-9.6307-6.5115-14.5451-7.6558-22.084-32.0232-41.8438-65.7041-56.4847-104.4251,10.3445-1.0652,18.0065,7.128,21.3823,16.0746,13.0296,34.5317,31.7344,64.8205,51.0604,95.0906Z"/>
        <path class="cls-18" d="M312.5973,1423.0855c-6.5048-1.9864-15.4885-5.3914-19.7533-11.8635-20.6212-31.2945-39.8388-63.547-53.4631-100.3504,13.1052-.4871,18.3913,9.1799,22.4868,18.9064,12.2312,29.0482,25.4788,56.614,44.2995,81.7329,2.9518,3.9396,5.7457,7.3692,6.4301,11.5746Z"/>
        <path class="cls-28" d="M2052.8336,131.1485c10.7075,13.623-2.5109,27.7063-14.2646,35.6784l-209.7797,106.1049c-4.0794,2.157-4.3452-2.3131-6.436-7.1127,0,0-30.7379-46.8873-72.9336-48.7134l-293.2174,108c-16.7824,6.1597-35.3857,11.2211-52.6957,6.2609-148.6276-46.8734-274.7633-72.3928-440.8696-102.7826,0,0-231.4156-34.5906-231.3884-36.5125,157.1434-49.0732,310.0594-94.9905,470.3603-136.3105l168.2684-43.3738c23.623-6.0892,46.5055-6.5513,71.3-3.7416,117.7933,13.3483,233.9063,27.8693,350.0973,51.942l217.1159,44.9826c17.8469,3.6976,31.695,15.3249,44.4429,25.5782Z"/>
        <path class="cls-19" d="M1831.5285,285.0622c-4.8802-7.1039-12.1546-18.4855-8.2426-20.3424l210.6822-100.0012c13.9556-6.6241,21.7101-20.1144,18.8655-33.5701,11.085,8.9158,18.2213,22.701,8.9775,37.6963-5.1227,8.3101-16.4597,14.0004-25.8261,18.7826-71.1507,36.3276-131.627,66.778-204.4565,97.4348Z"/>
        <path class="cls-28" d="M1404.4948,342.0327c16.4785,4.6599,34.1272,4.8691,50.3232-.9689l290.0535-112.5631c22.1578,5.4222,54.7142,22.8962,65.1958,43.7615,1.5273,3.0404,2.5062,5.1684.4986,8.6763l-386.229,185.0399-176.7841,83.4167c-14.526-49.8798-59.1328-80.6227-106.2387-95.561-220.9156-70.057-446.1727-121.8789-675.1232-157.5925-16.2161-2.5295-29.3511-4.7574-45.5443-6.0073l290.7051-92.4368c4.2957-1.3659,474.5056,74.5899,693.1433,144.2351Z"/>
        <path class="cls-8" d="M1124.3065,334.4291c3.6109,22.077-53.3433,32.4827-78.595,26.7896l-321.798-72.5509c-4.923-1.1099-8.4028-3.9507-9.2161-6.8194-5.485-19.3469,59.9918-28.0174,73.9858-26.3637,110.5373,18.2439,218.5579,41.9578,326.6216,70.583,5.0507,1.3379,8.473,5.1286,9.0018,8.3614Z"/>
        <path class="cls-28" d="M1098.8188,352.42c-15.7288,4.8496-32.9613,9.3279-50.6864,5.3098l-315.8713-71.6044c17.2106-5.8787,31.6228-7.7564,48.9915-8.3791,101.4749,17.6447,200.6315,39.3693,299.6208,66.9283,6.4637,1.7995,11.4738,2.3855,17.9454,7.7454Z"/>
        <g>
          <path class="cls-3" d="M763.3631,1131.2098c-216.615-51.6994-421.563-117.3434-617.6329-221.3662-10.456-5.5473-14.737-17.2807-7.5816-28.0946l235.9747-356.6263c6.5839-9.9502,15.8827-13.4773,27.6452-11.5139l636.2995,170.6988c9.9389,2.6663,10.821,13.9616,7.7154,22.5482l-245.5104,402.1246c-8.211,13.4489-20.3913,20.8434-36.9099,22.2293Z"/>
          <path class="cls-17" d="M631.5007,1092.5197c-56.5094-14.4503-110.3496-32.2874-165.7928-50.9433-109.1641-36.7323-214.2042-81.126-315.7935-134.6493-4.8265-2.5429-8.4692-4.855-9.512-8.5437-1.3556-4.7953-1.2902-9.778,1.6252-14.1986l94.8308-143.7945,141.396-213.1533c5.0969-7.6836,12.9769-11.6511,22.6116-9.0711l632.5057,169.3737c4.3792,1.1727,7.2105,3.284,8.0891,5.5734,1.3801,3.596,2.178,8.2353-.3495,12.3749l-244.9995,401.2782c-7.4149,12.1447-21.5201,22.3443-35.5011,18.7692l-129.1101-33.0154Z"/>
          <path class="cls-13" d="M617.0711,1057.9588c-3.1931,4.6965-9.3916,2.9318-13.3641,1.5542l-80.1087-27.7793c-4.2981-1.4905-6.4487-6.7678-4.0569-10.6675l13.352-21.7695c2.3873-3.8923,5.8616-6.6825,10.6999-7.1469l86.7393,29.8488c3.3868,1.1655,5.676,4.9282,3.6674,8.383-5.3214,9.1527-10.6041,18.2745-16.929,27.5772Z"/>
          <path class="cls-13" d="M483.2242,1006.6799c-3.178,5.3034-8.2943,8.8181-14.2222,6.7261l-82.3708-29.0693c-4.4214-1.5604-5.5362-6.0492-3.2226-9.6519l15.2588-23.7611c2.1561-3.3575,7.0544-6.2104,11.5117-4.6721l84.3643,29.1145c3.262,1.1257,4.401,5.0801,2.8043,7.7447l-14.1235,23.5691Z"/>
          <path class="cls-13" d="M350.8625,964.3817c-2.2134,3.426-7.5237,3.129-10.8722,1.9526l-80.7684-28.3756c-2.4641-.8657-4.4064-3.2146-4.8834-4.8086-.6318-2.1109.6289-4.3579,1.9954-6.4914l14.4365-22.539c2.2703-3.5444,6.064-5.9915,10.4941-4.4923l82.6916,27.9825c2.1473.7266,3.9314,2.4406,4.6174,3.5819,1.184,1.9698.7548,4.6078-.695,6.8519l-17.0161,26.3381Z"/>
          <path class="cls-13" d="M812.5095,992.4256c-7.6585,19.6659-33.2279,32.8056-52.5719,24.7457-14.8585-6.1909-20.8612-20.5143-15.032-35.7712,7.1439-18.6981,27.6542-30.5815,47.5275-26.2634,17.8021,3.8681,26.3291,21.2333,20.0765,37.2889Z"/>
          <path class="cls-13" d="M861.9975,903.8371c-10.3653,5.9564-19.969,8.3927-31.0732,6.3124-15.6709-2.9359-25.5768-18.5868-20.2816-34.1467,4.3538-12.7935,14.4789-22.7894,27.256-27.9315,14.4089-5.7988,32.5817-1.1411,39.8388,13.0685,8.1684,15.9941-.8199,34.1236-15.7399,42.6974Z"/>
          <path class="cls-13" d="M280.1597,799.3119c-1.7436,2.6281-5.2661,3.4979-8.3487,2.527l-36.9682-11.6445c-1.6427-.5174-2.8416-2.0542-3.4658-2.8579-1.1026-1.4198-.5908-3.5631.6726-5.4477l24.7337-36.8942c2.2823-4.6446,6.4809-8.0829,12.1009-6.3215l35.5751,11.1496c3.4654,1.0861,5.2415,4.9609,3.2252,8.0001l-27.5249,41.4892Z"/>
          <path class="cls-13" d="M363.319,672.36c-15.5389-3.0349-28.5093-8.8087-43.0176-12.629-2.6308-.6927-3.8058-3.5291-3.9142-5.0673-.168-2.3846,1.7784-3.9946,3.199-6.0969l23.4589-34.7161c2.8094-4.1576,6.9881-6.9446,12.2886-5.072,13.1721,4.6536,26.4049,7.0911,40.2852,13.3751-8.9793,18.1995-20.1203,33.0054-32.2998,50.2062Z"/>
          <path class="cls-22" d="M697.3078,1004.558c-4.3483,7.0137-11.5718,9.0063-18.1495,6.7965l-400.7247-134.6233c-7.2686-2.4419-8.6064-9.4398-6.2576-15.9955l149.7123-230.6753c8.954-13.7962,16.8692-26.423,26.302-39.3131,4.4719-6.111,11.2453-5.8147,18.4138-3.8178l401.6037,111.875c4.2616,1.1872,6.8859,2.4234,8.3522,5.2157,1.3995,2.665,2.485,7.396.0782,11.2782l-179.3304,289.2597Z"/>
          <path class="cls-1" d="M276.9073,868.7442c-.6305-1.9643-.032-3.386,1.7539-4.1858l581.0756-160.0168s2.8385-.2977,8.5155-.893c4.4,1.226,5.7099,3.0667,5.0344,8.4593l-179.1421,289.014c-4.1192,6.6456-9.5924,7.3879-16.7345,4.9855l-391.9926-131.8565c-4.3987-1.4796-7.6856-1.7432-8.5102-5.5068Z"/>
          <path class="cls-23" d="M868.2523,703.6487c1.3266,1.4633-.4402,2.372-2.8071,3.0238l-588.5379,162.0717c-1.7973-2.2673-1.6784-4.3071.0055-6.8987l172.1522-264.9425c4.1822-6.4365,8.3117-7.7343,15.615-5.6995l403.5723,112.4451Z"/>
        </g>
        <path d="M1415.5841,3.0001c10.35,0,20.8558.652,31.6903,1.9057,126.037,14.5839,250.4547,30.8142,374.674,57.0658l233.8989,49.4311c123.0023,39.5997,112.2697,144.5533,105.3619,249.9603l-37.2783,568.8194c-1.9275,29.4142-11.47,55.9645-25.048,80.6378-9.4867,17.2389-22.2386,29.0175-38.2211,40.723l-755.3975,553.2581c-25.5958,18.7469-50.0902,36.1794-77.8724,50.9336-46.4486,24.6672-95.5222,41.2175-148.3995,43.1278-2.5847.0934-5.2272.1393-7.9475.1393-148.8774,0-497.0356-138.1376-626.2458-203.5334l-155.3735-78.6375c-42.1194-25.5953-75.99-58.4734-97.5981-102.3589l-34.6963-70.4675c-52.9978-107.6378-102.4587-215.437-148.1819-326.5889-10.9255-26.5591-5.4778-55.4547,5.6062-80.5803,8.3926-19.0236,19.2144-34.2833,31.3323-51.3878l224.4087-316.7545c25.5183-36.0192,46.613-71.762,64.9509-111.7056,9.6694-21.062,23.2241-40.6231,42.5278-53.0231,34.7136-22.298,498.2573-161.6033,570.5332-181.4347L1352.8447,11.5311c21.244-5.8289,41.6692-8.531,62.7394-8.531M1415.5842,0c-21.5673,0-42.3492,2.8256-63.5333,8.6381l-404.5367,110.9989c-71.2151,19.5403-535.9089,159.0317-571.3606,181.8036-17.604,11.3081-32.2844,29.5758-43.6331,54.2956-17.7412,38.6442-38.2913,73.9861-64.6724,111.2231L43.4395,783.7136l-.075.1058c-12.3721,17.4628-23.0566,32.5442-31.554,51.8053-6.188,14.0269-9.9888,27.7075-11.2969,40.6619-1.5337,15.1891.3708,29.4111,5.6609,42.2706,43.1494,104.8947,91.6472,211.7831,148.2649,326.7727l34.6963,70.4675c20.6128,41.8641,52.9084,75.7515,98.7314,103.5973.0664.0403.1343.078.2034.113l155.3735,78.6375c61.1755,30.9623,179.5525,82.0675,306.1099,126.4445,100.7144,35.3151,238.2444,77.4122,321.4907,77.4122,2.7523,0,5.4625-.0475,8.0559-.1411,48.9756-1.7694,97.9423-15.9906,149.698-43.4764,28.1628-14.9561,53.0786-32.7352,78.2384-51.1627l755.3972-553.2581c14.0344-10.2789,28.4822-22.4445,39.0769-41.6969,15.313-27.8264,23.6259-54.6123,25.4133-81.8881l37.2784-568.8194c.1997-3.0486.4028-6.097.6055-9.1431,3.3478-50.2736,6.8097-102.2589-5.7514-145.3797-6.8158-23.3972-17.663-42.4564-33.1619-58.2667-17.3172-17.6653-39.9294-30.8222-69.1284-40.2225-.0983-.0317-.1981-.0583-.2991-.0797l-233.8989-49.4311c-126.1444-26.6583-254.7563-43.203-374.9495-57.1105-11.1991-1.2958-21.6777-1.9258-32.0349-1.9258h0Z"/>
      </g>
      <line class="cls-14" x1="1247.5527" y1="549.3952" x2="1818.6672" y2="277.7463"/>
    </g>
  </g>
</svg>