<?xml version="1.0" encoding="UTF-8"?>
<svg id="Capa_2" data-name="Capa 2" xmlns="http://www.w3.org/2000/svg" viewBox="0 0 2019.0208 2196.8364">
  <defs>
    <style>
      .cls-1 {
        fill: #010101;
      }

      .cls-2 {
        fill: #547593;
        stroke: #243649;
        stroke-width: 9px;
      }

      .cls-2, .cls-3, .cls-4, .cls-5, .cls-6, .cls-7, .cls-8, .cls-9 {
        stroke-miterlimit: 10;
      }

      .cls-3 {
        stroke-width: 4.2314px;
      }

      .cls-3, .cls-5 {
        fill: #4d647e;
        stroke: #36474f;
      }

      .cls-4 {
        stroke: #9fdddb;
      }

      .cls-4, .cls-6, .cls-7, .cls-8 {
        stroke-width: 8.5545px;
      }

      .cls-4, .cls-6, .cls-7, .cls-8, .cls-9 {
        fill: none;
      }

      .cls-5 {
        stroke-width: 4px;
      }

      .cls-10 {
        fill: #bbb;
      }

      .cls-11 {
        fill: #b0afb0;
      }

      .cls-6 {
        stroke: #ffd394;
      }

      .cls-7, .cls-9 {
        stroke: #bbb;
      }

      .cls-12 {
        fill: #052742;
      }

      .cls-13 {
        fill: #e6e6e6;
      }

      .cls-8 {
        stroke: #be94ff;
      }

      .cls-9 {
        stroke-width: 8.0095px;
      }
    </style>
  </defs>
  <g id="Capa_1-2" data-name="Capa 1">
    <g>
      <path d="M2013.6283,201.9842c-3.8801-34.82-14.1401-68.14-36.2301-95.59-42.9501-53.36-122.8199-69.34-189.66-72.27L1042.4182,1.4242c-27.35-1.21-50.8,2.3-77.17,7.51L442.1183,112.1942c-41.04,8.1-76.83,15.74-116.47,28.62-65.12,21.14-120.15,68.37-142.49,135.88L12.9682,791.1042c-10.46,31.59-14.1,65.09-8.16,96.63,13.48,71.63,24.81,139.69,26.39,213.33l11.31,527.59,7.53,218.9399c2.63,95.1801,76.97,171.2201,165.26,197.3401,274.82,81.28,668.03,129.3,954.69,146.46,43.71,2.62,83.08-2.61,120.92-22.49,29.75,5.96,86.57,5.25,95.65-27.8201,4.1-14.8999-.42-28.73,2.91-44.1399l448.92-341.55c21.64,3.8401,39.9,4.62,58.87-1.8101,30.6899-10.4099,20.97-39.75,24.8701-61.48,35.1399-27.3199,43.8499-28.8599,68.0099-66,11.84-30.48,15.4601-58.7899,15.58-90.6899l1.29-352.45,3.48-518.68,2.24-371.44c.1901-31.42,4.3301-60.04.9001-90.86ZM1237.0782,820.4842l-21.23,74.58c-22.11,77.71-93.28,121.6299-171.19,130.86-63.22,7.5-125.05,8.65-188.55,3.43-16.21-1.33-32.38,2.5-47.79-.76-13.32-2.81-25.34-1.23-38.86-2.31l-184.04-14.7c-124.48-9.95-246-27.24-368.01-54.33-64.71-14.36-145.32-39.5099-145.55-117.06-.13-44.87,34.05-128.1,47.51-169.66l117.28-362.14c44.7-138.04,184.76-125.59,300.89-123.02l150.23,3.32c29.27.65,57.19,2.13,86.06,3.31l70.88,2.91,49.62,2.18c15.33.67,29.6,2.15,44.9,3.32l41.72,3.19,38.53,3.16,34.82,3.37c11.46,1.11,21.88,4.1,32.33,2.34,2.0699,4.65,8.5,3.48,12.81,3.2,5.7-.36,11.25.83,16.9,1.09,24.27,1.14,48.54,4.2,74.17,7.08,38.2401,4.3,75.85,10.47,109.92,27.25,80.23,39.52,55.02,114.04,38.37,178.1l-101.72,391.29Z"/>
      <path class="cls-13" d="M1974.3597,119.7771l-.206,6.7859c-150.5852,47.6343-301.1988,95.2776-451.8409,142.93l-5.6998-4.9178-4.9521-2.2056c-17.6875-60.7476-80.3149-88.0868-136.9225-102.8958-273.3132-42.6011-551.7085-52.1112-829.0396-54.1548l-3.738-4.984L970.5163,16.6586c35.9896-7.0271,66.687-7.4546,103.7729-5.7787l716.6586,32.3862c60.5537,2.7365,154.9525,21.2631,183.4119,76.511Z"/>
      <path d="M541.9608,100.335l216.1889,5.1351c29.45.6995,57.2728,2.3299,86.0721,3.2786l59.7796,1.9692c16.3169.5375,31.7142,2.0707,48.2288,3.0905l54.3713,3.3578,38.3736,3.2959,41.6445,3.1325,41.3139,3.3459,168.1339,16.7805c75.8676,7.5719,200.7521,35.4215,220.5456,120.8543l5.7435,24.7903c-2.596,1.0189-3.2788,3.8437-3.2039,6.4078-2.1277-8.5106-8.6641-17.8753-10.3181-26.2536-15.2131-77.0616-112.36-109.0889-183.2416-116.5894l-184.8547-19.5608-41.3096-3.3439-41.6455-3.1616-41.6148-3.1505-47.803-3.4206-54.5702-3.1491-51.3922-2.9366-69.2267-2.6305-280.3616-1.546,29.1463-9.6958Z"/>
      <path d="M1305.5023,2162.3294c11.397-13.4659,24.0207-21.6219,37.8324-30.5893,12.8699-8.3559,21.6393-20.039,36.5154-26.1295,2.1118,16.1386,3.196,35.787-10.0791,46.3502-17.8895,14.235-42.4468,14.109-64.2687,10.3686Z"/>
      <path d="M1904.1851,1740.2913c-13.7339,11.7423-36.9027,10.8171-54.2624,7.0755l62.4879-47.7345c.7081,12.8426,3.758,30.4134-8.2254,40.659Z"/>
      <path class="cls-10" d="M2006.0963,254.4833l-.6997,173.1031-3.3368,429.0497-3.4433,505.7694-2.6534,199.3907c-11.9445,17.9519-28.5465,33.4591-49.8062,46.5216l-579.8313,428.7599c-5.2641,4.61-5.1024-24.0774-5.1024-24.0774-2.2793-315.3718,2.4843-609.2075,4.6957-927.4866,9.6024-53.0618,14.4035-79.5926,14.4035-79.5926l130.8823-574.8338c1.8589-4.0052,494.8918-176.6039,494.8918-176.6039Z"/>
      <path class="cls-10" d="M2006.0963,244.435s-489.133,173.6917-489.1341,173.6921c.7177-.2513,11.3478-77.953-.3492-153.5519,0-.0002,457.7467-144.7981,457.7467-144.7981,2.6995,5.2405,9.4825,9.4678,12.7069,16.8559,14.6567,33.5832,21.5914,72.3092,19.0297,107.802Z"/>
      <path class="cls-11" d="M1335.7882,2128.0437c27-47.7391,26.6087-75.5217,26.5312-97.0519l564.7134-416.4428c18.5158-13.6897,34.2408-25.3271,50.7992-40.0794,5.9085-5.2641,11.2828-10.5991,18.131-12.6735-.3856,28.9738-10.9162,70.8537-37.1708,90.7634l-623.004,475.4842Z"/>
      <path class="cls-10" d="M1511.6609,262.3697c8.1129,1.0585-.936,159.6843-5.6273,167.3158l-139.1419,561.7137c-10.6496,42.3132-19.7816,85.3852-19.3733,129.2601l1.5912,925.3331c-4.517,33.9208-20.5053,81.0691-27.7426,88.8766-19.4266,20.9573-92.5198,50.6848-145.535,47.8598-212.4595-11.3216-421.3818-36.3689-631.234-72.1782-108.1901-18.4616-211.975-41.2098-316.9494-70.6779-42.1608-11.8352-78.1764-31.1037-109.4357-61.319-6.4055-6.1915-13.2959-11.707-15.3304-19.8177,6.5618-3.1459,14.8421-1.1295,24.841,6.0492,300.1761,98.7433,627.4082,143.8072,949.1895,139.4055,98.9453-1.3535,162.0717-54.3322,172.6634-151.8786l-4.1861-715.4987c-1.453-37.8373-5.3946-75.551-12.3411-112.7868-7.7043,6.6958-13.9282,8.2918-18.6714,4.7879-4.3555,1.2131-4.8881.5105-1.3379-1.6577-65.3182,45.197-146.4687,58.0241-224.4243,59.9193-259.043-4.1766-529.2576-20.516-787.7381-83.2155-45.6612-11.076-86.1717-31.298-124.0214-58.0955-10.0037,4.8983-31.5967-16.3683-36.8122-25.1125-9.054-15.18,3.1381-12.3652-.4025-2.7882-.4025,1.0888-2.3132,1.62-4.6547,1.9919l-13.5364-88.6317c44.6546,62.1377,125.7099,82.9402,201.1519,97.7021,218.7709,42.8072,493.0539,67.8044,716.4007,70.636,181.6526,2.3031,305.8679-38.7583,353.6794-226.5347l126.5642-497.0716c6.8428-26.8748,8.5394-54.7335,3.6629-80.0151-.1484-2.588-.3013-6.4908,1.4848-7.2521,9.9587-4.2449,72.6541-25.6874,78.2713-25.457,1.1031.0452,2.1649.8308,3.1784,1.8637,1.2262,1.2496,4.9779-4.3557,5.8172-2.7266Z"/>
      <path class="cls-13" d="M512.8145,110.0309l29.1848-4.7667c279.0197,1.5868,555.5696,11.6265,830.9643,53.7662,58.9851,15.576,117.9611,40.2788,138.4487,102.5911,1.116,3.3942,1.2665,5.5795-2.5777,7.8985-5.82-.8467-11.5478,1.5716-18.0962,3.7595l-67.8291,22.6623c-17.1241-88.7776-111.9997-121.0849-193.7637-130.3512-178.9356-20.2789-355.8238-33.9041-536.2331-36.9144l-189.3548-3.1595-74.1288-.9564c27.8012-4.7838,55.3166-14.684,83.3857-14.5292Z"/>
      <path class="cls-13" d="M76.8561,1045.7653c37.6506,27.7885,76.9373,44.9496,122.6887,57.7318,53.7891,15.0278,111.6438,24.9052,167.489,33.2984,203.8747,30.6413,428.5592,55.3153,633.3695,49.8575,76.6059-2.0414,149.2532-19.0056,213.9746-57.8384,7.0685-4.865,12.9469-10.8797,23.2556-14.3122,11.6951,57.5689,14.8677,110.6159,15.1487,168.5504l3.2285,665.5794c.2916,60.1251-34.506,114.7847-85.9106,140.3672-33.6308,16.737-68.5217,21.2629-106.3754,22.051-186.5701,3.8839-370.3504-13.3931-554.3418-45.3741-76.4179-13.2828-357.3759-70.5563-406.5002-106.9403-31.3233-23.1997-42.7186-74.516-43.8535-111.4457l-6.4337-209.3631-9.3391-390.2939-8.2696-227.7768c-.7786-5.0979-1.158-9.1171-3.0424-19.9206,9.9587,18.6141,30.9024,33.9498,44.9118,45.8293Z"/>
      <path d="M1214.3778,1128.8146c-20.2896,13.9646-42.0123,26.6336-67.0717,35.0773-38.4817,12.9663-77.9169,21.8091-119.501,24.1662-59.1987,3.3555-117.974,3.2941-177.1737.2761l-52.5955-2.6812-51.0581-3.3289-41.5852-3.155-39.0346-3.1509c-134.5783-10.8634-266.4395-29.0207-399.2773-53.7137-45.0681-8.3776-85.8526-19.5899-127.4966-36.4408-24.1895-9.7881-44.2697-24.4462-62.7281-40.0984,4.1419-.4183,7.3998,1.9617,11.5728,4.8324,34.5527,23.7692,71.5045,39.8511,113.1769,50.4099,93.7231,23.7471,187.7443,37.326,283.7807,48.9907l117.5057,14.2724,88.7993,7.6453,35.9723,2.4876c11.6442.8052,82.3014,6.3725,86.6663,5.7307,12.2826-1.8061,23.6149,2.1575,35.5164,2.4178l88.9565,1.9457c91.8728,2.0095,198.0621-6.6976,274.2292-59.9045,1.9072,2.3921,2.2256,3.741,1.3456,4.2213Z"/>
      <path d="M1158.6582,1958.1241c.33,50.9401-32.41,113.1901-93.04,112.89-310.14-1.5599-574.6-42.0499-872.24-112.6801-49.47-11.74-87.63-45.8199-89.02-100.24l-5.36-210.25-3.27-214.6599-1.08-127.45c-.52-61.92,54.3-98.69,113.45-92.34l841.63,90.43c61.78,6.64,105.13,59.83,105.53,121.68l3.4,532.62Z"/>
      <path class="cls-13" d="M1125.072,1542.0934l3.2032.9756c.1621,142.6252,1.0227,287.0737,2.5818,433.3457.0852,22.3655-9.425,46.3594-22.71,63.8791-2.2426,2.9575-4.205,9.2961-8.0756,8.6982-7.5165,9.623-23.1376,13.5428-35.8588,13.3928-88.9806-1.0493-173.964-3.7509-263.3456-11.3294-211.1178-17.9002-417.5172-53.9176-622.44-106.2232-36.2373-9.2494-58.7359-42.5463-64.1907-77.11-5.6133-35.5682-3.946-68.5494-4.6186-104.8672l-6.0999-329.3742-.6369-125.2504c-.1412-27.7769,14.4041-53.7922,38.4065-64.958,6.2346-6.7916,16.7997-9.1468,31.6953-7.0654,94.9626,10.6502,189.7183,21.3236,284.2671,32.0203,4.6812,24.6966,12.0969,47.478,22.2472,68.3444l8.0622,5.9636c59.7742,10.5264,119.8995,17.3699,180.3759,20.5308l6.6363-2.4543c15.6151-16.1475,26.2977-37.0618,32.0476-62.7429,6.2928-2.9925,18.8016-8.5151,21.8966-1.3543l297.0803,32.647c69.0574,11.8327,95.2675,42.2677,100.4383,113.5705l-.9622,99.3618Z"/>
      <path class="cls-10" d="M1120.0817,2033.0546c-2.8848,3.114-9.6984,12.331-11.4262,8.8321,19.7999-24.4711,23.6374-53.7944,22.7878-84.8418-2.5235-171.1372-3.5793-340.4254-3.1675-507.8648-8.0406-70.7964-26.2876-105.0054-98.8276-119.5629l-304.2966-33.5745c-2.8377-7.9866,10.4997-15.1367,15.7625-13.4238,3.7114.653,7.9846-2.3753,13.0842-1.8335l290.3826,30.8497c59.5772,6.3294,101.8031,55.6215,102.0897,116.6082l2.5362,539.5611c.1421,30.2256-11.4433,45.0979-28.9253,65.2503Z"/>
      <path d="M1114.6283,2038.0741c13.42-17.5399,18.39-38.1499,19.31-60.23,2.89-69.3999-1.85-135.47-1.9901-205.2l-.66-319.86c0-2.5399-1.64-3.97-3.01-3.6,1.47-42.6801-12.88-85.98-54.48-109.4301-14.03-7.91-32.74-11.7999-50.14-13.75l-295.26-32.98c1.95-6.45,9.65-5.79,12.52-10.41-5.06-7.69-14.63-7.01-23-5.84,2.25,5.05-1.1,8.18-10.05,9.4l-222.04-23.59s-.42-2.82-1.27-8.44c-2.24-.61-4.34-3.43-6.68-3.67l-23.23,6.56c-93.29-8.45-186.75-17.93-280.37-28.45l-22.8199,3.02c-4.97,2.69-13.83,4.87-10.17,11.67,9.9-4.61,25.76-5.19,37.31-3.9l273,30.3,13.19,51.86c3.96,15.59,13.99,27.86,31.16,29.9501l151.6201,18.47c48.15,5.8699,48.0699-29.3101,65.73-71.61l325.11,35.1201c32.26,3.49,57.41,23.6899,71.15,50.8999,21.31,42.21,14.34,112.99,15.51,157.73l.58,227.4701c.18,73.5399,5.26,144.0299,1.62,217.16-1.22,24.48-13.1,44.22-27.2,62.27,2.73,2.5898,8.7634-4.0049,14.56-10.9202Z"/>
      <path class="cls-10" d="M468.016,1249.4638c-13.6268,15.9086-20.7652,15.676-40.9156,13.3473l-253.1667-29.2577c-8.4972-.982-17.1835,4.1197-22.4712-1.9447,18.229-9.8352,37.2286-10.6477,58.8321-8.4432l257.7214,26.2983Z"/>
      <path class="cls-10" d="M717.9151,1276.7745c5.9696,3.5711,11.0735,1.3824,17.1843,3.8909-8.5663,2.5117-17.0975,10.7373-26.7961,11.8336l-161.7574-17.7078-82.7901-7.8735c8.5543-5.874,10.9021-8.7436,20.8039-12.7724l233.3555,22.6292Z"/>
      <path class="cls-13" d="M500.5491,1275.9631l201.1839,21.3762c-5.4665,18.6175-8.3955,35.0173-19.8143,44.4436-4.3265,3.5715-14.072,3.6672-14.072,3.6672l-164.4326-21.9495c-15.5326-7.8387-12.8202-51.0726-2.865-47.5375Z"/>
      <path class="cls-13" d="M1352.4383,212.0642c-41.51-24.15-85.71-33.5-134.6-39.06-222.69-25.35-444.33-36.84-668.31-38.73-31.52-3.37-59.86-1.25-90.81-1.13-41.74.16-80.43,2.03-120.61,13.1801-69.62,19.31-125.33,67.22-148.66,137.68L33.6082,754.6541c-10.85,32.78-20.12,62.19-22.02,96.23-5.28,94.36,75.3701,136.54,155.17,156.58,63.15,15.86,124.31,25.86,189.47,35.52,196.92,29.16,392.95,46.16,592.14,47.64,101.63.75,215.78-11.9901,280.17-98.2401,25.46-34.11,42.05-70.18,52.76-111.97l127.95-499.11c17.17-66.98,5.61-132.93-56.81-169.24ZM1215.8482,895.0642c-22.11,77.71-93.28,121.6299-171.19,130.86-63.22,7.5-125.05,8.65-188.55,3.43-16.21-1.33-32.38,2.5-47.79-.76-13.32-2.81-25.34-1.23-38.86-2.31l-184.04-14.7c-124.48-9.95-246-27.24-368.01-54.33-64.71-14.36-145.32-39.5099-145.55-117.06-.13-44.87,34.05-128.1,47.51-169.66l117.28-362.14c44.7-138.04,184.76-125.59,300.89-123.02l150.23,3.32c29.27.65,57.19,2.13,86.06,3.31l70.88,2.91,49.62,2.18c15.33.67,29.6,2.15,44.9,3.32l41.72,3.19,38.53,3.16,34.82,3.37c11.46,1.11,21.88,4.1,32.33,2.34,2.0699,4.65,8.5,3.48,12.81,3.2,5.7-.36,11.25.83,16.9,1.09,24.27,1.14,48.54,4.2,74.17,7.08,38.2401,4.3,75.85,10.47,109.92,27.25,80.23,39.52,55.02,114.04,38.37,178.1l-101.72,391.29-21.23,74.58Z"/>
      <path class="cls-1" d="M1335.2382,226.6441c-30.63-17.3-62.49-28.25-98.97-32.6899-193.93-23.57-386.22-38.34-581.87-40.42l-224.47-2.38c-35.35-.38-68.32,5.96-101.65,17.54-56.05,19.48-101.64,61.26-120.78,119.13L46.8083,773.8341c-21.74,65.75-21.31,133.4,41.71,174.55,29.49,19.25,61.75,31.6,96.7599,40.1,125.02,30.37,324.35,52.76,456.05,64.29,100.23,8.77,196.75,15.47,299.4,15.64,99.07,1.3,207.83-9.04,270.76-89.72,23.34-29.93,38.99-62.22,48.7-99.8199l129.33-500.57c15.09-58.43.89-120.49-54.28-151.66ZM1338.7982,429.1941l-101.72,391.29-21.23,74.58c-22.11,77.71-93.28,121.6299-171.19,130.86-63.22,7.5-125.05,8.65-188.55,3.43-16.21-1.33-32.38,2.5-47.79-.76-13.32-2.81-25.34-1.23-38.86-2.31l-184.04-14.7c-124.48-9.95-246-27.24-368.01-54.33-64.71-14.36-145.32-39.5099-145.55-117.06-.13-44.87,34.05-128.1,47.51-169.66l117.28-362.14c44.7-138.04,184.76-125.59,300.89-123.02l150.23,3.32c29.27.65,57.19,2.13,86.06,3.31l70.88,2.91,49.62,2.18c15.33.67,29.6,2.15,44.9,3.32l41.72,3.19,38.53,3.16,34.82,3.37c11.46,1.11,21.88,4.1,32.33,2.34,2.0699,4.65,8.5,3.48,12.81,3.2,5.7-.36,11.25.83,16.9,1.09,24.27,1.14,48.54,4.2,74.17,7.08,38.2401,4.3,75.85,10.47,109.92,27.25,80.23,39.52,55.02,114.04,38.37,178.1Z"/>
      <path class="cls-12" d="M1338.7982,429.1941l-101.72,391.29-21.23,74.58c-22.11,77.71-93.28,121.6299-171.19,130.86-63.22,7.5-125.05,8.65-188.55,3.43-16.21-1.33-32.38,2.5-47.79-.76-13.32-2.81-25.34-1.23-38.86-2.31l-184.04-14.7c-124.48-9.95-246-27.24-368.01-54.33-64.71-14.36-145.32-39.5099-145.55-117.06-.13-44.87,34.05-128.1,47.51-169.66,0,0,117.28-362.14,117.2801-362.1405,26.8276-82.8466,98.3629-116.6561,180.3427-122.8801,101.3445-7.6942,206.4909.2573,307.8956,3.6966,99.106,3.3613,198.1184,9.4803,296.8842,18.347,48.7415,4.3758,97.423,9.4207,146.026,15.1336,45.1948,5.3123,91.195,7.8471,132.6313,28.4035,80.23,39.52,55.02,114.04,38.37,178.1Z"/>
      <path class="cls-5" d="M1184.8191,468.1798l-81.4292,313.2366-16.9951,59.703c-17.6995,62.2086-74.6727,97.3675-137.0415,104.7564-83.9948,9.9509-169.0765,3.5278-253.1686-2.2231-84.3629-5.7694-168.9032-12.586-252.6486-24.4388-52.4864-7.4286-104.6503-16.8973-156.4152-28.3101-51.8018-11.4955-116.332-31.6286-116.5161-93.7092-.1041-35.9195,27.2578-102.5469,38.0328-135.8167l93.8853-289.9013c35.7834-110.5041,147.9046-100.5376,240.8693-98.4803l120.2625,2.6577c23.4313.5203,45.7819,1.7051,68.893,2.6497l56.7411,2.3295,39.7219,1.7451c12.272.5364,23.6955,1.7211,35.9435,2.6577l33.3978,2.5537,30.8442,2.5297,27.8742,2.6978c9.174.8886,17.5154,3.2821,25.8809,1.8732,1.657,3.7225,6.8044,2.7859,10.2547,2.5617,4.5629-.2882,9.0059.6644,13.5288.8726,19.4287.9126,38.8574,3.3622,59.3748,5.6677,30.612,3.4422,60.7197,8.3815,87.9935,21.8142,64.2259,31.6367,44.0447,91.2916,30.7161,142.5731Z"/>
      <path d="M1099.4383,215.6742c-4.31.28-10.7401,1.45-12.81-3.2l12.81,3.2Z"/>
      <path d="M1099.4383,215.6742c-4.31.28-10.7401,1.45-12.81-3.2,4.19-.71,10.81-1.15,12.81,3.2Z"/>
      <path class="cls-13" d="M690.1361,1339.435c-4.6184,5.6278-8.4829,7.7905-9.5218,8.3478-6.3972,3.4314-12.5933,3.3481-16.0435,3.2609-18.4047-.4653-86.4052-10.622-112.9565-13.826-14.3815-1.7355-48.3375-5.9236-52.2391-7.8261-1.5472-.7544-6.9243-5.4862-10.5-12.3913-6.8792-13.2843-4.3696-20.8694-4.3696-20.8695,1.8548-10.6927,7.1384-15.9519,4.3043-19.5652-1.2843-1.6375-2.9979-1.3589-8.6087-2.1522-14.3827-2.0335-19.6076-6.1946-22.3043-3.5217-1.6384,1.6239-1.0581,4.4961,0,9.3913,3.7325,17.2675,5.5988,25.9013,6.6522,29.1522,4.6235,14.2686,6.9922,21.4678,9.7826,24.6522,6.5572,7.483,11.2597,10.87,16.8261,12.326,32.7571,8.5687,72.1454,10.9977,88.7609,12.5869,45.3555,4.3381,46.4146,4.4463,49.3044,4.9565.4619.0815,9.2176,1.6295,21,2.3479,6.6315.4043,10.0196.5944,13.5652,0,2.7682-.464,12.62-2.437,20.8696-10.6957,4.0357-4.0402,5.8795-7.7742,8.7391-13.5653,6.2313-12.6193,7.875-23.5597,7.4348-23.691-.4379-.1307-2.1524,10.6719-10.6956,21.0824Z"/>
      <circle class="cls-10" cx="1008.5444" cy="536.0406" r="72.2059"/>
      <circle class="cls-10" cx="978.568" cy="746.5105" r="64.4028"/>
      <path class="cls-10" d="M417.2191,416.9432h-56.6115c-11.7031,0-22.0279,7.6575-25.425,18.8567l-20.0078,65.9593c-5.176,17.0637,7.5935,34.2813,25.425,34.2813h56.6115c11.7031,0,22.0279-7.6575,25.425-18.8567l20.0078-65.9593c5.176-17.0637-7.5935-34.2813-25.425-34.2813Z"/>
      <path class="cls-10" d="M367.1321,590.5516h-56.6115c-11.7031,0-22.0279,7.6575-25.425,18.8567l-20.0078,65.9593c-5.176,17.0637,7.5935,34.2813,25.425,34.2813h56.6115c11.7031,0,22.0279-7.6575,25.425-18.8567l20.0078-65.9593c5.176-17.0637-7.5935-34.2813-25.425-34.2813Z"/>
      <path class="cls-10" d="M720.8949,923.2537l-261.7471-25.6855c-22.6031-2.2181-36.5249-25.7743-27.5673-46.6449l7.9022-18.4116c5.7664-13.4353,19.5658-21.5927,34.1166-20.1679l259.4143,25.4015c21.0067,2.0569,34.9244,22.7614,28.8983,42.9901l-5.5694,18.6956c-4.5887,15.4033-19.4521,25.3924-35.4476,23.8227Z"/>
      <path class="cls-9" d="M372.965,749.9982c20.7297,1.9381,41.4595,3.8763,62.1892,5.8144,36.774,3.4382,73.5377,7.0114,110.2991,10.6042,8.2967.8032,16.7141,1.606,25.0321.6654,54.6844-7.9633,65.6419-81.0655,80.7388-124.6853,25.7742-75.1346,64.4301-169.5589,130.573-217.0273,35.7553-25.0059,81.4441-29.0043,123.1767-19.0592"/>
      <path class="cls-9" d="M421.4452,754.2706c20.7297,1.9381,41.4595,3.8763,62.1892,5.8144,36.774,3.4382,73.5377,7.0114,110.2991,10.6042,8.2967.8032,16.7141,1.606,25.0321.6654,54.6844-7.9633,65.6419-81.0655,80.7388-124.6853,25.7742-75.1346,64.4301-169.5589,130.573-217.0273,35.7553-25.0059,81.4441-29.0043,123.1767-19.0592"/>
      <path class="cls-9" d="M344.1534,746.3339c20.7297,1.9381,41.4595,3.8763,62.1892,5.8144,36.774,3.4382,73.5377,7.0114,110.2991,10.6042,8.2967.8032,16.7141,1.606,25.0321.6654,54.6844-7.9633,65.6419-81.0655,80.7388-124.6853,25.7742-75.1346,64.4301-169.5589,130.573-217.0273,35.7553-25.0059,81.4441-29.0043,123.1767-19.0592"/>
      <path d="M2013.6283,201.9842c-3.8801-34.82-14.1401-68.14-36.2301-95.59-42.9501-53.36-122.8199-69.34-189.66-72.27L1042.4182,1.4242c-27.35-1.21-50.8,2.3-77.17,7.51L442.1183,112.1942c-41.04,8.1-76.83,15.74-116.47,28.62-65.12,21.14-120.15,68.37-142.49,135.88L12.9682,791.1042c-10.46,31.59-14.1,65.09-8.16,96.63,13.48,71.63,24.81,139.69,26.39,213.33l11.31,527.59,7.53,218.9399c2.63,95.1801,76.97,171.2201,165.26,197.3401,274.82,81.28,668.03,129.3,954.69,146.46,43.71,2.62,83.08-2.61,120.92-22.49,29.75,5.96,86.57,5.25,95.65-27.8201,4.1-14.8999-.42-28.73,2.91-44.1399l448.92-341.55c21.64,3.8401,39.9,4.62,58.87-1.8101,30.6899-10.4099,20.97-39.75,24.8701-61.48,35.1399-27.3199,43.8499-28.8599,68.0099-66,11.84-30.48,15.4601-58.7899,15.58-90.6899l1.29-352.45,3.48-518.68,2.24-371.44c.1901-31.42,4.3301-60.04.9001-90.86ZM1237.0782,820.4842l-21.23,74.58c-22.11,77.71-93.28,121.6299-171.19,130.86-63.22,7.5-125.05,8.65-188.55,3.43-16.21-1.33-32.38,2.5-47.79-.76-13.32-2.81-25.34-1.23-38.86-2.31l-184.04-14.7c-124.48-9.95-246-27.24-368.01-54.33-64.71-14.36-145.32-39.5099-145.55-117.06-.13-44.87,34.05-128.1,47.51-169.66l117.28-362.14c44.7-138.04,184.76-125.59,300.89-123.02l150.23,3.32c29.27.65,57.19,2.13,86.06,3.31l70.88,2.91,49.62,2.18c15.33.67,29.6,2.15,44.9,3.32l41.72,3.19,38.53,3.16,34.82,3.37c11.46,1.11,21.88,4.1,32.33,2.34,2.0699,4.65,8.5,3.48,12.81,3.2,5.7-.36,11.25.83,16.9,1.09,24.27,1.14,48.54,4.2,74.17,7.08,38.2401,4.3,75.85,10.47,109.92,27.25,80.23,39.52,55.02,114.04,38.37,178.1l-101.72,391.29Z"/>
      <path d="M541.9608,100.335l216.1889,5.1351c29.45.6995,57.2728,2.3299,86.0721,3.2786l59.7796,1.9692c16.3169.5375,31.7142,2.0707,48.2288,3.0905l54.3713,3.3578,38.3736,3.2959,41.6445,3.1325,41.3139,3.3459,168.1339,16.7805c75.8676,7.5719,200.7521,35.4215,220.5456,120.8543l5.7435,24.7903c-2.596,1.0189-3.2788,3.8437-3.2039,6.4078-2.1277-8.5106-8.6641-17.8753-10.3181-26.2536-15.2131-77.0616-112.36-109.0889-183.2416-116.5894l-184.8547-19.5608-41.3096-3.3439-41.6455-3.1616-41.6148-3.1505-47.803-3.4206-54.5702-3.1491-51.3922-2.9366-69.2267-2.6305-280.3616-1.546,29.1463-9.6958Z"/>
      <path d="M1305.5023,2162.3294c11.397-13.4659,24.0207-21.6219,37.8324-30.5893,12.8699-8.3559,21.6393-20.039,36.5154-26.1295,2.1118,16.1386,3.196,35.787-10.0791,46.3502-17.8895,14.235-42.4468,14.109-64.2687,10.3686Z"/>
      <path d="M1904.1851,1740.2913c-13.7339,11.7423-36.9027,10.8171-54.2624,7.0755l62.4879-47.7345c.7081,12.8426,3.758,30.4134-8.2254,40.659Z"/>
      <path class="cls-10" d="M2006.0963,254.4833l-.6997,173.1031-3.3368,429.0497-3.4433,505.7694-2.6534,199.3907c-11.9445,17.9519-28.5465,33.4591-49.8062,46.5216l-579.8313,428.7599c-5.2641,4.61-5.1024-24.0774-5.1024-24.0774-2.2793-315.3718,2.4843-609.2075,4.6957-927.4866,9.6024-53.0618,14.4035-79.5926,14.4035-79.5926l130.8823-574.8338c1.8589-4.0052,494.8918-176.6039,494.8918-176.6039Z"/>
      <path class="cls-10" d="M2006.0963,244.435s-489.133,173.6917-489.1341,173.6921c.7177-.2513,17.7095-79.9654,6.0125-155.5643,0-.0002,451.3851-142.7857,451.3851-142.7857,2.6995,5.2405,9.4825,9.4678,12.7069,16.8559,14.6567,33.5832,21.5914,72.3092,19.0297,107.802Z"/>
      <path class="cls-11" d="M1335.7882,2128.0437c27-47.7391,26.6087-75.5217,26.5312-97.0519l564.7134-416.4428c18.5158-13.6897,34.2408-25.3271,50.7992-40.0794,5.9085-5.2641,11.2828-10.5991,18.131-12.6735-.3856,28.9738-10.9162,70.8537-37.1708,90.7634l-623.004,475.4842Z"/>
      <path class="cls-10" d="M1511.6609,262.3697c8.1129,1.0585-.936,159.6843-5.6273,167.3158l-139.1419,561.7137c-10.6496,42.3132-19.7816,85.3852-19.3733,129.2601l1.5912,925.3331c-4.517,33.9208-20.5053,81.0691-27.7426,88.8766-19.4266,20.9573-92.5198,50.6848-145.535,47.8598-212.4595-11.3216-421.3818-36.3689-631.234-72.1782-108.1901-18.4616-211.975-41.2098-316.9494-70.6779-42.1608-11.8352-78.1764-31.1037-109.4357-61.319-6.4055-6.1915-13.2959-11.707-15.3304-19.8177,6.5618-3.1459,14.8421-1.1295,24.841,6.0492,300.1761,98.7433,627.4082,143.8072,949.1895,139.4055,98.9453-1.3535,162.0717-54.3322,172.6634-151.8786l-4.1861-715.4987c-1.453-37.8373-5.3946-75.551-12.3411-112.7868-7.7043,6.6958-13.9282,8.2918-18.6714,4.7879-4.3555,1.2131-4.8881.5105-1.3379-1.6577-65.3182,45.197-146.4687,58.0241-224.4243,59.9193-259.043-4.1766-529.2576-20.516-787.7381-83.2155-45.6612-11.076-86.1717-31.298-124.0214-58.0955-10.0037,4.8983-31.5967-16.3683-36.8122-25.1125-9.054-15.18,3.1381-12.3652-.4025-2.7882-.4025,1.0888-2.3132,1.62-4.6547,1.9919l-13.5364-88.6317c44.6546,62.1377,125.7099,82.9402,201.1519,97.7021,218.7709,42.8072,493.0539,67.8044,716.4007,70.636,181.6526,2.3031,305.8679-38.7583,353.6794-226.5347l126.5642-497.0716c6.8428-26.8748,8.5394-54.7335,3.6629-80.0151-.1484-2.588-.3013-6.4908,1.4848-7.2521,9.9587-4.2449,72.6541-25.6874,78.2713-25.457,1.1031.0452,2.1649.8308,3.1784,1.8637,1.2262,1.2496,4.9779-4.3557,5.8172-2.7266Z"/>
      <path class="cls-13" d="M541.9993,105.2641c279.0197,1.5868,555.5696,11.6265,830.9643,53.7662,58.9851,15.576,117.9611,40.2788,138.4487,102.5911,1.116,3.3942,1.2665,5.5795-2.5777,7.8985-5.82-.8467-11.5478,1.5716-18.0962,3.7595l-67.8291,22.6623c-17.1241-88.7776-111.9997-121.0849-193.7637-130.3512-178.9356-20.2789-355.8238-33.9041-536.2331-36.9144l-189.3548-3.1595-74.1288-.9564c27.8012-4.7838,112.5705-19.296,112.5705-19.296Z"/>
      <path class="cls-13" d="M76.8561,1045.7653c37.6506,27.7885,76.9373,44.9496,122.6887,57.7318,53.7891,15.0278,111.6438,24.9052,167.489,33.2984,203.8747,30.6413,428.5592,55.3153,633.3695,49.8575,76.6059-2.0414,149.2532-19.0056,213.9746-57.8384,7.0685-4.865,12.9469-10.8797,23.2556-14.3122,11.6951,57.5689,14.8677,110.6159,15.1487,168.5504l3.2285,665.5794c.2916,60.1251-34.506,114.7847-85.9106,140.3672-33.6308,16.737-68.5217,21.2629-106.3754,22.051-186.5701,3.8839-370.3504-13.3931-554.3418-45.3741-76.4179-13.2828-357.3759-70.5563-406.5002-106.9403-31.3233-23.1997-42.7186-74.516-43.8535-111.4457l-6.4337-209.3631-9.3391-390.2939-8.2696-227.7768c-.7786-5.0979-1.158-9.1171-3.0424-19.9206,9.9587,18.6141,30.9024,33.9498,44.9118,45.8293Z"/>
      <path d="M1214.3778,1128.8146c-20.2896,13.9646-42.0123,26.6336-67.0717,35.0773-38.4817,12.9663-77.9169,21.8091-119.501,24.1662-59.1987,3.3555-117.974,3.2941-177.1737.2761l-52.5955-2.6812-51.0581-3.3289-41.5852-3.155-39.0346-3.1509c-134.5783-10.8634-266.4395-29.0207-399.2773-53.7137-45.0681-8.3776-85.8526-19.5899-127.4966-36.4408-24.1895-9.7881-44.2697-24.4462-62.7281-40.0984,4.1419-.4183,7.3998,1.9617,11.5728,4.8324,34.5527,23.7692,71.5045,39.8511,113.1769,50.4099,93.7231,23.7471,187.7443,37.326,283.7807,48.9907l117.5057,14.2724,88.7993,7.6453,35.9723,2.4876c11.6442.8052,82.3014,6.3725,86.6663,5.7307,12.2826-1.8061,23.6149,2.1575,35.5164,2.4178l88.9565,1.9457c91.8728,2.0095,198.0621-6.6976,274.2292-59.9045,1.9072,2.3921,2.2256,3.741,1.3456,4.2213Z"/>
      <path d="M1158.6582,1958.1241c.33,50.9401-32.41,113.1901-93.04,112.89-310.14-1.5599-574.6-42.0499-872.24-112.6801-49.47-11.74-87.63-45.8199-89.02-100.24l-5.36-210.25-3.27-214.6599-1.08-127.45c-.52-61.92,54.3-98.69,113.45-92.34l841.63,90.43c61.78,6.64,105.13,59.83,105.53,121.68l3.4,532.62Z"/>
      <path class="cls-13" d="M1125.072,1542.0934l3.2032.9756c.1621,142.6252,1.0227,287.0737,2.5818,433.3457.0852,22.3655-9.425,46.3594-22.71,63.8791-2.2426,2.9575-4.205,9.2961-8.0756,8.6982-7.5165,9.623-23.1376,13.5428-35.8588,13.3928-88.9806-1.0493-173.964-3.7509-263.3456-11.3294-211.1178-17.9002-417.5172-53.9176-622.44-106.2232-36.2373-9.2494-58.7359-42.5463-64.1907-77.11-5.6133-35.5682-3.946-68.5494-4.6186-104.8672l-6.0999-329.3742-.6369-125.2504c-.1412-27.7769,14.4041-53.7922,38.4065-64.958,6.2346-6.7916,16.7997-9.1468,31.6953-7.0654,94.9626,10.6502,189.7183,21.3236,284.2671,32.0203,4.6812,24.6966,12.0969,47.478,22.2472,68.3444l8.0622,5.9636c59.7742,10.5264,119.8995,17.3699,180.3759,20.5308l6.6363-2.4543c15.6151-16.1475,26.2977-37.0618,32.0476-62.7429,6.2928-2.9925,18.8016-8.5151,21.8966-1.3543l297.0803,32.647c69.0574,11.8327,95.2675,42.2677,100.4383,113.5705l-.9622,99.3618Z"/>
      <path class="cls-10" d="M1120.0817,2033.0546c-2.8848,3.114-9.6984,12.331-11.4262,8.8321,19.7999-24.4711,23.6374-53.7944,22.7878-84.8418-2.5235-171.1372-3.5793-340.4254-3.1675-507.8648-8.0406-70.7964-26.2876-105.0054-98.8276-119.5629l-304.2966-33.5745c-2.8377-7.9866,10.4997-15.1367,15.7625-13.4238,3.7114.653,7.9846-2.3753,13.0842-1.8335l290.3826,30.8497c59.5772,6.3294,101.8031,55.6215,102.0897,116.6082l2.5362,539.5611c.1421,30.2256-11.4433,45.0979-28.9253,65.2503Z"/>
      <path d="M1114.6283,2038.0741c13.42-17.5399,18.39-38.1499,19.31-60.23,2.89-69.3999-1.85-135.47-1.9901-205.2l-.66-319.86c0-2.5399-1.64-3.97-3.01-3.6,1.47-42.6801-12.88-85.98-54.48-109.4301-14.03-7.91-32.74-11.7999-50.14-13.75l-295.26-32.98c1.95-6.45,9.65-5.79,12.52-10.41-5.06-7.69-14.63-7.01-23-5.84,2.25,5.05-1.1,8.18-10.05,9.4l-222.04-23.59s-.42-2.82-1.27-8.44c-2.24-.61-4.34-3.43-6.68-3.67l-23.23,6.56c-93.29-8.45-186.75-17.93-280.37-28.45l-22.8199,3.02c-4.97,2.69-13.83,4.87-10.17,11.67,9.9-4.61,25.76-5.19,37.31-3.9l273,30.3,13.19,51.86c3.96,15.59,13.99,27.86,31.16,29.9501l151.6201,18.47c48.15,5.8699,48.0699-29.3101,65.73-71.61l325.11,35.1201c32.26,3.49,57.41,23.6899,71.15,50.8999,21.31,42.21,14.34,112.99,15.51,157.73l.58,227.4701c.18,73.5399,5.26,144.0299,1.62,217.16-1.22,24.48-13.1,44.22-27.2,62.27,2.73,2.5898,8.7634-4.0049,14.56-10.9202Z"/>
      <path class="cls-10" d="M468.016,1249.4638c-13.6268,15.9086-20.7652,15.676-40.9156,13.3473l-253.1667-29.2577c-8.4972-.982-17.1835,4.1197-22.4712-1.9447,18.229-9.8352,37.2286-10.6477,58.8321-8.4432l257.7214,26.2983Z"/>
      <path class="cls-10" d="M717.9151,1276.7745c5.9696,3.5711,11.0735,1.3824,17.1843,3.8909-8.5663,2.5117-17.0975,10.7373-26.7961,11.8336l-161.7574-17.7078-82.7901-7.8735c8.5543-5.874,10.9021-8.7436,20.8039-12.7724l233.3555,22.6292Z"/>
      <path class="cls-13" d="M500.5491,1275.9631l201.1839,21.3762c-5.4665,18.6175-8.3955,35.0173-19.8143,44.4436-4.3265,3.5715-14.072,3.6672-14.072,3.6672l-164.4326-21.9495c-15.5326-7.8387-12.8202-51.0726-2.865-47.5375Z"/>
      <path class="cls-13" d="M1352.4383,212.0642c-41.51-24.15-85.71-33.5-134.6-39.06-222.69-25.35-444.33-36.84-668.31-38.73-31.52-3.37-59.86-1.25-90.81-1.13-41.74.16-80.43,2.03-120.61,13.1801-69.62,19.31-125.33,67.22-148.66,137.68L33.6082,754.6541c-10.85,32.78-20.12,62.19-22.02,96.23-5.28,94.36,75.3701,136.54,155.17,156.58,63.15,15.86,124.31,25.86,189.47,35.52,196.92,29.16,392.95,46.16,592.14,47.64,101.63.75,215.78-11.9901,280.17-98.2401,25.46-34.11,42.05-70.18,52.76-111.97l127.95-499.11c17.17-66.98,5.61-132.93-56.81-169.24ZM1215.8482,895.0642c-22.11,77.71-93.28,121.6299-171.19,130.86-63.22,7.5-125.05,8.65-188.55,3.43-16.21-1.33-32.38,2.5-47.79-.76-13.32-2.81-25.34-1.23-38.86-2.31l-184.04-14.7c-124.48-9.95-246-27.24-368.01-54.33-64.71-14.36-145.32-39.5099-145.55-117.06-.13-44.87,34.05-128.1,47.51-169.66l117.28-362.14c44.7-138.04,184.76-125.59,300.89-123.02l150.23,3.32c29.27.65,57.19,2.13,86.06,3.31l70.88,2.91,49.62,2.18c15.33.67,29.6,2.15,44.9,3.32l41.72,3.19,38.53,3.16,34.82,3.37c11.46,1.11,21.88,4.1,32.33,2.34,2.0699,4.65,8.5,3.48,12.81,3.2,5.7-.36,11.25.83,16.9,1.09,24.27,1.14,48.54,4.2,74.17,7.08,38.2401,4.3,75.85,10.47,109.92,27.25,80.23,39.52,55.02,114.04,38.37,178.1l-101.72,391.29-21.23,74.58Z"/>
      <path class="cls-1" d="M1389.5182,378.3042l-129.33,500.57c-9.71,37.6-25.36,69.89-48.7,99.8199-62.93,80.6801-171.69,91.02-270.76,89.72-102.65-.17-199.17-6.87-299.4-15.64-131.7-11.53-331.03-33.92-456.05-64.29-35.0099-8.5-67.27-20.85-96.7599-40.1-63.02-41.15-63.45-108.8-41.71-174.55l160.69-486.0099c19.14-57.87,64.73-99.65,120.78-119.13,33.33-11.58,66.3-17.92,101.65-17.54l224.47,2.38c195.65,2.08,387.94,16.85,581.87,40.42,36.48,4.4399,68.34,15.39,98.97,32.6899,55.17,31.17,69.37,93.23,54.28,151.66Z"/>
      <path class="cls-12" d="M1338.7982,429.1941l-101.72,391.29-21.23,74.58c-22.11,77.71-93.28,121.6299-171.19,130.86-63.22,7.5-125.05,8.65-188.55,3.43-16.21-1.33-32.38,2.5-47.79-.76-13.32-2.81-25.34-1.23-38.86-2.31l-184.04-14.7c-124.48-9.95-246-27.24-368.01-54.33-64.71-14.36-145.32-39.5099-145.55-117.06-.13-44.87,34.05-128.1,47.51-169.66,0,0,117.28-362.14,117.2801-362.1405,26.8276-82.8466,98.3629-116.6561,180.3427-122.8801,101.3445-7.6942,206.4909.2573,307.8956,3.6966,99.106,3.3613,198.1184,9.4803,296.8842,18.347,48.7415,4.3758,97.423,9.4207,146.026,15.1336,45.1948,5.3123,91.195,7.8471,132.6313,28.4035,80.23,39.52,55.02,114.04,38.37,178.1Z"/>
      <path class="cls-3" d="M1216.5626,459.9555l-86.1402,331.3585-17.9783,63.1571c-18.7235,65.8076-78.9928,103.0006-144.9699,110.817-88.8543,10.5266-178.8582,3.7319-267.8154-2.3517-89.2437-6.1032-178.6749-13.3141-267.2653-25.8526-55.5229-7.8583-110.7047-17.8749-165.4645-29.9479-54.7987-12.1606-123.0622-33.4585-123.257-99.1306-.1101-37.9975,28.8348-108.4797,40.2332-143.6742l99.3169-306.6732c37.8536-116.8972,156.4615-106.3541,254.8047-104.1777,190.135,4.2078,382.2565,7.7435,570.5154,36.9128,26.1269,4.0482,51.6289,6.9115,75.5273,18.7412,67.9416,33.467,46.5929,96.5732,32.4931,150.8215Z"/>
      <path class="cls-2" d="M1102.4383,486.7024s-65.2353,250.9429-65.2353,250.9429l-13.6153,47.8298c-14.1796,49.8371-59.8225,78.0039-109.7879,83.9234-67.2907,7.972-135.4521,2.8262-202.8207-1.781-67.5856-4.622-135.3132-10.083-202.4041-19.5786-42.0483-5.9512-83.8384-13.5369-125.3088-22.68-41.4999-9.2094-93.1969-25.3386-93.3444-75.0731-.0834-28.7761,21.837-82.1533,30.4692-108.8067l75.2142-232.2483c28.6671-88.5281,118.4906-80.5436,192.9674-78.8954l96.3458,2.1292c18.7706.4168,36.6754,1.3659,55.1895,2.1227,92.2497,3.7706,184.9363,6.5684,276.1826,21.7817,33.384,5.566,77.0818,10.5972,92.5329,46.324,11.4856,26.5575.4475,57.7242-6.3852,84.0096Z"/>
      <path d="M1099.4383,215.6742c-4.31.28-10.7401,1.45-12.81-3.2l12.81,3.2Z"/>
      <path d="M1099.4383,215.6742c-4.31.28-10.7401,1.45-12.81-3.2,4.19-.71,10.81-1.15,12.81,3.2Z"/>
      <path class="cls-13" d="M690.1361,1339.435c-4.6184,5.6278-8.4829,7.7905-9.5218,8.3478-6.3972,3.4314-12.5933,3.3481-16.0435,3.2609-18.4047-.4653-86.4052-10.622-112.9565-13.826-14.3815-1.7355-48.3375-5.9236-52.2391-7.8261-1.5472-.7544-6.9243-5.4862-10.5-12.3913-6.8792-13.2843-4.3696-20.8694-4.3696-20.8695,1.8548-10.6927,7.1384-15.9519,4.3043-19.5652-1.2843-1.6375-2.9979-1.3589-8.6087-2.1522-14.3827-2.0335-19.6076-6.1946-22.3043-3.5217-1.6384,1.6239-1.0581,4.4961,0,9.3913,3.7325,17.2675,5.5988,25.9013,6.6522,29.1522,4.6235,14.2686,6.9922,21.4678,9.7826,24.6522,6.5572,7.483,11.2597,10.87,16.8261,12.326,32.7571,8.5687,72.1454,10.9977,88.7609,12.5869,45.3555,4.3381,46.4146,4.4463,49.3044,4.9565.4619.0815,9.2176,1.6295,21,2.3479,6.6315.4043,10.0196.5944,13.5652,0,2.7682-.464,12.62-2.437,20.8696-10.6957,4.0357-4.0402,5.8795-7.7742,8.7391-13.5653,6.2313-12.6193,7.875-23.5597,7.4348-23.691-.4379-.1307-2.1524,10.6719-10.6956,21.0824Z"/>
      <circle class="cls-10" cx="1128.9941" cy="598.6738" r="42.4589"/>
      <circle class="cls-10" cx="1090.7719" cy="735.5158" r="37.8705"/>
      <path class="cls-10" d="M339.8048,421.3043h-44.429c-9.1846,0-17.2876,6.0097-19.9537,14.7988l-15.7022,51.7652c-4.0622,13.3917,5.9594,26.9042,19.9537,26.9042h44.429c9.1846,0,17.2876-6.0097,19.9537-14.7988l15.7022-51.7652c4.0622-13.3917-5.9594-26.9042-19.9537-26.9042Z"/>
      <path class="cls-10" d="M287.2599,587.594h-44.429c-9.1846,0-17.2876,6.0097-19.9537,14.7988l-15.7022,51.7652c-4.0622,13.3917,5.9594,26.9042,19.9537,26.9042h44.429c9.1846,0,17.2876-6.0097,19.9537-14.7988l15.7022-51.7652c4.0622-13.3917-5.9594-26.9042-19.9537-26.9042Z"/>
      <path class="cls-10" d="M676.8427,946.5525l-205.4205-20.1581c-17.739-1.7407-28.665-20.2278-21.635-36.6071l6.2017-14.4495c4.5255-10.5441,15.3553-16.9461,26.7749-15.8279l203.5897,19.9352c16.4861,1.6143,27.4089,17.8633,22.6795,33.7388l-4.3709,14.6724c-3.6012,12.0886-15.2661,19.9281-27.8194,18.6962Z"/>
      <path class="cls-4" d="M447.9338,801.7982c20.9388,1.9577,41.8776,3.9154,62.8164,5.8731,37.1449,3.4729,74.2779,7.0981,111.4083,10.7457,8.3801.8146,16.8822,1.6273,25.303.4741,55.3804-9.5892,67.2675-92.1898,83.0143-141.5719,26.891-85.0575,67.0202-192.0215,134.423-246.3101,36.4292-28.6087,82.6702-33.6249,124.7568-22.8653"/>
      <path class="cls-8" d="M496.9058,806.0829c20.9388,1.9577,41.8776,3.9154,62.8164,5.8731,37.1449,3.4729,74.2779,7.0981,111.4083,10.7457,8.3801.8146,16.8822,1.6273,25.303.4741,55.3804-9.5892,67.2675-92.1898,83.0143-141.5719,26.891-85.0575,67.0202-192.0215,134.423-246.3101,36.4292-28.6087,82.6702-33.6249,124.7568-22.8653"/>
      <path class="cls-6" d="M383.1123,794.5175c20.9388,1.9577,41.8776,3.9154,62.8164,5.8731,37.1449,3.4729,74.2779,7.0981,111.4083,10.7457,8.3801.8146,16.8822,1.6273,25.303.4741,55.3804-9.5892,67.2675-92.1898,83.0143-141.5719,26.891-85.0575,67.0202-192.0215,134.423-246.3101,36.4292-28.6087,82.6702-33.6249,124.7568-22.8653"/>
      <path class="cls-7" d="M326.7826,788.6244c20.9388,1.9577,41.8776,3.9154,62.8164,5.8731,37.1449,3.4729,74.2779,7.0981,111.4083,10.7457,8.3801.8146,16.8822,1.6273,25.303.4741,55.3804-9.5892,67.2675-92.1898,83.0143-141.5719,26.891-85.0575,67.0202-192.0215,134.423-246.3101,36.4292-28.6087,82.6702-33.6249,124.7568-22.8653"/>
      <path d="M1032.6531,2.9999c3.5389,0,7.1337.0775,10.7962.2395l745.32,32.6997c66.84,2.93,146.71,18.91,189.66,72.27,22.09,27.45,32.35,60.77,36.23,95.59,3.4299,30.82-.7101,59.4403-.9,90.86l-2.24,371.44-3.48,518.68-1.29,352.4501c-.12,31.8999-3.74,60.21-15.58,90.6899-24.16,37.14-32.87,38.6801-68.01,66-3.9,21.73,5.8199,51.0701-24.87,61.48-9.9667,3.3783-19.734,4.766-29.9019,4.766-9.1851,0-18.6976-1.1334-28.9681-2.9559l-448.92,341.5499c-3.33,15.41,1.19,29.24-2.91,44.14-6.4691,23.5612-37.1702,30.696-65.0504,30.696-11.252,0-22.0454-1.1624-30.5996-2.876-31.9275,16.7737-64.9381,23.1172-100.7319,23.1172-6.6285,0-13.3584-.2179-20.188-.6272-286.66-17.16-679.87-65.1801-954.69-146.4601-88.29-26.12-162.63-102.1599-165.26-197.34l-7.53-218.9399-11.31-527.59c-1.58-73.64-12.91-141.7-26.39-213.33-5.94-31.54-2.3-65.04,8.16-96.63L184.1893,278.5094c22.34-67.5103,77.37-114.7403,142.49-135.8803,39.64-12.88,75.43-20.52,116.47-28.6197L966.2793,10.7492c22.8388-4.5123,43.485-7.7493,66.3738-7.7493M1032.6532,0c-22.7775,0-43.2394,3.1205-66.9553,7.8061L442.5685,111.0661c-38.1992,7.5392-75.8775,15.4078-116.8161,28.71-33.3897,10.8392-63.9581,28.5456-88.4,51.2042-26.1875,24.2769-45.0322,53.4089-56.0111,86.5867L11.1512,791.977C-.0002,825.6541-2.8563,859.5864,2.8912,890.1045c12.4342,66.0725,24.71,136.9325,26.3386,212.8392l11.31,527.5897,7.5311,218.9789c1.2683,45.9048,18.9906,89.6345,51.2497,126.4418,29.9925,34.2211,71.2444,60.3846,116.1575,73.6719,279.3861,82.6306,676.6975,129.8967,955.3619,146.5781,7.0014.4197,13.8542.6324,20.3672.6324,38.8063,0,70.9922-7.3021,101.1879-22.9709,9.2128,1.7627,19.8683,2.7299,30.1438,2.7299,11.2414,0,27.5936-1.1664,41.6567-6.7225,14.215-5.6163,23.0588-14.4242,26.2866-26.1792,2.262-8.2213,2.0381-16.1163,1.8214-23.7513-.1793-6.3221-.3644-12.8488.9092-19.4783l446.9797-340.0737c10.9517,1.8918,19.9404,2.775,28.1949,2.775,10.9919,0,21.0881-1.6108,30.8647-4.9249,24.9386-8.4592,25.3367-28.8179,25.6875-46.78.11-5.62.2139-10.9498.9844-15.8895,6.733-5.217,12.4747-9.4753,17.5664-13.2516,21.0533-15.6139,30.6626-22.7402,50.1934-52.7642.1125-.1731.2069-.3573.2817-.5494,10.9271-28.13,15.6475-55.5736,15.7836-91.765l1.29-352.4503,3.48-518.6711,2.24-371.4419c.0656-10.8539.6128-21.515,1.1422-31.8253,1.0305-20.0744,2.0039-39.0358-.2606-59.3847-4.4663-40.0811-16.528-71.8556-36.8744-97.1389-19.9009-24.7244-49.2644-43.5711-87.275-56.0164-29.9149-9.795-65.1044-15.6389-104.5908-17.37L1043.5807.2422c-3.6361-.1606-7.313-.2422-10.9275-.2422h0Z"/>
      <path class="cls-13" d="M1974.3597,119.7771l-.206,6.7859c-150.5852,47.6343-299.6178,94.7368-450.2599,142.3891l-2.4317-9.778c-17.6875-60.7476-67.3696-94.7318-143.8043-108.0362-273.3132-42.6011-544.0167-51.9201-821.3478-53.9638L970.5163,16.6586c35.9896-7.0271,66.687-7.4546,103.7729-5.7787l716.6586,32.3862c60.5537,2.7365,154.9525,21.2631,183.4119,76.511Z"/>
    </g>
  </g>
</svg>