<?xml version="1.0" encoding="UTF-8"?>
<svg id="Capa_2" data-name="Capa 2" xmlns="http://www.w3.org/2000/svg" viewBox="0 0 469.99 746.62">
  <defs>
    <style>
      .cls-1 {
        fill: #bccbd2;
      }

      .cls-2 {
        fill: #778592;
      }

      .cls-3 {
        fill: #e9f1f4;
      }

      .cls-4 {
        fill: #97a8af;
      }

      .cls-5 {
        fill: #eef2f6;
      }

      .cls-6 {
        fill: #d6e1e5;
      }
    </style>
  </defs>
  <g id="Capa_1-2" data-name="Capa 1">
    <g>
      <g>
        <path class="cls-6" d="M281.22,198.32c-7.06,0-12.81-5.75-12.81-12.81,0-3.42,1.33-6.64,3.75-9.06,2.4-2.42,5.62-3.75,9.06-3.75h173.46c7.06,0,12.81,5.75,12.81,12.81,0,3.42-1.33,6.64-3.75,9.06-2.4,2.42-5.62,3.75-9.06,3.75h-173.46Z"/>
        <path class="cls-2" d="M454.68,175.2c5.7,0,10.31,4.62,10.31,10.31,0,2.84-1.15,5.42-3.02,7.29-1.86,1.87-4.44,3.02-7.29,3.02h-173.46c-5.7,0-10.31-4.62-10.31-10.31,0-2.84,1.15-5.42,3.02-7.29,1.86-1.87,4.44-3.02,7.29-3.02h173.46M454.68,170.2h-173.46c-4.1,0-7.95,1.6-10.83,4.49-2.88,2.88-4.48,6.73-4.48,10.82,0,8.44,6.87,15.31,15.31,15.31h173.46c4.1,0,7.95-1.6,10.84-4.49,2.88-2.88,4.47-6.73,4.47-10.82,0-8.44-6.87-15.31-15.31-15.31h0Z"/>
      </g>
      <g>
        <path class="cls-6" d="M223.53,194.46c-5.67,0-11.19-1.63-15.95-4.71l-21.85-14.12c-1.16-.75-1.49-2.3-.74-3.46l7.01-10.84c.48-.74,1.28-1.14,2.1-1.14.46,0,.94.13,1.35.4l19.52,12.62c3.39,2.19,7.31,3.35,11.34,3.35h38.59c1.38,0,2.5,1.12,2.5,2.5v12.91c0,.66-.26,1.3-.73,1.77s-1.1.73-1.77.73h-41.37Z"/>
        <path class="cls-2" d="M194.1,162.69l19.52,12.62c3.78,2.45,8.19,3.75,12.7,3.75h38.59v12.91h-41.37c-5.18,0-10.25-1.5-14.6-4.31l-21.85-14.12,7.01-10.84M194.11,157.69c-1.64,0-3.25.81-4.2,2.29l-7.01,10.84c-.72,1.11-.97,2.47-.69,3.76.28,1.3,1.06,2.43,2.17,3.15l21.85,14.12c5.17,3.34,11.15,5.11,17.31,5.11h41.37c1.33,0,2.6-.52,3.54-1.46.94-.94,1.46-2.21,1.46-3.54v-12.91c0-2.76-2.24-5-5-5h-38.59c-3.55,0-7-1.02-9.98-2.95l-19.52-12.62c-.84-.54-1.78-.8-2.71-.8h0Z"/>
      </g>
      <g>
        <path class="cls-6" d="M185.65,177.7c-2.92,0-5.77-1.01-8.05-2.84L7.25,37.04c-2.66-2.15-4.32-5.21-4.68-8.61-.36-3.4.63-6.74,2.78-9.4,2.45-3.02,6.08-4.76,9.96-4.76,2.92,0,5.78,1.02,8.06,2.86l170.34,137.8c5.49,4.44,6.34,12.53,1.9,18.02-2.44,3.02-6.08,4.75-9.96,4.75Z"/>
        <path class="cls-2" d="M15.32,16.78c2.28,0,4.57.75,6.48,2.3l118.9,96.19,51.44,41.61c4.42,3.58,5.11,10.07,1.53,14.5-2.04,2.52-5.02,3.82-8.02,3.82-2.28,0-4.57-.75-6.48-2.29l-62.21-50.33L8.83,35.1c-4.43-3.58-5.11-10.07-1.53-14.49,2.04-2.52,5.01-3.83,8.02-3.83M15.32,11.78c-4.64,0-8.98,2.07-11.91,5.68C.84,20.64-.34,24.63.09,28.69c.43,4.07,2.42,7.72,5.6,10.29l108.13,87.48,62.21,50.33c2.72,2.2,6.14,3.4,9.62,3.4,4.65,0,8.99-2.07,11.91-5.67,5.3-6.56,4.29-16.22-2.27-21.53l-51.44-41.61L24.94,15.19c-2.71-2.2-6.13-3.41-9.62-3.41h0Z"/>
      </g>
      <g>
        <path class="cls-6" d="M181.25,135.93c-2.92,0-5.77-1.01-8.04-2.85l-30.38-24.58-74.63-60.37c-5.49-4.44-6.34-12.52-1.9-18.02l18.49-22.86c2.44-3.02,6.07-4.75,9.96-4.75,2.92,0,5.78,1.01,8.05,2.85l105.01,84.95c5.49,4.44,6.34,12.52,1.9,18.02l-18.5,22.85c-2.44,3.02-6.08,4.76-9.97,4.76Z"/>
        <path class="cls-2" d="M94.75,5c2.28,0,4.57.75,6.48,2.3l81.94,66.29,23.07,18.66c4.42,3.58,5.11,10.07,1.53,14.5l-18.5,22.85c-2.04,2.52-5.02,3.83-8.02,3.83-2.27,0-4.56-.75-6.47-2.29l-30.38-24.58-74.63-60.37c-4.43-3.58-5.11-10.07-1.53-14.5l18.49-22.86c2.04-2.52,5.01-3.83,8.02-3.83M94.75,0h0c-4.65,0-8.99,2.07-11.91,5.68l-18.49,22.86c-2.57,3.18-3.75,7.17-3.32,11.24.43,4.07,2.42,7.73,5.6,10.3l74.63,60.37,30.38,24.58c2.71,2.2,6.12,3.4,9.61,3.4,4.65,0,8.99-2.07,11.91-5.69l18.5-22.85c5.31-6.56,4.29-16.22-2.27-21.53l-23.07-18.66L104.38,3.41c-2.72-2.2-6.14-3.41-9.63-3.41h0Z"/>
      </g>
      <g>
        <path class="cls-6" d="M368.8,744.12c-15.58,0-29.16-11.08-32.3-26.36l-41.49-202.43c-5.02-24.5-7.57-49.59-7.57-74.6v-238.91c0-1.38,1.12-2.5,2.5-2.5h155c1.38,0,2.5,1.12,2.5,2.5v240.95c0,23.65-2.28,47.41-6.77,70.6l-39.5,204.03c-1.44,7.49-5.48,14.3-11.38,19.17-5.9,4.87-13.35,7.54-20.99,7.54Z"/>
        <path class="cls-2" d="M444.94,201.82v240.95c0,23.54-2.25,47.03-6.72,70.13l-39.5,204.03c-1.38,7.17-5.22,13.34-10.52,17.72-5.31,4.38-12.1,6.97-19.4,6.97-14.47,0-26.94-10.18-29.85-24.36l-1.35-6.58-40.14-195.85c-5-24.38-7.52-49.21-7.52-74.1v-238.91h155M444.94,196.82h-155c-2.76,0-5,2.24-5,5v238.91c0,25.17,2.56,50.44,7.62,75.1l40.14,195.85,1.35,6.58c3.37,16.43,17.99,28.36,34.75,28.36,8.22,0,16.24-2.88,22.58-8.11,6.35-5.25,10.7-12.57,12.25-20.63l39.5-204.02c4.52-23.36,6.81-47.27,6.81-71.08v-240.95c0-2.76-2.24-5-5-5h0Z"/>
      </g>
      <path class="cls-1" d="M444.94,201.82v240.95c0,23.54-2.25,47.03-6.72,70.13l-39.5,204.03c-1.38,7.17-5.22,13.34-10.52,17.72-5.31,4.38-12.1,6.97-19.4,6.97-14.47,0-26.94-10.18-29.85-24.36l-1.35-6.58c5.69.46,11.7-.23,17.96-3.51,6.87-3.59,13.86-10.21,23.48-32.87,12.17-28.66,15.67-52.65,18.78-75.13,7.63-55.05,11.44-82.57,12.53-104.09.76-15,.79-24.27,0-78.26-.95-64.69,6.18-130-2.74-194.08-1.1-7.9-2.23-14.83-3.16-20.92h40.49Z"/>
      <path class="cls-5" d="M346.84,659.38l-3.78-1.71c-3.57-17.35-7.48-34.7-10.92-52.08-7.65-38.62-15.79-80.07-21.02-118.98-10.52-78.41,1.1-165.25-3.3-244.75,1.36-11.53,17.53-11.67,19.05,1,2.57,73.31-3.5,149.03-.06,222.06,1.59,33.84,6.55,70.94,10.05,104.95,3.06,29.85,7.1,59.64,9.99,89.5Z"/>
      <rect class="cls-4" x="391.27" y="248.13" width="49.89" height="6.07" rx="3.03" ry="3.03"/>
      <rect class="cls-4" x="391.27" y="335.26" width="49.89" height="6.07" rx="3.03" ry="3.03"/>
      <rect class="cls-4" x="391.27" y="416.33" width="49.89" height="6.07" rx="3.03" ry="3.03"/>
      <rect class="cls-4" x="386.57" y="486.84" width="49.89" height="6.07" rx="3.03" ry="3.03"/>
      <path class="cls-1" d="M464.99,185.51c0,2.84-1.15,5.42-3.02,7.29-1.86,1.87-4.44,3.02-7.29,3.02h-70.72c8.23-1.24,20.69-2.51,33.04-4.78,2.22-.41,7.27-1.41,10.56-5.53.5-.61,2.23-2.9,2.74-6.21.24-1.5.17-2.86-.1-4.1h24.48c5.7,0,10.31,4.62,10.31,10.31Z"/>
      <path class="cls-1" d="M207.78,106.75l-18.5,22.85c-3.58,4.43-10.07,5.12-14.49,1.54l-30.38-24.58c4.5.31,10.41-.08,16.54-2.78,12.91-5.68,18.02-17.74,19.57-21.39,1.33-3.14,2.16-6.08,2.66-8.8l23.07,18.66c4.42,3.58,5.11,10.07,1.53,14.5Z"/>
      <path class="cls-1" d="M193.67,171.38c-2.04,2.52-5.02,3.82-8.02,3.82-2.28,0-4.57-.75-6.48-2.29l-62.21-50.33c3.67.04,7.5-.36,11.45-1.39,6.1-1.59,9.35-3.84,12.29-5.92l51.44,41.61c4.42,3.58,5.11,10.07,1.53,14.5Z"/>
      <rect class="cls-3" x="67.26" y="24.34" width="32.87" height="5.87" rx="2.93" ry="2.93" transform="translate(8.85 73.61) rotate(-49.81)"/>
      <rect class="cls-3" x="21.41" y="35.34" width="15.85" height="5.87" rx="2.93" ry="2.93" transform="translate(-18.84 35.98) rotate(-49.81)"/>
      <path class="cls-3" d="M309.76,175.65h12.52,0c-2.2,6.4-2.2,13.31,0,19.71h0s-12.52,0-12.52,0h0c-2.2-6.4-2.2-13.31,0-19.71h0Z"/>
    </g>
  </g>
</svg>