<?xml version="1.0" encoding="UTF-8" standalone="no"?>
<svg
   id="Capa_2"
   data-name="Capa 2"
   viewBox="0 0 131.39 679.82"
   version="1.1"
   sodipodi:docname="15ml tube (empty).svg"
   inkscape:version="1.4.2 (ebf0e940, 2025-05-08)"
   xmlns:inkscape="http://www.inkscape.org/namespaces/inkscape"
   xmlns:sodipodi="http://sodipodi.sourceforge.net/DTD/sodipodi-0.dtd"
   xmlns="http://www.w3.org/2000/svg"
   xmlns:svg="http://www.w3.org/2000/svg">
  <sodipodi:namedview
     id="namedview44"
     pagecolor="#ffffff"
     bordercolor="#000000"
     borderopacity="0.25"
     inkscape:showpageshadow="2"
     inkscape:pageopacity="0.0"
     inkscape:pagecheckerboard="0"
     inkscape:deskcolor="#d1d1d1"
     inkscape:zoom="0.95873591"
     inkscape:cx="152.80538"
     inkscape:cy="313.95507"
     inkscape:window-width="1512"
     inkscape:window-height="945"
     inkscape:window-x="0"
     inkscape:window-y="37"
     inkscape:window-maximized="0"
     inkscape:current-layer="g44" />
  <defs
     id="defs1">
    <style
       id="style1">
      .cls-1 {
        fill: #bccbd2;
      }

      .cls-2 {
        fill: #214e7c;
      }

      .cls-3 {
        fill: #5c98ad;
      }

      .cls-4 {
        fill: #1f3c56;
      }

      .cls-5 {
        fill: #778592;
      }

      .cls-6 {
        fill: #679fb7;
      }

      .cls-7 {
        fill: #efefef;
      }

      .cls-8 {
        fill: #97a8af;
      }

      .cls-9 {
        fill: #2c5d98;
      }

      .cls-10 {
        fill: #81b6c9;
      }

      .cls-11 {
        fill: #abd3dd;
      }

      .cls-12 {
        fill: #eef2f6;
      }

      .cls-13 {
        opacity: .83;
      }

      .cls-14 {
        fill: #d6e1e5;
      }
    </style>
  </defs>
  <g
     id="Capa_1-2"
     data-name="Capa 1">
    <g
       id="g44">
      <g
         id="g2">
        <path
           class="cls-14"
           d="M64.98,677.86c-9.59,0-18.22-8.92-21.98-22.73l-19.5-71.67c-4.63-16.99-6.97-35.03-6.97-53.61V94.66c0-1.08.88-1.96,1.96-1.96h93.63c1.08,0,1.96.88,1.96,1.96v434.57c0,18.99-2.45,37.4-7.27,54.71l-19.93,71.5c-3.8,13.63-12.39,22.43-21.9,22.43Z"
           id="path1" />
        <path
           class="cls-5"
           d="M112.11,94.66v434.57c0,18.69-2.45,37.16-7.2,54.18l-19.93,71.5c-3.57,12.79-11.39,21-20.01,21s-16.57-8.35-20.09-21.29l-1.43-5.25-18.07-66.42c-4.55-16.72-6.9-34.81-6.9-53.1V94.66h93.63M112.11,90.74H18.48c-2.16,0-3.92,1.75-3.92,3.92v435.19c0,18.76,2.37,36.97,7.04,54.13l18.07,66.42,1.43,5.25c4,14.69,13.37,24.18,23.87,24.18s19.74-9.37,23.78-23.86l19.93-71.5c4.87-17.48,7.34-36.06,7.34-55.23V94.66c0-2.16-1.75-3.92-3.92-3.92h0Z"
           id="path2" />
      </g>
      <path
         class="cls-1"
         d="M112.11,94.65v215.62c0-2.27-6.4-4.3-16.49-5.67.04-36.56.03-74.84-.17-124.4-.16-38.72.04-45.54-.88-62.61-.5-9.38-1.07-16.88-1.59-22.94h19.13Z"
         id="path4" />
      <path
         class="cls-6"
         d="M112.11,310.27v218.95c0,18.69-2.45,37.16-7.2,54.18l-19.93,71.5c-3.57,12.79-11.39,21-20.01,21s-16.57-8.35-20.09-21.29l-1.43-5.25c2.93,1.44,6.19,2.19,9.73,1.71,1.84-.26,8.58-1.5,14.73-9.66,7.77-10.31,9.76-25.28,10.89-33.65,11.65-86.73,10.32-62,12.16-87.65,3.94-54.77,4.49-84.52,4.49-84.52,0-50.64.12-89.72.17-130.99,10.09,1.37,16.49,3.4,16.49,5.67Z"
         id="path5"
         style="fill:#bccbd2" />
      <rect
         class="cls-8"
         x="80.67"
         y="115.67"
         width="30.5"
         height="2.74"
         id="rect5" />
      <rect
         class="cls-8"
         x="97.09"
         y="137.39"
         width="14.08"
         height="2.74"
         id="rect6" />
      <rect
         class="cls-8"
         x="97.09"
         y="159.1"
         width="14.08"
         height="2.74"
         id="rect7" />
      <rect
         class="cls-8"
         x="79.71"
         y="179.89"
         width="30.5"
         height="2.74"
         id="rect8" />
      <rect
         class="cls-8"
         x="96.12"
         y="201.61"
         width="14.08"
         height="2.74"
         id="rect9" />
      <rect
         class="cls-8"
         x="96.12"
         y="223.33"
         width="14.08"
         height="2.74"
         id="rect10" />
      <rect
         class="cls-8"
         x="79.71"
         y="245.04"
         width="30.5"
         height="2.74"
         id="rect11" />
      <rect
         class="cls-8"
         x="96.12"
         y="266.76"
         width="14.08"
         height="2.74"
         id="rect12" />
      <rect
         class="cls-8"
         x="96.12"
         y="288.48"
         width="14.08"
         height="2.74"
         id="rect13" />
      <rect
         class="cls-8"
         x="78.75"
         y="309.27"
         width="30.5"
         height="2.74"
         id="rect14" />
      <rect
         class="cls-8"
         x="95.16"
         y="330.98"
         width="14.08"
         height="2.74"
         id="rect15" />
      <rect
         class="cls-8"
         x="95.16"
         y="352.7"
         width="14.08"
         height="2.74"
         id="rect16" />
      <rect
         class="cls-8"
         x="79.71"
         y="370.73"
         width="30.5"
         height="2.74"
         id="rect17" />
      <rect
         class="cls-8"
         x="96.12"
         y="392.45"
         width="14.08"
         height="2.74"
         id="rect18" />
      <rect
         class="cls-8"
         x="96.12"
         y="414.17"
         width="14.08"
         height="2.74"
         id="rect19" />
      <rect
         class="cls-8"
         x="78.75"
         y="434.96"
         width="30.5"
         height="2.74"
         id="rect20" />
      <rect
         class="cls-8"
         x="95.16"
         y="456.67"
         width="14.08"
         height="2.74"
         id="rect21" />
      <rect
         class="cls-8"
         x="95.16"
         y="478.39"
         width="14.08"
         height="2.74"
         id="rect22" />
      <rect
         class="cls-8"
         x="78.75"
         y="500.11"
         width="30.5"
         height="2.74"
         id="rect23" />
      <rect
         class="cls-8"
         x="95.16"
         y="521.83"
         width="14.08"
         height="2.74"
         id="rect24" />
      <rect
         class="cls-8"
         x="95.16"
         y="543.54"
         width="14.08"
         height="2.74"
         id="rect25" />
      <rect
         class="cls-8"
         x="77.78"
         y="564.33"
         width="30.5"
         height="2.74"
         id="rect26" />
      <rect
         class="cls-12"
         x="23.73"
         y="108.98"
         width="8.16"
         height="100.96"
         rx="4.08"
         ry="4.08"
         id="rect27" />
      <rect
         class="cls-12"
         x="23"
         y="472.94687"
         width="8.1599998"
         height="78.013115"
         rx="4.0799999"
         ry="3.1526694"
         id="rect27-6"
         style="fill:#eef2f6;stroke-width:0.879041" />
      <g
         id="g41">
        <g
           id="g28">
          <rect
             class="cls-9"
             x="2.06"
             y="71.49"
             width="127.27"
             height="18.88"
             rx="2.06"
             ry="2.06"
             id="rect28" />
          <path
             class="cls-4"
             d="M127.27,73.54v14.76H4.11v-14.76h123.16M127.27,69.43H4.11c-2.27,0-4.11,1.84-4.11,4.11v14.76c0,2.27,1.84,4.11,4.11,4.11h123.16c2.27,0,4.11-1.84,4.11-4.11v-14.76c0-2.27-1.84-4.11-4.11-4.11h0Z"
             id="path28" />
        </g>
        <g
           id="g30">
          <path
             class="cls-9"
             d="M4.11,69.6c-1.14,0-2.06-.92-2.06-2.06V25.37C2.06,12.52,12.52,2.06,25.37,2.06h80.64c12.86,0,23.32,10.46,23.32,23.32v42.17c0,1.14-.92,2.06-2.06,2.06H4.11Z"
             id="path29" />
          <path
             class="cls-4"
             d="M106.01,4.11c11.74,0,21.26,9.52,21.26,21.26v42.17H4.11V25.37C4.11,13.63,13.63,4.11,25.37,4.11h80.64M106.01,0H25.37C11.38,0,0,11.38,0,25.37v42.17c0,2.27,1.84,4.11,4.11,4.11h123.16c2.27,0,4.11-1.84,4.11-4.11V25.37c0-13.99-11.38-25.37-25.37-25.37h0Z"
             id="path30" />
        </g>
        <path
           class="cls-2"
           d="M16.7,8.4h0c-.64,0-1.17.52-1.17,1.17v57.98h2.33V9.56c0-.64-.52-1.17-1.17-1.17Z"
           id="path31" />
        <path
           class="cls-2"
           d="M26.59,8.4h0c-.64,0-1.17.52-1.17,1.17v57.98h2.33V9.56c0-.64-.52-1.17-1.17-1.17Z"
           id="path32" />
        <path
           class="cls-2"
           d="M36.47,8.4h0c-.64,0-1.17.52-1.17,1.17v57.98h2.33V9.56c0-.64-.52-1.17-1.17-1.17Z"
           id="path33" />
        <path
           class="cls-2"
           d="M46.36,8.4h0c-.64,0-1.17.52-1.17,1.17v57.98h2.33V9.56c0-.64-.52-1.17-1.17-1.17Z"
           id="path34" />
        <path
           class="cls-2"
           d="M56.24,8.03h0c-.64,0-1.17.52-1.17,1.17v57.98h2.33V9.19c0-.64-.52-1.17-1.17-1.17Z"
           id="path35" />
        <path
           class="cls-2"
           d="M66.12,8.03h0c-.64,0-1.17.52-1.17,1.17v57.98h2.33V9.19c0-.64-.52-1.17-1.17-1.17Z"
           id="path36" />
        <path
           class="cls-2"
           d="M76.01,8.03h0c-.64,0-1.17.52-1.17,1.17v57.98h2.33V9.19c0-.64-.52-1.17-1.17-1.17Z"
           id="path37" />
        <path
           class="cls-2"
           d="M85.89,8.03h0c-.64,0-1.17.52-1.17,1.17v57.98h2.33V9.19c0-.64-.52-1.17-1.17-1.17Z"
           id="path38" />
        <path
           class="cls-2"
           d="M95.78,8.4h0c-.64,0-1.17.52-1.17,1.17v57.98h2.33V9.56c0-.64-.52-1.17-1.17-1.17Z"
           id="path39" />
        <path
           class="cls-2"
           d="M105.66,8.4h0c-.64,0-1.17.52-1.17,1.17v57.98h2.33V9.56c0-.64-.52-1.17-1.17-1.17Z"
           id="path40" />
        <path
           class="cls-2"
           d="M115.54,8.4h0c-.64,0-1.17.52-1.17,1.17v57.98h2.33V9.56c0-.64-.52-1.17-1.17-1.17Z"
           id="path41" />
      </g>
      <g
         class="cls-13"
         id="g43">
        <path
           class="cls-7"
           d="M51.99,463.51H18.48v-247.04h33.51c7.35,0,13.3,5.96,13.3,13.3v220.43c0,7.35-5.96,13.3-13.3,13.3Z"
           id="path43" />
      </g>
    </g>
  </g>
</svg>
