<?xml version="1.0" encoding="UTF-8"?>
<svg id="Capa_2" data-name="Capa 2" xmlns="http://www.w3.org/2000/svg" viewBox="0 0 250.43 605.93">
  <defs>
    <style>
      .cls-1 {
        fill: #bccbd2;
      }

      .cls-2 {
        fill: #668791;
      }

      .cls-3 {
        fill: #5c98ad;
      }

      .cls-4 {
        fill: #778592;
      }

      .cls-5 {
        fill: #78b0c4;
      }

      .cls-6 {
        fill: #e9f1f4;
      }

      .cls-7 {
        fill: #679fb7;
      }

      .cls-8 {
        fill: #97a8af;
      }

      .cls-9 {
        fill: #81b6c9;
      }

      .cls-10 {
        fill: #abd3dd;
      }

      .cls-11 {
        fill: #eef2f6;
      }

      .cls-12 {
        fill: #d6e1e5;
      }
    </style>
  </defs>
  <g id="Capa_1-2" data-name="Capa 1">
    <g>
      <g>
        <path class="cls-12" d="M207.74,54c-.26,0-.51-.02-.75-.05-.78-.12-1.45-.63-1.75-1.36s-.21-1.56.26-2.2c.29-.4.63-.69.95-.92-.23-1.02-1.21-2.98-1.72-4-1.25-2.51-2-4.02-1.23-5.47.38-.72,1.08-1.2,1.9-1.31.19-.03,1.08-.25,1.8-.43,2.99-.74,4.36-1.05,5.13-1.05.05,0,.15,0,.2,0,1.2.08,2.46.12,3.86.12,2.21,0,4.48-.1,6.67-.19l1.49-.06c3.06-.12,3.9-1.86,4.46-5.24.04-.25.08-.48.12-.68.25-1.28.01-4.07-1.67-6.11-1.41-1.71-3.58-2.57-6.45-2.57-.25,0-.51,0-.77.02-.04,0-.13,0-.17,0-.15,0-16.4-1.23-18.28-2.81-.73-.61-1.04-1.69-.72-2.58.17-.46.75-1.54,2.44-1.54.48,0,1.14.07,2.06.16,1.32.14,3.13.32,4.79.32,1.08,0,1.82-.08,2.32-.18-.82-.49-1.9-1.07-2.67-1.48-3.34-1.78-5.18-2.76-5.32-4.65-.06-.88.34-1.73,1.07-2.27.71-.52,1.62-.75,5.19-.75,2.22,0,5.07.11,5.76.2,1.74.22,3.6.27,5.87.27h2.51c5.67,0,11.14.27,15.77,3.56,3.19,2.27,5.54,5.96,6.6,10.4,1,4.16.79,8.48.46,12.17-.44,4.87-1.6,8.48-3.65,11.39-4.04,5.72-10.95,8.5-21.12,8.5-1.72,0-3.55-.08-5.57-.24-1.1-.09-2.08-.17-3.03-.17s-1.76.08-2.51.25c-.32.07-.68.19-1.04.3-.98.3-2.09.65-3.24.65Z"/>
        <path class="cls-4" d="M210.94,8.98c2.36,0,4.99.12,5.47.18,1.96.25,4.04.29,6.16.29.83,0,1.67,0,2.5,0,5.14,0,10.33.21,14.47,3.14,2.98,2.12,4.86,5.53,5.71,9.09.9,3.74.75,7.64.4,11.44-.33,3.6-1.13,7.29-3.25,10.29-4.31,6.1-12.04,7.55-19.27,7.55-1.85,0-3.67-.1-5.39-.23-1.08-.09-2.15-.17-3.21-.17-1,0-2,.08-3.01.3-1.12.25-2.58.89-3.78.89-.14,0-.29,0-.42-.03.22-.3.55-.49.89-.68,2.44-1.42-4.09-9.9-2.51-10.11.7-.09,5.66-1.46,6.64-1.46.02,0,.04,0,.05,0,1.34.09,2.67.12,4.01.12,2.75,0,5.5-.14,8.25-.25,5.98-.24,6.31-5.72,6.7-7.74.62-3.18-.83-11.37-10.33-11.37-.29,0-.58,0-.88.02-.02,0-.04,0-.06,0-1.42,0-15.93-1.53-16.83-2.28-.13-.11-.02-.15.27-.15.98,0,4.03.48,6.84.48s5.59-.52,5.36-2.66c-.19-1.71-10.13-5.24-8.62-6.35.32-.24,2.01-.31,3.86-.31M210.94,4.47c-3.85,0-5.26.25-6.53,1.19-1.36,1-2.11,2.59-1.99,4.25.1,1.43.71,2.5,1.68,3.42-.22-.01-.42-.02-.61-.02-2.54,0-4.02,1.56-4.55,3.03-.66,1.82-.12,3.82,1.39,5.08,1.09.92,2,1.41,10.58,2.45,2.96.36,7.91.89,9.15.89.11,0,.21,0,.28,0,.23-.01.44-.02.66-.02,2.2,0,3.74.57,4.71,1.75,1.25,1.52,1.31,3.64,1.2,4.25-.04.22-.08.47-.13.74-.52,3.12-1,3.3-2.33,3.35l-1.49.06c-2.27.1-4.42.19-6.58.19-1.35,0-2.57-.04-3.72-.11-.1,0-.22-.01-.34-.01-1,0-2.3.28-5.67,1.11-.6.15-1.41.35-1.66.4-1.49.23-2.79,1.15-3.49,2.48-1.31,2.48-.2,4.71,1.21,7.53.31.62.78,1.57,1.13,2.37-.05.07-.11.14-.16.21-.93,1.27-1.13,2.95-.52,4.4s1.94,2.49,3.5,2.72c.35.05.71.08,1.08.08,1.49,0,2.83-.42,3.91-.75.33-.1.67-.21.87-.25.58-.13,1.22-.19,2.02-.19.86,0,1.8.07,2.79.15h.06c2.08.17,3.96.25,5.75.25,10.8,0,18.52-3.18,22.96-9.46,2.29-3.24,3.58-7.21,4.05-12.48.35-3.87.56-8.42-.51-12.9-1.19-4.97-3.85-9.13-7.49-11.71-5.17-3.67-11.27-3.98-17.08-3.98h-1.27s-1.23,0-1.23,0c-2.18,0-3.97-.04-5.58-.25-.86-.11-3.85-.22-6.04-.22h0Z"/>
      </g>
      <g>
        <path class="cls-12" d="M27.28,57.63c-7.06,0-12.81-5.75-12.81-12.81,0-3.42,1.33-6.64,3.75-9.06,2.41-2.42,5.62-3.75,9.06-3.75h173.46c7.06,0,12.81,5.75,12.81,12.81,0,3.42-1.33,6.64-3.75,9.06-2.4,2.42-5.62,3.75-9.06,3.75H27.28Z"/>
        <path class="cls-4" d="M200.74,34.51c5.7,0,10.31,4.62,10.31,10.31,0,2.84-1.15,5.42-3.02,7.29-1.86,1.87-4.44,3.02-7.29,3.02H27.28c-5.7,0-10.31-4.62-10.31-10.31,0-2.84,1.15-5.42,3.02-7.29,1.86-1.87,4.44-3.02,7.29-3.02h173.46M200.74,29.51H27.28c-4.1,0-7.95,1.6-10.84,4.49-2.88,2.88-4.48,6.73-4.48,10.82,0,8.44,6.87,15.31,15.31,15.31h173.46c4.1,0,7.95-1.6,10.84-4.49,2.88-2.88,4.47-6.73,4.47-10.82,0-8.44-6.87-15.31-15.31-15.31h0Z"/>
      </g>
      <g>
        <path class="cls-12" d="M114.86,603.43c-15.58,0-29.16-11.08-32.3-26.36l-41.49-202.43c-5.02-24.5-7.57-49.6-7.57-74.6V61.13c0-1.38,1.12-2.5,2.5-2.5h155c1.38,0,2.5,1.12,2.5,2.5v240.95c0,23.65-2.28,47.41-6.77,70.6l-39.5,204.03c-1.44,7.49-5.48,14.3-11.38,19.17-5.9,4.87-13.35,7.54-20.99,7.54Z"/>
        <path class="cls-4" d="M191,61.13v240.95c0,23.54-2.25,47.03-6.72,70.13l-39.5,204.03c-1.38,7.17-5.22,13.34-10.52,17.72-5.31,4.38-12.1,6.97-19.4,6.97-14.47,0-26.94-10.18-29.85-24.36l-1.35-6.58-40.14-195.85c-5-24.38-7.52-49.21-7.52-74.1V61.13h155M191,56.13H36c-2.76,0-5,2.24-5,5v238.91c0,25.18,2.56,50.44,7.62,75.1l40.14,195.85,1.35,6.58c3.37,16.43,17.99,28.36,34.75,28.36,8.22,0,16.24-2.88,22.58-8.11,6.35-5.25,10.7-12.57,12.25-20.63l39.5-204.02c4.52-23.36,6.81-47.27,6.81-71.08V61.13c0-2.76-2.24-5-5-5h0Z"/>
      </g>
      <path class="cls-9" d="M191,256.97v45.11c0,23.54-2.25,47.03-6.72,70.13l-39.5,204.03c-1.38,7.17-5.22,13.34-10.52,17.72-5.31,4.38-12.1,6.97-19.4,6.97-14.47,0-26.94-10.18-29.85-24.36l-1.35-6.58-40.14-195.85c-5-24.38-7.52-49.21-7.52-74.1v-43.07c0,3.15,34.7,5.71,77.5,5.71s77.5-2.56,77.5-5.71Z"/>
      <path class="cls-7" d="M191,256.97v45.11c0,23.54-2.25,47.03-6.72,70.13l-39.5,204.03c-1.38,7.17-5.22,13.34-10.52,17.72-5.31,4.38-12.1,6.97-19.4,6.97-14.47,0-26.94-10.18-29.85-24.36l-1.35-6.58c5.69.46,11.7-.23,17.96-3.51,6.87-3.59,13.86-10.21,23.48-32.87,12.17-28.66,15.67-52.65,18.78-75.13,7.63-55.05,11.44-82.57,12.53-104.09.76-15,.79-24.27,0-78.26-.07-4.8-.1-9.59-.08-14.4,20.9-1.03,34.67-2.78,34.67-4.76Z"/>
      <path class="cls-1" d="M191,61.13v195.84c0,1.98-13.77,3.73-34.67,4.76,0-3.17.02-6.35.05-9.53.59-56.83,5.11-113.96-2.71-170.15-1.1-7.9-2.23-14.83-3.16-20.92h40.49Z"/>
      <path class="cls-10" d="M92.9,518.69l-3.78-1.72c-3.56-17.35-7.48-34.7-10.92-52.07-7.65-38.62-15.79-80.07-21.02-118.98-3.71-27.66-4.67-56.36-4.53-85.42,5.37.51,11.85.94,19.17,1.28-.13,20.96.08,41.81,1.05,62.45,1.59,33.84,6.55,70.94,10.04,104.96,3.07,29.84,7.1,59.64,9.99,89.5Z"/>
      <path class="cls-11" d="M71.91,252.14c-7.34.35-13.83.78-19.21,1.28.5-51.07,3.91-103.07,1.18-152.25,1.37-11.53,17.54-11.67,19.05,1,1.73,49.42-.46,99.93-1.02,149.97Z"/>
      <rect class="cls-8" x="137.33" y="107.45" width="49.89" height="6.07" rx="3.03" ry="3.03"/>
      <rect class="cls-8" x="137.33" y="194.58" width="49.89" height="6.07" rx="3.03" ry="3.03"/>
      <rect class="cls-2" x="137.33" y="275.64" width="49.89" height="6.07" rx="3.03" ry="3.03"/>
      <rect class="cls-2" x="132.64" y="346.16" width="49.89" height="6.07" rx="3.03" ry="3.03"/>
      <path class="cls-1" d="M211.05,44.82c0,2.84-1.15,5.42-3.02,7.29-1.86,1.87-4.44,3.02-7.29,3.02h-70.72c8.23-1.24,20.69-2.51,33.04-4.78,2.22-.41,7.27-1.41,10.56-5.53.5-.61,2.23-2.9,2.74-6.21.24-1.5.17-2.86-.1-4.1h24.48c5.7,0,10.31,4.62,10.31,10.31Z"/>
      <path class="cls-6" d="M63.54,34.87h-12.52,0c2.2,6.4,2.2,13.31,0,19.71h0s12.52,0,12.52,0h0c2.2-6.4,2.2-13.31,0-19.71h0Z"/>
      <g>
        <g>
          <path class="cls-12" d="M13.85,27.68c-3.13,0-6.05-1.36-8.23-3.82-2.11-2.38-3.27-5.53-3.27-8.85,0-3.79,1.52-7.35,4.17-9.76,2.05-1.86,4.65-2.89,7.32-2.89l194.59.3c6.34.01,11.5,5.7,11.5,12.68,0,3.79-1.53,7.34-4.18,9.75-2.06,1.87-4.66,2.9-7.34,2.9,0,0-194.57-.31-194.57-.31Z"/>
          <path class="cls-4" d="M13.85,4.71s.02,0,.03,0l135.81.21,58.75.09c5.05.01,9.15,4.63,9.15,10.33,0,3.24-1.34,6.13-3.41,8.01-1.57,1.43-3.58,2.29-5.75,2.29l-71.06-.11-123.51-.2c-5.06,0-9.15-4.63-9.14-10.32,0-3.24,1.32-6.13,3.4-8.02,1.57-1.43,3.56-2.28,5.73-2.28M13.85,0c-3.25,0-6.42,1.24-8.9,3.5C1.81,6.36,0,10.55,0,15c0,3.9,1.37,7.6,3.86,10.42,2.63,2.97,6.18,4.61,9.99,4.61l123.51.2,71.06.11c3.27,0,6.44-1.25,8.93-3.51,3.14-2.86,4.95-7.04,4.95-11.49,0-8.28-6.21-15.02-13.85-15.04l-58.76-.09L13.88,0s-.03,0-.03,0h0Z"/>
        </g>
        <path class="cls-1" d="M217.58,15.34c0,3.24-1.34,6.13-3.41,8.01-1.57,1.43-3.58,2.29-5.75,2.29l-71.06-.11c2.56-2.27,4.98-4.99,7.13-8.27,3.33-5.07,4.31-8.86,5.18-12.32l58.75.09c5.05.01,9.15,4.63,9.15,10.33Z"/>
        <path class="cls-6" d="M32.49,10.01l-.19,9.97c-.03,1.62-1.22,2.9-2.66,2.87h0c-1.44-.04-2.58-1.38-2.55-3l.19-9.97c.03-1.62,1.22-2.9,2.66-2.87h0c1.44.04,2.58,1.38,2.55,3Z"/>
      </g>
      <path class="cls-3" d="M191,256.97c0,1.98-13.77,3.73-34.67,4.76-12.27.6-26.99.95-42.83.95s-29.64-.33-41.68-.9c-7.32-.34-13.8-.77-19.17-1.28-10.43-.97-16.65-2.2-16.65-3.53s6.24-2.57,16.7-3.55c5.38-.5,11.87-.93,19.21-1.28,12.02-.56,26.28-.89,41.59-.89s30.6.35,42.88.95c20.87,1.03,34.62,2.78,34.62,4.77Z"/>
      <path class="cls-5" d="M71.91,252.14c-.04,3.22-.07,6.43-.09,9.64-7.32-.34-13.8-.77-19.17-1.28,0-2.36.02-4.72.05-7.08,5.38-.5,11.87-.93,19.21-1.28Z"/>
    </g>
  </g>
</svg>