<?xml version="1.0" encoding="UTF-8"?>
<svg id="Capa_2" data-name="Capa 2" xmlns="http://www.w3.org/2000/svg" viewBox="0 0 644.78 466.35">
  <defs>
    <style>
      .cls-1 {
        fill: #eaf2f4;
      }

      .cls-2 {
        fill: #fff;
      }

      .cls-3 {
        fill: #99a4ad;
      }

      .cls-4 {
        fill: #f2f8f9;
      }

      .cls-5 {
        fill: #778592;
      }

      .cls-6 {
        fill: #b4c5d1;
      }

      .cls-7 {
        fill: #9bafbc;
      }

      .cls-8 {
        fill: #bccbd2;
        stroke: #789;
        stroke-miterlimit: 10;
        stroke-width: 3.04px;
      }

      .cls-9 {
        fill: #d6e1e5;
      }

      .cls-10 {
        fill: #5c5d5e;
      }
    </style>
  </defs>
  <g id="Capa_1-2" data-name="Capa 1">
    <g>
      <rect class="cls-8" x="1.52" y="1.52" width="641.74" height="463.3" rx="13.57" ry="13.57"/>
      <polygon class="cls-3" points="625.52 32.77 69.87 32.77 35.17 68.25 35.17 453.4 625.52 453.4 625.52 32.77"/>
      <g>
        <path class="cls-9" d="M25.26,444.26c-.83,0-1.5-.67-1.5-1.5V57.61c0-.39.15-.77.43-1.05L58.88,21.08c.28-.29.67-.45,1.07-.45h555.65c.83,0,1.5.67,1.5,1.5v420.64c0,.83-.67,1.5-1.5,1.5H25.26Z"/>
        <path class="cls-5" d="M615.61,22.13v420.64H25.26V57.61L59.96,22.13h555.65M615.61,19.13H59.96c-.81,0-1.58.33-2.14.9L23.11,55.51c-.55.56-.86,1.31-.86,2.1v385.16c0,1.66,1.34,3,3,3h590.35c1.66,0,3-1.34,3-3V22.13c0-1.66-1.34-3-3-3h0Z"/>
      </g>
      <polygon class="cls-1" points="391.17 22.13 25.26 331.22 25.26 57.61 59.96 22.13 391.17 22.13"/>
      <polygon class="cls-4" points="176.04 22.13 25.26 143.17 25.26 57.61 59.96 22.13 176.04 22.13"/>
      <g>
        <g>
          <g>
            <g>
              <path class="cls-2" d="M86.43,141.33c-23.36,0-42.37-19.01-42.37-42.37s19.01-42.37,42.37-42.37,42.37,19.01,42.37,42.37-19.01,42.37-42.37,42.37Z"/>
              <path class="cls-10" d="M86.43,57.09c23.12,0,41.87,18.75,41.87,41.87s-18.75,41.87-41.87,41.87-41.87-18.75-41.87-41.87,18.75-41.87,41.87-41.87M86.43,56.09c-23.64,0-42.87,19.23-42.87,42.87s19.23,42.87,42.87,42.87,42.87-19.23,42.87-42.87-19.23-42.87-42.87-42.87h0Z"/>
            </g>
            <g>
              <path class="cls-6" d="M86.44,132.85c-11.62,0-22.3-5.85-28.57-15.64-3.49-5.44-5.33-11.76-5.33-18.26,0-18.69,15.21-33.89,33.9-33.89,11.44,0,22.02,5.71,28.3,15.26,3.65,5.53,5.59,11.97,5.59,18.63,0,18.69-15.2,33.9-33.89,33.9Z"/>
              <path class="cls-10" d="M86.44,65.46c11.7,0,21.99,5.99,27.97,15.08,3.49,5.28,5.52,11.61,5.52,18.41,0,18.5-14.99,33.5-33.49,33.5-11.86,0-22.28-6.16-28.23-15.46-3.34-5.21-5.27-11.4-5.27-18.04,0-18.5,15-33.49,33.5-33.49M86.44,64.66c-18.91,0-34.3,15.38-34.3,34.29,0,6.58,1.87,12.96,5.4,18.47,6.34,9.91,17.15,15.83,28.9,15.83,18.91,0,34.29-15.39,34.29-34.3,0-6.74-1.95-13.26-5.65-18.85-6.36-9.67-17.07-15.44-28.64-15.44h0Z"/>
            </g>
          </g>
          <path class="cls-7" d="M119.93,98.95c0,18.5-14.99,33.5-33.49,33.5-11.86,0-22.28-6.16-28.23-15.46,3.24,2.76,7.68,6.28,14.32,7.82,14.44,3.35,26.97-5.52,28.12-6.36,1.9-1.38,9.47-7.2,12.97-17.7,2.38-7.15,2.08-14.11.79-20.21,3.49,5.28,5.52,11.61,5.52,18.41Z"/>
        </g>
        <g>
          <g>
            <g>
              <path class="cls-2" d="M179.43,141.33c-23.36,0-42.37-19.01-42.37-42.37s19.01-42.37,42.37-42.37,42.37,19.01,42.37,42.37-19.01,42.37-42.37,42.37Z"/>
              <path class="cls-10" d="M179.43,57.09c23.12,0,41.87,18.75,41.87,41.87s-18.75,41.87-41.87,41.87-41.87-18.75-41.87-41.87,18.75-41.87,41.87-41.87M179.43,56.09c-23.64,0-42.87,19.23-42.87,42.87s19.23,42.87,42.87,42.87,42.87-19.23,42.87-42.87-19.23-42.87-42.87-42.87h0Z"/>
            </g>
            <g>
              <path class="cls-6" d="M179.44,132.85c-11.62,0-22.3-5.85-28.57-15.64-3.49-5.44-5.33-11.76-5.33-18.26,0-18.69,15.21-33.89,33.9-33.89,11.44,0,22.02,5.71,28.3,15.26,3.65,5.53,5.59,11.97,5.59,18.63,0,18.69-15.2,33.9-33.89,33.9Z"/>
              <path class="cls-10" d="M179.44,65.46c11.7,0,21.99,5.99,27.97,15.08,3.49,5.28,5.52,11.61,5.52,18.41,0,18.5-14.99,33.5-33.49,33.5-11.86,0-22.28-6.16-28.23-15.46-3.34-5.21-5.27-11.4-5.27-18.04,0-18.5,15-33.49,33.5-33.49M179.44,64.66c-18.91,0-34.3,15.38-34.3,34.29,0,6.58,1.87,12.96,5.4,18.47,6.34,9.91,17.15,15.83,28.9,15.83,18.91,0,34.29-15.39,34.29-34.3,0-6.74-1.95-13.26-5.65-18.85-6.36-9.67-17.07-15.44-28.64-15.44h0Z"/>
            </g>
          </g>
          <path class="cls-7" d="M212.93,98.95c0,18.5-14.99,33.5-33.49,33.5-11.86,0-22.28-6.16-28.23-15.46,3.24,2.76,7.68,6.28,14.32,7.82,14.44,3.35,26.97-5.52,28.12-6.36,1.9-1.38,9.47-7.2,12.97-17.7,2.38-7.15,2.08-14.11.79-20.21,3.49,5.28,5.52,11.61,5.52,18.41Z"/>
        </g>
        <g>
          <g>
            <g>
              <path class="cls-2" d="M272.43,141.33c-23.36,0-42.37-19.01-42.37-42.37s19.01-42.37,42.37-42.37,42.37,19.01,42.37,42.37-19.01,42.37-42.37,42.37Z"/>
              <path class="cls-10" d="M272.43,57.09c23.12,0,41.87,18.75,41.87,41.87s-18.75,41.87-41.87,41.87-41.87-18.75-41.87-41.87,18.75-41.87,41.87-41.87M272.43,56.09c-23.64,0-42.87,19.23-42.87,42.87s19.23,42.87,42.87,42.87,42.87-19.23,42.87-42.87-19.23-42.87-42.87-42.87h0Z"/>
            </g>
            <g>
              <path class="cls-6" d="M272.44,132.85c-11.62,0-22.3-5.85-28.57-15.64-3.49-5.44-5.33-11.76-5.33-18.26,0-18.69,15.21-33.89,33.9-33.89,11.44,0,22.02,5.71,28.3,15.26,3.65,5.53,5.59,11.97,5.59,18.63,0,18.69-15.2,33.9-33.89,33.9Z"/>
              <path class="cls-10" d="M272.44,65.46c11.7,0,21.99,5.99,27.97,15.08,3.49,5.28,5.52,11.61,5.52,18.41,0,18.5-14.99,33.5-33.49,33.5-11.86,0-22.28-6.16-28.23-15.46-3.34-5.21-5.27-11.4-5.27-18.04,0-18.5,15-33.49,33.5-33.49M272.44,64.66c-18.91,0-34.3,15.38-34.3,34.29,0,6.58,1.87,12.96,5.4,18.47,6.34,9.91,17.15,15.83,28.9,15.83,18.91,0,34.29-15.39,34.29-34.3,0-6.74-1.95-13.26-5.65-18.85-6.36-9.67-17.07-15.44-28.64-15.44h0Z"/>
            </g>
          </g>
          <path class="cls-7" d="M305.93,98.95c0,18.5-14.99,33.5-33.49,33.5-11.86,0-22.28-6.16-28.23-15.46,3.24,2.76,7.68,6.28,14.32,7.82,14.44,3.35,26.97-5.52,28.12-6.36,1.9-1.38,9.47-7.2,12.97-17.7,2.38-7.15,2.08-14.11.79-20.21,3.49,5.28,5.52,11.61,5.52,18.41Z"/>
        </g>
        <g>
          <g>
            <g>
              <path class="cls-2" d="M365.43,141.33c-23.36,0-42.37-19.01-42.37-42.37s19.01-42.37,42.37-42.37,42.37,19.01,42.37,42.37-19.01,42.37-42.37,42.37Z"/>
              <path class="cls-10" d="M365.43,57.09c23.12,0,41.87,18.75,41.87,41.87s-18.75,41.87-41.87,41.87-41.87-18.75-41.87-41.87,18.75-41.87,41.87-41.87M365.43,56.09c-23.64,0-42.87,19.23-42.87,42.87s19.23,42.87,42.87,42.87,42.87-19.23,42.87-42.87-19.23-42.87-42.87-42.87h0Z"/>
            </g>
            <g>
              <path class="cls-6" d="M365.44,132.85c-11.62,0-22.3-5.85-28.57-15.64-3.49-5.44-5.33-11.76-5.33-18.26,0-18.69,15.21-33.89,33.9-33.89,11.44,0,22.02,5.71,28.3,15.26,3.65,5.53,5.59,11.97,5.59,18.63,0,18.69-15.2,33.9-33.89,33.9Z"/>
              <path class="cls-10" d="M365.44,65.46c11.7,0,21.99,5.99,27.97,15.08,3.49,5.28,5.52,11.61,5.52,18.41,0,18.5-14.99,33.5-33.49,33.5-11.86,0-22.28-6.16-28.23-15.46-3.34-5.21-5.27-11.4-5.27-18.04,0-18.5,15-33.49,33.5-33.49M365.44,64.66c-18.91,0-34.3,15.38-34.3,34.29,0,6.58,1.87,12.96,5.4,18.47,6.34,9.91,17.15,15.83,28.9,15.83,18.91,0,34.29-15.39,34.29-34.3,0-6.74-1.95-13.26-5.65-18.85-6.36-9.67-17.07-15.44-28.64-15.44h0Z"/>
            </g>
          </g>
          <path class="cls-7" d="M398.93,98.95c0,18.5-14.99,33.5-33.49,33.5-11.86,0-22.28-6.16-28.23-15.46,3.24,2.76,7.68,6.28,14.32,7.82,14.44,3.35,26.97-5.52,28.12-6.36,1.9-1.38,9.47-7.2,12.97-17.7,2.38-7.15,2.08-14.11.79-20.21,3.49,5.28,5.52,11.61,5.52,18.41Z"/>
        </g>
        <g>
          <g>
            <g>
              <path class="cls-2" d="M458.43,141.33c-23.36,0-42.37-19.01-42.37-42.37s19.01-42.37,42.37-42.37,42.37,19.01,42.37,42.37-19.01,42.37-42.37,42.37Z"/>
              <path class="cls-10" d="M458.43,57.09c23.12,0,41.87,18.75,41.87,41.87s-18.75,41.87-41.87,41.87-41.87-18.75-41.87-41.87,18.75-41.87,41.87-41.87M458.43,56.09c-23.64,0-42.87,19.23-42.87,42.87s19.23,42.87,42.87,42.87,42.87-19.23,42.87-42.87-19.23-42.87-42.87-42.87h0Z"/>
            </g>
            <g>
              <path class="cls-6" d="M458.44,132.85c-11.62,0-22.3-5.85-28.57-15.64-3.49-5.44-5.33-11.76-5.33-18.26,0-18.69,15.21-33.89,33.9-33.89,11.44,0,22.02,5.71,28.3,15.26,3.65,5.53,5.59,11.97,5.59,18.63,0,18.69-15.2,33.9-33.89,33.9Z"/>
              <path class="cls-10" d="M458.44,65.46c11.7,0,21.99,5.99,27.97,15.08,3.49,5.28,5.52,11.61,5.52,18.41,0,18.5-14.99,33.5-33.49,33.5-11.86,0-22.28-6.16-28.23-15.46-3.34-5.21-5.27-11.4-5.27-18.04,0-18.5,15-33.49,33.5-33.49M458.44,64.66c-18.91,0-34.3,15.38-34.3,34.29,0,6.58,1.87,12.96,5.4,18.47,6.34,9.91,17.15,15.83,28.9,15.83,18.91,0,34.29-15.39,34.29-34.3,0-6.74-1.95-13.26-5.65-18.85-6.36-9.67-17.07-15.44-28.64-15.44h0Z"/>
            </g>
          </g>
          <path class="cls-7" d="M491.93,98.95c0,18.5-14.99,33.5-33.49,33.5-11.86,0-22.28-6.16-28.23-15.46,3.24,2.76,7.68,6.28,14.32,7.82,14.44,3.35,26.97-5.52,28.12-6.36,1.9-1.38,9.47-7.2,12.97-17.7,2.38-7.15,2.08-14.11.79-20.21,3.49,5.28,5.52,11.61,5.52,18.41Z"/>
        </g>
        <g>
          <g>
            <g>
              <path class="cls-2" d="M551.43,141.33c-23.36,0-42.37-19.01-42.37-42.37s19.01-42.37,42.37-42.37,42.37,19.01,42.37,42.37-19.01,42.37-42.37,42.37Z"/>
              <path class="cls-10" d="M551.43,57.09c23.12,0,41.87,18.75,41.87,41.87s-18.75,41.87-41.87,41.87-41.87-18.75-41.87-41.87,18.75-41.87,41.87-41.87M551.43,56.09c-23.64,0-42.87,19.23-42.87,42.87s19.23,42.87,42.87,42.87,42.87-19.23,42.87-42.87-19.23-42.87-42.87-42.87h0Z"/>
            </g>
            <g>
              <path class="cls-6" d="M551.44,132.85c-11.62,0-22.3-5.85-28.57-15.64-3.49-5.44-5.33-11.76-5.33-18.26,0-18.69,15.21-33.89,33.9-33.89,11.44,0,22.02,5.71,28.3,15.26,3.65,5.53,5.59,11.97,5.59,18.63,0,18.69-15.2,33.9-33.89,33.9Z"/>
              <path class="cls-10" d="M551.44,65.46c11.7,0,21.99,5.99,27.97,15.08,3.49,5.28,5.52,11.61,5.52,18.41,0,18.5-14.99,33.5-33.49,33.5-11.86,0-22.28-6.16-28.23-15.46-3.34-5.21-5.27-11.4-5.27-18.04,0-18.5,15-33.49,33.5-33.49M551.44,64.66c-18.91,0-34.3,15.38-34.3,34.29,0,6.58,1.87,12.96,5.4,18.47,6.34,9.91,17.15,15.83,28.9,15.83,18.91,0,34.29-15.39,34.29-34.3,0-6.74-1.95-13.26-5.65-18.85-6.36-9.67-17.07-15.44-28.64-15.44h0Z"/>
            </g>
          </g>
          <path class="cls-7" d="M584.93,98.95c0,18.5-14.99,33.5-33.49,33.5-11.86,0-22.28-6.16-28.23-15.46,3.24,2.76,7.68,6.28,14.32,7.82,14.44,3.35,26.97-5.52,28.12-6.36,1.9-1.38,9.47-7.2,12.97-17.7,2.38-7.15,2.08-14.11.79-20.21,3.49,5.28,5.52,11.61,5.52,18.41Z"/>
        </g>
      </g>
      <g>
        <g>
          <g>
            <g>
              <path class="cls-2" d="M86.43,234.33c-23.36,0-42.37-19.01-42.37-42.37s19.01-42.37,42.37-42.37,42.37,19.01,42.37,42.37-19.01,42.37-42.37,42.37Z"/>
              <path class="cls-10" d="M86.43,150.09c23.12,0,41.87,18.75,41.87,41.87s-18.75,41.87-41.87,41.87-41.87-18.75-41.87-41.87,18.75-41.87,41.87-41.87M86.43,149.09c-23.64,0-42.87,19.23-42.87,42.87s19.23,42.87,42.87,42.87,42.87-19.23,42.87-42.87-19.23-42.87-42.87-42.87h0Z"/>
            </g>
            <g>
              <path class="cls-6" d="M86.44,225.85c-11.62,0-22.3-5.85-28.57-15.64-3.49-5.44-5.33-11.76-5.33-18.26,0-18.69,15.21-33.89,33.9-33.89,11.44,0,22.02,5.71,28.3,15.26,3.65,5.53,5.59,11.97,5.59,18.63,0,18.69-15.2,33.9-33.89,33.9Z"/>
              <path class="cls-10" d="M86.44,158.46c11.7,0,21.99,5.99,27.97,15.08,3.49,5.28,5.52,11.61,5.52,18.41,0,18.5-14.99,33.5-33.49,33.5-11.86,0-22.28-6.16-28.23-15.46-3.34-5.21-5.27-11.4-5.27-18.04,0-18.5,15-33.49,33.5-33.49M86.44,157.66c-18.91,0-34.3,15.38-34.3,34.29,0,6.58,1.87,12.96,5.4,18.47,6.34,9.91,17.15,15.83,28.9,15.83,18.91,0,34.29-15.39,34.29-34.3,0-6.74-1.95-13.26-5.65-18.85-6.36-9.67-17.07-15.44-28.64-15.44h0Z"/>
            </g>
          </g>
          <path class="cls-7" d="M119.93,191.95c0,18.5-14.99,33.5-33.49,33.5-11.86,0-22.28-6.16-28.23-15.46,3.24,2.76,7.68,6.28,14.32,7.82,14.44,3.35,26.97-5.52,28.12-6.36,1.9-1.38,9.47-7.2,12.97-17.7,2.38-7.15,2.08-14.11.79-20.21,3.49,5.28,5.52,11.61,5.52,18.41Z"/>
        </g>
        <g>
          <g>
            <g>
              <path class="cls-2" d="M179.43,234.33c-23.36,0-42.37-19.01-42.37-42.37s19.01-42.37,42.37-42.37,42.37,19.01,42.37,42.37-19.01,42.37-42.37,42.37Z"/>
              <path class="cls-10" d="M179.43,150.09c23.12,0,41.87,18.75,41.87,41.87s-18.75,41.87-41.87,41.87-41.87-18.75-41.87-41.87,18.75-41.87,41.87-41.87M179.43,149.09c-23.64,0-42.87,19.23-42.87,42.87s19.23,42.87,42.87,42.87,42.87-19.23,42.87-42.87-19.23-42.87-42.87-42.87h0Z"/>
            </g>
            <g>
              <path class="cls-6" d="M179.44,225.85c-11.62,0-22.3-5.85-28.57-15.64-3.49-5.44-5.33-11.76-5.33-18.26,0-18.69,15.21-33.89,33.9-33.89,11.44,0,22.02,5.71,28.3,15.26,3.65,5.53,5.59,11.97,5.59,18.63,0,18.69-15.2,33.9-33.89,33.9Z"/>
              <path class="cls-10" d="M179.44,158.46c11.7,0,21.99,5.99,27.97,15.08,3.49,5.28,5.52,11.61,5.52,18.41,0,18.5-14.99,33.5-33.49,33.5-11.86,0-22.28-6.16-28.23-15.46-3.34-5.21-5.27-11.4-5.27-18.04,0-18.5,15-33.49,33.5-33.49M179.44,157.66c-18.91,0-34.3,15.38-34.3,34.29,0,6.58,1.87,12.96,5.4,18.47,6.34,9.91,17.15,15.83,28.9,15.83,18.91,0,34.29-15.39,34.29-34.3,0-6.74-1.95-13.26-5.65-18.85-6.36-9.67-17.07-15.44-28.64-15.44h0Z"/>
            </g>
          </g>
          <path class="cls-7" d="M212.93,191.95c0,18.5-14.99,33.5-33.49,33.5-11.86,0-22.28-6.16-28.23-15.46,3.24,2.76,7.68,6.28,14.32,7.82,14.44,3.35,26.97-5.52,28.12-6.36,1.9-1.38,9.47-7.2,12.97-17.7,2.38-7.15,2.08-14.11.79-20.21,3.49,5.28,5.52,11.61,5.52,18.41Z"/>
        </g>
        <g>
          <g>
            <g>
              <path class="cls-2" d="M272.43,234.33c-23.36,0-42.37-19.01-42.37-42.37s19.01-42.37,42.37-42.37,42.37,19.01,42.37,42.37-19.01,42.37-42.37,42.37Z"/>
              <path class="cls-10" d="M272.43,150.09c23.12,0,41.87,18.75,41.87,41.87s-18.75,41.87-41.87,41.87-41.87-18.75-41.87-41.87,18.75-41.87,41.87-41.87M272.43,149.09c-23.64,0-42.87,19.23-42.87,42.87s19.23,42.87,42.87,42.87,42.87-19.23,42.87-42.87-19.23-42.87-42.87-42.87h0Z"/>
            </g>
            <g>
              <path class="cls-6" d="M272.44,225.85c-11.62,0-22.3-5.85-28.57-15.64-3.49-5.44-5.33-11.76-5.33-18.26,0-18.69,15.21-33.89,33.9-33.89,11.44,0,22.02,5.71,28.3,15.26,3.65,5.53,5.59,11.97,5.59,18.63,0,18.69-15.2,33.9-33.89,33.9Z"/>
              <path class="cls-10" d="M272.44,158.46c11.7,0,21.99,5.99,27.97,15.08,3.49,5.28,5.52,11.61,5.52,18.41,0,18.5-14.99,33.5-33.49,33.5-11.86,0-22.28-6.16-28.23-15.46-3.34-5.21-5.27-11.4-5.27-18.04,0-18.5,15-33.49,33.5-33.49M272.44,157.66c-18.91,0-34.3,15.38-34.3,34.29,0,6.58,1.87,12.96,5.4,18.47,6.34,9.91,17.15,15.83,28.9,15.83,18.91,0,34.29-15.39,34.29-34.3,0-6.74-1.95-13.26-5.65-18.85-6.36-9.67-17.07-15.44-28.64-15.44h0Z"/>
            </g>
          </g>
          <path class="cls-7" d="M305.93,191.95c0,18.5-14.99,33.5-33.49,33.5-11.86,0-22.28-6.16-28.23-15.46,3.24,2.76,7.68,6.28,14.32,7.82,14.44,3.35,26.97-5.52,28.12-6.36,1.9-1.38,9.47-7.2,12.97-17.7,2.38-7.15,2.08-14.11.79-20.21,3.49,5.28,5.52,11.61,5.52,18.41Z"/>
        </g>
        <g>
          <g>
            <g>
              <path class="cls-2" d="M365.43,234.33c-23.36,0-42.37-19.01-42.37-42.37s19.01-42.37,42.37-42.37,42.37,19.01,42.37,42.37-19.01,42.37-42.37,42.37Z"/>
              <path class="cls-10" d="M365.43,150.09c23.12,0,41.87,18.75,41.87,41.87s-18.75,41.87-41.87,41.87-41.87-18.75-41.87-41.87,18.75-41.87,41.87-41.87M365.43,149.09c-23.64,0-42.87,19.23-42.87,42.87s19.23,42.87,42.87,42.87,42.87-19.23,42.87-42.87-19.23-42.87-42.87-42.87h0Z"/>
            </g>
            <g>
              <path class="cls-6" d="M365.44,225.85c-11.62,0-22.3-5.85-28.57-15.64-3.49-5.44-5.33-11.76-5.33-18.26,0-18.69,15.21-33.89,33.9-33.89,11.44,0,22.02,5.71,28.3,15.26,3.65,5.53,5.59,11.97,5.59,18.63,0,18.69-15.2,33.9-33.89,33.9Z"/>
              <path class="cls-10" d="M365.44,158.46c11.7,0,21.99,5.99,27.97,15.08,3.49,5.28,5.52,11.61,5.52,18.41,0,18.5-14.99,33.5-33.49,33.5-11.86,0-22.28-6.16-28.23-15.46-3.34-5.21-5.27-11.4-5.27-18.04,0-18.5,15-33.49,33.5-33.49M365.44,157.66c-18.91,0-34.3,15.38-34.3,34.29,0,6.58,1.87,12.96,5.4,18.47,6.34,9.91,17.15,15.83,28.9,15.83,18.91,0,34.29-15.39,34.29-34.3,0-6.74-1.95-13.26-5.65-18.85-6.36-9.67-17.07-15.44-28.64-15.44h0Z"/>
            </g>
          </g>
          <path class="cls-7" d="M398.93,191.95c0,18.5-14.99,33.5-33.49,33.5-11.86,0-22.28-6.16-28.23-15.46,3.24,2.76,7.68,6.28,14.32,7.82,14.44,3.35,26.97-5.52,28.12-6.36,1.9-1.38,9.47-7.2,12.97-17.7,2.38-7.15,2.08-14.11.79-20.21,3.49,5.28,5.52,11.61,5.52,18.41Z"/>
        </g>
        <g>
          <g>
            <g>
              <path class="cls-2" d="M458.43,234.33c-23.36,0-42.37-19.01-42.37-42.37s19.01-42.37,42.37-42.37,42.37,19.01,42.37,42.37-19.01,42.37-42.37,42.37Z"/>
              <path class="cls-10" d="M458.43,150.09c23.12,0,41.87,18.75,41.87,41.87s-18.75,41.87-41.87,41.87-41.87-18.75-41.87-41.87,18.75-41.87,41.87-41.87M458.43,149.09c-23.64,0-42.87,19.23-42.87,42.87s19.23,42.87,42.87,42.87,42.87-19.23,42.87-42.87-19.23-42.87-42.87-42.87h0Z"/>
            </g>
            <g>
              <path class="cls-6" d="M458.44,225.85c-11.62,0-22.3-5.85-28.57-15.64-3.49-5.44-5.33-11.76-5.33-18.26,0-18.69,15.21-33.89,33.9-33.89,11.44,0,22.02,5.71,28.3,15.26,3.65,5.53,5.59,11.97,5.59,18.63,0,18.69-15.2,33.9-33.89,33.9Z"/>
              <path class="cls-10" d="M458.44,158.46c11.7,0,21.99,5.99,27.97,15.08,3.49,5.28,5.52,11.61,5.52,18.41,0,18.5-14.99,33.5-33.49,33.5-11.86,0-22.28-6.16-28.23-15.46-3.34-5.21-5.27-11.4-5.27-18.04,0-18.5,15-33.49,33.5-33.49M458.44,157.66c-18.91,0-34.3,15.38-34.3,34.29,0,6.58,1.87,12.96,5.4,18.47,6.34,9.91,17.15,15.83,28.9,15.83,18.91,0,34.29-15.39,34.29-34.3,0-6.74-1.95-13.26-5.65-18.85-6.36-9.67-17.07-15.44-28.64-15.44h0Z"/>
            </g>
          </g>
          <path class="cls-7" d="M491.93,191.95c0,18.5-14.99,33.5-33.49,33.5-11.86,0-22.28-6.16-28.23-15.46,3.24,2.76,7.68,6.28,14.32,7.82,14.44,3.35,26.97-5.52,28.12-6.36,1.9-1.38,9.47-7.2,12.97-17.7,2.38-7.15,2.08-14.11.79-20.21,3.49,5.28,5.52,11.61,5.52,18.41Z"/>
        </g>
        <g>
          <g>
            <g>
              <path class="cls-2" d="M551.43,234.33c-23.36,0-42.37-19.01-42.37-42.37s19.01-42.37,42.37-42.37,42.37,19.01,42.37,42.37-19.01,42.37-42.37,42.37Z"/>
              <path class="cls-10" d="M551.43,150.09c23.12,0,41.87,18.75,41.87,41.87s-18.75,41.87-41.87,41.87-41.87-18.75-41.87-41.87,18.75-41.87,41.87-41.87M551.43,149.09c-23.64,0-42.87,19.23-42.87,42.87s19.23,42.87,42.87,42.87,42.87-19.23,42.87-42.87-19.23-42.87-42.87-42.87h0Z"/>
            </g>
            <g>
              <path class="cls-6" d="M551.44,225.85c-11.62,0-22.3-5.85-28.57-15.64-3.49-5.44-5.33-11.76-5.33-18.26,0-18.69,15.21-33.89,33.9-33.89,11.44,0,22.02,5.71,28.3,15.26,3.65,5.53,5.59,11.97,5.59,18.63,0,18.69-15.2,33.9-33.89,33.9Z"/>
              <path class="cls-10" d="M551.44,158.46c11.7,0,21.99,5.99,27.97,15.08,3.49,5.28,5.52,11.61,5.52,18.41,0,18.5-14.99,33.5-33.49,33.5-11.86,0-22.28-6.16-28.23-15.46-3.34-5.21-5.27-11.4-5.27-18.04,0-18.5,15-33.49,33.5-33.49M551.44,157.66c-18.91,0-34.3,15.38-34.3,34.29,0,6.58,1.87,12.96,5.4,18.47,6.34,9.91,17.15,15.83,28.9,15.83,18.91,0,34.29-15.39,34.29-34.3,0-6.74-1.95-13.26-5.65-18.85-6.36-9.67-17.07-15.44-28.64-15.44h0Z"/>
            </g>
          </g>
          <path class="cls-7" d="M584.93,191.95c0,18.5-14.99,33.5-33.49,33.5-11.86,0-22.28-6.16-28.23-15.46,3.24,2.76,7.68,6.28,14.32,7.82,14.44,3.35,26.97-5.52,28.12-6.36,1.9-1.38,9.47-7.2,12.97-17.7,2.38-7.15,2.08-14.11.79-20.21,3.49,5.28,5.52,11.61,5.52,18.41Z"/>
        </g>
      </g>
      <g>
        <g>
          <g>
            <g>
              <path class="cls-2" d="M86.43,327.33c-23.36,0-42.37-19.01-42.37-42.37s19.01-42.37,42.37-42.37,42.37,19.01,42.37,42.37-19.01,42.37-42.37,42.37Z"/>
              <path class="cls-10" d="M86.43,243.09c23.12,0,41.87,18.75,41.87,41.87s-18.75,41.87-41.87,41.87-41.87-18.75-41.87-41.87,18.75-41.87,41.87-41.87M86.43,242.09c-23.64,0-42.87,19.23-42.87,42.87s19.23,42.87,42.87,42.87,42.87-19.23,42.87-42.87-19.23-42.87-42.87-42.87h0Z"/>
            </g>
            <g>
              <path class="cls-6" d="M86.44,318.85c-11.62,0-22.3-5.85-28.57-15.64-3.49-5.44-5.33-11.76-5.33-18.26,0-18.69,15.21-33.89,33.9-33.89,11.44,0,22.02,5.71,28.3,15.26,3.65,5.53,5.59,11.97,5.59,18.63,0,18.69-15.2,33.9-33.89,33.9Z"/>
              <path class="cls-10" d="M86.44,251.46c11.7,0,21.99,5.99,27.97,15.08,3.49,5.28,5.52,11.61,5.52,18.41,0,18.5-14.99,33.5-33.49,33.5-11.86,0-22.28-6.16-28.23-15.46-3.34-5.21-5.27-11.4-5.27-18.04,0-18.5,15-33.49,33.5-33.49M86.44,250.66c-18.91,0-34.3,15.38-34.3,34.29,0,6.58,1.87,12.96,5.4,18.47,6.34,9.91,17.15,15.83,28.9,15.83,18.91,0,34.29-15.39,34.29-34.3,0-6.74-1.95-13.26-5.65-18.85-6.36-9.67-17.07-15.44-28.64-15.44h0Z"/>
            </g>
          </g>
          <path class="cls-7" d="M119.93,284.95c0,18.5-14.99,33.5-33.49,33.5-11.86,0-22.28-6.16-28.23-15.46,3.24,2.76,7.68,6.28,14.32,7.82,14.44,3.35,26.97-5.52,28.12-6.36,1.9-1.38,9.47-7.2,12.97-17.7,2.38-7.15,2.08-14.11.79-20.21,3.49,5.28,5.52,11.61,5.52,18.41Z"/>
        </g>
        <g>
          <g>
            <g>
              <path class="cls-2" d="M179.43,327.33c-23.36,0-42.37-19.01-42.37-42.37s19.01-42.37,42.37-42.37,42.37,19.01,42.37,42.37-19.01,42.37-42.37,42.37Z"/>
              <path class="cls-10" d="M179.43,243.09c23.12,0,41.87,18.75,41.87,41.87s-18.75,41.87-41.87,41.87-41.87-18.75-41.87-41.87,18.75-41.87,41.87-41.87M179.43,242.09c-23.64,0-42.87,19.23-42.87,42.87s19.23,42.87,42.87,42.87,42.87-19.23,42.87-42.87-19.23-42.87-42.87-42.87h0Z"/>
            </g>
            <g>
              <path class="cls-6" d="M179.44,318.85c-11.62,0-22.3-5.85-28.57-15.64-3.49-5.44-5.33-11.76-5.33-18.26,0-18.69,15.21-33.89,33.9-33.89,11.44,0,22.02,5.71,28.3,15.26,3.65,5.53,5.59,11.97,5.59,18.63,0,18.69-15.2,33.9-33.89,33.9Z"/>
              <path class="cls-10" d="M179.44,251.46c11.7,0,21.99,5.99,27.97,15.08,3.49,5.28,5.52,11.61,5.52,18.41,0,18.5-14.99,33.5-33.49,33.5-11.86,0-22.28-6.16-28.23-15.46-3.34-5.21-5.27-11.4-5.27-18.04,0-18.5,15-33.49,33.5-33.49M179.44,250.66c-18.91,0-34.3,15.38-34.3,34.29,0,6.58,1.87,12.96,5.4,18.47,6.34,9.91,17.15,15.83,28.9,15.83,18.91,0,34.29-15.39,34.29-34.3,0-6.74-1.95-13.26-5.65-18.85-6.36-9.67-17.07-15.44-28.64-15.44h0Z"/>
            </g>
          </g>
          <path class="cls-7" d="M212.93,284.95c0,18.5-14.99,33.5-33.49,33.5-11.86,0-22.28-6.16-28.23-15.46,3.24,2.76,7.68,6.28,14.32,7.82,14.44,3.35,26.97-5.52,28.12-6.36,1.9-1.38,9.47-7.2,12.97-17.7,2.38-7.15,2.08-14.11.79-20.21,3.49,5.28,5.52,11.61,5.52,18.41Z"/>
        </g>
        <g>
          <g>
            <g>
              <path class="cls-2" d="M272.43,327.33c-23.36,0-42.37-19.01-42.37-42.37s19.01-42.37,42.37-42.37,42.37,19.01,42.37,42.37-19.01,42.37-42.37,42.37Z"/>
              <path class="cls-10" d="M272.43,243.09c23.12,0,41.87,18.75,41.87,41.87s-18.75,41.87-41.87,41.87-41.87-18.75-41.87-41.87,18.75-41.87,41.87-41.87M272.43,242.09c-23.64,0-42.87,19.23-42.87,42.87s19.23,42.87,42.87,42.87,42.87-19.23,42.87-42.87-19.23-42.87-42.87-42.87h0Z"/>
            </g>
            <g>
              <path class="cls-6" d="M272.44,318.85c-11.62,0-22.3-5.85-28.57-15.64-3.49-5.44-5.33-11.76-5.33-18.26,0-18.69,15.21-33.89,33.9-33.89,11.44,0,22.02,5.71,28.3,15.26,3.65,5.53,5.59,11.97,5.59,18.63,0,18.69-15.2,33.9-33.89,33.9Z"/>
              <path class="cls-10" d="M272.44,251.46c11.7,0,21.99,5.99,27.97,15.08,3.49,5.28,5.52,11.61,5.52,18.41,0,18.5-14.99,33.5-33.49,33.5-11.86,0-22.28-6.16-28.23-15.46-3.34-5.21-5.27-11.4-5.27-18.04,0-18.5,15-33.49,33.5-33.49M272.44,250.66c-18.91,0-34.3,15.38-34.3,34.29,0,6.58,1.87,12.96,5.4,18.47,6.34,9.91,17.15,15.83,28.9,15.83,18.91,0,34.29-15.39,34.29-34.3,0-6.74-1.95-13.26-5.65-18.85-6.36-9.67-17.07-15.44-28.64-15.44h0Z"/>
            </g>
          </g>
          <path class="cls-7" d="M305.93,284.95c0,18.5-14.99,33.5-33.49,33.5-11.86,0-22.28-6.16-28.23-15.46,3.24,2.76,7.68,6.28,14.32,7.82,14.44,3.35,26.97-5.52,28.12-6.36,1.9-1.38,9.47-7.2,12.97-17.7,2.38-7.15,2.08-14.11.79-20.21,3.49,5.28,5.52,11.61,5.52,18.41Z"/>
        </g>
        <g>
          <g>
            <g>
              <path class="cls-2" d="M365.43,327.33c-23.36,0-42.37-19.01-42.37-42.37s19.01-42.37,42.37-42.37,42.37,19.01,42.37,42.37-19.01,42.37-42.37,42.37Z"/>
              <path class="cls-10" d="M365.43,243.09c23.12,0,41.87,18.75,41.87,41.87s-18.75,41.87-41.87,41.87-41.87-18.75-41.87-41.87,18.75-41.87,41.87-41.87M365.43,242.09c-23.64,0-42.87,19.23-42.87,42.87s19.23,42.87,42.87,42.87,42.87-19.23,42.87-42.87-19.23-42.87-42.87-42.87h0Z"/>
            </g>
            <g>
              <path class="cls-6" d="M365.44,318.85c-11.62,0-22.3-5.85-28.57-15.64-3.49-5.44-5.33-11.76-5.33-18.26,0-18.69,15.21-33.89,33.9-33.89,11.44,0,22.02,5.71,28.3,15.26,3.65,5.53,5.59,11.97,5.59,18.63,0,18.69-15.2,33.9-33.89,33.9Z"/>
              <path class="cls-10" d="M365.44,251.46c11.7,0,21.99,5.99,27.97,15.08,3.49,5.28,5.52,11.61,5.52,18.41,0,18.5-14.99,33.5-33.49,33.5-11.86,0-22.28-6.16-28.23-15.46-3.34-5.21-5.27-11.4-5.27-18.04,0-18.5,15-33.49,33.5-33.49M365.44,250.66c-18.91,0-34.3,15.38-34.3,34.29,0,6.58,1.87,12.96,5.4,18.47,6.34,9.91,17.15,15.83,28.9,15.83,18.91,0,34.29-15.39,34.29-34.3,0-6.74-1.95-13.26-5.65-18.85-6.36-9.67-17.07-15.44-28.64-15.44h0Z"/>
            </g>
          </g>
          <path class="cls-7" d="M398.93,284.95c0,18.5-14.99,33.5-33.49,33.5-11.86,0-22.28-6.16-28.23-15.46,3.24,2.76,7.68,6.28,14.32,7.82,14.44,3.35,26.97-5.52,28.12-6.36,1.9-1.38,9.47-7.2,12.97-17.7,2.38-7.15,2.08-14.11.79-20.21,3.49,5.28,5.52,11.61,5.52,18.41Z"/>
        </g>
        <g>
          <g>
            <g>
              <path class="cls-2" d="M458.43,327.33c-23.36,0-42.37-19.01-42.37-42.37s19.01-42.37,42.37-42.37,42.37,19.01,42.37,42.37-19.01,42.37-42.37,42.37Z"/>
              <path class="cls-10" d="M458.43,243.09c23.12,0,41.87,18.75,41.87,41.87s-18.75,41.87-41.87,41.87-41.87-18.75-41.87-41.87,18.75-41.87,41.87-41.87M458.43,242.09c-23.64,0-42.87,19.23-42.87,42.87s19.23,42.87,42.87,42.87,42.87-19.23,42.87-42.87-19.23-42.87-42.87-42.87h0Z"/>
            </g>
            <g>
              <path class="cls-6" d="M458.44,318.85c-11.62,0-22.3-5.85-28.57-15.64-3.49-5.44-5.33-11.76-5.33-18.26,0-18.69,15.21-33.89,33.9-33.89,11.44,0,22.02,5.71,28.3,15.26,3.65,5.53,5.59,11.97,5.59,18.63,0,18.69-15.2,33.9-33.89,33.9Z"/>
              <path class="cls-10" d="M458.44,251.46c11.7,0,21.99,5.99,27.97,15.08,3.49,5.28,5.52,11.61,5.52,18.41,0,18.5-14.99,33.5-33.49,33.5-11.86,0-22.28-6.16-28.23-15.46-3.34-5.21-5.27-11.4-5.27-18.04,0-18.5,15-33.49,33.5-33.49M458.44,250.66c-18.91,0-34.3,15.38-34.3,34.29,0,6.58,1.87,12.96,5.4,18.47,6.34,9.91,17.15,15.83,28.9,15.83,18.91,0,34.29-15.39,34.29-34.3,0-6.74-1.95-13.26-5.65-18.85-6.36-9.67-17.07-15.44-28.64-15.44h0Z"/>
            </g>
          </g>
          <path class="cls-7" d="M491.93,284.95c0,18.5-14.99,33.5-33.49,33.5-11.86,0-22.28-6.16-28.23-15.46,3.24,2.76,7.68,6.28,14.32,7.82,14.44,3.35,26.97-5.52,28.12-6.36,1.9-1.38,9.47-7.2,12.97-17.7,2.38-7.15,2.08-14.11.79-20.21,3.49,5.28,5.52,11.61,5.52,18.41Z"/>
        </g>
        <g>
          <g>
            <g>
              <path class="cls-2" d="M551.43,327.33c-23.36,0-42.37-19.01-42.37-42.37s19.01-42.37,42.37-42.37,42.37,19.01,42.37,42.37-19.01,42.37-42.37,42.37Z"/>
              <path class="cls-10" d="M551.43,243.09c23.12,0,41.87,18.75,41.87,41.87s-18.75,41.87-41.87,41.87-41.87-18.75-41.87-41.87,18.75-41.87,41.87-41.87M551.43,242.09c-23.64,0-42.87,19.23-42.87,42.87s19.23,42.87,42.87,42.87,42.87-19.23,42.87-42.87-19.23-42.87-42.87-42.87h0Z"/>
            </g>
            <g>
              <path class="cls-6" d="M551.44,318.85c-11.62,0-22.3-5.85-28.57-15.64-3.49-5.44-5.33-11.76-5.33-18.26,0-18.69,15.21-33.89,33.9-33.89,11.44,0,22.02,5.71,28.3,15.26,3.65,5.53,5.59,11.97,5.59,18.63,0,18.69-15.2,33.9-33.89,33.9Z"/>
              <path class="cls-10" d="M551.44,251.46c11.7,0,21.99,5.99,27.97,15.08,3.49,5.28,5.52,11.61,5.52,18.41,0,18.5-14.99,33.5-33.49,33.5-11.86,0-22.28-6.16-28.23-15.46-3.34-5.21-5.27-11.4-5.27-18.04,0-18.5,15-33.49,33.5-33.49M551.44,250.66c-18.91,0-34.3,15.38-34.3,34.29,0,6.58,1.87,12.96,5.4,18.47,6.34,9.91,17.15,15.83,28.9,15.83,18.91,0,34.29-15.39,34.29-34.3,0-6.74-1.95-13.26-5.65-18.85-6.36-9.67-17.07-15.44-28.64-15.44h0Z"/>
            </g>
          </g>
          <path class="cls-7" d="M584.93,284.95c0,18.5-14.99,33.5-33.49,33.5-11.86,0-22.28-6.16-28.23-15.46,3.24,2.76,7.68,6.28,14.32,7.82,14.44,3.35,26.97-5.52,28.12-6.36,1.9-1.38,9.47-7.2,12.97-17.7,2.38-7.15,2.08-14.11.79-20.21,3.49,5.28,5.52,11.61,5.52,18.41Z"/>
        </g>
      </g>
      <g>
        <g>
          <g>
            <g>
              <path class="cls-2" d="M86.43,420.33c-23.36,0-42.37-19.01-42.37-42.37s19.01-42.37,42.37-42.37,42.37,19.01,42.37,42.37-19.01,42.37-42.37,42.37Z"/>
              <path class="cls-10" d="M86.43,336.09c23.12,0,41.87,18.75,41.87,41.87s-18.75,41.87-41.87,41.87-41.87-18.75-41.87-41.87,18.75-41.87,41.87-41.87M86.43,335.09c-23.64,0-42.87,19.23-42.87,42.87s19.23,42.87,42.87,42.87,42.87-19.23,42.87-42.87-19.23-42.87-42.87-42.87h0Z"/>
            </g>
            <g>
              <path class="cls-6" d="M86.44,411.85c-11.62,0-22.3-5.85-28.57-15.64-3.49-5.44-5.33-11.76-5.33-18.26,0-18.69,15.21-33.89,33.9-33.89,11.44,0,22.02,5.71,28.3,15.26,3.65,5.53,5.59,11.97,5.59,18.63,0,18.69-15.2,33.9-33.89,33.9Z"/>
              <path class="cls-10" d="M86.44,344.46c11.7,0,21.99,5.99,27.97,15.08,3.49,5.28,5.52,11.61,5.52,18.41,0,18.5-14.99,33.5-33.49,33.5-11.86,0-22.28-6.16-28.23-15.46-3.34-5.21-5.27-11.4-5.27-18.04,0-18.5,15-33.49,33.5-33.49M86.44,343.66c-18.91,0-34.3,15.38-34.3,34.29,0,6.58,1.87,12.96,5.4,18.47,6.34,9.91,17.15,15.83,28.9,15.83,18.91,0,34.29-15.39,34.29-34.3,0-6.74-1.95-13.26-5.65-18.85-6.36-9.67-17.07-15.44-28.64-15.44h0Z"/>
            </g>
          </g>
          <path class="cls-7" d="M119.93,377.95c0,18.5-14.99,33.5-33.49,33.5-11.86,0-22.28-6.16-28.23-15.46,3.24,2.76,7.68,6.28,14.32,7.82,14.44,3.35,26.97-5.52,28.12-6.36,1.9-1.38,9.47-7.2,12.97-17.7,2.38-7.15,2.08-14.11.79-20.21,3.49,5.28,5.52,11.61,5.52,18.41Z"/>
        </g>
        <g>
          <g>
            <g>
              <path class="cls-2" d="M179.43,420.33c-23.36,0-42.37-19.01-42.37-42.37s19.01-42.37,42.37-42.37,42.37,19.01,42.37,42.37-19.01,42.37-42.37,42.37Z"/>
              <path class="cls-10" d="M179.43,336.09c23.12,0,41.87,18.75,41.87,41.87s-18.75,41.87-41.87,41.87-41.87-18.75-41.87-41.87,18.75-41.87,41.87-41.87M179.43,335.09c-23.64,0-42.87,19.23-42.87,42.87s19.23,42.87,42.87,42.87,42.87-19.23,42.87-42.87-19.23-42.87-42.87-42.87h0Z"/>
            </g>
            <g>
              <path class="cls-6" d="M179.44,411.85c-11.62,0-22.3-5.85-28.57-15.64-3.49-5.44-5.33-11.76-5.33-18.26,0-18.69,15.21-33.89,33.9-33.89,11.44,0,22.02,5.71,28.3,15.26,3.65,5.53,5.59,11.97,5.59,18.63,0,18.69-15.2,33.9-33.89,33.9Z"/>
              <path class="cls-10" d="M179.44,344.46c11.7,0,21.99,5.99,27.97,15.08,3.49,5.28,5.52,11.61,5.52,18.41,0,18.5-14.99,33.5-33.49,33.5-11.86,0-22.28-6.16-28.23-15.46-3.34-5.21-5.27-11.4-5.27-18.04,0-18.5,15-33.49,33.5-33.49M179.44,343.66c-18.91,0-34.3,15.38-34.3,34.29,0,6.58,1.87,12.96,5.4,18.47,6.34,9.91,17.15,15.83,28.9,15.83,18.91,0,34.29-15.39,34.29-34.3,0-6.74-1.95-13.26-5.65-18.85-6.36-9.67-17.07-15.44-28.64-15.44h0Z"/>
            </g>
          </g>
          <path class="cls-7" d="M212.93,377.95c0,18.5-14.99,33.5-33.49,33.5-11.86,0-22.28-6.16-28.23-15.46,3.24,2.76,7.68,6.28,14.32,7.82,14.44,3.35,26.97-5.52,28.12-6.36,1.9-1.38,9.47-7.2,12.97-17.7,2.38-7.15,2.08-14.11.79-20.21,3.49,5.28,5.52,11.61,5.52,18.41Z"/>
        </g>
        <g>
          <g>
            <g>
              <path class="cls-2" d="M272.43,420.33c-23.36,0-42.37-19.01-42.37-42.37s19.01-42.37,42.37-42.37,42.37,19.01,42.37,42.37-19.01,42.37-42.37,42.37Z"/>
              <path class="cls-10" d="M272.43,336.09c23.12,0,41.87,18.75,41.87,41.87s-18.75,41.87-41.87,41.87-41.87-18.75-41.87-41.87,18.75-41.87,41.87-41.87M272.43,335.09c-23.64,0-42.87,19.23-42.87,42.87s19.23,42.87,42.87,42.87,42.87-19.23,42.87-42.87-19.23-42.87-42.87-42.87h0Z"/>
            </g>
            <g>
              <path class="cls-6" d="M272.44,411.85c-11.62,0-22.3-5.85-28.57-15.64-3.49-5.44-5.33-11.76-5.33-18.26,0-18.69,15.21-33.89,33.9-33.89,11.44,0,22.02,5.71,28.3,15.26,3.65,5.53,5.59,11.97,5.59,18.63,0,18.69-15.2,33.9-33.89,33.9Z"/>
              <path class="cls-10" d="M272.44,344.46c11.7,0,21.99,5.99,27.97,15.08,3.49,5.28,5.52,11.61,5.52,18.41,0,18.5-14.99,33.5-33.49,33.5-11.86,0-22.28-6.16-28.23-15.46-3.34-5.21-5.27-11.4-5.27-18.04,0-18.5,15-33.49,33.5-33.49M272.44,343.66c-18.91,0-34.3,15.38-34.3,34.29,0,6.58,1.87,12.96,5.4,18.47,6.34,9.91,17.15,15.83,28.9,15.83,18.91,0,34.29-15.39,34.29-34.3,0-6.74-1.95-13.26-5.65-18.85-6.36-9.67-17.07-15.44-28.64-15.44h0Z"/>
            </g>
          </g>
          <path class="cls-7" d="M305.93,377.95c0,18.5-14.99,33.5-33.49,33.5-11.86,0-22.28-6.16-28.23-15.46,3.24,2.76,7.68,6.28,14.32,7.82,14.44,3.35,26.97-5.52,28.12-6.36,1.9-1.38,9.47-7.2,12.97-17.7,2.38-7.15,2.08-14.11.79-20.21,3.49,5.28,5.52,11.61,5.52,18.41Z"/>
        </g>
        <g>
          <g>
            <g>
              <path class="cls-2" d="M365.43,420.33c-23.36,0-42.37-19.01-42.37-42.37s19.01-42.37,42.37-42.37,42.37,19.01,42.37,42.37-19.01,42.37-42.37,42.37Z"/>
              <path class="cls-10" d="M365.43,336.09c23.12,0,41.87,18.75,41.87,41.87s-18.75,41.87-41.87,41.87-41.87-18.75-41.87-41.87,18.75-41.87,41.87-41.87M365.43,335.09c-23.64,0-42.87,19.23-42.87,42.87s19.23,42.87,42.87,42.87,42.87-19.23,42.87-42.87-19.23-42.87-42.87-42.87h0Z"/>
            </g>
            <g>
              <path class="cls-6" d="M365.44,411.85c-11.62,0-22.3-5.85-28.57-15.64-3.49-5.44-5.33-11.76-5.33-18.26,0-18.69,15.21-33.89,33.9-33.89,11.44,0,22.02,5.71,28.3,15.26,3.65,5.53,5.59,11.97,5.59,18.63,0,18.69-15.2,33.9-33.89,33.9Z"/>
              <path class="cls-10" d="M365.44,344.46c11.7,0,21.99,5.99,27.97,15.08,3.49,5.28,5.52,11.61,5.52,18.41,0,18.5-14.99,33.5-33.49,33.5-11.86,0-22.28-6.16-28.23-15.46-3.34-5.21-5.27-11.4-5.27-18.04,0-18.5,15-33.49,33.5-33.49M365.44,343.66c-18.91,0-34.3,15.38-34.3,34.29,0,6.58,1.87,12.96,5.4,18.47,6.34,9.91,17.15,15.83,28.9,15.83,18.91,0,34.29-15.39,34.29-34.3,0-6.74-1.95-13.26-5.65-18.85-6.36-9.67-17.07-15.44-28.64-15.44h0Z"/>
            </g>
          </g>
          <path class="cls-7" d="M398.93,377.95c0,18.5-14.99,33.5-33.49,33.5-11.86,0-22.28-6.16-28.23-15.46,3.24,2.76,7.68,6.28,14.32,7.82,14.44,3.35,26.97-5.52,28.12-6.36,1.9-1.38,9.47-7.2,12.97-17.7,2.38-7.15,2.08-14.11.79-20.21,3.49,5.28,5.52,11.61,5.52,18.41Z"/>
        </g>
        <g>
          <g>
            <g>
              <path class="cls-2" d="M458.43,420.33c-23.36,0-42.37-19.01-42.37-42.37s19.01-42.37,42.37-42.37,42.37,19.01,42.37,42.37-19.01,42.37-42.37,42.37Z"/>
              <path class="cls-10" d="M458.43,336.09c23.12,0,41.87,18.75,41.87,41.87s-18.75,41.87-41.87,41.87-41.87-18.75-41.87-41.87,18.75-41.87,41.87-41.87M458.43,335.09c-23.64,0-42.87,19.23-42.87,42.87s19.23,42.87,42.87,42.87,42.87-19.23,42.87-42.87-19.23-42.87-42.87-42.87h0Z"/>
            </g>
            <g>
              <path class="cls-6" d="M458.44,411.85c-11.62,0-22.3-5.85-28.57-15.64-3.49-5.44-5.33-11.76-5.33-18.26,0-18.69,15.21-33.89,33.9-33.89,11.44,0,22.02,5.71,28.3,15.26,3.65,5.53,5.59,11.97,5.59,18.63,0,18.69-15.2,33.9-33.89,33.9Z"/>
              <path class="cls-10" d="M458.44,344.46c11.7,0,21.99,5.99,27.97,15.08,3.49,5.28,5.52,11.61,5.52,18.41,0,18.5-14.99,33.5-33.49,33.5-11.86,0-22.28-6.16-28.23-15.46-3.34-5.21-5.27-11.4-5.27-18.04,0-18.5,15-33.49,33.5-33.49M458.44,343.66c-18.91,0-34.3,15.38-34.3,34.29,0,6.58,1.87,12.96,5.4,18.47,6.34,9.91,17.15,15.83,28.9,15.83,18.91,0,34.29-15.39,34.29-34.3,0-6.74-1.95-13.26-5.65-18.85-6.36-9.67-17.07-15.44-28.64-15.44h0Z"/>
            </g>
          </g>
          <path class="cls-7" d="M491.93,377.95c0,18.5-14.99,33.5-33.49,33.5-11.86,0-22.28-6.16-28.23-15.46,3.24,2.76,7.68,6.28,14.32,7.82,14.44,3.35,26.97-5.52,28.12-6.36,1.9-1.38,9.47-7.2,12.97-17.7,2.38-7.15,2.08-14.11.79-20.21,3.49,5.28,5.52,11.61,5.52,18.41Z"/>
        </g>
        <g>
          <g>
            <g>
              <path class="cls-2" d="M551.43,420.33c-23.36,0-42.37-19.01-42.37-42.37s19.01-42.37,42.37-42.37,42.37,19.01,42.37,42.37-19.01,42.37-42.37,42.37Z"/>
              <path class="cls-10" d="M551.43,336.09c23.12,0,41.87,18.75,41.87,41.87s-18.75,41.87-41.87,41.87-41.87-18.75-41.87-41.87,18.75-41.87,41.87-41.87M551.43,335.09c-23.64,0-42.87,19.23-42.87,42.87s19.23,42.87,42.87,42.87,42.87-19.23,42.87-42.87-19.23-42.87-42.87-42.87h0Z"/>
            </g>
            <g>
              <path class="cls-6" d="M551.44,411.85c-11.62,0-22.3-5.85-28.57-15.64-3.49-5.44-5.33-11.76-5.33-18.26,0-18.69,15.21-33.89,33.9-33.89,11.44,0,22.02,5.71,28.3,15.26,3.65,5.53,5.59,11.97,5.59,18.63,0,18.69-15.2,33.9-33.89,33.9Z"/>
              <path class="cls-10" d="M551.44,344.46c11.7,0,21.99,5.99,27.97,15.08,3.49,5.28,5.52,11.61,5.52,18.41,0,18.5-14.99,33.5-33.49,33.5-11.86,0-22.28-6.16-28.23-15.46-3.34-5.21-5.27-11.4-5.27-18.04,0-18.5,15-33.49,33.5-33.49M551.44,343.66c-18.91,0-34.3,15.38-34.3,34.29,0,6.58,1.87,12.96,5.4,18.47,6.34,9.91,17.15,15.83,28.9,15.83,18.91,0,34.29-15.39,34.29-34.3,0-6.74-1.95-13.26-5.65-18.85-6.36-9.67-17.07-15.44-28.64-15.44h0Z"/>
            </g>
          </g>
          <path class="cls-7" d="M584.93,377.95c0,18.5-14.99,33.5-33.49,33.5-11.86,0-22.28-6.16-28.23-15.46,3.24,2.76,7.68,6.28,14.32,7.82,14.44,3.35,26.97-5.52,28.12-6.36,1.9-1.38,9.47-7.2,12.97-17.7,2.38-7.15,2.08-14.11.79-20.21,3.49,5.28,5.52,11.61,5.52,18.41Z"/>
        </g>
      </g>
    </g>
  </g>
</svg>