<?xml version="1.0" encoding="UTF-8"?>
<svg id="Capa_2" data-name="Capa 2" xmlns="http://www.w3.org/2000/svg" viewBox="0 0 730.25 283.98">
  <defs>
    <style>
      .cls-1 {
        fill: #fff;
      }

      .cls-2 {
        fill: #efa5bb;
      }

      .cls-3 {
        fill: #bccbd2;
        stroke-width: 1.97px;
      }

      .cls-3, .cls-4, .cls-5, .cls-6 {
        stroke: #789;
        stroke-linecap: round;
        stroke-linejoin: round;
      }

      .cls-4 {
        fill: #e6ecef;
        stroke-width: 2.33px;
      }

      .cls-7 {
        fill: #e08da9;
      }

      .cls-5 {
        fill: #d6e1e5;
      }

      .cls-5, .cls-6 {
        stroke-width: 2.16px;
      }

      .cls-6 {
        fill: #e1e9ea;
      }

      .cls-8 {
        fill: #5c5d5e;
      }
    </style>
  </defs>
  <g id="Capa_1-2" data-name="Capa 1">
    <g>
      <path class="cls-4" d="M1.17,239.57h727.92v12.63c0,16.9-13.72,30.62-30.62,30.62H31.79c-16.9,0-30.62-13.72-30.62-30.62v-12.63h0Z"/>
      <path class="cls-3" d="M714.55,252.77H15.7c-10.82,0-17.83-11.41-12.95-21.06L99.2,41.19c4.01-7.93,12.15-12.93,21.04-12.92l488.98.33c8.84,0,16.94,4.96,20.96,12.83l97.3,190.23c4.94,9.66-2.07,21.12-12.92,21.12Z"/>
      <rect class="cls-6" x="48.5" y="194.11" width="641.57" height="36.8"/>
      <polygon class="cls-6" points="48.5 203.73 48.5 230.91 36 215.2 36 188.03 44.39 198.57 48.5 203.73"/>
      <path class="cls-5" d="M681.24,203.73H48.5l-4.1-5.16-8.39-10.55L125.37,10.98h0c2.97-6.06,9.14-9.91,15.89-9.91h2.79s441.5,0,441.5,0c6.8,0,12.99,3.89,15.95,10.01l87.17,180.82c2.64,5.47-1.35,11.82-7.43,11.82Z"/>
      <g>
        <g>
          <g>
            <g>
              <path class="cls-1" d="M112.8,191.35c-24.02,0-43.56-9.38-43.56-20.91s19.54-20.91,43.56-20.91,43.56,9.38,43.56,20.91-19.54,20.91-43.56,20.91Z"/>
              <path class="cls-8" d="M112.8,149.71c23.96,0,43.38,9.28,43.38,20.73s-19.42,20.73-43.38,20.73-43.38-9.28-43.38-20.73,19.42-20.73,43.38-20.73M112.8,149.33c-24.12,0-43.75,9.47-43.75,21.1s19.62,21.1,43.75,21.1,43.75-9.47,43.75-21.1-19.62-21.1-43.75-21.1h0Z"/>
            </g>
            <g>
              <path class="cls-2" d="M112.81,187.42c-11.98,0-23-2.89-29.48-7.73-3.68-2.74-5.62-5.94-5.62-9.25,0-9.36,15.75-16.98,35.1-16.98,11.79,0,22.71,2.82,29.21,7.54,3.85,2.78,5.88,6.04,5.88,9.44,0,9.37-15.74,16.98-35.09,16.98Z"/>
              <path class="cls-8" d="M112.81,153.85c12.12,0,22.78,2.97,28.98,7.47,3.62,2.61,5.72,5.75,5.72,9.11,0,9.16-15.53,16.58-34.69,16.58-12.29,0-23.08-3.05-29.25-7.65-3.46-2.58-5.46-5.64-5.46-8.93,0-9.16,15.54-16.58,34.7-16.58M112.81,153.05c-9.39,0-18.22,1.75-24.88,4.93-6.85,3.27-10.62,7.69-10.62,12.45,0,3.44,2,6.75,5.78,9.57,6.55,4.89,17.66,7.81,29.72,7.81,9.39,0,18.22-1.75,24.88-4.94,6.85-3.27,10.62-7.69,10.62-12.45,0-3.53-2.09-6.9-6.05-9.76-6.57-4.77-17.57-7.62-29.44-7.62h0Z"/>
            </g>
          </g>
          <path class="cls-7" d="M147.5,170.43c0,9.16-15.53,16.58-34.69,16.58-12.29,0-23.08-3.05-29.25-7.65,3.36,1.37,7.96,3.11,14.84,3.87,14.96,1.66,27.94-2.73,29.13-3.15,1.97-.68,9.81-3.56,13.44-8.76,2.47-3.54,2.15-6.99.82-10.01,3.62,2.61,5.72,5.75,5.72,9.11Z"/>
        </g>
        <g>
          <g>
            <g>
              <path class="cls-1" d="M211.77,191.35c-24.02,0-43.56-9.38-43.56-20.91s19.54-20.91,43.56-20.91,43.56,9.38,43.56,20.91-19.54,20.91-43.56,20.91Z"/>
              <path class="cls-8" d="M211.77,149.71c23.96,0,43.38,9.28,43.38,20.73s-19.42,20.73-43.38,20.73-43.38-9.28-43.38-20.73,19.42-20.73,43.38-20.73M211.77,149.33c-24.12,0-43.75,9.47-43.75,21.1s19.62,21.1,43.75,21.1,43.75-9.47,43.75-21.1-19.62-21.1-43.75-21.1h0Z"/>
            </g>
            <g>
              <path class="cls-2" d="M211.78,187.42c-11.98,0-23-2.89-29.48-7.73-3.68-2.74-5.62-5.94-5.62-9.25,0-9.36,15.75-16.98,35.1-16.98,11.79,0,22.71,2.82,29.21,7.54,3.85,2.78,5.88,6.04,5.88,9.44,0,9.37-15.74,16.98-35.09,16.98Z"/>
              <path class="cls-8" d="M211.78,153.85c12.12,0,22.78,2.97,28.98,7.47,3.62,2.61,5.72,5.75,5.72,9.11,0,9.16-15.53,16.58-34.69,16.58-12.29,0-23.08-3.05-29.25-7.65-3.46-2.58-5.46-5.64-5.46-8.93,0-9.16,15.54-16.58,34.7-16.58M211.78,153.05c-9.39,0-18.22,1.75-24.88,4.93-6.85,3.27-10.62,7.69-10.62,12.45,0,3.44,2,6.75,5.78,9.57,6.55,4.89,17.66,7.81,29.72,7.81,9.39,0,18.22-1.75,24.88-4.94,6.85-3.27,10.62-7.69,10.62-12.45,0-3.53-2.09-6.9-6.05-9.76-6.57-4.77-17.57-7.62-29.44-7.62h0Z"/>
            </g>
          </g>
          <path class="cls-7" d="M246.47,170.43c0,9.16-15.53,16.58-34.69,16.58-12.29,0-23.08-3.05-29.25-7.65,3.36,1.37,7.96,3.11,14.84,3.87,14.96,1.66,27.94-2.73,29.13-3.15,1.97-.68,9.81-3.56,13.44-8.76,2.47-3.54,2.15-6.99.82-10.01,3.62,2.61,5.72,5.75,5.72,9.11Z"/>
        </g>
        <g>
          <g>
            <g>
              <path class="cls-1" d="M310.75,191.35c-24.02,0-43.56-9.38-43.56-20.91s19.54-20.91,43.56-20.91,43.56,9.38,43.56,20.91-19.54,20.91-43.56,20.91Z"/>
              <path class="cls-8" d="M310.75,149.71c23.96,0,43.38,9.28,43.38,20.73s-19.42,20.73-43.38,20.73-43.38-9.28-43.38-20.73,19.42-20.73,43.38-20.73M310.75,149.33c-24.12,0-43.75,9.47-43.75,21.1s19.62,21.1,43.75,21.1,43.75-9.47,43.75-21.1-19.62-21.1-43.75-21.1h0Z"/>
            </g>
            <g>
              <path class="cls-2" d="M310.75,187.42c-11.98,0-23-2.89-29.48-7.73-3.68-2.74-5.62-5.94-5.62-9.25,0-9.36,15.75-16.98,35.1-16.98,11.79,0,22.71,2.82,29.21,7.54,3.85,2.78,5.88,6.04,5.88,9.44,0,9.37-15.74,16.98-35.09,16.98Z"/>
              <path class="cls-8" d="M310.75,153.85c12.12,0,22.78,2.97,28.98,7.47,3.62,2.61,5.72,5.75,5.72,9.11,0,9.16-15.53,16.58-34.69,16.58-12.29,0-23.08-3.05-29.25-7.65-3.46-2.58-5.46-5.64-5.46-8.93,0-9.16,15.54-16.58,34.7-16.58M310.75,153.05c-9.39,0-18.22,1.75-24.88,4.93-6.85,3.27-10.62,7.69-10.62,12.45,0,3.44,2,6.75,5.78,9.57,6.55,4.89,17.66,7.81,29.72,7.81,9.39,0,18.22-1.75,24.88-4.94,6.85-3.27,10.62-7.69,10.62-12.45,0-3.53-2.09-6.9-6.05-9.76-6.57-4.77-17.57-7.62-29.44-7.62h0Z"/>
            </g>
          </g>
          <path class="cls-7" d="M345.45,170.43c0,9.16-15.53,16.58-34.69,16.58-12.29,0-23.08-3.05-29.25-7.65,3.36,1.37,7.96,3.11,14.84,3.87,14.96,1.66,27.94-2.73,29.13-3.15,1.97-.68,9.81-3.56,13.44-8.76,2.47-3.54,2.15-6.99.82-10.01,3.62,2.61,5.72,5.75,5.72,9.11Z"/>
        </g>
        <g>
          <g>
            <g>
              <path class="cls-1" d="M409.72,191.35c-24.02,0-43.56-9.38-43.56-20.91s19.54-20.91,43.56-20.91,43.56,9.38,43.56,20.91-19.54,20.91-43.56,20.91Z"/>
              <path class="cls-8" d="M409.72,149.71c23.96,0,43.38,9.28,43.38,20.73s-19.42,20.73-43.38,20.73-43.38-9.28-43.38-20.73,19.42-20.73,43.38-20.73M409.72,149.33c-24.12,0-43.75,9.47-43.75,21.1s19.62,21.1,43.75,21.1,43.75-9.47,43.75-21.1-19.62-21.1-43.75-21.1h0Z"/>
            </g>
            <g>
              <path class="cls-2" d="M409.72,187.42c-11.98,0-23-2.89-29.48-7.73-3.68-2.74-5.62-5.94-5.62-9.25,0-9.36,15.75-16.98,35.1-16.98,11.79,0,22.71,2.82,29.21,7.54,3.85,2.78,5.88,6.04,5.88,9.44,0,9.37-15.74,16.98-35.09,16.98Z"/>
              <path class="cls-8" d="M409.72,153.85c12.12,0,22.78,2.97,28.98,7.47,3.62,2.61,5.72,5.75,5.72,9.11,0,9.16-15.53,16.58-34.69,16.58-12.29,0-23.08-3.05-29.25-7.65-3.46-2.58-5.46-5.64-5.46-8.93,0-9.16,15.54-16.58,34.7-16.58M409.72,153.05c-9.39,0-18.22,1.75-24.88,4.93-6.85,3.27-10.62,7.69-10.62,12.45,0,3.44,2,6.75,5.78,9.57,6.55,4.89,17.66,7.81,29.72,7.81,9.39,0,18.22-1.75,24.88-4.94,6.85-3.27,10.62-7.69,10.62-12.45,0-3.53-2.09-6.9-6.05-9.76-6.57-4.77-17.57-7.62-29.44-7.62h0Z"/>
            </g>
          </g>
          <path class="cls-7" d="M444.42,170.43c0,9.16-15.53,16.58-34.69,16.58-12.29,0-23.08-3.05-29.25-7.65,3.36,1.37,7.96,3.11,14.84,3.87,14.96,1.66,27.94-2.73,29.13-3.15,1.97-.68,9.81-3.56,13.44-8.76,2.47-3.54,2.15-6.99.82-10.01,3.62,2.61,5.72,5.75,5.72,9.11Z"/>
        </g>
        <g>
          <g>
            <g>
              <path class="cls-1" d="M508.69,191.35c-24.02,0-43.56-9.38-43.56-20.91s19.54-20.91,43.56-20.91,43.56,9.38,43.56,20.91-19.54,20.91-43.56,20.91Z"/>
              <path class="cls-8" d="M508.69,149.71c23.96,0,43.38,9.28,43.38,20.73s-19.42,20.73-43.38,20.73-43.38-9.28-43.38-20.73,19.42-20.73,43.38-20.73M508.69,149.33c-24.12,0-43.75,9.47-43.75,21.1s19.62,21.1,43.75,21.1,43.75-9.47,43.75-21.1-19.62-21.1-43.75-21.1h0Z"/>
            </g>
            <g>
              <path class="cls-2" d="M508.69,187.42c-11.98,0-23-2.89-29.48-7.73-3.68-2.74-5.62-5.94-5.62-9.25,0-9.36,15.75-16.98,35.1-16.98,11.79,0,22.71,2.82,29.21,7.54,3.85,2.78,5.88,6.04,5.88,9.44,0,9.37-15.74,16.98-35.09,16.98Z"/>
              <path class="cls-8" d="M508.69,153.85c12.12,0,22.78,2.97,28.98,7.47,3.62,2.61,5.72,5.75,5.72,9.11,0,9.16-15.53,16.58-34.69,16.58-12.29,0-23.08-3.05-29.25-7.65-3.46-2.58-5.46-5.64-5.46-8.93,0-9.16,15.54-16.58,34.7-16.58M508.69,153.05c-9.39,0-18.22,1.75-24.88,4.93-6.85,3.27-10.62,7.69-10.62,12.45,0,3.44,2,6.75,5.78,9.57,6.55,4.89,17.66,7.81,29.72,7.81,9.39,0,18.22-1.75,24.88-4.94,6.85-3.27,10.62-7.69,10.62-12.45,0-3.53-2.09-6.9-6.05-9.76-6.57-4.77-17.57-7.62-29.44-7.62h0Z"/>
            </g>
          </g>
          <path class="cls-7" d="M543.39,170.43c0,9.16-15.53,16.58-34.69,16.58-12.29,0-23.08-3.05-29.25-7.65,3.36,1.37,7.96,3.11,14.84,3.87,14.96,1.66,27.94-2.73,29.13-3.15,1.97-.68,9.81-3.56,13.44-8.76,2.47-3.54,2.15-6.99.82-10.01,3.62,2.61,5.72,5.75,5.72,9.11Z"/>
        </g>
        <g>
          <g>
            <g>
              <path class="cls-1" d="M607.66,191.35c-24.02,0-43.56-9.38-43.56-20.91s19.54-20.91,43.56-20.91,43.56,9.38,43.56,20.91-19.54,20.91-43.56,20.91Z"/>
              <path class="cls-8" d="M607.66,149.71c23.96,0,43.38,9.28,43.38,20.73s-19.42,20.73-43.38,20.73-43.38-9.28-43.38-20.73,19.42-20.73,43.38-20.73M607.66,149.33c-24.12,0-43.75,9.47-43.75,21.1s19.62,21.1,43.75,21.1,43.75-9.47,43.75-21.1-19.62-21.1-43.75-21.1h0Z"/>
            </g>
            <g>
              <path class="cls-2" d="M607.67,187.42c-11.98,0-23-2.89-29.48-7.73-3.68-2.74-5.62-5.94-5.62-9.25,0-9.36,15.75-16.98,35.1-16.98,11.79,0,22.71,2.82,29.21,7.54,3.85,2.78,5.88,6.04,5.88,9.44,0,9.37-15.74,16.98-35.09,16.98Z"/>
              <path class="cls-8" d="M607.67,153.85c12.12,0,22.78,2.97,28.98,7.47,3.62,2.61,5.72,5.75,5.72,9.11,0,9.16-15.53,16.58-34.69,16.58-12.29,0-23.08-3.05-29.25-7.65-3.46-2.58-5.46-5.64-5.46-8.93,0-9.16,15.54-16.58,34.7-16.58M607.67,153.05c-9.39,0-18.22,1.75-24.88,4.93-6.85,3.27-10.62,7.69-10.62,12.45,0,3.44,2,6.75,5.78,9.57,6.55,4.89,17.66,7.81,29.72,7.81,9.39,0,18.22-1.75,24.88-4.94,6.85-3.27,10.62-7.69,10.62-12.45,0-3.53-2.09-6.9-6.05-9.76-6.57-4.77-17.57-7.62-29.44-7.62h0Z"/>
            </g>
          </g>
          <path class="cls-7" d="M642.36,170.43c0,9.16-15.53,16.58-34.69,16.58-12.29,0-23.08-3.05-29.25-7.65,3.36,1.37,7.96,3.11,14.84,3.87,14.96,1.66,27.94-2.73,29.13-3.15,1.97-.68,9.81-3.56,13.44-8.76,2.47-3.54,2.15-6.99.82-10.01,3.62,2.61,5.72,5.75,5.72,9.11Z"/>
        </g>
      </g>
      <g>
        <g>
          <g>
            <g>
              <path class="cls-1" d="M130.12,143.67c-22.34,0-40.51-8.73-40.51-19.45s18.17-19.45,40.51-19.45,40.51,8.72,40.51,19.45-18.17,19.45-40.51,19.45Z"/>
              <path class="cls-8" d="M130.12,104.95c22.28,0,40.34,8.63,40.34,19.28s-18.06,19.28-40.34,19.28-40.34-8.63-40.34-19.28,18.06-19.28,40.34-19.28M130.12,104.6c-22.43,0-40.68,8.8-40.68,19.62s18.25,19.62,40.68,19.62,40.68-8.8,40.68-19.62-18.25-19.62-40.68-19.62h0Z"/>
            </g>
            <g>
              <path class="cls-2" d="M130.13,140.05c-11.15,0-21.4-2.69-27.44-7.2-3.43-2.55-5.24-5.54-5.24-8.63,0-8.72,14.66-15.82,32.68-15.82,10.97,0,21.13,2.62,27.18,7.02,3.59,2.59,5.48,5.64,5.48,8.8,0,8.72-14.65,15.82-32.67,15.82Z"/>
              <path class="cls-8" d="M130.13,108.8c11.27,0,21.19,2.76,26.95,6.94,3.36,2.43,5.32,5.35,5.32,8.48,0,8.52-14.44,15.42-32.27,15.42-11.43,0-21.47-2.84-27.2-7.12-3.22-2.4-5.08-5.25-5.08-8.31,0-8.52,14.45-15.42,32.28-15.42M130.13,108c-18.55,0-33.08,7.12-33.08,16.22,0,3.22,1.87,6.31,5.4,8.95,6.1,4.56,16.45,7.28,27.68,7.28,18.54,0,33.07-7.13,33.07-16.22,0-3.3-1.95-6.45-5.65-9.12-6.12-4.44-16.36-7.09-27.42-7.09h0Z"/>
            </g>
          </g>
          <path class="cls-7" d="M162.39,124.22c0,8.52-14.44,15.42-32.27,15.42-11.43,0-21.47-2.84-27.2-7.12,3.12,1.27,7.4,2.89,13.8,3.6,13.91,1.54,25.98-2.54,27.09-2.93,1.83-.64,9.12-3.31,12.5-8.15,2.29-3.29,2-6.5.76-9.3,3.36,2.43,5.32,5.35,5.32,8.48Z"/>
        </g>
        <g>
          <g>
            <g>
              <path class="cls-1" d="M222.17,143.67c-22.34,0-40.51-8.73-40.51-19.45s18.17-19.45,40.51-19.45,40.51,8.72,40.51,19.45-18.17,19.45-40.51,19.45Z"/>
              <path class="cls-8" d="M222.17,104.95c22.28,0,40.34,8.63,40.34,19.28s-18.06,19.28-40.34,19.28-40.34-8.63-40.34-19.28,18.06-19.28,40.34-19.28M222.17,104.6c-22.43,0-40.68,8.8-40.68,19.62s18.25,19.62,40.68,19.62,40.68-8.8,40.68-19.62-18.25-19.62-40.68-19.62h0Z"/>
            </g>
            <g>
              <path class="cls-2" d="M222.17,140.05c-11.15,0-21.4-2.69-27.44-7.2-3.43-2.55-5.24-5.54-5.24-8.63,0-8.72,14.66-15.82,32.68-15.82,10.97,0,21.13,2.62,27.18,7.02,3.59,2.59,5.48,5.64,5.48,8.8,0,8.72-14.65,15.82-32.67,15.82Z"/>
              <path class="cls-8" d="M222.17,108.8c11.27,0,21.19,2.76,26.95,6.94,3.36,2.43,5.32,5.35,5.32,8.48,0,8.52-14.44,15.42-32.27,15.42-11.43,0-21.47-2.84-27.2-7.12-3.22-2.4-5.08-5.25-5.08-8.31,0-8.52,14.45-15.42,32.28-15.42M222.17,108c-18.55,0-33.08,7.12-33.08,16.22,0,3.22,1.87,6.31,5.4,8.95,6.1,4.56,16.45,7.28,27.68,7.28,18.54,0,33.07-7.13,33.07-16.22,0-3.3-1.95-6.45-5.65-9.12-6.12-4.44-16.36-7.09-27.42-7.09h0Z"/>
            </g>
          </g>
          <path class="cls-7" d="M254.44,124.22c0,8.52-14.44,15.42-32.27,15.42-11.43,0-21.47-2.84-27.2-7.12,3.12,1.27,7.4,2.89,13.8,3.6,13.91,1.54,25.98-2.54,27.09-2.93,1.83-.64,9.12-3.31,12.5-8.15,2.29-3.29,2-6.5.76-9.3,3.36,2.43,5.32,5.35,5.32,8.48Z"/>
        </g>
        <g>
          <g>
            <g>
              <path class="cls-1" d="M314.21,143.67c-22.34,0-40.51-8.73-40.51-19.45s18.17-19.45,40.51-19.45,40.51,8.72,40.51,19.45-18.17,19.45-40.51,19.45Z"/>
              <path class="cls-8" d="M314.21,104.95c22.28,0,40.34,8.63,40.34,19.28s-18.06,19.28-40.34,19.28-40.34-8.63-40.34-19.28,18.06-19.28,40.34-19.28M314.21,104.6c-22.43,0-40.68,8.8-40.68,19.62s18.25,19.62,40.68,19.62,40.68-8.8,40.68-19.62-18.25-19.62-40.68-19.62h0Z"/>
            </g>
            <g>
              <path class="cls-2" d="M314.21,140.05c-11.15,0-21.4-2.69-27.44-7.2-3.43-2.55-5.24-5.54-5.24-8.63,0-8.72,14.66-15.82,32.68-15.82,10.97,0,21.13,2.62,27.18,7.02,3.59,2.59,5.48,5.64,5.48,8.8,0,8.72-14.65,15.82-32.67,15.82Z"/>
              <path class="cls-8" d="M314.21,108.8c11.27,0,21.19,2.76,26.95,6.94,3.36,2.43,5.32,5.35,5.32,8.48,0,8.52-14.44,15.42-32.27,15.42-11.43,0-21.47-2.84-27.2-7.12-3.22-2.4-5.08-5.25-5.08-8.31,0-8.52,14.45-15.42,32.28-15.42M314.21,108c-18.55,0-33.08,7.12-33.08,16.22,0,3.22,1.87,6.31,5.4,8.95,6.1,4.56,16.45,7.28,27.68,7.28,18.54,0,33.07-7.13,33.07-16.22,0-3.3-1.95-6.45-5.65-9.12-6.11-4.44-16.36-7.09-27.42-7.09h0Z"/>
            </g>
          </g>
          <path class="cls-7" d="M346.48,124.22c0,8.52-14.44,15.42-32.27,15.42-11.43,0-21.47-2.84-27.2-7.12,3.12,1.27,7.4,2.89,13.8,3.6,13.91,1.54,25.98-2.54,27.09-2.93,1.83-.64,9.12-3.31,12.5-8.15,2.29-3.29,2-6.5.76-9.3,3.36,2.43,5.32,5.35,5.32,8.48Z"/>
        </g>
        <g>
          <g>
            <g>
              <path class="cls-1" d="M406.25,143.67c-22.34,0-40.51-8.73-40.51-19.45s18.17-19.45,40.51-19.45,40.51,8.72,40.51,19.45-18.17,19.45-40.51,19.45Z"/>
              <path class="cls-8" d="M406.25,104.95c22.28,0,40.34,8.63,40.34,19.28s-18.06,19.28-40.34,19.28-40.34-8.63-40.34-19.28,18.06-19.28,40.34-19.28M406.25,104.6c-22.43,0-40.68,8.8-40.68,19.62s18.25,19.62,40.68,19.62,40.68-8.8,40.68-19.62-18.25-19.62-40.68-19.62h0Z"/>
            </g>
            <g>
              <path class="cls-2" d="M406.26,140.05c-11.15,0-21.4-2.69-27.44-7.2-3.43-2.55-5.24-5.54-5.24-8.63,0-8.72,14.66-15.82,32.68-15.82,10.97,0,21.13,2.62,27.18,7.02,3.59,2.59,5.48,5.64,5.48,8.8,0,8.72-14.65,15.82-32.67,15.82Z"/>
              <path class="cls-8" d="M406.26,108.8c11.27,0,21.19,2.76,26.95,6.94,3.36,2.43,5.32,5.35,5.32,8.48,0,8.52-14.44,15.42-32.27,15.42-11.43,0-21.47-2.84-27.2-7.12-3.22-2.4-5.08-5.25-5.08-8.31,0-8.52,14.45-15.42,32.28-15.42M406.26,108c-18.55,0-33.08,7.12-33.08,16.22,0,3.22,1.87,6.31,5.4,8.95,6.1,4.56,16.45,7.28,27.68,7.28,18.54,0,33.07-7.13,33.07-16.22,0-3.3-1.95-6.45-5.65-9.12-6.12-4.44-16.36-7.09-27.42-7.09h0Z"/>
            </g>
          </g>
          <path class="cls-7" d="M438.52,124.22c0,8.52-14.44,15.42-32.27,15.42-11.43,0-21.47-2.84-27.2-7.12,3.12,1.27,7.4,2.89,13.8,3.6,13.91,1.54,25.98-2.54,27.09-2.93,1.83-.64,9.12-3.31,12.5-8.15,2.29-3.29,2-6.5.76-9.3,3.36,2.43,5.32,5.35,5.32,8.48Z"/>
        </g>
        <g>
          <g>
            <g>
              <path class="cls-1" d="M498.3,143.67c-22.34,0-40.51-8.73-40.51-19.45s18.17-19.45,40.51-19.45,40.51,8.72,40.51,19.45-18.17,19.45-40.51,19.45Z"/>
              <path class="cls-8" d="M498.3,104.95c22.28,0,40.34,8.63,40.34,19.28s-18.06,19.28-40.34,19.28-40.34-8.63-40.34-19.28,18.06-19.28,40.34-19.28M498.3,104.6c-22.43,0-40.68,8.8-40.68,19.62s18.25,19.62,40.68,19.62,40.68-8.8,40.68-19.62-18.25-19.62-40.68-19.62h0Z"/>
            </g>
            <g>
              <path class="cls-2" d="M498.3,140.05c-11.15,0-21.4-2.69-27.44-7.2-3.43-2.55-5.24-5.54-5.24-8.63,0-8.72,14.66-15.82,32.68-15.82,10.97,0,21.13,2.62,27.18,7.02,3.59,2.59,5.48,5.64,5.48,8.8,0,8.72-14.65,15.82-32.67,15.82Z"/>
              <path class="cls-8" d="M498.3,108.8c11.27,0,21.19,2.76,26.95,6.94,3.36,2.43,5.32,5.35,5.32,8.48,0,8.52-14.44,15.42-32.27,15.42-11.43,0-21.47-2.84-27.2-7.12-3.22-2.4-5.08-5.25-5.08-8.31,0-8.52,14.45-15.42,32.28-15.42M498.3,108c-18.55,0-33.08,7.12-33.08,16.22,0,3.22,1.87,6.31,5.4,8.95,6.1,4.56,16.45,7.28,27.68,7.28,18.54,0,33.07-7.13,33.07-16.22,0-3.3-1.95-6.45-5.65-9.12-6.12-4.44-16.36-7.09-27.42-7.09h0Z"/>
            </g>
          </g>
          <path class="cls-7" d="M530.57,124.22c0,8.52-14.44,15.42-32.27,15.42-11.43,0-21.47-2.84-27.2-7.12,3.12,1.27,7.4,2.89,13.8,3.6,13.91,1.54,25.98-2.54,27.09-2.93,1.83-.64,9.12-3.31,12.5-8.15,2.29-3.29,2-6.5.76-9.3,3.36,2.43,5.32,5.35,5.32,8.48Z"/>
        </g>
        <g>
          <g>
            <g>
              <path class="cls-1" d="M590.34,143.67c-22.34,0-40.51-8.73-40.51-19.45s18.17-19.45,40.51-19.45,40.51,8.72,40.51,19.45-18.17,19.45-40.51,19.45Z"/>
              <path class="cls-8" d="M590.34,104.95c22.28,0,40.34,8.63,40.34,19.28s-18.06,19.28-40.34,19.28-40.34-8.63-40.34-19.28,18.06-19.28,40.34-19.28M590.34,104.6c-22.43,0-40.68,8.8-40.68,19.62s18.25,19.62,40.68,19.62,40.68-8.8,40.68-19.62-18.25-19.62-40.68-19.62h0Z"/>
            </g>
            <g>
              <path class="cls-2" d="M590.35,140.05c-11.15,0-21.4-2.69-27.44-7.2-3.43-2.55-5.24-5.54-5.24-8.63,0-8.72,14.66-15.82,32.68-15.82,10.97,0,21.13,2.62,27.18,7.02,3.59,2.59,5.48,5.64,5.48,8.8,0,8.72-14.65,15.82-32.67,15.82Z"/>
              <path class="cls-8" d="M590.35,108.8c11.27,0,21.19,2.76,26.95,6.94,3.36,2.43,5.32,5.35,5.32,8.48,0,8.52-14.44,15.42-32.27,15.42-11.43,0-21.47-2.84-27.2-7.12-3.22-2.4-5.08-5.25-5.08-8.31,0-8.52,14.45-15.42,32.28-15.42M590.35,108c-18.55,0-33.08,7.12-33.08,16.22,0,3.22,1.87,6.31,5.4,8.95,6.1,4.56,16.45,7.28,27.68,7.28,18.54,0,33.07-7.13,33.07-16.22,0-3.3-1.95-6.45-5.65-9.12-6.12-4.44-16.36-7.09-27.42-7.09h0Z"/>
            </g>
          </g>
          <path class="cls-7" d="M622.61,124.22c0,8.52-14.44,15.42-32.27,15.42-11.43,0-21.47-2.84-27.2-7.12,3.12,1.27,7.4,2.89,13.8,3.6,13.91,1.54,25.98-2.54,27.09-2.93,1.83-.64,9.12-3.31,12.5-8.15,2.29-3.29,2-6.5.76-9.3,3.36,2.43,5.32,5.35,5.32,8.48Z"/>
        </g>
      </g>
      <g>
        <g>
          <g>
            <g>
              <path class="cls-1" d="M146.23,96.1c-20.77,0-37.68-8.11-37.68-18.09s16.9-18.09,37.68-18.09,37.68,8.11,37.68,18.09-16.9,18.09-37.68,18.09Z"/>
              <path class="cls-8" d="M146.23,60.09c20.72,0,37.52,8.03,37.52,17.93s-16.8,17.93-37.52,17.93-37.52-8.03-37.52-17.93,16.8-17.93,37.52-17.93M146.23,59.76c-20.86,0-37.84,8.19-37.84,18.25s16.97,18.25,37.84,18.25,37.84-8.19,37.84-18.25-16.97-18.25-37.84-18.25h0Z"/>
            </g>
            <g>
              <path class="cls-2" d="M146.23,92.76c-10.37,0-19.92-2.5-25.53-6.7-3.19-2.38-4.88-5.16-4.88-8.04,0-8.13,13.64-14.74,30.42-14.74,10.21,0,19.67,2.44,25.3,6.53,3.34,2.42,5.11,5.25,5.11,8.21,0,8.13-13.64,14.74-30.41,14.74Z"/>
              <path class="cls-8" d="M146.23,63.67c10.48,0,19.7,2.56,25.06,6.46,3.13,2.26,4.95,4.97,4.95,7.88,0,7.92-13.43,14.34-30.01,14.34-10.63,0-19.96-2.64-25.29-6.62-2.99-2.23-4.72-4.88-4.72-7.72,0-7.92,13.44-14.34,30.02-14.34M146.23,62.87c-17.28,0-30.82,6.65-30.82,15.14,0,3.01,1.74,5.91,5.04,8.37,5.68,4.24,15.32,6.78,25.77,6.78,17.27,0,30.81-6.65,30.81-15.14,0-3.09-1.82-6.04-5.28-8.53-5.7-4.14-15.24-6.61-25.53-6.61h0Z"/>
            </g>
          </g>
          <path class="cls-7" d="M176.24,78.01c0,7.92-13.43,14.34-30.01,14.34-10.63,0-19.96-2.64-25.29-6.62,2.9,1.18,6.88,2.69,12.83,3.35,12.94,1.43,24.17-2.36,25.2-2.72,1.7-.59,8.49-3.08,11.62-7.58,2.13-3.06,1.86-6.04.71-8.65,3.13,2.26,4.95,4.97,4.95,7.88Z"/>
        </g>
        <g>
          <g>
            <g>
              <path class="cls-1" d="M231.83,96.1c-20.77,0-37.68-8.11-37.68-18.09s16.9-18.09,37.68-18.09,37.68,8.11,37.68,18.09-16.9,18.09-37.68,18.09Z"/>
              <path class="cls-8" d="M231.83,60.09c20.72,0,37.52,8.03,37.52,17.93s-16.8,17.93-37.52,17.93-37.52-8.03-37.52-17.93,16.8-17.93,37.52-17.93M231.83,59.76c-20.86,0-37.84,8.19-37.84,18.25s16.97,18.25,37.84,18.25,37.84-8.19,37.84-18.25-16.97-18.25-37.84-18.25h0Z"/>
            </g>
            <g>
              <path class="cls-2" d="M231.84,92.76c-10.37,0-19.92-2.5-25.53-6.7-3.19-2.38-4.88-5.16-4.88-8.04,0-8.13,13.64-14.74,30.42-14.74,10.21,0,19.67,2.44,25.3,6.53,3.34,2.42,5.11,5.25,5.11,8.21,0,8.13-13.64,14.74-30.41,14.74Z"/>
              <path class="cls-8" d="M231.84,63.67c10.48,0,19.7,2.56,25.06,6.46,3.13,2.26,4.95,4.97,4.95,7.88,0,7.92-13.43,14.34-30.01,14.34-10.63,0-19.96-2.64-25.29-6.62-2.99-2.23-4.72-4.88-4.72-7.72,0-7.92,13.44-14.34,30.02-14.34M231.84,62.87c-17.28,0-30.82,6.65-30.82,15.14,0,3.01,1.74,5.91,5.04,8.37,5.68,4.24,15.32,6.78,25.77,6.78,17.27,0,30.81-6.65,30.81-15.14,0-3.09-1.82-6.04-5.28-8.53-5.7-4.14-15.24-6.61-25.53-6.61h0Z"/>
            </g>
          </g>
          <path class="cls-7" d="M261.84,78.01c0,7.92-13.43,14.34-30.01,14.34-10.63,0-19.96-2.64-25.29-6.62,2.9,1.18,6.88,2.69,12.83,3.35,12.94,1.43,24.17-2.36,25.2-2.72,1.7-.59,8.49-3.08,11.62-7.58,2.13-3.06,1.86-6.04.71-8.65,3.13,2.26,4.95,4.97,4.95,7.88Z"/>
        </g>
        <g>
          <g>
            <g>
              <path class="cls-1" d="M317.43,96.1c-20.77,0-37.68-8.11-37.68-18.09s16.9-18.09,37.68-18.09,37.68,8.11,37.68,18.09-16.9,18.09-37.68,18.09Z"/>
              <path class="cls-8" d="M317.43,60.09c20.72,0,37.52,8.03,37.52,17.93s-16.8,17.93-37.52,17.93-37.52-8.03-37.52-17.93,16.8-17.93,37.52-17.93M317.43,59.76c-20.86,0-37.84,8.19-37.84,18.25s16.97,18.25,37.84,18.25,37.84-8.19,37.84-18.25-16.97-18.25-37.84-18.25h0Z"/>
            </g>
            <g>
              <path class="cls-2" d="M317.44,92.76c-10.37,0-19.92-2.5-25.53-6.7-3.19-2.38-4.88-5.16-4.88-8.04,0-8.13,13.64-14.74,30.42-14.74,10.21,0,19.67,2.44,25.3,6.53,3.34,2.42,5.11,5.25,5.11,8.21,0,8.13-13.64,14.74-30.41,14.74Z"/>
              <path class="cls-8" d="M317.44,63.67c10.48,0,19.7,2.56,25.06,6.46,3.13,2.26,4.95,4.97,4.95,7.88,0,7.92-13.43,14.34-30.01,14.34-10.63,0-19.96-2.64-25.29-6.62-2.99-2.23-4.72-4.88-4.72-7.72,0-7.92,13.44-14.34,30.02-14.34M317.44,62.87c-17.28,0-30.82,6.65-30.82,15.14,0,3.01,1.74,5.91,5.04,8.37,5.68,4.24,15.32,6.78,25.77,6.78,17.28,0,30.81-6.65,30.81-15.14,0-3.09-1.82-6.04-5.28-8.53-5.7-4.14-15.24-6.61-25.53-6.61h0Z"/>
            </g>
          </g>
          <path class="cls-7" d="M347.44,78.01c0,7.92-13.43,14.34-30.01,14.34-10.63,0-19.96-2.64-25.29-6.62,2.9,1.18,6.88,2.69,12.83,3.35,12.94,1.43,24.17-2.36,25.2-2.72,1.7-.59,8.49-3.08,11.62-7.58,2.13-3.06,1.86-6.04.71-8.65,3.13,2.26,4.95,4.97,4.95,7.88Z"/>
        </g>
        <g>
          <g>
            <g>
              <path class="cls-1" d="M403.03,96.1c-20.77,0-37.68-8.11-37.68-18.09s16.9-18.09,37.68-18.09,37.68,8.11,37.68,18.09-16.9,18.09-37.68,18.09Z"/>
              <path class="cls-8" d="M403.03,60.09c20.72,0,37.52,8.03,37.52,17.93s-16.8,17.93-37.52,17.93-37.52-8.03-37.52-17.93,16.8-17.93,37.52-17.93M403.03,59.76c-20.86,0-37.84,8.19-37.84,18.25s16.97,18.25,37.84,18.25,37.84-8.19,37.84-18.25-16.97-18.25-37.84-18.25h0Z"/>
            </g>
            <g>
              <path class="cls-2" d="M403.04,92.76c-10.37,0-19.92-2.5-25.53-6.7-3.19-2.38-4.88-5.16-4.88-8.04,0-8.13,13.64-14.74,30.42-14.74,10.21,0,19.67,2.44,25.3,6.53,3.34,2.42,5.11,5.25,5.11,8.21,0,8.13-13.64,14.74-30.41,14.74Z"/>
              <path class="cls-8" d="M403.04,63.67c10.48,0,19.7,2.56,25.06,6.46,3.13,2.26,4.95,4.97,4.95,7.88,0,7.92-13.43,14.34-30.01,14.34-10.63,0-19.96-2.64-25.29-6.62-2.99-2.23-4.72-4.88-4.72-7.72,0-7.92,13.44-14.34,30.02-14.34M403.04,62.87c-17.28,0-30.82,6.65-30.82,15.14,0,3.01,1.74,5.91,5.04,8.37,5.68,4.24,15.32,6.78,25.77,6.78,17.28,0,30.81-6.65,30.81-15.14,0-3.09-1.82-6.04-5.28-8.53-5.7-4.14-15.24-6.61-25.53-6.61h0Z"/>
            </g>
          </g>
          <path class="cls-7" d="M433.04,78.01c0,7.92-13.43,14.34-30.01,14.34-10.63,0-19.96-2.64-25.29-6.62,2.9,1.18,6.88,2.69,12.83,3.35,12.94,1.43,24.17-2.36,25.2-2.72,1.7-.59,8.49-3.08,11.62-7.58,2.13-3.06,1.86-6.04.71-8.65,3.13,2.26,4.95,4.97,4.95,7.88Z"/>
        </g>
        <g>
          <g>
            <g>
              <path class="cls-1" d="M488.63,96.1c-20.77,0-37.68-8.11-37.68-18.09s16.9-18.09,37.68-18.09,37.68,8.11,37.68,18.09-16.9,18.09-37.68,18.09Z"/>
              <path class="cls-8" d="M488.63,60.09c20.72,0,37.52,8.03,37.52,17.93s-16.8,17.93-37.52,17.93-37.52-8.03-37.52-17.93,16.8-17.93,37.52-17.93M488.63,59.76c-20.86,0-37.84,8.19-37.84,18.25s16.97,18.25,37.84,18.25,37.84-8.19,37.84-18.25-16.97-18.25-37.84-18.25h0Z"/>
            </g>
            <g>
              <path class="cls-2" d="M488.64,92.76c-10.37,0-19.92-2.5-25.53-6.7-3.19-2.38-4.88-5.16-4.88-8.04,0-8.13,13.64-14.74,30.42-14.74,10.21,0,19.67,2.44,25.3,6.53,3.34,2.42,5.11,5.25,5.11,8.21,0,8.13-13.64,14.74-30.41,14.74Z"/>
              <path class="cls-8" d="M488.64,63.67c10.48,0,19.7,2.56,25.06,6.46,3.13,2.26,4.95,4.97,4.95,7.88,0,7.92-13.43,14.34-30.01,14.34-10.63,0-19.96-2.64-25.29-6.62-2.99-2.23-4.72-4.88-4.72-7.72,0-7.92,13.44-14.34,30.02-14.34M488.64,62.87c-17.28,0-30.82,6.65-30.82,15.14,0,3.01,1.74,5.91,5.04,8.37,5.68,4.24,15.32,6.78,25.77,6.78,17.28,0,30.81-6.65,30.81-15.14,0-3.09-1.82-6.04-5.28-8.53-5.7-4.14-15.24-6.61-25.53-6.61h0Z"/>
            </g>
          </g>
          <path class="cls-7" d="M518.64,78.01c0,7.92-13.43,14.34-30.01,14.34-10.63,0-19.96-2.64-25.29-6.62,2.9,1.18,6.88,2.69,12.83,3.35,12.94,1.43,24.17-2.36,25.2-2.72,1.7-.59,8.49-3.08,11.62-7.58,2.13-3.06,1.86-6.04.71-8.65,3.13,2.26,4.95,4.97,4.95,7.88Z"/>
        </g>
        <g>
          <g>
            <g>
              <path class="cls-1" d="M574.23,96.1c-20.77,0-37.68-8.11-37.68-18.09s16.9-18.09,37.68-18.09,37.68,8.11,37.68,18.09-16.9,18.09-37.68,18.09Z"/>
              <path class="cls-8" d="M574.23,60.09c20.72,0,37.52,8.03,37.52,17.93s-16.8,17.93-37.52,17.93-37.52-8.03-37.52-17.93,16.8-17.93,37.52-17.93M574.23,59.76c-20.86,0-37.84,8.19-37.84,18.25s16.97,18.25,37.84,18.25,37.84-8.19,37.84-18.25-16.97-18.25-37.84-18.25h0Z"/>
            </g>
            <g>
              <path class="cls-2" d="M574.24,92.76c-10.37,0-19.92-2.5-25.53-6.7-3.19-2.38-4.88-5.16-4.88-8.04,0-8.13,13.64-14.74,30.42-14.74,10.21,0,19.67,2.44,25.3,6.53,3.34,2.42,5.11,5.25,5.11,8.21,0,8.13-13.64,14.74-30.41,14.74Z"/>
              <path class="cls-8" d="M574.24,63.67c10.48,0,19.7,2.56,25.06,6.46,3.13,2.26,4.95,4.97,4.95,7.88,0,7.92-13.43,14.34-30.01,14.34-10.63,0-19.96-2.64-25.29-6.62-2.99-2.23-4.72-4.88-4.72-7.72,0-7.92,13.44-14.34,30.02-14.34M574.24,62.87c-17.28,0-30.82,6.65-30.82,15.14,0,3.01,1.74,5.91,5.04,8.37,5.68,4.24,15.32,6.78,25.77,6.78,17.28,0,30.81-6.65,30.81-15.14,0-3.09-1.82-6.04-5.28-8.53-5.7-4.14-15.24-6.61-25.53-6.61h0Z"/>
            </g>
          </g>
          <path class="cls-7" d="M604.24,78.01c0,7.92-13.43,14.34-30.01,14.34-10.63,0-19.96-2.64-25.29-6.62,2.9,1.18,6.88,2.69,12.83,3.35,12.94,1.43,24.17-2.36,25.2-2.72,1.7-.59,8.49-3.08,11.62-7.58,2.13-3.06,1.86-6.04.71-8.65,3.13,2.26,4.95,4.97,4.95,7.88Z"/>
        </g>
      </g>
      <g>
        <g>
          <g>
            <g>
              <path class="cls-1" d="M161.21,46.85c-19.32,0-35.04-7.55-35.04-16.82s15.72-16.82,35.04-16.82,35.04,7.55,35.04,16.82-15.72,16.82-35.04,16.82Z"/>
              <path class="cls-8" d="M161.21,13.35c19.27,0,34.89,7.46,34.89,16.67s-15.62,16.67-34.89,16.67-34.89-7.46-34.89-16.67,15.62-16.67,34.89-16.67M161.21,13.06c-19.4,0-35.19,7.61-35.19,16.97s15.79,16.97,35.19,16.97,35.19-7.61,35.19-16.97-15.79-16.97-35.19-16.97h0Z"/>
            </g>
            <g>
              <path class="cls-2" d="M161.21,43.77c-9.65,0-18.54-2.33-23.76-6.24-2.98-2.22-4.55-4.82-4.55-7.5,0-7.57,12.7-13.74,28.31-13.74,9.5,0,18.3,2.27,23.54,6.08,3.12,2.25,4.76,4.9,4.76,7.65,0,7.58-12.7,13.74-28.31,13.74Z"/>
              <path class="cls-8" d="M161.21,16.69c9.75,0,18.32,2.39,23.31,6,2.91,2.1,4.6,4.62,4.6,7.33,0,7.37-12.49,13.34-27.91,13.34-9.88,0-18.57-2.45-23.52-6.16-2.78-2.07-4.39-4.54-4.39-7.18,0-7.37,12.5-13.34,27.92-13.34M161.21,15.89c-16.1,0-28.72,6.21-28.72,14.14,0,2.82,1.63,5.53,4.71,7.82,5.29,3.95,14.27,6.31,24,6.31,16.1,0,28.71-6.21,28.71-14.14,0-2.89-1.71-5.65-4.93-7.98-5.31-3.85-14.2-6.16-23.78-6.16h0Z"/>
            </g>
          </g>
          <path class="cls-7" d="M189.12,30.03c0,7.37-12.49,13.34-27.91,13.34-9.88,0-18.57-2.45-23.52-6.16,2.7,1.1,6.4,2.5,11.93,3.11,12.03,1.33,22.47-2.2,23.43-2.53,1.58-.55,7.89-2.87,10.81-7.05,1.98-2.85,1.73-5.62.66-8.05,2.91,2.1,4.6,4.62,4.6,7.33Z"/>
        </g>
        <g>
          <g>
            <g>
              <path class="cls-1" d="M240.82,46.85c-19.32,0-35.04-7.55-35.04-16.82s15.72-16.82,35.04-16.82,35.04,7.55,35.04,16.82-15.72,16.82-35.04,16.82Z"/>
              <path class="cls-8" d="M240.82,13.35c19.27,0,34.89,7.46,34.89,16.67s-15.62,16.67-34.89,16.67-34.89-7.46-34.89-16.67,15.62-16.67,34.89-16.67M240.82,13.06c-19.4,0-35.19,7.61-35.19,16.97s15.79,16.97,35.19,16.97,35.19-7.61,35.19-16.97-15.79-16.97-35.19-16.97h0Z"/>
            </g>
            <g>
              <path class="cls-2" d="M240.82,43.77c-9.65,0-18.54-2.33-23.76-6.24-2.98-2.22-4.55-4.82-4.55-7.5,0-7.57,12.7-13.74,28.31-13.74,9.5,0,18.3,2.27,23.54,6.08,3.12,2.25,4.76,4.9,4.76,7.65,0,7.58-12.7,13.74-28.31,13.74Z"/>
              <path class="cls-8" d="M240.82,16.69c9.75,0,18.32,2.39,23.31,6,2.91,2.1,4.6,4.62,4.6,7.33,0,7.37-12.49,13.34-27.91,13.34-9.88,0-18.57-2.45-23.52-6.16-2.78-2.07-4.39-4.54-4.39-7.18,0-7.37,12.5-13.34,27.92-13.34M240.82,15.89c-16.1,0-28.72,6.21-28.72,14.14,0,2.82,1.63,5.53,4.71,7.82,5.29,3.95,14.27,6.31,24,6.31,16.1,0,28.71-6.21,28.71-14.14,0-2.89-1.71-5.65-4.93-7.98-5.31-3.85-14.2-6.16-23.78-6.16h0Z"/>
            </g>
          </g>
          <path class="cls-7" d="M268.73,30.03c0,7.37-12.49,13.34-27.91,13.34-9.88,0-18.57-2.45-23.52-6.16,2.7,1.1,6.4,2.5,11.93,3.11,12.03,1.33,22.47-2.2,23.43-2.53,1.58-.55,7.89-2.87,10.81-7.05,1.98-2.85,1.73-5.62.66-8.05,2.91,2.1,4.6,4.62,4.6,7.33Z"/>
        </g>
        <g>
          <g>
            <g>
              <path class="cls-1" d="M320.43,46.85c-19.32,0-35.04-7.55-35.04-16.82s15.72-16.82,35.04-16.82,35.04,7.55,35.04,16.82-15.72,16.82-35.04,16.82Z"/>
              <path class="cls-8" d="M320.43,13.35c19.27,0,34.89,7.46,34.89,16.67s-15.62,16.67-34.89,16.67-34.89-7.46-34.89-16.67,15.62-16.67,34.89-16.67M320.43,13.06c-19.4,0-35.19,7.61-35.19,16.97s15.79,16.97,35.19,16.97,35.19-7.61,35.19-16.97-15.79-16.97-35.19-16.97h0Z"/>
            </g>
            <g>
              <path class="cls-2" d="M320.43,43.77c-9.65,0-18.54-2.33-23.76-6.24-2.98-2.22-4.55-4.82-4.55-7.5,0-7.57,12.7-13.74,28.31-13.74,9.5,0,18.3,2.27,23.54,6.08,3.12,2.25,4.76,4.9,4.76,7.65,0,7.58-12.7,13.74-28.31,13.74Z"/>
              <path class="cls-8" d="M320.43,16.69c9.75,0,18.32,2.39,23.31,6,2.91,2.1,4.6,4.62,4.6,7.33,0,7.37-12.49,13.34-27.91,13.34-9.88,0-18.57-2.45-23.52-6.16-2.78-2.07-4.39-4.54-4.39-7.18,0-7.37,12.5-13.34,27.92-13.34M320.43,15.89c-16.1,0-28.72,6.21-28.72,14.14,0,2.82,1.63,5.53,4.71,7.82,5.29,3.95,14.27,6.31,24,6.31,16.1,0,28.71-6.21,28.71-14.14,0-2.89-1.71-5.65-4.93-7.98-5.31-3.85-14.2-6.16-23.78-6.16h0Z"/>
            </g>
          </g>
          <path class="cls-7" d="M348.34,30.03c0,7.37-12.49,13.34-27.91,13.34-9.88,0-18.57-2.45-23.52-6.16,2.7,1.1,6.4,2.5,11.93,3.11,12.03,1.33,22.47-2.2,23.43-2.53,1.58-.55,7.89-2.87,10.81-7.05,1.98-2.85,1.73-5.62.66-8.05,2.91,2.1,4.6,4.62,4.6,7.33Z"/>
        </g>
        <g>
          <g>
            <g>
              <path class="cls-1" d="M400.04,46.85c-19.32,0-35.04-7.55-35.04-16.82s15.72-16.82,35.04-16.82,35.04,7.55,35.04,16.82-15.72,16.82-35.04,16.82Z"/>
              <path class="cls-8" d="M400.04,13.35c19.27,0,34.89,7.46,34.89,16.67s-15.62,16.67-34.89,16.67-34.89-7.46-34.89-16.67,15.62-16.67,34.89-16.67M400.04,13.06c-19.4,0-35.19,7.61-35.19,16.97s15.79,16.97,35.19,16.97,35.19-7.61,35.19-16.97-15.79-16.97-35.19-16.97h0Z"/>
            </g>
            <g>
              <path class="cls-2" d="M400.04,43.77c-9.65,0-18.54-2.33-23.76-6.24-2.98-2.22-4.55-4.82-4.55-7.5,0-7.57,12.7-13.74,28.31-13.74,9.5,0,18.3,2.27,23.54,6.08,3.12,2.25,4.76,4.9,4.76,7.65,0,7.58-12.7,13.74-28.31,13.74Z"/>
              <path class="cls-8" d="M400.04,16.69c9.75,0,18.32,2.39,23.31,6,2.91,2.1,4.6,4.62,4.6,7.33,0,7.37-12.49,13.34-27.91,13.34-9.88,0-18.57-2.45-23.52-6.16-2.78-2.07-4.39-4.54-4.39-7.18,0-7.37,12.5-13.34,27.92-13.34M400.04,15.89c-16.1,0-28.72,6.21-28.72,14.14,0,2.82,1.63,5.53,4.71,7.82,5.29,3.95,14.27,6.31,24,6.31,16.1,0,28.71-6.21,28.71-14.14,0-2.89-1.71-5.65-4.93-7.98-5.31-3.85-14.2-6.16-23.78-6.16h0Z"/>
            </g>
          </g>
          <path class="cls-7" d="M427.95,30.03c0,7.37-12.49,13.34-27.91,13.34-9.88,0-18.57-2.45-23.52-6.16,2.7,1.1,6.4,2.5,11.93,3.11,12.03,1.33,22.47-2.2,23.43-2.53,1.58-.55,7.89-2.87,10.81-7.05,1.98-2.85,1.73-5.62.66-8.05,2.91,2.1,4.6,4.62,4.6,7.33Z"/>
        </g>
        <g>
          <g>
            <g>
              <path class="cls-1" d="M479.65,46.85c-19.32,0-35.04-7.55-35.04-16.82s15.72-16.82,35.04-16.82,35.04,7.55,35.04,16.82-15.72,16.82-35.04,16.82Z"/>
              <path class="cls-8" d="M479.65,13.35c19.27,0,34.89,7.46,34.89,16.67s-15.62,16.67-34.89,16.67-34.89-7.46-34.89-16.67,15.62-16.67,34.89-16.67M479.65,13.06c-19.4,0-35.19,7.61-35.19,16.97s15.79,16.97,35.19,16.97,35.19-7.61,35.19-16.97-15.79-16.97-35.19-16.97h0Z"/>
            </g>
            <g>
              <path class="cls-2" d="M479.65,43.77c-9.65,0-18.54-2.33-23.76-6.24-2.98-2.22-4.55-4.82-4.55-7.5,0-7.57,12.7-13.74,28.31-13.74,9.5,0,18.3,2.27,23.54,6.08,3.12,2.25,4.76,4.9,4.76,7.65,0,7.58-12.7,13.74-28.31,13.74Z"/>
              <path class="cls-8" d="M479.65,16.69c9.75,0,18.32,2.39,23.31,6,2.91,2.1,4.6,4.62,4.6,7.33,0,7.37-12.49,13.34-27.91,13.34-9.88,0-18.57-2.45-23.52-6.16-2.78-2.07-4.39-4.54-4.39-7.18,0-7.37,12.5-13.34,27.92-13.34M479.65,15.89c-16.1,0-28.72,6.21-28.72,14.14,0,2.82,1.63,5.53,4.71,7.82,5.29,3.95,14.27,6.31,24,6.31,16.1,0,28.71-6.21,28.71-14.14,0-2.89-1.71-5.65-4.93-7.98-5.31-3.85-14.2-6.16-23.78-6.16h0Z"/>
            </g>
          </g>
          <path class="cls-7" d="M507.56,30.03c0,7.37-12.49,13.34-27.91,13.34-9.88,0-18.57-2.45-23.52-6.16,2.7,1.1,6.4,2.5,11.93,3.11,12.03,1.33,22.47-2.2,23.43-2.53,1.58-.55,7.89-2.87,10.81-7.05,1.98-2.85,1.73-5.62.66-8.05,2.91,2.1,4.6,4.62,4.6,7.33Z"/>
        </g>
        <g>
          <g>
            <g>
              <path class="cls-1" d="M559.25,46.85c-19.32,0-35.04-7.55-35.04-16.82s15.72-16.82,35.04-16.82,35.04,7.55,35.04,16.82-15.72,16.82-35.04,16.82Z"/>
              <path class="cls-8" d="M559.25,13.35c19.27,0,34.89,7.46,34.89,16.67s-15.62,16.67-34.89,16.67-34.89-7.46-34.89-16.67,15.62-16.67,34.89-16.67M559.25,13.06c-19.4,0-35.19,7.61-35.19,16.97s15.79,16.97,35.19,16.97,35.19-7.61,35.19-16.97-15.79-16.97-35.19-16.97h0Z"/>
            </g>
            <g>
              <path class="cls-2" d="M559.26,43.77c-9.65,0-18.54-2.33-23.76-6.24-2.98-2.22-4.55-4.82-4.55-7.5,0-7.57,12.7-13.74,28.31-13.74,9.5,0,18.3,2.27,23.54,6.08,3.12,2.25,4.76,4.9,4.76,7.65,0,7.58-12.7,13.74-28.31,13.74Z"/>
              <path class="cls-8" d="M559.26,16.69c9.75,0,18.32,2.39,23.31,6,2.91,2.1,4.6,4.62,4.6,7.33,0,7.37-12.49,13.34-27.91,13.34-9.88,0-18.57-2.45-23.52-6.16-2.78-2.07-4.39-4.54-4.39-7.18,0-7.37,12.5-13.34,27.92-13.34M559.26,15.89c-16.1,0-28.72,6.21-28.72,14.14,0,2.82,1.63,5.53,4.71,7.82,5.29,3.95,14.27,6.31,24,6.31,16.1,0,28.71-6.21,28.71-14.14,0-2.89-1.71-5.65-4.93-7.98-5.31-3.85-14.2-6.16-23.78-6.16h0Z"/>
            </g>
          </g>
          <path class="cls-7" d="M587.16,30.03c0,7.37-12.49,13.34-27.91,13.34-9.88,0-18.57-2.45-23.52-6.16,2.7,1.1,6.4,2.5,11.93,3.11,12.03,1.33,22.47-2.2,23.43-2.53,1.58-.55,7.89-2.87,10.81-7.05,1.98-2.85,1.73-5.62.66-8.05,2.91,2.1,4.6,4.62,4.6,7.33Z"/>
        </g>
      </g>
    </g>
  </g>
</svg>