<?xml version="1.0" encoding="UTF-8"?>
<svg id="Capa_2" data-name="Capa 2" xmlns="http://www.w3.org/2000/svg" viewBox="0 0 730.25 283.98">
  <defs>
    <style>
      .cls-1 {
        fill: #fff;
      }

      .cls-2 {
        fill: #bccbd2;
        stroke-width: 1.97px;
      }

      .cls-2, .cls-3, .cls-4, .cls-5 {
        stroke: #789;
        stroke-linecap: round;
        stroke-linejoin: round;
      }

      .cls-3 {
        fill: #e6ecef;
        stroke-width: 2.33px;
      }

      .cls-6 {
        fill: #b4c5d1;
      }

      .cls-4 {
        fill: #d6e1e5;
      }

      .cls-4, .cls-5 {
        stroke-width: 2.16px;
      }

      .cls-7 {
        fill: #9bafbc;
      }

      .cls-5 {
        fill: #e1e9ea;
      }

      .cls-8 {
        fill: #5c5d5e;
      }
    </style>
  </defs>
  <g id="Capa_1-2" data-name="Capa 1">
    <g>
      <path class="cls-3" d="M1.17,239.57h727.92v12.63c0,16.9-13.72,30.62-30.62,30.62H31.79c-16.9,0-30.62-13.72-30.62-30.62v-12.63h0Z"/>
      <path class="cls-2" d="M714.55,252.77H15.7c-10.82,0-17.83-11.41-12.95-21.06L99.2,41.19c4.01-7.93,12.15-12.93,21.04-12.92l488.98.33c8.84,0,16.94,4.96,20.96,12.83l97.3,190.23c4.94,9.66-2.07,21.12-12.92,21.12Z"/>
      <rect class="cls-5" x="48.5" y="194.11" width="641.57" height="36.8"/>
      <polygon class="cls-5" points="48.5 203.73 48.5 230.91 36 215.2 36 188.03 44.39 198.57 48.5 203.73"/>
      <path class="cls-4" d="M681.24,203.73H48.5l-4.1-5.16-8.39-10.55L125.37,10.98h0c2.97-6.06,9.14-9.91,15.89-9.91h2.79s441.5,0,441.5,0c6.8,0,12.99,3.89,15.95,10.01l87.17,180.82c2.64,5.47-1.35,11.82-7.43,11.82Z"/>
      <g>
        <g>
          <g>
            <g>
              <path class="cls-1" d="M112.8,191.35c-24.02,0-43.56-9.38-43.56-20.91s19.54-20.91,43.56-20.91,43.56,9.38,43.56,20.91-19.54,20.91-43.56,20.91Z"/>
              <path class="cls-8" d="M112.8,149.71c23.96,0,43.38,9.28,43.38,20.73s-19.42,20.73-43.38,20.73-43.38-9.28-43.38-20.73,19.42-20.73,43.38-20.73M112.8,149.33c-24.12,0-43.75,9.47-43.75,21.1s19.62,21.1,43.75,21.1,43.75-9.47,43.75-21.1-19.62-21.1-43.75-21.1h0Z"/>
            </g>
            <g>
              <path class="cls-6" d="M112.81,187.17c-11.93,0-22.89-2.87-29.33-7.68-3.61-2.69-5.52-5.82-5.52-9.05,0-9.22,15.64-16.73,34.85-16.73,11.74,0,22.6,2.8,29.06,7.49,3.78,2.73,5.78,5.93,5.78,9.23,0,9.23-15.63,16.73-34.84,16.73Z"/>
              <path class="cls-8" d="M112.81,153.85c12.12,0,22.78,2.97,28.98,7.47,3.62,2.61,5.72,5.75,5.72,9.11,0,9.16-15.53,16.58-34.69,16.58-12.29,0-23.08-3.05-29.25-7.65-3.46-2.58-5.46-5.64-5.46-8.93,0-9.16,15.54-16.58,34.7-16.58M112.81,153.56c-19.3,0-35,7.57-35,16.88,0,3.28,1.93,6.45,5.58,9.17,6.47,4.83,17.46,7.71,29.42,7.71,19.29,0,34.99-7.57,34.99-16.88,0-3.36-2.02-6.59-5.84-9.35-6.48-4.71-17.38-7.52-29.15-7.52h0Z"/>
            </g>
          </g>
          <path class="cls-7" d="M147.5,170.43c0,9.16-15.53,16.58-34.69,16.58-12.29,0-23.08-3.05-29.25-7.65,3.36,1.37,7.96,3.11,14.84,3.87,14.96,1.66,27.94-2.73,29.13-3.15,1.97-.68,9.81-3.56,13.44-8.76,2.47-3.54,2.15-6.99.82-10.01,3.62,2.61,5.72,5.75,5.72,9.11Z"/>
        </g>
        <g>
          <g>
            <g>
              <path class="cls-1" d="M211.78,191.35c-24.02,0-43.56-9.38-43.56-20.91s19.54-20.91,43.56-20.91,43.56,9.38,43.56,20.91-19.54,20.91-43.56,20.91Z"/>
              <path class="cls-8" d="M211.78,149.71c23.96,0,43.38,9.28,43.38,20.73s-19.42,20.73-43.38,20.73-43.38-9.28-43.38-20.73,19.42-20.73,43.38-20.73M211.78,149.33c-24.12,0-43.75,9.47-43.75,21.1s19.62,21.1,43.75,21.1,43.75-9.47,43.75-21.1-19.62-21.1-43.75-21.1h0Z"/>
            </g>
            <g>
              <path class="cls-6" d="M211.78,187.17c-11.93,0-22.89-2.87-29.33-7.68-3.61-2.69-5.52-5.82-5.52-9.05,0-9.22,15.63-16.73,34.85-16.73,11.74,0,22.6,2.8,29.06,7.49,3.78,2.73,5.78,5.93,5.78,9.23,0,9.23-15.63,16.73-34.84,16.73Z"/>
              <path class="cls-8" d="M211.78,153.85c12.12,0,22.78,2.97,28.98,7.47,3.62,2.61,5.72,5.75,5.72,9.11,0,9.16-15.53,16.58-34.69,16.58-12.29,0-23.08-3.05-29.25-7.65-3.46-2.58-5.46-5.64-5.46-8.93,0-9.16,15.54-16.58,34.7-16.58M211.78,153.56c-19.3,0-35,7.57-35,16.88,0,3.28,1.93,6.45,5.58,9.17,6.47,4.83,17.46,7.71,29.42,7.71,19.29,0,34.99-7.57,34.99-16.88,0-3.36-2.02-6.59-5.84-9.35-6.48-4.71-17.38-7.52-29.15-7.52h0Z"/>
            </g>
          </g>
          <path class="cls-7" d="M246.47,170.43c0,9.16-15.53,16.58-34.69,16.58-12.29,0-23.08-3.05-29.25-7.65,3.36,1.37,7.96,3.11,14.84,3.87,14.96,1.66,27.94-2.73,29.13-3.15,1.97-.68,9.81-3.56,13.44-8.76,2.47-3.54,2.15-6.99.82-10.01,3.62,2.61,5.72,5.75,5.72,9.11Z"/>
        </g>
        <g>
          <g>
            <g>
              <path class="cls-1" d="M310.75,191.35c-24.02,0-43.56-9.38-43.56-20.91s19.54-20.91,43.56-20.91,43.56,9.38,43.56,20.91-19.54,20.91-43.56,20.91Z"/>
              <path class="cls-8" d="M310.75,149.71c23.96,0,43.38,9.28,43.38,20.73s-19.42,20.73-43.38,20.73-43.38-9.28-43.38-20.73,19.42-20.73,43.38-20.73M310.75,149.33c-24.12,0-43.75,9.47-43.75,21.1s19.62,21.1,43.75,21.1,43.75-9.47,43.75-21.1-19.62-21.1-43.75-21.1h0Z"/>
            </g>
            <g>
              <path class="cls-6" d="M310.75,187.17c-11.93,0-22.89-2.87-29.33-7.68-3.61-2.69-5.52-5.82-5.52-9.05,0-9.22,15.63-16.73,34.85-16.73,11.74,0,22.6,2.8,29.06,7.49,3.78,2.73,5.78,5.93,5.78,9.23,0,9.23-15.63,16.73-34.84,16.73Z"/>
              <path class="cls-8" d="M310.75,153.85c12.12,0,22.78,2.97,28.98,7.47,3.62,2.61,5.72,5.75,5.72,9.11,0,9.16-15.53,16.58-34.69,16.58-12.29,0-23.08-3.05-29.25-7.65-3.46-2.58-5.46-5.64-5.46-8.93,0-9.16,15.54-16.58,34.7-16.58M310.75,153.56c-19.3,0-35,7.57-35,16.88,0,3.28,1.93,6.45,5.58,9.17,6.47,4.83,17.46,7.71,29.42,7.71,19.29,0,34.99-7.57,34.99-16.88,0-3.36-2.02-6.59-5.84-9.35-6.48-4.71-17.38-7.52-29.15-7.52h0Z"/>
            </g>
          </g>
          <path class="cls-7" d="M345.45,170.43c0,9.16-15.53,16.58-34.69,16.58-12.29,0-23.08-3.05-29.25-7.65,3.36,1.37,7.96,3.11,14.84,3.87,14.96,1.66,27.94-2.73,29.13-3.15,1.97-.68,9.81-3.56,13.44-8.76,2.47-3.54,2.15-6.99.82-10.01,3.62,2.61,5.72,5.75,5.72,9.11Z"/>
        </g>
        <g>
          <g>
            <g>
              <path class="cls-1" d="M409.72,191.35c-24.02,0-43.56-9.38-43.56-20.91s19.54-20.91,43.56-20.91,43.56,9.38,43.56,20.91-19.54,20.91-43.56,20.91Z"/>
              <path class="cls-8" d="M409.72,149.71c23.96,0,43.38,9.28,43.38,20.73s-19.42,20.73-43.38,20.73-43.38-9.28-43.38-20.73,19.42-20.73,43.38-20.73M409.72,149.33c-24.12,0-43.75,9.47-43.75,21.1s19.62,21.1,43.75,21.1,43.75-9.47,43.75-21.1-19.62-21.1-43.75-21.1h0Z"/>
            </g>
            <g>
              <path class="cls-6" d="M409.72,187.17c-11.93,0-22.89-2.87-29.33-7.68-3.61-2.69-5.52-5.82-5.52-9.05,0-9.22,15.63-16.73,34.85-16.73,11.74,0,22.6,2.8,29.06,7.49,3.78,2.73,5.78,5.93,5.78,9.23,0,9.23-15.63,16.73-34.84,16.73Z"/>
              <path class="cls-8" d="M409.72,153.85c12.12,0,22.78,2.97,28.98,7.47,3.62,2.61,5.72,5.75,5.72,9.11,0,9.16-15.53,16.58-34.69,16.58-12.29,0-23.08-3.05-29.25-7.65-3.46-2.58-5.46-5.64-5.46-8.93,0-9.16,15.54-16.58,34.7-16.58M409.72,153.56c-19.3,0-35,7.57-35,16.88,0,3.28,1.93,6.45,5.58,9.17,6.47,4.83,17.46,7.71,29.42,7.71,19.29,0,34.99-7.57,34.99-16.88,0-3.36-2.02-6.59-5.84-9.35-6.48-4.71-17.38-7.52-29.15-7.52h0Z"/>
            </g>
          </g>
          <path class="cls-7" d="M444.42,170.43c0,9.16-15.53,16.58-34.69,16.58-12.29,0-23.08-3.05-29.25-7.65,3.36,1.37,7.96,3.11,14.84,3.87,14.96,1.66,27.94-2.73,29.13-3.15,1.97-.68,9.81-3.56,13.44-8.76,2.47-3.54,2.15-6.99.82-10.01,3.62,2.61,5.72,5.75,5.72,9.11Z"/>
        </g>
        <g>
          <g>
            <g>
              <path class="cls-1" d="M508.69,191.35c-24.02,0-43.56-9.38-43.56-20.91s19.54-20.91,43.56-20.91,43.56,9.38,43.56,20.91-19.54,20.91-43.56,20.91Z"/>
              <path class="cls-8" d="M508.69,149.71c23.96,0,43.38,9.28,43.38,20.73s-19.42,20.73-43.38,20.73-43.38-9.28-43.38-20.73,19.42-20.73,43.38-20.73M508.69,149.33c-24.12,0-43.75,9.47-43.75,21.1s19.62,21.1,43.75,21.1,43.75-9.47,43.75-21.1-19.62-21.1-43.75-21.1h0Z"/>
            </g>
            <g>
              <path class="cls-6" d="M508.69,187.17c-11.93,0-22.89-2.87-29.33-7.68-3.61-2.69-5.52-5.82-5.52-9.05,0-9.22,15.64-16.73,34.85-16.73,11.74,0,22.6,2.8,29.06,7.49,3.78,2.73,5.78,5.93,5.78,9.23,0,9.23-15.63,16.73-34.84,16.73Z"/>
              <path class="cls-8" d="M508.69,153.85c12.12,0,22.78,2.97,28.98,7.47,3.62,2.61,5.72,5.75,5.72,9.11,0,9.16-15.53,16.58-34.69,16.58-12.29,0-23.08-3.05-29.25-7.65-3.46-2.58-5.46-5.64-5.46-8.93,0-9.16,15.54-16.58,34.7-16.58M508.69,153.56c-19.3,0-35,7.57-35,16.88,0,3.28,1.93,6.45,5.58,9.17,6.47,4.83,17.46,7.71,29.42,7.71,19.29,0,34.99-7.57,34.99-16.88,0-3.36-2.02-6.59-5.84-9.35-6.48-4.71-17.38-7.52-29.15-7.52h0Z"/>
            </g>
          </g>
          <path class="cls-7" d="M543.39,170.43c0,9.16-15.53,16.58-34.69,16.58-12.29,0-23.08-3.05-29.25-7.65,3.36,1.37,7.96,3.11,14.84,3.87,14.96,1.66,27.94-2.73,29.13-3.15,1.97-.68,9.81-3.56,13.44-8.76,2.47-3.54,2.15-6.99.82-10.01,3.62,2.61,5.72,5.75,5.72,9.11Z"/>
        </g>
        <g>
          <g>
            <g>
              <path class="cls-1" d="M607.66,191.35c-24.02,0-43.56-9.38-43.56-20.91s19.54-20.91,43.56-20.91,43.56,9.38,43.56,20.91-19.54,20.91-43.56,20.91Z"/>
              <path class="cls-8" d="M607.66,149.71c23.96,0,43.38,9.28,43.38,20.73s-19.42,20.73-43.38,20.73-43.38-9.28-43.38-20.73,19.42-20.73,43.38-20.73M607.66,149.33c-24.12,0-43.75,9.47-43.75,21.1s19.62,21.1,43.75,21.1,43.75-9.47,43.75-21.1-19.62-21.1-43.75-21.1h0Z"/>
            </g>
            <g>
              <path class="cls-6" d="M607.67,187.17c-11.93,0-22.89-2.87-29.33-7.68-3.61-2.69-5.52-5.82-5.52-9.05,0-9.22,15.64-16.73,34.85-16.73,11.74,0,22.6,2.8,29.06,7.49,3.78,2.73,5.78,5.93,5.78,9.23,0,9.23-15.63,16.73-34.84,16.73Z"/>
              <path class="cls-8" d="M607.67,153.85c12.12,0,22.78,2.97,28.98,7.47,3.62,2.61,5.72,5.75,5.72,9.11,0,9.16-15.53,16.58-34.69,16.58-12.29,0-23.08-3.05-29.25-7.65-3.46-2.58-5.46-5.64-5.46-8.93,0-9.16,15.54-16.58,34.7-16.58M607.67,153.56c-19.3,0-35,7.57-35,16.88,0,3.28,1.93,6.45,5.58,9.17,6.47,4.83,17.46,7.71,29.42,7.71,19.29,0,34.99-7.57,34.99-16.88,0-3.36-2.02-6.59-5.84-9.35-6.48-4.71-17.38-7.52-29.15-7.52h0Z"/>
            </g>
          </g>
          <path class="cls-7" d="M642.36,170.43c0,9.16-15.53,16.58-34.69,16.58-12.29,0-23.08-3.05-29.25-7.65,3.36,1.37,7.96,3.11,14.84,3.87,14.96,1.66,27.94-2.73,29.13-3.15,1.97-.68,9.81-3.56,13.44-8.76,2.47-3.54,2.15-6.99.82-10.01,3.62,2.61,5.72,5.75,5.72,9.11Z"/>
        </g>
      </g>
      <g>
        <g>
          <g>
            <g>
              <path class="cls-1" d="M130.12,143.67c-22.34,0-40.51-8.73-40.51-19.45s18.17-19.45,40.51-19.45,40.51,8.72,40.51,19.45-18.17,19.45-40.51,19.45Z"/>
              <path class="cls-8" d="M130.12,104.95c22.28,0,40.34,8.63,40.34,19.28s-18.06,19.28-40.34,19.28-40.34-8.63-40.34-19.28,18.06-19.28,40.34-19.28M130.12,104.6c-22.43,0-40.68,8.8-40.68,19.62s18.25,19.62,40.68,19.62,40.68-8.8,40.68-19.62-18.25-19.62-40.68-19.62h0Z"/>
            </g>
            <g>
              <path class="cls-6" d="M130.13,139.78c-11.09,0-21.29-2.67-27.28-7.14-3.36-2.5-5.13-5.41-5.13-8.42,0-8.58,14.54-15.56,32.41-15.56,10.92,0,21.02,2.6,27.03,6.97,3.52,2.54,5.38,5.51,5.38,8.59,0,8.58-14.54,15.56-32.4,15.56Z"/>
              <path class="cls-8" d="M130.13,108.8c11.27,0,21.19,2.76,26.95,6.94,3.36,2.43,5.32,5.35,5.32,8.48,0,8.52-14.44,15.42-32.27,15.42-11.43,0-21.47-2.84-27.2-7.12-3.22-2.4-5.08-5.25-5.08-8.31,0-8.52,14.45-15.42,32.28-15.42M130.13,108.53c-17.95,0-32.55,7.04-32.55,15.7,0,3.05,1.79,6,5.19,8.53,6.01,4.49,16.24,7.17,27.36,7.17,17.94,0,32.54-7.04,32.54-15.7,0-3.12-1.88-6.13-5.43-8.7-6.03-4.38-16.16-7-27.11-7h0Z"/>
            </g>
          </g>
          <path class="cls-7" d="M162.39,124.22c0,8.52-14.44,15.42-32.27,15.42-11.43,0-21.47-2.84-27.2-7.12,3.12,1.27,7.4,2.89,13.8,3.6,13.91,1.54,25.98-2.54,27.09-2.93,1.83-.64,9.12-3.31,12.5-8.15,2.29-3.29,2-6.5.76-9.3,3.36,2.43,5.32,5.35,5.32,8.48Z"/>
        </g>
        <g>
          <g>
            <g>
              <path class="cls-1" d="M222.17,143.67c-22.34,0-40.51-8.73-40.51-19.45s18.17-19.45,40.51-19.45,40.51,8.72,40.51,19.45-18.17,19.45-40.51,19.45Z"/>
              <path class="cls-8" d="M222.17,104.95c22.28,0,40.34,8.63,40.34,19.28s-18.06,19.28-40.34,19.28-40.34-8.63-40.34-19.28,18.06-19.28,40.34-19.28M222.17,104.6c-22.43,0-40.68,8.8-40.68,19.62s18.25,19.62,40.68,19.62,40.68-8.8,40.68-19.62-18.25-19.62-40.68-19.62h0Z"/>
            </g>
            <g>
              <path class="cls-6" d="M222.17,139.78c-11.09,0-21.29-2.67-27.28-7.14-3.36-2.5-5.13-5.41-5.13-8.42,0-8.58,14.54-15.56,32.41-15.56,10.92,0,21.02,2.6,27.03,6.97,3.52,2.54,5.38,5.51,5.38,8.59,0,8.58-14.54,15.56-32.4,15.56Z"/>
              <path class="cls-8" d="M222.17,108.8c11.27,0,21.19,2.76,26.95,6.94,3.36,2.43,5.32,5.35,5.32,8.48,0,8.52-14.44,15.42-32.27,15.42-11.43,0-21.47-2.84-27.2-7.12-3.22-2.4-5.08-5.25-5.08-8.31,0-8.52,14.45-15.42,32.28-15.42M222.17,108.53c-17.95,0-32.55,7.04-32.55,15.7,0,3.05,1.79,6,5.19,8.53,6.01,4.49,16.24,7.17,27.36,7.17,17.94,0,32.54-7.04,32.54-15.7,0-3.12-1.88-6.13-5.43-8.7-6.03-4.38-16.16-7-27.11-7h0Z"/>
            </g>
          </g>
          <path class="cls-7" d="M254.44,124.22c0,8.52-14.44,15.42-32.27,15.42-11.43,0-21.47-2.84-27.2-7.12,3.12,1.27,7.4,2.89,13.8,3.6,13.91,1.54,25.98-2.54,27.09-2.93,1.83-.64,9.12-3.31,12.5-8.15,2.29-3.29,2-6.5.76-9.3,3.36,2.43,5.32,5.35,5.32,8.48Z"/>
        </g>
        <g>
          <g>
            <g>
              <path class="cls-1" d="M314.21,143.67c-22.34,0-40.51-8.73-40.51-19.45s18.17-19.45,40.51-19.45,40.51,8.72,40.51,19.45-18.17,19.45-40.51,19.45Z"/>
              <path class="cls-8" d="M314.21,104.95c22.28,0,40.34,8.63,40.34,19.28s-18.06,19.28-40.34,19.28-40.34-8.63-40.34-19.28,18.06-19.28,40.34-19.28M314.21,104.6c-22.43,0-40.68,8.8-40.68,19.62s18.25,19.62,40.68,19.62,40.68-8.8,40.68-19.62-18.25-19.62-40.68-19.62h0Z"/>
            </g>
            <g>
              <path class="cls-6" d="M314.21,139.78c-11.09,0-21.29-2.67-27.28-7.14-3.36-2.5-5.13-5.41-5.13-8.42,0-8.58,14.54-15.56,32.41-15.56,10.92,0,21.02,2.6,27.03,6.97,3.52,2.54,5.38,5.51,5.38,8.59,0,8.58-14.54,15.56-32.4,15.56Z"/>
              <path class="cls-8" d="M314.21,108.8c11.27,0,21.19,2.76,26.95,6.94,3.36,2.43,5.32,5.35,5.32,8.48,0,8.52-14.44,15.42-32.27,15.42-11.43,0-21.47-2.84-27.2-7.12-3.22-2.4-5.08-5.25-5.08-8.31,0-8.52,14.45-15.42,32.28-15.42M314.21,108.53c-17.95,0-32.55,7.04-32.55,15.7,0,3.05,1.79,6,5.19,8.53,6.01,4.49,16.24,7.17,27.36,7.17,17.94,0,32.54-7.04,32.54-15.7,0-3.12-1.88-6.13-5.43-8.7-6.03-4.38-16.16-7-27.11-7h0Z"/>
            </g>
          </g>
          <path class="cls-7" d="M346.48,124.22c0,8.52-14.44,15.42-32.27,15.42-11.43,0-21.47-2.84-27.2-7.12,3.12,1.27,7.4,2.89,13.8,3.6,13.91,1.54,25.98-2.54,27.09-2.93,1.83-.64,9.12-3.31,12.5-8.15,2.29-3.29,2-6.5.76-9.3,3.36,2.43,5.32,5.35,5.32,8.48Z"/>
        </g>
        <g>
          <g>
            <g>
              <path class="cls-1" d="M406.25,143.67c-22.34,0-40.51-8.73-40.51-19.45s18.17-19.45,40.51-19.45,40.51,8.72,40.51,19.45-18.17,19.45-40.51,19.45Z"/>
              <path class="cls-8" d="M406.25,104.95c22.28,0,40.34,8.63,40.34,19.28s-18.06,19.28-40.34,19.28-40.34-8.63-40.34-19.28,18.06-19.28,40.34-19.28M406.25,104.6c-22.43,0-40.68,8.8-40.68,19.62s18.25,19.62,40.68,19.62,40.68-8.8,40.68-19.62-18.25-19.62-40.68-19.62h0Z"/>
            </g>
            <g>
              <path class="cls-6" d="M406.26,139.78c-11.09,0-21.29-2.67-27.28-7.14-3.36-2.5-5.13-5.41-5.13-8.42,0-8.58,14.54-15.56,32.41-15.56,10.92,0,21.02,2.6,27.03,6.97,3.52,2.54,5.38,5.51,5.38,8.59,0,8.58-14.54,15.56-32.4,15.56Z"/>
              <path class="cls-8" d="M406.26,108.8c11.27,0,21.19,2.76,26.95,6.94,3.36,2.43,5.32,5.35,5.32,8.48,0,8.52-14.44,15.42-32.27,15.42-11.43,0-21.47-2.84-27.2-7.12-3.22-2.4-5.08-5.25-5.08-8.31,0-8.52,14.45-15.42,32.28-15.42M406.26,108.53c-17.95,0-32.55,7.04-32.55,15.7,0,3.05,1.79,6,5.19,8.53,6.01,4.49,16.24,7.17,27.36,7.17,17.94,0,32.54-7.04,32.54-15.7,0-3.12-1.88-6.13-5.43-8.7-6.03-4.38-16.16-7-27.11-7h0Z"/>
            </g>
          </g>
          <path class="cls-7" d="M438.52,124.22c0,8.52-14.44,15.42-32.27,15.42-11.43,0-21.47-2.84-27.2-7.12,3.12,1.27,7.4,2.89,13.8,3.6,13.91,1.54,25.98-2.54,27.09-2.93,1.83-.64,9.12-3.31,12.5-8.15,2.29-3.29,2-6.5.76-9.3,3.36,2.43,5.32,5.35,5.32,8.48Z"/>
        </g>
        <g>
          <g>
            <g>
              <path class="cls-1" d="M498.3,143.67c-22.34,0-40.51-8.73-40.51-19.45s18.17-19.45,40.51-19.45,40.51,8.72,40.51,19.45-18.17,19.45-40.51,19.45Z"/>
              <path class="cls-8" d="M498.3,104.95c22.28,0,40.34,8.63,40.34,19.28s-18.06,19.28-40.34,19.28-40.34-8.63-40.34-19.28,18.06-19.28,40.34-19.28M498.3,104.6c-22.43,0-40.68,8.8-40.68,19.62s18.25,19.62,40.68,19.62,40.68-8.8,40.68-19.62-18.25-19.62-40.68-19.62h0Z"/>
            </g>
            <g>
              <path class="cls-6" d="M498.3,139.78c-11.09,0-21.29-2.67-27.28-7.14-3.36-2.5-5.13-5.41-5.13-8.42,0-8.58,14.54-15.56,32.41-15.56,10.92,0,21.02,2.6,27.03,6.97,3.52,2.54,5.38,5.51,5.38,8.59,0,8.58-14.54,15.56-32.4,15.56Z"/>
              <path class="cls-8" d="M498.3,108.8c11.27,0,21.19,2.76,26.95,6.94,3.36,2.43,5.32,5.35,5.32,8.48,0,8.52-14.44,15.42-32.27,15.42-11.43,0-21.47-2.84-27.2-7.12-3.22-2.4-5.08-5.25-5.08-8.31,0-8.52,14.45-15.42,32.28-15.42M498.3,108.53c-17.95,0-32.55,7.04-32.55,15.7,0,3.05,1.79,6,5.19,8.53,6.01,4.49,16.24,7.17,27.36,7.17,17.94,0,32.54-7.04,32.54-15.7,0-3.12-1.88-6.13-5.43-8.7-6.03-4.38-16.16-7-27.11-7h0Z"/>
            </g>
          </g>
          <path class="cls-7" d="M530.57,124.22c0,8.52-14.44,15.42-32.27,15.42-11.43,0-21.47-2.84-27.2-7.12,3.12,1.27,7.4,2.89,13.8,3.6,13.91,1.54,25.98-2.54,27.09-2.93,1.83-.64,9.12-3.31,12.5-8.15,2.29-3.29,2-6.5.76-9.3,3.36,2.43,5.32,5.35,5.32,8.48Z"/>
        </g>
        <g>
          <g>
            <g>
              <path class="cls-1" d="M590.34,143.67c-22.34,0-40.51-8.73-40.51-19.45s18.17-19.45,40.51-19.45,40.51,8.72,40.51,19.45-18.17,19.45-40.51,19.45Z"/>
              <path class="cls-8" d="M590.34,104.95c22.28,0,40.34,8.63,40.34,19.28s-18.06,19.28-40.34,19.28-40.34-8.63-40.34-19.28,18.06-19.28,40.34-19.28M590.34,104.6c-22.43,0-40.68,8.8-40.68,19.62s18.25,19.62,40.68,19.62,40.68-8.8,40.68-19.62-18.25-19.62-40.68-19.62h0Z"/>
            </g>
            <g>
              <path class="cls-6" d="M590.35,139.78c-11.09,0-21.29-2.67-27.28-7.14-3.36-2.5-5.13-5.41-5.13-8.42,0-8.58,14.54-15.56,32.41-15.56,10.92,0,21.02,2.6,27.03,6.97,3.52,2.54,5.38,5.51,5.38,8.59,0,8.58-14.54,15.56-32.4,15.56Z"/>
              <path class="cls-8" d="M590.35,108.8c11.27,0,21.19,2.76,26.95,6.94,3.36,2.43,5.32,5.35,5.32,8.48,0,8.52-14.44,15.42-32.27,15.42-11.43,0-21.47-2.84-27.2-7.12-3.22-2.4-5.08-5.25-5.08-8.31,0-8.52,14.45-15.42,32.28-15.42M590.35,108.53c-17.95,0-32.55,7.04-32.55,15.7,0,3.05,1.79,6,5.19,8.53,6.01,4.49,16.24,7.17,27.36,7.17,17.94,0,32.54-7.04,32.54-15.7,0-3.12-1.88-6.13-5.43-8.7-6.03-4.38-16.16-7-27.11-7h0Z"/>
            </g>
          </g>
          <path class="cls-7" d="M622.61,124.22c0,8.52-14.44,15.42-32.27,15.42-11.43,0-21.47-2.84-27.2-7.12,3.12,1.27,7.4,2.89,13.8,3.6,13.91,1.54,25.98-2.54,27.09-2.93,1.83-.64,9.12-3.31,12.5-8.15,2.29-3.29,2-6.5.76-9.3,3.36,2.43,5.32,5.35,5.32,8.48Z"/>
        </g>
      </g>
      <g>
        <g>
          <g>
            <g>
              <path class="cls-1" d="M146.23,96.1c-20.77,0-37.68-8.11-37.68-18.09s16.9-18.09,37.68-18.09,37.68,8.11,37.68,18.09-16.9,18.09-37.68,18.09Z"/>
              <path class="cls-8" d="M146.23,60.09c20.72,0,37.52,8.03,37.52,17.93s-16.8,17.93-37.52,17.93-37.52-8.03-37.52-17.93,16.8-17.93,37.52-17.93M146.23,59.77c-20.86,0-37.84,8.19-37.84,18.25s16.97,18.25,37.84,18.25,37.84-8.19,37.84-18.25-16.97-18.25-37.84-18.25h0Z"/>
            </g>
            <g>
              <path class="cls-6" d="M146.23,92.49c-10.32,0-19.8-2.48-25.37-6.65-3.12-2.33-4.77-5.03-4.77-7.83,0-7.98,13.52-14.47,30.14-14.47,10.15,0,19.55,2.42,25.14,6.48,3.27,2.36,5,5.13,5,7.99,0,7.98-13.52,14.47-30.14,14.47Z"/>
              <path class="cls-8" d="M146.23,63.67c10.48,0,19.7,2.56,25.06,6.46,3.13,2.26,4.95,4.97,4.95,7.88,0,7.92-13.43,14.34-30.01,14.34-10.63,0-19.96-2.64-25.29-6.62-2.99-2.23-4.72-4.88-4.72-7.72,0-7.92,13.44-14.34,30.02-14.34M146.23,63.42c-16.69,0-30.27,6.55-30.27,14.6,0,2.83,1.67,5.58,4.83,7.93,5.59,4.18,15.11,6.67,25.45,6.67,16.69,0,30.26-6.55,30.26-14.6,0-2.9-1.75-5.7-5.05-8.09-5.61-4.07-15.03-6.51-25.21-6.51h0Z"/>
            </g>
          </g>
          <path class="cls-7" d="M176.24,78.01c0,7.92-13.43,14.34-30.01,14.34-10.63,0-19.96-2.64-25.29-6.62,2.9,1.18,6.88,2.69,12.83,3.35,12.94,1.43,24.17-2.36,25.2-2.72,1.7-.59,8.49-3.08,11.62-7.58,2.13-3.06,1.86-6.04.71-8.65,3.13,2.26,4.95,4.97,4.95,7.88Z"/>
        </g>
        <g>
          <g>
            <g>
              <path class="cls-1" d="M231.83,96.1c-20.77,0-37.68-8.11-37.68-18.09s16.9-18.09,37.68-18.09,37.68,8.11,37.68,18.09-16.9,18.09-37.68,18.09Z"/>
              <path class="cls-8" d="M231.83,60.09c20.72,0,37.52,8.03,37.52,17.93s-16.8,17.93-37.52,17.93-37.52-8.03-37.52-17.93,16.8-17.93,37.52-17.93M231.83,59.77c-20.86,0-37.84,8.19-37.84,18.25s16.97,18.25,37.84,18.25,37.84-8.19,37.84-18.25-16.97-18.25-37.84-18.25h0Z"/>
            </g>
            <g>
              <path class="cls-6" d="M231.84,92.49c-10.32,0-19.8-2.48-25.37-6.65-3.12-2.33-4.77-5.03-4.77-7.83,0-7.98,13.52-14.47,30.14-14.47,10.15,0,19.55,2.42,25.14,6.48,3.27,2.36,5,5.13,5,7.99,0,7.98-13.52,14.47-30.14,14.47Z"/>
              <path class="cls-8" d="M231.84,63.67c10.48,0,19.7,2.56,25.06,6.46,3.13,2.26,4.95,4.97,4.95,7.88,0,7.92-13.43,14.34-30.01,14.34-10.63,0-19.96-2.64-25.29-6.62-2.99-2.23-4.72-4.88-4.72-7.72,0-7.92,13.44-14.34,30.02-14.34M231.84,63.42c-16.69,0-30.27,6.55-30.27,14.6,0,2.83,1.67,5.58,4.83,7.93,5.59,4.18,15.11,6.67,25.45,6.67,16.69,0,30.26-6.55,30.26-14.6,0-2.9-1.75-5.7-5.05-8.09-5.61-4.07-15.03-6.51-25.21-6.51h0Z"/>
            </g>
          </g>
          <path class="cls-7" d="M261.84,78.01c0,7.92-13.43,14.34-30.01,14.34-10.63,0-19.96-2.64-25.29-6.62,2.9,1.18,6.88,2.69,12.83,3.35,12.94,1.43,24.17-2.36,25.2-2.72,1.7-.59,8.49-3.08,11.62-7.58,2.13-3.06,1.86-6.04.71-8.65,3.13,2.26,4.95,4.97,4.95,7.88Z"/>
        </g>
        <g>
          <g>
            <g>
              <path class="cls-1" d="M317.43,96.1c-20.77,0-37.68-8.11-37.68-18.09s16.9-18.09,37.68-18.09,37.68,8.11,37.68,18.09-16.9,18.09-37.68,18.09Z"/>
              <path class="cls-8" d="M317.43,60.09c20.72,0,37.52,8.03,37.52,17.93s-16.8,17.93-37.52,17.93-37.52-8.03-37.52-17.93,16.8-17.93,37.52-17.93M317.43,59.77c-20.86,0-37.84,8.19-37.84,18.25s16.97,18.25,37.84,18.25,37.84-8.19,37.84-18.25-16.97-18.25-37.84-18.25h0Z"/>
            </g>
            <g>
              <path class="cls-6" d="M317.44,92.49c-10.32,0-19.8-2.48-25.37-6.65-3.12-2.33-4.77-5.03-4.77-7.83,0-7.98,13.52-14.47,30.14-14.47,10.15,0,19.55,2.42,25.14,6.48,3.27,2.36,5,5.13,5,7.99,0,7.98-13.52,14.47-30.14,14.47Z"/>
              <path class="cls-8" d="M317.44,63.67c10.48,0,19.7,2.56,25.06,6.46,3.13,2.26,4.95,4.97,4.95,7.88,0,7.92-13.43,14.34-30.01,14.34-10.63,0-19.96-2.64-25.29-6.62-2.99-2.23-4.72-4.88-4.72-7.72,0-7.92,13.44-14.34,30.02-14.34M317.44,63.42c-16.69,0-30.27,6.55-30.27,14.6,0,2.83,1.67,5.58,4.83,7.93,5.59,4.18,15.11,6.67,25.45,6.67,16.69,0,30.26-6.55,30.26-14.6,0-2.9-1.75-5.7-5.05-8.09-5.61-4.07-15.03-6.51-25.21-6.51h0Z"/>
            </g>
          </g>
          <path class="cls-7" d="M347.44,78.01c0,7.92-13.43,14.34-30.01,14.34-10.63,0-19.96-2.64-25.29-6.62,2.9,1.18,6.88,2.69,12.83,3.35,12.94,1.43,24.17-2.36,25.2-2.72,1.7-.59,8.49-3.08,11.62-7.58,2.13-3.06,1.86-6.04.71-8.65,3.13,2.26,4.95,4.97,4.95,7.88Z"/>
        </g>
        <g>
          <g>
            <g>
              <path class="cls-1" d="M403.03,96.1c-20.77,0-37.68-8.11-37.68-18.09s16.9-18.09,37.68-18.09,37.68,8.11,37.68,18.09-16.9,18.09-37.68,18.09Z"/>
              <path class="cls-8" d="M403.03,60.09c20.72,0,37.52,8.03,37.52,17.93s-16.8,17.93-37.52,17.93-37.52-8.03-37.52-17.93,16.8-17.93,37.52-17.93M403.03,59.77c-20.86,0-37.84,8.19-37.84,18.25s16.97,18.25,37.84,18.25,37.84-8.19,37.84-18.25-16.97-18.25-37.84-18.25h0Z"/>
            </g>
            <g>
              <path class="cls-6" d="M403.04,92.49c-10.32,0-19.8-2.48-25.37-6.65-3.12-2.33-4.77-5.03-4.77-7.83,0-7.98,13.52-14.47,30.14-14.47,10.15,0,19.55,2.42,25.14,6.48,3.27,2.36,5,5.13,5,7.99,0,7.98-13.52,14.47-30.14,14.47Z"/>
              <path class="cls-8" d="M403.04,63.67c10.48,0,19.7,2.56,25.06,6.46,3.13,2.26,4.95,4.97,4.95,7.88,0,7.92-13.43,14.34-30.01,14.34-10.63,0-19.96-2.64-25.29-6.62-2.99-2.23-4.72-4.88-4.72-7.72,0-7.92,13.44-14.34,30.02-14.34M403.04,63.42c-16.69,0-30.27,6.55-30.27,14.6,0,2.83,1.67,5.58,4.83,7.93,5.59,4.18,15.11,6.67,25.45,6.67,16.69,0,30.26-6.55,30.26-14.6,0-2.9-1.75-5.7-5.05-8.09-5.61-4.07-15.03-6.51-25.21-6.51h0Z"/>
            </g>
          </g>
          <path class="cls-7" d="M433.04,78.01c0,7.92-13.43,14.34-30.01,14.34-10.63,0-19.96-2.64-25.29-6.62,2.9,1.18,6.88,2.69,12.83,3.35,12.94,1.43,24.17-2.36,25.2-2.72,1.7-.59,8.49-3.08,11.62-7.58,2.13-3.06,1.86-6.04.71-8.65,3.13,2.26,4.95,4.97,4.95,7.88Z"/>
        </g>
        <g>
          <g>
            <g>
              <path class="cls-1" d="M488.63,96.1c-20.77,0-37.68-8.11-37.68-18.09s16.9-18.09,37.68-18.09,37.68,8.11,37.68,18.09-16.9,18.09-37.68,18.09Z"/>
              <path class="cls-8" d="M488.63,60.09c20.72,0,37.52,8.03,37.52,17.93s-16.8,17.93-37.52,17.93-37.52-8.03-37.52-17.93,16.8-17.93,37.52-17.93M488.63,59.77c-20.86,0-37.84,8.19-37.84,18.25s16.97,18.25,37.84,18.25,37.84-8.19,37.84-18.25-16.97-18.25-37.84-18.25h0Z"/>
            </g>
            <g>
              <path class="cls-6" d="M488.64,92.49c-10.32,0-19.8-2.48-25.37-6.65-3.12-2.33-4.77-5.03-4.77-7.83,0-7.98,13.52-14.47,30.14-14.47,10.15,0,19.55,2.42,25.14,6.48,3.27,2.36,5,5.13,5,7.99,0,7.98-13.52,14.47-30.14,14.47Z"/>
              <path class="cls-8" d="M488.64,63.67c10.48,0,19.7,2.56,25.06,6.46,3.13,2.26,4.95,4.97,4.95,7.88,0,7.92-13.43,14.34-30.01,14.34-10.63,0-19.96-2.64-25.29-6.62-2.99-2.23-4.72-4.88-4.72-7.72,0-7.92,13.44-14.34,30.02-14.34M488.64,63.42c-16.69,0-30.27,6.55-30.27,14.6,0,2.83,1.67,5.58,4.83,7.93,5.59,4.18,15.11,6.67,25.45,6.67,16.69,0,30.26-6.55,30.26-14.6,0-2.9-1.75-5.7-5.05-8.09-5.61-4.07-15.03-6.51-25.21-6.51h0Z"/>
            </g>
          </g>
          <path class="cls-7" d="M518.64,78.01c0,7.92-13.43,14.34-30.01,14.34-10.63,0-19.96-2.64-25.29-6.62,2.9,1.18,6.88,2.69,12.83,3.35,12.94,1.43,24.17-2.36,25.2-2.72,1.7-.59,8.49-3.08,11.62-7.58,2.13-3.06,1.86-6.04.71-8.65,3.13,2.26,4.95,4.97,4.95,7.88Z"/>
        </g>
        <g>
          <g>
            <g>
              <path class="cls-1" d="M574.23,96.1c-20.77,0-37.68-8.11-37.68-18.09s16.9-18.09,37.68-18.09,37.68,8.11,37.68,18.09-16.9,18.09-37.68,18.09Z"/>
              <path class="cls-8" d="M574.23,60.09c20.72,0,37.52,8.03,37.52,17.93s-16.8,17.93-37.52,17.93-37.52-8.03-37.52-17.93,16.8-17.93,37.52-17.93M574.23,59.77c-20.86,0-37.84,8.19-37.84,18.25s16.97,18.25,37.84,18.25,37.84-8.19,37.84-18.25-16.97-18.25-37.84-18.25h0Z"/>
            </g>
            <g>
              <path class="cls-6" d="M574.24,92.49c-10.32,0-19.8-2.48-25.37-6.65-3.12-2.33-4.77-5.03-4.77-7.83,0-7.98,13.52-14.47,30.15-14.47,10.15,0,19.55,2.42,25.14,6.48,3.27,2.36,5,5.13,5,7.99,0,7.98-13.52,14.47-30.14,14.47Z"/>
              <path class="cls-8" d="M574.24,63.67c10.48,0,19.7,2.56,25.06,6.46,3.13,2.26,4.95,4.97,4.95,7.88,0,7.92-13.43,14.34-30.01,14.34-10.63,0-19.96-2.64-25.29-6.62-2.99-2.23-4.72-4.88-4.72-7.72,0-7.92,13.44-14.34,30.02-14.34M574.24,63.42c-16.69,0-30.27,6.55-30.27,14.6,0,2.83,1.67,5.58,4.83,7.93,5.59,4.18,15.11,6.67,25.45,6.67,16.69,0,30.26-6.55,30.26-14.6,0-2.9-1.75-5.7-5.05-8.09-5.61-4.07-15.03-6.51-25.21-6.51h0Z"/>
            </g>
          </g>
          <path class="cls-7" d="M604.24,78.01c0,7.92-13.43,14.34-30.01,14.34-10.63,0-19.96-2.64-25.29-6.62,2.9,1.18,6.88,2.69,12.83,3.35,12.94,1.43,24.17-2.36,25.2-2.72,1.7-.59,8.49-3.08,11.62-7.58,2.13-3.06,1.86-6.04.71-8.65,3.13,2.26,4.95,4.97,4.95,7.88Z"/>
        </g>
      </g>
      <g>
        <g>
          <g>
            <g>
              <path class="cls-1" d="M161.21,46.85c-19.32,0-35.04-7.55-35.04-16.82s15.72-16.82,35.04-16.82,35.04,7.55,35.04,16.82-15.72,16.82-35.04,16.82Z"/>
              <path class="cls-8" d="M161.21,13.35c19.27,0,34.89,7.46,34.89,16.67s-15.62,16.67-34.89,16.67-34.89-7.46-34.89-16.67,15.62-16.67,34.89-16.67M161.21,13.06c-19.4,0-35.19,7.61-35.19,16.97s15.79,16.97,35.19,16.97,35.19-7.61,35.19-16.97-15.79-16.97-35.19-16.97h0Z"/>
            </g>
            <g>
              <path class="cls-6" d="M161.21,43.49c-9.59,0-18.41-2.31-23.6-6.18-2.9-2.17-4.44-4.68-4.44-7.28,0-7.42,12.58-13.46,28.03-13.46,9.44,0,18.18,2.25,23.38,6.03,3.04,2.2,4.65,4.77,4.65,7.43,0,7.42-12.57,13.46-28.03,13.46Z"/>
              <path class="cls-8" d="M161.21,16.69c9.75,0,18.32,2.39,23.31,6,2.91,2.1,4.6,4.62,4.6,7.33,0,7.37-12.49,13.34-27.91,13.34-9.88,0-18.57-2.45-23.52-6.16-2.78-2.07-4.39-4.54-4.39-7.18,0-7.37,12.5-13.34,27.92-13.34M161.21,16.45c-15.52,0-28.15,6.09-28.15,13.57,0,2.64,1.55,5.19,4.49,7.38,5.2,3.88,14.05,6.2,23.67,6.2,15.52,0,28.15-6.09,28.15-13.58,0-2.7-1.62-5.3-4.7-7.52-5.22-3.79-13.98-6.05-23.45-6.05h0Z"/>
            </g>
          </g>
          <path class="cls-7" d="M189.12,30.03c0,7.37-12.49,13.34-27.91,13.34-9.88,0-18.57-2.45-23.52-6.16,2.7,1.1,6.4,2.5,11.93,3.11,12.03,1.33,22.47-2.2,23.43-2.53,1.58-.55,7.89-2.87,10.81-7.05,1.98-2.85,1.73-5.62.66-8.05,2.91,2.1,4.6,4.62,4.6,7.33Z"/>
        </g>
        <g>
          <g>
            <g>
              <path class="cls-1" d="M240.82,46.85c-19.32,0-35.04-7.55-35.04-16.82s15.72-16.82,35.04-16.82,35.04,7.55,35.04,16.82-15.72,16.82-35.04,16.82Z"/>
              <path class="cls-8" d="M240.82,13.35c19.27,0,34.89,7.46,34.89,16.67s-15.62,16.67-34.89,16.67-34.89-7.46-34.89-16.67,15.62-16.67,34.89-16.67M240.82,13.06c-19.4,0-35.19,7.61-35.19,16.97s15.79,16.97,35.19,16.97,35.19-7.61,35.19-16.97-15.79-16.97-35.19-16.97h0Z"/>
            </g>
            <g>
              <path class="cls-6" d="M240.82,43.49c-9.59,0-18.41-2.31-23.59-6.18-2.9-2.17-4.44-4.68-4.44-7.28,0-7.42,12.58-13.46,28.03-13.46,9.44,0,18.18,2.25,23.38,6.03,3.04,2.2,4.65,4.77,4.65,7.43,0,7.42-12.57,13.46-28.03,13.46Z"/>
              <path class="cls-8" d="M240.82,16.69c9.75,0,18.32,2.39,23.31,6,2.91,2.1,4.6,4.62,4.6,7.33,0,7.37-12.49,13.34-27.91,13.34-9.88,0-18.57-2.45-23.52-6.16-2.78-2.07-4.39-4.54-4.39-7.18,0-7.37,12.5-13.34,27.92-13.34M240.82,16.45c-15.52,0-28.15,6.09-28.15,13.57,0,2.64,1.55,5.19,4.49,7.38,5.2,3.88,14.05,6.2,23.67,6.2,15.52,0,28.15-6.09,28.15-13.58,0-2.7-1.62-5.3-4.7-7.52-5.22-3.79-13.98-6.05-23.45-6.05h0Z"/>
            </g>
          </g>
          <path class="cls-7" d="M268.73,30.03c0,7.37-12.49,13.34-27.91,13.34-9.88,0-18.57-2.45-23.52-6.16,2.7,1.1,6.4,2.5,11.93,3.11,12.03,1.33,22.47-2.2,23.43-2.53,1.58-.55,7.89-2.87,10.81-7.05,1.98-2.85,1.73-5.62.66-8.05,2.91,2.1,4.6,4.62,4.6,7.33Z"/>
        </g>
        <g>
          <g>
            <g>
              <path class="cls-1" d="M320.43,46.85c-19.32,0-35.04-7.55-35.04-16.82s15.72-16.82,35.04-16.82,35.04,7.55,35.04,16.82-15.72,16.82-35.04,16.82Z"/>
              <path class="cls-8" d="M320.43,13.35c19.27,0,34.89,7.46,34.89,16.67s-15.62,16.67-34.89,16.67-34.89-7.46-34.89-16.67,15.62-16.67,34.89-16.67M320.43,13.06c-19.4,0-35.19,7.61-35.19,16.97s15.79,16.97,35.19,16.97,35.19-7.61,35.19-16.97-15.79-16.97-35.19-16.97h0Z"/>
            </g>
            <g>
              <path class="cls-6" d="M320.43,43.49c-9.59,0-18.41-2.31-23.59-6.18-2.9-2.17-4.44-4.68-4.44-7.28,0-7.42,12.58-13.46,28.03-13.46,9.44,0,18.18,2.25,23.38,6.03,3.04,2.2,4.65,4.77,4.65,7.43,0,7.42-12.57,13.46-28.03,13.46Z"/>
              <path class="cls-8" d="M320.43,16.69c9.75,0,18.32,2.39,23.31,6,2.91,2.1,4.6,4.62,4.6,7.33,0,7.37-12.49,13.34-27.91,13.34-9.88,0-18.57-2.45-23.52-6.16-2.78-2.07-4.39-4.54-4.39-7.18,0-7.37,12.5-13.34,27.92-13.34M320.43,16.45c-15.52,0-28.15,6.09-28.15,13.57,0,2.64,1.55,5.19,4.49,7.38,5.2,3.88,14.05,6.2,23.67,6.2,15.52,0,28.15-6.09,28.15-13.58,0-2.7-1.62-5.3-4.7-7.52-5.22-3.79-13.98-6.05-23.45-6.05h0Z"/>
            </g>
          </g>
          <path class="cls-7" d="M348.34,30.03c0,7.37-12.49,13.34-27.91,13.34-9.88,0-18.57-2.45-23.52-6.16,2.7,1.1,6.4,2.5,11.93,3.11,12.03,1.33,22.47-2.2,23.43-2.53,1.58-.55,7.89-2.87,10.81-7.05,1.98-2.85,1.73-5.62.66-8.05,2.91,2.1,4.6,4.62,4.6,7.33Z"/>
        </g>
        <g>
          <g>
            <g>
              <path class="cls-1" d="M400.04,46.85c-19.32,0-35.04-7.55-35.04-16.82s15.72-16.82,35.04-16.82,35.04,7.55,35.04,16.82-15.72,16.82-35.04,16.82Z"/>
              <path class="cls-8" d="M400.04,13.35c19.27,0,34.89,7.46,34.89,16.67s-15.62,16.67-34.89,16.67-34.89-7.46-34.89-16.67,15.62-16.67,34.89-16.67M400.04,13.06c-19.4,0-35.19,7.61-35.19,16.97s15.79,16.97,35.19,16.97,35.19-7.61,35.19-16.97-15.79-16.97-35.19-16.97h0Z"/>
            </g>
            <g>
              <path class="cls-6" d="M400.04,43.49c-9.59,0-18.41-2.31-23.59-6.18-2.9-2.17-4.44-4.68-4.44-7.28,0-7.42,12.58-13.46,28.03-13.46,9.44,0,18.18,2.25,23.38,6.03,3.04,2.2,4.65,4.77,4.65,7.43,0,7.42-12.57,13.46-28.03,13.46Z"/>
              <path class="cls-8" d="M400.04,16.69c9.75,0,18.32,2.39,23.31,6,2.91,2.1,4.6,4.62,4.6,7.33,0,7.37-12.49,13.34-27.91,13.34-9.88,0-18.57-2.45-23.52-6.16-2.78-2.07-4.39-4.54-4.39-7.18,0-7.37,12.5-13.34,27.92-13.34M400.04,16.45c-15.52,0-28.15,6.09-28.15,13.57,0,2.64,1.55,5.19,4.49,7.38,5.2,3.88,14.05,6.2,23.67,6.2,15.52,0,28.15-6.09,28.15-13.58,0-2.7-1.62-5.3-4.7-7.52-5.22-3.79-13.98-6.05-23.45-6.05h0Z"/>
            </g>
          </g>
          <path class="cls-7" d="M427.95,30.03c0,7.37-12.49,13.34-27.91,13.34-9.88,0-18.57-2.45-23.52-6.16,2.7,1.1,6.4,2.5,11.93,3.11,12.03,1.33,22.47-2.2,23.43-2.53,1.58-.55,7.89-2.87,10.81-7.05,1.98-2.85,1.73-5.62.66-8.05,2.91,2.1,4.6,4.62,4.6,7.33Z"/>
        </g>
        <g>
          <g>
            <g>
              <path class="cls-1" d="M479.65,46.85c-19.32,0-35.04-7.55-35.04-16.82s15.72-16.82,35.04-16.82,35.04,7.55,35.04,16.82-15.72,16.82-35.04,16.82Z"/>
              <path class="cls-8" d="M479.65,13.35c19.27,0,34.89,7.46,34.89,16.67s-15.62,16.67-34.89,16.67-34.89-7.46-34.89-16.67,15.62-16.67,34.89-16.67M479.65,13.06c-19.4,0-35.19,7.61-35.19,16.97s15.79,16.97,35.19,16.97,35.19-7.61,35.19-16.97-15.79-16.97-35.19-16.97h0Z"/>
            </g>
            <g>
              <path class="cls-6" d="M479.65,43.49c-9.59,0-18.41-2.31-23.6-6.18-2.9-2.17-4.44-4.68-4.44-7.28,0-7.42,12.58-13.46,28.03-13.46,9.44,0,18.18,2.25,23.38,6.03,3.04,2.2,4.65,4.77,4.65,7.43,0,7.42-12.57,13.46-28.03,13.46Z"/>
              <path class="cls-8" d="M479.65,16.69c9.75,0,18.32,2.39,23.31,6,2.91,2.1,4.6,4.62,4.6,7.33,0,7.37-12.49,13.34-27.91,13.34-9.88,0-18.57-2.45-23.52-6.16-2.78-2.07-4.39-4.54-4.39-7.18,0-7.37,12.5-13.34,27.92-13.34M479.65,16.45c-15.52,0-28.15,6.09-28.15,13.57,0,2.64,1.55,5.19,4.49,7.38,5.2,3.88,14.05,6.2,23.67,6.2,15.52,0,28.15-6.09,28.15-13.58,0-2.7-1.62-5.3-4.7-7.52-5.22-3.79-13.98-6.05-23.45-6.05h0Z"/>
            </g>
          </g>
          <path class="cls-7" d="M507.56,30.03c0,7.37-12.49,13.34-27.91,13.34-9.88,0-18.57-2.45-23.52-6.16,2.7,1.1,6.4,2.5,11.93,3.11,12.03,1.33,22.47-2.2,23.43-2.53,1.58-.55,7.89-2.87,10.81-7.05,1.98-2.85,1.73-5.62.66-8.05,2.91,2.1,4.6,4.62,4.6,7.33Z"/>
        </g>
        <g>
          <g>
            <g>
              <path class="cls-1" d="M559.25,46.85c-19.32,0-35.04-7.55-35.04-16.82s15.72-16.82,35.04-16.82,35.04,7.55,35.04,16.82-15.72,16.82-35.04,16.82Z"/>
              <path class="cls-8" d="M559.25,13.35c19.27,0,34.89,7.46,34.89,16.67s-15.62,16.67-34.89,16.67-34.89-7.46-34.89-16.67,15.62-16.67,34.89-16.67M559.25,13.06c-19.4,0-35.19,7.61-35.19,16.97s15.79,16.97,35.19,16.97,35.19-7.61,35.19-16.97-15.79-16.97-35.19-16.97h0Z"/>
            </g>
            <g>
              <path class="cls-6" d="M559.26,43.49c-9.59,0-18.41-2.31-23.6-6.18-2.9-2.17-4.44-4.68-4.44-7.28,0-7.42,12.58-13.46,28.03-13.46,9.44,0,18.18,2.25,23.38,6.03,3.04,2.2,4.65,4.77,4.65,7.43,0,7.42-12.57,13.46-28.03,13.46Z"/>
              <path class="cls-8" d="M559.26,16.69c9.75,0,18.32,2.39,23.31,6,2.91,2.1,4.6,4.62,4.6,7.33,0,7.37-12.49,13.34-27.91,13.34-9.88,0-18.57-2.45-23.52-6.16-2.78-2.07-4.39-4.54-4.39-7.18,0-7.37,12.5-13.34,27.92-13.34M559.26,16.45c-15.52,0-28.15,6.09-28.15,13.57,0,2.64,1.55,5.19,4.49,7.38,5.2,3.88,14.05,6.2,23.67,6.2,15.52,0,28.15-6.09,28.15-13.58,0-2.7-1.62-5.3-4.7-7.52-5.22-3.79-13.98-6.05-23.45-6.05h0Z"/>
            </g>
          </g>
          <path class="cls-7" d="M587.16,30.03c0,7.37-12.49,13.34-27.91,13.34-9.88,0-18.57-2.45-23.52-6.16,2.7,1.1,6.4,2.5,11.93,3.11,12.03,1.33,22.47-2.2,23.43-2.53,1.58-.55,7.89-2.87,10.81-7.05,1.98-2.85,1.73-5.62.66-8.05,2.91,2.1,4.6,4.62,4.6,7.33Z"/>
        </g>
      </g>
    </g>
  </g>
</svg>