<?xml version="1.0" encoding="UTF-8"?>
<svg id="Capa_2" data-name="Capa 2" xmlns="http://www.w3.org/2000/svg" viewBox="0 0 195.57 681.79">
  <defs>
    <style>
      .cls-1 {
        fill: #bccbd2;
      }

      .cls-2 {
        fill: #214e7c;
      }

      .cls-3 {
        fill: #5c98ad;
      }

      .cls-4 {
        fill: #1f3c56;
      }

      .cls-5 {
        fill: #778592;
      }

      .cls-6 {
        fill: #679fb7;
      }

      .cls-7 {
        fill: #efefef;
      }

      .cls-8 {
        fill: #97a8af;
      }

      .cls-9 {
        fill: #2c5d98;
      }

      .cls-10 {
        fill: #81b6c9;
      }

      .cls-11 {
        fill: #abd3dd;
      }

      .cls-12 {
        fill: #eef2f6;
      }

      .cls-13 {
        opacity: .83;
      }

      .cls-14 {
        fill: #d6e1e5;
      }
    </style>
  </defs>
  <g id="Capa_1-2" data-name="Capa 1">
    <g>
      <g>
        <path class="cls-14" d="M96.78,679.29c-15.14,0-28.89-8.94-35.03-22.78l-31.78-71.67c-7.61-17.14-11.46-35.35-11.46-54.11V95.54c0-1.38,1.12-2.5,2.5-2.5h152.58c1.38,0,2.5,1.12,2.5,2.5v434.57c0,19.17-4.02,37.75-11.95,55.21l-32.47,71.5c-6.2,13.65-19.89,22.47-34.89,22.47Z"/>
        <path class="cls-5" d="M173.59,95.54v434.57c0,18.69-4,37.16-11.73,54.18l-32.47,71.5c-5.81,12.79-18.56,21-32.61,21s-27-8.35-32.74-21.29l-2.33-5.25-29.45-66.42c-7.42-16.72-11.25-34.81-11.25-53.1V95.54h152.58M173.59,90.54H21.01c-2.76,0-5,2.24-5,5v435.19c0,19.12,3.93,37.66,11.68,55.13l29.45,66.42,2.33,5.25c6.54,14.74,21.18,24.26,37.31,24.26s30.56-9.39,37.16-23.93l32.47-71.5c8.08-17.79,12.18-36.72,12.18-56.25V95.54c0-2.76-2.24-5-5-5h0Z"/>
      </g>
      <path class="cls-10" d="M173.59,311.16v218.95c0,18.69-4,37.16-11.73,54.18l-32.47,71.5c-5.81,12.79-18.56,21-32.61,21s-27-8.35-32.74-21.29l-2.33-5.25-29.45-66.42c-7.42-16.72-11.25-34.81-11.25-53.1v-219.57c0-4.11,34.16-7.44,76.29-7.44,18.85,0,36.11.66,49.42,1.77,16.44,1.37,26.87,3.4,26.87,5.67Z"/>
      <g>
        <path class="cls-9" d="M5.05,71.91h185.48c1.39,0,2.52,1.13,2.52,2.52v14.76c0,1.39-1.13,2.52-2.52,2.52H5.05c-1.39,0-2.52-1.13-2.52-2.52v-14.76c0-1.39,1.13-2.52,2.52-2.52Z"/>
        <path class="cls-4" d="M190.53,74.43v14.76H5.05v-14.76h185.48M190.53,69.38H5.05c-2.79,0-5.05,2.26-5.05,5.05v14.76c0,2.79,2.26,5.05,5.05,5.05h185.48c2.79,0,5.05-2.26,5.05-5.05v-14.76c0-2.79-2.26-5.05-5.05-5.05h0Z"/>
      </g>
      <g>
        <path class="cls-9" d="M10.52,70.93c-1.38,0-2.5-1.12-2.5-2.5V26.26C8.02,13.16,18.68,2.5,31.78,2.5h133.01c13.1,0,23.76,10.66,23.76,23.76v42.17c0,1.38-1.12,2.5-2.5,2.5H10.52Z"/>
        <path class="cls-4" d="M164.79,5c11.74,0,21.26,9.52,21.26,21.26v42.17H10.52V26.26c0-11.74,9.52-21.26,21.26-21.26h133.01M164.79,0H31.78C17.3,0,5.52,11.78,5.52,26.26v42.17c0,2.76,2.24,5,5,5h175.53c2.76,0,5-2.24,5-5V26.26c0-14.48-11.78-26.26-26.26-26.26h0Z"/>
      </g>
      <path class="cls-1" d="M173.59,95.54v215.62c0-2.27-10.43-4.3-26.87-5.67.07-36.56.05-74.84-.28-124.4-.26-38.72.06-45.54-1.44-62.61-.82-9.38-1.75-16.88-2.59-22.94h31.18Z"/>
      <path class="cls-6" d="M173.59,311.16v218.95c0,18.69-4,37.16-11.73,54.18l-32.47,71.5c-5.81,12.79-18.56,21-32.61,21s-27-8.35-32.74-21.29l-2.33-5.25c4.77,1.44,10.09,2.19,15.86,1.71,3-.26,13.98-1.5,24-9.66,12.66-10.31,15.9-25.28,17.74-33.65,18.98-86.73,16.82-62,19.82-87.65,6.42-54.77,7.31-84.52,7.31-84.52,0-50.64.2-89.72.28-130.99,16.44,1.37,26.87,3.4,26.87,5.67Z"/>
      <rect class="cls-8" x="122.35" y="116.56" width="49.7" height="2.74"/>
      <rect class="cls-8" x="149.1" y="138.27" width="22.94" height="2.74"/>
      <rect class="cls-8" x="149.1" y="159.99" width="22.94" height="2.74"/>
      <rect class="cls-8" x="120.78" y="180.78" width="49.7" height="2.74"/>
      <rect class="cls-8" x="147.54" y="202.5" width="22.94" height="2.74"/>
      <rect class="cls-8" x="147.54" y="224.21" width="22.94" height="2.74"/>
      <rect class="cls-8" x="120.78" y="245.93" width="49.7" height="2.74"/>
      <rect class="cls-8" x="147.54" y="267.65" width="22.94" height="2.74"/>
      <rect class="cls-8" x="147.54" y="289.37" width="22.94" height="2.74"/>
      <rect class="cls-8" x="119.22" y="310.15" width="49.7" height="2.74"/>
      <rect class="cls-8" x="145.97" y="331.87" width="22.94" height="2.74"/>
      <rect class="cls-8" x="145.97" y="353.59" width="22.94" height="2.74"/>
      <rect class="cls-8" x="120.78" y="371.62" width="49.7" height="2.74"/>
      <rect class="cls-8" x="147.54" y="393.34" width="22.94" height="2.74"/>
      <rect class="cls-8" x="147.54" y="415.06" width="22.94" height="2.74"/>
      <rect class="cls-8" x="119.22" y="435.84" width="49.7" height="2.74"/>
      <rect class="cls-8" x="145.97" y="457.56" width="22.94" height="2.74"/>
      <rect class="cls-8" x="145.97" y="479.28" width="22.94" height="2.74"/>
      <rect class="cls-8" x="119.22" y="501" width="49.7" height="2.74"/>
      <rect class="cls-8" x="145.97" y="522.71" width="22.94" height="2.74"/>
      <rect class="cls-8" x="145.97" y="544.43" width="22.94" height="2.74"/>
      <rect class="cls-8" x="117.65" y="565.22" width="49.7" height="2.74"/>
      <rect class="cls-12" x="29.57" y="109.87" width="13.3" height="100.96" rx="6.65" ry="6.65"/>
      <path class="cls-11" d="M48.29,464.94c.52,1.05,0,29.27,0,29.27-2.04,19.52-1.07,35.1,0,53.76.3,5.29.69,9.97,1.49,15.53,1.86,12.8,4.77,22.12,5.97,25.98,5.81,18.69,17.44,56.12,15.83,56.75-1.02.39-5.77-14.51-18.82-38.53-4.64-8.54-10.42-18.41-16.13-33.75-.73-1.97-2.22-5.11-3.29-9.56-1.5-6.25-1.38-10.78-1.39-18.82-.02-12.84-.31,1.69-.23-18.32.02-5.58.09-18.45.43-41.57.27-18.38.35-18.62.15-19.19-.07-.2-.37-1,0-1.57.49-.76,1.77-.56,4.93-.37,3.22.19,4.83.29,6.42.22.39-.02,1.4-.06,2.76,0,.92.04,1.81.03,1.87.15Z"/>
      <path class="cls-2" d="M28.46,9.28h0c-.92,0-1.66.74-1.66,1.66v57.48h3.33V10.95c0-.92-.74-1.66-1.66-1.66Z"/>
      <path class="cls-2" d="M42.55,9.28h0c-.92,0-1.66.74-1.66,1.66v57.48h3.33V10.95c0-.92-.74-1.66-1.66-1.66Z"/>
      <path class="cls-2" d="M56.63,9.28h0c-.92,0-1.66.74-1.66,1.66v57.48h3.33V10.95c0-.92-.74-1.66-1.66-1.66Z"/>
      <path class="cls-2" d="M70.72,9.28h0c-.92,0-1.66.74-1.66,1.66v57.48h3.33V10.95c0-.92-.74-1.66-1.66-1.66Z"/>
      <path class="cls-2" d="M84.81,8.91h0c-.92,0-1.66.74-1.66,1.66v57.48h3.33V10.58c0-.92-.74-1.66-1.66-1.66Z"/>
      <path class="cls-2" d="M98.9,8.91h0c-.92,0-1.66.74-1.66,1.66v57.48h3.33V10.58c0-.92-.74-1.66-1.66-1.66Z"/>
      <path class="cls-2" d="M112.98,8.91h0c-.92,0-1.66.74-1.66,1.66v57.48h3.33V10.58c0-.92-.74-1.66-1.66-1.66Z"/>
      <path class="cls-2" d="M127.07,8.91h0c-.92,0-1.66.74-1.66,1.66v57.48h3.33V10.58c0-.92-.74-1.66-1.66-1.66Z"/>
      <path class="cls-2" d="M141.16,9.28h0c-.92,0-1.66.74-1.66,1.66v57.48h3.33V10.95c0-.92-.74-1.66-1.66-1.66Z"/>
      <path class="cls-2" d="M155.24,9.28h0c-.92,0-1.66.74-1.66,1.66v57.48h3.33V10.95c0-.92-.74-1.66-1.66-1.66Z"/>
      <path class="cls-2" d="M169.33,9.28h0c-.92,0-1.66.74-1.66,1.66v57.48h3.33V10.95c0-.92-.74-1.66-1.66-1.66Z"/>
      <path class="cls-3" d="M173.59,311.16c0,4.1-34.15,7.43-76.29,7.43s-76.29-3.33-76.29-7.43,34.16-7.44,76.29-7.44,76.29,3.33,76.29,7.44Z"/>
      <g class="cls-13">
        <path class="cls-7" d="M84,464.39H21.01v-247.04h62.98c7.35,0,13.3,5.96,13.3,13.3v220.43c0,7.35-5.96,13.3-13.3,13.3Z"/>
      </g>
    </g>
  </g>
</svg>