<?xml version="1.0" encoding="UTF-8" standalone="no"?>
<svg
   id="Capa_2"
   data-name="Capa 2"
   viewBox="0 0 195.57 681.79"
   version="1.1"
   sodipodi:docname="50ml tube (empty).svg"
   inkscape:version="1.4.2 (ebf0e940, 2025-05-08)"
   xmlns:inkscape="http://www.inkscape.org/namespaces/inkscape"
   xmlns:sodipodi="http://sodipodi.sourceforge.net/DTD/sodipodi-0.dtd"
   xmlns="http://www.w3.org/2000/svg"
   xmlns:svg="http://www.w3.org/2000/svg">
  <sodipodi:namedview
     id="namedview45"
     pagecolor="#ffffff"
     bordercolor="#000000"
     borderopacity="0.25"
     inkscape:showpageshadow="2"
     inkscape:pageopacity="0.0"
     inkscape:pagecheckerboard="0"
     inkscape:deskcolor="#d1d1d1"
     inkscape:zoom="0.6278513"
     inkscape:cx="89.989461"
     inkscape:cy="341.6414"
     inkscape:window-width="1064"
     inkscape:window-height="752"
     inkscape:window-x="0"
     inkscape:window-y="38"
     inkscape:window-maximized="0"
     inkscape:current-layer="g45" />
  <defs
     id="defs1">
    <style
       id="style1">
      .cls-1 {
        fill: #bccbd2;
      }

      .cls-2 {
        fill: #214e7c;
      }

      .cls-3 {
        fill: #5c98ad;
      }

      .cls-4 {
        fill: #1f3c56;
      }

      .cls-5 {
        fill: #778592;
      }

      .cls-6 {
        fill: #679fb7;
      }

      .cls-7 {
        fill: #efefef;
      }

      .cls-8 {
        fill: #97a8af;
      }

      .cls-9 {
        fill: #2c5d98;
      }

      .cls-10 {
        fill: #81b6c9;
      }

      .cls-11 {
        fill: #abd3dd;
      }

      .cls-12 {
        fill: #eef2f6;
      }

      .cls-13 {
        opacity: .83;
      }

      .cls-14 {
        fill: #d6e1e5;
      }
    </style>
  </defs>
  <g
     id="Capa_1-2"
     data-name="Capa 1">
    <g
       id="g45">
      <g
         id="g2">
        <path
           class="cls-14"
           d="M96.78,679.29c-15.14,0-28.89-8.94-35.03-22.78l-31.78-71.67c-7.61-17.14-11.46-35.35-11.46-54.11V95.54c0-1.38,1.12-2.5,2.5-2.5h152.58c1.38,0,2.5,1.12,2.5,2.5v434.57c0,19.17-4.02,37.75-11.95,55.21l-32.47,71.5c-6.2,13.65-19.89,22.47-34.89,22.47Z"
           id="path1" />
        <path
           class="cls-5"
           d="M173.59,95.54v434.57c0,18.69-4,37.16-11.73,54.18l-32.47,71.5c-5.81,12.79-18.56,21-32.61,21s-27-8.35-32.74-21.29l-2.33-5.25-29.45-66.42c-7.42-16.72-11.25-34.81-11.25-53.1V95.54h152.58M173.59,90.54H21.01c-2.76,0-5,2.24-5,5v435.19c0,19.12,3.93,37.66,11.68,55.13l29.45,66.42,2.33,5.25c6.54,14.74,21.18,24.26,37.31,24.26s30.56-9.39,37.16-23.93l32.47-71.5c8.08-17.79,12.18-36.72,12.18-56.25V95.54c0-2.76-2.24-5-5-5h0Z"
           id="path2" />
      </g>
      <g
         id="g5">
        <path
           class="cls-9"
           d="M5.05,71.91h185.48c1.39,0,2.52,1.13,2.52,2.52v14.76c0,1.39-1.13,2.52-2.52,2.52H5.05c-1.39,0-2.52-1.13-2.52-2.52v-14.76c0-1.39,1.13-2.52,2.52-2.52Z"
           id="path4" />
        <path
           class="cls-4"
           d="M190.53,74.43v14.76H5.05v-14.76h185.48M190.53,69.38H5.05c-2.79,0-5.05,2.26-5.05,5.05v14.76c0,2.79,2.26,5.05,5.05,5.05h185.48c2.79,0,5.05-2.26,5.05-5.05v-14.76c0-2.79-2.26-5.05-5.05-5.05h0Z"
           id="path5" />
      </g>
      <g
         id="g7">
        <path
           class="cls-9"
           d="M10.52,70.93c-1.38,0-2.5-1.12-2.5-2.5V26.26C8.02,13.16,18.68,2.5,31.78,2.5h133.01c13.1,0,23.76,10.66,23.76,23.76v42.17c0,1.38-1.12,2.5-2.5,2.5H10.52Z"
           id="path6" />
        <path
           class="cls-4"
           d="M164.79,5c11.74,0,21.26,9.52,21.26,21.26v42.17H10.52V26.26c0-11.74,9.52-21.26,21.26-21.26h133.01M164.79,0H31.78C17.3,0,5.52,11.78,5.52,26.26v42.17c0,2.76,2.24,5,5,5h175.53c2.76,0,5-2.24,5-5V26.26c0-14.48-11.78-26.26-26.26-26.26h0Z"
           id="path7" />
      </g>
      <path
         class="cls-1"
         d="m 173.59,95.54 -1.79131,460.84112 c 0,-3.94597 -62.51966,165.0038 -52.63426,94.10545 2.16223,-15.50753 18.34643,-70.85904 27.55557,-110.16107 0.07,-77.45348 0.05,-158.55082 -0.28,-263.54521 C 146.18,194.75078 146.5,180.3024 145,144.1391 144.18,124.26727 143.25,108.3783 142.41,95.54 Z"
         id="path8"
         style="stroke-width:1.45553"
         sodipodi:nodetypes="ccsccccc" />
      <rect
         class="cls-8"
         x="122.35"
         y="116.56"
         width="49.7"
         height="2.74"
         id="rect9" />
      <rect
         class="cls-8"
         x="149.1"
         y="138.27"
         width="22.94"
         height="2.74"
         id="rect10" />
      <rect
         class="cls-8"
         x="149.1"
         y="159.99"
         width="22.94"
         height="2.74"
         id="rect11" />
      <rect
         class="cls-8"
         x="120.78"
         y="180.78"
         width="49.7"
         height="2.74"
         id="rect12" />
      <rect
         class="cls-8"
         x="147.54"
         y="202.5"
         width="22.94"
         height="2.74"
         id="rect13" />
      <rect
         class="cls-8"
         x="147.54"
         y="224.21"
         width="22.94"
         height="2.74"
         id="rect14" />
      <rect
         class="cls-8"
         x="120.78"
         y="245.93"
         width="49.7"
         height="2.74"
         id="rect15" />
      <rect
         class="cls-8"
         x="147.54"
         y="267.65"
         width="22.94"
         height="2.74"
         id="rect16" />
      <rect
         class="cls-8"
         x="147.54"
         y="289.37"
         width="22.94"
         height="2.74"
         id="rect17" />
      <rect
         class="cls-8"
         x="119.22"
         y="310.15"
         width="49.7"
         height="2.74"
         id="rect18" />
      <rect
         class="cls-8"
         x="145.97"
         y="331.87"
         width="22.94"
         height="2.74"
         id="rect19" />
      <rect
         class="cls-8"
         x="145.97"
         y="353.59"
         width="22.94"
         height="2.74"
         id="rect20" />
      <rect
         class="cls-8"
         x="120.78"
         y="371.62"
         width="49.7"
         height="2.74"
         id="rect21" />
      <rect
         class="cls-8"
         x="147.54"
         y="393.34"
         width="22.94"
         height="2.74"
         id="rect22" />
      <rect
         class="cls-8"
         x="147.54"
         y="415.06"
         width="22.94"
         height="2.74"
         id="rect23" />
      <rect
         class="cls-8"
         x="119.22"
         y="435.84"
         width="49.7"
         height="2.74"
         id="rect24" />
      <rect
         class="cls-8"
         x="145.97"
         y="457.56"
         width="22.94"
         height="2.74"
         id="rect25" />
      <rect
         class="cls-8"
         x="145.97"
         y="479.28"
         width="22.94"
         height="2.74"
         id="rect26" />
      <rect
         class="cls-8"
         x="119.22"
         y="501"
         width="49.7"
         height="2.74"
         id="rect27" />
      <rect
         class="cls-8"
         x="145.97"
         y="522.71"
         width="22.94"
         height="2.74"
         id="rect28" />
      <rect
         class="cls-8"
         x="117.65"
         y="565.22"
         width="49.7"
         height="2.74"
         id="rect30" />
      <rect
         class="cls-12"
         x="29.57"
         y="109.87"
         width="13.3"
         height="100.96"
         rx="6.65"
         ry="6.65"
         id="rect31" />
      <rect
         class="cls-12"
         x="28"
         y="468.63138"
         width="13.3"
         height="77.065041"
         rx="6.6500001"
         ry="5.0760951"
         id="rect31-5"
         style="fill:#eef2f6;stroke-width:0.873683" />
      <path
         class="cls-2"
         d="M28.46,9.28h0c-.92,0-1.66.74-1.66,1.66v57.48h3.33V10.95c0-.92-.74-1.66-1.66-1.66Z"
         id="path32" />
      <path
         class="cls-2"
         d="M42.55,9.28h0c-.92,0-1.66.74-1.66,1.66v57.48h3.33V10.95c0-.92-.74-1.66-1.66-1.66Z"
         id="path33" />
      <path
         class="cls-2"
         d="M56.63,9.28h0c-.92,0-1.66.74-1.66,1.66v57.48h3.33V10.95c0-.92-.74-1.66-1.66-1.66Z"
         id="path34" />
      <path
         class="cls-2"
         d="M70.72,9.28h0c-.92,0-1.66.74-1.66,1.66v57.48h3.33V10.95c0-.92-.74-1.66-1.66-1.66Z"
         id="path35" />
      <path
         class="cls-2"
         d="M84.81,8.91h0c-.92,0-1.66.74-1.66,1.66v57.48h3.33V10.58c0-.92-.74-1.66-1.66-1.66Z"
         id="path36" />
      <path
         class="cls-2"
         d="M98.9,8.91h0c-.92,0-1.66.74-1.66,1.66v57.48h3.33V10.58c0-.92-.74-1.66-1.66-1.66Z"
         id="path37" />
      <path
         class="cls-2"
         d="M112.98,8.91h0c-.92,0-1.66.74-1.66,1.66v57.48h3.33V10.58c0-.92-.74-1.66-1.66-1.66Z"
         id="path38" />
      <path
         class="cls-2"
         d="M127.07,8.91h0c-.92,0-1.66.74-1.66,1.66v57.48h3.33V10.58c0-.92-.74-1.66-1.66-1.66Z"
         id="path39" />
      <path
         class="cls-2"
         d="M141.16,9.28h0c-.92,0-1.66.74-1.66,1.66v57.48h3.33V10.95c0-.92-.74-1.66-1.66-1.66Z"
         id="path40" />
      <path
         class="cls-2"
         d="M155.24,9.28h0c-.92,0-1.66.74-1.66,1.66v57.48h3.33V10.95c0-.92-.74-1.66-1.66-1.66Z"
         id="path41" />
      <path
         class="cls-2"
         d="M169.33,9.28h0c-.92,0-1.66.74-1.66,1.66v57.48h3.33V10.95c0-.92-.74-1.66-1.66-1.66Z"
         id="path42" />
      <g
         class="cls-13"
         id="g44">
        <path
           class="cls-7"
           d="M84,464.39H21.01v-247.04h62.98c7.35,0,13.3,5.96,13.3,13.3v220.43c0,7.35-5.96,13.3-13.3,13.3Z"
           id="path44" />
      </g>
    </g>
  </g>
</svg>
