<?xml version="1.0" encoding="UTF-8"?>
<svg id="Capa_2" data-name="Capa 2" xmlns="http://www.w3.org/2000/svg" viewBox="0 0 164.8 758.31">
  <defs>
    <style>
      .cls-1 {
        fill: #e6edef;
      }

      .cls-2 {
        fill: #778592;
      }

      .cls-3, .cls-4 {
        fill: #a8bcc1;
      }

      .cls-5 {
        fill: #b8c8cc;
      }

      .cls-6 {
        fill: #d6e1e5;
      }

      .cls-4 {
        opacity: .65;
      }
    </style>
  </defs>
  <g id="Capa_1-2" data-name="Capa 1">
    <g>
      <g>
        <path class="cls-6" d="M83.5,756.4c-26.16,0-50.2-15.01-62.75-39.17-1.3-2.48-2.48-5.1-3.51-7.78-3.46-8.96-5.21-18.45-5.21-28.21V30.69c0-1.05.85-1.91,1.91-1.91h139.12c1.05,0,1.91.85,1.91,1.91v650.55c0,20.06-7.42,38.92-20.9,53.1-13.5,14.22-31.45,22.05-50.56,22.05Z"/>
        <path class="cls-2" d="M153.06,30.69v650.55c0,20.23-7.79,38.54-20.38,51.79-12.58,13.26-29.97,21.46-49.18,21.46-26.33,0-49.25-15.41-61.06-38.14-1.28-2.45-2.42-4.98-3.43-7.59-3.28-8.49-5.08-17.78-5.08-27.52V30.69h139.12M153.06,26.87H13.94c-2.11,0-3.82,1.71-3.82,3.82v650.55c0,10,1.8,19.72,5.34,28.89,1.06,2.75,2.28,5.44,3.61,7.99,12.87,24.78,37.56,40.19,64.44,40.19,19.64,0,38.09-8.04,51.95-22.65,13.82-14.54,21.43-33.86,21.43-54.42V30.69c0-2.11-1.71-3.82-3.82-3.82h0Z"/>
      </g>
      <path class="cls-4" d="M153.06,52.72v628.52c0,20.23-7.79,38.54-20.38,51.79-12.58,13.26-29.97,21.46-49.18,21.46-26.33,0-49.25-15.41-61.06-38.14,8.96,6.29,19.7,11.45,32.52,10.86,21.93-1.02,40.55-18.43,49.78-33.65,10.87-17.91,11.07-36.55,11.15-43.05,1.36-106.49,12.29-212.82,10.41-319.3-.8-45.38-.53-92.86,0-187.83.22-38.85.53-68,.85-89.98h22.06c1.35,0,2.64-.24,3.85-.68Z"/>
      <g>
        <path class="cls-6" d="M15.59,55.31c-.65,0-1.3-.05-1.93-.14-6.7-.99-11.75-7.09-11.75-14.17V11.38c0-1.05.85-1.91,1.91-1.91h157.17c1.05,0,1.91.85,1.91,1.91v29.62c0,6.09-3.69,11.53-9.19,13.51-1.44.53-2.96.79-4.5.79H15.59Z"/>
        <path class="cls-2" d="M160.99,11.38v29.62c0,5.43-3.31,10.05-7.93,11.72-1.21.44-2.5.68-3.85.68H15.59c-.56,0-1.11-.04-1.65-.12-5.73-.85-10.12-6.02-10.12-12.28V11.38h157.17M160.99,7.56H3.82C1.71,7.56,0,9.27,0,11.38v29.62C0,49.02,5.75,55.92,13.38,57.06c.72.11,1.47.16,2.21.16h133.62c1.76,0,3.5-.31,5.15-.91,6.24-2.26,10.44-8.41,10.44-15.31V11.38c0-2.11-1.71-3.82-3.82-3.82h0Z"/>
      </g>
      <rect class="cls-1" x="22.45" y="59.25" width="14.49" height="626.87" rx="7.25" ry="7.25"/>
      <path class="cls-1" d="M33.42,22.34c-6.81-.26-20.06-1.57-24.52-5.22-2.77-2.27-2.81,10.84-2.48,17.48.37,7.25,1.54,9.04,1.98,9.65,2.46,3.43,6.46,4.23,11.33,5.22,5.33,1.08,7.99,1.61,9.96,0,2.69-2.19.95-5.72,2.49-16.02,1.11-7.47,3.27-11.03,1.24-11.11Z"/>
      <path class="cls-3" d="M160.99,11.38v29.62c0,5.43-3.31,10.05-7.93,11.72-1.21.44-2.5.68-3.85.68h-22.9V11.38h34.68Z"/>
      <g>
        <path class="cls-5" d="M82.4,19.03c-21.04,0-40.83-.69-55.73-1.96-7.29-.62-13.03-1.34-17.06-2.15-4.76-.95-7.71-2.03-7.71-4.46s2.95-3.51,7.71-4.46c4.03-.81,9.77-1.53,17.06-2.14,14.89-1.26,34.69-1.96,55.73-1.96s40.83.69,55.73,1.96c7.29.62,13.03,1.34,17.06,2.14,4.76.95,7.71,2.03,7.71,4.46s-2.95,3.51-7.71,4.46c-4.03.81-9.77,1.53-17.06,2.15-14.89,1.26-34.69,1.96-55.73,1.96Z"/>
        <path class="cls-2" d="M82.4,3.82c43.4,0,78.59,2.98,78.59,6.65s-35.18,6.65-78.59,6.65S3.82,14.14,3.82,10.47,39,3.82,82.4,3.82M82.4,0c-21.09,0-40.94.7-55.89,1.96-7.36.62-13.17,1.35-17.27,2.18C5.79,4.83,0,5.99,0,10.47s5.79,5.64,9.24,6.33c4.1.82,9.91,1.55,17.27,2.18,14.95,1.27,34.8,1.96,55.89,1.96s40.94-.7,55.89-1.96c7.36-.62,13.17-1.35,17.27-2.18,3.46-.69,9.24-1.85,9.24-6.33s-5.79-5.64-9.24-6.33c-4.1-.82-9.91-1.55-17.27-2.18-14.95-1.27-34.8-1.96-55.89-1.96h0Z"/>
      </g>
    </g>
  </g>
</svg>