<?xml version="1.0" encoding="UTF-8"?>
<svg id="Capa_2" data-name="Capa 2" xmlns="http://www.w3.org/2000/svg" viewBox="0 0 730.25 283.98">
  <defs>
    <style>
      .cls-1 {
        fill: #fff;
      }

      .cls-2 {
        fill: #efa5bb;
      }

      .cls-3 {
        fill: #bccbd2;
        stroke-width: 1.97px;
      }

      .cls-3, .cls-4, .cls-5, .cls-6 {
        stroke: #789;
        stroke-linecap: round;
        stroke-linejoin: round;
      }

      .cls-4 {
        fill: #e6ecef;
        stroke-width: 2.33px;
      }

      .cls-7 {
        fill: #e08da9;
      }

      .cls-5 {
        fill: #d6e1e5;
      }

      .cls-5, .cls-6 {
        stroke-width: 2.16px;
      }

      .cls-6 {
        fill: #e1e9ea;
      }

      .cls-8 {
        fill: #5c5d5e;
      }
    </style>
  </defs>
  <g id="Capa_1-2" data-name="Capa 1">
    <g>
      <path class="cls-4" d="M1.17,239.57h727.92v12.63c0,16.9-13.72,30.62-30.62,30.62H31.79c-16.9,0-30.62-13.72-30.62-30.62v-12.63h0Z"/>
      <path class="cls-3" d="M714.55,252.77H15.7c-10.82,0-17.83-11.41-12.95-21.06L99.2,41.19c4.01-7.93,12.15-12.93,21.04-12.92l488.98.33c8.84,0,16.94,4.96,20.96,12.83l97.3,190.23c4.94,9.66-2.07,21.12-12.92,21.12Z"/>
      <rect class="cls-6" x="48.5" y="194.11" width="641.57" height="36.8"/>
      <polygon class="cls-6" points="48.5 203.73 48.5 230.91 36 215.2 36 188.03 44.39 198.57 48.5 203.73"/>
      <path class="cls-5" d="M681.24,203.73H48.5l-4.1-5.16-8.39-10.55L125.37,10.98h0c2.97-6.06,9.14-9.91,15.89-9.91h2.79s441.5,0,441.5,0c6.8,0,12.99,3.89,15.95,10.01l87.17,180.82c2.64,5.47-1.35,11.82-7.43,11.82Z"/>
      <g>
        <g>
          <g>
            <g>
              <path class="cls-1" d="M155.42,182.37c-39.72,0-71.13-16.21-71.52-36.89-.39-21.08,32.25-38.86,72.78-39.62.9-.02,1.8-.03,2.69-.03,39.72,0,71.13,16.21,71.52,36.89.39,21.09-32.25,38.86-72.78,39.62-.9.02-1.8.03-2.69.03Z"/>
              <path class="cls-8" d="M159.38,106.16c39.18,0,70.81,16.1,71.19,36.57.39,20.94-32.05,38.53-72.46,39.28-.9.02-1.8.03-2.69.03-39.18,0-70.81-16.1-71.19-36.57-.39-20.94,32.05-38.53,72.46-39.28.9-.02,1.8-.03,2.69-.03M159.38,105.51c-.9,0-1.8,0-2.7.03-19.65.37-38.05,4.68-51.83,12.15-13.91,7.54-21.46,17.41-21.27,27.8.39,20.87,31.95,37.21,71.84,37.21.9,0,1.8,0,2.7-.03,19.65-.37,38.05-4.68,51.83-12.15,13.91-7.54,21.46-17.41,21.27-27.8-.39-20.87-31.95-37.21-71.84-37.21h0Z"/>
            </g>
            <g>
              <path class="cls-2" d="M155.83,174.87c-19.27,0-37.11-4.93-47.7-13.18-6.22-4.84-9.56-10.54-9.67-16.48-.32-16.95,25.87-31.23,58.38-31.84.72-.01,1.45-.02,2.16-.02,18.96,0,36.61,4.8,47.23,12.85,6.51,4.91,10.01,10.72,10.12,16.81.32,16.95-25.86,31.24-58.36,31.85-.72.01-1.44.02-2.16.02Z"/>
              <path class="cls-8" d="M159,113.76c19.56,0,36.75,5.01,46.98,12.76,6.19,4.67,9.84,10.33,9.96,16.49.31,16.75-25.63,30.83-57.96,31.43-.72.01-1.44.02-2.15.02-19.84,0-37.25-5.16-47.44-13.1-5.93-4.61-9.4-10.15-9.52-16.16-.31-16.75,25.65-30.82,57.98-31.42.72-.01,1.44-.02,2.15-.02M159,112.93v.82-.82c-.72,0-1.45,0-2.17.02-15.77.29-30.54,3.76-41.61,9.76-11.24,6.09-17.34,14.08-17.18,22.51.11,6.07,3.51,11.88,9.83,16.8,10.66,8.31,28.59,13.27,47.95,13.27.72,0,1.44,0,2.17-.02,15.76-.3,30.54-3.76,41.6-9.76,11.23-6.09,17.33-14.08,17.17-22.51-.12-6.22-3.67-12.15-10.29-17.13-10.68-8.09-28.43-12.93-47.47-12.93h0Z"/>
            </g>
          </g>
          <path class="cls-7" d="M215.94,143.01c.31,16.75-25.63,30.83-57.96,31.43-20.73.39-39.04-4.85-49.6-13.08,5.71,2.39,13.53,5.44,25.16,6.61,25.29,2.56,47.04-5.88,49.03-6.68,3.3-1.31,16.43-6.83,22.37-16.45,4.04-6.55,3.4-12.85,1.04-18.33,6.19,4.67,9.84,10.33,9.96,16.49Z"/>
        </g>
        <g>
          <g>
            <g>
              <path class="cls-1" d="M352.76,182.35c-40.53,0-73.51-17.16-73.51-38.25s32.98-38.25,73.51-38.25,73.51,17.16,73.51,38.25-32.98,38.25-73.51,38.25Z"/>
              <path class="cls-8" d="M352.76,106.18c40.42,0,73.18,16.98,73.18,37.92s-32.76,37.92-73.18,37.92-73.18-16.98-73.18-37.92,32.76-37.92,73.18-37.92M352.76,105.53c-19.65,0-38.13,3.97-52.05,11.18-14.05,7.28-21.79,17.01-21.79,27.39s7.74,20.11,21.79,27.39c13.91,7.21,32.4,11.18,52.05,11.18s38.13-3.97,52.05-11.18c14.05-7.28,21.79-17.01,21.79-27.39s-7.74-20.11-21.79-27.39c-13.91-7.21-32.4-11.18-52.05-11.18h0Z"/>
            </g>
            <g>
              <path class="cls-2" d="M352.77,174.86c-20.16,0-38.71-5.27-49.6-14.09-6.13-4.95-9.36-10.71-9.36-16.66,0-16.95,26.45-30.74,58.97-30.74,19.84,0,38.21,5.14,49.14,13.75,6.42,5.03,9.81,10.91,9.81,17,0,16.96-26.44,30.75-58.95,30.75Z"/>
              <path class="cls-8" d="M352.77,113.77c20.45,0,38.44,5.43,48.89,13.66,6.1,4.78,9.65,10.52,9.65,16.67,0,16.76-26.2,30.34-58.54,30.34-20.73,0-38.94-5.58-49.34-14-5.84-4.72-9.21-10.33-9.21-16.34,0-16.76,26.22-30.33,58.55-30.33M352.77,112.95c-15.77,0-30.61,3.19-41.78,8.97-11.35,5.88-17.6,13.75-17.6,22.18,0,6.08,3.29,11.95,9.52,16.98,10.97,8.88,29.61,14.19,49.86,14.19,15.77,0,30.6-3.19,41.77-8.98,11.34-5.88,17.59-13.76,17.59-22.19,0-6.22-3.45-12.21-9.96-17.32-11-8.66-29.46-13.83-49.4-13.83h0Z"/>
            </g>
          </g>
          <path class="cls-7" d="M411.31,144.1c0,16.76-26.2,30.34-58.54,30.34-20.73,0-38.94-5.58-49.34-14,5.66,2.5,13.42,5.69,25.03,7.08,25.24,3.03,47.14-5,49.15-5.76,3.32-1.25,16.55-6.52,22.67-16.03,4.16-6.48,3.64-12.78,1.38-18.3,6.1,4.78,9.65,10.52,9.65,16.67Z"/>
        </g>
        <g>
          <g>
            <g>
              <path class="cls-1" d="M551.81,182.42c-1.67,0-3.36-.03-5.03-.09-19.59-.69-37.87-5.29-51.48-12.96-13.67-7.71-21.01-17.59-20.65-27.85.7-20.04,31.35-35.73,69.78-35.73,1.66,0,3.36.03,5.03.09,40.51,1.42,72.86,19.73,72.12,40.8-.7,20.04-31.35,35.73-69.77,35.73h0Z"/>
              <path class="cls-8" d="M544.44,106.12c1.66,0,3.33.03,5.02.09,40.39,1.42,72.54,19.53,71.81,40.46-.7,20.06-31.35,35.42-69.45,35.42-1.66,0-3.33-.03-5.02-.09-40.39-1.42-72.54-19.53-71.81-40.46.7-20.06,31.35-35.42,69.45-35.42M544.44,105.47c-18.59,0-36,3.64-49.04,10.26-13.23,6.71-20.71,15.87-21.06,25.79-.36,10.38,7.03,20.37,20.81,28.14,13.65,7.69,31.99,12.31,51.62,13,1.68.06,3.37.09,5.04.09,18.59,0,36.01-3.64,49.04-10.26,13.23-6.71,20.71-15.87,21.06-25.79.36-10.38-7.03-20.37-20.81-28.14-13.65-7.69-31.99-12.31-51.62-13-1.68-.06-3.37-.09-5.04-.09h0Z"/>
            </g>
            <g>
              <path class="cls-2" d="M551.08,174.91c-1.33,0-2.69-.02-4.03-.07-20.15-.71-38.5-6.62-49.08-15.82-5.95-5.16-8.98-11.04-8.77-16.98.57-16.11,25.15-28.73,55.98-28.73,1.33,0,2.69.02,4.03.07,19.83.7,38.01,6.48,48.63,15.46,6.23,5.25,9.42,11.24,9.2,17.33-.57,16.11-25.15,28.74-55.96,28.74Z"/>
              <path class="cls-8" d="M545.18,113.72c1.33,0,2.67.02,4.02.07,20.44.72,38.22,6.77,48.38,15.36,5.93,4.99,9.27,10.85,9.06,17-.56,16.05-25.07,28.34-55.55,28.34-1.33,0-2.66-.02-4.01-.07-20.72-.73-38.72-6.94-48.82-15.72-5.67-4.92-8.84-10.64-8.63-16.65.56-16.05,25.08-28.33,55.56-28.33M545.18,112.9c-14.92,0-28.9,2.93-39.37,8.24-10.69,5.42-16.73,12.84-17.01,20.89-.21,6.07,2.87,12.06,8.92,17.3,10.65,9.26,29.09,15.21,49.33,15.92,1.34.05,2.7.07,4.04.07,14.91,0,28.9-2.93,39.37-8.24,10.68-5.42,16.72-12.84,17.01-20.89.22-6.22-3.02-12.33-9.35-17.66-10.69-9.04-28.96-14.86-48.88-15.56-1.35-.05-2.71-.07-4.05-.07h0Z"/>
            </g>
          </g>
          <path class="cls-7" d="M606.63,146.16c-.59,16.75-27.25,29.4-59.56,28.27-20.72-.73-38.72-6.94-48.82-15.72,5.57,2.7,13.22,6.15,24.77,7.96,25.12,3.92,47.29-3.34,49.32-4.03,3.36-1.13,16.77-5.94,23.22-15.23,4.38-6.33,4.08-12.64,2.02-18.24,5.93,4.99,9.27,10.85,9.06,17Z"/>
        </g>
      </g>
      <g>
        <g>
          <g>
            <g>
              <path class="cls-1" d="M180.42,78.44c-34.69,0-62.13-14.15-62.47-32.22-.17-8.96,6.38-17.49,18.43-24.02,11.99-6.5,28.02-10.26,45.14-10.58.79-.01,1.57-.02,2.35-.02,34.69,0,62.13,14.15,62.47,32.22.17,8.96-6.38,17.49-18.43,24.02-11.99,6.5-28.02,10.26-45.14,10.58-.79.01-1.57.02-2.35.02h0Z"/>
              <path class="cls-8" d="M183.87,11.88c34.22,0,61.85,14.06,62.18,31.94.34,18.29-27.99,33.65-63.29,34.31-.79.01-1.57.02-2.35.02-34.22,0-61.85-14.06-62.18-31.94-.34-18.29,27.99-33.65,63.29-34.31.79-.01,1.57-.02,2.35-.02M183.87,11.31c-.78,0-1.57,0-2.36.02-17.16.32-33.24,4.09-45.27,10.61-12.15,6.59-18.75,15.21-18.58,24.28.34,18.23,27.9,32.5,62.75,32.5.78,0,1.57,0,2.36-.02,35.55-.67,64.2-16.32,63.85-34.89-.34-18.23-27.9-32.5-62.75-32.5h0Z"/>
            </g>
            <g>
              <path class="cls-2" d="M180.77,71.93c-16.84,0-32.43-4.31-41.69-11.52-5.44-4.23-8.37-9.22-8.46-14.43-.14-7.23,5.13-14.11,14.84-19.37,9.62-5.21,22.47-8.23,36.2-8.48.63-.01,1.26-.02,1.89-.02,16.57,0,32,4.2,41.28,11.23,5.69,4.3,8.76,9.38,8.86,14.72.28,14.83-22.61,27.33-51.02,27.86-.63.01-1.26.02-1.89.02Z"/>
              <path class="cls-8" d="M183.54,18.51c17.08,0,32.1,4.37,41.04,11.15,5.41,4.08,8.6,9.03,8.7,14.4.27,14.63-22.39,26.92-50.62,27.45-.63.01-1.26.02-1.88.02-17.33,0-32.54-4.5-41.44-11.44-5.18-4.03-8.21-8.87-8.31-14.12-.27-14.63,22.4-26.92,50.64-27.45.63-.01,1.26-.02,1.88-.02M183.54,17.71v.8-.8h0c-.63,0-1.26,0-1.9.02-13.78.26-26.7,3.29-36.38,8.53-9.84,5.33-15.18,12.34-15.05,19.73.1,5.33,3.08,10.43,8.62,14.73,9.33,7.27,25,11.61,41.93,11.61.63,0,1.26,0,1.89-.02,13.78-.26,26.7-3.29,36.37-8.53,9.84-5.33,15.18-12.34,15.04-19.73-.1-5.46-3.22-10.66-9.02-15.03-9.34-7.08-24.86-11.31-41.52-11.31h0Z"/>
            </g>
          </g>
          <path class="cls-7" d="M233.27,44.06c.27,14.63-22.39,26.92-50.62,27.45-18.1.34-34.1-4.24-43.32-11.42,4.99,2.09,11.82,4.75,21.97,5.78,22.09,2.24,41.09-5.14,42.83-5.83,2.88-1.15,14.35-5.97,19.54-14.37,3.53-5.72,2.97-11.22.91-16.01,5.41,4.08,8.6,9.03,8.7,14.4Z"/>
        </g>
        <g>
          <g>
            <g>
              <path class="cls-1" d="M352.79,78.43c-35.4,0-64.21-14.99-64.21-33.41s28.8-33.41,64.21-33.41,64.21,14.99,64.21,33.41-28.8,33.41-64.21,33.41Z"/>
              <path class="cls-8" d="M352.79,11.9c35.3,0,63.92,14.83,63.92,33.12s-28.62,33.12-63.92,33.12-63.92-14.83-63.92-33.12,28.62-33.12,63.92-33.12M352.79,11.33c-35.56,0-64.49,15.11-64.49,33.69s28.93,33.69,64.49,33.69,64.49-15.11,64.49-33.69-28.93-33.69-64.49-33.69h0Z"/>
            </g>
            <g>
              <path class="cls-2" d="M352.79,71.92c-17.62,0-33.83-4.61-43.35-12.32-5.36-4.33-8.19-9.37-8.19-14.58,0-14.83,23.12-26.89,51.54-26.89,17.34,0,33.4,4.49,42.95,12.02,5.61,4.4,8.58,9.54,8.58,14.88,0,14.83-23.12,26.9-51.53,26.9Z"/>
              <path class="cls-8" d="M352.79,18.52c17.86,0,33.57,4.74,42.7,11.93,5.33,4.18,8.43,9.18,8.43,14.56,0,14.64-22.89,26.5-51.13,26.5-18.11,0-34.01-4.87-43.1-12.23-5.1-4.12-8.05-9.02-8.05-14.27,0-14.64,22.9-26.49,51.14-26.49M352.79,17.72c-13.79,0-26.76,2.79-36.53,7.85-9.94,5.15-15.41,12.05-15.41,19.45,0,5.33,2.88,10.48,8.34,14.89,9.59,7.77,25.89,12.41,43.6,12.41,13.78,0,26.76-2.79,36.52-7.85,9.93-5.15,15.4-12.06,15.4-19.45,0-5.46-3.02-10.71-8.73-15.19-9.62-7.58-25.77-12.1-43.19-12.1h0Z"/>
            </g>
          </g>
          <path class="cls-7" d="M403.92,45.02c0,14.64-22.88,26.5-51.13,26.5-18.11,0-34.01-4.87-43.1-12.23,4.95,2.18,11.72,4.97,21.86,6.19,22.05,2.65,41.17-4.37,42.93-5.03,2.9-1.09,14.46-5.7,19.8-14,3.63-5.66,3.18-11.16,1.21-15.99,5.33,4.18,8.43,9.18,8.43,14.56Z"/>
        </g>
        <g>
          <g>
            <g>
              <path class="cls-1" d="M526.65,78.48c-1.46,0-2.93-.03-4.39-.08-35.38-1.24-63.64-17.23-63-35.64.61-17.5,27.38-31.21,60.94-31.21,1.45,0,2.93.03,4.39.08,35.38,1.24,63.64,17.23,63,35.64-.61,17.5-27.38,31.21-60.94,31.21h0Z"/>
              <path class="cls-8" d="M520.21,11.84c1.45,0,2.91.03,4.38.08,35.28,1.24,63.36,17.06,62.72,35.34-.61,17.52-27.38,30.94-60.66,30.94-1.45,0-2.91-.03-4.38-.08-35.28-1.24-63.36-17.06-62.72-35.34.61-17.52,27.38-30.94,60.66-30.94M520.21,11.27c-16.24,0-31.45,3.18-42.84,8.96-11.56,5.86-18.09,13.86-18.39,22.53-.32,9.07,6.14,17.79,18.18,24.58,11.92,6.72,27.94,10.75,45.09,11.35,1.46.05,2.95.08,4.4.08,16.24,0,31.45-3.18,42.84-8.96,11.56-5.86,18.09-13.86,18.39-22.53.32-9.07-6.14-17.79-18.18-24.58-11.92-6.72-27.94-10.75-45.09-11.35-1.46-.05-2.95-.08-4.4-.08h0Z"/>
            </g>
            <g>
              <path class="cls-2" d="M526.01,71.97c-1.16,0-2.34-.02-3.52-.06-17.61-.62-33.64-5.79-42.89-13.83-5.21-4.52-7.86-9.66-7.68-14.86.49-14.09,21.99-25.13,48.93-25.13,1.16,0,2.34.02,3.52.06,17.33.61,33.22,5.66,42.5,13.51,5.46,4.59,8.24,9.84,8.05,15.17-.49,14.1-21.98,25.14-48.92,25.14Z"/>
              <path class="cls-8" d="M520.85,18.48c1.16,0,2.33.02,3.51.06,17.85.63,33.38,5.91,42.26,13.42,5.18,4.36,8.1,9.47,7.91,14.85-.49,14.02-21.9,24.75-48.52,24.75-1.16,0-2.33-.02-3.51-.06-18.1-.63-33.82-6.06-42.64-13.73-4.95-4.3-7.72-9.3-7.54-14.54.49-14.02,21.91-24.75,48.53-24.75M520.85,17.68c-13.04,0-25.27,2.56-34.43,7.2-9.36,4.75-14.66,11.25-14.9,18.31-.19,5.33,2.52,10.58,7.82,15.18,9.31,8.1,25.44,13.31,43.14,13.93,1.18.04,2.36.06,3.53.06,13.04,0,25.26-2.56,34.42-7.21,9.36-4.75,14.65-11.26,14.9-18.32.19-5.46-2.64-10.81-8.2-15.49-9.35-7.91-25.33-13-42.74-13.61-1.18-.04-2.37-.06-3.54-.06h0Z"/>
            </g>
          </g>
          <path class="cls-7" d="M574.53,46.81c-.51,14.63-23.8,25.68-52.03,24.69-18.1-.63-33.82-6.06-42.64-13.73,4.87,2.36,11.54,5.38,21.63,6.95,21.94,3.42,41.3-2.92,43.08-3.52,2.94-.99,14.65-5.19,20.28-13.3,3.83-5.53,3.56-11.04,1.77-15.94,5.18,4.36,8.1,9.47,7.91,14.85Z"/>
        </g>
      </g>
    </g>
  </g>
</svg>