<?xml version="1.0" encoding="UTF-8"?>
<svg id="Capa_2" data-name="Capa 2" xmlns="http://www.w3.org/2000/svg" viewBox="0 0 730.25 283.98">
  <defs>
    <style>
      .cls-1 {
        fill: #fff;
      }

      .cls-2 {
        fill: #bccbd2;
        stroke-width: 1.97px;
      }

      .cls-2, .cls-3, .cls-4, .cls-5 {
        stroke: #789;
        stroke-linecap: round;
        stroke-linejoin: round;
      }

      .cls-3 {
        fill: #e6ecef;
        stroke-width: 2.33px;
      }

      .cls-6 {
        fill: #b4c5d1;
      }

      .cls-4 {
        fill: #d6e1e5;
      }

      .cls-4, .cls-5 {
        stroke-width: 2.16px;
      }

      .cls-7 {
        fill: #9bafbc;
      }

      .cls-5 {
        fill: #e1e9ea;
      }

      .cls-8 {
        fill: #5c5d5e;
      }
    </style>
  </defs>
  <g id="Capa_1-2" data-name="Capa 1">
    <g>
      <path class="cls-3" d="M1.17,239.57h727.92v12.63c0,16.9-13.72,30.62-30.62,30.62H31.79c-16.9,0-30.62-13.72-30.62-30.62v-12.63h0Z"/>
      <path class="cls-2" d="M714.55,252.77H15.7c-10.82,0-17.83-11.41-12.95-21.06L99.2,41.19c4.01-7.93,12.15-12.93,21.04-12.92l488.98.33c8.84,0,16.94,4.96,20.96,12.83l97.3,190.23c4.94,9.66-2.07,21.12-12.92,21.12Z"/>
      <rect class="cls-5" x="48.5" y="194.11" width="641.57" height="36.8"/>
      <polygon class="cls-5" points="48.5 203.73 48.5 230.91 36 215.2 36 188.03 44.39 198.57 48.5 203.73"/>
      <path class="cls-4" d="M681.24,203.73H48.5l-4.1-5.16-8.39-10.55L125.37,10.98h0c2.97-6.06,9.14-9.91,15.89-9.91h2.79s441.5,0,441.5,0c6.8,0,12.99,3.89,15.95,10.01l87.17,180.82c2.64,5.47-1.35,11.82-7.43,11.82Z"/>
      <g>
        <g>
          <g>
            <g>
              <path class="cls-1" d="M155.42,182.37c-39.72,0-71.13-16.21-71.52-36.89-.39-21.08,32.25-38.86,72.78-39.62.9-.02,1.8-.03,2.69-.03,39.72,0,71.13,16.21,71.52,36.89.19,10.25-7.3,20.02-21.1,27.5-13.73,7.44-32.08,11.75-51.68,12.11-.9.02-1.8.03-2.69.03Z"/>
              <path class="cls-8" d="M159.38,106.16c39.18,0,70.81,16.1,71.19,36.57.39,20.94-32.05,38.53-72.46,39.28-.9.02-1.8.03-2.69.03-39.18,0-70.81-16.1-71.19-36.57-.39-20.94,32.05-38.53,72.46-39.28.9-.02,1.8-.03,2.69-.03M159.38,105.51c-.9,0-1.8,0-2.7.03-19.65.37-38.05,4.68-51.83,12.15-13.91,7.54-21.46,17.41-21.27,27.8.39,20.87,31.95,37.21,71.84,37.21.9,0,1.8,0,2.7-.03,19.65-.37,38.05-4.68,51.83-12.15,13.91-7.54,21.46-17.41,21.27-27.8-.39-20.87-31.95-37.21-71.84-37.21h0Z"/>
            </g>
            <g>
              <path class="cls-6" d="M155.83,174.69c-19.23,0-37.02-4.91-47.58-13.14-6.17-4.8-9.49-10.45-9.6-16.34-.31-16.85,25.79-31.05,58.2-31.65.72-.01,1.44-.02,2.16-.02,18.92,0,36.53,4.79,47.12,12.81,6.46,4.87,9.94,10.64,10.05,16.67.31,16.85-25.79,31.06-58.18,31.66-.72.01-1.44.02-2.16.02Z"/>
              <path class="cls-8" d="M159,113.76c19.56,0,36.75,5.01,46.98,12.76,6.19,4.67,9.84,10.33,9.96,16.49.31,16.75-25.63,30.83-57.96,31.43-.72.01-1.44.02-2.15.02-19.84,0-37.25-5.16-47.44-13.1-5.93-4.61-9.4-10.15-9.52-16.16-.31-16.75,25.65-30.82,57.98-31.42.72-.01,1.44-.02,2.15-.02M159,113.3v.46-.46c-.72,0-1.44,0-2.16.02-32.53.61-58.74,14.91-58.42,31.89.11,5.96,3.46,11.67,9.69,16.51,10.6,8.26,28.44,13.19,47.72,13.19.72,0,1.44,0,2.16-.02,32.52-.61,58.72-14.92,58.4-31.89-.11-6.1-3.62-11.93-10.14-16.85-10.62-8.05-28.29-12.85-47.25-12.85h0Z"/>
            </g>
          </g>
          <path class="cls-7" d="M215.94,143.01c.31,16.75-25.63,30.83-57.96,31.43-20.73.39-39.04-4.85-49.6-13.08,5.71,2.39,13.53,5.44,25.16,6.61,25.29,2.56,47.04-5.88,49.03-6.68,3.3-1.31,16.43-6.83,22.37-16.45,4.04-6.55,3.4-12.85,1.04-18.33,6.19,4.67,9.84,10.33,9.96,16.49Z"/>
        </g>
        <g>
          <g>
            <g>
              <path class="cls-1" d="M352.76,182.35c-40.53,0-73.51-17.16-73.51-38.25s32.98-38.25,73.51-38.25,73.51,17.16,73.51,38.25-32.98,38.25-73.51,38.25Z"/>
              <path class="cls-8" d="M352.76,106.18c40.42,0,73.18,16.98,73.18,37.92s-32.76,37.92-73.18,37.92-73.18-16.98-73.18-37.92,32.76-37.92,73.18-37.92M352.76,105.53c-19.65,0-38.13,3.97-52.05,11.18-14.05,7.28-21.79,17.01-21.79,27.39s7.74,20.11,21.79,27.39c13.91,7.21,32.4,11.18,52.05,11.18s38.13-3.97,52.05-11.18c14.05-7.28,21.79-17.01,21.79-27.39s-7.74-20.11-21.79-27.39c-13.91-7.21-32.4-11.18-52.05-11.18h0Z"/>
            </g>
            <g>
              <path class="cls-6" d="M352.77,174.67c-20.12,0-38.62-5.25-49.49-14.05-6.08-4.92-9.3-10.63-9.3-16.51,0-16.85,26.37-30.56,58.78-30.56,19.8,0,38.13,5.12,49.03,13.71,6.37,4.99,9.74,10.82,9.74,16.85,0,16.86-26.36,30.57-58.76,30.57Z"/>
              <path class="cls-8" d="M352.77,113.77c20.45,0,38.44,5.43,48.89,13.66,6.1,4.78,9.65,10.52,9.65,16.67,0,16.76-26.2,30.34-58.54,30.34-20.73,0-38.94-5.58-49.34-14-5.84-4.72-9.21-10.33-9.21-16.34,0-16.76,26.22-30.33,58.55-30.33M352.77,113.32c-32.54,0-59.01,13.81-59.01,30.79,0,5.96,3.24,11.73,9.38,16.69,10.9,8.83,29.46,14.1,49.63,14.1,32.53,0,58.99-13.82,58.99-30.8,0-6.11-3.4-11.99-9.82-17.03-10.93-8.61-29.32-13.75-49.17-13.75h0Z"/>
            </g>
          </g>
          <path class="cls-7" d="M411.31,144.1c0,16.76-26.2,30.34-58.54,30.34-20.73,0-38.94-5.58-49.34-14,5.66,2.5,13.42,5.69,25.03,7.08,25.24,3.03,47.14-5,49.15-5.76,3.32-1.25,16.55-6.52,22.67-16.03,4.16-6.48,3.64-12.78,1.38-18.3,6.1,4.78,9.65,10.52,9.65,16.67Z"/>
        </g>
        <g>
          <g>
            <g>
              <path class="cls-1" d="M551.81,182.42c-1.67,0-3.36-.03-5.03-.09-19.59-.69-37.87-5.29-51.48-12.96-13.67-7.71-21.01-17.59-20.65-27.85.7-20.04,31.35-35.73,69.78-35.73,1.66,0,3.36.03,5.03.09,40.51,1.42,72.86,19.73,72.12,40.8-.7,20.04-31.35,35.73-69.77,35.73h0Z"/>
              <path class="cls-8" d="M544.44,106.12c1.66,0,3.33.03,5.02.09,40.39,1.42,72.54,19.53,71.81,40.46-.7,20.06-31.35,35.42-69.45,35.42-1.66,0-3.33-.03-5.02-.09-40.39-1.42-72.54-19.53-71.81-40.46.7-20.06,31.35-35.42,69.45-35.42M544.44,105.47c-18.59,0-36,3.64-49.04,10.26-13.23,6.71-20.71,15.87-21.06,25.79-.36,10.38,7.03,20.37,20.81,28.14,13.65,7.69,31.99,12.31,51.62,13,1.68.06,3.37.09,5.04.09,18.59,0,36-3.64,49.04-10.26,13.23-6.71,20.71-15.87,21.06-25.79.36-10.38-7.03-20.37-20.81-28.14-13.65-7.69-31.99-12.31-51.62-13-1.68-.06-3.37-.09-5.04-.09h0Z"/>
            </g>
            <g>
              <path class="cls-6" d="M551.08,174.72c-1.33,0-2.68-.02-4.02-.07-20.11-.71-38.41-6.6-48.96-15.78-5.91-5.13-8.92-10.95-8.71-16.83.56-16.01,25.07-28.55,55.79-28.55,1.33,0,2.69.02,4.02.07,19.79.7,37.93,6.46,48.52,15.42,6.19,5.21,9.35,11.15,9.14,17.18-.56,16.01-25.06,28.56-55.78,28.56Z"/>
              <path class="cls-8" d="M545.18,113.72c1.33,0,2.67.02,4.02.07,20.44.72,38.22,6.77,48.38,15.36,5.93,4.99,9.27,10.85,9.06,17-.56,16.05-25.07,28.34-55.55,28.34-1.33,0-2.66-.02-4.01-.07-20.72-.73-38.72-6.94-48.82-15.72-5.67-4.92-8.84-10.64-8.63-16.65.56-16.05,25.08-28.33,55.56-28.33M545.18,113.26c-14.86,0-28.78,2.91-39.21,8.2-10.56,5.36-16.53,12.66-16.81,20.57-.21,5.96,2.83,11.84,8.79,17.01,10.59,9.21,28.94,15.13,49.1,15.83,1.34.05,2.7.07,4.03.07,14.86,0,28.78-2.91,39.2-8.2,10.56-5.36,16.53-12.67,16.81-20.58.21-6.1-2.97-12.11-9.22-17.37-10.63-8.99-28.82-14.77-48.66-15.47-1.34-.05-2.7-.07-4.03-.07h0Z"/>
            </g>
          </g>
          <path class="cls-7" d="M606.63,146.16c-.59,16.75-27.25,29.4-59.56,28.27-20.72-.73-38.72-6.94-48.82-15.72,5.57,2.7,13.22,6.15,24.77,7.96,25.12,3.92,47.29-3.34,49.32-4.03,3.36-1.13,16.77-5.94,23.22-15.23,4.38-6.33,4.08-12.64,2.02-18.24,5.93,4.99,9.27,10.85,9.06,17Z"/>
        </g>
      </g>
      <g>
        <g>
          <g>
            <g>
              <path class="cls-1" d="M180.42,78.44c-34.69,0-62.13-14.15-62.47-32.22-.17-8.96,6.38-17.49,18.43-24.02,11.99-6.5,28.02-10.26,45.14-10.58.79-.01,1.57-.02,2.35-.02,34.69,0,62.13,14.15,62.47,32.22.17,8.96-6.38,17.49-18.43,24.02-11.99,6.5-28.02,10.26-45.14,10.58-.79.01-1.57.02-2.35.02h0Z"/>
              <path class="cls-8" d="M183.87,11.88c34.22,0,61.85,14.06,62.18,31.94.34,18.29-27.99,33.65-63.29,34.31-.79.01-1.57.02-2.35.02-34.22,0-61.85-14.06-62.18-31.94-.34-18.29,27.99-33.65,63.29-34.31.79-.01,1.57-.02,2.35-.02M183.87,11.31c-.78,0-1.57,0-2.36.02-35.55.67-64.2,16.32-63.85,34.89.34,18.23,27.9,32.5,62.75,32.5.78,0,1.57,0,2.36-.02,17.16-.32,33.24-4.09,45.27-10.61,12.15-6.59,18.75-15.21,18.58-24.28-.34-18.23-27.9-32.5-62.75-32.5h0Z"/>
            </g>
            <g>
              <path class="cls-6" d="M180.77,71.76c-16.81,0-32.35-4.29-41.58-11.49-5.4-4.2-8.3-9.14-8.4-14.29-.13-7.17,5.1-13.99,14.75-19.22,9.6-5.2,22.42-8.21,36.12-8.46.63-.01,1.26-.02,1.88-.02,16.53,0,31.93,4.18,41.17,11.19,5.65,4.26,8.69,9.3,8.79,14.58.28,14.74-22.54,27.16-50.85,27.68-.63.01-1.26.02-1.88.02Z"/>
              <path class="cls-8" d="M183.54,18.51c17.08,0,32.1,4.37,41.04,11.15,5.41,4.08,8.6,9.03,8.7,14.4.27,14.63-22.39,26.92-50.62,27.45-.63.01-1.26.02-1.88.02-17.33,0-32.54-4.5-41.44-11.44-5.18-4.03-8.21-8.87-8.31-14.12-.27-14.63,22.4-26.92,50.64-27.45.63-.01,1.26-.02,1.88-.02M183.54,18.06v.46-.46h0c-.63,0-1.26,0-1.89.02-28.45.53-51.36,13.05-51.09,27.91.1,5.22,3.03,10.23,8.49,14.47,9.27,7.22,24.86,11.54,41.72,11.54.63,0,1.26,0,1.89-.02,28.44-.53,51.35-13.06,51.07-27.92-.1-5.35-3.17-10.45-8.88-14.76-9.29-7.04-24.73-11.24-41.31-11.24h0Z"/>
            </g>
          </g>
          <path class="cls-7" d="M233.27,44.06c.27,14.63-22.39,26.92-50.62,27.45-18.1.34-34.1-4.24-43.32-11.42,4.99,2.09,11.82,4.75,21.97,5.78,22.09,2.24,41.09-5.14,42.83-5.83,2.88-1.15,14.35-5.97,19.54-14.37,3.53-5.72,2.97-11.22.91-16.01,5.41,4.08,8.6,9.03,8.7,14.4Z"/>
        </g>
        <g>
          <g>
            <g>
              <path class="cls-1" d="M352.79,78.43c-35.4,0-64.21-14.99-64.21-33.41s28.8-33.41,64.21-33.41,64.21,14.99,64.21,33.41-28.8,33.41-64.21,33.41Z"/>
              <path class="cls-8" d="M352.79,11.9c35.3,0,63.92,14.83,63.92,33.12s-28.62,33.12-63.92,33.12-63.92-14.83-63.92-33.12,28.62-33.12,63.92-33.12M352.79,11.33c-35.56,0-64.49,15.11-64.49,33.69s28.93,33.69,64.49,33.69,64.49-15.11,64.49-33.69-28.93-33.69-64.49-33.69h0Z"/>
            </g>
            <g>
              <path class="cls-6" d="M352.79,71.75c-17.58,0-33.75-4.59-43.24-12.28-5.32-4.3-8.13-9.29-8.13-14.45,0-14.73,23.05-26.72,51.37-26.72,17.3,0,33.32,4.48,42.84,11.98,5.57,4.37,8.51,9.46,8.51,14.74,0,14.74-23.04,26.73-51.36,26.73Z"/>
              <path class="cls-8" d="M352.79,18.52c17.86,0,33.57,4.74,42.7,11.93,5.33,4.18,8.43,9.18,8.43,14.56,0,14.64-22.88,26.5-51.13,26.5-18.11,0-34.01-4.87-43.1-12.23-5.1-4.12-8.05-9.02-8.05-14.27,0-14.64,22.9-26.49,51.14-26.49M352.79,18.07c-28.45,0-51.6,12.09-51.6,26.95,0,5.22,2.84,10.28,8.21,14.63,9.53,7.72,25.75,12.33,43.38,12.33,28.44,0,51.58-12.09,51.58-26.96,0-5.35-2.97-10.51-8.6-14.92-9.56-7.53-25.63-12.03-42.98-12.03h0Z"/>
            </g>
          </g>
          <path class="cls-7" d="M403.92,45.02c0,14.64-22.88,26.5-51.13,26.5-18.11,0-34.01-4.87-43.1-12.23,4.95,2.18,11.72,4.97,21.86,6.19,22.05,2.65,41.17-4.37,42.93-5.03,2.9-1.09,14.46-5.7,19.8-14,3.63-5.66,3.18-11.16,1.21-15.99,5.33,4.18,8.43,9.18,8.43,14.56Z"/>
        </g>
        <g>
          <g>
            <g>
              <path class="cls-1" d="M526.65,78.48c-1.46,0-2.93-.03-4.39-.08-35.38-1.24-63.64-17.23-63-35.64.61-17.5,27.38-31.21,60.94-31.21,1.45,0,2.93.03,4.39.08,35.38,1.24,63.64,17.23,63,35.64-.61,17.5-27.38,31.21-60.94,31.21h0Z"/>
              <path class="cls-8" d="M520.21,11.84c1.45,0,2.91.03,4.38.08,35.28,1.24,63.36,17.06,62.72,35.34-.61,17.52-27.38,30.94-60.66,30.94-1.45,0-2.91-.03-4.38-.08-35.28-1.24-63.36-17.06-62.72-35.34.61-17.52,27.38-30.94,60.66-30.94M520.21,11.27c-16.24,0-31.45,3.18-42.84,8.96-11.56,5.86-18.09,13.86-18.39,22.53-.32,9.07,6.14,17.79,18.18,24.58,11.92,6.72,27.94,10.75,45.09,11.35,1.46.05,2.95.08,4.4.08,16.24,0,31.45-3.18,42.84-8.96,11.56-5.86,18.09-13.86,18.39-22.53.65-18.57-27.73-34.69-63.27-35.93-1.46-.05-2.95-.08-4.4-.08h0Z"/>
            </g>
            <g>
              <path class="cls-6" d="M526.01,71.79c-1.16,0-2.33-.02-3.51-.06-17.57-.62-33.57-5.77-42.78-13.79-5.17-4.48-7.8-9.57-7.62-14.72.49-14,21.91-24.97,48.76-24.97,1.16,0,2.33.02,3.52.06,17.29.61,33.14,5.64,42.4,13.47,5.41,4.56,8.18,9.76,7.99,15.03-.49,14-21.9,24.97-48.75,24.97Z"/>
              <path class="cls-8" d="M520.85,18.48c1.16,0,2.33.02,3.51.06,17.85.63,33.38,5.91,42.26,13.42,5.18,4.36,8.1,9.47,7.91,14.85-.49,14.02-21.9,24.75-48.52,24.75-1.16,0-2.33-.02-3.51-.06-18.1-.63-33.82-6.06-42.64-13.73-4.95-4.3-7.72-9.3-7.54-14.54.49-14.02,21.91-24.75,48.53-24.75M520.85,18.02c-12.99,0-25.16,2.55-34.27,7.17-9.25,4.69-14.47,11.09-14.72,18.02-.18,5.22,2.48,10.37,7.7,14.9,9.26,8.05,25.3,13.23,42.93,13.85,1.17.04,2.36.06,3.52.06,12.99,0,25.16-2.55,34.27-7.17,9.24-4.69,14.47-11.09,14.71-18.02.19-5.35-2.6-10.61-8.07-15.22-9.29-7.86-25.19-12.92-42.53-13.53-1.17-.04-2.36-.06-3.52-.06h0Z"/>
            </g>
          </g>
          <path class="cls-7" d="M574.53,46.81c-.51,14.63-23.8,25.68-52.03,24.69-18.1-.63-33.82-6.06-42.64-13.73,4.87,2.36,11.54,5.38,21.63,6.95,21.94,3.42,41.3-2.92,43.08-3.52,2.94-.99,14.65-5.19,20.28-13.3,3.83-5.53,3.56-11.04,1.77-15.94,5.18,4.36,8.1,9.47,7.91,14.85Z"/>
        </g>
      </g>
    </g>
  </g>
</svg>