<?xml version="1.0" encoding="UTF-8"?>
<svg id="Capa_2" data-name="Capa 2" xmlns="http://www.w3.org/2000/svg" viewBox="0 0 644.78 466.35">
  <defs>
    <style>
      .cls-1 {
        fill: #eaf2f4;
      }

      .cls-2 {
        fill: #fff;
      }

      .cls-3 {
        fill: #99a4ad;
      }

      .cls-4 {
        fill: #f2f8f9;
      }

      .cls-5 {
        fill: #778592;
      }

      .cls-6 {
        fill: #efa5bb;
      }

      .cls-7 {
        fill: #e08da9;
      }

      .cls-8 {
        fill: #bccbd2;
        stroke: #789;
        stroke-miterlimit: 10;
        stroke-width: 3.04px;
      }

      .cls-9 {
        fill: #d6e1e5;
      }

      .cls-10 {
        fill: #5c5d5e;
      }
    </style>
  </defs>
  <g id="Capa_1-2" data-name="Capa 1">
    <g>
      <rect class="cls-8" x="1.52" y="1.52" width="641.74" height="463.3" rx="13.57" ry="13.57"/>
      <polygon class="cls-3" points="625.52 32.77 69.87 32.77 35.17 68.25 35.17 453.4 625.52 453.4 625.52 32.77"/>
      <g>
        <path class="cls-9" d="M25.26,444.26c-.83,0-1.5-.67-1.5-1.5V57.61c0-.39.15-.77.43-1.05L58.88,21.08c.28-.29.67-.45,1.07-.45h555.65c.83,0,1.5.67,1.5,1.5v420.64c0,.83-.67,1.5-1.5,1.5H25.26Z"/>
        <path class="cls-5" d="M615.61,22.13v420.64H25.26V57.61L59.96,22.13h555.65M615.61,19.13H59.96c-.81,0-1.58.33-2.14.9L23.11,55.51c-.55.56-.86,1.31-.86,2.1v385.16c0,1.66,1.34,3,3,3h590.35c1.66,0,3-1.34,3-3V22.13c0-1.66-1.34-3-3-3h0Z"/>
      </g>
      <polygon class="cls-1" points="391.17 22.13 25.26 331.22 25.26 57.61 59.96 22.13 391.17 22.13"/>
      <polygon class="cls-4" points="176.04 22.13 25.26 143.17 25.26 57.61 59.96 22.13 176.04 22.13"/>
      <g>
        <g>
          <g>
            <g>
              <path class="cls-2" d="M141.07,219.09c-44.8,0-81.25-36.45-81.25-81.25s36.45-81.25,81.25-81.25,81.25,36.45,81.25,81.25-36.45,81.25-81.25,81.25Z"/>
              <path class="cls-10" d="M141.07,57.09c44.6,0,80.75,36.15,80.75,80.75s-36.15,80.75-80.75,80.75-80.75-36.15-80.75-80.75,36.15-80.75,80.75-80.75M141.07,56.09c-45.08,0-81.75,36.67-81.75,81.75s36.67,81.75,81.75,81.75,81.75-36.67,81.75-81.75-36.67-81.75-81.75-81.75h0Z"/>
            </g>
            <g>
              <path class="cls-6" d="M141.08,202.85c-22.28,0-42.76-11.22-54.78-30-6.69-10.44-10.23-22.54-10.23-35.01,0-35.84,29.16-64.99,65.01-64.99,21.93,0,42.22,10.94,54.28,29.26,7.01,10.6,10.71,22.96,10.71,35.73,0,35.85-29.15,65.01-64.99,65.01Z"/>
              <path class="cls-10" d="M141.08,73.24c22.57,0,42.41,11.55,53.94,29.08,6.73,10.18,10.65,22.39,10.65,35.51,0,35.68-28.91,64.61-64.59,64.61-22.87,0-42.97-11.88-54.45-29.82-6.44-10.05-10.16-21.99-10.16-34.79,0-35.68,28.93-64.59,64.61-64.59M141.08,72.44c-36.07,0-65.41,29.33-65.41,65.39,0,12.54,3.56,24.72,10.29,35.22,12.09,18.9,32.7,30.19,55.12,30.19,36.06,0,65.39-29.34,65.39-65.41,0-12.85-3.73-25.28-10.78-35.95-12.13-18.44-32.54-29.44-54.61-29.44h0Z"/>
            </g>
          </g>
          <path class="cls-7" d="M205.67,137.84c0,35.68-28.91,64.61-64.59,64.61-22.87,0-42.97-11.88-54.45-29.82,6.25,5.32,14.81,12.11,27.62,15.08,27.85,6.46,52.02-10.65,54.23-12.27,3.66-2.66,18.26-13.89,25.01-34.14,4.59-13.79,4.01-27.21,1.52-38.98,6.73,10.18,10.65,22.39,10.65,35.51Z"/>
        </g>
        <g>
          <g>
            <g>
              <path class="cls-2" d="M320.43,219.09c-44.8,0-81.25-36.45-81.25-81.25s36.45-81.25,81.25-81.25,81.25,36.45,81.25,81.25-36.45,81.25-81.25,81.25Z"/>
              <path class="cls-10" d="M320.43,57.09c44.6,0,80.75,36.15,80.75,80.75s-36.15,80.75-80.75,80.75-80.75-36.15-80.75-80.75,36.15-80.75,80.75-80.75M320.43,56.09c-45.08,0-81.75,36.67-81.75,81.75s36.67,81.75,81.75,81.75,81.75-36.67,81.75-81.75-36.67-81.75-81.75-81.75h0Z"/>
            </g>
            <g>
              <path class="cls-6" d="M320.44,202.85c-22.28,0-42.76-11.22-54.78-30-6.69-10.44-10.23-22.54-10.23-35.01,0-35.84,29.16-64.99,65.01-64.99,21.93,0,42.22,10.94,54.28,29.26,7.01,10.6,10.71,22.96,10.71,35.73,0,35.85-29.15,65.01-64.99,65.01Z"/>
              <path class="cls-10" d="M320.44,73.24c22.57,0,42.41,11.55,53.94,29.08,6.73,10.18,10.65,22.39,10.65,35.51,0,35.68-28.91,64.61-64.59,64.61-22.87,0-42.97-11.88-54.45-29.82-6.44-10.05-10.16-21.99-10.16-34.79,0-35.68,28.93-64.59,64.61-64.59M320.44,72.44c-36.07,0-65.41,29.33-65.41,65.39,0,12.54,3.56,24.72,10.29,35.22,12.09,18.9,32.7,30.19,55.12,30.19,36.06,0,65.39-29.34,65.39-65.41,0-12.85-3.73-25.28-10.78-35.95-12.13-18.44-32.54-29.44-54.61-29.44h0Z"/>
            </g>
          </g>
          <path class="cls-7" d="M385.03,137.84c0,35.68-28.91,64.61-64.59,64.61-22.87,0-42.97-11.88-54.45-29.82,6.25,5.32,14.81,12.11,27.62,15.08,27.85,6.46,52.02-10.65,54.23-12.27,3.66-2.66,18.26-13.89,25.01-34.14,4.59-13.79,4.01-27.21,1.52-38.98,6.73,10.18,10.65,22.39,10.65,35.51Z"/>
        </g>
        <g>
          <g>
            <g>
              <path class="cls-2" d="M499.8,219.09c-44.8,0-81.25-36.45-81.25-81.25s36.45-81.25,81.25-81.25,81.25,36.45,81.25,81.25-36.45,81.25-81.25,81.25Z"/>
              <path class="cls-10" d="M499.8,57.09c44.6,0,80.75,36.15,80.75,80.75s-36.15,80.75-80.75,80.75-80.75-36.15-80.75-80.75,36.15-80.75,80.75-80.75M499.8,56.09c-45.08,0-81.75,36.67-81.75,81.75s36.67,81.75,81.75,81.75,81.75-36.67,81.75-81.75-36.67-81.75-81.75-81.75h0Z"/>
            </g>
            <g>
              <path class="cls-6" d="M499.81,202.85c-22.28,0-42.76-11.22-54.78-30-6.69-10.44-10.23-22.54-10.23-35.01,0-35.84,29.16-64.99,65.01-64.99,21.93,0,42.22,10.94,54.28,29.26,7.01,10.6,10.71,22.96,10.71,35.73,0,35.85-29.15,65.01-64.99,65.01Z"/>
              <path class="cls-10" d="M499.81,73.24c22.57,0,42.41,11.55,53.94,29.08,6.73,10.18,10.65,22.39,10.65,35.51,0,35.68-28.91,64.61-64.59,64.61-22.87,0-42.97-11.88-54.45-29.82-6.44-10.05-10.16-21.99-10.16-34.79,0-35.68,28.93-64.59,64.61-64.59M499.81,72.44c-36.07,0-65.41,29.33-65.41,65.39,0,12.54,3.56,24.72,10.29,35.22,12.09,18.9,32.7,30.19,55.12,30.19,36.06,0,65.39-29.34,65.39-65.41,0-12.85-3.73-25.28-10.78-35.95-12.13-18.44-32.54-29.44-54.61-29.44h0Z"/>
            </g>
          </g>
          <path class="cls-7" d="M564.4,137.84c0,35.68-28.91,64.61-64.59,64.61-22.87,0-42.97-11.88-54.45-29.82,6.25,5.32,14.81,12.11,27.62,15.08,27.85,6.46,52.02-10.65,54.23-12.27,3.66-2.66,18.26-13.89,25.01-34.14,4.59-13.79,4.01-27.21,1.52-38.98,6.73,10.18,10.65,22.39,10.65,35.51Z"/>
        </g>
      </g>
      <g>
        <g>
          <g>
            <g>
              <path class="cls-2" d="M141.07,407.35c-44.8,0-81.25-36.45-81.25-81.25s36.45-81.25,81.25-81.25,81.25,36.45,81.25,81.25-36.45,81.25-81.25,81.25Z"/>
              <path class="cls-10" d="M141.07,245.35c44.6,0,80.75,36.15,80.75,80.75s-36.15,80.75-80.75,80.75-80.75-36.15-80.75-80.75,36.15-80.75,80.75-80.75M141.07,244.35c-45.08,0-81.75,36.67-81.75,81.75s36.67,81.75,81.75,81.75,81.75-36.67,81.75-81.75-36.67-81.75-81.75-81.75h0Z"/>
            </g>
            <g>
              <path class="cls-6" d="M141.07,391.11c-22.28,0-42.76-11.22-54.78-30-6.69-10.44-10.23-22.54-10.23-35.01,0-35.84,29.16-64.99,65.01-64.99,21.93,0,42.22,10.94,54.28,29.26,7.01,10.6,10.71,22.96,10.71,35.73,0,35.85-29.15,65.01-64.99,65.01Z"/>
              <path class="cls-10" d="M141.07,261.51c22.57,0,42.41,11.55,53.94,29.08,6.73,10.18,10.65,22.39,10.65,35.51,0,35.68-28.91,64.61-64.59,64.61-22.87,0-42.97-11.88-54.45-29.82-6.44-10.05-10.16-21.99-10.16-34.79,0-35.68,28.93-64.59,64.61-64.59M141.07,260.71c-36.07,0-65.41,29.33-65.41,65.39,0,12.54,3.56,24.72,10.29,35.22,12.09,18.9,32.7,30.19,55.12,30.19,36.06,0,65.39-29.34,65.39-65.41,0-12.85-3.73-25.28-10.78-35.95-12.13-18.44-32.54-29.44-54.61-29.44h0Z"/>
            </g>
          </g>
          <path class="cls-7" d="M205.67,326.1c0,35.68-28.91,64.61-64.59,64.61-22.87,0-42.97-11.88-54.45-29.82,6.25,5.32,14.81,12.11,27.62,15.08,27.85,6.46,52.02-10.65,54.23-12.27,3.66-2.66,18.26-13.89,25.01-34.14,4.59-13.79,4.01-27.21,1.52-38.98,6.73,10.18,10.65,22.39,10.65,35.51Z"/>
        </g>
        <g>
          <g>
            <g>
              <path class="cls-2" d="M320.43,407.35c-44.8,0-81.25-36.45-81.25-81.25s36.45-81.25,81.25-81.25,81.25,36.45,81.25,81.25-36.45,81.25-81.25,81.25Z"/>
              <path class="cls-10" d="M320.43,245.35c44.6,0,80.75,36.15,80.75,80.75s-36.15,80.75-80.75,80.75-80.75-36.15-80.75-80.75,36.15-80.75,80.75-80.75M320.43,244.35c-45.08,0-81.75,36.67-81.75,81.75s36.67,81.75,81.75,81.75,81.75-36.67,81.75-81.75-36.67-81.75-81.75-81.75h0Z"/>
            </g>
            <g>
              <path class="cls-6" d="M320.44,391.11c-22.28,0-42.76-11.22-54.78-30-6.69-10.44-10.23-22.54-10.23-35.01,0-35.84,29.16-64.99,65.01-64.99,21.93,0,42.22,10.94,54.28,29.26,7.01,10.6,10.71,22.96,10.71,35.73,0,35.85-29.15,65.01-64.99,65.01Z"/>
              <path class="cls-10" d="M320.44,261.51c22.57,0,42.41,11.55,53.94,29.08,6.73,10.18,10.65,22.39,10.65,35.51,0,35.68-28.91,64.61-64.59,64.61-22.87,0-42.97-11.88-54.45-29.82-6.44-10.05-10.16-21.99-10.16-34.79,0-35.68,28.93-64.59,64.61-64.59M320.44,260.71c-36.07,0-65.41,29.33-65.41,65.39,0,12.54,3.56,24.72,10.29,35.22,12.09,18.9,32.7,30.19,55.12,30.19,36.06,0,65.39-29.34,65.39-65.41,0-12.85-3.73-25.28-10.78-35.95-12.13-18.44-32.54-29.44-54.61-29.44h0Z"/>
            </g>
          </g>
          <path class="cls-7" d="M385.03,326.1c0,35.68-28.91,64.61-64.59,64.61-22.87,0-42.97-11.88-54.45-29.82,6.25,5.32,14.81,12.11,27.62,15.08,27.85,6.46,52.02-10.65,54.23-12.27,3.66-2.66,18.26-13.89,25.01-34.14,4.59-13.79,4.01-27.21,1.52-38.98,6.73,10.18,10.65,22.39,10.65,35.51Z"/>
        </g>
        <g>
          <g>
            <g>
              <path class="cls-2" d="M499.8,407.35c-44.8,0-81.25-36.45-81.25-81.25s36.45-81.25,81.25-81.25,81.25,36.45,81.25,81.25-36.45,81.25-81.25,81.25Z"/>
              <path class="cls-10" d="M499.8,245.35c44.6,0,80.75,36.15,80.75,80.75s-36.15,80.75-80.75,80.75-80.75-36.15-80.75-80.75,36.15-80.75,80.75-80.75M499.8,244.35c-45.08,0-81.75,36.67-81.75,81.75s36.67,81.75,81.75,81.75,81.75-36.67,81.75-81.75-36.67-81.75-81.75-81.75h0Z"/>
            </g>
            <g>
              <path class="cls-6" d="M499.8,391.11c-22.28,0-42.76-11.22-54.78-30-6.69-10.44-10.23-22.54-10.23-35.01,0-35.84,29.16-64.99,65.01-64.99,21.93,0,42.22,10.94,54.28,29.26,7.01,10.6,10.71,22.96,10.71,35.73,0,35.85-29.15,65.01-64.99,65.01Z"/>
              <path class="cls-10" d="M499.8,261.51c22.57,0,42.41,11.55,53.94,29.08,6.73,10.18,10.65,22.39,10.65,35.51,0,35.68-28.91,64.61-64.59,64.61-22.87,0-42.97-11.88-54.45-29.82-6.44-10.05-10.16-21.99-10.16-34.79,0-35.68,28.93-64.59,64.61-64.59M499.8,260.71c-36.07,0-65.41,29.33-65.41,65.39,0,12.54,3.56,24.72,10.29,35.22,12.09,18.9,32.7,30.19,55.12,30.19,36.06,0,65.39-29.34,65.39-65.41,0-12.85-3.73-25.28-10.78-35.95-12.13-18.44-32.54-29.44-54.61-29.44h0Z"/>
            </g>
          </g>
          <path class="cls-7" d="M564.4,326.1c0,35.68-28.91,64.61-64.59,64.61-22.87,0-42.97-11.88-54.45-29.82,6.25,5.32,14.81,12.11,27.62,15.08,27.85,6.46,52.02-10.65,54.23-12.27,3.66-2.66,18.26-13.89,25.01-34.14,4.59-13.79,4.01-27.21,1.52-38.98,6.73,10.18,10.65,22.39,10.65,35.51Z"/>
        </g>
      </g>
    </g>
  </g>
</svg>