<?xml version="1.0" encoding="UTF-8"?>
<svg id="Capa_2" data-name="Capa 2" xmlns="http://www.w3.org/2000/svg" viewBox="0 0 210.07 677.36">
  <defs>
    <style>
      .cls-1 {
        fill: #a53c3c;
      }

      .cls-2 {
        fill: #bccbd2;
      }

      .cls-3 {
        fill: #b2b5b7;
      }

      .cls-4 {
        fill: #ba4a4a;
      }

      .cls-5 {
        fill: #dedfe0;
      }

      .cls-6 {
        fill: #778592;
      }

      .cls-7 {
        fill: #a03535;
      }

      .cls-8 {
        fill: #ed7f77;
      }

      .cls-9 {
        fill: #efefef;
      }

      .cls-10 {
        fill: #db6053;
      }

      .cls-11 {
        fill: #999;
      }

      .cls-12 {
        fill: #eef2f6;
      }

      .cls-13 {
        opacity: .83;
      }

      .cls-14 {
        fill: #d6e1e5;
      }
    </style>
  </defs>
  <g id="Capa_1-2" data-name="Capa 1">
    <g>
      <g>
        <rect class="cls-14" x="23.88" y="187.14" width="163.04" height="379.8" rx="2.82" ry="2.82"/>
        <path class="cls-6" d="M184.11,189.95v374.17H26.7V189.95h157.41M184.11,184.32H26.7c-3.11,0-5.63,2.52-5.63,5.63v374.17c0,3.11,2.52,5.63,5.63,5.63h157.41c3.11,0,5.63-2.52,5.63-5.63V189.95c0-3.11-2.52-5.63-5.63-5.63h0Z"/>
      </g>
      <path class="cls-10" d="M184.11,378.17v185.95H26.7v-185.95c0-3.85,35.24-6.97,78.71-6.97s78.71,3.12,78.71,6.97Z"/>
      <g>
        <path class="cls-14" d="M105.4,674.54c-26.61,0-53.25-2.31-79.19-6.86-1.35-.24-2.33-1.41-2.33-2.77v-94.73c0-1.55,1.26-2.82,2.82-2.82h157.41c1.55,0,2.82,1.26,2.82,2.82v94.73c0,1.37-.98,2.54-2.33,2.77-25.94,4.55-52.59,6.86-79.19,6.86Z"/>
        <path class="cls-6" d="M184.11,570.17v94.73c-25.92,4.55-52.32,6.82-78.71,6.82s-52.79-2.27-78.71-6.82v-94.73h157.41M184.11,564.54H26.7c-3.11,0-5.63,2.52-5.63,5.63v94.73c0,2.73,1.96,5.07,4.66,5.55,26.1,4.58,52.91,6.9,79.68,6.9s53.58-2.32,79.68-6.9c2.69-.47,4.66-2.81,4.66-5.55v-94.73c0-3.11-2.52-5.63-5.63-5.63h0Z"/>
      </g>
      <g>
        <rect class="cls-14" x="23.88" y="145.3" width="163.04" height="14.79" rx="2.82" ry="2.82"/>
        <path class="cls-6" d="M184.11,148.11v9.16H26.7v-9.16h157.41M184.11,142.48H26.7c-3.11,0-5.63,2.52-5.63,5.63v9.16c0,3.11,2.52,5.63,5.63,5.63h157.41c3.11,0,5.63-2.52,5.63-5.63v-9.16c0-3.11-2.52-5.63-5.63-5.63h0Z"/>
      </g>
      <g>
        <path class="cls-5" d="M10.8,141.85c-4.4,0-7.98-3.12-7.98-6.96v-10.13c0-3.84,3.58-6.96,7.98-6.96h188.47c4.4,0,7.98,3.12,7.98,6.96v10.13c0,3.84-3.58,6.96-7.98,6.96H10.8Z"/>
        <path class="cls-11" d="M199.27,120.62c2.85,0,5.17,1.86,5.17,4.15v10.13c0,2.29-2.31,4.15-5.17,4.15H10.8c-2.85,0-5.17-1.86-5.17-4.15v-10.13c0-2.29,2.31-4.15,5.17-4.15h188.47M199.27,114.99H10.8c-5.95,0-10.8,4.39-10.8,9.78v10.13c0,5.39,4.84,9.78,10.8,9.78h188.47c5.95,0,10.8-4.39,10.8-9.78v-10.13c0-5.39-4.84-9.78-10.8-9.78h0Z"/>
      </g>
      <g>
        <path class="cls-5" d="M12.81,113.16c-.77,0-1.51-.31-2.04-.87s-.81-1.31-.78-2.08L14.21,20.51c.46-9.92,10.23-17.69,22.23-17.69h136.77c6.54,0,12.72,2.36,16.95,6.46,3.25,3.16,5.08,7.02,5.29,11.16l4.64,89.77c.04.77-.24,1.52-.77,2.08-.53.56-1.27.88-2.04.88H12.81Z"/>
        <path class="cls-11" d="M173.21,5.63c6.02,0,11.41,2.2,14.98,5.67,2.61,2.54,4.26,5.75,4.44,9.28l4.64,89.77H12.81l4.21-89.71c.39-8.38,8.98-15.01,19.42-15.01h136.77M173.21,0H36.44C22.93,0,11.93,8.95,11.4,20.38l-4.21,89.71c-.07,1.54.49,3.04,1.55,4.15,1.06,1.11,2.53,1.74,4.07,1.74h184.46c1.54,0,3.02-.63,4.08-1.75,1.06-1.12,1.62-2.63,1.54-4.17l-4.64-89.77c-.24-4.78-2.42-9.41-6.14-13.03-4.75-4.62-11.64-7.26-18.91-7.26h0Z"/>
      </g>
      <g>
        <path class="cls-14" d="M25.25,183.69c-3.04,0-5.93-.97-8.15-2.74-2.37-1.91-3.71-4.58-3.71-7.34,0-5.56,5.32-10.08,11.87-10.08h160.3c3.05,0,5.95.98,8.16,2.75,2.36,1.89,3.71,4.56,3.71,7.33,0,5.56-5.32,10.08-11.87,10.08H25.25Z"/>
        <path class="cls-6" d="M185.56,166.35c2.49,0,4.75.81,6.4,2.13,1.63,1.31,2.65,3.13,2.65,5.13,0,4-4.06,7.26-9.05,7.26H25.25c-2.49,0-4.75-.82-6.4-2.13-1.63-1.32-2.65-3.14-2.65-5.13,0-4.01,4.06-7.26,9.05-7.26h160.3M185.56,160.72H25.25c-8.1,0-14.68,5.78-14.68,12.89,0,3.61,1.73,7.08,4.74,9.51,2.75,2.19,6.27,3.38,9.94,3.38h160.3c8.1,0,14.68-5.78,14.68-12.89,0-3.63-1.73-7.1-4.76-9.53-2.71-2.17-6.23-3.37-9.92-3.37h0Z"/>
      </g>
      <path class="cls-3" d="M197.27,110.35h-111.15c10.74-2.33,23.71-6.29,37-13.15,5.44-2.8,25.29-13.51,41.97-34.73,15.06-19.15,20.38-37.76,23.11-51.17,2.61,2.54,4.26,5.75,4.44,9.28l4.64,89.77Z"/>
      <path class="cls-11" d="M41.39,16.68h-2.57c-2.76,0-4.99,2.23-4.99,4.99v88.68h12.54V21.67c0-2.76-2.23-4.99-4.99-4.99Z"/>
      <path class="cls-11" d="M100.42,16.68h-2.57c-2.76,0-4.99,2.23-4.99,4.99v88.68h12.54V21.67c0-2.76-2.23-4.99-4.99-4.99Z"/>
      <path class="cls-11" d="M164.69,16.68h-2.57c-2.76,0-4.99,2.23-4.99,4.99v88.68s12.54,0,12.54,0V21.67c0-2.76-2.23-4.99-4.99-4.99Z"/>
      <path class="cls-3" d="M204.44,124.76v10.13c0,2.29-2.31,4.15-5.17,4.15h-88.27c4.98-1.09,10.16-2.66,15.31-4.93,10.09-4.45,14.37-9.02,19.5-13.49h53.46c2.85,0,5.17,1.86,5.17,4.15Z"/>
      <rect class="cls-2" x="141.7" y="148.11" width="42.41" height="9.16"/>
      <path class="cls-2" d="M194.61,173.61c0,4-4.06,7.26-9.05,7.26h-43.86v-14.52h43.86c2.49,0,4.75.81,6.4,2.13,1.63,1.31,2.65,3.13,2.65,5.13Z"/>
      <path class="cls-2" d="M184.11,189.96v188.22c0-2.69-17.21-5.02-42.41-6.19v-182.02h42.41Z"/>
      <path class="cls-4" d="M184.11,378.17v185.95h-42.41v-192.14c25.2,1.17,42.41,3.5,42.41,6.19Z"/>
      <path class="cls-12" d="M63.46,195.49l-6.31,177.17c-7.73.53-14.29,1.19-19.33,1.93l-3.97-179.1h29.62Z"/>
      <path class="cls-8" d="M56.75,383.66l-5.96,167.51c-.04.99-.57,1.87-1.38,2.5-.82.64-1.92,1.03-3.16,1.03-2.46,0-4.49-1.58-4.53-3.57l-3.76-169.36c4.93.73,11.3,1.36,18.78,1.89Z"/>
      <path class="cls-2" d="M184.11,573.2v91.71c-25.92,4.55-52.32,6.82-78.71,6.82s-52.78-2.27-78.71-6.82v-3.05c15.02.99,36.54,1.62,59.87-6.55,8.4-2.94,18.04-7.37,27.49-13.16,3.98-.57,7.76-1.53,11.18-2.81,5.92-2.21,10.8-5.4,13.87-9.28l45-56.86Z"/>
      <g>
        <path class="cls-10" d="M105,645.61c-15.77,0-29.73-5.35-36.43-13.96l-44.1-56.73c-.66-.85-.78-2-.31-2.96.47-.97,1.45-1.58,2.53-1.58h157.41c1.08,0,2.06.62,2.53,1.59.47.97.34,2.13-.33,2.97l-45,56.86c-3.33,4.21-8.54,7.73-15.09,10.17-3.65,1.37-7.6,2.36-11.76,2.96-3.09.45-6.28.67-9.47.67Z"/>
        <path class="cls-6" d="M184.11,573.2l-45,56.86c-3.07,3.88-7.94,7.07-13.87,9.28-3.42,1.28-7.19,2.24-11.18,2.81-2.93.42-5.96.65-9.06.65-14.73,0-28.11-5.03-34.21-12.87l-44.1-56.73h157.41M184.11,567.57H26.7c-2.15,0-4.11,1.22-5.06,3.16-.94,1.93-.71,4.23.61,5.93l44.1,56.73c7.22,9.28,22.03,15.05,38.65,15.05,3.32,0,6.64-.24,9.87-.7,4.35-.63,8.5-1.68,12.34-3.11,7.02-2.62,12.66-6.45,16.31-11.06l45-56.85c1.34-1.69,1.59-4,.65-5.95s-2.91-3.18-5.07-3.18h0Z"/>
      </g>
      <path class="cls-4" d="M184.11,573.2l-45,56.86c-3.07,3.88-7.94,7.07-13.87,9.28-3.42,1.28-7.19,2.24-11.18,2.81,18.77-11.47,36.73-28.26,42.36-49.19,1.97-7.37,2.1-14.02,2.36-19.76h25.32Z"/>
      <path class="cls-8" d="M94.2,631.83c-6.54-4.82-11.25-9.26-20.66-18.16-21.01-19.85-32.54-34.34-33.7-33.75-1.07.55,14.43,23.88,37.3,51.05,7.36,8.75,25.02,9.09,25.91,7.86.52-.71-3.02-2.71-8.85-7.01Z"/>
      <path class="cls-7" d="M184.11,378.17c0,2.69-17.21,5.03-42.41,6.19-10.85.5-23.19.79-36.29.79-18.37,0-35.26-.55-48.65-1.49-7.48-.52-13.85-1.16-18.78-1.89-7.15-1.05-11.28-2.28-11.28-3.6s4.06-2.53,11.11-3.58c5.04-.74,11.6-1.39,19.33-1.93,13.33-.92,30.07-1.46,48.26-1.46,13.1,0,25.44.28,36.29.78,25.2,1.17,42.41,3.5,42.41,6.19Z"/>
      <path class="cls-1" d="M57.14,372.67l-.39,10.99c-7.48-.52-13.85-1.16-18.78-1.89l-.16-7.18c5.04-.74,11.6-1.39,19.33-1.93Z"/>
      <g class="cls-13">
        <path class="cls-9" d="M121.13,479.64h62.98v-247.04h-62.98c-7.35,0-13.3,5.96-13.3,13.3v220.43c0,7.35,5.96,13.3,13.3,13.3Z"/>
      </g>
    </g>
  </g>
</svg>