<?xml version="1.0" encoding="UTF-8" standalone="no"?>
<svg
   id="Capa_2"
   data-name="Capa 2"
   viewBox="0 0 976.21 517.56"
   version="1.1"
   sodipodi:docname="T175 flask (sample) - salmon.svg"
   inkscape:version="1.4.2 (ebf0e940, 2025-05-08)"
   xmlns:inkscape="http://www.inkscape.org/namespaces/inkscape"
   xmlns:sodipodi="http://sodipodi.sourceforge.net/DTD/sodipodi-0.dtd"
   xmlns="http://www.w3.org/2000/svg"
   xmlns:svg="http://www.w3.org/2000/svg">
  <sodipodi:namedview
     id="namedview26"
     pagecolor="#ffffff"
     bordercolor="#000000"
     borderopacity="0.25"
     inkscape:showpageshadow="2"
     inkscape:pageopacity="0.0"
     inkscape:pagecheckerboard="0"
     inkscape:deskcolor="#d1d1d1"
     inkscape:zoom="0.52307431"
     inkscape:cx="637.57671"
     inkscape:cy="211.25106"
     inkscape:window-width="888"
     inkscape:window-height="868"
     inkscape:window-x="625"
     inkscape:window-y="38"
     inkscape:window-maximized="0"
     inkscape:current-layer="g26" />
  <defs
     id="defs1">
    <style
       id="style1">
      .cls-1 {
        opacity: .85;
      }

      .cls-2 {
        fill: #dfe8ed;
      }

      .cls-3 {
        fill: #efa5bb;
        stroke: #c9738f;
      }

      .cls-3, .cls-4 {
        opacity: .78;
      }

      .cls-3, .cls-5, .cls-6, .cls-7, .cls-8, .cls-9, .cls-10, .cls-11 {
        stroke-miterlimit: 10;
      }

      .cls-3, .cls-9 {
        stroke-width: 1.62px;
      }

      .cls-4, .cls-12 {
        fill: #a1abaf;
      }

      .cls-5 {
        fill: #316f99;
      }

      .cls-5, .cls-6 {
        stroke: #314d66;
        stroke-width: 2.56px;
      }

      .cls-13 {
        fill: #c66389;
        opacity: .22;
      }

      .cls-14 {
        fill: #656e72;
      }

      .cls-6 {
        fill: #3f7eb1;
      }

      .cls-15 {
        fill: #578fb5;
      }

      .cls-16 {
        fill: #bdced6;
      }

      .cls-17 {
        fill: #255c82;
      }

      .cls-18 {
        fill: #336e96;
      }

      .cls-19, .cls-7, .cls-11 {
        fill: none;
      }

      .cls-7 {
        stroke: #1d1d1b;
        stroke-width: .14px;
      }

      .cls-8 {
        fill: #aab8bf;
      }

      .cls-8, .cls-10, .cls-11 {
        stroke: #656e72;
        stroke-width: 2.7px;
      }

      .cls-20 {
        fill: #fff;
      }

      .cls-20, .cls-21, .cls-22 {
        opacity: .56;
      }

      .cls-9 {
        fill: #e08da9;
        opacity: .9;
        stroke: #ba6385;
      }

      .cls-21 {
        fill: #b6c7ce;
      }

      .cls-10 {
        fill: #c8d2d6;
      }

      .cls-22 {
        fill: #e2e9ed;
      }
    </style>
  </defs>
  <g
     id="Capa_1-2"
     data-name="Capa 1">
    <g
       id="g26">
      <path
         class="cls-10"
         d="M974.05,147.73l-.53,20.05-.02.56c-.16,2.55-1.6,4.78-4.29,5.66l-438.56,143.28c-4.7,1.54-9.52,2.67-14.4,3.38v-19.91c1.05-.13,2.1-.28,3.15-.44.5-.08,1-.17,1.5-.25,1-.18,1.99-.37,2.97-.58.01,0,.02,0,.03,0,.38-.08.77-.17,1.16-.25.64-.15,1.28-.3,1.92-.46l1.17-.31c.17-.04.34-.09.5-.14.38-.1.75-.21,1.13-.32.49-.14.97-.28,1.45-.43h0c.48-.15.97-.3,1.45-.46l428.51-140,7.53-2.46c3.33-1.09,5.14-3.94,5.32-6.9Z"
         id="path1" />
      <g
         id="g3">
        <path
           class="cls-2"
           d="M236.86,516.21c-.29,0-.58-.09-.81-.27,0,0-79.89-59.69-118.97-88.88-.34-.25-.54-.65-.54-1.07l-1.24-172.16c0-.55.32-1.04.83-1.25.17-.07.35-.11.53-.11.35,0,.69.13.95.39.3.3.62.56.95.78l106,70.34c3.83,2.54,8.05,4.26,12.56,5.12,2.11.41,4.28.61,6.44.61.42,0,.83,0,1.25-.02l261.93-9.51c3.12-.12,6.26-.4,9.32-.85,4.8-.7,9.57-1.82,14.18-3.33l438.56-143.28c2-.66,3.23-2.28,3.36-4.46.04-.72.64-1.27,1.35-1.27.02,0,.04,0,.06,0,.74.03,1.31.65,1.29,1.39l-5.04,190.16c-.01.57-.38,1.07-.92,1.25l-452.22,151.49c-.13.04-.27.07-.41.07l-81.15,1.41c-41.02.71-82.04,1.43-123.07,2.15,0,0-75.19,1.31-75.2,1.31Z"
           id="path2" />
        <path
           class="cls-14"
           d="M973.51,168.34l-.2,7.54-2.52,95.29-2.31,87.32-452.22,151.49c-27.05.47-54.1.94-81.15,1.41-41.78.72-83.56,1.46-125.34,2.19-24.3.42-48.6.84-72.9,1.27-39.66-29.63-79.31-59.26-118.97-88.88l-.61-83.86-.64-88.29c.35.34.73.66,1.16.94l106,70.33c3.98,2.64,8.42,4.44,13.06,5.32,2.2.42,4.44.63,6.69.63.43,0,.87,0,1.3-.02l261.93-9.51c3.17-.12,6.33-.41,9.47-.87,4.88-.71,9.7-1.84,14.4-3.38l438.56-143.28c2.69-.88,4.13-3.1,4.29-5.66M973.51,165.63c-1.42,0-2.61,1.11-2.7,2.54-.06.94-.45,2.6-2.43,3.25l-438.56,143.28c-4.54,1.48-9.23,2.58-13.95,3.28-3.01.44-6.1.72-9.18.84l-261.92,9.51c-.4.01-.8.02-1.2.02-2.08,0-4.16-.2-6.18-.59-4.33-.82-8.39-2.48-12.07-4.92l-106-70.33c-.27-.17-.52-.38-.76-.62-.52-.51-1.2-.78-1.9-.78-.36,0-.71.07-1.05.21-1.01.43-1.66,1.42-1.65,2.51l.64,88.29.61,83.86c0,.85.41,1.64,1.09,2.15,39.66,29.62,79.31,59.25,118.97,88.88.47.35,1.04.54,1.62.54.02,0,.03,0,.05,0,24.24-.43,48.47-.85,72.7-1.27h.2s5.06-.09,5.06-.09c40.1-.7,80.19-1.4,120.29-2.1l39.69-.69,41.46-.72c.28,0,.55-.05.81-.14l452.22-151.49c1.08-.36,1.81-1.36,1.84-2.49l2.31-87.32,2.52-95.29.2-7.54c.04-1.47-1.11-2.71-2.58-2.77-.04,0-.08,0-.12,0h0ZM973.51,171.04h0,0Z"
           id="path3" />
      </g>
      <path
         class="cls-7"
         d="M974.07,147.13v.05s0-.03,0-.05h0Z"
         id="path4" />
      <path
         class="cls-8"
         d="M516.25,300.74v19.91c-3.14.46-6.3.75-9.47.87l-261.93,9.51c-2.69.1-5.38-.11-7.99-.61v-20.63s.07.02.1.02c.22.06.43.11.65.16.06.02.12.03.19.04.19.04.39.09.58.12.44.09.89.18,1.34.25.22.04.43.07.64.1.48.07.96.14,1.44.18.28.03.57.05.85.08.22.02.44.04.66.05.03,0,.05.01.08,0,.35.03.7.04,1.05.05h.08c.35.01.69.02,1.03.02.44,0,.88,0,1.32-.02l261.93-9.51c.51-.02,1.02-.04,1.53-.07.28-.02.56-.03.84-.05.39-.02.77-.04,1.16-.08.16,0,.31-.02.47-.04.43-.03.86-.07,1.29-.11.14-.01.27-.02.41-.04.57-.06,1.14-.12,1.71-.19.01,0,.02,0,.03,0Z"
         id="path5" />
      <path
         class="cls-10"
         d="M236.86,309.78v20.63c-4.64-.88-9.08-2.68-13.06-5.32l-106-70.33c-.43-.28-.81-.6-1.16-.94l-.08-10.61-.11-14.89c.01,2.39,1.14,4.77,3.37,6.25l4.68,3.11,101.31,67.22c.18.12.37.24.55.36.14.09.29.18.43.27.75.47,1.52.9,2.3,1.3.22.11.45.23.68.34.23.11.45.22.68.32.23.11.46.22.69.31.22.1.44.19.66.29.14.06.28.11.42.17.19.08.38.16.57.23.85.33,1.72.62,2.6.88.24.07.48.14.72.21.24.07.49.14.73.19Z"
         id="path6" />
      <path
         class="cls-11"
         d="M955.51,349.74l-428.19,144.7c-8.46,2.74-17.25,4.29-26.14,4.62l-252.84,3.13c-6.29.23-12.49-1.51-17.73-4.99l-91.47-65.9c-4.88-3.23-4.9-10.4-.03-13.66l137.56-90.94c5.39-3.6,11.31-6.32,17.55-8.08l371.35-104.65c13.99-3.94,28.95-2.41,41.86,4.27l248.96,120.96c4.52,2.34,3.97,8.96-.87,10.53Z"
         id="path7" />
      <polygon
         class="cls-9"
         points="961.64 260.88 961.64 260.89 960.41 307.09 959.31 348.58 516.26 497.01 481.63 497.61 236.87 501.87 134.61 425.48 134.67 341.35 137.1 343.06 239.98 415.56 518.27 415.32 881.88 288.66 961.63 260.88 961.64 260.88"
         id="polygon7"
         style="fill:#e0a48d;stroke:#cda57e" />
      <ellipse
         class="cls-4"
         cx="700.95"
         cy="109.16"
         rx="2.01"
         ry="47.8"
         id="ellipse7" />
      <ellipse
         class="cls-4"
         cx="306.7"
         cy="211.83"
         rx="2.01"
         ry="47.8"
         id="ellipse8" />
      <path
         class="cls-3"
         d="M961.63,260.88l-79.75,27.78-363.61,126.65-278.29.25-102.88-72.5-1.64-2.83,175.93-104.42,389.47-108.45c10.77-3,22.29-1.73,32.16,3.53l194.22,110.43,34.39,19.56Z"
         id="path8"
         style="fill:#ffccaa;stroke:#cda57e" />
      <path
         class="cls-21"
         d="M974.06,147.13c-.03-2.64-1.38-5.27-4.14-6.72L717.54,8.05c-13.25-6.95-28.66-8.57-43.06-4.51l-388.36,109.25c-3.87,1.09-7.54,2.79-10.88,5.02l-155.43,104.2c-2.21,1.48-3.33,3.84-3.34,6.21v.09c.01,2.39,1.14,4.77,3.37,6.25l4.68,3.11,101.31,67.22c.18.12.37.24.55.36.14.09.29.18.43.27.75.47,1.52.9,2.3,1.3.22.11.45.23.68.34.23.11.45.22.68.32.23.11.45.21.69.31.22.1.44.19.66.29.14.06.28.11.42.17.19.08.38.16.57.23.85.33,1.72.62,2.6.88.24.07.48.14.72.21.24.07.49.14.73.19.04.01.07.02.1.02.22.06.43.11.65.16.06.02.12.03.19.04.19.04.39.09.58.12.44.09.89.18,1.34.25.22.04.43.07.64.1.48.07.96.14,1.44.18.28.03.57.05.85.08.22.02.44.04.66.05.03,0,.05.01.08,0,.35.03.7.04,1.05.05h.08c.35.01.69.02,1.03.02.44,0,.88,0,1.32-.02l261.93-9.51c.51-.02,1.02-.04,1.53-.07.28-.02.56-.03.84-.05.39-.02.77-.05,1.16-.08.16,0,.31-.02.47-.04.43-.03.86-.07,1.29-.11.14-.01.27-.02.41-.04.57-.06,1.14-.12,1.71-.19.01,0,.02,0,.03,0,1.05-.13,2.1-.28,3.15-.44.5-.08,1-.17,1.5-.25,1-.18,1.99-.37,2.97-.58.01,0,.02,0,.03,0,.38-.08.77-.17,1.16-.25.64-.15,1.28-.3,1.92-.46l1.17-.31c.17-.04.34-.09.5-.14.38-.1.75-.21,1.13-.32.49-.14.97-.28,1.45-.43h0c.48-.15.97-.3,1.45-.46l428.51-140,7.53-2.46c3.33-1.09,5.14-3.94,5.32-6.9l.02-.55s0-.03,0-.05ZM942.29,151.19l-415.54,134.56c-8.46,2.74-17.25,4.29-26.14,4.62l-248.97,9.04c-6.29.23-12.49-1.51-17.73-4.99l-90.01-59.53c-4.88-3.23-4.9-10.4-.03-13.66l137.59-91.85c5.39-3.6,11.31-6.32,17.55-8.08L670.36,16.65c13.99-3.94,28.95-2.41,41.86,4.27l230.95,119.74c4.52,2.34,3.97,8.96-.87,10.53Z"
         id="path9" />
      <path
         class="cls-22"
         d="M942.29,151.19l-415.54,134.56c-8.46,2.74-17.25,4.29-26.14,4.62l-248.97,9.04c-6.29.23-12.49-1.51-17.73-4.99l-90.01-59.53c-4.88-3.23-4.9-10.4-.03-13.66l137.59-91.85c5.39-3.6,11.31-6.32,17.55-8.08L670.36,16.65c13.99-3.94,28.95-2.41,41.86,4.27l230.95,119.74c4.52,2.34,3.97,8.96-.87,10.53Z"
         id="path10" />
      <path
         class="cls-20"
         d="M496.08,65.77l-203.75,232.16-94.7,3.44c47.72-1.73,41.52-3.48,36.28-6.95l-90.01-59.53c-4.88-3.23-4.9-10.4-.03-13.66l137.59-91.85c5.39-3.6,11.31-6.32,17.55-8.08l197.07-55.54Z"
         id="path11" />
      <g
         class="cls-1"
         id="g13">
        <path
           class="cls-2"
           d="M163.52,434.55c-.81,0-1.63-.06-2.43-.19l-.11-.02-68.85-16.87,2.05-1.62c1.54-1.22,3.04-2.56,4.46-3.99,11.75-11.78,20.4-30.79,23.75-52.14,3.79-24.22.15-47.43-9.72-62.08l-1.85-2.74,69.48,17.02c9.13,1.46,16.37,10.95,19.86,26.04,2.68,11.57,2.93,25.74.71,39.91-5.06,32.32-21.12,56.69-37.36,56.69Z"
           id="path12" />
        <path
           class="cls-14"
           d="M113.72,296.92l66.33,16.25c8.94,1.4,15.62,11.05,18.87,25.07,2.56,11.06,2.98,24.83.7,39.42-4.94,31.57-20.77,55.61-36.09,55.61-.75,0-1.49-.06-2.24-.17l-66.31-16.25c1.56-1.23,3.09-2.6,4.58-4.09,11.44-11.48,20.6-30.48,24.11-52.85,3.95-25.29-.28-48.68-9.92-62.99M107.91,292.87l3.7,5.48c9.7,14.39,13.26,37.25,9.52,61.17-3.31,21.1-11.83,39.85-23.39,51.44-1.39,1.4-2.85,2.71-4.35,3.9l-4.1,3.24,5.07,1.24,66.31,16.25.11.03.11.02c.87.14,1.75.2,2.63.2,16.86,0,33.47-24.83,38.62-57.77,2.24-14.33,1.98-28.67-.73-40.39-3.61-15.6-11.2-25.43-20.85-27l-66.22-16.22-6.42-1.57h0Z"
           id="path13" />
      </g>
      <ellipse
         class="cls-12"
         cx="516.25"
         cy="401.02"
         rx="2.01"
         ry="47.8"
         id="ellipse13" />
      <ellipse
         class="cls-12"
         cx="237.97"
         cy="416.25"
         rx="2.01"
         ry="47.8"
         id="ellipse14" />
      <path
         class="cls-11"
         d="M974.06,147.13c-.03-2.64-1.38-5.27-4.14-6.72L717.54,8.05c-13.25-6.95-28.66-8.57-43.06-4.51l-388.36,109.25c-3.87,1.09-7.54,2.79-10.88,5.02l-155.43,104.2c-2.21,1.48-3.33,3.84-3.34,6.21v.09c.01,2.39,1.14,4.77,3.37,6.25l4.68,3.11,101.31,67.22c.18.12.37.24.55.36.14.09.29.18.43.27.75.47,1.52.9,2.3,1.3.22.11.45.23.68.34.23.11.45.22.68.32.23.11.45.21.69.31.22.1.44.19.66.29.14.06.28.11.42.17.19.08.38.16.57.23.85.33,1.72.62,2.6.88.24.07.48.14.72.21.24.07.49.14.73.19.04.01.07.02.1.02.22.06.43.11.65.16.06.02.12.03.19.04.19.04.39.09.58.12.44.09.89.18,1.34.25.22.04.43.07.64.1.48.07.96.14,1.44.18.28.03.57.05.85.08.22.02.44.04.66.05.03,0,.05.01.08,0,.35.03.7.04,1.05.05h.08c.35.01.69.02,1.03.02.44,0,.88,0,1.32-.02l261.93-9.51c.51-.02,1.02-.04,1.53-.07.28-.02.56-.03.84-.05.39-.02.77-.05,1.16-.08.16,0,.31-.02.47-.04.43-.03.86-.07,1.29-.11.14-.01.27-.02.41-.04.57-.06,1.14-.12,1.71-.19.01,0,.02,0,.03,0,1.05-.13,2.1-.28,3.15-.44.5-.08,1-.17,1.5-.25,1-.18,1.99-.37,2.97-.58.01,0,.02,0,.03,0,.38-.08.77-.17,1.16-.25.64-.15,1.28-.3,1.92-.46l1.17-.31c.17-.04.34-.09.5-.14.38-.1.75-.21,1.13-.32.49-.14.97-.28,1.45-.43h0c.48-.15.97-.3,1.45-.46l428.51-140,7.53-2.46c3.33-1.09,5.14-3.94,5.32-6.9l.02-.55s0-.03,0-.05ZM942.29,151.19l-415.54,134.56c-8.46,2.74-17.25,4.29-26.14,4.62l-248.97,9.04c-6.29.23-12.49-1.51-17.73-4.99l-90.01-59.53c-4.88-3.23-4.9-10.4-.03-13.66l137.59-91.85c5.39-3.6,11.31-6.32,17.55-8.08L670.36,16.65c13.99-3.94,28.95-2.41,41.86,4.27l230.95,119.74c4.52,2.34,3.97,8.96-.87,10.53Z"
         id="path14" />
      <path
         class="cls-19"
         d="M942.29,151.19l-415.54,134.56c-8.46,2.74-17.25,4.29-26.14,4.62l-248.97,9.04c-6.29.23-12.49-1.51-17.73-4.99l-90.01-59.53c-4.88-3.23-4.9-10.4-.03-13.66l137.59-91.85c5.39-3.6,11.31-6.32,17.55-8.08L670.36,16.65c13.99-3.94,28.95-2.41,41.86,4.27l230.95,119.74c4.52,2.34,3.97,8.96-.87,10.53Z"
         id="path15" />
      <path
         class="cls-13"
         d="M961.64,260.88h0s-1.23,46.21-1.23,46.21l-1.1,41.49-443.05,148.43-34.63.61c22.56-6.93,43.14-13.62,61.61-19.85,98.72-33.29,149.35-50.73,211.09-89.73,51.45-32.5,96.78-70.62,127.55-99.37l79.75-27.78h0Z"
         id="path16"
         style="fill:#ce6c49;fill-opacity:1" />
      <path
         class="cls-16"
         d="M199.61,377.67c-5.18,33.11-22.34,57.93-38.33,55.43l-66.31-16.25c1.56-1.23,3.09-2.6,4.58-4.09,4.79.32,10.81.53,18.18-.18,7.33-.71,39.63-3.82,60.67-27.59,10.53-11.9,14.64-24.91,17.22-33.08,1.57-4.99,2.62-9.56,3.31-13.66,2.56,11.06,2.98,24.83.7,39.42Z"
         id="path17" />
      <g
         id="g25">
        <path
           class="cls-6"
           d="M84.83,353.72c-1.52,9.72-4.11,18.8-7.49,26.91-10.2,24.46-27.59,40.02-44.61,37.36-22.67-3.55-36.09-38.07-29.98-77.11,6.11-39.04,29.43-67.81,52.1-64.27,17.02,2.66,28.83,22.8,31.07,49.2.74,8.75.43,18.19-1.09,27.91Z"
           id="path18" />
        <path
           class="cls-18"
           d="M69.49,353.04c-.91,5.8-2.53,11.21-4.68,16.02-6.49,14.53-16.35,24.96-27.61,23.2-15-2.35-25.66-24.43-22.02-47.72,3.64-23.29,20.29-40.49,35.28-38.15,11.26,1.76,17.73,14.14,19.47,29.96.58,5.24.47,10.89-.44,16.69Z"
           id="path19" />
        <path
           class="cls-5"
           d="M160.51,365.56c-3.96,25.28-15.14,46.26-28.68,56.94-7.37,5.81-15.44,8.57-23.42,7.32l-75.68-11.84c17.02,2.66,34.42-12.9,44.61-37.36,3.38-8.1,5.97-17.19,7.49-26.91,1.52-9.72,1.83-19.16,1.09-27.91-2.24-26.4-14.05-46.54-31.07-49.2l75.68,11.84c7.98,1.25,14.82,6.34,20.06,14.12,9.64,14.31,13.88,37.7,9.92,62.99Z"
           id="path20" />
        <path
           class="cls-15"
           d="M67.7,353.03c-.89,5.66-2.39,10.95-4.36,15.67-5.94,14.24-16.07,23.31-25.98,21.76-13.2-2.07-21.02-22.17-17.46-44.91,3.56-22.74,17.14-39.5,30.34-37.43,9.91,1.55,16.79,13.28,18.1,28.66.43,5.1.25,10.59-.63,16.26Z"
           id="path21" />
        <rect
           class="cls-17"
           x="76.48"
           y="289.87"
           width="63.07"
           height="3.17"
           rx="1.59"
           ry="1.59"
           transform="translate(46.41 -13.2) rotate(8.9)"
           id="rect21" />
        <rect
           class="cls-17"
           x="59.64"
           y="416.69"
           width="63.07"
           height="3.17"
           rx="1.59"
           ry="1.59"
           transform="translate(65.83 -9.07) rotate(8.9)"
           id="rect22" />
        <rect
           class="cls-17"
           x="88.29"
           y="317.04"
           width="63.07"
           height="3.17"
           rx="1.59"
           ry="1.59"
           transform="translate(50.76 -14.71) rotate(8.9)"
           id="rect23" />
        <rect
           class="cls-17"
           x="78.17"
           y="394.85"
           width="63.07"
           height="3.17"
           rx="1.59"
           ry="1.59"
           transform="translate(62.68 -12.2) rotate(8.9)"
           id="rect24" />
        <rect
           class="cls-17"
           x="90.81"
           y="351.77"
           width="63.07"
           height="3.17"
           rx="1.59"
           ry="1.59"
           transform="translate(56.16 -14.68) rotate(8.9)"
           id="rect25" />
      </g>
    </g>
  </g>
</svg>
