<?xml version="1.0" encoding="UTF-8" standalone="no"?>
<svg
   id="Capa_2"
   data-name="Capa 2"
   viewBox="0 0 625.69 353.59"
   version="1.1"
   sodipodi:docname="T75 flask (sample) - salmon.svg"
   inkscape:version="1.4.2 (ebf0e940, 2025-05-08)"
   xmlns:inkscape="http://www.inkscape.org/namespaces/inkscape"
   xmlns:sodipodi="http://sodipodi.sourceforge.net/DTD/sodipodi-0.dtd"
   xmlns="http://www.w3.org/2000/svg"
   xmlns:svg="http://www.w3.org/2000/svg">
  <sodipodi:namedview
     id="namedview26"
     pagecolor="#ffffff"
     bordercolor="#000000"
     borderopacity="0.25"
     inkscape:showpageshadow="2"
     inkscape:pageopacity="0.0"
     inkscape:pagecheckerboard="0"
     inkscape:deskcolor="#d1d1d1"
     inkscape:zoom="0.88388191"
     inkscape:cx="349.02853"
     inkscape:cy="118.22846"
     inkscape:window-width="888"
     inkscape:window-height="868"
     inkscape:window-x="0"
     inkscape:window-y="38"
     inkscape:window-maximized="0"
     inkscape:current-layer="g26" />
  <defs
     id="defs1">
    <style
       id="style1">
      .cls-1 {
        opacity: .85;
      }

      .cls-2 {
        fill: #dfe8ed;
      }

      .cls-3 {
        stroke: #1d1d1b;
        stroke-width: .1px;
      }

      .cls-3, .cls-4, .cls-5, .cls-6, .cls-7, .cls-8, .cls-9, .cls-10 {
        stroke-miterlimit: 10;
      }

      .cls-3, .cls-11, .cls-7 {
        fill: none;
      }

      .cls-12, .cls-13 {
        fill: #a1abaf;
      }

      .cls-12, .cls-4 {
        opacity: .78;
      }

      .cls-14 {
        fill: #656e72;
      }

      .cls-4 {
        fill: #efa5bb;
        stroke: #c9738f;
      }

      .cls-4, .cls-10 {
        stroke-width: 1.2px;
      }

      .cls-15 {
        fill: #578fb5;
      }

      .cls-16 {
        fill: #bdced6;
      }

      .cls-17, .cls-10 {
        fill: #e08da9;
        opacity: .9;
      }

      .cls-5 {
        fill: #316f99;
      }

      .cls-5, .cls-8 {
        stroke: #314d66;
        stroke-width: 1.9px;
      }

      .cls-18 {
        fill: #255c82;
      }

      .cls-19 {
        fill: #336e96;
      }

      .cls-6 {
        fill: #aab8bf;
      }

      .cls-6, .cls-7, .cls-9 {
        stroke: #656e72;
        stroke-width: 2.01px;
      }

      .cls-20 {
        fill: #fff;
      }

      .cls-20, .cls-21, .cls-22 {
        opacity: .56;
      }

      .cls-8 {
        fill: #3f7eb1;
      }

      .cls-21 {
        fill: #b6c7ce;
      }

      .cls-9 {
        fill: #c8d2d6;
      }

      .cls-10 {
        stroke: #ba6385;
      }

      .cls-22 {
        fill: #e2e9ed;
      }
    </style>
  </defs>
  <g
     id="Capa_1-2"
     data-name="Capa 1">
    <g
       id="g26">
      <path
         class="cls-9"
         d="M624.09,109.62l-.39,14.88v.41c-.13,1.89-1.2,3.54-3.19,4.2l-226.73,75.86c-3.49,1.14-7.06,1.98-10.69,2.51v-14.78c.78-.1,1.56-.2,2.34-.33.37-.06.74-.12,1.11-.19.74-.13,1.47-.27,2.2-.43,0,0,.02,0,.02,0,.29-.06.57-.12.86-.19.48-.11.95-.22,1.42-.34l.87-.23c.12-.03.25-.07.37-.1.28-.08.56-.16.84-.24.36-.1.72-.21,1.08-.32h0c.36-.11.72-.22,1.08-.34l219.27-73.42,5.59-1.83c2.47-.81,3.82-2.93,3.95-5.12Z"
         id="path1" />
      <g
         id="g3">
        <path
           class="cls-2"
           d="M175.77,352.59c-.22,0-.43-.07-.6-.2-29.43-21.99-58.85-43.97-88.28-65.95-.25-.19-.4-.48-.4-.8l-.92-127.75c0-.41.24-.77.61-.93.13-.05.26-.08.39-.08.26,0,.51.1.7.29.22.22.46.41.71.58l78.66,52.19c2.84,1.89,5.98,3.16,9.32,3.8,1.57.3,3.18.45,4.78.45.31,0,.62,0,.92-.02l194.36-7.06c2.32-.09,4.65-.3,6.92-.63,3.56-.52,7.1-1.35,10.52-2.47l226.72-75.85c1.49-.49,2.4-1.69,2.5-3.31.03-.53.47-.94,1-.94.02,0,.03,0,.04,0,.55.02.97.48.96,1.03l-3.74,141.1c-.01.42-.28.79-.67.92l-236.86,81.95c-.1.03-.21.05-.31.05,0,0-189.29,3.29-207.32,3.61h-.02Z"
           id="path2" />
        <path
           class="cls-14"
           d="M623.69,124.92l-.15,5.6-1.87,70.71-1.72,64.79-236.86,81.95c-20.07.35-40.15.7-60.22,1.05-31,.54-62.01,1.08-93.01,1.62-18.03.31-36.06.63-54.09.94-29.43-21.99-58.85-43.97-88.28-65.95l-.45-62.23-.47-65.52c.26.25.54.49.86.7l78.66,52.19c2.95,1.96,6.24,3.3,9.69,3.95,1.63.31,3.29.47,4.97.47.32,0,.64,0,.96-.02l194.36-7.06c2.36-.09,4.7-.3,7.03-.64,3.62-.53,7.2-1.37,10.69-2.51l226.73-75.86c2-.65,3.07-2.3,3.18-4.2M623.69,122.91c-1.05,0-1.94.82-2,1.88-.04.69-.33,1.93-1.8,2.41l-226.74,75.86c-3.35,1.1-6.84,1.91-10.34,2.43-2.23.33-4.52.54-6.81.62l-194.36,7.06c-.3.01-.59.02-.89.02-1.54,0-3.09-.15-4.59-.43-3.22-.61-6.23-1.84-8.96-3.65l-78.66-52.19c-.2-.13-.38-.28-.56-.46-.38-.38-.89-.58-1.41-.58-.26,0-.53.05-.78.16-.75.32-1.23,1.05-1.22,1.86l.47,65.52.45,62.23c0,.63.3,1.22.81,1.59,29.29,21.88,58.59,43.77,87.88,65.66l.4.3c.35.26.77.4,1.2.4.01,0,.02,0,.04,0,18.03-.32,36.06-.63,54.09-.94,31-.54,62.01-1.08,93.01-1.62l20.58-.36,39.64-.69c.21,0,.42-.04.62-.11l236.86-81.95c.79-.27,1.33-1.01,1.35-1.84l1.72-64.79,1.87-70.71.15-5.6c.03-1.09-.82-2.01-1.92-2.06-.03,0-.06,0-.09,0h0ZM623.69,126.92h0,0Z"
           id="path3" />
      </g>
      <path
         class="cls-3"
         d="M624.1,109.18v.04s0-.02,0-.04h0Z"
         id="path4" />
      <path
         class="cls-6"
         d="M383.09,192.7v14.78c-2.33.34-4.67.55-7.03.64l-194.36,7.06c-2,.07-3.99-.08-5.93-.45v-15.31s.05.01.08.02c.16.04.32.08.48.12.05.01.09.02.14.03.14.03.29.06.43.09.33.07.66.13.99.18.16.03.32.05.48.08.36.05.71.1,1.07.14.21.02.42.04.63.06.16.02.33.03.49.04.02,0,.04,0,.06,0,.26.02.52.03.78.04h.06c.26,0,.51.01.77.01.33,0,.65,0,.98-.02l194.36-7.06c.38-.01.76-.03,1.14-.05.21-.01.42-.02.63-.04.29-.01.57-.03.86-.06.12,0,.23-.02.35-.03.32-.02.64-.05.96-.08.1,0,.2-.02.3-.03.42-.04.85-.09,1.27-.14,0,0,.01,0,.02,0Z"
         id="path5" />
      <path
         class="cls-9"
         d="M175.76,199.41v15.31c-3.44-.65-6.74-1.99-9.69-3.95l-78.66-52.19c-.32-.21-.6-.45-.86-.7l-.06-7.87-.08-11.05c0,1.77.84,3.54,2.5,4.64l3.48,2.31,75.18,49.88c.14.09.27.18.41.26.1.07.21.14.32.2.56.35,1.13.67,1.71.97.16.08.33.17.5.25.17.08.34.16.51.24.17.08.34.16.51.23.16.07.33.14.49.21.1.04.21.08.31.12.14.06.28.12.43.17.63.24,1.28.46,1.93.65.18.05.36.1.54.15.18.05.36.1.54.14Z"
         id="path6" />
      <path
         class="cls-7"
         d="M610.33,259.52l-219.04,76.91c-6.28,2.03-12.8,3.19-19.4,3.43l-187.62,2.32c-4.67.17-9.27-1.12-13.16-3.7l-67.88-48.9c-3.62-2.4-3.64-7.72-.02-10.13l102.07-67.48c4-2.67,8.39-4.69,13.02-6l176.86-47.19c10.38-2.93,21.48-1.79,31.06,3.17l184.74,89.76c3.35,1.73,2.95,6.65-.65,7.81Z"
         id="path7" />
      <polygon
         class="cls-10"
         points="614.88 193.59 614.88 193.59 613.97 227.88 613.15 258.66 383.09 338.34 357.39 338.79 175.77 341.95 99.89 285.27 99.93 222.83 101.74 224.11 178.08 277.91 384.58 277.72 555.69 214.2 614.87 193.59 614.88 193.59"
         id="polygon7"
         style="fill:#e0a48d;fill-opacity:1;stroke:#cda57e" />
      <ellipse
         class="cls-12"
         cx="421.44"
         cy="81.01"
         rx="1.49"
         ry="35.47"
         id="ellipse7" />
      <ellipse
         class="cls-12"
         cx="227.58"
         cy="126.72"
         rx="1.49"
         ry="35.47"
         id="ellipse8" />
      <path
         class="cls-4"
         d="M614.87,193.59l-59.18,20.61-171.11,63.52-206.5.18-76.34-53.8-1.22-2.1,130.55-77.49,190.3-50.01c7.99-2.22,16.54-1.28,23.86,2.62l144.12,81.95,25.52,14.52Z"
         id="path8"
         style="fill:#ffccaa;stroke:#cda57e" />
      <path
         class="cls-21"
         d="M624.1,109.18c-.02-1.96-1.03-3.91-3.07-4.98L433.75,5.98c-9.83-5.16-21.27-6.36-31.95-3.35l-189.48,50.6c-2.87.81-5.59,2.07-8.08,3.73l-115.33,77.32c-1.64,1.1-2.47,2.85-2.48,4.61v.07c0,1.77.84,3.54,2.5,4.64l3.48,2.31,75.18,49.88c.14.09.27.18.41.26.1.07.21.14.32.2.56.35,1.13.67,1.71.97.16.08.33.17.5.25.17.08.34.16.51.24.17.08.34.16.51.23.16.07.33.14.49.21.1.04.21.08.31.12.14.06.28.12.43.17.63.24,1.28.46,1.93.65.18.05.36.1.54.15.18.05.36.1.54.14.03,0,.05.01.08.02.16.04.32.08.48.12.05.01.09.02.14.03.14.03.29.06.43.09.33.07.66.13.99.18.16.03.32.05.48.08.36.05.71.1,1.07.14.21.02.42.04.63.06.16.02.33.03.49.04.02,0,.04,0,.06,0,.26.02.52.03.78.04h.06c.26,0,.51.01.77.01.33,0,.65,0,.98-.02l194.36-7.06c.38-.01.76-.03,1.14-.05.21-.01.42-.02.63-.04.29-.02.57-.04.86-.06.12,0,.23-.02.35-.03.32-.02.64-.05.96-.08.1,0,.2-.02.3-.03.42-.04.85-.09,1.27-.14,0,0,.01,0,.02,0,.78-.1,1.56-.2,2.34-.33.37-.06.74-.12,1.11-.19.74-.13,1.47-.27,2.2-.43,0,0,.02,0,.02,0,.29-.06.57-.12.86-.19.48-.11.95-.22,1.42-.34l.87-.23c.12-.03.25-.07.37-.1.28-.08.56-.16.84-.24.36-.1.72-.21,1.08-.32h0c.36-.11.72-.22,1.08-.34l219.27-73.42,5.59-1.83c2.47-.81,3.82-2.93,3.95-5.12v-.41s.01-.02,0-.04ZM600.52,112.19l-209.65,69.39c-6.28,2.03-12.8,3.19-19.4,3.43l-184.75,6.71c-4.67.17-9.27-1.12-13.16-3.7l-66.79-44.18c-3.62-2.4-3.64-7.72-.02-10.13l102.1-68.16c4-2.67,8.39-4.69,13.02-6L398.73,12.36c10.38-2.93,21.48-1.79,31.06,3.17l171.37,88.85c3.35,1.73,2.95,6.65-.65,7.81Z"
         id="path9" />
      <path
         class="cls-22"
         d="M600.52,112.19l-209.65,69.39c-6.28,2.03-12.8,3.19-19.4,3.43l-184.75,6.71c-4.67.17-9.27-1.12-13.16-3.7l-66.79-44.18c-3.62-2.4-3.64-7.72-.02-10.13l102.1-68.16c4-2.67,8.39-4.69,13.02-6L398.73,12.36c10.38-2.93,21.48-1.79,31.06,3.17l171.37,88.85c3.35,1.73,2.95,6.65-.65,7.81Z"
         id="path10" />
      <path
         class="cls-20"
         d="M368.11,18.34l-151.19,172.28-70.27,2.55c35.41-1.29,30.81-2.58,26.92-5.16l-66.79-44.18c-3.62-2.4-3.64-7.72-.02-10.13l102.1-68.16c4-2.67,8.39-4.69,13.02-6l146.24-41.21Z"
         id="path11" />
      <g
         class="cls-1"
         id="g13">
        <path
           class="cls-2"
           d="M121.34,291.99c-.6,0-1.21-.05-1.81-.14l-51.17-12.53,1.52-1.2c1.14-.91,2.26-1.9,3.31-2.96,8.72-8.74,15.14-22.85,17.62-38.69,2.81-17.97.11-35.2-7.21-46.06l-1.37-2.04,51.6,12.64c6.71,1.04,12.1,8.09,14.7,19.31,1.99,8.58,2.17,19.1.53,29.61-3.75,23.98-15.67,42.06-27.72,42.06Z"
           id="path12" />
        <path
           class="cls-14"
           d="M84.39,189.87l49.22,12.06c6.63,1.04,11.59,8.2,14,18.61,1.9,8.2,2.21,18.42.52,29.25-3.67,23.43-15.41,41.26-26.78,41.26-.55,0-1.11-.04-1.66-.13l-49.21-12.06c1.16-.92,2.29-1.93,3.4-3.04,8.49-8.52,15.29-22.62,17.89-39.22,2.93-18.77-.21-36.12-7.36-46.74M80.07,186.86l2.74,4.07c7.2,10.68,9.84,27.64,7.06,45.39-2.45,15.65-8.78,29.57-17.36,38.17-1.03,1.04-2.11,2.01-3.23,2.89l-3.04,2.41,3.76.92,49.21,12.06.08.02h.08c.64.11,1.3.16,1.95.16,12.51,0,24.83-18.43,28.66-42.86,1.66-10.63,1.47-21.28-.54-29.97-2.68-11.58-8.31-18.87-15.47-20.04l-49.14-12.04-4.77-1.17h0Z"
           id="path13" />
      </g>
      <ellipse
         class="cls-13"
         cx="383.09"
         cy="267.11"
         rx="1.49"
         ry="35.47"
         id="ellipse13" />
      <ellipse
         class="cls-13"
         cx="176.58"
         cy="278.41"
         rx="1.49"
         ry="35.47"
         id="ellipse14" />
      <path
         class="cls-7"
         d="M624.1,109.18c-.02-1.96-1.03-3.91-3.07-4.98L433.75,5.98c-9.83-5.16-21.27-6.36-31.95-3.35l-189.48,50.6c-2.87.81-5.59,2.07-8.08,3.73l-115.33,77.32c-1.64,1.1-2.47,2.85-2.48,4.61v.07c0,1.77.84,3.54,2.5,4.64l3.48,2.31,75.18,49.88c.14.09.27.18.41.26.1.07.21.14.32.2.56.35,1.13.67,1.71.97.16.08.33.17.5.25.17.08.34.16.51.24.17.08.34.16.51.23.16.07.33.14.49.21.1.04.21.08.31.12.14.06.28.12.43.17.63.24,1.28.46,1.93.65.18.05.36.1.54.15.18.05.36.1.54.14.03,0,.05.01.08.02.16.04.32.08.48.12.05.01.09.02.14.03.14.03.29.06.43.09.33.07.66.13.99.18.16.03.32.05.48.08.36.05.71.1,1.07.14.21.02.42.04.63.06.16.02.33.03.49.04.02,0,.04,0,.06,0,.26.02.52.03.78.04h.06c.26,0,.51.01.77.01.33,0,.65,0,.98-.02l194.36-7.06c.38-.01.76-.03,1.14-.05.21-.01.42-.02.63-.04.29-.02.57-.04.86-.06.12,0,.23-.02.35-.03.32-.02.64-.05.96-.08.1,0,.2-.02.3-.03.42-.04.85-.09,1.27-.14,0,0,.01,0,.02,0,.78-.1,1.56-.2,2.34-.33.37-.06.74-.12,1.11-.19.74-.13,1.47-.27,2.2-.43,0,0,.02,0,.02,0,.29-.06.57-.12.86-.19.48-.11.95-.22,1.42-.34l.87-.23c.12-.03.25-.07.37-.1.28-.08.56-.16.84-.24.36-.1.72-.21,1.08-.32h0c.36-.11.72-.22,1.08-.34l219.27-73.42,5.59-1.83c2.47-.81,3.82-2.93,3.95-5.12v-.41s.01-.02,0-.04ZM600.52,112.19l-209.65,69.39c-6.28,2.03-12.8,3.19-19.4,3.43l-184.75,6.71c-4.67.17-9.27-1.12-13.16-3.7l-66.79-44.18c-3.62-2.4-3.64-7.72-.02-10.13l102.1-68.16c4-2.67,8.39-4.69,13.02-6L398.73,12.36c10.38-2.93,21.48-1.79,31.06,3.17l171.37,88.85c3.35,1.73,2.95,6.65-.65,7.81Z"
         id="path14" />
      <path
         class="cls-11"
         d="M600.52,112.19l-209.65,69.39c-6.28,2.03-12.8,3.19-19.4,3.43l-184.75,6.71c-4.67.17-9.27-1.12-13.16-3.7l-66.79-44.18c-3.62-2.4-3.64-7.72-.02-10.13l102.1-68.16c4-2.67,8.39-4.69,13.02-6L398.73,12.36c10.38-2.93,21.48-1.79,31.06,3.17l171.37,88.85c3.35,1.73,2.95,6.65-.65,7.81Z"
         id="path15" />
      <path
         class="cls-17"
         d="M614.88,193.59h0s-.91,34.29-.91,34.29l-.81,30.79-230.06,79.68-25.69.45c16.74-5.15,32.01-10.11,45.72-14.73,73.26-24.7,12.12-7.18,57.94-36.12,38.18-24.12,71.82-52.4,94.64-73.73l59.18-20.61h0Z"
         id="path16"
         style="fill:#db9d86;fill-opacity:1" />
      <path
         class="cls-16"
         d="M148.12,249.78c-3.84,24.57-16.58,42.99-28.44,41.13l-49.21-12.06c1.16-.92,2.29-1.93,3.4-3.04,3.55.24,8.02.39,13.49-.13,5.44-.53,29.41-2.84,45.02-20.48,7.81-8.83,10.86-18.49,12.77-24.55,1.17-3.7,1.94-7.1,2.46-10.14,1.9,8.2,2.21,18.42.52,29.25Z"
         id="path17" />
      <g
         id="g25">
        <path
           class="cls-8"
           d="M62.95,232.01c-1.13,7.21-3.05,13.95-5.56,19.97-7.57,18.15-20.47,29.7-33.11,27.72-16.82-2.63-26.78-28.25-22.25-57.22,4.53-28.97,21.84-50.32,38.66-47.69,12.63,1.98,21.4,16.92,23.06,36.51.55,6.49.32,13.5-.81,20.71Z"
           id="path18" />
        <path
           class="cls-19"
           d="M51.56,231.51c-.67,4.3-1.87,8.32-3.47,11.89-4.81,10.78-12.13,18.52-20.49,17.22-11.13-1.74-19.04-18.13-16.34-35.41,2.7-17.29,15.05-30.05,26.18-28.31,8.36,1.31,13.16,10.49,14.45,22.23.43,3.89.35,8.08-.33,12.38Z"
           id="path19" />
        <path
           class="cls-5"
           d="M119.11,240.8c-2.94,18.76-11.23,34.33-21.28,42.25-5.47,4.31-11.46,6.36-17.38,5.43l-56.16-8.79c12.63,1.98,25.54-9.57,33.11-27.72,2.51-6.01,4.43-12.75,5.56-19.97,1.13-7.21,1.36-14.22.81-20.71-1.66-19.59-10.42-34.53-23.06-36.51l56.16,8.79c5.92.93,11,4.71,14.89,10.48,7.15,10.62,10.3,27.97,7.36,46.74Z"
           id="path20" />
        <path
           class="cls-15"
           d="M50.23,231.5c-.66,4.2-1.78,8.13-3.24,11.63-4.41,10.57-11.92,17.3-19.28,16.15-9.8-1.53-15.6-16.45-12.96-33.32,2.64-16.87,12.72-29.31,22.52-27.78,7.36,1.15,12.46,9.85,13.43,21.26.32,3.78.19,7.86-.47,12.06Z"
           id="path21" />
        <rect
           class="cls-18"
           x="56.75"
           y="184.64"
           width="46.8"
           height="2.36"
           rx="1.18"
           ry="1.18"
           transform="translate(29.72 -10.17) rotate(8.9)"
           id="rect21" />
        <rect
           class="cls-18"
           x="44.26"
           y="278.74"
           width="46.8"
           height="2.36"
           rx="1.18"
           ry="1.18"
           transform="translate(44.14 -7.1) rotate(8.9)"
           id="rect22" />
        <rect
           class="cls-18"
           x="65.51"
           y="204.8"
           width="46.8"
           height="2.36"
           rx="1.18"
           ry="1.18"
           transform="translate(32.95 -11.28) rotate(8.9)"
           id="rect23" />
        <rect
           class="cls-18"
           x="58.01"
           y="262.53"
           width="46.8"
           height="2.36"
           rx="1.18"
           ry="1.18"
           transform="translate(41.79 -9.42) rotate(8.9)"
           id="rect24" />
        <rect
           class="cls-18"
           x="67.39"
           y="230.57"
           width="46.8"
           height="2.36"
           rx="1.18"
           ry="1.18"
           transform="translate(36.96 -11.26) rotate(8.9)"
           id="rect25" />
      </g>
    </g>
  </g>
</svg>
