<?xml version="1.0" encoding="UTF-8" standalone="no"?>
<!DOCTYPE svg PUBLIC "-//W3C//DTD SVG 1.1//EN" "http://www.w3.org/Graphics/SVG/1.1/DTD/svg11.dtd">
<!-- Created with Vectornator (http://vectornator.io/) -->
<svg height="100%" stroke-miterlimit="10" style="fill-rule:nonzero;clip-rule:evenodd;stroke-linecap:round;stroke-linejoin:round;" version="1.1" viewBox="0 0 1224 1080" width="100%" xml:space="preserve" xmlns="http://www.w3.org/2000/svg" xmlns:vectornator="http://vectornator.io" xmlns:xlink="http://www.w3.org/1999/xlink">
<defs/>
<g id="Layer-Black" vectornator:layerName="Layer Black">
<path d="M530.98 687.759L530.98 687.759C531.576 687.765 532.052 688.387 532.042 689.149L528.341 973.443C528.331 974.205 527.839 974.819 527.243 974.814L527.243 974.814C526.646 974.808 526.171 974.186 526.181 973.424L529.882 689.13C529.892 688.368 530.383 687.754 530.98 687.759Z" fill="#000000" fill-rule="nonzero" opacity="1" stroke="#000000" stroke-linecap="square" stroke-linejoin="bevel" stroke-width="12.9836" vectornator:layerName="Rectangle 1"/>
<path d="M702.409 689.227L702.409 689.227C703.006 689.232 703.481 689.855 703.471 690.617L699.77 974.911C699.76 975.673 699.269 976.287 698.672 976.281L698.672 976.281C698.076 976.276 697.6 975.653 697.61 974.891L701.311 690.597C701.321 689.835 701.813 689.222 702.409 689.227Z" fill="#000000" fill-rule="nonzero" opacity="1" stroke="#000000" stroke-linecap="square" stroke-linejoin="bevel" stroke-width="12.9836" vectornator:layerName="Rectangle 2"/>
</g>
<g id="Layer-Inner" vectornator:layerName="Layer Inner">
<path d="M491.785 434.583L573.755 434.583C589.335 434.583 601.966 447.214 601.966 462.794L601.966 654.453C601.966 670.033 589.335 682.664 573.755 682.664L491.785 682.664C476.204 682.664 463.574 670.033 463.574 654.453L463.574 462.794C463.574 454.403 467.237 446.868 473.051 441.701C478.033 437.273 484.595 434.583 491.785 434.583Z" fill="#753b7d" fill-rule="nonzero" opacity="1" stroke="#753b7d" stroke-linecap="square" stroke-linejoin="bevel" stroke-width="12.9836" vectornator:layerName="Rectangle 8"/>
<path d="M502.371 187.498C502.371 187.498 514.489 186.779 523.893 187.307C531.334 187.725 536.759 186.081 537.891 192.531C540.261 206.035 548.771 219.54 564.501 231.151C583.408 245.107 595.858 245.751 600.602 249.297C602.806 250.944 601.798 252.702 601.798 257.644L601.966 390.132C601.966 405.712 589.335 418.342 573.755 418.342L491.785 418.342C476.204 418.342 463.574 405.712 463.574 390.132L463.574 198.473C463.574 190.082 459.416 166.989 460.01 158.829C460.469 152.531 460.261 173.76 472.76 179.831C485.26 185.903 502.371 187.498 502.371 187.498Z" fill="#753b7d" fill-rule="nonzero" opacity="1" stroke="#753b7d" stroke-linecap="square" stroke-linejoin="bevel" stroke-width="12.9836" vectornator:layerName="Rectangle 1"/>
<path d="M730.28 187.498C730.28 187.498 718.161 186.779 708.758 187.307C701.317 187.725 695.892 186.081 694.76 192.531C692.389 206.035 683.88 219.54 668.15 231.151C649.243 245.107 636.792 245.751 632.049 249.297C629.845 250.944 630.852 252.702 630.852 257.644L630.685 390.132C630.685 405.712 643.315 418.342 658.895 418.342L740.866 418.342C756.446 418.342 769.077 405.712 769.077 390.132L769.077 198.473C769.077 190.082 773.234 166.989 772.64 158.829C772.182 152.531 772.39 173.76 759.89 179.831C747.391 185.903 730.28 187.498 730.28 187.498Z" fill="#753b7d" fill-rule="nonzero" opacity="1" stroke="#753b7d" stroke-linecap="square" stroke-linejoin="bevel" stroke-width="12.9836" vectornator:layerName="Rectangle 1"/>
<path d="M658.578 434.583L742.002 434.583C757.859 434.583 770.713 447.158 770.713 462.67L770.713 653.486C770.713 668.998 757.859 681.573 742.002 681.573L658.578 681.573C642.721 681.573 629.867 668.998 629.867 653.486L629.867 462.67C629.867 447.158 642.721 434.583 658.578 434.583Z" fill="#753b7d" fill-rule="nonzero" opacity="1" stroke="#753b7d" stroke-linecap="square" stroke-linejoin="bevel" stroke-width="12.9836" vectornator:layerName="Rectangle 7"/>
</g>
<g id="Layer-Membrane" vectornator:layerName="Layer Membrane">
<path d="M658.081 428.444C657.804 428.444 657.543 428.529 657.268 428.538L657.018 428.538C639.329 428.538 624.987 442.581 624.987 459.881L624.987 462.6L624.987 657.381C624.987 664.46 628.437 670.702 632.893 675.85C637.415 681.84 643.585 686.391 650.799 688.006C651.799 688.244 652.916 688.261 653.987 688.381C654.867 688.47 655.71 688.725 656.612 688.725L657.018 688.725L743.393 688.725L743.799 688.725C744.473 688.725 745.102 688.517 745.768 688.475C747.312 688.363 748.855 688.231 750.331 687.913C751.562 687.654 752.715 687.251 753.893 686.85C754.941 686.493 755.96 686.119 756.956 685.663C757.893 685.225 758.788 684.755 759.674 684.225C761.275 683.296 762.77 682.247 764.174 681.069C764.337 680.926 764.514 680.809 764.674 680.663C771.222 674.94 775.424 666.728 775.424 657.475L775.424 462.069L775.424 460.413C775.424 445.309 764.457 432.702 749.862 429.788C749.832 429.782 749.798 429.793 749.768 429.788C747.428 429.204 745.022 428.819 742.549 428.819L658.081 428.444Z" fill="none" opacity="1" stroke="#330a39" stroke-linecap="round" stroke-linejoin="round" stroke-width="2" vectornator:layerName="Curve 1"/>
<path d="M755.342 175.155C761.769 171.122 763.612 164.1 763.612 164.1C763.612 164.1 764.213 155.783 767.575 153.461C771.537 150.723 779.265 151.188 779.245 159.336C779.219 169.564 775.424 191.984 775.424 195.56L775.424 198.279L775.424 393.06C775.424 400.138 771.974 406.38 767.518 411.529C762.996 417.519 756.826 422.07 749.612 423.685C748.612 423.922 747.495 423.94 746.424 424.06C745.544 424.149 744.701 424.404 743.799 424.404L743.393 424.404L657.018 424.404L656.612 424.404C655.938 424.404 655.309 424.195 654.643 424.154C653.099 424.041 651.556 423.91 650.081 423.591C648.849 423.332 647.696 422.93 646.518 422.529C645.47 422.172 644.451 421.798 643.456 421.341C642.518 420.904 641.623 420.433 640.737 419.904C639.136 418.974 637.641 417.926 636.237 416.747C636.074 416.604 635.897 416.488 635.737 416.341C629.189 410.619 624.987 402.407 624.987 393.154C624.987 393.154 625.034 249.782 625.61 245.96C626.051 243.033 629.618 244.246 635.706 241.753C641.794 239.26 649.962 235.986 649.962 235.986C649.962 235.986 660.471 231.162 669.101 222.881C677.732 214.601 679.101 213.756 684.482 203.358C689.864 192.96 687.094 189.935 691.273 184.138C695.452 178.341 705.016 180.312 705.016 180.312C705.016 180.312 725.322 181.522 737.903 180.233C750.485 178.944 748.914 179.188 755.342 175.155Z" fill="none" opacity="1" stroke="#330a39" stroke-linecap="round" stroke-linejoin="round" stroke-width="2" vectornator:layerName="Curve 2"/>
<path d="M477.309 175.155C470.882 171.122 469.039 164.1 469.039 164.1C469.039 164.1 468.437 155.783 465.076 153.461C461.114 150.723 453.385 151.188 453.406 159.336C453.432 169.564 457.226 191.984 457.226 195.56L457.226 198.279L457.226 393.06C457.226 400.138 460.676 406.38 465.133 411.529C469.654 417.519 475.824 422.07 483.039 423.685C484.039 423.922 485.155 423.94 486.226 424.06C487.106 424.149 487.949 424.404 488.851 424.404L489.258 424.404L575.633 424.404L576.039 424.404C576.713 424.404 577.342 424.195 578.008 424.154C579.551 424.041 581.095 423.91 582.57 423.591C583.802 423.332 584.954 422.93 586.133 422.529C587.181 422.172 588.2 421.798 589.195 421.341C590.133 420.904 591.027 420.433 591.914 419.904C593.514 418.974 595.009 417.926 596.414 416.747C596.577 416.604 596.754 416.488 596.914 416.341C603.462 410.619 607.664 402.407 607.664 393.154C607.664 393.154 607.617 249.782 607.041 245.96C606.6 243.033 603.033 244.246 596.945 241.753C590.857 239.26 582.689 235.986 582.689 235.986C582.689 235.986 572.179 231.162 563.549 222.881C554.919 214.601 553.55 213.756 548.168 203.358C542.787 192.96 545.556 189.935 541.378 184.138C537.199 178.341 527.635 180.312 527.635 180.312C527.635 180.312 507.329 181.522 494.747 180.233C482.166 178.944 483.736 179.188 477.309 175.155Z" fill="none" opacity="1" stroke="#330a39" stroke-linecap="round" stroke-linejoin="round" stroke-width="2" vectornator:layerName="Curve 2"/>
<path d="M490.32 428.444C490.044 428.444 489.783 428.529 489.508 428.538L489.258 428.538C471.569 428.538 457.226 442.581 457.226 459.881L457.226 462.6L457.226 657.381C457.226 664.46 460.676 670.702 465.133 675.85C469.654 681.84 475.824 686.391 483.039 688.006C484.039 688.244 485.155 688.261 486.226 688.381C487.106 688.47 487.949 688.725 488.851 688.725L489.258 688.725L575.633 688.725L576.039 688.725C576.713 688.725 577.342 688.517 578.008 688.475C579.551 688.363 581.095 688.231 582.57 687.913C583.802 687.654 584.954 687.251 586.133 686.85C587.181 686.493 588.2 686.119 589.195 685.663C590.133 685.225 591.027 684.755 591.914 684.225C593.514 683.296 595.009 682.247 596.414 681.069C596.577 680.926 596.754 680.809 596.914 680.663C603.462 674.94 607.664 666.728 607.664 657.475L607.664 462.069L607.664 460.413C607.664 445.309 596.696 432.702 582.101 429.788C582.071 429.782 582.038 429.793 582.008 429.788C579.668 429.204 577.262 428.819 574.789 428.819L509.258 428.6L490.32 428.444Z" fill="none" opacity="1" stroke="#330a39" stroke-linecap="round" stroke-linejoin="round" stroke-width="2" vectornator:layerName="Curve 55"/>
</g>
</svg>
