<?xml version="1.0" encoding="UTF-8" standalone="no"?>
<!DOCTYPE svg PUBLIC "-//W3C//DTD SVG 1.1//EN" "http://www.w3.org/Graphics/SVG/1.1/DTD/svg11.dtd">
<!-- Created with Vectornator (http://vectornator.io/) -->
<svg height="100%" stroke-miterlimit="10" style="fill-rule:nonzero;clip-rule:evenodd;stroke-linecap:round;stroke-linejoin:round;" version="1.1" viewBox="0 0 1224 1080" width="100%" xml:space="preserve" xmlns="http://www.w3.org/2000/svg" xmlns:vectornator="http://vectornator.io" xmlns:xlink="http://www.w3.org/1999/xlink">
<defs/>
<g id="Layer-Black" vectornator:layerName="Layer Black">
<path d="M530.495 687.383L530.495 687.383C531.092 687.388 531.567 688.011 531.557 688.773L527.856 973.067C527.846 973.829 527.354 974.443 526.758 974.437L526.758 974.437C526.162 974.432 525.686 973.809 525.696 973.047L529.397 688.753C529.407 687.991 529.899 687.378 530.495 687.383Z" fill="#000000" fill-rule="nonzero" opacity="1" stroke="#000000" stroke-linecap="square" stroke-linejoin="bevel" stroke-width="12.9836" vectornator:layerName="Rectangle 1"/>
<path d="M704.031 688.851L704.031 688.851C704.627 688.856 705.103 689.478 705.093 690.241L701.392 974.535C701.382 975.297 700.89 975.91 700.294 975.905L700.294 975.905C699.697 975.899 699.222 975.277 699.232 974.515L702.933 690.221C702.943 689.459 703.434 688.845 704.031 688.851Z" fill="#000000" fill-rule="nonzero" opacity="1" stroke="#000000" stroke-linecap="square" stroke-linejoin="bevel" stroke-width="12.9836" vectornator:layerName="Rectangle 2"/>
</g>
<g id="Layer-Inner" vectornator:layerName="Layer Inner">
<path d="M660.199 434.207L743.623 434.207C759.48 434.207 772.334 446.782 772.334 462.293L772.334 653.11C772.334 668.621 759.48 681.196 743.623 681.196L660.199 681.196C644.342 681.196 631.488 668.621 631.488 653.11L631.488 462.293C631.488 446.782 644.342 434.207 660.199 434.207Z" fill="#753b7d" fill-rule="nonzero" opacity="1" stroke="#753b7d" stroke-linecap="square" stroke-linejoin="bevel" stroke-width="12.9836" vectornator:layerName="Rectangle 7"/>
<path d="M491.3 434.207L573.27 434.207C588.851 434.207 601.481 446.837 601.481 462.417L601.481 654.077C601.481 669.657 588.851 682.287 573.27 682.287L491.3 682.287C475.719 682.287 463.089 669.657 463.089 654.077L463.089 462.417C463.089 454.027 466.752 446.492 472.566 441.324C477.548 436.896 484.11 434.207 491.3 434.207Z" fill="#753b7d" fill-rule="nonzero" opacity="1" stroke="#753b7d" stroke-linecap="square" stroke-linejoin="bevel" stroke-width="12.9836" vectornator:layerName="Rectangle 8"/>
<path d="M524.107 169.546C535.237 167.17 533.237 170.376 535.8 184.977C538.171 198.481 548.286 217.612 564.016 229.223C582.923 243.179 595.373 243.822 600.117 247.368C602.321 249.015 601.313 250.773 601.313 255.715L601.481 388.203C601.481 403.783 588.851 416.414 573.27 416.414L491.3 416.414C475.719 416.414 463.089 403.783 463.089 388.203L463.089 196.544C463.089 188.154 468.488 177.412 474.302 172.244C477.153 169.711 491.321 168.451 507.419 168.733C514.152 168.851 519.421 170.546 524.107 169.546Z" fill="#753b7d" fill-rule="nonzero" opacity="1" stroke="#753b7d" stroke-linecap="square" stroke-linejoin="bevel" stroke-width="12.9836" vectornator:layerName="Rectangle 9"/>
<path d="M709.68 169.546C698.55 167.17 700.55 170.376 697.987 184.977C695.616 198.481 685.501 217.612 669.771 229.223C650.864 243.179 638.414 243.822 633.67 247.368C631.466 249.015 632.474 250.773 632.474 255.715L632.306 388.203C632.306 403.783 644.936 416.414 660.517 416.414L742.487 416.414C758.068 416.414 770.698 403.783 770.698 388.203L770.698 196.544C770.698 188.154 765.299 177.412 759.485 172.244C756.634 169.711 742.466 168.451 726.368 168.733C719.635 168.851 714.366 170.546 709.68 169.546Z" fill="#753b7d" fill-rule="nonzero" opacity="1" stroke="#753b7d" stroke-linecap="square" stroke-linejoin="bevel" stroke-width="12.9836" vectornator:layerName="Rectangle 1"/>
</g>
<g id="Layer-Membrane" vectornator:layerName="Layer Membrane">
<path d="M659.702 428.067C659.425 428.067 659.165 428.153 658.889 428.161L658.639 428.161C640.95 428.161 626.608 442.204 626.608 459.505L626.608 462.224L626.608 657.005C626.608 664.083 630.058 670.325 634.514 675.474C639.036 681.464 645.206 686.015 652.421 687.63C653.42 687.867 654.537 687.885 655.608 688.005C656.488 688.094 657.331 688.349 658.233 688.349L658.639 688.349L745.014 688.349L745.421 688.349C746.095 688.349 746.724 688.14 747.389 688.099C748.933 687.986 750.477 687.854 751.952 687.536C753.183 687.277 754.336 686.875 755.514 686.474C756.562 686.117 757.581 685.743 758.577 685.286C759.515 684.849 760.409 684.378 761.296 683.849C762.896 682.919 764.391 681.871 765.796 680.692C765.958 680.549 766.136 680.433 766.296 680.286C772.844 674.564 777.046 666.351 777.046 657.099L777.046 461.692L777.046 460.036C777.046 444.933 766.078 432.325 751.483 429.411C751.453 429.405 751.419 429.417 751.389 429.411C749.049 428.827 746.644 428.442 744.171 428.442L659.702 428.067Z" fill="none" opacity="1" stroke="#330a39" stroke-linecap="round" stroke-linejoin="round" stroke-width="2" vectornator:layerName="Curve 1"/>
<path d="M488.773 162.288C471.084 162.288 456.742 176.331 456.742 193.631L456.742 196.35L456.742 391.131C456.742 398.21 460.191 404.452 464.648 409.6C469.17 415.59 475.339 420.141 482.554 421.756C483.554 421.994 484.67 422.012 485.742 422.131C486.622 422.22 487.464 422.475 488.367 422.475L488.773 422.475L575.148 422.475L575.554 422.475C576.228 422.475 576.857 422.267 577.523 422.225C579.067 422.113 580.61 421.981 582.085 421.663C583.317 421.404 584.47 421.002 585.648 420.6C586.696 420.243 587.715 419.87 588.71 419.413C589.648 418.976 590.543 418.505 591.429 417.975C593.029 417.046 594.524 415.997 595.929 414.819C596.092 414.676 596.269 414.56 596.429 414.413C602.977 408.69 607.179 400.478 607.179 391.225C607.179 391.225 607.132 247.853 606.556 244.031C606.115 241.104 602.548 242.318 596.46 239.824C590.372 237.331 582.204 234.058 582.204 234.058C582.204 234.058 571.695 229.233 563.064 220.953C554.434 212.672 553.065 211.827 547.683 201.43C542.302 191.032 541.21 178.704 541.21 178.704C541.21 178.704 539.106 166.093 535.849 163.937C535.242 163.535 530.694 162.736 525.576 162.834C523.567 162.873 488.773 162.288 488.773 162.288Z" fill="none" opacity="1" stroke="#330a39" stroke-linecap="round" stroke-linejoin="round" stroke-width="2" vectornator:layerName="Curve 56"/>
<path d="M745.014 162.288C762.703 162.288 777.046 176.331 777.046 193.631L777.046 196.35L777.046 391.131C777.046 398.21 773.596 404.452 769.139 409.6C764.618 415.59 758.448 420.141 751.233 421.756C750.233 421.994 749.117 422.012 748.046 422.131C747.165 422.22 746.323 422.475 745.421 422.475L745.014 422.475L658.639 422.475L658.233 422.475C657.559 422.475 656.93 422.267 656.264 422.225C654.72 422.113 653.177 421.981 651.702 421.663C650.47 421.404 649.318 421.002 648.139 420.6C647.091 420.243 646.072 419.87 645.077 419.413C644.139 418.976 643.244 418.505 642.358 417.975C640.758 417.046 639.263 415.997 637.858 414.819C637.695 414.676 637.518 414.56 637.358 414.413C630.81 408.69 626.608 400.478 626.608 391.225C626.608 391.225 626.655 247.853 627.231 244.031C627.672 241.104 631.239 242.318 637.327 239.824C643.415 237.331 651.583 234.058 651.583 234.058C651.583 234.058 662.092 229.233 670.723 220.953C679.353 212.672 680.722 211.827 686.104 201.43C691.485 191.032 692.577 178.704 692.577 178.704C692.577 178.704 694.681 166.093 697.938 163.937C698.545 163.535 703.093 162.736 708.211 162.834C710.22 162.873 745.014 162.288 745.014 162.288Z" fill="none" opacity="1" stroke="#330a39" stroke-linecap="round" stroke-linejoin="round" stroke-width="2" vectornator:layerName="Curve 2"/>
<path d="M489.835 428.067C489.559 428.067 489.298 428.153 489.023 428.161L488.773 428.161C471.084 428.161 456.742 442.204 456.742 459.505L456.742 462.224L456.742 657.005C456.742 664.083 460.191 670.325 464.648 675.474C469.17 681.464 475.339 686.015 482.554 687.63C483.554 687.867 484.67 687.885 485.742 688.005C486.622 688.094 487.464 688.349 488.367 688.349L488.773 688.349L575.148 688.349L575.554 688.349C576.228 688.349 576.857 688.14 577.523 688.099C579.067 687.986 580.61 687.854 582.085 687.536C583.317 687.277 584.47 686.875 585.648 686.474C586.696 686.117 587.715 685.743 588.71 685.286C589.648 684.849 590.543 684.378 591.429 683.849C593.029 682.919 594.524 681.871 595.929 680.692C596.092 680.549 596.269 680.433 596.429 680.286C602.977 674.564 607.179 666.351 607.179 657.099L607.179 461.692L607.179 460.036C607.179 444.933 596.211 432.325 581.617 429.411C581.587 429.405 581.553 429.417 581.523 429.411C579.183 428.827 576.777 428.442 574.304 428.442L508.773 428.224L489.835 428.067Z" fill="none" opacity="1" stroke="#330a39" stroke-linecap="round" stroke-linejoin="round" stroke-width="2" vectornator:layerName="Curve 55"/>
</g>
</svg>
