<?xml version="1.0" encoding="UTF-8"?>
<svg id="Capa_2" xmlns="http://www.w3.org/2000/svg" viewBox="0 0 409.3019 409.3091">
  <defs>
    <style>
      .cls-1 {
        fill: #44911c;
      }

      .cls-2 {
        fill: #639648;
      }

      .cls-3 {
        fill: #367710;
      }

      .cls-4 {
        fill: #94c67d;
      }
    </style>
  </defs>
  <g id="Capa_1-2" data-name="Capa_1">
    <g>
      <g>
        <path class="cls-4" d="M401.5142,204.6509c0,25.0389-11.9278,47.8564-20.4508,69.8825-9.9822,25.8085-17.9897,50.107-37.2063,69.3236-14.6938,14.6938-41.0323,24.6035-59.7552,34.0847-26.6797,13.4959-47.5152,23.5797-79.451,23.5797-25.2495,0-45.7076-9.6119-67.8934-18.2801-22.1859-8.6609-46.0996-16.3707-63.523-32.0011-.4937-.4428-.9873-.9002-1.4664-1.3648-9.1836-8.7481-15.6448-19.8264-21.322-31.5219-4.9148-10.0911-9.2417-20.6468-14.2509-30.5637-13.4669-26.6433-28.4075-51.2395-28.4075-83.1389,0-21.3147,8.6899-34.7453,14.9624-53.9691,6.8387-20.9953,11.8117-47.537,24.8575-64.7645,15.7102-20.7484,37.3878-32.2915,59.9802-45.4607,29.0899-16.9588,60.9676-32.669,97.0632-32.669,26.0553,0,49.1124,10.5993,71.8718,19.7902,24.7268,9.9895,48.7857,19.3182,67.3344,37.867,13.3725,13.3798,21.2203,31.1517,28.9012,48.8873,1.873,4.3123,3.7315,8.6246,5.6553,12.8643.2033.4428.3993.8857.6026,1.3213,11.0712,24.3057,22.498,47.6604,22.498,76.1332Z"/>
        <path class="cls-2" d="M204.6509,7.7877c26.0553,0,49.1124,10.5992,71.8717,19.7902,24.7268,9.9894,48.7857,19.3182,67.3344,37.8669,13.3725,13.3798,21.2203,31.1517,28.9012,48.8873,1.873,4.3123,3.7315,8.6246,5.6553,12.8643.2032.4428.3993.8857.6026,1.3213,11.0711,24.3057,22.498,47.6604,22.498,76.1332,0,25.0389-11.9278,47.8564-20.4507,69.8826-9.9822,25.8086-17.9897,50.1069-37.2064,69.3236-14.6937,14.6937-41.0322,24.6035-59.7551,34.0847-26.6797,13.4958-47.5153,23.5797-79.451,23.5797-25.2495,0-45.7075-9.6119-67.8934-18.2802-22.1859-8.6609-46.0996-16.3707-63.5231-32.0011-.4936-.4427-.9873-.9001-1.4664-1.3649-9.1837-8.748-15.6449-19.8263-21.322-31.5219-4.9149-10.0911-9.2417-20.6469-14.2509-30.5637-13.4669-26.6433-28.4075-51.2394-28.4075-83.1389,0-21.3146,8.6899-34.7453,14.9624-53.9691,6.8387-20.9953,11.8117-47.5369,24.8575-64.7645,15.7101-20.7484,37.3878-32.2914,59.9802-45.4607,29.0899-16.9588,60.9676-32.6689,97.0632-32.6689M204.6509,0c-37.9045,0-70.9363,16.2108-100.9854,33.7288-1.7939,1.0457-3.5825,2.0813-5.3627,3.1121-21.341,12.3572-41.4985,24.0291-56.904,44.3753-10.7515,14.1978-16.1314,33.0256-21.3343,51.2336-1.5941,5.5789-3.0999,10.8483-4.7193,15.8201-1.7128,5.2493-3.6552,10.152-5.5337,14.8932-5.0457,12.7356-9.8117,24.7648-9.8117,41.4878,0,29.9917,12.4182,54.0221,24.4276,77.2612,1.5871,3.0713,3.2283,6.2472,4.8173,9.3907,2.6719,5.2897,5.2252,10.9462,7.6944,16.4165,2.0838,4.6163,4.2385,9.39,6.5054,14.0442,4.9911,10.2821,12.1123,23.4158,22.9291,33.7288.5154.4991,1.074,1.0188,1.6608,1.5453,16.1645,14.5009,36.9017,22.3947,56.9562,30.0286,2.9455,1.1212,5.9911,2.2806,8.9347,3.4297,2.7245,1.0645,5.477,2.165,8.1389,3.2294,19.1605,7.6616,38.9735,15.5839,62.5865,15.5839,34.6944,0,57.0642-11.3157,82.9662-24.4181,4.2808-2.1678,8.9782-4.3625,13.9515-6.6862,16.6756-7.7913,35.5761-16.6219,47.7952-28.8411,18.5455-18.5455,27.0917-40.943,36.1397-64.6556.9308-2.4392,1.8679-4.8953,2.8233-7.3654,1.6139-4.1708,3.3286-8.3131,5.144-12.6987,7.7831-18.8022,15.8311-38.2446,15.8311-59.9932,0-28.6226-10.8783-52.4127-21.3984-75.4194-.5999-1.3118-1.2006-2.6254-1.8002-3.9419l-.0148-.0325-.0151-.0325c-.1075-.2303-.2125-.4629-.3181-.6964l-.264-.5807c-1.6328-3.5986-3.2728-7.3782-4.8587-11.0333l-.7312-1.6845c-7.4267-17.1487-15.8481-36.5942-30.536-51.2901-19.0587-19.0587-43.6741-28.9903-67.4789-38.5948l-2.4465-.9875c-2.2223-.8975-4.4464-1.8079-6.6759-2.7206C251.5838,8.9658,229.6826,0,204.6509,0h0Z"/>
      </g>
      <g>
        <path class="cls-1" d="M263.5554,270.6809c-7.96,22.8099-14.0699,40.3099-30.9399,53.5199-41.83,32.77-108.3,6.6201-117.56,2.9701-11.52-4.53-36.05-14.52-54.46-38.65-2.29-2.99-4.31-5.99-6.1-8.9199-7.14-11.67-10.65-22.3201-12.46-27.9501-2.81-8.73-7.4-23.02-6.19-40.44,1.12-16.08,7.78-28.38,21.04-52.33,15.5099-27.99,23.6-42.23,40.22-54.11,6.67-4.76,19.75-13.89,38.98-16.65,22.72-3.25,40.37,4.33,53.84,10.11,16.87,7.24,30,16.87,39.82,26,10.0499,9.35,16.63,18.16,20.2001,23.36,16.0999,23.46,20.4299,45.49,21.6599,52.92,5.1799,31.3501-3.01,55.75-8.05,70.17Z"/>
        <path class="cls-3" d="M146.9939,87.3398c17.5611,0,31.6994,6.0713,42.9316,10.8911,16.87,7.24,30,16.87,39.82,26,10.0499,9.35,16.63,18.16,20.2001,23.36,16.0998,23.46,20.4299,45.49,21.6599,52.92,5.1799,31.3501-3.01,55.75-8.05,70.17-7.96,22.8099-14.07,40.3099-30.94,53.5199-15.7067,12.3048-34.8927,16.3031-53.2142,16.3031-30.4724,0-58.5628-11.0535-64.3458-13.333-11.52-4.53-36.05-14.52-54.46-38.65-2.29-2.99-4.31-5.99-6.1-8.9199-7.14-11.67-10.65-22.3201-12.46-27.9501-2.81-8.73-7.4-23.02-6.19-40.4401,1.12-16.08,7.78-28.3799,21.04-52.33,15.51-27.99,23.6-42.23,40.22-54.11,6.67-4.76,19.75-13.89,38.98-16.65,3.7747-.5399,7.4096-.7809,10.9085-.781M146.9941,82.8033h-.0002c-3.83,0-7.7163.2781-11.5508.8267-20.6833,2.9686-34.9014,13.1153-40.9728,17.4482-17.7864,12.7137-26.228,27.9479-41.5528,55.6038-13.1455,23.7431-20.3862,36.8212-21.5975,54.2136-1.2724,18.3177,3.5287,33.2334,6.3972,42.1453,1.5869,4.9359,5.3041,16.4983,12.9086,28.9276,1.9953,3.266,4.1383,6.3994,6.3682,9.3108,19.5478,25.6215,45.3734,35.777,56.4014,40.1135,22.3262,8.8003,45.7688,13.6477,66.006,13.6477,22.5403,0,41.3854-5.8099,56.0119-17.2686,17.9212-14.0331,24.322-32.3749,32.4255-55.5963,4.7944-13.7173,13.72-39.2543,8.2427-72.4043-1.802-10.8853-7.1073-32.4705-22.3953-54.7474-5.9473-8.6626-12.9623-16.7756-20.8505-24.1145-12.1955-11.3386-26.0302-20.371-41.121-26.8474-11.6994-5.0203-26.2378-11.2587-44.7206-11.2587h0Z"/>
      </g>
    </g>
  </g>
</svg>