<?xml version="1.0" encoding="UTF-8"?>
<svg id="Capa_2" xmlns="http://www.w3.org/2000/svg" viewBox="0 0 409.3018 409.3088">
  <defs>
    <style>
      .cls-1 {
        fill: #70569b;
      }

      .cls-2 {
        fill: #604593;
      }

      .cls-3 {
        fill: #47327c;
      }

      .cls-4 {
        fill: #a486ce;
      }
    </style>
  </defs>
  <g id="Capa_1-2" data-name="Capa_1">
    <g>
      <g>
        <path class="cls-4" d="M204.6508,405.415c-22.8638,0-41.4565-7.4346-61.1411-15.3057-2.7046-1.0818-5.4233-2.1689-8.1689-3.2417-2.9634-1.1565-5.9585-2.2966-8.9648-3.4412-19.7217-7.5071-40.1152-15.27-55.7417-29.2881-.5312-.4763-1.062-.9685-1.5771-1.468-10.354-9.8625-17.2583-22.6133-22.1138-32.6167-2.2402-4.5991-4.3833-9.3472-6.4561-13.9387-2.4858-5.5076-5.0566-11.2029-7.7676-16.5698-1.5991-3.1638-3.2197-6.2996-4.8335-9.4221-12.3384-23.876-23.9927-46.428-23.9927-75.4724,0-15.9797,4.6333-27.6733,9.5381-40.0537,1.9004-4.7964,3.8652-9.7559,5.6167-15.1233,1.6411-5.0381,3.1562-10.3411,4.7607-15.9556,5.1045-17.8633,10.3828-36.3345,20.6938-49.9517,14.9326-19.7205,34.7603-31.2014,55.752-43.3567,1.7832-1.0325,3.5747-2.0698,5.3721-3.1174C135.204,19.8496,167.6713,3.8936,204.6508,3.8936c24.2651,0,45.8052,8.8179,66.6357,17.3455,2.2358.9153,4.4668,1.8284,6.6943,2.728l2.4478.988c24.5225,9.894,47.6851,19.2393,66.1816,37.7363,14.1655,14.1729,22.4297,33.2561,29.7212,50.093l.7383,1.7012c1.5894,3.6626,3.2324,7.4497,4.8896,11.1013l2.4023,5.2622c10.3467,22.6279,21.0464,46.0264,21.0464,73.8015,0,20.9744-7.8979,40.0532-15.5352,58.5039-1.8242,4.4072-3.5474,8.5698-5.1782,12.7839-.957,2.4739-1.8955,4.9348-2.8281,7.3784-8.896,23.314-17.2983,45.3352-35.2563,63.2932-11.7339,11.7344-30.3047,20.4109-46.689,28.0662-5.0024,2.3372-9.7271,4.5447-14.0601,6.739-25.459,12.8784-47.4453,23.9998-81.2104,23.9998Z"/>
        <path class="cls-1" d="M204.6509,7.7876c26.0553,0,49.1124,10.5991,71.8717,19.79,24.7269,9.9893,48.7858,19.3184,67.3345,37.8669,13.3725,13.3796,21.2203,31.1516,28.9011,48.8872,1.8731,4.3123,3.7316,8.6248,5.6555,12.8643.2032.4429.3993.8857.6026,1.3213,11.0711,24.3057,22.498,47.6604,22.498,76.1333,0,25.0388-11.9278,47.8564-20.4508,69.8826-9.9822,25.8086-17.9897,50.1069-37.2063,69.3235-14.6938,14.6938-41.0323,24.6035-59.7552,34.0847-26.6797,13.4958-47.5152,23.5798-79.451,23.5798-25.2495,0-45.7075-9.6121-67.8934-18.2803-22.1859-8.6609-46.0996-16.3706-63.5231-32.001-.4937-.4429-.9873-.9001-1.4664-1.3647-9.1836-8.748-15.6448-19.8264-21.3219-31.522-4.9149-10.0911-9.2417-20.6467-14.251-30.5637-13.4669-26.6433-28.4075-51.2395-28.4075-83.1389,0-21.3147,8.6899-34.7454,14.9624-53.9692,6.8386-20.9951,11.8116-47.5369,24.8574-64.7644,15.7102-20.7483,37.3878-32.2915,59.9802-45.4604,29.09-16.959,60.9677-32.6689,97.0632-32.6689M204.6509,0c-37.9052,0-70.9366,16.2109-100.9854,33.7285-1.7931,1.0454-3.5808,2.0806-5.3602,3.1108-21.3419,12.3574-41.5002,24.0298-56.9065,44.3765-10.7515,14.198-16.1315,33.0256-21.3344,51.2336-1.594,5.5789-3.0997,10.8481-4.7191,15.8201-1.7129,5.2493-3.6553,10.1519-5.5337,14.8933-5.0458,12.7356-9.8116,24.7649-9.8116,41.4878,0,29.9919,12.4183,54.0225,24.4279,77.2617,1.587,3.0713,3.2281,6.2468,4.817,9.3901,2.6718,5.2898,5.2251,10.946,7.6942,16.4163,2.0839,4.6165,4.2386,9.3901,6.5055,14.0447,4.9905,10.2808,12.1091,23.4111,22.9236,33.7234.5153.499,1.0754,1.0203,1.6654,1.5496,16.1653,14.5017,36.9023,22.3955,56.9568,30.0293,2.9456,1.1213,5.9913,2.2805,8.9352,3.4297,2.7245,1.0647,5.4773,2.1653,8.1393,3.2297,19.1604,7.6614,38.9731,15.5837,62.5861,15.5837,34.6938,0,57.064-11.3157,82.9662-24.4182,4.2809-2.1677,8.9783-4.3625,13.9517-6.6863,16.6755-7.791,35.576-16.6218,47.7951-28.8411,18.5453-18.5452,27.0916-40.9429,36.1396-64.6553.9307-2.4392,1.8679-4.8955,2.8232-7.3655,1.6138-4.1707,3.3285-8.313,5.1438-12.6985,7.7832-18.8022,15.8314-38.2449,15.8314-59.9934,0-28.6226-10.8783-52.4128-21.3984-75.4194-.5999-1.3118-1.2006-2.6255-1.8002-3.9419l-.0148-.0327-.0151-.0325c-.1077-.2305-.2129-.4636-.3187-.6975l-.2634-.5791c-1.6307-3.5938-3.2683-7.3679-4.8521-11.0181l-.7381-1.7002c-7.4265-17.1487-15.8478-36.594-30.5358-51.2898-19.0596-19.0596-43.6761-28.9912-67.4821-38.5962l-2.4435-.9863c-2.222-.8975-4.4459-1.8076-6.6752-2.7202C251.5841,8.9658,229.6827,0,204.6509,0h0Z"/>
      </g>
      <g>
        <path class="cls-2" d="M179.4012,342.7717c-19.9595,0-43.1064-4.791-65.1777-13.4907-10.8496-4.2666-36.2627-14.2598-55.4312-39.3845-2.1792-2.8452-4.2769-5.9126-6.2324-9.1133-7.4614-12.1951-10.9888-23.166-12.6841-28.4382-2.8179-8.7554-7.5352-23.4102-6.293-41.2915,1.1758-16.8916,8.3306-29.8135,21.3184-53.2715,15.165-27.3679,23.5186-42.4431,40.8853-54.8567,6.4409-4.5969,19.8413-14.1602,39.9766-17.05,3.73-.5334,7.5083-.804,11.231-.804,18.0166,0,32.3159,6.136,43.8057,11.0662,14.8721,6.3826,28.4878,15.2727,40.4902,26.4321,7.7661,7.2251,14.6719,15.2114,20.5259,23.7371,15.0396,21.9155,20.2563,43.1353,22.0273,53.8335,5.3833,32.5791-3.418,57.7605-8.1465,71.2888-7.9805,22.8694-14.2842,40.9336-31.6826,54.5574-14.2173,11.1379-32.5918,16.7854-54.6128,16.7854Z"/>
        <path class="cls-3" d="M146.9938,87.3396c17.561,0,31.6996,6.0713,42.9316,10.8911,16.87,7.24,30,16.8699,39.8201,26,10.0499,9.3499,16.63,18.1599,20.2001,23.3599,16.0999,23.46,20.4299,45.49,21.6599,52.9199,5.1799,31.3501-3.0099,55.75-8.05,70.1702-7.96,22.8098-14.0699,40.3098-30.9399,53.5198-15.7067,12.3047-34.8927,16.303-53.2142,16.303-30.4724,0-58.5629-11.0535-64.3458-13.3328-11.52-4.53-36.0499-14.52-54.46-38.6501-2.29-2.99-4.3101-5.99-6.1-8.9199-7.14-11.6699-10.65-22.3201-12.4601-27.95-2.8099-8.73-7.3999-23.02-6.1899-40.4399,1.12-16.0801,7.78-28.3801,21.04-52.3301,15.5099-27.99,23.6-42.23,40.22-54.1101,6.6699-4.76,19.75-13.8899,38.98-16.6499,3.7747-.54,7.4095-.781,10.9083-.781M146.9939,82.803h-.0001c-3.8298,0-7.7161.2783-11.5508.8267-20.6835,2.9688-34.9015,13.1155-40.9728,17.4482-17.7865,12.7139-26.228,27.948-41.5529,55.604-13.1454,23.7429-20.3861,36.821-21.5975,54.2136-1.2723,18.3174,3.5287,33.2332,6.3972,42.145,1.587,4.9363,5.3046,16.4993,12.9087,28.9277,1.995,3.2656,4.1382,6.3992,6.3682,9.3108,19.5481,25.6218,45.3734,35.7771,56.4014,40.1135,22.3268,8.8003,45.7694,13.6475,66.006,13.6475,22.5403,0,41.3855-5.8098,56.012-17.2683,17.9211-14.0332,24.3219-32.3748,32.4254-55.5964,4.7944-13.7173,13.72-39.2544,8.2427-72.4043-1.8019-10.885-7.1069-32.47-22.3953-54.7473-5.9475-8.6628-12.9624-16.7759-20.8505-24.1145-12.1954-11.3384-26.0302-20.3708-41.121-26.8474-11.6993-5.0203-26.2378-11.2588-44.7207-11.2588h0Z"/>
      </g>
    </g>
  </g>
</svg>