<?xml version="1.0" encoding="UTF-8"?>
<svg id="Capa_2" xmlns="http://www.w3.org/2000/svg" viewBox="0 0 409.3018 409.3088">
  <defs>
    <style>
      .cls-1 {
        fill: #70569b;
      }

      .cls-2 {
        fill: #604593;
      }

      .cls-3 {
        fill: #47327c;
      }

      .cls-4 {
        fill: #a486ce;
      }

      .cls-5 {
        fill: #8566b2;
      }
    </style>
  </defs>
  <g id="Capa_1-2" data-name="Capa_1">
    <g>
      <g>
        <path class="cls-4" d="M204.6511,405.415c-22.8633,0-41.4561-7.4343-61.1401-15.3054-2.7056-1.0818-5.4248-2.1689-8.1704-3.2419-2.9634-1.1565-5.9585-2.2966-8.9648-3.4412-19.7217-7.5071-40.1152-15.27-55.7412-29.2881-.5308-.4761-1.061-.9675-1.5762-1.4668-10.354-9.8625-17.2588-22.6135-22.1152-32.6179-2.2402-4.5991-4.3833-9.3472-6.4561-13.9387-2.4858-5.5076-5.0566-11.2029-7.7676-16.5698-1.5991-3.1633-3.2192-6.2986-4.8325-9.4207-12.3389-23.8765-23.9932-46.4287-23.9932-75.4739,0-15.9797,4.6333-27.6733,9.5381-40.0537,1.9004-4.7964,3.8652-9.7559,5.6167-15.1233,1.6406-5.0374,3.1558-10.3396,4.7598-15.9531,5.1045-17.8643,10.3828-36.3364,20.6953-49.9541,14.9316-19.7205,34.7593-31.2017,55.7515-43.3567,1.7827-1.0325,3.5742-2.0698,5.3716-3.1174C135.2034,19.8496,167.6711,3.8936,204.6511,3.8936c24.2651,0,45.8057,8.8181,66.6372,17.3462,2.2354.915,4.4653,1.8279,6.6924,2.7273l2.4478.988c24.5229,9.894,47.6855,19.2395,66.1821,37.7361,14.1646,14.1721,22.4292,33.2559,29.7207,50.0933l.7207,1.6606c1.5952,3.676,3.2446,7.4771,4.9077,11.1418l2.4043,5.2666c10.3457,22.6267,21.0444,46.0237,21.0444,73.7971,0,20.9741-7.8979,40.0525-15.5352,58.5029-1.8247,4.4075-3.5479,8.5703-5.1787,12.7849-.957,2.4741-1.8955,4.9348-2.8281,7.3787-8.896,23.314-17.2983,45.335-35.2559,63.293-11.7349,11.7346-30.3057,20.4114-46.6904,28.0667-5.002,2.3369-9.7266,4.5444-14.0591,6.7385-25.459,12.8784-47.4453,23.9998-81.21,23.9998Z"/>
        <path class="cls-1" d="M204.6509,7.7876c26.0554,0,49.1124,10.5991,71.8718,19.79,24.7268,9.9893,48.7856,19.3184,67.3344,37.8669,13.3726,13.3796,21.2203,31.1516,28.9012,48.8872,1.8729,4.3123,3.7314,8.6248,5.6553,12.8643.2034.4429.3993.8857.6025,1.3213,11.0712,24.3057,22.498,47.6604,22.498,76.1333,0,25.0388-11.9277,47.8564-20.4507,69.8826-9.9823,25.8086-17.9897,50.1069-37.2064,69.3235-14.6937,14.6938-41.0322,24.6035-59.7551,34.0847-26.6797,13.4958-47.5153,23.5798-79.451,23.5798-25.2495,0-45.7075-9.6121-67.8934-18.2803-22.1858-8.6609-46.0995-16.3706-63.5229-32.001-.4937-.4429-.9873-.9001-1.4664-1.3647-9.1837-8.748-15.6449-19.8264-21.322-31.522-4.9148-10.0911-9.2417-20.6467-14.2509-30.5637-13.4669-26.6433-28.4076-51.2395-28.4076-83.1389,0-21.3147,8.6899-34.7454,14.9624-53.9692,6.8387-20.9951,11.8116-47.5369,24.8575-64.7644,15.7101-20.7483,37.3878-32.2915,59.9802-45.4604,29.0898-16.959,60.9675-32.6689,97.0631-32.6689M204.6509,0c-37.9052,0-70.9366,16.2109-100.9854,33.7285-1.7932,1.0454-3.5811,2.0806-5.3605,3.1108-21.3419,12.3579-41.5001,24.0298-56.9061,44.3765-10.7515,14.1978-16.1313,33.0254-21.3342,51.2329-1.5941,5.5791-3.0999,10.8486-4.7194,15.8208-1.7129,5.2493-3.6553,10.1519-5.5337,14.8933-5.0458,12.7356-9.8116,24.7649-9.8116,41.4878,0,29.9917,12.4183,54.0222,24.4277,77.2615,1.5872,3.0713,3.2283,6.2471,4.8173,9.3904,2.6719,5.2898,5.2251,10.9463,7.6943,16.4167,2.0839,4.6162,4.2385,9.3899,6.5052,14.0439,4.9912,10.2825,12.1112,23.415,22.928,33.728.515.4985,1.0739,1.0186,1.6615,1.5457,16.1648,14.5012,36.9019,22.395,56.9561,30.0286,2.9457,1.1213,5.9916,2.2808,8.9354,3.4299,2.7245,1.0647,5.4773,2.1653,8.1393,3.2297,19.1604,7.6614,38.9731,15.5837,62.5861,15.5837,34.694,0,57.064-11.3157,82.9663-24.4182,4.2809-2.1677,8.9783-4.3625,13.9517-6.6863,16.6755-7.791,35.5759-16.6218,47.7949-28.8411,18.5453-18.5449,27.0914-40.9421,36.1393-64.6543.9309-2.4395,1.8683-4.896,2.8237-7.3665,1.6138-4.1707,3.3285-8.313,5.1438-12.6985,7.7832-18.8022,15.8312-38.2449,15.8312-59.9934,0-28.6226-10.8782-52.4128-21.3983-75.4194-.5999-1.3118-1.2006-2.6255-1.8002-3.9419l-.0149-.0327-.0151-.0325c-.1063-.228-.2104-.4583-.3151-.6897l-.2677-.5886c-1.6318-3.5964-3.2714-7.3752-4.8571-11.0295l-.7322-1.687c-7.4268-17.1487-15.848-36.5942-30.536-51.2898-19.0594-19.0596-43.6759-28.9912-67.4818-38.5962l-2.4437-.9863c-2.222-.8975-4.446-1.8076-6.6755-2.7207C251.584,8.9658,229.6827,0,204.6509,0h0Z"/>
      </g>
      <g>
        <path class="cls-2" d="M179.4011,342.7717c-19.958,0-43.1055-4.791-65.1772-13.4907-10.8501-4.2666-36.2622-14.2593-55.4316-39.3845-2.1792-2.8452-4.2769-5.9126-6.2324-9.1133-7.4619-12.1968-10.9888-23.1665-12.6841-28.4382-2.8179-8.7554-7.5352-23.4102-6.293-41.2915,1.1763-16.8911,8.3306-29.8132,21.3184-53.2715,15.1646-27.3674,23.5181-42.4424,40.8857-54.8567,6.4409-4.5969,19.8408-14.1599,39.9766-17.05,3.73-.5334,7.5078-.804,11.2305-.804,18.0166,0,32.3159,6.136,43.8057,11.0662,14.8716,6.3823,28.4878,15.2725,40.4902,26.4321,7.7676,7.2263,14.6733,15.2124,20.5259,23.7371,15.04,21.9155,20.2568,43.1353,22.0278,53.8335,5.3828,32.5791-3.4185,57.7605-8.147,71.2888-7.9805,22.8696-14.2847,40.9341-31.6826,54.5574-14.2173,11.1379-32.5918,16.7854-54.6128,16.7854Z"/>
        <path class="cls-3" d="M146.9938,87.3396c17.5612,0,31.6996,6.0713,42.9318,10.8911,16.87,7.24,30,16.8699,39.8199,26,10.0499,9.3499,16.63,18.1599,20.2001,23.3599,16.0999,23.46,20.4299,45.49,21.6599,52.9199,5.1799,31.3501-3.01,55.75-8.05,70.1702-7.96,22.8098-14.0699,40.3098-30.9399,53.5198-15.7067,12.3047-34.8926,16.303-53.2141,16.303-30.4724,0-58.5629-11.0535-64.3458-13.3328-11.52-4.53-36.05-14.52-54.4601-38.6501-2.2899-2.99-4.3099-5.99-6.1-8.9199-7.14-11.6699-10.65-22.3201-12.46-27.95-2.8101-8.73-7.4-23.02-6.1901-40.4399,1.12-16.0801,7.78-28.3801,21.04-52.3301,15.51-27.99,23.6-42.23,40.22-54.1101,6.67-4.76,19.75-13.8899,38.98-16.6499,3.7747-.54,7.4095-.781,10.9083-.781M146.994,82.803h-.0002c-3.8298,0-7.7161.2783-11.5508.8267-20.6832,2.9688-34.9014,13.1155-40.9728,17.4482-17.7863,12.7136-26.2279,27.948-41.5529,55.604-13.1454,23.7429-20.3861,36.821-21.5975,54.2136-1.2723,18.3181,3.5288,33.2334,6.3973,42.1453,1.5868,4.9358,5.3038,16.498,12.9086,28.9275,1.9954,3.2659,4.1383,6.3992,6.368,9.3105,19.5481,25.6218,45.3737,35.7771,56.4016,40.1138,22.3268,8.8003,45.7694,13.6475,66.006,13.6475,22.5404,0,41.3855-5.8098,56.0118-17.2683,17.9211-14.0332,24.3219-32.3748,32.4254-55.5964,4.7944-13.7173,13.7201-39.2544,8.2427-72.4043-1.8019-10.8853-7.1072-32.4702-22.3953-54.7473-5.9475-8.6628-12.9624-16.7759-20.8505-24.1145-12.1952-11.3384-26.0299-20.3708-41.1208-26.8474-11.6996-5.0203-26.2379-11.2588-44.7207-11.2588h0Z"/>
      </g>
      <circle class="cls-5" cx="45.6623" cy="134.3379" r="10.0157"/>
      <circle class="cls-5" cx="209.5109" cy="71.0465" r="14.1726"/>
      <circle class="cls-5" cx="291.3948" cy="297.6484" r="14.1726"/>
      <circle class="cls-5" cx="70.9826" cy="76.0544" r="5.0079"/>
      <circle class="cls-5" cx="304.5125" cy="48.5034" r="5.0079"/>
      <circle class="cls-5" cx="118.722" cy="69.4196" r="6.6348"/>
      <circle class="cls-5" cx="337.746" cy="292.6405" r="5.0079"/>
      <circle class="cls-5" cx="303.683" cy="252.2543" r="3.1235"/>
      <circle class="cls-5" cx="337.746" cy="134.3379" r="11.4068"/>
      <circle class="cls-5" cx="303.8415" cy="347.6324" r="7.0699"/>
      <circle class="cls-5" cx="244.4682" cy="347.6324" r="7.0699"/>
      <circle class="cls-5" cx="353.2833" cy="254.1387" r="8.6738"/>
      <circle class="cls-5" cx="98.5033" cy="356.3061" r="8.6738"/>
      <circle class="cls-5" cx="337.746" cy="81.0622" r="8.6738"/>
      <circle class="cls-5" cx="367.6921" cy="151.4798" r="5.7351"/>
      <circle class="cls-5" cx="22.3995" cy="209.2087" r="5.7351"/>
      <circle class="cls-5" cx="266.0164" cy="49.3621" r="8.6738"/>
      <circle class="cls-5" cx="299.5046" cy="81.0622" r="4.3369"/>
      <circle class="cls-5" cx="223.6835" cy="26.1481" r="4.3369"/>
      <circle class="cls-5" cx="32.8175" cy="266.2094" r="4.3369"/>
      <circle class="cls-5" cx="214.5296" cy="377.9905" r="4.3369"/>
      <circle class="cls-5" cx="70.9826" cy="329.286" r="4.3369"/>
      <circle class="cls-5" cx="150.7077" cy="34.8218" r="8.6738"/>
      <circle class="cls-5" cx="273.2595" cy="116.2027" r="18.1352"/>
      <circle class="cls-5" cx="373.4272" cy="193.8046" r="15.4041"/>
      <circle class="cls-5" cx="310.5719" cy="198.5175" r="15.4041"/>
      <circle class="cls-5" cx="171.8006" cy="373.6536" r="17.3475"/>
    </g>
  </g>
</svg>