<?xml version="1.0" encoding="UTF-8"?>
<svg id="Capa_2" xmlns="http://www.w3.org/2000/svg" viewBox="0 0 673.89 536.4">
  <defs>
    <style>
      .cls-1 {
        fill: #bf3441;
      }

      .cls-2 {
        fill: #e55e6c;
      }

      .cls-3 {
        fill: #b22f3f;
      }
    </style>
  </defs>
  <g id="Capa_1-2" data-name="Capa_1">
    <g>
      <g>
        <g>
          <path class="cls-2" d="M336.9499,531.4003c-110.356,0-213.1904-43.2871-275.0825-115.7939-7.2383-8.4648-13.9429-17.4072-19.9248-26.5742-6.8462-10.4941-12.8403-21.4443-17.8154-32.5469-12.6914-28.2891-19.127-57.9932-19.127-88.2852,0-70.5303,34.6836-136.7627,97.6626-186.499C165.2936,32.2391,248.4987,4.9999,336.9499,4.9999c52.0142,0,101.8047,9.2588,147.9883,27.5205,57.0415,22.5518,104.4863,57.4365,137.2061,100.8818,7.2568,9.6416,13.8076,19.7734,19.4712,30.1162,18.0986,33.0947,27.2744,68.3135,27.2744,104.6816,0,70.5293-34.6836,136.7627-97.6611,186.499-62.6299,49.4619-145.832,76.7012-234.2788,76.7012Z"/>
          <path class="cls-3" d="M336.9499,10c52.5301,0,102.1701,9.78,146.1501,27.17,56.15,22.2,103.08,56.79,135.05,99.24,7.12,9.46,13.5,19.3201,19.08,29.51,17.15,31.36,26.66,65.9401,26.66,102.28,0,142.6-146.3801,258.2-326.9401,258.2-112.9699,0-212.5599-45.25-271.2799-114.0399-7.14-8.3501-13.66-17.05-19.54-26.0601-6.68-10.24-12.52-20.88-17.44-31.86-12.1-26.97-18.69-56-18.69-86.24C10,125.6001,156.38,10,336.9499,10M336.9499,0c-45.217,0-89.1006,7.0001-130.432,20.8058-40.033,13.3719-76.0176,32.5399-106.9543,56.9714-31.1109,24.569-55.5659,53.234-72.6856,85.1984C9.0431,196.2756,0,231.6782,0,268.2001c0,31.0023,6.583,61.3949,19.5662,90.3334,5.0784,11.3336,11.1986,22.5154,18.1883,33.2303,6.1031,9.3517,12.9377,18.4674,20.3151,27.0952,30.3427,35.546,71.4768,65.1157,118.9501,85.5056,48.7952,20.9578,104.0982,32.0354,159.9301,32.0354,45.2147,0,89.0964-7.0001,130.4265-20.8058,40.0317-13.3721,76.0153-32.5399,106.9514-56.9714,31.1104-24.5691,55.565-53.234,72.6844-85.1982,17.8348-33.3002,26.8779-68.7028,26.8779-105.2245,0-37.2159-9.3823-73.2422-27.8864-107.0781-5.7805-10.5562-12.4628-20.8921-19.8639-30.7255-33.2752-44.1831-81.4655-79.6351-139.363-102.526C440.0059,9.377,389.5968,0,336.9499,0h0Z"/>
        </g>
        <path class="cls-1" d="M521.705,248.7629c0,37.42-18,71.5199-47.54,97.2-22.55,19.61-51.84,34.3099-84.98,41.8099-14.06,3.1801-28.81,5.0701-44.04,5.4901-82.69-2.2101-152.62-42.66-180.35-98.89-6.04-14.3401-9.31-29.6799-9.31-45.61,0-79.87,81.98-144.61,183.11-144.61,21.83,0,42.7599,3.02,62.16,8.5599.01.01.02.01.03,0,5.11,1.4601,10.11,3.09,14.99,4.88h.01c1.5699.5801,3.12,1.17,4.66,1.78,31.45,12.4299,57.73,31.8,75.64,55.58,3.99,5.3,7.56,10.8199,10.68,16.53,9.61,17.5599,14.94,36.9301,14.94,57.28Z"/>
      </g>
      <path class="cls-1" d="M48.7252,193.4666c1.2554-3.8665,2.681-7.6873,4.2215-11.44,22.2618-54.2292,70.0166-105.732,134.8405-124.3769,9.8743-2.8401,20.9089-4.8089,30.4852-1.2891,4.3515,1.5994,8.2314,4.3842,10.2485,8.0783,2.9612,5.4233,1.4899,12.0561-2.1897,17.1408-3.6795,5.0847-9.2783,8.8902-14.9542,12.3434-23.3628,14.2137-49.8058,24.2127-73.8007,37.6179-23.995,13.4052-36.7625,28.0574-50.0952,51.0188-5.6566,9.7416-9.6423,25.2282-11.9174,35.9475-2.2751,10.7192-6.1285,21.6201-14.5878,29.7066-1.7812,1.7027-4.0237,3.3603-6.6808,3.3633-4.3932.005-6.9292-4.2558-8.0714-7.9194-5.1104-16.3923-2.851-33.7059,2.5016-50.1911Z"/>
      <path class="cls-1" d="M69.4818,294.5265c-.737-4.3294-.6172-8.7366-1.1532-13.0892-.5448-4.4236-1.8584-8.9428-5.0984-12.4011-11.2306-11.987-23.3848,1.9802-24.6926,12.3102-.8336,6.5847.9499,13.1775,3.4901,19.3489,2.9619,7.1957,7.0021,14.0597,11.9879,20.3669,1.4371,1.8181,3.0552,3.6644,5.3749,4.5767,3.4245,1.3468,7.692.2182,10.2886-2.1338,2.5966-2.352,3.72-5.6814,3.9002-8.9274.3734-6.729-2.8826-13.1792-4.0606-19.8387-.0125-.0708-.0248-.1417-.0369-.2126Z"/>
      <path class="cls-1" d="M89.074,349.4254c-.4316-1.1923-.9212-2.369-1.4676-3.5257-1.5316-3.2422-3.6028-6.4252-6.8487-8.5236-4.9871-3.224-14.7804-3.0945-14.7207,3.8886.0177,2.0676.9311,4.0426,1.8616,5.9478,3.4524,7.0685,8.0474,14.5768,16.3078,17.3985,2.3289.7956,5.564.8959,6.7484-1.01.4768-.7672.4794-1.6817.4409-2.5518-.1742-3.9405-.9594-7.8602-2.3218-11.6238Z"/>
      <path class="cls-1" d="M453.9668,112.5362c.7054-.909,49.1187,13.0346,80.7391,49.0572,26.5929,30.2951,29.3945,62.6336,29.7391,74.2314.1719,5.7856.6808,40.7044-24.2609,73.5859-5.1163,6.745-13.4881,16.2843-15.2609,15.4918-2.3211-1.0376,9.878-18.3524,16.4348-38.0839,12.6611-38.1013-.0684-72.117-5.087-85.5275-4.4618-11.9228-15.5003-40.2976-45.3913-65.1946-19.4503-16.2006-37.3543-22.9918-36.913-23.5604Z"/>
      <path class="cls-1" d="M501.2305,343.8557c-1.3853-1.6733-17.1539,11.5-36.5217,22.4348-45.1583,25.4957-87.9526,26.4398-87.6522,28.174.2155,1.244,22.0202-.5123,45.913-6,21.5254-4.9438,42.3518-9.965,61.8261-26.087,9.1721-7.5933,17.518-17.2133,16.4348-18.5217Z"/>
    </g>
  </g>
</svg>