<?xml version="1.0" encoding="UTF-8"?>
<svg id="Capa_2" xmlns="http://www.w3.org/2000/svg" viewBox="0 0 1066.2568 775.0611">
  <defs>
    <style>
      .cls-1 {
        fill: #bf3441;
      }

      .cls-2 {
        fill: #ba0c1c;
      }

      .cls-3 {
        fill: #e55e6c;
      }

      .cls-4 {
        fill: #b22f3f;
      }

      .cls-5 {
        fill: #a5071b;
      }
    </style>
  </defs>
  <g id="Capa_1-2" data-name="Capa_1">
    <g>
      <g>
        <path class="cls-2" d="M724.4084,541.5853c-8.1885,0-22.2129-5.1113-34.5859-9.6201-11.4521-4.1729-22.2695-8.1152-29.0869-8.458-8.5527-.4297-16.4102-.4902-23.3418-.5439-26.2891-.2031-43.6553-.3369-63.1338-19.6426-58.1064-57.5918-55.8828-138.7676-53.8174-162.2754,2.0547-23.3711,6.666-30.6934,18.9912-50.2646,11.7656-18.6807,29.5439-46.9102,57.6572-108.3486,1.6797-3.6709,2.627-8.6621,3.6289-13.9473,2.293-12.0908,4.8916-25.7939,16.6289-28.2852.8584-.1826,1.7422-.2744,2.6279-.2744,10.5547,0,21.2822,12.8076,28.3809,21.2832,2.8223,3.3701,5.0518,6.0312,6.8809,7.4863.999.7949,24.46,19.7988,23.5996,48.9404-.2188,7.3848-4.5889,13.127-9.2158,19.207-1.9219,2.5264-3.9102,5.1387-5.5723,7.876-3.3828,5.5732-4.6699,11.6572-5.9131,17.541-.5273,2.4932-1.0254,4.8486-1.668,7.0811-2.8672,9.9775-1.3564,19.2422,4.7539,29.1543.4932.7998,1.0469,1.7637,1.6699,2.8457,3.4775,6.041,9.2979,16.1504,18.4814,22.376,5.499,3.7266,11.8301,6.3516,17.416,8.668,6.0986,2.5283,11.8594,4.917,13.2305,7.5107,11.1455,21.0947,2.1777,37.0303-6.4951,52.4424-4.4453,7.8984-8.6436,15.3594-9.7666,23.0811-2.4131,16.6025,9.3496,26.1514,20.7256,35.3867,7.7383,6.2812,15.7402,12.7773,20.0176,21.6699,10.4971,21.8213,11.3516,28.1045,8.8398,38.3779-1.1924,4.873-1.8438,8.7344-2.3672,11.8369-1.6162,9.5801-1.9521,11.5742-14.2686,18.1123-.9795.5195-2.4258.7832-4.2979.7832Z"/>
        <path class="cls-5" d="M619.9782,137.0119v5.8254c9.1941,0,19.8066,12.6711,26.1477,20.2419,2.9277,3.4958,5.2405,6.2571,7.3003,7.8955.9526.7574,23.3184,18.8723,22.4998,46.574-.1907,6.4512-4.2864,11.8334-8.6226,17.5315-1.9675,2.5854-4.002,5.2592-5.7424,8.126-3.6416,5.9979-5.0405,12.6141-6.2747,18.4515-.5159,2.4407-1.0034,4.7458-1.6162,6.8776-3.0674,10.6737-1.408,20.9735,5.0732,31.4877.46.746,1.0002,1.6846,1.626,2.7714,3.6023,6.2577,9.6316,16.7312,19.3713,23.3329,5.7429,3.8926,12.219,6.5778,17.9329,8.9467,4.0732,1.689,10.8909,4.5156,11.7715,6.1821,10.4036,19.6896,2.2134,34.2434-6.4575,49.652-4.5818,8.1418-8.9094,15.8322-10.1101,24.0907-2.6519,18.2404,10.3235,28.7739,21.7715,38.0675,7.4893,6.08,15.2336,12.3668,19.2283,20.6714,10.6772,22.1969,10.8535,27.3513,8.6348,36.4221-1.2173,4.9775-1.8784,8.897-2.4094,12.0465-.8145,4.8287-1.2261,7.037-2.45,8.7781-1.3916,1.9801-4.4758,4.1467-10.3123,7.2449-.1958.104-.9858.4431-2.9316.4431-7.6738,0-21.4412-5.0171-33.5876-9.4435-11.6653-4.251-22.6833-8.2662-29.9397-8.6311-8.613-.433-16.5024-.4938-23.4634-.5474-26.4849-.2042-42.4709-.3274-61.1079-18.799-57.2058-56.6984-55.0032-136.7631-52.9653-159.9513,1.9922-22.6696,6.502-29.8302,18.5544-48.9677,11.8059-18.7457,29.647-47.0746,57.8408-108.6884,1.8269-3.9922,2.8054-9.153,3.8416-14.6167,2.6528-13.9884,5.2363-24.0399,14.3726-25.979.6589-.14,1.3398-.2109,2.0234-.2111l.0007-5.8254M619.9767,137.012c-1.0718,0-2.1511.1084-3.2324.3379-19.2141,4.0781-17.0254,32.34-22.3015,43.8702-58.1213,127.0164-72.8147,113.0704-76.9011,159.5699-1.4163,16.1163-7.167,103.3127,54.6675,164.5988,25.6553,25.4275,47.5471,18.9741,88.3796,21.027,13.8132.6945,47.6499,18.0819,63.8198,18.0819,2.27,0,4.1936-.3431,5.6628-1.123,17.772-9.4336,13.1462-11.5802,18.0991-31.8309,2.7651-11.3053,1.5559-18.2955-9.0439-40.3314-11.0596-22.9921-44.1868-29.9106-40.4844-55.3755,3.1497-21.6659,33.7397-43.64,15.9534-77.3022-3.3411-6.323-19.7271-9.191-31.5867-17.2295-10.2278-6.9324-16.0703-19.089-19.3066-24.339-6.2878-10.2003-6.739-18.7992-4.4333-26.8218,2.1831-7.5953,2.7595-16.4832,7.2715-23.9149,5.4983-9.0568,14.863-16.8289,15.2083-28.5085.8821-29.8473-22.5674-49.6121-24.6963-51.3053-6.0999-4.8519-20.9299-29.4052-37.0757-29.4036h0Z"/>
      </g>
      <path class="cls-1" d="M616.1393,261.0383c65.2981,13.3501,63.5863-3.331,73.585-21.048,1.4401-2.5519,15.1441-10.7629,12.1914-28.3585-1.8395-10.9611-6.6937-14.2512-8.9691-29.1907-1.0734-7.0469-2.2684-15.4919.6712-25.5342,1.1085-3.7871,5.1122-17.4651,17.9039-25.1488,7.5736-4.5494,14.6494-4.8478,26.1565-5.3332,8.6137-.3634,15.2676-.644,22.9794,2.4532,6.1488,2.4695,5.9996,4.2868,18.2855,12.0575,8.2388,5.2109,12.3585,7.8165,17.1331,9.3166,10.0525,3.1584,19.0938,1.9264,25.3123,1.079,11.173-1.5225,11.6419-4.0281,20.3026-4.288,7.8545-.2358,13.5287,1.6435,21.4624,4.271,7.8321,2.5939,17.6677,5.9719,25.8858,14.6047,2.9334,3.0814,4.4962,5.6091,4.9742,6.4047,4.5901,7.6415,4.9805,15.1321,4.9891,18.0411.026,8.9028-3.4075,15.6797-5.6811,20.1672-1.4676,2.8967-1.7936,2.8749-3.1055,5.711-2.1201,4.5829-4.9685,10.7402-4.0923,16.2741,1.2493,7.8925,8.9054,7.1303,11.9163,15.9938,1.475,4.3417.6329,9.0466-1.0508,18.4565-2.0426,11.4159-4.1023,12.511-3.0546,16.3098,1.7596,6.3796,8.7219,7.4734,21.3271,14.2399,13.5826,7.2913,23.1557,12.4303,28.1191,22.1618,6.7063,13.1488,1.7087,28.2331,1.0394,30.1643-3.6496,10.5314-8.6747,10.1581-10.8693,19.9887-1.6775,7.5138-.106,13.8418,3.0359,26.4928,3.5112,14.138,5.4218,13.1149,5.7692,19.5223.8234,15.1845-9.5637,27.2491-13.7812,32.1478-3.7423,4.347-10.1176,11.5708-21.1035,15.4806-9.5794,3.409-17.9184,2.6095-22.3066,2.1411-7.0139-.7486-8.413-2.2126-20.9831-6.1246-16.513-5.139-24.7696-7.7086-32.3974-6.5174-10.635,1.6607-10.3918,6.7408-21.4833,8.403-13.5957,2.0377-24.834-3.9654-28.0606-5.7448-11.1936-6.173-17.0021-15.3307-21.8572-22.9851-6.4439-10.159-11.6235-1.2324-18.042-10.1969-7.5789-10.585-18.9996-10.4485-31.7675-3.9842-17.8601,9.0427-32.6255,65.684-38.8109,65.6966-23.462.0479-11.109-66.2715-23.3301-69.4449-24.3456-6.3217-86.7326-85.9088-70.379-113.7186,2.2814-3.8797,27.6655-42.0916,38.0856-39.9612Z"/>
      <g>
        <path class="cls-3" d="M345.3615,770.0618c-5.3779,0-10.8506-.125-16.2666-.3721-28.2441-1.2881-55.6885-5.2842-81.5703-11.876-22.2061-5.6523-43.418-13.2627-63.0449-22.6191,0,0-.3955-.1787-.5371-.2471-.6729-.3154-1.3926-.6631-2.1035-1.0107-67.5986-32.9346-121.4502-93.0537-151.6279-169.2812-3.0928-7.7969-5.9678-15.8623-8.5449-23.9697-1.0361-3.251-2.0654-6.6631-3.0596-10.1367-.3584-1.2393-.7129-2.4932-1.0479-3.7529-.25-.8574-.4805-1.7217-.7021-2.5771-.3242-1.1943-.6543-2.4355-.9746-3.6953-.4014-1.5312-.792-3.1055-1.1738-4.6787-.3848-1.5479-.7568-3.1309-1.1191-4.7109-.6602-2.8477-1.3164-5.8545-2.0029-9.1777-1.0371-5.1221-1.9102-9.8643-2.6738-14.5176-.7266-4.4287-1.3428-8.8037-1.833-13.002-5.0479-42.5449-.8965-85.5283,12.3398-127.7451,12.6963-40.4961,33.7852-78.9883,60.9863-111.3145,52.6855-62.6123,124.2451-99.3809,201.4951-103.5312,8.7188-.4678,17.5039-.7061,26.1133-.7061,57.8447,0,110.2373,10.5811,151.5137,30.5977,6.8018,3.3008,48.3271,22.1172,68.5205,26.0146,3.1299.6055,6.3525,1.3145,9.4697,1.999,8.4541,1.8594,17.1963,3.7822,24.708,3.7822,9.2324,0,15.084-2.8262,18.9746-9.165,2.2656-3.6875,3.8779-7.8232,5.5859-12.2031,1.9033-4.8779,3.8701-9.9229,6.8838-14.5977,5.502-8.5527,13.8203-21.4824,26.3594-21.4824.209,0,.417.0039.6279.0107,13.0381.4746,14.249,15.5732,14.8994,23.6846.0293.3691.0586.7285.0869,1.0742.7734.4785,1.8506,1.0586,2.4678,1.3896,1.2197.6562,2.1006,1.1299,2.791,1.6885,3.4707,2.7969,6.0078,6.1064,7.5322,9.8311,2.7539,6.7246,1.8398,14.5537-2.3281,19.9434-2.2695,2.9414-5.2188,4.9023-7.8203,6.6328-1.9727,1.3115-3.8369,2.5498-5.1211,4.0117-1.418,1.6191-2.458,3.8789-3.4639,6.0635-3.4482,7.4229-6.8779,14.8213-10.3086,22.2305-.5723,1.2412-1.1094,2.4062-1.1807,3.2637-.1025,1.2334.6201,2.9316,1.3848,4.7285.2559.6035.5117,1.2061.748,1.8076,4.3828,11.1465,2.458,24.457-4.9043,33.9092-1.667,2.1436-3.585,4.1465-5.4404,6.082-5.1641,5.3896-8.2578,8.9541-7.668,12.9932.6035,4.1035,5.5479,7.3076,9.5889,9.2715.7773.3779,1.5684.748,2.3623,1.1201,5.2383,2.4561,11.1758,5.2402,14.9756,10.7656,2.5352,3.6885,3.5967,7.9102,4.5332,11.6357.8926,3.5488,1.7354,6.9014,3.6465,9.0654,1.2422,1.4023,3.1504,2.5439,5.1719,3.7539l.3125.1865c7.3369,4.3984,14.8877,9.46,20.4121,16.6592,6.4971,8.4678,8.8721,18.7529,6.3535,27.5137-.0898.3096-.1846.6191-.2812.9297-.1807.585-.4541,1.4688-.4395,1.7637.0957.3408.9189,1.2666,1.4639,1.8799.667.752,1.4238,1.6045,2.1025,2.6143,4.6797,7.002,1.9619,14.9521-.2207,21.3398-.5264,1.5391-1.0225,2.9922-1.4102,4.375-1.7275,6.1758-.375,14.6992,4.8242,17.6963,1.8926,1.0869,4.4834,1.4629,7.2256,1.8613,1.957.2832,3.9805.5771,6.0479,1.1484,8.0225,2.2236,12.415,7.792,16.291,12.7051.9912,1.2568,2.0166,2.5566,3.0723,3.7666,2.5264,2.9014,5.7061,5.1904,8.4834,7.0469,1.1406.7686,2.2812,1.5088,3.4229,2.25.9531.6191,1.9072,1.2383,2.8545,1.8691,12.3047,8.1934,18.8682,29.4277,18.7979,45.248,0,.0742,0,.1504-.001.2285,3.0137,8.6104,2.6416,17-1.1084,24.9541-6.5918,13.9688-22.7012,21.9805-44.1973,21.9805-2.0752,0-4.1816-.0811-6.2607-.2402-5.5352-.4229-10.4863-.6289-15.1348-.6289-28.9541,0-48.1387,8.5176-62.2041,27.6172-7.9873,10.8418-13.6611,22.9365-19.668,35.7412-2.6953,5.7471-5.4834,11.6895-8.4746,17.4443-22.5186,43.3389-56.5361,76.8721-101.1074,99.667-40.1641,20.542-88.0244,31.4004-138.4053,31.4023Z"/>
        <path class="cls-4" d="M308.0141,136.1402c50.9758,0,104.3638,8.2889,149.3323,30.0969,4.8088,2.3331,47.9778,22.2218,69.7546,26.4243,11.6316,2.2501,24.1873,5.8726,35.1252,5.8726,9.5312,0,17.833-2.7479,23.2356-11.5491,5.1453-8.3778,7.0818-18.4412,12.4104-26.7086,5.238-8.1422,12.5479-19.1913,22.158-19.1913.1489,0,.2983.0027.4482.0081,9.7937.3566,9.6055,15.0955,10.3457,21.9279.1741,1.5151,5.8794,3.9462,6.9326,4.7991,2.604,2.0972,4.7766,4.725,6.0503,7.8374,1.9968,4.8759,1.5664,10.8252-1.6555,14.9917-3.3616,4.3562-9.1072,6.2671-12.7424,10.4019-1.855,2.1193-3.0732,4.7175-4.2502,7.2737-3.4409,7.4089-6.8713,14.8096-10.3027,22.2195-.7297,1.583-1.4822,3.2102-1.6262,4.9526-.2563,3.0631,1.3386,5.9205,2.4619,8.7778,3.7395,9.514,2.084,20.9458-4.1953,29.0083-5.6978,7.3248-15.4519,13.6851-14.1118,22.8698.907,6.174,6.7393,10.3188,12.3508,13.0458s11.8701,5.0831,15.4033,10.2217c4.3501,6.3287,3.4707,15.4237,8.5522,21.1775,1.8386,2.077,4.2786,3.4922,6.6619,4.9204,7.0364,4.2177,14.0176,8.9012,19.0149,15.4142,4.9973,6.5128,7.7827,15.2021,5.5156,23.0876-.4504,1.5645-1.0967,3.1465-.8674,4.7595.3667,2.653,2.8777,4.3802,4.3694,6.5988,4.1729,6.2466-.2695,14.3427-2.2966,21.5768-2.2002,7.8643-.5217,18.9595,7.1421,23.3777,4.314,2.4785,9.6423,2.1724,14.4402,3.4967,8.2351,2.2832,11.709,8.9601,16.9255,14.9398,2.7656,3.1764,6.0466,5.6271,9.4731,7.9163,2.0718,1.3975,4.1958,2.7351,6.2871,4.1252,9.9602,6.6331,16.635,25.4707,16.5659,41.0626.0012.361-.0073.7299-.0151,1.0898,2.6753,7.0879,2.8918,14.5436-.6167,21.9828-6.6458,14.0822-23.7019,19.1123-39.6738,19.1123-1.9849,0-3.9512-.0775-5.8806-.2251-5.2705-.403-10.45-.6433-15.5139-.6433-26.0449-.0004-49.0769,6.3563-66.2324,29.6519-12.0657,16.3773-19.1702,35.7965-28.5525,53.8442-46.1895,88.8948-139.3108,128.3752-235.0747,128.3752-5.344,0-10.6877-.1227-16.0408-.3667-27.1367-1.2367-54.2439-5.0222-80.5637-11.7262-21.3682-5.4381-42.2139-12.7944-62.1279-22.2872-.1768-.0822-.3455-.1542-.5132-.2355-.698-.3279-1.3953-.6649-2.0833-1.001-70.4543-34.3252-120.9985-95.4602-149.1742-166.6294-3.08-7.7661-5.8889-15.6536-8.429-23.6436-1.059-3.3224-2.0613-6.6576-3.0167-9.9974-.3586-1.2375-.7081-2.4741-1.0385-3.7179-.2419-.8285-.4645-1.6639-.6788-2.4897-.332-1.2256-.6559-2.4412-.9689-3.674-.403-1.5378-.7867-3.0828-1.1614-4.6271-.3837-1.5449-.7483-3.0975-1.1038-4.6489-.7004-3.0188-1.3544-6.0424-1.9799-9.0723-.9637-4.7555-1.8516-9.531-2.6368-14.3151-.6985-4.2577-1.3046-8.5155-1.7998-12.7714C-7.2441,311.285,113.9787,145.8757,282.1689,136.8393c8.5068-.4573,17.1436-.6991,25.8452-.6991M308.0143,126.1402c-8.6968,0-17.573.24-26.3821.7134-40.2102,2.1605-78.845,12.9077-114.8313,31.9434-34.0701,18.0221-64.425,42.7048-90.2218,73.3623-27.6229,32.8279-49.0383,71.9154-61.9309,113.0367C1.1994,388.0915-3.0171,431.7761,2.1161,475.0362c.4934,4.2404,1.1207,8.6931,1.8619,13.2119.7677,4.6766,1.6775,9.6162,2.7042,14.6825.7037,3.4091,1.3685,6.4546,2.0394,9.3462.4202,1.8335.7833,3.3636,1.1368,4.7872.4414,1.8191.8199,3.3269,1.1897,4.739.318,1.2512.6467,2.4858.9835,3.73.1875.7214.4332,1.6515.7097,2.6056.3032,1.1376.6437,2.355,1.0677,3.8186,1.0043,3.5107,2.0483,6.9708,3.0939,10.2511,2.609,8.2064,5.5237,16.3823,8.6611,24.2933,14.861,37.5375,35.22,71.1969,60.5094,100.0377,26.7185,30.4703,58.2035,54.6594,93.5806,71.895.7144.3488,1.4465.7026,2.1797,1.0474.1594.0762.3193.1493.4824.2225l.0791.0359c19.908,9.484,41.4065,17.1954,63.8967,22.9191,26.2114,6.6765,53.9944,10.7224,82.5747,12.0249,5.4893.2501,11.0396.377,16.4961.377,51.168,0,99.8147-11.0477,140.6812-31.9489,21.8987-11.2001,41.6152-25.2244,58.6023-41.6835,17.9338-17.3765,32.9614-37.6079,44.6648-60.1322,3.0374-5.8425,5.8464-11.8311,8.563-17.6226,5.8994-12.5767,11.4717-24.4558,19.1667-34.901,13.2065-17.933,30.6062-25.5835,58.1816-25.5833,4.5205,0,9.3457.2009,14.7515.6143,2.2065.1687,4.4417.2542,6.6431.2542,23.5093,0,41.2661-9.0554,48.7173-24.8445,4.1499-8.7988,4.6887-18.4075,1.5881-27.9087-.0898-17.4646-7.2795-39.6654-21.0227-48.8177-.9583-.6368-1.9158-1.2585-2.8723-1.8796-1.1721-.761-2.2793-1.4797-3.366-2.2125-2.6641-1.7802-5.3899-3.7424-7.5232-6.1926-.9805-1.1239-1.9224-2.3181-2.9199-3.5826-4.1355-5.2427-9.282-11.7672-18.8757-14.427-2.3813-.6575-4.6609-.988-6.6721-1.2798-2.2563-.3273-4.3877-.6364-5.4578-1.2512-2.5852-1.4905-3.8035-7.3318-2.4937-12.0126.3486-1.2444.8232-2.6338,1.3259-4.1046,2.4048-7.0372,5.6985-16.6752-.3445-25.7213-.7769-1.1558-1.5774-2.0907-2.2585-2.8613.0171-.0585.0342-.1168.051-.1752,2.9561-10.2819.2671-22.2213-7.1917-31.9421-6.0334-7.8635-14.0466-13.2521-21.8074-17.9039l-.3213-.1923c-1.6035-.9596-3.2617-1.9519-3.9941-2.7792-1.0981-1.2435-1.7971-4.0231-2.5371-6.9658-1.0396-4.134-2.2178-8.8195-5.2617-13.2478-4.5686-6.6445-11.4463-9.8691-16.9724-12.46-.7732-.3625-1.5435-.7233-2.301-1.0916-5.1167-2.4865-6.6992-4.6302-6.8279-5.5049-.2778-1.9048,3.3872-5.7297,6.332-8.8033,1.9429-2.0275,3.9519-4.124,5.7791-6.4731,8.4211-10.8125,10.6243-26.0466,5.6091-38.8063-.2534-.6449-.5264-1.2897-.8013-1.9357-.3162-.7433-.7695-1.8092-.9407-2.4022.1592-.4163.4592-1.067.6736-1.532,3.4299-7.407,6.8589-14.8042,10.2981-22.2098.8311-1.8047,1.7576-3.8169,2.7053-4.8998.8342-.9489,2.4304-2.0099,4.1201-3.1333,2.7791-1.8477,6.2378-4.1471,9.0144-7.7452,5.2346-6.7693,6.4116-16.5426,2.9927-24.8909-1.8472-4.5144-4.8862-8.4973-9.0317-11.8359-1.0352-.8381-2.145-1.4352-3.5503-2.191-.022-.0117-.0444-.0238-.0674-.0363-.3318-3.9023-.8762-8.7771-2.4829-13.2241-2.9922-8.2806-9.2197-13.1942-17.0862-13.4806-.2742-.0099-.5437-.0146-.8123-.0146-15.269,0-24.8459,14.8865-30.5679,23.781-3.281,5.0903-5.3413,10.3733-7.3337,15.4823-1.624,4.1644-3.158,8.0979-5.188,11.4033-2.1628,3.5234-5.4417,6.7823-14.7144,6.7823-6.9683,0-15.4409-1.8634-23.6343-3.6655-3.1472-.6921-6.4014-1.408-9.5916-2.0251-19.6599-3.7938-60.5776-22.3472-67.2891-25.6033-41.9536-20.3459-95.1008-31.0999-153.697-31.0999h0Z"/>
      </g>
      <path class="cls-1" d="M99.604,249.4875c57.5879-68.0875,153.1057-105.0755,241.7297-95.8351,24.8709,2.5932,50.4133,9.0453,69.3419,25.3853,18.9284,16.34,29.2496,44.6021,18.8197,67.3289-10.8722,23.6903-39.3348,33.7612-65.3191,35.8234-59.2135,4.6995-120.1215-19.1156-177.2069-2.6968-39.9821,11.4996-73.0997,42.6518-90.1198,80.6143-5.4931,12.2523-12.3681,27.455-25.7848,27.9927-9.2716.3717-17.3243-7.4758-20.0576-16.3431-2.7334-8.8674-1.28-18.45.7669-27.5004,8.1086-35.8542,24.9847-67.7587,47.83-94.7691Z"/>
      <path class="cls-3" d="M585.0185,194.2199c-.6625-.4263,3.927-7.2185,10.7756-21.1882,2.6051-5.3137,6.0414-12.6951,12.4056-21.2082,2.4555-3.2846,5.5134-6.9607,9.9511-7.3395.4899-.0418,4.5671-.3342,6.2907,2.2492,1.886,2.8271-.4967,6.9245-.9396,7.6863-2.078,3.5742-5.32,3.0392-10.0065,6.0677-2.1347,1.3795-4.1418,3.7484-8.0685,8.4299-4.5085,5.3751-5.7753,7.5489-10.5878,13.7894-4.6554,6.0369-9.1911,11.9184-9.8204,11.5134Z"/>
      <path class="cls-1" d="M658.3584,147.3034c-6.877-10.2918-2.7996-15.9858-7.7189-28.0244-4.8196-11.7945-10.1912-9.8964-14.1991-20.8-.7266-1.977-5.7448-16.3109,1.4154-30.2683,6.8178-13.2902,20.2106-17.5315,28.7353-20.2312,9.0652-2.8708,19.3839-6.1387,29.4349-.764,7.8766,4.2119,15.2083,13.5279,14.5646,22.4089-.3556,4.9071-2.8823,6.0403-2.0123,9.7626,1.3602,5.8199,8.328,6.4337,17.564,13.2681,4.7814,3.5381,7.9814,11.3215,6.9139,17.5904-1.3391,7.8637-12.7281,10.9864-20.3738,12.5373-15.3299,3.1096-20.3276.128-24.6015,4.9111-5.7779,6.4663.2611,15.3792-7.0309,23.4226-.8009.8835-5.2605,5.6148-10.9993,5.2054-5.8307-.4159-9.6071-5.8978-11.6923-9.0185Z"/>
      <path class="cls-1" d="M811.7053,139.3742c-4.6885.1635-16.7489.5841-27.5251-7.9601-7.1644-5.6806-15.3985-16.6219-14.0007-28.1203.6704-5.5142,4.3311-11.1568,11.6526-22.442,4.9211-7.5854,6.4535-8.5448,8.1338-13.3525.923-2.6411,4.3752-12.5187-.0265-20.9736-1.1955-2.2962-3.6389-4.6075-8.5258-9.2301-6.7215-6.3579-8.7631-6.7143-10.5001-10.4736-2.2988-4.9754-1.3219-9.9769-.8979-12.147.48-2.457,1.546-7.9142,5.8519-11.4806,5.3596-4.4392,12.6544-3.394,22.7363-1.9496,6.6407.9515,9.961,1.4271,12.7753,3.3583,7.644,5.2454,8.7075,15.5518,9.6353,24.5436.4176,4.0475,1.1898,12.2845-1.6337,21.8583-1.3409,4.5469-2.469,5.9236-5.0698,14.1792-2.0021,6.3553-3.0031,9.5329-3.4095,13.2945-.5418,5.0147-1.4956,13.8426,3.8661,19.2556,2.2093,2.2304,4.9537,3.3389,5.923,3.7304,3.861,1.5594,6.3797,1.1248,9.2945,1.4419,7.2247.7859,15.6002,6.0498,16.6281,12.1271.6425,3.7987-1.723,7.1031-3.5699,9.6088-10.112,13.7185-29.3445,14.662-31.3381,14.7316Z"/>
      <path class="cls-1" d="M925.8782,230.8599c-8.5362-9.1768-6.7597-22.4525-6.5712-23.7169,1.6833-11.2944,8.8333-12.0898,11.9087-25.0381.6316-2.6591,3.8005-16.0015-3.2508-25.4862-2.339-3.146-6.856-5.4561-15.7948-9.9477-16.5279-8.3052-18.9623-7.1263-22.9612-11.7038-8.2216-9.4112-5.7356-23.3282-5.3792-25.172.4788-2.4764,1.8647-9.1943,7.2491-15.0126,12.6387-13.6571,34.3787-8.3854,35.9151-7.9884,10.6124,2.742,23.2639,10.6694,27.1282,22.6007,2.6084,8.0538-.4169,12.8993,4.334,19.826,3.4713,5.0611,8.363,7.2512,14.2372,9.794,14.8413,6.4243,18.5559,2.0068,27.6275,6.9217,11.4349,6.1953,17.4474,19.67,17.9494,30.6072.2058,4.4856.4991,10.8745-3.6147,15.3714-4.8412,5.2921-10.5627,2.2543-21.6912,7.2955-2.2901,1.0374-10.0152,4.6345-15.8707,12.0644-7.2958,9.2576-3.9529,14.6497-9.3707,20.5702-8.6022,9.4002-30.8153,10.8717-41.8448-.9854Z"/>
      <path class="cls-1" d="M962.6418,278.0042c.4351-14.9237,11.8967-26.1057,17.2482-31.3266,6.7628-6.5978,15.1051-14.7365,27.5464-16.1544,22.916-2.6118,40.211,19.8031,45.7062,26.9251,7.5666,9.8066,15.5417,20.1427,12.4191,29.5369-4.6754,14.0657-27.9647,7.1714-51.1268,27.9819-4.8674,4.3732-19.8892,17.87-20.0459,35.7688-.0941,10.7538,5.2603,13.664,3.6499,22.7731-2.56,14.481-20.0767,29.6688-33.1677,25.2986-11.1825-3.733-16.1425-20.7377-14.0586-32.8445,1.8062-10.4937,7.5566-9.4784,12.9471-24.9355,1.6889-4.8429,6.0121-17.2397,3.6461-31.6208-.6919-4.2061-1.5376-6.0376-2.821-13.9097-1.132-6.9435-2.0808-12.7632-1.943-17.4929Z"/>
      <path class="cls-1" d="M1051.1019,316.621c-3.6661-4.7505-15.0222-1.4123-16.147-1.0698-6.5703,2.0007-10.6445,5.9594-12.8646,8.167-3.2834,3.2649-11.6411,11.5754-11.2359,23.5317.0673,1.9861.4016,11.8495,7.7569,17.0183,3.3441,2.35,6.7136,2.7275,9.1409,2.9995.9325.1045,16.0807,1.5861,22.8321-8.2315,3.9004-5.6716,3.2997-12.6444,2.8325-18.07-.4626-5.37-1.6748-6.0651-1.9363-12.2495-.3253-7.6933,1.4175-9.7683-.3787-12.0957Z"/>
      <path class="cls-1" d="M952.8862,445.8578c-5.2424,6.4361,1.9047,14.0335-2.6721,21.7557-3.6308,6.1262-12.0143,7.9006-18.2105,9.212-4.9912,1.0564-8.8099.9483-13.1854.7955-15.6859-.5475-18.0787-4.9734-26.9478-3.1848-1.2099.244-10.3835,2.2376-16.2362,10.4554-1.5701,2.2046-6.3835,8.9632-4.1338,15.3202,2.7686,7.8232,15.0137,11.5898,23.2175,9.1077,4.4075-1.3336,5.4302-3.7996,14.9414-7.9618,2.2725-.9944,4.8341-2.1155,7.6278-2.9169,10.6484-3.0548,15.3029,1.2202,26.6851.5374,4.0598-.2436,12.3235-.8434,20.0311-6.4109,8.3256-6.0139,11.2586-14.3976,12.1784-17.1473,1.1568-3.4584,4.8113-14.3841-.7575-24.1915-1.1792-2.0768-5.1448-9.0608-12.1602-9.5889-3.4364-.2587-7.7719,1.0191-10.3777,4.2182Z"/>
      <path class="cls-1" d="M995.3281,467.3489c-2.2435-9.6334-3.615-15.5223-7.8148-21.7426-4.4912-6.652-7.2742-6.362-9.3079-11.9287-1.9724-5.3989-1.9602-12.8029,1.7941-18.1725,1.4031-2.0069,3.0711-3.3609,15.512-8.4298,16.5281-6.7341,18.5531-6.3689,23.5565-10.2571,5.6553-4.3949,5.5074-6.7569,9.698-7.9552,6.3472-1.815,14.2127,1.4518,18.6983,7.0887,4.3504,5.467,5.11,12.6466,3.4494,18.1659-2.6173,8.6986-11.3093,13.4822-16.2808,16.2181-5.0413,2.7744-6.6491,2.3729-9.961,5.3079-.9321.826-6.5553,5.954-7.6658,13.9229-1.2776,9.1679,4.9372,11.19,3.7635,20.2941-.085.6598-1.3583,9.4641-8.7555,14.3396-1.594,1.0505-6.8085,4.4874-10.7431,2.6094-3.8306-1.8284-3.0589-7.0772-5.9429-19.4606Z"/>
      <path class="cls-1" d="M839.2411,484.4446c-1.6064-2.314-6.9123,1.9078-16.6629,1.5006-13.7878-.5758-16.5195-9.5746-29.6821-10.008-1.9191-.0632-14.3127-.4714-19.6144,7.5006-5.2292,7.8629-.8653,19.8273,5.251,26.47,8.3075,9.0224,20.1551,8.5608,21.9707,8.4603,9.7467-.5391,16.0068-6.1157,24.1236-13.3466,6.7555-6.0181,16.9864-17.1593,14.614-20.5769Z"/>
      <path class="cls-1" d="M883.6068,528.9316c-1.3638-10.8513-12.0066-18.8008-22.3751-20.2964-8.8156-1.2715-18.4673,1.9732-24.518,9.3757-1.4215,1.739-8.5729,10.9607-5.2681,21.4994,4.0104,12.7889,19.5648,15.2284,21.2788,15.4697,9.8473,1.3865,21.2007-2.482,27.0851-11.4815,1.1594-1.7732,4.7022-7.3668,3.7973-14.5669Z"/>
      <path class="cls-1" d="M1005.8166,509.8021c-.0472-5.1968-8.0225-10.859-15.6923-10.9861-5.7708-.0956-9.9085,2.9667-11.416,4.1157-1.0984.8373-6.3356,5.0104-7.4608,11.846-.5899,3.5838.4631,4.7857.7375,8.4612.8868,11.8765-8.8373,16.3385-6.5117,23.4738,1.6108,4.9424,7.9024,7.7904,12.8332,8.0825,6.7954.4026,11.4692-4.0218,12.557-5.0516,5.2891-5.0069,6.4853-12.1533,7.6592-19.1663.9806-5.8585.3385-7.6704,2.2175-11.8394,2.4292-5.39,5.1038-5.914,5.0763-8.9359Z"/>
      <path class="cls-1" d="M939.1879,287.2228c3.4883-4.7868-2.2467-13.7334-4.1224-16.6595-2.6282-4.1001-5.4042-8.4305-10.6026-9.4351-6.1449-1.1875-13.7555,2.643-15.5633,8.9491-1.5338,5.3504,1.7813,10.14,2.5581,11.2623,3.0693,4.4344,7.516,5.8738,10.3397,6.7878,1.4431.4671,13.5378,4.3821,17.3904-.9045Z"/>
      <path class="cls-1" d="M849.8013,90.7076c-2.1973-.0578-12.32-.3242-18.0766-8.0759-5.1457-6.9291-3.4438-15.316-2.9813-17.5954.4193-2.0665,2.1665-10.6766,9.3259-14.8076,4.4975-2.595,9.0718-2.179,18.2205-1.3469,8.8019.8006,11.1657,2.5532,17.9129,1.7684,4.9047-.5705,5.8359-1.7502,10.5092-2.8945,7.0113-1.7169,22.9833-3.4858,28.3773,4.6364,3.6732,5.5311,2.1861,15.2651-3.0888,20.6661-7.1262,7.2965-15.3254.7052-32.5947,6.2191-14.5595,4.6486-16.2353,11.7294-27.6044,11.4303Z"/>
      <path class="cls-1" d="M1033.2131,200.4318c-12.054-5.5632-23.8851.6566-25.3067,1.4337-2.5427,1.39-6.3854,3.4907-6.5717,6.8221-.1687,3.0177,2.7571,5.3573,3.3559,5.8362,3.3887,2.7098,7.5496,2.2081,8.8411,2.0524,4.0209-.4848,4.2118-2.2528,7.3554-2.8127,6.6812-1.1899,9.965,6.0581,14.8795,4.6146,3.7057-1.0884,6.4928-6.5764,5.3984-10.8701-.984-3.8605-4.8193-5.6306-7.9519-7.0763Z"/>
      <path class="cls-1" d="M985.0515,592.6848c-9.7694-7.8123-18.1726-2.5403-24.6726-10.3-5.39-6.4345-.7967-11.474-6.7251-22.1592-1.6685-3.0073-6.2501-10.9869-15.8525-14.672-12.1918-4.6788-23.1323,1.152-24.294,1.7959-2.2094,1.2247-9.1039,5.0461-11.7171,12.4744-1.7367,4.9368.0258,6.895-1.384,14.0189-.4017,2.0303-1.7311,8.7475-5.5377,13.6087-6.7876,8.6679-15.9639,4.427-24.6974,11.1929-8.5441,6.6191-11.3428,19.65-9.7228,29.4481,3.0392,18.3818,22.0374,27.8447,34.7693,30.1707,13.5707,2.4793,24.7909-2.2787,27.6143-3.5651,16.6868-7.6027,15.538-19.448,30.0813-23.2441,9.8025-2.5586,13.5828,1.9722,26.4222-2.1099,5.8993-1.8757,12.3165-3.9158,15.0952-9.5196,4.0628-8.1936-1.3019-20.6806-9.379-27.1397Z"/>
    </g>
  </g>
</svg>