<?xml version="1.0" encoding="UTF-8"?>
<svg id="Capa_2" xmlns="http://www.w3.org/2000/svg" viewBox="0 0 766.8101 349.9709">
  <defs>
    <style>
      .cls-1 {
        fill: #bf3441;
      }

      .cls-2 {
        fill: #e55e6c;
      }

      .cls-3 {
        fill: #b22f3f;
      }
    </style>
  </defs>
  <g id="Capa_1-2" data-name="Capa_1">
    <g>
      <g>
        <path class="cls-2" d="M379.4841,344.9702c-103.9873-.1152-187.8047-9.8662-249.1221-28.9824-30.9746-9.6533-56.5762-21.8604-76.0938-36.2803C21.5769,255.5835,4.9998,224.7466,4.9998,188.0542c0-26.9805,9.9292-52.3945,29.5117-75.5381,18.5918-21.9727,45.4121-41.3369,79.7168-57.5537C182.3806,22.7437,276.7214,5.0005,379.8699,5.0005c134.7793,0,240.0059,16.8838,304.3047,48.8252,18.7441,9.3115,34.3105,20.0264,46.2695,31.8447,20.8135,20.5752,31.3662,44.9922,31.3662,72.5742,0,56.8369-34.5771,104.0674-99.9932,136.585-65.9883,32.8027-163.1484,50.1416-280.9746,50.1416l-1.3584-.001Z"/>
        <path class="cls-3" d="M379.87,10c124.1801,0,233.5699,14.2699,302.08,48.3035,17.96,8.9231,33.1101,19.1936,44.98,30.924,19.25,19.0294,29.8801,41.894,29.8801,69.0173,0,109.986-133.9264,181.7262-375.9668,181.7262-.4589,0-.8937-.0002-1.3533-.0007-101.51-.1123-185.52-9.3895-247.64-28.7559-30.21-9.4154-55.25-21.2234-74.61-35.528-30.8201-22.7438-47.24-51.8104-47.24-87.6321C10,82.6021,170.35,10,379.87,10M379.87,0c-103.8726,0-198.9717,17.9139-267.7789,50.4419-34.9542,16.5243-62.3401,36.3224-81.3966,58.8444C10.327,133.3575,0,159.8589,0,188.0543c0,38.3665,17.2606,70.5573,51.3022,95.6783,19.9606,14.7483,46.0613,27.2078,77.5721,37.0287,61.798,19.2659,146.1138,29.0933,250.6045,29.2089l1.3644.0007c59.9995,0,114.7192-4.4036,162.6389-13.0883,46.9625-8.5112,87.5251-21.1534,120.5609-37.5754,67.2307-33.4203,102.767-82.1989,102.767-141.0625,0-28.9678-11.0524-54.5813-32.8499-76.129-12.3395-12.1945-28.3409-23.2189-47.5608-32.7679-33.8861-16.8334-78.6705-29.5662-133.1096-37.845C503.0985,3.8701,444.7517,0,379.87,0h0Z"/>
      </g>
      <path class="cls-1" d="M590.38,112.3685c0,34.5777-92.51,62.6166-206.63,62.6166s-206.64-28.0388-206.64-62.6166c0-1.4685.17-2.9196.5-4.3449,7.37-32.1332,96.53-53.0803,205.7999-53.0803,18.7101,0,36.8501.6133,54.1001,1.7967,87.97,6.012,152.87,26.7172,152.87,55.6285Z"/>
      <path class="cls-1" d="M232.5828,177.3773c-1.6083-12.7393-38.2811-6.7057-66.9424-31.2933-13.1014-11.2392-16.8778-22.3132-32.2898-25.1707-1.8663-.346-15.0761-2.6289-22.8392,4.0817-8.0642,6.971-5.5417,19.5759-2.3626,26.5313,2.3281,5.0937,7.5036,12.6166,45.6783,28.5722,45.6078,19.0623,56.7226,16.0576,61.4297,14.2861,7.6307-2.8718,18.2168-9.9525,17.3262-17.0072Z"/>
      <path class="cls-1" d="M285.9834,187.654c-10.7159.2195-18.6707-1.2381-24.1518-2.7212-3.3414-.9041-6.9837-2.1478-11.0258-.9071-3.7677,1.1565-7.6573,4.4025-7.8755,8.3903-.244,4.456,4.22,7.5739,6.0379,8.8437,5.0793,3.5478,11.3309,3.9252,23.6268,4.5353,9.9298.4927,14.5443-.1586,17.3263-.6803,5.9725-1.1199,10.5912-1.986,12.6009-5.4423,1.8601-3.1991.988-7.7626-2.3627-10.6579-3.6234-3.1307-9.4861-3.7415-14.176-1.3606Z"/>
      <path class="cls-1" d="M592.5877,125.5234c-12.4742,13.2431-25.9163,20.676-31.826,23.8858-12.9016,7.0074-25.298,10.8495-44.0869,15.0977-49.2408,11.1334-88.0017,12.7592-87.9131,13.7456.0562.6249,15.6633.5539,34.174-.9014,23.4342-1.8423,45.7648-3.5979,72.2609-12.3936,17.7126-5.8799,33.691-11.1842,48-25.0125,10.8555-10.4909,17.9391-23.1711,17.4783-23.4352-.2825-.1619-3.587,4.2362-8.087,9.0135Z"/>
    </g>
  </g>
</svg>