<?xml version="1.0" encoding="UTF-8"?>
<svg id="Capa_2" xmlns="http://www.w3.org/2000/svg" viewBox="0 0 774.8252 628.8257">
  <defs>
    <style>
      .cls-1 {
        fill: #70569b;
      }

      .cls-2 {
        fill: #604593;
      }

      .cls-3 {
        fill: #47327c;
      }

      .cls-4 {
        fill: #a486ce;
      }
    </style>
  </defs>
  <g id="Capa_1-2" data-name="Capa_1">
    <g>
      <g>
        <path class="cls-4" d="M265.9925,621.3257c-36.2163,0-69.6494-6.8516-99.3706-20.3643-42.4478-19.2925-81.1992-54.3179-112.064-101.2891-30.0229-45.7095-46.2856-93.416-47.0308-137.9629-.1226-7.3813.1704-14.9229.8716-22.4146,3.6177-38.5732,18.3125-78.7671,42.4956-116.2378,13.0698-20.2749,28.0376-39.7173,44.4858-57.7827,31.3677-34.4595,67.6548-63.1768,104.939-83.0459,41.9756-22.3701,84.6909-33.7124,126.9604-33.7124,19.8989,0,39.7651,2.5757,59.0474,7.6553,13.1152,3.457,25.9248,8.1021,38.3125,12.5938,11.3633,4.1201,23.1133,8.3809,34.8145,11.5967,4.7573,1.3052,10.0698,2.9043,15.6938,4.5977,17.3042,5.2095,38.8403,11.6929,52.3809,11.6929,4.0679,0,6.3228-.5942,7.498-1.0928,13.7749-5.8394,24.1069-20.5054,35.0454-36.0327,10.0015-14.1973,20.3433-28.8779,34.271-37.4253,15.5684-9.5527,34.1104-14.6016,53.6211-14.6016,21.5811,0,43.4971,6.2578,61.7119,17.6206,15.0703,9.397,27.3037,22.0908,35.376,36.7075,5.7412,10.3945,9.5176,21.8677,11.2217,34.1006,6.5342,46.6333-17.7539,94.8521-57.75,114.647-12.3857,6.1265-25.8701,9.8535-38.9111,13.458-20.4502,5.6528-39.7666,10.9917-53.3281,24.7378-20.0254,20.2886-20.8047,50.832-21.6289,83.1685-.2236,8.7378-.4541,17.7725-1.1113,26.4502-4.1309,54.4473-28.9893,108.5215-69.9966,152.2632-35.9878,38.3779-85.0278,69.332-141.8198,89.5176-39.4893,14.0371-78.4282,21.1548-115.7354,21.1548Z"/>
        <path class="cls-1" d="M657.9645,15c20.2188-.0005,40.6077,5.7954,57.7416,16.4839,13.52,8.4299,25.01,19.8999,32.78,33.97,5.4299,9.8301,8.8298,20.53,10.3599,31.51,5.8601,41.8301-15.2999,87.9099-53.6499,106.8899-30.8501,15.26-70.08,15.1501-94.25,39.6501-28.09,28.46-21.86,74.45-24.88,114.3201-4.18,55.0898-30.2,107.3899-67.99,147.7001-37.79,40.2999-86.81,69.0798-138.86,87.5798-36.1222,12.8403-74.9493,20.7218-113.2241,20.7218-33.2051,0-65.9919-5.9275-96.2659-19.6918-45.17-20.53-81.65-57.1099-108.9-98.58-26.26-39.98-45-86.1501-45.8-133.9702-.12-7.22.17-14.4299.84-21.5898,3.76-40.0901,19.4-78.8901,41.33-112.8701,12.66-19.6399,27.35-38.8098,43.73-56.7998,59.0408-64.8611,139.9622-114.3079,226.3533-114.3079,18.8455,0,37.9396,2.3506,57.1367,7.4077,24.81,6.54,48.31,17.3701,73.05,24.1699,19.9957,5.4849,50.9526,16.5588,70.063,16.5588,4.0946,0,7.6444-.5083,10.4271-1.6887,29.37-12.45,43.13-57.29,70.3099-73.97,14.9746-9.1885,32.2736-13.4937,49.6985-13.4939M657.9666,0v15l-.0006-15h-.0018c-20.8971.0002-40.7952,5.4324-57.543,15.7087-15.2465,9.3567-26.0413,24.6802-36.4808,39.499-10.3041,14.6272-20.0369,28.4429-31.8386,33.4458-.0157.0066-1.2244.499-4.5728.499-12.436,0-33.3851-6.3069-50.2179-11.3745-5.6703-1.707-11.0261-3.3193-15.8771-4.6499-11.405-3.1348-22.4955-7.156-34.2369-11.4136-12.5445-4.5486-25.5161-9.2522-38.9576-12.7952-19.9073-5.2444-40.4166-7.9031-60.9603-7.9031-43.5125,0-87.4149,11.6389-130.4876,34.5933-38.0332,20.2688-75.0187,49.5291-106.9583,84.6172-16.726,18.3699-31.9491,38.1436-45.2449,58.77C19.759,257.4692,4.6612,298.8274.9317,338.5933c-.7269,7.7671-1.0308,15.5852-.9035,23.2397.4077,24.3755,5.1952,49.5195,14.2293,74.7351,8.0594,22.4954,19.5092,45.1117,34.0312,67.2208,31.6449,48.1586,71.4905,84.1205,115.2308,104.0006,30.7008,13.9583,65.1782,21.0361,102.4725,21.0361,38.1652,0,77.9496-7.2633,118.2482-21.5883,27.8984-9.9159,54.0242-22.3632,77.6513-36.9961,25.4207-15.7439,48.0054-34.0659,67.1264-54.4569,42.1736-44.9862,67.7451-100.6807,72.0052-156.8254.6716-8.8667.9044-17.9966,1.1298-26.8262.786-30.8118,1.5284-59.915,19.4689-78.092,12.1549-12.3208,30.532-17.4001,49.988-22.7781,13.379-3.698,27.2137-7.522,40.2368-13.9639,42.811-21.188,68.8234-72.6707,61.8542-122.416-1.8301-13.1338-5.8965-25.4788-12.0847-36.6816-8.6881-15.7327-21.8193-29.3733-37.9736-39.4458-19.3868-12.094-42.712-18.7554-65.6759-18.7554h0Z"/>
      </g>
      <g>
        <path class="cls-2" d="M249.1849,458.2871c-28.9409,0-52.0684-6.5625-72.7832-20.6523-30.0225-20.4233-43.3105-49.2915-47.6304-60.7554-3.562-9.4424-10.1934-27.0225-7.3799-49.811,3.6553-29.7085,20.5015-49.0444,27.5747-55.979.1299-.1309.3218-.314.5269-.5078l.2534-.2412c7.4634-7.1255,23.4531-19.7378,46.8745-24.334,5.7183-1.1216,11.561-1.6904,17.3672-1.6904,18.6089,0,33.6328,5.6602,44.603,9.793,13.856,5.2183,20.0068,9.8838,25.4336,14.0005,5.1323,3.8931,9.186,6.9678,19.5889,10.1348,9.7559,2.9678,16.0308,3.2319,23.9756,3.5664,8.8525.373,18.8857.7954,35.957,4.9536,9.2974,2.2661,16.6406,4.0557,22.6699,6.5576,4.665,1.9204,8.4663,4.2334,11.9468,7.2729,13.2749,11.5986,20.0215,29.6924,20.0532,53.7798,0,6.1851-1.0273,27.8516-14.2466,48.6479-26.5088,41.7266-80.7344,48.1885-113.1333,52.0493-12.6387,1.5068-26.9644,3.2153-41.6514,3.2153Z"/>
        <path class="cls-3" d="M213.9876,250.3159c17.5124,0,31.9215,5.427,42.4886,9.408,26.26,9.8899,22.69,17.3501,45.39,24.26,21.66,6.5901,28.2801.8201,60.26,8.6099,9.5201,2.3201,16.32,4,21.79,6.27,3.96,1.6301,7.22,3.5601,10.3,6.25,17.98,15.7102,17.9899,41.5601,18,49.3,0,3.7-.2601,24.8601-13.31,45.3901-24.98,39.3199-77.31,45.5599-108.78,49.3099-12.7651,1.5222-26.6177,3.1732-40.9406,3.1732-22.749,0-46.6921-4.1616-69.4094-19.6133-30.84-20.98-43.02-51.6199-45.39-57.9099-3.78-10.02-9.62-26.0601-7.04-46.96,3.68-29.9102,21.74-48.4302,25.82-52.4302.22-.22.47-.45.74-.71,5.29-5.05,20.48-18.1799,43.87-22.77,5.6589-1.1099,11.069-1.5779,16.2114-1.5779M213.9879,238.3159h-.0003c-6.1924,0-12.4238.6064-18.5211,1.8022-24.9188,4.8901-41.9263,18.3047-49.8466,25.866l-.0182.0173-.0182.0176-.2247.2139c-.2221.2104-.4313.4106-.6263.6042-7.543,7.4038-25.4153,27.9568-29.2964,59.5015-2.994,24.2532,3.9772,42.7329,7.7224,52.6609,4.5189,11.9932,18.4276,42.2076,49.8681,63.5961,21.4597,14.5963,46.3713,21.6915,76.1591,21.6915,15.0439,0,29.5569-1.7307,42.3615-3.2576,16.0175-1.9087,37.9557-4.5229,59.3144-11.8873,26.2692-9.0575,45.8416-23.4923,58.1736-42.9034,13.7018-21.5554,15.1812-43.4236,15.1812-51.825-.0053-4.1445-.0178-13.7427-2.6021-24.501-3.3882-14.105-9.9497-25.489-19.5022-33.8354-3.9908-3.4854-8.3204-6.1255-13.6277-8.3101-6.4284-2.6677-13.9694-4.5056-23.5168-6.8323-17.6478-4.2988-28.4475-4.7534-37.1252-5.1189-7.8124-.3289-13.457-.5664-22.4832-3.3127-9.3762-2.854-12.8712-5.5051-17.7085-9.1746-5.4678-4.1475-12.2725-9.3091-26.945-14.835-10.7578-4.0527-27.0169-10.178-46.7177-10.178h0Z"/>
      </g>
    </g>
  </g>
</svg>