<?xml version="1.0" encoding="UTF-8"?>
<svg id="Capa_2" xmlns="http://www.w3.org/2000/svg" viewBox="0 0 783.9458 637.9667">
  <defs>
    <style>
      .cls-1 {
        fill: #44911c;
      }

      .cls-2 {
        fill: #639648;
      }

      .cls-3 {
        fill: #367710;
      }

      .cls-4 {
        fill: #57a529;
      }

      .cls-5 {
        fill: #acd696;
      }

      .cls-6 {
        fill: #94c67d;
      }

      .cls-7 {
        fill: #70a856;
      }

      .cls-8 {
        fill: #7bb662;
      }
    </style>
  </defs>
  <g id="Capa_1-2" data-name="Capa_1">
    <g>
      <g>
        <path class="cls-8" d="M709.7667,208.4244c-30.8501,15.26-70.0801,15.15-94.2501,39.65-28.09,28.46-21.86,74.45-24.88,114.32-4.18,55.09-30.2,107.39-67.99,147.7-37.79,40.3-86.81,69.08-138.86,87.58-67.46,23.98-144.32,30.66-209.49,1.03-45.17-20.53-81.65-57.11-108.9-98.58-26.26-39.98-45-86.1501-45.8-133.9701-.12-7.22.17-14.43.84-21.59,3.76-40.09,19.4-78.89,41.33-112.87,12.66-19.64,27.35-38.81,43.73-56.8,71.92-79.01,176.29-135.14,283.49-106.9,24.81,6.54,48.31,17.37,73.05,24.17,24.28,6.66,64.72,21.56,80.49,14.87,29.37-12.45,43.13-57.29,70.31-73.97,32.35-19.85,75.5399-16.91,107.4401,2.99,13.52,8.43,25.01,19.9,32.78,33.97,5.4299,9.83,8.8298,20.53,10.3599,31.5099,5.8601,41.83-15.2999,87.91-53.6499,106.89Z"/>
        <path class="cls-5" d="M662.5346,19.5705c20.2192-.0003,40.6084,5.7954,57.7422,16.4839,13.52,8.43,25.0098,19.9,32.7798,33.97,5.4302,9.83,8.8301,20.53,10.3599,31.51,5.8604,41.83-15.2998,87.91-53.6499,106.89-30.8501,15.26-70.0801,15.15-94.25,39.65-28.0898,28.46-21.8599,74.45-24.8799,114.32-4.1802,55.09-30.2002,107.39-67.9902,147.7-37.79,40.3-86.8101,69.08-138.8599,87.58-36.1221,12.8404-74.9492,20.7219-113.2241,20.7219-33.2051,0-65.9917-5.9276-96.2656-19.6919-45.1704-20.53-81.6504-57.11-108.9004-98.58-26.2598-39.98-45-86.15-45.7998-133.97-.1201-7.22.1699-14.43.8398-21.59,3.7603-40.09,19.3999-78.89,41.3301-112.87,12.6602-19.64,27.3501-38.81,43.73-56.8,59.0405-64.8611,139.9619-114.3076,226.353-114.3076,18.8457,0,37.9399,2.3505,57.1372,7.4076,24.8101,6.54,48.3101,17.37,73.0498,24.17,19.9956,5.4848,50.9526,16.5586,70.063,16.5586,4.0947,0,7.6445-.5082,10.4272-1.6886,29.3696-12.45,43.1299-57.29,70.3096-73.97,14.9746-9.1884,32.2734-13.4936,49.6982-13.4939M662.5371,0v19.5706l-.0005-19.5706h-.002c-21.7417.0004-42.4663,5.6658-59.9336,16.3839-16.0498,9.8497-27.1206,25.5647-37.8267,40.7624-9.8535,13.9875-19.1636,27.204-29.6797,31.7812-.2705.0593-1.189.225-2.9946.225-11.7637,0-33.2285-6.462-48.9019-11.1803-5.6978-1.7154-11.0796-3.3356-15.9849-4.681-11.2261-3.0857-22.2329-7.0767-33.8857-11.3021-12.6401-4.5833-25.7109-9.3227-39.3525-12.9186-20.2886-5.3447-41.189-8.0543-62.125-8.0543-44.2705,0-88.896,11.8197-132.6377,35.1304-38.4897,20.5123-75.9009,50.1033-108.1885,85.574-16.895,18.5561-32.2734,38.5319-45.7065,59.3706C20.0932,260.1753,4.7495,302.2427.9516,342.7368c-.7427,7.9357-1.0527,15.9224-.9229,23.7431.416,24.8761,5.2935,50.5131,14.4966,76.2003,8.1812,22.8351,19.7935,45.7769,34.5137,68.1881,32.1201,48.882,72.6328,85.415,117.1602,105.6526,31.2983,14.23,66.4116,21.4457,104.3633,21.4457,38.6885,0,78.9878-7.3521,119.7788-21.8521,28.2041-10.0244,54.6245-22.6134,78.5273-37.4171,25.7617-15.955,48.6582-34.5326,68.0537-55.2163,42.8843-45.7439,68.8901-102.4257,73.229-159.606.6802-8.9813.9146-18.1696,1.1411-27.0553.7622-29.8824,1.4824-58.1077,18.1528-74.9979,11.2974-11.4516,29.1021-16.373,47.9526-21.5833,13.585-3.755,27.6328-7.6379,41.0459-14.2726,22.1104-10.9427,40.6855-30.0557,52.3071-53.8201,11.188-22.8769,15.4663-48.9183,12.0469-73.3269-1.9067-13.6861-6.1504-26.5629-12.6108-38.2577-9.0635-16.4126-22.7422-30.6303-39.5552-41.1137-20.1025-12.5403-44.2871-19.4477-68.0947-19.4477h0Z"/>
      </g>
      <path class="cls-7" d="M709.7667,208.4244c-30.8501,15.26-70.0801,15.15-94.2501,39.65-28.09,28.46-21.86,74.45-24.88,114.32-4.18,55.09-30.2,107.39-67.99,147.7-37.79,40.3-86.81,69.08-138.86,87.58-67.46,23.98-144.32,30.66-209.49,1.03-45.17-20.53-81.65-57.11-108.9-98.58-26.26-39.98-45-86.1501-45.8-133.9701-.79-47.66,16.33-94.41,42.17-134.46,12.66-19.64,27.35-38.81,43.7297-56.7996-30.9638,36.2723-32.2175,85.4476-26.1544,130.4472,2.7975,20.7631,2.706,44.7792,12.1685,63.7485,8.5517,17.1435,20.9601,33.2186,33.8507,47.29,26.2638,28.6697,60.1341,51.0009,98.3557,59.62,36.4755,8.2253,74.7825,3.9462,110.9725-5.4559,64.4241-16.7373,119.3611-51.458,155.4046-108.1684,11.5306-18.1421,19.3604-36.9829,25.8536-57.133,6.0402-18.7445,17.9556-33.9847,18.749-54.4689.48-12.45-5.9309-30.6374.2591-39.9174,6.93-10.37,23.2909-4.0127,26.8709-4.9527,11.39-3.0099,18.47-.33,29.22.52,14.44,1.14,24.58-1.91,44.34-7.83,24.34-7.29,61.29-18.37,83.9999-52.69,3.79-5.73,14.05-21.61,16.7001-44.35,3.36-28.88-7.75-49.96-15.8099-65.5,13.52,8.43,25.01,19.9,32.78,33.97,26.1399,47.28,5.1299,114.44-43.29,138.4Z"/>
      <path class="cls-2" d="M709.7667,208.4244c-30.8501,15.26-70.0801,15.15-94.2501,39.65-28.09,28.46-21.86,74.45-24.88,114.32-4.18,55.09-30.2,107.39-67.99,147.7-37.79,40.3-86.81,69.08-138.86,87.58-67.46,23.98-144.32,30.66-209.49,1.03-45.17-20.53-81.65-57.11-108.9-98.58-26.26-39.98-45-86.1501-45.8-133.9701-.12-7.22.17-14.43.84-21.59,5.4301,28.25,15.65,59.88,36.7401,90.9,47.44,69.7599,122.08,95.5399,142.04,102.13,67.02,22.1499,123.3,13.53,139.7,10.5699,78-14.08,128-57.71,147.91-77.48,30.77-30.5599,44.41-58.46,66.91-104.48,0,0,26.65-54.51,22.18-92.48-2.1-17.78-5.74-24.52-5.74-24.52-3.13-5.78-6.54-8.99-5.22-12,1.35-3.09,6.41-3.02,17.22-4.7,6.13-.95,12.13-2.63,18.2599-3.65,15.7-2.6,41.3301-9.79,57.91-15.65,24.4401-8.63,44.6901-15.79,63.13-32.35,4.1-3.68,22.64-20.87,35.48-56.87,2.73-7.64,4.8401-15.14,6.46-22.45,5.8601,41.83-15.2999,87.91-53.6499,106.89Z"/>
      <path class="cls-1" d="M416.7866,358.9844c0,3.7-.26,24.86-13.31,45.39-24.98,39.32-77.31,45.56-108.78,49.31-33.04,3.9401-73.33,8.74-110.35-16.4401-30.84-20.9799-43.02-51.6199-45.39-57.9099-3.78-10.02-9.62-26.06-7.04-46.96,3.68-29.91,21.74-48.43,25.82-52.43.22-.22.47-.45.74-.71,5.29-5.05,20.48-18.18,43.87-22.77,24.93-4.89,45.03,2.68,58.7,7.83,26.26,9.89,22.69,17.35,45.39,24.26,21.66,6.59,28.28.82,60.26,8.61,9.52,2.32,16.32,4,21.79,6.27,3.96,1.63,7.22,3.56,10.3,6.25,17.98,15.71,17.99,41.56,18,49.3Z"/>
      <path class="cls-6" d="M477.8253,110.2918c-12.6121-17.5394-37.1174-15.2167-88.8261-26.2174-27.2794-5.8035-24.8301-7.3799-40.6956-9.3913-18.903-2.3965-44.1-5.2997-71.6087,5.4783-10.074,3.947-32.2746,12.6453-43.0435,34.4348-2.5799,5.22-9.0256,18.262-3.5217,28.174,6.6158,11.9146,26.4699,12.053,37.5652,12.1304,11.2292.0783,13.7227-1.9287,44.2174-7.8261,16.2034-3.1336,24.3051-4.7004,33.2609-5.4783,15.0389-1.3063,26.3895-.5453,39.5217.3913,14.3103,1.0206,21.0884,2.3073,50.4783,5.087,16.4802,1.5587,24.0419,2.0709,32.4782-2.3478,1.9879-1.0412,13.8858-7.2731,15.2609-18.3913.9276-7.4997-3.3734-13.6605-5.087-16.0435Z"/>
      <path class="cls-6" d="M189.3036,144.857c-11.7489-4.1411-22.2309-1.4617-26.6087,0-4.3295,1.4456-6.8455,3.0883-22.9565,16.6957-20.2793,17.1279-23.0372,20.2215-25.5652,23.4783-7.2851,9.3853-14.3961,18.5463-11.4782,27.1304,3.0716,9.0364,15.4147,12.0149,17.7391,12.5217,3.5539.775,11.6667,1.8733,38.6087-11.4783,15.0999-7.483,22.6498-11.2244,29.7391-17.7391,6.2187-5.7147,23.9714-22.0284,19.3043-36-3.0246-9.0546-14.0697-12.9476-18.7826-14.6087Z"/>
      <path class="cls-6" d="M595.6079,70.3787c8.616-14.3211,12.9241-21.4817,13.6957-22.3043,12.0322-12.8281,28.18-15.8515,37.5652-17.6087,2.4884-.4659,12.8939-2.296,26.2173-.7826,1.7324.1968,8.0997.971,16.0436,3.5217,9.3221,2.9933,14.2505,4.6581,16.4347,9.3913,1.9771,4.2844.9507,9.4467-1.1738,12.913-1.7002,2.774-4.7101,5.4514-13.3044,7.8261-11.6481,3.2186-16.2943,1.1121-33.2609,2.3478-8.292.6039-4.6899.9256-20.7391,2.7391-8.4386.9536-13.3409,1.3061-18.7826,4.6956-1.787,1.1131-4.4221,3.0457-7.0435,5.4783-4.6218,4.2887-4.6595,5.9167-7.4348,7.8261-4.9855,3.4301-13.147,3.8754-15.2609.7826-1.5504-2.2684.4941-5.9401,7.0435-16.8261Z"/>
      <path class="cls-3" d="M416.7866,358.9844c0,3.7-.26,24.86-13.31,45.39-24.98,39.32-77.31,45.56-108.78,49.31-33.04,3.9401-73.33,8.74-110.35-16.4401-30.84-20.9799-43.02-51.6199-45.39-57.9099-3.78-10.02-9.62-26.06-7.04-46.96,3.68-29.91,21.74-48.43,25.82-52.43.22-.22.47-.45.74-.71-3.6487,11.9307-11.0991,25.479-6.9991,39.749,8.9,31.01,34.4644,57.4571,40.3043,60.9171,12,7.11,46.9565,6.2609,76.8248,7.5639,13.1117.572,22.37,4.12,31.83,5.22,23.41,2.71,35.1201,4.07,46.95,1.04,5-1.27,28.36-7.24,41.74-29.22,2.1801-3.58,8.72-14.62,8.8701-29.73.14-14.4301-5.6201-24.08-9.51-31.34,3.96,1.63,7.22,3.56,10.3,6.25,17.98,15.71,17.99,41.56,18,49.3Z"/>
      <path class="cls-4" d="M252.434,266.2918c-3.574-3.9624-8.6499-5.155-18.2609-6-14.8574-1.3063-22.2861-1.9595-32.087.1304-11.5765,2.4686-18.8488,6.7835-24.7826,10.3043-8.8881,5.2737-11.3469,8.7532-11.3478,12,0,.2195.0408,3.0943,2.087,4.9565,2.1,1.9113,5.3112,1.8448,10.4348.7826,7.5213-1.5593,10.9217-3.5556,18.3913-6.2609,6.0159-2.1788,10.0363-3.6348,15.6522-4.4348,7.4677-1.0637,13.7973-.4033,16.6957,0,9.0682,1.2617,13.6024,1.8926,16.8261,3,1.9791.6798,4.4684,1.6722,6.6522.5217,2.7648-1.4566,3.2018-5.3798,3.2609-6,.4387-4.6093-2.7405-8.1339-3.5217-9Z"/>
      <path class="cls-4" d="M289.9992,285.4983c-.6012-2.0598-2.9851-2.999-7.7283-4.7935-5.6055-2.1207-9.0628-2.3121-10.3696-2.3478-2.757-.0753-4.6755-.0989-6.2609,1.2717-1.3595,1.1754-2.6302,3.5112-1.9565,5.3804.5851,1.6232,2.2303,1.7673,13.8913,4.7935.0001,0,1.3677.355,5.087.9783,3.9315.6589,4.6439.554,5.2826.1956,1.6777-.9413,2.629-3.5093,2.0543-5.4783Z"/>
      <path class="cls-4" d="M354.9558,296.357c-3.537-2.5552-5.7933-.2348-15.163-1.2717-3.8215-.4229-6.0684-1.0991-7.7283.3913-1.1227,1.0081-1.9138,2.9508-1.2717,4.3044,1.0805,2.2776,5.0601.4436,13.1086,2.25,3.2213.723,6.0345,1.7912,10.4674,1.4673,2.5889-.1891,3.4855-.6891,3.8152-1.3696.7247-1.4956-1.1072-4.2394-3.2283-5.7717Z"/>
      <path class="cls-5" d="M302.2316,83.2801c-1.3506-1.1801-3.377-1.6816-5.2345-1.8422-4.2286-.3656-8.4859.2951-12.6087,1.3037-19.2109,4.6997-38.6295,17.2447-44.7493,36.9306-.6023,1.9374-1.0422,4.1642.0116,5.8979,1.5898,2.6156,5.5623,2.446,8.2433.9691,3.3406-1.8403,5.6917-5.0123,8.134-7.9417,9.7238-11.6634,22.7604-20.8793,37.5193-24.4519,2.5361-.6139,5.1954-1.0965,7.3306-2.5966,2.1351-1.5,3.5708-4.3952,2.4862-6.7685-.2709-.5926-.6603-1.088-1.1323-1.5004Z"/>
      <path class="cls-5" d="M178.8688,145.6397c-1.6183-2.1851-5.9418-1.3602-9.6522-.6522-1.8469.3524-6.4857,1.2949-10.9565,4.9565-2.7441,2.2474-2.0469,2.7527-5.0869,5.4783-3.4607,3.1028-4.8687,2.9005-10.174,6.6522-4.5289,3.2027-6.9357,4.9489-6.6522,6.913.2859,1.9804,3.2435,3.7415,5.6087,3.3913,1.8338-.2715,2.3141-1.6647,5.087-4.1739.3644-.3298,3.2781-2.9331,7.1739-4.8261,3.5726-1.736,6.8895-2.349,9-2.7391,3.9099-.7226,4.7209-.3102,7.1739-1.3044.9636-.3906,3.4982-1.4506,5.6087-3.913,2.0911-2.4398,4.686-7.33,2.8696-9.7826Z"/>
      <path class="cls-5" d="M116.8471,186.4005c-2.9984,2.0391-4.9721,4.2354-6.1631,5.7717-1.3569,1.7504-3.3989,4.8384-4.5,9.0978-.5843,2.2604-1.6579,6.4137.0978,7.6304,1.0095.6996,2.6326.2054,3.5217-.2935.8924-.5008,1.561-1.2958,2.5435-3.6196,1.7274-4.0859.9902-4.7737,2.3478-7.2391.9876-1.7935,1.4648-1.5876,3.2282-4.5,1.5569-2.5714,1.6408-3.4846,1.4674-4.2065-.3685-1.5345-1.9367-2.3597-2.5435-2.6413Z"/>
    </g>
  </g>
</svg>