<?xml version="1.0" encoding="UTF-8"?>
<svg id="Capa_2" xmlns="http://www.w3.org/2000/svg" viewBox="0 0 774.8256 628.8257">
  <defs>
    <style>
      .cls-1 {
        fill: #898686;
      }

      .cls-2 {
        fill: #c4c2c2;
      }

      .cls-3 {
        fill: #938989;
      }

      .cls-4 {
        fill: #847a7a;
      }
    </style>
  </defs>
  <g id="Capa_1-2" data-name="Capa_1">
    <g>
      <g>
        <path class="cls-2" d="M705.1963,203.8538c-30.8501,15.26-70.0801,15.15-94.2501,39.65-28.09,28.46-21.86,74.45-24.88,114.32-4.18,55.09-30.2,107.39-67.99,147.7-37.79,40.3-86.81,69.08-138.86,87.58-67.46,23.98-144.32,30.66-209.49,1.03-45.17-20.53-81.65-57.11-108.9-98.58-26.26-39.98-45-86.1501-45.8-133.9701-.12-7.22.17-14.43.84-21.59,3.76-40.09,19.4-78.89,41.33-112.87,12.66-19.64,27.35-38.81,43.73-56.8C172.8463,91.3139,277.2163,35.1839,384.4163,63.4238c24.81,6.54,48.31,17.37,73.05,24.17,24.28,6.66,64.72,21.56,80.49,14.87,29.37-12.45,43.13-57.29,70.31-73.97,32.35-19.85,75.5399-16.91,107.4401,2.99,13.52,8.43,25.01,19.9,32.78,33.97,5.4299,9.83,8.8298,20.53,10.3599,31.5099,5.8601,41.83-15.2999,87.91-53.6499,106.89Z"/>
        <path class="cls-1" d="M657.9646,15c20.2188-.0004,40.6079,5.7954,57.7417,16.4839,13.52,8.4299,25.0103,19.9,32.7803,33.97,5.4297,9.83,8.8296,20.53,10.3599,31.51,5.8599,41.83-15.3003,87.91-53.6499,106.89-30.8501,15.26-70.0801,15.15-94.2505,39.65-28.0898,28.46-21.8599,74.45-24.8799,114.3199-4.1797,55.09-30.1997,107.39-67.9897,147.7002-37.79,40.2999-86.8101,69.0798-138.8604,87.5798-36.1221,12.8403-74.9492,20.7218-113.2241,20.7218-33.2051,0-65.9917-5.9275-96.2656-19.6918-45.1699-20.53-81.6499-57.1099-108.8999-98.58-26.2603-39.98-45-86.1501-45.8003-133.9701-.1196-7.22.1699-14.4301.8403-21.59,3.7598-40.0901,19.3999-78.89,41.3296-112.87,12.6602-19.64,27.3501-38.8101,43.7305-56.8,59.0405-64.8611,139.9619-114.3076,226.353-114.3076,18.8452,0,37.9395,2.3505,57.1367,7.4076,24.8101,6.54,48.3101,17.37,73.0498,24.17,19.9961,5.4849,50.9526,16.5586,70.063,16.5586,4.0947,0,7.6445-.5082,10.4272-1.6886,29.3701-12.45,43.1299-57.29,70.3101-73.97,14.9746-9.1885,32.2734-13.4937,49.6982-13.4939M657.967,0v15l-.001-15h-.0015c-20.8975.0002-40.7954,5.4324-57.543,15.7087-15.2471,9.3567-26.042,24.6803-36.4814,39.4993-10.3037,14.627-20.0366,28.4426-31.8384,33.4454-.0156.0067-1.2241.499-4.5728.499-12.4355,0-33.3838-6.3065-50.2163-11.3738-5.6709-1.7073-11.0273-3.3197-15.8789-4.6505-11.4043-3.1346-22.4941-7.1558-34.2354-11.4131-12.5449-4.5488-25.5166-9.2524-38.959-12.7958-19.9072-5.2443-40.4165-7.9031-60.96-7.9031-43.5127,0-87.415,11.6389-130.4878,34.5934-38.0327,20.2688-75.0186,49.5289-106.958,84.6171-16.7251,18.3687-31.9482,38.1422-45.2451,58.7701C19.759,257.4701,4.6614,298.8282.9319,338.5931c-.7266,7.7609-1.0308,15.5789-.9038,23.2391.4082,24.3765,5.1953,49.5205,14.2295,74.7358,8.0596,22.4956,19.5093,45.1118,34.0317,67.2208,31.6445,48.1586,71.4902,84.1205,115.2305,104.0006,30.7007,13.9583,65.1777,21.0361,102.4722,21.0361,38.1655,0,77.9497-7.2633,118.2485-21.5883,27.8984-9.9159,54.0244-22.3632,77.6514-36.9961,25.4209-15.7439,48.0054-34.0658,67.1265-54.4569,42.1738-44.9865,67.7451-100.6812,72.0049-156.8258.6714-8.8663.9043-17.9962,1.1299-26.8257.7856-30.812,1.5283-59.9152,19.4688-78.0922,12.1548-12.3207,30.5322-17.4001,49.9878-22.7778,13.3794-3.6981,27.2144-7.522,40.2373-13.964,42.811-21.1879,68.8232-72.6707,61.8545-122.416-1.8306-13.1342-5.897-25.4792-12.085-36.6816-8.688-15.7328-21.8193-29.3733-37.9736-39.4458-19.3867-12.094-42.7119-18.7555-65.6758-18.7555h0Z"/>
      </g>
      <g>
        <path class="cls-3" d="M412.2163,354.4138c0,3.7-.26,24.86-13.31,45.39-24.98,39.32-77.31,45.56-108.78,49.31-33.04,3.9401-73.33,8.74-110.35-16.4401-30.84-20.9799-43.02-51.6199-45.39-57.9099-3.78-10.02-9.62-26.06-7.04-46.96,3.68-29.91,21.74-48.43,25.82-52.43.22-.22.47-.45.74-.71,5.29-5.05,20.48-18.18,43.87-22.77,24.93-4.89,45.03,2.68,58.7,7.83,26.26,9.89,22.69,17.35,45.39,24.26,21.66,6.59,28.28.82,60.26,8.61,9.52,2.32,16.32,4,21.79,6.27,3.96,1.63,7.22,3.56,10.3,6.25,17.98,15.71,17.99,41.56,18,49.3Z"/>
        <path class="cls-4" d="M213.988,250.3159c17.5122-.0001,31.9214,5.4269,42.4883,9.408,26.2598,9.89,22.6899,17.35,45.3901,24.26,21.6597,6.59,28.2798.8199,60.2598,8.61,9.52,2.3199,16.3198,4,21.79,6.27,3.96,1.63,7.2202,3.5599,10.2998,6.25,17.98,15.71,17.9902,41.5599,18,49.2999,0,3.7001-.2598,24.86-13.3096,45.39-24.98,39.3201-77.3101,45.5601-108.7803,49.3101-12.7651,1.5222-26.6177,3.1732-40.9404,3.1732-22.749,0-46.6924-4.1616-69.4097-19.6133-30.8398-20.98-43.02-51.62-45.3896-57.9099-3.7803-10.02-9.6201-26.0601-7.04-46.9601,3.6797-29.9099,21.7397-48.4299,25.8198-52.4299.2202-.2201.4702-.4501.7402-.7101,5.2896-5.0499,20.48-18.1799,43.8696-22.7699,5.6587-1.11,11.0693-1.578,16.2119-1.578M213.988,238.3159h0c-6.1929,0-12.4243.6063-18.522,1.8024-24.9189,4.8903-41.9263,18.3048-49.8462,25.866l-.0186.0178-.0186.0178-.2266.2157c-.2202.2089-.4282.4075-.6221.6-7.542,7.4026-25.417,27.9564-29.2979,59.5029-2.9941,24.2549,3.9771,42.7338,7.7227,52.6613,4.5176,11.9919,18.4248,42.2057,49.8677,63.5958,21.4595,14.5963,46.3711,21.6915,76.1592,21.6915,15.0435,0,29.5566-1.7307,42.3613-3.2576,16.0176-1.9087,37.9556-4.5229,59.3145-11.8873,26.2695-9.0575,45.8418-23.4923,58.1738-42.9036,13.7012-21.5551,15.1807-43.4233,15.1807-51.8248-.0054-4.1421-.0171-13.7396-2.6016-24.4984-3.3877-14.1062-9.9497-25.491-19.5029-33.838-3.9893-3.4849-8.3193-6.1251-13.6279-8.3102-6.4297-2.6682-13.9697-4.5057-23.5161-6.8322-17.6479-4.2988-28.4478-4.7535-37.1255-5.1189-7.8125-.329-13.457-.5667-22.4829-3.3126-9.3765-2.8544-12.8716-5.5055-17.709-9.1748-5.4673-4.1473-12.272-9.309-26.9443-14.8348-10.7573-4.0527-27.0156-10.178-46.7178-10.178h0Z"/>
      </g>
    </g>
  </g>
</svg>