<?xml version="1.0" encoding="UTF-8"?>
<svg id="Capa_2" data-name="Capa 2" xmlns="http://www.w3.org/2000/svg" viewBox="0 0 89.08 288.03">
  <defs>
    <style>
      .cls-1 {
        fill: #f9bd5d;
      }

      .cls-2 {
        fill: #ffcb80;
      }

      .cls-3 {
        fill: #db963b;
      }

      .cls-4 {
        fill: #eaa94b;
      }

      .cls-5 {
        fill: #c17e2d;
      }

      .cls-6 {
        fill: #d1831c;
      }
    </style>
  </defs>
  <g id="Capa_1-2" data-name="Capa 1">
    <g>
      <path class="cls-1" d="M45.71,288.03c-.59,0-1.16-.3-1.47-.85-.47-.81-.19-1.85.62-2.32.72-.42,1.41-.84,1.94-1.4.29-.31.78-.95.87-1.82.09-.92-.27-2.1-.55-2.43h0c-.07,0-.2.01-.45.05-.24.04-.47.09-.71.14-.82.16-1.67.33-2.59.34-1.62-.04-3.03-.52-4.06-1.54-1.8-1.76-2.03-4.78-.54-6.87.98-1.37,2.55-2.19,4.42-2.29.79-.05,1.54.02,2.26.09.44.04.88.09,1.32.09,1.2-.02,2.46-.3,3.6-.9.58-.31.91-.58,1.11-.93.31-.54.14-1.38-.21-1.79-.28-.33-.69-.53-1.22-.6-.38-.04-.8-.03-1.26-.01-.73.03-1.54.06-2.41-.14-1.33-.3-2.49-1.26-3.18-2.61-.83-1.64-.9-3.63-.17-5.33.65-1.52,1.88-2.69,3.75-3.57.26-.12.52-.23.78-.34.84-.37,1.56-.68,2.12-1.21,1.5-1.43,2.08-4.72,1.87-7.23-.08-.94.62-1.76,1.55-1.83.92-.07,1.76.62,1.83,1.55.25,3.07-.36,7.53-2.91,9.97-.99.95-2.12,1.44-3.11,1.87-.23.1-.46.2-.69.31-1.11.52-1.75,1.08-2.06,1.82-.33.78-.3,1.72.07,2.46.23.46.56.76.91.84.43.1.93.08,1.52.06.54-.02,1.16-.04,1.79.03,1.41.17,2.6.79,3.43,1.8,1.29,1.56,1.52,3.94.54,5.65-.69,1.2-1.74,1.86-2.46,2.24-1.6.85-3.37,1.3-5.11,1.3-.04,0-.08,0-.12,0-.56,0-1.09-.06-1.61-.11-.62-.06-1.2-.11-1.73-.08-.85.05-1.48.35-1.86.88-.52.72-.45,1.88.15,2.47.39.38.99.54,1.67.57.6,0,1.25-.13,1.95-.27.26-.05.52-.1.78-.15.57-.1,1.75-.31,2.85.4,1.74,1.11,2.29,3.97,2.13,5.65-.13,1.38-.76,2.74-1.77,3.81-.84.9-1.81,1.49-2.72,2.02-.27.15-.56.23-.85.23Z"/>
      <g>
        <g>
          <path class="cls-1" d="M62.38,201.94v35.64c0,5.16-4.22,9.39-9.39,9.39-4.14,0-7.69-2.73-8.92-6.48-.31-.92-.47-1.89-.47-2.91v-35.64c0-5.16,4.23-9.39,9.39-9.39,4.16,0,7.71,2.74,8.93,6.5h0c.3.92.46,1.89.46,2.89Z"/>
          <path class="cls-3" d="M52.99,247.47c-4.28,0-8.06-2.74-9.4-6.82-.33-.97-.5-2.01-.5-3.07v-35.64c0-5.45,4.44-9.89,9.89-9.89,4.3,0,8.08,2.75,9.41,6.85l.02.08c.31.95.46,1.95.46,2.96v35.64c0,5.45-4.44,9.89-9.89,9.89ZM52.99,193.05c-4.9,0-8.89,3.99-8.89,8.89v35.64c0,.95.15,1.88.44,2.75,1.21,3.67,4.6,6.14,8.45,6.14,4.9,0,8.89-3.99,8.89-8.89v-35.64c0-.93-.15-1.85-.43-2.72l-.03-.09c-1.22-3.64-4.59-6.08-8.43-6.08Z"/>
        </g>
        <path class="cls-4" d="M62.38,201.94v35.64c0,5.16-4.22,9.39-9.39,9.39-4.14,0-7.69-2.73-8.92-6.48,2.09.48,4.47.73,6.83-.44,3.9-1.93,5.26-6.51,6.92-12.39,2.26-8.04,1.03-10.8,2.61-20.61.27-1.68.79-4.9,1.49-7.99.3.91.46,1.88.46,2.88Z"/>
        <path class="cls-2" d="M46.53,199.06c.08-.43.21-1.09.64-1.81.06-.11,1.47-2.4,3.72-2.4.18,0,1.71,0,2.1.9.34.79-.42,1.75-.49,1.83-.5.62-1.06.69-2.35,1.27-1.06.48-1.57.74-1.96,1.03-1,.76-1.26,1.45-1.54,1.35-.38-.13-.25-1.47-.12-2.17Z"/>
        <path class="cls-2" d="M45.96,202.58c-.33-.03-.93,2.01-1.06,2.61-.31,1.47-.65,3.09,0,3.49.21.13.52.12.72,0,.35-.21.31-.71.39-2.12.08-1.3.14-1.2.13-1.83,0-.09.14-2.12-.18-2.15Z"/>
      </g>
      <g>
        <g>
          <path class="cls-1" d="M52.6,195.58c-7.53,1.09-14.72-3.07-19.44-10.27-2.78-4.23-4.72-9.53-5.35-15.42-1.73-15.92,6.56-30.2,18.51-31.92,7.75-1.11,15.13,3.33,19.84,10.93,2.57,4.13,4.33,9.18,4.95,14.77,1.74,15.9-6.56,30.2-18.51,31.9Z"/>
          <path class="cls-3" d="M50.22,196.26c-6.62,0-13.01-3.86-17.47-10.67-2.93-4.46-4.81-9.87-5.43-15.63-1.75-16.15,6.75-30.71,18.94-32.47,7.72-1.11,15.32,3.06,20.33,11.16,2.68,4.3,4.42,9.48,5.02,14.98,1.76,16.15-6.73,30.71-18.94,32.45h0c-.82.12-1.64.18-2.45.18ZM48.7,138.3c-.77,0-1.54.05-2.31.17-11.66,1.68-19.78,15.75-18.08,31.37.61,5.61,2.43,10.86,5.27,15.19,4.79,7.32,11.87,11.08,18.95,10.05h0c11.68-1.67,19.79-15.73,18.08-31.35-.59-5.36-2.28-10.39-4.88-14.56-4.29-6.93-10.53-10.87-17.03-10.87Z"/>
        </g>
        <path class="cls-4" d="M52.6,195.58c-7.53,1.09-14.72-3.07-19.44-10.27,3.26.29,10.18,3.88,17.64,1.31,7.88-2.72,12.03-10.86,12.87-12.53,4.52-8.85,3.63-18.51,2.49-25.17,2.57,4.13,4.33,9.18,4.95,14.77,1.74,15.9-6.56,30.2-18.51,31.9Z"/>
        <path class="cls-2" d="M38.22,144.85c-.38-.51.51-2.25,1.78-3.22,1.19-.9,2.91-1.29,3.29-.7.32.5-.42,1.61-.61,1.88-.77,1.15-1.86,1.56-2.53,1.81-.75.27-1.65.6-1.93.23Z"/>
        <path class="cls-2" d="M36.04,146.75c-.4-.22-1.3.91-2.9,2.94-1.39,1.77-1.61,2.31-1.47,2.8.15.51.68.9,1.18.9.67,0,1.13-.73,2.04-2.18.53-.85.89-1.44,1.11-2.34.07-.27.46-1.88.03-2.12Z"/>
      </g>
      <g>
        <g>
          <path class="cls-1" d="M48.51,139.71c-7.58.67-14.52-3.89-18.83-11.34-2.54-4.38-4.18-9.78-4.48-15.69-.83-15.99,8.23-29.78,20.26-30.84,7.8-.68,14.92,4.16,19.2,12.02,2.34,4.26,3.82,9.41,4.12,15.03.85,15.97-8.23,29.78-20.26,30.82Z"/>
          <path class="cls-3" d="M47.05,140.28c-6.96,0-13.53-4.27-17.8-11.66-2.68-4.62-4.25-10.12-4.55-15.91-.85-16.22,8.45-30.29,20.72-31.36,7.78-.68,15.13,3.91,19.68,12.28,2.43,4.44,3.88,9.71,4.18,15.24.86,16.23-8.43,30.29-20.72,31.35-.5.04-1,.07-1.5.07ZM46.92,82.28c-.47,0-.94.02-1.42.06-11.74,1.03-20.62,14.62-19.8,30.31.29,5.64,1.82,10.98,4.42,15.47,4.38,7.58,11.24,11.73,18.36,11.1h0c11.75-1.01,20.64-14.6,19.8-30.3-.29-5.38-1.69-10.5-4.06-14.81-4.08-7.49-10.46-11.82-17.3-11.82Z"/>
        </g>
        <path class="cls-4" d="M48.51,139.71c-7.58.67-14.52-3.89-18.83-11.34,3.23.47,9.95,4.45,17.54,2.29,8.02-2.28,12.61-10.17,13.55-11.8,5.01-8.58,4.66-18.28,3.89-25,2.34,4.26,3.82,9.41,4.12,15.03.85,15.97-8.23,29.78-20.26,30.82Z"/>
        <path class="cls-2" d="M36.99,88.26c-.35-.53.63-2.22,1.96-3.11,1.24-.83,2.98-1.13,3.32-.52.29.52-.51,1.58-.71,1.85-.84,1.1-1.94,1.46-2.63,1.66-.77.23-1.68.51-1.94.12Z"/>
        <path class="cls-2" d="M34.7,90.03c-.39-.24-1.34.84-3.06,2.77-1.49,1.69-1.74,2.22-1.62,2.71.12.52.63.94,1.13.96.67.03,1.16-.67,2.16-2.07.58-.82.97-1.39,1.24-2.27.08-.27.56-1.85.15-2.11Z"/>
      </g>
      <g>
        <path class="cls-3" d="M82.76,41.42c-.25.53-.47,1.07-.65,1.61-1.37,4.02-.42,8.09-2.9,11.43-3.1,4.18-9.29,5.39-13.73,8.13-6.22,3.84-11.23,8.41-19.08,8.41-4.69,0-9.19-.79-13.39-2.24-5.88-2.05-10.37-8.12-14.68-12.43-3.42-3.42-7.01-4.72-9.05-9.18-.5-1.09-1.07-2.18-1.65-3.26-.47-.87-.95-1.73-1.41-2.61C1.96,36.25.32,30,.52,26.59c.22-3.59,1.37-6.26,1.37-6.26.73-1.68,1.17-1.79,1.96-3.76,1.01-2.53.86-3.56,1.76-5.83.27-.69,1.15-2.77,2.93-4.89,1.12-1.33,2.85-3.38,5.87-4.5,1.23-.45,4.27-1.57,7.63-.19.4.16,3.84,1.63,5.09,5.08.67,1.84.25,2.94,0,6.66-.25,3.8-.4,6.1,0,8.02.43,2.01,1.41,3.33,2.6,4.42,4.75,3.03,10.24,8.1,15.4,8.1,3.04,0,6.15-1.91,9.18-4.1,2.75-2.76,6.67-3.79,7.65-8.42.4-1.92.25-4.22,0-8.02-.25-3.72-.67-4.82,0-6.66,1.25-3.45,4.68-4.92,5.08-5.08,3.37-1.38,6.41-.26,7.64.19.83.31,1.56.68,2.2,1.09,1.72,1.1,2.85,2.44,3.66,3.41,1.79,2.12,2.66,4.2,2.94,4.89.9,2.27.75,3.3,1.76,5.83.79,1.97,1.23,2.08,1.96,3.76,0,0,1.15,2.67,1.37,6.26.2,3.44-1.46,9.77-5.81,14.83Z"/>
        <path class="cls-6" d="M46.4,71.5c-4.64,0-9.2-.76-13.55-2.27-4.7-1.64-8.57-5.82-11.99-9.51-1-1.08-1.94-2.09-2.88-3.04-1.14-1.14-2.31-2.05-3.44-2.92-2.22-1.72-4.32-3.35-5.71-6.4-.51-1.11-1.09-2.21-1.64-3.23l-.47-.86c-.31-.56-.62-1.13-.92-1.7C1.71,36.71-.21,30.35.02,26.56c.22-3.64,1.36-6.32,1.41-6.43.35-.81.64-1.27.92-1.72.32-.52.62-1,1.04-2.03.51-1.27.71-2.16.92-3.02.19-.82.39-1.67.84-2.81.39-1,1.31-3,3.01-5.03,1.1-1.3,2.93-3.48,6.08-4.65,1.23-.45,4.46-1.63,7.99-.18.4.16,4.04,1.7,5.37,5.37.53,1.45.43,2.49.24,4.38-.07.68-.15,1.49-.21,2.48-.25,3.76-.4,6.03,0,7.89.35,1.64,1.11,2.92,2.45,4.15,1.07.68,2.23,1.5,3.46,2.38,3.85,2.75,7.83,5.59,11.6,5.59,2.94,0,6.01-1.92,8.89-4,.82-.83,1.82-1.54,2.78-2.23,2.08-1.48,4.04-2.88,4.67-5.89.39-1.86.24-4.12,0-7.88-.07-.99-.15-1.8-.21-2.48-.19-1.89-.29-2.93.24-4.38,1.33-3.67,4.96-5.21,5.36-5.37,3.54-1.45,6.77-.26,7.99.18.84.32,1.62.7,2.31,1.14,1.81,1.16,2.99,2.57,3.77,3.51,1.25,1.48,2.27,3.17,3.02,5.02.45,1.14.65,1.99.84,2.81.2.86.41,1.75.92,3.02.41,1.02.71,1.51,1.03,2.03.28.45.57.91.92,1.72.05.11,1.19,2.79,1.41,6.43.22,3.84-1.73,10.27-5.89,15.13-.24.5-.44,1.01-.6,1.49-.53,1.55-.71,3.14-.87,4.68-.27,2.46-.53,4.78-2.1,6.89-2.1,2.84-5.55,4.34-8.88,5.8-1.71.75-3.48,1.52-4.99,2.46-1.19.73-2.35,1.5-3.46,2.25-4.83,3.21-9.38,6.24-15.88,6.24ZM18.63.99c-1.79,0-3.25.54-4.04.82-2.91,1.08-4.57,3.05-5.67,4.36-1.67,1.99-2.55,3.98-2.85,4.75-.42,1.07-.61,1.85-.8,2.67-.21.9-.43,1.82-.96,3.16-.44,1.11-.79,1.65-1.12,2.18-.27.44-.53.85-.85,1.59-.01.02-1.12,2.64-1.33,6.09-.21,3.6,1.64,9.68,5.58,14.34l.06.09c.3.58.62,1.16.93,1.73l.47.87c.56,1.04,1.14,2.15,1.66,3.29,1.29,2.83,3.21,4.31,5.42,6.03,1.15.89,2.34,1.82,3.53,3.01.96.96,1.91,1.98,2.91,3.07,3.5,3.78,7.12,7.69,11.58,9.24,4.25,1.47,8.7,2.21,13.23,2.21,6.19,0,10.63-2.95,15.32-6.07,1.13-.75,2.29-1.52,3.49-2.27,1.57-.97,3.37-1.76,5.11-2.52,3.21-1.41,6.53-2.86,8.48-5.48,1.41-1.9,1.65-4.09,1.91-6.41.18-1.59.36-3.23.92-4.89.18-.54.41-1.1.67-1.66l.07-.11c4.49-5.22,5.86-11.52,5.69-14.47-.21-3.46-1.32-6.07-1.33-6.09-.32-.74-.58-1.15-.85-1.59-.33-.53-.67-1.08-1.11-2.18-.54-1.34-.75-2.27-.96-3.17-.19-.82-.38-1.6-.8-2.67-.71-1.75-1.67-3.35-2.86-4.75-.75-.89-1.87-2.24-3.55-3.31-.63-.41-1.34-.76-2.11-1.04-1.23-.45-4.09-1.5-7.28-.19-.37.15-3.62,1.52-4.8,4.79-.45,1.24-.37,2.09-.19,3.95.07.69.15,1.51.21,2.51.25,3.84.41,6.17,0,8.16-.72,3.38-2.93,4.97-5.07,6.5-.93.66-1.89,1.35-2.71,2.17-3.08,2.23-6.31,4.25-9.54,4.25-4.09,0-8.21-2.94-12.18-5.78-1.22-.87-2.36-1.69-3.48-2.4-1.57-1.43-2.42-2.88-2.82-4.74-.42-2-.26-4.32,0-8.16.07-1,.15-1.82.21-2.51.18-1.86.27-2.71-.19-3.95-1.18-3.26-4.44-4.64-4.8-4.79-1.14-.47-2.23-.63-3.23-.63Z"/>
      </g>
      <path class="cls-5" d="M82.76,41.42c-.25.53-.47,1.07-.65,1.61-1.37,4.02-.42,8.09-2.9,11.43-3.1,4.18-9.29,5.39-13.73,8.13-6.22,3.84-11.23,8.41-19.08,8.41-4.69,0-9.19-.79-13.39-2.24-5.88-2.05-10.37-8.12-14.68-12.43-3.42-3.42-7.01-4.72-9.05-9.18-.5-1.09-1.07-2.18-1.65-3.26,1.22.69,2.76,1.46,4.75,2.26,3.38,1.37,4.95,1.56,7.63,3.33,3.01,2,2.53,2.76,5.12,4.5,3.68,2.47,7.53,2.89,11.66,3.33,2.79.3,4.93.52,7.75,0,4.13-.77,4.37-2.15,8.53-3.13,5.06-1.19,5.68.61,9.4-.79,4.87-1.83,7.44-6.31,7.63-6.65,1.56-2.82.76-3.77,2.34-5.48,2.4-2.58,5.01-1.22,7.63-3.52,2.05-1.79,2.43-4.35,2.94-7.82.65-4.43-.08-8.07-.78-11.55-.44-2.16-1.15-4.86-1.57-6.45-.26-1-.82-3.14-1.17-4.24-.67-2.11-1.63-3.84-2.61-5.24,1.72,1.1,2.85,2.44,3.66,3.41,1.79,2.12,2.66,4.2,2.94,4.89.9,2.27.75,3.3,1.76,5.83.79,1.97,1.23,2.08,1.96,3.76,0,0,1.15,2.67,1.37,6.26.2,3.44-1.46,9.77-5.81,14.83Z"/>
      <g>
        <path class="cls-1" d="M68.38,89.96l-12.27-6.7c-6.07-3.32-12.76-3.32-18.84,0l-12.27,6.7c-3.06,1.67-6.33-1.62-6.33-6.39h0c0-2.84,1.21-5.39,3.04-6.39l15.56-8.49c6.07-3.32,12.76-3.32,18.84,0l15.56,8.49c1.83,1,3.04,3.55,3.04,6.39h0c0,4.76-3.27,8.06-6.33,6.39Z"/>
        <path class="cls-3" d="M70.03,91.29c-.7,0-1.4-.18-2.08-.55l-12.27-6.7c-5.8-3.17-12.19-3.17-17.99,0l-12.27,6.7c-1.4.76-2.92.73-4.28-.08-2.04-1.21-3.36-4-3.36-7.09s1.38-6.01,3.5-7.17l15.56-8.5c6.35-3.46,13.34-3.46,19.69,0l15.56,8.5c2.13,1.16,3.5,3.98,3.5,7.17s-1.32,5.88-3.36,7.09c-.71.42-1.45.63-2.2.63ZM46.69,79.88c3.34,0,6.67.87,9.84,2.6l12.27,6.7c1.05.58,1.96.29,2.53-.05,1.51-.9,2.49-3.08,2.49-5.56s-1.04-4.77-2.58-5.61l-15.56-8.5c-5.8-3.17-12.19-3.17-17.99,0l-15.56,8.5c-1.54.84-2.58,3.1-2.58,5.61s.98,4.67,2.49,5.56c.57.34,1.47.62,2.53.05l12.27-6.7c3.17-1.73,6.51-2.6,9.84-2.6Z"/>
      </g>
      <path class="cls-4" d="M8.36,11.62c.99-1.85,2.28-4.28,4.89-6.26,2.12-1.61,3.46-1.68,4.01-1.66.47.01,1.43.03,1.96.68.75.92.3,2.68-.59,3.72-.94,1.11-1.71.6-3.23,1.86-.62.51-.66.74-2.25,2.74,0,0-.76.94-1.76,2.15-2.18,2.62-2.66,3.02-3.29,3-.59-.02-1.16-.41-1.4-.88-.23-.44-.17-.96.62-2.93.49-1.22.74-1.83,1.04-2.41Z"/>
      <path class="cls-4" d="M4.74,20.18c-.76.3-1.2,1.06-1.57,2.05-1.2,3.23-.74,6.25-.68,6.55.32,1.92.58,3.5,1.86,4.16.84.43,2.1.45,2.89-.24.82-.73.75-1.93.73-2.3-.06-1.06-.53-1.17-1.08-2.98-.19-.61-.39-1.29-.44-2.2-.07-1.19.13-2.2.13-2.2.21-1.07.52-1.5.26-2.1-.03-.07-.22-.5-.68-.73-.62-.32-1.27-.06-1.42,0Z"/>
    </g>
  </g>
</svg>