<?xml version="1.0" encoding="UTF-8"?>
<svg id="Capa_2" data-name="Capa 2" xmlns="http://www.w3.org/2000/svg" viewBox="0 0 94.64 425.3">
  <defs>
    <style>
      .cls-1 {
        fill: #bf3441;
      }

      .cls-2 {
        fill: #e55e6c;
      }

      .cls-3 {
        fill: #d6404a;
      }

      .cls-4 {
        fill: #b22f3f;
      }
    </style>
  </defs>
  <g id="Capa_1-2" data-name="Capa 1">
    <g>
      <g>
        <g>
          <path class="cls-3" d="M42.71,333.95c-7.39,1.81-14.95-1.63-20.34-8.34-3.18-3.94-5.62-9.03-6.82-14.82-3.26-15.68,3.6-30.69,15.33-33.56,7.61-1.86,15.38,1.84,20.8,8.96,2.96,3.86,5.2,8.72,6.36,14.23,3.27,15.66-3.6,30.69-15.33,33.55Z"/>
          <path class="cls-4" d="M38.75,334.93c-6.05,0-12.1-3.19-16.77-9.01-3.35-4.16-5.74-9.36-6.92-15.04-3.31-15.9,3.74-31.22,15.7-34.15,7.58-1.85,15.55,1.56,21.32,9.14,3.08,4.02,5.31,9.01,6.45,14.43,3.32,15.91-3.72,31.22-15.71,34.13-1.35.33-2.71.49-4.08.49ZM34.85,277.24c-1.29,0-2.57.15-3.85.46-11.45,2.8-18.16,17.59-14.96,32.97,1.15,5.53,3.47,10.58,6.72,14.61,5.48,6.82,12.9,9.87,19.83,8.17h0c11.46-2.79,18.17-17.57,14.96-32.96-1.11-5.27-3.27-10.12-6.26-14.02-4.54-5.96-10.48-9.24-16.44-9.24Z"/>
        </g>
        <path class="cls-1" d="M42.71,333.95c-7.39,1.81-14.95-1.63-20.34-8.34,3.27-.02,10.51,2.88,17.68-.41,7.58-3.47,10.92-11.98,11.59-13.72,3.64-9.24,1.82-18.78.04-25.3,2.96,3.86,5.2,8.72,6.36,14.23,3.27,15.66-3.6,30.69-15.33,33.55Z"/>
        <path class="cls-2" d="M23.49,284.85c-.43-.47.29-2.29,1.46-3.38,1.09-1.01,2.77-1.57,3.2-1.02.37.47-.26,1.64-.42,1.93-.66,1.22-1.7,1.73-2.35,2.04-.72.35-1.59.76-1.9.42Z"/>
        <path class="cls-2" d="M21.5,286.95c-.42-.18-1.2,1.03-2.6,3.21-1.22,1.9-1.38,2.46-1.19,2.93.2.49.77.83,1.26.78.67-.07,1.05-.84,1.82-2.37.45-.9.75-1.52.88-2.43.04-.28.27-1.92-.17-2.11Z"/>
      </g>
      <g>
        <g>
          <path class="cls-3" d="M30.14,278.51c-7.48,1.4-14.83-2.46-19.84-9.46-2.95-4.12-5.11-9.32-5.98-15.18-2.38-15.83,5.3-30.44,17.17-32.66,7.7-1.43,15.26,2.7,20.27,10.1,2.74,4.02,4.71,9,5.56,14.56,2.39,15.82-5.3,30.44-17.18,32.64Z"/>
          <path class="cls-4" d="M27.09,279.29c-6.37,0-12.62-3.57-17.2-9.96-3.11-4.34-5.21-9.66-6.07-15.4-2.42-16.06,5.47-30.96,17.58-33.22,7.67-1.43,15.44,2.43,20.78,10.31,2.85,4.18,4.8,9.29,5.64,14.76,2.43,16.07-5.46,30.96-17.58,33.21-1.05.2-2.1.29-3.14.29ZM24.55,221.43c-.99,0-1.98.09-2.97.27-11.58,2.16-19.11,16.56-16.77,32.09.84,5.58,2.88,10.75,5.9,14.96,5.09,7.12,12.33,10.58,19.35,9.26h0c11.6-2.15,19.12-16.54,16.77-32.08-.81-5.33-2.71-10.29-5.48-14.35-4.42-6.52-10.53-10.17-16.8-10.17Z"/>
        </g>
        <path class="cls-1" d="M30.14,278.51c-7.48,1.4-14.83-2.46-19.84-9.46,3.27.16,10.34,3.46,17.68.57,7.76-3.05,11.57-11.35,12.34-13.06,4.15-9.03,2.86-18.65,1.45-25.26,2.74,4.02,4.71,9,5.56,14.56,2.39,15.82-5.3,30.44-17.18,32.64Z"/>
        <path class="cls-2" d="M13.68,228.42c-.4-.5.41-2.27,1.65-3.29,1.15-.95,2.86-1.41,3.26-.84.34.49-.35,1.62-.53,1.91-.72,1.18-1.79,1.64-2.46,1.91-.74.3-1.63.67-1.92.31Z"/>
        <path class="cls-2" d="M11.58,230.4c-.41-.2-1.26.96-2.77,3.06-1.32,1.82-1.51,2.38-1.35,2.86.17.5.72.87,1.22.85.67-.03,1.09-.78,1.94-2.27.5-.87.83-1.47,1.02-2.38.05-.27.38-1.9-.06-2.12Z"/>
      </g>
      <g>
        <g>
          <path class="cls-3" d="M21.91,222.96c-7.6.15-14.22-4.87-18.01-12.61-2.23-4.55-3.5-10.04-3.4-15.96.26-16.01,10.25-29.15,22.33-29.37,7.83-.14,14.6,5.18,18.33,13.31,2.04,4.42,3.16,9.65,3.08,15.27-.25,15.99-10.25,29.15-22.33,29.36Z"/>
          <path class="cls-4" d="M21.59,223.46c-7.41,0-14.17-4.8-18.13-12.89C1.1,205.78-.09,200.18,0,194.38c.27-16.24,10.51-29.64,22.82-29.86,7.77-.15,14.83,4.94,18.79,13.6,2.12,4.6,3.21,9.95,3.12,15.49-.25,16.25-10.49,29.64-22.82,29.85-.11,0-.22,0-.33,0ZM23.14,165.52c-.1,0-.2,0-.3,0-11.78.22-21.58,13.17-21.84,28.88-.09,5.64,1.06,11.08,3.34,15.73,3.85,7.86,10.43,12.48,17.55,12.33h0c11.79-.2,21.59-13.15,21.84-28.87.08-5.39-.97-10.59-3.03-15.06-3.74-8.18-10.29-13.02-17.57-13.02Z"/>
        </g>
        <path class="cls-1" d="M21.91,222.96c-7.6.15-14.22-4.87-18.01-12.61,3.19.69,9.62,5.12,17.34,3.49,8.16-1.72,13.28-9.28,14.33-10.84,5.59-8.22,5.9-17.92,5.6-24.67,2.04,4.42,3.16,9.65,3.08,15.27-.25,15.99-10.25,29.15-22.33,29.36Z"/>
        <path class="cls-2" d="M13.95,170.84c-.32-.56.78-2.17,2.17-2.97,1.29-.75,3.05-.92,3.35-.29.26.54-.62,1.54-.84,1.79-.91,1.04-2.04,1.32-2.74,1.48-.78.18-1.72.39-1.94-.01Z"/>
        <path class="cls-2" d="M11.54,172.45c-.37-.27-1.4.74-3.24,2.56-1.6,1.58-1.89,2.1-1.8,2.59.09.52.57.98,1.06,1.04.67.08,1.21-.58,2.29-1.91.63-.78,1.07-1.31,1.4-2.18.1-.26.69-1.81.29-2.1Z"/>
      </g>
      <g>
        <g>
          <path class="cls-3" d="M23.61,165.36c-7.6.15-14.22-4.87-18.01-12.61-2.23-4.55-3.5-10.04-3.4-15.96.26-16.01,10.25-29.15,22.33-29.37,7.83-.14,14.6,5.18,18.33,13.31,2.04,4.42,3.16,9.65,3.08,15.27-.25,15.99-10.25,29.15-22.33,29.36Z"/>
          <path class="cls-4" d="M23.29,165.86c-7.41,0-14.17-4.8-18.13-12.89-2.35-4.79-3.54-10.39-3.45-16.19.27-16.24,10.51-29.64,22.82-29.86,7.81-.12,14.82,4.94,18.79,13.6,2.12,4.59,3.21,9.95,3.12,15.49-.25,16.25-10.49,29.64-22.82,29.85-.11,0-.22,0-.33,0ZM24.84,107.91c-.1,0-.2,0-.3,0-11.78.22-21.58,13.17-21.84,28.88-.09,5.64,1.06,11.08,3.35,15.73,3.79,7.74,10.22,12.33,17.24,12.33.1,0,.21,0,.31,0h0c11.79-.2,21.59-13.15,21.84-28.87.08-5.39-.97-10.6-3.03-15.06-3.75-8.18-10.29-13.02-17.57-13.02Z"/>
        </g>
        <path class="cls-1" d="M23.61,165.36c-7.6.15-14.22-4.87-18.01-12.61,3.19.69,9.62,5.12,17.34,3.49,8.16-1.72,13.28-9.28,14.33-10.84,5.59-8.22,5.9-17.92,5.6-24.67,2.04,4.42,3.16,9.65,3.08,15.27-.25,15.99-10.25,29.15-22.33,29.36Z"/>
        <path class="cls-2" d="M15.65,113.23c-.32-.56.78-2.17,2.17-2.97,1.29-.75,3.05-.92,3.35-.29.26.54-.62,1.54-.84,1.79-.91,1.04-2.04,1.32-2.74,1.48-.78.18-1.72.39-1.94-.01Z"/>
        <path class="cls-2" d="M13.24,114.84c-.37-.27-1.4.74-3.24,2.56-1.6,1.58-1.89,2.1-1.8,2.59.09.52.57.98,1.06,1.04.67.08,1.21-.58,2.29-1.91.63-.78,1.07-1.31,1.4-2.18.1-.26.69-1.81.29-2.1Z"/>
      </g>
      <g>
        <g>
          <path class="cls-3" d="M26.93,109.02c-7.58-.6-13.67-6.25-16.68-14.32-1.77-4.74-2.49-10.33-1.8-16.22,1.84-15.9,13.08-28,25.12-27.03,7.8.63,14.02,6.59,16.92,15.05,1.6,4.6,2.19,9.91,1.56,15.5-1.83,15.89-13.08,28-25.12,27.01Z"/>
          <path class="cls-4" d="M28.29,109.58c-.47,0-.94-.02-1.41-.06h0c-7.52-.6-13.91-6.07-17.11-14.65-1.87-5-2.5-10.69-1.83-16.45,1.87-16.13,13.37-28.46,25.66-27.47,7.78.63,14.26,6.38,17.36,15.39,1.66,4.78,2.21,10.22,1.58,15.72-1.79,15.53-12.5,27.51-24.25,27.51ZM32.21,51.9c-11.25,0-21.53,11.61-23.27,26.64-.65,5.6-.04,11.13,1.78,15.99,3.05,8.2,9.13,13.43,16.25,14h0c.44.04.89.05,1.33.05,11.25,0,21.52-11.6,23.25-26.62.61-5.35.08-10.64-1.53-15.28-2.96-8.62-9.13-14.12-16.49-14.72-.44-.04-.88-.05-1.31-.05Z"/>
        </g>
        <path class="cls-1" d="M26.93,109.02c-7.58-.6-13.67-6.25-16.68-14.32,3.11,1.01,9.07,6.04,16.91,5.18,8.29-.91,14.13-7.93,15.32-9.37,6.37-7.63,7.64-17.25,8-24,1.6,4.6,2.19,9.91,1.56,15.5-1.83,15.89-13.08,28-25.12,27.01Z"/>
        <path class="cls-2" d="M24.14,56.37c-.26-.59.99-2.08,2.45-2.74,1.36-.62,3.13-.62,3.36.04.2.56-.77,1.47-1.01,1.7-1.01.95-2.16,1.11-2.87,1.2-.79.1-1.75.22-1.93-.2Z"/>
        <path class="cls-2" d="M21.59,57.73c-.34-.31-1.47.6-3.48,2.23-1.75,1.42-2.08,1.9-2.05,2.4.03.53.47,1.03.95,1.14.65.14,1.26-.46,2.47-1.68.71-.71,1.19-1.2,1.6-2.03.12-.25.86-1.73.5-2.06Z"/>
      </g>
      <g>
        <g>
          <path class="cls-3" d="M37.13,55.05c-7.11-2.69-11.39-9.81-12.03-18.4-.38-5.05.49-10.62,2.78-16.08C34.07,5.81,48.23-2.68,59.52,1.6c7.32,2.78,11.63,10.24,12.07,19.17.25,4.86-.65,10.13-2.82,15.32-6.18,14.76-20.35,23.25-31.64,18.96Z"/>
          <path class="cls-4" d="M43.27,56.66c-2.16,0-4.28-.37-6.31-1.14h0c-7.06-2.67-11.68-9.71-12.36-18.83-.4-5.32.57-10.96,2.82-16.31C33.7,5.4,48.18-3.23,59.7,1.13c7.29,2.77,11.93,10.1,12.39,19.61.26,5.06-.72,10.43-2.86,15.54-5.17,12.34-15.9,20.37-25.96,20.37ZM53.39,1c-9.67,0-20.03,7.8-25.05,19.77-2.18,5.2-3.13,10.68-2.74,15.85.65,8.73,5.03,15.44,11.71,17.97h0c11.02,4.19,24.93-4.19,31-18.68,2.08-4.97,3.04-10.2,2.78-15.11-.45-9.1-4.84-16.1-11.75-18.73-1.92-.73-3.92-1.07-5.96-1.07Z"/>
        </g>
        <path class="cls-1" d="M37.13,55.05c-7.11-2.69-11.39-9.81-12.03-18.4,2.71,1.83,7.03,8.33,14.8,9.68,8.21,1.43,15.78-3.68,17.33-4.74,8.24-5.55,12.14-14.44,14.37-20.82.25,4.86-.65,10.13-2.82,15.32-6.18,14.76-20.35,23.25-31.64,18.96Z"/>
        <path class="cls-2" d="M49.11,3.7c-.09-.63,1.53-1.72,3.12-1.95,1.48-.21,3.17.28,3.22.98.04.6-1.15,1.2-1.44,1.35-1.23.63-2.38.47-3.09.36-.79-.12-1.74-.27-1.8-.73Z"/>
        <path class="cls-2" d="M46.28,4.3c-.25-.39-1.57.17-3.96,1.17-2.08.87-2.53,1.25-2.64,1.74-.12.52.16,1.12.6,1.36.59.32,1.34-.09,2.84-.92.88-.49,1.48-.82,2.11-1.51.19-.21,1.31-1.43,1.05-1.84Z"/>
      </g>
      <path class="cls-4" d="M41.01,425.3h0c-1.1,0-2-.91-1.99-2.01l.02-4.25-1.25-1.63c-.87-1.13-.88-2.71-.03-3.85l.74-1-.92-1.03c-1.12-1.26-1.07-3.18.12-4.37l.64-.65-.54-.6c-1.09-1.2-1.11-3.02-.04-4.24l.72-.83-.74-.87c-1.05-1.23-1.02-3.05.08-4.25l.61-.66-.61-.66c-1.11-1.22-1.1-3.12.03-4.33l.61-.65-.69-.77c-1.08-1.22-1.08-3.05.01-4.26l1.92-2.14c.74-.82,2-.88,2.83-.15.82.74.89,2,.15,2.83l-1.44,1.6.7.78c1.11,1.24,1.08,3.09-.06,4.31l-.6.64.6.66c1.12,1.24,1.12,3.09-.02,4.32l-.63.68.73.85c1.02,1.19,1.02,2.99-.02,4.17l-.71.82.57.63c1.14,1.26,1.1,3.19-.1,4.39l-.65.65.85.95c1,1.13,1.08,2.82.18,4.03l-.77,1.04,1.05,1.36c.43.56.67,1.26.66,1.97l-.02,4.53c0,1.1-.9,1.99-2,1.99ZM39.03,418.76h0s0,0,0,0ZM40.77,404.3h0s0,0,0,0Z"/>
      <path class="cls-4" d="M52.97,425.3h0c-1.1,0-2-.91-1.99-2.01l.02-4.25-1.25-1.63c-.87-1.13-.88-2.71-.03-3.85l.74-1-.92-1.03c-1.12-1.26-1.07-3.18.12-4.37l.64-.65-.54-.6c-1.09-1.2-1.1-3.02-.04-4.24l.73-.83-.74-.87c-1.05-1.23-1.02-3.06.08-4.25l.61-.66-.61-.67c-1.11-1.22-1.1-3.12.03-4.33l.61-.65-.69-.77c-1.08-1.22-1.08-3.05.01-4.26l1.92-2.14c.74-.82,2-.88,2.83-.15.82.74.89,2,.15,2.83l-1.44,1.6.7.78c1.11,1.24,1.08,3.09-.06,4.31l-.6.64.6.66c1.13,1.24,1.12,3.09-.02,4.32l-.63.68.73.85c1.02,1.19,1.02,2.99-.02,4.17l-.71.82.57.63c1.14,1.26,1.1,3.19-.1,4.39l-.65.65.85.95c1,1.12,1.08,2.82.18,4.03l-.77,1.04,1.05,1.36c.43.56.67,1.25.66,1.96l-.02,4.53c0,1.1-.9,1.99-2,1.99Z"/>
      <g>
        <path class="cls-3" d="M72.95,329.52h-29.4c-2.58,0-4.99,1.26-6.46,3.37l-13.34,19.16c-1.88,2.7-1.88,6.29,0,8.99l13.34,19.16c1.47,2.11,3.88,3.37,6.46,3.37h29.4c2.58,0,4.99-1.26,6.46-3.37l13.34-19.16c1.88-2.7,1.88-6.29,0-8.99l-13.34-19.16c-1.47-2.11-3.88-3.37-6.46-3.37Z"/>
        <path class="cls-4" d="M72.95,384.08h-29.4c-2.74,0-5.3-1.34-6.87-3.59l-13.33-19.16c-1.99-2.86-1.99-6.7,0-9.56l13.33-19.16c1.56-2.25,4.13-3.59,6.87-3.59h29.4c2.74,0,5.3,1.34,6.87,3.59l13.34,19.16c1.99,2.86,1.99,6.7,0,9.56l-13.34,19.16c-1.56,2.25-4.13,3.59-6.87,3.59ZM43.55,330.02c-2.41,0-4.67,1.18-6.05,3.16l-13.33,19.16c-1.75,2.52-1.75,5.9,0,8.42l13.33,19.16c1.38,1.98,3.64,3.16,6.05,3.16h29.4c2.41,0,4.67-1.18,6.05-3.16l13.34-19.16c1.75-2.52,1.75-5.9,0-8.42l-13.34-19.16c-1.38-1.98-3.64-3.16-6.05-3.16h-29.4Z"/>
      </g>
    </g>
  </g>
</svg>