<?xml version="1.0" encoding="UTF-8"?>
<svg id="Capa_2" data-name="Capa 2" xmlns="http://www.w3.org/2000/svg" viewBox="0 0 89.08 511.21">
  <defs>
    <style>
      .cls-1 {
        fill: #bf3441;
      }

      .cls-2 {
        fill: #e55e6c;
      }

      .cls-3 {
        fill: #d6404a;
      }

      .cls-4 {
        fill: #b22f3f;
      }

      .cls-5 {
        fill: #9e2539;
      }

      .cls-6 {
        fill: #a5071b;
      }
    </style>
  </defs>
  <g id="Capa_1-2" data-name="Capa 1">
    <g>
      <g>
        <path class="cls-4" d="M82.76,41.42c-.25.53-.47,1.07-.65,1.61-1.37,4.02-.42,8.09-2.9,11.43-3.1,4.18-9.29,5.39-13.73,8.13-6.22,3.84-11.23,8.41-19.08,8.41-4.69,0-9.19-.79-13.39-2.24-5.88-2.05-10.37-8.12-14.68-12.43-3.42-3.42-7.01-4.72-9.05-9.18-.5-1.09-1.07-2.18-1.65-3.26-.47-.87-.95-1.73-1.41-2.61C1.96,36.25.32,30,.52,26.59c.22-3.59,1.37-6.26,1.37-6.26.73-1.68,1.17-1.79,1.96-3.76,1.01-2.53.86-3.56,1.76-5.83.27-.69,1.15-2.77,2.93-4.89,1.12-1.33,2.85-3.38,5.87-4.5,1.23-.45,4.27-1.57,7.63-.19.4.16,3.84,1.63,5.09,5.08.67,1.84.25,2.94,0,6.66-.25,3.8-.4,6.1,0,8.02.43,2.01,1.41,3.33,2.6,4.42,4.75,3.03,10.24,8.1,15.4,8.1,3.04,0,6.15-1.91,9.18-4.1,2.75-2.76,6.67-3.79,7.65-8.42.4-1.92.25-4.22,0-8.02-.25-3.72-.67-4.82,0-6.66,1.25-3.45,4.68-4.92,5.08-5.08,3.37-1.38,6.41-.26,7.64.19.83.31,1.56.68,2.2,1.09,1.72,1.1,2.85,2.44,3.66,3.41,1.79,2.12,2.66,4.2,2.94,4.89.9,2.27.75,3.3,1.76,5.83.79,1.97,1.23,2.08,1.96,3.76,0,0,1.15,2.67,1.37,6.26.2,3.44-1.46,9.77-5.81,14.83Z"/>
        <path class="cls-6" d="M46.4,71.5c-4.63,0-9.2-.76-13.55-2.27-4.7-1.64-8.57-5.82-11.99-9.51-1-1.08-1.94-2.09-2.88-3.04-1.14-1.14-2.31-2.05-3.44-2.92-2.22-1.72-4.32-3.35-5.71-6.4-.51-1.11-1.09-2.21-1.64-3.23l-.48-.89c-.3-.56-.61-1.11-.9-1.68C1.71,36.71-.21,30.35.02,26.56c.22-3.64,1.36-6.32,1.41-6.43.35-.81.64-1.27.92-1.72.32-.52.62-1,1.04-2.03.51-1.27.72-2.16.92-3.02.19-.82.39-1.67.84-2.81.39-1,1.31-3,3.01-5.03,1.1-1.3,2.93-3.48,6.08-4.65,1.23-.45,4.46-1.63,7.99-.18.41.16,4.04,1.7,5.37,5.37.53,1.45.43,2.49.24,4.38-.07.68-.15,1.49-.21,2.48-.25,3.76-.4,6.02,0,7.88.35,1.64,1.11,2.92,2.45,4.15,1.07.68,2.23,1.5,3.46,2.38,3.85,2.75,7.83,5.59,11.6,5.59,2.94,0,6.01-1.92,8.89-4.01.82-.83,1.82-1.54,2.78-2.23,2.08-1.48,4.04-2.88,4.68-5.89.39-1.85.24-4.12,0-7.88-.07-.99-.15-1.8-.21-2.48-.19-1.89-.29-2.93.24-4.38,1.33-3.67,4.96-5.21,5.36-5.37,3.54-1.45,6.77-.27,7.99.18.84.31,1.61.7,2.31,1.14,1.81,1.16,2.99,2.57,3.77,3.51,1.25,1.48,2.27,3.17,3.02,5.02.45,1.14.65,1.99.84,2.81.2.86.41,1.75.92,3.02.41,1.02.71,1.51,1.04,2.03.28.45.57.91.92,1.72.05.11,1.19,2.79,1.41,6.43.22,3.85-1.73,10.27-5.89,15.13-.24.5-.44,1.01-.6,1.49-.53,1.55-.71,3.14-.87,4.68-.27,2.46-.53,4.78-2.1,6.89-2.1,2.84-5.55,4.34-8.88,5.8-1.71.75-3.48,1.52-4.99,2.45-1.19.73-2.34,1.5-3.46,2.25-4.83,3.21-9.39,6.24-15.88,6.24ZM18.62,1c-1.79,0-3.25.54-4.04.82-2.91,1.08-4.57,3.05-5.67,4.36-1.67,1.99-2.55,3.99-2.85,4.75-.42,1.07-.61,1.85-.8,2.67-.21.9-.43,1.83-.96,3.16-.44,1.11-.78,1.65-1.11,2.18-.27.44-.53.85-.85,1.59-.01.02-1.12,2.64-1.33,6.09-.21,3.6,1.64,9.68,5.58,14.34l.06.09c.3.58.61,1.14.92,1.71l.49.89c.56,1.04,1.14,2.15,1.66,3.29,1.29,2.83,3.21,4.31,5.42,6.03,1.15.89,2.34,1.82,3.53,3.01.96.96,1.91,1.98,2.91,3.06,3.5,3.78,7.12,7.69,11.58,9.25,4.25,1.47,8.7,2.21,13.23,2.21,6.19,0,10.63-2.95,15.33-6.07,1.13-.75,2.29-1.52,3.49-2.26,1.57-.97,3.37-1.76,5.11-2.52,3.21-1.41,6.53-2.86,8.48-5.48,1.41-1.9,1.65-4.09,1.91-6.41.18-1.59.36-3.23.92-4.89.18-.54.41-1.1.67-1.66l.07-.11c4.49-5.22,5.86-11.52,5.69-14.48-.21-3.45-1.32-6.06-1.33-6.09-.32-.74-.58-1.15-.85-1.59-.33-.53-.67-1.08-1.11-2.18-.54-1.34-.75-2.27-.96-3.17-.19-.82-.38-1.6-.8-2.67-.71-1.75-1.67-3.35-2.86-4.75-.74-.89-1.87-2.24-3.55-3.31-.64-.41-1.34-.76-2.11-1.04-1.23-.45-4.09-1.5-7.28-.2-.37.15-3.62,1.52-4.8,4.79-.45,1.24-.37,2.09-.19,3.95.07.69.15,1.5.21,2.51.25,3.85.41,6.17,0,8.16-.72,3.38-2.93,4.97-5.07,6.5-.93.66-1.89,1.35-2.71,2.18-3.07,2.23-6.31,4.25-9.53,4.25-4.09,0-8.21-2.94-12.18-5.78-1.22-.87-2.36-1.69-3.48-2.4-1.57-1.43-2.42-2.88-2.82-4.74-.42-2-.26-4.32,0-8.16.07-1.01.15-1.82.21-2.51.18-1.86.27-2.71-.19-3.95-1.18-3.26-4.44-4.64-4.81-4.79-1.13-.47-2.23-.63-3.23-.63Z"/>
      </g>
      <path class="cls-5" d="M82.76,41.42c-.25.53-.47,1.07-.65,1.61-1.37,4.02-.42,8.09-2.9,11.43-3.1,4.18-9.29,5.39-13.73,8.13-6.22,3.84-11.23,8.41-19.08,8.41-4.69,0-9.19-.79-13.39-2.24-5.88-2.05-10.37-8.12-14.68-12.43-3.42-3.42-7.01-4.72-9.05-9.18-.5-1.09-1.07-2.18-1.65-3.26,1.22.69,2.76,1.46,4.75,2.26,3.38,1.37,4.95,1.56,7.63,3.33,3.01,2,2.53,2.76,5.12,4.5,3.68,2.47,7.53,2.89,11.66,3.33,2.79.3,4.93.52,7.75,0,4.13-.77,4.37-2.15,8.53-3.13,5.06-1.19,5.68.61,9.4-.79,4.87-1.83,7.44-6.31,7.63-6.65,1.56-2.82.76-3.77,2.34-5.48,2.4-2.58,5.01-1.22,7.63-3.52,2.05-1.79,2.43-4.35,2.94-7.82.65-4.43-.08-8.07-.78-11.55-.44-2.16-1.15-4.86-1.57-6.45-.26-1-.82-3.14-1.17-4.24-.67-2.11-1.63-3.84-2.61-5.24,1.72,1.1,2.85,2.44,3.66,3.41,1.79,2.12,2.66,4.2,2.94,4.89.9,2.27.75,3.3,1.76,5.83.79,1.97,1.23,2.08,1.96,3.76,0,0,1.15,2.67,1.37,6.26.2,3.44-1.46,9.77-5.81,14.83Z"/>
      <path class="cls-3" d="M42.95,511.21c-.59,0-1.16-.3-1.47-.85-.47-.81-.19-1.85.62-2.32.72-.42,1.41-.84,1.94-1.4.29-.31.78-.95.87-1.82.09-.92-.27-2.1-.55-2.43-.06.04-.2.01-.45.05-.24.04-.48.09-.71.14-.82.16-1.67.33-2.59.34h-.04c-1.6,0-2.99-.53-4.02-1.54-1.8-1.76-2.04-4.78-.54-6.87.98-1.37,2.55-2.18,4.42-2.29.8-.05,1.54.02,2.26.09.44.04.88.09,1.32.09h.08c1.19,0,2.41-.31,3.52-.9.58-.31.91-.59,1.11-.93.31-.54.14-1.37-.21-1.79-.28-.33-.69-.53-1.23-.6-.37-.04-.8-.03-1.25-.01-.72.03-1.54.06-2.41-.14-1.33-.3-2.49-1.26-3.18-2.61-.83-1.64-.9-3.63-.17-5.33.65-1.52,1.88-2.69,3.75-3.56.25-.12.51-.23.77-.34.84-.37,1.57-.68,2.12-1.21,1.5-1.43,2.08-4.72,1.87-7.23-.08-.94.62-1.76,1.55-1.83.94-.07,1.76.62,1.83,1.55.25,3.07-.36,7.53-2.91,9.97-1,.95-2.12,1.44-3.12,1.87-.23.1-.46.2-.69.31-1.11.52-1.75,1.08-2.06,1.81-.33.78-.3,1.72.07,2.46.23.46.56.77.91.84.43.1.93.08,1.52.06.54-.02,1.15-.04,1.79.03,1.41.17,2.6.79,3.43,1.8,1.3,1.56,1.52,3.94.54,5.65-.69,1.21-1.74,1.86-2.46,2.25-1.64.87-3.45,1.34-5.24,1.29-.56,0-1.09-.06-1.61-.11-.62-.06-1.2-.11-1.73-.08-.85.05-1.48.35-1.86.88-.52.72-.45,1.88.15,2.46.39.38.95.57,1.67.57.6,0,1.25-.13,1.95-.27.26-.05.52-.1.78-.15.57-.1,1.74-.31,2.85.4,1.74,1.12,2.29,3.98,2.13,5.65-.13,1.38-.76,2.74-1.77,3.81-.84.9-1.8,1.49-2.72,2.02-.27.15-.56.23-.85.23Z"/>
      <g>
        <g>
          <path class="cls-3" d="M59.62,425.12v35.64c0,5.16-4.22,9.39-9.39,9.39-4.14,0-7.69-2.73-8.92-6.48-.31-.92-.47-1.89-.47-2.91v-35.64c0-5.16,4.23-9.39,9.39-9.39,4.16,0,7.71,2.74,8.93,6.5h0c.3.92.46,1.89.46,2.89Z"/>
          <path class="cls-4" d="M50.23,470.65c-4.28,0-8.06-2.74-9.39-6.82-.33-.97-.5-2.01-.5-3.07v-35.64c0-5.45,4.44-9.89,9.89-9.89,4.3,0,8.08,2.75,9.41,6.85l.02.09c.31.95.46,1.94.46,2.96v35.64c0,5.45-4.44,9.89-9.89,9.89ZM50.23,416.23c-4.9,0-8.89,3.99-8.89,8.89v35.64c0,.95.15,1.88.44,2.75,1.21,3.67,4.6,6.14,8.45,6.14,4.9,0,8.89-3.99,8.89-8.89v-35.64c0-.93-.15-1.85-.43-2.72l-.03-.09c-1.22-3.64-4.59-6.08-8.43-6.08Z"/>
        </g>
        <path class="cls-1" d="M59.62,425.12v35.64c0,5.16-4.22,9.39-9.39,9.39-4.14,0-7.69-2.73-8.92-6.48,2.09.48,4.47.73,6.83-.44,3.9-1.93,5.26-6.51,6.92-12.39,2.26-8.04,1.03-10.8,2.61-20.61.27-1.68.79-4.9,1.49-7.99.3.91.46,1.88.46,2.88Z"/>
        <path class="cls-2" d="M43.77,422.24c.08-.43.21-1.09.64-1.81.06-.11,1.47-2.4,3.72-2.4.18,0,1.71,0,2.1.9.34.79-.42,1.75-.49,1.83-.5.62-1.06.69-2.35,1.27-1.06.48-1.57.74-1.96,1.03-1,.76-1.26,1.45-1.54,1.35-.38-.13-.25-1.47-.12-2.17Z"/>
        <path class="cls-2" d="M43.2,425.76c-.33-.03-.93,2.01-1.06,2.61-.31,1.47-.65,3.09,0,3.49.21.13.52.12.72,0,.35-.21.31-.71.39-2.12.08-1.3.14-1.2.13-1.83,0-.09.14-2.12-.18-2.15Z"/>
      </g>
      <g>
        <g>
          <path class="cls-3" d="M49.84,418.77c-7.53,1.09-14.72-3.07-19.44-10.27-2.78-4.23-4.72-9.53-5.35-15.42-1.73-15.92,6.56-30.2,18.51-31.92,7.75-1.11,15.13,3.33,19.84,10.93,2.57,4.13,4.33,9.18,4.95,14.77,1.74,15.9-6.56,30.2-18.51,31.9Z"/>
          <path class="cls-4" d="M47.46,419.44c-6.62,0-13.01-3.86-17.48-10.67-2.93-4.46-4.81-9.87-5.43-15.63-1.75-16.15,6.75-30.71,18.94-32.47,7.72-1.11,15.32,3.06,20.33,11.16,2.68,4.3,4.42,9.48,5.02,14.98,1.76,16.15-6.73,30.71-18.94,32.45h0c-.82.12-1.63.18-2.45.18ZM45.94,361.49c-.77,0-1.54.05-2.31.17-11.66,1.68-19.78,15.75-18.08,31.37.61,5.61,2.43,10.86,5.27,15.19,4.79,7.32,11.87,11.08,18.95,10.05h0c11.68-1.67,19.79-15.73,18.08-31.35-.59-5.36-2.28-10.39-4.88-14.56-4.29-6.93-10.53-10.87-17.03-10.87Z"/>
        </g>
        <path class="cls-1" d="M49.84,418.77c-7.53,1.09-14.72-3.07-19.44-10.27,3.26.29,10.18,3.88,17.64,1.31,7.88-2.72,12.03-10.86,12.87-12.53,4.52-8.85,3.63-18.51,2.49-25.17,2.57,4.13,4.33,9.18,4.95,14.77,1.74,15.9-6.56,30.2-18.51,31.9Z"/>
        <path class="cls-2" d="M35.46,368.03c-.38-.51.51-2.25,1.78-3.22,1.19-.9,2.91-1.29,3.29-.7.32.5-.42,1.61-.61,1.88-.77,1.15-1.86,1.56-2.53,1.81-.75.27-1.65.6-1.93.23Z"/>
        <path class="cls-2" d="M33.28,369.93c-.4-.22-1.3.91-2.9,2.94-1.39,1.77-1.61,2.31-1.47,2.8.15.51.68.9,1.18.9.67,0,1.13-.73,2.04-2.18.53-.85.89-1.44,1.11-2.34.07-.27.46-1.88.03-2.12Z"/>
      </g>
      <g>
        <g>
          <path class="cls-3" d="M43.9,362.86c-7.56.82-14.6-3.59-19.06-10.95-2.63-4.33-4.38-9.69-4.81-15.59-1.16-15.97,7.61-29.95,19.62-31.25,7.78-.84,15.01,3.86,19.44,11.62,2.43,4.22,4.01,9.33,4.43,14.94,1.18,15.95-7.61,29.95-19.62,31.23Z"/>
          <path class="cls-4" d="M42.09,363.46c-6.83,0-13.34-4.11-17.69-11.29-2.77-4.56-4.46-10.03-4.88-15.82-1.18-16.2,7.82-30.46,20.07-31.78,7.77-.84,15.21,3.6,19.93,11.87,2.53,4.39,4.08,9.63,4.49,15.15,1.2,16.2-7.81,30.45-20.07,31.77h0c-.62.07-1.24.1-1.86.1ZM41.45,305.47c-.58,0-1.16.03-1.75.09-11.72,1.27-20.32,15.04-19.18,30.71.41,5.63,2.05,10.94,4.74,15.37,4.53,7.49,11.5,11.48,18.58,10.71h0c11.73-1.26,20.33-15.03,19.17-30.7-.4-5.37-1.91-10.47-4.36-14.73-4.16-7.29-10.49-11.47-17.21-11.47Z"/>
        </g>
        <path class="cls-1" d="M43.9,362.86c-7.56.82-14.6-3.59-19.06-10.95,3.24.41,10.04,4.24,17.58,1.92,7.97-2.45,12.4-10.43,13.3-12.07,4.83-8.68,4.28-18.37,3.37-25.07,2.43,4.22,4.01,9.33,4.43,14.94,1.18,15.95-7.61,29.95-19.62,31.23Z"/>
        <path class="cls-2" d="M31.31,311.65c-.36-.53.59-2.23,1.89-3.15,1.22-.86,2.96-1.19,3.31-.59.3.52-.48,1.59-.67,1.86-.81,1.12-1.91,1.5-2.59,1.72-.76.25-1.67.54-1.94.16Z"/>
        <path class="cls-2" d="M29.06,313.47c-.4-.24-1.33.86-3,2.84-1.46,1.72-1.69,2.26-1.57,2.75.13.52.65.93,1.15.94.67.02,1.15-.69,2.11-2.11.56-.83.94-1.4,1.2-2.3.08-.27.52-1.86.11-2.12Z"/>
      </g>
      <g>
        <g>
          <path class="cls-3" d="M40,307.23c-7.58-.67-13.62-6.37-16.56-14.46-1.73-4.76-2.4-10.36-1.67-16.23,1.98-15.89,13.31-27.89,25.34-26.82,7.8.7,13.97,6.71,16.8,15.19,1.56,4.61,2.11,9.93,1.43,15.52-1.96,15.88-13.31,27.89-25.34,26.8Z"/>
          <path class="cls-4" d="M41.51,307.8c-.51,0-1.03-.02-1.55-.07h0c-7.51-.66-13.86-6.19-16.98-14.79-1.83-5.02-2.41-10.71-1.7-16.46,2-16.12,13.61-28.33,25.88-27.25,7.77.69,14.21,6.5,17.23,15.53,1.62,4.79,2.12,10.24,1.45,15.73-1.91,15.45-12.64,27.31-24.33,27.31ZM45.63,250.15c-11.19,0-21.5,11.5-23.36,26.44-.7,5.6-.13,11.13,1.64,16,2.99,8.22,9.02,13.51,16.13,14.14h0c11.75,1.06,22.87-10.77,24.8-26.37.66-5.35.17-10.64-1.4-15.29-2.89-8.65-9.01-14.2-16.37-14.86-.48-.04-.96-.06-1.44-.06Z"/>
        </g>
        <path class="cls-1" d="M40,307.23c-7.58-.67-13.62-6.37-16.56-14.46,3.1,1.03,9.02,6.12,16.87,5.32,8.3-.84,14.2-7.81,15.4-9.24,6.43-7.57,7.78-17.19,8.2-23.93,1.56,4.61,2.11,9.93,1.43,15.52-1.96,15.88-13.31,27.89-25.34,26.8Z"/>
        <path class="cls-2" d="M37.66,254.55c-.25-.59,1.01-2.07,2.47-2.72,1.36-.61,3.13-.59,3.36.07.2.56-.78,1.47-1.02,1.69-1.02.94-2.17,1.09-2.88,1.18-.79.09-1.75.21-1.93-.22Z"/>
        <path class="cls-2" d="M35.1,255.9c-.34-.31-1.47.59-3.49,2.2-1.76,1.4-2.1,1.88-2.07,2.39.03.53.46,1.04.94,1.15.65.15,1.26-.45,2.48-1.66.71-.71,1.2-1.19,1.62-2.02.13-.25.88-1.73.52-2.05Z"/>
      </g>
      <g>
        <g>
          <path class="cls-3" d="M47.16,251.39c-7.6-.16-14.02-5.44-17.49-13.32-2.05-4.63-3.09-10.17-2.75-16.08.91-15.98,11.41-28.72,23.49-28.46,7.83.17,14.38,5.76,17.78,14.03,1.86,4.49,2.77,9.77,2.46,15.39-.89,15.97-11.41,28.72-23.49,28.44Z"/>
          <path class="cls-4" d="M47.54,251.89c-.13,0-.26,0-.39,0-7.54-.16-14.25-5.25-17.94-13.62-2.16-4.88-3.13-10.52-2.8-16.31.91-16.05,11.47-28.93,23.63-28.93.12,0,.25,0,.37,0,7.8.17,14.61,5.53,18.23,14.34,1.94,4.68,2.8,10.07,2.5,15.6-.89,16.05-11.44,28.92-23.6,28.92ZM50.04,194.02c-11.64,0-21.75,12.46-22.63,27.99-.32,5.63.62,11.11,2.71,15.85,3.53,8.01,9.9,12.88,17.04,13.02h0c.12,0,.25,0,.37,0,11.64,0,21.74-12.45,22.6-27.97.29-5.38-.54-10.62-2.43-15.17-3.46-8.43-9.94-13.56-17.33-13.72-.12,0-.23,0-.35,0Z"/>
        </g>
        <path class="cls-1" d="M47.16,251.39c-7.6-.16-14.02-5.44-17.49-13.32,3.16.82,9.41,5.5,17.18,4.18,8.22-1.4,13.64-8.75,14.75-10.26,5.91-7.99,6.61-17.67,6.58-24.43,1.86,4.49,2.77,9.77,2.46,15.39-.89,15.97-11.41,28.72-23.49,28.44Z"/>
        <path class="cls-2" d="M41.29,198.99c-.29-.57.87-2.14,2.29-2.88,1.32-.7,3.08-.8,3.36-.16.23.55-.68,1.52-.91,1.76-.95,1.01-2.09,1.24-2.79,1.37-.79.15-1.73.32-1.94-.09Z"/>
        <path class="cls-2" d="M38.82,200.5c-.36-.28-1.43.69-3.34,2.43-1.67,1.52-1.97,2.02-1.91,2.52.07.53.53,1,1.02,1.08.66.11,1.23-.54,2.37-1.82.67-.75,1.12-1.27,1.48-2.12.11-.26.76-1.78.38-2.08Z"/>
      </g>
      <g>
        <g>
          <path class="cls-3" d="M50.46,195.38c-7.57.71-14.54-3.81-18.89-11.25-2.56-4.37-4.23-9.75-4.57-15.67-.92-15.98,8.07-29.83,20.1-30.94,7.8-.72,14.95,4.09,19.26,11.92,2.36,4.25,3.86,9.39,4.2,15.01.93,15.97-8.07,29.83-20.1,30.93Z"/>
          <path class="cls-4" d="M48.91,195.95c-6.93,0-13.49-4.23-17.78-11.57-2.7-4.61-4.3-10.1-4.63-15.89-.93-16.22,8.29-30.33,20.55-31.47,7.76-.72,15.15,3.83,19.74,12.18,2.46,4.42,3.93,9.69,4.26,15.22.95,16.22-8.28,30.33-20.55,31.45h0c-.53.05-1.06.07-1.59.07ZM48.65,137.95c-.5,0-1,.02-1.5.07-11.73,1.09-20.55,14.73-19.65,30.42.32,5.63,1.88,10.97,4.5,15.44,4.42,7.55,11.3,11.67,18.41,11h0c11.75-1.07,20.56-14.71,19.65-30.4-.32-5.38-1.75-10.5-4.13-14.79-4.1-7.44-10.47-11.73-17.28-11.73Z"/>
        </g>
        <path class="cls-1" d="M50.46,195.38c-7.57.71-14.54-3.81-18.89-11.25,3.24.46,9.97,4.39,17.55,2.2,8.01-2.32,12.56-10.24,13.49-11.87,4.96-8.61,4.56-18.31,3.76-25.02,2.36,4.25,3.86,9.39,4.2,15.01.93,15.97-8.07,29.83-20.1,30.93Z"/>
        <path class="cls-2" d="M38.67,143.98c-.36-.53.62-2.22,1.94-3.12,1.23-.84,2.97-1.14,3.32-.54.3.52-.5,1.58-.7,1.85-.83,1.11-1.94,1.47-2.62,1.68-.76.24-1.68.52-1.94.13Z"/>
        <path class="cls-2" d="M36.39,145.76c-.39-.24-1.34.84-3.04,2.79-1.48,1.7-1.73,2.23-1.61,2.72.12.52.64.94,1.13.96.67.03,1.16-.67,2.14-2.08.58-.82.97-1.39,1.23-2.28.08-.27.55-1.86.14-2.11Z"/>
      </g>
      <g>
        <g>
          <path class="cls-3" d="M48.65,139.88c-7.57.71-14.54-3.81-18.89-11.25-2.56-4.37-4.23-9.75-4.57-15.67-.92-15.98,8.07-29.83,20.1-30.94,7.8-.72,14.95,4.09,19.26,11.92,2.36,4.25,3.86,9.39,4.2,15.01.93,15.97-8.07,29.83-20.1,30.93Z"/>
          <path class="cls-4" d="M47.1,140.45c-6.93,0-13.48-4.23-17.77-11.56-2.7-4.6-4.3-10.1-4.63-15.89-.93-16.22,8.29-30.33,20.55-31.47,7.76-.72,15.15,3.83,19.74,12.18,2.46,4.43,3.93,9.69,4.26,15.22.95,16.22-8.28,30.33-20.55,31.45h0c-.53.05-1.07.07-1.59.07ZM46.84,82.45c-.5,0-1,.02-1.5.07-11.73,1.09-20.55,14.73-19.65,30.41.32,5.63,1.88,10.97,4.5,15.44,4.42,7.55,11.3,11.67,18.41,11h0c11.75-1.07,20.56-14.71,19.65-30.4-.32-5.38-1.75-10.49-4.13-14.79-4.1-7.44-10.47-11.73-17.28-11.73Z"/>
        </g>
        <path class="cls-1" d="M48.65,139.88c-7.57.71-14.54-3.81-18.89-11.25,3.24.46,9.97,4.39,17.55,2.2,8.01-2.32,12.56-10.24,13.49-11.87,4.96-8.61,4.56-18.31,3.76-25.02,2.36,4.25,3.86,9.39,4.2,15.01.93,15.97-8.07,29.83-20.1,30.93Z"/>
        <path class="cls-2" d="M36.86,88.48c-.36-.53.62-2.22,1.94-3.12,1.23-.84,2.97-1.14,3.32-.54.3.52-.5,1.58-.7,1.85-.83,1.11-1.94,1.47-2.62,1.68-.76.24-1.68.52-1.94.13Z"/>
        <path class="cls-2" d="M34.58,90.26c-.39-.24-1.34.84-3.04,2.79-1.48,1.7-1.73,2.23-1.61,2.72.12.52.64.94,1.13.96.67.03,1.16-.67,2.14-2.08.58-.82.97-1.39,1.23-2.28.08-.27.55-1.86.14-2.11Z"/>
      </g>
      <g>
        <path class="cls-3" d="M68.38,89.96l-12.27-6.7c-6.07-3.32-12.76-3.32-18.84,0l-12.27,6.7c-3.06,1.67-6.33-1.62-6.33-6.39h0c0-2.84,1.21-5.39,3.04-6.39l15.56-8.49c6.07-3.32,12.76-3.32,18.84,0l15.56,8.49c1.83,1,3.04,3.55,3.04,6.39h0c0,4.76-3.27,8.06-6.33,6.39Z"/>
        <path class="cls-4" d="M23.35,91.29c-.75,0-1.5-.21-2.21-.63-2.04-1.21-3.36-4-3.36-7.09s1.38-6.01,3.5-7.17l15.56-8.49c6.35-3.47,13.34-3.47,19.69,0l15.56,8.49c2.13,1.16,3.5,3.98,3.5,7.17s-1.32,5.88-3.36,7.09c-1.37.81-2.89.84-4.28.08l-12.27-6.7c-5.8-3.17-12.19-3.17-17.99,0l-12.27,6.7c-.67.37-1.38.55-2.08.55ZM46.69,67.09c-3.05,0-6.09.79-8.99,2.37l-15.56,8.49c-1.54.84-2.58,3.1-2.58,5.61s.98,4.67,2.49,5.56c.57.34,1.47.62,2.53.05l12.27-6.7c6.35-3.47,13.34-3.47,19.69,0l12.27,6.7c1.05.58,1.95.29,2.53-.05,1.51-.9,2.49-3.08,2.49-5.56s-1.04-4.77-2.58-5.61l-15.56-8.49c-2.9-1.58-5.95-2.37-8.99-2.37Z"/>
      </g>
      <path class="cls-1" d="M8.36,11.62c.99-1.85,2.28-4.28,4.89-6.26,2.12-1.61,3.46-1.68,4.01-1.66.47.01,1.43.03,1.96.68.75.92.3,2.68-.59,3.72-.94,1.11-1.71.6-3.23,1.86-.62.51-.66.74-2.25,2.74,0,0-.76.94-1.76,2.15-2.18,2.62-2.66,3.02-3.29,3-.59-.02-1.16-.41-1.4-.88-.23-.44-.17-.96.62-2.93.49-1.22.74-1.83,1.04-2.41Z"/>
      <path class="cls-1" d="M4.74,20.18c-.76.3-1.2,1.06-1.57,2.05-1.2,3.23-.74,6.25-.68,6.55.32,1.92.58,3.5,1.86,4.16.84.43,2.1.45,2.89-.24.82-.73.75-1.93.73-2.3-.06-1.06-.53-1.17-1.08-2.98-.19-.61-.39-1.29-.44-2.2-.07-1.19.13-2.2.13-2.2.21-1.07.52-1.5.26-2.1-.03-.07-.22-.5-.68-.73-.62-.32-1.27-.06-1.42,0Z"/>
    </g>
  </g>
</svg>