<?xml version="1.0" encoding="UTF-8"?>
<svg id="Capa_2" data-name="Capa 2" xmlns="http://www.w3.org/2000/svg" viewBox="0 0 263.34 410.36">
  <defs>
    <style>
      .cls-1 {
        fill: #bf3441;
      }

      .cls-2 {
        fill: #f8bc5c;
      }

      .cls-3 {
        fill: #fcd8a9;
      }

      .cls-4 {
        fill: #e9a94a;
      }

      .cls-5 {
        fill: #e55e6c;
      }

      .cls-6 {
        fill: #d6404a;
      }

      .cls-7 {
        fill: #b22f3f;
      }

      .cls-8 {
        fill: #9e2539;
      }

      .cls-9 {
        fill: #a5071b;
      }
    </style>
  </defs>
  <g id="Capa_1-2" data-name="Capa 1">
    <g>
      <g>
        <path class="cls-6" d="M87.11,117.87l-18.03,59.34c-2.2,7.25-9.88,11.35-17.13,9.15l-19.65-5.97c-5.12-1.55-8.66-5.83-9.52-10.76-.38-2.06-.27-4.23.38-6.37l18.03-59.34c2.2-7.25,9.88-11.35,17.13-9.15l19.65,5.97c5.87,1.78,9.68,7.15,9.74,12.98.02,1.38-.17,2.77-.59,4.15Z"/>
        <path class="cls-7" d="M55.96,187.46c-1.39,0-2.79-.21-4.15-.62l-19.65-5.97c-5.16-1.57-8.94-5.84-9.87-11.16-.4-2.16-.26-4.45.39-6.6l18.03-59.34c1.1-3.64,3.56-6.62,6.91-8.42,3.35-1.79,7.2-2.17,10.84-1.06l19.65,5.97c5.97,1.82,10.03,7.22,10.09,13.45.02,1.44-.18,2.89-.61,4.3l-18.03,59.34c-1.1,3.64-3.56,6.62-6.91,8.42-2.09,1.12-4.38,1.68-6.69,1.68ZM54.32,94.68c-5.67,0-10.93,3.68-12.67,9.39l-18.03,59.34c-.61,2-.73,4.12-.36,6.13.87,4.94,4.38,8.92,9.18,10.37l19.65,5.97c3.38,1.03,6.96.68,10.08-.99,3.12-1.67,5.4-4.44,6.43-7.82l18.03-59.34c.4-1.31.59-2.66.57-3.99-.06-5.8-3.83-10.82-9.38-12.51l-19.65-5.97c-1.28-.39-2.57-.57-3.84-.57Z"/>
      </g>
      <path class="cls-1" d="M87.11,117.87l-18.03,59.34c-2.2,7.25-9.88,11.35-17.13,9.15l-19.65-5.97c-5.12-1.55-8.66-5.83-9.52-10.76,2.61,1.76,6.04,3.79,10.8,4.34,11.06,1.27,20.35-6.52,23.08-8.8,6.87-5.76,8.26-10.77,15.27-24.27,4.83-9.31,11.29-20.59,15.77-27.17.02,1.38-.17,2.77-.59,4.15Z"/>
      <g>
        <path class="cls-7" d="M247.95,344.3l-.46.08c-6.12,1.06-10.54,7.45-9.84,14.19l2.6,24.76c.71,6.74,6.29,11.39,12.41,10.33l.46-.08c6.12-1.06,10.54-7.45,9.84-14.19l-2.6-24.76c-.71-6.74-6.29-11.39-12.41-10.33Z"/>
        <path class="cls-9" d="M250.92,394.12c-2.25,0-4.43-.73-6.28-2.13-2.62-1.98-4.33-5.12-4.69-8.62l-2.6-24.76c-.73-6.92,3.8-13.44,10.09-14.53l.46-.08c2.86-.5,5.73.21,8.08,1.98,2.62,1.98,4.33,5.12,4.69,8.62l2.6,24.76c.73,6.92-3.8,13.43-10.09,14.53l-.46.08c-.6.1-1.2.16-1.79.16ZM248,344.61l-.46.08c-5.98,1.04-10.27,7.25-9.58,13.85l2.6,24.76c.35,3.33,1.97,6.32,4.45,8.19,2.21,1.67,4.9,2.33,7.6,1.86l.46-.08c5.98-1.04,10.27-7.25,9.58-13.85l-2.6-24.76c-.35-3.33-1.97-6.31-4.45-8.19-2.21-1.67-4.91-2.33-7.6-1.86Z"/>
      </g>
      <g>
        <path class="cls-7" d="M253.69,258.99l2.38,26.91c.49,5.57-5.11,10.62-12.52,11.27l-6.76.6c-4.37.39-8.38-.84-11.05-3.06-1.85-1.54-3.05-3.56-3.25-5.84l-2.38-26.91c-.49-5.57,5.11-10.62,12.52-11.27l6.76-.6c5.79-.51,10.98,1.82,13.2,5.52.62,1.03,1,2.16,1.11,3.38Z"/>
        <path class="cls-9" d="M235.19,298.24c-3.72,0-7.19-1.14-9.7-3.22-2.01-1.68-3.19-3.79-3.39-6.11l-2.38-26.91c-.25-2.82.97-5.59,3.43-7.81,2.43-2.19,5.78-3.57,9.45-3.89l6.76-.6c5.76-.52,11.22,1.79,13.57,5.71.66,1.1,1.05,2.29,1.16,3.54l2.38,26.91c.25,2.82-.97,5.59-3.43,7.81-2.43,2.19-5.78,3.57-9.45,3.89l-6.76.6c-.55.05-1.1.07-1.64.07ZM240.95,250.41c-.51,0-1.02.02-1.53.07l-6.76.6c-3.5.31-6.69,1.62-8.99,3.69-2.27,2.04-3.4,4.58-3.17,7.15l2.38,26.92c.19,2.11,1.26,4.04,3.11,5.57,2.71,2.25,6.63,3.33,10.77,2.97l6.76-.6c3.5-.31,6.69-1.62,8.99-3.69,2.27-2.04,3.4-4.58,3.17-7.15l-2.38-26.91c-.1-1.13-.45-2.21-1.05-3.21-2-3.33-6.42-5.4-11.3-5.4Z"/>
      </g>
      <g>
        <path class="cls-7" d="M247.89,211.25l2.38,26.9c.49,5.57-5.11,10.62-12.53,11.27l-6.75.6c-3.38.3-6.56-.36-9.04-1.71-2.98-1.6-5-4.15-5.27-7.19l-2.38-26.9c-.49-5.57,5.11-10.63,12.52-11.28l6.75-.6c4.99-.44,9.52,1.22,12.09,4.05,1.27,1.38,2.06,3.03,2.22,4.86Z"/>
        <path class="cls-9" d="M229.4,250.49c-2.77,0-5.43-.63-7.64-1.83-3.21-1.72-5.2-4.45-5.47-7.5l-2.38-26.9c-.25-2.82.97-5.6,3.42-7.81,2.43-2.19,5.78-3.57,9.45-3.9l6.75-.6c4.93-.44,9.69,1.17,12.42,4.18,1.36,1.48,2.16,3.24,2.32,5.09l2.38,26.9c.25,2.82-.97,5.59-3.43,7.81-2.43,2.19-5.79,3.57-9.46,3.89l-6.75.6c-.54.05-1.09.07-1.62.07ZM235.15,202.66c-.51,0-1.02.02-1.53.07l-6.75.6c-3.5.31-6.69,1.62-8.99,3.7-2.27,2.05-3.4,4.59-3.17,7.16l2.38,26.9c.25,2.78,2.09,5.28,5.06,6.88,2.5,1.36,5.63,1.95,8.82,1.67l6.75-.6c3.5-.31,6.7-1.62,9-3.7,2.27-2.04,3.4-4.58,3.17-7.15l-2.38-26.9c-.15-1.68-.88-3.28-2.12-4.63-2.29-2.53-6.12-3.99-10.23-3.99Z"/>
      </g>
      <g>
        <path class="cls-7" d="M245.73,343.84c-6.35.79-12.49-2.55-16.57-8.25-2.4-3.35-4.11-7.53-4.72-12.16-1.66-12.52,5.17-23.66,15.26-24.9,6.54-.8,12.84,2.75,16.92,8.77,2.23,3.27,3.78,7.25,4.37,11.65,1.67,12.51-5.17,23.66-15.26,24.89Z"/>
        <path class="cls-9" d="M243.89,344.27c-5.61,0-11.11-3.08-14.98-8.5-2.53-3.52-4.18-7.78-4.77-12.3-.92-6.98.73-13.81,4.54-18.73,2.85-3.69,6.75-6,10.99-6.52,6.47-.79,12.9,2.54,17.21,8.91,2.31,3.39,3.84,7.47,4.42,11.79.93,6.97-.72,13.8-4.54,18.72-2.85,3.69-6.76,6-11,6.52-.63.08-1.25.12-1.88.12ZM241.55,298.74c-.6,0-1.21.04-1.81.11-4.13.51-7.78,2.68-10.57,6.28-3.71,4.79-5.32,11.45-4.41,18.26.58,4.42,2.2,8.58,4.66,12.02,4.17,5.83,10.25,8.87,16.27,8.12h0c4.13-.5,7.79-2.67,10.58-6.28,3.71-4.79,5.32-11.45,4.41-18.25-.57-4.22-2.06-8.21-4.32-11.52-3.77-5.57-9.21-8.75-14.81-8.75Z"/>
      </g>
      <g>
        <rect class="cls-7" x="200.67" y="115.48" width="17.73" height="47.78" rx="6.51" ry="6.51" transform="translate(-38.05 94.35) rotate(-23.32)"/>
        <path class="cls-9" d="M214.27,163.03c-2.63,0-5.13-1.54-6.24-4.1l-13.76-31.91c-1.48-3.43.11-7.43,3.54-8.91l4.32-1.86c3.43-1.48,7.43.11,8.91,3.54l13.76,31.91c1.48,3.43-.11,7.43-3.54,8.91l-4.32,1.86c-.87.38-1.78.55-2.67.55ZM202.35,116.74l-4.32,1.86c-3.16,1.36-4.63,5.04-3.26,8.21l13.76,31.91c1.36,3.16,5.05,4.63,8.21,3.26l4.32-1.86c3.16-1.36,4.63-5.05,3.26-8.21l-13.76-31.91c-1.36-3.16-5.05-4.63-8.21-3.26h0Z"/>
      </g>
      <path class="cls-8" d="M245.73,343.84c-6.35.79-12.49-2.55-16.57-8.25,2.76.26,8.66,3.15,14.93,1.19,6.63-2.07,10.04-8.42,10.73-9.73,3.72-6.91,2.84-14.51,1.79-19.75,2.23,3.27,3.78,7.25,4.37,11.65,1.67,12.51-5.17,23.66-15.26,24.89Z"/>
      <path class="cls-8" d="M253.69,258.99l2.38,26.91c.49,5.57-5.11,10.62-12.52,11.27l-6.76.6c-4.37.39-8.38-.84-11.05-3.06,3.2-.34,8.75-.53,13.58-4.56,2.07-1.73,4.3-4.4,9.03-19.66,2.06-6.64,3.33-11.55,4.23-14.88.62,1.03,1,2.16,1.11,3.38Z"/>
      <path class="cls-8" d="M247.89,211.25l2.38,26.9c.49,5.57-5.11,10.62-12.53,11.27l-6.75.6c-3.38.3-6.56-.36-9.04-1.71.06-3.29,7.54-3.4,13.57-8.19,10.67-8.5,9.81-26.21,10.15-33.73,1.27,1.38,2.06,3.03,2.22,4.86Z"/>
      <g>
        <path class="cls-7" d="M231.29,203.3l-6.66,1.3c-1.98.38-3.94.42-5.75.16-2.94-.43-5.49-1.64-7.22-3.44-1.11-1.14-1.88-2.53-2.18-4.09l-1.88-27.15c-1.07-5.49,3.98-11.09,11.28-12.51l.09-.02c5.44-1.06,10.6.51,13.31,3.65.93,1.07,1.57,2.32,1.84,3.72l8.45,25.86c1.07,5.49-3.98,11.1-11.28,12.52Z"/>
        <path class="cls-9" d="M221.25,205.33c-.82,0-1.62-.06-2.42-.17-3.02-.44-5.67-1.71-7.45-3.56-1.19-1.22-1.98-2.7-2.28-4.29l-1.89-27.2c-.54-2.73.39-5.62,2.6-8.07,2.19-2.43,5.38-4.15,9-4.85,5.51-1.08,10.88.41,13.77,3.76,1,1.15,1.65,2.47,1.93,3.9l8.44,25.81c.55,2.83-.37,5.71-2.58,8.17-2.19,2.43-5.38,4.15-9,4.86l-6.66,1.3c-1.16.22-2.32.33-3.46.33ZM222.36,157.62c-1.08,0-2.2.11-3.31.32-3.54.69-6.58,2.33-8.65,4.63-2.05,2.27-2.9,4.91-2.41,7.44l1.89,27.2c.27,1.39.99,2.73,2.07,3.84,1.66,1.73,4.14,2.91,7,3.33,1.79.26,3.74.21,5.62-.16l6.66-1.3c3.45-.67,6.49-2.31,8.56-4.61,2.05-2.27,2.9-4.92,2.41-7.45l-8.44-25.81c-.26-1.35-.85-2.54-1.76-3.58-2.13-2.46-5.7-3.84-9.63-3.84Z"/>
      </g>
      <g>
        <path class="cls-6" d="M61.21,205.15l-8.9,61.38c-1.09,7.5-8.06,12.71-15.56,11.62l-20.33-2.95c-5.29-.77-9.44-4.46-11.03-9.21-.68-1.98-.9-4.14-.58-6.35l8.9-61.38c1.09-7.5,8.06-12.71,15.56-11.62l20.33,2.95c6.08.88,10.64,5.62,11.58,11.37.23,1.36.25,2.76.04,4.19Z"/>
        <path class="cls-7" d="M38.75,278.79c-.69,0-1.38-.05-2.07-.15l-20.33-2.95c-5.33-.77-9.72-4.43-11.44-9.54-.72-2.08-.93-4.36-.6-6.58l8.9-61.38c1.13-7.77,8.36-13.16,16.12-12.04l20.33,2.95c6.18.9,11,5.63,12,11.78.24,1.42.25,2.88.04,4.34l-8.9,61.38c-.54,3.76-2.52,7.08-5.57,9.36-2.49,1.86-5.44,2.83-8.48,2.83ZM27.29,187c-6.46,0-12.13,4.75-13.08,11.33l-8.9,61.38c-.3,2.07-.11,4.18.56,6.12,1.6,4.76,5.67,8.16,10.63,8.88l20.33,2.95c3.5.51,6.98-.38,9.81-2.49,2.83-2.11,4.67-5.21,5.18-8.7l8.9-61.38c.2-1.36.18-2.71-.04-4.03-.93-5.72-5.41-10.12-11.16-10.96l-20.33-2.95c-.64-.09-1.28-.14-1.91-.14Z"/>
      </g>
      <g>
        <path class="cls-6" d="M56.81,197.67l-9.83-5.41c-4.87-2.68-10.54-3.5-15.97-2.32l-10.96,2.39c-2.74.6-5.23-1.72-4.83-4.5h0c.24-1.66,1.48-2.99,3.12-3.35l13.91-3.03c5.43-1.18,11.1-.36,15.97,2.32l12.47,6.86c1.47.81,2.28,2.44,2.04,4.09h0c-.4,2.77-3.45,4.29-5.91,2.94Z"/>
        <path class="cls-7" d="M58.74,198.8c-.77,0-1.54-.19-2.24-.57l-9.83-5.41c-4.73-2.6-10.25-3.41-15.53-2.25l-10.96,2.39c-1.49.32-3.04-.1-4.16-1.14s-1.65-2.56-1.43-4.07c.28-1.91,1.73-3.46,3.61-3.87l13.91-3.03c5.58-1.21,11.4-.37,16.41,2.38l12.47,6.86c1.69.93,2.64,2.83,2.36,4.74-.22,1.51-1.16,2.81-2.53,3.49-.65.33-1.36.49-2.07.49ZM57.11,197.12c.99.54,2.13.57,3.14.06,1.01-.5,1.68-1.43,1.84-2.54.2-1.39-.49-2.78-1.72-3.45l-12.47-6.86c-4.73-2.6-10.25-3.41-15.53-2.25l-13.91,3.03c-1.37.3-2.43,1.43-2.63,2.82-.16,1.11.22,2.19,1.04,2.96.82.77,1.93,1.07,3.03.83l10.96-2.39c5.58-1.21,11.4-.37,16.41,2.38l9.83,5.41Z"/>
      </g>
      <g>
        <rect class="cls-6" x="13.58" y="365.31" width="22.53" height="44.36" rx="10.69" ry="10.69"/>
        <path class="cls-7" d="M25.42,410.36h-1.14c-6.27,0-11.38-5.11-11.38-11.38v-22.97c0-6.27,5.1-11.38,11.38-11.38h1.14c6.27,0,11.38,5.11,11.38,11.38v22.97c0,6.27-5.1,11.38-11.38,11.38ZM24.28,366c-5.52,0-10.01,4.49-10.01,10.01v22.97c0,5.52,4.49,10.01,10.01,10.01h1.14c5.52,0,10.01-4.49,10.01-10.01v-22.97c0-5.52-4.49-10.01-10.01-10.01h-1.14Z"/>
      </g>
      <path class="cls-1" d="M61.21,205.15l-8.9,61.38c-1.09,7.5-8.06,12.71-15.56,11.62l-20.33-2.95c-5.29-.77-9.44-4.46-11.03-9.21,2.85,1.34,6.54,2.84,11.33,2.66,11.12-.41,19.14-9.5,21.5-12.17,5.93-6.73,6.55-11.89,11.45-26.29,3.38-9.93,8.07-22.05,11.51-29.23.23,1.36.25,2.76.04,4.19Z"/>
      <g>
        <path class="cls-6" d="M48.5,289.7v62.02c0,7.58-6.15,13.73-13.73,13.73H14.23c-5.35,0-9.98-3.06-12.24-7.53-.96-1.86-1.49-3.97-1.49-6.2v-62.02c0-7.58,6.15-13.73,13.73-13.73h20.54c6.14,0,11.34,4.03,13.09,9.59.42,1.31.64,2.7.64,4.14Z"/>
        <path class="cls-7" d="M34.77,365.95H14.23c-5.39,0-10.25-2.99-12.69-7.8-1.01-1.96-1.54-4.18-1.54-6.43v-62.02c0-7.85,6.38-14.23,14.23-14.23h20.54c6.24,0,11.7,3.99,13.57,9.94.44,1.37.66,2.82.66,4.29v62.02c0,7.85-6.38,14.23-14.23,14.23ZM14.23,276.47c-7.29,0-13.23,5.93-13.23,13.23v62.02c0,2.09.5,4.15,1.43,5.97,2.26,4.48,6.78,7.26,11.8,7.26h20.54c7.29,0,13.23-5.93,13.23-13.23v-62.02c0-1.37-.21-2.71-.62-3.99-1.74-5.53-6.81-9.24-12.61-9.24H14.23Z"/>
      </g>
      <path class="cls-1" d="M48.5,289.7v62.02c0,7.58-6.15,13.73-13.73,13.73H14.23c-5.35,0-9.98-3.06-12.24-7.53,3.01.92,6.88,1.87,11.59,1.01,10.95-2,17.58-12.15,19.53-15.13,4.9-7.51,4.77-12.71,7.56-27.66,1.92-10.31,4.82-22.98,7.19-30.58.42,1.31.64,2.7.64,4.14Z"/>
      <g>
        <path class="cls-6" d="M119.28,77.62c-7.03,23.16-31.52,36.23-54.68,29.2-17.91-5.44-29.79-21.32-31-38.95-.35-5.17.21-10.48,1.8-15.73,7.03-23.16,31.52-36.23,54.68-29.2,14.79,4.49,25.48,16.11,29.41,29.95,2.24,7.83,2.32,16.36-.22,24.72Z"/>
        <path class="cls-7" d="M77.39,109.23c-4.33,0-8.68-.64-12.94-1.93-17.5-5.32-30.1-21.15-31.35-39.4-.37-5.37.24-10.72,1.82-15.91,7.1-23.39,31.91-36.63,55.3-29.53,14.48,4.4,25.61,15.73,29.75,30.29,2.34,8.18,2.27,16.83-.22,25.01h0c-3.44,11.33-11.09,20.64-21.54,26.22-6.52,3.48-13.64,5.25-20.83,5.25ZM77.37,21.55c-18.58,0-35.81,12.06-41.48,30.74-1.54,5.07-2.14,10.3-1.78,15.55,1.22,17.84,13.54,33.31,30.64,38.51,11.07,3.36,22.79,2.21,33-3.24,10.21-5.45,17.69-14.55,21.05-25.62h0c2.43-7.99,2.5-16.45.21-24.44-4.05-14.24-14.92-25.31-29.08-29.61-4.18-1.27-8.41-1.88-12.57-1.88Z"/>
      </g>
      <path class="cls-1" d="M119.28,77.62c-7.03,23.16-31.52,36.23-54.68,29.2-17.91-5.44-29.79-21.32-31-38.95,3.19,3.71,7.4,8.23,13.24,12.15,3.46,2.33,19.21,12.91,37.7,8.72,16.62-3.76,25.7-17.27,27.92-20.55,3.58-5.32,5.69-10.67,7.03-15.3,2.24,7.83,2.32,16.36-.22,24.72Z"/>
      <g>
        <path class="cls-7" d="M218.41,98.68c-.24,4.4-1.47,8.75-3.77,12.74-8.42,14.59-28.1,19.06-44.33,10.23-.3-.15-.59-.31-.88-.48-1.74-1-3.36-2.12-4.87-3.34-2.49-2.01-4.66-4.29-6.47-6.76-7.44-10.08-8.98-23.25-2.82-33.92,1.44-2.49,3.2-4.69,5.22-6.57,4.94-4.61,11.42-7.37,18.35-8.02,7.12-.68,14.72.85,21.64,4.84,7.52,4.34,12.92,10.83,15.73,18.02,1.36,3.46,2.12,7.07,2.23,10.69.03.86.02,1.72-.03,2.57Z"/>
        <path class="cls-9" d="M187.91,126.72c-5.93,0-12.07-1.5-17.84-4.64-.3-.15-.6-.31-.89-.49-1.71-.98-3.37-2.12-4.93-3.38-2.5-2.01-4.7-4.32-6.56-6.85-7.75-10.5-8.87-24.03-2.85-34.47,1.45-2.5,3.24-4.75,5.31-6.69,4.92-4.59,11.54-7.49,18.64-8.15,7.54-.72,15.12.98,21.94,4.9,7.33,4.23,13,10.72,15.95,18.27,1.39,3.54,2.15,7.19,2.26,10.86.03.87.02,1.75-.03,2.61-.25,4.62-1.54,8.98-3.84,12.96-5.62,9.73-16,15.06-27.16,15.06ZM182.18,62.9c-1.1,0-2.2.05-3.29.16-6.88.65-13.3,3.45-18.06,7.89-2,1.87-3.73,4.04-5.13,6.45-5.82,10.09-4.73,23.19,2.79,33.37,1.81,2.46,3.95,4.71,6.38,6.67,1.52,1.23,3.13,2.34,4.81,3.3.28.17.56.32.85.47,16.17,8.8,35.35,4.39,43.67-10.03,2.21-3.84,3.46-8.05,3.7-12.52h0c.05-.83.06-1.68.03-2.53-.11-3.55-.85-7.09-2.2-10.52-2.87-7.34-8.38-13.65-15.51-17.77-5.64-3.25-11.82-4.93-18.05-4.93Z"/>
      </g>
      <g>
        <path class="cls-7" d="M166.07,69.68c-8.58,14.85-28.82,19.21-45.21,9.74-4.15-2.4-7.66-5.45-10.44-8.92-8.21-10.21-10.13-24.01-3.72-35.1,8.57-14.85,28.81-19.21,45.2-9.74,7.08,4.08,12.29,10.08,15.22,16.77,3.88,8.8,3.82,18.81-1.05,27.25Z"/>
        <path class="cls-9" d="M139.19,84.93c-6.37,0-12.78-1.73-18.58-5.08-4.13-2.39-7.69-5.43-10.58-9.04-8.61-10.71-10.09-24.71-3.76-35.66,4.22-7.31,11.32-12.36,20-14.23,8.66-1.87,17.85-.34,25.89,4.31,6.88,3.97,12.36,10.01,15.43,17,4.1,9.31,3.71,19.4-1.08,27.7h0c-4.22,7.31-11.33,12.36-20,14.23-2.41.52-4.86.78-7.31.78ZM133.57,21.14c-2.38,0-4.76.25-7.1.75-8.4,1.81-15.27,6.69-19.34,13.75-6.12,10.59-4.68,24.15,3.68,34.54,2.82,3.52,6.28,6.48,10.3,8.8,7.82,4.52,16.76,6.01,25.18,4.19,8.4-1.81,15.27-6.69,19.35-13.75h0c4.63-8.02,5-17.78,1.03-26.8-2.98-6.8-8.31-12.68-15.01-16.54-5.65-3.26-11.88-4.95-18.08-4.95Z"/>
      </g>
      <path class="cls-8" d="M166.07,69.68c-8.58,14.85-28.82,19.21-45.21,9.74-4.15-2.4-7.66-5.45-10.44-8.92,5.38,2.02,13.23,5.03,22.89,3.92,1.3-.15,13.75-1.75,23.08-10.96,6.3-6.21,9.25-13.99,10.73-21.03,3.88,8.8,3.82,18.81-1.05,27.25Z"/>
      <path class="cls-8" d="M218.41,98.68c-.24,4.4-1.47,8.75-3.77,12.74-8.42,14.59-28.1,19.06-44.33,10.23-.3-.15-.59-.31-.88-.48-1.74-1-3.36-2.12-4.87-3.34-2.49-2.01-4.66-4.29-6.47-6.76,4.27,1.71,10.8,3.8,18.94,4.73,3.36.38,13.92,1.58,23.78-4.7,9.39-5.99,12.75-15.36,13.69-18.1.91-2.66,1.43-5.21,1.71-7.58,1.36,3.46,2.12,7.07,2.23,10.69.03.86.02,1.72-.03,2.57Z"/>
      <path class="cls-5" d="M13.36,281.51c-2.49-.34-4.88,1.81-6.43,3.51-1.73,1.91-2.98,4.27-3.53,6.79-.06.27-.1.58.06.8.18.23.51.26.8.24,1.54-.15,2.74-1.38,3.63-2.63.9-1.26,1.69-2.66,2.98-3.51.91-.59,1.99-.85,2.93-1.37.83-.46,1.62-1.28,1.49-2.22-.1-.77-.81-1.35-1.57-1.53-.12-.03-.25-.05-.37-.07Z"/>
      <path class="cls-5" d="M4.58,297.29c.03-.69.08-1.69-.54-2.49-.17-.22-.41-.54-.69-.51-.48.04-.76,1.02-.94,1.71-.25.94-.87,3.23.15,4.01.05.04.41.31.8.22.47-.11.68-.69.89-1.25.27-.72.33-1.34.34-1.69Z"/>
      <path class="cls-5" d="M17.15,201.14c.34-.9.78-1.76,1.32-2.56,1.26-1.88,3.11-3.42,5.26-4.17,2.42-.84,5.26-1.58,7.83-1.4.78.06,1.6.23,2.17.76.68.64.86,1.7.6,2.6s-.89,1.65-1.61,2.25c-3.22,2.66-8.16,2.58-11.16,5.48-.81.78-1.42,1.74-2.04,2.68-.28.43-.57.87-.98,1.18-.41.31-.98.47-1.45.27-.8-.33-.94-1.39-.9-2.25.08-1.65.39-3.31.98-4.85Z"/>
      <path class="cls-5" d="M17.17,212.9c.38-1.3.38-1.61.27-1.94-.14-.44-.52-1.06-.98-1.08-.69-.02-1.2,1.3-1.47,2.02-.22.59-1.05,2.75-.21,3.38.37.27.95.18,1.31-.01.21-.11.49-.33,1.08-2.37Z"/>
      <path class="cls-5" d="M51.34,102.95c-1.19.2-2.29.88-3.23,1.65-2.46,2.02-5.84,5.83-4.3,9.27.09.21.21.41.39.54.71.49,1.5-.45,1.93-1.2,1.76-3.09,4.95-5.04,7.38-7.64.25-.27.51-.57.58-.93.21-.97-.94-1.71-1.93-1.75-.27,0-.54.01-.81.05Z"/>
      <path class="cls-5" d="M91.29,30.16c-.1-.31-.68-1.6-8.9-1.27-10.83.43-15.27,2.89-16.92,3.91-3.67,2.27-3.83,3.8-3.82,4.4.04,1.23.99,2.48,2.15,2.93,1.37.53,2.49-.26,5.67-1.66,2.32-1.03,4.63-2.04,7.43-2.74,1.3-.32,3.74-.83,6.46-1.17,0,0,1.3-.16,3.91-.78,1.54-.36,2.21-.59,2.84-1.17.57-.53,1.42-1.66,1.17-2.45Z"/>
      <path class="cls-5" d="M55.06,42c-1.93-.8-5.02,1.69-6.07,4.5-.92,2.46-.51,5.81.91,6.33,1.48.54,3.61-2.12,4.89-3.72,1.19-1.48,2.12-2.69,1.96-4.3-.1-.94-.6-2.35-1.7-2.8Z"/>
      <path class="cls-1" d="M139.68,24.54c-.27-1.18-4.66-1.35-8.12-.78-4.32.71-9.63,2.99-9.49,5.08.07.99,1.34,1.81,2.35,2.06,1.79.44,2.57-.98,5.77-2.06,2.94-.99,3.7-.28,6.2-1.49.31-.15,3.54-1.74,3.29-2.82Z"/>
      <path class="cls-1" d="M115.81,32.75c-.95.23-4.21,1.03-4.6,3.33-.23,1.34.56,3,1.47,3.13.56.08.89-.44,3.13-3.21,1.8-2.23,2.38-2.87,2.15-3.25-.28-.46-1.54-.15-2.15,0Z"/>
      <path class="cls-1" d="M192.05,67.59c.01-1.11-4.51-2.1-7.54-2.35-.37-.03-4.03-.29-8.38,1.17-2.82.95-3.34,1.75-3.52,2.35-.32,1.04.14,2.4,1.04,3,1.03.69,2.23.12,4.7-.52,3.27-.85,2.79-.26,6.78-1.17,3.97-.91,6.9-1.58,6.91-2.48Z"/>
      <path class="cls-1" d="M169.36,69.57c-.54.09-1.65.28-2.44,1.19-.64.74-1.21,2.11-.69,2.72.53.62,1.94.17,2.73-.08,1.34-.43,2.41-.67,2.65-1.54.24-.86-.38-2-1.23-2.29-.33-.11-.6-.07-1.02,0Z"/>
      <path class="cls-8" d="M231.29,203.3l-6.66,1.3c-1.98.38-3.94.42-5.75.16-2.94-.43-5.49-1.64-7.22-3.44,2.76.06,5.91-.32,9.15-1.84.7-.33,8.21-3.98,10.56-11.61,1.06-3.43.19-4.79,0-11.09-.08-2.84-.32-10.71.91-15.58.93,1.07,1.57,2.32,1.84,3.72l8.45,25.86c1.07,5.49-3.98,11.1-11.28,12.52Z"/>
      <path class="cls-1" d="M209.79,169.02c-.05-1.82.94-3.17,1.88-4.43,1.05-1.42,2.12-2.25,2.89-2.74,1-.64,2.1-1.31,3.13-.91.07.03.92.37.98.98.06.69-.99,1.01-2.74,2.54-.92.81-1.45,1.27-1.96,2.09-.81,1.31-1.13,2.86-1.17,3.07-.24,1.2-.17,1.98-.72,2.28-.4.22-.88.04-.98,0-1.21-.49-1.3-2.67-1.3-2.87Z"/>
      <path class="cls-1" d="M218.09,214.12c-.66-.43-.08-3.52,1.91-5.09.97-.77,2.07-.99,3.18-1.22.86-.18,1.68-.35,1.91,0,.38.57-1.05,2.13-1.47,2.59-.86.94-1.64,1.47-3.03,2.4-1.49.99-2.24,1.49-2.49,1.32Z"/>
      <path class="cls-1" d="M216.37,220.19c-.49-.18-.44-2.1.44-3.33.12-.17.61-.84,1.01-.73.32.09.43.61.45.73.1.49-.03.92-.2,1.29-.37.83-1.25,2.21-1.71,2.04Z"/>
      <path class="cls-1" d="M228.51,252.6c-1.92.93-3.35,2.55-3.42,2.64-1.64,1.9-2.47,2.84-2.28,4.01.09.6.46,1.36,1.04,1.5.66.16,1.32-.54,1.9-1.14,1.19-1.25.81-1.67,1.95-2.93,1.51-1.68,2.05-2.09,2.05-2.09.23-.17.57-.41.65-.82.1-.5-.2-1.13-.68-1.34-.44-.19-.9.01-1.21.16Z"/>
      <path class="cls-1" d="M232.94,303.86c-.33-.41.4-1.76,1.47-2.51.99-.7,2.45-.99,2.77-.52.28.4-.34,1.26-.49,1.47-.64.9-1.55,1.21-2.12,1.4-.63.21-1.39.46-1.63.16Z"/>
      <path class="cls-1" d="M231.11,305.33c-.34-.18-1.08.7-2.41,2.28-1.16,1.38-1.33,1.8-1.21,2.18.13.4.59.71,1.01.72.57,0,.94-.56,1.7-1.7.44-.66.74-1.12.91-1.83.05-.21.36-1.47,0-1.66Z"/>
      <g>
        <path class="cls-2" d="M121.59,22.78c-.34,1.27-1.42,2.05-1.97,3.19-.57,1.18-.47,2.49-1.41,3.54-.68.76-1.65,1.19-2.4,1.89-.77.71-1.29,1.69-2.15,2.3-1.25.88-2.94.78-4.35,1.37-.95.4-1.77,1.11-2.78,1.3-1.21.22-2.41-.35-3.63-.38-1.06-.03-2.15.35-3.18.09-1.15-.3-1.92-1.28-2.95-1.81-1.54-.78-3.02-.16-4.04-1.88-.46-.78-.8-1.69-1.55-2.2-.61-.42-1.42-.53-1.97-1.02-.93-.82-.75-2.29-1.07-3.49-.44-1.61-1.87-2.91-2.34-4.44-.11-.35-.16-.7-.15-1.08.03-.79.39-1.54.43-2.33.03-.74-.22-1.47-.26-2.21-.04-1.02.4-1.68.86-2.38h0c.27-.4.54-.81.73-1.29.35-.89.14-2.2.62-3.02.65-1.11,1.92-1.4,2.78-2.34.76-.83,1.1-2.34,2.01-3.02,1.18-.89,2.87-.65,4.26-1.24,1.49-.63,2.7-2.06,4.39-2.28,1.19-.15,2.32.31,3.5.31,1.12,0,2.29-.31,3.36.15.87.37,1.5,1.19,2.38,1.54.95.38,2.11.16,2.97.72.75.48,1.05,1.41,1.65,2.08.79.88,2.03,1.23,2.86,2.08,1.36,1.39.95,3.68,1.89,5.35.11.2.23.38.36.57.19.28.4.56.6.84.43.6.82,1.23.96,1.95.02.07.02.15.04.23.12,1.13-.37,2.25-.44,3.4-.07,1.18.29,2.39-.02,3.54Z"/>
        <path class="cls-4" d="M121.59,22.78c-.34,1.27-1.42,2.05-1.97,3.19-.57,1.18-.47,2.49-1.41,3.54-.68.76-1.65,1.19-2.4,1.89-.77.71-1.29,1.69-2.15,2.3-1.25.88-2.94.78-4.35,1.37-.95.4-1.77,1.11-2.78,1.3-1.21.22-2.41-.35-3.63-.38-1.06-.03-2.15.35-3.18.09-1.15-.3-1.92-1.28-2.95-1.81-1.54-.78-3.02-.16-4.04-1.88-.46-.78-.8-1.69-1.55-2.2-.61-.42-1.42-.53-1.97-1.02-.93-.82-.75-2.29-1.07-3.49-.44-1.61-1.87-2.91-2.34-4.44.24.12.5.23.79.34,1.71.64,2.51.37,3.38,1.28.73.76.59,1.39,1.54,2.15.7.55,1.03.43,1.64.92.93.75.92,1.65,1.33,2.46,1.22,2.42,5.94,3.55,8.92,2.56.72-.24,1.46-.65,2.77-.75,1.33-.1,1.6.24,2.56,0,1.11-.28,1.84-1,2.66-1.82,1.13-1.12.93-1.41,1.85-2.15,1.26-1.03,1.79-.58,2.66-1.45.51-.51.36-.7,1.43-3.37.68-1.69.99-2.23,1.13-2.46.66-1.12,1.32-1.8,1.54-2.05.72-.83,1-2.01,1.07-3.24.43.6.82,1.23.96,1.95.02.07.02.15.04.23.12,1.13-.37,2.25-.44,3.4-.07,1.18.29,2.39-.02,3.54Z"/>
        <path class="cls-3" d="M102.82,2.6c-1.27.04-2.11.39-3.17.65-1.38.35-1.15.05-2.02.35-1.77.6-3.04,1.91-3.4,2.31-.27.29-.32.38-.99,1.11-.96,1.05-1.05,1.08-1.32,1.46-.42.58-1.19,1.65-.89,2.38.26.65,1.24.75,1.85.65.48-.08.86-.3,1.59-.92,1.59-1.35,1.57-1.79,2.64-2.57.92-.68,1.8-.99,2.35-1.19.85-.31,1.89-.55,2.31-.65,1-.24,1.42-.28,1.98-.69.36-.26.95-.69.96-1.34.01-.72-.69-1.22-.76-1.27-.39-.27-.78-.28-1.12-.27Z"/>
        <path class="cls-3" d="M91.35,12.86s-.39-.39-.92-.38c-.34,0-.55.16-1.61,1.02-.57.46-.85.69-.9.74-.62.76-.65,1.65-.67,2.02-.02.53-.03.85.18,1.15.42.59,1.34.59,1.87.49.98-.2,1.51-.99,1.74-1.33.5-.75.57-1.46.61-1.95.06-.68.12-1.33-.31-1.77Z"/>
      </g>
    </g>
  </g>
</svg>