<?xml version="1.0" encoding="UTF-8"?>
<svg id="Capa_2" data-name="Capa 2" xmlns="http://www.w3.org/2000/svg" viewBox="0 0 192.35 278.34">
  <defs>
    <style>
      .cls-1 {
        fill: #3383aa;
      }

      .cls-2 {
        fill: #599dd1;
      }

      .cls-3 {
        fill: #0476af;
      }

      .cls-4 {
        fill: #4291c1;
      }

      .cls-5 {
        fill: #86bfea;
      }

      .cls-6 {
        fill: #6cace4;
      }
    </style>
  </defs>
  <g id="Capa_1-2" data-name="Capa 1">
    <g>
      <g>
        <path class="cls-4" d="M160.84,113.84c-.24,4.4-1.47,8.75-3.77,12.74-8.42,14.59-28.1,19.06-44.33,10.23-.3-.15-.59-.31-.88-.48-1.74-1-3.36-2.12-4.87-3.34-12.7-10.25-16.95-27.4-9.29-40.68,1.44-2.49,3.2-4.69,5.22-6.57,4.94-4.61,11.42-7.37,18.35-8.02,7.12-.68,14.72.85,21.64,4.84,11.13,6.43,17.62,17.57,17.96,28.71.03.86.02,1.72-.03,2.57Z"/>
        <path class="cls-3" d="M130.34,141.89c-5.93,0-12.07-1.5-17.84-4.64-.29-.15-.59-.31-.89-.49-1.71-.98-3.37-2.12-4.93-3.38-13.14-10.61-17.1-27.98-9.41-41.32,1.45-2.5,3.23-4.75,5.31-6.69,4.92-4.59,11.54-7.49,18.64-8.15,7.54-.71,15.12.98,21.94,4.9,10.88,6.28,17.85,17.45,18.21,29.13.03.88.02,1.76-.03,2.62-.25,4.62-1.54,8.98-3.84,12.96-5.62,9.73-16,15.06-27.16,15.06ZM124.61,78.06c-1.1,0-2.2.05-3.29.16-6.89.65-13.3,3.45-18.06,7.89-2.01,1.87-3.73,4.04-5.13,6.45-7.44,12.91-3.59,29.75,9.17,40.04,1.52,1.23,3.14,2.34,4.8,3.29.28.17.56.32.85.47,16.17,8.8,35.35,4.39,43.67-10.03,2.21-3.84,3.46-8.05,3.7-12.52h0c.05-.83.06-1.68.03-2.53-.35-11.34-7.13-22.18-17.71-28.29-5.64-3.25-11.82-4.93-18.05-4.93Z"/>
      </g>
      <g>
        <ellipse class="cls-4" cx="84.69" cy="71.33" rx="31.04" ry="34.28" transform="translate(-19.43 109.01) rotate(-60)"/>
        <path class="cls-3" d="M87.49,103.73c-6.37,0-12.78-1.73-18.58-5.08-8.04-4.64-13.96-11.84-16.67-20.27-2.72-8.45-1.89-17.13,2.32-24.43,4.22-7.31,11.32-12.36,20-14.23,8.66-1.87,17.85-.34,25.89,4.3,8.04,4.64,13.96,11.84,16.67,20.27,2.72,8.45,1.89,17.13-2.32,24.43h0c-4.22,7.31-11.32,12.36-20,14.23-2.41.52-4.86.78-7.32.78ZM81.88,39.94c-2.39,0-4.77.25-7.1.75-8.4,1.81-15.27,6.69-19.34,13.75s-4.87,15.45-2.24,23.63c2.64,8.2,8.4,15.2,16.22,19.71s16.77,6,25.18,4.19c8.4-1.81,15.27-6.69,19.34-13.75s4.87-15.45,2.24-23.63c-2.64-8.2-8.4-15.2-16.22-19.71-5.65-3.26-11.88-4.94-18.08-4.94Z"/>
      </g>
      <g>
        <path class="cls-4" d="M69.82,148.79v27.03c0,5.6-5.4,10.13-12.06,10.13h-6.08c-3.13,0-5.99-1.01-8.13-2.65-2.41-1.85-3.93-4.52-3.93-7.49v-27.03c0-5.6,5.4-10.13,12.06-10.13h6.08c5.75,0,10.56,3.39,11.76,7.91.2.72.3,1.46.3,2.22Z"/>
        <path class="cls-3" d="M57.76,186.32h-6.08c-3.1,0-6.07-.97-8.36-2.72-2.59-1.99-4.08-4.83-4.08-7.78v-27.03c0-5.79,5.58-10.5,12.43-10.5h6.08c5.76,0,10.86,3.44,12.12,8.19.21.74.31,1.52.31,2.32v27.03c0,5.79-5.58,10.5-12.43,10.5ZM51.68,139.03c-6.44,0-11.69,4.38-11.69,9.76v27.03c0,2.72,1.38,5.34,3.78,7.19,2.16,1.66,4.97,2.57,7.9,2.57h6.08c6.44,0,11.69-4.38,11.69-9.76v-27.03c0-.73-.1-1.45-.29-2.12-1.17-4.43-5.97-7.64-11.4-7.64h-6.08Z"/>
      </g>
      <g>
        <path class="cls-4" d="M69.82,101.49v27.04c0,5.6-5.4,10.13-12.06,10.13h-6.08c-3.93,0-7.41-1.58-9.62-4.02-1.53-1.7-2.44-3.82-2.44-6.11v-27.04c0-5.6,5.4-10.13,12.06-10.13h6.08c5.21,0,9.65,2.78,11.34,6.67.47,1.08.72,2.25.72,3.46Z"/>
        <path class="cls-3" d="M57.76,139.03h-6.08c-3.91,0-7.52-1.51-9.9-4.14-1.66-1.84-2.54-4.04-2.54-6.36v-27.04c0-5.79,5.58-10.51,12.43-10.51h6.08c5.19,0,9.89,2.77,11.68,6.89.5,1.15.75,2.36.75,3.61v27.04c0,5.79-5.58,10.51-12.43,10.51ZM51.68,91.73c-6.44,0-11.69,4.38-11.69,9.76v27.04c0,2.13.81,4.16,2.34,5.86,2.24,2.48,5.64,3.9,9.34,3.9h6.08c6.44,0,11.69-4.38,11.69-9.76v-27.04c0-1.15-.23-2.26-.69-3.32-1.68-3.86-6.1-6.45-11-6.45h-6.08Z"/>
      </g>
      <g>
        <path class="cls-4" d="M71.6,53.39v27.03c0,5.6-5.4,10.13-12.07,10.13h-6.07c-3.04,0-5.82-.94-7.93-2.5-2.53-1.85-4.13-4.58-4.13-7.63v-27.03c0-5.6,5.4-10.14,12.06-10.14h6.07c4.49,0,8.4,2.06,10.47,5.11,1.02,1.49,1.6,3.21,1.6,5.04Z"/>
        <path class="cls-3" d="M59.53,90.92h-6.07c-3.01,0-5.91-.92-8.15-2.58-2.72-1.99-4.28-4.88-4.28-7.93v-27.03c0-5.8,5.58-10.52,12.43-10.52h6.07c4.44,0,8.57,2.02,10.78,5.27,1.09,1.59,1.66,3.4,1.66,5.25v27.03c0,5.79-5.58,10.51-12.44,10.51ZM53.46,43.62c-6.44,0-11.69,4.38-11.69,9.77v27.03c0,2.81,1.45,5.48,3.98,7.33,2.12,1.57,4.85,2.43,7.71,2.43h6.07c6.45,0,11.7-4.38,11.7-9.76v-27.03c0-1.7-.53-3.37-1.53-4.83-2.07-3.05-5.96-4.94-10.16-4.94h-6.07Z"/>
      </g>
      <g>
        <path class="cls-4" d="M55.62,231.66c-5.73.22-10.94-3.64-14.13-9.69-1.88-3.55-3.07-7.87-3.25-12.54-.49-12.62,6.48-23.13,15.58-23.47,5.9-.22,11.24,3.88,14.4,10.23,1.73,3.45,2.8,7.56,2.98,12,.5,12.61-6.48,23.13-15.58,23.46Z"/>
        <path class="cls-3" d="M55.15,231.96c-5.47,0-10.65-3.65-13.92-9.85-1.97-3.73-3.11-8.11-3.28-12.66-.24-6.17,1.27-12.03,4.24-16.52,3-4.51,7.12-7.09,11.62-7.27,5.82-.21,11.33,3.67,14.68,10.4,1.79,3.58,2.83,7.77,3.01,12.12.29,7.4-2.02,14.51-6.2,19.02-2.76,2.98-6.1,4.62-9.67,4.76h0c-.16,0-.32,0-.48,0ZM54.28,186.25c-.15,0-.3,0-.45,0-4.3.16-8.26,2.65-11.15,7-2.91,4.38-4.38,10.12-4.14,16.16.17,4.47,1.28,8.76,3.22,12.41,3.26,6.18,8.44,9.77,13.85,9.53h0c3.4-.12,6.6-1.7,9.25-4.57,4.07-4.39,6.33-11.34,6.04-18.59-.17-4.27-1.19-8.37-2.95-11.88-3.15-6.34-8.24-10.08-13.67-10.08Z"/>
      </g>
      <g>
        <path class="cls-4" d="M59.83,230.9l-.42.16c-5.57,2.11-8.58,8.93-6.69,15.15l6.94,22.85c1.89,6.22,7.99,9.59,13.56,7.48l.42-.16c5.57-2.11,8.58-8.93,6.69-15.15l-6.94-22.85c-1.89-6.22-7.99-9.59-13.56-7.48Z"/>
        <path class="cls-3" d="M69.81,277.47c-1.51,0-3.03-.35-4.45-1.05-2.82-1.39-5-4.04-5.99-7.27l-6.94-22.85c-1.94-6.39,1.14-13.35,6.87-15.52l.42-.16c2.6-.99,5.43-.85,7.97.4,2.82,1.39,5,4.04,5.98,7.27l6.94,22.85c1.94,6.39-1.14,13.35-6.87,15.52l-.42.16c-1.15.43-2.33.65-3.52.65ZM63.25,230.57c-1.12,0-2.23.2-3.31.61h0l-.42.16c-5.44,2.06-8.36,8.7-6.51,14.79l6.94,22.85c.93,3.08,3,5.59,5.68,6.91,2.38,1.17,5.04,1.31,7.49.38l.42-.16c5.44-2.06,8.36-8.7,6.51-14.79l-6.94-22.85c-.93-3.07-3-5.59-5.68-6.91-1.34-.66-2.76-.99-4.19-.99Z"/>
      </g>
      <path class="cls-1" d="M160.84,113.84c-.24,4.4-1.47,8.75-3.77,12.74-8.42,14.59-28.1,19.06-44.33,10.23-.3-.15-.59-.31-.88-.48-1.74-1-3.36-2.12-4.87-3.34,3.54,1.25,7.73,2.34,12.47,2.71,16,1.25,30.34-6.32,29.99-8.09-.17-.85-3.65-.07-10.04-1.04-3.16-.49-12.87-1.97-19.56-7.57-9.87-8.25-11.9-24.39-8.61-26.22,3.83-2.13,10.9,17.39,29.61,21.47,8.65,1.89,14.96-.57,19.99-.41Z"/>
      <path class="cls-1" d="M107.72,94.28c-1.45.07-2.84-2.3-4.43-5.02-2.21-3.77-1.84-5.47-3.65-7.89-1.49-1.99-2.96-2.47-6.54-4.37-.88-.47-10.39-5.58-18.28-13.08-2.03-1.93-2.91-3.02-3.62-4.09-2.67-4.01-4.52-9.97-3.13-11.42,3.02-3.14,22.24,26.31,38.15,22.91,1.53-.33,3.49-1.05,5.09,0,5.33,3.5.47,22.76-3.59,22.95Z"/>
      <path class="cls-1" d="M55.62,231.66c-5.73.22-10.94-3.64-14.13-9.69,2.44.5,7.48,3.9,13.23,2.5,6.08-1.47,9.62-7.51,10.34-8.75,3.86-6.56,3.68-14.21,3.16-19.53,1.73,3.45,2.8,7.56,2.98,12,.5,12.61-6.48,23.13-15.58,23.46Z"/>
      <path class="cls-1" d="M69.82,148.79v27.03c0,5.6-5.4,10.13-12.06,10.13h-6.08c-3.13,0-5.99-1.01-8.13-2.65-.05-.19-.05-.36,0-.5.4-1.44,4.89.63,9.78-1.75,4.02-1.94,6.42-5.97,9.66-14.13,3.37-8.5,5.29-15.53,6.54-20.34.2.72.3,1.46.3,2.22Z"/>
      <path class="cls-1" d="M69.82,101.49v27.04c0,5.6-5.4,10.13-12.06,10.13h-6.08c-3.93,0-7.41-1.58-9.62-4.02,2.88-.06,7.85.25,12.48-3.35,1.98-1.54,4.18-4.01,9.61-18.8,2.36-6.44,3.88-11.22,4.95-14.46.47,1.08.72,2.25.72,3.46Z"/>
      <path class="cls-1" d="M71.6,53.39v27.03c0,5.6-5.4,10.13-12.07,10.13h-6.07c-3.04,0-5.82-.94-7.93-2.5.31-3.27,7-2.73,12.75-6.97,10.19-7.53,10.82-25.26,11.72-32.72,1.02,1.49,1.6,3.21,1.6,5.04Z"/>
      <g>
        <path class="cls-6" d="M48.63,69.6v62.02c0,7.58-6.15,13.73-13.73,13.73H14.36c-5.35,0-9.98-3.06-12.24-7.53-.96-1.86-1.49-3.97-1.49-6.2v-62.02c0-7.58,6.15-13.73,13.73-13.73h20.54c6.14,0,11.34,4.03,13.09,9.59.42,1.31.64,2.7.64,4.14Z"/>
        <path class="cls-4" d="M34.9,145.85H14.36c-5.39,0-10.25-2.99-12.69-7.8-1.01-1.96-1.54-4.18-1.54-6.42v-62.02c0-7.85,6.38-14.23,14.23-14.23h20.54c6.24,0,11.7,3.99,13.57,9.94.44,1.37.66,2.82.66,4.29v62.02c0,7.85-6.38,14.23-14.23,14.23ZM14.36,56.37c-7.29,0-13.23,5.93-13.23,13.23v62.02c0,2.09.5,4.15,1.43,5.97,2.26,4.48,6.78,7.26,11.8,7.26h20.54c7.29,0,13.23-5.93,13.23-13.23v-62.02c0-1.37-.21-2.71-.62-3.99-1.74-5.53-6.81-9.24-12.61-9.24H14.36Z"/>
      </g>
      <g>
        <path class="cls-6" d="M43.21,62.84l-10.51-3.94c-5.2-1.95-10.93-1.95-16.13,0l-10.51,3.94c-2.62.98-5.42-.96-5.42-3.76h0c0-1.67,1.04-3.17,2.61-3.76l13.33-5c5.2-1.95,10.93-1.95,16.13,0l13.33,5c1.57.59,2.61,2.09,2.61,3.76h0c0,2.8-2.8,4.74-5.42,3.76Z"/>
        <path class="cls-4" d="M44.61,63.72c-.55,0-1.1-.1-1.63-.3l-10.51-3.94c-5.06-1.9-10.63-1.9-15.69,0l-10.51,3.94c-1.42.54-3.02.34-4.28-.53s-2-2.29-2-3.82c0-1.92,1.21-3.67,3.01-4.35l13.33-5c5.34-2,11.23-2,16.58,0l13.33,5c1.8.68,3.01,2.42,3.01,4.35,0,1.52-.75,2.95-2,3.82-.79.55-1.71.83-2.65.83ZM24.63,56.8c2.81,0,5.62.5,8.29,1.5l10.51,3.94c1.05.4,2.19.25,3.12-.39.93-.64,1.46-1.66,1.46-2.78,0-1.4-.88-2.68-2.2-3.17l-13.33-5c-5.06-1.9-10.63-1.9-15.69,0l-13.33,5c-1.31.49-2.2,1.77-2.2,3.17,0,1.13.53,2.14,1.46,2.78.93.64,2.06.78,3.12.39l10.51-3.94c2.67-1,5.48-1.5,8.29-1.5Z"/>
      </g>
      <path class="cls-4" d="M25.61,49.92c-.24,0-.49-.06-.72-.18-.73-.4-.99-1.31-.59-2.04,1.21-2.21,1.37-4.67.47-7.31-.59-1.74-1.48-3.36-2.43-5.07-.33-.6-.66-1.2-.98-1.8-1.15-2.18-2.46-5.08-2.44-8.21.02-4.1,2.41-8.22,6.24-10.75,3.55-2.35,8.19-3.38,13.78-3.1,2.81.15,5.6.59,8.29,1.02,1.38.22,2.76.44,4.15.62.82.11,1.4.86,1.29,1.68-.11.82-.86,1.4-1.68,1.29-1.41-.18-2.82-.41-4.23-.63-2.62-.42-5.32-.85-7.97-.99-4.94-.26-8.97.62-11.97,2.6-3,1.98-4.88,5.15-4.89,8.26-.01,2.46,1.11,4.92,2.1,6.79.31.58.63,1.16.95,1.74.97,1.76,1.98,3.57,2.65,5.56,1.16,3.42.92,6.78-.69,9.71-.27.5-.79.78-1.32.78Z"/>
      <g>
        <rect class="cls-6" x="13.71" y="234.69" width="21.83" height="42.99" rx="10.69" ry="10.69"/>
        <path class="cls-4" d="M24.85,278.34h-.44c-6.26,0-11.36-5.1-11.36-11.36v-21.6c0-6.26,5.1-11.36,11.36-11.36h.44c6.26,0,11.36,5.1,11.36,11.36v21.6c0,6.26-5.1,11.36-11.36,11.36ZM24.41,235.35c-5.53,0-10.03,4.5-10.03,10.03v21.6c0,5.53,4.5,10.03,10.03,10.03h.44c5.53,0,10.03-4.5,10.03-10.03v-21.6c0-5.53-4.5-10.03-10.03-10.03h-.44Z"/>
      </g>
      <path class="cls-2" d="M48.63,69.6v62.02c0,7.58-6.15,13.73-13.73,13.73H14.36c-5.35,0-9.98-3.06-12.24-7.53,3.01.92,6.88,1.87,11.59,1.01,10.95-2,17.58-12.15,19.53-15.13,4.9-7.51,4.77-12.71,7.56-27.66,1.92-10.31,4.82-22.98,7.19-30.58.42,1.31.64,2.7.64,4.14Z"/>
      <g>
        <path class="cls-6" d="M48.63,159.08v62.02c0,7.58-6.15,13.73-13.73,13.73H14.36c-5.35,0-9.98-3.06-12.24-7.53-.96-1.86-1.49-3.97-1.49-6.2v-62.02c0-7.58,6.15-13.73,13.73-13.73h20.54c6.14,0,11.34,4.03,13.09,9.59.42,1.31.64,2.7.64,4.14Z"/>
        <path class="cls-4" d="M34.9,235.33H14.36c-5.39,0-10.25-2.99-12.69-7.8-1.01-1.96-1.54-4.18-1.54-6.43v-62.02c0-7.85,6.38-14.23,14.23-14.23h20.54c6.24,0,11.7,3.99,13.57,9.94.44,1.37.66,2.82.66,4.29v62.02c0,7.85-6.38,14.23-14.23,14.23ZM14.36,145.85c-7.29,0-13.23,5.93-13.23,13.23v62.02c0,2.09.5,4.15,1.43,5.97,2.26,4.48,6.78,7.26,11.8,7.26h20.54c7.29,0,13.23-5.93,13.23-13.23v-62.02c0-1.37-.21-2.71-.62-3.99-1.74-5.53-6.81-9.24-12.61-9.24H14.36Z"/>
      </g>
      <path class="cls-2" d="M48.63,159.08v62.02c0,7.58-6.15,13.73-13.73,13.73H14.36c-5.35,0-9.98-3.06-12.24-7.53,3.01.92,6.88,1.87,11.59,1.01,10.95-2,17.58-12.15,19.53-15.13,4.9-7.51,4.77-12.71,7.56-27.66,1.92-10.31,4.82-22.98,7.19-30.58.42,1.31.64,2.7.64,4.14Z"/>
      <g>
        <path class="cls-6" d="M128.06,61.4l-7.46,9.91c-5.92,7.85-17.08,9.42-24.93,3.51l-41.13-30.96-1.91-1.44c-7.86-5.92-9.43-17.08-3.52-24.93l7.46-9.91c5.92-7.85,17.08-9.42,24.93-3.51l43.04,32.4c1.8,1.36,3.28,2.99,4.4,4.8,3.79,6.07,3.67,14.08-.88,20.13Z"/>
        <path class="cls-4" d="M106.35,78.89c-3.83,0-7.7-1.2-10.98-3.67l-43.04-32.4c-8.06-6.07-9.69-17.57-3.62-25.63l7.46-9.91c6.07-8.06,17.57-9.67,25.63-3.61l43.04,32.4c1.83,1.38,3.35,3.04,4.52,4.94,3.98,6.37,3.61,14.69-.91,20.69l-7.46,9.91c-3.59,4.77-9.09,7.28-14.65,7.28ZM70.82,1c-5.25,0-10.45,2.38-13.85,6.88l-7.46,9.91c-5.74,7.62-4.2,18.49,3.42,24.23l43.04,32.4c7.62,5.73,18.49,4.2,24.23-3.41l7.46-9.91c4.27-5.68,4.62-13.54.85-19.56-1.11-1.79-2.54-3.36-4.28-4.67L81.2,4.47c-3.11-2.34-6.76-3.47-10.38-3.47Z"/>
      </g>
      <path class="cls-2" d="M128.06,61.4l-7.46,9.91c-5.92,7.85-17.08,9.42-24.93,3.51l-41.13-30.96c5.68,3.19,15.71,9.2,31.72,15.27,10.22,3.88,18.02,5.94,26.22,3.13,1.81-.62,7.72-2.73,11.93-8.41,3.02-4.08,4.15-8.61,4.53-12.58,3.79,6.07,3.67,14.08-.88,20.13Z"/>
      <g>
        <path class="cls-6" d="M191.85,79.87c0,24.2-19.63,43.83-43.83,43.83-18.72,0-34.7-11.74-40.98-28.26-1.84-4.84-2.85-10.09-2.85-15.57,0-24.2,19.63-43.83,43.83-43.83,15.46,0,29.06,8.01,36.85,20.11,4.42,6.84,6.98,14.98,6.98,23.72Z"/>
        <path class="cls-4" d="M148.02,124.2c-18.29,0-34.95-11.49-41.45-28.58-1.91-5.03-2.88-10.33-2.88-15.75,0-24.44,19.89-44.33,44.33-44.33,15.14,0,29.07,7.6,37.27,20.34,4.62,7.15,7.06,15.44,7.06,23.99,0,24.44-19.89,44.33-44.33,44.33ZM148.02,36.54c-23.89,0-43.33,19.44-43.33,43.33,0,5.29.95,10.47,2.82,15.39,6.35,16.71,22.63,27.94,40.51,27.94,23.89,0,43.33-19.44,43.33-43.33,0-8.35-2.39-16.46-6.9-23.45-8.02-12.45-21.63-19.88-36.43-19.88Z"/>
      </g>
      <path class="cls-2" d="M191.85,79.87c0,24.2-19.63,43.83-43.83,43.83-18.72,0-34.7-11.74-40.98-28.26,4.13,2.62,9.47,5.72,16.2,7.78,3.99,1.22,22.13,6.77,38.61-2.61,14.81-8.43,19.57-23.99,20.74-27.78,1.88-6.13,2.34-11.86,2.28-16.68,4.42,6.84,6.98,14.98,6.98,23.72Z"/>
      <path class="cls-5" d="M13.47,147.9c-2.49-.34-4.88,1.81-6.43,3.51-1.73,1.91-2.98,4.27-3.53,6.79-.06.27-.1.58.06.8.18.23.51.26.8.24,1.54-.15,2.74-1.38,3.63-2.63.9-1.26,1.69-2.66,2.98-3.51.91-.59,1.99-.85,2.93-1.37.83-.46,1.62-1.28,1.49-2.22-.1-.77-.81-1.35-1.57-1.53-.12-.03-.25-.05-.37-.07Z"/>
      <path class="cls-5" d="M4.69,163.69c.03-.69.08-1.69-.54-2.49-.17-.22-.41-.54-.69-.51-.48.04-.76,1.02-.94,1.71-.25.94-.87,3.23.15,4.01.05.04.41.31.8.22.47-.11.68-.69.89-1.25.27-.72.33-1.34.34-1.69Z"/>
      <path class="cls-5" d="M4,72.27c.21-.94.52-1.85.94-2.72.99-2.04,2.6-3.82,4.62-4.86,2.28-1.17,4.98-2.3,7.56-2.48.78-.05,1.62,0,2.25.45.77.54,1.09,1.57.96,2.49s-.65,1.76-1.28,2.45c-2.82,3.08-7.72,3.69-10.28,6.99-.69.89-1.17,1.92-1.64,2.94-.22.47-.45.94-.81,1.31-.36.36-.9.6-1.4.47-.84-.21-1.13-1.24-1.21-2.1-.16-1.65-.08-3.33.29-4.94Z"/>
      <path class="cls-5" d="M5.67,83.91c.19-1.34.15-1.65,0-1.96-.2-.42-.66-.98-1.12-.93-.69.07-1,1.46-1.17,2.2-.14.61-.66,2.87.27,3.38.4.22.97.05,1.3-.2.19-.14.44-.4.73-2.49Z"/>
      <path class="cls-5" d="M73.43,3.38c-1.07-.56-2.36-.67-3.58-.62-3.18.13-8.17,1.15-9.01,4.82-.05.22-.08.45-.01.67.27.82,1.47.54,2.26.2,3.26-1.41,6.99-1.05,10.49-1.67.37-.06.75-.15,1.03-.39.75-.65.28-1.93-.49-2.56-.21-.17-.44-.32-.68-.44Z"/>
      <path class="cls-5" d="M156.52,40.33c-.1-.31-.68-1.6-8.9-1.27-10.83.43-15.27,2.89-16.92,3.91-3.67,2.27-3.83,3.8-3.82,4.4.04,1.23.99,2.48,2.15,2.93,1.37.53,2.49-.26,5.67-1.66,2.32-1.03,4.63-2.04,7.43-2.74,1.3-.32,3.74-.83,6.46-1.17,0,0,1.3-.16,3.91-.78,1.54-.36,2.21-.59,2.84-1.17.57-.53,1.42-1.66,1.17-2.45Z"/>
      <path class="cls-5" d="M120.29,52.17c-1.93-.8-5.02,1.69-6.07,4.5-.92,2.46-.51,5.81.91,6.33,1.48.54,3.61-2.12,4.89-3.72,1.19-1.48,2.12-2.69,1.96-4.3-.1-.94-.6-2.35-1.7-2.8Z"/>
    </g>
  </g>
</svg>