<?xml version="1.0" encoding="UTF-8"?>
<svg id="Capa_2" data-name="Capa 2" xmlns="http://www.w3.org/2000/svg" viewBox="0 0 166.57 595.04">
  <defs>
    <style>
      .cls-1 {
        fill: #6eaadd;
      }

      .cls-2 {
        fill: #5c9dd1;
      }

      .cls-3 {
        fill: #86bde7;
      }

      .cls-4 {
        fill: #4690c0;
      }
    </style>
  </defs>
  <g id="Capa_1-2" data-name="Capa 1">
    <g>
      <g>
        <path class="cls-1" d="M159.64,149.42c-.85,1-1.57,1.65-14.67,8.71-13.33,7.19-15.34,8-18.33,8.71-3.96.94-11.66,2.37-19.33,3.85-6.11,1.18-10.5,6.57-10.43,12.79l.32,29.53c.39,35.24,11.85,70.56,16.7,105.38,5.18,37.1,8.14,74.51,8.88,111.97.57,28.89-.18,57.8-2.26,86.62-.38,5.29-.61,47.66-4.57,67.05-.54,2.64-1.91,4.94-3.81,6.66-1.9,1.73-4.33,2.87-7.01,3.18-6.65.76-12.5-3.52-14.17-9.52-.44-1.54-.6-3.2-.42-4.91,5.64-54.49,10.53-107.72,7.97-162.86-1.88-40.4-3.78-81.03-12.24-120.58-6.85-32-13.07-61.4-14.45-94.16-.26-6.18-.52-12.37-.79-18.55-.12-2.74-2.12-4.98-4.8-5.53-.02-.01-.03-.01-.05-.01-12.45-2.59-19-5.62-27.17-15.36-3.7-4.41-7.24-9-11.37-13.03-3.83-3.73-8.5-5.87-12.49-9.23-9.57-8.07-13.09-21.47-12.73-33.98.17-6.22.47-16.4.3-22.62-.13-4.99.85-9.34-.46-14.48-2.57-10.03-1.08-21.41,6.9-28.73,5.82-5.32,9.7-8.47,15.76-13.52,6.37-5.32,12.06-11.56,19.17-15.94,9.99-6.17,26.43-13.72,37.05-7.45,8.12,4.79.51,13.19.1,16.74-.47,4.12,3.38,7.24,5.56,10.76.59.95,1.05,1.94,1.41,2.95,2.4,6.79.01,14.85-2.51,21.89-4.43,12.3-6.45,25.71,7.21,32.47,5.87,2.9,12.59,4.84,16.83,9.84,5.91,6.97,5.35,18.03,11.86,24.44,3.17,3.11,7.57,4.63,11.93,5.47,5.78,1.13,11.76,1.23,17.58.32,3.71-.58,9.21-3.44,12.42-.18,4.1,4.17,1.41,15.06-3.89,21.31Z"/>
        <path class="cls-4" d="M103.59,595.04c-6.34,0-11.94-4.17-13.68-10.4-.49-1.72-.64-3.51-.45-5.31,5.65-54.54,10.5-108.03,7.96-162.7-1.85-39.77-3.76-80.89-12.22-120.4-6.72-31.4-13.07-61.06-14.47-94.34-.26-6.18-.52-12.37-.79-18.55-.1-2.2-1.72-4.06-3.94-4.52l-.15-.03c-12.16-2.54-19.06-5.42-27.69-15.7-.84-1-1.67-2.01-2.5-3.02-2.77-3.37-5.64-6.85-8.79-9.93-2.08-2.02-4.49-3.62-6.83-5.15-1.87-1.23-3.81-2.51-5.6-4.02-8.76-7.39-13.54-20.08-13.11-34.84l.03-1.08c.17-6.23.43-15.64.27-21.48-.04-1.68.04-3.29.11-4.85.15-3.14.3-6.1-.54-9.39-3.01-11.75-.31-22.89,7.22-29.79,5.05-4.61,8.57-7.54,13.44-11.59l2.36-1.97c2.07-1.73,4.11-3.6,6.09-5.4,4.1-3.75,8.34-7.63,13.21-10.63,7.46-4.61,26.13-14.57,38.17-7.46,6.87,4.05,3.76,10.62,1.9,14.54-.61,1.29-1.19,2.51-1.27,3.25-.29,2.53,1.43,4.74,3.25,7.08.75.96,1.52,1.95,2.16,2.99.6.96,1.11,2.02,1.51,3.16,2.44,6.9.23,14.95-2.51,22.62-5.88,16.34-3.83,25.94,6.67,31.14,1.4.69,2.9,1.35,4.34,1.98,4.65,2.04,9.46,4.15,12.83,8.13,2.95,3.48,4.35,7.9,5.71,12.17,1.47,4.64,2.87,9.03,6.08,12.2,2.55,2.5,6.27,4.2,11.38,5.18,5.67,1.11,11.46,1.21,17.21.31.85-.13,1.84-.4,2.88-.69,3.39-.93,7.61-2.09,10.48.82,4.6,4.68,1.66,16.28-3.84,22.77h0c-.96,1.13-1.39,1.64-14.98,8.96-13.13,7.08-15.37,8.05-18.59,8.81-3.2.76-8.87,1.84-14.86,2.99l-4.51.87c-5.6,1.08-9.62,6.01-9.55,11.72l.32,29.53c.24,22.08,4.93,44.55,9.46,66.29,2.67,12.79,5.42,26.01,7.23,38.95,5.16,36.95,8.15,74.67,8.89,112.1.57,28.85-.19,58.03-2.26,86.72-.08,1.08-.15,3.79-.25,7.54-.38,14.35-1.18,44.2-4.34,59.65-.57,2.8-2.01,5.31-4.14,7.24-2.12,1.93-4.75,3.12-7.61,3.45-.56.06-1.11.09-1.66.09ZM66.56,176.73c3.13.7,5.4,3.36,5.54,6.52.27,6.18.53,12.37.79,18.55,1.39,33.1,7.73,62.67,14.43,93.98,8.49,39.69,10.41,80.9,12.26,120.76,2.54,54.82-2.32,108.39-7.97,163.02-.16,1.53-.03,3.04.38,4.5,1.6,5.75,7.07,9.43,13.01,8.74,2.41-.28,4.62-1.28,6.41-2.91,1.8-1.63,3-3.73,3.48-6.08,3.12-15.26,3.91-44.99,4.3-59.27.1-3.78.17-6.51.26-7.64,2.07-28.63,2.83-57.74,2.26-86.52-.74-37.34-3.72-74.97-8.87-111.84-1.79-12.87-4.54-26.05-7.2-38.81-4.55-21.84-9.26-44.42-9.51-66.71l-.32-29.53c-.08-6.75,4.68-12.58,11.31-13.86l4.52-.87c5.97-1.14,11.61-2.22,14.77-2.97,2.84-.67,4.87-1.49,18.07-8.61,12.64-6.81,13.62-7.59,14.36-8.46h0c5.28-6.23,7.31-16.43,3.94-19.85-1.98-2.01-5.22-1.11-8.36-.25-1.1.3-2.15.59-3.12.74-6,.94-12.04.83-17.95-.33-5.53-1.07-9.62-2.95-12.48-5.76-3.6-3.55-5.14-8.4-6.63-13.09-1.35-4.25-2.62-8.27-5.3-11.42-3.05-3.59-7.42-5.51-12.05-7.55-1.47-.64-2.98-1.31-4.43-2.02-15.16-7.5-11.68-22.89-7.75-33.81,2.61-7.29,4.72-14.9,2.51-21.16-.35-.98-.79-1.91-1.31-2.74-.58-.94-1.28-1.84-2.03-2.8-2-2.58-4.08-5.25-3.69-8.65.13-1.1.75-2.41,1.47-3.93,2.34-4.93,3.74-8.93-1.04-11.76-11.02-6.51-28.8,3.03-35.93,7.44-4.69,2.89-8.86,6.7-12.88,10.38-1.99,1.82-4.05,3.71-6.16,5.47l-2.37,1.97c-4.85,4.03-8.35,6.94-13.36,11.52C2.95,47.48.49,57.82,3.3,68.78c.92,3.61.76,6.88.6,10.03-.07,1.52-.15,3.09-.11,4.69.16,5.9-.1,15.35-.27,21.6l-.03,1.08c-.41,14.09,4.09,26.17,12.35,33.12,1.7,1.43,3.58,2.67,5.4,3.87,2.42,1.59,4.92,3.24,7.15,5.41,3.24,3.16,6.14,6.69,8.95,10.1.83,1.01,1.66,2.01,2.49,3.01,8.21,9.79,14.81,12.54,26.45,14.97h.15l.13.06Z"/>
      </g>
      <path class="cls-2" d="M159.64,149.42c-.85,1-1.57,1.65-14.67,8.71-13.33,7.19-15.34,8-18.33,8.71-3.96.94-11.66,2.37-19.33,3.85-6.11,1.18-10.5,6.57-10.43,12.79l.32,29.53c.39,35.24,11.85,70.56,16.7,105.38,5.18,37.1,8.14,74.51,8.88,111.97.57,28.89-.18,57.8-2.26,86.62-.38,5.29-.61,47.66-4.57,67.05-.54,2.64-1.91,4.94-3.81,6.66-1.9,1.73-4.33,2.87-7.01,3.18-6.65.76-12.5-3.52-14.17-9.52,2.87-.13,5.87-.79,8.76-2.81,4.22-2.95,6.46-7.57,9.13-20.34,4.46-21.31,4.64-39.09,4.7-48.53.11-20.51.16-30.77,0-35.74-2.2-64.75,1.88-65.76-1.05-104.08-2.88-37.78-4.79-62.82-14.22-93.39-3-9.77-8.77-26.54-10.95-50.48-.93-10.22,2.24-25.89,0-37.76-.59-3.09-1.97-8.62-1.37-15.46.25-2.91.74-4.59.59-8.22-.18-4.33-4.27-10.95-3.24-12.52,1.75-2.69,9.91,2.84,11.9,2.94,4.36.22,5.52,1.69,9.14,2.34,3.56.65,5.72-.2,13.11-2.37,12.45-3.66,10-2.34,17.8-4.87,11.89-3.84,14.89-4.25,18.59-7.04,2.17-1.64,4.88-4.15,6.07-8.02.41-1.37,1.28-4.21,0-6.07-1.56-2.24-5.71-.76-12.72,0-4.73.52-10.3,1.13-15.65.13-1.83-.34-11.61-2.16-16.7-9.78-4.02-6.02-1.08-9.6-4.3-16.04-4.39-8.75-20.65-13.65-25.96-17.94-11.1-8.95-7.17-35.89,3.62-54.44,2.4,6.79.01,14.85-2.51,21.89-4.43,12.3-6.45,25.71,7.21,32.47,5.87,2.9,12.59,4.84,16.83,9.84,5.91,6.97,5.35,18.03,11.86,24.44,3.17,3.11,7.57,4.63,11.93,5.47,5.78,1.13,11.76,1.23,17.58.32,3.71-.58,9.21-3.44,12.42-.18,4.1,4.17,1.41,15.06-3.89,21.31Z"/>
      <path class="cls-3" d="M68.74,7.3c-3.11-1.63-6.66-.04-13.5,3.13-4.55,2.11-8.04,3.73-12.33,7.04-5.71,4.41-5.01,5.79-12.13,12.33-5.99,5.5-12.13,9.98-12.13,9.98-4.76,3.47-7.29,4.83-9,8.41-.56,1.18-2.57,5.37-.78,8.8,2.35,4.5,9.59,4.5,12.52,4.5,2.03,0,6.05-.05,10.17-2.35,4.29-2.39,6.77-6.78,11.54-15.46,4.34-7.89,4.37-9.6,7.63-12.72,3.65-3.49,8.41-6.07,8.41-6.07,3.53-1.91,4.44-1.7,7.04-3.52,2.46-1.72,6.35-4.43,6.26-8.22-.05-2.32-1.59-4.75-3.72-5.87Z"/>
      <path class="cls-3" d="M26.28,78.98c-.03-1.12-.13-4.33-2.61-6.78-.33-.32-2.78-2.67-6.39-2.48-.38.02-2.02.14-3.78,1.17-3.49,2.05-4.51,5.97-4.96,7.7-.27,1.04-.35,1.79-.52,3.65-.65,7.23-.97,10.85-.65,12.52.33,1.75,1.17,6.1,4.83,8.87.32.24,4.39,3.25,6.78,1.83,1.56-.93,1.02-2.94,2.22-8.87.74-3.68,1.7-6.61,2.22-8.22,1.92-5.9,2.96-6.54,2.87-9.39Z"/>
    </g>
  </g>
</svg>