<?xml version="1.0" encoding="UTF-8"?>
<svg id="Capa_2" data-name="Capa 2" xmlns="http://www.w3.org/2000/svg" viewBox="0 0 346.27 596.3">
  <defs>
    <style>
      .cls-1 {
        fill: #a2a0a0;
      }

      .cls-2 {
        fill: #b0b0af;
      }

      .cls-3 {
        fill: #878585;
      }

      .cls-4 {
        fill: #c4c1c2;
      }
    </style>
  </defs>
  <g id="Capa_1-2" data-name="Capa 1">
    <g>
      <g>
        <g>
          <path class="cls-2" d="M159.63,150.68c-.85,1-1.57,1.65-14.67,8.71-13.33,7.19-15.34,8-18.33,8.71-3.96.94-11.66,2.37-19.33,3.85-6.11,1.18-10.5,6.57-10.43,12.79l.32,29.53c.39,35.24,11.85,70.56,16.7,105.38,5.18,37.1,8.14,74.51,8.88,111.97.57,28.89-.18,57.8-2.26,86.62-.38,5.29-.61,47.66-4.57,67.05-.54,2.64-1.91,4.94-3.81,6.66-1.9,1.73-4.33,2.87-7.01,3.18-6.65.76-12.5-3.52-14.17-9.52-.44-1.54-.6-3.2-.42-4.91,5.64-54.49,10.53-107.72,7.97-162.86-1.88-40.4-3.78-81.03-12.24-120.58-6.85-32-13.07-61.4-14.45-94.16-.26-6.18-.52-12.37-.79-18.55-.12-2.74-2.12-4.98-4.8-5.53-.02-.01-.03-.01-.05-.01-12.45-2.59-19-5.62-27.17-15.36-3.7-4.41-7.24-9-11.37-13.03-3.83-3.73-8.5-5.87-12.49-9.23-9.57-8.07-13.09-21.47-12.73-33.98.17-6.22.47-16.4.3-22.62-.13-4.99.85-9.34-.46-14.48-2.57-10.03-1.08-21.41,6.9-28.73,5.82-5.32,9.7-8.47,15.76-13.52,6.37-5.32,12.06-11.56,19.17-15.94,9.99-6.17,26.43-13.72,37.05-7.45,8.12,4.79.51,13.19.1,16.74-.47,4.12,3.38,7.24,5.56,10.76.59.95,1.05,1.94,1.41,2.95,2.4,6.79.01,14.85-2.51,21.89-4.43,12.3-6.45,25.71,7.21,32.47,5.87,2.9,12.59,4.84,16.83,9.84,5.91,6.97,5.35,18.03,11.86,24.44,3.17,3.11,7.57,4.63,11.93,5.47,5.78,1.13,11.76,1.23,17.58.32,3.71-.58,9.21-3.44,12.42-.18,4.1,4.17,1.41,15.06-3.89,21.31Z"/>
          <path class="cls-3" d="M103.59,596.3c-6.34,0-11.94-4.17-13.68-10.4-.49-1.71-.64-3.5-.45-5.31,5.65-54.55,10.5-108.04,7.96-162.7-1.85-39.76-3.76-80.88-12.22-120.4-6.72-31.4-13.07-61.06-14.47-94.34l-.09-2.23c-.23-5.44-.46-10.89-.7-16.32-.1-2.2-1.72-4.06-3.94-4.52l-.15-.03c-12.16-2.54-19.06-5.42-27.68-15.7-.84-1-1.67-2.01-2.51-3.03-2.77-3.37-5.64-6.85-8.79-9.92-2.08-2.03-4.49-3.62-6.83-5.16-1.87-1.23-3.81-2.51-5.6-4.02-8.76-7.39-13.54-20.08-13.11-34.84l.03-1.06c.17-6.23.43-15.65.27-21.5-.04-1.68.04-3.29.11-4.85.15-3.14.3-6.1-.54-9.39-3.01-11.75-.31-22.89,7.22-29.79,5.05-4.62,8.57-7.54,13.44-11.59l2.35-1.96c2.07-1.73,4.11-3.6,6.08-5.4,4.1-3.75,8.34-7.63,13.21-10.63,7.46-4.61,26.13-14.57,38.17-7.46,6.87,4.05,3.76,10.62,1.9,14.54-.61,1.29-1.19,2.51-1.27,3.25-.29,2.53,1.43,4.74,3.25,7.08.75.96,1.52,1.95,2.16,2.99.6.96,1.11,2.03,1.51,3.16,2.44,6.9.23,14.95-2.51,22.62-5.88,16.34-3.83,25.94,6.67,31.14,1.41.69,2.9,1.35,4.34,1.98,4.65,2.04,9.46,4.15,12.83,8.13,2.95,3.48,4.35,7.9,5.71,12.17,1.47,4.64,2.87,9.03,6.08,12.2,2.55,2.5,6.27,4.2,11.38,5.18,5.67,1.11,11.46,1.21,17.21.31.85-.13,1.84-.4,2.88-.69,3.39-.93,7.61-2.09,10.48.82,4.6,4.68,1.66,16.28-3.84,22.77h0c-.96,1.13-1.39,1.64-14.98,8.96-13.13,7.08-15.37,8.05-18.59,8.81-3.2.76-8.85,1.84-14.84,2.99l-4.54.87c-5.6,1.08-9.62,6.01-9.55,11.72l.32,29.53c.24,22.08,4.93,44.55,9.46,66.29,2.67,12.79,5.42,26.01,7.23,38.95,5.16,36.95,8.15,74.67,8.89,112.1.57,28.86-.19,58.03-2.26,86.72-.08,1.08-.15,3.79-.25,7.54-.38,14.35-1.18,44.2-4.34,59.65-.57,2.8-2.01,5.31-4.14,7.25-2.12,1.93-4.75,3.12-7.61,3.45-.56.06-1.11.09-1.66.09ZM66.57,177.99c3.13.7,5.4,3.36,5.54,6.51.24,5.44.47,10.89.7,16.33l.09,2.23c1.39,33.09,7.72,62.67,14.43,93.98,8.49,39.7,10.41,80.9,12.26,120.76,2.54,54.81-2.32,108.39-7.97,163.02-.16,1.53-.03,3.05.38,4.5,1.6,5.75,7.08,9.43,13.01,8.74,2.41-.28,4.62-1.28,6.41-2.91,1.8-1.63,3-3.73,3.48-6.08,3.12-15.26,3.91-44.99,4.29-59.27.1-3.78.17-6.51.26-7.64,2.07-28.62,2.83-57.73,2.26-86.52-.74-37.35-3.72-74.97-8.87-111.84-1.79-12.87-4.54-26.05-7.2-38.81-4.55-21.84-9.26-44.42-9.51-66.71l-.32-29.53c-.08-6.75,4.68-12.58,11.31-13.86l4.54-.87c5.96-1.14,11.59-2.22,14.74-2.97,2.84-.67,4.87-1.49,18.07-8.61,12.64-6.81,13.62-7.59,14.36-8.46,5.28-6.23,7.31-16.43,3.94-19.85-1.98-2.01-5.22-1.11-8.37-.25-1.1.3-2.15.59-3.12.74-6.01.94-12.04.83-17.95-.33-5.53-1.07-9.62-2.95-12.48-5.76-3.6-3.55-5.14-8.4-6.63-13.09-1.35-4.25-2.62-8.27-5.3-11.42-3.05-3.59-7.42-5.51-12.05-7.55-1.47-.64-2.98-1.31-4.43-2.02-15.16-7.5-11.68-22.89-7.75-33.81,2.61-7.29,4.72-14.9,2.51-21.16-.35-.98-.79-1.91-1.31-2.74-.58-.94-1.28-1.84-2.03-2.8-2-2.58-4.08-5.25-3.69-8.65.13-1.1.75-2.41,1.47-3.93,2.34-4.93,3.74-8.93-1.04-11.76-11.03-6.51-28.8,3.03-35.93,7.44-4.69,2.89-8.86,6.7-12.89,10.38-1.99,1.82-4.05,3.71-6.16,5.47l-2.36,1.96c-4.85,4.03-8.35,6.94-13.37,11.53C2.95,48.74.49,59.08,3.3,70.04c.92,3.61.76,6.88.6,10.03-.07,1.52-.15,3.08-.11,4.69.16,5.91-.1,15.36-.27,21.62l-.03,1.06c-.41,14.09,4.09,26.17,12.35,33.12,1.7,1.43,3.58,2.67,5.4,3.87,2.42,1.59,4.92,3.24,7.15,5.41,3.24,3.16,6.14,6.69,8.95,10.1.83,1.01,1.66,2.01,2.49,3.01,8.21,9.79,14.81,12.54,26.45,14.97h.16l.13.06Z"/>
        </g>
        <path class="cls-1" d="M159.63,150.68c-.85,1-1.57,1.65-14.67,8.71-13.33,7.19-15.34,8-18.33,8.71-3.96.94-11.66,2.37-19.33,3.85-6.11,1.18-10.5,6.57-10.43,12.79l.32,29.53c.39,35.24,11.85,70.56,16.7,105.38,5.18,37.1,8.14,74.51,8.88,111.97.57,28.89-.18,57.8-2.26,86.62-.38,5.29-.61,47.66-4.57,67.05-.54,2.64-1.91,4.94-3.81,6.66-1.9,1.73-4.33,2.87-7.01,3.18-6.65.76-12.5-3.52-14.17-9.52,2.87-.13,5.87-.79,8.76-2.81,4.22-2.95,6.46-7.57,9.13-20.34,4.46-21.31,4.64-39.09,4.7-48.53.11-20.51.16-30.77,0-35.74-2.2-64.75,1.88-65.76-1.05-104.08-2.88-37.78-4.79-62.82-14.22-93.39-3-9.77-8.77-26.54-10.95-50.48-.93-10.22,2.24-25.89,0-37.76-.59-3.09-1.97-8.62-1.37-15.46.25-2.91.74-4.59.59-8.22-.18-4.33-4.27-10.95-3.24-12.52,1.75-2.69,9.91,2.84,11.9,2.94,4.36.22,5.52,1.69,9.14,2.34,3.56.65,5.72-.2,13.11-2.37,12.45-3.66,10-2.34,17.8-4.87,11.89-3.84,14.89-4.25,18.59-7.04,2.17-1.64,4.88-4.15,6.07-8.02.41-1.37,1.28-4.21,0-6.07-1.56-2.24-5.71-.76-12.72,0-4.73.52-10.3,1.13-15.65.13-1.83-.34-11.61-2.16-16.7-9.78-4.02-6.02-1.08-9.6-4.3-16.04-4.39-8.75-20.65-13.65-25.96-17.94-11.1-8.95-7.17-35.89,3.62-54.44,2.4,6.79.01,14.85-2.51,21.89-4.43,12.3-6.45,25.71,7.21,32.47,5.87,2.9,12.59,4.84,16.83,9.84,5.91,6.97,5.35,18.03,11.86,24.44,3.17,3.11,7.57,4.63,11.93,5.47,5.78,1.13,11.76,1.23,17.58.32,3.71-.58,9.21-3.44,12.42-.18,4.1,4.17,1.41,15.06-3.89,21.31Z"/>
        <path class="cls-4" d="M68.74,8.57c-3.11-1.63-6.66-.04-13.5,3.13-4.55,2.11-8.04,3.73-12.33,7.04-5.71,4.41-5.01,5.79-12.13,12.33-5.99,5.5-12.13,9.98-12.13,9.98-4.76,3.47-7.29,4.83-9,8.41-.56,1.18-2.57,5.37-.78,8.8,2.35,4.5,9.59,4.5,12.52,4.5,2.03,0,6.05-.05,10.17-2.35,4.29-2.39,6.77-6.78,11.54-15.46,4.34-7.89,4.37-9.6,7.63-12.72,3.65-3.49,8.41-6.07,8.41-6.07,3.53-1.91,4.44-1.7,7.04-3.52,2.46-1.72,6.35-4.43,6.26-8.22-.05-2.32-1.59-4.75-3.72-5.87Z"/>
        <path class="cls-4" d="M26.28,80.24c-.03-1.12-.13-4.33-2.61-6.78-.33-.32-2.78-2.67-6.39-2.48-.38.02-2.02.14-3.78,1.17-3.49,2.05-4.51,5.97-4.96,7.7-.27,1.04-.35,1.79-.52,3.65-.65,7.23-.97,10.85-.65,12.52.33,1.75,1.17,6.1,4.83,8.87.32.24,4.39,3.25,6.78,1.83,1.56-.93,1.02-2.94,2.22-8.87.74-3.68,1.7-6.61,2.22-8.22,1.92-5.9,2.96-6.54,2.87-9.39Z"/>
      </g>
      <g>
        <path class="cls-2" d="M344.02,69.05c-1.31,5.14-.33,9.49-.46,14.48-.17,6.22.13,16.4.3,22.62.36,12.51-3.16,25.91-12.73,33.98-3.99,3.36-8.66,5.5-12.49,9.23-4.13,4.03-7.67,8.62-11.37,13.03-8.17,9.74-14.72,12.77-27.17,15.36-.02,0-.03,0-.05.01-2.68.55-4.68,2.79-4.8,5.53-.27,6.18-.53,12.37-.79,18.55-1.38,32.76-7.6,62.16-14.45,94.16-8.46,39.55-10.36,80.18-12.24,120.58-2.56,55.14,2.33,108.37,7.97,162.86.18,1.71.02,3.37-.42,4.91-1.67,6-7.52,10.28-14.17,9.52-2.68-.31-5.11-1.45-7.01-3.18-1.9-1.72-3.27-4.02-3.81-6.66-.18-.87-.35-1.78-.51-2.73-3.47-20.37-3.7-59.27-4.06-64.32-2.08-28.82-2.83-57.73-2.26-86.62.74-37.46,3.7-74.87,8.88-111.97,4.85-34.82,16.31-70.14,16.7-105.38l.32-29.53c.07-6.22-4.32-11.61-10.43-12.79-7.67-1.48-15.37-2.91-19.33-3.85-2.99-.71-5-1.52-18.33-8.71-13.1-7.06-13.82-7.71-14.67-8.71-5.3-6.25-7.99-17.14-3.89-21.31,3.21-3.26,8.71-.4,12.42.18,5.82.91,11.8.81,17.58-.32,4.36-.84,8.76-2.36,11.93-5.47,6.51-6.41,5.95-17.47,11.86-24.44,4.24-5,10.96-6.94,16.83-9.84,13.66-6.76,11.64-20.17,7.21-32.47-2.52-7.04-4.91-15.1-2.51-21.89.36-1.01.82-2,1.41-2.95,2.18-3.52,6.03-6.64,5.56-10.76-.41-3.55-8.02-11.95.1-16.74,10.62-6.27,27.06,1.28,37.05,7.45,5.69,3.5,10.47,8.2,15.41,12.66,1.24,1.12,2.48,2.22,3.76,3.28,6.06,5.05,9.94,8.2,15.76,13.52,7.98,7.32,9.47,18.7,6.9,28.73Z"/>
        <path class="cls-3" d="M242.69,595.04c-.55,0-1.1-.03-1.66-.09-2.86-.33-5.5-1.53-7.62-3.46-2.13-1.93-3.57-4.44-4.14-7.24-.18-.88-.35-1.8-.52-2.77-2.73-16.02-3.47-43.65-3.82-56.93-.1-3.73-.17-6.42-.25-7.5-2.07-28.69-2.83-57.87-2.26-86.72.74-37.43,3.73-75.14,8.89-112.1,1.8-12.94,4.56-26.16,7.23-38.95,4.53-21.74,9.22-44.21,9.46-66.29l.32-29.53c.06-5.71-3.96-10.64-9.55-11.72l-4.51-.87c-6-1.15-11.66-2.23-14.86-2.99-3.22-.76-5.47-1.73-18.59-8.81-13.59-7.32-14.02-7.84-14.98-8.96-5.5-6.49-8.44-18.09-3.84-22.77,2.87-2.91,7.09-1.75,10.48-.82,1.04.29,2.03.56,2.88.69,5.76.9,11.54.79,17.21-.31,5.11-.98,8.83-2.68,11.38-5.18,3.22-3.17,4.61-7.56,6.08-12.2,1.35-4.27,2.75-8.68,5.71-12.17,3.37-3.97,8.18-6.09,12.84-8.13,1.44-.63,2.93-1.29,4.34-1.98,10.5-5.19,12.55-14.8,6.67-31.13-2.75-7.67-4.95-15.72-2.51-22.62.4-1.13.91-2.19,1.51-3.16.64-1.03,1.41-2.02,2.16-2.98,1.82-2.34,3.54-4.55,3.25-7.08-.09-.74-.66-1.96-1.27-3.25-1.86-3.93-4.97-10.49,1.9-14.54,12.04-7.11,30.7,2.85,38.17,7.46,4.87,2.99,9.11,6.88,13.21,10.63.78.72,1.57,1.43,2.35,2.14,1.09.98,2.38,2.14,3.73,3.25l2.37,1.98c4.87,4.05,8.38,6.97,13.43,11.58,7.53,6.91,10.23,18.05,7.22,29.79h0c-.84,3.29-.69,6.25-.54,9.39.08,1.56.16,3.17.11,4.85-.16,5.84.1,15.24.27,21.46l.03,1.1c.42,14.75-4.36,27.45-13.11,34.84-1.8,1.51-3.73,2.79-5.6,4.02-2.33,1.54-4.75,3.13-6.83,5.16-3.15,3.07-6.01,6.55-8.78,9.92-.83,1.01-1.67,2.03-2.51,3.03-8.65,10.31-15.56,13.18-27.78,15.72l-.11.02c-2.19.48-3.78,2.32-3.88,4.51-.26,5.96-.51,11.93-.76,17.89l-.03.66c-1.4,33.28-7.75,62.94-14.47,94.34-8.45,39.51-10.37,80.63-12.22,120.4-2.54,54.67,2.32,108.16,7.97,162.7.19,1.8.04,3.59-.46,5.32-1.73,6.23-7.33,10.39-13.67,10.39ZM186.81,127.66c-1.27,0-2.41.32-3.29,1.21-3.36,3.42-1.34,13.63,3.94,19.85.74.87,1.72,1.65,14.36,8.46,13.2,7.12,15.23,7.94,18.07,8.61,3.16.75,8.8,1.83,14.77,2.97l4.52.87c6.63,1.28,11.38,7.11,11.31,13.86l-.32,29.53c-.25,22.29-4.96,44.87-9.51,66.71-2.66,12.75-5.41,25.94-7.2,38.81-5.15,36.87-8.13,74.5-8.87,111.84-.57,28.79.19,57.9,2.26,86.52.08,1.12.15,3.84.25,7.59.35,13.23,1.09,40.75,3.79,56.62.16.94.33,1.84.5,2.69.48,2.35,1.68,4.45,3.48,6.08,1.78,1.62,4,2.63,6.41,2.91,5.94.69,11.41-3,13-8.74.42-1.46.55-2.98.39-4.51-5.66-54.63-10.52-108.2-7.98-163.02,1.86-39.86,3.77-81.07,12.26-120.76,6.7-31.31,13.03-60.88,14.43-93.98l.03-.66c.25-5.96.5-11.93.76-17.9.14-3.15,2.4-5.81,5.53-6.51l.11-.05h.16c11.66-2.44,18.26-5.19,26.47-14.98.84-1,1.67-2.01,2.5-3.02,2.81-3.41,5.71-6.94,8.95-10.09,2.23-2.17,4.73-3.82,7.15-5.41,1.82-1.2,3.7-2.44,5.4-3.87,8.25-6.96,12.75-19.03,12.35-33.12l-.03-1.1c-.17-6.24-.43-15.68-.27-21.58.04-1.6-.04-3.17-.11-4.69-.16-3.16-.32-6.42.6-10.03h0c2.81-10.97.35-21.31-6.58-27.67-5-4.57-8.5-7.48-13.35-11.51l-2.37-1.97c-1.37-1.14-2.69-2.31-3.79-3.31-.79-.71-1.58-1.43-2.36-2.15-4.03-3.69-8.19-7.5-12.89-10.39-7.13-4.41-24.91-13.95-35.93-7.44-4.79,2.82-3.38,6.82-1.04,11.76.72,1.52,1.34,2.83,1.47,3.93.39,3.41-1.68,6.08-3.69,8.66-.74.96-1.45,1.86-2.03,2.8-.52.84-.96,1.76-1.31,2.74-2.21,6.26-.1,13.87,2.51,21.16,3.93,10.92,7.41,26.3-7.75,33.8-1.45.72-2.96,1.38-4.43,2.02-4.63,2.03-9.01,3.95-12.06,7.55-2.67,3.15-3.95,7.17-5.3,11.42-1.49,4.69-3.03,9.54-6.63,13.09-2.87,2.81-6.95,4.69-12.48,5.76-5.91,1.15-11.95,1.26-17.95.33-.97-.15-2.01-.44-3.12-.74-1.74-.48-3.51-.96-5.08-.96Z"/>
      </g>
      <path class="cls-1" d="M344.02,69.05c-1.31,5.14-.33,9.49-.46,14.48-.17,6.22.13,16.4.3,22.62.36,12.51-3.16,25.91-12.73,33.98-3.99,3.36-8.66,5.5-12.49,9.23-4.13,4.03-7.67,8.62-11.37,13.03-8.17,9.74-14.72,12.77-27.17,15.36-.02,0-.03,0-.05.01-2.68.55-4.68,2.79-4.8,5.53-.27,6.18-.53,12.37-.79,18.55-1.38,32.76-7.6,62.16-14.45,94.16-8.46,39.55-10.36,80.18-12.24,120.58-2.56,55.14,2.33,108.37,7.97,162.86.18,1.71.02,3.37-.42,4.91-1.67,6-7.52,10.28-14.17,9.52-2.68-.31-5.11-1.45-7.01-3.18-1.9-1.72-3.27-4.02-3.81-6.66-.18-.87-.35-1.78-.51-2.73,2.78-.11,5.48-.82,7.92-2.58,1.97-1.42,6.11-5.49,7.83-21.91,1.82-17.36-2.28-27.05-4.69-41.48-2.72-16.27.16-15.41-.14-60-.14-21.59-.84-25.73-1.04-40.18-.21-15.13-.64-67.99,12.91-127.95,3.5-15.46,7.3-28.62,10.36-51.65.8-6,6.24-27.14,3.34-41.61-3.05-15.18-3.34-15.92-3.34-15.92-1.33-3.33-3.1-6.6-2.4-10.95.2-1.25.68-3.98,2.87-6,2.83-2.61,6.77-2.46,9.65-2.35,4.29.17,4.31,1.35,7.31,1.3,6.54-.1,11.47-5.82,12.52-7.04,3.84-4.46,2.49-6.48,5.74-9.65,4.11-4.02,7.96-2.42,13.56-4.7,9.76-3.96,14.89-15.63,16.31-23.21,1.02-5.48-.73-4.36-1.57-21.53-.77-15.82.58-19.66,1.96-22.3,3.19-6.1,6.72-6.09,7.82-10.96,1.42-6.21-3.12-11.6-7.79-18.39-3.83-5.57-8.22-12.78-11.35-18.72,1.24,1.12,2.48,2.22,3.76,3.28,6.06,5.05,9.94,8.2,15.76,13.52,7.98,7.32,9.47,18.7,6.9,28.73Z"/>
      <path class="cls-4" d="M296.63,15.83c-7.09-4.91-7.13-6.58-11.93-8.41-1.82-.7-4.68-1.55-8.02-.98-1.59.27-3.7.63-4.5,2.15-1,1.9,1.21,3.43,1.37,7.04.11,2.54-.87,4.39-2.74,7.89-2.44,4.58-3.3,4.14-5.09,7.57-.8,1.53-3.55,7.25-1.96,13.3.37,1.41.93,3.41,2.74,4.5,1.33.8,3.3,1.07,4.89.39,4.13-1.77,1.91-8.31,7.04-13.7,1.75-1.84,3.58-2.72,6.46-4.11,2.06-1,5.81-2.8,10.76-3.13,5.4-.36,8.23,1.31,9.59-.39,1.09-1.36.27-3.68,0-4.44-1.17-3.32-3.72-4.3-8.61-7.69Z"/>
      <path class="cls-4" d="M274.49,59.93c.06.1.13.21.19.31,1.15,1.91,2.3,3.85,2.85,6,1.11,4.32-.32,8.9-2.28,12.91-1.98,4.05-4.65,7.94-8.5,10.28-1.1.67-2.38,1.22-3.66,1.02s-2.46-1.41-2.21-2.68c.15-.74.72-1.32,1.25-1.86,3.26-3.32,5.99-7.24,7.43-11.67,1.44-4.42,1.51-9.38-.32-13.65-.89-2.07.64-4.27,2.99-3.08,1,.5,1.66,1.46,2.25,2.42Z"/>
    </g>
  </g>
</svg>