<?xml version="1.0" encoding="UTF-8"?>
<svg id="Capa_2" xmlns="http://www.w3.org/2000/svg" viewBox="0 0 737.041 757.5624">
  <defs>
    <style>
      .cls-1 {
        fill: #f47731;
      }

      .cls-2 {
        fill: #fcb28d;
      }

      .cls-3 {
        fill: #ff8c42;
      }

      .cls-4 {
        fill: #fc9b65;
      }

      .cls-5 {
        fill: #e56525;
      }
    </style>
  </defs>
  <g id="Capa_1-2" data-name="Capa_1">
    <g>
      <g>
        <path class="cls-1" d="M592.1329,318.7151c2.399.1843,8.7119-12.5465,14.8373-15.9353,5.0031-2.7677,8.3541-4.6216,12.0517-7.9999,5.9393-5.4264,4.9276-7.6182,10.0369-11.2758,3.2987-2.3614,3.8225-1.5209,12.2354-5.1729,8.8858-3.8572,7.9303-.7865,15.0124-3.5986.0061-.0024.0116-.005.0177-.0074,1.966,2.3152,4.5615,3.9627,7.4157,4.6048l16.6265,3.7401c9.9531,2.239,17.385-8.1372,13.0954-18.2835l-11.9203-28.195c-4.358-10.308-17.2524-12.0532-22.423-3.0348l-8.6596,15.1037c-1.3055,2.2772-1.8832,4.9487-1.7253,7.6536-.6872.2641-1.4153.5383-2.1993.8243-3.687,1.3454-5.6494,6.7609-14.2724,8.225-7.1317,1.2109-10.6976,1.8164-13.9516,1.8318-6.8968.0328-8.2855-1.3384-15.4748-1.0098-2.599.1187-6.2514.308-10.664,1.6037-4.8555,1.4259-18.6062-4.1704-20.9946,1.3587"/>
        <path class="cls-2" d="M592.2344,322.2187c-.1211,0-.2441-.0049-.3701-.0146-1.9268-.1475-3.3691-1.8301-3.2207-3.7578.1152-1.5068,1.1699-2.7168,2.5449-3.1025.7705-.7354,2.2979-2.8145,3.4424-4.374,3.1104-4.2344,6.6348-9.0332,10.6445-11.252,4.9863-2.7588,7.9941-4.4229,11.3857-7.5215,2.5508-2.3311,3.623-3.9336,4.6602-5.4834,1.2471-1.8633,2.5371-3.79,5.7002-6.0547,2.2471-1.6084,3.5977-2.0625,5.6416-2.75,1.5215-.5107,3.6055-1.2109,7.2373-2.7881,5.0156-2.1768,7.3525-2.4111,9.8867-2.4922,1.417-.0459,2.5371-.0811,5.2139-1.1426l.2168-.0801,2.2432-.748,1.5312,1.8027c1.499,1.7656,3.458,2.9932,5.5156,3.4551l16.627,3.7402c3.0459.6865,5.918-.2617,7.875-2.6035,2.3906-2.8613,2.8613-7.0391,1.2285-10.9014l-11.9209-28.1953c-1.6572-3.9189-5.0273-6.4951-8.7979-6.7227-3.0869-.1992-5.7773,1.2939-7.3652,4.0654l-8.6592,15.1045c-.9512,1.6572-1.3887,3.6318-1.2676,5.708l.1494,2.5557-2.3906.916c-.7041.2705-1.4492.5518-2.252.8447-.6748.2461-1.5371,1.0361-2.5361,1.9521-2.4531,2.2471-5.8125,5.3252-12.3506,6.4346-7.3115,1.2422-10.9805,1.8652-14.5205,1.8818-.0859,0-.1719.001-.2578.001-3.3135,0-5.4971-.3115-7.4297-.5869-2.2119-.3154-4.1191-.584-7.6455-.4277-2.2861.1055-5.7441.2637-9.8369,1.4658-2.5703.752-5.8691.2646-9.6875-.3037-2.6221-.3887-8.0762-1.1992-9.1045-.2773-.7676,1.7744-2.8145,2.5762-4.5889,1.8096s-2.5791-2.8408-1.8125-4.6152c2.5537-5.917,10.3037-4.7666,16.5332-3.8408,2.3633.3506,5.5996.832,6.6875.5107,4.9023-1.4395,9.0264-1.6289,11.4902-1.7412,4.1777-.1924,6.6074.1543,8.9531.4893,1.9121.2734,3.7168.5068,6.666.5166,2.9668-.0146,6.4463-.6055,13.3789-1.7822,4.5059-.7646,6.6875-2.7637,8.7959-4.6953,1.4053-1.2871,2.8564-2.6172,4.8057-3.3447.2148-2.4824.9414-4.8496,2.1484-6.9531l8.6592-15.1045c2.917-5.0889,8.0918-7.9297,13.8594-7.5703,6.4443.3887,12.124,4.5977,14.8232,10.9834l11.9209,28.1953c2.6592,6.291,1.7764,13.2324-2.3047,18.1162-3.6406,4.3594-9.166,6.21-14.7832,4.9453l-16.626-3.7402c-2.7607-.6211-5.3848-2.0049-7.582-3.9736-2.4561.7598-3.9912.8086-5.3799.8525-1.6816.0537-3.1348.1006-7.3223,1.918-3.9062,1.6953-6.1533,2.4502-7.7939,3.002-1.7969.6035-2.4023.8076-3.7979,1.8057-2.1279,1.5234-2.8555,2.6113-3.957,4.2568-1.1494,1.7178-2.5801,3.8555-5.7568,6.7578-4.001,3.6553-7.6562,5.6777-12.7148,8.4766-2.6689,1.4766-5.9775,5.9824-8.3936,9.2725-3.3252,4.5273-5.2188,7.1055-8.0391,7.1055Z"/>
      </g>
      <g>
        <path class="cls-1" d="M108.5673,357.0791c-2.3948.233-8.9651-12.3668-15.1582-15.6304-5.0583-2.6655-8.4463-4.4508-12.2118-7.7533-6.0484-5.3046-5.0815-7.5165-10.264-11.0694-3.346-2.2939-3.8526-1.4429-12.338-4.9231-8.9623-3.6758-7.9446-.6252-15.0825-3.2927-.0062-.0023-.0117-.0047-.0179-.007-1.9185,2.3547-4.48,4.0546-7.3206,4.7546l-16.547,4.0773c-9.9055,2.4409-17.5468-7.7822-13.4643-18.0135l11.3447-28.4315c4.1476-10.3945,17.0038-12.4014,22.3567-3.49l8.9649,14.9246c1.3515,2.2502,1.9834,4.9094,1.8806,7.6169.6925.2501,1.426.5094,2.2156.7794,3.7136,1.2702,5.7856,6.6447,14.4366,7.9332,7.1549,1.0657,10.7323,1.5985,13.9859,1.5478,6.8961-.1074,8.2566-1.5065,15.4511-1.3242,2.6009.0659,6.2564.1809,10.6944,1.3866,4.8835,1.3269,18.5176-4.5478,21.0179.9317"/>
        <path class="cls-2" d="M108.4434,360.5859c-2.7695,0-4.709-2.5322-8.0869-6.9404-2.4824-3.2412-5.8828-7.6797-8.5781-9.0996-5.1182-2.6973-8.8135-4.6445-12.8887-8.2197-3.2354-2.8369-4.709-4.9453-5.8936-6.6396-1.1338-1.6221-1.8828-2.6943-4.041-4.1738-1.416-.9697-2.0254-1.1611-3.834-1.7285-1.6514-.5176-3.9141-1.2266-7.8535-2.8428-4.2236-1.7324-5.6777-1.749-7.3604-1.7686-1.3896-.0166-2.9248-.0342-5.3955-.7432-2.1572,2.0117-4.7529,3.4492-7.499,4.127l-16.5488,4.0771c-5.5889,1.3779-11.1504-.3604-14.8809-4.6445-4.1787-4.7998-5.2021-11.7217-2.6709-18.0645l11.3447-28.4316c2.5693-6.4404,8.1631-10.7637,14.5977-11.2832,5.7324-.458,10.9893,2.2588,14.0098,7.2881l8.9648,14.9248c1.249,2.0781,2.0244,4.4297,2.2891,6.9072,1.9629.6875,3.4424,1.9883,4.873,3.2461,2.1475,1.8896,4.3691,3.8438,8.8867,4.5166,6.9551,1.0361,10.4541,1.5605,13.416,1.5098,2.9443-.0459,4.7451-.3398,6.6514-.6514,2.3398-.3838,4.7646-.7793,8.9424-.6719,2.4619.0625,6.583.166,11.5225,1.5068,1.1006.2988,4.3223-.249,6.6768-.6465,6.208-1.0527,13.9316-2.3604,16.6084,3.5029.8027,1.7588.0283,3.835-1.7305,4.6367-1.7549.8057-3.834.0283-4.6367-1.7305-1.0225-.874-6.459.0488-9.0723.4922-3.8076.6445-7.0996,1.2002-9.6807.501-4.124-1.1201-7.5781-1.207-9.8643-1.2646-3.5273-.0898-5.4307.2207-7.6357.582-1.9756.3232-4.2148.6885-7.6729.7432-3.5342.0479-7.2236-.4932-14.5557-1.5859-6.5596-.9775-9.9805-3.9863-12.4785-6.1836-1.0176-.8955-1.8965-1.668-2.5752-1.9004-.8105-.2773-1.5625-.543-2.2715-.7988l-2.4062-.8682.0977-2.5566c.0781-2.0791-.4004-4.0439-1.3838-5.6816l-8.9648-14.9258c-1.6455-2.7363-4.3623-4.1738-7.4463-3.9141-3.7646.3037-7.083,2.9473-8.6592,6.8994l-11.3447,28.4316c-1.5547,3.8955-1,8.0625,1.4482,10.874,2.0029,2.3008,4.8906,3.1924,7.9277,2.4443l16.5479-4.0771c2.0469-.5049,3.9805-1.7715,5.4443-3.5674l1.5264-1.874,2.4814.832c2.6699.9941,3.7871,1.0068,5.1982,1.0225,2.5352.0293,4.876.2168,9.9355,2.292,3.6631,1.5029,5.7607,2.1602,7.292,2.6406,2.0576.6445,3.417,1.0713,5.6963,2.6338,3.209,2.1992,4.5371,4.0996,5.8213,5.9375,1.0684,1.5283,2.1729,3.1084,4.7715,5.3867,3.4541,3.0303,6.4951,4.6328,11.5332,7.2881,4.0576,2.1377,7.6797,6.8652,10.875,11.0361,1.1758,1.5352,2.7451,3.583,3.5303,4.3018,1.3828.3574,2.4609,1.5459,2.6074,3.0498.1875,1.9238-1.2197,3.6357-3.1436,3.8232-.1572.0156-.3115.0234-.4639.0234Z"/>
      </g>
      <g>
        <path class="cls-5" d="M283.0366,590.0355c-1.9706,2.5333,5.7029,19.3929,4.4265,28.838-1.0426,7.7144-1.7409,12.8814-1.2147,19.6108.8452,10.8092,3.7333,11.3714,3.4771,19.8905-.1654,5.5001-1.3743,5.436-4.1025,17.6352-2.8816,12.8849-5.156,9.4509-7.7078,19.5181-.0022.0087-.0038.0167-.006.0255-3.7207.4068-7.2616,2.0308-10.0175,4.7186l-16.0536,15.6578c-9.6102,9.3732-5.0633,25.6647,8.0119,28.7065l36.3344,8.4526c13.2837,3.0902,24.6096-9.9441,19.6955-22.6664l-8.2301-21.307c-1.2409-3.2124-3.409-5.9172-6.1587-7.8273.2561-.9702.5331-1.9936.8401-3.0886,1.4439-5.1496-2.3602-11.5151,2.6537-22.2611,4.1468-8.8876,6.2202-13.3313,8.6349-16.9722,5.1177-7.7169,7.4888-8.208,12.5371-16.4793,1.8251-2.9901,4.3681-7.2094,6.402-13.1299,2.238-6.5148,17.9505-17.5339,14.354-24.4621"/>
        <path class="cls-2" d="M300.1866,757.5624c-1.6211,0-3.2646-.1875-4.9102-.5703l-36.335-8.4521c-7.5889-1.7656-13.3701-7.3008-15.4648-14.8057-2.0938-7.5039-.0146-15.2324,5.5635-20.6729l16.0537-15.6582c2.6709-2.6045,6.0225-4.4521,9.6377-5.3457,1.1045-3.5127,2.2168-5.2852,3.2188-6.8809,1.2109-1.9297,2.3555-3.752,3.7617-10.042,1.2559-5.6133,2.1904-8.6738,2.873-10.9082.7715-2.5264,1.0605-3.4717,1.1348-5.9717.1123-3.7402-.4512-5.5469-1.2314-8.0479-.7979-2.5605-1.792-5.748-2.2354-11.4102-.5586-7.1543.1953-12.7334,1.2383-20.4551.5889-4.3574-1.2783-11.3486-2.7783-16.9658-1.9072-7.1426-2.958-11.0762-.8408-13.7998,1.3584-1.748,3.8779-2.0635,5.623-.7051,1.4736,1.1455,1.9287,3.1143,1.2217,4.751.0518,1.3672,1.0195,4.9912,1.7393,7.6855,1.6846,6.3086,3.7812,14.1592,2.9785,20.1035-1.0137,7.5039-1.6836,12.459-1.1914,18.7617.373,4.7607,1.1475,7.2451,1.8965,9.6475.8975,2.876,1.7441,5.5918,1.5918,10.6748-.1074,3.5732-.6543,5.3633-1.4814,8.0713-.6445,2.1113-1.5273,5.0029-2.7158,10.3184-1.708,7.6338-3.3486,10.2471-4.7959,12.5527-1.0264,1.6338-1.9121,3.0469-2.9248,7.0195l-.6094,2.7422-2.8594.3379c-2.876.3145-5.5947,1.5947-7.6553,3.6045l-16.0537,15.6582c-3.4482,3.3633-4.7344,8.1406-3.4395,12.7803,1.2949,4.6406,4.8691,8.0615,9.5615,9.1533l36.335,8.4521c4.7676,1.1152,9.5283-.4336,12.7383-4.1279s4.0742-8.625,2.3105-13.1904l-8.2305-21.3066c-.9355-2.4238-2.5625-4.4922-4.707-5.9814l-2.3037-1.6006.7158-2.7129c.2607-.9883.5439-2.0312.8564-3.1465.3271-1.166.2002-2.7617.0391-4.7803-.3438-4.3291-.8154-10.2568,2.8408-18.0947,4.2285-9.0605,6.3486-13.6035,8.9277-17.4922,2.5273-3.8105,4.4932-6.042,6.2266-8.0107,1.9893-2.2588,3.707-4.209,6.2295-8.3418,1.6338-2.6768,4.1025-6.7236,6.0322-12.3438,1.1045-3.2148,4.1182-6.5986,7.3076-10.1807,2.6777-3.0068,8.251-9.2637,7.2803-11.1328-1.0195-1.9648-.2539-4.3838,1.71-5.4033,1.9639-1.0186,4.3828-.2539,5.4033,1.71,3.5137,6.7695-2.8193,13.8818-8.4082,20.1562-2.4053,2.7012-5.1318,5.7627-5.7129,7.4541-2.2129,6.4453-5.0664,11.1211-6.7705,13.915-2.8877,4.7305-5.0068,7.1367-7.0566,9.4639-1.7158,1.9482-3.3369,3.7891-5.5615,7.1436-2.249,3.3906-4.2842,7.752-8.3398,16.4414-2.7666,5.9307-2.4229,10.2607-2.1191,14.0801.2061,2.5908.4014,5.0381-.3115,7.5791-.0498.1787-.0986.3545-.1475.5293,2.3564,2.1699,4.1816,4.8447,5.3457,7.8613l8.2305,21.3057c2.8525,7.3848,1.4551,15.3613-3.7373,21.3359-4.084,4.7002-9.7227,7.2471-15.6943,7.248ZM286.2032,592.4902c-.001.002-.002.0029-.0029.0039.001-.001.002-.002.0029-.0039Z"/>
      </g>
      <g>
        <path class="cls-5" d="M175.2811,551.7602c-1.9661.4849-4.7528,11.8349-9.0757,16.0148-3.5309,3.414-5.8958,5.7007-8.2646,9.2398-3.805,5.6847-2.5941,7.0917-6.0498,11.2117-2.2311,2.6599-2.8049,2.1558-8.9232,7.1327-6.4622,5.2566-6.247,2.6669-11.4448,6.6567-.0045.0035-.0084.0068-.0129.0103-2.002-1.2523-4.3906-1.8315-6.8061-1.5769l-14.0706,1.4833c-8.4231.8879-12.5366,10.7348-7.2482,17.3507l14.6957,18.3847c5.3727,6.7214,16.0763,4.6903,18.6132-3.532l4.2489-13.7705c.6405-2.0762.6235-4.2632.0078-6.2839.506-.3805,1.0431-.7793,1.623-1.2017,2.7274-1.9867,3.3304-6.6263,10.0131-9.9903,5.527-2.7822,8.2905-4.1733,10.9093-5.0333,5.5505-1.8229,6.9169-1.1397,12.6497-3.2643,2.0725-.768,4.9808-1.8644,8.3018-4.0024,3.6543-2.3527,15.7433-1.6714,16.6689-6.5087"/>
        <path class="cls-2" d="M126.4375,644.6962c-4.1221,0-8.0645-1.8574-10.7002-5.1553l-14.6963-18.3848c-3.1787-3.9766-3.9043-9.1562-1.9414-13.8535,1.9619-4.6973,6.1562-7.8203,11.2188-8.3535l14.0713-1.4834c2.3369-.2441,4.7119.123,6.8643,1.0498,1.8438-1.2285,3.0674-1.6641,4.1729-2.0576,1.3145-.4688,2.5566-.9111,5.6475-3.4258,2.8291-2.3008,4.4961-3.458,5.7139-4.3027,1.3691-.9492,1.8301-1.2695,2.8037-2.4307,1.4668-1.748,1.8604-2.7764,2.4561-4.334.6133-1.6025,1.377-3.5977,3.3994-6.6191,2.5449-3.8008,5.1104-6.2822,8.6621-9.7168,1.9346-1.8711,3.7207-6.0156,5.1562-9.3457,1.9062-4.4219,2.9561-6.8584,5.2979-7.4355,1.6104-.3965,3.2344.5869,3.6309,2.1953.3242,1.3154-.2744,2.6416-1.3818,3.2988-.4932.7354-1.377,2.7852-2.0371,4.3164-1.6465,3.8213-3.6973,8.5781-6.4844,11.2734-3.418,3.3057-5.6689,5.4814-7.8574,8.752-1.6465,2.46-2.2236,3.9678-2.7822,5.4268-.6631,1.7324-1.3496,3.5254-3.4619,6.0439-1.4902,1.7764-2.4805,2.4639-3.9805,3.5049-1.1387.79-2.6973,1.8711-5.3486,4.0273-3.8916,3.166-5.7666,3.834-7.4199,4.4238-1.1523.4102-2.0645.7354-4.0508,2.2539l-1.6738,1.3271-1.7979-1.1221c-1.458-.9121-3.1953-1.3193-4.8994-1.1367l-14.0713,1.4834c-2.8486.2998-5.208,2.0566-6.3115,4.7002-1.1045,2.6426-.6963,5.5566,1.0928,7.7939l14.6963,18.3848c1.8174,2.2725,4.6133,3.3037,7.4658,2.7637,2.8594-.542,5.0791-2.5264,5.9375-5.3076l4.248-13.7705c.4551-1.4756.457-3.041.0039-4.5244l-.6133-2.0137,1.6846-1.2617c.5166-.3877,1.0635-.7939,1.6543-1.2246.5508-.4014,1.1172-1.25,1.7734-2.2334,1.5508-2.3223,3.6738-5.5029,8.6592-8.0127,5.6562-2.8477,8.4912-4.2754,11.3223-5.2041,2.7715-.9102,4.6338-1.25,6.2764-1.5508,1.8457-.3369,3.4404-.6289,6.2656-1.6758,1.834-.6797,4.6035-1.7051,7.7207-3.7119,1.8828-1.2119,4.6113-1.6953,7.7705-2.2559,2.1104-.373,7.0518-1.249,7.5801-2.3057.3105-1.627,1.875-2.6904,3.5088-2.377,1.627.3115,2.6914,1.8887,2.3799,3.5156-.9658,5.0459-7.0518,6.124-12.4219,7.0752-2.0938.3711-4.7002.833-5.5693,1.3926-3.668,2.3604-6.9326,3.5703-8.8838,4.293-3.3164,1.2295-5.3271,1.5967-7.2715,1.9521-1.5957.291-3.1016.5664-5.4834,1.3496-2.4053.7891-5.1064,2.1484-10.4883,4.8574-3.5801,1.8027-5.001,3.9307-6.375,5.9893-.8926,1.3379-1.8164,2.7217-3.2305,3.751-.0156.0117-.0322.0244-.0488.0361.2734,1.9736.1133,3.9834-.4814,5.9092l-4.248,13.7705c-1.502,4.8682-5.5449,8.4834-10.5508,9.4326-.8584.1631-1.7197.2432-2.5723.2432ZM176.003,554.6728c-.001,0-.0029,0-.0039.001.001-.001.0029-.001.0039-.001Z"/>
      </g>
      <g>
        <path class="cls-5" d="M418.6079,651.7356c.1374,2.0203,10.834,6.7288,14.203,11.7098,2.7516,4.0683,4.5946,6.7932,7.6704,9.7387,4.9406,4.7312,6.5359,3.782,9.9958,7.8984,2.2338,2.6577,1.638,3.1356,5.4812,10.0227,4.0593,7.2743,1.5458,6.6142,4.576,12.424.0026.005.0052.0095.0079.0145-1.5798,1.7552-2.5636,4.0075-2.7307,6.4306l-.9736,14.115c-.5829,8.4497,8.4038,14.2049,15.8349,10.141l20.6501-11.2931c7.5496-4.1287,7.4011-15.0223-.2582-18.9436l-12.8277-6.5674c-1.934-.9901-4.091-1.3517-6.1877-1.0949-.2872-.5642-.587-1.1622-.9027-1.8065-1.4848-3.0301-5.9502-4.4267-8.1071-11.5906-1.7839-5.925-2.6759-8.8875-3.0698-11.6156-.835-5.7822.0743-7.0098-1.0264-13.0237-.3979-2.1741-.9745-5.2283-2.5056-8.8691-1.6849-4.0062,1.0778-15.7951-3.5264-17.5437"/>
        <path class="cls-2" d="M467.5157,738.5742c-2.5566,0-5.1035-.7344-7.3848-2.1963-4.2861-2.7451-6.6367-7.416-6.2861-12.4941l.9736-14.1152c.1621-2.3447.9375-4.6201,2.2217-6.5801-.8906-2.0293-1.1084-3.3086-1.3047-4.4658-.2344-1.376-.4551-2.6748-2.3975-6.1553-1.7773-3.1855-2.6279-5.0283-3.249-6.374-.6982-1.5117-.9336-2.0215-1.9082-3.1816-1.4668-1.7451-2.4121-2.3105-3.8418-3.167-1.4727-.8818-3.3057-1.9795-5.9326-4.4941-3.3057-3.166-5.3076-6.126-8.0791-10.2217-1.501-2.2197-5.2734-4.6963-8.3047-6.6855-4.0264-2.6426-6.2441-4.0986-6.4082-6.5039-.1123-1.6533,1.1357-3.085,2.7891-3.1973,1.3457-.1084,2.5557.7266,3.0107,1.9316.6387.6123,2.5059,1.8379,3.9004,2.7529,3.4785,2.2842,7.8086,5.126,9.9814,8.3379,2.6592,3.9326,4.416,6.5283,7.2607,9.252,2.1377,2.0479,3.5234,2.8779,4.8643,3.6797,1.5918.9531,3.2383,1.9395,5.3535,4.4551,1.4912,1.7754,1.9971,2.8701,2.7617,4.5273.5811,1.2578,1.376,2.9795,3.042,5.9648,2.4443,4.3809,2.7783,6.3428,3.0723,8.0742.2041,1.1992.3652,2.1504,1.5029,4.3467l.1738.3652.6934,1.7344-1.249,1.3877c-1.1504,1.2773-1.8496,2.9219-1.9668,4.6289l-.9736,14.1152c-.1973,2.8574,1.125,5.4854,3.5361,7.0303,2.4121,1.5449,5.3545,1.6465,7.8662.2725l20.6504-11.293c2.5527-1.3965,4.0527-3.9668,4.0137-6.877-.04-2.9102-1.6104-5.4385-4.2002-6.7656l-12.8271-6.5674c-1.375-.7031-2.915-.9756-4.4561-.7871l-2.085.2559-.9531-1.8711c-.2939-.5771-.6016-1.1904-.9238-1.8506-.2988-.6084-1.0361-1.3125-1.8906-2.1289-2.0195-1.9287-4.7861-4.5693-6.3955-9.9141-1.8301-6.084-2.7412-9.1113-3.166-12.0527-.416-2.8867-.4297-4.7803-.4414-6.4502-.0127-1.877-.0234-3.4971-.5664-6.4619-.3525-1.9258-.8867-4.8379-2.3203-8.2461-.8682-2.0645-.8721-4.835-.876-8.043-.0039-2.1436-.0107-7.1631-.96-7.8652-1.5488-.5889-2.3232-2.3184-1.7344-3.8672s2.3262-2.3242,3.875-1.7363c4.8027,1.8242,4.8115,8.0059,4.8193,13.46.0029,2.127.0068,4.7734.4072,5.7256,1.6865,4.0098,2.3154,7.4414,2.6914,9.4912.6367,3.4805.6504,5.5244.6641,7.501.0117,1.6221.0225,3.1533.3799,5.6348.3613,2.499,1.2285,5.3828,2.958,11.1279,1.168,3.8809,3.0186,5.6484,4.8086,7.3574,1.1631,1.1104,2.3662,2.2588,3.1357,3.8291l.0264.0557c1.9912.0723,3.9414.5771,5.7363,1.4951l12.8281,6.5684c4.5352,2.3213,7.3955,6.9287,7.4648,12.0234s-2.6641,9.7783-7.1338,12.2227l-20.6504,11.293c-2.0898,1.1436-4.3477,1.7119-6.5967,1.7119Z"/>
      </g>
      <g>
        <path class="cls-5" d="M540.0007,510.282c1.253,1.5907,12.7415-.5548,18.3329,1.6579,4.5668,1.8073,7.6257,3.0178,11.8269,3.715,6.7483,1.1199,7.5302-.5637,12.7091.8838,3.3436.9345,3.1212,1.6653,10.1794,5.1844,7.455,3.717,5.0072,4.5897,10.7864,7.6778.005.0027.0097.0049.0147.0075-.3145,2.3404.1436,4.7552,1.3723,6.8503l7.1577,12.2045c4.2848,7.306,14.9517,6.9893,18.7955-.558l10.6816-20.973c3.9052-7.6677-2.362-16.5791-10.8985-15.4968l-14.2967,1.8126c-2.1555.2733-4.1405,1.1914-5.727,2.5861-.5554-.3039-1.1403-.6285-1.7644-.9825-2.9352-1.6645-7.4102-.299-13.2321-4.9979-4.8151-3.8863-7.2226-5.8294-9.0867-7.8599-3.951-4.3036-3.8926-5.8301-8.1936-10.1752-1.5549-1.5708-3.7538-3.7675-7.0717-5.9102-3.6511-2.3577-8.0194-13.6505-12.8075-12.4973"/>
        <path class="cls-2" d="M621.6016,556.7587c-4.915.001-9.3066-2.5107-11.8096-6.7783l-7.1572-12.2041c-1.1885-2.0264-1.832-4.3428-1.877-6.6855-1.8799-1.1729-2.7812-2.1074-3.5967-2.9521-.9688-1.0039-1.8838-1.9521-5.4512-3.7305-3.2637-1.627-5.0059-2.6689-6.2773-3.4287-1.4307-.8555-1.9121-1.1436-3.3711-1.5508-2.2002-.6152-3.2988-.5498-4.9609-.4492-1.7109.1016-3.8418.2314-7.4316-.3643-4.5156-.75-7.8379-2.0654-12.4365-3.8857-2.4902-.9844-6.998-.9033-10.6279-.834-4.8145.083-7.4678.1377-8.96-1.7568-1.0254-1.3018-.8018-3.1885.5-4.2129,1.0645-.8398,2.5205-.8408,3.5752-.1035.873.1455,3.1055.1045,4.7734.0742,4.168-.0781,9.3389-.1729,12.9443,1.2529,4.415,1.748,7.3291,2.9014,11.2139,3.5459,2.9209.4844,4.5332.3887,6.0908.2949,1.8545-.1113,3.7695-.2246,6.9346.6592,2.2334.625,3.2676,1.2432,4.834,2.1797,1.1895.7109,2.8174,1.6846,5.877,3.21,4.4902,2.2383,5.8721,3.6699,7.0908,4.9336.8379.8682,1.5029,1.5566,3.6348,2.71l2.0205.8086-.3105,2.3164c-.2295,1.7051.1211,3.457.9873,4.9336l7.1572,12.2041c1.4492,2.4697,3.9961,3.8838,6.8867,3.8105,2.8623-.085,5.3477-1.6602,6.6484-4.2119l10.6816-20.9727c1.3203-2.5928,1.1094-5.5625-.5645-7.9424s-4.3936-3.5889-7.2842-3.2168l-14.2969,1.8125c-1.5322.1943-2.958.8379-4.124,1.8633l-1.5781,1.3867-1.8428-1.0088c-.5684-.3115-1.167-.6426-1.8047-1.0059-.5889-.334-1.5967-.499-2.7627-.6914-2.7549-.4531-6.5283-1.0742-10.8721-4.5801-4.9229-3.9727-7.3936-5.9668-9.4131-8.165-1.9736-2.1494-3.0518-3.7061-4.0039-5.0791-1.0684-1.542-1.9922-2.874-4.1113-5.0156-1.376-1.3896-3.4551-3.4902-6.5674-5.501-1.8809-1.2139-3.4473-3.5-5.2617-6.1475-1.2109-1.7676-4.0469-5.9062-5.2275-5.9512-1.6055.3887-3.2256-.6035-3.6133-2.2148s.6094-3.2314,2.2207-3.6201c4.9834-1.1963,8.4873,3.8965,11.5703,8.3945,1.2021,1.7549,2.6982,3.9385,3.5664,4.499,3.6611,2.3662,6.1123,4.8408,7.5762,6.3203,2.4883,2.5137,3.6533,4.1943,4.7793,5.8184.9238,1.333,1.7959,2.5918,3.4922,4.4385,1.7158,1.8691,4.0703,3.7686,8.7607,7.5537,3.1123,2.5117,5.6377,2.9277,8.0791,3.3301,1.5869.2607,3.2285.5312,4.749,1.3936.0176.0098.0352.0195.0537.0303,1.6846-1.0645,3.5811-1.7471,5.5801-2.001l14.2979-1.8125c5.0479-.6338,10.0146,1.5498,12.9453,5.7178,2.9316,4.168,3.3154,9.5771,1.0029,14.1172l-10.6816,20.9727c-2.3105,4.5371-6.7275,7.335-11.8164,7.4863-.1436.0039-.2871.0059-.4307.0059ZM542.3555,508.4228c.001.001.001.002.002.0029-.001-.001-.001-.002-.002-.0029Z"/>
      </g>
      <g>
        <path class="cls-3" d="M403.9161,159.2283c1.2266-2.9659-10.6509-17.1804-11.9302-26.6251-1.0447-7.7141-1.7445-12.881-4.0399-19.2286-3.687-10.196-6.6206-9.9706-8.6374-18.2516-1.3021-5.3464-.1196-5.6058-.7309-18.0914-.6457-13.1874,2.4594-10.4811,2.2444-20.8646-.0002-.009-.0008-.0171-.001-.0261,3.4788-1.3808,6.461-3.8873,8.4036-7.2109l11.3159-19.3607c6.7741-11.5898-1.9383-26.0875-15.3517-25.5456l-37.2742,1.506c-13.6273.5506-21.0826,16.1258-12.9645,27.085l13.5959,18.3542c2.0499,2.7671,4.8587,4.7986,8.0172,5.9095.0109,1.0033.0158,2.0636.0108,3.2008-.0236,5.3481,5.3351,10.474,3.3568,22.1659-1.6362,9.6699-2.4542,14.5049-3.8146,18.6565-2.8832,8.7994-5.0385,9.9029-7.7076,19.2182-.9649,3.3676-2.2954,8.1109-2.6831,14.359-.4264,6.8753-12.6462,21.6733-7.3379,27.3968"/>
        <path class="cls-2" d="M338.3887,165.8828c-1.0762.001-2.1494-.4307-2.9395-1.2822-5.1865-5.5918-.9697-14.1318,2.75-21.666,1.6016-3.2432,3.416-6.918,3.5264-8.7031.4229-6.8145,1.9297-12.0732,2.8301-15.2148,1.5264-5.3281,2.9307-8.2119,4.2891-11,1.1367-2.334,2.21-4.5391,3.4639-8.3623,1.2676-3.8711,2.0713-8.6182,3.6709-18.0771,1.0898-6.4424-.3916-10.5254-1.7002-14.127-.8867-2.4424-1.7246-4.75-1.7119-7.3896,0-.1846.001-.3682.001-.5488-2.8477-1.4648-5.3184-3.5596-7.2432-6.1582l-13.5947-18.3525c-4.7119-6.3613-5.4844-14.4209-2.0674-21.5615,3.418-7.1396,10.1807-11.5938,18.0898-11.9131L385.0264.0205c7.7715-.3359,14.8291,3.4844,18.8438,10.1631,4.0127,6.6777,4.0625,14.6807.1309,21.4082l-11.3164,19.3613c-1.8828,3.2207-4.6221,5.8916-7.8682,7.7129-.1289,3.6641-.7334,5.6777-1.2773,7.4902-.6553,2.1816-1.2744,4.2432-.959,10.6797.2812,5.7471.1934,8.9463.1299,11.2822-.0723,2.6396-.0996,3.627.4922,6.0566.8848,3.6357,1.9092,5.2275,3.3252,7.4316,1.4502,2.2568,3.2559,5.0654,5.1875,10.4053,2.4404,6.751,3.1963,12.3311,4.2422,20.0537.5898,4.3525,4.2471,10.5967,7.1855,15.6133,3.7373,6.3789,5.7949,9.8926,4.4766,13.0811-.8457,2.0449-3.1885,3.0176-5.2344,2.1719-1.7246-.7129-2.6855-2.4902-2.4385-4.2559-.4141-1.3037-2.3096-4.54-3.7188-6.9463-3.3008-5.6338-7.4082-12.6455-8.2119-18.5889-1.0166-7.5-1.6875-12.4561-3.8379-18.4033-1.624-4.4912-3.0312-6.6807-4.3926-8.7979-1.6279-2.5332-3.167-4.9268-4.3701-9.8682-.8457-3.4727-.7939-5.3428-.7168-8.1729.0605-2.207.1436-5.2285-.124-10.6699-.3818-7.8145.5059-10.7695,1.2881-13.377.5547-1.8467,1.0342-3.4434.9551-7.5361l-.0029-.1748v-2.7217l2.5293-1.0029c2.6885-1.0664,4.9688-3.0225,6.4209-5.5078l11.3164-19.3613c2.4307-4.1582,2.4004-9.1064-.0811-13.2354-2.4814-4.1279-6.8115-6.4834-11.6494-6.2832l-37.2734,1.5059c-4.8906.1982-9.0723,2.9512-11.1846,7.3662-2.1133,4.4141-1.6357,9.3975,1.2773,13.3291l13.5957,18.3535c1.5469,2.0879,3.665,3.6494,6.1279,4.5156l2.6465.9316.0303,2.8057c.0107,1.0215.0166,2.1025.0107,3.2607-.0049,1.2109.541,2.7148,1.2324,4.6182,1.4814,4.082,3.5117,9.6719,2.0684,18.1992-1.667,9.8516-2.5029,14.7959-3.957,19.2363-1.4248,4.3438-2.7266,7.0176-3.875,9.376-1.3174,2.7051-2.4551,5.042-3.7891,9.6973-.8633,3.0107-2.167,7.5615-2.5352,13.5039-.2109,3.3926-2.2168,7.4551-4.3398,11.7559-1.7832,3.6104-5.4922,11.123-4.0596,12.668,1.5049,1.6221,1.4092,4.1582-.2139,5.6631-.7705.7148-1.749,1.0684-2.7236,1.0684ZM400.2129,157.6972c-.001.001-.001.0029-.002.0039.001-.001.001-.0029.002-.0039Z"/>
      </g>
      <g>
        <path class="cls-3" d="M612.2678,414.214c-1.14,19.87,1.96,32.77-3.9301,52.67-4.04,13.64-18.6699,28.31-24.6299,40.7401-8.8601,18.53-10.1401,34.05-22.6602,49.58-10.5,13.03-31.8799,23.52-44.5,34.2-16.6199,14.06-25.1899,27.39-44.6599,36.93-9.11,4.45-30.8501,6.6-40.4399,10-14.42,5.09-16.9601,10.76-32.1901,13.29-15.44,2.56-41.75-1.78-57.68-2.04-23.3-.39-36.38,1.62-59.81-5.31-12.47-3.69-28.33-15.27-39.8-20.56-17.52-8.1-29.94-10.92-44.8701-22.3-10.24-7.79-19.21-23.55-28.11-32.66-12.53-12.85-24.3-19.68-33.92-34.71-3.44-5.38-6.16-10.95-8.51-16.65-4.44-10.75-7.6-21.95-11.85-33.21-1.19-3.15-2.46-6.31-3.76-9.47-3.37-8.17-6.95-16.42-9.81-24.82-2.08-6.14-3.78-12.37-4.74-18.72-2.54-16.93,4.8-36.06,5.67-53.5,1.01-20.52-3.78-39.39,2.31-59.96,4.27-14.43,14.43-26.48,20.84-39.55,6.4-13.07,9.04-27.17,17.3199-38.76,7.96-11.13,20.97-18.59,30.44-28.23,12.42-12.64,21.81-26.89,36.38-36.72,14.32-9.64,32.28-10.89,48.2-17.57,15.92-6.68,29.8-18.79,46.85-22.25,19.04-3.85,41.54,3.3,61.3799,3.8,22.55.58,42.5-4.82,65.1501,1.8799,17.72,5.25,33.72,20.01,49.3699,28.41,14.4601,7.79,28.75,9,41.24,19.11,14.79,11.95,25.8401,31.94,37.5701,46.59,12.95,16.17,26.21,27.27,35.02,45.97,1.21,2.58,2.1599,5.61,2.95,8.91,1.0701,4.38,1.8601,9.23,2.6001,14.02,1.08,6.94,2.08,13.79,3.72,19.03,2.34,7.5,5.26,13.23,7.87,18.97,2.7799,6.16,5.22,12.35,6.2,20.8,1.7201,14.77-4.35,36.95-5.21,52.09Z"/>
        <path class="cls-2" d="M316.8389,133.5002c15.9668,0,33.2866,4.5391,48.9487,4.9338,1.1877.0305,2.3687.0444,3.543.0444,12.3958,0,24.0762-1.5544,35.948-1.5547,8.3523-.0002,16.7976.7688,25.6592,3.3901,17.72,5.25,33.72,20.01,49.3699,28.4102,14.4602,7.7898,28.75,9,41.24,19.1099,14.79,11.95,25.8401,31.9399,37.5701,46.5901,12.95,16.1699,26.21,27.27,35.02,45.97,1.21,2.5801,2.1599,5.6099,2.95,8.9099,1.0701,4.3801,1.8601,9.23,2.6001,14.02,1.0801,6.9399,2.0801,13.79,3.72,19.03,2.3398,7.5,5.2603,13.23,7.8701,18.97,2.7798,6.1602,5.2197,12.3501,6.1997,20.8,1.7202,14.77-4.3496,36.95-5.21,52.0901-1.1396,19.8699,1.96,32.77-3.9297,52.6699-4.04,13.6399-18.6702,28.3101-24.6301,40.74-8.8601,18.53-10.1401,34.05-22.6602,49.5801-10.5,13.03-31.8799,23.52-44.5,34.2-16.6199,14.0601-25.1899,27.3899-44.6599,36.9299-9.1099,4.45-30.8501,6.6001-40.4399,10-14.4199,5.0901-16.96,10.76-32.1899,13.29-3.4924.5791-7.5427.8052-11.9016.8052-14.9114,0-33.4517-2.644-45.7786-2.8452-2.5542-.0427-4.9858-.0566-7.3213-.0566-4.3462,0-8.363.0481-12.2207.0481-12.9819,0-24.1855-.5447-40.2678-5.3015-12.4702-3.6899-28.3301-15.27-39.8-20.5598-17.52-8.1001-29.9399-10.9202-44.8701-22.3-10.24-7.79-19.21-23.55-28.1099-32.6602-12.53-12.8499-24.3-19.6799-33.9202-34.71-3.4399-5.3799-6.1599-10.95-8.51-16.6499-4.4399-10.75-7.5999-21.95-11.8499-33.21-1.1899-3.1501-2.46-6.3101-3.76-9.47-3.3701-8.1702-6.95-16.4202-9.8101-24.8201-2.0801-6.1401-3.78-12.3701-4.74-18.72-2.54-16.9299,4.8-36.0601,5.6699-53.5,1.01-20.52-3.78-39.3901,2.3101-59.96,4.27-14.4302,14.4299-26.48,20.8401-39.55,6.3999-13.0701,9.04-27.1699,17.3198-38.76,7.9602-11.1301,20.9702-18.5901,30.4402-28.23,12.4199-12.6401,21.8098-26.8901,36.3799-36.72,14.3201-9.6401,32.28-10.8901,48.2-17.5701,15.9202-6.6799,29.8-18.79,46.8501-22.25,4.0093-.8108,8.1724-1.1338,12.4312-1.1338M316.8389,125.4858c-5.1323,0-9.7183.4229-14.0198,1.2927-11.752,2.3848-21.7551,8.189-31.4287,13.802-5.7869,3.3579-11.2527,6.5295-16.9336,8.9131-5.7173,2.3989-11.7834,4.0557-18.2058,5.8098-10.5867,2.8914-21.5334,5.8811-31.3689,12.5022-10.6567,7.1895-18.6504,16.4067-26.3809,25.3203-3.6011,4.1523-7.3245,8.4458-11.2402,12.4309-3.4102,3.4714-7.4077,6.7021-11.6396,10.1223-6.9543,5.6206-14.1455,11.4321-19.6028,19.0625-5.709,7.9917-8.9285,16.759-12.042,25.2378-1.8843,5.1311-3.6641,9.9775-5.9568,14.6599-2.2205,4.5276-4.9639,8.9854-7.8682,13.7048-5.1526,8.3723-10.4805,17.0295-13.4592,27.0957-4.3521,14.7002-3.6558,28.3784-2.9824,41.6064.3528,6.9268.6858,13.469.3528,20.2336-.3149,6.3162-1.5759,12.9944-2.9109,20.0649-2.1736,11.5115-4.4209,23.4146-2.6799,35.0181.9412,6.2268,2.6008,12.7993,5.075,20.1025,2.4233,7.1172,5.322,14.0774,8.1252,20.8083.6255,1.5017,1.2495,3.0005,1.8667,4.4963,1.49,3.6221,2.6577,6.562,3.6714,9.2458,1.7661,4.679,3.3809,9.4736,4.9426,14.1106,2.1404,6.3552,4.354,12.927,6.9971,19.3269,2.7913,6.7693,5.7898,12.6284,9.1655,17.908,6.8984,10.7776,14.5669,17.5059,22.6858,24.6296,3.9929,3.5034,8.1221,7.1262,12.2485,11.3579,3.2527,3.3298,6.6582,7.8308,10.2637,12.5964,5.7815,7.6414,11.7598,15.5432,18.7317,20.8472,11.3206,8.6287,21.4568,12.7632,32.188,17.1404,4.4817,1.8281,9.116,3.7185,14.1714,6.0557,4.0806,1.8821,8.9575,4.7417,14.1208,7.7693,8.9375,5.2405,18.1792,10.6594,26.7686,13.2009,17.6047,5.2075,29.6821,5.6311,42.5417,5.6311,1.887,0,3.8115-.0115,5.7937-.0232,2.0708-.0122,4.2056-.0249,6.427-.0249,2.6033,0,4.9543.0181,7.1873.0554,5.2727.0859,11.9258.6582,18.9697,1.2642,9.0454.7778,18.3987,1.5823,26.9429,1.5823,5.1851,0,9.5068-.2988,13.2126-.9131,10.3127-1.7134,15.8772-4.8342,21.2583-7.8523,3.4272-1.9224,6.9712-3.9099,12.2883-5.7869,3.5793-1.269,9.9221-2.4924,16.0559-3.6755,9.3896-1.811,19.0986-3.6838,25.2341-6.6807,14.1985-6.9573,22.9448-15.6216,32.2051-24.7944,4.3455-4.3049,8.8389-8.7561,14.1133-13.2183,4.4541-3.7693,10.2617-7.6299,16.4099-11.717,10.7563-7.1504,21.8789-14.5442,29.1543-23.5728,8.7883-10.9011,12.6353-21.936,16.3552-32.6074,2.0793-5.9651,4.2295-12.1333,7.2949-18.5442,2.1816-4.5498,5.9229-9.769,9.8838-15.2947,6.1277-8.5483,12.4641-17.3875,15.2004-26.6265,4.333-14.6406,4.1885-25.7505,4.0356-37.5129-.0693-5.3293-.1411-10.8398.2109-16.9741.3057-5.3811,1.3496-11.9109,2.4551-18.824,1.9199-12.0085,3.9053-24.4258,2.7144-34.6523-1.1489-9.907-4.1411-17.1543-6.8555-23.1692-.4971-1.094-.9956-2.1667-1.499-3.2502-2.1011-4.5203-4.2734-9.1943-6.0254-14.8103-1.3491-4.3108-2.2612-10.198-3.2275-16.4307l-.2241-1.4448c-.7437-4.8125-1.5679-9.9189-2.7339-14.6897-.9814-4.1006-2.1226-7.5178-3.4792-10.4109-6.6604-14.1375-15.3997-23.95-24.6521-34.3389-3.7388-4.1978-7.6047-8.5386-11.3684-13.238-3.606-4.5039-7.1604-9.5557-10.9231-14.9043-8.3315-11.8423-16.9468-24.0876-27.8657-32.9099-8.4795-6.8635-17.4749-10.0632-26.1743-13.1575-5.6416-2.0068-10.9702-3.9021-16.3015-6.7742-5.3455-2.8691-10.8179-6.5867-16.6116-10.5222-10.7295-7.2886-21.8242-14.8254-34.2827-18.5164-8.582-2.5386-17.4568-3.7205-27.9331-3.7205-6.1355.0002-12.2219.3975-18.1082.7817-5.8203.3801-11.8386.7729-17.8428.7729-1.1355,0-2.2581-.0139-3.3364-.0417-6.9497-.175-14.3135-1.2302-22.1096-2.3474-8.8821-1.2727-18.0667-2.5889-27.0454-2.5889h0Z"/>
      </g>
      <path class="cls-4" d="M372.5902,146.9652c-42.572-.6841-45.1164-12.9918-65.3198-6.4882-22.5153,7.2477-24.2128,24.0969-48.2183,27.2021-14.4518,1.8694-17.5991-3.7505-29.4485,0-14.5392,4.6019-17.7348,15.574-33.1833,32.1454-20.8799,22.3977-27.8596,16.1029-43.1411,33.7516-9.0825,10.4894-8.5644,14.9621-25.3383,61.343-17.5848,48.623-23.0707,57.302-17.3079,65.1324,8.8136,11.9756,35.95,11.1125,52.89,0,11.578-7.5951,10.6376-14.8906,23.464-34.8139,7.9985-12.4242,28.4409-44.1773,61.8803-56.1776,7.512-2.6958,18.6096-3.6364,40.8049-5.5174,42.1108-3.5689,51.0502,1.5025,63.2686-7.4007,15.695-11.4364,7.7616-24.7715,24.7503-38.7409,14.92-12.2684,24.6969-4.9911,50.559-17.5764,5.217-2.5388,36.7098-17.8641,34.7166-32.1454-1.8607-13.3308-31.9775-19.1539-40.0457-20.7139-19.7597-3.8206-25.0907.4056-50.3307,0Z"/>
      <path class="cls-1" d="M612.2678,414.214c-1.14,19.87,1.96,32.77-3.9301,52.67-4.04,13.64-18.6699,28.31-24.6299,40.7401-8.8601,18.53-10.1401,34.05-22.6602,49.58-10.5,13.03-31.8799,23.52-44.5,34.2-16.6199,14.06-25.1899,27.39-44.6599,36.93-9.11,4.45-30.8501,6.6-40.4399,10-14.42,5.09-16.9601,10.76-32.1901,13.29-15.44,2.56-41.75-1.78-57.68-2.04-23.3-.39-36.38,1.62-59.81-5.31-12.47-3.69-28.33-15.27-39.8-20.56-17.52-8.1-29.94-10.92-44.8701-22.3-10.24-7.79-19.21-23.55-28.11-32.66-12.53-12.85-24.3-19.68-33.92-34.71-3.44-5.38-6.16-10.95-8.51-16.65-4.44-10.75-7.6-21.95-11.85-33.21-1.19-3.15-2.46-6.31-3.76-9.47,6.48,5.02,14.26,9.15,23.91,11.1,11.12,2.25,17.52.13,28.67,5.98,3.81,2.01,9.14,5.45,28.81,28.13,14.97,17.26,15.92,19.93,21.93,22.84,11.23,5.43,16.19.12,34.6,1.12,30.56,1.66,38.32,17.46,55.61,11.23,5.03-1.81,3.79-2.94,21.9901-18.38,16.73-14.2,25.1-21.3,30.36-23.49,23.38-9.7401,35.62,9.29,58.46,0,7.34-2.98,14.73-11.13,29.5099-27.4301,17.9501-19.8,17.8-25.17,30.26-33.85,13.6301-9.49,16.26-4.78,30.8701-15.47,8.4299-6.17,6.9299-7.28,26.2999-25.32,11.77-10.96,13.88-12,16.16-16.92,3.9399-8.5099,1.4299-13.58,1.39-30.12-.03-17.33-.05-26.02,4.09-34.09,7.96-15.53,22.9299-12.45,34.72-25.05,4.3301-4.62,6.98-10.02,8.5-15.69,1.0701,4.38,1.8601,9.23,2.6001,14.02,1.08,6.94,2.08,13.79,3.72,19.03,2.34,7.5,5.26,13.23,7.87,18.97,2.7799,6.16,5.22,12.35,6.2,20.8,1.7201,14.77-4.35,36.95-5.21,52.09Z"/>
      <path class="cls-5" d="M551.6503,478.1257c5.4657,5.6718-.2413,18.5132-5.6256,30.6285-4.7552,10.6999-9.5434,21.4737-21.2525,30.0035-4.4285,3.226-13.6689,9.9573-26.253,9.3761-3.9932-.1844-15.9909-.7386-20.6274-9.3761-4.5328-8.4442.1895-20.4792,7.5008-25.5806,7.1173-4.9661,11.2785.4125,20.6274-4.4228,8.2566-4.2703,14.0729-13.1521,19.3773-21.2525,3.2647-4.9854,4.1393-7.2907,7.5008-9.3761,5.6561-3.5089,14.7459-4.1573,18.7522,0Z"/>
      <path class="cls-5" d="M477.5667,584.047c.1181,9.1131-9.6834,15.1691-15.9915,19.0667-4.106,2.537-14.4968,8.7505-27.6775,6.7656-5.1146-.7702-15.0197-2.2618-17.8366-9.8409-2.0754-5.584.2017-13.1142,4.9205-15.9914,5.1535-3.1423,8.6674,2.0405,17.2215,0,5.8823-1.4032,5.9041-4.2555,17.8366-10.4559,7.8044-4.0554,9.8804-3.9188,11.071-3.6903,5.6633,1.0866,10.3752,7.9122,10.456,14.1463Z"/>
      <path class="cls-5" d="M356.8234,617.4131c-5.4019,10.6408-19.0309,12.6667-31.7223,14.5532-18.0389,2.6814-32.4118-1.1891-38.2979-3.0638-5.7744-1.8392-20.6199-7.2482-33.7021-20.6809-6.1265-6.2905-11.3762-11.8432-11.4893-19.9149-.1292-9.2194,6.5252-15.8451,9.1915-18.4999,1.434-1.4278,13.0201-12.6573,25.2766-9.8406,8.94,2.0546,7.944,9.2167,19.9149,16.0851,11.1652,6.4062,23.5311,6.7735,27.5745,6.8936,11.5332.3426,15.4308-2.6445,22.2128.766,7.2573,3.6495,10.2776,10.8335,11.0414,12.6502.4379,1.0416,4.7445,11.706,0,21.0519Z"/>
      <path class="cls-5" d="M415.2907,632.8831c-4.5914,9.8443-20.197,9.8167-25.8491,9.8067-5.8652-.0104-20.33-.036-26.0425-9.8067-3.0131-5.1536-3.597-13.0283,0-16.2359,3.2468-2.8953,7.0452.5579,17.617,0,9.8491-.5198,11.8172-3.7949,19.1489-3.1076,5.9987.5623,11.0525,3.352,15.1257,6.6507.9712,2.8224,2.2142,7.9453,0,12.6928Z"/>
      <path class="cls-5" d="M462.2076,523.2004c4.9879,14.3193-16.0068,31.2962-22.2128,36.3145-18.2863,14.7868-37.7672,16.3077-41.3618,16.5365-12.2668.7807-20.8798-1.9447-34.4681-6.2445-14.9358-4.7262-22.5857-7.2757-25.2766-14.4363-2.9167-7.7616,1.1396-17.8889,7.6596-22.9787,3.7458-2.9242,7.8983-3.8683,24.5106-3.8298,26.8325.0622,25.9215,2.5483,32.9362.766,17.5303-4.4542,18.2527-18.7186,32.9362-19.9149,10.2244-.833,22.2421,5.0756,25.2766,13.7872Z"/>
      <path class="cls-5" d="M541.8671,435.1153c6.2542,12.4171-6.4695,28.0581-9.1915,31.4043-9.9419,12.2214-23.1218,15.5948-28.3405,16.8511-6.8032,1.6377-25.5414,6.1486-32.9362-3.8298-4.0751-5.4987-4.2516-14.7851,0-19.7422,4.0662-4.7409,9.0236-1.8387,21.4482-6.3004,4.6515-1.6703,12.1521-4.3638,18.3816-10.7234,8.3293-8.5033,6.655-15.6684,12.5238-17.617,6.0093-1.9953,14.7156,3.2091,18.1145,9.9574Z"/>
      <path class="cls-5" d="M577.9614,320.7474c6.102,4.3172,7.8128,11.1853,9.6931,19.2224,2.5,10.6853,3.9972,17.0848,0,22.2575-3.6454,4.7175-11.046,7.36-16.7751,5.0444-8.36-3.379-9.053-15.6551-9.1141-18.1966-.1812-7.5381,3.2965-8.4447,3.5497-18.2107.1911-7.3683-1.6864-10.7917.5058-12.6463,2.626-2.2217,8.5303-.025,12.1405,2.5293Z"/>
      <path class="cls-1" d="M535.7395,355.7787c-4.6752,20.3264-7.0128,30.4896-11.9868,38.4778-9.2814,14.9056-21.1238,22.5511-24.7792,24.7736-10.736,6.5275-20.6447,12.5521-30.6973,8.4255-10.6802-4.3842-17.1416-18.428-14.2073-28.3404,1.4452-4.8821,4.3623-6.0346,22.0441-19.1489,13.816-10.2472,20.7821-15.4463,23.6265-19.1489,9.7419-12.6815,6.9146-21.3738,15.3192-25.2766,6.8972-3.2028,16.8751-1.098,20.6808,4.5957,2.4308,3.6367,1.7815,7.8967,0,15.6422Z"/>
      <path class="cls-1" d="M444.5905,462.6897c-1.9011,15.1559-17.1836,23.7526-28.0629,29.8723-23.1539,13.0245-45.4163,12.0634-55.6122,11.4894-18.6777-1.0517-33.9236-1.9101-39.6441-13.0213-6.0703-11.7906.8958-30.6386,12.2553-35.7591,10.8806-4.9047,16.7792,6.8475,33.7021,5.1208,16.9736-1.7319,18.5186-14.3177,43.6595-21.1935,8.8576-2.4225,17.4081-4.6269,24.5106,0,7.5934,4.9467,10.1908,15.5252,9.1915,23.4914Z"/>
      <path class="cls-1" d="M308.2501,539.2855c-8.5034,7.4405-20.4535,4.6699-40.5957,0-20.1476-4.6712-37.1263-8.6076-46.7234-23.7447-2.0585-3.2467-10.5135-16.5825-4.5957-29.7254,4.4418-9.8648,15.7795-16.9525,25.2748-15.4019,7.9144,1.2925,7.4714,7.4305,19.5929,15.4019,8.6031,5.6576,17.1561,8.0434,31.728,12.1084,13.6737,3.8143,16.1034,3.0539,19.149,6.4103,7.3616,8.1129,5.8232,26.5048-3.8298,34.9514Z"/>
      <path class="cls-5" d="M231.6544,564.6054c-5.3647-10.7126-18.1068-4.8749-32.1702-16.1284-17.3039-13.8466-9.8121-32.1257-28.3405-44.1429-1.9424-1.2598-15.0568-9.5113-23.7446-4.1125-8.0978,5.0322-6.9976,18.5976-6.8936,19.7039.2642,2.8111,1.3337,9.3168,13.0212,22.8342,11.0997,12.8375,13.8729,11.3067,22.9788,21.8456,11.8085,13.6668,10.0454,19.5695,19.9149,25.9992,2.4134,1.5723,14.7238,9.5922,25.2766,4.394,10.4088-5.1272,14.6921-20.9389,9.9575-30.3932Z"/>
      <path class="cls-1" d="M583.2327,298.7748c1.8208-5.0556-5.5098-8.0902-11.8406-21.4468-6.038-12.7387-3.4603-18.6079-9.6337-22.9787-5.358-3.7936-14.1547-4.2257-18.1826,0-4.1071,4.3088-1.863,11.9988,0,18.383,1.9421,6.6554,5.0656,11.0752,11.3125,19.9149,7.0363,9.9566,9.4592,11.0394,10.7234,11.4893,6.5914,2.3463,15.8186-.3572,17.621-5.3617Z"/>
      <path class="cls-2" d="M140.3993,330.4344c-.3535-.9379-7.0626-18.2628-15.4684-17.3617-7.334.7862-10.6495,14.8774-11.234,17.3617-1.2827,5.4515-4.3618,18.5382,4.0851,25.3443,6.0366,4.864,16.3385,5.2139,21.9685,0,7.5623-7.0034,2.5764-20.2307.6488-25.3443Z"/>
      <path class="cls-4" d="M160.0409,380.3571c2.7714,2.717-.1972,6.8611,0,17.3071.1016,5.3857.9046,5.0179,2.4064,16.7254,2.0106,15.6734.7191,17.483,0,18.2623-3.8997,4.2261-13.7567,2.8497-19.8846-1.5369-6.032-4.318-7.5984-10.9424-9.3427-18.319-1.7584-7.4367-3.2215-13.6239,0-20.3637,4.1945-8.7755,13.0251-11.5715,14.616-12.0752,2.9389-.9305,9.2254-2.921,12.2048,0Z"/>
      <path class="cls-2" d="M208.4567,197.6684c1.1045-8.7823,9.8431-13.6333,16.5594-17.3617,4.4595-2.4756,13.5558-7.5252,24.5106-5.1064,3.5463.783,13.2452,2.9245,15.9589,11.13,1.8808,5.6871.0834,13.3112-4.7248,16.4444-7.1686,4.6714-15.3276-4.3556-23.4995,0-7.9149,4.2187-5.5417,15.5016-11.224,16.9597-6.463,1.6585-19.0354-10.4987-17.5806-22.0661Z"/>
      <path class="cls-2" d="M276.0799,167.0301c4.451-15.1244,25.4347-17.7355,30.6383-18.383,8.5289-1.0613,8.1958,1.3196,31.209,4.0851,18.1812,2.1848,21.9385,1.1253,31.0888,4.6844,6.1384,2.3875,14.1693,5.5112,19.7055,13.6986,4.2391,6.2691,8.8156,18.1689,3.7839,26.1089-7.6501,12.0717-32.5632,7.1838-35.682,6.5719-20.0181-3.9275-22.7348-14.8638-37.7961-14.2979-14.189.5331-17.9841,10.4725-27.6283,7.7259-10.3499-2.9476-18.8868-18.0712-15.3192-30.194Z"/>
      <path class="cls-4" d="M531.9096,249.1902c1.8049-9.1229-4.2861-16.922-10.2128-24.5107-7.5588-9.6786-15.6119-14.7447-24-19.9149-12.6885-7.8208-19.9623-12.3042-29.1063-10.7234-6.5159,1.1264-14.7393,5.463-15.23,11.234-.4198,4.9377,4.9794,9.0644,9.1023,12.2156,9.2656,7.0819,13.1752,4.3809,21.9575,10.2525,10.0177,6.6975,16.2319,17.7672,16.8511,18.8936,2.2109,4.0222,4.2238,8.949,9.702,13.2766,2.3519,1.858,4.6609,3.6335,7.6597,3.6288,6.1578-.0096,11.9249-7.5206,13.2765-14.3523Z"/>
      <path class="cls-2" d="M453.3606,168.5621c-.3199-8.5046-12.0573-14.4025-14.8977-15.8298-2.4659-1.2391-3.0603-1.1621-23.4893-4.343-10.4112-1.6211-13.5739-2.1576-16.8511,0-3.634,2.3925-5.9441,7.1334-5.617,11.492.2742,3.654,2.3536,6.3944,12.2553,14.6799,10.1886,8.5255,15.2829,12.7883,18.1711,13.4052,13.1278,2.8039,30.8302-8.7313,30.4287-19.4043Z"/>
      <path class="cls-4" d="M474.7182,254.8599c3.1389-8.4542-16.1417-22.3014-21.351-26.0425-5.3268-3.8256-14.046-9.9453-27.1597-12.3858-11.1025-2.0662-19.7431-.451-21.9575,0-4.9772,1.0136-13.6603,2.7819-21.4468,9.8326-4.1075,3.7194-10.1652,9.2048-10.2128,17.3617-.0578,9.9258,8.8074,19.7654,16.8511,19.9149,7.8959.1468,8.8633-9.1578,20.4255-12.2009,7.9957-2.1044,15.583.2266,22.9788,2.4988,10.1927,3.1315,10.4803,5.8664,17.8723,7.1489,8.9427,1.5516,21.7809-.1508,24-6.1277Z"/>
      <path class="cls-4" d="M515.5693,282.9451c-3.4011-5.4341-9.7498-6.4666-20.2249-8.1702-8.7563-1.4241-16.2507-2.643-25.7327,0-5.0566,1.4095-16.0114,4.463-21.4468,14.2979-1.1562,2.0922-3.9147,7.0834-2.5532,13.2766.1841.8375,1.7609,7.5181,7.7555,10.6895,4.7316,2.5032,9.5294,1.3991,15.2233,0,10.408-2.5574,10.1949-6.2177,18.3829-7.6256,7.9094-1.36,9.754,1.7725,17.8724-.4208,3.5363-.9554,7.9978-2.1607,10.7234-6.2175,3.14-4.6736,2.7917-11.3692,0-15.8298Z"/>
      <path class="cls-2" d="M350.6331,225.7536c-2.2965-3.6789-8.3707-5.61-20.4255-9.322-11.4798-3.5349-17.2197-5.3024-24-5.4865-10.7822-.2928-18.7461,2.4641-24.5106,4.4596-8.3722,2.8982-13.8243,4.7856-18.383,10.3489-4.2616,5.2009-5.507,10.8863-6.1276,13.72-1.1409,5.2086-1.938,8.8478,0,11.8663,3.1166,4.8541,11.8204,5.7887,18.0685,3.5201,7.1918-2.6113,6.687-7.8535,14.1017-10.7234,3.9601-1.5328,8.2571-1.0219,16.8511,0,2.4265.2885,8.7003,1.1112,20.9362,4.0851,13.1708,3.2012,14.5865,4.3589,17.3618,3.1182,7.3061-3.2661,11.2219-17.4256,6.1276-25.5863Z"/>
      <path class="cls-4" d="M256.013,278.1661c-8.1079-7.3081-30.1223,7.5759-31.2522,8.3534-3.7045,2.5489-15.9976,11.6462-21.4468,28.3404-2.378,7.2852-5.725,17.5389,0,24.5106,3.4078,4.15,9.9856,7.0829,15.3192,5.3617,6.2148-2.0055,5.0624-8.498,14.9416-20.6808,1.4042-1.7317,4.8568-5.3229,11.7618-12.5052,8.2764-8.6087,9.3161-9.3271,10.6765-12.0055,3.2776-6.4533,4.7596-17.0846,0-21.3747Z"/>
      <path class="cls-4" d="M293.6969,285.7536c9.6453-11.5905,23.5959-14.0974,31.4042-15.5005,8.4815-1.5241,26.1537-3.1596,44.4255,5.9001,8.7676,4.3473,22.3905,11.1019,22.948,22.6216.3461,7.1512-4.4163,14.6199-10.5635,18.5261-5.1068,3.2451-10.2105,3.4224-12.3845,3.4706-10.6974.2376-14.3143-5.9622-26.432-10.078-5.36-1.8206-12.1244-2.1228-25.6531-2.7273-21.197-.9471-28.0277,1.2313-30.6383-2.974-3.8171-6.1488,6.1249-18.3151,6.8936-19.2388Z"/>
      <path class="cls-4" d="M324.3352,340.1365c-5.946-10.9579-22.741-10.2774-30.6383-9.9574-5.7817.2343-17.9142.7258-28.2114,9.9574-1.5971,1.4319-14.4333,13.2998-12.3844,29.1064.1043.8049,1.9919,14.2711,9.1915,16.0851,5.7793,1.4562,8.1735-6.3113,22.2128-12.2553,8.4411-3.5738,17.6154-5.0166,19.9714-5.3617,9.3138-1.3641,11.2234-.0954,14.5505-2.2979,6.7737-4.4842,9.8046-16.9896,5.3079-25.2766Z"/>
      <path class="cls-4" d="M394.7113,345.234c1.7693,8.2886-11.8369,18.1089-22.1211,21.7111-5.1121,1.7906-13.5109,4.7324-19.6494,0-5.7473-4.4308-6.7568-13.464-4.095-19.9149,2.9335-7.1093,9.8118-9.8361,12.0696-10.7312,13.1663-5.2197,31.9222.158,33.7958,8.9351Z"/>
      <path class="cls-4" d="M233.5747,394.2566c-1.0338-1.421-10.9365-14.5957-25.2341-12.8317-11.8043,1.4564-18.0283,12.0373-21.3535,17.6904-3.2348,5.4993-9.1599,15.572-5.1199,25.6114,4.283,10.6433,16.769,13.8013,21.4468,14.9843,3.6677.9276,10.0955,2.5533,17.617,0,11.0203-3.7411,15.6669-13.4928,16.3486-14.9843,6.9807-15.2747-3.2531-29.8492-3.7048-30.4701Z"/>
      <path class="cls-4" d="M334.9831,400.6472c-12.5745,2.6575-13.48,9.326-22.9031,10.1582-10.9619.9681-14.5484-7.6312-22.4077-5.0791-7.1898,2.3347-12.1743,12.1243-11.2944,20.9534,1.171,11.7505,12.2845,17.3381,14.5532,18.393,8.1737,3.801,16.215,2.0956,26.0964,0,7.3425-1.5572,6.3124-2.6126,18.8999-5.8744,5.057-1.3104,7.7264-1.7887,10.9186-4.0831,5.4307-3.9034,7.4593-9.5304,7.9776-11.1275,2.0699-6.3778,2.2302-16.812-4.1478-21.8087-5.2988-4.1512-12.6256-2.6028-17.6926-1.5319Z"/>
      <path class="cls-4" d="M394.8678,381.4249c18.755-8.3324,22.6553-5.8603,28.0532-11.9197,5.9432-6.6716,4.1677-12.9831,11.7122-17.6291,1.3986-.8613,5.5063-3.3113,10.6095-2.548,6.7587,1.0109,11.796,7.1397,13.1351,13.0213,1.3082,5.7458-1.0989,10.4402-4.3088,16.4771-3.588,6.7479-6.6947,9.2389-17.1379,20.6285-11.9319,13.013-11.2694,13.4616-14.01,14.9795-10.3055,5.7078-24.5957,3.8984-34.1994-3.2625-1.1505-.8578-12.9166-9.8345-10.7693-18.2057.3533-1.3772,1.5953-4.7349,16.9156-11.5413Z"/>
      <path class="cls-2" d="M223.9948,293.328c-.9564-1.8669,10.7483-8.8417,11.9149-9.5319,4.4285-2.6202,7.0208-3.5247,9.5319-2.7234.1523.0486,3.1215,1.0356,3.4042,3.0638.3051,2.1882-2.7224,4.1153-3.7447,4.766-2.791,1.7765-5.2355,1.919-8.6642,2.383-9.1517,1.2385-11.9714,2.9615-12.4422,2.0425Z"/>
      <path class="cls-2" d="M279.8246,170.094c-1.6675-4.9393,4.9733-10.6052,6.1093-11.5745,4.8494-4.1375,10.3453-4.9253,16.3588-5.7872,6.3952-.9167,11.2936-.4698,15.6595-.0434,6.5773.6423,17.0839,2.4052,17.0308,4.1285-.0322,1.0455-3.9264,1.2676-16.6904,4.0851-11.9346,2.6344-14.1853,3.6886-16.3405,5.4468-4.4775,3.6529-3.9425,6.5918-7.8298,8.2119-5.0394,2.1003-12.785.0143-14.2979-4.4672Z"/>
      <g>
        <path class="cls-3" d="M542.0541,216.5507c2.8316-1.511,2.6909-20.0342,7.7038-28.1403,4.0945-6.6207,6.8369-11.0553,9.0974-17.4155,3.6309-10.2161,1.2223-11.906,4.9263-19.582,2.3914-4.9558,3.4693-4.4048,10.9301-14.4349,7.8801-10.5938,8.5585-6.5311,14.9897-14.686.0056-.0071.0103-.0137.0159-.0208,3.5637,1.144,7.4591,1.1032,11.0709-.2291l21.0393-7.761c12.5948-4.6459,15.0781-21.3767,4.3757-29.4806l-29.7406-22.5195c-10.8731-8.2331-26.526-.9424-27.2201,12.6784l-1.1625,22.8116c-.1752,3.4392.7032,6.7926,2.4364,9.6572-.6291.7817-1.2989,1.6036-2.0253,2.4785-3.4162,4.1149-2.5349,11.4779-11.4911,19.2497-7.4074,6.4277-11.111,9.6416-14.7993,11.9832-7.8172,4.9632-10.1827,4.4459-18.1624,9.9436-2.8848,1.9874-6.9259,4.805-11.195,9.3836-4.6976,5.0383-23.5359,8.7017-23.0733,16.4941"/>
        <path class="cls-2" d="M542.0577,220.5585c-1.4326,0-2.8184-.7695-3.54-2.1221-.8779-1.6455-.4902-3.6289.8223-4.835.5088-1.2695,1.1016-4.9736,1.542-7.7285,1.0303-6.4463,2.3135-14.4697,5.4678-19.5703,3.9814-6.4375,6.6113-10.6895,8.7305-16.6494,1.5986-4.501,1.9033-7.085,2.1973-9.585.3525-2.9912.6846-5.8164,2.8945-10.3965,1.5537-3.2197,2.7822-4.6318,4.6416-6.7695,1.4482-1.665,3.4326-3.9463,6.6836-8.3154,4.668-6.2773,7.2314-7.9951,9.4922-9.5117,1.5996-1.0723,2.9824-2,5.5176-5.2041l1.6494-2.3076,2.7852.8926c2.7559.8828,5.7598.8223,8.459-.1738l21.04-7.7607c4.5195-1.667,7.6396-5.5068,8.3467-10.2725.708-4.7646-1.1631-9.3457-5.0029-12.2539l-29.7412-22.5195c-3.9014-2.9541-8.8799-3.4824-13.3154-1.418-4.4365,2.0664-7.2344,6.2178-7.4834,11.1064l-1.1621,22.8115c-.1328,2.5938.5117,5.1455,1.8633,7.3799l1.4512,2.4004-1.7598,2.1855c-.6396.7959-1.3223,1.6328-2.0605,2.5234-.7754.9336-1.3086,2.4414-1.9854,4.3506-1.4482,4.0938-3.4326,9.7002-9.9639,15.3682-7.5586,6.5586-11.3418,9.8408-15.2793,12.3398-3.8604,2.4502-6.5635,3.6875-8.9492,4.7793-2.7363,1.2529-5.0996,2.334-9.0869,5.0811-2.5801,1.7773-6.4785,4.4639-10.5381,8.8164-2.3174,2.4863-6.4482,4.3496-10.8213,6.3213-3.6699,1.6553-11.3076,5.0996-11.1826,7.2021.1318,2.209-1.5527,4.1064-3.7627,4.2373-2.167.1377-4.1055-1.5527-4.2373-3.7627-.4521-7.6123,8.2285-11.5283,15.8867-14.9824,3.2979-1.4873,7.0352-3.1729,8.2549-4.4814,4.6562-4.9922,9.1611-8.0957,11.8535-9.9502,4.5625-3.1445,7.4785-4.4785,10.2988-5.7686,2.3604-1.0811,4.5908-2.1016,7.9883-4.2588,3.4336-2.1787,7.0645-5.3301,14.2998-11.6074,4.957-4.3018,6.4062-8.3955,7.6846-12.0078.8672-2.4502,1.6865-4.7646,3.3721-6.7949.1182-.1426.2354-.2832.3506-.4229-1.2686-2.9414-1.8457-6.1279-1.6807-9.3564l1.1621-22.8115c.4033-7.9062,4.9277-14.6211,12.1035-17.9639,7.1777-3.3418,15.2275-2.4834,21.5371,2.2949l29.7412,22.5195c6.2119,4.7031,9.2373,12.1123,8.0928,19.8193-1.1436,7.708-6.1904,13.9189-13.501,16.6152l-21.0391,7.7607c-3.5,1.291-7.3135,1.6152-10.9795.957-2.4395,2.7588-4.1768,3.9238-5.7422,4.9736-1.8926,1.2686-3.6797,2.4668-7.5254,7.6377-3.4336,4.6152-5.5342,7.0293-7.0674,8.793-1.7344,1.9932-2.3828,2.7393-3.4697,4.9912-1.626,3.3691-1.8477,5.249-2.1533,7.8516-.3135,2.6641-.7041,5.9805-2.6055,11.3311-2.4053,6.7656-5.3672,11.5537-9.4658,18.1816-2.3096,3.7344-3.4521,10.8789-4.3701,16.6201-1.168,7.3018-1.8105,11.3232-4.8564,12.9482-.6006.3203-1.2461.4717-1.8818.4717ZM540.168,213.0146c-.002.001-.0029.002-.0049.0029.002-.001.0029-.002.0049-.0029Z"/>
      </g>
      <g>
        <path class="cls-3" d="M278.4318,146.5784c-.0375-2.162-11.1908-7.7607-14.5147-13.2544-2.7148-4.4871-4.5332-7.4926-7.6545-10.7998-5.0135-5.3122-6.7661-4.386-10.2337-8.9628-2.2388-2.9548-1.5776-3.4323-5.3045-10.9845-3.9364-7.9767-1.2915-7.1371-4.2095-13.4965-.0025-.0055-.0051-.0104-.0076-.0159,1.7795-1.7865,2.9502-4.1354,3.2593-6.7105l1.8001-15.0004c1.0777-8.9797-8.1955-15.6024-16.3397-11.6695l-22.6318,10.9289c-8.2741,3.9956-8.7037,15.621-.747,20.2163l13.3256,7.6961c2.0091,1.1603,4.2899,1.6623,6.5398,1.5016.2758.6172.5633,1.2711.8652,1.9752,1.42,3.3115,6.1066,5.042,8.0202,12.7983,1.5826,6.415,2.374,9.6225,2.6469,12.5531.5784,6.2115-.4576,7.4716.3916,13.9445.307,2.34.7571,5.6283,2.1934,9.5937,1.5807,4.3634-2.0019,16.7864,2.8139,18.8997"/>
        <path class="cls-2" d="M238.6426,169.8007c-.5381,0-1.084-.1094-1.6084-.3389-5.5303-2.4268-5.1768-9.6152-4.8926-15.3896.0967-1.9639.2422-4.9307-.0781-5.8164-1.6162-4.459-2.1064-8.2012-2.3994-10.4375-.5-3.8145-.4033-6.0312-.3096-8.1748.0742-1.7012.1445-3.3086-.0986-5.9189-.2461-2.6348-1.0146-5.752-2.5479-11.9639-.9717-3.9404-2.7754-5.8467-4.5205-7.6904-1.1436-1.209-2.3232-2.4561-3.1201-4.1133-2.0703-.2441-4.0703-.9062-5.8975-1.9619l-13.3262-7.6963c-4.9697-2.8691-7.9248-8.2148-7.7129-13.9502s3.5537-10.8486,8.7217-13.3438l22.6318-10.9287c5.1631-2.4951,11.0322-1.9941,15.6992,1.3398,4.667,3.332,7.0449,8.7217,6.3613,14.415l-1.7998,15.001c-.2988,2.4834-1.209,4.8662-2.6211,6.918.7451,2.0654.9033,3.4043,1.0479,4.6211.1738,1.4707.3242,2.7402,2.1465,6.4326,1.7363,3.5195,2.585,5.6299,3.1455,7.0264.6504,1.6191.8467,2.1074,1.7598,3.3115,1.3896,1.835,2.2715,2.4248,3.7334,3.4033,1.5557,1.043,3.4932,2.3398,6.2197,5.2295,3.4141,3.6162,5.4082,6.9121,8.167,11.4727,1.3984,2.3096,5.3779,5.2197,8.2832,7.3447,4.2158,3.083,6.7607,4.9434,6.8115,7.918.0381,2.2129-1.7256,4.0371-3.9385,4.0752h-.0693c-1.708,0-3.1738-1.0713-3.7471-2.5869-.6934-.6738-2.458-1.9648-3.7871-2.9365-3.6445-2.665-8.1807-5.9824-10.4082-9.6621-2.6895-4.4473-4.3125-7.1289-7.1396-10.124-2.1074-2.2334-3.502-3.167-4.8506-4.0703-1.7021-1.1396-3.4619-2.3174-5.6631-5.2236-1.5605-2.0596-2.0566-3.2939-2.8076-5.1631-.5469-1.3604-1.2949-3.2227-2.8965-6.4678-2.2529-4.5654-2.6426-6.709-2.918-9.0371-.1514-1.2734-.2607-2.1973-1.3135-4.5029l-1.2666-2.5332,2.0361-2.042c1.1689-1.1738,1.9219-2.7217,2.1191-4.3594l1.7998-15c.3291-2.7402-.8154-5.334-3.0615-6.9385-2.2471-1.6045-5.0723-1.8457-7.5566-.6445l-22.6328,10.9287c-2.5244,1.2197-4.0938,3.6201-4.1973,6.4229-.1035,2.8018,1.2842,5.3125,3.7119,6.7148l13.3262,7.6963c1.29.7441,2.7559,1.0801,4.252.9746l2.7998-.1992,1.1436,2.5635c.2822.6328.5771,1.3027.8877,2.0244.2305.5391.9346,1.2822,1.749,2.1436,2.1104,2.2305,5.002,5.2861,6.4795,11.2783,1.6279,6.5977,2.4453,9.9102,2.7471,13.1406.2939,3.1562.2041,5.2051.125,7.0127-.0859,1.9639-.1602,3.6611.25,6.7822.2666,2.0361.6689,5.1123,1.9873,8.75.8691,2.4004.7129,5.5771.5479,8.9395-.1133,2.3145-.3223,6.5605.332,7.7627,1.8701.96,2.6914,3.2236,1.8359,5.1738-.6602,1.5029-2.1299,2.3975-3.6719,2.3984Z"/>
      </g>
      <g>
        <path class="cls-1" d="M603.1453,447.997c2.295,1.3781,14.9158-8.1439,22.6976-8.4648,6.3559-.262,10.6131-.4376,15.9743-1.9572,8.6115-2.4409,8.6965-5.1254,15.6012-6.2198,4.4578-.7066,4.5604.3905,14.7491.9469,10.7614.5877,8.2816,3.1669,16.728,3.8961.0073.0006.014.0008.0213.0014.8029,3.2825,2.5647,6.2142,5.0846,8.2744l14.679,12.0012c8.7873,7.1844,21.3488.5622,22.134-11.6685l2.182-33.9877c.7977-12.4258-11.1618-20.5836-20.7973-14.1863l-16.1373,10.7141c-2.4329,1.6154-4.3381,3.9856-5.5281,6.7553-.8153-.0795-1.6762-.1693-2.5986-.2752-4.3382-.4976-8.9876,3.913-18.2957,1.0753-7.6984-2.347-11.5476-3.5204-14.7927-5.1256-6.878-3.4021-7.5767-5.4578-14.893-8.7113-2.6449-1.1762-6.3729-2.8069-11.4082-3.7153-5.5408-.9994-16.4344-13.4153-21.5642-9.1038"/>
        <path class="cls-2" d="M716.7461,463.4511c-3.7676,0-7.4736-1.3154-10.6016-3.873l-14.6797-12.002c-2.4365-1.9912-4.3604-4.6699-5.5742-7.7148-2.7959-.4697-4.3418-1.1836-5.7422-1.8291-1.6904-.7803-3.1494-1.4531-8.2002-1.7295-4.7344-.2578-7.3496-.626-9.2588-.8945-2.1318-.2998-2.7764-.3916-4.6436-.0947-2.8564.4531-4.1143,1.168-6.0186,2.25-2.0039,1.1396-4.499,2.5576-9.1172,3.8672-5.8184,1.6494-10.4678,1.8408-16.9023,2.1055-3.3623.1387-8.8867,2.9678-12.9199,5.0332-5.6465,2.8926-9.0566,4.6357-12.0049,2.8633-1.8975-1.1396-2.5127-3.6006-1.373-5.498.8838-1.4746,2.5684-2.1777,4.167-1.8789,1.1348-.3545,3.6621-1.6494,5.5586-2.6201,5.2129-2.6699,11.1221-5.6963,16.2422-5.9072,6.3223-.2607,10.1387-.418,15.0469-1.8086,3.6855-1.0449,5.5449-2.1016,7.3418-3.123,2.1777-1.2383,4.4297-2.5186,8.7236-3.1992,3.0547-.4844,4.6309-.2637,7.0166.0742,1.7666.248,4.1855.5889,8.5781.8291,6.0957.333,8.5479,1.2666,11.1201,2.4531,1.4014.6465,2.5137,1.1592,5.5791,1.4385h2.9785l.7471,3.0547c.6064,2.4795,1.9297,4.6543,3.7275,6.124l14.6797,12.002c2.6582,2.1738,5.9443,2.6514,9.0146,1.3154,3.7646-1.6396,6.2881-5.5244,6.584-10.1387l2.1816-33.9873c.3008-4.6807-1.749-8.8828-5.3486-10.9648-2.9453-1.7041-6.3105-1.5654-9.2324.374l-16.1377,10.7139c-1.7529,1.1631-3.1572,2.8926-4.0635,4.999l-1.1572,2.6924-2.917-.2861c-.834-.082-1.7158-.1738-2.6611-.2822-.7656-.0928-2.0127.2656-3.4521.6748-3.5742,1.0186-8.4668,2.4141-15.5566.252-7.8945-2.4062-11.8574-3.6143-15.4014-5.3672-3.4561-1.709-5.5342-3.1494-7.3691-4.4199-2.0381-1.4121-3.7998-2.6309-7.375-4.2207-2.3193-1.0322-5.8232-2.5918-10.4922-3.4346-2.9531-.5322-6.002-2.6699-9.5312-5.1455-2.3789-1.667-7.3564-5.125-8.8262-4.793-1.6953,1.4229-4.1797,1.1836-5.6045-.5098-1.4238-1.6943-1.1621-4.2422.5322-5.666,5.5566-4.6748,12.7334.3633,18.5,4.4072,2.167,1.5195,5.1338,3.6006,6.3525,3.8203,5.6221,1.0146,9.8184,2.8818,12.3262,3.998,4.2627,1.8955,6.5098,3.4512,8.6816,4.9561,1.7637,1.2217,3.4297,2.375,6.3594,3.8242,2.9551,1.4619,6.708,2.6055,14.1846,4.8848,4.8301,1.4727,7.9785.5742,11.0225-.293,2.0273-.5781,4.1221-1.1816,6.4189-.9453,1.4541-2.3516,3.3535-4.334,5.5957-5.8232l16.1377-10.7139c5.4727-3.6318,12.083-3.8701,17.6787-.6338,6.2549,3.6182,9.8311,10.6748,9.334,18.416l-2.1816,33.9873c-.4893,7.626-4.8506,14.1289-11.3828,16.9727-2.1768.9482-4.4414,1.415-6.6846,1.415Z"/>
      </g>
      <g>
        <path class="cls-3" d="M136.2283,479.6767c-1.9768,1.6682-15.7998-3.9699-23.3648-2.6389-6.1788,1.0872-10.3173,1.8154-15.7533,1.6077-8.7316-.3337-9.277-2.6413-16.1291-2.1616-4.4239.3097-4.3334,1.2812-14.0696,3.8698-10.2834,2.7341-7.4451,4.4554-15.4702,6.8335-.007.0021-.0133.0036-.0203.0057-.2082,3.0092-1.4022,5.9129-3.4783,8.2184l-12.0936,13.4303c-7.2396,8.0398-20.5048,4.9012-23.374-5.5304l-7.973-28.9881c-2.9149-10.598,7.2178-20.1369,17.6206-16.588l17.4223,5.9436c2.6267.8962,4.8744,2.5553,6.5009,4.7082.773-.2374,1.5883-.4933,2.4602-.7757,4.1005-1.328,9.3486,1.531,17.8413-2.8516,7.0239-3.6247,10.5358-5.437,13.3903-7.4983,6.05-4.3689,6.3694-6.294,12.868-10.6249,2.3493-1.5657,5.6654-3.7489,10.3677-5.5769,5.1745-2.0113,13.5435-15.0181,19.2381-12.3442"/>
        <path class="cls-2" d="M25.7862,517.3964c-1.3828,0-2.7852-.1621-4.1855-.4932-6.3916-1.5127-11.2471-6.1963-12.9893-12.5293l-7.9736-28.9883c-1.7432-6.3369.1475-13.0732,4.9336-17.5791,4.7861-4.5049,11.625-5.9844,17.8457-3.8643l17.4219,5.9434c2.4277.8291,4.6201,2.1592,6.458,3.9053,2.1465-.6904,4.2734-.6045,6.3369-.5234,3.1289.126,6.377.2529,10.876-2.0693,6.8379-3.5283,10.2695-5.2998,12.8818-7.1855,2.5869-1.8682,3.999-3.2148,5.4932-4.6406,1.832-1.748,3.7266-3.5557,7.498-6.0703,2.2168-1.4775,5.9277-3.9512,11.1387-5.9775,1.1973-.4648,3.6162-2.7988,5.5605-4.6738,5.0547-4.877,10.7793-10.4053,16.833-7.5625,2.0029.9404,2.8652,3.3262,1.9238,5.3301-.9395,2.0039-3.3242,2.8662-5.3301,1.9238-.0176-.001-.0361-.001-.0547-.001-1.5068,0-5.7539,4.0957-7.8076,6.0781-2.9629,2.8574-5.5215,5.3262-8.2207,6.376-4.3965,1.709-7.5264,3.7959-9.5977,5.1758-3.1904,2.127-4.6826,3.5508-6.4111,5.1992-1.5479,1.4775-3.3018,3.1514-6.334,5.3408-3.0967,2.2354-6.7061,4.0986-13.8975,7.8096-6.3779,3.291-11.2852,3.1016-14.8691,2.9551-1.4893-.0586-2.7783-.1094-3.5762.1484-.8916.2891-1.7266.5508-2.5186.7939l-2.6826.8232-1.6904-2.2393c-1.1738-1.5527-2.7637-2.7041-4.5977-3.3301l-17.4219-5.9434c-3.4541-1.1797-7.1064-.3877-9.7646,2.1143s-3.667,6.0977-2.6982,9.6182l7.9736,28.9883c.9521,3.4648,3.6094,6.0273,7.1064,6.8545,3.4951.8271,7.0205-.2734,9.4248-2.9434l12.0938-13.4307c1.4365-1.5957,2.3096-3.6602,2.458-5.8135l.1943-2.8047,2.8066-.8018c2.9814-.8906,3.9902-1.5811,5.2637-2.4531,1.8613-1.2754,3.9717-2.7207,10.1943-4.376,4.2119-1.1201,6.4961-1.918,8.1631-2.5,2.2148-.7744,3.6787-1.2852,6.6572-1.4932,4.2178-.2959,6.5996.3447,8.9033.9629,1.917.5146,3.8994,1.0469,7.6582,1.1914,5.0039.1924,8.9414-.501,14.8975-1.5488,4.9219-.8643,11.3945.5889,16.5967,1.7588,2.0479.46,4.7861,1.0752,5.9209,1.1289,1.5723-.6592,3.4531-.2607,4.6123,1.1123,1.4277,1.6914,1.2129,4.2188-.4785,5.6465-2.418,2.043-5.7539,1.2939-11.8115-.0684-4.5049-1.0127-10.1064-2.2705-13.4434-1.6865-6.2383,1.0977-10.7373,1.8945-16.6006,1.665-4.6602-.1777-7.3057-.8887-9.4316-1.46-2.0391-.5469-3.3887-.9102-6.2637-.708-1.9082.1338-2.5801.3682-4.5732,1.0645-1.7891.626-4.2402,1.4814-8.748,2.6807-4.8896,1.2998-6.2666,2.2432-7.7246,3.2412-1.2314.8447-2.5938,1.7773-5.209,2.7559-.6738,2.9141-2.0791,5.6406-4.0869,7.8691l-12.0938,13.4307c-3.4316,3.8115-8.1113,5.873-13.04,5.873Z"/>
      </g>
      <g>
        <path class="cls-4" d="M186.9058,238.6414c-1.7024-2.7208-20.1719-1.3047-28.604-5.7474-6.887-3.6288-11.4999-6.0592-18.0007-7.8763-10.4419-2.9187-11.9619-.3994-19.8748-3.566-5.1088-2.0444-4.6333-3.1577-15.1534-9.9099-11.1113-7.1317-7.1051-8.0883-15.6835-13.9426-.0075-.0051-.0144-.0093-.0218-.0144.8958-3.6341.5869-7.5174-.991-11.0288l-9.1916-20.4548c-5.5023-12.2449-22.3645-13.57-29.712-2.3349l-20.4177,31.221c-7.4647,11.4143.8868,26.528,14.523,26.2823l22.8375-.4114c3.4431-.0621,6.7281-1.1693,9.4664-3.0957.8232.5738,1.6892,1.1854,2.6122,1.8498,4.3404,3.1247,11.6252,1.7384,19.9954,10.1381,6.9226,6.9471,10.384,10.4206,12.9741,13.9389,5.4898,7.4569,5.1366,9.8523,11.1708,17.4344,2.1814,2.7411,5.2706,6.5785,10.1323,10.5221,5.3499,4.3394,10.302,22.8807,18.044,21.8825"/>
        <path class="cls-2" d="M150.3321,297.58c-6.8545.001-11.0889-7.8896-14.8496-14.8955-1.7109-3.1875-3.6504-6.7998-5.04-7.9268-5.2939-4.2949-8.7051-8.5781-10.7422-11.1377-3.4521-4.3369-4.9844-7.1543-6.4658-9.8789-1.2402-2.2812-2.4121-4.4355-4.7979-7.6758-2.4111-3.2764-5.8076-6.6846-12.5742-13.4756-4.624-4.6396-8.8076-5.8027-12.5-6.8301-2.5029-.6963-4.8682-1.3535-7.0088-2.8955-.1514-.1084-.2998-.2148-.4473-.3203-2.8467,1.4668-5.9844,2.2627-9.2178,2.3213l-22.8379.4111c-.1348.002-.2705.0039-.4043.0039-7.749,0-14.5859-4.0303-18.3496-10.8408-3.8281-6.9287-3.5283-15.0205.8047-21.6455l20.418-31.2207c4.2646-6.5205,11.4512-10.0391,19.2158-9.4395,7.7676.6104,14.3115,5.2178,17.5049,12.3252l9.1914,20.4541c1.5293,3.4043,2.1143,7.1865,1.7119,10.8887,2.9189,2.2432,4.2012,3.8965,5.3564,5.3857,1.3955,1.8008,2.7139,3.501,8.1377,6.9824,4.8418,3.1074,7.3955,5.0371,9.2607,6.4453,2.1064,1.5918,2.8955,2.1875,5.2168,3.1162,3.4727,1.3896,5.3633,1.4814,7.9795,1.6074,2.6797.1289,6.0156.29,11.4854,1.8193,6.9102,1.9316,11.8906,4.5557,18.7852,8.1875,3.8906,2.0508,11.0977,2.6982,16.8887,3.2188,7.3623.6621,11.4189,1.0264,13.249,3.9521,1.1738,1.876.6045,4.3486-1.2725,5.5225-1.582.9883-3.5879.7393-4.8799-.4863-1.3018-.4209-5.0371-.7559-7.8145-1.0059-6.5029-.585-14.5967-1.3125-19.9023-4.1084-6.7002-3.5293-11.123-5.8594-17.2119-7.5615-4.6006-1.2861-7.1992-1.4111-9.7129-1.5332-3.0088-.1445-5.8506-.2822-10.5713-2.1709-3.3184-1.3281-4.8115-2.4561-7.0703-4.1621-1.7617-1.3311-4.1738-3.1533-8.7588-6.0967-6.584-4.2256-8.4746-6.6641-10.1426-8.8154-1.1797-1.5215-2.2002-2.8369-5.5693-5.1445l-2.415-1.4844.6953-2.8447c.6924-2.8076.4248-5.8008-.7559-8.4268l-9.1914-20.4541c-1.9746-4.3945-6.0195-7.2432-10.8223-7.6201-4.79-.374-9.2441,1.8037-11.8809,5.8359l-20.418,31.2207c-2.6777,4.0957-2.8643,9.0986-.4961,13.3828,2.3672,4.2832,6.6855,6.8223,11.5938,6.6992l22.8379-.4111c2.5967-.0469,5.0986-.8652,7.2324-2.3672l2.2939-1.6123,2.3018,1.6016c.8389.585,1.7217,1.209,2.6631,1.8857.9824.708,2.5234,1.1367,4.4746,1.6787,4.1836,1.1641,9.9131,2.7568,16.0186,8.8828,7.0596,7.085,10.5967,10.6357,13.3633,14.3936,2.71,3.6816,4.1309,6.293,5.3838,8.5977,1.4375,2.6445,2.6797,4.9277,5.6953,8.7168,1.9521,2.4521,4.9043,6.1592,9.5205,9.9043,2.6406,2.1416,4.7832,6.1338,7.0527,10.3604,1.8701,3.4844,5.7256,10.668,7.8408,10.668.0391,0,.0762-.0029.1133-.0078,2.1895-.2832,4.2051,1.2676,4.4873,3.4619.2832,2.1953-1.2676,4.2041-3.4619,4.4873-.4053.0518-.8037.0771-1.1914.0771ZM184.3926,241.6455h.001-.001ZM183.5079,240.7665c.001.002.002.0039.0029.0049-.001-.001-.002-.0029-.0029-.0049Z"/>
      </g>
      <g>
        <path class="cls-1" d="M486.0727,589.6846c1.1276,3.0049,19.5101,5.2883,26.8908,11.3184,6.0283,4.9253,10.066,8.2242,16.0759,11.2972,9.6534,4.936,11.6438,2.7692,18.7694,7.4454,4.6005,3.019,3.9132,4.0157,12.8812,12.7243,9.472,9.1981,5.3556,9.3392,12.5991,16.7818.0063.0065.0123.012.0186.0184-1.6003,3.3835-2.0694,7.2507-1.221,11.0057l4.9423,21.8737c2.9585,13.0943,19.2208,17.7447,28.655,8.1942l26.2162-26.5395c9.5846-9.7028,4.4039-26.1749-9.009-28.6446l-22.4636-4.1363c-3.3868-.6235-6.8262-.1914-9.8929,1.1522-.6927-.7259-1.4199-1.4975-2.1923-2.3321-3.6327-3.9251-11.0477-4.0144-17.5813-13.9103-5.4036-8.1845-8.1055-12.2767-9.9445-16.2396-3.898-8.3993-3.0758-10.6768-7.4825-19.307-1.593-3.12-3.8578-7.4949-7.8386-12.3262-4.3806-5.3162-5.5484-24.4719-13.3343-25.0325"/>
        <path class="cls-2" d="M593.7237,699.4277c-1.9531,0-3.9336-.2744-5.8975-.8359-7.4912-2.1426-12.9893-7.959-14.7061-15.5596l-4.9424-21.874c-.8223-3.6396-.6426-7.4639.4883-11.0117-2.4209-2.7881-3.3457-4.6572-4.1797-6.3418-1.0098-2.041-1.9639-3.9697-6.5879-8.46-4.1279-4.0088-6.2471-6.4072-7.7949-8.1582-1.749-1.9785-2.4033-2.7188-4.4941-4.0908-3.127-2.0527-4.9609-2.5176-7.501-3.1621-2.6006-.6592-5.8369-1.4795-10.8936-4.0664-6.3896-3.2656-10.751-6.8291-16.7861-11.7607-3.4014-2.7793-10.3359-4.8467-15.9082-6.5078-7.085-2.1123-10.9873-3.2754-12.2002-6.5059-.7773-2.0723.2715-4.3818,2.3438-5.1602,1.7441-.6562,3.6621-.0127,4.6875,1.4463,1.1914.6709,4.7861,1.7422,7.459,2.5391,6.2568,1.8652,14.0439,4.1875,18.6885,7.9814,5.8623,4.791,9.7354,7.9551,15.3643,10.832,4.2539,2.1758,6.7764,2.8154,9.2158,3.4336,2.9189.7402,5.6768,1.4404,9.9277,4.2295,2.9883,1.9619,4.2275,3.3633,6.1025,5.4854,1.4619,1.6543,3.4639,3.9199,7.3721,7.7148,5.6133,5.4502,6.9814,8.2158,8.1885,10.6562.8545,1.7266,1.5928,3.2188,4.4375,6.1514l.2432.2598,1.6904,1.9736-1.1113,2.3486c-1.2363,2.6143-1.5684,5.6006-.9336,8.4072l4.9424,21.875c1.0615,4.6982,4.46,8.2949,9.0918,9.6191,4.6309,1.3271,9.417.0693,12.8027-3.3584l26.2168-26.5391c3.4385-3.4814,4.6152-8.3477,3.1465-13.0166-1.4678-4.6689-5.2188-7.9854-10.0312-8.8711l-22.4629-4.1357c-2.5547-.4727-5.168-.167-7.5596.8818l-2.5723,1.126-1.9375-2.0322c-.7041-.7393-1.4443-1.5244-2.2314-2.374-.8232-.8896-2.248-1.6162-4.0527-2.5361-3.8682-1.9717-9.167-4.6719-13.9316-11.8887-5.5088-8.3428-8.2715-12.5283-10.2354-16.7617-1.9258-4.1475-2.7988-6.9902-3.5684-9.499-.8838-2.876-1.6465-5.3604-3.8486-9.6719-1.4238-2.79-3.5762-7.0068-7.3623-11.5996-2.1611-2.624-3.4678-6.9619-4.8506-11.5537-1.1611-3.8564-3.5771-11.8789-5.6787-12.0303-2.207-.1592-3.8682-2.0771-3.709-4.2852s2.0508-3.8682,4.2852-3.709c7.6074.5479,10.3535,9.667,12.7764,17.7129,1.043,3.4629,2.2256,7.3877,3.3623,8.7686,4.3408,5.2676,6.8291,10.1406,8.3154,13.0518,2.5195,4.9346,3.4609,8,4.3711,10.9639.7617,2.4824,1.4824,4.8271,3.1768,8.4775,1.7129,3.6914,4.3652,7.71,9.6504,15.7148,3.6035,5.457,7.4727,7.4297,10.8867,9.1689,2.3154,1.1807,4.5029,2.2959,6.2949,4.2324.126.1357.251.2705.374.4033,3.083-.874,6.3154-1.0283,9.4971-.4434l22.4619,4.1357c7.7852,1.4336,13.8506,6.7979,16.2256,14.3486,2.375,7.5518.4727,15.4229-5.0908,21.0547l-26.2168,26.5391c-4.04,4.0898-9.3135,6.2676-14.8105,6.2676ZM489.8213,588.2695c.001.002.002.0049.0029.0068-.001-.002-.002-.0049-.0029-.0068Z"/>
      </g>
      <path class="cls-2" d="M169.1863,310.6936c-1.1359-12.4828,4.8664-22.2843,9.5319-29.9031,3.7944-6.1962,10.8234-17.369,24.5106-24.7556,5.7736-3.1158,15.4399-8.3324,23.1489-4.2388,3.3851,1.7975,6.8448,5.6302,6.8085,9.8723-.0264,3.0852-1.9008,6.2567-9.247,11.5484-12.9003,9.2924-16.5215,6.2844-23.7842,12.2814-6.4703,5.3428-10.2109,13.7746-17.6922,30.6383-2.6871,6.0571-4.1885,10.2618-6.4681,10.2128-3.2379-.0697-6.1738-8.681-6.8085-15.6557Z"/>
      <path class="cls-5" d="M578.509,451.2422c12.6064-6.1406,11.7697-25.8652,11.4894-32.4709-.2852-6.7203-.5725-13.4951-5.7448-18.0482-7.0463-6.2028-19.9879-5.4914-23.709,0-2.5277,3.7302,1.3301,6.5215,0,14.2184-1.7245,9.9795-9.2478,11.2953-9.6101,19.9149-.3069,7.3028,4.8351,12.5044,5.3617,13.0213,5.9165,5.8065,15.626,6.573,22.2128,3.3646Z"/>
    </g>
  </g>
</svg>