<?xml version="1.0" encoding="UTF-8"?>
<svg id="Capa_2" xmlns="http://www.w3.org/2000/svg" viewBox="0 0 749.0413 769.5396">
  <defs>
    <style>
      .cls-1 {
        fill: #70569b;
      }

      .cls-2 {
        fill: #a486ce;
      }

      .cls-3 {
        fill: #8566b2;
      }
    </style>
  </defs>
  <g id="Capa_1-2" data-name="Capa_1">
    <g>
      <g>
        <path class="cls-2" d="M306.1421,764.5398c-1.6914,0-3.4014-.1987-5.084-.5901l-36.335-8.4524c-7.9482-1.8489-14.0029-7.645-16.1963-15.5046-2.1934-7.8599-.0156-15.9536,5.8262-21.6514l16.0537-15.6577c2.6641-2.5981,5.9736-4.4766,9.5527-5.4585,1.083-3.2842,2.1719-5.0171,3.1562-6.5857,1.165-1.855,2.2646-3.6069,3.6338-9.73,1.2637-5.6501,2.2051-8.7319,2.8916-10.9819.7646-2.5022,1.0215-3.345,1.0928-5.7129.1074-3.5745-.4072-5.2268-1.1875-7.728-.0576-.1853-.1162-.375-.1768-.5696-1.0068-.2751-2.0059-.5596-3.0146-.8579-8.2363-2.4373-17.3174-7.762-26.0996-12.9114-5.2285-3.0659-10.167-5.9619-14.375-7.9028-5.1221-2.3677-9.7881-4.2712-14.3008-6.1118-10.999-4.4863-20.498-8.3608-31.5068-16.7517-2.9775-2.2659-5.9473-5.1541-9.3662-9.1362-2.8047,1.5393-5.2295,2.4377-6.8174,3.0259-3.4805,1.29-5.6729,1.6907-7.6074,2.0442-1.5264.2791-2.9678.5425-5.2188,1.282-2.2656.7439-4.9248,2.0825-10.2217,4.749-3.0996,1.5605-4.3154,3.3811-5.6016,5.3086-.7725,1.1567-1.6289,2.4395-2.8457,3.5464.1221,1.8896-.1006,3.7922-.668,5.6287l-4.249,13.771c-2.0449,6.6318-8.0977,11.0879-15.0605,11.0879-4.7744,0-9.2334-2.1536-12.2344-5.9082l-14.6963-18.3845c-3.6426-4.5569-4.4746-10.4907-2.2256-15.8733,2.248-5.3821,7.0537-8.9604,12.8545-9.5718l14.0713-1.4834c.5439-.0574,1.0977-.0864,1.6445-.0864,1.7852,0,3.5479.304,5.2158.8923,1.4199-.8516,2.5498-1.2942,3.7148-1.7092,1.1982-.4268,2.2324-.7954,5.0576-3.0933,2.8887-2.3494,4.6621-3.5803,5.8359-4.3945,1.3008-.9026,1.6104-1.1169,2.4121-2.0728,1.25-1.4907,1.5586-2.2976,2.1201-3.7627.6484-1.6963,1.457-3.8076,3.6045-7.0164,1.9316-2.8848,3.8438-5.0151,6.1357-7.3081-2.3398-2.1643-4.6572-4.1978-6.9229-6.1868-7.957-6.9844-15.4736-13.5813-22.1416-23.9998-3.2822-5.1335-6.2002-10.8374-8.9219-17.4397-2.6035-6.3037-4.8008-12.8274-6.9248-19.1362-1.5703-4.6619-3.1943-9.4824-4.9795-14.2136-.4043-1.0679-.8174-2.1335-1.2188-3.1511-3.4727.5493-6.4639.8821-9.8799.8821-.6562,0-1.3252-.0125-2.0127-.0388-4.7725-.1824-7.4775-.9092-9.6514-1.4934-1.6357-.4395-2.7168-.73-4.5176-.73-.4346,0-.9053.0173-1.4189.0532-1.7754.1243-2.3633.3298-4.3135,1.0112-1.7031.5952-4.2764,1.4944-8.8213,2.7029-4.7256,1.2563-5.9746,2.1116-7.4199,3.1016-1.4141.968-2.7578,1.8228-4.9307,2.6799-.7529,2.8809-2.1885,5.5691-4.1875,7.7898l-12.0938,13.4302c-3.5947,3.9924-8.5068,6.1912-13.832,6.1912-8.5527,0-15.8184-5.5222-18.0791-13.7415l-7.9727-28.988c-1.5605-5.6746-.4229-11.5974,3.123-16.2495,3.54-4.6458,9.0889-7.4192,14.8418-7.4192,2.0527,0,4.1025.344,6.0918,1.0227l17.4219,5.9436c2.3799.8115,4.5459,2.0803,6.3975,3.7336,1.5137-.4033,2.9238-.46,4.0166-.46.6689,0,1.3672.0261,2.0996.0552.6689.0266,1.373.0554,2.1172.0554,2.1562,0,4.8242-.2393,8.2646-2.0146,6.793-3.5054,10.2021-5.2646,12.7559-7.1086,2.5312-1.8279,3.9189-3.1519,5.3877-4.5537,1.8633-1.7776,3.79-3.6157,7.6338-6.178.9834-.6553,2.0703-1.3679,3.2998-2.1074-.708-2.9016-1.2617-5.6909-1.6777-8.4463-1.666-11.1052.5332-22.7537,2.6602-34.0186,1.3545-7.1746,2.6338-13.9512,2.959-20.4785.3408-6.9126-.0117-13.8369-.3516-20.533-.0996-1.9431-.1982-3.8816-.2803-5.8188-1.4131-1.7312-3.6641-4.3059-5.3633-5.2012-5.2061-2.7429-8.9668-4.7249-13.1777-8.4177-3.3721-2.9568-4.9033-5.1477-6.1338-6.9082-1.1143-1.5933-1.7275-2.4709-3.6602-3.7964-1.2305-.843-1.6533-.9758-3.4346-1.5342-1.583-.4963-3.9756-1.2466-7.9746-2.8867-3.958-1.6235-5.2783-1.6387-6.8076-1.6565-1.2715-.0146-2.7637-.0317-4.9834-.5857-2.2129,1.8928-4.8037,3.2527-7.5361,3.9258l-16.5469,4.0774c-1.374.3386-2.7646.5103-4.1328.5103-5.4512,0-10.3779-2.6558-13.5146-7.2861-3.4756-5.1279-4.0947-11.8367-1.6562-17.9458l11.3438-28.4312c2.9766-7.4583,9.7422-12.2776,17.2363-12.2776,5.8506,0,10.9717,2.9399,14.0508,8.0662l8.9648,14.9243c1.208,2.012,2.0098,4.2539,2.376,6.6157,1.792.811,3.1602,2.0144,4.4893,3.1841,2.0771,1.8264,4.0381,3.5513,8.1182,4.1592,6.6895.9963,10.0469,1.4963,12.8213,1.4963l.3496-.0027c2.835-.0442,4.584-.3298,6.4346-.6323,2.1318-.3484,4.3369-.7087,7.8398-.7087.4385,0,.8984.0056,1.3818.0178,2.1084.0537,5.3994.1372,9.3916.9651,2.0391-3.7156,4.25-7.3113,6.4043-10.8152,2.9414-4.7844,5.7197-9.304,8.0068-13.967.9336-1.9062,1.8291-3.9255,2.7988-6.3159-2.0332-2.1765-3.5752-4.1145-4.6055-5.4102-3.5039-4.4031-5.0576-7.259-6.5596-10.021-1.2236-2.2502-2.3799-4.3757-4.7246-7.5618-2.3701-3.2188-5.752-6.6125-12.4902-13.3738-4.4277-4.4431-8.3027-5.521-12.0508-6.5635-2.4629-.6848-5.0088-1.3928-7.2832-3.0171-2.834,1.3625-5.9277,2.1008-9.1084,2.1584l-22.8369.4114-.418.0037c-8.1914,0-15.4141-4.3105-19.3193-11.5308-3.9033-7.2158-3.5518-15.624.9395-22.4915l20.418-31.2207c4.0762-6.2332,10.9443-9.9543,18.3721-9.9543,8.792,0,16.4883,4.9724,20.085,12.9766l9.1914,20.4548c1.5254,3.3936,2.1533,7.147,1.8457,10.8462,2.7129,2.146,3.9668,3.7629,5.1016,5.2266,1.3418,1.731,2.6094,3.3657,7.8896,6.7546,4.873,3.1279,7.4443,5.0703,9.3223,6.4885,2.0869,1.5764,2.7891,2.1074,4.9873,2.9871,3.3193,1.3279,5.0459,1.4114,7.6602,1.5376,2.7295.1318,6.126.2961,11.7031,1.855,3.1113.8696,5.9824,1.9116,9.1777,3.3459,2.2139-1.8984,4.4766-3.7288,6.6855-5.5151,4.3037-3.4795,8.3672-6.7659,11.9014-10.3628,3.9814-4.0522,7.7363-8.3818,11.3672-12.5688,7.6025-8.7659,15.4629-17.8301,25.7822-24.7922,7.4785-5.0334,15.5762-7.8733,24.4805-10.4285-.083-1.9131.0146-3.9023.1104-5.8579.0898-1.8394.2266-4.6191-.0273-5.4465-1.6465-4.5425-2.1455-8.3521-2.4443-10.6279-.5117-3.9006-.4131-6.1614-.3174-8.3477.0732-1.6665.1416-3.2407-.0947-5.7834-.2393-2.5618-1.002-5.6553-2.5234-11.8184-.9092-3.6855-2.5449-5.4146-4.2773-7.2449-1.0889-1.1504-2.209-2.334-3.0498-3.8853-2.0186-.3076-3.9697-.9888-5.7441-2.0139l-13.3262-7.6956c-5.2881-3.0547-8.4336-8.7439-8.208-14.8472.2256-6.1038,3.7822-11.5454,9.2812-14.2014l22.6328-10.929c2.2754-1.0991,4.6836-1.6562,7.1572-1.6562,4.6885,0,9.1836,2.0349,12.3311,5.5833,3.1416,3.5415,4.5586,8.1018,3.9902,12.8408l-1.7998,15.0002c-.2979,2.4749-1.167,4.8555-2.5098,6.9417.6465,1.9241.8027,3.2393.9355,4.3625.1631,1.3796.3047,2.571,2.0508,6.1101,1.7549,3.5549,2.6113,5.6873,3.1777,7.0981.6436,1.6023.7969,1.9829,1.6279,3.0803,1.2891,1.7007,2.0723,2.2251,3.4941,3.1775,1.5986,1.0698,3.5869,2.4011,6.3906,5.3723,3.4873,3.6943,5.5039,7.0278,8.2949,11.6416,1.2949,2.1396,5.1807,4.9817,8.0176,7.0566.9805.7168,1.8672,1.3652,2.6562,1.9773,7.5352-4.2275,15.6143-8.2217,24.5459-10.0339,4.1064-.8303,8.4971-1.2336,13.4268-1.2336,7.9648,0,16.1865,1.074,24.209,2.2141.627-5.2485,1.7998-9.342,2.5527-11.9714,1.5508-5.4111,2.9736-8.334,4.3506-11.1606,1.1211-2.303,2.1807-4.478,3.4131-8.2375,1.2422-3.7913,2.0391-8.5042,3.6289-17.8943,1.0527-6.2234-.3193-10.0049-1.6475-13.6616-.8721-2.4023-1.7744-4.8865-1.7725-7.6816-2.7549-1.5159-5.1523-3.6057-7.0459-6.1621l-13.5957-18.354c-4.8613-6.562-5.6904-15.2146-2.165-22.5808,3.5264-7.366,10.7852-12.1465,18.9443-12.4761l37.2744-1.5061c.3125-.0127.6221-.019.9307-.019,7.9463,0,15.0615,4.1318,19.0322,11.0525,3.9658,6.9116,3.9307,15.1477-.0928,22.0312l-11.3154,19.3604c-1.877,3.2126-4.5684,5.9031-7.7578,7.8008-.1729,3.4541-.7607,5.4138-1.2939,7.1877-.6299,2.0977-1.2246,4.0791-.918,10.3457.2832,5.7822.1943,9.0032.1299,11.355-.0713,2.6152-.0957,3.4961.4648,5.7971.8467,3.4736,1.7812,4.928,3.1963,7.1296,1.4775,2.2986,3.3164,5.1594,5.2852,10.6055,2.4785,6.8535,3.2393,12.4761,4.293,20.2583.0088.0662.0186.1333.0293.2014,2.5537-.1177,5.4082-.2097,8.3145-.2097,10.1787,0,18.7812,1.1423,27.0713,3.5947,12.0107,3.5583,22.9072,10.9607,33.4463,18.1194,5.8604,3.9812,11.3965,7.7417,16.8701,10.6797,2.1377,1.1519,4.4229,2.2307,7.043,3.3215,3.1523-2.5459,7.3965-4.4612,11.5361-6.3291,3.0527-1.377,6.8506-3.0908,7.9346-4.2534,4.7285-5.0703,9.29-8.2134,12.0156-10.0913,4.6348-3.1934,7.5908-4.5459,10.4492-5.854,2.3301-1.0659,4.5293-2.0725,7.8701-4.1934,3.3711-2.1401,6.9863-5.2773,14.1885-11.5273,4.751-4.1223,6.0938-7.9148,7.3916-11.5823.8525-2.4097,1.7344-4.9006,3.5117-7.0581-1.1641-2.9207-1.6885-6.0574-1.5264-9.2336l1.1631-22.8125c.5967-11.7163,10.2715-20.894,22.0254-20.894,4.7646,0,9.332,1.5508,13.2061,4.4841l29.7412,22.5195c6.5049,4.926,9.6738,12.6858,8.4756,20.7573-1.1982,8.0718-6.4844,14.5767-14.1396,17.4004l-21.0391,7.761c-2.4375.8992-4.9912,1.355-7.5908,1.355-1.127,0-2.248-.0862-3.3574-.2571-2.3164,2.5474-4.0215,3.6907-5.5654,4.7251-1.8184,1.2197-3.5371,2.3718-7.2822,7.4062-3.4561,4.646-5.5703,7.0774-7.1143,8.8528-1.7168,1.9734-2.2949,2.6382-3.3242,4.771-1.5537,3.2192-1.7559,4.9363-2.0615,7.5352-.3193,2.7139-.7168,6.0913-2.6562,11.5481-2.4395,6.8643-5.4248,11.6909-9.5566,18.3711-2.2061,3.5676-3.3311,10.6025-4.2354,16.2554-.2646,1.6533-.5195,3.248-.792,4.6943,1.0049,1.4165,2.002,2.8337,2.9941,4.2432,3.793,5.3918,7.377,10.4849,11.0439,15.0659,3.8105,4.7578,7.7012,9.127,11.4629,13.3523,5.3906,6.0535,10.5078,11.8015,15.1865,18.3704.1436.0054.2783.0078.4043.0078.5088,0,.7061-.0435.7139-.0454,5.0566-1.4849,9.29-1.6782,11.8184-1.7937.8535-.0388,1.6328-.0559,2.3535-.0559,2.96,0,4.9531.2842,6.8809.5591,1.8105.2583,3.5195.502,6.2275.502l.2178-.0002c2.8447-.0137,6.2832-.5977,13.1357-1.761,4.0693-.6909,5.9951-2.4553,8.0332-4.323,1.3066-1.1968,2.6504-2.428,4.4248-3.2751.3184-2.3684,1.0742-4.6267,2.2412-6.6628l8.6592-15.1035c2.999-5.2307,8.3174-8.3535,14.2275-8.3535,7.3477,0,14.0752,4.6821,17.1387,11.9282l11.9209,28.1946c2.5908,6.1294,2.0713,12.9053-1.3896,18.1257-3.123,4.7109-8.0811,7.4126-13.6025,7.4126-1.2588,0-2.5391-.1445-3.8066-.4294l-16.626-3.74c-2.7471-.6182-5.3672-1.926-7.6182-3.7751-2.2197.6025-3.7021.6499-4.9658.6902-1.5293.0488-2.8486.0908-6.7734,1.7947-3.9648,1.7207-6.3408,2.5193-7.9131,3.0479-1.7695.5947-2.1904.7361-3.4033,1.604-1.9062,1.3647-2.502,2.2546-3.583,3.8704-1.1943,1.7852-2.6816,4.0068-5.9922,7.0312-4.1328,3.7761-7.8535,5.8345-13.0029,8.6833-.9307.5149-2.1113,1.5898-3.5225,3.2046.6309,3.7383,1.3594,7.4612,2.3115,10.502,1.8125,5.8093,4.0273,10.575,6.1689,15.1838.5,1.0769.9961,2.1431,1.4805,3.2097,2.627,5.8203,5.5156,12.811,6.6152,22.2935.8994,7.7205-.1484,17.0127-1.4092,25.5381.8223.5569,1.6348,1.1262,2.4346,1.6868,1.9521,1.3679,4.9014,3.4353,5.9678,3.6575,5.7266,1.0327,9.9961,2.9316,12.5479,4.0659,4.3486,1.9341,6.6338,3.5168,8.8438,5.0476,1.7334,1.2002,3.3701,2.334,6.2344,3.7505,2.877,1.4236,6.6035,2.5598,14.0283,4.8235,1.6426.5007,3.1631.7434,4.6533.7434,2.1631,0,3.9355-.5054,5.8135-1.0405,1.7832-.5081,3.6279-1.0337,5.665-1.0337.1699,0,.3389.0037.5068.0112,1.4834-2.2498,3.3672-4.1577,5.5654-5.6172l16.1377-10.7141c3.0225-2.0068,6.4463-3.0676,9.9004-3.0676,4.876,0,9.6768,2.1365,13.1709,5.8616,3.9229,4.1836,5.8701,9.8225,5.4814,15.8784l-2.1816,33.9873c-.6963,10.8318-9.0742,19.3164-19.0752,19.3164h-.001c-4.0576-.0002-7.9346-1.417-11.2129-4.0972l-14.6797-12.001c-2.4277-1.9858-4.3721-4.6162-5.6553-7.6055-2.6084-.4966-4.1455-1.2053-5.4482-1.8064-1.5977-.7368-2.9775-1.3733-7.8379-1.6387-4.7773-.261-7.5254-.6477-9.3438-.9038-1.1748-.1655-1.8838-.2654-2.5693-.2654-.498,0-1.0469.0518-1.7812.168-2.6768.4246-3.8076,1.0676-5.6816,2.1328-2.0508,1.166-4.6035,2.6172-9.3379,3.959-5.9297,1.6809-10.6289,1.8748-17.1318,2.1428-2.4004.0989-6.1621,1.7595-9.249,3.2766-.4893,7.2354-1.6465,13.6675-3.667,20.498-2.5938,8.7544-8.7793,17.3845-14.7607,25.7307-1.7803,2.4839-3.4951,4.8757-5.0635,7.1982,1.4102,1.2122,3.2461,2.6943,5.7705,4.7312,2.7002,2.1799,4.8604,2.5354,7.1465,2.9119,1.3721.2258,2.8945.4763,4.4053,1.1279,1.6709-.8906,3.4951-1.4731,5.4023-1.7148l14.2969-1.8125c.6777-.0859,1.3633-.1296,2.0381-.1296,5.4717,0,10.4609,2.8123,13.3486,7.5225,2.874,4.6902,3.0977,10.4224.5957,15.3333l-10.6816,20.9729c-2.6963,5.2952-8.0664,8.5845-14.0127,8.5845-5.6328,0-10.6992-2.9031-13.5508-7.7661l-7.1582-12.2046c-1.1777-2.0085-1.8887-4.2661-2.0928-6.5774-1.3594-.9399-2.2324-1.79-3.0947-2.6833-.8828-.9148-1.6455-1.7048-4.9043-3.3296-3.332-1.6616-5.1855-2.7695-6.4121-3.5029-.5381-.3218-.9141-.5466-1.2461-.7214-.8271,2.2549-1.6025,4.4792-2.3613,6.6577-3.8037,10.9099-7.3955,21.2146-15.8574,31.7109-2.7988,3.4736-6.3887,6.9336-11.1221,10.7019,1.8232,2.8665,3.0977,5.363,3.9688,7.0688,2.5586,5.0117,3.5127,8.1189,4.4355,11.1238.7529,2.4492,1.4629,4.7622,3.1289,8.3518,1.6816,3.6226,4.3184,7.6177,9.5732,15.5771,3.4648,5.2473,7.0488,7.0742,10.5146,8.8408,2.2773,1.1604,4.6318,2.3604,6.5381,4.4043,1.7529-.4438,3.5527-.6675,5.3838-.6675,1.3281,0,2.6641.1221,3.9717.3625l22.4629,4.1367c8.0312,1.4788,14.543,7.2366,16.9932,15.0266,2.4502,7.7903.4072,16.2388-5.3311,22.0488l-26.2178,26.5398c-4.1709,4.2227-9.6982,6.5481-15.5654,6.5481-10.3906,0-19.2412-7.0542-21.5225-17.1545l-4.9424-21.8735c-.8203-3.6296-.6895-7.4331.3467-10.9966-2.2314-2.6421-3.1387-4.4761-3.96-6.1362-.9717-1.9631-1.8887-3.8171-6.3906-8.188-4.1543-4.0339-6.2871-6.4485-7.8457-8.2114-1.7314-1.9602-2.3154-2.6204-4.2949-3.9197-2.9893-1.9612-4.665-2.3862-7.2021-3.0295-2.6484-.6719-5.9443-1.5081-11.1006-4.1445-6.4854-3.3164-10.8809-6.907-16.9629-11.8767-.0947-.0769-.1924-.1538-.2949-.231-1.3662,1.3328-2.7012,2.6548-4.0088,3.95-9.082,8.9963-17.6602,17.4937-31.4082,24.23-2.7217,1.3291-6.3018,2.5012-11.5146,3.7424.2129,1.9302.2168,3.9634.2197,5.9678.0029,1.6848.0078,4.2312.2666,4.9868,1.7578,4.178,2.4111,7.7427,2.8018,9.8726.6689,3.6526.6836,5.8813.6973,7.8479.0107,1.5513.0215,3.0166.3594,5.3625.3418,2.3625,1.1992,5.2119,2.9092,10.8884,1,3.3237,2.583,4.8354,4.2588,6.4358,1.0068.9614,2.123,2.0281,3.0029,3.4197,1.8887.2107,3.7373.7629,5.4268,1.6279l12.8271,6.5671c5.1963,2.6602,8.4736,7.939,8.5537,13.7761.0791,5.8374-3.0527,11.2039-8.1748,14.0049l-20.6494,11.293c-2.3623,1.2915-4.8965,1.9463-7.5332,1.9463-4.3408,0-8.5459-1.8374-11.5361-5.041-2.9814-3.1948-4.457-7.3772-4.1533-11.7771l.9736-14.115c.1602-2.3245.8467-4.5901,1.9824-6.6133-.5938-1.5476-.835-2.7388-1.042-3.9592-.2129-1.2537-.3975-2.3362-2.1719-5.5156-1.8135-3.251-2.7188-5.2107-3.3174-6.5078-.6641-1.4375-.8223-1.7791-1.625-2.7339-1.2529-1.4905-1.9941-1.9341-3.3398-2.74-1.5576-.9331-3.498-2.0945-6.2861-4.7649-3.46-3.3127-5.5117-6.3457-8.3506-10.5435-1.2793-1.8906-5.0186-4.345-7.749-6.137-2.3672-1.5542-4.2891-2.8149-5.5674-4.2119-.8408-.1746-2.2988-.3752-4.5615-.3752-3.0029,0-6.6094.3459-10.7178,1.0286-3.543.5874-7.7031.8728-12.7207.8728-8.415,0-17.7031-.7988-26.6855-1.5713-7.0977-.6104-13.8018-1.187-19.1758-1.2747-2.5391-.0425-4.9541-.0562-7.2734-.0562-2.2178,0-4.3477.0127-6.416.0247-1.5088.0088-2.9834.0176-4.4346.021-.0322.0361-.0635.0723-.0957.1086-1.6963,1.9263-3.2979,3.7456-5.4893,7.0491-2.2061,3.3267-4.2295,7.6633-8.2617,16.303-2.6611,5.7041-2.3418,9.7144-2.0342,13.5928.2031,2.5479.4121,5.1819-.332,7.8757,2.2529,2.1931,4.0088,4.8445,5.1553,7.8115l8.2305,21.3079c2.6533,6.8684,1.7969,14.2754-2.3496,20.3218-4.125,6.0149-10.875,9.606-18.0586,9.606Z"/>
        <path class="cls-1" d="M391.9233,10c12.9966.001,21.2739,14.1816,14.6234,25.5601l-11.3159,19.3608c-1.9426,3.3237-4.9248,5.8301-8.4036,7.2109.0001.0088.0007.0171.001.0259.215,10.3838-2.8901,7.6772-2.2444,20.8647.6113,12.4858-.5712,12.7451.7308,18.0913,2.0168,8.2808,4.9504,8.0557,8.6375,18.2515,2.2954,6.3477,2.9952,11.5146,4.0399,19.2285.2006,1.4814.6622,3.0801,1.2928,4.7344,4.0033-.2354,7.9934-.4126,12.0059-.4126,8.3494,0,16.795.769,25.6532,3.3892,17.72,5.25,33.72,20.0098,49.3699,28.4102,3.5524,1.9136,7.094,3.4277,10.6017,4.7769,4.0948-5.5449,17.9913-8.8057,21.9337-13.0342,4.269-4.5781,8.3101-7.396,11.1949-9.3833,7.9796-5.4976,10.3451-4.9805,18.1624-9.9434,3.6884-2.3418,7.392-5.5557,14.7993-11.9834,8.9562-7.772,8.0748-15.1348,11.4911-19.25.7264-.8745,1.3962-1.6968,2.0254-2.4785-1.7332-2.8643-2.6116-6.2178-2.4364-9.6572l1.1625-22.8115c.4928-9.6699,8.5236-16.1494,17.0326-16.1484,3.4763.0005,7.0341,1.0825,10.1876,3.4702l29.7406,22.5195c10.7024,8.104,8.2191,24.8345-4.3757,29.4805l-21.0393,7.7612c-1.9045.7026-3.8876,1.0459-5.8597,1.0459-1.7676,0-3.5267-.2764-5.2112-.8169-.0056.0068-.0103.0137-.0159.0205-6.4312,8.1548-7.1096,4.0923-14.9896,14.686-7.4607,10.0303-8.5387,9.479-10.9301,14.4351-3.704,7.6758-1.2954,9.3657-4.9263,19.582-2.2605,6.3599-5.0029,10.7944-9.0974,17.4155-3.8545,6.2324-4.6628,18.6167-6.1174,24.6982,5.2787,7.3789,10.3125,14.8643,15.4773,21.3149,9.765,12.1934,19.7039,21.5068,27.7805,33.3667,1.1495.1421,2.2277.2393,3.1763.2393.8038,0,1.5146-.0698,2.0969-.2407,4.4126-1.2954,8.0649-1.4849,10.6639-1.6035.7706-.0352,1.4739-.0508,2.1251-.0508,5.353,0,7.1444,1.061,13.1077,1.061.0797,0,.1608,0,.2419-.0005,3.2542-.0156,6.8199-.6211,13.9517-1.832,8.623-1.4639,10.5853-6.8794,14.2723-8.2246.7841-.2861,1.5121-.5605,2.1993-.8247-.1578-2.7046.4199-5.376,1.7253-7.6533l8.6597-15.104c2.2678-3.9551,6.0214-5.8403,9.8888-5.8398,4.9504,0,10.0876,3.0879,12.5343,8.875l11.9203,28.1948c3.8901,9.2017-1.8593,18.5913-10.387,18.5913-.8759,0-1.7814-.0991-2.7084-.3076l-16.6265-3.7402c-2.8542-.6421-5.4497-2.2896-7.4158-4.605-.0061.0024-.0115.0049-.0177.0073-7.0822,2.8125-6.1266-.2583-15.0125,3.5986-8.413,3.6523-8.9366,2.8115-12.2354,5.1733-5.1093,3.6572-4.0975,5.8491-10.037,11.2754-3.6975,3.3784-7.0486,5.2324-12.0515,8-2.173,1.2021-4.3687,3.5806-6.4055,6.1406.7938,4.9395,1.6482,9.6157,2.843,13.4336,2.3401,7.5,5.26,13.23,7.8701,18.9697,2.7798,6.1602,5.22,12.3501,6.2,20.8003.9067,7.7866-.3541,17.6318-1.8728,27.4204,4.6648,2.7666,9.7112,7.2231,12.9403,7.8057,5.0353.9082,8.7633,2.5391,11.4083,3.7153,7.3162,3.2534,8.0149,5.3091,14.8928,8.7109,3.2451,1.6055,7.0944,2.7788,14.7927,5.126,2.2981.7007,4.3109.959,6.1064.959,5.0817,0,8.4141-2.0737,11.4779-2.0737.2385,0,.4755.0127.7114.0396.9225.1055,1.7833.1953,2.5986.2749,1.1901-2.7695,3.0952-5.1396,5.5282-6.7554l16.1372-10.7139c2.3142-1.5366,4.7616-2.2334,7.135-2.2334,7.5084,0,14.2684,6.978,13.6624,16.4194l-2.1819,33.9878c-.5623,8.7559-7.1584,14.6367-14.0858,14.6367-2.7493,0-5.5516-.9268-8.0482-2.9683l-14.6791-12.001c-2.5199-2.0605-4.2816-4.9922-5.0846-8.2744-.0073-.0005-.0139-.001-.0212-.0015-8.4465-.7295-5.9668-3.3086-16.7281-3.896-7.8412-.4282-9.7081-1.1768-12.1843-1.1768-.7413,0-1.5377.0669-2.5648.23-6.9047,1.0942-6.9897,3.7788-15.6011,6.2197-5.3613,1.5195-9.6184,1.6948-15.9744,1.957-4.0305.166-9.3572,2.7998-13.8768,5.1099-.2894,6.8735-1.1735,13.9482-3.6283,22.2417-3.4446,11.6299-14.584,24.0073-21.4878,35.1079.0007.0005.0012.0015.002.0024,1.8641,2.0303,4.2717,3.9736,9.0868,7.8599,5.8219,4.6987,10.2969,3.333,13.2321,4.9976.6241.354,1.209.6787,1.7644.9824,1.5864-1.3945,3.5715-2.3125,5.7271-2.5859l14.2966-1.8125c.4778-.0605.9471-.0898,1.4093-.0898,7.7955.001,13.1758,8.3481,9.4891,15.5864l-10.6815,20.9731c-1.9788,3.8853-5.7642,5.854-9.5576,5.854-3.5758,0-7.1588-1.751-9.2379-5.2959l-7.1577-12.2046c-1.2288-2.0952-1.6869-4.5098-1.3723-6.8506-.0051-.0024-.0098-.0044-.0146-.0073-5.7793-3.0879-3.3315-3.9609-10.7865-7.6777-7.0582-3.519-6.8358-4.25-10.1794-5.1846-1.0948-.3057-1.9872-.4668-2.7869-.5493-5.8958,14.9497-8.4449,28.0786-19.035,41.2148-3.6453,4.5234-8.603,8.7407-14.0493,12.7661,3.0669,4.0674,4.9557,7.7134,6.3357,10.4165,4.4067,8.6299,3.5845,10.9072,7.4824,19.3066,1.8391,3.9629,4.541,8.0552,9.9446,16.2397,6.5336,9.896,13.9485,9.9854,17.5813,13.9102.7725.835,1.4996,1.6064,2.1924,2.332,2.1421-.9385,4.4655-1.4321,6.8263-1.4321,1.019,0,2.0454.0923,3.0665.2803l22.4636,4.1362c13.4128,2.4697,18.5935,18.9419,9.009,28.6445l-26.2163,26.5396c-3.4243,3.4663-7.7479,5.062-12.0088,5.062-7.4778,0-14.7614-4.915-16.646-13.2563l-4.9424-21.8735c-.8484-3.7549-.3794-7.6226,1.2209-11.0059l-.0186-.0186c-7.2435-7.4424-3.1271-7.5835-12.5991-16.7817-8.968-8.7085-8.2808-9.7051-12.8811-12.7241-7.1257-4.6763-9.116-2.5093-18.7695-7.4453-6.0098-3.0732-10.0475-6.3721-16.0758-11.2974-1.163-.9502-2.5999-1.8071-4.1986-2.5884-12.0216,11.4214-20.6787,21.9824-36.8772,29.9194-3.6968,1.8057-9.4736,3.2329-15.6743,4.5186,2.7251,3.374.7316,13.0244,2.2241,16.5732,1.5311,3.6406,2.1078,6.6948,2.5056,8.8691,1.1007,6.0137.1914,7.2417,1.0264,13.0234.394,2.7285,1.2859,5.6909,3.0698,11.6157,2.157,7.1641,6.6223,8.5605,8.1072,11.5908.3157.644.6155,1.2422.9027,1.8062.4343-.0532.8711-.0796,1.3081-.0796,1.6726,0,3.3463.3896,4.8796,1.1748l12.8278,6.5674c7.6593,3.9214,7.8079,14.8149.2582,18.9434l-20.65,11.2935c-1.6749.916-3.4281,1.333-5.1338,1.333-5.8616,0-11.1527-4.9292-10.7012-11.4741l.9736-14.1152c.1671-2.4229,1.1509-4.6753,2.7307-6.4307-.0027-.0049-.0052-.0093-.0078-.0142-3.0303-5.8101-.5168-5.1499-4.5762-12.4243-3.8433-6.8872-3.2473-7.3647-5.4812-10.0225-3.4598-4.1167-5.0552-3.1675-9.9957-7.8984-3.0758-2.9453-4.9188-5.6704-7.6705-9.7388-3.3689-4.981-14.0656-9.6895-14.2029-11.71,0,0-1.8831-1.2075-7.8123-1.2075-2.839,0-6.6066.2769-11.538,1.0962-3.4934.5791-7.5413.8052-11.9015.8052-14.9108,0-33.4528-2.644-45.7784-2.8452-2.568-.043-5.0111-.0571-7.358-.0571-4.3234,0-8.319.0474-12.1593.0474-.3247,0-.6483,0-.9708-.001-2.2847,2.6992-4.376,4.728-7.4698,9.3931-2.4147,3.6411-4.488,8.085-8.6349,16.9727-5.014,10.7456-1.21,17.1113-2.6539,22.2607-.307,1.0952-.584,2.1187-.8401,3.0889,2.7496,1.9102,4.9178,4.6147,6.1588,7.8271l8.2301,21.3071c4.4178,11.437-4.2893,23.1265-15.7446,23.1265-1.2872,0-2.6091-.1479-3.9509-.46l-36.3345-8.4526c-13.0752-3.042-17.6223-19.3335-8.0119-28.7065l16.0535-15.6577c2.7559-2.688,6.2969-4.312,10.0175-4.7188.0023-.0088.0039-.0166.0062-.0254,2.5518-10.0674,4.8261-6.6333,7.7078-19.5181,2.7282-12.1992,3.9371-12.1353,4.1025-17.6353.1808-6.0171-1.2062-8.0679-2.3347-12.5601-1.813-.458-3.6796-.9663-5.6231-1.541-12.4701-3.6899-28.33-15.27-39.8-20.5601-17.52-8.1001-29.94-10.9199-44.8701-22.2998-3.8817-2.9531-7.5802-7.0527-11.1622-11.5-.5789.1968-1.0867.417-1.488.6753-3.321,2.1382-6.2294,3.2344-8.3019,4.0024-5.7327,2.1245-7.0991,1.4414-12.6497,3.2646-2.6188.8599-5.3823,2.251-10.9093,5.0332-6.6826,3.3638-7.2855,8.0034-10.0131,9.9902-.5799.4224-1.1171.8213-1.6229,1.2017.6157,2.0205.6327,4.2075-.0078,6.2837l-4.2488,13.7705c-1.5011,4.8652-5.86,7.562-10.2833,7.562-3.0525,0-6.1362-1.2852-8.33-4.0298l-14.6958-18.3848c-5.2883-6.6157-1.1748-16.4629,7.2482-17.3506l14.0707-1.4834c.3743-.0396.7478-.0586,1.1194-.0586,2.0268,0,3.9948.5771,5.6865,1.6353.0045-.0034.0084-.0063.0129-.0103,5.1979-3.9897,4.9826-1.3999,11.4448-6.6562,6.1183-4.9771,6.6921-4.4731,8.9232-7.1328,3.4557-4.1201,2.2448-5.5269,6.0499-11.2119,2.3688-3.5391,4.7338-5.8257,8.2646-9.2397.2933-.2837.579-.6025.8585-.9468-11.8086-11.6382-22.8704-18.5264-31.996-32.7842-3.44-5.3799-6.16-10.9502-8.51-16.6499-4.44-10.75-7.6-21.9502-11.85-33.21-.8782-2.3247-1.8081-4.6558-2.7534-6.9873-4.9897.8755-8.6931,1.4839-13.0217,1.4839-.594,0-1.2-.0112-1.8224-.0352-7.9152-.3022-9.1026-2.2271-14.3597-2.2271-.5422,0-1.1287.0205-1.7694.0654-4.4239.3096-4.3334,1.2812-14.0695,3.8696-10.2835,2.7344-7.4452,4.4556-15.4702,6.8335-.007.002-.0133.0039-.0204.0059-.2081,3.0093-1.4021,5.9126-3.4782,8.2183l-12.0937,13.4302c-2.7903,3.0991-6.4759,4.5371-10.1163,4.5371-5.8046,0-11.4944-3.6562-13.2576-10.0674l-7.9732-28.9878c-2.4914-9.0586,4.5491-17.3438,13.1431-17.3433,1.4606,0,2.9664.2393,4.4776.7549l17.4224,5.9438c2.6267.896,4.8743,2.5552,6.5008,4.708.7732-.2373,1.5884-.4932,2.4603-.7754.952-.3086,1.9655-.3911,3.0675-.3911,1.2741,0,2.6664.1108,4.2166.1108,2.884,0,6.316-.3828,10.5571-2.5713,7.0239-3.625,10.5358-5.437,13.3904-7.4985,6.0499-4.3687,6.3693-6.2939,12.8679-10.625,1.6112-1.0737,3.6917-2.437,6.3474-3.7778-1.0788-3.8535-1.9598-7.7456-2.5553-11.6846-2.5401-16.9297,4.8-36.0601,5.67-53.5.4789-9.7314-.3456-19.0923-.6965-28.439-2.4722-3.145-5.2533-6.3589-7.9623-7.7861-5.0582-2.6655-8.4462-4.4507-12.2117-7.7534-6.0485-5.3047-5.0815-7.5166-10.264-11.0693-3.3459-2.2939-3.8525-1.4429-12.338-4.9229-8.9623-3.6763-7.9447-.6255-15.0825-3.293-.0063-.0024-.0117-.0049-.0179-.0068-1.9186,2.3545-4.48,4.0542-7.3206,4.7544l-16.5469,4.0771c-1.006.248-1.9875.3652-2.9369.3652-8.3986,0-14.1953-9.1865-10.5275-18.3784l11.3447-28.4316c2.3665-5.9307,7.5672-9.1309,12.5924-9.1304,3.7823,0,7.4655,1.8135,9.7643,5.6401l8.9649,14.9248c1.3516,2.25,1.9835,4.9092,1.8805,7.6167.6925.2505,1.426.5098,2.2156.7798,3.7137,1.27,5.7856,6.6445,14.4366,7.9331,6.8441,1.019,10.4142,1.5513,13.5593,1.5513.1429,0,.2853-.001.4268-.0034,6.4748-.1006,8.0696-1.3408,14.1951-1.3408.3986,0,.8164.0054,1.256.0166,2.601.0659,6.2563.1807,10.6943,1.3867.4379.1187.9484.1782,1.5126.1943,4.9197-9.7285,11.5521-18.6943,16.2116-28.1948,1.5627-3.1914,2.8997-6.4448,4.1509-9.7075-2.8745-2.769-4.9493-5.3418-6.534-7.333-6.0341-7.582-5.6809-9.9775-11.1708-17.4346-2.59-3.5181-6.0514-6.9917-12.974-13.9385-8.3702-8.3999-15.655-7.0137-19.9954-10.1382-.923-.6646-1.7891-1.2759-2.6122-1.8496-2.7383,1.9263-6.0233,3.0332-9.4665,3.0952l-22.8374.4116c-.1099.002-.2186.0029-.3278.0029-13.4412,0-21.5999-14.9629-14.1953-26.2852l20.4178-31.2212c3.3885-5.1812,8.7992-7.6914,14.1875-7.6909,6.2954.0005,12.5597,3.4282,15.5244,10.0259l9.1915,20.4551c1.5779,3.5112,1.887,7.3945.9911,11.0288.0074.0049.0145.0093.0219.0142,8.5784,5.8545,4.5721,6.811,15.6834,13.9429,10.5201,6.752,10.0447,7.8652,15.1534,9.9097,7.9129,3.1665,9.4328.6475,19.8748,3.5659,4.1985,1.1738,7.6155,2.6094,11.3602,4.4526,6.9637-6.2998,14.9404-11.8057,21.3163-18.2964,12.4201-12.6396,21.81-26.8896,36.38-36.7197,8.2603-5.5605,17.7321-8.3291,27.3243-10.959-1.6436-4.3813.4198-13.0952-.8511-16.603-1.4364-3.9653-1.8864-7.2539-2.1934-9.5938-.8492-6.4731.1868-7.7329-.3917-13.9443-.2728-2.9307-1.0642-6.1382-2.6469-12.5532-1.9136-7.7563-6.6003-9.4868-8.0202-12.7983-.3019-.7041-.5893-1.3584-.8652-1.9751-.2727.0195-.5455.0293-.8186.0293-1.9799,0-3.9556-.5117-5.7213-1.5312l-13.3255-7.6958c-7.9567-4.5957-7.527-16.2212.7471-20.2163l22.6318-10.9292c1.6468-.7954,3.3386-1.1587,4.9828-1.1587,6.4872.001,12.2166,5.6646,11.3569,12.8281l-1.8002,15.0005c-.3089,2.5752-1.4796,4.9238-3.2592,6.7104.0024.0054.0051.0103.0075.0161,2.9182,6.3594.2733,5.5195,4.2095,13.4961,3.7269,7.5522,3.0658,8.0298,5.3045,10.9849,3.4677,4.5767,5.2201,3.6504,10.2338,8.9629,3.1212,3.3071,4.9396,6.3125,7.6544,10.7998,3.0279,5.0044,12.5491,10.0947,14.25,12.5962,8.3652-4.8193,16.8186-9.3745,26.2407-11.2866,4.0101-.8105,8.172-1.1338,12.4319-1.1338,9.2529.0005,18.9618,1.5244,28.5376,2.8833.1864-.6831.3123-1.3237.3483-1.9043.3877-6.248,1.7181-10.9912,2.683-14.3589,2.6691-9.3154,4.8243-10.4189,7.7076-19.2183,1.3604-4.1519,2.1785-8.9868,3.8146-18.6567,1.9783-11.6919-3.3804-16.8174-3.3568-22.1655.0051-1.1372.0001-2.1978-.0107-3.2012-3.1584-1.1108-5.9673-3.1421-8.0172-5.9092l-13.5958-18.3545c-8.118-10.959-.6628-26.5342,12.9645-27.085l37.2743-1.5059c.2448-.0098.4867-.0146.7283-.0146M391.9241,0h-.0092c-.3726,0-.7457.0078-1.1232.0229l-37.2747,1.5059c-10.0156.4048-18.9255,6.2725-23.2532,15.314-4.3274,9.041-3.3093,19.6606,2.6569,27.7153l13.5957,18.354c1.7665,2.3848,3.8898,4.4385,6.2908,6.1035.3728,2.4136,1.1428,4.5347,1.8456,6.4697,1.2573,3.4629,2.2505,6.1982,1.4242,11.0825-1.551,9.167-2.3296,13.7681-3.4576,17.2109-1.1255,3.4351-2.0668,5.3677-3.1566,7.606-1.4019,2.8789-2.9908,6.1416-4.6613,11.9717-.5415,1.8901-1.2869,4.4917-1.9198,7.7241-6.6367-.8818-13.3726-1.5894-20.0358-1.5898-5.2651,0-9.9799.4355-14.4135,1.332-8.4699,1.7188-16.0735,5.1787-23.1535,9.0029-.0366-.0269-.0731-.0537-.1099-.0806-1.894-1.3853-5.8351-4.2676-6.6943-5.6138-2.8362-4.6885-5.08-8.397-8.9334-12.48-3.1904-3.3804-5.5336-4.9497-7.2445-6.0952-1.2783-.856-1.5085-1.0103-2.2911-2.043q-.4268-.5635-.9741-1.9253c-.5953-1.4814-1.4949-3.7202-3.3334-7.4458-1.3658-2.7681-1.4467-3.4507-1.569-4.4844-.1171-.9897-.257-1.9971-.5221-3.1387,1.0861-2.1831,1.8024-4.5483,2.0945-6.9834l1.8001-15c.7307-6.0879-1.1695-12.1948-5.2135-16.7534-4.0955-4.6172-9.9532-7.2656-16.071-7.2661-3.2325,0-6.3722.7241-9.3322,2.1533l-22.6321,10.9297c-7.1719,3.4629-11.8102,10.5586-12.1047,18.5176-.2944,7.96,3.8074,15.3794,10.7046,19.3628l13.3261,7.6963c1.6298.9409,3.3735,1.6597,5.1808,2.1431.8326,1.1191,1.708,2.0444,2.4817,2.8623,1.5352,1.6221,2.4619,2.6016,3.0551,5.0059,1.4619,5.9263,2.1952,8.8979,2.3987,11.0845.2052,2.2031.1494,3.4829.0785,5.1025-.1,2.2886-.2134,4.8823.355,9.2158.3148,2.3989.8347,6.3599,2.5306,11.2051.0577.8481-.0332,2.7065-.0953,3.9751-.0377.7705-.0764,1.5605-.1044,2.3628-7.9287,2.4282-15.2791,5.3037-22.28,10.0166-10.8753,7.3374-18.956,16.6548-26.7706,25.665-3.5815,4.1299-7.285,8.3999-11.1578,12.3413-3.3339,3.3936-7.2899,6.5928-11.4782,9.98-1.4556,1.1768-2.9344,2.373-4.413,3.5991-2.3262-.9326-4.5739-1.6899-6.9603-2.3574-6.12-1.7104-9.9856-1.897-12.8082-2.0332-2.4055-.1167-3.5034-.1694-6.0438-1.186-1.5768-.6309-1.8337-.8252-3.8327-2.335-1.8321-1.3843-4.6008-3.4756-9.6346-6.7065-4.5565-2.9243-5.4756-4.1099-6.6393-5.6104-1.1279-1.4546-2.2756-2.8545-3.9807-4.4165-.0572-3.6558-.8506-7.291-2.3565-10.6421l-9.1915-20.4546c-4.4139-9.8232-13.8574-15.9263-24.645-15.9272-9.1211-.001-17.5538,4.5664-22.5574,12.2178l-20.4177,31.2212c-5.4304,8.3032-5.8721,18.8813-1.153,27.6064,4.7214,8.729,13.8094,14.1519,23.7174,14.1519.1697,0,.3388-.0015.5098-.0044l22.8356-.4116c2.9671-.0537,5.8719-.5894,8.6219-1.5771,2.1815,1.0977,4.3549,1.7021,6.3386,2.2539,3.5497.9873,6.3533,1.7671,9.8499,5.2759,6.5628,6.5859,9.8568,9.8911,12.0046,12.8086,2.1431,2.9111,3.1702,4.7998,4.3594,6.9868,1.5296,2.813,3.2634,6.001,7.0399,10.7461.8105,1.0186,1.6923,2.1123,2.6828,3.2695-.488,1.1133-.9674,2.1479-1.4563,3.1465-2.1794,4.4434-4.8976,8.8643-7.7752,13.5449-1.5882,2.583-3.2065,5.2153-4.7748,7.9229-2.7473-.355-5.0121-.4121-6.6343-.4531-.5274-.0137-1.0298-.0195-1.5092-.0195-3.9088-.0005-6.4255.4111-8.6459.7739-1.8086.2959-3.2372.5293-5.7048.5679l-.2711.002c-2.4012,0-5.8333-.5112-12.064-1.439-2.6436-.3936-3.6843-1.3091-5.5737-2.9707-.9596-.8442-2.0486-1.8022-3.3709-2.6758-.5574-2.0938-1.3989-4.0933-2.511-5.9448l-8.965-14.9243c-3.9457-6.5688-10.8002-10.4907-18.336-10.4912-9.553-.001-18.1418,6.0537-21.8809,15.4243l-11.3447,28.4316c-3.053,7.6509-2.2451,16.1006,2.1613,22.6035,4.0229,5.9365,10.6226,9.481,17.654,9.481,1.7712,0,3.5643-.2207,5.3294-.6558l16.5469-4.0771c2.6882-.6626,5.2632-1.8394,7.5859-3.4409,1.3515.1919,2.5264.2324,3.6792.2456,1.1404.0132,1.8937.022,4.9683,1.2832,4.1965,1.7212,6.7113,2.5093,8.3754,3.0312q1.4904.4673,2.1031.8872c1.1841.812,1.3918,1.1094,2.3906,2.5381,1.3119,1.8765,3.1086,4.4463,6.9344,7.8018,4.6517,4.0806,8.8388,6.2866,14.1398,9.0801.2333.1338,1.0269.6865,2.7792,2.7041.0652,1.3955.1357,2.7817.205,4.1426.3499,6.8779.6804,13.3745.3522,20.042-.3082,6.1787-1.5569,12.7925-2.8789,19.7939-2.2042,11.6738-4.4835,23.7456-2.6925,35.6816.2686,1.7769.5903,3.563.9693,5.3794-.1413.0938-.2805.186-.4178.2778-4.2079,2.8042-6.389,4.8857-8.3132,6.7217-1.4,1.3359-2.609,2.4897-4.8633,4.1177-2.2476,1.623-5.5424,3.3232-12.1063,6.7109-2.3598,1.2178-4.098,1.4653-5.9868,1.4653-.6158,0-1.2493-.0249-1.9202-.0513-.7341-.0288-1.4933-.0591-2.2964-.0591-.7278,0-1.6426.022-2.6744.1387-1.8639-1.3325-3.9225-2.3931-6.1257-3.1445l-17.422-5.9438c-2.5103-.8564-5.1031-1.2905-7.7064-1.2905-7.3027,0-14.3374,3.5093-18.8177,9.3882-4.4995,5.9038-5.9456,13.4146-3.9674,20.6069l7.9733,28.9878c2.8648,10.4165,12.0674,17.4155,22.8994,17.4155,6.7603,0,12.9921-2.7861,17.5478-7.8457l12.0934-13.4297c1.9722-2.1904,3.5109-4.7388,4.5468-7.4814,1.4619-.728,2.5934-1.4644,3.681-2.209,1.1523-.7891,1.9849-1.3594,5.8795-2.395,4.7302-1.2573,7.4122-2.1948,9.1871-2.8149,1.8335-.6406,1.9052-.6655,3.011-.7432.3884-.0273.7484-.041,1.0712-.041,1.1405,0,1.7065.1523,3.2192.5586,2.2885.6152,5.4229,1.4575,10.7589,1.6611.7402.0283,1.4818.0425,2.2042.0425,2.3145,0,4.4622-.1426,6.6357-.3892,1.6699,4.4634,3.2108,9.0386,4.7029,13.4688,2.1509,6.3867,4.3752,12.9902,7.0436,19.4512,2.836,6.8784,5.8879,12.8398,9.3278,18.2197,7.0522,11.0181,15.189,18.1597,23.0579,25.0664,1.0269.9014,2.0646,1.8125,3.1088,2.7393-1.0808,1.2759-2.1286,2.646-3.179,4.2153-2.4612,3.6772-3.4594,6.2852-4.12,8.0112-.5049,1.3188-.5698,1.4883-1.2814,2.3369q-.3707.4419-1.4304,1.1772c-1.2363.8579-3.1047,2.1543-6.1415,4.6245-2.1572,1.7544-2.723,1.9561-3.5793,2.2612-.8364.2979-1.6827.6172-2.6087,1.0552-1.5164-.3496-3.0739-.5278-4.6458-.5278-.7205,0-1.4494.0381-2.1666.1138l-14.072,1.4834c-7.5322.7939-14.0251,5.6284-16.9447,12.6172-2.9196,6.9893-1.7955,15.0059,2.9338,20.9224l14.6956,18.3843c3.9553,4.9482,9.8386,7.7861,16.1412,7.7861,9.1693,0,17.1419-5.8726,19.8389-14.6138l4.2488-13.7705c.5184-1.6802.8183-3.4023.8998-5.1313.8165-.9785,1.4557-1.936,1.994-2.7427,1.1777-1.7646,1.769-2.6504,3.6906-3.6177,5.0759-2.5552,7.6235-3.8374,9.5328-4.4644,1.9285-.6338,3.0897-.8457,4.5596-1.1147,2.0299-.3711,4.556-.8325,8.4454-2.2744,1.0112-.3745,2.3329-.8643,3.8794-1.5483,2.6275,2.8276,5.0691,5.0708,7.5427,6.9526,11.5288,8.7876,21.7833,12.9702,32.6399,17.3984,4.4612,1.8198,9.0743,3.7017,14.0886,6.0195,3.9937,1.8418,8.8295,4.6777,13.9495,7.6797,9.0402,5.3013,18.3882,10.7822,27.2097,13.3926.1422.042.2843.084.4261.1255.3018,1.1924.4283,2.2666.3736,4.0864-.0511,1.6973-.1451,2.0054-.8766,4.4014-.6706,2.1958-1.684,5.5146-2.9894,11.3516-1.1816,5.2837-1.9793,6.5542-2.9891,8.1626-.9787,1.5591-1.8992,3.1172-2.7805,5.2554-3.4133,1.3091-6.5554,3.3032-9.1852,5.8682l-16.0534,15.6577c-7.0628,6.8882-9.8029,17.0708-7.1509,26.5737,2.6522,9.5034,10.2693,16.7954,19.8791,19.0312l36.3346,8.4526c2.0532.478,4.1447.7197,6.2167.7197,8.8326,0,17.1252-4.4028,22.1827-11.7783,5.0929-7.4268,6.1464-16.521,2.8901-24.9512l-8.2301-21.3066c-1.0693-2.7686-2.5702-5.312-4.4426-7.5557.2819-2.4253.103-4.6748-.0602-6.7275-.292-3.6729-.5226-6.5737,1.5718-11.062,3.9325-8.4282,5.905-12.6562,7.9067-15.6743,1.4309-2.1572,2.5663-3.5986,3.6998-4.9292.7212-.0039,1.449-.0083,2.1848-.0127,2.0566-.0117,4.176-.0244,6.3815-.0244,2.6097,0,4.9618.0181,7.1903.0557,5.2048.085,11.8252.6543,18.8341,1.2568,9.087.7817,18.4834,1.5898,27.1121,1.5898,5.2953,0,9.7234-.3076,13.5374-.9399,3.8418-.6382,7.1722-.9614,9.9022-.9614.9514,0,1.7031.0405,2.2773.0933,1.5194,1.3188,3.2946,2.4839,5.1082,3.6743,1.7823,1.1694,5.4912,3.604,6.3634,4.7769,2.8853,4.2666,5.1758,7.6528,9.0206,11.3345,3.1952,3.0601,5.5912,4.4941,7.1765,5.4434,1.2118.7256,1.3674.8188,2.0798,1.666q.3718.4429.9126,1.6133c.6307,1.3662,1.5842,3.4307,3.4915,6.8486,1.3557,2.4292,1.4564,3.0215,1.6088,3.9175.1492.8779.318,1.7695.5903,2.7607-.8878,2.0996-1.4318,4.3428-1.5896,6.6294l-.9738,14.1157c-.3998,5.7974,1.5488,11.3135,5.4869,15.5327,3.9325,4.2129,9.4694,6.6294,15.1907,6.6294,3.4357,0,6.8701-.8848,9.9318-2.5591l20.6503-11.2939c6.751-3.6914,10.8799-10.7646,10.7751-18.4585-.1047-7.6943-4.4248-14.6528-11.2743-18.1597l-12.8279-6.5674c-1.5468-.792-3.1952-1.3853-4.8918-1.7666-.8246-.9766-1.6598-1.7744-2.3627-2.4458-1.5344-1.4658-2.3047-2.2012-2.9249-4.2612-1.6382-5.4414-2.4604-8.1724-2.7478-10.1621-.2898-2.0073-.298-3.1875-.3082-4.6821-.0143-2.0635-.032-4.6318-.7788-8.7124-.4095-2.2383-1.0846-5.9268-2.8998-10.4019-.0815-.7886-.0844-2.436-.0864-3.5669-.0012-.6909-.0024-1.4053-.0135-2.1357,3.5267-.981,6.2448-1.9707,8.4966-3.0708,14.4951-7.1025,23.3564-15.8799,32.7379-25.1724.2698-.2671.5406-.5356.8126-.8047,4.8102,3.876,8.9224,6.9277,14.6591,9.8613,5.658,2.8931,9.4097,3.8447,12.1488,4.5391,2.3344.5923,3.3998.8623,5.6871,2.3633,1.4199.9321,1.6331,1.1733,3.2921,3.0503,1.5204,1.7207,3.8182,4.3208,8.1093,8.4878,3.8843,3.772,4.5494,5.1162,5.3915,6.8184.8163,1.6499,1.6627,3.25,3.0234,5.1196-.6705,3.5938-.6155,7.3145.1941,10.8975l4.9424,21.874c2.8005,12.395,13.6567,21.0522,26.4001,21.0522,7.2137,0,14.0051-2.8535,19.123-8.0342l26.2163-26.5396c7.0442-7.1313,9.5519-17.501,6.5447-27.0625-3.0073-9.562-10.9994-16.6294-20.8571-18.4448l-22.4637-4.1362c-1.6045-.2954-3.245-.4448-4.8762-.4453-1.3093,0-2.6061.0933-3.8857.2788-1.9202-1.5107-3.9308-2.5352-5.7655-3.4702-3.2825-1.6729-5.8752-2.9941-8.6045-7.1284-5.123-7.7593-7.6943-11.6538-9.2191-14.9395-1.5217-3.2788-2.1528-5.334-2.8837-7.7139-.9401-3.0605-2.0055-6.5298-4.7634-11.9312-.5074-.9937-1.1445-2.2417-1.9403-3.6738,3.4291-2.9673,6.2169-5.8105,8.5342-8.686,9.0046-11.1699,12.9094-22.3706,16.6857-33.2026.1162-.333.2327-.6675.3497-1.0024.7861.4189,1.6844.8833,2.7177,1.3984,2.489,1.2412,2.9061,1.6733,3.5375,2.3276.6185.6406,1.261,1.2817,2.045,1.9468.4512,2.2344,1.2673,4.394,2.427,6.3711l7.1575,12.2046c3.7596,6.4097,10.4377,10.2368,17.864,10.2368,7.8372,0,14.9138-4.3359,18.4685-11.3159l10.6815-20.9731c3.2965-6.4722,3.0021-14.0288-.7881-20.2134-3.8027-6.2051-10.3861-9.9102-17.6107-9.9111h-.0055c-.8813,0-1.7777.0571-2.6631.1694l-14.2964,1.8125c-1.7444.2212-3.4366.6587-5.0452,1.2979-1.2286-.3403-2.365-.5273-3.3217-.6846-2.0935-.3447-3.1443-.5176-4.8186-1.8687-.7966-.6431-1.5215-1.228-2.1831-1.7642.7798-1.1011,1.5833-2.2222,2.4008-3.3628,6.2229-8.6826,12.6577-17.6611,15.4894-27.2217,1.85-6.25,3.0125-12.1787,3.623-18.6167,1.8722-.8335,3.7267-1.543,4.7053-1.583,6.5922-.272,11.7944-.4868,18.2897-2.3276,5.316-1.5068,8.2808-3.1924,10.4453-4.4229,1.7014-.9673,2.2148-1.2593,3.9941-1.541.4475-.0713.7834-.1069.9996-.1069.3344,0,.9794.0908,1.8722.2163,1.9022.2681,4.777.6729,9.7666.9453,3.9071.2134,4.7916.6216,6.016,1.1865,1.2333.5688,2.5077,1.1177,4.0986,1.583,1.5295,2.7598,3.5435,5.2036,5.9348,7.1587l14.6797,12.0015c4.1816,3.4194,9.1533,5.2266,14.3777,5.2266,12.6305,0,23.2012-10.54,24.0652-23.9961l2.1819-33.9878c.4783-7.4492-1.9452-14.417-6.8239-19.6187-4.4351-4.729-10.5649-7.4414-16.8179-7.4414-4.4414,0-8.8213,1.3496-12.6664,3.9023l-16.1371,10.7139c-2.0332,1.3501-3.849,3.0005-5.4042,4.897-1.8386.2168-3.4608.6792-4.9384,1.1001-1.6643.4741-2.9789.8486-4.4424.8486-.9888,0-2.0325-.1714-3.1907-.5244-7.1708-2.1865-10.7649-3.2822-13.2742-4.5234-2.5366-1.2549-3.9585-2.2397-5.6049-3.3799-2.2878-1.5845-4.8811-3.3809-9.6591-5.5054-2.6885-1.1958-7.1427-3.1763-13.225-4.332-.9414-.4604-2.9631-1.8735-4.3705-2.8599,1.0914-7.979,1.8448-16.4219.9891-23.769-1.1814-10.1885-4.2418-17.605-7.0177-23.7568-.5012-1.1021-1.001-2.1777-1.5059-3.2642-2.1698-4.6685-4.2192-9.0781-5.9331-14.5708-.6621-2.1157-1.2283-4.7266-1.7201-7.3853.3597-.3223.5485-.4424.5917-.4683,5.2296-2.8926,9.3717-5.1841,13.9417-9.3599,3.7563-3.4321,5.5005-6.0381,6.774-7.9409.9694-1.4487,1.1711-1.75,2.3381-2.5854q.6051-.4331,2.0856-.9307c1.6531-.5557,4.1514-1.395,8.3115-3.2012,3.0476-1.3228,3.8008-1.3467,4.9408-1.3833,1.1523-.0366,2.3264-.1011,3.674-.3203,2.3549,1.5542,4.9532,2.6782,7.6541,3.2861l16.6266,3.7402c1.6276.3657,3.2769.5513,4.9031.5513,7.1216,0,13.7649-3.6074,17.7709-9.6504,4.3895-6.6216,5.0725-15.1577,1.8269-22.835l-11.9205-28.1948c-3.8477-9.1006-12.3828-14.981-21.7446-14.981-7.7234,0-14.6631,4.062-18.5643,10.8657l-8.6597,15.1045c-1.0742,1.8735-1.8746,3.8892-2.3893,5.9937-1.3044.9009-2.3738,1.8804-3.3162,2.7441-1.8551,1.6997-2.877,2.6357-5.4899,3.0796-6.5867,1.1182-9.891,1.6792-12.3258,1.6909l-.1941.0005c-2.3529,0-3.7513-.1992-5.5219-.4517-2.0024-.2856-4.2722-.6094-7.5857-.6094-.8212,0-1.6897.0205-2.5813.061-2.3381.1069-6.0134.2749-10.5327,1.3394-4.3547-5.7925-9.0524-11.0688-13.6267-16.2065-3.7201-4.1777-7.5668-8.498-11.2969-13.1558-3.5693-4.458-7.1085-9.4883-10.8555-14.8135-.5974-.8491-1.1967-1.7007-1.7985-2.5532.1483-.8828.2939-1.7935.4425-2.7222.7454-4.6582,1.8716-11.6978,3.551-14.4131,4.2953-6.9458,7.3977-11.9634,10.015-19.3267,2.1281-5.9878,2.5804-9.8315,2.911-12.6377.2815-2.3921.41-3.4834,1.599-5.9473.7382-1.5298.9493-1.7729,2.5933-3.6626,1.507-1.7329,3.7843-4.3506,7.3542-9.1504,3.2314-4.3442,4.4773-5.1797,6.0547-6.2373,1.5267-1.0234,3.0002-2.0703,4.6731-3.6602.4873.0264.9758.0396,1.4652.0396,3.1913,0,6.327-.5596,9.3202-1.6636l21.0398-7.7617c9.2563-3.4141,15.9065-11.5981,17.3551-21.3569,1.4484-9.7593-2.538-19.5215-10.4036-25.4775l-29.7406-22.5195c-4.7494-3.5962-10.3593-5.4976-16.2233-5.498-14.4189-.002-26.288,11.2603-27.0208,25.6396l-1.1625,22.8115c-.1509,2.9639.1837,5.8989.9799,8.71-1.2458,2.1011-1.9987,4.228-2.6855,6.1689-1.2292,3.4731-2.2001,6.2163-5.9414,9.4629-7.0223,6.0938-10.5471,9.1523-13.6052,11.0938-3.0515,1.9375-5.0065,2.832-7.2701,3.8677-2.9115,1.3325-6.2114,2.8428-11.2057,6.2832-2.8684,1.9761-7.6541,5.2725-12.7097,10.6641-1.0007.7773-4.2761,2.2554-6.4597,3.2407-3.463,1.5625-6.9929,3.1553-10.0961,5.1675-1.4429-.6558-2.7775-1.3159-4.0488-2.0005-5.2568-2.8218-10.6875-6.5107-16.4369-10.4165-10.8553-7.374-22.0802-14.999-34.8348-18.7778-8.769-2.5938-17.8219-3.8013-28.4939-3.8013-1.3475,0-2.6819.019-3.9801.0508-.8618-6.0215-1.7885-11.0117-3.9545-17.0015-2.1609-5.9756-4.2535-9.2314-5.7815-11.6084-1.3022-2.0264-1.8966-2.9507-2.5441-5.6094-.4017-1.6494-.3929-1.9712-.3243-4.4751.063-2.2954.1581-5.7642-.1345-11.7388-.2648-5.4077.1666-6.8442.7128-8.6631.5293-1.7632,1.0027-3.5103,1.2842-5.8057,2.943-2.1689,5.4418-4.9258,7.2955-8.0972l11.316-19.3608c4.9379-8.4487,4.98-18.5576.1123-27.041C410.4196,5.0718,401.6837.0005,391.9241,0h0Z"/>
      </g>
      <path class="cls-3" d="M557.6564,484.1165c5.4657,5.6718-.2413,18.5132-5.6256,30.6285-4.7552,10.6999-9.5434,21.4737-21.2525,30.0035-4.4285,3.226-13.6689,9.9573-26.253,9.3761-3.9932-.1844-15.9909-.7386-20.6274-9.3761-4.5328-8.4442.1895-20.4792,7.5008-25.5806,7.1173-4.9661,11.2785.4125,20.6274-4.4228,8.2566-4.2703,14.0729-13.1521,19.3773-21.2525,3.2647-4.9854,4.1393-7.2907,7.5008-9.3761,5.6561-3.5089,14.7459-4.1573,18.7522,0Z"/>
      <path class="cls-3" d="M483.5728,590.0378c.1181,9.1131-9.6834,15.1691-15.9915,19.0667-4.106,2.537-14.4968,8.7505-27.6775,6.7656-5.1146-.7702-15.0197-2.2618-17.8366-9.8409-2.0754-5.584.2017-13.1142,4.9205-15.9914,5.1535-3.1423,8.6674,2.0405,17.2215,0,5.8823-1.4032,5.9041-4.2555,17.8366-10.4559,7.8044-4.0554,9.8804-3.9188,11.071-3.6903,5.6633,1.0866,10.3752,7.9122,10.456,14.1463Z"/>
      <path class="cls-3" d="M311.3755,597.0118c-5.4019,10.6408-19.0309,12.6667-31.7223,14.5532-18.0389,2.6814-32.4118-1.1891-38.2979-3.0638-5.7744-1.8392-20.6199-7.2482-33.7021-20.6809-6.1265-6.2905-11.3762-11.8432-11.4893-19.9149-.1292-9.2194,6.5252-15.8451,9.1915-18.4999,1.434-1.4278,13.0201-12.6573,25.2766-9.8406,8.94,2.0546,7.944,9.2167,19.9149,16.0851,11.1652,6.4062,23.5311,6.7735,27.5745,6.8936,11.5332.3426,15.4308-2.6445,22.2128.766,7.2573,3.6495,10.2776,10.8335,11.0414,12.6502.4379,1.0416,4.7445,11.706,0,21.0519Z"/>
      <path class="cls-3" d="M421.2968,638.8738c-4.5914,9.8443-20.197,9.8167-25.8491,9.8067-5.8652-.0104-20.33-.036-26.0425-9.8067-3.0131-5.1536-3.597-13.0283,0-16.2359,3.2468-2.8953,7.0452.5579,17.617,0,9.8491-.5198,11.8172-3.7949,19.1489-3.1076,5.9987.5623,11.0525,3.352,15.1257,6.6507.9712,2.8224,2.2142,7.9453,0,12.6928Z"/>
      <path class="cls-3" d="M510.2234,397.1023c6.2542,12.4171-6.4695,28.0581-9.1915,31.4043-9.9419,12.2214-23.1218,15.5948-28.3405,16.8511-6.8032,1.6377-25.5414,6.1486-32.9362-3.8298-4.0751-5.4987-4.2516-14.7851,0-19.7422,4.0662-4.7409,9.0236-1.8387,21.4482-6.3004,4.6515-1.6703,12.1521-4.3638,18.3816-10.7234,8.3293-8.5033,6.655-15.6684,12.5238-17.617,6.0093-1.9953,14.7156,3.2091,18.1145,9.9574Z"/>
      <path class="cls-3" d="M441.2757,502.601c-1.9011,15.1559-17.1836,23.7526-28.0629,29.8723-23.1539,13.0245-45.4163,12.0634-55.6122,11.4894-18.6777-1.0517-33.9236-1.9101-39.6441-13.0213-6.0703-11.7906.8958-30.6386,12.2553-35.7591,10.8806-4.9047,16.7792,6.8475,33.7021,5.1208,16.9736-1.7319,18.5186-14.3177,43.6595-21.1935,8.8576-2.4225,17.4081-4.6269,24.5106,0,7.5934,4.9467,10.1908,15.5252,9.1915,23.4914Z"/>
      <path class="cls-3" d="M597.3716,331.5918c1.8208-5.0556-5.5098-8.0902-11.8406-21.4468-6.038-12.7387-3.4603-18.6079-9.6337-22.9787-5.358-3.7936-14.1547-4.2257-18.1826,0-4.1071,4.3088-1.863,11.9988,0,18.383,1.9421,6.6554,5.0656,11.0752,11.3125,19.9149,7.0363,9.9566,9.4592,11.0394,10.7234,11.4893,6.5914,2.3463,15.8186-.3572,17.621-5.3617Z"/>
      <path class="cls-3" d="M146.4054,336.4252c-.3535-.9379-7.0626-18.2628-15.4684-17.3617-7.334.7862-10.6495,14.8774-11.234,17.3617-1.2827,5.4515-4.3618,18.5382,4.0851,25.3443,6.0366,4.864,16.3385,5.2139,21.9685,0,7.5623-7.0034,2.5764-20.2307.6488-25.3443Z"/>
      <path class="cls-3" d="M166.0471,386.3478c2.7714,2.717-.1972,6.8611,0,17.3071.1016,5.3857.9046,5.0179,2.4064,16.7254,2.0106,15.6734.7191,17.483,0,18.2623-3.8997,4.2261-13.7567,2.8497-19.8846-1.5369-6.032-4.318-7.5984-10.9424-9.3427-18.319-1.7584-7.4367-3.2215-13.6239,0-20.3637,4.1945-8.7755,13.0251-11.5715,14.616-12.0752,2.9389-.9305,9.2254-2.921,12.2048,0Z"/>
      <path class="cls-3" d="M286.3161,171.5644c4.451-15.1244,25.4347-17.7355,30.6383-18.383,8.5289-1.0613,8.1958,1.3196,31.209,4.0851,18.1812,2.1848,21.9385,1.1253,31.0888,4.6844,6.1384,2.3875,14.1693,5.5112,19.7055,13.6986,4.2391,6.2691,8.8156,18.1689,3.7839,26.1089-7.6501,12.0717-32.5632,7.1838-35.682,6.5719-20.0181-3.9275-22.7348-14.8638-37.7961-14.2979-14.189.5331-17.9841,10.4725-27.6283,7.7259-10.3499-2.9476-18.8868-18.0712-15.3192-30.194Z"/>
      <path class="cls-3" d="M537.9158,255.181c1.8049-9.1229-4.2861-16.922-10.2128-24.5107-7.5588-9.6786-15.6119-14.7447-24-19.9149-12.6885-7.8208-19.9623-12.3042-29.1063-10.7234-6.5159,1.1264-14.7393,5.463-15.23,11.234-.4198,4.9377,4.9794,9.0644,9.1023,12.2156,9.2656,7.0819,13.1752,4.3809,21.9575,10.2525,10.0177,6.6975,16.2319,17.7672,16.8511,18.8936,2.2109,4.0222,4.2238,8.949,9.702,13.2766,2.3519,1.858,4.6609,3.6335,7.6597,3.6288,6.1578-.0096,11.9249-7.5206,13.2765-14.3523Z"/>
      <path class="cls-3" d="M531.7815,332.8308c.9424-6.341-3.2149-11.249-10.0744-19.3469-5.734-6.7693-10.6416-12.563-19.5685-16.7106-4.7606-2.2119-15.0741-7.0038-25.5942-3.0545-2.2379.8402-7.5768,2.8444-10.5633,8.4382-.4039.7564-3.5431,6.8606-1.044,13.1652,1.9726,4.9762,6.3381,7.2523,11.5766,9.8859,9.5755,4.814,11.7905,1.8922,18.9314,6.1388,6.8979,4.1021,6.2664,7.6821,13.8644,11.2862,3.3096,1.5699,7.4851,3.5506,12.1923,2.2355,5.4229-1.515,9.506-6.8328,10.2797-12.0378Z"/>
      <path class="cls-3" d="M372.2127,261.8076c-2.2965-3.6789-8.3707-5.61-20.4255-9.322-11.4798-3.5349-17.2197-5.3024-24-5.4865-10.7822-.2928-18.7461,2.4641-24.5106,4.4596-8.3722,2.8982-13.8243,4.7856-18.383,10.3489-4.2616,5.2009-5.507,10.8863-6.1276,13.72-1.1409,5.2086-1.938,8.8478,0,11.8663,3.1166,4.8541,11.8204,5.7887,18.0685,3.5201,7.1918-2.6113,6.687-7.8535,14.1017-10.7234,3.9601-1.5328,8.2571-1.0219,16.8511,0,2.4265.2885,8.7003,1.1112,20.9362,4.0851,13.1708,3.2012,14.5865,4.3589,17.3618,3.1182,7.3061-3.2661,11.2219-17.4256,6.1276-25.5863Z"/>
      <path class="cls-3" d="M349.2115,342.0844c9.6453-11.5905,23.5959-14.0974,31.4042-15.5005,8.4815-1.5241,26.1537-3.1596,44.4255,5.9001,8.7676,4.3473,22.3905,11.1019,22.948,22.6216.3461,7.1512-4.4163,14.6199-10.5635,18.5261-5.1068,3.2451-10.2105,3.4224-12.3845,3.4706-10.6974.2376-14.3143-5.9622-26.432-10.078-5.36-1.8206-12.1244-2.1228-25.6531-2.7273-21.197-.9471-28.0277,1.2313-30.6383-2.974-3.8171-6.1488,6.1249-18.3151,6.8936-19.2388Z"/>
      <path class="cls-3" d="M277.0725,339.4474c-5.946-10.9579-22.741-10.2774-30.6383-9.9574-5.7817.2343-17.9142.7258-28.2114,9.9574-1.5971,1.4319-14.4333,13.2998-12.3844,29.1064.1043.8049,1.9919,14.2711,9.1915,16.0851,5.7793,1.4562,8.1735-6.3113,22.2128-12.2553,8.4411-3.5738,17.6154-5.0166,19.9714-5.3617,9.3138-1.3641,11.2234-.0954,14.5505-2.2979,6.7737-4.4842,9.8046-16.9896,5.3079-25.2766Z"/>
      <path class="cls-3" d="M200.7873,482.91c-1.0338-1.421-10.9365-14.5957-25.2341-12.8317-11.8043,1.4564-18.0283,12.0373-21.3535,17.6904-3.2348,5.4993-9.1599,15.572-5.1199,25.6114,4.283,10.6433,16.769,13.8013,21.4468,14.9843,3.6677.9276,10.0955,2.5533,17.617,0,11.0203-3.7411,15.6669-13.4928,16.3486-14.9843,6.9807-15.2747-3.2531-29.8492-3.7048-30.4701Z"/>
      <path class="cls-3" d="M311.5794,418.4504c-12.5745,2.6575-13.48,9.326-22.9031,10.1582-10.9619.9681-14.5484-7.6312-22.4077-5.0791-7.1898,2.3347-12.1743,12.1243-11.2944,20.9534,1.171,11.7505,12.2845,17.3381,14.5532,18.393,8.1737,3.801,16.215,2.0956,26.0964,0,7.3425-1.5572,6.3124-2.6126,18.8999-5.8744,5.057-1.3104,7.7264-1.7887,10.9186-4.0831,5.4307-3.9034,7.4593-9.5304,7.9776-11.1275,2.0699-6.3778,2.2302-16.812-4.1478-21.8087-5.2988-4.1512-12.6256-2.6028-17.6926-1.5319Z"/>
      <path class="cls-3" d="M285.8307,176.0847c-1.6675-4.9393,4.9733-10.6052,6.1093-11.5745,4.8494-4.1375,10.3453-4.9253,16.3588-5.7872,6.3952-.9167,11.2936-.4698,15.6595-.0434,6.5773.6423,17.0839,2.4052,17.0308,4.1285-.0322,1.0455-3.9264,1.2676-16.6904,4.0851-11.9346,2.6344-14.1853,3.6886-16.3405,5.4468-4.4775,3.6529-3.9425,6.5918-7.8298,8.2119-5.0394,2.1003-12.785.0143-14.2979-4.4672Z"/>
      <path class="cls-3" d="M161.0631,301.5811c-1.1359-12.4828,4.8664-22.2843,9.5319-29.9031,3.7944-6.1962,10.8234-17.369,24.5106-24.7556,5.7736-3.1158,15.4399-8.3324,23.1489-4.2388,3.3851,1.7975,6.8448,5.6302,6.8085,9.8723-.0264,3.0852-1.9008,6.2567-9.247,11.5484-12.9003,9.2924-16.5215,6.2844-23.7842,12.2814-6.4703,5.3428-10.2109,13.7746-17.6922,30.6383-2.6871,6.0571-4.1885,10.2618-6.4681,10.2128-3.2379-.0697-6.1738-8.681-6.8085-15.6557Z"/>
      <path class="cls-3" d="M584.5151,457.233c12.6064-6.1406,11.7697-25.8652,11.4894-32.4709-.2852-6.7203-.5725-13.4951-5.7448-18.0482-7.0463-6.2028-19.9879-5.4914-23.709,0-2.5277,3.7302,1.3301,6.5215,0,14.2184-1.7245,9.9795-9.2478,11.2953-9.6101,19.9149-.3069,7.3028,4.8351,12.5044,5.3617,13.0213,5.9165,5.8065,15.626,6.573,22.2128,3.3646Z"/>
    </g>
  </g>
</svg>