<?xml version="1.0" encoding="UTF-8"?>
<svg id="Capa_2" xmlns="http://www.w3.org/2000/svg" viewBox="0 0 822.3599 737.1417">
  <defs>
    <style>
      .cls-1, .cls-2 {
        fill: #70569b;
      }

      .cls-2 {
        stroke: #b29ad8;
        stroke-linecap: round;
        stroke-miterlimit: 10;
        stroke-width: 8.0146px;
      }

      .cls-3 {
        fill: #5f488c;
      }

      .cls-4 {
        fill: #9570c2;
      }

      .cls-5 {
        fill: #b29ad8;
      }

      .cls-6 {
        fill: #a486ce;
      }

      .cls-7 {
        fill: #8566b2;
      }
    </style>
  </defs>
  <g id="Capa_1-2" data-name="Capa_1">
    <g>
      <g>
        <path class="cls-7" d="M223.8515,287.6433c-5.7147-7.1479-24.9927,4.4516-33.038,3.7528-7.3114-.635-13.0418.0843-17.1138.6185-11.2637,1.4778-12.9171,3.7851-23.6197,5.6008-5.0496.8567-10.7974.966-22.2929,1.1846-13.8993.2644-18.9122-6.8383-25.1171-7.7391-12.7304-1.8482-17.3844-3.5522-27.9528-3.5554-1.8012-.0005-15.4082,5.9316-16.5532,10.4319-.9052,3.5579,6.7493,8.4668,11.8001,10.8184,6.9369,3.2299,11.8633,7.6721,23.9615,9.7399,12.0015,2.0513,9.4027-2.0184,24.5804,1.019,14.37,2.8758,14.876,1.5498,20.8486,3.9874,9.251,3.7756,8.4805,7.1377,19.6621,13.1821,6.9612,3.763,12.8303,5.4712,21.5929,8.0214,10.7283,3.1224,19.622,18.7234,23.2735,17.8161"/>
        <path class="cls-5" d="M220.7216,290.1459c-4.8668-3.7265-22.7019,6.0895-30.0894,5.0998-9.1752-.7501-18.5014.2348-27.3615,2.9112-3.367,1.0772-7.0773,2.163-10.6185,2.8209-7.1133,1.4129-14.5521,1.3176-21.7297,1.4986-2.7256.0743-5.71.0998-8.4355-.2047-4.806-.5428-9.6035-2.2914-13.7687-4.6094-2.3061-1.1833-3.9648-2.3391-6.2208-2.8667-7.674-1.1056-15.3756-2.9802-23.0216-3.4932-1.5482-.1073-3.1856-.1284-4.7395-.1478.0425.0171.3999-.0327.3029-.0185l.0045-.0029-.0757.02c-.045.0103-.1038.0249-.1839.0503-4.136,1.3937-8.813,3.7853-11.9501,6.3827-.5119.441-.9408.92-1.1018,1.1832-.1064.1421-.0736.1685-.0397.0186.0547-.0913.0283-.2368.0242-.3008.0224-.043.0064-.0972-.0212-.123.3667.6783,1.2663,1.7031,2.0793,2.3242,2.3744,1.988,5.3628,3.668,8.2187,4.9995,6.4683,3.2423,11.6899,6.7818,18.5716,8.3495,3.1692.7438,6.5867,1.361,9.5487,1.359,1.5031.0083,2.8608-.2085,4.7997-.481,3.8166-.5624,7.8917-.1695,11.6258.4517,0,0,5.2647.9873,5.2647.9873,7.1525,1.5255,14.8717,1.202,21.5376,4.8219,3.3646,1.5137,6.682,4.369,9.3027,6.6904,5.0177,4.2229,11.0767,7.2635,17.2737,9.5097,3.7622,1.3392,7.8279,2.4787,11.7818,3.6157,3.2244.9363,6.2518,2.7608,8.8126,4.7442,5.2472,3.8819,8.8732,9.0616,13.7285,12.924.0096-.0012.0167.0013.0224.0066.0243.0205-.0237-.0122-.0742-.0303-.0683-.0269-.0457-.0005-.2088-.0513-.3283-.063-.7328-.057-1.064.0473,2.1478-.5337,4.3217.7749,4.8554,2.9229.688,2.6515-1.5409,5.145-4.2297,5.0067-1.1446-.007-2.2222-.3821-3.1721-.9018-2.9709-1.7858-5.1491-4.531-7.4302-6.8573-3.9705-4.0953-7.6996-8.2355-12.9343-10.2184-4.2304-1.3166-8.4102-2.4604-12.6801-4.0361-7.0234-2.5761-13.7807-6.0179-19.5606-10.9086-2.6866-2.317-4.668-4.2525-7.7494-5.7134-2.9938-1.4872-5.4381-2.2567-8.8938-2.5967-3.5182-.4151-7.1726-.9761-10.6878-1.6436l-5.1341-.981c-3.2127-.5237-6.2413-.8877-9.4355-.4424-1.552.2119-3.6932.5493-5.7244.5254-7.6904-.1963-15.1568-2.1862-22.0003-5.5678-3.369-1.672-6.36-3.5587-9.2914-4.9542-3.5017-1.6696-6.7367-3.5019-9.7698-6.0434-1.8635-1.6827-3.4461-3.1152-4.3559-5.9047-2.1848-7.8655,11.5196-13.6314,17.2436-15.8718.6786-.2367,1.7807-.5841,2.7742-.5897.5611-.0027,1.8207.0243,2.4093.0313,8.8327.1401,17.3495,2.3376,25.9685,3.5073,3.2103.4326,6.49,2.3381,9.0809,3.7271,4.9404,2.7944,10.287,4.1539,15.9332,3.9378,11.2723-.168,22.1189-.1576,32.9028-4.1339,7.0567-2.2508,14.3851-3.2133,21.836-3.5652,3.3659-.2756,6.977.3724,10.1329.0721,2.8742-.4563,6.2258-1.6067,9.5604-2.6785,6.4306-1.8698,13.91-5.1278,20.8753-2.3396,3.2468,1.4089,6.4224,5.2564,2.9706,8.3544-1.7477,1.4355-4.2975,1.0971-5.6887-.6236h0Z"/>
      </g>
      <g>
        <path class="cls-1" d="M462.2111,626.4375c4.4897,2.5767-4.0888,12.1157-3.9889,15.9653.0908,3.4984-.6465,6.2692-1.1857,8.2386-1.4917,5.4477-3.0994,6.297-4.7902,11.4831-.7977,2.4469-1.1306,5.2115-1.7963,10.7408-.8049,6.6855,3.6866,8.926,4.0041,11.8864.6514,6.0737,1.5727,8.2698,1.0963,13.3483-.0812.8655-4.6381,7.545-7.6796,8.2019-2.4045.5194-5.3191-3.0426-6.6526-5.414-1.8316-3.2569-4.5596-5.5189-5.3855-11.2836-.8193-5.7186,1.7666-4.5663.4359-11.7878-1.2598-6.8372-.3561-7.1118-1.705-9.9242-2.0893-4.356-4.3577-3.906-7.8669-9.136-2.1847-3.2559-3.0537-6.0358-4.3511-10.1861-1.5885-5.0814-11.5499-8.9853-10.7818-10.7615"/>
        <path class="cls-5" d="M464.2058,622.9618c7.6569,5.2563-.8009,13.82-2.9095,19.3695-.1881,5.1616-1.6691,10.4358-4.1515,14.9376-1.828,3.0918-3.0186,5.8008-3.5981,9.1377-.3858,2.065-.7031,4.3204-1.0166,6.4556-.4495,2.7574.1723,5.0107,1.8343,7.4219.7409,1.1023,1.8686,2.8367,1.9552,4.4087.3242,4.6941,1.8444,9.6352.7506,14.3579-1.5707,2.963-3.5437,5.3844-6.1994,7.5665-4.2914,3.6377-8.5215-.6151-10.7847-4.2444-.8665-1.5496-1.8869-2.8897-2.8902-4.3949-2.6134-3.9326-4.2806-9.3778-2.8386-14.0766.5854-1.9104.2904-3.7405-.0662-5.667-.4362-2.1895-.822-4.5795-1.0104-6.7578-.1266-1.5924-.6839-2.5991-1.5025-3.8291-.4019-.5698-.843-1.0312-1.4196-1.5298-2.1719-1.7058-4.4832-3.7979-5.9946-6.0806-2.336-3.1719-3.7062-7.1026-5.0531-10.6757-2.4243-3.7932-7.3695-4.8726-10.5253-8.1747-1.1874-1.3153-1.6156-3.3059-.9-4.9683,2.2613-4.794,9.3037-1.7491,7.3562,3.1812.4387-.951.3752-2.4934-.3623-3.1744,3.3866,3.372,8.4641,5.9723,10.2562,10.8858.5891,1.9089,1.0276,3.9574,1.6508,5.7162,1.0406,2.9607,2.6514,5.7767,4.8608,7.9785,2.1547,1.8738,4.4472,4.2316,5.3653,7.1061.9367,2.6865.5128,5.602,1.0503,8.3216-.0001,0,.2012,1.2769.2012,1.2769l.2022,1.4043c.2547,1.8933.2122,4.2322-.4277,6.0381-.2732.8818-.4399,1.4595-.4865,2.1675-.0805,1.4058.1617,3.1201.5691,4.6216.7377,2.8337,2.685,5.1739,4.2469,7.6709.9235,1.6732,2.2296,3.5681,3.6698,4.6313.5483.417,1.1161.6241,1.3696.6133.1951.0029.8405-.2944,1.4054-.7466,1.8917-1.5307,3.7176-3.8483,4.959-6.0342.621-3.2486-.6533-8.6976-1.1511-12.7808-.0306-.2648-.1163-.4995-.2109-.7295-.2459-.5303-.726-1.2085-1.2378-1.9472-1.6893-2.2059-3.0287-5.5622-2.8411-8.5635.2887-3.6839.5555-7.3014,1.3099-10.9643.5908-2.6918,1.8679-5.5731,3.0151-7.916,1.3822-2.9108,2.1801-6.2015,2.4989-9.3096.137-1.2929.0073-2.5529.0194-3.8413.4567-4.2012,3.3918-7.9912,4.3909-11.8013.1724-.6225.1744-1.184.1062-1.1948-.0339.0146-.0448.2085.0938.4966.1288.2983.3408.5142.451.5884-4.5118-2.7606-.6852-9.4532,3.9893-6.9512h0Z"/>
      </g>
      <path class="cls-2" d="M652.231,443.869c5.5109-2.1762,12.6075,10.5445,17.352,12.7414,4.3117,1.9964,7.2994,4.2448,9.415,5.8555,5.852,4.4554,6.0382,6.2837,11.4663,10.7483,2.561,2.1064,5.7548,4.0177,12.1422,7.8404,7.7232,4.6219,12.8252,2.2452,16.6009,3.7362,7.7464,3.059,10.9094,3.5996,16.8474,6.9992,1.012.5794,6.7469,8.2913,5.9417,11.1879-.6366,2.2901-6.5166,2.5842-10.1108,2.2797-4.9365-.4182-9.1337.4918-16.5957-2.2403-7.4023-2.7103-4.6326-4.1601-14.1366-7.3386-8.9982-3.0094-8.8557-3.9171-12.9955-4.47-6.4121-.8564-7.0614,1.2803-15.2882,1.0772-5.1217-.1265-8.9686-1.0558-14.7119-2.4434-7.0318-1.6988-17.0491,4.2031-18.8084,2.5181"/>
      <path class="cls-2" d="M256.9414,201.1587c.2478-6.8209-16.5301-4.8559-20.7999-7.9099-3.8803-2.7754-7.5217-4.0995-10.1207-5.0243-7.1892-2.558-9.2755-1.4716-16.3095-3.6144-3.3187-1.011-6.6693-2.7672-13.3704-6.2797-8.1023-4.247-7.4743-10.8126-10.5889-13.421-6.39-5.3516-8.2188-8.0273-14.2788-11.3993-1.0328-.5747-11.7629-.7648-14.6393,2.0174-2.274,2.1995-.3049,8.0732,1.4321,11.3283,2.3857,4.4707,3.0202,9.148,8.9393,14.4517,5.8717,5.2613,6.3885,1.5865,13.5955,8.5502,6.8235,6.5931,7.7677,5.8271,9.9911,9.4363,3.4438,5.5901,1.3436,7.6957,4.7756,15.4881,2.1366,4.8512,4.6604,7.9172,8.4283,12.4947,4.6132,5.6044,2.0195,19.3506,4.5614,19.8804"/>
      <path class="cls-2" d="M649.5991,273.043c1.6057-4.3974,12.8438-1.9157,16.6309-3.566,3.4416-1.4998,6.3373-2.0851,8.3988-2.4899,5.7023-1.1196,6.8801-.2704,12.3655-1.1347,2.588-.4078,5.3928-1.2917,11.0022-3.0596,6.7824-2.1376,8.0552-6.3986,10.9169-7.8469,5.8713-2.9713,7.8501-4.5563,12.9739-6.2806.8733-.2939,8.4379.3643,9.7267,2.3597,1.0189,1.5775-1.8923,5.2055-3.958,7.1691-2.837,2.6969-4.5015,5.6538-10.0305,8.6286-5.4848,2.951-4.8881.5541-11.7522,4.501-6.4988,3.7369-6.9603,3.1764-9.4589,5.332-3.8701,3.3387-2.9484,4.8433-7.3847,9.5968-2.7619,2.9593-5.3292,4.7443-9.1621,7.4093-4.6929,3.2628-6.4619,12.2771-8.3804,12.4324"/>
      <g>
        <path class="cls-7" d="M390.828,183.0467c-8.8413-7.6789,16.1937-22.5013,18.1318-30.4062,1.7613-7.1837,5.0113-12.4364,7.3562-16.1618,6.4864-10.3049,10.6498-11.1688,17.4453-20.8327,3.2062-4.5595,5.5256-10.0181,10.1645-20.9352,5.6089-13.2-3.4256-20.1943-2.4868-26.4031,1.9262-12.7385,1.0505-17.7146,5.0017-27.8146.6734-1.7214,14.8796-12.8833,22.2215-12.5809,5.8044.239,10.4801,9.0769,12.202,14.6331,2.365,7.6311,7.3449,13.7171,5.9928,25.9197-1.3413,12.105-6.6203,8.3588-7.6356,23.8049-.9612,14.6241-3.1876,14.6962-1.6787,21.16,2.3371,10.0118,7.7903,10.3188,12.8901,22.8794,3.1749,7.8198,3.602,13.9582,4.2396,23.123.7806,11.2208,21.4176,24.5606,18.6568,27.7684"/>
        <path class="cls-5" d="M388.2003,186.0721c-11.1404-11.1243,10.7328-24.0229,16.4637-31.8936.8091-1.1439,1.1428-1.458,1.4931-2.7201,2.9871-10.0778,8.9271-19.2428,16.2721-26.5896,2.8022-2.7181,5.4194-5.203,7.6793-8.119,5.3499-6.5165,8.2726-14.5618,11.7506-22.1987,2.8275-5.8177,2.4704-11.9268-.2288-17.9175-.6784-1.7725-1.5205-3.5694-1.8873-5.815-.1735-1.0739-.1323-2.3017.0548-3.3858,1.4115-8.4919,1.3243-17.4375,4.4134-25.6421,0,0,.5169-1.3755.5169-1.3755l.1294-.3438.0647-.1719c.2231-.4161.5059-.8791.8407-1.1992,5.1483-4.9803,16.3518-12.9492,23.7206-12.262,4.5746.7726,7.2873,4.505,9.5132,8.0285,2.1011,3.3375,3.1739,7.0939,4.5603,10.7482.0001,0,2.2104,5.2763,2.2104,5.2763,2.3242,5.391,3.458,11.6235,2.8443,17.5552-.2532,2.9873-.8583,6.1717-2.2893,8.9194-1.3216,2.4889-3.1439,4.6726-3.8909,7.2886-.5166,1.6577-.8294,3.4341-1.0479,5.2451-.1401,1.5694-.3472,4.0283-.4388,5.6391-.2782,3.8069-.8324,7.8076-1.5145,11.521-.9548,5.2421,1.0351,10.2351,4.1775,14.3492,10.2606,11.6123,13.0482,23.1364,14.1208,38.1886,1.0626,6.2327,7.4254,11.7656,11.9818,16.4384,2.3876,2.4001,5.0953,4.6342,6.9436,7.7191,0,0,.2856.5465.2856.5465.0957.1973.1985.4839.2856.7271,1.585,4.0443-2.5756,8.6792-6.5095,5.6093-1.6774-1.4438-1.8669-3.9741-.4232-5.6513-.4292.4621-.6816,1.1304-.6966,1.7539.0096.1748-.0012.2007.0026.2822.0026.0713.0117.1426.0272.2119.0092.0576.0511.1646.0504.1748.0011.0151.0043.0303.0095.0449.0035.02.0444.0742.0389.0562-.0156-.0293-.0285-.0596-.0392-.0918-1.2886-2.2734-3.3694-4.2339-5.1861-6.3307-20.1328-21.073-8.71-20.5696-16.2143-42.7837-1.2616-3.4296-2.8602-6.6317-4.9447-9.5873-2.2061-3.1403-5.0462-6.2135-6.5222-9.9702-1.5773-3.8914-2.4424-8.2819-1.473-12.4057.9923-4.6509,1.6522-9.2344,1.9811-13.9546.2607-3.0225.6293-5.9425,1.5986-8.895,1.1008-3.7744,4.1351-6.5583,5.242-10.1328.5556-1.6265.8322-3.4322,1.0314-5.2373.6457-5.4976-.3179-10.8496-2.4776-16.0044-.7308-1.6948-2.6415-6.3098-3.1996-8.08-2.2018-6.8636-7.4105-17.4918-15.3043-13.2336-5.8661,2.3568-11.7223,6.2908-16.2576,10.684-1.5877,4.0576-2.6418,8.2334-3.135,12.589-.5492,4.8383-.9454,10.0463-1.6515,14.958-.1708,2.3149.8771,4.2608,1.8149,6.6338,2.7889,6.029,3.7127,12.9743,1.0196,19.4277-3.5168,8.4986-6.5872,17.4691-12.3031,24.8472-2.3563,3.1796-5.2048,6.062-7.785,8.7485-5.0582,5.2645-9.0664,11.6943-11.9085,18.2919-1.1869,2.7236-1.6466,5.3104-2.573,8.1734-2.2592,4.8852-6.2137,8.232-9.6975,12.0225-2.2085,2.375-11.2467,11.2312-8.284,13.2416,4.1202,3.6494-1.1022,9.6724-5.2553,6.0508h0Z"/>
      </g>
      <g>
        <path class="cls-1" d="M365.1477,600.0814c2.3547,9.5483-20.1465,18.3937-24.8146,25.7096-4.2422,6.6484-8.6045,11.063-11.7241,14.1848-8.6291,8.6354-11.6779,8.5353-20.228,16.4714-4.034,3.7443-7.8877,8.5727-15.5952,18.2296-9.3191,11.6762-6.5438,20.5966-9.8354,26.4756-6.7534,12.0618-8.3456,17.1442-15.2573,26.1559-1.178,1.5359-15.1376,9.2547-19.7232,7.2864-3.6253-1.5561-2.8021-11.2932-1.5024-17.1376,1.7851-8.0269,1.2212-15.1329,7.3737-26.7995,6.1033-11.5733,7.8725-6.6952,15.2131-21.6215,6.95-14.1319,8.4115-13.6957,10.2411-20.3822,2.8339-10.3567-.5364-11.8995,1.6263-25.3864,1.3464-8.3964,3.7302-14.5173,7.289-23.6559,4.3573-11.1887-3.1239-28.9776.0387-31.4969"/>
        <path class="cls-5" d="M369.0384,599.1219c1.8607,9.799-9.2472,15.7988-15.736,20.4484-4.6938,3.1946-9.0711,5.6445-11.818,10.3403-5.8495,7.9014-12.8697,15.0276-20.916,20.6104-3.1914,2.1625-6.0791,4.2098-8.8515,6.6337-6.3435,5.4929-11.3268,12.2922-16.7036,18.7275-2.8162,3.441-5.0395,7.2861-6.2883,11.5645-1.2747,4.0909-1.3367,8.4037-2.7518,12.6118-.4627,1.4279-1.3448,2.84-2.0678,4.1538-1.8332,3.2837-3.5664,6.6118-5.3348,9.9951-2.7148,5.1607-5.781,10.4883-9.5939,14.9888-1.7054,1.4438-3.4087,2.2788-5.2941,3.3238-3.5073,1.7943-7.0414,3.4218-11.1777,4.3129-6.548,1.4661-9.1113-2.438-9.318-8.5216-.1711-4.1029.3765-8.0462,1.2019-11.8519.7509-3.5405,1.097-7.3252,1.8569-11.1865,1.0918-5.8059,3.2272-11.4359,6.0585-16.6221,1.6993-3.4065,4.5367-7.0012,7.2706-9.5067,2.5587-2.5356,4.3435-5.5448,6.0344-8.735,0,0,2.5141-5.0537,2.5141-5.0537,1.7001-3.4248,3.5411-6.8716,5.4576-10.1553,1.9643-3.1995,3.0127-6.1472,3.6677-9.7471.7562-3.644.3755-6.8601.1151-10.6587-.4535-7.97.9447-15.8839,3.2349-23.4551,1.3749-4.6533,3.0897-9.0085,4.6653-13.4931,1.6912-5.9025.5127-11.9204-.485-18.0508-.5534-3.4328-1.5378-7.0205-1.1729-10.6895,0,0,.1175-.6504.1175-.6504.0311-.1958.1104-.4687.2003-.7358.1031-.2817.1453-.481.3333-.832,1.2304-2.8387,5.0515-3.8887,7.1268-1.2694,1.3789,1.7308,1.0935,4.2518-.6376,5.6307.3139-.2462.5995-.6016.7129-.9566-.2989,2.3995.3915,5.5548.6881,8.3508.5181,3.7953,1.0182,7.7391.983,11.8563-.03,3.4106-.4804,7.0581-1.7925,10.3193-1.6807,4.1114-3.4244,8.2893-4.8187,12.4019-2.2463,6.8539-3.7076,14.1082-3.4572,21.3052.2173,3.7577.4575,8.1874-.4673,11.9932-1.331,7.9075-6.6756,14.0859-10.052,21.0806,0,0-2.6113,5.0991-2.6113,5.0991-1.8781,3.4813-4.0945,7.0217-6.9828,9.8047-1.4456,1.4097-2.6492,2.5376-3.7009,3.9131-2.1472,2.7758-3.8604,6.1314-5.3369,9.3574-3.2039,6.9117-3.7051,14.0674-5.1433,21.6124-.7872,3.5465-1.2903,7.1409-1.1537,10.708.0263,1.4251.3002,3.1611.9541,4.2213.2706.2763.3517.3281.8792.3724,4.1648-.0574,8.2603-2.1929,12.1549-4.1141,1.3471-.6422,3.4036-1.9542,4.3261-2.6475,3.3448-4.335,6.103-8.9046,8.6189-13.8292,2.1197-4.1422,4.3713-8.377,6.5764-12.5248,1.7452-4.1681,1.5603-9.0282,2.9689-13.4624,1.3516-4.8745,3.8906-9.3957,7.0247-13.3379,5.3768-6.7393,10.4757-13.9472,16.9322-19.7564,5.5592-5.1386,12.2875-8.7785,17.5016-14.2549,2.6299-2.6323,5.1798-5.2963,7.4127-8.1479,2.5272-2.9202,4.2594-6.7527,6.9453-9.4635,5.4855-5.3099,12.5354-9.0363,17.902-14.1191,1.2312-1.1674,2.273-2.4072,2.9236-3.5351.4931-.9088.7333-1.6039.5228-2.4541-1.2395-5.2284,6.3967-7.1922,7.7815-1.9189h0Z"/>
      </g>
      <g>
        <path class="cls-4" d="M601.188,195.2884c-6.6768,0-12.811-3.8207-19.3057-7.8657-8.7812-5.4697-15.1245-9.4207-14.4346-18.3096.7661-9.869,10.0303-19.4879,16.1611-25.8529,5.4336-5.6416,10.2769-9.1382,13.4819-11.4519,5.0928-3.6759,8.2593-5.3085,11.3218-6.8871,2.6318-1.3567,5.1182-2.6382,9.0103-5.2644,3.9487-2.6643,8.1938-6.3712,16.6519-13.7563,10.2441-8.944,15.3857-13.4332,19.3413-17.9446,3.5601-4.0596,5.5786-6.968,7.3594-9.5342,2.4438-3.5215,4.5542-6.5626,9.2847-10.8273,10.9473-9.868,15.0977-9.868,16.4614-9.868,1.2803,0,2.4722.3593,3.4458,1.0392,5.0918,3.5541,1.6899,12.8414-2.0601,20.0066-2.5044,4.786-4.7314,7.1746-8.1025,10.7903-1.7451,1.8721-3.9175,4.2019-6.6797,7.4839-3.7759,4.4877-5.3286,6.7979-7.1265,9.4728-1.8892,2.8112-4.0308,5.9973-8.9849,12.1661-4.187,5.2129-6.6885,7.9606-8.5151,9.9668-2.1157,2.324-2.9917,3.2859-4.5376,5.9739-2.2769,3.9592-2.7974,6.0917-3.5171,9.0431-.6997,2.8666-1.5703,6.4341-4.2598,12.2623-3.4097,7.3894-6.9414,12.4736-12.2871,20.1696-6.9009,9.9349-10.0493,14.467-13.9604,16.7538-2.7622,1.6149-5.7056,2.4337-8.7485,2.4337Z"/>
        <path class="cls-5" d="M686.5214,61.7338c.4491,0,.839.0991,1.1525.3179,2.442,1.7046-.761,9.9785-3.3168,14.8623-3.5103,6.708-6.3982,8.1646-14.2977,17.5522-7.8363,9.3125-6.4809,9.6455-16.1702,21.71-9.1736,11.4219-10.2082,10.8989-13.4017,16.4521-4.9464,8.6006-2.7015,10.2681-7.9418,21.624-3.2624,7.0698-6.7432,12.0811-11.9399,19.5625-6.3626,9.1602-9.5439,13.7397-12.6917,15.5806-2.2655,1.3247-4.4955,1.8857-6.7258,1.8857-5.5314,0-11.0695-3.4497-17.189-7.2612-8.5225-5.3086-13.0579-8.1333-12.5561-14.5967.6547-8.4351,9.4621-17.5796,15.0526-23.3838,5.0804-5.2749,9.669-8.6196,12.9411-10.9819,9.0512-6.5337,11.422-6.1372,20.2275-12.0791,4.1545-2.8032,8.4518-6.5552,17.0464-14.0596,10.3917-9.0732,15.5876-13.6099,19.7187-18.3208,8.4757-9.6655,8.5143-12.9961,16.3139-20.0273,1.1944-1.0767,9.8024-8.8369,13.7781-8.8369M686.5213,53.7191h-.0003c-2.1109,0-7.0541.0005-19.1435,10.8984-5.076,4.5757-7.4167,7.9492-9.8949,11.52-1.804,2.6001-3.6694,5.2881-7.079,9.1763-3.7788,4.3091-8.8536,8.7402-18.964,17.5679-8.3329,7.2759-12.5155,10.9277-16.258,13.4531-3.6971,2.4946-6.0812,3.7236-8.6053,5.0249-3.1933,1.646-6.4954,3.3481-11.8304,7.1992-3.1204,2.2529-8.3425,6.0229-14.0228,11.9209-6.5279,6.7773-16.3932,17.02-17.2705,28.3232-.8782,11.3135,7.086,16.2744,16.3079,22.0186,6.6893,4.1665,13.6046,8.4741,21.4278,8.4741,3.7632,0,7.387-1.0029,10.7709-2.9814,4.6764-2.7349,7.9834-7.4956,15.2291-17.9272,5.27-7.5869,9.0778-13.0688,12.6346-20.7769,2.8519-6.1802,3.7733-9.9565,4.5137-12.9907.6893-2.8252,1.1054-4.5303,3.0984-7.9956,1.3289-2.3105,1.9545-2.9976,4.0274-5.2744,1.8618-2.0449,4.4116-4.8457,8.6755-10.1548,5.0605-6.3008,7.2522-9.562,9.186-12.4395,1.8046-2.6851,3.23-4.8057,6.8678-9.1289,2.6966-3.2046,4.7411-5.3975,6.5449-7.332,3.3334-3.5752,5.9663-6.3994,8.7215-11.6646.8345-1.5942,2.9092-5.7773,4.1457-10.1655,2.4623-8.7378-.4586-12.9712-3.3425-14.9844-1.6501-1.1519-3.6349-1.7607-5.7399-1.7607h0Z"/>
      </g>
      <g>
        <path class="cls-4" d="M419.0909,638.7762c-8.4683,0-18.6318-2.5144-28.4604-4.946-5.9062-1.4611-11.4844-2.8413-16.1167-3.5157-5.6006-.8181-10.6245-1.319-15.4829-1.8035-11.752-1.1719-21.9014-2.184-34.7144-7.0564-7.6777-2.9167-15.4321-8.6332-22.9312-14.1614-4.9097-3.6195-9.5474-7.0383-13.8193-9.4263-5.2988-2.9655-10.3594-5.3018-15.2529-7.5609-9.5415-4.4052-18.5537-8.5658-27.7954-16.5675-4.5581-3.9448-8.937-8.5457-13.3862-14.0646-4.272-5.2825-8.2275-10.9111-12.0527-16.3545-2.8281-4.0238-5.7524-8.1848-8.811-12.2197-2.9868-3.9465-6.2393-7.9513-9.3848-11.8242-4.5239-5.5707-9.2021-11.3311-13.4336-17.3123-4.3135-6.1016-7.6558-11.7333-10.2188-17.2179-4.6748-10.0138-5.8633-21.7189-7.0127-33.0386-.7417-7.3033-1.4424-14.2017-3.001-20.6224-1.647-6.7777-3.959-13.3444-6.1953-19.6947-4.2861-12.1729-8.7183-24.7601-8.7183-39.4006,0-9.9601,2.5771-19.5072,5.0698-28.74,1.4712-5.4506,2.8608-10.5989,3.7363-15.769.9058-5.3475,1.2598-10.8474,1.6016-16.1663.563-8.7458,1.145-17.7897,4.1724-26.5532,2.895-8.3551,7.9849-15.744,12.9072-22.8896,3.1519-4.5762,6.1294-8.8984,8.5225-13.3947,2.6821-5.0414,5.0605-10.2734,7.3608-15.3331,4.7744-10.5021,9.7109-21.3616,17.5449-30.8632,7.1343-8.6401,16.5024-14.4409,25.5625-20.0508,5.5176-3.4163,11.2231-6.949,16.2241-11.0338,4.9653-4.059,9.5947-8.9569,14.0718-13.6935,7.4644-7.8973,15.1826-16.0634,25.1963-21.3733,11.3604-6.0243,25.1348-8.0421,38.4556-9.9934,7.9092-1.1586,15.3799-2.2529,22.3115-4.1161,7.0918-1.9041,13.8745-4.4036,20.4336-6.8208,13.3491-4.9194,27.1523-10.0066,43.6167-10.0066,12.3784,0,24.8623,3.9852,36.9351,7.8392,6.7656,2.1598,13.1562,4.1998,19.2817,5.4749,6.2266,1.3011,12.2886,1.6289,18.1509,1.9459,8.8867.4806,18.0767.9775,27.5356,4.8949,12.4482,5.1437,23.96,14.2612,35.0928,23.0785,5.1787,4.1017,10.0703,7.9761,14.9126,11.3442,5.0312,3.5013,10.0186,6.5969,14.8418,9.5905,11.563,7.1764,22.4839,13.9548,32.481,25.1732,4.6646,5.2251,8.4038,12.7676,12.4624,21.3655l.6606,1.396c2.7485,5.8088,5.3447,11.2955,8.0132,15.2715,3.4165,5.0944,6.9009,9.0494,10.2705,12.8744.7959.9033,1.5835,1.7976,2.3608,2.6956,4.1035,4.7437,8.7915,10.5315,12.5059,19.2291,3.8271,8.9646,5.4131,21.1594,6.9468,32.9528.9155,7.0431,1.7808,13.6957,3.0591,19.1343,1.4355,6.11,3.0874,11.4352,4.6851,16.5851,3.395,10.9429,6.6016,21.2789,6.6016,35.9519,0,8.9531-3.4526,18.8971-6.791,28.5135-2.2905,6.598-4.4541,12.8301-5.3096,18.1702-1.1562,7.2357-1.4727,13.8752-1.7793,20.2963-.5459,11.4517-1.062,22.2682-6.1323,34.5763-4.1787,10.1486-12.5439,20.1554-20.6338,29.8328-4.8101,5.7545-9.354,11.1899-12.6812,16.2595-3.8809,5.911-6.9663,11.5271-9.9502,16.958-6.1108,11.123-11.8828,21.6292-23.0283,31.8737-4.645,4.2656-13.1929,8.6969-21.459,12.9823-5.9316,3.075-11.5342,5.9794-14.8374,8.3793-4.8452,3.5148-7.8013,6.5511-10.6597,9.4878-4.2505,4.366-8.2646,8.49-17.0332,12.7542-9.6367,4.6815-24.5854,7.7437-37.7749,10.4453-6.9873,1.4314-13.5879,2.7834-18.7939,4.2316-4.772,1.3264-9.0254,2.6133-13.1392,3.8577-15.0869,4.564-27.0034,8.1689-46.7944,8.1689Z"/>
        <path class="cls-5" d="M419.0908,109.1991c18.48,0,38.01,9.6099,55.4,13.23,16.08,3.3599,30.12.4697,44.97,6.6201,17.57,7.2598,33.84,23.2896,49.25,34.0098,17,11.8301,32.87,18.71,46.62,34.1401,4.41,4.9399,8.2,12.7197,11.83,20.4097,3.01,6.3501,5.91,12.6304,8.97,17.1904,4.38,6.5298,8.8,11.1899,12.93,15.96,4.42,5.1099,8.51,10.3599,11.85,18.1797,5.84,13.6802,6.32,36.6699,9.79,51.4302,4.55,19.3701,11.18,30.8599,11.18,51.6201,0,14.2197-9.87,32.4399-12.05,46.0498-3.24,20.2803-.06,35.5303-7.66,53.98-6.37,15.4702-23.89,31.6001-32.96,45.4199-11.95,18.2002-16.38,33.4102-32.34,48.0801-7.47,6.8599-27.71,15.0898-35.94,21.0698-12.38,8.9805-13.21,15.1304-27.09,21.8804-14.08,6.8398-40.54,10.1499-55.89,14.4199-22.45,6.2397-34.42,11.8799-58.86,11.8799-13,0-31.5-6.6001-44-8.4199-19.1-2.79-31.81-1.9702-49.35-8.6401-12.03-4.5698-25.11-17.1299-36.22-23.3398-15.67-8.77-28.89-11.98-42.38-23.6602-4.83-4.1797-9.02-8.75-12.89-13.5498-7.31-9.04-13.52-18.8901-20.79-28.48-7.28-9.6201-15.63-18.98-22.74-29.0303-3.74-5.29-7.14-10.7798-9.86-16.5996-7.24-15.5103-5.63-35.9404-9.75-52.9102-4.85-19.96-14.8-36.7002-14.8-58.1499,0-15.0503,6.32-29.4902,8.75-43.8403,2.43-14.3496.96-28.6196,5.61-42.0796,4.48-12.9302,14.83-23.7803,21.18-35.7104,8.32-15.6396,13.28-31.9697,24.46-45.5298,10.99-13.3101,27.86-19.6099,41.23-30.5298,13.37-10.9302,23.24-26.48,38.61-34.6304,17.16-9.0996,40.77-8.6299,59.93-13.7798,21.79-5.8501,39.38-16.6899,63.01-16.6899M419.0908,101.1844c-17.1793,0-31.3238,5.2129-45.0025,10.2539-6.475,2.3862-13.1705,4.8535-20.0857,6.71-6.707,1.8027-14.0647,2.8809-21.8544,4.022-13.6577,2.0005-27.7803,4.0693-39.7522,10.418-10.5961,5.6187-18.5445,14.0283-26.2313,22.1611-4.5921,4.8584-8.9294,9.4478-13.6967,13.3447-4.7954,3.9165-10.1385,7.2251-15.7954,10.7275-9.336,5.7803-18.9898,11.7578-26.5421,20.9043-8.1747,9.915-13.2232,21.0205-18.1053,31.7598-2.2747,5.0034-4.6267,10.1772-7.2502,15.1089-2.2847,4.2925-5.199,8.5229-8.2844,13.002-5.0742,7.3662-10.3211,14.9829-13.3928,23.8486-3.2066,9.2822-3.806,18.6001-4.3858,27.6118-.351,5.457-.6826,10.6113-1.5534,15.7539-.8433,4.98-2.2087,10.0376-3.6542,15.3926-2.5606,9.4854-5.2083,19.2935-5.2083,29.7856,0,15.3252,4.5476,28.2412,8.9456,40.7314,2.3046,6.5454,4.4814,12.7275,6.081,19.3105,1.4937,6.1523,2.1807,12.918,2.9081,20.0806,1.1832,11.6514,2.4067,23.6997,7.3676,34.3276,2.6674,5.707,6.127,11.54,10.5781,17.8359,4.3091,6.0913,9.0292,11.9033,13.5938,17.5239,3.2685,4.0244,6.3557,7.8262,9.2995,11.7163,3.0197,3.9829,5.923,8.1143,8.7308,12.1099,3.8633,5.4971,7.8581,11.1812,12.218,16.5732,4.5959,5.6997,9.1377,10.4688,13.8777,14.5708,9.6685,8.3716,18.9307,12.6475,28.7367,17.1748,4.8242,2.2271,9.8126,4.5303,14.9735,7.4185,4.0558,2.2671,8.5949,5.6133,13.4006,9.1558,7.7163,5.6885,15.6953,11.5708,23.8875,14.6826,13.3078,5.0605,24.2033,6.147,35.7386,7.2974,4.8138.48,9.7913.9766,15.2991,1.7812,4.4418.6465,9.9278,2.0039,15.7359,3.4404,10.0616,2.4893,20.4658,5.0635,29.4225,5.0635,20.3827,0,32.5493-3.6807,47.9527-8.3398,4.0928-1.2383,8.3249-2.5186,13.0536-3.833,5.074-1.4111,11.6083-2.75,18.5263-4.167,14.0759-2.8833,28.6311-5.8647,38.7194-10.7656,9.4017-4.5723,13.8518-9.1436,18.1554-13.5645,2.7406-2.8154,5.5744-5.7266,10.1386-9.0376,3.0645-2.2266,8.7923-5.1958,14.3315-8.0674,8.499-4.4058,17.2872-8.9619,22.3234-13.5864,11.6322-10.6919,17.5578-21.478,23.8314-32.8975,2.9464-5.3628,5.9932-10.9087,9.7872-16.687,3.2008-4.877,7.6722-10.2261,12.4061-15.8892,8.2846-9.9102,16.8512-20.1577,21.2653-30.8784,5.3339-12.9482,5.8908-24.6211,6.4294-35.9097.3012-6.312.6127-12.8389,1.7339-19.8574.7992-4.9893,2.9067-11.0596,5.1379-17.4868,3.4475-9.9302,7.0124-20.1987,7.0124-29.8271,0-15.2798-3.2938-25.8975-6.7811-37.1382-1.5772-5.0845-3.2082-10.3418-4.6112-16.3149-1.2324-5.2417-2.0847-11.7969-2.9872-18.7363-1.5685-12.0625-3.1904-24.5352-7.2341-34.0073-3.9417-9.229-8.8594-15.3052-13.1595-20.2764-.7876-.9097-1.5829-1.8125-2.3864-2.7246-3.2839-3.728-6.6797-7.5825-9.9492-12.457-2.5031-3.73-5.0378-9.0874-7.7213-14.7593l-.6624-1.3989c-4.1888-8.874-8.0695-16.687-13.0934-22.3145-10.3778-11.646-21.5386-18.5728-33.3546-25.9067-4.7795-2.9663-9.7217-6.0337-14.6663-9.4746-4.7403-3.2974-9.5842-7.1338-14.7123-11.1958-11.3493-8.9888-23.085-18.2837-36.055-23.6426-10.0862-4.1772-19.6237-4.6929-28.8473-5.1919-5.9751-.3228-11.6188-.6279-17.5441-1.8662-5.9271-1.2339-12.2211-3.2432-18.8846-5.3701-12.3654-3.9473-25.1518-8.0293-38.1546-8.0293h0Z"/>
      </g>
      <path class="cls-7" d="M681.8808,371.989c0,14.22-9.87,32.44-12.05,46.05-3.24,20.28-.06,35.53-7.66,53.98-6.37,15.47-23.89,31.6-32.96,45.42-11.95,18.2-16.38,33.41-32.34,48.08-7.47,6.86-27.71,15.09-35.94,21.07-12.38,8.98-13.21,15.13-27.09,21.88-14.08,6.84-40.54,10.15-55.89,14.42-22.45,6.2401-34.42,11.88-58.86,11.88-13,0-31.5-6.6-44-8.42-19.1-2.79-31.81-1.97-49.35-8.64-12.03-4.57-25.11-17.13-36.22-23.34-15.67-8.77-28.89-11.98-42.38-23.66-13.91-12.05-22.55-27.35-33.68-42.03-7.28-9.62-15.63-18.98-22.7401-29.03,20.75,8.39,43.2,20.77,58.3701,31.54,5.55,3.94,17.8199,13.13,36.15,16.85,14.8,3,27.81,1.27,36.81,0,18.51-2.61,18.81-6.28,39.9-10.72,27.39-5.78,31.53-.5601,45.58-7.66,15.72-7.94,12.33-15.36,28.22-24.51,20.7-11.92,31.27-2.13,49.57-13.79,14.13-9,8.98-15.58,25.47-30.64,22.11-20.19,37-13.51,47.13-30.64,7.77-13.12.6-19.71,10.38-35.23,7.7-12.23,13.28-9.93,21.79-22.86,2.08-3.15,11.24-17.72,10.75-36.88-.36-14.31-5.7401-16.75-5.01-27.58,1.1-16.52,14.63-26.32,21.2-33.7,12.92-14.5099,13.33-35.84,10.1299-56.22,3.01,6.35,5.91,12.63,8.97,17.19,9.05,13.51,18.32,19.01,24.78,34.14,5.84,13.68,6.32,36.67,9.79,51.43,4.55,19.37,11.18,30.86,11.18,51.62Z"/>
      <path class="cls-1" d="M681.8808,371.989c0,3.77-.69,7.82-1.76,11.99-2.03,8-5.41,16.44-7.83,24.2-1.08,3.46-1.97,6.78-2.46,9.86-3.24,20.28-.06,35.53-7.66,53.98-6.37,15.47-23.89,31.6-32.96,45.42-11.95,18.2-16.38,33.41-32.34,48.08-7.47,6.86-27.71,15.09-35.94,21.07-12.38,8.98-13.21,15.13-27.09,21.88-14.08,6.84-40.54,10.15-55.89,14.42-22.45,6.2401-34.42,11.88-58.86,11.88-13,0-31.5-6.6-44-8.42-19.1-2.79-31.81-1.97-49.35-8.64-12.03-4.57-25.11-17.13-36.22-23.34-15.67-8.77-28.89-11.98-42.38-23.66-4.83-4.18-9.02-8.75-12.89-13.55,10.84,2.84,20.25,5.95,25.63,7.73,18.98,6.28,34.21,13.79,34.21,13.79,17.08,8.42,21.29,12.92,39.61,21.45,23.07,10.74,30.17,11.14,35.29,10.72,13.36-1.1,14.01-7.89,29.94-12.26,19.62-5.37,23.57,3.59,45.89,0,19.73-3.17,16.48-10.15,40.5-15.31,18.18-3.91,28.41-1.71,37.61-10.73,5.82-5.71,3.29-8.13,9.38-15.32,11.19-13.21,23.39-9.29,35.99-19.91,4.87-4.11,4.25-5.71,16.1-30.64,10.93-22.98,16.39-34.48,22.85-44.43,9.28-14.28,15.12-19.08,19.25-24.78,2.17-3,3.85-6.26,5.31-11.28,4.13-14.21-1.28-16.14,3.15-32.87.97-3.6801,2.04-6.64,3.16-9.17,4.29-9.79,9.16-13.12,11.29-26.07,1.01-6.15.41-8.45-1.18-29.1-1.03-13.34-2.16-30.23-2.39-36.77-.3701-10.34.3199-27.76,3.22-41.45,4.42,5.11,8.51,10.36,11.85,18.1801,5.84,13.68,6.32,36.67,9.79,51.43,4.55,19.37,11.18,30.86,11.18,51.62Z"/>
      <path class="cls-7" d="M551.0449,296.8066c4.668,6.9596,5.523,21.499-.3795,36.766-3.0804,7.9676-6.879,17.7929-16.7408,22.4681-.7091.3362-13.0203,5.9887-19.4043,0-3.1989-3.0008-4.6612-8.6916-2.5532-11.7447,1.9414-2.8117,5.3851-1.1763,10.7234-3.5745,5.7473-2.5819,8.6383-7.5696,11.7447-12.9289,2.7084-4.6728,5.8621-10.1137,5.617-17.1987-.2305-6.6636-3.2937-9.7573-1.0213-13.7872,1.2818-2.2731,3.9681-4.3245,6.6383-4.0851,2.8042.2514,4.6084,2.9414,5.3755,4.0851Z"/>
      <path class="cls-7" d="M534.9459,401.9981c2.1203,6.9918-4.0522,13.988-6.1277,16.3404-4.8876,5.5399-10.5715,7.4711-11.7447,7.8504-6.5298,2.1111-17.0334,2.6052-19.4043-2.2334-1.4306-2.9196.1474-7.6836,3.0638-9.3614,3.1023-1.7847,5.4109,1.2506,10.247.2634,5.1724-1.0558,8.5288-5.7519,10.6891-8.7744,4.3318-6.0607,4.0356-10.3355,6.6383-10.7234,2.5192-.3754,5.5992,3.2118,6.6383,6.6383Z"/>
      <path class="cls-7" d="M464.9885,455.0832c.941,5.7752-9.3842,11.392-13.7872,13.7872-10.1683,5.5315-19.2918,5.6319-21.4468,5.617-3.1945-.022-18.0226-.1244-19.9149-6.6383-1.0746-3.6989,2.1436-9.0471,6.1277-10.2128,3.8875-1.1374,5.5965,2.5582,12.2553,4.0851,6.0799,1.3942,14.5125.5736,19.9149-4.0851,4.4677-3.8527,4.0749-7.926,7.6596-8.6808,3.6549-.7696,8.6019,2.5092,9.1915,6.1277Z"/>
      <path class="cls-7" d="M327.1161,524.5513c-6.131,6.7817-15.8764,7.0374-25.0213,7.1489-10.4586.1275-22.0242.2686-33.1915-7.1489-1.5141-1.0057-16.2471-10.7915-13.7872-19.4043,1.2131-4.2474,6.4896-7.7968,10.7234-7.1489,4.318.6608,4.9684,5.2922,10.7234,10.2128,0,0,6.1276,5.239,14.415,6.7719,10.4497,1.9328,14.5175-3.9055,30.0105-3.1974,6.8309.3122,8.9263,1.5791,9.7021,3.1653,1.7563,3.5911-3.1162,9.0937-3.5745,9.6006Z"/>
      <path class="cls-7" d="M370.5204,451.53c-2.6833,6.8969-11.6452,9.2905-14.8085,10.1354-15.5973,4.1658-28.4216-4.2547-29.617-5.0677-3.3253-2.2616-11.1519-7.5845-10.2128-13.8338.4966-3.3047,3.4159-6.6785,6.6383-7.0637,3.4398-.4112,4.906,2.8603,11.234,7.0637,5.349,3.5531,10.0754,6.6926,15.3192,6.0785,6.0152-.7044,6.9878-5.6778,14.2979-6.0785,1.4945-.0819,5.4225-.2972,7.1489,2.1278,1.67,2.3458.3205,5.8144,0,6.6383Z"/>
      <path class="cls-7" d="M246.4353,466.3386c-6.1542,4.8843-20.4757-4.0191-29.617-9.7021-8.954-5.5665-16.0031-10.0854-19.4043-18.8936-.8527-2.2083-4.2155-10.917,0-14.8085,2.7781-2.5646,8.2674-2.5013,11.2341,0,3.1794,2.6807,1.4085,6.4306,4.0851,12.731.3896.9172,2.8711,6.5795,8.1526,10.2477,5.9834,4.1558,9.7323,1.7042,21.4645,6.6383,3.7786,1.5891,5.8403,2.8741,6.6383,5.1064,1.0209,2.8559-.1902,6.8055-2.5532,8.6808Z"/>
      <path class="cls-7" d="M453.7544,388.2109c1.8438,5.6695-9.5417,13.4619-12.2553,15.3191-12.2141,8.3596-24.638,8.0886-27.0638,7.9964-5.3101-.2019-18.1195-.689-20.9362-7.9964-1.8042-4.6807.7588-11.4668,4.5957-12.7659,3.1445-1.0646,4.9622,2.2948,11.5354,4.5686,1.6218.561,11.4156,3.9489,19.1029,0,6.9128-3.551,6.0406-9.9109,12.2553-11.7175,5.0156-1.4581,11.5777.9419,12.766,4.5957Z"/>
      <path class="cls-7" d="M610.0098,220.2109c4.4444,4.1257,2.1894,12.396,0,20.4255-1.6908,6.2011-4.0956,14.5781-11.7447,20.9362-3.0552,2.5395-10.188,8.4684-15.8298,5.617-4.2418-2.1438-6.4204-8.6342-4.5957-12.766,1.4298-3.2376,4.2498-2.6092,9.1915-6.6383,1.2991-1.0592,7.6164-6.2098,9.1915-13.7872,1.4925-7.18-2.4962-10.6532,0-13.7872,2.6109-3.2779,10.1094-3.4141,13.7872,0Z"/>
      <path class="cls-6" d="M211.7119,247.0194c-1.0168-13.3516,6.4634-23.6632,10.6326-29.4104,3.3376-4.6009,11.8348-15.9927,27.0084-21.1428,4.0687-1.3809,17.2526-5.8557,22.1038,0,2.6795,3.2344,2.3476,9.0543,0,13.0213-4.1664,7.0403-12.2233,4.091-22.1038,10.7626-3.5275,2.3819-7.4337,8.2456-15.102,19.8757-10.5935,16.0666-13.1004,21.9585-16.4113,21.4468-3.8746-.5988-5.7418-9.4865-6.1276-14.5532Z"/>
      <path class="cls-6" d="M184.9034,325.7405c2.9245-12.1921-3.0184-15.228,0-24.3382,3.4628-10.4514,14.0556-14.8201,15.3192-15.3191,2.2491-.8882,11.8288-4.6715,16.8511,0,4.8094,4.4736,2.5023,13.9685,0,19.1221-3.2307,6.6536-6.7136,5.9207-11.4894,12.2821-8.9922,11.9778-3.7833,24.0852-10.248,26.8085-4.295,1.8093-11.0119-1.674-12.871-6.1277-1.5024-3.5991.9095-6.0547,2.4382-12.4278Z"/>
      <path class="cls-6" d="M294.2506,210.9096c.5071-2.6558,2.6385-13.8189,13.0213-21.4468,8.8305-6.4876,18.0064-6.2868,25.2766-6.1277,5.8896.1289,16.9564.3711,19.1489,6.1277,1.2955,3.4013-.7275,8.149-3.8298,10.8498-5.5455,4.8278-11.2086.2146-24.7242,3.7034-5.9956,1.5476-10.6205,2.7414-13.5736,6.8936-2.5591,3.5982-1.9625,6.7462-5.617,10.2128-1.8962,1.7987-5.7713,4.4746-8.1702,3.2704-3.7472-1.8811-1.7825-12.171-1.5319-13.4832Z"/>
      <path class="cls-7" d="M348.8183,142.5939c10.3305-.5036,10.3654.7882,13.7872,0,5.7898-1.3337,5.8946-5.0792,14.0425-7.4043,4.8679-1.3891,6.1857-.4389,6.6383,0,1.5447,1.4977.9892,4.774,0,6.8936-1.8404,3.9436-4.9342,3.3523-9.7021,8.1702-3.3689,3.4042-2.9864,4.8737-5.617,6.1277-3.056,1.4567-6.1777.7155-9.1915,0-5.4792-1.3009-8.8587-4.1798-11.7447-6.6383-2.3603-2.0107-4.8787-4.1561-4.3405-5.617.3954-1.0731,2.2805-1.3444,6.1277-1.5319Z"/>
      <path class="cls-6" d="M401.1587,122.679c4.3021-5.184,11.1534-5.6581,17.9371-6.1277,15.3303-1.061,26.1804,4.5505,29.0416,6.1277,4.5654,2.5166,9.9514,5.586,12.2553,11.7837.5175,1.392,2.3752,6.3893,0,9.6631-3.653,5.035-14.5539,2.1822-16.3404,1.7147-8.4839-2.2203-7.7331-5.8418-16.8511-8.8636-9.8149-3.2528-18.8935-2.5141-18.8936-2.5141-5.3477.4351-8.1228,1.6851-9.7021,0-2.1217-2.2639-.4872-8.1201,2.5532-11.7837Z"/>
      <path class="cls-6" d="M408.1783,194.5558c7.832-5.2358,15.336-7.0129,18.5774-7.6596,8.2846-1.6529,13.6043-2.7142,19.5633,0,.9388.4276,8.494,4.0105,11.075,12.1264.7372,2.3181,2.1509,6.7635,0,9.3204-1.874,2.2278-5.2137,1.5475-18.6927,0-13.4915-1.5489-14.8859-1.4116-16.5413-1.0213-7.5392,1.7775-9.3197,6.1668-13.9817,5.1064-4.1596-.9461-7.8727-5.6073-7.4651-9.7295.3271-3.3079,3.2119-5.2995,7.4651-8.1428Z"/>
      <path class="cls-7" d="M249.3528,261.603c-2.7872.3-1.7145,7.6684-6.8719,13.7568-5.521,6.5175-12.7935,5.2079-13.152,8.4353-.4453,4.0094,10.221,11.0474,20.0239,8.9073.4351-.095,9.4792-2.1979,11.3803-8.9073,1.1355-4.0076-1.2074-7.9542-5.8933-15.8474-2.52-4.2448-3.9023-6.5153-5.487-6.3447Z"/>
      <path class="cls-6" d="M325.5132,283.5965c.0524-7.6498,9.8504-14.455,17.9539-16.8511,7.6153-2.2517,13.8646-.6481,16.2588,0,3.7545,1.0163,10.0777,2.728,11.9852,7.8235.8734,2.3331.9788,5.797-.812,7.2403-1.7857,1.4392-4.3344-.0355-9.5319-1.1915-4.7191-1.0496-9.8101-2.1818-14.9787-.8511-3.1825.8194-8.5113,3.1177-13.1064,7.3191-1.887,1.7253-3.2658,3.4201-4.766,3.0638-1.887-.4482-3.0209-3.9174-3.0028-6.5532Z"/>
      <path class="cls-6" d="M432.8183,331.5301c.3437-2.3035,9.2338.6646,17.3617-5.4471,4.3443-3.2666,5.6476-7.0043,11.3931-8.8508,1.5908-.5113,4.7248-1.5185,6.6108,0,2.4968,2.0103,1.541,7.4286,0,10.7234-4.1359,8.843-16.1127,10.1425-16.8595,10.2128-9.597.903-18.8625-4.2498-18.5062-6.6383Z"/>
      <path class="cls-6" d="M554.8211,169.6577c-4.7614-11.2919-16.2876-15.1689-19.438-16.0851-7.5778-2.2038-21.0096-3.0742-24.4028,3.6456-1.92,3.8022-.1885,9.1679,2.5189,12.4395,4.1339,4.9954,9.2103,3.4986,19.0491,6.8416,14.208,4.8276,18.4963,13.0029,22.2729,10.7754,3.6557-2.1562,2.5618-11.5415,0-17.617Z"/>
      <path class="cls-6" d="M292.9553,383.1824c-10.5317-4.3937-21.9859,2.5311-27.6264,8.603-3.6964,3.9791-8.3743,11.3362-6.0631,14.5532,2.057,2.8633,8.7964,1.258,14.078,0,8.2088-1.9553,14.266-5.6522,19.6115-8.9713,3.957-2.457,7.0627-4.7397,9.1396-6.3479-1.3873-2.1049-4.2739-5.8072-9.1396-7.8371Z"/>
      <path class="cls-1" d="M541.3852,465.8429c-7.7419,5.0885-8.1099,11.0136-12.7262,16.8714-10.4424,13.2506-28.0633,7.682-31.1147,17.3617-1.5178,4.8149,1.3854,10.814,5.2784,13.2766,7.9272,5.0146,21.5596-6.4974,30.9427-14.2979,11.9999-9.976,15.3219-17.742,16.6808-22.1277.4229-1.3648,3.4983-11.2897,0-13.617-2.588-1.7217-7.5416,1.5342-9.061,2.5328Z"/>
      <path class="cls-1" d="M570.3629,472.17c2.014-4.5533,8.0991-2.3748,12.9362-6.8085,4.2053-3.8546,1.766-7.481,7.4894-14.6383,1.1505-1.4387,4.4322-5.5426,6.4681-4.766,1.8769.716,1.7366,5.2146,1.7021,6.32-.1812,5.8081-3.1804,10.076-5.1064,12.7438-1.7641,2.4435-4.8773,6.6542-10.5532,9.5319-3.8461,1.95-10.9625,4.3495-12.9362,1.8374-1.1705-1.4898-.054-4.0982,0-4.2204Z"/>
      <path class="cls-1" d="M513.8395,554.3386c.3445,6.3896-8.7361,11.4908-11.9149,13.2766-4.4363,2.4922-12.128,6.8131-19.0638,3.7447-4.3205-1.9114-7.7282-6.416-6.8085-8.3707.3842-.8166,1.4703-1.0749,8.851-1.5017,9.0554-.5236,8.8888-.2196,9.9567-.6808,4.5504-1.9652,3.812-5.8588,10.1284-9.8723,3.8933-2.4739,5.5676-1.8802,5.9917-1.7021,1.8781.7884,2.7619,3.2991,2.8593,5.1064Z"/>
      <path class="cls-1" d="M425.6693,555.3598c-.4004.9611-2.0851,4.5879-10.8936,8.1702-6.6559,2.7069-12.5703,5.1122-18.7234,2.7234-3.5537-1.3797-8.4233-4.8384-7.8298-8.1702.445-2.498,3.8819-4.481,6.8085-4.4255,2.6702.0507,2.9598,1.7611,6.1277,2.7234,4.2605,1.2942,9.5703-.0278,12.9362-2.725,2.434-1.9504,2.3611-3.4256,5.001-4.6159,1.6981-.7657,4.9914-1.6267,6.5735,0,1.7985,1.8492.2424,5.7378,0,6.3196Z"/>
      <path class="cls-1" d="M375.2864,600.6364c-5.7117,4.8523-15.7167,1.3928-19.7447,0-4.1706-1.4421-11.7937-4.078-11.9699-8.5107-.1034-2.6017,2.3702-5.5339,4.821-5.7872,2.0804-.215,2.9009,1.6288,6.8085,4.0851,2.9568,1.8587,5.9987,3.7707,9.5319,3.7252,4.9669-.0641,6.825-3.944,10.5532-2.7039.2228.0741,2.4638.8539,3.0638,2.7348.7652,2.3986-1.5816,5.1976-3.0638,6.4567Z"/>
      <path class="cls-1" d="M318.4353,567.2318c-2.9127,4.9364-14.5232,3.1432-21.4468,0-2.7774-1.2609-6.648-3.0832-7.1489-6.5016-.3648-2.4898,1.1028-5.5202,3.1158-6.0511,1.5891-.4191,2.4573.9993,6.0757,2.9947,3.2055,1.7677,6.8059,3.7532,10.4067,3.0564,3.6179-.7001,4.4302-3.565,6.3667-3.0564,2.5056.6581,4.5284,6.3422,2.6308,9.5581Z"/>
      <path class="cls-1" d="M572.3927,507.3598c2.0873,2.2609-.5765,7.6065-2.7234,11.9149-2.208,4.4309-4.121,8.2699-8.5107,10.8936-.8327.4977-7.6144,4.5511-11.5745,1.5657-2.1053-1.5872-3.186-4.9926-2.0426-6.6721,1.1306-1.6606,3.5537-.3387,7.2794-1.8398,3.9449-1.5894,6.0791-5.0256,6.678-5.99,2.9315-4.72,1.2598-7.879,4.0361-9.8723,2.0583-1.4779,5.4542-1.52,6.8575,0Z"/>
      <path class="cls-1" d="M621.4991,289.022c5.0955,1.4573,4.6562,16.0033,4.5957,17.617-.225,6.0108-.4317,11.5344-4.5957,15.3192-4.2021,3.8194-11.4547,4.9776-13.5293,2.4029-1.1435-1.4192-.6668-3.9141,0-5.3816,1.072-2.3594,2.7869-2.3964,5.6144-5.1064,1.6341-1.5661,3.7588-3.6026,4.4255-6.5122.3485-1.521-.2037-4.027-1.3224-8.9771-.9604-4.2498-1.3858-5.32-.7201-6.6383.9352-1.8521,3.565-3.2859,5.5319-2.7234Z"/>
      <g>
        <path class="cls-4" d="M264.4173,200.1581c-10.6734-3.7431-5.0256-30.9707-9.1299-40.069-3.7298-8.2682-5.2336-15.2461-6.2753-20.214-2.8813-13.7418-.866-16.6136-3.1238-29.8392-1.0652-6.2399-3.2876-12.9887-7.7323-26.4861-5.3741-16.3199-15.708-19.263-19.2954-26.1319-7.3603-14.0928-11.2505-18.8245-15.5749-31.1499-.737-2.1006.6191-20.3968,5.4-23.5722,3.7797-2.5104,12.6348,4.4107,17.4426,9.3404,6.6033,6.7706,13.7986,10.7004,21.1566,23.9661,7.2992,13.1596,1.4899,11.7923,11.2379,28.2533,9.2292,15.585,7.8895,16.7173,13.1744,22.6871,8.1859,9.2466,11.7923,6.9734,23.4138,17.5441,7.2351,6.5809,11.6269,12.7281,18.1838,21.9059,8.0279,11.2367,29.8606,15.2318,30.2952,19.8618"/>
        <path class="cls-5" d="M263.0911,203.9398c-10.1921-4.1428-9.0521-18.6403-9.4373-27.4662-.1284-6.5253.2401-12.4157-2.5906-18.0591-3.9241-10.5409-6.3627-21.7277-6.6841-32.9351-.0822-4.3566-.2312-8.4708-.8344-12.7432-1.3097-9.5857-4.7368-18.6885-7.5651-27.9297-2.113-7-6.1441-13.1021-11.6395-17.9432-2.1644-2.0225-4.7759-4.2334-6.5823-6.8365-.4879-.7514-.9505-1.5722-1.355-2.3599-2.2397-4.3354-4.6153-8.5687-7.0233-12.8686-3.1848-5.6006-6.0573-11.6209-8.1649-17.7783-.2977-.9221-.2977-1.9402-.3152-2.7363.0171-3.986.4863-7.8981,1.232-11.8115,1.835-9.1534,5.0947-16.39,15.4296-10.1121,3.9386,2.3435,7.4064,5.3556,10.5687,8.5652,2.9559,2.9727,6.381,5.6885,9.6017,8.8345,4.878,4.6918,8.9214,10.2428,12.1123,16.2046,1.0847,1.9678,2.0642,4.0556,2.8561,6.268,1.522,4.2917,1.6468,8.3946,3.5217,12.416,1.1446,2.7326,2.8636,5.7815,4.3997,8.3852,2.8011,4.6914,5.5784,9.5986,7.9934,14.4732,1.8385,3.9164,4.0763,6.8778,7.145,9.7914,3.0366,3.0405,6.4476,4.7593,10.2638,6.8984,7.8996,4.5579,14.5931,10.8584,20.3963,17.7935,3.594,4.2457,6.706,8.6515,10.0197,12.9962,4.6483,5.4322,11.2854,8.1611,17.858,11.0914,3.608,1.6214,7.613,2.9174,10.8644,5.5281.8769.7772,1.681,1.7493,2.1033,2.9176,2.1315,5.8555-6.6259,8.2905-7.6651,2.1059.0118.2998.118.6236.2679.8663.0937.1108.0433.0781.0774.1103.0197.0186.0517.0298.0062-.0059-2.4791-2.0638-5.7157-3.1951-8.7169-4.7355-3.9781-1.8793-8.0689-3.8627-11.9733-6.454-3.224-2.1421-6.3941-4.8107-8.6765-8.0689-2.9129-4.2074-5.8451-8.5073-8.9495-12.4507-5.2275-6.5115-11.3352-12.5102-18.4798-16.8208-3.7573-2.1553-8.0976-4.6508-11.1747-7.9205-3.2495-3.1389-6.2126-7.2955-7.9692-11.3633-2.3031-4.8696-4.8469-9.6406-7.5695-14.2782-2.8113-4.8674-5.5863-10.0975-6.6564-15.69-.9341-6.4362-3.7074-11.8019-7.1534-17.1802-4.6396-7.4422-11.2735-12.4936-17.6202-18.6092-2.9356-3.0102-6.108-5.7736-9.6573-7.9148-1.4545-.8812-3.3498-1.7858-4.8759-1.7784-3.8867.9145-5.5408,17.387-5.1029,21.1987,1.9692,5.8005,4.7663,11.5928,7.9065,17.0875,2.7957,4.8385,5.4769,9.9118,8.2682,14.7984,1.6711,2.2883,3.7562,3.9525,5.9675,5.9941,6.0731,5.2269,10.7226,12.187,13.1349,19.8531,3.085,9.404,6.7945,18.8216,8.3103,28.6717,1.4352,8.5913.696,17.3681,2.6793,25.8462.8743,4.2002,1.8353,8.3491,3.1741,12.3218,1.2074,4.2661,3.7719,8.3051,4.6996,12.5937,1.6371,8.62.7677,17.7143,2.2701,26.1119.537,2.647,1.1139,5.0786,2.7528,6.837.4383.3943.8336.6047,1.3119.7655,4.9301,1.9147,2.344,9.2415-2.76,7.5244h0Z"/>
      </g>
      <g>
        <path class="cls-4" d="M184.3421,452.5581c-5.7289,8.2195-27.6227-3.0658-36.3615-1.724-7.9415,1.2195-14.2533.8457-18.74.5549-12.411-.8044-14.3831-3.2061-26.2055-4.4201-5.5779-.5727-11.8648-.2789-24.4385.3089-15.203.7107-20.1684,8.8303-26.882,10.2605-13.7741,2.9344-18.7358,5.1306-30.2807,5.894-1.9676.1301-17.2589-5.3719-18.8333-10.2058-1.2447-3.8216,6.7643-9.7347,12.1128-12.6669,7.3458-4.0272,12.4081-9.2342,25.4758-12.3631,12.9632-3.1039,10.4169,1.5289,26.779-2.8807,15.4913-4.1749,16.1394-2.7628,22.4889-5.8551,9.8346-4.7898,8.7511-8.4072,20.5315-15.8143,7.334-4.6114,13.6227-6.8994,23.0118-10.3155,11.4954-4.1824,20.0892-21.8649,24.1435-21.1363"/>
        <path class="cls-5" d="M187.6297,454.8495c-6.2186,7.9924-18.2684,3.5604-26.174,1.7483-5.6049-1.4302-10.4163-3.1128-15.8484-2.0441-9.9911.8667-20.1797.2908-29.8776-2.1015-3.8057-.9836-7.3025-1.8088-11.0158-2.2941-8.4623-1.147-17.0019-.3763-25.5352-.1524-4.4985.1663-8.901,1.0532-12.9843,2.9704-3.9863,1.7875-7.3172,4.6467-11.5074,6.4058-1.4157.6135-3.1072.8964-4.6121,1.2324-3.7402.8125-7.4449,1.7329-11.2297,2.644-5.7975,1.3858-11.9942,2.6282-18.0299,2.714-2.2947-.3415-4.0723-1.0907-6.1711-1.8443-3.8505-1.5324-7.4752-3.1655-10.8782-5.7115-5.6695-4.1594-4.3967-8.9134.2355-13.2784,2.9747-2.8517,6.4112-5.1283,9.9356-7.0903,3.1945-1.7964,6.3222-4.0781,9.8036-6.1045,5.1997-3.0856,10.9776-5.2609,16.8865-6.5605,3.7523-.9817,8.5012-1.2195,12.2457-.7967,3.6388.2636,7.1089-.377,10.6736-1.2116,0,0,5.5589-1.4546,5.5589-1.4546,3.7704-.9917,7.6569-1.8931,11.4614-2.624,3.7677-.6396,6.6866-1.7937,9.8805-3.6983,3.2956-1.8596,5.4829-4.2863,8.2231-7.0322,5.8217-5.7039,12.8393-9.9444,20.1955-13.2695,4.4975-2.0607,8.9874-3.6598,13.4877-5.4506,5.662-2.6462,9.4924-7.5782,13.5312-12.4438,2.2657-2.7163,4.3623-5.8661,7.416-8.0397.9351-.604,2.0284-1.0835,3.2068-1.1718,2.6642-.3172,5.1144,1.9928,4.5802,4.7139-.3914,2.1781-2.4746,3.6264-4.6529,3.2352.3246.0711.6942.0579.9999-.0293.1476-.062.1167-.0303.1719-.0591.0381-.019.0726-.0522.0395-.0264-.0157.0103-.0332.0166-.0534.02-.029.0142-.0844.0591-.1269.085-5.0996,4.4927-8.7397,10.3398-14.1715,14.8582-2.6264,2.279-5.7209,4.3983-9.1009,5.5954-4.2706,1.4895-8.6376,2.9781-12.7127,4.6861-6.7384,2.8947-13.2565,6.6582-18.5752,11.686-2.7249,2.6991-5.9756,5.8851-9.5138,7.7436-6.9552,4.3186-15.2947,4.4-22.9271,6.5333,0,0-5.6597,1.4438-5.6597,1.4438-3.9421.9157-8.1765,1.6124-12.2705,1.2788-2.0653-.1557-3.7093-.311-5.4491-.1884-3.5327.229-7.2432,1.1804-10.6736,2.2192-7.4381,2.1888-13.1972,6.5719-19.9598,10.5407-3.2326,1.765-6.3005,3.7824-8.9309,6.2562-1.0269.936-2.1781,2.3021-2.5113,3.4268.6377,3.1852,12.9302,8.0712,16.3613,8.647,5.5179-.3658,10.8238-1.3154,16.2409-2.6964,4.7569-1.2377,9.7243-2.3115,14.5395-3.5101,4.0513-1.6337,7.5962-4.7229,11.7404-6.5703,5.5406-2.726,11.8181-3.5491,17.9244-3.7309,7.809-.3704,15.8182-1.0668,23.6422-.0988,7.6702.8164,14.9698,3.5379,22.6657,3.8667,3.7794.254,7.5287.4195,11.2081.2261,3.9333-.0136,8.0428-1.2494,11.9204-1.0036,7.7565.6552,15.3336,3.5727,22.8352,4.2955,2.32.1678,4.42.2586,6.2154-.6576.4002-.2575.6065-.4979.8323-.8224,3.1701-4.1988,9.504.2865,6.4939,4.6953h0Z"/>
      </g>
      <g>
        <path class="cls-1" d="M617.8867,524.1558c10.224,1.5072,9.8786,26.9119,15.1381,34.3622,4.7796,6.7705,7.3386,12.7695,9.1345,17.0455,4.9676,11.828,3.6577,14.7537,7.9764,26.2267,2.0376,5.4131,5.2014,11.0819,11.5291,22.4196,7.6509,13.7084,17.4315,14.5568,21.8408,20.0968,9.0464,11.3662,13.3568,14.9363,19.3733,25.2434,1.0254,1.7567,2.9814,18.405-.7569,22.0826-2.9554,2.9074-12.0993-1.766-17.2671-5.3546-7.0977-4.9288-14.2339-7.2066-23.1349-17.8312-8.8298-10.5396-3.3813-10.3204-14.9803-23.397-10.9817-12.3808-9.9762-13.6288-15.7525-18.0679-8.9467-6.8756-11.7879-4.2109-24.0462-11.6787-7.6316-4.6491-12.6373-9.4022-20.1108-16.4985-9.1501-8.6883-29.4287-8.4865-30.6213-12.5647"/>
        <path class="cls-5" d="M618.4711,520.1913c11.6335,2.1441,12.6115,19.8469,15.1865,28.9159.6546,2.5072,1.2726,5.0817,2.5271,7.0934.5285.7778,1.1688,1.7036,1.723,2.565,5.5444,8.8158,9.7773,18.5299,12.1236,28.6254.8772,3.9752,1.7398,7.5123,3.0173,11.1221,2.8914,8.2717,7.5619,15.7079,11.7362,23.419,3.0319,5.6781,7.4622,10.1753,13.0478,13.4266,2.2819,1.4126,5.2615,3.0996,7.408,5.1994.6134.6316,1.231,1.3479,1.7664,2.0259,5.2794,6.7349,11.2404,12.8511,16.0465,20.0927,1.0851,1.616,2.0924,3.2758,3.0805,4.9478,1.2564,2.5811,1.2796,5.0785,1.6455,7.7632,1.5767,16.687-2.0688,26.9476-20.1352,17.037-1.7928-.9495-3.701-2.1925-5.3877-3.3382-3.0497-2.0821-6.5909-3.9283-10.1186-6.2539-7.1439-4.7238-13.295-10.8468-17.8272-18.184-1.1642-1.9464-2.0388-4.1915-2.7211-5.8448-1.3913-3.3998-3.4952-6.1928-5.8497-9.0498-3.8456-4.3978-8.099-9.2805-11.5423-13.9351-2.2959-3.1859-4.5144-5.209-7.6835-7.2933-3.187-2.1899-6.2793-3.058-10.0653-4.3594-8.0065-2.8416-15.1685-7.4568-21.637-12.8154-3.9481-3.2658-7.4431-6.7059-11.1252-10.0894-4.9556-4.0494-11.2087-5.3775-17.51-6.943-3.5286-.9014-7.3842-1.458-10.7675-3.3074-.9654-.5859-1.8943-1.3682-2.5017-2.4015-1.4628-2.2501-.5078-5.477,2.1766-6.2153,2.1241-.6216,4.3497.5971,4.9709,2.7212-.1-.3731-.3086-.7526-.5696-.9961,2.3616,1.1729,5.6298,1.7031,8.5278,2.4606,3.9138.9432,7.9672,1.9657,12.0023,3.5873,3.3527,1.347,6.7947,3.2194,9.5075,5.7871,3.3723,3.2101,6.8012,6.5174,10.2703,9.4321,5.7576,4.7926,12.213,8.9916,19.2402,11.4961,3.7598,1.2361,8.352,2.8086,11.7365,5.2169,2.7143,1.8222,5.467,3.986,7.5858,6.5722,3.1346,3.9581,5.9941,7.8622,9.3041,11.6118.9923,1.1234,2.981,3.4239,3.9578,4.566,2.7154,3.2669,5.3914,6.9742,7.0056,10.9863.8315,2.0278,1.408,3.5107,2.2861,4.9941,1.7771,3.0404,4.3501,6.0027,6.8197,8.6064,5.4526,5.8246,11.942,8.9466,18.7767,13.3963,1.4744.9997,3.183,2.1288,4.759,2.9664,2.6267,1.3648,5.6937,3.0122,8.5144,2.9456.036-.0144-.1088.0247-.2682.1707-.1059.0791-.0291.0649.0563-.1406.8478-2.0276.9438-4.6303.9737-7.066-.0314-3.4279-.2571-7.2042-1.0699-10.5244-2.0729-3.5959-6.169-9.4026-9.7392-13.4408-3.2807-3.7875-6.5617-7.8732-9.8384-11.7556-3.3071-2.9106-7.7851-4.7967-11.3632-7.7622-4.3097-3.3677-7.8128-7.7888-10.4424-12.5561-4.3602-7.9895-9.3033-15.9355-12.3199-24.6054-2.7263-7.4782-3.5015-15.4612-6.6723-22.7402-1.4669-3.607-3.0142-7.1314-4.8286-10.4385-1.7795-3.6469-4.7914-6.9421-6.3048-10.6464-2.8968-7.5183-3.5916-15.8553-6.2784-23.1666-.8716-2.2403-1.7175-4.2265-3.3552-5.523-.4604-.3139-.8267-.3886-1.3003-.4863-4.9919-1.1709-3.7178-8.517,1.4426-7.8716h0Z"/>
      </g>
      <g>
        <path class="cls-7" d="M264.7713,554.2335c.0934,7.5302-18.2262,10.2084-22.9811,14.8511-4.3211,4.2191-8.3428,6.7515-11.2127,8.5363-7.9385,4.937-10.1945,4.3315-17.9523,8.7607-3.6602,2.0897-7.3747,5.0193-14.8036,10.8785-8.9824,7.0844-8.4661,14.2197-11.9443,18.0306-7.1363,7.8187-9.2086,11.3315-15.9319,16.848-1.1459.9402-12.8997,4.2655-15.9765,1.9993-2.4325-1.7916-.1232-8.9094,1.8637-13.0413,2.7288-5.6749,3.5457-11.0721,10.1651-18.7007,6.5665-7.5676,7.0364-3.6219,15.1094-13.4744,7.6434-9.3281,8.6572-8.7484,11.1859-13.416,3.9166-7.2296,1.672-8.967,5.6331-18.6477,2.4661-6.0268,5.3094-10.1762,9.5545-16.3713,5.1975-7.5848,2.7161-22.1528,5.5132-23.4808"/>
        <path class="cls-5" d="M268.7783,554.1839c-.6411,10.6854-16.4939,11.9406-23.6882,16.0104-1.2558.6571-1.9427,1.4632-3.0005,2.3367-3.4357,2.9214-7.3316,5.4229-11.1989,7.6089-2.5856,1.4951-5.4154,2.7998-8.1939,3.8228-5.4995,1.894-10.361,4.355-14.9905,7.772-3.9486,2.9685-8.2147,5.8022-11.8309,9.2035-2.4586,2.4749-4.2368,5.4348-5.5762,8.6686-.8845,1.9998-1.682,4.3049-3.1707,6.0869-5.3778,5.7335-10.0868,12.1309-16.2744,17.086-.3314.2999-.7685.5383-1.1863.7075-3.7085,1.3852-15.289,4.7041-17.3316.1394-.6784-1.8044-.4195-3.383-.185-4.8894.563-2.9985,1.631-5.8062,2.8909-8.4741,2.2681-5.2684,4.1759-11.1116,7.7972-15.7646,1.8078-2.4185,3.6721-4.7129,6.0048-6.6891,1.1722-1.0039,2.5404-1.8257,3.7095-2.562,2.3771-1.4846,4.2688-3.4757,6.0929-5.6011,0,0,2.7375-3.3555,2.7375-3.3555,3.3736-4.5123,8.1118-8.0899,10.1852-13.4179,1.1748-2.6104,1.4531-5.119,1.8653-8.0084.9484-6.0288,3.2771-11.7295,6.2148-17.0259,1.7793-3.2663,3.7675-6.2482,5.6624-9.3559,2.1659-4.1061,2.1675-8.7088,2.3725-13.4224.1334-2.8883-.1429-6.1213,1.0602-8.9883,1.3833-3.3693,6.0199-4.4119,7.8694-.785.9492,1.9994.0979,4.3896-1.9013,5.3388.4654-.2207.9685-.6534,1.1247-1.0767-.7041,1.6566-.7506,3.9857-1.0824,6.0372-.6674,5.4995-1.5034,11.7574-4.8892,16.5249-3.7187,4.9998-7.4034,9.9328-9.8633,15.6455-1.87,3.972-2.6348,7.8788-3.5119,12.1841-.7713,3.0714-2.1516,5.838-3.9205,8.4624-2.7385,3.6254-6.1097,6.2979-8.9401,9.7765-2.7779,3.2772-5.8316,7.0177-9.694,9.2811-3.8537,2.043-6.5981,4.968-9.2623,8.4-3.6186,4.5884-5.32,9.97-7.6976,15.3076-1.5504,3.5173-3.6533,7.91-2.783,11.644,1.5475,2.679,12.2485-.2377,14.8311-1.3826.2675-.0981.6398-.4695.8699-.653,5.5786-4.5907,9.8663-10.4692,14.6742-15.8472,2.6365-2.9123,3.2023-7.0309,5.2088-10.4193,2.0766-4.0038,5.649-7.3742,9.0771-10.0146,4.5837-3.6954,9.0289-7.6111,14.238-10.5172,5.0795-2.924,10.6013-4.542,15.4101-7.8086,4.1972-2.647,8.0438-5.5888,11.4266-9.1655,3.034-2.8309,7.1048-4.2008,10.4404-5.7905,2.6322-1.1786,5.2203-2.3354,7.3782-3.6869,1.3484-.905,2.5224-1.7025,3.0311-2.8994-1.2008-6.6247,8.4843-7.2018,8.0001-.4434h0Z"/>
      </g>
      <path class="cls-6" d="M510.6212,245.9065c-9.4797-5.0924-21.2224.5175-27.4154,6.3447-6.972,6.5602-11.3701,17.5924-8.1457,20.9506,2.3995,2.499,7.1257-1.2246,23.3303-5.1031,14.6252-3.5005,19.8094-2.6297,21.4468-6.4488,2.013-4.6951-3.066-12.4396-9.216-15.7434Z"/>
      <path class="cls-3" d="M676.1374,403.5301c-6.81,3.13-22.1529,5.8187-30.383,10.9787-10.05,6.31-13.5936,18.1302-19.2536,22.9602,2.17-3,3.85-6.26,5.31-11.28,4.13-14.21-1.28-16.14,3.15-32.87.97-3.6801,2.04-6.64,3.16-9.17,5.12-.56,10.92-.75,17.68-.97,7.26-.23,16.15,0,24.32.8,12.71,1.24,23.71,3.85,24.19,8.15.54,4.7599-8.3834,2.301-28.1734,11.4011Z"/>
      <g>
        <path class="cls-7" d="M638.3588,345.5676c9.3755-4.9137,26.2883,14.7899,35.6292,17.3853,8.4887,2.3586,14.6403,5.4435,19.0021,7.6592,12.0653,6.1287,12.9751,9.1519,24.2699,15.3934,5.329,2.9448,11.7515,5.4172,24.5965,10.362,15.531,5.9788,24.0982.8227,31.4513,2.4567,15.0862,3.3525,21.0251,3.5334,32.9183,7.8719,2.027.7394,14.8938,12.3559,14.3279,17.3981-.4474,3.9863-11.0832,5.8285-17.7354,6.1425-9.1365.4313-16.5101,2.9201-30.9754.0505-14.3496-2.8467-9.7486-5.9134-28.0785-9.0631-17.3545-2.9821-17.3775-4.537-25.1025-4.5144-11.9652.035-12.4835,3.767-27.5559,5.3138-9.3835.9629-16.6914.287-27.6021-.7221-13.3584-1.2355-29.794,10.9596-33.5289,8.5376"/>
        <path class="cls-5" d="M636.4986,342.0184c9.3558-4.3037,19.2952,4.9455,26.2088,9.9294,4.0867,3.0292,7.7069,6.3045,12.1118,7.9887,11.3213,3.5162,22.1804,8.8796,31.6755,15.9235,10.5379,8.7276,23.0885,13.4033,35.6534,18.3198,4.6606,1.8595,9.5501,3.0175,14.5764,3.1139,4.1951.103,8.1662-.6161,12.4729-.7627,2.1463-.1072,4.6632.374,6.6744.8732,4.0702.9115,8.1605,1.7089,12.2929,2.5131,6.3857,1.217,12.9017,2.8227,19.0109,5.1919,1.9126,1.0571,3.4493,2.5607,5.0525,3.9853,3.1885,3.0258,6.1707,6.0956,8.5132,9.9151,5.9015,9.1709-5.734,11.5477-12.4786,12.5445-2.0729.3087-4.3449.4643-6.3977.5796-4.0628.2681-8.2257.9463-12.5216,1.23-8.64.5202-17.3791-.4655-25.6111-3.243-2.109-.7487-4.1132-1.84-5.892-2.7326-3.6055-1.8268-7.4862-2.7663-11.4584-3.5517,0,0-6.167-1.0791-6.167-1.0791-4.1576-.7256-8.3556-1.5762-12.4473-2.5522-4.0409-1.0624-7.689-1.3413-11.7804-1.0131-4.1474.2146-7.6436,1.4606-11.6372,2.8056-8.3101,2.6669-17.0652,3.4595-25.7271,3.3325-4.3054-.0582-8.5484-.3443-12.7427-.6407-1.8936-.1476-3.8838-.3302-5.7718-.1387-5.8877.593-11.2738,2.9346-16.8314,5.3774-3.9106,1.6092-7.9027,4.1343-12.3981,4.1853-3.3728.0254-6.2894-3.1664-4.2657-6.4549,1.204-1.8568,3.6855-2.3857,5.5424-1.1815-.7648-.4229-.91-.2769-.8138-.291,3.0887-.3907,6.0252-1.9217,9.0921-3.0165,3.942-1.5573,8.0291-3.1251,12.4179-4.1559,3.8239-.927,8.071-1.3577,12.0406-.7856,4.649.5198,9.338,1.0558,13.9194,1.3012,8.0656.3582,16.3018-.1361,24.0564-2.3793,3.9764-1.2388,8.5291-2.6418,12.8229-2.7299,8.709-.7565,16.8733,2.7717,25.2944,4.1458,0,0,6.2143,1.169,6.2143,1.169,4.2321.8837,8.569,2.0256,12.4433,4.0576,3.751,2.0877,7.1037,3.4641,11.2443,4.3119,5.9641,1.3705,12.1017,1.9481,18.2154,1.543,4.0794-.2475,8.2165-.9057,12.5279-1.1772,5.0159-.2735,10.1234-.7526,14.7556-2.6767,1.041-.4949,2.0147-.9884,2.3698-1.8374.0294-.106.034-.4078-.0607-.7554-.7879-2.6158-2.804-4.9326-4.6519-7.0762-2.5551-2.7732-5.3449-5.6319-8.4679-7.7085-9.8204-3.7177-20.2505-5.0765-30.5165-7.2323-6.0905-1.7229-12.1344.386-18.389.2049-6.557.0257-12.9762-1.889-19.0126-4.3053-7.9266-3.0393-16.011-5.7535-23.4597-10.0193-3.7404-2.0928-7.3785-4.6065-10.7395-7.0264-6.6367-4.7488-14.0952-8.387-21.6293-11.336-3.9203-1.6604-8.4261-2.297-12.2177-4.1145-7.7403-4.0591-13.7884-9.7997-21.1455-13.7404-2.7165-1.2803-5.6051-2.9106-8.2768-1.7136-4.7691,2.426-8.4912-4.5233-3.6905-7.1145h0Z"/>
      </g>
      <path class="cls-6" d="M261.0163,341.9981c3.6804-8.3004,12.683-11.4132,17.3339-13.0213,5.4348-1.8792,15.7477-5.445,23.7447,0,4.7741,3.2506,8.7028,9.699,6.8936,13.0213-1.671,3.0685-6.674.6006-19.1489,2.786-7.6602,1.3419-13.8368,2.4239-20.6809,6.4055-4.298,2.5004-6.4286,4.7303-8.1424,3.8298-2.4559-1.2905-2.2089-8.0397,0-13.0213Z"/>
    </g>
  </g>
</svg>