<?xml version="1.0" encoding="UTF-8"?>
<svg id="Capa_2" xmlns="http://www.w3.org/2000/svg" viewBox="0 0 737.0546 757.5544">
  <defs>
    <style>
      .cls-1, .cls-2, .cls-3 {
        fill: #70569b;
      }

      .cls-4, .cls-2, .cls-5, .cls-6, .cls-7, .cls-3 {
        stroke: #b29ad8;
        stroke-linecap: round;
        stroke-miterlimit: 10;
      }

      .cls-4, .cls-2, .cls-5, .cls-7 {
        stroke-width: 8.0146px;
      }

      .cls-4, .cls-8 {
        fill: #a486ce;
      }

      .cls-5, .cls-6, .cls-9 {
        fill: #8566b2;
      }

      .cls-6 {
        stroke-width: 7px;
      }

      .cls-10, .cls-7 {
        fill: #9570c2;
      }

      .cls-11 {
        fill: #b29ad8;
      }

      .cls-3 {
        stroke-width: 6px;
      }
    </style>
  </defs>
  <g id="Capa_1-2" data-name="Capa_1">
    <g>
      <path class="cls-6" d="M592.1459,318.7132c2.399.1843,8.7119-12.5465,14.8373-15.9353,5.0031-2.7677,8.3541-4.6216,12.0517-7.9999,5.9393-5.4264,4.9276-7.6182,10.0369-11.2758,3.2987-2.3614,3.8225-1.5209,12.2354-5.1729,8.8858-3.8572,7.9303-.7865,15.0124-3.5986.0061-.0024.0116-.005.0177-.0074,1.966,2.3152,4.5615,3.9627,7.4157,4.6048l16.6265,3.7401c9.9531,2.239,17.385-8.1372,13.0954-18.2835l-11.9203-28.195c-4.358-10.308-17.2524-12.0532-22.423-3.0348l-8.6596,15.1037c-1.3055,2.2772-1.8832,4.9487-1.7253,7.6536-.6872.2641-1.4153.5383-2.1993.8243-3.687,1.3454-5.6494,6.7609-14.2724,8.225-7.1317,1.2109-10.6976,1.8164-13.9516,1.8318-6.8968.0328-8.2855-1.3384-15.4748-1.0098-2.599.1187-6.2514.308-10.664,1.6037-4.8555,1.4259-18.6062-4.1704-20.9946,1.3587"/>
      <path class="cls-6" d="M108.5803,357.0772c-2.3948.233-8.9651-12.3668-15.1582-15.6304-5.0583-2.6655-8.4463-4.4508-12.2118-7.7533-6.0484-5.3046-5.0815-7.5165-10.264-11.0694-3.346-2.2939-3.8526-1.4429-12.338-4.9231-8.9623-3.6758-7.9446-.6252-15.0825-3.2927-.0062-.0023-.0117-.0047-.0179-.007-1.9185,2.3547-4.48,4.0546-7.3206,4.7546l-16.547,4.0773c-9.9055,2.4409-17.5468-7.7822-13.4643-18.0135l11.3447-28.4315c4.1476-10.3945,17.0038-12.4014,22.3567-3.49l8.9649,14.9246c1.3515,2.2502,1.9834,4.9094,1.8806,7.6169.6925.2501,1.426.5094,2.2156.7794,3.7136,1.2702,5.7856,6.6447,14.4366,7.9332,7.1549,1.0657,10.7323,1.5985,13.9859,1.5478,6.8961-.1074,8.2566-1.5065,15.4511-1.3242,2.6009.0659,6.2564.1809,10.6944,1.3866,4.8835,1.3269,18.5176-4.5478,21.0179.9317"/>
      <path class="cls-2" d="M283.0496,590.0336c-1.9706,2.5333,5.7029,19.3929,4.4265,28.838-1.0426,7.7144-1.7409,12.8814-1.2147,19.6108.8452,10.8092,3.7333,11.3714,3.4771,19.8905-.1654,5.5001-1.3743,5.436-4.1025,17.6352-2.8816,12.8849-5.156,9.4509-7.7078,19.5181-.0022.0087-.0038.0167-.006.0255-3.7207.4068-7.2616,2.0308-10.0175,4.7186l-16.0536,15.6578c-9.6102,9.3732-5.0633,25.6647,8.0119,28.7065l36.3344,8.4526c13.2837,3.0902,24.6096-9.9441,19.6955-22.6664l-8.2301-21.307c-1.2409-3.2124-3.409-5.9172-6.1587-7.8273.2561-.9702.5331-1.9936.8401-3.0886,1.4439-5.1496-2.3602-11.5151,2.6537-22.2611,4.1468-8.8876,6.2202-13.3313,8.6349-16.9722,5.1177-7.7169,7.4888-8.208,12.5371-16.4793,1.8251-2.9901,4.3681-7.2094,6.402-13.1299,2.238-6.5148,17.9505-17.5339,14.354-24.4621"/>
      <path class="cls-3" d="M175.2941,551.7583c-1.9661.4849-4.7528,11.8349-9.0757,16.0148-3.5309,3.414-5.8958,5.7007-8.2646,9.2398-3.805,5.6847-2.5941,7.0917-6.0498,11.2117-2.2311,2.6599-2.8049,2.1558-8.9232,7.1327-6.4622,5.2566-6.247,2.6669-11.4448,6.6567-.0045.0035-.0084.0068-.0129.0103-2.002-1.2523-4.3906-1.8315-6.8061-1.5769l-14.0706,1.4833c-8.4231.8879-12.5366,10.7348-7.2482,17.3507l14.6957,18.3847c5.3727,6.7214,16.0763,4.6903,18.6132-3.532l4.2489-13.7705c.6405-2.0762.6235-4.2632.0078-6.2839.506-.3805,1.0431-.7793,1.623-1.2017,2.7274-1.9867,3.3304-6.6263,10.0131-9.9903,5.527-2.7822,8.2905-4.1733,10.9093-5.0333,5.5505-1.8229,6.9169-1.1397,12.6497-3.2643,2.0725-.768,4.9808-1.8644,8.3018-4.0024,3.6543-2.3527,15.7433-1.6714,16.6689-6.5087"/>
      <path class="cls-3" d="M418.6209,651.7337c.1374,2.0203,10.834,6.7288,14.203,11.7098,2.7516,4.0683,4.5946,6.7932,7.6704,9.7387,4.9406,4.7312,6.5359,3.782,9.9958,7.8984,2.2338,2.6577,1.638,3.1356,5.4812,10.0227,4.0593,7.2743,1.5458,6.6142,4.576,12.424.0026.005.0052.0095.0079.0145-1.5798,1.7552-2.5636,4.0075-2.7307,6.4306l-.9736,14.115c-.5829,8.4497,8.4038,14.2049,15.8349,10.141l20.6501-11.2931c7.5496-4.1287,7.4011-15.0223-.2582-18.9436l-12.8277-6.5674c-1.934-.9901-4.091-1.3517-6.1877-1.0949-.2872-.5642-.587-1.1622-.9027-1.8065-1.4848-3.0301-5.9502-4.4267-8.1071-11.5906-1.7839-5.925-2.6759-8.8875-3.0698-11.6156-.835-5.7822.0743-7.0098-1.0264-13.0237-.3979-2.1741-.9745-5.2283-2.5056-8.8691-1.6849-4.0062,1.0778-15.7951-3.5264-17.5437"/>
      <path class="cls-3" d="M540.0137,510.2801c1.253,1.5907,12.7415-.5548,18.3329,1.6579,4.5668,1.8073,7.6257,3.0178,11.8269,3.715,6.7483,1.1199,7.5302-.5637,12.7091.8838,3.3436.9345,3.1212,1.6653,10.1794,5.1844,7.455,3.717,5.0072,4.5897,10.7864,7.6778.005.0027.0097.0049.0147.0075-.3145,2.3404.1436,4.7552,1.3723,6.8503l7.1577,12.2045c4.2848,7.306,14.9517,6.9893,18.7955-.558l10.6816-20.973c3.9052-7.6677-2.362-16.5791-10.8985-15.4968l-14.2967,1.8126c-2.1555.2733-4.1405,1.1914-5.727,2.5861-.5554-.3039-1.1403-.6285-1.7644-.9825-2.9352-1.6645-7.4102-.299-13.2321-4.9979-4.8151-3.8863-7.2226-5.8294-9.0867-7.8599-3.951-4.3036-3.8926-5.8301-8.1936-10.1752-1.5549-1.5708-3.7538-3.7675-7.0717-5.9102-3.6511-2.3577-8.0194-13.6505-12.8075-12.4973"/>
      <path class="cls-7" d="M403.9291,159.2264c1.2266-2.9659-10.6509-17.1804-11.9302-26.6251-1.0447-7.7141-1.7445-12.881-4.0399-19.2286-3.687-10.196-6.6206-9.9706-8.6374-18.2516-1.3021-5.3464-.1196-5.6058-.7309-18.0914-.6457-13.1874,2.4594-10.4811,2.2444-20.8646-.0002-.009-.0008-.0171-.001-.0261,3.4788-1.3808,6.461-3.8873,8.4036-7.2109l11.3159-19.3607c6.7741-11.5898-1.9383-26.0875-15.3517-25.5456l-37.2742,1.506c-13.6273.5506-21.0826,16.1258-12.9645,27.085l13.5959,18.3542c2.0499,2.7671,4.8587,4.7986,8.0172,5.9095.0109,1.0033.0158,2.0636.0108,3.2008-.0236,5.3481,5.3351,10.474,3.3568,22.1659-1.6362,9.6699-2.4542,14.5049-3.8146,18.6565-2.8832,8.7994-5.0385,9.9029-7.7076,19.2182-.9649,3.3676-2.2954,8.1109-2.6831,14.359-.4264,6.8753-12.6462,21.6733-7.3379,27.3968"/>
      <g>
        <path class="cls-10" d="M387.369,656.4345c-8.373,0-17.6387-.7969-26.5996-1.5675-7.1152-.6119-13.8359-1.1899-19.2441-1.2781-2.5322-.0425-4.9453-.0562-7.2598-.0562-2.2295,0-4.3711.0127-6.4482.0249-1.9727.0118-3.8877.0231-5.7676.0231-12.543,0-24.3154-.4111-41.4053-5.4661-8.1221-2.4031-17.1494-7.6968-25.8799-12.8162-5.25-3.0786-10.209-5.9863-14.4619-7.9475-5.1406-2.377-9.8184-4.2848-14.3418-6.1298-10.9326-4.4597-20.375-8.3112-31.2793-16.6222-6.5312-4.9684-12.3398-12.6467-17.958-20.0723-3.6846-4.8695-7.1641-9.4689-10.5889-12.9744-4.2383-4.3462-8.4268-8.0212-12.4775-11.5753-7.8994-6.9312-15.3604-13.4779-21.9512-23.7748-3.248-5.0791-6.1396-10.7321-8.8398-17.2831-2.5918-6.2744-4.7842-12.7831-6.9043-19.0773-1.5723-4.6693-3.1982-9.4977-4.9902-14.2449-1.0205-2.7021-2.2012-5.6766-3.7168-9.3606-.6172-1.4956-1.2422-2.9976-1.8691-4.5027-2.7783-6.6714-5.6514-13.5701-8.0283-20.5505-2.3994-7.0835-4.0049-13.4315-4.9082-19.4122-1.6416-10.937.542-22.5016,2.6533-33.6853,1.3613-7.209,2.6475-14.0181,2.9766-20.6134.3418-6.962-.0117-13.9109-.3535-20.6311-.6562-12.8917-1.335-26.2224,2.8223-40.2667,2.8281-9.5553,8.0146-17.9819,13.0293-26.1312,2.957-4.8037,5.749-9.3411,8.0566-14.0458,2.3818-4.8658,4.2812-10.0366,6.1172-15.0372,3.0215-8.2296,6.1465-16.7395,11.5391-24.2878,5.1416-7.1891,12.1182-12.827,18.8643-18.2793,4.3232-3.4944,8.4072-6.7949,11.9785-10.4294,4.0029-4.0743,7.7686-8.4158,11.4092-12.6144,7.5605-8.7168,15.377-17.7305,25.5879-24.6193,9.292-6.2554,19.916-9.1569,30.1904-11.9628,6.2637-1.7108,12.7412-3.48,18.7002-5.9805,5.9189-2.4834,11.7529-5.8685,17.3945-9.1421,9.3936-5.4507,19.1074-11.087,30.209-13.34,4.04-.8169,8.3662-1.2136,13.2275-1.2136,8.6934,0,17.7344,1.2954,26.4775,2.5482,7.916,1.1343,15.3926,2.2057,22.5723,2.3867,1.1553.0297,2.3027.0432,3.4434.0432,6.1338,0,12.2178-.3972,18.1016-.7815,5.8223-.3801,11.8428-.7733,17.8457-.7733,10.082,0,18.5967,1.1295,26.7959,3.5548,11.8613,3.5144,22.6934,10.8727,33.1689,17.9886,5.8838,3.9962,11.4404,7.7709,16.96,10.7333,5.6055,3.0201,11.3291,5.056,16.8643,7.0248,8.3818,2.9814,17.0488,6.0643,25.001,12.5015,10.4805,8.4678,18.9316,20.4807,27.1055,32.0981,3.7988,5.4001,7.3877,10.5009,11.0713,15.1019,3.8291,4.7809,7.7305,9.1616,11.5039,13.3981,9.0537,10.166,17.6064,19.7683,24.0137,33.3684,1.2422,2.6483,2.2949,5.8142,3.2217,9.6851,1.123,4.5957,1.9316,9.6052,2.6631,14.3411l.2236,1.4382c.9893,6.3853,1.9238,12.4164,3.3604,17.0071,1.834,5.8766,4.0645,10.6755,6.2207,15.3165.498,1.0708.9912,2.1309,1.4727,3.1912,2.5947,5.7489,5.4492,12.6536,6.5332,21.9971,1.127,9.6738-.8145,21.8116-2.6904,33.5498-1.1221,7.0182-2.1826,13.6475-2.499,19.2291-.3604,6.2786-.2881,11.8615-.2178,17.2606.1484,11.4493.2891,22.2638-3.8711,36.3197-2.5449,8.5919-8.6816,17.1522-14.6152,25.4305-4.0664,5.6724-7.9072,11.0304-10.2441,15.9047-3.1582,6.6063-5.3457,12.8805-7.4609,18.948-3.7734,10.8262-7.3379,21.0519-15.6924,31.4146-6.8877,8.5468-17.749,15.7668-28.252,22.7491-6.248,4.1533-12.1494,8.0762-16.7793,11.9946-5.3945,4.5638-9.9443,9.0713-14.3447,13.4303-9.0205,8.9355-17.54,17.3755-31.1396,24.0393-5.6621,2.7656-15.1055,4.5872-24.2383,6.3486-6.5693,1.267-12.7734,2.4636-16.627,3.8298-5.6475,1.9935-9.3447,4.067-12.9199,6.0723-5.3145,2.9807-10.334,5.796-19.9531,7.3938-3.4873.5784-7.5947.8594-12.5576.8594Z"/>
        <path class="cls-11" d="M316.8523,133.4985c15.9669,0,33.2862,4.5391,48.9484,4.9336,1.1879.0308,2.3702.0444,3.5443.0444,12.3958,0,24.0753-1.5542,35.947-1.5547,8.3523,0,16.7972.769,25.6588,3.3901,17.72,5.25,33.72,20.0103,49.3699,28.4102,14.4601,7.79,28.75,9,41.24,19.1099,14.79,11.9502,25.8401,31.9399,37.5701,46.5903,12.95,16.1699,26.21,27.2695,35.02,45.9697,1.21,2.5801,2.1599,5.6099,2.95,8.9102,1.0701,4.3799,1.8601,9.23,2.6001,14.02,1.08,6.9399,2.08,13.79,3.72,19.0298,2.34,7.5,5.26,13.23,7.87,18.9702,2.7799,6.1597,5.22,12.3501,6.2,20.7998,1.7201,14.77-4.35,36.9502-5.21,52.0898-1.14,19.8701,1.96,32.77-3.9301,52.6704-4.04,13.6396-18.6699,28.3096-24.6299,40.7397-8.8601,18.5303-10.1401,34.0503-22.6602,49.5801-10.5,13.0298-31.8799,23.52-44.5,34.2002-16.6199,14.0596-25.1899,27.3896-44.6599,36.9297-9.11,4.4502-30.8501,6.6001-40.4399,10-14.42,5.0898-16.9601,10.7603-32.1901,13.29-3.4924.5791-7.5432.8052-11.9021.8052-14.9114,0-33.4512-2.644-45.778-2.8452-2.5541-.043-4.9886-.0566-7.3242-.0566-4.3461,0-8.36.0479-12.2178.0479-12.9819,0-24.1855-.5444-40.2679-5.3013-12.47-3.6899-28.33-15.27-39.8-20.5601-17.52-8.0996-29.94-10.9199-44.87-22.2998-10.2401-7.79-19.21-23.5498-28.11-32.6602-12.53-12.8496-24.3-19.6797-33.92-34.71-3.44-5.3799-6.16-10.9497-8.51-16.6499-4.44-10.75-7.6-21.9502-11.85-33.21-1.19-3.1499-2.46-6.3101-3.76-9.4702-3.37-8.1699-6.95-16.4199-9.81-24.8198-2.08-6.1401-3.78-12.3701-4.74-18.7197-2.54-16.9302,4.8-36.0601,5.67-53.5,1.01-20.52-3.78-39.3901,2.31-59.9604,4.27-14.4297,14.43-26.48,20.84-39.5498,6.4-13.0698,9.04-27.1699,17.3199-38.7598,7.96-11.1304,20.97-18.5903,30.44-28.23,12.42-12.6401,21.81-26.8901,36.38-36.7202,14.32-9.6401,32.28-10.8901,48.2-17.5698,15.92-6.6802,29.8-18.79,46.85-22.25,4.0093-.8105,8.1725-1.1338,12.4315-1.1338M316.8524,125.4838c-5.1324,0-9.7184.4229-14.0202,1.293-11.7523,2.3848-21.7555,8.189-31.4294,13.8022-5.7867,3.3579-11.2524,6.5293-16.9331,8.9131-5.7169,2.3984-11.7828,4.0552-18.205,5.8091-10.5867,2.8916-21.534,5.8813-31.3696,12.5024-10.6564,7.1899-18.65,16.4067-26.3803,25.3203-3.6012,4.1523-7.325,8.4458-11.2408,12.4312-3.4099,3.4712-7.407,6.7017-11.6388,10.1216-6.9547,5.6206-14.1461,11.4326-19.6035,19.0635-5.7089,7.9912-8.9285,16.7583-12.0421,25.2373-1.8842,5.1309-3.664,9.9775-5.9567,14.6597-2.2206,4.5278-4.964,8.9858-7.8684,13.7051-5.1523,8.3726-10.4802,17.0298-13.4589,27.0957-4.3522,14.7002-3.6558,28.3789-2.9824,41.6069.3526,6.9263.6857,13.4688.3527,20.2334-.3151,6.3159-1.576,12.9941-2.9109,20.0645-2.1735,11.5117-4.4209,23.415-2.6801,35.0186.9413,6.2261,2.601,12.7988,5.0751,20.1021,2.423,7.1167,5.3215,14.0767,8.1246,20.8071.6257,1.502,1.25,3.001,1.8672,4.4976,1.4899,3.6221,2.6575,6.562,3.6716,9.2466,1.7659,4.6782,3.3808,9.4731,4.9424,14.1099,2.1406,6.3555,4.3541,12.9272,6.9973,19.3271,2.7903,6.7681,5.7889,12.6274,9.1653,17.9077,6.8984,10.7783,14.5672,17.5068,22.6863,24.6304,3.9928,3.5034,8.1216,7.126,12.2479,11.3574,3.2528,3.3301,6.6583,7.8311,10.2638,12.5962,5.7814,7.6416,11.7597,15.5435,18.7318,20.8472,11.321,8.6294,21.4576,12.7637,32.1895,17.1411,4.4813,1.8281,9.1151,3.7183,14.1699,6.0552,4.0803,1.8818,8.9571,4.7412,14.1203,7.769,8.9376,5.2407,18.1795,10.6597,26.7688,13.2012,17.6049,5.2075,29.6822,5.6309,42.5421,5.6309,1.8854,0,3.8077-.0112,5.7874-.0229,2.0649-.0122,4.1935-.0249,6.4086-.0249h.0217c2.6052,0,4.9572.0181,7.1903.0552,5.2721.0864,11.9246.6587,18.9677,1.2642,9.0458.7778,18.3995,1.5825,26.9443,1.5825,5.1854,0,9.5073-.2988,13.2131-.9131,10.3126-1.7129,15.877-4.834,21.2581-7.8521,3.4274-1.9224,6.9713-3.9102,12.2886-5.7871,3.5793-1.269,9.922-2.4922,16.0557-3.6753,9.3896-1.811,19.099-3.6841,25.2345-6.6812,14.198-6.9565,22.9442-15.6206,32.204-24.7935,4.3458-4.3047,8.8397-8.7563,14.1144-13.2188,4.4545-3.7695,10.2622-7.6304,16.4109-11.7178,10.756-7.1504,21.8782-14.5444,29.1533-23.5723,8.7885-10.9009,12.6351-21.9355,16.3552-32.6074,2.0793-5.9648,4.2296-12.1333,7.295-18.5439,2.1816-4.5503,5.923-9.7695,9.8839-15.2954,6.1274-8.5479,12.4635-17.3872,15.2-26.6255,4.3333-14.6406,4.1888-25.7505,4.0359-37.5127-.0693-5.3296-.1409-10.8403.2111-16.9751.3057-5.3813,1.3497-11.9116,2.4551-18.8247,1.9199-12.0083,3.9052-24.4253,2.7141-34.6514-1.149-9.9082-4.1412-17.1548-6.8556-23.1694-.4967-1.0928-.9948-2.1646-1.4979-3.2471-2.1011-4.521-4.2737-9.1963-6.0262-14.8135-1.3494-4.311-2.2618-10.1987-3.2277-16.4321l-.224-1.4429c-.7433-4.812-1.5679-9.918-2.7338-14.6899-.9813-4.0996-2.1222-7.5171-3.4791-10.4106-6.6605-14.1377-15.3997-23.9497-24.6519-34.3384-3.7389-4.1982-7.6051-8.5391-11.3688-13.2388-3.606-4.5034-7.1602-9.5552-10.9231-14.9038-8.3314-11.8423-16.9467-24.0879-27.8657-32.9102-8.4794-6.8638-17.4746-10.063-26.1737-13.1572-5.6417-2.0068-10.9707-3.9023-16.3021-6.7744-5.3459-2.8696-10.8185-6.5869-16.6124-10.5229-10.7292-7.2886-21.8239-14.8252-34.282-18.5161-8.5818-2.5381-17.4561-3.7202-27.9313-3.7202-6.1368.0005-12.2231.3975-18.109.7817-5.8201.3804-11.8381.7729-17.8422.7729-1.1366,0-2.2596-.0142-3.3379-.0415-6.9498-.1753-14.3136-1.2305-22.1097-2.3477-8.882-1.2729-18.0663-2.5889-27.045-2.5889h0Z"/>
      </g>
      <path class="cls-8" d="M372.6032,146.9633c-42.572-.6841-45.1164-12.9918-65.3198-6.4882-22.5153,7.2477-24.2128,24.0969-48.2183,27.2021-14.4518,1.8694-17.5991-3.7505-29.4485,0-14.5392,4.6019-17.7348,15.574-33.1833,32.1454-20.8799,22.3977-27.8596,16.1029-43.1411,33.7516-9.0825,10.4894-8.5644,14.9621-25.3383,61.343-17.5848,48.623-23.0707,57.302-17.3079,65.1324,8.8136,11.9756,35.95,11.1125,52.89,0,11.578-7.5951,10.6376-14.8906,23.464-34.8139,7.9985-12.4242,28.4409-44.1773,61.8803-56.1776,7.512-2.6958,18.6096-3.6364,40.8049-5.5174,42.1108-3.5689,51.0502,1.5025,63.2686-7.4007,15.695-11.4364,7.7616-24.7715,24.7503-38.7409,14.92-12.2684,24.6969-4.9911,50.559-17.5764,5.217-2.5388,36.7098-17.8641,34.7166-32.1454-1.8607-13.3308-31.9775-19.1539-40.0457-20.7139-19.7597-3.8206-25.0907.4056-50.3307,0Z"/>
      <path class="cls-9" d="M612.2808,414.2121c-1.14,19.87,1.96,32.77-3.9301,52.67-4.04,13.64-18.6699,28.31-24.6299,40.7401-8.8601,18.53-10.1401,34.05-22.6602,49.58-10.5,13.03-31.8799,23.52-44.5,34.2-16.6199,14.06-25.1899,27.39-44.6599,36.93-9.11,4.45-30.8501,6.6-40.4399,10-14.42,5.09-16.9601,10.76-32.1901,13.29-15.44,2.56-41.75-1.78-57.68-2.04-23.3-.39-36.38,1.62-59.81-5.31-12.47-3.69-28.33-15.27-39.8-20.56-17.52-8.1-29.94-10.92-44.8701-22.3-10.24-7.79-19.21-23.55-28.11-32.66-12.53-12.85-24.3-19.68-33.92-34.71-3.44-5.38-6.16-10.95-8.51-16.65-4.44-10.75-7.6-21.95-11.85-33.21-1.19-3.15-2.46-6.31-3.76-9.47,6.48,5.02,14.26,9.15,23.91,11.1,11.12,2.25,17.52.13,28.67,5.98,3.81,2.01,9.14,5.45,28.81,28.13,14.97,17.26,15.92,19.93,21.93,22.84,11.23,5.43,16.19.12,34.6,1.12,30.56,1.66,38.32,17.46,55.61,11.23,5.03-1.81,3.79-2.94,21.9901-18.38,16.73-14.2,25.1-21.3,30.36-23.49,23.38-9.7401,35.62,9.29,58.46,0,7.34-2.98,14.73-11.13,29.5099-27.4301,17.9501-19.8,17.8-25.17,30.26-33.85,13.6301-9.49,16.26-4.78,30.8701-15.47,8.4299-6.17,6.9299-7.28,26.2999-25.32,11.77-10.96,13.88-12,16.16-16.92,3.9399-8.5099,1.4299-13.58,1.39-30.12-.03-17.33-.05-26.02,4.09-34.09,7.96-15.53,22.9299-12.45,34.72-25.05,4.3301-4.62,6.98-10.02,8.5-15.69,1.0701,4.38,1.8601,9.23,2.6001,14.02,1.08,6.94,2.08,13.79,3.72,19.03,2.34,7.5,5.26,13.23,7.87,18.97,2.7799,6.16,5.22,12.35,6.2,20.8,1.7201,14.77-4.35,36.95-5.21,52.09Z"/>
      <path class="cls-1" d="M551.6633,478.1238c5.4657,5.6718-.2413,18.5132-5.6256,30.6285-4.7552,10.6999-9.5434,21.4737-21.2525,30.0035-4.4285,3.226-13.6689,9.9573-26.253,9.3761-3.9932-.1844-15.9909-.7386-20.6274-9.3761-4.5328-8.4442.1895-20.4792,7.5008-25.5806,7.1173-4.9661,11.2785.4125,20.6274-4.4228,8.2566-4.2703,14.0729-13.1521,19.3773-21.2525,3.2647-4.9854,4.1393-7.2907,7.5008-9.3761,5.6561-3.5089,14.7459-4.1573,18.7522,0Z"/>
      <path class="cls-1" d="M477.5797,584.0451c.1181,9.1131-9.6834,15.1691-15.9915,19.0667-4.106,2.537-14.4968,8.7505-27.6775,6.7656-5.1146-.7702-15.0197-2.2618-17.8366-9.8409-2.0754-5.584.2017-13.1142,4.9205-15.9914,5.1535-3.1423,8.6674,2.0405,17.2215,0,5.8823-1.4032,5.9041-4.2555,17.8366-10.4559,7.8044-4.0554,9.8804-3.9188,11.071-3.6903,5.6633,1.0866,10.3752,7.9122,10.456,14.1463Z"/>
      <path class="cls-1" d="M356.8365,617.4112c-5.4019,10.6408-19.0309,12.6667-31.7223,14.5532-18.0389,2.6814-32.4118-1.1891-38.2979-3.0638-5.7744-1.8392-20.6199-7.2482-33.7021-20.6809-6.1265-6.2905-11.3762-11.8432-11.4893-19.9149-.1292-9.2194,6.5252-15.8451,9.1915-18.4999,1.434-1.4278,13.0201-12.6573,25.2766-9.8406,8.94,2.0546,7.944,9.2167,19.9149,16.0851,11.1652,6.4062,23.5311,6.7735,27.5745,6.8936,11.5332.3426,15.4308-2.6445,22.2128.766,7.2573,3.6495,10.2776,10.8335,11.0414,12.6502.4379,1.0416,4.7445,11.706,0,21.0519Z"/>
      <path class="cls-1" d="M415.3037,632.8812c-4.5914,9.8443-20.197,9.8167-25.8491,9.8067-5.8652-.0104-20.33-.036-26.0425-9.8067-3.0131-5.1536-3.597-13.0283,0-16.2359,3.2468-2.8953,7.0452.5579,17.617,0,9.8491-.5198,11.8172-3.7949,19.1489-3.1076,5.9987.5623,11.0525,3.352,15.1257,6.6507.9712,2.8224,2.2142,7.9453,0,12.6928Z"/>
      <path class="cls-1" d="M462.2206,523.1985c4.9879,14.3193-16.0068,31.2962-22.2128,36.3145-18.2863,14.7868-37.7672,16.3077-41.3618,16.5365-12.2668.7807-20.8798-1.9447-34.4681-6.2445-14.9358-4.7262-22.5857-7.2757-25.2766-14.4363-2.9167-7.7616,1.1396-17.8889,7.6596-22.9787,3.7458-2.9242,7.8983-3.8683,24.5106-3.8298,26.8325.0622,25.9215,2.5483,32.9362.766,17.5303-4.4542,18.2527-18.7186,32.9362-19.9149,10.2244-.833,22.2421,5.0756,25.2766,13.7872Z"/>
      <path class="cls-1" d="M541.8802,435.1134c6.2542,12.4171-6.4695,28.0581-9.1915,31.4043-9.9419,12.2214-23.1218,15.5948-28.3405,16.8511-6.8032,1.6377-25.5414,6.1486-32.9362-3.8298-4.0751-5.4987-4.2516-14.7851,0-19.7422,4.0662-4.7409,9.0236-1.8387,21.4482-6.3004,4.6515-1.6703,12.1521-4.3638,18.3816-10.7234,8.3293-8.5033,6.655-15.6684,12.5238-17.617,6.0093-1.9953,14.7156,3.2091,18.1145,9.9574Z"/>
      <path class="cls-1" d="M577.9744,320.7455c6.102,4.3172,7.8128,11.1853,9.6931,19.2224,2.5,10.6853,3.9972,17.0848,0,22.2575-3.6454,4.7175-11.046,7.36-16.7751,5.0444-8.36-3.379-9.053-15.6551-9.1141-18.1966-.1812-7.5381,3.2965-8.4447,3.5497-18.2107.1911-7.3683-1.6864-10.7917.5058-12.6463,2.626-2.2217,8.5303-.025,12.1405,2.5293Z"/>
      <path class="cls-9" d="M535.7525,355.7768c-4.6752,20.3264-7.0128,30.4896-11.9868,38.4778-9.2814,14.9056-21.1238,22.5511-24.7792,24.7736-10.736,6.5275-20.6447,12.5521-30.6973,8.4255-10.6802-4.3842-17.1416-18.428-14.2073-28.3404,1.4452-4.8821,4.3623-6.0346,22.0441-19.1489,13.816-10.2472,20.7821-15.4463,23.6265-19.1489,9.7419-12.6815,6.9146-21.3738,15.3192-25.2766,6.8972-3.2028,16.8751-1.098,20.6808,4.5957,2.4308,3.6367,1.7815,7.8967,0,15.6422Z"/>
      <path class="cls-9" d="M444.6035,462.6878c-1.9011,15.1559-17.1836,23.7526-28.0629,29.8723-23.1539,13.0245-45.4163,12.0634-55.6122,11.4894-18.6777-1.0517-33.9236-1.9101-39.6441-13.0213-6.0703-11.7906.8958-30.6386,12.2553-35.7591,10.8806-4.9047,16.7792,6.8475,33.7021,5.1208,16.9736-1.7319,18.5186-14.3177,43.6595-21.1935,8.8576-2.4225,17.4081-4.6269,24.5106,0,7.5934,4.9467,10.1908,15.5252,9.1915,23.4914Z"/>
      <path class="cls-9" d="M308.2631,539.2836c-8.5034,7.4405-20.4535,4.6699-40.5957,0-20.1476-4.6712-37.1263-8.6076-46.7234-23.7447-2.0585-3.2467-10.5135-16.5825-4.5957-29.7254,4.4418-9.8648,15.7795-16.9525,25.2748-15.4019,7.9144,1.2925,7.4714,7.4305,19.5929,15.4019,8.6031,5.6576,17.1561,8.0434,31.728,12.1084,13.6737,3.8143,16.1034,3.0539,19.149,6.4103,7.3616,8.1129,5.8232,26.5048-3.8298,34.9514Z"/>
      <path class="cls-1" d="M231.6674,564.6035c-5.3647-10.7126-18.1068-4.8749-32.1702-16.1284-17.3039-13.8466-9.8121-32.1257-28.3405-44.1429-1.9424-1.2598-15.0568-9.5113-23.7446-4.1125-8.0978,5.0322-6.9976,18.5976-6.8936,19.7039.2642,2.8111,1.3337,9.3168,13.0212,22.8342,11.0997,12.8375,13.8729,11.3067,22.9788,21.8456,11.8085,13.6668,10.0454,19.5695,19.9149,25.9992,2.4134,1.5723,14.7238,9.5922,25.2766,4.394,10.4088-5.1272,14.6921-20.9389,9.9575-30.3932Z"/>
      <path class="cls-9" d="M583.2458,298.7729c1.8208-5.0556-5.5098-8.0902-11.8406-21.4468-6.038-12.7387-3.4603-18.6079-9.6337-22.9787-5.358-3.7936-14.1547-4.2257-18.1826,0-4.1071,4.3088-1.863,11.9988,0,18.383,1.9421,6.6554,5.0656,11.0752,11.3125,19.9149,7.0363,9.9566,9.4592,11.0394,10.7234,11.4893,6.5914,2.3463,15.8186-.3572,17.621-5.3617Z"/>
      <path class="cls-11" d="M140.4123,330.4325c-.3535-.9379-7.0626-18.2628-15.4684-17.3617-7.334.7862-10.6495,14.8774-11.234,17.3617-1.2827,5.4515-4.3618,18.5382,4.0851,25.3443,6.0366,4.864,16.3385,5.2139,21.9685,0,7.5623-7.0034,2.5764-20.2307.6488-25.3443Z"/>
      <path class="cls-8" d="M160.054,380.3552c2.7714,2.717-.1972,6.8611,0,17.3071.1016,5.3857.9046,5.0179,2.4064,16.7254,2.0106,15.6734.7191,17.483,0,18.2623-3.8997,4.2261-13.7567,2.8497-19.8846-1.5369-6.032-4.318-7.5984-10.9424-9.3427-18.319-1.7584-7.4367-3.2215-13.6239,0-20.3637,4.1945-8.7755,13.0251-11.5715,14.616-12.0752,2.9389-.9305,9.2254-2.921,12.2048,0Z"/>
      <path class="cls-11" d="M208.4697,197.6665c1.1045-8.7823,9.8431-13.6333,16.5594-17.3617,4.4595-2.4756,13.5558-7.5252,24.5106-5.1064,3.5463.783,13.2452,2.9245,15.9589,11.13,1.8808,5.6871.0834,13.3112-4.7248,16.4444-7.1686,4.6714-15.3276-4.3556-23.4995,0-7.9149,4.2187-5.5417,15.5016-11.224,16.9597-6.463,1.6585-19.0354-10.4987-17.5806-22.0661Z"/>
      <path class="cls-11" d="M276.0929,167.0282c4.451-15.1244,25.4347-17.7355,30.6383-18.383,8.5289-1.0613,8.1958,1.3196,31.209,4.0851,18.1812,2.1848,21.9385,1.1253,31.0888,4.6844,6.1384,2.3875,14.1693,5.5112,19.7055,13.6986,4.2391,6.2691,8.8156,18.1689,3.7839,26.1089-7.6501,12.0717-32.5632,7.1838-35.682,6.5719-20.0181-3.9275-22.7348-14.8638-37.7961-14.2979-14.189.5331-17.9841,10.4725-27.6283,7.7259-10.3499-2.9476-18.8868-18.0712-15.3192-30.194Z"/>
      <path class="cls-8" d="M531.9226,249.1883c1.8049-9.1229-4.2861-16.922-10.2128-24.5107-7.5588-9.6786-15.6119-14.7447-24-19.9149-12.6885-7.8208-19.9623-12.3042-29.1063-10.7234-6.5159,1.1264-14.7393,5.463-15.23,11.234-.4198,4.9377,4.9794,9.0644,9.1023,12.2156,9.2656,7.0819,13.1752,4.3809,21.9575,10.2525,10.0177,6.6975,16.2319,17.7672,16.8511,18.8936,2.2109,4.0222,4.2238,8.949,9.702,13.2766,2.3519,1.858,4.6609,3.6335,7.6597,3.6288,6.1578-.0096,11.9249-7.5206,13.2765-14.3523Z"/>
      <path class="cls-11" d="M453.3736,168.5602c-.3199-8.5046-12.0573-14.4025-14.8977-15.8298-2.4659-1.2391-3.0603-1.1621-23.4893-4.343-10.4112-1.6211-13.5739-2.1576-16.8511,0-3.634,2.3925-5.9441,7.1334-5.617,11.492.2742,3.654,2.3536,6.3944,12.2553,14.6799,10.1886,8.5255,15.2829,12.7883,18.1711,13.4052,13.1278,2.8039,30.8302-8.7313,30.4287-19.4043Z"/>
      <path class="cls-8" d="M474.7312,254.858c3.1389-8.4542-16.1417-22.3014-21.351-26.0425-5.3268-3.8256-14.046-9.9453-27.1597-12.3858-11.1025-2.0662-19.7431-.451-21.9575,0-4.9772,1.0136-13.6603,2.7819-21.4468,9.8326-4.1075,3.7194-10.1652,9.2048-10.2128,17.3617-.0578,9.9258,8.8074,19.7654,16.8511,19.9149,7.8959.1468,8.8633-9.1578,20.4255-12.2009,7.9957-2.1044,15.583.2266,22.9788,2.4988,10.1927,3.1315,10.4803,5.8664,17.8723,7.1489,8.9427,1.5516,21.7809-.1508,24-6.1277Z"/>
      <path class="cls-8" d="M515.5823,282.9432c-3.4011-5.4341-9.7498-6.4666-20.2249-8.1702-8.7563-1.4241-16.2507-2.643-25.7327,0-5.0566,1.4095-16.0114,4.463-21.4468,14.2979-1.1562,2.0922-3.9147,7.0834-2.5532,13.2766.1841.8375,1.7609,7.5181,7.7555,10.6895,4.7316,2.5032,9.5294,1.3991,15.2233,0,10.408-2.5574,10.1949-6.2177,18.3829-7.6256,7.9094-1.36,9.754,1.7725,17.8724-.4208,3.5363-.9554,7.9978-2.1607,10.7234-6.2175,3.14-4.6736,2.7917-11.3692,0-15.8298Z"/>
      <path class="cls-11" d="M350.6461,225.7517c-2.2965-3.6789-8.3707-5.61-20.4255-9.322-11.4798-3.5349-17.2197-5.3024-24-5.4865-10.7822-.2928-18.7461,2.4641-24.5106,4.4596-8.3722,2.8982-13.8243,4.7856-18.383,10.3489-4.2616,5.2009-5.507,10.8863-6.1276,13.72-1.1409,5.2086-1.938,8.8478,0,11.8663,3.1166,4.8541,11.8204,5.7887,18.0685,3.5201,7.1918-2.6113,6.687-7.8535,14.1017-10.7234,3.9601-1.5328,8.2571-1.0219,16.8511,0,2.4265.2885,8.7003,1.1112,20.9362,4.0851,13.1708,3.2012,14.5865,4.3589,17.3618,3.1182,7.3061-3.2661,11.2219-17.4256,6.1276-25.5863Z"/>
      <path class="cls-8" d="M256.026,278.1642c-8.1079-7.3081-30.1223,7.5759-31.2522,8.3534-3.7045,2.5489-15.9976,11.6462-21.4468,28.3404-2.378,7.2852-5.725,17.5389,0,24.5106,3.4078,4.15,9.9856,7.0829,15.3192,5.3617,6.2148-2.0055,5.0624-8.498,14.9416-20.6808,1.4042-1.7317,4.8568-5.3229,11.7618-12.5052,8.2764-8.6087,9.3161-9.3271,10.6765-12.0055,3.2776-6.4533,4.7596-17.0846,0-21.3747Z"/>
      <path class="cls-8" d="M293.7099,285.7517c9.6453-11.5905,23.5959-14.0974,31.4042-15.5005,8.4815-1.5241,26.1537-3.1596,44.4255,5.9001,8.7676,4.3473,22.3905,11.1019,22.948,22.6216.3461,7.1512-4.4163,14.6199-10.5635,18.5261-5.1068,3.2451-10.2105,3.4224-12.3845,3.4706-10.6974.2376-14.3143-5.9622-26.432-10.078-5.36-1.8206-12.1244-2.1228-25.6531-2.7273-21.197-.9471-28.0277,1.2313-30.6383-2.974-3.8171-6.1488,6.1249-18.3151,6.8936-19.2388Z"/>
      <path class="cls-8" d="M324.3482,340.1346c-5.946-10.9579-22.741-10.2774-30.6383-9.9574-5.7817.2343-17.9142.7258-28.2114,9.9574-1.5971,1.4319-14.4333,13.2998-12.3844,29.1064.1043.8049,1.9919,14.2711,9.1915,16.0851,5.7793,1.4562,8.1735-6.3113,22.2128-12.2553,8.4411-3.5738,17.6154-5.0166,19.9714-5.3617,9.3138-1.3641,11.2234-.0954,14.5505-2.2979,6.7737-4.4842,9.8046-16.9896,5.3079-25.2766Z"/>
      <path class="cls-8" d="M394.7243,345.2321c1.7693,8.2886-11.8369,18.1089-22.1211,21.7111-5.1121,1.7906-13.5109,4.7324-19.6494,0-5.7473-4.4308-6.7568-13.464-4.095-19.9149,2.9335-7.1093,9.8118-9.8361,12.0696-10.7312,13.1663-5.2197,31.9222.158,33.7958,8.9351Z"/>
      <path class="cls-8" d="M233.5877,394.2547c-1.0338-1.421-10.9365-14.5957-25.2341-12.8317-11.8043,1.4564-18.0283,12.0373-21.3535,17.6904-3.2348,5.4993-9.1599,15.572-5.1199,25.6114,4.283,10.6433,16.769,13.8013,21.4468,14.9843,3.6677.9276,10.0955,2.5533,17.617,0,11.0203-3.7411,15.6669-13.4928,16.3486-14.9843,6.9807-15.2747-3.2531-29.8492-3.7048-30.4701Z"/>
      <path class="cls-8" d="M334.9961,400.6453c-12.5745,2.6575-13.48,9.326-22.9031,10.1582-10.9619.9681-14.5484-7.6312-22.4077-5.0791-7.1898,2.3347-12.1743,12.1243-11.2944,20.9534,1.171,11.7505,12.2845,17.3381,14.5532,18.393,8.1737,3.801,16.215,2.0956,26.0964,0,7.3425-1.5572,6.3124-2.6126,18.8999-5.8744,5.057-1.3104,7.7264-1.7887,10.9186-4.0831,5.4307-3.9034,7.4593-9.5304,7.9776-11.1275,2.0699-6.3778,2.2302-16.812-4.1478-21.8087-5.2988-4.1512-12.6256-2.6028-17.6926-1.5319Z"/>
      <path class="cls-8" d="M394.8808,381.423c18.755-8.3324,22.6553-5.8603,28.0532-11.9197,5.9432-6.6716,4.1677-12.9831,11.7122-17.6291,1.3986-.8613,5.5063-3.3113,10.6095-2.548,6.7587,1.0109,11.796,7.1397,13.1351,13.0213,1.3082,5.7458-1.0989,10.4402-4.3088,16.4771-3.588,6.7479-6.6947,9.2389-17.1379,20.6285-11.9319,13.013-11.2694,13.4616-14.01,14.9795-10.3055,5.7078-24.5957,3.8984-34.1994-3.2625-1.1505-.8578-12.9166-9.8345-10.7693-18.2057.3533-1.3772,1.5953-4.7349,16.9156-11.5413Z"/>
      <path class="cls-11" d="M224.0078,293.3261c-.9564-1.8669,10.7483-8.8417,11.9149-9.5319,4.4285-2.6202,7.0208-3.5247,9.5319-2.7234.1523.0486,3.1215,1.0356,3.4042,3.0638.3051,2.1882-2.7224,4.1153-3.7447,4.766-2.791,1.7765-5.2355,1.919-8.6642,2.383-9.1517,1.2385-11.9714,2.9615-12.4422,2.0425Z"/>
      <path class="cls-11" d="M279.8376,170.0921c-1.6675-4.9393,4.9733-10.6052,6.1093-11.5745,4.8494-4.1375,10.3453-4.9253,16.3588-5.7872,6.3952-.9167,11.2936-.4698,15.6595-.0434,6.5773.6423,17.0839,2.4052,17.0308,4.1285-.0322,1.0455-3.9264,1.2676-16.6904,4.0851-11.9346,2.6344-14.1853,3.6886-16.3405,5.4468-4.4775,3.6529-3.9425,6.5918-7.8298,8.2119-5.0394,2.1003-12.785.0143-14.2979-4.4672Z"/>
      <path class="cls-7" d="M542.0671,216.5488c2.8316-1.511,2.6909-20.0342,7.7038-28.1403,4.0945-6.6207,6.8369-11.0553,9.0974-17.4155,3.6309-10.2161,1.2223-11.906,4.9263-19.582,2.3914-4.9558,3.4693-4.4048,10.9301-14.4349,7.8801-10.5938,8.5585-6.5311,14.9897-14.686.0056-.0071.0103-.0137.0159-.0208,3.5637,1.144,7.4591,1.1032,11.0709-.2291l21.0393-7.761c12.5948-4.6459,15.0781-21.3767,4.3757-29.4806l-29.7406-22.5195c-10.8731-8.2331-26.526-.9424-27.2201,12.6784l-1.1625,22.8116c-.1752,3.4392.7032,6.7926,2.4364,9.6572-.6291.7817-1.2989,1.6036-2.0253,2.4785-3.4162,4.1149-2.5349,11.4779-11.4911,19.2497-7.4074,6.4277-11.111,9.6416-14.7993,11.9832-7.8172,4.9632-10.1827,4.4459-18.1624,9.9436-2.8848,1.9874-6.9259,4.805-11.195,9.3836-4.6976,5.0383-23.5359,8.7017-23.0733,16.4941"/>
      <path class="cls-7" d="M278.4448,146.5765c-.0375-2.162-11.1908-7.7607-14.5147-13.2544-2.7148-4.4871-4.5332-7.4926-7.6545-10.7998-5.0135-5.3122-6.7661-4.386-10.2337-8.9628-2.2388-2.9548-1.5776-3.4323-5.3045-10.9845-3.9364-7.9767-1.2915-7.1371-4.2095-13.4965-.0025-.0055-.0051-.0104-.0076-.0159,1.7795-1.7865,2.9502-4.1354,3.2593-6.7105l1.8001-15.0004c1.0777-8.9797-8.1955-15.6024-16.3397-11.6695l-22.6318,10.9289c-8.2741,3.9956-8.7037,15.621-.747,20.2163l13.3256,7.6961c2.0091,1.1603,4.2899,1.6623,6.5398,1.5016.2758.6172.5633,1.2711.8652,1.9752,1.42,3.3115,6.1066,5.042,8.0202,12.7983,1.5826,6.415,2.374,9.6225,2.6469,12.5531.5784,6.2115-.4576,7.4716.3916,13.9445.307,2.34.7571,5.6283,2.1934,9.5937,1.5807,4.3634-2.0019,16.7864,2.8139,18.8997"/>
      <path class="cls-5" d="M603.1583,447.9951c2.295,1.3781,14.9158-8.1439,22.6976-8.4648,6.3559-.262,10.6131-.4376,15.9743-1.9572,8.6115-2.4409,8.6965-5.1254,15.6012-6.2198,4.4578-.7066,4.5604.3905,14.7491.9469,10.7614.5877,8.2816,3.1669,16.728,3.8961.0073.0006.014.0008.0213.0014.8029,3.2825,2.5647,6.2142,5.0846,8.2744l14.679,12.0012c8.7873,7.1844,21.3488.5622,22.134-11.6685l2.182-33.9877c.7977-12.4258-11.1618-20.5836-20.7973-14.1863l-16.1373,10.7141c-2.4329,1.6154-4.3381,3.9856-5.5281,6.7553-.8153-.0795-1.6762-.1693-2.5986-.2752-4.3382-.4976-8.9876,3.913-18.2957,1.0753-7.6984-2.347-11.5476-3.5204-14.7927-5.1256-6.878-3.4021-7.5767-5.4578-14.893-8.7113-2.6449-1.1762-6.3729-2.8069-11.4082-3.7153-5.5408-.9994-16.4344-13.4153-21.5642-9.1038"/>
      <path class="cls-7" d="M136.2413,479.6748c-1.9768,1.6682-15.7998-3.9699-23.3648-2.6389-6.1788,1.0872-10.3173,1.8154-15.7533,1.6077-8.7316-.3337-9.277-2.6413-16.1291-2.1616-4.4239.3097-4.3334,1.2812-14.0696,3.8698-10.2834,2.7341-7.4451,4.4554-15.4702,6.8335-.007.0021-.0133.0036-.0203.0057-.2082,3.0092-1.4022,5.9129-3.4783,8.2184l-12.0936,13.4303c-7.2396,8.0398-20.5048,4.9012-23.374-5.5304l-7.973-28.9881c-2.9149-10.598,7.2178-20.1369,17.6206-16.588l17.4223,5.9436c2.6267.8962,4.8744,2.5553,6.5009,4.7082.773-.2374,1.5883-.4933,2.4602-.7757,4.1005-1.328,9.3486,1.531,17.8413-2.8516,7.0239-3.6247,10.5358-5.437,13.3903-7.4983,6.05-4.3689,6.3694-6.294,12.868-10.6249,2.3493-1.5657,5.6654-3.7489,10.3677-5.5769,5.1745-2.0113,13.5435-15.0181,19.2381-12.3442"/>
      <path class="cls-4" d="M186.9188,238.6395c-1.7024-2.7208-20.1719-1.3047-28.604-5.7474-6.887-3.6288-11.4999-6.0592-18.0007-7.8763-10.4419-2.9187-11.9619-.3994-19.8748-3.566-5.1088-2.0444-4.6333-3.1577-15.1534-9.9099-11.1113-7.1317-7.1051-8.0883-15.6835-13.9426-.0075-.0051-.0144-.0093-.0218-.0144.8958-3.6341.5869-7.5174-.991-11.0288l-9.1916-20.4548c-5.5023-12.2449-22.3645-13.57-29.712-2.3349l-20.4177,31.221c-7.4647,11.4143.8868,26.528,14.523,26.2823l22.8375-.4114c3.4431-.0621,6.7281-1.1693,9.4664-3.0957.8232.5738,1.6892,1.1854,2.6122,1.8498,4.3404,3.1247,11.6252,1.7384,19.9954,10.1381,6.9226,6.9471,10.384,10.4206,12.9741,13.9389,5.4898,7.4569,5.1366,9.8523,11.1708,17.4344,2.1814,2.7411,5.2706,6.5785,10.1323,10.5221,5.3499,4.3394,10.302,22.8807,18.044,21.8825"/>
      <path class="cls-5" d="M486.0857,589.6827c1.1276,3.0049,19.5101,5.2883,26.8908,11.3184,6.0283,4.9253,10.066,8.2242,16.0759,11.2972,9.6534,4.936,11.6438,2.7692,18.7694,7.4454,4.6005,3.019,3.9132,4.0157,12.8812,12.7243,9.472,9.1981,5.3556,9.3392,12.5991,16.7818.0063.0065.0123.012.0186.0184-1.6003,3.3835-2.0694,7.2507-1.221,11.0057l4.9423,21.8737c2.9585,13.0943,19.2208,17.7447,28.655,8.1942l26.2162-26.5395c9.5846-9.7028,4.4039-26.1749-9.009-28.6446l-22.4636-4.1363c-3.3868-.6235-6.8262-.1914-9.8929,1.1522-.6927-.7259-1.4199-1.4975-2.1923-2.3321-3.6327-3.9251-11.0477-4.0144-17.5813-13.9103-5.4036-8.1845-8.1055-12.2767-9.9445-16.2396-3.898-8.3993-3.0758-10.6768-7.4825-19.307-1.593-3.12-3.8578-7.4949-7.8386-12.3262-4.3806-5.3162-5.5484-24.4719-13.3343-25.0325"/>
      <path class="cls-11" d="M169.1993,310.6917c-1.1359-12.4828,4.8664-22.2843,9.5319-29.9031,3.7944-6.1962,10.8234-17.369,24.5106-24.7556,5.7736-3.1158,15.4399-8.3324,23.1489-4.2388,3.3851,1.7975,6.8448,5.6302,6.8085,9.8723-.0264,3.0852-1.9008,6.2567-9.247,11.5484-12.9003,9.2924-16.5215,6.2844-23.7842,12.2814-6.4703,5.3428-10.2109,13.7746-17.6922,30.6383-2.6871,6.0571-4.1885,10.2618-6.4681,10.2128-3.2379-.0697-6.1738-8.681-6.8085-15.6557Z"/>
      <path class="cls-1" d="M578.522,451.2403c12.6064-6.1406,11.7697-25.8652,11.4894-32.4709-.2852-6.7203-.5725-13.4951-5.7448-18.0482-7.0463-6.2028-19.9879-5.4914-23.709,0-2.5277,3.7302,1.3301,6.5215,0,14.2184-1.7245,9.9795-9.2478,11.2953-9.6101,19.9149-.3069,7.3028,4.8351,12.5044,5.3617,13.0213,5.9165,5.8065,15.626,6.573,22.2128,3.3646Z"/>
    </g>
  </g>
</svg>