<?xml version="1.0" encoding="UTF-8"?>
<svg id="Capa_2" xmlns="http://www.w3.org/2000/svg" viewBox="0 0 809.858 752.75">
  <defs>
    <style>
      .cls-1 {
        fill: #70569b;
      }

      .cls-2 {
        fill: #a486ce;
      }

      .cls-3 {
        fill: #8566b2;
      }
    </style>
  </defs>
  <g id="Capa_1-2" data-name="Capa_1">
    <g>
      <g>
        <path class="cls-2" d="M257.3944,747.7498c-1.4224,0-2.7114-.2437-3.8315-.7244-7.8154-3.3545-5.6885-17.0747-4.4111-22.8176.4399-1.9778.731-3.9375,1.0391-6.0125.8867-5.9722,1.8921-12.7412,6.793-22.0342,3.1729-6.0161,5.5049-8.2913,7.562-10.2986s4-3.9033,7.5869-11.1968c3.1978-6.5017,5.2471-9.9727,6.7437-12.5068,1.6943-2.8696,2.3286-3.9431,3.1616-6.9885,1.2461-4.5537,1.0903-6.9368.8745-10.2346-.2202-3.3701-.4941-7.5645.6377-14.624,1.4307-8.9221,4.0044-15.5312,7.5669-24.6785.1016-.261.1963-.5344.2837-.8201-4.1016-2.1504-8.0718-3.9836-11.937-5.7681-9.6074-4.4363-18.6826-8.6262-28.0308-16.7202-.0918-.0793-.1836-.1594-.2754-.2397-4.1577,3.751-7.9775,6.127-10.3735,7.6174-4.6245,2.8757-7.5415,4.0486-10.3623,5.1826-2.2871.9194-4.4478,1.7878-7.752,3.6746-3.3374,1.9055-6.9629,4.7651-14.186,10.4622-4.7153,3.7188-6.1714,7.291-7.5796,10.7454-.9424,2.311-1.9165,4.7009-3.7681,6.73-2.2246,2.437-3.9629,4.4666-5.4966,6.2571-3.3745,3.9392-6.0396,7.0508-10.9575,11.0859-2.4082,1.9766-10.9653,3.9097-15.5942,3.9097-2.7871,0-4.9194-.5723-6.5186-1.75-5.9497-4.3821-1.7563-14.9106.3228-19.2341.6543-1.3604,1.2051-2.7524,1.7881-4.2261,1.7358-4.3857,3.7031-9.3569,9.1064-15.5845,3.5342-4.0732,5.7529-5.4146,7.7109-6.5981,1.7949-1.085,3.4902-2.1099,7.3071-6.7683,3.5449-4.3262,5.6953-6.5762,7.2656-8.219,1.7314-1.8118,2.3149-2.4219,3.3921-4.4099,1.6279-3.0059,1.8989-4.6399,2.3081-7.1133.4321-2.6094.9697-5.8569,3.0933-11.0461,2.668-6.5203,5.7676-11.0435,10.0576-17.3042,1.772-2.5862,2.3911-7.0825,2.6904-10.3779-1.9453-2.4607-3.9604-4.9436-5.9209-7.3584-4.5381-5.5906-9.231-11.3718-13.4868-17.3872-4.3467-6.1489-7.7183-11.8303-10.3076-17.3706-3.6904-7.9062-5.2104-16.6846-6.2256-25.2329-3.1035-.5349-6.3032-1.3315-9.4297-2.1101-4.1489-1.0332-8.439-2.1013-11.0664-2.1013-.4253,0-.708.0295-.8701.0544-3.9604.6082-7.8867.9038-12.0024.9038-3.168,0-5.9673-.1814-7.8193-.3015-7.0854-.4592-11.0781-1.4314-14.9395-2.3718-3.2427-.7896-6.3057-1.5352-11.4536-2.064-1.8789-.1929-3.916-.2827-6.4102-.2827-4.1836,0-9.3955.2437-17.2842.6125-8.4155.3931-13.1479,3.3774-17.3228,6.0103-2.8101,1.772-5.4639,3.4456-8.751,4.1458-4.3193.9204-7.7852,1.7734-10.8428,2.5264-6.6211,1.6301-11.8511,2.918-20.1494,3.4666l-.165.011-.2388.0022c-3.1694,0-20.9077-5.6567-23.5142-13.6597-2.6611-8.1719,9.228-15.7297,14.4634-18.5999,1.813-.9937,3.5107-2.0886,5.3076-3.2478,5.1626-3.3303,11.0142-7.1047,21.4077-9.5933,3.7412-.8958,6.6616-1.2954,9.4692-1.2954,1.3154,0,2.4102.085,3.4688.167.9355.0725,1.8193.1411,2.8076.1411,1.8623,0,4.7842-.2114,10.8965-1.8589,7.1235-1.9194,11.1562-2.6821,14.1006-3.239,3.3452-.6326,4.5967-.8694,7.5-2.2832,4.3384-2.113,6.063-3.8384,8.4502-6.2263,2.4287-2.4299,5.4521-5.4543,11.6089-9.3257,7.7866-4.8955,14.5723-7.3645,23.9644-10.7815,5.2524-1.9109,10.2861-7.9631,14.3306-12.8262,2.1646-2.6023,3.96-4.7612,5.7393-6.27.3716-9.2031,2.749-18.012,5.0542-26.554.1587-.5884.3174-1.1763.4751-1.7637-.0835-.0449-.1675-.0901-.251-.1353-5.8872-3.1824-8.8442-5.7754-11.2207-7.8589-2.2871-2.0056-3.9395-3.4546-7.9531-5.0925-2.6777-1.0928-3.8169-1.2317-6.8613-1.6023-2.7246-.3318-6.4556-.7861-13.0791-2.1118-3.6147-.7234-6.436-1.075-8.6255-1.075-1.4912,0-2.5708.1555-3.8208.3354-1.3779.1985-2.9395.4236-5.0127.4236-2.0317,0-4.3154-.2217-6.9824-.6775-9.6953-1.657-15.2896-4.7651-20.2251-7.5073-1.7007-.9451-3.3066-1.8374-5.0049-2.6282-5.042-2.3477-16.5503-8.6631-14.5352-16.5842,1.9019-7.4734,18.1235-14.199,21.3994-14.199h.0005c7.6353.0022,12.4956.865,18.6489,1.9573,2.8291.5022,6.0356,1.0715,10.021,1.6501,3.1147.4521,5.667,1.8362,8.3691,3.3018,3.9819,2.1597,8.1001,4.3931,15.2778,4.3926.2158,0,.436-.002.6567-.0061,11.2334-.2139,16.8701-.321,21.5522-1.1152,4.6333-.7864,7.3726-1.6455,10.2729-2.5552,1.5996-.5017,3.2354-1.0149,5.165-1.5046.3813-1.4629.7998-2.8501,1.2627-4.1899,2.9395-8.4829,8.0679-15.9282,13.0278-23.1284,3.1357-4.5522,6.0977-8.8518,8.4644-13.2979,2.6694-5.0181,5.0439-10.2395,7.3403-15.2888.8472-1.8623,1.7134-3.7668,2.5962-5.6653-2.5947-3.2764-4.5879-6.1855-6.3818-10.2581-1.9229-4.3667-2.3623-7.2688-2.7153-9.6006-.3174-2.0977-.4922-3.2529-1.7412-5.2805-.7612-1.2354-1.0347-1.4504-2.5522-2.6445-1.3608-1.0706-3.417-2.6887-6.6562-5.8186-3.0864-2.9822-4.3066-3.395-5.8511-3.9175-2.2676-.7673-4.4048-1.6357-7.6069-4.5049-5.1641-4.627-7.0303-9.0352-8.5303-12.5774-.4883-1.1536-.9497-2.2432-1.4834-3.2439-1.0439-1.9561-5.9722-11.9807-.4971-17.2761,3.2256-3.1199,9.5547-3.7749,14.2959-3.7749,4.4858,0,5.6338.6389,6.2505.9822,4.6333,2.5781,7.0918,4.8193,10.2046,7.6565,1.3564,1.2363,2.8936,2.6377,4.8535,4.2788,2.0186,1.6907,2.9961,3.9192,3.8584,5.8855,1.1846,2.7019,2.208,5.0356,5.8413,6.9402,6.4175,3.3638,9.6367,5.0513,12.5063,5.9253,2.8804.8774,4.7935,1.1375,6.8188,1.4126,2.6396.3586,5.3691.7295,9.7095,2.2739,1.3252.4714,2.8037,1.0144,4.4165,1.7327,2.0361-1.3088,4.0913-2.5833,6.0972-3.8274,4.666-2.8936,9.4702-5.8733,13.8467-9.1816-.1362-3.7275-.4224-8.0862-1.3271-10.092-4.0312-8.9355-5.6465-16.6406-6.6113-21.2444-1.6333-7.7896-1.7832-12.3977-1.9287-16.854-.123-3.7886-.2397-7.3669-1.2305-13.1694-1.002-5.8708-3.1899-12.5156-7.5498-25.7539-3.0308-9.2051-7.7759-13.5095-11.9619-17.3074-2.7339-2.4797-5.3159-4.8223-7.0195-8.0833-2.313-4.4294-4.293-7.9458-6.0396-11.0483-3.7612-6.6797-6.7319-11.9558-9.8213-20.7612-1.2461-3.5527-.0049-24.5063,7.3521-29.3926,1.3652-.907,2.9526-1.3669,4.7178-1.3669,7.3955,0,16.4668,8.7114,19.0708,11.3811,1.646,1.688,3.3589,3.2102,5.1729,4.822,5.1455,4.5728,10.9775,9.7556,16.7764,20.21,3.7368,6.7378,4.4473,10.3528,5.0742,13.5425.6504,3.3088,1.2646,6.4341,6.0933,14.5886,4.2314,7.145,6.2754,11.2876,7.7676,14.3125,1.728,3.5029,2.375,4.8135,4.8486,7.6077,3.6831,4.1604,6.1206,5.5364,9.4951,7.4404,3.3501,1.8906,7.519,4.2437,13.5391,9.7195,7.6289,6.9387,12.3506,13.5479,18.8862,22.6953.8413,1.178,1.9805,2.3579,3.3989,3.5229,3.9331-.687,7.9209-1.2727,11.7974-1.842,7.8887-1.1589,15.3398-2.2534,22.2256-4.104,7.0483-1.8923,13.8091-4.384,20.3467-6.7935,13.4312-4.9497,27.3193-10.0679,43.9609-10.0679,4.4434,0,9.2256.5146,14.5298,1.5681,1.5723-3.2903,3.3457-7.4636,5.7036-13.012,2.7764-6.5339,1.0386-10.7915-.8013-15.2991-1.2642-3.0974-2.5713-6.3003-2.0278-9.8962.5962-3.9424.9199-7.1589,1.2051-9.9968.6392-6.356,1.144-11.3765,4.084-18.8914,1.6519-4.2214,17.7412-15.7654,26.5801-15.7654.1694,0,.3384.0034.5039.01,10.9741.4519,16.2109,16.3386,16.772,18.1487.5591,1.8042,1.3169,3.5886,2.1196,5.4775,2.4375,5.7378,5.2007,12.2412,4.0669,22.4729-.748,6.7507-2.7363,9.7913-4.334,12.2344-1.5127,2.3135-2.8193,4.3115-3.2817,11.3479-.4507,6.8518-1.1904,10.7759-1.6797,13.3728-.562,2.9797-.7129,3.7808-.1191,6.3225.689,2.9521,1.6455,4.7424,3.0171,6.6348,2.7178.2358,5.4287.3831,8.0688.5264,8.9751.4873,18.2563.9912,27.876,4.9751,12.5757,5.1965,24.1431,14.3579,35.3291,23.2175,4.7085,3.7292,9.1797,7.2703,13.5811,10.405,3.5425-6.0664,8.8149-11.5405,12.6099-15.481,5.4971-5.7068,10.5796-9.3755,13.6167-11.5676,5.1523-3.7195,8.3525-5.3691,11.4478-6.9646,2.605-1.343,5.0659-2.6113,8.9097-5.2048,3.8965-2.6292,8.1265-6.3228,16.5542-13.6812,10.2109-8.916,15.3364-13.3911,19.248-17.8516,3.5225-4.0168,5.5234-6.9006,7.2891-9.4451,2.479-3.5723,4.6196-6.6572,9.4355-10.999,11.2339-10.1233,15.6689-10.1233,17.1265-10.1233,1.4849,0,2.873.4211,4.0142,1.218,5.6836,3.9675,2.186,13.7625-1.749,21.2808-2.5664,4.9045-4.9526,7.4641-8.2554,11.0068-1.7378,1.8638-3.9004,4.1833-6.646,7.446-3.7427,4.4473-5.2812,6.7371-7.0635,9.3882-1.8999,2.8276-4.0542,6.0322-9.0342,12.2332-4.2065,5.2378-6.7202,7.9985-8.5557,10.0144-2.1235,2.3328-2.9185,3.2056-4.4102,5.7996-2.2065,3.8372-2.7129,5.9121-3.4136,8.7842-.71,2.908-1.5928,6.5271-4.3223,12.4424-3.4463,7.468-7.1909,12.8586-12.3735,20.3201-4.2568,6.1284-7.103,10.2258-9.605,13.0347,1.3682,1.3552,2.6807,2.7388,3.9565,4.1704,4.752,5.3237,8.5264,12.9331,12.6182,21.6023l.6587,1.3909c2.7329,5.7759,5.314,11.2314,7.9419,15.1472,3.3809,5.0408,6.8438,8.9714,10.1929,12.7727.7969.9048,1.5864,1.8008,2.3652,2.7004,3.7974,4.3904,8.0894,9.6648,11.6787,17.2849,3.8594-1.6526,7.1592-2.3003,9.1465-2.6902,3.4829-.6838,5.6123-.7258,7.4912-.7629,1.4653-.0291,2.8501-.0564,5.0586-.4045,2.2197-.3496,4.9116-1.198,10.2754-2.8884,3.0864-.9727,4.418-2.4033,5.96-4.0598,1.1157-1.1985,2.3799-2.5569,4.2046-3.4802,1.8032-.9126,3.2466-1.7012,4.5205-2.3972,2.9111-1.5903,5.2109-2.8467,9.1162-4.1609.6831-.23,1.3989-.3279,2.394-.3279,1.0322,0,10.1689.1321,13.1274,4.7139,3.1426,4.8647-1.604,10.5498-4.7124,13.5054-.6313.6001-1.2363,1.2632-1.8765,1.9656-1.9751,2.1658-4.4326,4.8611-9.2305,7.4426-2.9727,1.5991-4.6987,2.0012-6.4917,2.3298-1.166.2136-2.1733.3982-5.1367,2.1023-3.0767,1.7688-4.9336,2.6555-6.1626,3.2424-1.3662.6526-1.6504.7883-2.5229,1.541-1.3691,1.1809-1.7505,1.8369-2.5098,3.1438-.8281,1.4241-1.9624,3.3748-4.4858,6.0786-3.1255,3.3489-5.9937,5.343-9.9634,8.1028-1.5527,1.0796-2.9937,4.1792-4.0459,6.4426-1.1899,2.5603-2.4121,5.1897-4.7295,6.3188.4795,3.1289,1.0024,6.0608,1.6216,8.6965,1.4277,6.0762,3.0742,11.3843,4.667,16.5178,3.418,11.0168,6.646,21.4229,6.646,36.2461,0,1.9016-.1494,3.897-.4531,6.0374,1.5576,1,3.1646,1.9526,4.9678,2.9495,5.0293,2.7788,11.3604,5.2161,23.9746,10.0715,4.6855,1.804,9.0132,2.644,13.6177,2.644,2.4546,0,4.686-.2317,6.8442-.4558,1.9937-.207,3.877-.4026,5.7817-.4026,1.6431,0,3.1133.1492,4.4956.4565,4.7451,1.0544,8.5996,1.7957,12.0005,2.4497,7.3042,1.405,13.0737,2.5149,21.5469,5.606,2.9058,1.0598,18.542,14.1074,17.583,22.6528-.9341,8.3264-14.478,10.2024-22.4683,10.5793-2.2852.1079-4.4839.3574-6.811.6213-3.4521.3916-7.022.7969-11.2798.7969h-.0015c-4.5386,0-9.1479-.4768-14.0918-1.4578-7.3013-1.4485-10.4282-3.083-13.1865-4.5249-2.8979-1.5149-5.6353-2.9458-14.7656-4.5149-7.9453-1.3652-12.2993-2.4287-15.4785-3.2053-3.5815-.875-5.0645-1.2371-8.6138-1.2371l-.1489.0002c-5.418.0159-7.959.8357-11.4761,1.9702-1.4482.4673-3.019.9741-4.9067,1.4651-.5566,5.0503-.7876,9.8542-1.0117,14.5273-.2178,4.5264-.4253,8.8477-.9023,13.2485,4.6729,2.2185,7.9497,4.7131,9.9297,6.2207,3.4824,2.6514,5.1934,4.5029,6.8477,6.2935,1.291,1.3967,2.5103,2.7161,4.7661,4.5715,2.2705,1.8679,5.3613,3.7175,11.519,7.4028,3.8267,2.2903,6.5894,2.3547,9.5137,2.4231,2.0566.0481,4.1831.0979,6.3706.9617,2.3994.9475,4.3701,1.6548,6.1089,2.2788,3.8896,1.396,6.9619,2.4988,11.3862,5.0317,2.2627,1.2952,9.9121,10.9768,8.2749,16.8662-1.1143,4.0081-5.3174,6.0403-12.4922,6.0403-.9614,0-1.9497-.0408-2.8579-.1177-1.1455-.0969-2.3047-.1123-3.5322-.1282-3.7959-.0498-8.0986-.1062-14.3608-2.3989-3.8369-1.405-5.5103-2.5862-7.2993-3.9844-1.2793-.9998-2.3838-1.863-6.7041-3.3076-4.2119-1.4087-6.5835-2.4089-8.1528-3.071-1.8101-.7632-2.2969-.9683-3.918-1.1848-.8037-.1074-1.5068-.1594-2.1499-.1594-1.1943,0-2.1089.1848-3.3745.4409-1.8794.3801-4.2183.8533-8.0186.8533-.3857,0-.7876-.0049-1.2075-.0151-5.6533-.1396-9.8921-1.1636-15.7588-2.5808-.4712-.114-1.0259-.1711-1.6519-.1711-.5039,0-1.0474.0356-1.6396.1082-2.5132,3.1758-5.1382,6.3167-7.6885,9.3684-4.7925,5.7341-9.3193,11.1501-12.6162,16.1736-1.5391,2.3442-3.0488,4.7866-4.6621,7.5459,2.2339,4.5349,3.5107,10.2908,4.7534,15.8909,1.0435,4.7012,2.2256,10.0295,3.627,12.0149,5.1904,7.353,7.9883,14.0134,9.6597,17.9929,2.8306,6.7397,3.7686,10.8662,4.6753,14.8569.7646,3.3625,1.4863,6.5386,3.3711,11.5447,1.9062,5.0647,5.0171,10.6389,11.2153,21.7441,4.2554,7.6245,9.2061,10.6318,13.5747,13.2849,2.916,1.7715,5.6709,3.4446,7.812,6.1353,2.8384,3.5662,5.2217,6.3743,7.3242,8.8516,4.5464,5.3569,8.1377,9.5879,12.4551,16.9846,1.8179,3.1138,4.4521,22.2449-1.5684,28.1677-1.0879,1.0703-3.0527,2.3459-6.2354,2.3459-6.7417,0-15.6689-5.9631-17.3901-7.1584-1.7559-1.2192-3.5503-2.2839-5.4497-3.4111-5.439-3.2275-11.6035-6.8857-18.666-15.3154-4.5645-5.4482-5.8423-8.6018-6.9692-11.384-1.1431-2.8201-2.2222-5.4836-7.9189-11.9062-5.0459-5.6887-7.6035-9.0583-9.4707-11.5186-2.1323-2.8091-2.9302-3.8604-5.5879-5.9028-3.9678-3.0491-6.3643-3.8511-9.6816-4.9607-3.354-1.1221-7.5273-2.5186-13.9194-6.4124-8.0864-4.9265-13.4829-10.0505-20.9521-17.1426-4.2119-3.9993-12.1377-5.8674-18.5063-7.3687-1.8418-.4343-3.5361-.8335-5.0508-1.2603-2.5811,2.1924-4.5625,4.2275-6.4912,6.2087-4.313,4.4304-8.3867,8.615-17.3115,12.9551-9.7495,4.7361-24.7632,7.8118-38.0098,10.5251-6.9702,1.428-13.5542,2.7766-18.7271,4.2156-3.9458,1.0967-7.5386,2.1667-10.9912,3.2085-.5381,2.6172-1.937,5.2646-3.2412,7.7322-.6558,1.2412-1.6323,3.0898-1.8325,3.8523.0742,4.1992-.8252,7.4851-1.3667,9.4624-.9399,3.4338-1.9707,5.4131-2.8799,7.1592-.7095,1.3623-1.3218,2.5386-1.9785,4.5532-.6465,1.9829-.9604,4.5916-1.5859,9.7888-.293,2.4333.4854,3.5896,1.6641,5.3396.936,1.3896,2.1006,3.1189,2.3472,5.416.1958,1.8281.4229,3.3167.623,4.6299.4624,3.031.8618,5.6484.4795,9.7188-.2959,3.1602-6.4175,11.5022-11.6021,12.6223-.5029.1084-1.0215.1636-1.541.1636-5.5845,0-9.4678-6.134-10.5249-8.0139-.3765-.6692-.8564-1.3618-1.3647-2.0952-1.7109-2.4695-3.8403-5.543-4.6123-10.9302-.4897-3.416-.0586-5.3167.4663-7.1191.2935-1.0078.5059-1.7361.002-4.4719-.6133-3.3274-.7598-5.2903-.8564-6.5891-.1011-1.3501-.1025-1.376-.4399-2.0784-.626-1.3054-1.1104-1.7197-2.2798-2.7209-1.3325-1.1404-3.1572-2.7021-5.2305-5.7917-2.5894-3.8591-3.6406-7.2224-4.9717-11.4805-.3901-1.2493-3.8906-3.686-5.3853-4.7268-2.3975-1.6689-5.4971-3.8271-5.707-6.9011-5.2524-.959-10.7202-2.3118-16.0894-3.6401-5.8818-1.4551-11.437-2.8296-16.0215-3.4971-5.5742-.8142-10.584-1.3154-15.4287-1.8003-4.7666-.4771-9.3096-.9316-13.9141-1.6399-.2295.2634-.3804.469-.4795.6243-4.6221,7.2439-9.4922,12.1174-12.4023,15.0293-4.9316,4.9355-8.2373,7.2539-11.4346,9.4961-2.6792,1.8792-5.21,3.6543-8.9287,7.1055-3.7598,3.4897-7.5439,8.231-15.083,17.677-5.1484,6.4509-6.0088,11.8613-6.7681,16.635-.5137,3.229-.9985,6.2788-2.6182,9.1716-2.1172,3.781-3.7314,6.8899-5.1553,9.6326-3.0864,5.9441-5.5239,10.6392-10.4976,17.1233-2.1851,2.8499-14.916,9.5625-21.8311,9.5625Z"/>
        <path class="cls-1" d="M218.2026,10c4.3275.001,11.3852,5.6631,15.4909,9.8726,6.6032,6.7705,13.7986,10.7002,21.1566,23.9658,7.2991,13.1597,1.4899,11.7925,11.2379,28.2534,9.2291,15.585,7.8894,16.7173,13.1744,22.687,8.1859,9.2466,11.7924,6.9736,23.4137,17.5439,7.2351,6.5811,11.6269,12.7285,18.1839,21.9062,1.6034,2.2441,3.7621,4.1958,6.1864,5.9248,12.2476-2.2812,25.2074-3.3667,36.5997-6.4287,21.79-5.8501,39.38-16.6899,63.01-16.6899,5.6781,0,11.4554.9116,17.2392,2.2739,2.1273-3.8994,4.2629-8.9189,7.5958-16.7622,5.6089-13.2002-3.4256-20.1943-2.4869-26.4033,1.9263-12.7383,1.0505-17.7144,5.0016-27.8145.6645-1.6982,14.5031-12.5879,21.9241-12.5869.1001,0,.1999.002.2975.0059,5.8044.2393,10.48,9.0771,12.202,14.6333,2.365,7.6309,7.3449,13.7173,5.9927,25.9199-1.3412,12.105-6.6202,8.3584-7.6355,23.8047-.9613,14.624-3.1876,14.6963-1.6787,21.1602,1.1393,4.8799,3.0196,7.4546,5.2376,10.2661,12.7402,1.3501,24.4364.2822,36.6805,5.353,17.57,7.2598,33.84,23.2896,49.25,34.0098,1.203.8374,2.3986,1.6445,3.59,2.4365,2.4484-7.2412,9.4641-14.5444,14.1949-19.4561,5.0804-5.2749,9.669-8.6196,12.9411-10.9819,9.0511-6.5337,11.422-6.1372,20.2275-12.0791,4.1545-2.8032,8.4519-6.5552,17.0464-14.0596,10.3918-9.0732,15.5876-13.6099,19.7188-18.3208,8.4756-9.6655,8.5143-12.9961,16.3139-20.0273,1.1944-1.0767,9.8027-8.8379,13.778-8.8369.4488,0,.8392.0991,1.1525.3179,2.442,1.7046-.7609,9.9785-3.3167,14.8623-3.5104,6.708-6.3983,8.1646-14.2978,17.5522-7.8364,9.3125-6.481,9.6455-16.1701,21.71-9.1736,11.4219-10.2083,10.8989-13.4017,16.4521-4.9464,8.6006-2.7015,10.2681-7.9418,21.624-3.2624,7.0698-6.7433,12.0811-11.9399,19.5625-6.3626,9.1602-9.5439,13.7397-12.6917,15.5806-.0995.0581-.1981.0977-.2975.1528,2.6371,2.3232,5.2116,4.8423,7.7142,7.6509,4.41,4.9399,8.2,12.7197,11.83,20.4097,3.01,6.3501,5.91,12.6304,8.97,17.1904,4.38,6.5298,8.8,11.1899,12.93,15.96,4.42,5.1099,8.51,10.3599,11.85,18.1797.164.3843.309.8013.4648,1.2002,1.9714-.0508,3.7391-.1763,4.8544-.6621,3.4416-1.4995,6.3374-2.085,8.3989-2.4897,5.7022-1.1196,6.8801-.2705,12.3655-1.1348,2.588-.4077,5.3927-1.2915,11.0022-3.0596,6.7824-2.1377,8.0551-6.3989,10.9169-7.8472,5.8713-2.9712,7.8501-4.5562,12.9739-6.2803.1309-.0439.4117-.0669.7993-.0669,2.1997.0005,7.8318.73,8.9273,2.4268,1.019,1.5771-1.8924,5.2051-3.9579,7.1689-2.837,2.6968-4.5015,5.6538-10.0305,8.6284-5.4847,2.9512-4.8881.5542-11.7521,4.501-6.4987,3.7373-6.9603,3.1768-9.4589,5.332-3.8701,3.3389-2.9484,4.8433-7.3847,9.5972-2.7617,2.959-5.3291,4.7441-9.1621,7.4092-4.6929,3.2627-6.4619,12.2769-8.3804,12.4321l-4.0262-6.0796c.9566,7.3491,1.8635,14.5005,3.2397,20.3545,4.55,19.3701,11.18,30.8599,11.18,51.6201,0,2.6724-.349,5.4863-.9297,8.3848,2.1196,1.4805,4.5916,3.0801,8.0261,4.9775,5.329,2.9448,11.7515,5.4175,24.5965,10.3623,6.0952,2.3462,11.1169,2.9775,15.4145,2.9775,5.0108,0,9.0356-.8584,12.6261-.8584,1.1767,0,2.3081.0923,3.4108.3374,15.0861,3.3525,21.0251,3.5332,32.9182,7.8721,2.0271.7393,14.8938,12.356,14.3279,17.3979-.4472,3.9863-11.083,5.8286-17.7354,6.1426-5.8938.2783-11.0526,1.4121-17.8561,1.4121-3.7433,0-7.9852-.3433-13.1193-1.3618-14.3495-2.8467-9.7486-5.9131-28.0785-9.063-17.2295-2.9604-17.3752-4.5146-24.9357-4.5146-.0548,0-.1112.0005-.1668.0005-9.8897.0288-11.9666,2.5825-20.8977,4.3413-1.744,12.5581-1.2061,23.2446-2.6965,34.1216.9944.9424,1.9354,1.6919,2.7979,2.0913,4.3116,1.9966,7.2994,4.2451,9.4149,5.8555,5.8521,4.4556,6.0384,6.2837,11.4664,10.7485,2.561,2.1064,5.7547,4.0176,12.1422,7.8403,7.7231,4.6221,12.8253,2.2451,16.6009,3.7363,7.7464,3.0586,10.9095,3.5991,16.8474,6.999,1.012.5791,6.7469,8.291,5.9417,11.188-.506,1.8203-4.3247,2.3794-7.6754,2.3794-.8644,0-1.6983-.0371-2.4354-.0996-4.9365-.4185-9.1336.4917-16.5956-2.2407-7.4023-2.71-4.6326-4.1602-14.1365-7.3384-8.9983-3.0093-8.8557-3.917-12.9956-4.4702-1.0794-.144-1.9951-.2036-2.8115-.2036-3.8115,0-5.4507,1.2944-11.3928,1.2944-.3461,0-.7072-.0044-1.0838-.0137-5.1219-.1265-8.9686-1.0557-14.712-2.4434-.8997-.2173-1.8481-.3096-2.8219-.3096-1.4301,0-2.9148.1997-4.3797.4976-7.4078,9.5493-16.1711,18.9155-21.7454,27.4087-2.3214,3.5356-4.3571,6.957-6.2505,10.2847,5.2376,7.5776,5.879,24.8657,10.0644,30.7944,4.7796,6.7705,7.3386,12.7695,9.1345,17.0454,4.9675,11.8281,3.6576,14.7539,7.9764,26.2266,2.0376,5.4131,5.2014,11.082,11.5291,22.4199,7.6509,13.7085,17.4315,14.5566,21.8408,20.0967,9.0465,11.3662,13.3568,14.936,19.3734,25.2432,1.0254,1.7568,2.9814,18.4053-.757,22.0825-.6481.6377-1.593.9106-2.7292.9106-4.0447,0-10.5034-3.4634-14.5379-6.2651-7.0976-4.9287-14.2339-7.2065-23.1349-17.8311-8.8297-10.5396-3.3813-10.3203-14.9803-23.397-10.9818-12.3809-9.9763-13.6289-15.7525-18.0679-8.9467-6.8755-11.7879-4.2109-24.0462-11.6787-7.6315-4.6489-12.6373-9.4023-20.1107-16.4985-7.3979-7.0244-22.0652-8.2383-28.044-10.6006-10.3842,8.1187-11.9136,13.9277-24.9453,20.2651-14.08,6.8398-40.54,10.1499-55.89,14.4199-5.4628,1.5181-10.3026,3-14.8549,4.375,2.1704,3.3721-4.9649,11.6245-4.8737,15.1387.0909,3.4985-.6465,6.269-1.1858,8.2388-1.4916,5.4478-3.0994,6.2969-4.7901,11.4829-.7978,2.4468-1.1306,5.2114-1.7962,10.7407-.805,6.6855,3.6865,8.9263,4.004,11.8867.6514,6.0737,1.5728,8.2695,1.0964,13.3481-.0812.8657-4.6381,7.5449-7.6796,8.2021-.1598.0347-.3217.0508-.4854.0508-2.2994,0-4.9223-3.2515-6.1672-5.4648-1.8316-3.2568-4.5596-5.519-5.3855-11.2837-.8194-5.7188,1.7665-4.5664.4359-11.7881-1.2598-6.8369-.356-7.1118-1.7049-9.9238-2.0894-4.356-4.3579-3.9062-7.867-9.1362-2.1846-3.2559-3.0536-6.0356-4.3511-10.186-1.5885-5.0815-11.5499-8.9854-10.7817-10.7612l14.2116-3.1909c-2.1283.0986-4.3488.1509-6.6846.1509-13,0-31.5-6.6001-44-8.4199-12.2097-1.7837-21.81-2.0991-31.7284-3.832-1.2949,1.1216-2.3531,2.2144-3.0294,3.2739-4.2423,6.6484-8.6045,11.063-11.7241,14.1851-8.6291,8.6353-11.6779,8.5352-20.228,16.4712-4.0341,3.7441-7.8877,8.5728-15.5951,18.2295-9.3191,11.6763-6.5439,20.5967-9.8355,26.4756-6.7534,12.062-8.3456,17.1445-15.2574,26.1562-1.0462,1.3638-12.1751,7.6055-17.8638,7.6055-.7162,0-1.3465-.0991-1.8593-.3193-3.6254-1.5562-2.8021-11.293-1.5025-17.1377,1.7851-8.0269,1.2213-15.1328,7.3737-26.7993,6.1034-11.5732,7.8725-6.6953,15.2132-21.6216,6.95-14.1318,8.4114-13.6958,10.241-20.3823,2.8339-10.3564-.5364-11.8994,1.6264-25.3862,1.3464-8.3965,3.7301-14.5171,7.289-23.6558.6401-1.644,1.0195-3.4321,1.2199-5.292-15.6302-8.7314-28.8259-11.9536-42.2897-23.6108-1.1571-1.0015-2.2754-2.0264-3.3635-3.0703-.7917.4648-1.4725.9434-1.9871,1.4458-4.3211,4.2192-8.3429,6.752-11.2126,8.5366-7.9385,4.937-10.1946,4.3315-17.9524,8.7607-3.6601,2.0898-7.3746,5.019-14.8036,10.8784-8.9824,7.0845-8.466,14.2197-11.9444,18.0308-7.1362,7.8184-9.2085,11.3311-15.9319,16.8477-.8643.7095-7.764,2.7754-12.4229,2.7754-1.5173,0-2.7977-.2192-3.5536-.7759-2.4325-1.7915-.1231-8.9092,1.8638-13.0415,2.7287-5.6748,3.5456-11.0718,10.165-18.7007,6.5665-7.5674,7.0364-3.6216,15.1094-13.4741,7.6434-9.3281,8.6573-8.7485,11.1859-13.416,3.9166-7.2295,1.672-8.9673,5.6331-18.6479,2.466-6.0269,5.3094-10.1763,9.5545-16.3711,2.7214-3.9712,3.337-9.8555,3.708-14.7524-6.7099-8.5967-14.0853-17.064-20.4676-26.0854-3.74-5.29-7.14-10.7798-9.86-16.5996-3.8372-8.2202-5.1852-17.8242-6.2211-27.5605-8.1158-.6567-18.7605-4.7671-25.0307-4.7671-.5822,0-1.1271.0352-1.6283.1123-4.218.6479-7.9758.8462-11.2451.8462-2.886,0-5.3914-.1548-7.4951-.291-12.411-.8047-14.3831-3.2061-26.2055-4.4199-2.1064-.2163-4.3129-.3091-6.9218-.3091-4.2998,0-9.6911.252-17.5167.6177-15.203.7109-20.1684,8.8306-26.882,10.2607-13.7741,2.9341-18.7357,5.1304-30.2808,5.894-.0229.0015-.0473.0024-.0739.0024-2.2481,0-17.2034-5.4307-18.7594-10.2085-1.2448-3.8213,6.7643-9.7344,12.1128-12.6665,7.3459-4.0273,12.4081-9.2344,25.4759-12.3633,3.8231-.9155,6.2969-1.1577,8.3049-1.1577,2.2632,0,3.9337.3076,6.2767.3076,2.627,0,6.0995-.3872,12.1974-2.0308,15.4912-4.1748,16.1394-2.7627,22.4887-5.855,9.8346-4.79,8.7511-8.4072,20.5315-15.8145,7.3341-4.6113,13.6227-6.8994,23.0117-10.3154,10.7643-3.9165,18.9837-19.668,23.3146-21.0586-.0002-.0947-.004-.188-.004-.2832,0-11.417,3.6348-22.4824,6.4515-33.4243-1.2283-.5698-2.4685-1.1899-3.7456-1.8804-11.1816-6.0444-10.4111-9.4067-19.6621-13.1821-5.9726-2.4375-6.4787-1.1118-20.8486-3.9873-4.467-.894-7.3936-1.1724-9.6064-1.1724-3.6541,0-5.3594.7593-8.8341.7593-1.5705,0-3.5035-.1553-6.1398-.606-12.0983-2.0679-17.0246-6.5103-23.9616-9.7402-5.0506-2.3516-12.7052-7.2603-11.8-10.8184,1.145-4.5005,14.752-10.4326,16.5533-10.4316,10.5684.0029,15.2224,1.707,27.9527,3.5552,6.092.8843,11.033,7.7466,24.3653,7.7466.247,0,.499-.0024.7518-.0073,11.4955-.2188,17.2433-.3281,22.2929-1.1846,8.9324-1.5156,11.5792-3.3716,18.7529-4.8042.4795-2.2666,1.069-4.5166,1.838-6.7422,4.48-12.9302,14.83-23.7803,21.18-35.7104,4.2437-7.9775,7.6161-16.1328,11.383-24.0103-3.3448-4.0737-5.6797-7.0557-7.6664-11.5664-3.4319-7.7925-1.3317-9.8979-4.7755-15.4878-2.2234-3.6094-3.1676-2.8433-9.9911-9.4365-7.207-6.9639-7.7238-3.2891-13.5955-8.5503-5.9191-5.3037-6.5536-9.981-8.9392-14.4517-1.737-3.2549-3.7061-9.1289-1.4321-11.3281,1.8827-1.8208,7.1297-2.3687,10.8201-2.3687,1.9478,0,3.4623.1523,3.8191.3511,6.06,3.3721,7.8887,6.0479,14.2789,11.3994,3.1145,2.6084,2.4865,9.1738,10.5887,13.4209,6.7011,3.5127,10.0518,5.269,13.3704,6.2798,7.034,2.1426,9.1204,1.0562,16.3095,3.6143,1.7559.625,3.9934,1.4443,6.453,2.7583,8.1664-5.4292,16.966-10.165,24.6596-16.3643-.1653-5.8784-.4016-11.3276-1.846-14.5293-3.7298-8.2681-5.2336-15.2461-6.2753-20.2139-2.8812-13.7422-.866-16.6138-3.1239-29.8394-1.0652-6.2397-3.2875-12.9888-7.7323-26.4863-5.3741-16.3198-15.708-19.2627-19.2954-26.1318-7.3603-14.0928-11.2506-18.8242-15.575-31.1499-.737-2.1006.6191-20.3965,5.4-23.5718.5521-.3667,1.2116-.5322,1.9518-.5322M218.2043,0c-2.7285-.0005-5.3176.7612-7.4874,2.2031-4.6255,3.0723-7.5199,9.0859-9.1076,18.9248-.6953,4.3086-1.6449,12.1528-.1945,16.2866,3.2351,9.2212,6.3013,14.667,10.1831,21.561,1.7285,3.0698,3.6876,6.5493,5.964,10.9077,2.1156,4.0513,5.1537,6.8071,8.0919,9.4727,4.0904,3.7104,7.9538,7.2153,10.5691,15.1577,4.2834,13.0073,6.4333,19.5361,7.3731,25.0415.9331,5.4653,1.0443,8.8779,1.1619,12.4907.1521,4.6709.3094,9.5005,2.0321,17.7178,1.0072,4.8037,2.6931,12.8433,6.947,22.2734.3907.9365.6204,3.252.7607,5.5967-3.5646,2.5396-7.3811,4.9062-11.3575,7.3721-1.3016.8076-2.6237,1.6274-3.9509,2.4629-.898-.3481-1.6661-.6211-2.2501-.8291-4.8307-1.7188-7.9565-2.1436-10.7142-2.5186-1.9776-.2686-3.5396-.481-6.0349-1.2407-2.421-.7373-5.5024-2.353-11.6414-5.5708-2.0803-1.0903-2.5205-2.0942-3.584-4.52-.9748-2.2227-2.3098-5.2676-5.2269-7.7104-1.8791-1.5737-3.3107-2.8789-4.6954-4.1406-3.22-2.9351-6.0009-5.4702-11.1419-8.3306-1.7408-.9683-3.8824-1.6128-8.6808-1.6128-8.2394,0-14.2189,1.7432-17.7732,5.1812-7.8529,7.5942-2.3205,19.6958-.4378,23.2236.4283.8027.8278,1.7461,1.2904,2.8389,1.6043,3.7896,3.8015,8.9795,9.7979,14.3525,3.8995,3.4937,6.7527,4.6411,9.341,5.5166,1.0965.3711,1.7005.5757,3.9791,2.7773,3.422,3.3066,5.5986,5.019,7.039,6.1523.4249.3345.9533.75,1.0863.8838h0c-.0013,0,.0952.1206.3003.4536.715,1.1606.7669,1.5034,1.0549,3.4062.3764,2.4868.8919,5.8921,3.0831,10.8677,1.5342,3.4834,3.2111,6.2183,5.1575,8.8823-.454.9922-.9027,1.979-1.3461,2.9541-2.2651,4.9805-4.6074,10.1304-7.2048,15.0132-2.2312,4.1919-5.1142,8.377-8.1666,12.8081-5.1492,7.4751-10.4739,15.2046-13.6337,24.3247-.1999.5786-.3919,1.1641-.5766,1.7583-.9302.2749-1.7959.5464-2.6239.8062-2.8521.8945-5.3154,1.6675-9.6144,2.397-4.3131.7314-9.8264.8359-20.8103,1.0454-.1873.0034-.3764.0054-.5616.0054-5.9094,0-9.1464-1.7554-12.8945-3.7886-2.83-1.5347-6.0376-3.2739-10.0339-3.8545-3.9073-.5669-7.0724-1.1289-9.8649-1.6245-6.3956-1.1353-11.4474-2.0317-19.522-2.0342h-.0047c-3.7657,0-9.3052,2.5762-13.2897,4.7383-7.5885,4.1172-11.7044,8.3203-12.9529,13.2275-2.8319,11.1309,9.6049,18.7808,17.2703,22.3496,1.536.7153,3.0665,1.5659,4.6867,2.4658,5.0234,2.7915,11.2751,6.2651,21.8111,8.0659,2.9479.5039,5.5074.749,7.8246.749,2.4324,0,4.2589-.2632,5.7264-.4746,1.1464-.1655,1.9745-.2847,3.1078-.2847,1.8556,0,4.3559.3198,7.644.978,6.8108,1.3628,10.8094,1.8496,13.4554,2.1719,2.9134.355,3.5196.4287,5.577,1.2686,3.2372,1.3208,4.3431,2.2905,6.5463,4.2222,1.9858,1.7417,4.5719,4.0088,8.9355,6.6631-2.0325,7.5698-4.0034,15.3618-4.579,23.6108-1.5315,1.5405-3.0421,3.3569-4.7008,5.3511-3.4666,4.168-8.2145,9.8765-12.1968,11.3252-9.6826,3.5229-16.6786,6.0684-24.9155,11.2471-6.6338,4.1714-9.8776,7.4165-12.4841,10.0239-2.2689,2.27-3.5186,3.52-7.1032,5.2661-2.301,1.1206-3.0571,1.2637-6.2395,1.8652-2.8532.5396-7.1651,1.355-14.4726,3.3242-5.6093,1.5117-8.1626,1.6865-9.5952,1.6865-.7946,0-1.5484-.0581-2.4213-.126-1.0999-.085-2.3466-.1816-3.8555-.1816-3.216,0-6.4956.4419-10.6336,1.4326-11.2227,2.687-17.7273,6.8828-22.9535,10.2544-1.72,1.1094-3.3446,2.1572-5.0009,3.0654-7.8603,4.3091-20.4968,13.2261-16.8138,24.5322,1.6177,4.9673,6.2,9.0571,14.4205,12.8701,2.1447.9951,9.482,4.2412,13.8471,4.2412.26,0,.499-.0088.7246-.0234,8.7459-.5786,14.1636-1.9126,21.0227-3.6011,3.0222-.7441,6.4478-1.5879,10.6906-2.4917,4.1588-.8857,7.4621-2.9688,10.3766-4.8066,4.0067-2.5269,7.7914-4.9131,14.8891-5.2451,7.5441-.3525,12.9856-.6069,17.0496-.6069,2.3196,0,4.1945.0815,5.9005.2568,4.8081.4937,7.7097,1.2002,10.7819,1.9482,3.88.9448,8.2776,2.0156,15.7979,2.5029,2.4325.1577,5.0652.312,8.142.312,4.3575,0,8.5173-.3125,12.7159-.9546.0246-.0015.0763-.0039.1576-.0039,2.0144,0,6.1818,1.0376,9.8586,1.9531,2.0256.5049,4.0804,1.0166,6.1401,1.4668,1.07,7.689,2.7658,15.7988,6.1917,23.1377,2.7184,5.8159,6.236,11.749,10.756,18.1426,4.3533,6.1533,9.0992,12,13.6889,17.6543,1.5852,1.9531,3.1137,3.8359,4.6096,5.709-.2904,2.3037-.7758,4.8135-1.6224,6.0488-4.4651,6.5156-7.6911,11.2236-10.5609,18.2368-2.3364,5.7104-2.9501,9.4165-3.3983,12.123-.3841,2.3198-.5431,3.2798-1.7722,5.5483-.758,1.3994-.9688,1.6201-2.6099,3.3369-1.5341,1.6055-3.8526,4.0312-7.5184,8.5049-3.2722,3.9937-4.4877,4.7285-6.0265,5.6582-2.6537,1.6045-5.1552,3.2837-8.9007,7.6001-5.9628,6.8721-8.1899,12.5-9.9794,17.022-.5494,1.3882-1.0681,2.6992-1.645,3.8989-5.6166,11.6816-5.1839,20.7119,1.2184,25.4268,2.4885,1.833,5.5908,2.7241,9.4837,2.7241,4.4045,0,14.7321-1.7329,18.768-5.0464,5.255-4.312,8.1861-7.7334,11.58-11.6953,1.5099-1.7632,3.2211-3.7607,5.3926-6.1396,2.453-2.6875,3.6499-5.6235,4.7059-8.2144,1.322-3.2432,2.3663-5.8047,6.0454-8.7065,7.0277-5.543,10.5554-8.3247,13.5691-10.0459,3.0075-1.7168,4.9215-2.4863,7.1379-3.3774,2.8794-1.1572,6.1429-2.4692,11.1374-5.5757,1.8976-1.1802,4.6346-2.8823,7.7593-5.3462,8.8609,6.9829,17.6535,11.043,26.1852,14.9819,2.5419,1.1738,5.1296,2.3687,7.7602,3.6577-2.9914,7.7573-5.1898,14.0098-6.5156,22.2783-1.2211,7.6147-.9266,12.1206-.6899,15.7412.2041,3.1235.3166,4.8438-.708,8.5884-.6566,2.3999-1.0384,3.0464-2.6447,5.7671-1.4506,2.4565-3.6429,6.1694-6.9244,12.8418-3.2076,6.522-4.7762,8.0527-6.5924,9.8247-2.7097,2.644-5.2191,5.3379-8.4928,11.5454-5.2986,10.0474-6.4171,17.5796-7.3159,23.6318-.2946,1.9839-.573,3.8579-.974,5.6611-1.9223,8.6445-3.5273,23.8418,7.3194,28.4976,1.7465.75,3.6992,1.1304,5.8039,1.1304,4.0125,0,9.0534-1.436,14.9825-4.2676,8.291-3.96,10.1915-6.4375,10.8161-7.252,5.241-6.8335,7.7682-11.7007,10.9679-17.8633,1.407-2.71,3.0018-5.7812,5.0803-9.4937,2.0549-3.6699,2.6595-7.4731,3.1931-10.8281.7262-4.5674,1.4123-8.8813,5.7327-14.2949,7.3897-9.2588,11.0961-13.9023,14.582-17.1377,3.4682-3.2192,5.8631-4.8989,8.3986-6.6772,3.2155-2.2549,6.86-4.811,12.1002-10.0552,2.7711-2.7729,7.2358-7.2412,11.7105-13.7983,3.6532.4854,7.2827.8486,11.0491,1.2256,4.7898.479,9.7425.9746,15.203,1.7725,4.3469.6328,9.787,1.9785,15.5466,3.4038,4.4698,1.1055,9.0066,2.228,13.4685,3.1392.669,1.3496,1.6657,2.6841,3.0693,3.9331,1.09.9702,2.3096,1.8193,3.601,2.7183,1.0495.7305,2.9109,2.0264,3.6932,2.8271,1.3061,4.1641,2.5366,7.8413,5.369,12.0625,2.4543,3.6582,4.6672,5.5518,6.1315,6.8052.3151.2695.7465.6387.8435.7534h0s.0379.0532.1083.188c.0109.1367.0225.2915.0328.4302.1049,1.4058.2633,3.5308.9253,7.1235.2014,1.0933.222,1.6279.2223,1.793-.0263.0972-.0718.2534-.1072.375-.6283,2.1567-1.2459,4.8267-.6154,9.2266.9392,6.5562,3.6553,10.4756,5.4525,13.0693.4585.6616.8545,1.2334,1.1157,1.6978,1.3936,2.478,6.5856,10.563,14.8834,10.563.873,0,1.746-.0928,2.5947-.2759,3.6354-.7856,7.0901-3.2212,10.5646-7.4463,4.5845-5.5757,4.8489-8.3931,4.9619-9.5962.4393-4.6836-.0242-7.7222-.5149-10.9399-.2019-1.3232-.4106-2.6919-.5947-4.4092-.3785-3.5288-2.059-6.0244-3.171-7.6758q-.9182-1.3633-.8477-1.9492c.5684-4.7207.8814-7.3208,1.3754-8.8359.5287-1.6221,1.0031-2.5327,1.6598-3.7939.9743-1.8706,2.1866-4.1987,3.268-8.1479.5323-1.9443,1.4829-5.417,1.545-9.8442.3145-.6802.8605-1.7134,1.2528-2.4561.9212-1.7432,2.0106-3.8047,2.8269-6.0508,2.6408-.7886,5.3868-1.5918,8.3223-2.4077,5.0085-1.3931,11.51-2.7251,18.3934-4.1353,14.1961-2.9077,28.8756-5.9146,39.1886-10.9243,9.7145-4.7246,14.2881-9.4224,18.7111-13.9658,1.3751-1.4126,2.7066-2.7803,4.2279-4.187.8292.2031,1.6904.4062,2.5845.6172,5.4772,1.291,12.9786,3.0591,16.2105,6.1274,7.6951,7.3066,13.253,12.5845,21.7939,17.7871,6.8726,4.187,11.3424,5.6826,14.9339,6.8838,3.1716,1.061,4.9188,1.646,8.2215,4.1841,2.1269,1.6343,2.6116,2.2729,4.6521,4.9614,1.808,2.3818,4.5404,5.9819,9.7126,11.813,5.1263,5.7793,6.0064,7.9512,7.0254,10.4663,1.2031,2.9692,2.7006,6.665,7.7706,12.7168,7.6099,9.0835,14.4504,13.1431,19.9467,16.4043,1.8205,1.0806,3.5401,2.1011,5.1496,3.2188,3.486,2.4209,12.4367,8.0513,20.2417,8.0513,4.8748,0,7.9886-2.0566,9.7424-3.7822,3.801-3.7388,5.4367-9.8398,5.147-19.1992-.1259-4.0669-.6527-11.4307-2.7665-15.0522-4.5398-7.7773-8.2563-12.1562-12.9614-17.7002-2.0787-2.4492-4.435-5.2251-7.2244-8.73-2.6961-3.3877-6.1136-5.4634-9.1288-7.2944-4.2127-2.5591-8.1917-4.9756-11.8041-11.4482-6.0773-10.8887-9.1276-16.3545-10.9024-21.0693-1.764-4.686-2.4491-7.7002-3.1744-10.8911-.9545-4.2002-1.9416-8.543-4.941-15.6846-1.7504-4.1675-4.6797-11.1421-10.185-18.9404-.8737-1.3965-2.0513-6.7031-2.8304-10.2144-1.0959-4.9395-2.2169-9.9912-4.0182-14.4761,1.0947-1.8174,2.1534-3.502,3.2246-5.1333,3.139-4.7827,7.575-10.0898,12.2715-15.7095,2.0688-2.4751,4.1864-5.0083,6.2638-7.5835,5.7939,1.3994,10.4297,2.498,16.5175,2.6484.4633.0112.9062.0166,1.3307.0166,4.3009,0,7.0225-.5508,9.0098-.9526,1.2016-.2432,1.7159-.3418,2.383-.3418.4132,0,.9139.0391,1.488.1157q.957.1279,2.637.8364c1.6396.6914,4.1174,1.7363,8.5104,3.2056,3.5045,1.1719,4.2202,1.731,5.2106,2.5054,1.9911,1.5557,4.1516,3.0894,8.6597,4.7397,7.0624,2.5859,12.0256,2.6509,16.0138,2.7031,1.1846.0156,2.2076.0293,3.1753.1113,1.0617.0898,2.1649.1353,3.2799.1353,12.0782,0,16.08-5.2759,17.3102-9.7012,1.1596-4.1729.0739-8.7476-3.4169-14.3975-2.5569-4.1387-4.9769-6.8799-7.1927-8.1479-4.8044-2.751-8.2233-3.978-12.182-5.3984-1.7035-.6113-3.6344-1.3047-5.9597-2.2227-3.0153-1.1909-5.829-1.2568-8.0898-1.3096-2.6302-.0615-4.3679-.1021-7.0482-1.7061-5.9564-3.5649-8.942-5.3516-10.9254-6.9829-1.9914-1.6382-2.9966-2.7261-4.2694-4.1035-1.7162-1.8574-3.6615-3.9624-7.4915-6.8784-1.6701-1.271-4.1931-3.1914-7.6645-5.1333.2811-3.4253.4435-6.8071.6025-10.1187.1704-3.5483.3444-7.1724.6641-10.9009.6371-.1982,1.2326-.3901,1.7945-.5718,3.3158-1.0693,5.3171-1.7148,9.9564-1.7285l.1376-.0005c2.9455,0,3.9839.2539,7.4242,1.0942,3.0669.749,7.7018,1.8813,15.818,3.2759,8.3566,1.436,10.6456,2.6328,13.296,4.0181,3.6956,1.9321,7.1122,3.5269,14.53,4.998,5.2685,1.0454,10.1964,1.5537,15.0651,1.5537,4.5411,0,8.421-.4404,11.8442-.8286,2.2434-.2544,4.3624-.4951,6.4832-.5952,9.5805-.4521,25.854-3.0044,27.2016-15.0166.6129-5.4604-2.1112-11.0942-8.833-18.2656-2.2535-2.4043-7.9344-8.1567-12.0064-9.6416-8.8484-3.2285-14.7913-4.3711-22.3152-5.8184-3.3678-.6479-7.1848-1.3823-11.8598-2.4209-1.7433-.3872-3.5684-.5757-5.5801-.5757-2.1639,0-4.2655.2183-6.298.4292-2.0316.2109-4.1324.4292-6.3281.4292-3.9713,0-7.7278-.7339-11.8221-2.3101-12.4-4.7734-18.6241-7.1694-23.3521-9.7822-.746-.4121-1.434-.8047-2.0696-1.1772.0913-1.1738.1365-2.3154.1365-3.4326,0-15.5811-3.3371-26.3379-6.8702-37.7266-1.5671-5.0518-3.1876-10.2749-4.5747-16.1802-.3952-1.6812-.7516-3.5073-1.0837-5.4448,1.8315-1.9614,2.9645-4.3984,3.8579-6.3203.6177-1.3286,1.7568-3.7788,2.4798-4.5239,4.0114-2.7891,7.1943-5.0142,10.6505-8.7173,2.9079-3.1162,4.2589-5.4399,5.1528-6.9775.6654-1.1445.7197-1.2378,1.4537-1.8711q.3645-.3145,1.4104-.814c1.2976-.6196,3.2586-1.5562,6.5014-3.4209,2.2176-1.2754,2.7459-1.3721,3.5455-1.5186,2.0503-.3755,4.3535-.9048,7.9597-2.8452,5.5484-2.9849,8.4423-6.1587,10.5554-8.4761.6035-.6621,1.1248-1.2334,1.6265-1.7104,10.2254-9.7222,7.23-17.1162,5.4676-19.8438-4.1936-6.4946-14.3222-6.9995-17.3266-6.9995-1.5481,0-2.7765.1812-3.9861.5879-4.3241,1.4551-6.9174,2.8716-9.92,4.5117-1.3024.7114-2.649,1.4473-4.3824,2.3242-2.62,1.3262-4.3465,3.1812-5.6071,4.5356-1.356,1.4565-1.9747,2.1216-3.8006,2.6968-4.9653,1.5649-7.7005,2.4272-9.5525,2.7192-1.871.2944-2.9779.3164-4.3791.3442-1.9804.0391-4.445.0879-8.3568.856-1.3892.2725-3.3617.6602-5.7431,1.3892-3.3451-6.0371-7.0201-10.5146-10.3351-14.3467-.792-.9146-1.5911-1.8223-2.3984-2.7383-3.3906-3.8491-6.5932-7.4844-9.79-12.25-2.4207-3.6079-4.9249-8.9004-7.5759-14.5039l-.6626-1.3994c-4.2545-9.0132-8.2051-16.96-13.4064-22.7861-.3355-.3765-.6734-.75-1.0142-1.1206,1.972-2.5991,4.2144-5.8276,7.0425-9.8994,5.3279-7.6699,9.1772-13.2119,12.8066-21.0771,2.9324-6.3545,3.8791-10.2344,4.6399-13.3521.6696-2.7441,1.0385-4.2559,2.8906-7.4766,1.2212-2.1235,1.762-2.7173,3.7744-4.9277,1.7732-1.9478,4.453-4.8911,8.7554-10.2476,5.1131-6.3672,7.3299-9.665,9.2857-12.5752,1.7712-2.6357,3.1703-4.7173,6.7391-8.9585,2.6641-3.166,4.6902-5.3389,6.478-7.2563,3.4355-3.6851,6.149-6.5952,9.0285-12.0977,8.8151-16.8442,4.9637-24.3599.1805-27.6987-1.984-1.3853-4.3609-2.1172-6.8736-2.1182h-.0473c-2.3662,0-7.8556.0742-20.4288,11.4092-5.2466,4.7295-7.651,8.1943-10.1966,11.8628-1.7725,2.5542-3.6053,5.1953-6.9406,8.999-3.6918,4.21-8.7331,8.6118-18.777,17.3813-8.2702,7.2212-12.4212,10.8457-16.0626,13.3027-3.6001,2.4292-5.9337,3.6323-8.4044,4.9062-3.2583,1.6792-6.6275,3.416-12.0829,7.3545-3.1744,2.2915-8.4869,6.1265-14.2908,12.1528-3.0142,3.1294-6.9061,7.1699-10.2849,11.8042-2.9819-2.2539-6.0362-4.6729-9.199-7.1782-11.4564-9.0737-23.3027-18.4561-36.5295-23.9214-10.4016-4.3076-20.1162-4.8354-29.511-5.3452-1.86-.1011-3.6636-.1992-5.4534-.3237-.4217-.8345-.7488-1.7578-1.0345-2.9814q-.3536-1.5151.1637-4.2598c.5118-2.7148,1.2851-6.8179,1.7554-13.9712.3764-5.7266,1.2121-7.0044,2.4774-8.939,2.234-3.4165,4.3066-7.0898,5.1188-14.4204,1.278-11.5332-1.8895-18.9888-4.4346-24.9795-.7515-1.769-1.4614-3.4399-1.9455-5.002-3.0101-9.7119-10.4056-21.2134-21.3419-21.6646-.2351-.0093-.472-.0142-.7094-.0142-5.2196-.001-11.607,2.4541-18.9835,7.2964-10.3561,6.7983-11.7343,10.3208-12.2531,11.6465-3.19,8.1548-3.752,13.7432-4.4027,20.2139-.2796,2.7793-.5964,5.9302-1.174,9.7495-.7495,4.9575.9649,9.1582,2.3424,12.5332,1.6804,4.1172,2.7905,6.8369.8285,11.4546-1.5724,3.7002-2.8801,6.7778-4.0314,9.3662-4.1175-.6484-7.9553-.9673-11.6-.9673-17.5336,0-31.8471,5.2749-45.6893,10.3765-6.4334,2.3706-13.0857,4.8223-19.9137,6.6553-6.6068,1.7759-13.9183,2.8501-21.6591,3.9868-3.1167.458-6.3045.9263-9.4934,1.4512-.3471-.3687-.6489-.7324-.9039-1.0894-6.7178-9.4023-11.5694-16.1929-19.5918-23.4902-6.4369-5.8545-10.8779-8.3608-14.4463-10.375-3.169-1.7881-5.0819-2.8677-8.2089-6.3999-2.0299-2.293-2.4701-3.1855-4.1084-6.5059-1.4417-2.9224-3.6205-7.3389-7.949-14.6479-4.3911-7.415-4.9001-10.0059-5.4896-13.0054-.6634-3.376-1.489-7.5771-5.6079-15.0034-6.2126-11.2007-12.3837-16.6846-17.8284-21.5225-1.745-1.5508-3.3932-3.0156-4.9141-4.5747C237.0731,9.0151,227.3005.0015,218.2043,0h0Z"/>
      </g>
      <path class="cls-3" d="M246.627,284.2692c-4.7289-3.6865,1.8118-22.4499,12.2553-35.7447,1.624-2.0673,21.5701-26.9168,37.7872-20.9921,6.8125,2.4888,12.6044,10.2759,11.2341,15.8858-1.444,5.9112-9.6375,4.4809-21.4468,12.862-10.6272,7.5422-9.6482,12.7148-21.4468,20.8401-4.3911,3.024-14.6296,10.0749-18.383,7.1489Z"/>
      <path class="cls-3" d="M378.3717,186.2266c-1.6646-7.4675,13.7811-17.9852,26.5737-22.4681,2.7209-.9535,26.5389-8.8973,45.9369,4.0364,1.3314.8877,15.5813,10.5804,13.2766,18.4317-1.6852,5.7408-11.5479,8.2034-18.383,8.1702-12.0366-.0584-13.6006-7.851-24.3596-8.1702-12.0355-.3571-15.1112,9.245-27.7255,8.2132-5.8586-.4792-14.2214-3.2888-15.3192-8.2132Z"/>
      <path class="cls-3" d="M560.6696,558.9926c5.1748-1.308,13.172-3.3294,21.4468-10.2128,3.6005-2.9951,11.3777-10.3412,14.8085-21.9574,1.4235-4.8199,3.1234-10.5753,0-13.7872-2.9493-3.0329-9.3303-2.9041-12.766,0-3.8177,3.2271-1.2003,7.5157-4.4713,14.2979-3.7585,7.7929-11.7404,11.5153-14.4223,12.766-9.2524,4.3148-14.3605,1.4893-17.8723,6.1277-2.8068,3.7072-2.9189,9.9703,0,12.766,2.7167,2.602,7.3309,1.5028,13.2766,0Z"/>
      <path class="cls-3" d="M598.686,414.482c-4.0662,6.2536-.8799,10.4532-3.8036,18.383-.4548,1.2337-2.9876,7.7922-9.1915,12.2553-6.6544,4.7872-11.9035,3.1143-13.725,7.1489-1.6008,3.5458.5305,9.0972,4.0229,10.7234,4.9031,2.2831,11.4568-3.6514,15.3192-7.1489,2.1406-1.9384,10.035-9.4802,13.7872-23.4894,2.4881-9.2894,3.2753-21.8719,0-22.9787-1.9811-.6695-5.0383,2.9982-6.4091,5.1064Z"/>
      <path class="cls-3" d="M481.5314,528.9745c-3.9661,9.7206-16.4309,12.9503-26.8062,15.4899-10.7191,2.6238-26.4431,6.4727-44.9396,0-3.3099-1.1583-31.3248-11.293-31.5365-27.5945-.0833-6.4189,4.1455-13.7001,9.4609-14.9799,4.6187-1.1121,8.236,2.7456,17.3452,8.6726,10.5265,6.8492,15.9273,10.0596,20.4987,11.0378,9.8288,2.1032,18.8251-1.3179,23.6524-3.1536,12.2922-4.6745,15.4494-10.9881,22.864-9.461,3.8649.796,7.5686,3.451,9.461,7.0957,2.9457,5.6733.4664,11.7498,0,12.893Z"/>
      <path class="cls-3" d="M474.3717,246.482c8.079-8.0382,34.6863,7.3481,45.9575,15.3191,15.1511,10.715,19.1181,19.7201,20.4255,23.1645,1.9777,5.2103,5.9897,15.7803,0,23.8142-5.0684,6.7981-15.6515,9.5719-22.4681,6.1277-8.2056-4.1461-4.0899-13.8348-13.2766-24.5106-9.2774-10.7813-18.4379-6.6678-26.5532-17.3617-6.2321-8.2123-9.1119-21.5519-4.0851-26.5532Z"/>
      <path class="cls-3" d="M530.542,168.8649c8.5928-2.5121,16.6624,4.2693,28.5958,14.2979,10.4841,8.8106,18.1122,15.221,19.0294,25.5319.4939,5.5522-.7582,14.4814-6.7424,17.9271-7.8489,4.5194-20.766-2.1636-26.179-10.7782-4.5362-7.2191-.8984-11.1729-5.5123-17.3515-6.9233-9.2713-19.1132-5.7237-21.4468-12.2655-1.9901-5.5789,4.4106-15.0683,12.2553-17.3617Z"/>
      <path class="cls-3" d="M341.6058,336.3543c-11.6588-1.5215-21.0344,7.8008-28.5958,15.3192-6.9169,6.8776-19.9047,19.7915-17.3617,34.7234,1.2996,7.6314,6.7528,16.3586,12.4577,16.3404,4.2149-.0134,7.3602-4.7966,10.2502-9.1915,7.848-11.9346,3.776-17.3481,9.9729-23.9992,3.5502-3.8104,4.7499-1.8868,20.4255-10.7242,8.6877-4.8978,9.9546-6.4106,10.2128-8.1702.8058-5.4919-8.2545-13.1093-17.3617-14.2979Z"/>
      <path class="cls-3" d="M442.7122,391.5032c2.2874-6.4199,8.7888-9.41,21.6984-15.1283,13.7762-6.1021,20.8384-9.1084,29.3654-6.9115,1.6208.4176,12.7824,3.4655,14.0824,11.0199,1.1282,6.5559-5.7074,13.3861-12.0398,16.1263-8.9593,3.877-12.913-2.1633-24.0148,0-14.4103,2.808-19.0009,15.1775-25.0065,12.6855-4.6238-1.9187-6.455-11.1401-4.0851-17.7919Z"/>
      <path class="cls-3" d="M203.7335,429.2905c-7.3744-6.2649-6.1428-17.3026-4.0851-35.7447,1.7174-15.3925,3.2988-29.5649,13.2766-34.7234,4.403-2.2763,10.9362-3.0535,14.2979,0,3.7325,3.3904,2.3394,10.3987,0,21.4468-3.2028,15.1254-6.0435,15.2147-6.1277,22.4681-.1692,14.5774,11.2285,20.7776,7.9877,26.5532-3.1363,5.5892-17.6181,6.5681-25.3493,0Z"/>
      <path class="cls-3" d="M371.2228,578.3969c-6.0989-9.153-21.1409.2596-36.7659-8.1702-15.8459-8.549-15.7994-26.551-26.3508-26.5532-5.9229-.0012-11.9516,5.6701-12.783,11.234-1.0051,6.7268,5.7082,12.4813,12.783,18.383,14.6732,12.2401,28.9556,16.9146,34.521,18.383,10.2538,2.7054,23.7124,6.2563,28.5958,0,2.6025-3.3343,2.6495-9.3004,0-13.2766Z"/>
      <path class="cls-3" d="M495.8186,583.5032c-4.8808-2.5742-9.82,8.4709-24.0148,11.6539-15.0352,3.3715-24.8954-5.5665-30.1284,0-3.1788,3.3814-2.653,9.9908,0,13.878,3.9062,5.7234,12.3565,5.4465,22.7352,5.1064,14.4793-.4745,25.7117-.8426,31.408-9.1915,5.0296-7.3718,4.4647-19.092,0-21.4468Z"/>
      <path class="cls-3" d="M628.5845,295.5032c8.4644,1.1782,12.4185,12.5461,15.3192,20.8855,1.6758,4.818,7.2465,21.6421,0,40.4244-2.9343,7.6054-6.4581,16.7389-15.3192,19.5617-8.478,2.7008-19.6537-1.0723-21.3181-6.9115-1.6712-5.8632,7.6951-8.7297,13.1479-22.8963,1.6602-4.3133,5.5429-14.4006,2.0426-24.3952-3.1998-9.1365-9.9759-10.791-9.1915-16.4558.7968-5.754,8.7679-11.1246,15.3192-10.2128Z"/>
    </g>
  </g>
</svg>