<?xml version="1.0" encoding="UTF-8"?>
<svg id="Capa_2" xmlns="http://www.w3.org/2000/svg" viewBox="0 0 809.8578 752.75">
  <defs>
    <style>
      .cls-1 {
        fill: #f47731;
      }

      .cls-2 {
        fill: #fc9b65;
      }

      .cls-3 {
        fill: #e56525;
      }
    </style>
  </defs>
  <g id="Capa_1-2" data-name="Capa_1">
    <g>
      <g>
        <path class="cls-2" d="M785.5084,413.8782c-11.8931-4.3386-17.8322-4.5195-32.9182-7.8719-7.3531-1.634-15.9204,3.5221-31.4514-2.4567-12.845-4.9448-19.2675-7.4172-24.5965-10.3619-3.4344-1.8979-5.9064-3.4974-8.0261-4.978.5807-2.8981.9297-5.7121.9297-8.3847,0-20.76-6.63-32.25-11.18-51.62-1.3762-5.8539-2.2831-13.0056-3.2397-20.3544l4.0262,6.0796c1.9185-.1553,3.6875-9.1696,8.3804-12.4324,3.8329-2.6649,6.4003-4.4499,9.1621-7.4092,4.4363-4.7535,3.5146-6.2581,7.3847-9.5968,2.4986-2.1555,2.9601-1.5951,9.4589-5.332,6.864-3.947,6.2674-1.55,11.7522-4.501,5.5289-2.9748,7.1935-5.9318,10.0305-8.6286,2.0656-1.9636,4.9769-5.5916,3.9579-7.1691-1.2887-1.9954-8.8534-2.6536-9.7266-2.3597-5.1238,1.7244-7.1026,3.3093-12.9739,6.2806-2.8618,1.4482-4.1345,5.7094-10.9169,7.8469-5.6095,1.7679-8.4142,2.6519-11.0023,3.0596-5.4854.8643-6.6632.0151-12.3655,1.1346-2.0615.4047-4.9573.9901-8.3988,2.4899-1.1153.486-2.883.6113-4.8544.6619-.1558-.3986-.3008-.8156-.4648-1.1998-3.34-7.82-7.43-13.07-11.85-18.1801-4.13-4.77-8.55-9.4299-12.93-15.96-3.06-4.56-5.96-10.84-8.97-17.19-3.6299-7.69-7.42-15.47-11.83-20.41-2.5026-2.8083-5.0771-5.3275-7.7142-7.6507.0994-.0552.198-.0948.2975-.153,3.1478-1.8405,6.3291-6.4205,12.6917-15.5805,5.1967-7.4816,8.6775-12.4927,11.9399-19.5626,5.2404-11.3559,2.9954-13.0232,7.9418-21.6241,3.1935-5.5529,4.2281-5.0298,13.4017-16.4521,9.6892-12.0644,8.3338-12.3973,16.1702-21.7098,7.8995-9.3875,10.7874-10.8442,14.2977-17.5521,2.5558-4.884,5.7588-13.1579,3.3168-14.8625-3.0889-2.1561-13.6013,7.3209-14.9305,8.5192-7.7996,7.0314-7.8382,10.3616-16.3138,20.0271-4.1311,4.7111-9.327,9.2478-19.7188,18.3212-8.5945,7.5043-12.8918,11.2563-17.0464,14.0596-8.8055,5.9415-11.1763,5.5452-20.2275,12.0789-3.2721,2.3621-7.8607,5.7072-12.9411,10.9819-4.7307,4.9117-11.7465,12.2148-14.1949,19.4563-1.1913-.7924-2.387-1.5995-3.59-2.4367-15.41-10.72-31.68-26.75-49.25-34.01-12.2441-5.0708-23.9403-4.0027-36.6805-5.3527-2.218-2.8114-4.0984-5.3864-5.2376-10.2663-1.5089-6.4639.7175-6.5359,1.6787-21.16,1.0153-15.4462,6.2943-11.7,7.6356-23.8049,1.3521-12.2026-3.6278-18.2886-5.9928-25.9197-1.722-5.5562-6.3976-14.3941-12.202-14.6331-7.3419-.3024-21.5482,10.8596-22.2216,12.5809-3.9511,10.1-3.0754,15.0761-5.0016,27.8146-.9388,6.2088,8.0958,13.2031,2.4868,26.4031-3.3328,7.8434-5.4684,12.8629-7.5957,16.762-5.7839-1.362-11.5612-2.2738-17.2393-2.2738-23.63,0-41.22,10.84-63.01,16.69-11.3924,3.0621-24.3522,4.1473-36.5997,6.4288-2.4243-1.7293-4.583-3.6807-6.1864-5.925-6.5569-9.1778-10.9487-15.325-18.1838-21.9059-11.6214-10.5707-15.2279-8.2974-23.4138-17.5441-5.285-5.9698-3.9453-7.1021-13.1744-22.6871-9.7479-16.4611-3.9387-15.0938-11.2379-28.2534-7.358-13.2656-14.5533-17.1955-21.1566-23.9661-4.8079-4.9297-13.6629-11.8508-17.4426-9.3404-4.7809,3.1754-6.137,21.4715-5.4,23.5721,4.3244,12.3254,8.2147,17.0571,15.575,31.1499,3.5875,6.8689,13.9213,9.812,19.2954,26.1318,4.4447,13.4975,6.6671,20.2462,7.7323,26.4861,2.2578,13.2256.2426,16.0974,3.1238,29.8392,1.0416,4.9679,2.5455,11.9457,6.2753,20.214,1.4443,3.2018,1.6807,8.6508,1.8459,14.5294-7.6936,6.1992-16.4932,10.935-24.6595,16.3643-2.4597-1.3138-4.6971-2.1335-6.453-2.7582-7.1892-2.558-9.2755-1.4716-16.3096-3.6143-3.3187-1.011-6.6693-2.7673-13.3704-6.2797-8.1023-4.247-7.4743-10.8126-10.5888-13.421-6.39-5.3516-8.2189-8.0273-14.2788-11.3993-1.0328-.5747-11.7629-.7648-14.6393,2.0174-2.274,2.1995-.3049,8.0732,1.4321,11.3282,2.3857,4.4707,3.0202,9.1481,8.9393,14.4517,5.8718,5.2613,6.3885,1.5865,13.5955,8.5502,6.8235,6.5931,7.7677,5.8271,9.9911,9.4363,3.4438,5.5901,1.3436,7.6957,4.7756,15.4881,1.9866,4.5105,4.3215,7.4927,7.6663,11.5663-3.7668,7.8774-7.1392,16.0328-11.383,24.0104-6.35,11.93-16.7,22.78-21.18,35.71-.769,2.2259-1.3585,4.4758-1.838,6.7426-7.1735,1.4322-9.8204,3.2884-18.7529,4.8038-5.0496.8566-10.7973.966-22.2928,1.1846-13.8993.2643-18.9122-6.8383-25.1171-7.7391-12.7304-1.8482-17.3845-3.5522-27.9528-3.5554-1.8012-.0005-15.4083,5.9316-16.5532,10.4319-.9053,3.5579,6.7493,8.4668,11.8,10.8184,6.937,3.2299,11.8633,7.6721,23.9615,9.7399,12.0015,2.0513,9.4027-2.0184,24.5804,1.019,14.3699,2.8759,14.876,1.5499,20.8486,3.9874,9.251,3.7756,8.4805,7.1377,19.6621,13.1821,1.2772.6904,2.5174,1.3105,3.7457,1.8805-2.8168,10.9418-6.4515,22.0073-6.4515,33.4241,0,.0952.0037.1886.0041.2836-4.3309,1.3903-12.5505,17.1421-23.3146,21.0584-9.389,3.416-15.6777,5.7041-23.0118,10.3155-11.7804,7.4071-10.6969,11.0245-20.5315,15.8143-6.3494,3.0923-6.9976,1.6802-22.4888,5.8551-16.3621,4.4096-13.8158-.2231-26.779,2.8807-13.0677,3.1289-18.13,8.3359-25.4758,12.3631-5.3485,2.9322-13.3575,8.8453-12.1128,12.6669,1.5744,4.8339,16.8657,10.3359,18.8333,10.2058,11.5449-.7634,16.5066-2.9597,30.2807-5.894,6.7136-1.4302,11.6791-9.5499,26.882-10.2605,12.5737-.5878,18.8606-.8817,24.4385-.3089,11.8224,1.2139,13.7945,3.6156,26.2055,4.42,4.4868.2908,10.7985.6646,18.7401-.5549,5.8994-.9059,17.7897,3.9368,26.6591,4.6544,1.0359,9.7366,2.3839,19.3403,6.2211,27.5605,2.72,5.82,6.12,11.31,9.86,16.6,6.3824,9.0215,13.7578,17.4885,20.4677,26.0851-.371,4.8973-.9866,10.7812-3.708,14.7526-4.2451,6.195-7.0885,10.3444-9.5546,16.3712-3.9611,9.6807-1.7165,11.4181-5.6331,18.6477-2.5286,4.6676-3.5425,4.0879-11.1859,13.416-8.0729,9.8525-8.5428,5.9068-15.1093,13.4744-6.6194,7.6286-7.4363,13.0258-10.1651,18.7007-1.9868,4.1319-4.2961,11.2497-1.8636,13.0413,3.0768,2.2662,14.8307-1.0591,15.9765-1.9993,6.7233-5.5166,8.7956-9.0294,15.9319-16.8481,3.4783-3.8109,2.962-10.9462,11.9443-18.0306,7.429-5.8591,11.1435-8.7888,14.8036-10.8785,7.7578-4.4292,10.0139-3.8237,17.9523-8.7607,2.8699-1.7848,6.8916-4.3172,11.2127-8.5363.5146-.5024,1.1954-.981,1.9871-1.446,1.0881,1.0439,2.2064,2.069,3.3635,3.0704,13.4639,11.6573,26.6595,14.8794,42.2898,23.611-.2004,1.8594-.5798,3.6478-1.2199,5.2917-3.5589,9.1386-5.9426,15.2595-7.2891,23.6559-2.1627,13.4869,1.2076,15.0297-1.6263,25.3864-1.8297,6.6865-3.2911,6.2504-10.2411,20.3823-7.3406,14.9262-9.1098,10.0482-15.2131,21.6215-6.1525,11.6666-5.5887,18.7726-7.3738,26.7995-1.2997,5.8444-2.1229,15.5815,1.5024,17.1376,4.5856,1.9683,18.5452-5.7506,19.7232-7.2864,6.9117-9.0117,8.504-14.0941,15.2574-26.1559,3.2916-5.879.5163-14.7994,9.8354-26.4756,7.7074-9.6568,11.5611-14.4852,15.5952-18.2296,8.5501-7.936,11.5989-7.8359,20.228-16.4714,3.1196-3.1218,7.4819-7.5364,11.7241-14.1848.6762-1.0598,1.7346-2.1526,3.0294-3.274,9.9183,1.7327,19.5186,2.0485,31.7283,3.832,12.5,1.82,31,8.42,44,8.42,2.3359,0,4.5564-.0524,6.6846-.151l-14.2116,3.1908c-.7681,1.7762,9.1933,5.6801,10.7818,10.7615,1.2975,4.1503,2.1665,6.9302,4.3511,10.1862,3.5092,5.2299,5.7776,4.78,7.8669,9.136,1.3489,2.8123.4451,3.0869,1.705,9.9241,1.3306,7.2215-1.2552,6.0692-.4359,11.7878.8259,5.7647,3.5539,8.0267,5.3855,11.2836,1.3336,2.3713,4.248,5.9333,6.6526,5.4139,3.0415-.6569,7.5984-7.3364,7.6796-8.202.4764-5.0785-.4449-7.2745-1.0963-13.3483-.3175-2.9603-4.809-5.2009-4.0041-11.8864.6657-5.5293.9986-8.2939,1.7963-10.7408,1.6908-5.1862,3.2985-6.0354,4.7902-11.4832.5392-1.9694,1.2766-4.7402,1.1857-8.2386-.0912-3.5142,7.0441-11.7667,4.8737-15.1387,4.5524-1.3748,9.3922-2.8567,14.8549-4.3751,15.35-4.27,41.81-7.58,55.89-14.42,13.0317-6.3375,14.561-12.1463,24.9453-20.2649,5.9786,2.3623,20.6461,3.5762,28.0439,10.6006,7.4736,7.0963,12.4792,11.8494,20.1108,16.4985,12.2584,7.4677,15.0995,4.803,24.0463,11.6786,5.7762,4.439,4.7707,5.6871,15.7524,18.0679,11.599,13.0767,6.1505,12.8574,14.9803,23.397,8.901,10.6246,16.0372,12.9023,23.1349,17.8312,5.1678,3.5887,14.3116,8.2621,17.2671,5.3546,3.7383-3.6776,1.7823-20.3259.757-22.0825-6.0165-10.3071-10.3269-13.8773-19.3733-25.2435-4.4093-5.54-14.1899-6.3883-21.8408-20.0967-6.3277-11.3377-9.4915-17.0065-11.5291-22.4196-4.3187-11.473-3.0089-14.3987-7.9764-26.2267-1.7958-4.276-4.3549-10.275-9.1345-17.0455-4.1854-5.9288-4.8267-23.2168-10.0645-30.7944,1.8934-3.3278,3.9292-6.7491,6.2505-10.2845,5.5742-8.4934,14.3376-17.8597,21.7454-27.4087,2.4623-.5013,4.9807-.7245,7.2016-.1879,5.7433,1.3875,9.5902,2.3169,14.712,2.4434,8.2269.2031,8.8761-1.9336,15.2882-1.0772,4.1398.5529,3.9973,1.4607,12.9955,4.47,9.504,3.1785,6.7343,4.6284,14.1365,7.3386,7.462,2.7321,11.6591,1.8221,16.5956,2.2403,3.5942.3045,9.4744.0104,10.1108-2.2797.8052-2.8967-4.9297-10.6086-5.9417-11.1879-5.938-3.3997-9.1011-3.9402-16.8474-6.9992-3.7756-1.491-8.8777.8857-16.6009-3.7362-6.3875-3.8226-9.5812-5.7339-12.1423-7.8403-5.428-4.4646-5.6143-6.293-11.4663-10.7483-2.1155-1.6107-5.1033-3.8591-9.415-5.8555-.8625-.3994-1.8035-1.1492-2.7978-2.0914,1.4903-10.8771.9525-21.5634,2.6965-34.1217,8.9312-1.7588,11.008-4.3125,20.8977-4.3414,7.725-.0226,7.748,1.5323,25.1025,4.5144,18.3299,3.1497,13.7289,6.2164,28.0786,9.0631,14.4653,2.8696,21.8389.3807,30.9753-.0505,6.6523-.314,17.2881-2.1562,17.7354-6.1425.5659-5.0422-12.3008-16.6587-14.3279-17.3981Z"/>
        <path class="cls-3" d="M218.2023,10c4.3276.0007,11.3853,5.6626,15.491,9.8723,6.6033,6.7705,13.7986,10.7004,21.1565,23.9661,7.2993,13.1597,1.49,11.7922,11.238,28.2534,9.229,15.585,7.8894,16.7173,13.1743,22.687,8.1858,9.2466,11.7925,6.9734,23.4138,17.5442,7.2351,6.5808,11.627,12.728,18.1838,21.9058,1.6033,2.2444,3.7622,4.1958,6.1863,5.925,12.2476-2.2815,25.2075-3.3667,36.5999-6.4287,21.79-5.8501,39.3799-16.6902,63.01-16.6902,5.678,0,11.4553.9119,17.2393,2.2739,2.1272-3.8992,4.2629-8.9187,7.5957-16.762,5.6089-13.2-3.4255-20.1943-2.4868-26.4031,1.9263-12.7385,1.0505-17.7148,5.0017-27.8147.6643-1.6985,14.5032-12.5879,21.9238-12.5872.1001.0002.2.0022.2976.0061,5.8044.239,10.48,9.0769,12.2021,14.6333,2.365,7.6311,7.3447,13.717,5.9927,25.9197-1.3413,12.105-6.6204,8.3586-7.6355,23.8049-.9612,14.624-3.1875,14.696-1.6787,21.1599,1.1392,4.8799,3.0195,7.4551,5.2375,10.2664,12.7402,1.3501,24.4365.282,36.6804,5.3528,17.5701,7.26,33.8401,23.29,49.25,34.01,1.2031.8372,2.3987,1.6443,3.5901,2.4368,2.4482-7.2417,9.4641-14.5447,14.1948-19.4563,5.0803-5.2749,9.6689-8.6199,12.9412-10.9819,9.0513-6.5337,11.4221-6.1375,20.2275-12.0789,4.1545-2.8032,8.4519-6.5554,17.0464-14.0596,10.3916-9.0735,15.5876-13.6101,19.7188-18.3213,8.4756-9.6655,8.5142-12.9956,16.3137-20.0271,1.1946-1.0767,9.803-8.8376,13.7783-8.8372.4487.0002.8391.0991,1.1523.3179,2.4419,1.7046-.761,9.9785-3.3169,14.8625-3.5103,6.708-6.3982,8.1646-14.2976,17.5522-7.8364,9.3123-6.481,9.6453-16.1702,21.7097-9.1736,11.4224-10.2083,10.8992-13.4019,16.4521-4.9463,8.6008-2.7014,10.2683-7.9417,21.624-3.2625,7.0698-6.7432,12.0811-11.9399,19.5627-6.3625,9.1599-9.5439,13.74-12.6917,15.5803-.0994.0583-.198.0979-.2974.1531,2.637,2.3232,5.2114,4.8425,7.7141,7.6506,4.4099,4.9402,8.2,12.72,11.8298,20.4102,3.01,6.3499,5.9102,12.6299,8.9702,17.1899,4.3799,6.53,8.7998,11.1899,12.9299,15.96,4.4199,5.1101,8.51,10.3601,11.8499,18.1799.1641.3843.3091.8013.4648,1.2,1.9714-.0505,3.7393-.1758,4.8545-.6619,3.4414-1.4998,6.3374-2.0852,8.3987-2.49,5.7024-1.1194,6.8801-.2703,12.3655-1.1345,2.5881-.4077,5.3928-1.2917,11.0024-3.0596,6.7822-2.1377,8.0552-6.3987,10.9167-7.8469,5.8713-2.9714,7.8501-4.5564,12.9739-6.2808.1309-.0439.4114-.0667.7988-.0667,2.1995,0,7.8323.73,8.928,2.4265,1.019,1.5774-1.8923,5.2056-3.958,7.1692-2.8369,2.6968-4.5015,5.6538-10.0305,8.6284-5.4846,2.9512-4.8882.5542-11.7522,4.5012-6.4988,3.7368-6.9602,3.1763-9.4587,5.3318-3.8701,3.3389-2.9485,4.8433-7.3848,9.5967-2.7617,2.9595-5.3291,4.7446-9.1621,7.4097-4.6929,3.2627-6.4619,12.2769-8.3804,12.4321l-4.0261-6.0796c.9565,7.3486,1.8633,14.5005,3.2395,20.3545,4.55,19.3701,11.1802,30.8599,11.1802,51.6201,0,2.6724-.3491,5.4863-.9297,8.3843,2.1196,1.481,4.5916,3.0801,8.0259,4.978,5.3291,2.9448,11.7517,5.4175,24.5967,10.3623,6.0952,2.3462,11.1162,2.9775,15.4138,2.9775,5.0103,0,9.0359-.8584,12.6262-.8584,1.1772,0,2.3083.0923,3.4114.3374,15.0859,3.3525,21.0251,3.5332,32.9182,7.8721,2.0271.7393,14.8938,12.356,14.3279,17.3979-.4473,3.9863-11.083,5.8286-17.7354,6.1426-5.8938.2783-11.0525,1.4121-17.8562,1.4121-3.7432,0-7.9851-.3433-13.1191-1.3618-14.3496-2.8467-9.7488-5.9131-28.0786-9.063-17.2285-2.9604-17.3757-4.5146-24.9348-4.5146-.0552,0-.1116.0005-.1677.0005-9.8896.0288-11.9666,2.5825-20.8977,4.3413-1.7441,12.5581-1.2063,23.2446-2.6965,34.1216.9944.9424,1.9353,1.6919,2.7979,2.0913,4.3118,1.9966,7.2993,4.2446,9.415,5.8555,5.8521,4.4556,6.0381,6.2837,11.4663,10.7485,2.561,2.1064,5.7546,4.0176,12.1421,7.8403,7.7231,4.6216,12.8254,2.2451,16.6011,3.7358,7.7463,3.0591,10.9094,3.5996,16.8474,6.9995,1.012.5791,6.7468,8.291,5.9417,11.188-.5059,1.8198-4.323,2.3789-7.6733,2.3789-.8652,0-1.6997-.0371-2.4375-.0996-4.9365-.418-9.1338.4922-16.5957-2.2402-7.4023-2.71-4.6326-4.1602-14.1365-7.3384-8.9983-3.0093-8.8557-3.917-12.9956-4.4702-1.0793-.144-1.9951-.2036-2.8115-.2036-3.8115,0-5.4507,1.2944-11.3928,1.2944-.3462,0-.7073-.0044-1.084-.0137-5.1216-.1265-8.9685-1.0557-14.7119-2.4434-.8999-.2173-1.8484-.3101-2.8225-.3101-1.4297,0-2.9146.1997-4.3792.498-7.4077,9.5493-16.1711,18.9155-21.7454,27.4087-2.3213,3.5356-4.3569,6.957-6.2505,10.2847,5.2378,7.5776,5.8792,24.8657,10.0645,30.7944,4.7795,6.7705,7.3386,12.7695,9.1345,17.0454,4.9675,11.8281,3.6577,14.7539,7.9763,26.2266,2.0376,5.4131,5.2014,11.082,11.5291,22.4199,7.6509,13.708,17.4316,14.5566,21.8408,20.0967,9.0464,11.3662,13.3569,14.936,19.3733,25.2432,1.0254,1.7568,2.9814,18.4053-.7568,22.0825-.6482.6377-1.593.9106-2.7292.9106-4.0447,0-10.5034-3.4634-14.5378-6.2651-7.0977-4.9287-14.2339-7.2065-23.135-17.8311-8.8296-10.5396-3.3811-10.3203-14.9802-23.397-10.9817-12.3809-9.9763-13.6289-15.7524-18.0679-8.9468-6.8755-11.7878-4.2109-24.0461-11.6787-7.6316-4.6489-12.6375-9.4023-20.1108-16.4985-7.3979-7.0244-22.0654-8.2383-28.0439-10.6006-10.3843,8.1187-11.9136,13.9272-24.9453,20.2651-14.0801,6.8398-40.54,10.1499-55.8901,14.4199-5.4626,1.5181-10.3025,3-14.8547,4.375,2.1704,3.3721-4.9648,11.6245-4.8738,15.1387.0908,3.4985-.6465,6.269-1.1858,8.2388-1.4917,5.4478-3.0994,6.2969-4.79,11.4829-.7979,2.4468-1.1306,5.2114-1.7964,10.7407-.8049,6.6855,3.6865,8.9263,4.0042,11.8867.6514,6.0737,1.5728,8.2695,1.0962,13.3481-.0811.8652-4.6379,7.5449-7.6794,8.2017-.1599.0347-.322.0513-.4858.0513-2.2993,0-4.9219-3.2515-6.1667-5.4648-1.8318-3.2573-4.5596-5.519-5.3855-11.2837-.8193-5.7188,1.7664-4.5664.4358-11.7881-1.2598-6.8369-.356-7.1118-1.7048-9.9238-2.0894-4.356-4.3579-3.9062-7.8669-9.1362-2.1848-3.2559-3.0537-6.0356-4.3513-10.186-1.5884-5.0815-11.5498-8.9854-10.7817-10.7617l14.2117-3.1904c-2.1282.0986-4.3486.1509-6.6846.1509-13,0-31.5-6.6001-44-8.4199-12.2097-1.7837-21.8101-2.0996-31.7283-3.832-1.2949,1.1216-2.3533,2.2144-3.0295,3.2739-4.2422,6.6484-8.6045,11.063-11.7241,14.1851-8.6292,8.6353-11.678,8.5352-20.228,16.4712-4.0339,3.7441-7.8877,8.5728-15.5952,18.2295-9.3191,11.6763-6.5437,20.5967-9.8352,26.4756-6.7534,12.062-8.3457,17.1445-15.2576,26.1558-1.0461,1.3643-12.175,7.606-17.8638,7.606-.7163,0-1.3467-.0991-1.8594-.3193-3.6252-1.5562-2.802-11.293-1.5024-17.1377,1.7852-8.0269,1.2212-15.1328,7.3738-26.7993,6.1033-11.5732,7.8726-6.6953,15.2131-21.6216,6.95-14.1318,8.4114-13.6958,10.2412-20.3823,2.8337-10.3564-.5366-11.8994,1.6262-25.3862,1.3464-8.3965,3.7302-14.5171,7.2891-23.6558.6401-1.644,1.0195-3.4326,1.22-5.292-15.6304-8.7314-28.8259-11.9536-42.2898-23.6108-1.1572-1.0015-2.2754-2.0264-3.3635-3.0703-.7917.4648-1.4727.9434-1.9871,1.4458-4.3213,4.2192-8.343,6.7515-11.2129,8.5366-7.9382,4.937-10.1943,4.3315-17.9521,8.7607-3.6602,2.0894-7.3748,5.019-14.8037,10.8784-8.9824,7.0845-8.4661,14.2197-11.9443,18.0303-7.1362,7.8188-9.2085,11.3315-15.9319,16.8481-.8643.7095-7.7639,2.7754-12.4229,2.7754-1.5173,0-2.7979-.2192-3.5537-.7759-2.4324-1.7915-.123-8.9097,1.8638-13.0415,2.7288-5.6748,3.5457-11.0718,10.165-18.7007,6.5664-7.5674,7.0364-3.6216,15.1094-13.4741,7.6433-9.3281,8.6572-8.7485,11.1858-13.416,3.9167-7.23,1.6721-8.9673,5.6331-18.6479,2.4661-6.0269,5.3096-10.1763,9.5547-16.3711,2.7214-3.9712,3.3369-9.8555,3.708-14.7524-6.71-8.5967-14.0852-17.064-20.4678-26.0854-3.74-5.29-7.1399-10.7798-9.8599-16.6001-3.8372-8.2202-5.1853-17.8237-6.2212-27.5601-8.1157-.6567-18.7605-4.7671-25.0305-4.7671-.5823,0-1.1272.0352-1.6284.1123-4.2175.6479-7.9753.8462-11.2441.8462-2.8865,0-5.3921-.1548-7.4961-.291-12.4109-.8047-14.3831-3.2061-26.2053-4.4199-2.1072-.2163-4.3147-.3091-6.9248-.3091-4.2996,0-9.6899.252-17.5139.6177-15.2029.7109-20.1682,8.8306-26.8818,10.2607-13.7742,2.9341-18.7358,5.1304-30.2808,5.894-.0229.0015-.0474.0024-.074.0024-2.248,0-17.2034-5.4307-18.7593-10.2085-1.2449-3.8213,6.7642-9.7344,12.1128-12.667,7.3457-4.0269,12.408-9.2339,25.4758-12.3628,3.823-.9155,6.2971-1.1577,8.3049-1.1577,2.2632,0,3.9336.3076,6.2766.3076,2.627,0,6.0994-.3872,12.1973-2.0308,15.4915-4.1748,16.1394-2.7627,22.489-5.855,9.8345-4.79,8.751-8.4072,20.5315-15.8145,7.334-4.6113,13.6226-6.8994,23.0117-10.3154,10.7642-3.9165,18.9836-19.668,23.3147-21.0586-.0005-.0947-.0042-.1885-.0042-.2832,0-11.417,3.6348-22.4824,6.4514-33.4243-1.2283-.5698-2.4683-1.1899-3.7456-1.8804-11.1816-6.0444-10.4111-9.4067-19.6621-13.1821-5.9727-2.4375-6.4788-1.1118-20.8486-3.9878-4.467-.894-7.3928-1.1719-9.6057-1.1719-3.6536,0-5.3599.7588-8.8337.7588-1.5708,0-3.5039-.1553-6.1409-.606-12.0984-2.0674-17.0247-6.5098-23.9617-9.7397-5.0505-2.3516-12.7053-7.2603-11.8-10.8184,1.145-4.5005,14.7522-10.4326,16.5532-10.4321,10.5684.0034,15.2224,1.7075,27.9529,3.5557,6.092.8843,11.0332,7.7466,24.3657,7.7466.2468,0,.4985-.0024.7515-.0073,11.4954-.2188,17.2432-.3281,22.2927-1.1846,8.9324-1.5156,11.5793-3.3721,18.7529-4.8042.4795-2.2666,1.0691-4.5166,1.8379-6.7427,4.4802-12.9299,14.8301-23.7798,21.1802-35.7097,4.2437-7.9778,7.616-16.1331,11.3828-24.0105-3.3447-4.0737-5.6797-7.0559-7.6663-11.5664-3.4319-7.7922-1.3318-9.8979-4.7754-15.488-2.2234-3.6091-3.1677-2.8433-9.9912-9.4363-7.207-6.9636-7.7236-3.2891-13.5955-8.5503-5.9192-5.3037-6.5537-9.981-8.9392-14.4517-1.7371-3.2551-3.7063-9.1287-1.4321-11.3284,1.8826-1.8208,7.1294-2.3687,10.8198-2.3684,1.948,0,3.4626.1526,3.8193.3511,6.0601,3.3721,7.8889,6.0476,14.2788,11.3994,3.1145,2.6084,2.4866,9.1738,10.5889,13.4209,6.7012,3.5125,10.0518,5.2688,13.3704,6.2798,7.0339,2.1428,9.1204,1.0564,16.3096,3.6143,1.7559.6248,3.9932,1.4446,6.4529,2.7583,8.1665-5.4292,16.9661-10.165,24.6597-16.3643-.1653-5.8787-.4016-11.3276-1.8459-14.5293-3.7297-8.2683-5.2336-15.2461-6.2754-20.2141-2.8811-13.7417-.866-16.6135-3.1238-29.8391-1.0652-6.24-3.2876-12.9888-7.7322-26.4863-5.3743-16.3198-15.708-19.2629-19.2954-26.1318-7.3604-14.0928-11.2507-18.8245-15.575-31.1499-.7371-2.1006.6189-20.3967,5.3999-23.572.552-.3667,1.2114-.5322,1.9517-.532M218.204,0c-2.7278-.0005-5.3164.761-7.4861,2.2019-4.6267,3.073-7.5212,9.0869-9.1089,18.9263-.6951,4.3083-1.6448,12.1533-.1941,16.2871,3.2349,9.2207,6.3013,14.6665,10.1833,21.5613,1.7283,3.0696,3.6873,6.5488,5.9634,10.9067,2.116,4.051,5.1538,6.8071,8.0918,9.4724,4.0903,3.7107,7.9539,7.2156,10.5693,15.158,4.2849,13.0125,6.4338,19.5386,7.373,25.041.9331,5.4658,1.0442,8.8784,1.1619,12.4912.1521,4.6709.3093,9.5007,2.032,17.7173,1.0076,4.804,2.6934,12.844,6.9473,22.2739.3906.9365.6204,3.252.7607,5.5967-3.5647,2.5393-7.3809,4.906-11.3572,7.3721-1.3018.8074-2.6235,1.6272-3.9512,2.4629-.8989-.3484-1.667-.6218-2.251-.8296-4.8298-1.7183-7.9553-2.1431-10.7126-2.5176-1.9778-.2688-3.54-.4812-6.0354-1.2412-2.4207-.7373-5.5015-2.3523-11.6394-5.5696-2.0828-1.0918-2.5229-2.0957-3.5864-4.5212-.9746-2.2229-2.3098-5.2676-5.2268-7.7104-1.8784-1.5732-3.3096-2.8779-4.6938-4.1396-3.2205-2.9355-6.0017-5.4707-11.1433-8.3315-1.7397-.968-3.8816-1.6128-8.6809-1.613-8.239,0-14.2185,1.7432-17.7729,5.1807-7.8525,7.5955-2.3206,19.6963-.438,23.2241.428.8025.8276,1.7461,1.2903,2.8389,1.6042,3.7896,3.8015,8.9795,9.7981,14.3528,3.8994,3.4939,6.7527,4.6411,9.3411,5.5168,1.0964.3711,1.7004.5754,3.9792,2.7771,3.4219,3.3064,5.5984,5.019,7.0386,6.1521.425.3345.9536.7502,1.0867.884h0c-.0015,0,.0952.1208.3003.4536.7148,1.1604.7666,1.5032,1.0547,3.406.3765,2.4868.8918,5.8923,3.0833,10.8679,1.5339,3.4832,3.2112,6.2188,5.1575,8.8826-.4543.9927-.9031,1.9795-1.3469,2.9551-2.2649,4.9802-4.6069,10.1299-7.2041,15.0122-2.231,4.1914-5.1143,8.3765-8.1665,12.8076-5.1492,7.4749-10.4739,15.2043-13.6338,24.3245-.2.5786-.3921,1.1641-.5767,1.7588-.9307.2749-1.7969.5464-2.6252.8062-2.8518.895-5.3149,1.6675-9.613,2.397-4.313.7314-9.8262.8364-20.8101,1.0454-.1873.0034-.3762.0054-.5613.0054-5.9097,0-9.1467-1.7559-12.895-3.7886-2.8301-1.5347-6.0376-3.2739-10.0339-3.8545-3.9077-.5669-7.0732-1.1289-9.866-1.625-6.3953-1.135-11.4465-2.0315-19.5205-2.0342-3.7681-.001-9.3096,2.5762-13.2947,4.7388-7.5886,4.1172-11.7046,8.3203-12.9529,13.2275-2.832,11.1309,9.6047,18.7803,17.27,22.3496,1.5361.7153,3.0667,1.5654,4.6868,2.4658,5.0234,2.7915,11.2754,6.2651,21.8118,8.0654,2.9473.5044,5.5073.749,7.8252.749,2.4316,0,4.2581-.2627,5.7256-.4746,1.1465-.165,1.9751-.2842,3.1082-.2842,1.856,0,4.3562.3198,7.6436.9775,6.8105,1.3633,10.8093,1.8501,13.4553,2.1724,2.9133.355,3.5195.4287,5.5769,1.2686,3.2371,1.3208,4.343,2.2905,6.5461,4.2227,1.9858,1.7412,4.572,4.0083,8.9355,6.6626-2.0325,7.5698-4.0034,15.3618-4.5789,23.6104-1.5315,1.541-3.0422,3.3574-4.7009,5.3516-3.4668,4.168-8.2146,9.8765-12.1968,11.3252-9.6824,3.5229-16.6782,6.0679-24.9153,11.2471-6.634,4.1714-9.8779,7.4165-12.4844,10.0239-2.269,2.27-3.5188,3.52-7.1033,5.2661-2.301,1.1206-3.0571,1.2637-6.2395,1.8652-2.8533.5396-7.165,1.355-14.4727,3.3242-5.6094,1.5117-8.1626,1.6865-9.5952,1.6865-.7947,0-1.5483-.0581-2.4211-.126-1.0999-.085-2.3464-.1816-3.8555-.1816-3.2151-.0005-6.4949.4414-10.6338,1.4326-11.2224,2.687-17.7266,6.8823-22.9529,10.2534-1.72,1.1099-3.3447,2.1577-5.001,3.0654-7.8608,4.3101-20.4971,13.228-16.814,24.5337,1.6172,4.9668,6.1995,9.0566,14.4202,12.8696,2.1448.9951,9.4819,4.2412,13.8472,4.2412.26,0,.499-.0088.7246-.0234,8.7458-.5786,14.1638-1.9126,21.0229-3.6011,3.0222-.7441,6.4478-1.5879,10.6904-2.4917,4.1589-.8857,7.4622-2.9688,10.3767-4.8066,4.0068-2.5269,7.7915-4.9136,14.8889-5.2451,7.5347-.3525,12.9785-.6069,17.0469-.6069,2.3213,0,4.197.0815,5.9033.2568,4.8083.4937,7.71,1.2002,10.782,1.9482,3.8799.9448,8.2776,2.0156,15.7979,2.5029,1.918.124,4.8152.312,8.1431.312,4.3569,0,8.5166-.3125,12.7146-.9546.0244-.0015.0764-.0039.158-.0039,2.0144,0,6.1816,1.0376,9.8586,1.9531,2.0256.5049,4.0803,1.0166,6.1401,1.4668,1.0698,7.689,2.7656,15.7979,6.1914,23.1372,2.7183,5.8164,6.2361,11.75,10.7561,18.1431,4.353,6.1533,9.0991,11.9995,13.6885,17.6538,1.5852,1.9531,3.114,3.8364,4.6101,5.7095-.2905,2.3037-.7759,4.8135-1.6223,6.0483-4.4656,6.5171-7.6914,11.2246-10.561,18.2373-2.3364,5.7104-2.9502,9.4165-3.3982,12.1226-.3843,2.3198-.5432,3.2803-1.7725,5.5493-.7581,1.3989-.9688,1.6196-2.6096,3.3364-1.5344,1.6055-3.8528,4.0312-7.5186,8.5049-3.2722,3.9937-4.4875,4.728-6.0264,5.6582-2.6538,1.6045-5.1553,3.2837-8.9009,7.6001-5.9626,6.8721-8.1897,12.5-9.9792,17.022-.5493,1.3882-1.0681,2.6992-1.645,3.8989-5.6169,11.6812-5.1843,20.7109,1.218,25.4268,2.4888,1.833,5.5911,2.7241,9.4841,2.7241,4.4045,0,14.7322-1.7329,18.7681-5.0464,5.2554-4.312,8.1868-7.7344,11.5808-11.6968,1.5095-1.7627,3.2207-3.7603,5.3921-6.1392,2.4524-2.687,3.6494-5.623,4.7053-8.2134,1.3223-3.2432,2.3662-5.8047,6.0457-8.7065,7.0286-5.5435,10.5566-8.3262,13.5684-10.0454,3.0078-1.7173,4.9219-2.4868,7.1382-3.3779,2.8794-1.1572,6.1431-2.4692,11.1377-5.5757,1.8982-1.1807,4.6355-2.8838,7.759-5.3462,8.8608,6.9829,17.6538,11.043,26.1855,14.9819,2.542,1.1738,5.1296,2.3687,7.7603,3.6577-2.9915,7.7573-5.1899,14.0098-6.5156,22.2778-1.2212,7.6152-.9268,12.1211-.6899,15.7417.2043,3.1235.3169,4.8442-.708,8.5889-.6565,2.3989-1.0383,3.0454-2.6445,5.7661-1.4507,2.4565-3.6431,6.1694-6.9248,12.8423-3.2073,6.5225-4.7761,8.0527-6.592,9.8247-2.71,2.644-5.2192,5.3379-8.4929,11.5454-5.2986,10.0469-6.4172,17.5796-7.3159,23.6318-.2944,1.9839-.573,3.8579-.9739,5.6611-1.9224,8.6445-3.5273,23.8413,7.3191,28.4976,1.7466.75,3.6995,1.1304,5.8042,1.1304,4.0127,0,9.0535-1.436,14.9827-4.2676,8.2917-3.9604,10.1924-6.439,10.8169-7.2534,5.2402-6.832,7.7676-11.6997,10.9675-17.8628,1.407-2.7095,3.0015-5.7808,5.0798-9.4927,2.0547-3.6699,2.6594-7.4731,3.1929-10.8281.7261-4.5674,1.4121-8.8813,5.7327-14.2949,7.3894-9.2578,11.0962-13.9023,14.582-17.1377,3.4683-3.2192,5.8633-4.8989,8.3989-6.6772,3.2153-2.2549,6.8596-4.811,12.0999-10.0552,2.7712-2.7729,7.2361-7.2412,11.7107-13.7988,3.6526.4858,7.281.8486,11.0469,1.2256,4.7903.4795,9.7439.9751,15.2053,1.7729,4.3467.6328,9.7869,1.9785,15.5466,3.4038,4.4697,1.1055,9.0068,2.228,13.4685,3.1392.6689,1.3491,1.6655,2.6836,3.0688,3.9326,1.0901.9702,2.3101,1.8198,3.6013,2.7188,1.0493.7305,2.9106,2.0264,3.6931,2.8271,1.3069,4.166,2.5374,7.8423,5.3694,12.063,2.4541,3.6572,4.667,5.5513,6.1313,6.8047.3149.2695.7466.6387.8435.7534h-.0002s.0381.0532.1084.188c.0107.1367.0225.2915.0327.4302.105,1.4062.2632,3.5308.9253,7.1235.2014,1.0933.2219,1.6279.2222,1.793-.0261.0972-.0715.2534-.1072.3755-.6282,2.1567-1.2456,4.8262-.6152,9.2261.9395,6.5557,3.655,10.4751,5.4524,13.0688.4585.6616.8545,1.2334,1.116,1.6982,1.3933,2.478,6.5852,10.5625,14.8828,10.5625.8726,0,1.7454-.0923,2.5935-.2754,3.6362-.7852,7.0913-3.2207,10.5664-7.4468,4.5847-5.5757,4.8489-8.3936,4.9617-9.5967.4395-4.6821-.0242-7.7217-.5149-10.939-.2017-1.3232-.4104-2.6919-.5947-4.4092-.3784-3.5293-2.0591-6.0244-3.1709-7.6758q-.9185-1.3633-.8479-1.9492c.5686-4.7222.8816-7.3213,1.3755-8.8359.5288-1.6221,1.0032-2.5332,1.6597-3.7939.9741-1.8706,2.1868-4.1987,3.2681-8.1479.5322-1.9443,1.4829-5.4165,1.5452-9.8442.3145-.6802.8604-1.7134,1.2527-2.4556.9211-1.7437,2.0107-3.8052,2.8269-6.0513,2.6409-.7886,5.387-1.5918,8.3223-2.4077,5.0083-1.3931,11.51-2.7251,18.3933-4.1353,14.196-2.9077,28.8755-5.9146,39.1885-10.9243,9.7148-4.7246,14.2883-9.4229,18.7112-13.9658,1.3752-1.4126,2.7068-2.7803,4.228-4.187.8293.2031,1.6904.4062,2.5847.6172,5.4773,1.291,12.9785,3.0591,16.2102,6.1279,7.6941,7.3057,13.2524,12.5835,21.7942,17.7866,6.8723,4.187,11.342,5.6826,14.9336,6.8838,3.1716,1.061,4.9187,1.646,8.2217,4.1841,2.1267,1.6343,2.6116,2.2729,4.6521,4.9614,1.8079,2.3818,4.5403,5.9819,9.7126,11.813,5.1265,5.7793,6.0063,7.9512,7.0251,10.4663,1.2034,2.9697,2.7007,6.665,7.7705,12.7168,7.6104,9.084,14.4507,13.1431,19.9473,16.4048,1.8206,1.0801,3.54,2.1006,5.1494,3.2183,3.4856,2.4204,12.436,8.0513,20.2417,8.0513,4.8748,0,7.9885-2.0566,9.7424-3.7822,3.801-3.7388,5.4365-9.8398,5.1467-19.1992-.1257-4.0669-.6526-11.4307-2.7664-15.0522-4.5396-7.7773-8.2561-12.1558-12.9614-17.6997-2.0789-2.4492-4.4348-5.2256-7.2244-8.7305-2.696-3.3877-6.1135-5.4634-9.1287-7.2949-4.2129-2.5586-8.1919-4.9756-11.8044-11.4478-6.0779-10.8906-9.1277-16.3555-10.9019-21.0693-1.7642-4.686-2.4492-7.7002-3.1746-10.8911-.9546-4.1997-1.9414-8.5425-4.9409-15.6846-1.7502-4.1675-4.6797-11.1416-10.1851-18.9404-.8738-1.3965-2.0513-6.7026-2.8303-10.2144-1.0959-4.9385-2.2173-9.9917-4.0183-14.4761,1.0952-1.8179,2.1541-3.5024,3.2246-5.1333,3.1389-4.7827,7.575-10.0898,12.2715-15.709,2.0686-2.4756,4.1863-5.0088,6.2637-7.584,5.7954,1.3999,10.4312,2.498,16.5176,2.6484.4634.0112.9062.0166,1.3308.0166,4.301,0,7.0225-.5508,9.01-.9526,1.2017-.2432,1.7156-.3418,2.3828-.3418.4133,0,.9138.0391,1.488.1157q.957.1279,2.637.8364c1.6396.6914,4.1174,1.7363,8.5105,3.2056,3.5042,1.1719,4.22,1.731,5.2104,2.5049,1.991,1.5562,4.1516,3.0898,8.6599,4.7402,7.063,2.5864,12.0269,2.6509,16.0154,2.7031,1.1843.0156,2.207.0288,3.1746.1108,1.0613.0898,2.1653.1353,3.281.1353,12.0767,0,16.0779-5.2754,17.3081-9.7007,1.1597-4.1724.074-8.7471-3.4167-14.3975-2.5569-4.1387-4.9768-6.8799-7.1929-8.1479-4.8037-2.7505-8.2219-3.9775-12.1799-5.3979-1.7039-.6118-3.635-1.3047-5.9612-2.2231-3.0164-1.1914-5.8296-1.2568-8.0901-1.3096-2.6306-.0615-4.3684-.1021-7.0491-1.7065-5.9539-3.563-8.9407-5.3506-10.925-6.9824-1.9915-1.6382-2.9968-2.7261-4.2695-4.1035-1.7161-1.8574-3.6614-3.9624-7.491-6.8779-1.6694-1.271-4.1914-3.1914-7.6648-5.1338.2812-3.4253.4434-6.8062.6025-10.1177.1704-3.5483.3442-7.1733.6641-10.9019.6372-.1982,1.2327-.3901,1.7947-.5718,3.3157-1.0693,5.3171-1.7148,9.9561-1.7285l.1387-.0005c2.9446,0,3.9832.2539,7.4236,1.0942,3.0669.749,7.7019,1.8813,15.8179,3.2759,8.3567,1.436,10.6455,2.6328,13.2959,4.0181,3.6958,1.9321,7.1123,3.5269,14.5303,4.9985,5.2686,1.0449,10.1963,1.5532,15.0652,1.5532,4.541,0,8.4209-.4404,11.8442-.8286,2.2432-.2544,4.3623-.4951,6.4832-.5952,9.5806-.4521,25.8538-3.0044,27.2014-15.0166.613-5.4604-2.1111-11.0942-8.833-18.2656-2.2534-2.4043-7.9343-8.1567-12.0063-9.6416-8.8481-3.228-14.791-4.3711-22.3149-5.8184-3.3677-.6479-7.1848-1.3818-11.8599-2.4209-1.7432-.3877-3.5688-.5757-5.5808-.5757-2.1638,0-4.2654.2183-6.2979.4292-2.0317.2109-4.1328.4292-6.3284.4292-3.9712,0-7.7275-.7344-11.8215-2.3101-12.4001-4.7734-18.6245-7.1699-23.3523-9.7822-.7461-.4126-1.4341-.8047-2.0693-1.1772.0913-1.1743.1365-2.3159.1365-3.4326,0-15.5806-3.3372-26.3379-6.8704-37.7266-1.5671-5.0513-3.1877-10.2749-4.5747-16.1802-.3953-1.6812-.7517-3.5073-1.0837-5.4448,1.8315-1.9614,2.9646-4.3984,3.8579-6.3203.6177-1.3286,1.7568-3.7788,2.4797-4.5239,4.0117-2.7891,7.1948-5.0146,10.6511-8.7183,2.9072-3.1152,4.2581-5.439,5.1521-6.9766.6653-1.1445.7197-1.2378,1.4539-1.8711q.365-.3149,1.4111-.8145c1.2974-.6196,3.2581-1.5557,6.5-3.4199,2.2185-1.2759,2.7466-1.3726,3.5464-1.519,2.05-.3757,4.3533-.9048,7.9595-2.8452,5.5486-2.9851,8.4426-6.1589,10.5557-8.4763.6035-.6619,1.1248-1.2336,1.6265-1.7104,10.2256-9.7202,7.2302-17.1152,5.468-19.8433-4.1958-6.4954-14.3237-7.0002-17.3279-7.0002-1.5469,0-2.7761.1814-3.9856.5881-4.3245,1.4553-6.9175,2.8718-9.9199,4.5122-1.3025.7117-2.6492,1.4473-4.3828,2.3245-2.6196,1.3259-4.3459,3.1807-5.6064,4.5349-1.356,1.4568-1.9749,2.1216-3.8008,2.6973-4.9695,1.5659-7.7029,2.4275-9.5525,2.7188-1.8713.2947-2.9783.3167-4.3794.3445-1.9802.0388-4.4448.0876-8.3562.8555-1.3896.2729-3.3623.6604-5.7434,1.3896-3.345-6.0369-7.0198-10.5139-10.3347-14.3467-.7922-.915-1.5916-1.8223-2.3987-2.7385-3.3906-3.8489-6.5933-7.4841-9.7898-12.25-2.4214-3.6082-4.9258-8.9014-7.5771-14.5051l-.6619-1.3979c-4.2539-9.0122-8.2041-16.9587-13.4058-22.7861-.3357-.3765-.6736-.7498-1.0142-1.1204,1.9709-2.5989,4.2131-5.8269,7.042-9.8997,5.3276-7.6699,9.177-13.2117,12.8066-21.0774,2.9324-6.3547,3.8792-10.2344,4.6399-13.3521.6697-2.7444,1.0386-4.2561,2.8906-7.4768,1.2207-2.1226,1.7615-2.7163,3.7734-4.926,1.7734-1.9478,4.4531-4.8914,8.7566-10.2495,5.1128-6.3662,7.3296-9.6646,9.2852-12.5745,1.7715-2.6355,3.1704-4.717,6.7395-8.9583,2.6641-3.166,4.6904-5.3394,6.478-7.2568,3.4355-3.6848,6.1492-6.5952,9.0286-12.0977,8.8147-16.8442,4.9636-24.3599.1804-27.6987-1.9849-1.3857-4.3625-2.1179-6.8762-2.1179h-.0471c-2.3635,0-7.8523.0742-20.4255,11.4082-5.2476,4.7307-7.6521,8.1956-10.1975,11.8638-1.7725,2.5542-3.6052,5.1953-6.9407,8.999-3.6904,4.2087-8.7297,8.6086-18.769,17.3745-8.2793,7.2292-12.4312,10.8542-16.0706,13.3098-3.5996,2.429-5.9331,3.6318-8.4038,4.9055-3.2583,1.6794-6.6274,3.4165-12.0835,7.3547-3.1731,2.2905-8.4844,6.1243-14.2908,12.1531-3.0142,3.1294-6.9062,7.1707-10.2849,11.8044-2.9822-2.2544-6.0366-4.6738-9.2-7.1792-11.4561-9.0735-23.3022-18.4556-36.5286-23.9209-10.4011-4.3076-20.1157-4.8352-29.5103-5.3452-1.8601-.1008-3.6641-.199-5.4541-.3237-.4216-.8345-.7485-1.7576-1.0344-2.9814q-.3535-1.5146.1638-4.2593c.512-2.7148,1.2852-6.8179,1.7554-13.9714.3765-5.7263,1.2122-7.0046,2.4773-8.9392,2.2341-3.4163,4.3066-7.0898,5.1189-14.4202,1.2778-11.5332-1.8894-18.9885-4.4346-24.9792-.7515-1.7688-1.4614-3.4399-1.9456-5.002-3.0105-9.7129-10.4062-21.2144-21.3425-21.6646-.2341-.0095-.4712-.0144-.709-.0144-5.2195-.0007-11.6069,2.4541-18.9832,7.2964-10.3569,6.7988-11.7349,10.3215-12.2534,11.6477-3.1899,8.1533-3.752,13.7419-4.4026,20.2129-.2795,2.7795-.5964,5.9302-1.1741,9.7495-.7495,4.9575.9648,9.158,2.3425,12.533,1.6802,4.1172,2.7903,6.8372.8284,11.4543-1.5723,3.7004-2.8799,6.7778-4.0312,9.3665-4.1182-.6487-7.9558-.9675-11.6001-.9675-17.5337,0-31.8469,5.2751-45.689,10.3765-6.4336,2.3708-13.0859,4.8225-19.9141,6.6558-6.606,1.7754-13.9167,2.8494-21.6567,3.9863-3.1174.4578-6.3062.9263-9.4956,1.4512-.3472-.3687-.6487-.7319-.9036-1.0886-6.7163-9.4009-11.5686-16.1926-19.5925-23.4907-6.4365-5.8547-10.8777-8.3613-14.4463-10.375-3.1689-1.7886-5.0818-2.8679-8.2085-6.3999-2.03-2.293-2.4702-3.1855-4.1084-6.5061-1.4419-2.9224-3.6206-7.3386-7.949-14.6477-4.3911-7.415-4.9001-10.0059-5.4897-13.0054-.6633-3.376-1.4888-7.5774-5.6079-15.0034-6.2124-11.2007-12.3838-16.6846-17.8284-21.5229-1.7449-1.5505-3.3931-3.0151-4.9141-4.5747C237.0729,9.0151,227.3005.0015,218.204,0h0Z"/>
      </g>
      <path class="cls-1" d="M246.6269,284.2691c-4.7289-3.6865,1.8118-22.4499,12.2553-35.7447,1.624-2.0673,21.5701-26.9168,37.7872-20.9921,6.8125,2.4888,12.6044,10.2759,11.2341,15.8858-1.444,5.9112-9.6375,4.4809-21.4468,12.862-10.6272,7.5422-9.6482,12.7148-21.4468,20.8401-4.3911,3.024-14.6296,10.0749-18.383,7.1489Z"/>
      <path class="cls-1" d="M378.3716,186.2266c-1.6646-7.4675,13.7811-17.9852,26.5737-22.4681,2.7209-.9535,26.5389-8.8973,45.9369,4.0364,1.3314.8877,15.5813,10.5804,13.2766,18.4317-1.6852,5.7408-11.5479,8.2034-18.383,8.1702-12.0366-.0584-13.6006-7.851-24.3596-8.1702-12.0355-.3571-15.1112,9.245-27.7255,8.2132-5.8586-.4792-14.2214-3.2888-15.3192-8.2132Z"/>
      <path class="cls-1" d="M560.6694,558.9925c5.1748-1.308,13.172-3.3294,21.4468-10.2128,3.6005-2.9951,11.3777-10.3412,14.8085-21.9574,1.4235-4.8199,3.1234-10.5753,0-13.7872-2.9493-3.0329-9.3303-2.9041-12.766,0-3.8177,3.2271-1.2003,7.5157-4.4713,14.2979-3.7585,7.7929-11.7404,11.5153-14.4223,12.766-9.2524,4.3148-14.3605,1.4893-17.8723,6.1277-2.8068,3.7072-2.9189,9.9703,0,12.766,2.7167,2.602,7.3309,1.5028,13.2766,0Z"/>
      <path class="cls-1" d="M598.6858,414.4819c-4.0662,6.2536-.8799,10.4532-3.8036,18.383-.4548,1.2337-2.9876,7.7922-9.1915,12.2553-6.6544,4.7872-11.9035,3.1143-13.725,7.1489-1.6008,3.5458.5305,9.0972,4.0229,10.7234,4.9031,2.2831,11.4568-3.6514,15.3192-7.1489,2.1406-1.9384,10.035-9.4802,13.7872-23.4894,2.4881-9.2894,3.2753-21.8719,0-22.9787-1.9811-.6695-5.0383,2.9982-6.4091,5.1064Z"/>
      <path class="cls-1" d="M481.5312,528.9745c-3.9661,9.7206-16.4309,12.9503-26.8062,15.4899-10.7191,2.6238-26.4431,6.4727-44.9396,0-3.3099-1.1583-31.3248-11.293-31.5365-27.5945-.0833-6.4189,4.1455-13.7001,9.4609-14.9799,4.6187-1.1121,8.236,2.7456,17.3452,8.6726,10.5265,6.8492,15.9273,10.0596,20.4987,11.0378,9.8288,2.1032,18.8251-1.3179,23.6524-3.1536,12.2922-4.6745,15.4494-10.9881,22.864-9.461,3.8649.796,7.5686,3.451,9.461,7.0957,2.9457,5.6733.4664,11.7498,0,12.893Z"/>
      <path class="cls-1" d="M474.3716,246.4819c8.079-8.0382,34.6863,7.3481,45.9575,15.3191,15.1511,10.715,19.1181,19.7201,20.4255,23.1645,1.9777,5.2103,5.9897,15.7803,0,23.8142-5.0684,6.7981-15.6515,9.5719-22.4681,6.1277-8.2056-4.1461-4.0899-13.8348-13.2766-24.5106-9.2774-10.7813-18.4379-6.6678-26.5532-17.3617-6.2321-8.2123-9.1119-21.5519-4.0851-26.5532Z"/>
      <path class="cls-1" d="M530.5418,168.8649c8.5928-2.5121,16.6624,4.2693,28.5958,14.2979,10.4841,8.8106,18.1122,15.221,19.0294,25.5319.4939,5.5522-.7582,14.4814-6.7424,17.9271-7.8489,4.5194-20.766-2.1636-26.179-10.7782-4.5362-7.2191-.8984-11.1729-5.5123-17.3515-6.9233-9.2713-19.1132-5.7237-21.4468-12.2655-1.9901-5.5789,4.4106-15.0683,12.2553-17.3617Z"/>
      <path class="cls-1" d="M341.6056,336.3542c-11.6588-1.5215-21.0344,7.8008-28.5958,15.3192-6.9169,6.8776-19.9047,19.7915-17.3617,34.7234,1.2996,7.6314,6.7528,16.3586,12.4577,16.3404,4.2149-.0134,7.3602-4.7966,10.2502-9.1915,7.848-11.9346,3.776-17.3481,9.9729-23.9992,3.5502-3.8104,4.7499-1.8868,20.4255-10.7242,8.6877-4.8978,9.9546-6.4106,10.2128-8.1702.8058-5.4919-8.2545-13.1093-17.3617-14.2979Z"/>
      <path class="cls-1" d="M442.712,391.5032c2.2874-6.4199,8.7888-9.41,21.6984-15.1283,13.7762-6.1021,20.8384-9.1084,29.3654-6.9115,1.6208.4176,12.7824,3.4655,14.0824,11.0199,1.1282,6.5559-5.7074,13.3861-12.0398,16.1263-8.9593,3.877-12.913-2.1633-24.0148,0-14.4103,2.808-19.0009,15.1775-25.0065,12.6855-4.6238-1.9187-6.455-11.1401-4.0851-17.7919Z"/>
      <path class="cls-1" d="M203.7333,429.2904c-7.3744-6.2649-6.1428-17.3026-4.0851-35.7447,1.7174-15.3925,3.2988-29.5649,13.2766-34.7234,4.403-2.2763,10.9362-3.0535,14.2979,0,3.7325,3.3904,2.3394,10.3987,0,21.4468-3.2028,15.1254-6.0435,15.2147-6.1277,22.4681-.1692,14.5774,11.2285,20.7776,7.9877,26.5532-3.1363,5.5892-17.6181,6.5681-25.3493,0Z"/>
      <path class="cls-1" d="M371.2226,578.3968c-6.0989-9.153-21.1409.2596-36.7659-8.1702-15.8459-8.549-15.7994-26.551-26.3508-26.5532-5.9229-.0012-11.9516,5.6701-12.783,11.234-1.0051,6.7268,5.7082,12.4813,12.783,18.383,14.6732,12.2401,28.9556,16.9146,34.521,18.383,10.2538,2.7054,23.7124,6.2563,28.5958,0,2.6025-3.3343,2.6495-9.3004,0-13.2766Z"/>
      <path class="cls-1" d="M495.8184,583.5032c-4.8808-2.5742-9.82,8.4709-24.0148,11.6539-15.0352,3.3715-24.8954-5.5665-30.1284,0-3.1788,3.3814-2.653,9.9908,0,13.878,3.9062,5.7234,12.3565,5.4465,22.7352,5.1064,14.4793-.4745,25.7117-.8426,31.408-9.1915,5.0296-7.3718,4.4647-19.092,0-21.4468Z"/>
      <path class="cls-1" d="M628.5843,295.5032c8.4644,1.1782,12.4185,12.5461,15.3192,20.8855,1.6758,4.818,7.2465,21.6421,0,40.4244-2.9343,7.6054-6.4581,16.7389-15.3192,19.5617-8.478,2.7008-19.6537-1.0723-21.3181-6.9115-1.6712-5.8632,7.6951-8.7297,13.1479-22.8963,1.6602-4.3133,5.5429-14.4006,2.0426-24.3952-3.1998-9.1365-9.9759-10.791-9.1915-16.4558.7968-5.754,8.7679-11.1246,15.3192-10.2128Z"/>
    </g>
  </g>
</svg>