<?xml version="1.0" encoding="UTF-8"?>
<svg id="Capa_2" xmlns="http://www.w3.org/2000/svg" viewBox="0 0 822.3599 737.1416">
  <defs>
    <style>
      .cls-1 {
        fill: #898686;
      }

      .cls-2 {
        fill: #a3a2a2;
      }

      .cls-3 {
        fill: #c4c2c2;
      }

      .cls-4 {
        fill: #b0b0b0;
      }

      .cls-5 {
        fill: #dbdbdb;
      }

      .cls-6 {
        fill: #6b6969;
      }
    </style>
  </defs>
  <g id="Capa_1-2" data-name="Capa_1">
    <g>
      <g>
        <path class="cls-2" d="M223.8516,287.6432c-5.7147-7.1479-24.9927,4.4516-33.038,3.7528-7.3114-.635-13.0418.0843-17.1138.6185-11.2637,1.4778-12.9171,3.7851-23.6197,5.6008-5.0496.8567-10.7974.966-22.2929,1.1846-13.8993.2644-18.9122-6.8383-25.1171-7.7391-12.7304-1.8482-17.3844-3.5522-27.9528-3.5554-1.8012-.0005-15.4082,5.9316-16.5532,10.4319-.9052,3.5579,6.7493,8.4668,11.8001,10.8184,6.9369,3.2299,11.8633,7.6721,23.9615,9.7399,12.0015,2.0513,9.4027-2.0184,24.5804,1.019,14.37,2.8758,14.876,1.5498,20.8486,3.9874,9.251,3.7756,8.4805,7.1377,19.6621,13.1821,6.9612,3.763,12.8303,5.4712,21.5929,8.0214,10.7283,3.1224,19.622,18.7234,23.2735,17.8161"/>
        <path class="cls-5" d="M220.7216,290.1456c-4.8659-3.7259-22.7019,6.0889-30.0893,5.1003-9.1749-.7512-18.5016.2348-27.3614,2.911-3.3671,1.0772-7.0772,2.1628-10.6184,2.8209-7.1135,1.4127-14.5521,1.3173-21.7297,1.4986-2.7256.0738-5.7101.1003-8.4355-.2049-4.8062-.542-9.6034-2.2919-13.7688-4.6092-2.3061-1.1832-3.9647-2.3391-6.2207-2.8667-7.6743-1.1055-15.3756-2.9802-23.0217-3.4935-1.5483-.1067-3.1856-.1284-4.7395-.1476.0425.0169.3999-.0327.303-.0185l.0044-.0029-.0757.02c-.0449.0103-.1038.0249-.1838.05-4.1358,1.394-8.813,3.7855-11.95,6.3827-.5119.4412-.9409.92-1.1018,1.1832-.1064.1421-.0737.1687-.0398.019.0547-.0918.0283-.2371.0242-.301.0225-.043.0066-.0974-.021-.123.3663.679,1.2665,1.7025,2.0793,2.3245,2.3743,1.9872,5.3627,3.6679,8.2186,4.999,6.4683,3.2425,11.6897,6.7822,18.5718,8.3495,3.1691.7438,6.5866,1.3612,9.5485,1.3593,1.5032.0083,2.8608-.2087,4.7998-.481,3.8166-.5622,7.8917-.1698,11.6257.4517,0,0,5.2649.9875,5.2649.9875,7.1526,1.5252,14.8715,1.2017,21.5376,4.8214,3.3644,1.5139,6.682,4.3689,9.3027,6.6907,5.0176,4.223,11.0769,7.2631,17.2737,9.51,3.7621,1.3388,7.8279,2.4786,11.7818,3.6154,3.2243.9362,6.2519,2.7607,8.8125,4.7442,5.2475,3.8822,8.8703,9.0582,13.7286,12.924.0097-.0012.0168.001.0224.0069.0244.0203-.0237-.0125-.0742-.0308-.0684-.0264-.0457-.0002-.2087-.051-.3284-.0627-.7328-.0575-1.064.0473,2.1477-.5337,4.3215.7749,4.8552,2.9226.688,2.6515-1.5407,5.145-4.2296,5.0067-1.1449-.0068-2.2223-.382-3.1723-.9015-2.9704-1.786-5.149-4.5311-7.43-6.8571-3.9707-4.0958-7.6995-8.2354-12.9344-10.2189-4.2305-1.3164-8.4101-2.46-12.68-4.0358-7.0236-2.5765-13.7805-6.0177-19.5608-10.9089-2.6864-2.3164-4.668-4.253-7.7493-5.7129-2.9937-1.4878-5.4379-2.2572-8.8938-2.5971-3.5183-.4149-7.1726-.9759-10.6877-1.6431l-5.1343-.9812c-3.2125-.5238-6.2413-.8878-9.4353-.4424-1.552.2119-3.6934.5491-5.7246.5254-7.6904-.1964-15.1567-2.1861-22.0003-5.568-3.3689-1.672-6.3601-3.5585-9.2912-4.9542-3.5018-1.6694-6.7369-3.5016-9.77-6.0434-1.8631-1.6826-3.4462-3.1151-4.3557-5.9047-2.1852-7.8652,11.5202-13.6311,17.2435-15.8718.6784-.2362,1.7807-.5838,2.774-.5894.5612-.0028,1.8208.0241,2.4094.0313,8.8328.1397,17.3494,2.3377,25.9685,3.5073,3.2104.4326,6.4899,2.338,9.0808,3.7274,4.9408,2.7939,10.2871,4.1539,15.9334,3.9376,11.2723-.1686,22.1188-.1577,32.9027-4.1339,7.0567-2.2514,14.385-3.2133,21.836-3.5652,3.3657-.2758,6.9771.3725,10.1328.0718,2.8743-.4563,6.2258-1.6067,9.5603-2.678,6.4306-1.8706,13.91-5.128,20.8755-2.3399,3.2469,1.4088,6.4221,5.2564,2.9706,8.3546-1.748,1.4353-4.2975,1.0967-5.6888-.6241h0Z"/>
      </g>
      <g>
        <path class="cls-1" d="M462.2112,626.4374c4.4897,2.5767-4.0888,12.1157-3.9889,15.9653.0908,3.4984-.6465,6.2692-1.1857,8.2386-1.4917,5.4477-3.0994,6.297-4.7902,11.4831-.7977,2.4469-1.1306,5.2115-1.7963,10.7408-.8049,6.6855,3.6866,8.926,4.0041,11.8864.6514,6.0737,1.5727,8.2698,1.0963,13.3483-.0812.8655-4.6381,7.545-7.6796,8.2019-2.4045.5194-5.3191-3.0426-6.6526-5.414-1.8316-3.2569-4.5596-5.5189-5.3855-11.2836-.8193-5.7186,1.7666-4.5663.4359-11.7878-1.2598-6.8372-.3561-7.1118-1.705-9.9242-2.0893-4.356-4.3577-3.906-7.8669-9.136-2.1847-3.2559-3.0537-6.0358-4.3511-10.1861-1.5885-5.0814-11.5499-8.9853-10.7818-10.7615"/>
        <path class="cls-5" d="M464.2059,622.9618c7.6569,5.2561-.8011,13.8199-2.9096,19.3695-.1882,5.1617-1.6693,10.4354-4.1514,14.9376-1.8282,3.0918-3.0186,5.8008-3.5982,9.1379-.3858,2.0649-.7032,4.3202-1.0166,6.4551-.4495,2.7579.1724,5.0105,1.8343,7.4221.7409,1.1021,1.8688,2.8366,1.9552,4.4085.3242,4.6945,1.8446,9.635.7507,14.3581-1.5708,2.9629-3.5439,5.3848-6.1995,7.5665-4.2908,3.6376-8.5219-.6155-10.7845-4.2444-.8663-1.5499-1.8869-2.8894-2.8902-4.3949-2.6135-3.933-4.2807-9.3775-2.8387-14.0769.5854-1.9104.2903-3.7405-.0663-5.6668-.4359-2.1894-.822-4.5796-1.0102-6.7578-.1265-1.5927-.6843-2.5991-1.5025-3.8293-.4021-.5696-.843-1.031-1.4197-1.5298-2.1719-1.7055-4.4833-3.798-5.9945-6.0804-2.3361-3.1717-3.7058-7.1029-5.0532-10.6757-2.424-3.7932-7.3694-4.8728-10.5252-8.175-1.1877-1.315-1.6155-3.3056-.9001-4.9681,2.2615-4.7943,9.3037-1.7494,7.3564,3.1812.4379-.9556.3767-2.4875-.3622-3.1747,3.3857,3.3724,8.464,5.9721,10.256,10.8858.5895,1.9087,1.0275,3.9579,1.6507,5.7165,1.0405,2.9602,2.6515,5.7764,4.8608,7.9783,2.1546,1.8736,4.4473,4.232,5.3653,7.1061.937,2.6865.5127,5.6024,1.0503,8.3221-.0001,0,.2013,1.2766.2013,1.2766l.2021,1.4043c.2551,1.8935.2121,4.2321-.4276,6.0383-.2731.8813-.4399,1.4592-.4865,2.167-.0806,1.406.1616,3.1204.5691,4.6216.7378,2.8343,2.6853,5.1739,4.2469,7.6714.9236,1.673,2.2297,3.5676,3.6699,4.6309.5483.4173,1.1159.6243,1.3696.6133.1951.0032.8403-.2942,1.4053-.7466,1.8916-1.5307,3.7177-3.8484,4.959-6.0342.6209-3.2477-.6532-8.6973-1.1512-12.7803-.0303-.2653-.1163-.4996-.2109-.7298-.2458-.5303-.7258-1.2087-1.2378-1.9475-1.6894-2.2058-3.0286-5.5623-2.8409-8.5633.2886-3.6841.5556-7.3014,1.3098-10.9646.591-2.6919,1.8679-5.573,3.015-7.9157,1.3823-2.9104,2.1801-6.2019,2.499-9.3098.1372-1.293.0073-2.553.0194-3.8413.4567-4.201,3.3915-7.9911,4.3908-11.8011.1724-.6227.1744-1.1843.1063-1.1945-.0339.0142-.0447.2083.0938.4963.1289.2983.3408.5139.4509.5884-4.5117-2.7608-.6851-9.4532,3.9895-6.9512h0Z"/>
      </g>
      <g>
        <path class="cls-1" d="M652.2311,443.8689c5.5109-2.1762,12.6075,10.5445,17.352,12.7414,4.3117,1.9964,7.2994,4.2448,9.415,5.8555,5.852,4.4554,6.0382,6.2837,11.4663,10.7483,2.561,2.1064,5.7548,4.0177,12.1422,7.8404,7.7232,4.6219,12.8252,2.2452,16.6009,3.7362,7.7464,3.059,10.9094,3.5996,16.8474,6.9992,1.012.5794,6.7469,8.2913,5.9417,11.1879-.6366,2.2901-6.5166,2.5842-10.1108,2.2797-4.9365-.4182-9.1337.4918-16.5957-2.2403-7.4023-2.7103-4.6326-4.1601-14.1366-7.3386-8.9982-3.0094-8.8557-3.9171-12.9955-4.47-6.4121-.8564-7.0614,1.2803-15.2882,1.0772-5.1217-.1265-8.9686-1.0558-14.7119-2.4434-7.0318-1.6988-17.0491,4.2031-18.8084,2.5181"/>
        <path class="cls-5" d="M734.4699,509.3753c-1.123,0-2.1348-.0586-2.9229-.125-1.1797-.1006-2.3564-.1152-3.6016-.1318-3.7168-.0488-7.9297-.1035-14.0332-2.3389-3.9951-1.4619-5.6074-2.7227-7.0303-3.834-1.2949-1.0127-2.5176-1.9688-7-3.4668-4.1758-1.3965-6.4336-2.3486-8.082-3.0439-1.8096-.7637-2.4189-1.0205-4.1719-1.2549-2.6553-.3555-3.9268-.0977-5.8525.293-2.043.4131-4.5811.9404-9.0039.8184-5.5479-.1357-9.7441-1.1504-15.5508-2.5527-2.9385-.7119-7.4326.6367-10.7129,1.6172-4.1816,1.2539-7.4834,2.2422-9.9297-.1016-1.5986-1.5303-1.6533-4.0674-.1221-5.665,1.1455-1.1982,2.8535-1.5273,4.3154-.9766.7988-.1436,2.2949-.5918,3.4365-.9336,4.1572-1.2441,9.8516-2.9482,14.8906-1.7324,5.7236,1.3828,9.1758,2.2178,13.8701,2.333,3.5234.0811,5.3984-.2939,7.2178-.6621,2.2207-.4492,4.5195-.9141,8.502-.3809,2.8174.376,4.1729.9473,6.2256,1.8135,1.5293.6445,3.624,1.5283,7.5098,2.8271,5.3633,1.7939,7.3516,3.1572,9.3936,4.7529,1.1396.8916,2.04,1.5947,4.8506,2.624,4.8193,1.7646,8.0078,1.8066,11.3828,1.8506,1.3311.0176,2.707.0352,4.1729.1592,2.1318.1826,4.1426.0547,5.4248-.1689-.8838-1.9639-2.9238-4.9746-3.9102-6.0127-3.5557-2.0059-5.9922-2.8809-9.626-4.1846-1.8018-.6465-3.8447-1.3799-6.377-2.3799-.6943-.2744-1.8896-.3027-3.2725-.335-3.4023-.0791-8.0625-.1885-13.9141-3.6904-6.5488-3.9189-9.8359-5.8857-12.6299-8.1836-2.7314-2.2461-4.2871-3.9297-5.6592-5.415-1.5195-1.6436-2.832-3.0645-5.6895-5.2393-1.8564-1.415-4.6611-3.5508-8.6709-5.4072-2.5176-1.166-4.9004-3.7734-7.4238-6.5342-1.7568-1.9229-5.3867-5.8945-6.8682-6.0811-2.0342.7441-4.3047-.2656-5.1045-2.292-.8125-2.0586.1973-4.3867,2.2559-5.1992,6.0078-2.3701,11.3428,3.4707,15.6328,8.165,1.6123,1.7637,3.8193,4.1797,4.876,4.6689,4.8027,2.2227,8.1553,4.7773,10.1592,6.3037,3.4121,2.5977,5.0938,4.417,6.7188,6.1768,1.3145,1.4219,2.5566,2.7656,4.8643,4.6641,2.3311,1.917,5.4473,3.7812,11.6543,7.4961,4.0381,2.416,7.0615,2.4863,9.9863,2.5547,1.9697.0469,4.0059.0938,6.0283.8926,2.415.9541,4.3945,1.665,6.1416,2.291,3.8428,1.3799,6.8779,2.4688,11.2256,4.958,2.0615,1.1826,9.2988,10.3906,7.8105,15.7402-1.2422,4.4756-7.1172,5.3232-11.3867,5.3232Z"/>
      </g>
      <g>
        <path class="cls-1" d="M256.9414,201.1586c.2478-6.8209-16.5301-4.8559-20.7999-7.9099-3.8803-2.7754-7.5217-4.0995-10.1207-5.0243-7.1892-2.558-9.2755-1.4716-16.3095-3.6144-3.3187-1.011-6.6693-2.7672-13.3704-6.2797-8.1023-4.247-7.4743-10.8126-10.5889-13.421-6.39-5.3516-8.2188-8.0273-14.2788-11.3993-1.0328-.5747-11.7629-.7648-14.6393,2.0174-2.274,2.1995-.3049,8.0732,1.4321,11.3283,2.3857,4.4707,3.0202,9.148,8.9393,14.4517,5.8717,5.2613,6.3885,1.5865,13.5955,8.5502,6.8235,6.5931,7.7677,5.8271,9.9911,9.4363,3.4438,5.5901,1.3436,7.6957,4.7756,15.4881,2.1366,4.8512,4.6604,7.9172,8.4283,12.4947,4.6132,5.6044,2.0195,19.3506,4.5614,19.8804"/>
        <path class="cls-5" d="M208.5616,251.1654c-.2715,0-.5459-.0273-.8223-.085-4.125-.8604-4.3555-5.3467-4.5986-10.0967-.1836-3.585-.4609-9.001-2.2383-11.1602-3.8555-4.6826-6.6416-8.0664-9.002-13.4258-1.8701-4.2461-2.2988-7.0752-2.6426-9.3496-.3262-2.1533-.5225-3.4521-1.8779-5.6523-.8535-1.3857-1.2627-1.707-2.7842-2.9043-1.3447-1.0586-3.377-2.6572-6.5791-5.752-3.2471-3.1377-4.626-3.6035-6.2236-4.1445-1.7598-.5947-3.9512-1.3359-7.2617-4.3027-4.999-4.4795-6.7412-8.5947-8.2793-12.2256-.4971-1.1748-.9668-2.2842-1.5215-3.3242-.9854-1.8467-5.6455-11.2969-.6816-16.0957,4.2246-4.0869,16.7256-4.1084,19.3711-2.6396,4.5352,2.5234,6.9561,4.7305,10.0215,7.5244,1.3633,1.2432,2.9082,2.6514,4.8838,4.3057,1.8398,1.542,2.7275,3.5654,3.5859,5.5225,1.207,2.7539,2.3477,5.3545,6.29,7.4219,6.4697,3.3906,9.7168,5.0928,12.6777,5.9951,2.957.9004,4.9092,1.166,6.9746,1.4473,2.5898.3516,5.2666.7158,9.5107,2.2256,2.499.8877,6.6846,2.376,11.1084,5.5391.8721.5762,4.4111,1.0352,6.7529,1.3379,6.7559.876,16.0078,2.0752,15.7207,9.9775-.0811,2.2129-1.9619,3.9434-4.1504,3.8594-2.1357-.0781-3.8203-1.8135-3.8613-3.9238-1.2383-.9922-6.085-1.6201-8.7393-1.9648-4.2705-.5527-7.959-1.0312-10.3857-2.7676-3.5059-2.5078-6.8906-3.71-9.1309-4.5059-3.4619-1.2324-5.5205-1.5117-7.9043-1.8359-2.1826-.2969-4.6572-.6328-8.2314-1.7227-3.6797-1.1201-7.1494-2.9395-14.0625-6.5635-6.4326-3.3711-8.5254-8.1436-9.9092-11.3008-.4648-1.0605-.9922-2.2617-1.3926-2.5967-2.1035-1.7617-3.7148-3.2305-5.1367-4.5264-2.7734-2.5283-4.6436-4.2334-8.0781-6.1963-2.2139-.3135-8.3242.0273-10.1455,1.0303-.1279,1.0664.5107,3.9209,1.9834,6.6807.7236,1.3564,1.2861,2.6865,1.8311,3.9717,1.3848,3.2725,2.5811,6.0977,6.2461,9.3818,2.0869,1.8691,3.0918,2.209,4.4824,2.6797,2.5615.8662,5.0234,1.9141,9.2236,5.9727,2.9102,2.8115,4.6768,4.2021,5.9668,5.2168,1.7715,1.3936,3.0508,2.4004,4.6523,5,2.2109,3.5889,2.6006,6.165,2.9775,8.6562.3018,1.9902.6133,4.0488,2.0527,7.3184,1.916,4.3486,4.1514,7.0635,7.8555,11.5625,3.458,4.2012,3.7891,10.6562,4.0547,15.8438.0645,1.2539.1475,2.8789.2832,3.7861.8975.9229,1.335,2.2607,1.0527,3.6162-.3945,1.8906-2.0605,3.1895-3.9189,3.1895Z"/>
      </g>
      <g>
        <path class="cls-1" d="M649.5992,273.0429c1.6057-4.3974,12.8438-1.9157,16.6309-3.566,3.4416-1.4998,6.3373-2.0851,8.3988-2.4899,5.7023-1.1196,6.8801-.2704,12.3655-1.1347,2.588-.4078,5.3928-1.2917,11.0022-3.0596,6.7824-2.1376,8.0552-6.3986,10.9169-7.8469,5.8713-2.9713,7.8501-4.5563,12.9739-6.2806.8733-.2939,8.4379.3643,9.7267,2.3597,1.0189,1.5775-1.8923,5.2055-3.958,7.1691-2.837,2.6969-4.5015,5.6538-10.0305,8.6286-5.4848,2.951-4.8881.5541-11.7522,4.501-6.4988,3.7369-6.9603,3.1764-9.4589,5.332-3.8701,3.3387-2.9484,4.8433-7.3847,9.5968-2.7619,2.9593-5.3292,4.7443-9.1621,7.4093-4.6929,3.2628-6.4619,12.2771-8.3804,12.4324"/>
        <path class="cls-5" d="M671.4825,310.1019c-2.0664,0-3.8193-1.5879-3.9893-3.6846-.127-1.5615.6602-2.9863,1.9131-3.749.3076-.5469.7549-1.5098,1.1016-2.2559,1.4854-3.1953,3.5205-7.5713,7.0732-10.041,3.7793-2.6289,6.0518-4.209,8.5195-6.8535,1.8311-1.9619,2.5361-3.1748,3.2822-4.459.9346-1.6074,1.9004-3.2695,4.4141-5.4375,1.7852-1.54,2.9336-2.0889,4.5234-2.8477,1.1709-.5596,2.7754-1.3252,5.5547-2.9238,3.9902-2.2949,5.9102-2.7705,8.0049-3.1543,1.0928-.2002,1.8818-.3447,3.8477-1.4023,3.4443-1.8535,5.0947-3.6631,6.8418-5.5791.7188-.7881,1.4619-1.6035,2.3262-2.4248.7803-.7422,1.4482-1.5088,1.9521-2.1709-1.4004-.3076-3.1426-.5078-4.084-.5176-2.9082,1.0098-4.6641,1.9688-7.2646,3.3887-1.333.7285-2.8447,1.5547-4.7773,2.5322-.3906.1973-1.0156.8691-1.6768,1.5791-1.7891,1.9229-4.4932,4.8281-9.8447,6.5137-5.79,1.8252-8.6963,2.7412-11.583,3.1963-2.8164.4434-4.6572.4795-6.2822.5117-1.7285.0342-3.2227.0645-5.9346.5967-1.7754.3486-4.4619.877-7.5703,2.2314-2.1631.9434-5.0371.9844-8.0791,1.0273-1.9229.0283-5.417.0781-6.5488.6182-.8867,1.8281-3.0322,2.7207-4.9785,2.0107-2.0791-.7588-3.1484-3.0596-2.3887-5.1387,1.9482-5.334,8.5205-5.4277,13.8018-5.5039,1.6992-.0244,4.2666-.0605,4.9932-.3613,3.9072-1.7031,7.2363-2.3574,9.2256-2.748,3.3994-.668,5.3936-.707,7.3213-.7451,1.5-.0303,2.918-.0576,5.1934-.416,2.2959-.3613,5.0117-1.2178,10.4209-2.9238,3.335-1.0498,4.8174-2.6426,6.3867-4.3291,1.1113-1.1934,2.2588-2.4268,3.9258-3.2705,1.8203-.9209,3.2725-1.7139,4.5537-2.4141,2.8672-1.5664,5.1318-2.8027,8.9521-4.0889,1.9609-.6641,11.7354-.0938,14.3711,3.9824,2.7539,4.2666-1.6777,9.5059-4.5635,12.248-.6562.624-1.2725,1.2998-1.9248,2.0156-2.0244,2.2207-4.3193,4.7363-8.9678,7.2383-3.0771,1.6553-4.8086,1.9727-6.2002,2.2275-1.2568.2295-2.3418.4287-5.4531,2.2178-3.0449,1.751-4.8818,2.6289-6.0977,3.209-1.3945.666-1.7695.8447-2.7422,1.6836-1.4941,1.29-1.9551,2.083-2.7188,3.3965-.8496,1.4609-1.9062,3.2783-4.3525,5.9004-3.0508,3.2676-5.877,5.2334-9.7891,7.9541-1.7891,1.2441-3.2959,4.4844-4.3955,6.8506-1.5068,3.2422-2.8086,6.041-5.9648,6.2969-.1094.0088-.2197.0137-.3281.0137ZM722.5177,252.6097h-.001.001Z"/>
      </g>
      <g>
        <path class="cls-2" d="M390.828,183.0466c-8.8413-7.6789,16.1937-22.5013,18.1318-30.4062,1.7613-7.1837,5.0113-12.4364,7.3562-16.1618,6.4864-10.3049,10.6498-11.1688,17.4453-20.8327,3.2062-4.5595,5.5256-10.0181,10.1645-20.9352,5.6089-13.2-3.4256-20.1943-2.4868-26.4031,1.9262-12.7385,1.0505-17.7146,5.0017-27.8146.6734-1.7214,14.8796-12.8833,22.2215-12.5809,5.8044.239,10.4801,9.0769,12.202,14.6331,2.365,7.6311,7.3449,13.7171,5.9928,25.9197-1.3413,12.105-6.6203,8.3588-7.6356,23.8049-.9612,14.6241-3.1876,14.6962-1.6787,21.16,2.3371,10.0118,7.7903,10.3188,12.8901,22.8794,3.1749,7.8198,3.602,13.9582,4.2396,23.123.7806,11.2208,21.4176,24.5606,18.6568,27.7684"/>
        <path class="cls-5" d="M388.2003,186.0721c-11.1405-11.1251,10.7331-24.0222,16.4636-31.8939.8091-1.1434,1.1427-1.4581,1.4931-2.7198,2.987-10.0778,8.9272-19.2427,16.272-26.5898,2.8025-2.7181,5.4194-5.203,7.6794-8.1185,5.3494-6.517,8.2725-14.5616,11.7506-22.1989,2.8275-5.8175,2.4703-11.9273-.2289-17.9172-.6782-1.7727-1.5205-3.5696-1.8872-5.8154-.1737-1.0736-.1324-2.3015.0547-3.3855,1.4113-8.4917,1.3242-17.4378,4.4133-25.6423,0,0,.5168-1.3753.5168-1.3753l.1294-.3435.0647-.1719c.223-.4164.5062-.8793.8408-1.1997,5.1488-4.9806,16.351-12.9486,23.7206-12.262,4.5742.7728,7.2874,4.505,9.5132,8.0285,2.1011,3.3375,3.174,7.0942,4.5603,10.7485.0001,0,2.2103,5.2763,2.2103,5.2763,2.3243,5.3913,3.4578,11.6233,2.8444,17.5552-.2536,2.987-.8581,6.1717-2.2895,8.9192-1.3213,2.4891-3.1439,4.6727-3.8908,7.2888-.5167,1.6577-.8294,3.4343-1.0479,5.2449-.1402,1.5695-.3472,4.0282-.4389,5.6391-.278,3.8068-.8326,7.8075-1.5145,11.521-.9548,5.2425,1.0351,10.235,4.1774,14.3494,10.2608,11.6117,13.0482,23.1373,14.1209,38.1886,1.0623,6.2326,7.4254,11.7659,11.9818,16.4382,2.387,2.4005,5.0955,4.6342,6.9434,7.7194,0,0,.2856.5462.2856.5462.0957.1978.1985.4839.2856.7273,1.5849,4.0442-2.5753,8.6794-6.5094,5.6091-1.6774-1.4436-1.8671-3.9738-.4232-5.6511-.4293.4616-.6816,1.1305-.6966,1.7539.0095.1748-.0012.2004.0025.282.0027.0713.0117.1426.0273.2122.009.0576.051.1643.0503.1746.0012.0154.0044.0305.0095.0449.0037.0203.0444.0742.0388.0562-.0154-.0293-.0283-.0596-.0391-.0916-1.2884-2.2732-3.3693-4.2343-5.186-6.3307-20.1324-21.0713-8.7106-20.5711-16.2144-42.784-1.2615-3.4291-2.8601-6.6315-4.9448-9.587-2.2058-3.1406-5.046-6.2134-6.5222-9.9702-1.5771-3.8919-2.4424-8.2819-1.4729-12.4057.9921-4.6508,1.6522-9.2344,1.9811-13.9544.2606-3.0228.6295-5.943,1.5985-8.8955,1.1009-3.7742,4.1354-6.5582,5.242-10.1328.5556-1.6265.8322-3.4322,1.0314-5.2373.6457-5.4977-.318-10.8493-2.4776-16.0041-.7308-1.695-2.6414-6.3097-3.1995-8.0802-2.2021-6.8633-7.4105-17.4918-15.3044-13.2336-5.8661,2.3569-11.7225,6.2912-16.2577,10.6843-1.5874,4.0576-2.6418,8.2331-3.1349,12.5888-.5491,4.8385-.946,10.0466-1.6515,14.9585-.1711,2.3148.8773,4.2608,1.8147,6.6336,2.7888,6.0288,3.7129,12.9747,1.0196,19.4277-3.5166,8.4986-6.5872,17.469-12.3029,24.847-2.3563,3.1796-5.205,6.062-7.785,8.7487-5.0583,5.2643-9.0664,11.6943-11.9086,18.2919-1.187,2.7237-1.6464,5.3103-2.5729,8.1734-2.2589,4.8854-6.2136,8.2318-9.6976,12.0223-2.2083,2.3752-11.2464,11.2314-8.2839,13.2416,4.1203,3.6492-1.1019,9.6726-5.2553,6.051h0Z"/>
      </g>
      <g>
        <path class="cls-1" d="M365.1477,600.0813c2.3547,9.5483-20.1465,18.3937-24.8146,25.7096-4.2422,6.6484-8.6045,11.063-11.7241,14.1848-8.6291,8.6354-11.6779,8.5353-20.228,16.4714-4.034,3.7443-7.8877,8.5727-15.5952,18.2296-9.3191,11.6762-6.5438,20.5966-9.8354,26.4756-6.7534,12.0618-8.3456,17.1442-15.2573,26.1559-1.178,1.5359-15.1376,9.2547-19.7232,7.2864-3.6253-1.5561-2.8021-11.2932-1.5024-17.1376,1.7851-8.0269,1.2212-15.1329,7.3737-26.7995,6.1033-11.5733,7.8725-6.6952,15.2131-21.6215,6.95-14.1319,8.4115-13.6957,10.2411-20.3822,2.8339-10.3567-.5364-11.8995,1.6263-25.3864,1.3464-8.3964,3.7302-14.5173,7.289-23.6559,4.3573-11.1887-3.1239-28.9776.0387-31.4969"/>
        <path class="cls-5" d="M369.0385,599.1219c1.8608,9.7991-9.2472,15.7987-15.7361,20.4481-4.6935,3.1945-9.0707,5.645-11.818,10.3403-5.8493,7.9016-12.8695,15.0279-20.916,20.6106-3.1913,2.1627-6.079,4.2096-8.8514,6.6334-6.3434,5.4936-11.3268,12.292-16.7037,18.7277-2.8162,3.441-5.0395,7.2859-6.2882,11.5643-1.2749,4.091-1.3366,8.4039-2.7519,12.6118-.4625,1.4284-1.3449,2.8401-2.0677,4.1543-1.8332,3.2837-3.5664,6.6118-5.3347,9.9948-2.7147,5.1609-5.7812,10.4881-9.5939,14.9888-1.7054,1.4438-3.4085,2.2787-5.294,3.3235-3.5073,1.7943-7.0415,3.422-11.1777,4.3129-6.5479,1.4667-9.1114-2.4383-9.318-8.5214-.171-4.1029.3766-8.0462,1.2018-11.8519.751-3.5408,1.0972-7.3254,1.8569-11.1868,1.0919-5.8056,3.2272-11.436,6.0586-16.6221,1.6991-3.4064,4.5369-7.0011,7.2706-9.5065,2.5585-2.5361,4.3436-5.5445,6.0343-8.7352,0,0,2.5142-5.0535,2.5142-5.0535,1.7-3.425,3.541-6.8716,5.4575-10.1553,1.9642-3.1995,3.0124-6.1473,3.6676-9.7471.7562-3.644.3756-6.8598.115-10.6587-.4534-7.9699.9449-15.884,3.2349-23.4553,1.3752-4.653,3.0895-9.0085,4.6654-13.4929,1.6915-5.9026.5126-11.9204-.485-18.0508-.5534-3.4323-1.5378-7.0211-1.1728-10.6897,0,0,.1175-.6504.1175-.6504.031-.1958.1104-.4685.2002-.7356.103-.2815.1453-.481.3333-.832,1.2306-2.8387,5.0515-3.8889,7.127-1.2696,1.3789,1.731,1.0935,4.252-.6377,5.6312.3141-.2469.5995-.6016.7129-.9571-.2985,2.3998.3914,5.5551.6881,8.3508.5182,3.7958,1.0182,7.7394.983,11.8566-.03,3.4108-.4804,7.0582-1.7925,10.3196-1.6808,4.1111-3.4244,8.2894-4.8186,12.4016-2.2464,6.8538-3.7075,14.1078-3.4573,21.3049.2172,3.7577.4576,8.1875-.4673,11.9932-1.3308,7.9077-6.6754,14.0857-10.0519,21.0806l-2.6113,5.0996c-1.8781,3.4805-4.0947,7.0219-6.9827,9.8044-1.4455,1.4097-2.6491,2.5376-3.7011,3.9131-2.147,2.7759-3.8604,6.1315-5.3369,9.3572-3.2037,6.912-3.7049,14.0672-5.1431,21.6126-.7874,3.5464-1.2903,7.1408-1.1538,10.708.0263,1.4249.3004,3.1613.9541,4.2215.2709.2756.3516.3281.8792.372,4.1647-.0573,8.2603-2.1926,12.1548-4.1139,1.3467-.6421,3.4042-1.9546,4.3261-2.6475,3.3445-4.335,6.103-8.9043,8.6189-13.8292,2.1196-4.1424,4.3718-8.3768,6.5763-12.5251,1.7455-4.1679,1.5602-9.0278,2.9691-13.4621,1.3511-4.8748,3.8909-9.3956,7.0245-13.3381,5.3771-6.739,10.4759-13.9472,16.9322-19.7564,5.5596-5.138,12.2876-8.7786,17.5017-14.2549,2.6299-2.6318,5.1797-5.2963,7.4126-8.1477,2.527-2.9201,4.2594-6.7528,6.9452-9.4632,5.4857-5.3103,12.5354-9.0366,17.9022-14.1193,1.231-1.1677,2.273-2.4074,2.9236-3.5353.4929-.9088.7334-1.6037.5227-2.4539-1.2399-5.2284,6.3966-7.1926,7.7815-1.9189h0Z"/>
      </g>
      <g>
        <path class="cls-4" d="M571.4432,169.423c.6547-8.4352,9.4622-17.5795,15.0526-23.3837,5.0804-5.2747,9.669-8.6198,12.9411-10.9819,9.0512-6.5337,11.422-6.1375,20.2275-12.0789,4.1545-2.8032,8.4518-6.5553,17.0464-14.0596,10.3917-9.0734,15.5876-13.6101,19.7187-18.3212,8.4757-9.6656,8.5142-12.9958,16.3138-20.0271,1.3293-1.1984,11.8417-10.6753,14.9306-8.5192,2.442,1.7046-.7609,9.9784-3.3168,14.8625-3.5103,6.708-6.3982,8.1646-14.2977,17.5521-7.8364,9.3124-6.4809,9.6454-16.1702,21.7098-9.1736,11.4223-10.2082,10.8992-13.4017,16.4522-4.9464,8.6009-2.7015,10.2682-7.9418,21.6242-3.2624,7.0698-6.7432,12.0809-11.9399,19.5625-6.3626,9.16-9.5439,13.74-12.6917,15.5805-7.8841,4.6097-15.3278-.0268-23.9149-5.3754-8.5225-5.3084-13.0578-8.1333-12.5561-14.5968Z"/>
        <path class="cls-5" d="M686.5216,61.7335c.449,0,.8389.0991,1.1523.3179,2.4419,1.7046-.761,9.9785-3.3169,14.8625-3.5103,6.708-6.3982,8.1646-14.2976,17.5522-7.8364,9.3123-6.481,9.6453-16.1702,21.7097-9.1736,11.4224-10.2083,10.8992-13.4019,16.4521-4.9463,8.6008-2.7014,10.2681-7.9417,21.624-3.2625,7.0698-6.7432,12.0811-11.9399,19.5625-6.3625,9.1602-9.5439,13.7402-12.6917,15.5806-2.2656,1.3247-4.4956,1.886-6.7261,1.886-5.5315,0-11.0693-3.4495-17.1887-7.2612-8.5227-5.3083-13.0579-8.1333-12.5562-14.5969.6545-8.4351,9.4622-17.5793,15.0525-23.3835,5.0803-5.2749,9.6689-8.6199,12.9412-10.9819,9.0513-6.5337,11.4219-6.1375,20.2275-12.0789,4.1545-2.8032,8.4517-6.5554,17.0464-14.0596,10.3916-9.0735,15.5876-13.6101,19.7188-18.3213,8.4756-9.6655,8.5142-12.9956,16.3137-20.0271,1.1943-1.0769,9.8025-8.8367,13.7783-8.8372M686.5219,53.7191h-.0007c-2.1116,0-7.0564.0005-19.1445,10.8992-5.0752,4.5752-7.4158,7.9482-9.894,11.5195-1.804,2.5996-3.6694,5.2876-7.0789,9.1758-3.7776,4.3079-8.8491,8.7363-18.9531,17.5588-8.3496,7.29-12.5293,10.9392-16.2688,13.4626-3.6965,2.4941-6.0806,3.7229-8.6045,5.0242-3.1936,1.646-6.4958,3.3484-11.8313,7.2-3.1196,2.2517-8.3408,6.0208-14.0229,11.9204-6.5283,6.7783-16.3933,17.0208-17.2703,28.3232-.8782,11.3147,7.0867,16.2756,16.3096,22.02,6.6873,4.1655,13.6025,8.4727,21.4258,8.4727,3.7634,0,7.3872-1.0032,10.7712-2.9817,4.6755-2.7334,7.9829-7.4949,15.229-17.9272,5.2698-7.5864,9.0774-13.0681,12.6345-20.7764,2.8518-6.1802,3.7734-9.9565,4.5137-12.991.6895-2.825,1.1055-4.5303,3.0984-7.9956,1.3286-2.3101,1.9541-2.9971,4.0266-5.2734,1.8618-2.0449,4.4119-4.8457,8.6765-10.1558,5.0601-6.3005,7.252-9.5618,9.1855-12.439,1.8047-2.6851,3.2302-4.8059,6.8682-9.1289,2.6965-3.2048,4.7412-5.3977,6.5449-7.3325,3.3335-3.5752,5.9663-6.3992,8.7214-11.6643.8345-1.5945,2.9092-5.7776,4.1458-10.1655,2.4622-8.7378-.4587-12.9714-3.3425-14.9846-1.6504-1.1519-3.635-1.7605-5.7395-1.7605h0Z"/>
      </g>
      <g>
        <path class="cls-4" d="M681.8809,371.9889c0,14.22-9.87,32.44-12.05,46.05-3.24,20.28-.06,35.53-7.66,53.98-6.37,15.47-23.89,31.6-32.96,45.42-11.95,18.2-16.38,33.41-32.34,48.08-7.47,6.86-27.71,15.09-35.94,21.07-12.38,8.98-13.21,15.13-27.09,21.88-14.08,6.84-40.54,10.15-55.89,14.42-22.45,6.2401-34.42,11.88-58.86,11.88-13,0-31.5-6.6-44-8.42-19.1-2.79-31.81-1.97-49.35-8.64-12.03-4.57-25.11-17.13-36.22-23.34-15.67-8.77-28.89-11.98-42.38-23.66-4.83-4.18-9.02-8.75-12.89-13.55-7.31-9.04-13.52-18.89-20.79-28.48-7.28-9.62-15.63-18.98-22.7401-29.03-3.74-5.29-7.14-10.78-9.86-16.6-7.24-15.51-5.63-35.94-9.75-52.91-4.85-19.96-14.8-36.7-14.8-58.15,0-15.05,6.32-29.49,8.75-43.84,2.43-14.35.96-28.62,5.61-42.08,4.48-12.9301,14.83-23.78,21.18-35.71,8.32-15.64,13.28-31.97,24.46-45.53,10.99-13.31,27.86-19.61,41.23-30.53,13.37-10.93,23.2401-26.48,38.61-34.63,17.16-9.1,40.77-8.63,59.93-13.78,21.79-5.85,39.38-16.69,63.01-16.69,18.48,0,38.0099,9.61,55.4,13.23,16.08,3.36,30.12.47,44.97,6.62,17.57,7.26,33.84,23.29,49.25,34.01,17,11.83,32.87,18.71,46.62,34.14,4.41,4.94,8.2,12.72,11.83,20.41,3.01,6.35,5.91,12.63,8.97,17.19,4.38,6.53,8.8,11.19,12.93,15.96,4.42,5.11,8.51,10.36,11.85,18.1801,5.84,13.68,6.32,36.67,9.79,51.43,4.55,19.37,11.18,30.86,11.18,51.62Z"/>
        <path class="cls-5" d="M419.0909,109.1988c18.48,0,38.01,9.6101,55.3999,13.23,16.0801,3.3601,30.1201.47,44.97,6.6201,17.5701,7.26,33.8401,23.29,49.25,34.01,17,11.8301,32.8701,18.71,46.6201,34.1399,4.4099,4.9402,8.2,12.72,11.8298,20.4102,3.01,6.3499,5.9102,12.6299,8.9702,17.1899,4.3799,6.53,8.7998,11.1899,12.9299,15.96,4.4199,5.1101,8.51,10.3601,11.8499,18.1799,5.8401,13.6802,6.3201,36.6702,9.79,51.4302,4.55,19.3699,11.1802,30.8599,11.1802,51.6199,0,14.22-9.8701,32.4399-12.05,46.05-3.24,20.28-.0601,35.53-7.6602,53.98-6.3699,15.47-23.8899,31.6001-32.96,45.4199-11.95,18.2-16.3799,33.4102-32.3398,48.0801-7.47,6.8601-27.7102,15.0901-35.9402,21.0701-12.3799,8.98-13.21,15.1299-27.0898,21.8799-14.0801,6.8401-40.54,10.1501-55.8901,14.4199-22.45,6.2402-34.4199,11.8801-58.8599,11.8801-13,0-31.5-6.6001-44-8.4199-19.1001-2.79-31.8101-1.97-49.3501-8.6401-12.03-4.5701-25.1099-17.1299-36.22-23.3398-15.6699-8.77-28.8899-11.9802-42.3799-23.6602-4.8301-4.1799-9.02-8.75-12.8901-13.55-7.3101-9.0398-13.52-18.8899-20.79-28.48-7.28-9.6199-15.6299-18.98-22.74-29.03-3.74-5.2898-7.1399-10.7798-9.8599-16.5999-7.24-15.51-5.6301-35.9399-9.75-52.9102-4.8501-19.96-14.8-36.7-14.8-58.1499,0-15.05,6.3201-29.49,8.75-43.8401,2.4299-14.3499.96-28.6199,5.6099-42.0798,4.4802-12.9302,14.8301-23.78,21.1802-35.71,8.3198-15.6401,13.28-31.97,24.46-45.53,10.99-13.3101,27.8599-19.6101,41.23-30.53,13.3699-10.9299,23.24-26.48,38.6101-34.6301,17.1599-9.0999,40.7698-8.6299,59.9299-13.7798,21.79-5.8501,39.3799-16.6902,63.01-16.6902M419.0909,101.1842c-17.1794,0-31.3237,5.2129-45.0022,10.2539-6.4751,2.3862-13.1707,4.8538-20.0859,6.7104-6.707,1.8027-14.0647,2.8804-21.8542,4.0215-13.6577,2.0007-27.7805,4.0696-39.7524,10.4182-10.5959,5.6187-18.5444,14.0283-26.2314,22.1611-4.592,4.8584-8.9294,9.4475-13.6963,13.3445-4.7954,3.9167-10.1387,7.2249-15.7954,10.7275-9.3359,5.7805-18.99,11.7581-26.5422,20.9048-8.175,9.9155-13.2236,21.0212-18.1062,31.7612-2.2744,5.0032-4.6262,10.1765-7.2493,15.1077-2.2847,4.292-5.199,8.5225-8.2842,13.0012-5.0742,7.3662-10.3213,14.9829-13.3931,23.8486-3.2068,9.2822-3.8062,18.6003-4.3857,27.6118-.3511,5.457-.6826,10.6113-1.5535,15.7539-.8433,4.9805-2.2087,10.0383-3.6543,15.3931-2.5605,9.4854-5.2083,19.2935-5.2083,29.7852,0,15.3257,4.5479,28.2415,8.9458,40.7319,2.3047,6.5452,4.4814,12.7273,6.0811,19.3103,1.4934,6.1521,2.1804,12.9175,2.9077,20.0798,1.1833,11.6519,2.407,23.7004,7.3679,34.3279,2.6675,5.7085,6.1272,11.5417,10.5779,17.8369,4.3093,6.0908,9.0295,11.9031,13.5942,17.5242,3.2683,4.0242,6.3555,7.8254,9.2991,11.7153,3.019,3.9827,5.9221,8.1133,8.7295,12.1082,3.8638,5.4978,7.8589,11.1826,12.2195,16.575,4.5952,5.6995,9.137,10.4685,13.8774,14.5708,9.6687,8.3713,18.9309,12.6477,28.7368,17.1748,4.8242,2.2273,9.8127,4.5303,14.9736,7.4187,4.0559,2.2673,8.5952,5.6135,13.4009,9.1562,7.7161,5.6882,15.6948,11.5701,23.887,14.6821,13.3079,5.0608,24.2034,6.1472,35.7385,7.2974,4.8137.48,9.7915.9763,15.2993,1.781,4.4419.6467,9.9277,2.0039,15.7358,3.4409,10.0618,2.4893,20.4658,5.0632,29.4226,5.0632,20.3835,0,32.5508-3.6809,47.9548-8.3408,4.092-1.2378,8.3237-2.5181,13.0513-3.832,5.0735-1.4114,11.6072-2.7498,18.5244-4.1665,14.0767-2.8835,28.6328-5.8652,38.7214-10.7664,9.4016-4.572,13.8516-9.1433,18.155-13.5642,2.7407-2.8152,5.5745-5.7263,10.1387-9.0371,3.0647-2.2268,8.7922-5.196,14.3315-8.0676,8.499-4.406,17.2876-8.9619,22.324-13.5869,11.6318-10.6917,17.5574-21.4775,23.8308-32.8967,2.9465-5.3633,5.9932-10.9089,9.7874-16.6875,3.2009-4.8772,7.6721-10.2258,12.406-15.8887,8.2847-9.9106,16.8513-20.1584,21.2654-30.8787,5.334-12.9487,5.8911-24.6216,6.4297-35.9102.301-6.312.6125-12.8389,1.7339-19.8569.7991-4.9895,2.9065-11.0601,5.1379-17.4873,3.4475-9.9302,7.0125-20.1985,7.0125-29.8271,0-15.2798-3.2939-25.8972-6.7812-37.1382-1.5774-5.0842-3.2083-10.3416-4.6113-16.3145-1.2324-5.2419-2.0847-11.7969-2.9871-18.7366-1.5686-12.0623-3.1904-24.5354-7.2341-34.0076-3.9412-9.2278-8.8591-15.3044-13.1592-20.2761-.7878-.9099-1.5833-1.813-2.3867-2.7251-3.2839-3.7275-6.6797-7.582-9.949-12.4563-2.5037-3.7312-5.0388-9.0891-7.7229-14.762l-.6614-1.3967c-4.188-8.8728-8.0684-16.6855-13.0928-22.3142-10.3779-11.646-21.5386-18.5728-33.3545-25.9062-4.7798-2.9666-9.7219-6.0339-14.6667-9.4751-4.7405-3.2976-9.5847-7.1343-14.7131-11.196-11.3489-8.9888-23.0845-18.2834-36.054-23.6426-10.0862-4.1772-19.6235-4.6929-28.8467-5.1917-5.9753-.323-11.6194-.6282-17.5447-1.8665-5.9275-1.2339-12.2217-3.2432-18.8855-5.3704-12.3652-3.9473-25.1514-8.0291-38.1538-8.0291h0Z"/>
      </g>
      <path class="cls-2" d="M681.8809,371.9889c0,14.22-9.87,32.44-12.05,46.05-3.24,20.28-.06,35.53-7.66,53.98-6.37,15.47-23.89,31.6-32.96,45.42-11.95,18.2-16.38,33.41-32.34,48.08-7.47,6.86-27.71,15.09-35.94,21.07-12.38,8.98-13.21,15.13-27.09,21.88-14.08,6.84-40.54,10.15-55.89,14.42-22.45,6.2401-34.42,11.88-58.86,11.88-13,0-31.5-6.6-44-8.42-19.1-2.79-31.81-1.97-49.35-8.64-12.03-4.57-25.11-17.13-36.22-23.34-15.67-8.77-28.89-11.98-42.38-23.66-13.91-12.05-22.55-27.35-33.68-42.03-7.28-9.62-15.63-18.98-22.7401-29.03,20.75,8.39,43.2,20.77,58.3701,31.54,5.55,3.94,17.8199,13.13,36.15,16.85,14.8,3,27.81,1.27,36.81,0,18.51-2.61,18.81-6.28,39.9-10.72,27.39-5.78,31.53-.5601,45.58-7.66,15.72-7.94,12.33-15.36,28.22-24.51,20.7-11.92,31.27-2.13,49.57-13.79,14.13-9,8.98-15.58,25.47-30.64,22.11-20.19,37-13.51,47.13-30.64,7.77-13.12.6-19.71,10.38-35.23,7.7-12.23,13.28-9.93,21.79-22.86,2.08-3.15,11.24-17.72,10.75-36.88-.36-14.31-5.7401-16.75-5.01-27.58,1.1-16.52,14.63-26.32,21.2-33.7,12.92-14.5099,13.33-35.84,10.1299-56.22,3.01,6.35,5.91,12.63,8.97,17.19,9.05,13.51,18.32,19.01,24.78,34.14,5.84,13.68,6.32,36.67,9.79,51.43,4.55,19.37,11.18,30.86,11.18,51.62Z"/>
      <path class="cls-1" d="M681.8809,371.9889c0,3.77-.69,7.82-1.76,11.99-2.03,8-5.41,16.44-7.83,24.2-1.08,3.46-1.97,6.78-2.46,9.86-3.24,20.28-.06,35.53-7.66,53.98-6.37,15.47-23.89,31.6-32.96,45.42-11.95,18.2-16.38,33.41-32.34,48.08-7.47,6.86-27.71,15.09-35.94,21.07-12.38,8.98-13.21,15.13-27.09,21.88-14.08,6.84-40.54,10.15-55.89,14.42-22.45,6.2401-34.42,11.88-58.86,11.88-13,0-31.5-6.6-44-8.42-19.1-2.79-31.81-1.97-49.35-8.64-12.03-4.57-25.11-17.13-36.22-23.34-15.67-8.77-28.89-11.98-42.38-23.66-4.83-4.18-9.02-8.75-12.89-13.55,10.84,2.84,20.25,5.95,25.63,7.73,18.98,6.28,34.21,13.79,34.21,13.79,17.08,8.42,21.29,12.92,39.61,21.45,23.07,10.74,30.17,11.14,35.29,10.72,13.36-1.1,14.01-7.89,29.94-12.26,19.62-5.37,23.57,3.59,45.89,0,19.73-3.17,16.48-10.15,40.5-15.31,18.18-3.91,28.41-1.71,37.61-10.73,5.82-5.71,3.29-8.13,9.38-15.32,11.19-13.21,23.39-9.29,35.99-19.91,4.87-4.11,4.25-5.71,16.1-30.64,10.93-22.98,16.39-34.48,22.85-44.43,9.28-14.28,15.12-19.08,19.25-24.78,2.17-3,3.85-6.26,5.31-11.28,4.13-14.21-1.28-16.14,3.15-32.87.97-3.6801,2.04-6.64,3.16-9.17,4.29-9.79,9.16-13.12,11.29-26.07,1.01-6.15.41-8.45-1.18-29.1-1.03-13.34-2.16-30.23-2.39-36.77-.3701-10.34.3199-27.76,3.22-41.45,4.42,5.11,8.51,10.36,11.85,18.1801,5.84,13.68,6.32,36.67,9.79,51.43,4.55,19.37,11.18,30.86,11.18,51.62Z"/>
      <path class="cls-2" d="M551.0449,296.8066c4.668,6.9596,5.523,21.499-.3795,36.766-3.0804,7.9676-6.879,17.7929-16.7408,22.4681-.7091.3362-13.0203,5.9887-19.4043,0-3.1989-3.0008-4.6612-8.6916-2.5532-11.7447,1.9414-2.8117,5.3851-1.1763,10.7234-3.5745,5.7473-2.5819,8.6383-7.5696,11.7447-12.9289,2.7084-4.6728,5.8621-10.1137,5.617-17.1987-.2305-6.6636-3.2937-9.7573-1.0213-13.7872,1.2818-2.2731,3.9681-4.3245,6.6383-4.0851,2.8042.2514,4.6084,2.9414,5.3755,4.0851Z"/>
      <path class="cls-2" d="M534.946,401.998c2.1203,6.9918-4.0522,13.988-6.1277,16.3404-4.8876,5.5399-10.5715,7.4711-11.7447,7.8504-6.5298,2.1111-17.0334,2.6052-19.4043-2.2334-1.4306-2.9196.1474-7.6836,3.0638-9.3614,3.1023-1.7847,5.4109,1.2506,10.247.2634,5.1724-1.0558,8.5288-5.7519,10.6891-8.7744,4.3318-6.0607,4.0356-10.3355,6.6383-10.7234,2.5192-.3754,5.5992,3.2118,6.6383,6.6383Z"/>
      <path class="cls-2" d="M464.9885,455.0831c.941,5.7752-9.3842,11.392-13.7872,13.7872-10.1683,5.5315-19.2918,5.6319-21.4468,5.617-3.1945-.022-18.0226-.1244-19.9149-6.6383-1.0746-3.6989,2.1436-9.0471,6.1277-10.2128,3.8875-1.1374,5.5965,2.5582,12.2553,4.0851,6.0799,1.3942,14.5125.5736,19.9149-4.0851,4.4677-3.8527,4.0749-7.926,7.6596-8.6808,3.6549-.7696,8.6019,2.5092,9.1915,6.1277Z"/>
      <path class="cls-2" d="M327.1162,524.5512c-6.131,6.7817-15.8764,7.0374-25.0213,7.1489-10.4586.1275-22.0242.2686-33.1915-7.1489-1.5141-1.0057-16.2471-10.7915-13.7872-19.4043,1.2131-4.2474,6.4896-7.7968,10.7234-7.1489,4.318.6608,4.9684,5.2922,10.7234,10.2128,0,0,6.1276,5.239,14.415,6.7719,10.4497,1.9328,14.5175-3.9055,30.0105-3.1974,6.8309.3122,8.9263,1.5791,9.7021,3.1653,1.7563,3.5911-3.1162,9.0937-3.5745,9.6006Z"/>
      <path class="cls-2" d="M370.5204,451.53c-2.6833,6.8969-11.6452,9.2905-14.8085,10.1354-15.5973,4.1658-28.4216-4.2547-29.617-5.0677-3.3253-2.2616-11.1519-7.5845-10.2128-13.8338.4966-3.3047,3.4159-6.6785,6.6383-7.0637,3.4398-.4112,4.906,2.8603,11.234,7.0637,5.349,3.5531,10.0754,6.6926,15.3192,6.0785,6.0152-.7044,6.9878-5.6778,14.2979-6.0785,1.4945-.0819,5.4225-.2972,7.1489,2.1278,1.67,2.3458.3205,5.8144,0,6.6383Z"/>
      <path class="cls-2" d="M246.4353,466.3385c-6.1542,4.8843-20.4757-4.0191-29.617-9.7021-8.954-5.5665-16.0031-10.0854-19.4043-18.8936-.8527-2.2083-4.2155-10.917,0-14.8085,2.7781-2.5646,8.2674-2.5013,11.2341,0,3.1794,2.6807,1.4085,6.4306,4.0851,12.731.3896.9172,2.8711,6.5795,8.1526,10.2477,5.9834,4.1558,9.7323,1.7042,21.4645,6.6383,3.7786,1.5891,5.8403,2.8741,6.6383,5.1064,1.0209,2.8559-.1902,6.8055-2.5532,8.6808Z"/>
      <path class="cls-2" d="M453.7545,388.2108c1.8438,5.6695-9.5417,13.4619-12.2553,15.3191-12.2141,8.3596-24.638,8.0886-27.0638,7.9964-5.3101-.2019-18.1195-.689-20.9362-7.9964-1.8042-4.6807.7588-11.4668,4.5957-12.7659,3.1445-1.0646,4.9622,2.2948,11.5354,4.5686,1.6218.561,11.4156,3.9489,19.1029,0,6.9128-3.551,6.0406-9.9109,12.2553-11.7175,5.0156-1.4581,11.5777.9419,12.766,4.5957Z"/>
      <path class="cls-2" d="M610.0098,220.2108c4.4444,4.1257,2.1894,12.396,0,20.4255-1.6908,6.2011-4.0956,14.5781-11.7447,20.9362-3.0552,2.5395-10.188,8.4684-15.8298,5.617-4.2418-2.1438-6.4204-8.6342-4.5957-12.766,1.4298-3.2376,4.2498-2.6092,9.1915-6.6383,1.2991-1.0592,7.6164-6.2098,9.1915-13.7872,1.4925-7.18-2.4962-10.6532,0-13.7872,2.6109-3.2779,10.1094-3.4141,13.7872,0Z"/>
      <path class="cls-3" d="M211.7119,247.0193c-1.0168-13.3516,6.4634-23.6632,10.6326-29.4104,3.3376-4.6009,11.8348-15.9927,27.0084-21.1428,4.0687-1.3809,17.2526-5.8557,22.1038,0,2.6795,3.2344,2.3476,9.0543,0,13.0213-4.1664,7.0403-12.2233,4.091-22.1038,10.7626-3.5275,2.3819-7.4337,8.2456-15.102,19.8757-10.5935,16.0666-13.1004,21.9585-16.4113,21.4468-3.8746-.5988-5.7418-9.4865-6.1276-14.5532Z"/>
      <path class="cls-3" d="M184.9034,325.7404c2.9245-12.1921-3.0184-15.228,0-24.3382,3.4628-10.4514,14.0556-14.8201,15.3192-15.3191,2.2491-.8882,11.8288-4.6715,16.8511,0,4.8094,4.4736,2.5023,13.9685,0,19.1221-3.2307,6.6536-6.7136,5.9207-11.4894,12.2821-8.9922,11.9778-3.7833,24.0852-10.248,26.8085-4.295,1.8093-11.0119-1.674-12.871-6.1277-1.5024-3.5991.9095-6.0547,2.4382-12.4278Z"/>
      <path class="cls-3" d="M294.2506,210.9095c.5071-2.6558,2.6385-13.8189,13.0213-21.4468,8.8305-6.4876,18.0064-6.2868,25.2766-6.1277,5.8896.1289,16.9564.3711,19.1489,6.1277,1.2955,3.4013-.7275,8.149-3.8298,10.8498-5.5455,4.8278-11.2086.2146-24.7242,3.7034-5.9956,1.5476-10.6205,2.7414-13.5736,6.8936-2.5591,3.5982-1.9625,6.7462-5.617,10.2128-1.8962,1.7987-5.7713,4.4746-8.1702,3.2704-3.7472-1.8811-1.7825-12.171-1.5319-13.4832Z"/>
      <path class="cls-2" d="M348.8183,142.5938c10.3305-.5036,10.3654.7882,13.7872,0,5.7898-1.3337,5.8946-5.0792,14.0425-7.4043,4.8679-1.3891,6.1857-.4389,6.6383,0,1.5447,1.4977.9892,4.774,0,6.8936-1.8404,3.9436-4.9342,3.3523-9.7021,8.1702-3.3689,3.4042-2.9864,4.8737-5.617,6.1277-3.056,1.4567-6.1777.7155-9.1915,0-5.4792-1.3009-8.8587-4.1798-11.7447-6.6383-2.3603-2.0107-4.8787-4.1561-4.3405-5.617.3954-1.0731,2.2805-1.3444,6.1277-1.5319Z"/>
      <path class="cls-3" d="M401.1587,122.6789c4.3021-5.184,11.1534-5.6581,17.9371-6.1277,15.3303-1.061,26.1804,4.5505,29.0416,6.1277,4.5654,2.5166,9.9514,5.586,12.2553,11.7837.5175,1.392,2.3752,6.3893,0,9.6631-3.653,5.035-14.5539,2.1822-16.3404,1.7147-8.4839-2.2203-7.7331-5.8418-16.8511-8.8636-9.8149-3.2528-18.8935-2.5141-18.8936-2.5141-5.3477.4351-8.1228,1.6851-9.7021,0-2.1217-2.2639-.4872-8.1201,2.5532-11.7837Z"/>
      <path class="cls-3" d="M408.1783,194.5557c7.832-5.2358,15.336-7.0129,18.5774-7.6596,8.2846-1.6529,13.6043-2.7142,19.5633,0,.9388.4276,8.494,4.0105,11.075,12.1264.7372,2.3181,2.1509,6.7635,0,9.3204-1.874,2.2278-5.2137,1.5475-18.6927,0-13.4915-1.5489-14.8859-1.4116-16.5413-1.0213-7.5392,1.7775-9.3197,6.1668-13.9817,5.1064-4.1596-.9461-7.8727-5.6073-7.4651-9.7295.3271-3.3079,3.2119-5.2995,7.4651-8.1428Z"/>
      <path class="cls-2" d="M249.3529,261.6029c-2.7872.3-1.7145,7.6684-6.8719,13.7568-5.521,6.5175-12.7935,5.2079-13.152,8.4353-.4453,4.0094,10.221,11.0474,20.0239,8.9073.4351-.095,9.4792-2.1979,11.3803-8.9073,1.1355-4.0076-1.2074-7.9542-5.8933-15.8474-2.52-4.2448-3.9023-6.5153-5.487-6.3447Z"/>
      <path class="cls-3" d="M325.5133,283.5964c.0524-7.6498,9.8504-14.455,17.9539-16.8511,7.6153-2.2517,13.8646-.6481,16.2588,0,3.7545,1.0163,10.0777,2.728,11.9852,7.8235.8734,2.3331.9788,5.797-.812,7.2403-1.7857,1.4392-4.3344-.0355-9.5319-1.1915-4.7191-1.0496-9.8101-2.1818-14.9787-.8511-3.1825.8194-8.5113,3.1177-13.1064,7.3191-1.887,1.7253-3.2658,3.4201-4.766,3.0638-1.887-.4482-3.0209-3.9174-3.0028-6.5532Z"/>
      <path class="cls-3" d="M432.8183,331.53c.3437-2.3035,9.2338.6646,17.3617-5.4471,4.3443-3.2666,5.6476-7.0043,11.3931-8.8508,1.5908-.5113,4.7248-1.5185,6.6108,0,2.4968,2.0103,1.541,7.4286,0,10.7234-4.1359,8.843-16.1127,10.1425-16.8595,10.2128-9.597.903-18.8625-4.2498-18.5062-6.6383Z"/>
      <path class="cls-3" d="M554.8211,169.6576c-4.7614-11.2919-16.2876-15.1689-19.438-16.0851-7.5778-2.2038-21.0096-3.0742-24.4028,3.6456-1.92,3.8022-.1885,9.1679,2.5189,12.4395,4.1339,4.9954,9.2103,3.4986,19.0491,6.8416,14.208,4.8276,18.4963,13.0029,22.2729,10.7754,3.6557-2.1562,2.5618-11.5415,0-17.617Z"/>
      <path class="cls-3" d="M292.9553,383.1823c-10.5317-4.3937-21.9859,2.5311-27.6264,8.603-3.6964,3.9791-8.3743,11.3362-6.0631,14.5532,2.057,2.8633,8.7964,1.258,14.078,0,8.2088-1.9553,14.266-5.6522,19.6115-8.9713,3.957-2.457,7.0627-4.7397,9.1396-6.3479-1.3873-2.1049-4.2739-5.8072-9.1396-7.8371Z"/>
      <path class="cls-1" d="M541.3853,465.8428c-7.7419,5.0885-8.1099,11.0136-12.7262,16.8714-10.4424,13.2506-28.0633,7.682-31.1147,17.3617-1.5178,4.8149,1.3854,10.814,5.2784,13.2766,7.9272,5.0146,21.5596-6.4974,30.9427-14.2979,11.9999-9.976,15.3219-17.742,16.6808-22.1277.4229-1.3648,3.4983-11.2897,0-13.617-2.588-1.7217-7.5416,1.5342-9.061,2.5328Z"/>
      <path class="cls-1" d="M570.363,472.17c2.014-4.5533,8.0991-2.3748,12.9362-6.8085,4.2053-3.8546,1.766-7.481,7.4894-14.6383,1.1505-1.4387,4.4322-5.5426,6.4681-4.766,1.8769.716,1.7366,5.2146,1.7021,6.32-.1812,5.8081-3.1804,10.076-5.1064,12.7438-1.7641,2.4435-4.8773,6.6542-10.5532,9.5319-3.8461,1.95-10.9625,4.3495-12.9362,1.8374-1.1705-1.4898-.054-4.0982,0-4.2204Z"/>
      <path class="cls-1" d="M513.8396,554.3385c.3445,6.3896-8.7361,11.4908-11.9149,13.2766-4.4363,2.4922-12.128,6.8131-19.0638,3.7447-4.3205-1.9114-7.7282-6.416-6.8085-8.3707.3842-.8166,1.4703-1.0749,8.851-1.5017,9.0554-.5236,8.8888-.2196,9.9567-.6808,4.5504-1.9652,3.812-5.8588,10.1284-9.8723,3.8933-2.4739,5.5676-1.8802,5.9917-1.7021,1.8781.7884,2.7619,3.2991,2.8593,5.1064Z"/>
      <path class="cls-1" d="M425.6694,555.3597c-.4004.9611-2.0851,4.5879-10.8936,8.1702-6.6559,2.7069-12.5703,5.1122-18.7234,2.7234-3.5537-1.3797-8.4233-4.8384-7.8298-8.1702.445-2.498,3.8819-4.481,6.8085-4.4255,2.6702.0507,2.9598,1.7611,6.1277,2.7234,4.2605,1.2942,9.5703-.0278,12.9362-2.725,2.434-1.9504,2.3611-3.4256,5.001-4.6159,1.6981-.7657,4.9914-1.6267,6.5735,0,1.7985,1.8492.2424,5.7378,0,6.3196Z"/>
      <path class="cls-1" d="M375.2864,600.6363c-5.7117,4.8523-15.7167,1.3928-19.7447,0-4.1706-1.4421-11.7937-4.078-11.9699-8.5107-.1034-2.6017,2.3702-5.5339,4.821-5.7872,2.0804-.215,2.9009,1.6288,6.8085,4.0851,2.9568,1.8587,5.9987,3.7707,9.5319,3.7252,4.9669-.0641,6.825-3.944,10.5532-2.7039.2228.0741,2.4638.8539,3.0638,2.7348.7652,2.3986-1.5816,5.1976-3.0638,6.4567Z"/>
      <path class="cls-1" d="M318.4353,567.2317c-2.9127,4.9364-14.5232,3.1432-21.4468,0-2.7774-1.2609-6.648-3.0832-7.1489-6.5016-.3648-2.4898,1.1028-5.5202,3.1158-6.0511,1.5891-.4191,2.4573.9993,6.0757,2.9947,3.2055,1.7677,6.8059,3.7532,10.4067,3.0564,3.6179-.7001,4.4302-3.565,6.3667-3.0564,2.5056.6581,4.5284,6.3422,2.6308,9.5581Z"/>
      <path class="cls-1" d="M572.3928,507.3597c2.0873,2.2609-.5765,7.6065-2.7234,11.9149-2.208,4.4309-4.121,8.2699-8.5107,10.8936-.8327.4977-7.6144,4.5511-11.5745,1.5657-2.1053-1.5872-3.186-4.9926-2.0426-6.6721,1.1306-1.6606,3.5537-.3387,7.2794-1.8398,3.9449-1.5894,6.0791-5.0256,6.678-5.99,2.9315-4.72,1.2598-7.879,4.0361-9.8723,2.0583-1.4779,5.4542-1.52,6.8575,0Z"/>
      <path class="cls-1" d="M621.4992,289.0219c5.0955,1.4573,4.6562,16.0033,4.5957,17.617-.225,6.0108-.4317,11.5344-4.5957,15.3192-4.2021,3.8194-11.4547,4.9776-13.5293,2.4029-1.1435-1.4192-.6668-3.9141,0-5.3816,1.072-2.3594,2.7869-2.3964,5.6144-5.1064,1.6341-1.5661,3.7588-3.6026,4.4255-6.5122.3485-1.521-.2037-4.027-1.3224-8.9771-.9604-4.2498-1.3858-5.32-.7201-6.6383.9352-1.8521,3.565-3.2859,5.5319-2.7234Z"/>
      <g>
        <path class="cls-4" d="M264.4173,200.158c-10.6734-3.7431-5.0256-30.9707-9.1299-40.069-3.7298-8.2682-5.2336-15.2461-6.2753-20.214-2.8813-13.7418-.866-16.6136-3.1238-29.8392-1.0652-6.2399-3.2876-12.9887-7.7323-26.4861-5.3741-16.3199-15.708-19.263-19.2954-26.1319-7.3603-14.0928-11.2505-18.8245-15.5749-31.1499-.737-2.1006.6191-20.3968,5.4-23.5722,3.7797-2.5104,12.6348,4.4107,17.4426,9.3404,6.6033,6.7706,13.7986,10.7004,21.1566,23.9661,7.2992,13.1596,1.4899,11.7923,11.2379,28.2533,9.2292,15.585,7.8895,16.7173,13.1744,22.6871,8.1859,9.2466,11.7923,6.9734,23.4138,17.5441,7.2351,6.5809,11.6269,12.7281,18.1838,21.9059,8.0279,11.2367,29.8606,15.2318,30.2952,19.8618"/>
        <path class="cls-5" d="M263.0912,203.9395c-10.1924-4.1423-9.0519-18.6404-9.4373-27.466-.1285-6.5251.2403-12.4158-2.5907-18.0591-3.9236-10.5408-6.3628-21.7282-6.6841-32.9351-.0821-4.3566-.2312-8.4708-.8343-12.7432-1.3096-9.586-4.7371-18.6887-7.565-27.93-2.1132-7.0002-6.1442-13.102-11.6397-17.943-2.1642-2.0225-4.7757-4.2337-6.5821-6.8365-.4877-.7518-.9509-1.5721-1.355-2.3601-2.24-4.3354-4.6152-8.5687-7.0232-12.8686-3.185-5.6005-6.0574-11.6207-8.165-17.7783-.298-.9217-.2978-1.9405-.3152-2.736.017-3.9863.4863-7.8978,1.2321-11.8118,1.8353-9.154,5.0941-16.3893,15.4295-10.1119,3.9386,2.3435,7.4066,5.3553,10.5686,8.5654,2.9561,2.9724,6.3811,5.688,9.6018,8.8345,4.8781,4.691,8.9216,10.2431,12.1123,16.2044,1.0847,1.9675,2.0642,4.0556,2.856,6.268,1.5221,4.2912,1.6469,8.3948,3.5218,12.416,1.1446,2.7324,2.8637,5.7818,4.3996,8.3855,2.8014,4.6911,5.5784,9.5986,7.9934,14.473,1.8387,3.9167,4.0763,6.8775,7.1451,9.7912,3.0364,3.041,6.4475,4.7593,10.2639,6.8987,7.8994,4.5576,14.5932,10.8587,20.3962,17.7935,3.5941,4.2454,6.7059,8.6516,10.0197,12.9962,4.6486,5.4322,11.2851,8.1612,17.8579,11.0914,3.4441,1.5339,7.1737,2.7929,10.3832,5.1414,1.4813,1.1004,2.6955,2.7501,2.8991,4.6612.3166,5.2701-7.2976,6.0314-7.9795.7487.0116.3004.1179.6235.2676.8668.0937.1103.0434.0779.0774.1101.0198.0186.0518.03.0063-.0056-2.4787-2.0641-5.7159-3.1955-8.717-4.7357-3.9781-1.8793-8.0687-3.8627-11.9732-6.4542-3.224-2.1421-6.3942-4.8107-8.6765-8.0686-2.913-4.2072-5.8451-8.5071-8.9495-12.4504-5.2275-6.5122-11.3352-12.5103-18.4799-16.8213-3.7576-2.1551-8.0976-4.6508-11.1748-7.9205-3.2493-3.1389-6.2124-7.2955-7.9692-11.363-2.3031-4.87-4.8467-9.6407-7.5695-14.2782-2.8112-4.8674-5.5862-10.0977-6.6564-15.69-.9337-6.4361-3.7076-11.8021-7.1532-17.1802-4.6397-7.4424-11.2737-12.4934-17.6202-18.6095-2.9358-3.01-6.1082-5.7736-9.6575-7.9145-1.4543-.8814-3.3497-1.786-4.8758-1.7784-3.8867.9138-5.5409,17.3872-5.1029,21.1985,1.9686,5.8004,4.7663,11.5928,7.9064,17.0875,2.796,4.8385,5.4768,9.9121,8.2684,14.7987,1.6711,2.2884,3.7559,3.9522,5.9674,5.9941,6.073,5.2269,10.7224,12.1869,13.1348,19.8531,3.085,9.404,6.7945,18.8217,8.3103,28.6717,1.4353,8.5913.6961,17.368,2.6792,25.8462.8744,4.2,1.8354,8.3491,3.1742,12.3218,1.2072,4.2663,3.772,8.3049,4.6994,12.5935,1.6372,8.6199.768,17.7146,2.2701,26.1121.5372,2.647,1.1137,5.0789,2.753,6.8367.4381.3946.8336.6046,1.3119.7655,4.9301,1.9151,2.3437,9.2423-2.76,7.5244h0Z"/>
      </g>
      <g>
        <path class="cls-4" d="M184.3422,452.558c-5.7289,8.2195-27.6227-3.0658-36.3615-1.724-7.9415,1.2195-14.2533.8457-18.74.5549-12.411-.8044-14.3831-3.2061-26.2055-4.4201-5.5779-.5727-11.8648-.2789-24.4385.3089-15.203.7107-20.1684,8.8303-26.882,10.2605-13.7741,2.9344-18.7358,5.1306-30.2807,5.894-1.9676.1301-17.2589-5.3719-18.8333-10.2058-1.2447-3.8216,6.7643-9.7347,12.1128-12.6669,7.3458-4.0272,12.4081-9.2342,25.4758-12.3631,12.9632-3.1039,10.4169,1.5289,26.779-2.8807,15.4913-4.1749,16.1394-2.7628,22.4889-5.8551,9.8346-4.7898,8.7511-8.4072,20.5315-15.8143,7.334-4.6114,13.6227-6.8994,23.0118-10.3155,11.4954-4.1824,20.0892-21.8649,24.1435-21.1363"/>
        <path class="cls-5" d="M187.6298,454.8494c-6.2191,7.9919-18.2683,3.5606-26.174,1.7481-5.605-1.4301-10.4163-3.1128-15.8484-2.0438-9.991.8664-20.1797.2913-29.8775-2.1015-3.8057-.9838-7.3025-1.8088-11.0159-2.2944-8.4624-1.146-17.0018-.3765-25.5352-.1522-4.4987.166-8.9011,1.0531-12.9844,2.9706-3.9865,1.7865-7.3171,4.647-11.5075,6.4053-1.4156.6138-3.1072.8967-4.6121,1.2326-3.7402.8127-7.4448,1.7331-11.2295,2.6438-5.7975,1.3857-11.9943,2.6287-18.03,2.714-2.2945-.3413-4.0724-1.0907-6.171-1.844-3.8506-1.5324-7.4752-3.1656-10.8784-5.7115-5.6694-4.1596-4.397-8.9133.2355-13.2784,2.9748-2.8513,6.411-5.1287,9.9356-7.0906,3.1946-1.7964,6.3223-4.0776,9.8037-6.1045,5.1997-3.0858,10.9777-5.2602,16.8865-6.5605,3.7524-.9815,8.5011-1.2194,12.2456-.7965,3.6388.2634,7.109-.377,10.6736-1.2116,0,0,5.5588-1.4546,5.5588-1.4546,3.7705-.9917,7.657-1.8931,11.4617-2.6243,3.7677-.6392,6.6865-1.7936,9.8803-3.6981,3.2958-1.8599,5.4831-4.2862,8.2231-7.0324,5.8219-5.7037,12.8394-9.9444,20.1956-13.2695,4.4974-2.0605,8.9873-3.6597,13.4876-5.4504,5.662-2.6467,9.4923-7.5778,13.5311-12.444,2.2657-2.7165,4.3627-5.8658,7.4161-8.0397.9353-.6035,2.0285-1.0836,3.2068-1.1715,2.664-.3168,5.1143,1.9925,4.5802,4.7137-.3915,2.1781-2.4748,3.6266-4.653,3.2352.3247.0711.6943.0583,1-.0291.1474-.062.1167-.0303.1719-.0591.0381-.0193.0725-.0525.0396-.0264-.0159.01-.0332.0166-.0535.0203-.0291.0142-.0845.0588-.127.0847-5.0999,4.4926-8.7396,10.3399-14.1716,14.8582-2.6264,2.2792-5.7213,4.3974-9.1009,5.5956-4.2706,1.4892-8.6374,2.9775-12.7126,4.6858-6.7382,2.8948-13.2566,6.658-18.5752,11.686-2.7248,2.6987-5.9754,5.8853-9.5137,7.7434-6.9552,4.3191-15.2948,4.3998-22.9272,6.5335,0,0-5.6596,1.4436-5.6596,1.4436-3.9422.9163-8.1765,1.6123-12.2705,1.2788-2.0654-.1555-3.7095-.311-5.4492-.1882-3.5325.2292-7.243,1.1803-10.6736,2.2192-7.4378,2.1884-13.1972,6.5721-19.9596,10.5405-3.2328,1.7653-6.3003,3.7824-8.931,6.2562-1.0268.9364-2.1779,2.3022-2.5114,3.427.6394,3.186,12.9294,8.0705,16.3614,8.647,5.518-.366,10.8237-1.3151,16.2411-2.6967,4.7567-1.2376,9.7242-2.3113,14.5393-3.5101,4.0515-1.633,7.5961-4.7232,11.7405-6.5703,5.5405-2.7256,11.818-3.5489,17.9243-3.7307,7.809-.3704,15.8182-1.0668,23.6423-.0991,7.6703.8168,14.9698,3.5379,22.6658,3.8669,3.7793.254,7.5288.4193,11.208.2264,3.9333-.0144,8.0428-1.2495,11.9204-1.0038,7.7565.6554,15.3339,3.5723,22.8352,4.2955,2.3199.1676,4.42.2584,6.2154-.6576.4004-.2581.607-.498.8325-.8226,3.1704-4.1987,9.5035.2863,6.4939,4.6956h0Z"/>
      </g>
      <g>
        <path class="cls-1" d="M617.8867,524.1557c10.224,1.5072,9.8786,26.9119,15.1381,34.3622,4.7796,6.7705,7.3386,12.7695,9.1345,17.0455,4.9676,11.828,3.6577,14.7537,7.9764,26.2267,2.0376,5.4131,5.2014,11.0819,11.5291,22.4196,7.6509,13.7084,17.4315,14.5568,21.8408,20.0968,9.0464,11.3662,13.3568,14.9363,19.3733,25.2434,1.0254,1.7567,2.9814,18.405-.7569,22.0826-2.9554,2.9074-12.0993-1.766-17.2671-5.3546-7.0977-4.9288-14.2339-7.2066-23.1349-17.8312-8.8298-10.5396-3.3813-10.3204-14.9803-23.397-10.9817-12.3808-9.9762-13.6288-15.7525-18.0679-8.9467-6.8756-11.7879-4.2109-24.0462-11.6787-7.6316-4.6491-12.6373-9.4022-20.1108-16.4985-9.1501-8.6883-29.4287-8.4865-30.6213-12.5647"/>
        <path class="cls-5" d="M618.4711,520.1912c11.6332,2.1437,12.6118,19.8472,15.1865,28.9159.6547,2.5071,1.2724,5.0815,2.5273,7.0932.5284.7778,1.1688,1.7036,1.723,2.5652,5.5443,8.8158,9.7773,18.5298,12.1235,28.6254.8773,3.9752,1.7398,7.512,3.0174,11.1224,2.8917,8.2712,7.5615,15.7078,11.7362,23.4185,3.0315,5.6782,7.4624,10.1755,13.0478,13.4268,2.2819,1.4125,5.2616,3.0995,7.4081,5.1994.6129.6313,1.2312,1.3479,1.7664,2.0259,5.2793,6.7351,11.2403,12.8509,16.0464,20.0927,1.0854,1.6158,2.0921,3.2756,3.0805,4.9475,1.2561,2.5809,1.2798,5.0788,1.6454,7.7632,1.577,16.6868-2.0689,26.9478-20.135,17.0372-1.7931-.9497-3.7008-2.1926-5.3878-3.3382-3.0498-2.0821-6.5909-3.9285-10.1187-6.2542-7.1437-4.7233-13.2953-10.8469-17.827-18.184-1.1642-1.9464-2.039-4.1912-2.7211-5.8446-1.3913-3.3998-3.4952-6.1926-5.8499-9.0498-3.8455-4.3977-8.099-9.2808-11.5422-13.9351-2.296-3.1857-4.5142-5.2095-7.6837-7.2933-3.1869-2.1901-6.2792-3.0581-10.0651-4.3594-8.0066-2.8418-15.1686-7.4568-21.637-12.8154-3.9479-3.2661-7.4434-6.7056-11.1252-10.0897-4.9558-4.0488-11.2088-5.3774-17.51-6.943-3.529-.901-7.3843-1.4579-10.7677-3.3072-.9653-.5859-1.8944-1.3685-2.5016-2.4015-1.4628-2.2503-.5078-5.4769,2.1766-6.2155,2.1239-.6211,4.3495.5971,4.9708,2.7214-.1006-.3734-.3081-.7525-.5697-.9961,2.3619,1.1725,5.6297,1.7031,8.528,2.4604,3.9137.9432,7.9672,1.9659,12.0021,3.5873,3.353,1.3478,6.7951,3.2189,9.5076,5.7876,3.3728,3.2096,6.8011,6.5171,10.2703,9.4319,5.7578,4.7922,12.2129,8.9917,19.2404,11.4959,3.7595,1.2365,8.3521,2.8084,11.7363,5.2171,2.7147,1.8221,5.467,3.9861,7.586,6.5722,3.1345,3.9582,5.9941,7.8622,9.304,11.6115.9922,1.1235,2.9809,3.4241,3.9579,4.5662,2.7153,3.2667,5.3914,6.9744,7.0053,10.9861.8316,2.0278,1.408,3.511,2.2862,4.9941,1.7771,3.0403,4.35,6.003,6.8198,8.6064,5.4524,5.8245,11.9421,8.947,18.7765,13.3963,1.4743,1,3.1833,2.1289,4.7591,2.9667,2.6266,1.3649,5.6936,3.0116,8.5142,2.9459.0361-.0146-.1087.0244-.2681.1702-.106.0796-.0291.0652.0564-.1404.8478-2.0279.9439-4.6307.9736-7.066-.0316-3.428-.2567-7.2039-1.07-10.5241-2.0731-3.5973-6.169-9.4027-9.7392-13.4411-3.2808-3.7875-6.5617-7.8734-9.8384-11.7558-3.3072-2.9103-7.7849-4.7966-11.3631-7.762-4.3099-3.3677-7.8126-7.7889-10.4426-12.5563-4.3601-7.9894-9.3033-15.9355-12.3197-24.6051-2.7265-7.4782-3.5015-15.4614-6.6724-22.7402-1.4667-3.6067-3.0141-7.1314-4.8286-10.4385-1.7795-3.6468-4.7911-6.9422-6.3048-10.6462-2.8967-7.5183-3.5913-15.8555-6.2785-23.1666-.8716-2.2404-1.717-4.2268-3.3551-5.5233-.4605-.314-.8267-.3881-1.3001-.4863-4.9918-1.1711-3.718-8.517,1.4424-7.8716h0Z"/>
      </g>
      <g>
        <path class="cls-2" d="M264.7714,554.2334c.0934,7.5302-18.2262,10.2084-22.9811,14.8511-4.3211,4.2191-8.3428,6.7515-11.2127,8.5363-7.9385,4.937-10.1945,4.3315-17.9523,8.7607-3.6602,2.0897-7.3747,5.0193-14.8036,10.8785-8.9824,7.0844-8.4661,14.2197-11.9443,18.0306-7.1363,7.8187-9.2086,11.3315-15.9319,16.848-1.1459.9402-12.8997,4.2655-15.9765,1.9993-2.4325-1.7916-.1232-8.9094,1.8637-13.0413,2.7288-5.6749,3.5457-11.0721,10.1651-18.7007,6.5665-7.5676,7.0364-3.6219,15.1094-13.4744,7.6434-9.3281,8.6572-8.7484,11.1859-13.416,3.9166-7.2296,1.672-8.967,5.6331-18.6477,2.4661-6.0268,5.3094-10.1762,9.5545-16.3713,5.1975-7.5848,2.7161-22.1528,5.5132-23.4808"/>
        <path class="cls-5" d="M268.7784,554.1837c-.641,10.6863-16.4939,11.94-23.6883,16.0109-1.2558.6562-1.9427,1.4635-3.0006,2.3362-3.4356,2.9216-7.3317,5.4229-11.1988,7.6091-2.5857,1.4951-5.4155,2.7998-8.1938,3.8228-5.4995,1.8938-10.3611,4.355-14.9905,7.772-3.9488,2.9688-8.2149,5.8018-11.8309,9.2035-2.4587,2.4751-4.2372,5.4346-5.5763,8.6686-.8847,1.9998-1.6822,4.3052-3.1707,6.0869-5.3779,5.7336-10.0871,12.1305-16.2744,17.0862-.3319.2994-.7686.5379-1.1863.7075-3.7093,1.3844-15.2889,4.7044-17.3316.1389-.6785-1.8044-.4197-3.383-.185-4.8894.563-2.9985,1.6309-5.8062,2.8909-8.4739,2.2682-5.2689,4.1758-11.1114,7.7973-15.7648,1.8077-2.4186,3.6722-4.7128,6.0047-6.6888,1.1721-1.0037,2.5403-1.8254,3.7095-2.562,2.3772-1.4845,4.2687-3.4758,6.093-5.6008,0,0,2.7376-3.3555,2.7376-3.3555,3.3735-4.5126,8.1117-8.0902,10.1851-13.4184,1.1749-2.6102,1.4533-5.1191,1.8652-8.0084.9485-6.0287,3.2772-11.7294,6.2148-17.0256,1.7793-3.2664,3.7673-6.2482,5.6624-9.3559,2.1661-4.1063,2.1675-8.7087,2.3726-13.4224.1334-2.8885-.143-6.1214,1.0601-8.9883,1.3829-3.3696,6.02-4.4123,7.8693-.785.9492,1.9994.0981,4.3896-1.9012,5.3388.4653-.2211.9686-.6538,1.1245-1.0767-.704,1.6563-.7507,3.9862-1.0822,6.0372-.6675,5.4996-1.5035,11.7574-4.8892,16.5249-3.7186,4.9997-7.4035,9.9327-9.8633,15.6453-1.8702,3.972-2.6349,7.8791-3.5121,12.1843-.7711,3.071-2.1515,5.8381-3.9203,8.4621-2.7383,3.6257-6.1098,6.2977-8.9403,9.7765-2.7778,3.2775-5.8315,7.0181-9.694,9.2813-3.8536,2.0428-6.5978,4.9681-9.2622,8.4-3.6187,4.5883-5.3202,9.9698-7.6976,15.3079-1.5506,3.5165-3.653,7.9103-2.7831,11.6437,1.5473,2.6785,12.2492-.2377,14.8313-1.3826.2675-.0984.6399-.4694.87-.653,5.5782-4.5914,9.8667-10.4688,14.6741-15.8474,2.6367-2.9118,3.2022-7.031,5.2089-10.4189,2.0764-4.0039,5.6487-7.3748,9.0771-10.0149,4.5837-3.6953,9.0289-7.6113,14.2379-10.5175,5.0797-2.9238,10.6013-4.5417,15.4102-7.8084,4.1969-2.647,8.0443-5.5886,11.4265-9.1658,3.0344-2.8305,7.1049-4.2008,10.4404-5.7905,2.6324-1.1784,5.2203-2.3351,7.3782-3.6869,1.3481-.905,2.5223-1.7022,3.0311-2.8991-1.2009-6.6247,8.4842-7.2019,8.0001-.4436h0Z"/>
      </g>
      <path class="cls-3" d="M510.6212,245.9064c-9.4797-5.0924-21.2224.5175-27.4154,6.3447-6.972,6.5602-11.3701,17.5924-8.1457,20.9506,2.3995,2.499,7.1257-1.2246,23.3303-5.1031,14.6252-3.5005,19.8094-2.6297,21.4468-6.4488,2.013-4.6951-3.066-12.4396-9.216-15.7434Z"/>
      <path class="cls-6" d="M676.1375,403.53c-6.81,3.13-22.1529,5.8187-30.383,10.9787-10.05,6.31-13.5936,18.1302-19.2536,22.9602,2.17-3,3.85-6.26,5.31-11.28,4.13-14.21-1.28-16.14,3.15-32.87.97-3.6801,2.04-6.64,3.16-9.17,5.12-.56,10.92-.75,17.68-.97,7.26-.23,16.15,0,24.32.8,12.71,1.24,23.71,3.85,24.19,8.15.54,4.7599-8.3834,2.301-28.1734,11.4011Z"/>
      <g>
        <path class="cls-2" d="M638.3589,345.5675c9.3755-4.9137,26.2883,14.7899,35.6292,17.3853,8.4887,2.3586,14.6403,5.4435,19.0021,7.6592,12.0653,6.1287,12.9751,9.1519,24.2699,15.3934,5.329,2.9448,11.7515,5.4172,24.5965,10.362,15.531,5.9788,24.0982.8227,31.4513,2.4567,15.0862,3.3525,21.0251,3.5334,32.9183,7.8719,2.027.7394,14.8938,12.3559,14.3279,17.3981-.4474,3.9863-11.0832,5.8285-17.7354,6.1425-9.1365.4313-16.5101,2.9201-30.9754.0505-14.3496-2.8467-9.7486-5.9134-28.0785-9.0631-17.3545-2.9821-17.3775-4.537-25.1025-4.5144-11.9652.035-12.4835,3.767-27.5559,5.3138-9.3835.9629-16.6914.287-27.6021-.7221-13.3584-1.2355-29.794,10.9596-33.5289,8.5376"/>
        <path class="cls-5" d="M636.4987,342.0182c9.3562-4.3033,19.2951,4.9454,26.2088,9.9297,4.0867,3.0292,7.7069,6.304,12.1117,7.9887,11.3215,3.5159,22.1805,8.8796,31.6757,15.9235,10.538,8.7276,23.0884,13.4033,35.6534,18.3195,4.6603,1.8603,9.5501,3.0168,14.5763,3.1144,4.1952.1024,8.1662-.6164,12.4729-.7629,2.1463-.1072,4.6633.374,6.6746.8732,4.0701.9118,8.1607,1.7091,12.293,2.5129,6.3854,1.2171,12.9014,2.8231,19.0107,5.1919,1.9127,1.0574,3.4495,2.5608,5.0525,3.9855,3.1885,3.0257,6.1706,6.0954,8.5132,9.9148,5.9013,9.1714-5.7336,11.5478-12.4787,12.5447-2.0727.3084-4.3448.4643-6.3975.5796-4.063.2681-8.2258.9463-12.5217,1.23-8.6399.5201-17.379-.4657-25.6111-3.243-2.1091-.7487-4.1133-1.8402-5.8918-2.7326-3.6056-1.827-7.4861-2.7662-11.4585-3.552l-6.167-1.0789c-4.1577-.7256-8.3557-1.5762-12.4473-2.5525-4.041-1.0623-7.6889-1.3406-11.7805-1.0131-4.1474.215-7.6434,1.461-11.6372,2.8056-8.3101,2.6674-17.0651,3.4599-25.7271,3.3328-4.3054-.0582-8.5483-.3443-12.7427-.6407-1.8937-.1476-3.8837-.3301-5.7719-.1389-5.8874.5934-11.2738,2.9347-16.8314,5.3774-3.9103,1.6097-7.9028,4.1343-12.3981,4.1855-3.3732.0247-6.2892-3.1657-4.2656-6.4549,1.204-1.8568,3.6855-2.3859,5.5424-1.1818-.7649-.4226-.9099-.2769-.8137-.2908,3.0886-.3908,6.025-1.9221,9.0921-3.0165,3.9418-1.5573,8.029-3.1251,12.4179-4.1559,3.8237-.9275,8.071-1.3577,12.0405-.7858,4.6489.5202,9.338,1.0558,13.9194,1.3015,8.0655.3582,16.3018-.1365,24.0564-2.3793,3.9766-1.239,8.5289-2.6418,12.823-2.7302,8.7091-.7562,16.8731,2.7717,25.2944,4.1458,0,0,6.2141,1.1692,6.2141,1.1692,4.2324.8834,8.5689,2.0255,12.4434,4.0576,3.751,2.0877,7.104,3.4638,11.2442,4.3119,5.9639,1.3707,12.1019,1.9478,18.2155,1.543,4.0793-.2475,8.2166-.9057,12.5278-1.1772,5.0162-.2734,10.1234-.7526,14.7557-2.6764,1.0408-.4954,2.0144-.9887,2.3697-1.8377.0294-.1063.0341-.408-.0606-.7557-.7881-2.6156-2.804-4.9328-4.6518-7.0762-2.5552-2.773-5.3451-5.6319-8.468-7.7083-9.8203-3.7176-20.2506-5.0767-30.5165-7.2323-6.0904-1.7233-12.1343.3862-18.3889.2049-6.5571.0257-12.9762-1.8892-19.0126-4.3053-7.9267-3.0392-16.0108-5.7537-23.4598-10.0193-3.7402-2.0928-7.3784-4.6067-10.7395-7.0267-6.6364-4.7485-14.0954-8.3871-21.6291-11.3358-3.9204-1.6605-8.4262-2.2973-12.2179-4.1147-7.7404-4.059-13.7883-9.7994-21.1455-13.7401-2.7162-1.2802-5.6055-2.911-8.2768-1.7136-4.7693,2.4258-8.491-4.5236-3.6904-7.1148h0Z"/>
      </g>
      <path class="cls-3" d="M261.0163,341.998c3.6804-8.3004,12.683-11.4132,17.3339-13.0213,5.4348-1.8792,15.7477-5.445,23.7447,0,4.7741,3.2506,8.7028,9.699,6.8936,13.0213-1.671,3.0685-6.674.6006-19.1489,2.786-7.6602,1.3419-13.8368,2.4239-20.6809,6.4055-4.298,2.5004-6.4286,4.7303-8.1424,3.8298-2.4559-1.2905-2.2089-8.0397,0-13.0213Z"/>
    </g>
  </g>
</svg>