<?xml version="1.0" encoding="UTF-8"?>
<svg id="Capa_2" xmlns="http://www.w3.org/2000/svg" viewBox="0 0 749.0412 769.5396">
  <defs>
    <style>
      .cls-1 {
        fill: #ffcb80;
      }

      .cls-2 {
        fill: #db963b;
      }

      .cls-3 {
        fill: #eaa94b;
      }
    </style>
  </defs>
  <g id="Capa_1-2" data-name="Capa_1">
    <g>
      <g>
        <path class="cls-1" d="M718.205,402.6235l-16.1372,10.7141c-2.433,1.6154-4.3381,3.9857-5.5282,6.7553-.8153-.0795-1.6761-.1693-2.5986-.2752-4.3383-.4976-8.9877,3.913-18.2958,1.0753-7.6984-2.347-11.5476-3.5204-14.7927-5.1257-6.8779-3.402-7.5767-5.4578-14.8928-8.7113-2.645-1.1762-6.373-2.8069-11.4083-3.7153-3.2291-.5825-8.2755-5.0391-12.9403-7.8058,1.5187-9.7883,2.7795-19.6336,1.8728-27.4202-.98-8.45-3.4202-14.64-6.2-20.8-2.6101-5.74-5.53-11.47-7.8701-18.97-1.1948-3.8179-2.0492-8.4943-2.843-13.4337,2.0369-2.5597,4.2325-4.9383,6.4055-6.1404,5.0029-2.7678,8.354-4.6216,12.0515-7.9999,5.9395-5.4264,4.9277-7.6182,10.037-11.2758,3.2987-2.3614,3.8224-1.5209,12.2354-5.1729,8.8859-3.8572,7.9303-.7865,15.0125-3.5986.0062-.0024.0116-.0049.0177-.0074,1.9661,2.3152,4.5615,3.9627,7.4158,4.6048l16.6265,3.7401c9.953,2.239,17.385-8.1373,13.0953-18.2834l-11.9203-28.1951c-4.3582-10.308-17.2524-12.0532-22.4231-3.0348l-8.6597,15.1037c-1.3054,2.2772-1.8832,4.9487-1.7253,7.6536-.6873.2641-1.4153.5383-2.1993.8243-3.687,1.3454-5.6493,6.7609-14.2723,8.225-7.1317,1.2109-10.6975,1.8164-13.9517,1.8318-6.8967.0328-8.2854-1.3384-15.4747-1.0098-2.599.1188-6.2513.308-10.6639,1.6037-1.2695.3729-3.1495.2641-5.2732.0012-8.0767-11.8597-18.0155-21.1733-27.7805-33.3663-5.1648-6.4507-10.1986-13.9362-15.4773-21.3153,1.4546-6.0813,2.2629-18.4655,6.1174-24.6982,4.0945-6.6207,6.8369-11.0553,9.0974-17.4155,3.6309-10.2161,1.2223-11.9059,4.9263-19.582,2.3914-4.9559,3.4694-4.4048,10.9301-14.4349,7.88-10.5938,8.5585-6.5311,14.9896-14.686.0056-.0071.0103-.0137.0159-.0208,3.5637,1.144,7.4592,1.1032,11.0709-.2291l21.0393-7.761c12.5948-4.6458,15.0781-21.3767,4.3757-29.4806l-29.7406-22.5195c-10.873-8.233-26.5261-.9423-27.2202,12.6784l-1.1625,22.8116c-.1752,3.4393.7032,6.7927,2.4364,9.6572-.6292.7817-1.299,1.6036-2.0254,2.4786-3.4163,4.1149-2.5349,11.4779-11.4911,19.2497-7.4073,6.4278-11.111,9.6417-14.7993,11.9833-7.8173,4.9631-10.1827,4.4459-18.1624,9.9435-2.8849,1.9875-6.9259,4.8051-11.1949,9.3835-3.9424,4.2283-17.8389,7.4893-21.9337,13.0339-3.5077-1.349-7.0493-2.8633-10.6017-4.777-15.6499-8.4-31.6499-23.16-49.3698-28.41-13.1153-3.8795-25.3254-3.7009-37.6591-2.9767-.6306-1.6541-1.0922-3.2527-1.2928-4.734-1.0447-7.7141-1.7445-12.8809-4.0399-19.2286-3.687-10.196-6.6206-9.9706-8.6374-18.2515-1.3021-5.3464-.1196-5.6058-.7309-18.0914-.6458-13.1874,2.4594-10.4811,2.2444-20.8646-.0002-.009-.0008-.0171-.001-.0261,3.4788-1.3809,6.461-3.8873,8.4036-7.2109l11.316-19.3607c6.7741-11.5898-1.9384-26.0875-15.3517-25.5455l-37.2742,1.506c-13.6273.5505-21.0826,16.1259-12.9645,27.085l13.5959,18.3541c2.0499,2.7672,4.8588,4.7986,8.0172,5.9095.0109,1.0034.0159,2.0636.0108,3.2008-.0236,5.3481,5.3351,10.474,3.3568,22.166-1.6362,9.6699-2.4542,14.5049-3.8146,18.6566-2.8832,8.7994-5.0385,9.9028-7.7076,19.2182-.9649,3.3676-2.2953,8.1109-2.683,14.3589-.036.5803-.1618,1.2211-.3482,1.9042-13.9843-1.9843-28.2489-4.3214-40.9695-1.7493-9.4221,1.912-17.8755,6.4673-26.2407,11.2864-1.7009-2.5015-11.2221-7.5919-14.25-12.5963-2.7148-4.4872-4.5333-7.4926-7.6545-10.7998-5.0135-5.3123-6.7661-4.386-10.2337-8.9628-2.2388-2.9548-1.5776-3.4323-5.3044-10.9846-3.9363-7.9767-1.2915-7.1371-4.2095-13.4965-.0026-.0055-.0051-.0104-.0076-.0159,1.7795-1.7865,2.9503-4.1354,3.2593-6.7105l1.8002-15.0004c1.0776-8.9797-8.1955-15.6024-16.3397-11.6695l-22.6318,10.929c-8.2741,3.9955-8.7037,15.621-.747,20.2163l13.3256,7.6961c2.0091,1.1603,4.2899,1.6623,6.5398,1.5016.2759.6171.5633,1.2711.8652,1.9752,1.4199,3.3115,6.1066,5.0419,8.0202,12.7983,1.5826,6.415,2.374,9.6224,2.6469,12.5531.5785,6.2115-.4575,7.4716.3917,13.9445.307,2.34.7571,5.6283,2.1934,9.5936,1.2709,3.5081-.7925,12.222.8512,16.6031-9.5923,2.6299-19.0642,5.3983-27.3243,10.9589-14.57,9.83-23.96,24.08-36.38,36.72-6.3761,6.4905-14.3526,11.9964-21.3164,18.296-3.7448-1.8428-7.1617-3.2788-11.3602-4.4523-10.442-2.9187-11.9619-.3995-19.8748-3.566-5.1088-2.0444-4.6334-3.1577-15.1534-9.9099-11.1113-7.1318-7.1051-8.0883-15.6835-13.9426-.0074-.0051-.0144-.0093-.0219-.0144.8958-3.634.5869-7.5173-.991-11.0287l-9.1916-20.4549c-5.5023-12.2449-22.3644-13.57-29.7119-2.3349l-20.4177,31.2209c-7.4647,11.4143.8868,26.528,14.523,26.2823l22.8375-.4114c3.4432-.0621,6.7281-1.1693,9.4664-3.0956.8232.5737,1.6893,1.1853,2.6122,1.8498,4.3404,3.1247,11.6252,1.7383,19.9954,10.1381,6.9227,6.9471,10.384,10.4206,12.9741,13.9388,5.4898,7.4568,5.1367,9.8524,11.1708,17.4344,1.5847,1.9913,3.6594,4.5641,6.5339,7.3331-1.2512,3.2627-2.5882,6.5158-4.1509,9.7073-4.6595,9.5007-11.2918,18.4664-16.2116,28.1951-.5642-.0165-1.0748-.0757-1.5126-.1947-4.4379-1.2057-8.0934-1.3207-10.6943-1.3866-7.1945-.1824-8.555,1.2168-15.451,1.3242-3.2537.0508-6.8311-.4821-13.986-1.5478-8.6509-1.2885-10.723-6.663-14.4366-7.9332-.7897-.27-1.5232-.5293-2.2156-.7794.1028-2.7075-.5291-5.3668-1.8806-7.6169l-8.9649-14.9246c-5.3528-8.9114-18.2091-6.9045-22.3567,3.49l-11.3448,28.4315c-4.0825,10.2313,3.5588,20.4543,13.4644,18.0135l16.547-4.0773c2.8406-.7,5.402-2.3998,7.3206-4.7546.0062.0023.0117.0047.0179.007,7.1378,2.6676,6.1201-.3831,15.0825,3.2928,8.4854,3.4802,8.992,2.6292,12.338,4.9231,5.1826,3.5529,4.2156,5.7648,10.264,11.0694,3.7655,3.3024,7.1535,5.0878,12.2118,7.7533,2.7089,1.4275,5.49,4.6414,7.9622,7.7861.3508,9.3469,1.1754,18.7074.6964,28.4391-.87,17.44-8.21,36.57-5.67,53.5.5954,3.9386,1.4764,7.8308,2.5554,11.6843-2.6558,1.3409-4.7363,2.7044-6.3474,3.7781-6.4986,4.3309-6.818,6.256-12.868,10.6249-2.8545,2.0613-6.3664,3.8737-13.3903,7.4984-8.4926,4.3825-13.7407,1.5235-17.8413,2.8516-.8719.2824-1.6871.5383-2.4602.7756-1.6265-2.153-3.8742-3.812-6.5009-4.7082l-17.4223-5.9436c-10.4028-3.5489-20.5356,5.9901-17.6207,16.588l7.9731,28.988c2.8691,10.4316,16.1344,13.5703,23.374,5.5304l12.0936-13.4303c2.076-2.3055,3.2701-5.2091,3.4783-8.2184.007-.0021.0134-.0036.0203-.0056,8.0251-2.3781,5.1867-4.0994,15.4702-6.8335,9.7362-2.5886,9.6458-3.5601,14.0696-3.8698,6.8521-.4797,7.3975,1.8279,16.1291,2.1616,5.1587.1971,9.1698-.453,14.8442-1.4486.9453,2.3317,1.8751,4.6624,2.7534,6.9872,4.25,11.2599,7.41,22.46,11.85,33.21,2.35,5.7,5.07,11.27,8.51,16.65,9.1257,14.2577,20.1875,21.1458,31.996,32.7842-.2794.3441-.5651.6632-.8585.9468-3.5309,3.414-5.8958,5.7007-8.2646,9.2397-3.805,5.6848-2.5941,7.0917-6.0498,11.2117-2.2311,2.66-2.8049,2.1558-8.9232,7.1327-6.4622,5.2567-6.247,2.6669-11.4449,6.6567-.0045.0035-.0084.0068-.0129.0103-2.0021-1.2523-4.3907-1.8315-6.8061-1.5769l-14.0706,1.4833c-8.4231.8879-12.5366,10.7348-7.2482,17.3506l14.6957,18.3847c5.3727,6.7214,16.0762,4.6903,18.6132-3.532l4.2488-13.7705c.6405-2.0762.6235-4.2632.0078-6.2839.506-.3805,1.0431-.7792,1.623-1.2017,2.7274-1.9867,3.3304-6.6263,10.0131-9.9903,5.527-2.7822,8.2905-4.1733,10.9092-5.0333,5.5505-1.8229,6.9169-1.1397,12.6497-3.2643,2.0725-.768,4.9809-1.8644,8.3018-4.0024.4014-.2584.9091-.4787,1.488-.6752,3.582,4.4471,7.2806,8.5468,11.1623,11.4997,14.9301,11.38,27.35,14.2,44.8701,22.3,11.47,5.29,27.33,16.87,39.8,20.56,1.9436.5749,3.8102,1.0829,5.6231,1.5412,1.1284,4.4918,2.5155,6.543,2.3347,12.5597-.1653,5.5002-1.3743,5.436-4.1025,17.6353-2.8817,12.8848-5.156,9.4509-7.7078,19.5181-.0022.0087-.0038.0167-.006.0255-3.7206.4068-7.2617,2.0308-10.0175,4.7186l-16.0536,15.6578c-9.6103,9.3732-5.0633,25.6647,8.0119,28.7065l36.3344,8.4526c13.2837,3.0902,24.6096-9.9441,19.6954-22.6664l-8.2301-21.307c-1.2409-3.2123-3.409-5.9172-6.1587-7.8273.2562-.9702.5331-1.9936.8401-3.0886,1.4438-5.1496-2.3602-11.5151,2.6537-22.261,4.1469-8.8876,6.2202-13.3314,8.6349-16.9722,3.0939-4.6652,5.1852-6.6941,7.4698-9.3931,6.2092.0139,12.7896-.1183,20.4882.0106,15.93.26,42.24,4.6,57.68,2.04,15.23-2.53,19.3502.1116,19.3502.1116.1374,2.0203,10.834,6.7288,14.2029,11.7098,2.7517,4.0683,4.5947,6.7932,7.6705,9.7386,4.9406,4.7312,6.5359,3.782,9.9957,7.8984,2.2339,2.6577,1.6379,3.1356,5.4812,10.0228,4.0593,7.2742,1.5459,6.6142,4.5762,12.424.0026.0051.0051.0095.0078.0145-1.5798,1.7551-2.5636,4.0075-2.7307,6.4306l-.9736,14.115c-.5829,8.4497,8.4038,14.205,15.835,10.1411l20.65-11.2932c7.5497-4.1287,7.4011-15.0223-.2582-18.9436l-12.8278-6.5674c-1.934-.9901-4.0909-1.3517-6.1877-1.0949-.2872-.5642-.587-1.1622-.9027-1.8065-1.4849-3.0301-5.9502-4.4267-8.1072-11.5906-1.7839-5.925-2.6758-8.8875-3.0698-11.6156-.835-5.7822.0743-7.0098-1.0264-13.0237-.3978-2.1741-.9745-5.2283-2.5056-8.8691-1.4926-3.5489.501-13.1995-2.2241-16.5734,6.2007-1.2855,11.9775-2.7126,15.6743-4.5184,16.1985-7.937,24.8556-18.4981,36.8772-29.9196,1.5988.7816,3.0356,1.6384,4.1986,2.5886,6.0283,4.9253,10.066,8.2242,16.0758,11.2972,9.6536,4.936,11.6438,2.7692,18.7695,7.4454,4.6003,3.019,3.9131,4.0157,12.8811,12.7242,9.472,9.1981,5.3556,9.3392,12.5991,16.7818.0063.0065.0122.012.0186.0185-1.6003,3.3835-2.0693,7.2507-1.2209,11.0057l4.9424,21.8737c2.9585,13.0943,19.2207,17.7447,28.6548,8.1943l26.2163-26.5395c9.5845-9.7028,4.4038-26.1749-9.009-28.6447l-22.4636-4.1364c-3.3868-.6235-6.8262-.1913-9.8928,1.1523-.6927-.726-1.4199-1.4975-2.1924-2.3322-3.6328-3.9251-11.0477-4.0145-17.5813-13.9103-5.4036-8.1845-8.1055-12.2767-9.9446-16.2396-3.8979-8.3993-3.0757-10.6768-7.4824-19.3069-1.38-2.7028-3.2688-6.3489-6.3357-10.4161,5.4463-4.0256,10.4041-8.2427,14.0493-12.7665,10.5901-13.1359,13.1393-26.2652,19.035-41.2145.7997.0822,1.692.2432,2.7869.5492,3.3436.9346,3.1212,1.6653,10.1794,5.1844,7.455,3.717,5.0072,4.5897,10.7865,7.6778.0049.0027.0095.0048.0146.0075-.3146,2.3405.1436,4.7552,1.3723,6.8503l7.1577,12.2045c4.2848,7.306,14.9517,6.9893,18.7955-.558l10.6815-20.973c3.9053-7.6677-2.3619-16.5791-10.8984-15.4968l-14.2966,1.8126c-2.1555.2733-4.1406,1.1914-5.7271,2.5861-.5554-.3039-1.1403-.6285-1.7644-.9825-2.9352-1.6645-7.4102-.299-13.2321-4.9979-4.8151-3.8862-7.2227-5.8293-9.0868-7.8599-.0007-.0008-.0012-.0015-.002-.0023,6.9038-11.1005,18.0432-23.4779,21.4878-35.1077,2.4548-8.2938,3.3389-15.3685,3.6283-22.2419,4.5197-2.3099,9.8463-4.9437,13.8768-5.1099,6.356-.262,10.613-.4376,15.9744-1.9572,8.6113-2.4409,8.6964-5.1254,15.6011-6.2197,4.4579-.7066,4.5604.3905,14.7491.9468,10.7614.5876,8.2816,3.1669,16.7281,3.8961.0073.0006.0139.0008.0212.0014.803,3.2825,2.5647,6.2142,5.0846,8.2744l14.6791,12.0013c8.7872,7.1843,21.3488.5622,22.134-11.6686l2.1819-33.9877c.7976-12.4258-11.1619-20.5836-20.7974-14.1863Z"/>
        <path class="cls-2" d="M391.9233,10c12.9966.001,21.2739,14.1819,14.6233,25.5601l-11.3159,19.3608c-1.9426,3.3235-4.9248,5.8298-8.4036,7.2107.0002.009.0007.0173.001.0261.2151,10.3835-2.8901,7.6772-2.2444,20.8647.6113,12.4856-.571,12.7449.731,18.0913,2.0168,8.281,4.9504,8.0554,8.6375,18.2515,2.2954,6.3477,2.9951,11.5146,4.0398,19.2288.2007,1.4812.6624,3.0798,1.293,4.7339,4.0032-.2351,7.9929-.4126,12.0054-.4126,8.3494,0,16.7954.769,25.6536,3.3894,17.72,5.25,33.72,20.01,49.3699,28.4099,3.5525,1.9138,7.094,3.428,10.6018,4.7771,4.0947-5.5447,17.9912-8.8057,21.9336-13.0339,4.269-4.5786,8.3101-7.3962,11.1951-9.3835,7.9795-5.4978,10.345-4.9805,18.1624-9.9436,3.6882-2.3416,7.3918-5.5554,14.7993-11.9834,8.9561-7.7717,8.0747-15.1348,11.491-19.2495.7266-.875,1.3962-1.697,2.0254-2.4788-1.7332-2.8645-2.6116-6.2178-2.4363-9.657l1.1624-22.8118c.4929-9.6702,8.5237-16.1497,17.033-16.1487,3.4761.0005,7.0337,1.0823,10.1875,3.4702l29.7402,22.5195c10.7026,8.104,8.2192,24.835-4.3755,29.4807l-21.0396,7.761c-1.9043.7024-3.8872,1.0459-5.8589,1.0459-1.7681,0-3.5273-.2761-5.2119-.8169-.0054.0071-.0103.0137-.0156.0208-6.4312,8.155-7.1099,4.0923-14.9897,14.686-7.4607,10.03-8.5388,9.479-10.9302,14.4348-3.7039,7.676-1.2954,9.366-4.9263,19.582-2.2605,6.3601-5.0029,10.7947-9.0974,17.4155-3.8545,6.2327-4.6628,18.6169-6.1174,24.6982,5.2788,7.3792,10.3125,14.8645,15.4773,21.3152,9.7651,12.1931,19.7039,21.5066,27.7805,33.3665,1.1494.1423,2.2275.2395,3.1763.2395.8042,0,1.5146-.0698,2.0972-.2407,4.4126-1.2957,8.0649-1.4849,10.6636-1.6038.77-.0352,1.4731-.0508,2.124-.0508,5.354,0,7.145,1.0613,13.1094,1.0613.0796,0,.1606-.0002.2417-.0005,3.2539-.0154,6.8198-.6208,13.9517-1.8318,8.623-1.4641,10.585-6.8796,14.272-8.2251.7842-.2861,1.5122-.5603,2.1997-.8242-.1582-2.7051.4199-5.3765,1.7251-7.6538l8.6597-15.1035c2.2681-3.9556,6.0215-5.8403,9.8892-5.8403,4.9502,0,10.0874,3.0881,12.5342,8.875l11.9199,28.1951c3.8906,9.2012-1.8589,18.5911-10.3867,18.5911-.876,0-1.7812-.0991-2.7085-.3076l-16.6265-3.74c-2.854-.6421-5.4497-2.2896-7.4155-4.605-.0063.0024-.0117.0051-.0181.0076-7.082,2.812-6.1265-.2588-15.0122,3.5986-8.4131,3.6519-8.9365,2.8115-12.2354,5.1729-5.1094,3.6575-4.0977,5.8494-10.0371,11.2756-3.6973,3.3784-7.0483,5.2324-12.0513,8-2.1733,1.2021-4.3687,3.5806-6.4058,6.1406.7939,4.9395,1.6484,9.6157,2.8433,13.4336,2.3398,7.5,5.2598,13.23,7.8701,18.9697,2.7798,6.1602,5.2197,12.3501,6.1997,20.8003.9067,7.7866-.354,17.6318-1.8726,27.4199,4.6646,2.7671,9.7109,7.2236,12.9399,7.8062,5.0356.9082,8.7637,2.5391,11.4087,3.7153,7.3159,3.2534,8.0146,5.3091,14.8926,8.7109,3.2451,1.6055,7.0942,2.7788,14.793,5.126,2.2979.7007,4.311.959,6.1064.959,5.082,0,8.4146-2.0742,11.4785-2.0742.2378,0,.4746.0127.7104.0396.9229.106,1.7837.1958,2.5986.2754,1.1904-2.7695,3.0952-5.1396,5.5283-6.7554l16.1372-10.7139c2.3145-1.5366,4.7617-2.2334,7.1353-2.2334,7.5083,0,14.2686,6.978,13.6621,16.4194l-2.1816,33.9878c-.5625,8.7559-7.1587,14.6367-14.0859,14.6367-2.7495,0-5.5518-.9268-8.0483-2.9683l-14.6792-12.001c-2.5195-2.0605-4.2812-4.9922-5.0845-8.2744-.0073-.001-.0137-.001-.021-.0015-8.4468-.7295-5.9668-3.3086-16.7285-3.896-7.8423-.4282-9.7085-1.1772-12.1851-1.1772-.7412,0-1.5376.0674-2.564.23-6.9048,1.0947-6.9897,3.7793-15.6011,6.2197-5.3613,1.52-9.6182,1.6953-15.9741,1.9575-4.0308.166-9.3574,2.7998-13.877,5.1099-.2896,6.8735-1.1733,13.9478-3.6284,22.2417-3.4443,11.6299-14.584,24.0073-21.4878,35.1079.001.0005.0015.0015.002.002,1.8643,2.0308,4.272,3.9736,9.0869,7.8599,5.8218,4.6992,10.2969,3.3335,13.2319,4.998.624.354,1.209.6787,1.7646.9824,1.5864-1.3945,3.5713-2.3125,5.7271-2.5859l14.2964-1.8125c.478-.0605.9473-.0898,1.4092-.0898,7.7959.001,13.1758,8.3481,9.4893,15.5864l-10.6816,20.9731c-1.9785,3.8848-5.7646,5.8535-9.5576,5.8535-3.5762,0-7.1587-1.7505-9.2378-5.2959l-7.1577-12.2041c-1.2285-2.0952-1.687-4.5098-1.3721-6.8506-.0054-.0024-.0098-.0049-.0146-.0073-5.7793-3.0884-3.3315-3.9609-10.7866-7.6777-7.0581-3.519-6.8359-4.25-10.1797-5.1846-1.0947-.3062-1.9871-.4668-2.7866-.5493-5.8958,14.9492-8.4451,28.0786-19.0352,41.2148-3.6453,4.5234-8.603,8.7407-14.0493,12.7661,3.0669,4.0674,4.9558,7.7134,6.3357,10.416,4.4067,8.6304,3.5845,10.9077,7.4824,19.3071,1.8391,3.9629,4.541,8.0552,9.9446,16.2397,6.5337,9.8955,13.9487,9.9849,17.5815,13.9102.7725.8345,1.4995,1.6064,2.1924,2.332,2.1421-.9385,4.4658-1.4321,6.8271-1.4321,1.0186,0,2.0444.0918,3.0654.2798l22.4639,4.1367c13.4126,2.4697,18.5933,18.9419,9.0088,28.6445l-26.2163,26.5396c-3.4243,3.4663-7.748,5.062-12.0088,5.062-7.4775,0-14.7615-4.915-16.646-13.2563l-4.9424-21.8735c-.8484-3.7554-.3794-7.6226,1.2209-11.0059l-.0186-.0186c-7.2434-7.4424-3.127-7.5835-12.5991-16.7817-8.968-8.7085-8.2808-9.7051-12.8811-12.7241-7.1257-4.6763-9.116-2.5093-18.7695-7.4453-6.0098-3.0732-10.0474-6.3721-16.0757-11.2974-1.1631-.9502-2.5999-1.8071-4.1987-2.5884-12.0215,11.4214-20.6787,21.9824-36.8772,29.9194-3.6968,1.8057-9.4736,3.2329-15.6743,4.5186,2.7251,3.3735.7317,13.0244,2.2241,16.5732,1.5312,3.6406,2.1079,6.6948,2.5056,8.8691,1.1008,6.0137.1914,7.2412,1.0264,13.0234.394,2.7285,1.2859,5.6909,3.0698,11.6157,2.157,7.1641,6.6223,8.5605,8.1072,11.5908.3157.644.6155,1.2422.9028,1.8062.4346-.0532.8716-.0801,1.3088-.0801,1.6724,0,3.3457.3901,4.8789,1.1753l12.8276,6.5674c7.6594,3.9214,7.8079,14.8149.2583,18.9434l-20.6501,11.2935c-1.675.916-3.428,1.333-5.1335,1.333-5.8616,0-11.1528-4.9292-10.7014-11.4741l.9736-14.1152c.1672-2.4229,1.1509-4.6753,2.7307-6.4307-.0027-.0049-.0051-.0093-.0078-.0142-3.0303-5.8101-.5168-5.1499-4.5762-12.4243-3.8433-6.8872-3.2473-7.3647-5.4812-10.0225-3.4597-4.1167-5.0552-3.1675-9.9956-7.8984-3.0759-2.9458-4.9189-5.6704-7.6707-9.7388-3.3689-4.981-14.0654-9.6895-14.2029-11.71,0,0-1.8831-1.2075-7.812-1.2075-2.8391,0-6.6067.2769-11.5381,1.0962-3.4934.5791-7.5413.8052-11.9016.8052-14.9106,0-33.4526-2.644-45.7783-2.8452-2.5679-.043-5.0112-.0571-7.3579-.0571-4.3237,0-8.3191.0474-12.1597.0474-.3245,0-.6482,0-.9707-.001-2.2847,2.6992-4.376,4.728-7.4697,9.3931-2.4148,3.6411-4.488,8.085-8.635,16.9722-5.0139,10.7461-1.21,17.1118-2.6538,22.2612-.3069,1.0952-.584,2.1187-.8401,3.0889,2.7498,1.9102,4.9177,4.6147,6.1587,7.8271l8.2302,21.3071c4.4177,11.437-4.2896,23.1265-15.7446,23.1265-1.2874,0-2.6091-.1479-3.9509-.46l-36.3345-8.4526c-13.0752-3.042-17.6221-19.3335-8.0117-28.7065l16.0535-15.6577c2.7559-2.688,6.2969-4.312,10.0176-4.7188.0022-.0088.0039-.0166.0061-.0254,2.5518-10.0674,4.8262-6.6333,7.7078-19.5181,2.7283-12.1992,3.9373-12.1353,4.1025-17.6353.1809-6.0171-1.2063-8.0679-2.3347-12.5601-1.813-.458-3.6794-.9663-5.623-1.541-12.47-3.6899-28.3301-15.27-39.8-20.5601-17.52-8.1001-29.9399-10.9199-44.8701-22.2998-3.8816-2.9531-7.5801-7.0527-11.1621-11.5-.5791.1968-1.0867.417-1.488.6753-3.321,2.1382-6.2295,3.2344-8.302,4.0024-5.7327,2.1245-7.0991,1.4414-12.6497,3.2642-2.6187.8604-5.3821,2.2515-10.9092,5.0337-6.6826,3.3638-7.2856,8.0034-10.0129,9.9902-.5801.4224-1.1172.8208-1.623,1.2017.6157,2.0205.6326,4.2075-.0078,6.2837l-4.2488,13.7705c-1.5012,4.8647-5.8604,7.562-10.2834,7.562-3.0527,0-6.136-1.2852-8.3298-4.0298l-14.6958-18.3848c-5.2883-6.6157-1.1748-16.4629,7.2483-17.3506l14.0706-1.4834c.3745-.0396.7485-.0591,1.1204-.0591,2.0266,0,3.9941.5781,5.6858,1.6357.0044-.0034.0083-.0068.0129-.0103,5.1978-3.9897,4.9827-1.3999,11.4448-6.6567,6.1182-4.9766,6.6921-4.4727,8.9231-7.1323,3.4558-4.1201,2.2449-5.5269,6.0498-11.2119,2.3689-3.5391,4.7339-5.8257,8.2646-9.2397.2935-.2837.5791-.6025.8584-.9468-11.8083-11.6382-22.8704-18.5264-31.9958-32.7842-3.4402-5.3799-6.1602-10.9502-8.51-16.6499-4.4402-10.75-7.6001-21.9502-11.8501-33.21-.8782-2.3252-1.8081-4.6558-2.7534-6.9873-4.9907.8755-8.6943,1.4839-13.0242,1.4839-.593,0-1.1982-.0112-1.8198-.0352-7.9148-.3027-9.1033-2.2271-14.3596-2.2271-.5425,0-1.1284.0205-1.7695.0654-4.4238.3096-4.3335,1.2812-14.0696,3.8696-10.2834,2.7344-7.4451,4.4556-15.4702,6.8335-.0071.002-.0134.0034-.0203.0059-.2083,3.0093-1.4023,5.9126-3.4783,8.2183l-12.0938,13.4302c-2.7903,3.0991-6.4758,4.5371-10.1165,4.5371-5.8044,0-11.4944-3.6562-13.2576-10.0674l-7.9729-28.9883c-2.4917-9.0581,4.5488-17.3433,13.1431-17.3428,1.4604,0,2.9663.2393,4.4775.7549l17.4224,5.9438c2.6267.896,4.8743,2.5552,6.5007,4.708.7732-.2373,1.5884-.4932,2.4602-.7754.9521-.3086,1.9656-.3911,3.0676-.3911,1.2742,0,2.6663.1108,4.2166.1108,2.884,0,6.3162-.3828,10.5571-2.5713,7.0239-3.625,10.5359-5.437,13.3904-7.4985,6.05-4.3691,6.3694-6.2939,12.8679-10.625,1.6111-1.0737,3.6917-2.437,6.3474-3.7778-1.0789-3.8535-1.96-7.7461-2.5554-11.6846-2.54-16.9297,4.8-36.0601,5.6702-53.5.479-9.7314-.3457-19.0923-.6965-28.439-2.4722-3.145-5.2534-6.3589-7.9622-7.7861-5.0583-2.6655-8.4463-4.4512-12.2119-7.7534-6.0483-5.3047-5.0813-7.5166-10.2639-11.0693-3.3459-2.2939-3.8525-1.4429-12.3381-4.9233-8.9622-3.6758-7.9446-.625-15.0823-3.2925-.0063-.0024-.0117-.0049-.0181-.0073-1.9185,2.355-4.48,4.0547-7.3206,4.7549l-16.5469,4.0771c-1.0059.248-1.9875.3652-2.9368.3652-8.3987,0-14.1956-9.1865-10.5276-18.3784l11.3447-28.4316c2.3665-5.9307,7.5671-9.1309,12.5925-9.1306,3.7822.0002,7.4656,1.8137,9.7642,5.6406l8.9648,14.9246c1.3516,2.25,1.9834,4.9092,1.8806,7.6167.6924.2505,1.426.5098,2.2156.7798,3.7136,1.27,5.7856,6.6445,14.4368,7.9331,6.844,1.019,10.4141,1.5513,13.5591,1.5513.1428,0,.2854-.001.4268-.0034,6.4746-.1006,8.0696-1.3408,14.1951-1.3408.3987,0,.8164.0054,1.2561.0166,2.6008.0659,6.2563.1807,10.6943,1.3867.4377.1187.9482.1777,1.5125.1943,4.9199-9.7285,11.5522-18.6943,16.2117-28.1951,1.5627-3.1914,2.8997-6.4446,4.1509-9.7073-2.8745-2.7688-4.9492-5.3418-6.5339-7.333-6.0342-7.582-5.6809-9.9775-11.1707-17.4343-2.5901-3.5183-6.0515-6.9919-12.9741-13.939-8.3704-8.3997-15.655-7.0134-19.9954-10.1379-.9231-.6646-1.7891-1.2761-2.6123-1.8499-2.7383,1.9263-6.0232,3.0334-9.4663,3.0957l-22.8376.4114c-.1099.002-.2185.0029-.3276.0029-13.4414,0-21.5999-14.9631-14.1953-26.2854l20.4177-31.2209c3.3884-5.1814,8.7991-7.6914,14.1875-7.6909,6.2952.0007,12.5598,3.4282,15.5244,10.0259l9.1917,20.4548c1.5779,3.5115,1.8867,7.3948.991,11.0288.0073.0051.0144.0093.0217.0144,8.5784,5.8542,4.5723,6.8108,15.6836,13.9426,10.52,6.7522,10.0447,7.8655,15.1533,9.9099,7.9128,3.1665,9.4329.6472,19.8748,3.5659,4.1985,1.1736,7.6155,2.6096,11.3604,4.4524,6.9639-6.2996,14.9402-11.8054,21.3164-18.2961,12.4199-12.6399,21.8101-26.8899,36.3799-36.72,8.2603-5.5605,17.7322-8.3291,27.3245-10.959-1.6438-4.3811.4197-13.095-.8513-16.603-1.4363-3.9653-1.8862-7.2537-2.1934-9.5938-.8491-6.4729.1868-7.7329-.3916-13.9443-.2729-2.9307-1.0642-6.1382-2.647-12.5532-1.9136-7.7563-6.6001-9.4868-8.02-12.7983-.302-.7041-.5894-1.3579-.8652-1.9751-.2729.0195-.5459.0293-.8191.0293-1.9797,0-3.9553-.5115-5.7207-1.531l-13.3257-7.696c-7.9565-4.5955-7.5271-16.2207.7471-20.2163l22.6318-10.929c1.6467-.7952,3.3389-1.1589,4.9832-1.1587,6.4871.0005,12.2163,5.6641,11.3564,12.8281l-1.8,15.0005c-.3091,2.575-1.4797,4.9238-3.2593,6.7104.0024.0054.0051.0103.0076.0159,2.918,6.3594.2732,5.5198,4.2095,13.4966,3.7271,7.5522,3.0657,8.0295,5.3044,10.9844,3.4678,4.5769,5.2202,3.6506,10.2339,8.9629,3.1211,3.3071,4.9395,6.3125,7.6543,10.7998,3.0281,5.0044,12.5491,10.0947,14.25,12.5962,8.3652-4.8188,16.8186-9.3743,26.2407-11.2864,4.0103-.8108,8.1724-1.1338,12.4321-1.1338,9.2529.0002,18.9617,1.5244,28.5374,2.8831.1865-.6829.3123-1.3237.3484-1.9041.3877-6.248,1.718-10.9915,2.6829-14.3589,2.6692-9.3154,4.8245-10.4189,7.7078-19.2183,1.3604-4.1516,2.1785-8.9866,3.8145-18.6565,1.9783-11.6921-3.3804-16.8179-3.3567-22.166.0051-1.1372,0-2.1975-.0107-3.2009-3.1584-1.1108-5.9673-3.1423-8.0173-5.9094l-13.5957-18.354c-8.1182-10.9592-.6628-26.5347,12.9644-27.0852l37.2744-1.5059c.2446-.0098.4866-.0146.7283-.0146M391.924,0h-.0093c-.3726,0-.7456.0076-1.123.0227l-37.2747,1.5059c-10.0154.4048-18.9253,6.2727-23.2529,15.3137-4.3276,9.0413-3.3098,19.6614,2.6567,27.7158l13.5955,18.354c1.7668,2.3845,3.8899,4.4385,6.291,6.1033.3726,2.4138,1.1426,4.5344,1.8455,6.47,1.2573,3.4629,2.2505,6.1982,1.4241,11.0825-1.5508,9.1667-2.3293,13.7681-3.4575,17.2109-1.1255,3.4351-2.0669,5.3679-3.1567,7.606-1.4019,2.8787-2.9907,6.1414-4.6614,11.9717-.5413,1.8894-1.2869,4.4915-1.9197,7.7239-6.6362-.8816-13.3726-1.5894-20.0354-1.5896-5.2656,0-9.9805.4355-14.4143,1.332-8.468,1.7185-16.0725,5.1787-23.1528,9.0027-.0366-.0269-.0735-.0537-.1101-.0806-1.8943-1.385-5.8354-4.2676-6.6946-5.6143-2.8359-4.6877-5.0798-8.3965-8.9331-12.4792-3.1904-3.3806-5.5334-4.9497-7.2444-6.0952-1.2783-.856-1.5088-1.0103-2.2915-2.0432q-.4268-.5635-.9741-1.9253c-.5952-1.4812-1.4949-3.72-3.3335-7.4456-1.3657-2.7676-1.4465-3.4507-1.5688-4.4846-.1172-.9895-.2568-1.9968-.522-3.1384,1.0859-2.1831,1.8022-4.5481,2.0945-6.9827l1.8-15.0007c.7307-6.0884-1.1694-12.1951-5.2136-16.7539-4.0955-4.6169-9.9531-7.2651-16.0706-7.2656-3.2329-.0002-6.3728.7244-9.3328,2.1538l-22.6318,10.9287c-7.1721,3.4636-11.8103,10.5596-12.1045,18.5188-.2942,7.9595,3.8076,15.3784,10.7046,19.3621l13.3259,7.696c1.6296.9414,3.3735,1.6602,5.1812,2.1433.8325,1.1191,1.7075,2.0442,2.4812,2.8618,1.5352,1.6223,2.4619,2.6016,3.0552,5.0061,1.4614,5.9238,2.1951,8.8975,2.3987,11.085.2051,2.2024.1492,3.4822.0784,5.1021-.0999,2.2886-.2131,4.8823.3552,9.2158.3147,2.3984.8345,6.3599,2.5305,11.2051.0579.8479-.0332,2.7068-.0952,3.9751-.0376.771-.0764,1.5605-.1045,2.3625-7.928,2.4282-15.2795,5.3042-22.2798,10.0168-10.8755,7.3376-18.9563,16.655-26.7712,25.6658-3.5813,4.1296-7.2847,8.3997-11.1572,12.3408-3.3342,3.394-7.2905,6.5935-11.479,9.9805-1.4556,1.177-2.9338,2.3726-4.4124,3.5984-2.3271-.9329-4.5747-1.6902-6.9607-2.3572-6.1194-1.7104-9.9851-1.8972-12.8079-2.0334-2.4055-.1165-3.5034-.1692-6.0432-1.1858-1.5771-.6311-1.834-.8252-3.833-2.3352-1.8323-1.384-4.6008-3.4756-9.6343-6.7063-4.5566-2.9246-5.4758-4.1101-6.6396-5.6108-1.1279-1.4546-2.2754-2.8542-3.9805-4.4163-.0571-3.6558-.8506-7.2908-2.3564-10.6416l-9.1917-20.4551c-4.4138-9.823-13.8574-15.9258-24.645-15.927-9.1211-.001-17.5537,4.5664-22.5574,12.2178l-20.4177,31.2207c-5.4304,8.3037-5.8721,18.8821-1.1528,27.6072,4.7214,8.729,13.8093,14.1516,23.717,14.1516.1699,0,.3389-.0015.5098-.0046l22.8359-.4114c2.9668-.0537,5.8718-.5896,8.6216-1.5774,2.1814,1.0979,4.3552,1.7024,6.3389,2.2542,3.5498.9871,6.3533,1.7668,9.8499,5.2756,6.563,6.5862,9.8569,9.8918,12.0046,12.8088,2.1431,2.9111,3.1702,4.7998,4.3594,6.9868,1.5295,2.8127,3.2632,6.001,7.0398,10.7461.8105,1.0188,1.6924,2.1125,2.6826,3.2695-.4878,1.1128-.9673,2.1477-1.4561,3.1458-2.1797,4.4446-4.8982,8.866-7.7761,13.5469-1.5876,2.5828-3.2058,5.2146-4.7739,7.9216-2.7471-.355-5.0122-.4121-6.6343-.4531-.5273-.0137-1.03-.0195-1.5093-.0195-3.9087-.0005-6.4255.4111-8.646.7739-1.8086.2959-3.2371.5293-5.7046.5679l-.2712.002c-2.4011,0-5.833-.5112-12.0632-1.439-2.6445-.3936-3.6851-1.3091-5.5745-2.9707-.9597-.8442-2.0486-1.8022-3.3711-2.6758-.5574-2.0942-1.3987-4.093-2.511-5.9448l-8.9646-14.9243c-3.9456-6.5688-10.8003-10.491-18.3362-10.4915-9.553-.0005-18.1418,6.0542-21.8809,15.4246l-11.3447,28.4316c-3.053,7.6509-2.2451,16.1006,2.1611,22.603,4.0229,5.937,10.6228,9.4814,17.6543,9.4814,1.771,0,3.5642-.2207,5.3293-.6558l16.5469-4.0771c2.6882-.6626,5.2632-1.8394,7.5857-3.4409,1.3518.1919,2.5269.2324,3.6799.2456,1.1404.0132,1.8938.022,4.968,1.2827,4.196,1.7212,6.7109,2.5098,8.375,3.0317q1.4905.4673,2.1033.8872c1.1843.812,1.3921,1.1094,2.3906,2.5381,1.3118,1.8765,3.1084,4.4463,6.9341,7.8018,4.6545,4.0815,8.842,6.2886,14.1438,9.082.2302.1323,1.0232.6846,2.7754,2.7021.0654,1.396.1357,2.7822.2051,4.1431.3499,6.8779.6804,13.374.3523,20.0415-.3083,6.1787-1.5571,12.792-2.8792,19.7935-2.2041,11.6743-4.4834,23.7461-2.6924,35.6821.2686,1.7769.5901,3.563.9692,5.3794-.1414.0938-.2805.1865-.418.2778-4.208,2.8047-6.3889,4.8857-8.3132,6.7217-1.4001,1.3359-2.6091,2.4897-4.8635,4.1177-2.2473,1.623-5.5425,3.3237-12.1072,6.7114-2.3584,1.2173-4.0969,1.4648-5.9856,1.4648-.6157,0-1.2493-.0249-1.9202-.0513-.7341-.0288-1.4934-.0591-2.2964-.0591-.728,0-1.6426.022-2.6743.1387-1.8643-1.333-3.9224-2.3931-6.1257-3.1445l-17.4221-5.9438c-2.5103-.8564-5.103-1.2905-7.7063-1.2905-7.303,0-14.3379,3.5098-18.8181,9.3882-4.4993,5.9038-5.9451,13.415-3.9668,20.6069l7.9729,28.9878c2.8647,10.4165,12.0674,17.4155,22.8997,17.4155,6.76,0,12.9919-2.7861,17.5476-7.8457l12.0935-13.4297c1.9722-2.1909,3.5107-4.7388,4.5466-7.4814,1.4619-.728,2.5938-1.4644,3.6812-2.209,1.1523-.7891,1.9849-1.3594,5.8794-2.395,4.7302-1.2573,7.4124-2.1948,9.187-2.8149,1.8337-.6406,1.9053-.666,3.0112-.7432.3884-.0273.7485-.041,1.0713-.041,1.1404,0,1.7063.1523,3.2192.5586,2.2888.6147,5.4229,1.457,10.7581,1.6611.7373.0283,1.4783.0425,2.2024.0425,2.3157,0,4.4639-.1426,6.6379-.3896,1.6699,4.4644,3.2107,9.0386,4.7029,13.4688,2.1509,6.3867,4.3752,12.9907,7.0439,19.4517,2.8357,6.8784,5.8877,12.8398,9.3279,18.2197,7.0518,11.0181,15.1885,18.1597,23.0574,25.0659,1.0271.9019,2.0647,1.8125,3.1091,2.7397-1.0808,1.2754-2.1287,2.646-3.179,4.2153-2.4614,3.6772-3.4595,6.2852-4.1201,8.0112-.5049,1.3188-.5698,1.4883-1.2812,2.3369q-.3706.4419-1.4302,1.1768c-1.2363.8579-3.1047,2.1543-6.1414,4.624-2.1582,1.7554-2.7239,1.957-3.5803,2.2622-.8362.2979-1.6821.6172-2.6082,1.0547-1.5161-.3491-3.0732-.5278-4.645-.5278-.7231,0-1.4519.0386-2.1697.1143l-14.0696,1.4834c-7.5322.7939-14.0251,5.6284-16.9448,12.6172-2.9197,6.9893-1.7954,15.0059,2.9338,20.9224l14.6956,18.3843c3.9553,4.9482,9.8384,7.7861,16.1411,7.7861,9.1692,0,17.1418-5.873,19.8389-14.6138l4.249-13.7705c.5183-1.6802.8181-3.4023.8997-5.1313.8167-.9785,1.4558-1.9365,1.9939-2.7422,1.178-1.7651,1.769-2.6509,3.6907-3.6182,5.0764-2.5552,7.6243-3.8379,9.5344-4.4653,1.9258-.6328,3.0869-.8447,4.5569-1.1133,2.03-.3711,4.5566-.833,8.4465-2.2749,1.0112-.3745,2.333-.8643,3.8794-1.5488,2.6277,2.8276,5.0693,5.0713,7.5425,6.9531,11.5291,8.7876,21.7837,12.9702,32.6401,17.3984,4.4612,1.8198,9.0742,3.7017,14.0886,6.0195,3.9937,1.8418,8.8296,4.6777,13.9495,7.6797,9.0403,5.3013,18.3884,10.7822,27.2097,13.3926.1421.042.2842.084.426.1255.302,1.1924.4282,2.2666.3735,4.0864-.0508,1.6973-.1448,2.0054-.8765,4.4009-.6707,2.1963-1.6841,5.5151-2.9895,11.3521-1.1816,5.2837-1.979,6.5542-2.9888,8.1626-.9788,1.5591-1.8994,3.1172-2.7808,5.2554-3.4133,1.3091-6.5554,3.3032-9.1853,5.8682l-16.0532,15.6577c-7.063,6.8887-9.8032,17.0713-7.1511,26.5737,2.6521,9.5034,10.2693,16.7954,19.8789,19.0312l36.3347,8.4526c2.0532.478,4.1448.7197,6.2168.7197,8.8325,0,17.125-4.4028,22.1824-11.7778,5.0933-7.4272,6.1467-16.5215,2.8906-24.9512l-8.2305-21.3071c-1.0691-2.7681-2.5703-5.3125-4.4424-7.5557.282-2.4253.103-4.6748-.0603-6.7275-.292-3.6729-.5225-6.5737,1.572-11.063,3.9346-8.4316,5.9058-12.6562,7.9065-15.6733,1.4309-2.1572,2.5664-3.5986,3.7-4.9292.7212-.0039,1.449-.0083,2.1848-.0127,2.0566-.0117,4.176-.0244,6.3816-.0244,2.6096,0,4.9614.0181,7.1902.0557,5.2048.085,11.8252.6543,18.8342,1.2568,9.0869.7817,18.4832,1.5898,27.1118,1.5898,5.2954,0,9.7236-.3076,13.5376-.9399,3.8418-.6382,7.1721-.9614,9.9021-.9614.9517,0,1.7031.0405,2.2773.0933,1.5193,1.3184,3.2944,2.4839,5.1079,3.6738,1.7825,1.1699,5.4912,3.6045,6.3635,4.7773,2.8835,4.2642,5.1748,7.6514,9.0203,11.334,3.1956,3.0601,5.5916,4.4946,7.177,5.4438,1.2117.7256,1.3674.8188,2.0796,1.666q.3721.4429.9126,1.6133c.6309,1.3662,1.5842,3.4307,3.4917,6.8486,1.3555,2.4292,1.4563,3.0215,1.6086,3.9175.1492.8779.3181,1.7695.5903,2.7612-.8877,2.0991-1.4316,4.3423-1.5896,6.6284l-.9736,14.1162c-.3999,5.7974,1.5488,11.3135,5.4868,15.5327,3.9326,4.2129,9.4692,6.6294,15.1909,6.6294,3.4355,0,6.8696-.8853,9.9309-2.5591l20.6511-11.2939c6.751-3.6914,10.8799-10.7646,10.7749-18.459-.1047-7.6938-4.4248-14.6523-11.2744-18.1592l-12.8276-6.5674c-1.5471-.792-3.1956-1.3853-4.8921-1.7671-.8245-.9766-1.6597-1.7744-2.3625-2.4453-1.5344-1.4658-2.3047-2.2012-2.9248-4.2612-1.6384-5.4414-2.4604-8.1724-2.748-10.1621-.2896-2.0073-.2979-3.1875-.3081-4.6816-.0142-2.064-.0317-4.6323-.7788-8.7134-.4094-2.2373-1.084-5.9253-2.8999-10.4019-.0813-.7886-.0842-2.4355-.0862-3.5664-.0012-.6909-.0024-1.4053-.0134-2.1357,3.5266-.981,6.2444-1.9707,8.4963-3.0708,14.4954-7.1025,23.3567-15.8799,32.7385-25.1729.2695-.2671.5403-.5352.812-.8042,4.8101,3.876,8.9226,6.9277,14.6589,9.8613,5.6582,2.8931,9.4097,3.8447,12.1489,4.5391,2.3345.5923,3.3999.8623,5.6873,2.3633,1.4199.9321,1.6331,1.1733,3.292,3.0503,1.5205,1.7207,3.8181,4.3208,8.1091,8.4878,3.8845,3.772,4.5496,5.1162,5.3918,6.8184.8162,1.6499,1.6626,3.25,3.0232,5.1196-.6704,3.5938-.6155,7.314.1941,10.8975l4.9424,21.874c2.8005,12.395,13.6567,21.0522,26.4001,21.0522,7.2139,0,14.0054-2.8535,19.123-8.0342l26.2163-26.5396c7.0439-7.1313,9.5518-17.501,6.5444-27.063-3.0073-9.5615-10.999-16.6289-20.8564-18.4443l-22.4639-4.1362c-1.605-.2959-3.2456-.4458-4.8765-.4458-1.3091,0-2.606.0933-3.8853.2788-1.9199-1.5103-3.9312-2.5352-5.7661-3.4702-3.2827-1.6733-5.8755-2.9946-8.6045-7.1279-5.123-7.7593-7.6943-11.6538-9.219-14.9395-1.5217-3.2793-2.1528-5.3345-2.8838-7.7139-.9399-3.061-2.0054-6.5303-4.7634-11.9312-.5073-.9941-1.1445-2.2422-1.9402-3.6738,3.4287-2.9673,6.217-5.811,8.5342-8.686,9.0046-11.1694,12.9092-22.3701,16.6853-33.2021.1162-.333.2329-.668.3501-1.0034.7861.4194,1.6846.8838,2.7178,1.3989,2.4897,1.2412,2.9067,1.6733,3.5381,2.3276.6182.6406,1.2603,1.2812,2.0444,1.9463.4507,2.2339,1.2671,4.3936,2.4263,6.3711l7.1582,12.2046c3.7593,6.4102,10.437,10.2373,17.8638,10.2373,7.8369,0,14.9136-4.3359,18.4688-11.3159l10.6812-20.9731c3.2969-6.4722,3.0024-14.0288-.7876-20.2134-3.8027-6.2051-10.3862-9.9102-17.6108-9.9111h-.0054c-.8813,0-1.7778.0571-2.6636.1694l-14.2959,1.8125c-1.7441.2212-3.4365.6587-5.0454,1.2979-1.2285-.3398-2.3647-.5273-3.3213-.6846-2.0933-.3447-3.144-.5176-4.8184-1.8687-.7969-.6436-1.522-1.2285-2.1836-1.7646.7798-1.1011,1.583-2.2222,2.4009-3.3623,6.2227-8.6826,12.6577-17.6611,15.4893-27.2217,1.8501-6.25,3.0122-12.1782,3.623-18.6167,1.8721-.8335,3.7266-1.543,4.7056-1.583,6.5918-.272,11.7944-.4868,18.29-2.3286,5.3154-1.5063,8.2803-3.1919,10.4448-4.4224,1.7017-.9673,2.2153-1.2593,3.9946-1.5415.4453-.0703.7812-.106.998-.106.3345,0,.9795.0908,1.8726.2163,1.9023.2681,4.7769.6729,9.7671.9453,3.9072.2134,4.792.6216,6.0161,1.1865,1.2329.5688,2.5078,1.1177,4.0986,1.583,1.5298,2.7598,3.543,5.2031,5.9341,7.1587l14.6802,12.002c4.1816,3.4189,9.1533,5.2261,14.3779,5.2261,12.6304,0,23.2012-10.54,24.0654-23.9956l2.1816-33.9883c.478-7.4492-1.9453-14.417-6.8237-19.6187-4.4351-4.729-10.5649-7.4414-16.8179-7.4414-4.4414,0-8.8213,1.3496-12.6665,3.9023l-16.1372,10.7139c-2.0327,1.3501-3.8486,3-5.4038,4.8965-1.8389.2168-3.4609.6792-4.9385,1.1006-1.6646.4741-2.979.8486-4.4424.8486-.9888,0-2.0322-.1714-3.1909-.5244-7.1699-2.186-10.7646-3.2822-13.2739-4.5234-2.5366-1.2549-3.9585-2.2397-5.605-3.3799-2.2881-1.5845-4.8813-3.3809-9.6587-5.5054-2.6885-1.1958-7.1426-3.1763-13.2251-4.332-.9414-.4604-2.9629-1.8735-4.3706-2.8599,1.0913-7.979,1.8447-16.4219.9888-23.769-1.1812-10.1895-4.2417-17.6055-7.0176-23.7568-.501-1.1016-1-2.1763-1.5044-3.2617-2.1704-4.6689-4.2202-9.0791-5.9341-14.5728-.6621-2.1157-1.2285-4.7266-1.7207-7.3862.3599-.3218.5483-.4419.5913-.4678,5.2305-2.8931,9.3726-5.1846,13.9424-9.3599,3.7563-3.4321,5.5005-6.0381,6.7739-7.9409.9697-1.4487,1.1714-1.7505,2.3384-2.5859q.604-.4326,2.0854-.9302c1.6528-.5557,4.1509-1.395,8.311-3.2007,3.0483-1.3235,3.8013-1.3474,4.9414-1.3838,1.1523-.0366,2.3262-.1013,3.6733-.3206,2.355,1.5542,4.9531,2.6785,7.6538,3.2864l16.627,3.7397c1.626.3662,3.2759.5518,4.9033.5518,7.1221,0,13.7651-3.6079,17.7715-9.6511,4.3892-6.6213,5.0718-15.1577,1.8257-22.8347l-11.9199-28.1946c-3.8477-9.1008-12.3833-14.981-21.7446-14.981-7.7231-.0002-14.6631,4.062-18.5645,10.8665l-8.6597,15.1035c-1.0742,1.8743-1.8745,3.8896-2.3892,5.9941-1.3047.9006-2.374,1.8806-3.3164,2.7441-1.855,1.7-2.877,2.6362-5.4897,3.0798-6.5859,1.1182-9.8906,1.6794-12.3247,1.6907l-.1948.0005c-2.353,0-3.752-.1995-5.5225-.4519-2.0029-.2856-4.2729-.6094-7.5869-.6094-.8228,0-1.6904.0205-2.5801.0613-2.3394.1069-6.0146.2751-10.5322,1.3394-4.355-5.793-9.0532-11.0698-13.6279-16.2075-3.7197-4.1777-7.5662-8.4976-11.2959-13.1548-3.5693-4.458-7.1084-9.4878-10.8552-14.813-.5974-.8494-1.1968-1.7012-1.7986-2.554.1482-.8828.2939-1.7937.4424-2.7222.7454-4.6584,1.8716-11.6978,3.551-14.4133,4.2949-6.9448,7.3977-11.9622,10.0151-19.3264,2.1279-5.9875,2.5806-9.8313,2.9109-12.6377.2815-2.3918.4102-3.4836,1.5991-5.9478.7378-1.5291.9492-1.772,2.5933-3.6619,1.5068-1.7327,3.7842-4.3508,7.3545-9.1504,3.231-4.3442,4.4771-5.1794,6.0542-6.2368,1.5269-1.0239,3.0005-2.0708,4.6738-3.6609.4873.0264.9756.0396,1.4648.0396,3.1919,0,6.3276-.5598,9.3208-1.6641l21.0391-7.7607c9.2563-3.4143,15.9062-11.5979,17.355-21.3572s-2.5381-19.522-10.4038-25.478l-29.7402-22.5195c-4.7495-3.5962-10.3594-5.4973-16.2231-5.4978-14.4192-.0017-26.2881,11.2607-27.021,25.6399l-1.1624,22.8118c-.1511,2.9636.1833,5.8982.9797,8.7097-1.2456,2.1008-1.9985,4.2278-2.6855,6.1689-1.2292,3.4729-2.2002,6.2161-5.9412,9.4624-7.0222,6.094-10.5471,9.1523-13.6052,11.094-3.0518,1.9377-5.0066,2.832-7.2703,3.8679-2.9116,1.3323-6.2117,2.8425-11.2058,6.2834-2.8682,1.9756-7.6545,5.2727-12.7097,10.6641-1.0012.7776-4.2764,2.2554-6.4595,3.2405-3.4631,1.5625-6.9929,3.1553-10.0962,5.1677-1.4429-.6558-2.7771-1.3159-4.0486-2.001-5.2576-2.822-10.6885-6.5112-16.4382-10.417-10.855-7.3738-22.0796-14.9985-34.834-18.7771-8.7686-2.594-17.8215-3.8015-28.4941-3.8015-1.3477,0-2.6816.019-3.9797.051-.8618-6.0212-1.7883-11.0122-3.9543-17.0017-2.1609-5.9756-4.2537-9.2312-5.7817-11.6086-1.302-2.0256-1.8965-2.9502-2.5437-5.6086-.4021-1.6501-.3931-1.9717-.3245-4.4763.0627-2.2952.158-5.7637-.1345-11.7375-.2649-5.408.1665-6.8447.7126-8.6636.5293-1.7629,1.0027-3.5103,1.2842-5.8054,2.9426-2.1692,5.4417-4.926,7.2954-8.0972l11.3162-19.3611c4.938-8.4482,4.98-18.5571.1125-27.041C410.4196,5.0718,401.6835.0007,391.924,0h0Z"/>
      </g>
      <path class="cls-3" d="M557.6563,484.1164c5.4657,5.6718-.2413,18.5132-5.6256,30.6285-4.7552,10.6999-9.5434,21.4737-21.2525,30.0035-4.4285,3.226-13.6689,9.9573-26.253,9.3761-3.9932-.1844-15.9909-.7386-20.6274-9.3761-4.5328-8.4442.1895-20.4792,7.5008-25.5806,7.1173-4.9661,11.2785.4125,20.6274-4.4228,8.2566-4.2703,14.0729-13.1521,19.3773-21.2525,3.2647-4.9854,4.1393-7.2907,7.5008-9.3761,5.6561-3.5089,14.7459-4.1573,18.7522,0Z"/>
      <path class="cls-3" d="M483.5727,590.0377c.1181,9.1131-9.6834,15.1691-15.9915,19.0667-4.106,2.537-14.4968,8.7505-27.6775,6.7656-5.1146-.7702-15.0197-2.2618-17.8366-9.8409-2.0754-5.584.2017-13.1142,4.9205-15.9914,5.1535-3.1423,8.6674,2.0405,17.2215,0,5.8823-1.4032,5.9041-4.2555,17.8366-10.4559,7.8044-4.0554,9.8804-3.9188,11.071-3.6903,5.6633,1.0866,10.3752,7.9122,10.456,14.1463Z"/>
      <path class="cls-3" d="M311.3754,597.0117c-5.4019,10.6408-19.0309,12.6667-31.7223,14.5532-18.0389,2.6814-32.4118-1.1891-38.2979-3.0638-5.7744-1.8392-20.6199-7.2482-33.7021-20.6809-6.1265-6.2905-11.3762-11.8432-11.4893-19.9149-.1292-9.2194,6.5252-15.8451,9.1915-18.4999,1.434-1.4278,13.0201-12.6573,25.2766-9.8406,8.94,2.0546,7.944,9.2167,19.9149,16.0851,11.1652,6.4062,23.5311,6.7735,27.5745,6.8936,11.5332.3426,15.4308-2.6445,22.2128.766,7.2573,3.6495,10.2776,10.8335,11.0414,12.6502.4379,1.0416,4.7445,11.706,0,21.0519Z"/>
      <path class="cls-3" d="M421.2967,638.8737c-4.5914,9.8443-20.197,9.8167-25.8491,9.8067-5.8652-.0104-20.33-.036-26.0425-9.8067-3.0131-5.1536-3.597-13.0283,0-16.2359,3.2468-2.8953,7.0452.5579,17.617,0,9.8491-.5198,11.8172-3.7949,19.1489-3.1076,5.9987.5623,11.0525,3.352,15.1257,6.6507.9712,2.8224,2.2142,7.9453,0,12.6928Z"/>
      <path class="cls-3" d="M510.2233,397.1022c6.2542,12.4171-6.4695,28.0581-9.1915,31.4043-9.9419,12.2214-23.1218,15.5948-28.3405,16.8511-6.8032,1.6377-25.5414,6.1486-32.9362-3.8298-4.0751-5.4987-4.2516-14.7851,0-19.7422,4.0662-4.7409,9.0236-1.8387,21.4482-6.3004,4.6515-1.6703,12.1521-4.3638,18.3816-10.7234,8.3293-8.5033,6.655-15.6684,12.5238-17.617,6.0093-1.9953,14.7156,3.2091,18.1145,9.9574Z"/>
      <path class="cls-3" d="M441.2756,502.601c-1.9011,15.1559-17.1836,23.7526-28.0629,29.8723-23.1539,13.0245-45.4163,12.0634-55.6122,11.4894-18.6777-1.0517-33.9236-1.9101-39.6441-13.0213-6.0703-11.7906.8958-30.6386,12.2553-35.7591,10.8806-4.9047,16.7792,6.8475,33.7021,5.1208,16.9736-1.7319,18.5186-14.3177,43.6595-21.1935,8.8576-2.4225,17.4081-4.6269,24.5106,0,7.5934,4.9467,10.1908,15.5252,9.1915,23.4914Z"/>
      <path class="cls-3" d="M597.3715,331.5918c1.8208-5.0556-5.5098-8.0902-11.8406-21.4468-6.038-12.7387-3.4603-18.6079-9.6337-22.9787-5.358-3.7936-14.1547-4.2257-18.1826,0-4.1071,4.3088-1.863,11.9988,0,18.383,1.9421,6.6554,5.0656,11.0752,11.3125,19.9149,7.0363,9.9566,9.4592,11.0394,10.7234,11.4893,6.5914,2.3463,15.8186-.3572,17.621-5.3617Z"/>
      <path class="cls-3" d="M146.4053,336.4251c-.3535-.9379-7.0626-18.2628-15.4684-17.3617-7.334.7862-10.6495,14.8774-11.234,17.3617-1.2827,5.4515-4.3618,18.5382,4.0851,25.3443,6.0366,4.864,16.3385,5.2139,21.9685,0,7.5623-7.0034,2.5764-20.2307.6488-25.3443Z"/>
      <path class="cls-3" d="M166.047,386.3478c2.7714,2.717-.1972,6.8611,0,17.3071.1016,5.3857.9046,5.0179,2.4064,16.7254,2.0106,15.6734.7191,17.483,0,18.2623-3.8997,4.2261-13.7567,2.8497-19.8846-1.5369-6.032-4.318-7.5984-10.9424-9.3427-18.319-1.7584-7.4367-3.2215-13.6239,0-20.3637,4.1945-8.7755,13.0251-11.5715,14.616-12.0752,2.9389-.9305,9.2254-2.921,12.2048,0Z"/>
      <path class="cls-3" d="M286.316,171.5643c4.451-15.1244,25.4347-17.7355,30.6383-18.383,8.5289-1.0613,8.1958,1.3196,31.209,4.0851,18.1812,2.1848,21.9385,1.1253,31.0888,4.6844,6.1384,2.3875,14.1693,5.5112,19.7055,13.6986,4.2391,6.2691,8.8156,18.1689,3.7839,26.1089-7.6501,12.0717-32.5632,7.1838-35.682,6.5719-20.0181-3.9275-22.7348-14.8638-37.7961-14.2979-14.189.5331-17.9841,10.4725-27.6283,7.7259-10.3499-2.9476-18.8868-18.0712-15.3192-30.194Z"/>
      <path class="cls-3" d="M537.9156,255.1809c1.8049-9.1229-4.2861-16.922-10.2128-24.5107-7.5588-9.6786-15.6119-14.7447-24-19.9149-12.6885-7.8208-19.9623-12.3042-29.1063-10.7234-6.5159,1.1264-14.7393,5.463-15.23,11.234-.4198,4.9377,4.9794,9.0644,9.1023,12.2156,9.2656,7.0819,13.1752,4.3809,21.9575,10.2525,10.0177,6.6975,16.2319,17.7672,16.8511,18.8936,2.2109,4.0222,4.2238,8.949,9.702,13.2766,2.3519,1.858,4.6609,3.6335,7.6597,3.6288,6.1578-.0096,11.9249-7.5206,13.2765-14.3523Z"/>
      <path class="cls-3" d="M531.7814,332.8307c.9424-6.341-3.2149-11.249-10.0744-19.3469-5.734-6.7693-10.6416-12.563-19.5685-16.7106-4.7606-2.2119-15.0741-7.0038-25.5942-3.0545-2.2379.8402-7.5768,2.8444-10.5633,8.4382-.4039.7564-3.5431,6.8606-1.044,13.1652,1.9726,4.9762,6.3381,7.2523,11.5766,9.8859,9.5755,4.814,11.7905,1.8922,18.9314,6.1388,6.8979,4.1021,6.2664,7.6821,13.8644,11.2862,3.3096,1.5699,7.4851,3.5506,12.1923,2.2355,5.4229-1.515,9.506-6.8328,10.2797-12.0378Z"/>
      <path class="cls-3" d="M372.2126,261.8075c-2.2965-3.6789-8.3707-5.61-20.4255-9.322-11.4798-3.5349-17.2197-5.3024-24-5.4865-10.7822-.2928-18.7461,2.4641-24.5106,4.4596-8.3722,2.8982-13.8243,4.7856-18.383,10.3489-4.2616,5.2009-5.507,10.8863-6.1276,13.72-1.1409,5.2086-1.938,8.8478,0,11.8663,3.1166,4.8541,11.8204,5.7887,18.0685,3.5201,7.1918-2.6113,6.687-7.8535,14.1017-10.7234,3.9601-1.5328,8.2571-1.0219,16.8511,0,2.4265.2885,8.7003,1.1112,20.9362,4.0851,13.1708,3.2012,14.5865,4.3589,17.3618,3.1182,7.3061-3.2661,11.2219-17.4256,6.1276-25.5863Z"/>
      <path class="cls-3" d="M349.2114,342.0844c9.6453-11.5905,23.5959-14.0974,31.4042-15.5005,8.4815-1.5241,26.1537-3.1596,44.4255,5.9001,8.7676,4.3473,22.3905,11.1019,22.948,22.6216.3461,7.1512-4.4163,14.6199-10.5635,18.5261-5.1068,3.2451-10.2105,3.4224-12.3845,3.4706-10.6974.2376-14.3143-5.9622-26.432-10.078-5.36-1.8206-12.1244-2.1228-25.6531-2.7273-21.197-.9471-28.0277,1.2313-30.6383-2.974-3.8171-6.1488,6.1249-18.3151,6.8936-19.2388Z"/>
      <path class="cls-3" d="M277.0723,339.4473c-5.946-10.9579-22.741-10.2774-30.6383-9.9574-5.7817.2343-17.9142.7258-28.2114,9.9574-1.5971,1.4319-14.4333,13.2998-12.3844,29.1064.1043.8049,1.9919,14.2711,9.1915,16.0851,5.7793,1.4562,8.1735-6.3113,22.2128-12.2553,8.4411-3.5738,17.6154-5.0166,19.9714-5.3617,9.3138-1.3641,11.2234-.0954,14.5505-2.2979,6.7737-4.4842,9.8046-16.9896,5.3079-25.2766Z"/>
      <path class="cls-3" d="M200.7872,482.9099c-1.0338-1.421-10.9365-14.5957-25.2341-12.8317-11.8043,1.4564-18.0283,12.0373-21.3535,17.6904-3.2348,5.4993-9.1599,15.572-5.1199,25.6114,4.283,10.6433,16.769,13.8013,21.4468,14.9843,3.6677.9276,10.0955,2.5533,17.617,0,11.0203-3.7411,15.6669-13.4928,16.3486-14.9843,6.9807-15.2747-3.2531-29.8492-3.7048-30.4701Z"/>
      <path class="cls-3" d="M311.5792,418.4503c-12.5745,2.6575-13.48,9.326-22.9031,10.1582-10.9619.9681-14.5484-7.6312-22.4077-5.0791-7.1898,2.3347-12.1743,12.1243-11.2944,20.9534,1.171,11.7505,12.2845,17.3381,14.5532,18.393,8.1737,3.801,16.215,2.0956,26.0964,0,7.3425-1.5572,6.3124-2.6126,18.8999-5.8744,5.057-1.3104,7.7264-1.7887,10.9186-4.0831,5.4307-3.9034,7.4593-9.5304,7.9776-11.1275,2.0699-6.3778,2.2302-16.812-4.1478-21.8087-5.2988-4.1512-12.6256-2.6028-17.6926-1.5319Z"/>
      <path class="cls-3" d="M285.8306,176.0847c-1.6675-4.9393,4.9733-10.6052,6.1093-11.5745,4.8494-4.1375,10.3453-4.9253,16.3588-5.7872,6.3952-.9167,11.2936-.4698,15.6595-.0434,6.5773.6423,17.0839,2.4052,17.0308,4.1285-.0322,1.0455-3.9264,1.2676-16.6904,4.0851-11.9346,2.6344-14.1853,3.6886-16.3405,5.4468-4.4775,3.6529-3.9425,6.5918-7.8298,8.2119-5.0394,2.1003-12.785.0143-14.2979-4.4672Z"/>
      <path class="cls-3" d="M161.0629,301.581c-1.1359-12.4828,4.8664-22.2843,9.5319-29.9031,3.7944-6.1962,10.8234-17.369,24.5106-24.7556,5.7736-3.1158,15.4399-8.3324,23.1489-4.2388,3.3851,1.7975,6.8448,5.6302,6.8085,9.8723-.0264,3.0852-1.9008,6.2567-9.247,11.5484-12.9003,9.2924-16.5215,6.2844-23.7842,12.2814-6.4703,5.3428-10.2109,13.7746-17.6922,30.6383-2.6871,6.0571-4.1885,10.2618-6.4681,10.2128-3.2379-.0697-6.1738-8.681-6.8085-15.6557Z"/>
      <path class="cls-3" d="M584.515,457.2329c12.6064-6.1406,11.7697-25.8652,11.4894-32.4709-.2852-6.7203-.5725-13.4951-5.7448-18.0482-7.0463-6.2028-19.9879-5.4914-23.709,0-2.5277,3.7302,1.3301,6.5215,0,14.2184-1.7245,9.9795-9.2478,11.2953-9.6101,19.9149-.3069,7.3028,4.8351,12.5044,5.3617,13.0213,5.9165,5.8065,15.626,6.573,22.2128,3.3646Z"/>
    </g>
  </g>
</svg>