<?xml version="1.0" encoding="UTF-8"?>
<svg id="Capa_2" xmlns="http://www.w3.org/2000/svg" viewBox="0 0 795.1437 812.8648">
  <defs>
    <style>
      .cls-1 {
        fill: #bf3441;
      }

      .cls-2 {
        fill: #ba0c1c;
      }

      .cls-3 {
        fill: #e55e6c;
      }

      .cls-4 {
        fill: #b22f3f;
      }

      .cls-5 {
        fill: #a5071b;
      }
    </style>
  </defs>
  <g id="Capa_1-2" data-name="Capa_1">
    <g>
      <g>
        <path class="cls-3" d="M574.6285,736.7573c-10.9961,0-21.1201-2.1553-28.5088-6.0693-15.4609-8.1963-20.0605-27.3115-24.1182-44.1758-1.6094-6.6885-3.1299-13.0054-5.1914-18.4951-5.2979-14.1123-15.6846-24.4883-26.5449-33.4736-10.2021,6.5391-16.5049,9.2505-21.3252,9.251-.1484,0-.2949-.0029-.4404-.0083-.2012-.0073-.4004-.0107-.5957-.0107-4.6768,0-7.3838,1.9707-13.5967,6.8267-4.46,3.4858-10.0088,7.8242-18.4414,12.4751-7.126,3.9326-23.8154,13.1436-45.0078,14.4033-.9746.0581-1.9805.0874-2.9902.0874-9.9512,0-21.6543-2.7974-42.8994-7.8755-10.9414-2.6152-18.0195-4.6313-22.7031-5.9653-4.877-1.3887-7.3252-2.0859-9.1104-2.0859-.7334,0-1.5098.1143-2.5947.3823-6.4717,1.6099-9.5771,5.2114-14.2783,10.6626-4.8633,5.6411-10.917,12.6611-22.7158,19.4565-6.9473,4.0034-17.4482,10.0542-26.7432,10.0547-3.499.0005-6.5752-.8589-9.1445-2.5547-9.7549-6.4268-9.2363-21.7671-8.377-47.1826.1523-4.4707.3975-7.812.5947-10.4966.4082-5.5508.5938-8.084-.4717-12.7891-2.4268-10.7612-6.9121-18.5229-13.335-23.0757-4.2363-2.998-7.2949-3.1489-13.3877-3.4492-4.2559-.21-9.5508-.4707-16.8145-1.8359-12.2686-2.3159-28.9883-5.4722-42.3467-18.1357-.8682-.8271-21.0518-20.3672-18.3818-45.5264.8945-8.4199,3.9521-13.0913,6.4082-16.8447,2.2695-3.4683,4.0625-6.2075,4.2881-11.9238.1416-3.5977-.377-4.9565-5.1396-16.2329-1.9854-4.7017-4.7051-11.1406-8.2812-19.999-7.4346-18.4072-9.0605-23.4053-7.96-30.2456,1.0713-6.6724,3.8311-10.4082,6.2656-13.7046,2.0898-2.8281,3.7402-5.062,4.4609-9.3086,1.4229-8.3691-1.6338-20.2378-8.293-23.8887-1.1689-.6396-2.2969-.9385-3.5479-.9385-2.8066,0-6.2314,1.5098-10.1963,3.2578-6.0566,2.6694-13.5938,5.9917-23.4561,5.9917-.6182,0-1.2432-.0127-1.8789-.0396-18.0195-.7632-40.7734-12.9844-47.4463-34.1309-1.1689-3.7041-1.7617-7.5581-1.7617-11.4546,0-.543.0117-1.0854.0352-1.6284.0205-.502.0527-1.0024.0957-1.5132v-.0161c.0332-.5117.0859-1.0132.1494-1.5225.0049-.0518.0098-.1025.0156-.1514.0508-.4194.1094-.8389.1758-1.251.0205-.1924.0508-.3828.0898-.5708.0684-.4224.1338-.8096.2158-1.1978.0293-.1562.0713-.3677.124-.5972.0166-.0889.0361-.1797.0566-.27.0684-.3398.1455-.6797.2324-1.0195.1738-.7578.3887-1.5547.6738-2.499.0713-.2471.1611-.541.2637-.8477.4775-1.5176,1.0801-3.1304,1.7656-4.7173.1152-.2876.2402-.5664.377-.8535,2.2568-5.0376,5.416-10.1348,9.3906-15.1504.3018-.3853.6201-.7798.9385-1.1641.5557-.6787,1.1299-1.3589,1.7139-2.0283.0186-.0215.0381-.0435.0576-.0649.2031-.2397.4131-.479.6201-.7163l.3105-.355.001.001c.0771-.0898.1582-.1772.2393-.2612.8516-.9463,1.707-1.8638,2.6133-2.8008,6.0957-6.2949,11.5078-10.3501,12.5312-11.0991,7.0811-5.1865,18.9189-13.8574,32.4775-13.8574,2.3066,0,4.5977.2544,6.8105.7554,9.2109,2.0845,14.8057,7.7671,19.7412,12.7808,5.2158,5.2983,8.7002,8.5454,14.3555,8.5454,8.0967-.0151,13.9619-6.6636,14.6035-7.4219,7.8975-9.3071,3.6943-22.6646,3.6514-22.7983-1.2803-3.9634-2.9658-5.5874-5.2988-7.8345-2.5508-2.4575-5.7246-5.5161-8.332-11.6758-4.3838-10.3564-5.4307-25.3696,2.1162-35.564,3.6299-4.9014,7.6104-6.5107,11.8242-8.2144,2.4287-.9814,4.9404-1.9971,8.0176-3.8276,8.3701-4.9824,15.3984-12.9409,20.8955-23.6577,3.4326-10.9302,3.4521-20.4419.0547-28.2764-2.7305-6.2915-6.7441-9.2915-13.3926-14.2612-5.1055-3.8159-11.459-8.5654-19.2559-16.3623-13.4492-13.4385-21.5596-21.5425-24.3369-34.6709-3.4893-16.5127,3.0635-34.4487,19.4766-53.3105,21.3291-24.4551,43.2637-29.5815,57.9131-29.5815,2.0205,0,4.0732.0977,6.1025.2896,26.9902,2.5459,43.46,20.8335,47.8652,26.3774,14.9922,18.8301,16.3467,41.1064,16.4043,47.4849.0586,6.0483-.6553,10.6797-1.2285,14.4004-.8369,5.4287-1.2979,8.4189.7285,12.5547,3.626,7.4019,12.6777,13.1885,22.0117,14.0728.7129.0674,1.3984.1021,2.0381.1021,4.1504,0,7.1514-1.4668,12.6006-4.1299,5.0879-2.4863,12.0566-5.8916,23.1611-9.5356,11.9141-3.9072,18.9688-6.1177,25.4229-6.1177,3.1172,0,5.9531.54,8.6689,1.6514,6.1924,2.5269,8.9854,6.4111,11.6865,10.1675,2.3789,3.3086,4.8389,6.7295,10.4375,10.0796,2.6182,1.5737,9.5518,5.7412,17.7139,5.7412,1.1719,0,2.3389-.0884,3.4678-.2627,3.8359-.5923,5.7568-1.8989,8.665-3.8774,3.0752-2.0918,6.9023-4.6953,13.6562-6.6953,2.5596-.7563,8.5049-2.5137,15.5586-2.5137,2.917,0,5.7461.3027,8.4062.8994,9.8789,2.2144,14.6572,7.8657,18.873,12.8516,3.3926,4.0122,6.5977,7.8022,12.6396,10.4048,4.0957,1.7661,8.6484,2.6611,13.5322,2.6611,7.0918,0,14.2861-1.9321,20.2568-5.4399,13.1602-7.7207,17.6016-21.377,19.0791-28.8301,1.8574-9.3818-.1611-15.0015-2.7158-22.1162-2.1533-5.9937-4.5928-12.7876-5.0352-22.6489-1.0371-23.3062,8.5254-53.4258,31.9727-64.4854,5.9717-2.8184,12.4805-4.2476,19.3447-4.2476,24.4346,0,46.4141,18.2144,48.8398,20.291,22.5264,19.146,25.8682,37.061,24.7031,48.7158-1.5664,15.7261-11.748,26.4785-16.6406,31.6455-7.5488,7.9595-14.0654,11.0942-20.9658,14.4126-4.9902,2.3999-10.1504,4.8818-16.4775,9.5562-7.0654,5.2148-9.3184,8.9829-11.9268,13.3457-2.7061,4.5269-5.7734,9.6577-14.1328,15.769-4.4707,3.2695-8.3652,5.4507-11.4951,7.2026-5.4072,3.0273-7.3164,4.2148-8.0928,6.9751-1.75,6.2124,3.9131,14.3789,6.9551,18.7666,3.6787,5.3188,6.8184,7.6279,9.5879,9.665,1.1855.8726,2.3066,1.6963,3.3691,2.6748,2.3262,2.1636,3.7832,4.5669,4.6074,7.5815,2.0322,7.4253-1.0908,12.9844-3.8467,17.8887-2.4277,4.3208-4.5244,8.0518-3.6982,13.29.375,2.3799,1.3193,4.7681,2.8066,7.1001l.083.124c.041.0635.0801.127.125.1885.0508.0674.0947.1299.1416.1997,2.4023,3.5605,5.5088,6.1597,7.3643,7.7124.3262.2788.6123.5073.8975.7275.6514.5044,1.2188.9116,1.7402,1.249.0283.0186.0566.0371.084.0557.2471.167.501.3257.748.4766.0322.0195.3252.1973.4395.2686l.291.1636c.0947.0513.1885.106.2803.1631l.0654.0278c.1162.0576.2314.1211.3428.188l.125.0605c.0703.0356.1465.0752.2148.1143l.0234.0063.1279.0596c1.2021.5913,2.3555,1.0498,3.6094,1.4404,0,0,.6445.2036.6787.2139.0527.0132.6758.1929.6758.1929,0,0,.2012.0503.2539.0659.1797.0518.3662.105.5449.1499.0469.0117.0928.0239.1396.0366.5146.1445,1.0303.2705,1.5459.3975l.1631.0405c.2578.064.5195.1299.7773.2012,1.4033.3467,2.5615.667,3.6377,1.0068.3398.106.6973.228,1.042.3516.2803.0962.6162.2129.9531.3403.6602.2456,1.2832.5029,1.875.7764.8887.3999,1.7217.8232,2.5078,1.2754.2871.1533.584.3257.8691.4985.0332.0205.1211.0752.1211.0752.3418.2119.6953.437,1.0381.6719.3691.2441.75.5093,1.1309.7861.3369.2446.6963.5195,1.043.7944.3379.2559.749.5942,1.1602.9448,5.0898,4.3301,6.6855,7.9683,8.0938,11.1777,1.1885,2.7109,2.3125,5.271,6.0127,9.0259,5.2139,5.2905,9.3408,6.6831,13.709,8.1572,4.4619,1.5059,9.5195,3.2124,14.3281,9.0107,2.3721,2.8643,4.6104,5.5669,8.5996,40.9316,2.7021,23.9189,2.3047,27.6797.5781,31.6602-3.3877,7.7822-8.9023,11.4482-13.333,14.394-4.2314,2.813-7.2881,4.8452-8.9102,9.708-2.1924,6.5537-.6182,15.2373,3.7412,20.6523,2.9756,3.6938,6.3047,4.6245,10.5195,5.8027,4.5488,1.2715,10.21,2.854,15.3096,8.4126,7.1318,7.7676,12.0312,22.4648,7.0625,34.4019-3.5693,8.5884-10.541,11.5415-17.9229,14.668-7.2148,3.0562-15.3926,6.52-24.4414,15.9771-1.4551,1.5205-2.4072,2.6455-3.7246,4.2021-1.7812,2.1055-3.998,4.7261-8.4912,9.542-4.5361,4.8691-11.3936,12.231-18.7236,18.7148-9.9248,8.7896-16.5586,12.2896-21.4023,14.8457-4.4033,2.3228-6.2285,3.2856-8.168,6.7969,0,0-.0801.1562-.0898.1763-.9033,1.8711-.7871,5.3232-.665,8.978.1475,4.4199.3154,9.4297-1.1289,14.3706-2.8105,9.5806-10.8115,15.6445-24.3965,18.4482,1.6572,3.0229,4.4941,6.8848,7.4941,8.2695,5.8447,2.7007,12.4863,4.6069,19.5176,6.625,8.0996,2.3247,16.4756,4.729,24.0137,8.543,1.7148.8677,3.5234,1.7251,5.2725,2.5542,6.9004,3.2715,14.0352,6.6543,19.7354,12.4517,14.1855,14.4272,18.5596,45.8101,9,64.5752-7.873,15.4565-19.4199,20.4229-34.0371,26.71l-.1025.0439c-7.5098,3.2275-17.1758,5.0044-27.2178,5.0044Z"/>
        <path class="cls-4" d="M583.9425,10c22.6189-.0002,43.2559,17.0925,45.5883,19.0894,4.9301,4.19,25.2699,21.5199,22.98,44.42-1.4,14.05-10.6801,23.83-15.3199,28.7299-12.1201,12.7801-21.22,11.88-36.76,23.3601-15.65,11.55-10.8701,18.0099-26.04,29.1-11.77,8.6099-19.3,9.2199-21.45,16.8599-2.3801,8.45,4.02,17.7201,7.6599,22.9701,5.72,8.2699,10.54,10.2799,13.6801,13.17,1.4301,1.33,2.5199,2.84,3.17,5.2199,3.0299,11.07-9.8201,16.95-7.6602,30.64.54,3.43,1.8901,6.44,3.53,9.01.1401.2101.27.42.42.62,2.78,4.12,6.28,7.06,8.2999,8.75.3501.3.7001.5801,1.05.8501.71.55,1.4,1.05,2.0801,1.49.3099.2099.6299.4099.9399.5999l.01.0101c.1699.0999.3401.2.51.31.01,0,.03.01.04.02.1399.0799.28.1599.4099.23.16.0999.3201.1799.48.26.1501.0899.3101.1699.4701.25.16.0899.3199.1599.47.2299,1.4601.7201,2.87,1.2601,4.25,1.69l.5699.18c.1301.0401.25.0801.3801.11.21.0601.4099.1201.6199.1801.04.0099.0901.0199.1301.0299.24.0701.49.1401.73.2001.5699.1599,1.1399.2999,1.71.44.28.07.5701.14.85.2199,1.14.2801,2.27.58,3.41.94.29.0901.58.19.86.2901.2899.0999.58.1999.87.31.51.19,1.03.3999,1.55.6399.71.32,1.4399.6801,2.1799,1.1101.23.12.47.26.7.3999.03.0201.05.0301.0801.0501.29.18.59.37.88.5699.3199.21.65.44.98.6801.2899.2099.59.4399.88.67.3401.26.6799.5399,1.02.83,8.3101,7.0699,4.96,10.9499,13.79,19.91,11.73,11.9,19.6899,7.13,27.75,16.8499,1.6899,2.0401,3.74,5.1501,7.48,38.3001,2.7,23.8999,2.1,26.48.96,29.11-5.6899,13.07-18.14,11.74-22.4,24.51-2.7799,8.31-.7799,18.6999,4.59,25.37,7.79,9.67,17.5801,5.24,26.04,14.4599,6.4,6.9701,10.0801,19.6101,6.13,29.1001-5.66,13.62-22.14,9.0199-41.36,29.11-3.61,3.77-4.49,5.46-12.26,13.7899-4.49,4.82-11.28,12.1001-18.38,18.3801-18.98,16.8099-25.3199,13.34-30.64,22.98-.0699.1399-.1499.27-.21.4099-2.8201,5.8401.3999,15.6001-2.0901,24.1201-2.1099,7.1899-8.2899,13.5-25.6599,15.7999-2.02.26,3.79,13.32,11.46,16.86,13.1801,6.0901,29.95,8.3001,43.3701,15.0901,8.24,4.1699,17.23,7.47,23.7,14.0499,12.8999,13.12,16.46,42.4101,8.11,58.8001-7.0699,13.88-17.36,18.2799-31.66,24.43-6.9839,3.0014-16.1206,4.5978-25.2427,4.5978-9.5692,0-19.1227-1.7557-26.1672-5.488-18.9202-10.03-19.4401-39.9599-26.9701-60.01-5.98-15.9299-17.7699-27.3499-30.9-37.8999-8.9731,5.9591-16.9349,10.4345-21.6509,10.4345-.0876,0-.1737-.0015-.259-.0046-.2627-.0095-.5221-.0142-.7769-.0142-11.2754-.0004-15.0223,9.2064-34.4531,19.9243-7.3201,4.0399-23.2101,12.62-42.8901,13.7899-.882.0525-1.778.0786-2.6921.0786-9.3589,0-20.7754-2.7279-41.7378-7.7385-23.0342-5.5059-28.2858-8.1884-32.976-8.1884-1.2045,0-2.3718.1769-3.7941.5283-15.72,3.9101-15.7,17.63-38.29,30.6401-6.3138,3.6387-16.3021,9.388-24.2483,9.388-2.3611,0-4.5408-.5071-6.3916-1.728-7.42-4.89-6.92-19.52-6.1301-42.89.4601-13.5,1.8101-16.5201,0-24.5101-.8999-3.9899-4.0898-18.0899-15.3199-26.05-8.9301-6.3199-14.5099-2.7999-32.17-6.1199-11.9199-2.25-27.52-5.18-39.83-16.8501-.85-.81-19.25-18.76-16.85-41.37,1.5601-14.68,10.1699-15.13,10.72-29.0999.27-6.86-1.73-8.4501-13.78-38.3-7.52-18.62-8.5-22.3601-7.6599-27.58,1.75-10.9001,8.87-12.0801,10.72-22.97,1.74-10.2401-1.99-24.27-10.8201-29.1101-2.0134-1.1025-3.9764-1.5542-5.9514-1.5544-8.9406-.0009-18.1522,9.2499-33.6523,9.2499-.548,0-1.1024-.0115-1.6663-.0354-17.24-.7301-37.2699-12.83-42.8899-30.64-1.0601-3.36-1.53-6.69-1.53-9.9501,0-.4699.01-.94.03-1.4099.02-.4701.05-.93.09-1.4001q-.01-.01,0-.02c.03-.4599.08-.9099.14-1.37v-.0299c.05-.42.11-.8401.1799-1.25,0-.07.01-.14.03-.2.0601-.3801.1201-.7601.2-1.1401.04-.2099.0801-.4099.1301-.62.01-.06.02-.13.04-.19.0599-.31.1299-.62.21-.93.1699-.75.3799-1.5.6-2.2299.0699-.24.14-.4701.22-.7101.4701-1.4899,1.02-2.95,1.64-4.38.0901-.2299.1899-.45.3-.68,2.3099-5.1699,5.45-9.95,8.77-14.14.2899-.37.58-.73.8699-1.0799.54-.6601,1.0801-1.3001,1.6301-1.93l.02-.02c.3198-.38.6599-.76.98-1.13.02-.0301.0499-.05.08-.0801.87-.9699,1.73-1.89,2.59-2.7799,5.8-5.99,10.9199-9.83,11.89-10.5401,6.7821-4.9677,17.5958-12.8917,29.5243-12.8917,1.8784,0,3.7833.1963,5.7057.6317,16.3359,3.6968,19.8544,21.45,35.201,21.45.0131,0,.0259,0,.0389,0,10.38-.0199,17.4901-8.1399,18.38-9.19,9.5801-11.2899,4.88-26.69,4.5901-27.5799-3.25-10.06-9.26-9.2301-13.78-19.9101-3.8401-9.07-4.77-22.13,1.53-30.64,4.5399-6.13,9.5399-5.4599,18.3799-10.7199,6.8201-4.06,15.5801-11.4501,22.98-26.05,2.7101-8.4601,5-20.64,0-32.1701-5.6099-12.93-15.7-14.17-33.7-32.1699-12.9099-12.9-20.51-20.49-22.98-32.17-4.75-22.48,13.15-43.01,18.38-49.02,4.5588-5.2275,24.2753-27.8371,54.1176-27.8371,1.8411,0,3.7156.0857,5.6324.267,26.4,2.49,41.9501,21.4001,44.42,24.5101,14.77,18.5499,15.29,41.1799,15.3199,44.4199.14,14.5-4.4401,20.0301.01,29.1101,4.6,9.3899,15.58,15.86,26.0299,16.8499.881.0837,1.7141.1244,2.5098.1244,9.9436,0,14.2098-6.3311,37.3203-13.9142,10.916-3.58,18.0581-5.8688,23.8647-5.8688,2.4331,0,4.6315.4018,6.7753,1.2788,9.85,4.02,8.63,12.2399,21.4501,19.91,2.8907,1.738,10.7701,6.4507,20.2803,6.4507,1.3792,0,2.7924-.0991,4.2297-.3207,9.71-1.5,10.72-7.09,22.98-10.72,2.3959-.7085,7.7913-2.3083,14.1384-2.3083,2.342,0,4.813.2177,7.3115.7783,15.48,3.47,15.3999,16.41,30.63,22.97,4.8516,2.0918,10.1655,3.0686,15.5092,3.0686,8.0167,0,16.1003-2.1984,22.7908-6.1286,17.0601-10.0101,20.77-28.74,21.4501-32.17,3.7899-19.14-6.7301-25.21-7.66-45.96-.84-18.87,6.3-48.98,29.11-59.74,5.6888-2.6845,11.5134-3.7694,17.2118-3.7694M583.943,0h-.0005c-7.6074,0-14.8341,1.59-21.4792,4.7258-12.4963,5.8947-22.3276,17.0056-28.4299,32.131-4.6099,11.426-6.9435,24.9475-6.4027,37.0974.476,10.6192,3.1641,18.1038,5.3239,24.1177,2.4723,6.8837,4.1056,11.4312,2.5167,19.4552-1.3145,6.6301-5.2321,18.7578-16.7013,25.4874-5.2197,3.0662-11.5148,4.7535-17.73,4.7535-4.1399,0-8.1338-.7786-11.5499-2.2514-4.9651-2.1386-7.5414-5.1854-10.8031-9.0427-4.4906-5.3107-10.0793-11.9201-21.5989-14.5023-3.0175-.6769-6.214-1.0205-9.4988-1.0205-7.7812,0-14.2128,1.9021-16.9592,2.7144-7.5203,2.2267-11.8827,5.194-15.0681,7.3607-2.675,1.8195-3.896,2.65-6.6177,3.0705-.8748.1349-1.7852.2035-2.7031.2035-6.7762,0-12.8436-3.6478-15.1277-5.0211-4.7297-2.8297-6.6919-5.5588-8.964-8.7188-2.8214-3.9239-6.3326-8.8073-13.8601-11.8794-3.3198-1.3582-6.7747-2.0201-10.5538-2.0201-7.5674,0-15.7104,2.6705-26.981,6.3666-11.4331,3.7516-18.5802,7.2443-23.799,9.7946-5.507,2.6911-7.5563,3.6218-10.4052,3.6218-.4827,0-1.0087-.0267-1.5634-.0794-7.5746-.7175-15.1415-5.4673-17.996-11.2941-1.2798-2.6112-1.0997-4.2641-.278-9.5949.6013-3.9002,1.3495-8.7541,1.2871-15.2125-.0624-6.7793-1.5092-30.4735-17.4965-50.5522-4.7064-5.926-22.3387-25.5051-51.304-28.2369-2.1821-.2065-4.3939-.3112-6.5714-.3112-15.6882,0-39.1194,5.424-61.6539,31.264-2.7771,3.1914-9.2118,10.5855-14.2843,20.3239-6.7186,12.8983-8.8528,25.4602-6.3434,37.3365,3.0837,14.5821,12.0723,23.5638,25.6783,37.1593,8.0657,8.0655,14.5789,12.934,19.8124,16.8459,6.8275,5.1032,9.6825,7.3686,11.7993,12.2476,2.8645,6.6056,2.8264,14.806-.1121,24.3822-5.0297,9.675-11.3553,16.8275-18.8093,21.2649-2.7468,1.6345-5.0781,2.5768-7.3326,3.4882-4.4532,1.8001-9.5005,3.8405-13.968,9.8727-9.3191,12.5881-7.28,29.6792-2.7028,40.4905,3.0055,7.1014,6.7404,10.6996,9.4674,13.3271,2.2029,2.1224,3.1147,3.0007,4.0055,5.7584.0306.0981,3.3191,10.9434-2.699,18.0358-.1996.2354-4.8549,5.6487-10.7744,5.66-3.5366,0-5.7727-1.9342-10.8119-7.0531-5.15-5.2314-11.5594-11.742-22.2017-14.1504-2.5732-.5826-5.2361-.8782-7.913-.8782-15.1952,0-27.8599,9.2768-35.4268,14.8194-1.0844.7938-6.7963,5.072-13.1716,11.6561-.9253.9575-1.793,1.8863-2.651,2.8376-.1514.1565-.2972.3172-.4377.4821l-.2695.3088c-.204.233-.4095.4683-.6104.7038-.0167.0188-.0333.0377-.0498.0567-.6068.695-1.1992,1.3959-1.8101,2.1419-.3405.4113-.6813.8343-1.0221,1.2689-4.2064,5.3137-7.5654,10.7381-9.9849,16.1243-.1727.3656-.3201.6999-.4545,1.0312-.7313,1.6991-1.3771,3.4281-1.9204,5.1419-.1051.319-.2.6279-.2936.9477-.3051,1.0146-.5394,1.8848-.7327,2.721-.0898.3566-.1724.7176-.2467,1.0779-.033.1421-.0605.2743-.0839.3952-.0483.219-.0923.4352-.1351.6569-.0928.451-.1631.865-.2212,1.2254-.0522.264-.0945.53-.1266.7978-.0693.4397-.1316.8904-.1857,1.3449-.0077.0642-.0148.1286-.0211.1929-.0781.6312-.1321,1.1896-.1678,1.7382-.0454.5599-.079,1.1001-.1022,1.646-.0259.6085-.0391,1.226-.0391,1.8349,0,4.4066.6708,8.7667,1.9934,12.9591,7.358,23.3178,32.2852,36.7871,52.0033,37.6221.6952.0294,1.3982.0444,2.0895.0444,10.9154,0,19.3287-3.7089,25.472-6.4171,3.3049-1.4569,6.4266-2.8331,8.1792-2.8328.3517,0,.6526.0533,1.1497.3255,4.1234,2.2601,6.9805,11.5059,5.7643,18.6638-.522,3.072-1.5986,4.5295-3.5533,7.1755-2.4973,3.3805-5.9172,8.0101-7.1815,15.8845-1.2925,8.0306.5287,13.7642,8.2611,32.91,3.5898,8.8925,6.3181,15.3523,8.3103,20.0691,4.7174,11.1693,4.8436,11.7094,4.7499,14.0928-.1707,4.3331-1.275,6.0206-3.4753,9.3826-2.6056,3.9814-6.1742,9.4342-7.1964,19.0539-2.8771,27.1038,17.556,47.4368,19.8953,49.6661,14.444,13.6933,31.9994,17.007,44.8177,19.4266l.056.0106c7.6068,1.43,13.0923,1.7005,17.4998,1.9176,6.1018.3008,7.8187.4651,10.7485,2.5385,5.3773,3.8116,9.1953,10.5715,11.3416,20.0874.9033,3.9875.7566,5.9866.3643,11.3292-.2002,2.7281-.4495,6.1233-.6035,10.6402l-.0017.0538c-.412,12.1892-.7374,21.8169.0316,29.6541.6708,6.8351,2.4985,16.5389,10.5917,21.8725,3.3967,2.2408,7.3999,3.3782,11.8943,3.3782,10.6335,0,21.8315-6.4534,29.2416-10.7238,12.5328-7.218,19.1633-14.9078,24.0049-20.5226,4.8143-5.5834,6.9574-7.8963,11.7058-9.0774.8424-.2083,1.192-.2327,1.3804-.2327,1.087,0,3.8777.7948,7.7402,1.895,4.7249,1.3456,11.8651,3.3793,22.9108,6.0195,21.6146,5.1665,33.5211,8.0125,44.0626,8.0125,1.1072,0,2.2126-.0323,3.286-.0962,22.3226-1.3269,40.3439-11.2728,47.1281-15.0171,8.7799-4.843,14.7468-9.5074,19.1038-12.9132,5.9791-4.6738,7.6664-5.7665,10.5172-5.7664.1362,0,.2747.0026.4147.0077.208.0074.4128.0112.6216.0112,5.3385,0,11.4841-2.3283,20.8898-8.077,9.2869,7.9961,17.8411,17.1813,22.2991,29.0569,1.9537,5.2022,3.4388,11.3735,5.011,17.9073,4.3055,17.8924,9.1857,38.172,26.6373,47.4235,8.0985,4.2905,19.0541,6.6527,30.8511,6.6527,10.7059,0,21.0729-1.9214,29.1912-5.4103l.1033-.0445c14.9308-6.4213,27.8254-11.9669,36.5189-29.0342,4.9169-9.6514,6.709-22.9474,4.9164-36.4785-1.8574-14.0205-7.1157-26.0495-14.8064-33.8714-6.323-6.4305-14.2058-10.1676-21.1608-13.4648-1.799-.8528-3.4979-1.6584-5.1544-2.4967-7.9611-4.0279-16.5685-6.4985-24.8923-8.8878-6.8416-1.9637-13.3037-3.8185-18.7985-6.3575-.3657-.1687-.7659-.4531-1.1813-.8197,11.14-3.7971,17.9767-10.3873,20.7819-19.9467,1.6719-5.7204,1.4818-11.3932,1.3291-15.9514-.0748-2.2354-.1875-5.6008.1803-6.6511.001-.002.0021-.0041.0032-.0061,1.1185-2.0044,1.7876-2.4419,6.0748-4.7038,4.7826-2.5232,12.01-6.3363,22.3875-15.5272,7.5052-6.6385,14.463-14.1077,19.067-19.0501,4.5677-4.8968,6.8278-7.5675,8.6437-9.7135,1.261-1.49,2.172-2.5667,3.522-3.9763,8.3378-8.7152,16.0111-11.9654,22.7814-14.8329,7.61-3.2233,16.2354-6.8766,20.5902-17.3557,5.8262-13.9975.3868-30.5687-7.9984-39.7011-6.0624-6.6069-12.7577-8.4785-17.6464-9.8451-4.2684-1.1931-6.0762-1.7712-7.9723-4.1249-3.3101-4.1115-4.5551-10.9584-2.8938-15.9239,1.0375-3.1101,2.8766-4.4346,6.9381-7.1347,4.7153-3.1349,11.1733-7.4284,15.1472-16.5562,2.2949-5.2945,2.5281-10.1474-.192-34.2242-3.9562-35.0664-6.2694-39.3964-9.7158-43.5568-5.7175-6.8951-11.7412-8.9278-16.5813-10.5609-4.1166-1.3892-7.368-2.4864-11.7479-6.9296-3.0522-3.0973-3.8668-4.9541-4.9941-7.5242-1.5442-3.5204-3.4659-7.9016-9.4377-12.9822-.4805-.4099-.9258-.7726-1.3503-1.0996-.4062-.3208-.7979-.618-1.165-.8838-.4225-.3075-.8536-.6073-1.2676-.8812-.4374-.2982-.8489-.5577-1.1672-.7553-.0143-.009-.0287-.018-.0428-.0268-.0433-.0273-.0869-.0542-.1307-.0808-.3737-.2274-.7191-.4264-1.049-.6043-.8923-.5105-1.8344-.9886-2.8713-1.4575-.6859-.3153-1.4026-.6118-2.1893-.9055-.3602-.1362-.7198-.2621-1.0798-.3863-.3912-.1393-.7954-.2766-1.1991-.402-1.1237-.3549-2.36-.6981-3.8402-1.0644-.2766-.0757-.5575-.1468-.8342-.2156l-.1277-.0318c-.5074-.1248-.9712-.237-1.4347-.3669-.0914-.0257-.1832-.05-.2753-.0731-.1156-.0289-.2356-.0636-.3511-.0974-.1256-.0367-.252-.0709-.3789-.1027-.0043-.0011-.0085-.0021-.0129-.0032l-.0464-.0135-.3639-.1057c-.0533-.0153-.1068-.0301-.1603-.0445l-.53-.1674c-1.0391-.3238-1.9552-.6872-2.8384-1.1228-.0646-.0318-.1294-.0629-.1947-.0934l-.0736-.0341c-.0491-.0256-.0984-.0508-.1478-.0756l-.0208-.0104c-.1338-.0757-.2692-.1484-.4064-.2179-.0826-.0477-.1659-.0942-.25-.1396l-.1215-.069c-.0901-.0554-.1802-.1099-.2703-.1637-.0347-.0218-.0695-.0435-.1044-.0648-.1837-.1125-.3741-.2293-.5579-.3535-.0575-.0391-.1155-.0774-.1738-.1151-.4004-.2592-.8546-.5861-1.3887-.9999-.2734-.2111-.4808-.3785-.6672-.5382-.0298-.0255-.0597-.0508-.0897-.0759-1.6527-1.3829-4.4191-3.6974-6.4275-6.6738-.0629-.0933-.1273-.1855-.1934-.2765l-.0323-.0493-.0845-.1282c-1.1118-1.7538-1.783-3.435-2.051-5.1379-.5316-3.3695.7034-5.7682,3.1172-10.0645,2.9055-5.1711,6.8848-12.2531,4.3098-21.6604-1.0782-3.9473-2.9867-7.0953-6.0049-9.9024-.0126-.0118-.0254-.0235-.0381-.0353-1.2655-1.1648-2.5509-2.1104-3.7938-3.0247-2.5736-1.8929-5.2346-3.8504-8.434-8.476-2.2097-3.1871-7.3693-10.6287-6.259-14.5705.2203-.7829,1.5538-1.6347,5.7236-3.9693,3.2476-1.8182,7.2892-4.0809,12.0051-7.5307,9.1769-6.709,12.6671-12.5471,15.4716-17.2382,2.4282-4.0614,4.3461-7.2694,10.6024-11.8868,5.9519-4.3969,10.896-6.7748,15.6771-9.0744,7.0038-3.3686,14.2461-6.8517,22.4008-15.4506,5.302-5.5992,16.278-17.19,18.0146-34.6195,1.2842-12.8422-2.2627-32.4706-26.4547-53.0313-4.1642-3.5655-26.3767-21.4696-52.0637-21.4696h0Z"/>
      </g>
      <g>
        <path class="cls-3" d="M71.4684,253.2412c-.9795,0-1.9736-.0337-2.9551-.1006-16.5059-1.1235-31.9727-11.8535-39.4023-27.3359-8.3857-17.4761-2.8828-34.0625-.2383-42.0337,2.6631-8.0244,10.7637-32.4287,35.4541-39.9751,4.7207-1.4424,9.7041-2.1738,14.8135-2.1738,13.4131,0,26.0576,5.1851,34.6904,14.2261,16.6309,17.4165,12.0029,41.0664,10.4824,48.8379-3.7803,19.3184-13.9189,30.6172-21.7588,36.6943-4.1855,3.2441-15.3008,11.8608-31.085,11.8608h-.001Z"/>
        <path class="cls-4" d="M79.14,146.622c11.0944,0,22.6832,3.8915,31.0747,12.679,14.8439,15.5444,10.6545,36.9501,9.1914,44.4256-.9698,4.9558-4.5278,21.7742-19.9148,33.7021-3.9402,3.0543-13.9475,10.8125-28.0225,10.8125-.8567,0-1.7295-.0288-2.6158-.0891-15.7893-1.0746-29.0748-11.6759-35.2339-24.5106-7.5132-15.6568-2.5259-30.6862,0-38.2979,2.5461-7.6727,9.9467-29.9741,32.17-36.766,4.187-1.2796,8.7252-1.9556,13.3508-1.9556M79.14,136.622c-5.6042,0-11.0795.8049-16.2736,2.3923-27.1643,8.3019-35.8757,34.5532-38.7383,43.1796-2.8517,8.5937-8.7855,26.4753.4752,45.7739,8.1957,17.0787,25.2982,28.9176,43.5707,30.1612,1.0941.0745,2.2026.1122,3.2948.1122,17.4963,0,29.5941-9.3782,34.1484-12.9086,8.5167-6.6022,19.5244-18.846,23.6027-39.6855,1.644-8.3999,6.6473-33.9625-11.7731-53.2523-9.5721-10.0238-23.5345-15.7728-38.3069-15.7728h0Z"/>
      </g>
      <g>
        <path class="cls-3" d="M365.0006,108.293c-5.0918-.0005-8.7207-.6895-9.1182-.7681-5.708-1.1284-24.8408-6.2446-31.3213-24.6948-5.7568-16.3867,1.7275-36.0508,17.4082-45.7397,6.2754-3.8774,13.5674-5.9268,21.0869-5.9268,7.5625,0,14.8174,2.0591,20.9795,5.9536,9.5723,6.0508,16.2803,16.3931,18.4053,28.3755,1.9365,10.9272-.3936,21.6631-6.3926,29.4546-8.4922,11.0293-21.5703,13.3457-31.0459,13.3457h-.002Z"/>
        <path class="cls-4" d="M363.0564,36.1636c6.472,0,12.8823,1.7511,18.3073,5.18,16.6992,10.5552,22.1096,35.7657,10.7234,50.5532-7.3751,9.5782-19.1879,11.3959-27.0867,11.3959-4.5104,0-7.7455-.593-8.1473-.6726-3.0649-.6063-21.6842-4.6788-27.5745-21.4467-5.1921-14.7804,2.2092-31.7299,15.3191-39.8298,5.6272-3.4768,12.0731-5.18,18.4587-5.18M363.0564,26.1636c-8.449,0-16.6494,2.3074-23.715,6.6728-17.6324,10.8943-26.0146,33.0996-19.4977,51.6514,7.3579,20.9457,28.7021,26.6829,35.0686,27.9424.7281.144,4.6368.8627,10.0879.8627,14.9821,0,27.4155-5.4319,35.0101-15.295,6.8556-8.9034,9.5358-21.0692,7.3534-33.3779-2.3695-13.3642-9.8987-24.9291-20.6572-31.7293-6.9626-4.4009-15.1407-6.727-23.6501-6.727h0Z"/>
      </g>
      <g>
        <path class="cls-3" d="M736.8863,334.9961c-5.2803,0-18.5938-1.0444-28.1338-10.7163-6.5703-6.6616-7.5957-13.5981-8.5-19.7183-.7686-5.2026-1.4326-9.6963-5.3867-14.1938-2.3828-2.7124-3.6973-3.1606-10.2754-5.0879-4.7842-1.4014-11.335-3.3203-21.5938-7.3462-15.5996-6.1216-25.9043-10.1655-36.6133-19.1108-7.498-6.2637-15.9961-13.3618-19.9287-25.3462-7.001-21.3369,3.9873-44.3242,18.4619-56.0034,8.832-7.1265,22.5693-11.2173,39.7275-11.8296,1.3398-.0474,3.5791-.1274,6.4336-.1274,24.8379,0,70.7158,5.8594,98.9121,45.1006,22.8135,31.7524,22.1689,58.1548,17.6104,74.7129-5.2676,19.1401-22.6553,48.1504-48.9668,49.6226-.2617.0146-.8672.0439-1.7471.0439Z"/>
        <path class="cls-4" d="M671.079,170.5162c18.7594,0,66.4609,3.5071,94.85,43.0181,4.8839,6.7972,26.2081,36.4756,16.8511,70.4681-5.2487,19.0676-21.5787,44.6791-44.4255,45.9574-.2194.0123-.7285.0361-1.4684.0361-4.2759,0-16.2585-.7967-24.5742-9.2275-10.6378-10.7852-3.6368-22.2645-13.6898-33.7021-5.8162-6.6171-9.4354-4.2265-33.7994-13.7872-15.9417-6.2556-25.348-10.0361-35.2341-18.2939-7.3663-6.1532-14.8966-12.4434-18.3829-23.0677-5.8951-17.9656,2.7701-39.1911,16.8511-50.5533,2.9941-2.416,13.0376-9.8767,36.766-10.7234,1.3529-.0483,3.4893-.1245,6.2563-.1245M671.0788,160.5162c-2.9459,0-5.2415.082-6.613.1309-18.2473.6511-33.0089,5.1238-42.6888,12.9346-15.8097,12.7571-27.7812,37.9624-20.073,61.4534,4.3793,13.3455,13.4611,20.9316,21.4738,27.6247,11.3339,9.4673,22.5157,13.8551,37.9921,19.9282,10.4662,4.107,17.4161,6.143,22.015,7.4901,6.425,1.8821,6.5671,2.0438,7.9263,3.59,2.8456,3.2376,3.3954,6.2122,4.1949,11.6237.9149,6.1926,2.168,14.6735,9.8864,22.4988,10.8655,11.016,25.7839,12.2053,31.6937,12.2053.9122,0,1.6064-.0282,2.0282-.0518,13.0837-.732,25.4897-7.5858,35.8757-19.8203,7.9177-9.327,14.3441-21.5254,17.6313-33.4674,4.5369-16.4817,3.3989-33.8586-3.3824-51.6482-5.2356-13.7346-12.3214-23.5964-14.9889-27.3089-13.5167-18.8121-32.3761-32.2691-56.0546-39.9971-18.1975-5.9392-35.5577-7.1859-46.9166-7.1859h0Z"/>
      </g>
      <g>
        <path class="cls-3" d="M740.0904,473.4326c-19.8838-.0005-37.8467-10.9551-44.6982-27.2583-7.5996-18.084-.9863-41.0474,15.3818-53.4155,8.0156-6.0557,18.0342-9.3906,28.21-9.3906,10.4014,0,20.2734,3.375,27.7979,9.5029,9.1611,7.4604,14.8867,19.2026,15.71,32.2158.9414,14.8818-4.6162,29.8188-15.2461,40.9814l-.5791.6079-.7461.3853c-8.1768,4.2275-16.8682,6.3711-25.8291,6.3711h-.001Z"/>
        <path class="cls-4" d="M738.9842,388.3684c9.1118,0,17.953,2.9332,24.6405,8.3795,17.4269,14.1925,19.791,45.0912,0,65.8723-7.7543,4.0085-15.8149,5.8124-23.5344,5.8124-17.9298,0-34.0118-9.7357-40.0884-24.1955-6.4589-15.3696-1.5437-35.9064,13.7872-47.4893,7.5552-5.7081,16.4984-8.3795,25.1951-8.3795M738.9842,378.3684c-11.2573,0-22.3459,3.6937-31.2233,10.4007-9.0153,6.8113-15.6489,16.6318-18.6788,27.6524-2.9625,10.7758-2.3585,22.0301,1.7008,31.6898,7.6215,18.1361,27.4365,30.3213,49.3073,30.3213,9.769,0,19.2323-2.3313,28.1267-6.9291l1.4915-.771,1.1578-1.2158c11.5887-12.1685,17.645-28.4777,16.616-44.7458-.9108-14.399-7.3048-27.4392-17.5426-35.7769-8.4136-6.8521-19.407-10.6256-30.9553-10.6256h0Z"/>
      </g>
      <g>
        <path class="cls-3" d="M651.9361,616.479c-5.4062,0-10.5488-1.3179-11.9961-1.7217-7.6514-2.1343-14.3984-6.6768-18.998-12.791-9.0146-11.9849-11.3115-31.4561.4482-43.2949,5.3643-5.3999,13.3223-8.4966,21.835-8.4966,8.6016,0,16.5986,3.1567,21.9404,8.6616,1.3994,1.4409,2.6152,3.042,3.6152,4.7573,3.5996,6.1714,4.9971,13.9062,4.042,22.3677-.8105,7.1724-3.1562,13.9814-5.4893,20.3408-.5996,1.6333-1.4199,3.8711-3.1035,5.8057-2.5254,2.9004-6.6621,4.3711-12.293,4.3711h-.001Z"/>
        <path class="cls-4" d="M643.2247,555.1746c6.8656,0,13.7272,2.3772,18.353,7.1435,1.0969,1.1302,2.0681,2.3947,2.8839,3.7937,3.3457,5.7375,4.1376,12.6885,3.3926,19.2884-.745,6.5999-2.9271,12.9441-5.2147,19.1796-.5511,1.5023-1.1302,3.038-2.1809,4.245-1.739,1.9975-5.0317,2.6542-8.5222,2.6542-3.9579,0-8.1698-.845-10.6528-1.5377-6.4554-1.8009-12.304-5.6075-16.3457-10.9809-7.8008-10.3709-9.5533-27.1472.0002-36.7657,4.6447-4.6761,11.4677-7.0201,18.2866-7.0201M643.2247,545.1746c-9.835,0-19.0862,3.635-25.3815,9.9729-13.6688,13.7616-11.1902,36.1396-.8971,49.824,5.2561,6.9877,12.9449,12.1735,21.6503,14.602,1.6024.447,7.2999,1.9055,13.34,1.9055,7.1427,0,12.5476-2.0483,16.0645-6.088,2.2887-2.6292,3.3347-5.4803,4.0269-7.367,2.4384-6.6465,4.892-13.7817,5.7634-21.5021,1.0768-9.5387-.5454-18.3383-4.6909-25.4475-1.2043-2.0654-2.6669-3.9903-4.3467-5.721-6.2778-6.4686-15.5829-10.1787-25.5288-10.1787h0Z"/>
      </g>
      <g>
        <path class="cls-3" d="M407.5484,807.8647c-4.1738-.0005-8.3359-.6475-12.373-1.9243-16.3262-5.1621-29.0869-20.1069-31.0322-36.3423-3.1904-26.6489,22.7148-43.6245,31.2275-49.2026,5.5234-3.6196,20.1953-13.2354,35.0176-13.2354,5.499,0,10.4893,1.3267,14.832,3.9434,7.5127,4.5259,16.4229,15.0625,16.207,39.5591-.0605,6.8257-1.6562,24.249-15.1416,38.6143-4.0947,4.3608-18.9883,18.5879-38.7354,18.5879h-.002Z"/>
        <path class="cls-4" d="M430.3878,712.1603c4.2356,0,8.4199.9171,12.2524,3.2259,14.0244,8.4487,13.8353,29.8001,13.7872,35.2341-.0422,4.7657-.8433,21.4454-13.7872,35.234-2.3345,2.4867-16.4508,17.0105-35.0922,17.0105-3.4794,0-7.1182-.5064-10.8654-1.6914-14.1517-4.4751-25.7986-17.3411-27.5745-32.1702-2.8226-23.5706,20.8525-39.0849,29.0023-44.4254,5.0995-3.3418,18.9487-12.4174,32.2772-12.4174M430.3878,702.1603c-16.3126,0-31.8926,10.2095-37.7577,14.053-9.1544,5.9989-37.0106,24.2531-33.4509,53.9789,2.2045,18.4076,16.0643,34.6897,34.4885,40.5159,4.5255,1.4311,9.1956,2.1567,13.8804,2.1567,21.7601,0,37.9418-15.4353,42.3828-20.1661,14.6917-15.6502,16.4305-34.5783,16.4962-41.9898.2378-26.8565-9.9979-38.6903-18.6266-43.8884-5.1331-3.0923-10.9915-4.6602-17.4127-4.6602h0Z"/>
      </g>
      <g>
        <path class="cls-3" d="M175.2603,732.1606c-12.1318,0-24.626-7.5903-31.0879-18.8872-6.0947-10.6562-7.8535-26.9385,1.9561-39.2939,6.3223-7.9624,16.3027-12.7158,26.6992-12.7158,3.8887,0,7.6299.6538,11.1201,1.9434,8.2334,3.042,14.7881,9.6787,18.4561,18.6875,4.2832,10.5215,4.1475,22.9409-.3545,32.4121-1.8145,3.8203-7.2354,13.0845-18.3359,16.5728-2.7051.8501-5.5488,1.2812-8.4531,1.2812h0Z"/>
        <path class="cls-4" d="M172.8276,666.2635c3.2461,0,6.4413.5449,9.3871,1.6333,17.1534,6.3376,22.2209,29.7432,15.3191,44.2635-.9028,1.8994-5.4302,10.8414-15.3191,13.9492-2.2814.717-4.6173,1.0511-6.9535,1.0511-10.7009,0-21.396-7.0128-26.7487-16.3702-5.0963-8.9092-7.0426-22.9026,1.5319-33.7021,5.7341-7.222,14.4324-10.8249,22.7832-10.8249M172.8276,656.2635c-11.9082,0-23.3529,5.4604-30.6149,14.6067-11.2649,14.1881-9.3125,32.7669-2.3804,44.8855,7.3236,12.8029,21.5613,21.4049,35.4288,21.4049,3.4131,0,6.7614-.5084,9.9518-1.5112,12.9747-4.0777,19.2546-14.7829,21.3524-19.1962,5.0853-10.6986,5.2653-24.6629.4697-36.4434-4.2031-10.3253-11.787-17.9584-21.3547-21.4933-4.0466-1.495-8.3708-2.2531-12.8528-2.2531h0Z"/>
      </g>
      <g>
        <path class="cls-3" d="M84.8199,623.6563c-10.0283-.0005-22.7617-3.7046-34.0615-9.9087-15.3721-8.4404-26.1084-17.1587-33.7881-27.4365-9.9707-13.3433-13.9844-29.0957-11.0137-43.2188,6.1396-29.1904,38.1592-41.9707,51.6406-46.1108,3.0713-.9429,6.7188-1.9072,10.4834-1.9072,2.8135,0,5.4033.5522,7.6953,1.6416,8.3438,3.9648,10.6758,13.4917,12.2188,19.7959,1.6123,6.5894,3.457,13.2139,5.4834,19.6895,2.8105,8.978,6.0508,17.939,9.6338,26.6338.3525.855.709,1.7119,1.0664,2.5703,4.0166,9.6479,8.1699,19.6245,7.8691,30.6128-.4814,17.5645-10.4053,27.6382-27.2246,27.6382h-.0029Z"/>
        <path class="cls-4" d="M68.0808,500.0742c1.9198,0,3.797.3251,5.5497,1.1579,5.932,2.8187,7.9468,10.0894,9.5078,16.4688,1.6447,6.721,3.5023,13.39,5.5686,19.9936,2.8638,9.1521,6.1283,18.1788,9.7821,27.0451,4.135,10.0339,8.8577,20.2933,8.5601,31.1417-.47,17.1333-10.3062,22.7749-22.2283,22.7749-10.6127,0-22.8789-4.4729-31.6556-9.2916-12.193-6.6944-23.8636-14.9043-32.1898-26.0469-8.3263-11.1427-12.989-25.5838-10.1259-39.1959,4.6241-21.9845,26.7401-35.7656,48.2158-42.3605,2.9028-.8914,6.0115-1.6871,9.0155-1.6871M68.0808,490.0742c-4.4258,0-8.5249,1.0756-11.951,2.1277-30.2865,9.3005-50.3573,27.4744-55.0662,49.8615-3.2664,15.5289,1.0715,32.7472,11.9011,47.2401,8.1238,10.8717,19.3685,20.0316,35.3877,28.8268,12.0046,6.591,25.6376,10.5259,36.4684,10.5259,19.6196,0,31.6663-12.1498,32.2245-32.5007.3308-12.059-4.2286-23.0108-8.2515-32.6734-.355-.8527-.7092-1.7035-1.0592-2.5527-3.5266-8.5578-6.7175-17.3799-9.484-26.2213-1.9957-6.378-3.8121-12.8997-5.3989-19.3842-1.6602-6.7843-4.4387-18.1392-14.9294-23.124-2.9684-1.4105-6.2795-2.1257-9.8414-2.1257h0Z"/>
      </g>
      <g>
        <path class="cls-2" d="M373.7369,499.0454c-13.5664.0005-28.1172-7.2935-33.7432-10.4297-6.9014-3.8296-9.5957-6.7139-11.9727-9.2588-2.6328-2.8193-4.9072-5.2539-11.0234-7.3218-3.7373-1.2617-7.3779-1.875-11.1309-1.875-4.874,0-9.0996,1.0244-13.1855,2.0151-3.6611.8877-7.1191,1.7261-10.7314,1.7266-2.9805,0-5.8418-.5874-8.7471-1.7964-12.8691-5.3501-18.2734-19.2461-18.8467-20.813-1.7217-4.729-1.4775-7.3691-1.1396-11.0234.3291-3.5605.7383-7.9917-.7949-15.1797-1.1572-5.4438-2.5098-8.0669-4.75-12.4131-1.9443-3.7729-4.6084-8.9404-8.708-18.7925-4.4658-10.7266-6.4609-15.6782-6.9551-20.6504-1.0605-10.6904,1.9727-19.7129,3.874-24.1396,2.0693-4.8384,3.877-6.9316,5.79-9.1475,2.0732-2.4014,4.2168-4.8848,6.4902-10.3101,2.5508-6.084,2.8457-10.1758,3.1309-14.1333.2373-3.2935.4834-6.6987,2.0732-11.6855.0391-.125.0811-.2432.123-.355l.0449-.125c2.71-8.2485,6.8711-13.6328,12.6309-21.0854,5.8945-7.6216,10.0693-11.0757,14.1064-14.416,4.2832-3.5435,8.3291-6.8906,13.6211-14.3662,4.1807-5.9043,5.8652-9.752,7.2188-12.8433,1.4277-3.2607,2.29-5.229,5.5967-8.0562,8.8857-7.5967,20.2705-8.5708,29.1953-8.5708l1.6035.0059c8.3877.0513,12.5303,1.6118,17.3281,3.4189,4.5879,1.728,9.7881,3.6865,19.2148,4.7461,3.2588.3672,6.2617.5459,9.1787.5459,5.7891,0,9.9238-.709,13.5723-1.3345,2.6631-.4565,4.9629-.8511,7.3613-.8511,2.5947,0,5.1807.4761,8.1377,1.498,6.0449,2.0869,8.3301,4.6255,12.1172,8.832,2.8594,3.1768,6.418,7.1304,12.6709,12.1479,1.3467,1.0854,2.6885,2.1201,4.0986,3.1602,9,6.6318,14.8535,9.2158,20.0176,11.4956,5.4443,2.4038,10.1465,4.48,17.6826,10.8896,8.0459,6.8457,18.0605,15.3657,21.5635,29.1899,2.3516,9.2808,1.0693,18.4268-.0615,26.4966-.6777,4.8608-1.5166,8.1724-2.3271,11.375-1.0996,4.3413-2.1377,8.4414-2.7246,15.6689-.4248,5.2109-.2607,7.8438-.1025,10.3896.1387,2.2227.2812,4.5215.0166,8.833-.5479,8.9316-1.2295,20.0386-6.8174,30.521-3.3223,6.2261-6.4336,8.6475-9.7285,11.2114-3.6816,2.8662-7.4893,5.8296-10.8359,13.5488-1.7852,4.1157-2.3955,7.2065-2.9863,10.1963-.6982,3.5396-1.4219,7.1997-4.1621,13.2979-2.9639,6.5903-4.749,10.5605-8.6221,14.499-6.6484,6.7437-16.6816,10.5815-29.8174,11.4038-1.1299.0723-2.2129.1074-3.3145.1074-1.8057,0-3.3223-.0942-4.7891-.1851-1.2812-.0796-2.4912-.1548-3.7393-.1548-2.9102,0-5.4062.4209-8.3457,1.4077-5.1348,1.7183-7.7207,3.9097-10.2207,6.0293-1.4199,1.2031-2.7617,2.3398-4.6211,3.4087-3.75,2.1538-8.2969,3.2466-13.5146,3.2466Z"/>
        <path class="cls-5" d="M335.9012,226.9122c.5653,0,1.0978.0031,1.6101.0061,7.8448.0478,11.575,1.4529,16.2974,3.2318,4.7473,1.7882,10.1278,3.815,19.9138,4.9146,3.3694.3798,6.479.5645,9.5066.5645,6.0374,0,10.4883-.7632,14.0646-1.3763,2.6365-.4521,4.7189-.8091,6.8698-.8091,2.2916,0,4.5077.4127,7.1874,1.3387,5.3331,1.8409,7.1941,3.9082,10.9017,8.0269,2.9301,3.2549,6.5767,7.3057,13.0018,12.4612,1.3574,1.0951,2.7717,2.1859,4.2062,3.2439,9.2577,6.8212,15.2664,9.4741,20.5677,11.8147,5.4523,2.4072,9.7588,4.3085,16.9706,10.4432,7.7318,6.5779,17.3545,14.7645,20.6284,27.6876,2.2106,8.7239,1.0247,17.1898-.1228,25.3809-.6552,4.7006-1.4377,7.7899-2.2661,11.0606-1.0806,4.2661-2.1979,8.6774-2.8038,16.1452-.4419,5.4206-.2716,8.1594-.1068,10.808.1389,2.233.27,4.3421.0156,8.4864-.5304,8.6414-1.1904,19.396-6.4779,29.3147-3.0314,5.6806-5.7733,7.8147-8.9482,10.2857-3.786,2.9467-8.0773,6.2866-11.719,14.6873-1.9103,4.4038-2.5516,7.651-3.1718,10.7912-.6981,3.5349-1.3574,6.8737-3.9661,12.6791-2.8253,6.2819-4.5308,10.0737-8.0322,13.6347-6.1329,6.2206-15.5294,9.7685-27.9353,10.5454-1.0642.0679-2.0862.1009-3.1245.1009-1.7156,0-3.1866-.0912-4.6093-.1795-1.3275-.0823-2.5813-.16-3.9194-.1601-3.2009,0-6.0608.4807-9.2682,1.5574-5.6678,1.897-8.5973,4.3796-11.1819,6.5699-1.3733,1.1637-2.5593,2.1687-4.1884,3.105-3.3033,1.8977-7.3625,2.8599-12.0647,2.8599-12.8877,0-26.8982-7.0357-32.3341-10.0664-6.4956-3.6042-9.0231-6.3103-11.2531-8.6979-2.6586-2.8465-5.4076-5.7899-12.2205-8.0935-4.0405-1.3643-7.9858-2.0275-12.0615-2.0278-5.2227-.0004-9.8184,1.1142-13.8729,2.0975-3.4872.8457-6.7809,1.6445-10.0446,1.6445-2.6257,0-5.0496-.4999-7.6304-1.574-11.7217-4.8727-16.6995-17.6804-17.2245-19.1138-1.4999-4.1205-1.3035-6.2449-.9783-9.7646.347-3.7573.7792-8.4334-.8461-16.0516-1.2391-5.8275-2.6587-8.5814-5.0103-13.144-1.9218-3.7284-4.5536-8.8347-8.6083-18.5771-4.3503-10.449-6.2927-15.2606-6.7449-19.8177-.9965-10.0413,1.8602-18.534,3.6559-22.7125,1.8889-4.4178,3.4761-6.2561,5.3137-8.3847,2.1184-2.4538,4.5195-5.2349,6.9716-11.0863,2.7355-6.5244,3.0479-10.8582,3.3501-15.0494.2357-3.2676.4581-6.354,1.9547-11.0475.0197-.0629.0443-.1294.0677-.1922l.0424-.1126.0375-.1143c2.5551-7.7746,6.381-12.7251,12.1973-20.2509,5.6676-7.3278,9.7159-10.6769,13.631-13.9158,4.241-3.5085,8.6262-7.1364,14.1421-14.9275,4.3508-6.1461,6.1758-10.3138,7.5084-13.3569,1.3883-3.1707,2.0221-4.6178,4.8208-7.011,8.1622-6.9776,18.8776-7.8724,27.3008-7.8724M335.9012,221.0868c-7.5969,0-20.8774.5428-31.0861,9.2698-7.1022,6.0728-4.6422,9.2019-13.2986,21.43-10.0562,14.2043-15.3983,12.8353-27.6263,28.6453-5.9185,7.658-10.2517,13.2574-13.1235,21.9962-.0618.1646-.1235.3396-.1749.5043-3.6334,11.3943-.6793,14.9968-5.1156,25.578-4.2098,10.046-7.8021,8.9857-12.2693,19.4332-1.6057,3.7363-5.2905,13.5455-4.0966,25.578.5454,5.4965,2.7585,10.9003,7.1639,21.4815,8.9446,21.4917,11.2914,21.255,13.2985,30.6936,2.9644,13.8955-1.7395,16.1909,2.0483,26.5971.5353,1.4615,6.2993,16.6128,20.4624,22.5004,3.5627,1.4828,6.7958,2.0202,9.8665,2.0202,8.1007,0,15.0623-3.7425,23.917-3.7419,3.1198.0002,6.4764.465,10.1985,1.7217,10.7458,3.6334,7.7815,8.1932,22.5107,16.3659,3.0201,1.6838,19.4222,10.7979,35.1604,10.7979,5.2341,0,10.3965-1.0087,14.9664-3.6341,5.4449-3.1291,6.8448-6.7008,14.3175-9.202,2.9567-.9925,5.1956-1.2562,7.4191-1.2561,2.5225,0,5.0244.3396,8.5288.3396,1.0632,0,2.2192-.0313,3.4955-.1127,4.7657-.2985,20.9154-1.3175,31.7126-12.2692,4.2407-4.3128,6.2068-8.6872,9.202-15.3468,5.2494-11.6825,3.4893-15.0586,7.1639-23.5298,5.939-13.7,13.0309-10.6223,20.4624-24.5487,5.8876-11.0444,6.5978-22.6549,7.1537-31.7127.5763-9.3871-.7-9.5725.0822-19.1655,1.0088-12.434,3.438-15.4291,5.0334-26.8749,1.1938-8.5226,2.4805-17.8274,0-27.6161-3.7262-14.7086-14.225-23.6532-22.5005-30.6936-15.1616-12.897-19.7111-9.1402-37.8577-22.5108-1.4513-1.0704-2.7791-2.0997-4.0039-3.0879-14.5852-11.7031-14.0911-17.4671-25.6604-21.4608-3.5618-1.2309-6.4229-1.6577-9.0887-1.6576-6.0322,0-11.0608,2.1854-20.9338,2.1854-2.584,0-5.5017-.1499-8.854-.5278-19.145-2.1513-19.9478-8.08-36.8282-8.183-.5126-.0029-1.062-.0061-1.6456-.0061h0Z"/>
      </g>
      <circle class="cls-1" cx="168.9222" cy="395.0226" r="14.9723"/>
      <circle class="cls-1" cx="200.0684" cy="76.0089" r="21.1863"/>
      <circle class="cls-1" cx="389.7424" cy="525.617" r="21.1863"/>
      <circle class="cls-1" cx="200.0684" cy="254.7186" r="7.4862"/>
      <circle class="cls-1" cx="41.1069" cy="551.5494" r="7.4862"/>
      <circle class="cls-1" cx="573.9363" cy="525.0764" r="7.4862"/>
      <circle class="cls-1" cx="581.4225" cy="62.301" r="17.0518"/>
      <circle class="cls-1" cx="468.6008" cy="569.9339" r="10.5687"/>
      <circle class="cls-1" cx="398.1106" cy="757.5125" r="10.5687"/>
      <circle class="cls-1" cx="581.4225" cy="685.0809" r="10.5687"/>
      <circle class="cls-1" cx="501.7171" cy="525.0764" r="12.9662"/>
      <circle class="cls-1" cx="697.2288" cy="208.4958" r="12.9662"/>
      <circle class="cls-1" cx="547.1595" cy="311.7217" r="12.9662"/>
      <circle class="cls-1" cx="256.7973" cy="207.3473" r="9.9898"/>
      <circle class="cls-1" cx="618.7022" cy="350.3396" r="8.5733"/>
      <circle class="cls-1" cx="200.0684" cy="538.5832" r="12.9662"/>
      <circle class="cls-1" cx="445.0659" cy="174.3704" r="12.9662"/>
      <circle class="cls-1" cx="513.519" cy="193.8197" r="6.4831"/>
      <circle class="cls-1" cx="351.6551" cy="669.7164" r="6.4831"/>
      <circle class="cls-1" cx="351.6551" cy="170.5162" r="12.9662"/>
      <circle class="cls-1" cx="84.5212" cy="358.9129" r="27.11"/>
      <circle class="cls-1" cx="597.3997" cy="430.6034" r="23.0273"/>
      <circle class="cls-1" cx="200.0684" cy="459.3832" r="23.0273"/>
      <circle class="cls-1" cx="356.1904" cy="609.7051" r="25.9325"/>
      <circle class="cls-1" cx="75.363" cy="187.3366" r="25.9325"/>
    </g>
  </g>
</svg>