<?xml version="1.0" encoding="UTF-8"?>
<svg id="Capa_2" xmlns="http://www.w3.org/2000/svg" viewBox="0 0 795.1437 812.8646">
  <defs>
    <style>
      .cls-1 {
        fill: #70569b;
      }

      .cls-2 {
        fill: #604593;
      }

      .cls-3 {
        fill: #47327c;
      }

      .cls-4 {
        fill: #a486ce;
      }

      .cls-5 {
        fill: #8566b2;
      }
    </style>
  </defs>
  <g id="Capa_1-2" data-name="Capa_1">
    <g>
      <g>
        <path class="cls-4" d="M574.628,736.7571c-10.9961,0-21.1201-2.1553-28.5078-6.0698-15.4609-8.1963-20.0605-27.3115-24.1191-44.1763-1.6094-6.6875-3.1299-13.0044-5.1914-18.4941-5.2969-14.1108-15.6846-24.4883-26.5459-33.4746-10.0938,6.459-16.5703,9.251-21.3232,9.2515-.1494,0-.2959-.0024-.4414-.0078-.2002-.0073-.4004-.0107-.5957-.0107-4.6758,0-7.3838,1.9707-13.5967,6.8271-4.459,3.4858-10.0088,7.8242-18.4404,12.4751-7.126,3.9326-23.8164,13.1431-45.0088,14.4028-.9746.0581-1.9805.0874-2.9902.0874-9.9512,0-21.6543-2.7974-42.8984-7.875-10.9414-2.6152-18.0195-4.6313-22.7031-5.9653-4.8779-1.3892-7.3262-2.0864-9.1113-2.0864-.7344,0-1.5098.1143-2.5947.3823-6.4717,1.6099-9.5771,5.2109-14.2773,10.6621-4.8633,5.6411-10.917,12.6616-22.7168,19.4565-6.9463,4.0034-17.4453,10.0547-26.7432,10.0557-3.498,0-6.5752-.8589-9.1445-2.5542-9.7539-6.4282-9.2354-21.7686-8.376-47.1831.1523-4.4702.3975-7.811.5947-10.4956.4072-5.5518.5938-8.0854-.4727-12.791-2.4287-10.7622-6.915-18.5249-13.335-23.0752-4.2354-2.9976-7.2939-3.1484-13.3867-3.4487-4.2559-.21-9.5518-.4707-16.8154-1.8364-12.2686-2.3159-28.9883-5.4717-42.3457-18.1357-.8711-.8296-21.0508-20.3862-18.3818-45.5259.8945-8.4204,3.9512-13.0918,6.4082-16.8452,2.2695-3.4683,4.0625-6.2075,4.2871-11.9238.1416-3.5981-.377-4.9575-5.1406-16.2373-1.9854-4.7012-4.7051-11.1387-8.2803-19.9941-7.4346-18.4092-9.0605-23.4082-7.959-30.2466,1.0713-6.6719,3.8311-10.4077,6.2656-13.7041,2.0898-2.8281,3.7393-5.062,4.4609-9.3086,1.4229-8.3691-1.6338-20.2373-8.2939-23.8877-1.1689-.6406-2.2969-.9395-3.5479-.9395-2.8066,0-6.2314,1.5098-10.1973,3.2578-6.0557,2.6694-13.5928,5.9922-23.4551,5.9922-.6172,0-1.2422-.0127-1.8779-.0396-18.0205-.7637-40.7744-12.9854-47.4473-34.1309-1.168-3.7061-1.7607-7.5596-1.7607-11.4551,0-.5391.0107-1.0786.0332-1.6177.0225-.5142.0547-1.0088.0957-1.5127,0-.0088.001-.0181.002-.0273h-.001c.0332-.5127.0859-1.0146.1504-1.5249.0049-.0469.0088-.0928.0146-.1372.0498-.4233.1084-.8467.1758-1.2627.0205-.1948.0518-.3872.0918-.5771.0635-.3975.1309-.7944.2148-1.1919.0283-.1504.0693-.3535.1182-.5742.0186-.1001.041-.2095.0693-.3276.0664-.3281.1416-.6567.2256-.9849.1719-.7495.3857-1.5439.6709-2.4927.0762-.2588.1621-.5396.2588-.8325.4863-1.54,1.0869-3.1494,1.7705-4.731.1152-.2896.2412-.5708.3789-.8608,2.2559-5.0352,5.415-10.1318,9.3916-15.1499.2979-.3809.6182-.7783.9385-1.165.5547-.6787,1.1299-1.3604,1.7168-2.0308.0127-.0156.9834-1.1309.9834-1.1309l.001.001c.0762-.0894.1553-.1758.2363-.2588.8516-.9468,1.71-1.8662,2.6191-2.8062,6.0928-6.293,11.5068-10.3491,12.5303-11.0981,7.0781-5.1855,18.917-13.8574,32.4775-13.8574,2.3057,0,4.5967.2539,6.8096.7549,9.2109,2.0845,14.8057,7.7676,19.7422,12.7812,5.2158,5.2983,8.6992,8.5454,14.3555,8.5454,8.0938-.0156,13.9609-6.6646,14.6035-7.4224,7.8936-9.3027,3.6934-22.6694,3.6494-22.8032-1.2783-3.9585-2.9639-5.582-5.2969-7.8291-2.5508-2.4575-5.7246-5.5161-8.332-11.6768-4.3848-10.3564-5.4307-25.3701,2.1162-35.564,3.6289-4.9014,7.6104-6.5103,11.8242-8.2139,2.4287-.9819,4.9404-1.9971,8.0176-3.8276,8.3701-4.9834,15.3994-12.9419,20.8945-23.6572,3.4326-10.9307,3.4512-20.4429.0547-28.2769-2.7295-6.2915-6.7432-9.2915-13.3926-14.2612-5.1055-3.8159-11.459-8.5654-19.2559-16.3623-13.4531-13.4434-21.5605-21.5449-24.3359-34.6714-3.4893-16.5142,3.0635-34.4507,19.4785-53.312,21.3242-24.4526,43.2598-29.5791,57.9102-29.5791,2.0205,0,4.0742.0972,6.1035.2896,26.9961,2.5459,43.4609,20.8335,47.8643,26.3779,14.9854,18.8198,16.3457,41.1016,16.4053,47.4824.0576,6.0493-.6562,10.6797-1.2295,14.4004-.8369,5.4297-1.2979,8.4204.7285,12.5566,3.626,7.4019,12.6777,13.188,22.0127,14.0718.7129.0679,1.3984.1025,2.0391.1025,4.1494,0,7.1514-1.4668,12.5996-4.1294,5.0879-2.4863,12.0566-5.8916,23.1611-9.5356,11.9141-3.9072,18.9688-6.1182,25.4238-6.1182,3.1172,0,5.9521.54,8.667,1.6509,6.1924,2.5273,8.9854,6.4116,11.6865,10.1675,2.3779,3.3086,4.8379,6.7295,10.4385,10.0801,2.6182,1.5742,9.5488,5.7412,17.7129,5.7412,1.1719,0,2.3389-.0884,3.4678-.2622,3.8359-.5928,5.7568-1.8994,8.665-3.8774,3.0752-2.0918,6.9033-4.6953,13.6572-6.6953,2.5537-.7554,8.499-2.5142,15.5576-2.5142,2.918,0,5.7461.3027,8.4062.8999,9.8789,2.2144,14.6582,7.8657,18.874,12.8516,3.3926,4.0127,6.5977,7.8027,12.6387,10.4048,4.0957,1.7661,8.6484,2.6606,13.5322,2.6606,7.0918,0,14.2861-1.9316,20.2588-5.4395,13.1572-7.7207,17.5996-21.3765,19.0762-28.8296,1.8584-9.3828-.1602-15.0024-2.7148-22.1172-2.1523-5.9937-4.5918-12.7871-5.0342-22.6484-1.0381-23.3052,8.5234-53.4248,31.9717-64.4858,5.9717-2.8184,12.4805-4.2476,19.3447-4.2476,24.4355,0,46.4141,18.2144,48.8398,20.2915,22.5273,19.1445,25.8691,37.0601,24.7041,48.7158-1.5684,15.728-11.751,26.481-16.6445,31.6484-7.5459,7.9561-14.0625,11.0908-20.9629,14.4097-4.9902,2.3999-10.1504,4.8818-16.4775,9.5557-7.0654,5.2148-9.3184,8.9829-11.9268,13.3457-2.7061,4.5269-5.7734,9.6577-14.1328,15.769-4.4697,3.27-8.3652,5.4507-11.4951,7.2031-5.4072,3.0273-7.3164,4.2144-8.0928,6.9751-1.749,6.2104,3.9131,14.3784,6.9561,18.7671,3.6777,5.3174,6.8164,7.6265,9.5859,9.6636,1.1865.8726,2.3076,1.6973,3.3711,2.6763,2.3252,2.1616,3.7832,4.5649,4.6074,7.5806,2.0322,7.4253-1.0918,12.9844-3.8467,17.8887-2.4277,4.3208-4.5244,8.0518-3.6982,13.29.374,2.374,1.3135,4.7544,2.792,7.0776,0,0,.1816.2803.2256.3413.0303.0415.1084.1504.1377.1934,2.4053,3.564,5.5088,6.1602,7.3643,7.7114.3311.2837.6113.5078.8926.7241.6602.5117,1.2275.9189,1.7451,1.2534.0303.02.0605.04.0908.0605.2471.167.502.3247.748.4761.0283.0176.3213.1943.4355.2656l.3008.1689c.0918.0498.1816.1021.2695.1577l.0654.0269c.1113.0557.2207.1157.3271.1792,0,0,.2861.145.3506.1812,0,0,.2031.0898.2383.1079,1.1191.5522,2.2725,1.0103,3.5244,1.3999,0,0,.6396.2021.6748.2129.0547.0137.875.2422.9492.2642.1748.0513.3574.1025.5332.1465.0459.0117.0918.0239.1377.0366.5107.1436,1.0215.2681,1.5322.3936l.1504.0371c.2666.0664.5371.1348.8027.2085,1.4014.3452,2.5605.666,3.6406,1.0078.3291.1016.6885.2246,1.0342.3486.2832.0967.625.2153.9668.3452.6592.2456,1.2793.5024,1.8662.7729.8965.4043,1.7275.8267,2.5039,1.2734.2939.1567.5977.3325.8877.5103.0215.0127.1104.0684.1104.0684.3398.2109.6895.4336,1.0303.6665.3701.2441.751.5098,1.1318.7861.3408.2466.7002.522,1.0488.7979.3408.2603.75.5962,1.1592.9448,5.0879,4.3291,6.6846,7.9673,8.0918,11.1772,1.1895,2.7109,2.3125,5.2715,6.0127,9.0259,5.2139,5.29,9.3408,6.6826,13.71,8.1567,4.4619,1.5059,9.5186,3.2124,14.3271,9.0117,2.3711,2.8613,4.6094,5.563,8.6006,40.9307,2.7021,23.9155,2.3047,27.6763.5791,31.6587-3.3887,7.7837-8.9043,11.4502-13.335,14.396-4.2314,2.813-7.2881,4.8452-8.9102,9.708-2.1914,6.5532-.6172,15.2373,3.7412,20.6528,2.9756,3.6934,6.3047,4.624,10.5186,5.8018,4.5488,1.272,10.2109,2.8545,15.3115,8.4131,7.1309,7.7661,12.0312,22.4634,7.0615,34.4014-3.5684,8.5884-10.541,11.5415-17.9219,14.668-7.2148,3.0562-15.3936,6.52-24.4404,15.9775-1.459,1.5229-2.4121,2.6489-3.7314,4.208-1.7803,2.1045-3.9971,4.7236-8.4854,9.5356-4.5361,4.8696-11.3955,12.2329-18.7246,18.7148-9.9248,8.7905-16.5586,12.2905-21.4033,14.8462-4.3994,2.3213-6.2246,3.2837-8.1631,6.7896l-.0664.127c.0059-.0122.0518-.1152.0518-.1152-.0254.0576-.0508.1147-.0781.1714-.9043,1.8706-.7881,5.3228-.665,8.9771.1475,4.4204.3154,9.4307-1.1289,14.3716-2.8115,9.5801-10.8145,15.644-24.3965,18.4482,1.6572,3.0229,4.4932,6.8848,7.4932,8.269,5.8447,2.7012,12.4863,4.6074,19.5176,6.6255,8.1006,2.3252,16.4766,4.729,24.0146,8.543,1.7139.8672,3.5205,1.7241,5.2695,2.5532,6.9004,3.2715,14.0371,6.6548,19.7383,12.4531,14.1855,14.4282,18.5596,45.8105,8.999,64.5752-7.8721,15.4561-19.4189,20.4224-34.0371,26.7095l-.1016.0439c-7.5098,3.2275-17.1758,5.0044-27.2188,5.0044Z"/>
        <path class="cls-1" d="M583.9425,9.9998c22.6189,0,43.2559,17.0928,45.5883,19.0896,4.9301,4.1899,25.2699,21.52,22.98,44.4199-1.4,14.05-10.6801,23.8301-15.3199,28.73-12.1201,12.78-21.22,11.8801-36.76,23.3601-15.65,11.55-10.8701,18.01-26.04,29.0999-11.77,8.6101-19.3,9.22-21.45,16.8601-2.3801,8.45,4.02,17.72,7.6599,22.97,5.72,8.27,10.54,10.28,13.6801,13.1699,1.4301,1.3301,2.5199,2.8401,3.17,5.22,3.0299,11.0701-9.8201,16.9502-7.6602,30.6401.54,3.4299,1.8901,6.4399,3.53,9.01.1401.21.27.4199.42.6199,2.78,4.1201,6.28,7.0601,8.2999,8.75.3501.3.7001.5801,1.05.8501.71.55,1.4,1.05,2.0801,1.49.3099.21.6299.4099.9399.6001l.01.01c.1699.0999.3401.2.51.3098.01,0,.03.01.04.02.1399.0801.28.1602.4099.23.16.1001.3201.1802.48.26.1501.0901.3101.1702.4701.25.16.0901.3199.1602.47.23,1.4601.7202,2.87,1.26,4.25,1.6902l.5699.1799c.1301.04.25.0801.3801.1099.21.0601.4099.1201.6199.1802.04.01.0901.02.1301.03.24.0698.49.1399.73.2.5699.1599,1.1399.3,1.71.4399.28.0701.5701.1401.85.22,1.14.28,2.27.5801,3.41.9399.29.0901.58.1902.86.29.2899.1001.58.2.87.3101.51.1899,1.03.3999,1.55.6399.71.3201,1.4399.6802,2.1799,1.1101.23.1201.47.26.7.3999.03.02.05.03.0801.05.29.1802.59.3701.88.5701.3199.21.65.4399.98.6799.2899.21.59.4399.88.6702.3401.26.6799.5398,1.02.8298,8.3101,7.0701,4.96,10.95,13.79,19.9102,11.73,11.8999,19.6899,7.1299,27.75,16.8499,1.6899,2.04,3.74,5.1501,7.48,38.3,2.7,23.8999,2.1,26.48.96,29.1101-5.6899,13.0698-18.14,11.74-22.4,24.51-2.7799,8.3098-.7799,18.7,4.59,25.3699,7.79,9.6699,17.5801,5.24,26.04,14.46,6.4,6.97,10.0801,19.6101,6.13,29.1001-5.66,13.62-22.14,9.0199-41.36,29.11-3.61,3.77-4.49,5.4601-12.26,13.7899-4.49,4.8201-11.28,12.1001-18.38,18.3801-18.98,16.8099-25.3199,13.34-30.64,22.98-.0699.1399-.1499.27-.21.4099-2.8201,5.8401.3999,15.6001-2.0901,24.1201-2.1099,7.1899-8.2899,13.5-25.6599,15.7999-2.02.26,3.79,13.3199,11.46,16.86,13.1801,6.0901,29.95,8.3,43.3701,15.0901,8.24,4.1699,17.23,7.47,23.7,14.0499,12.8999,13.12,16.46,42.41,8.11,58.8-7.0699,13.88-17.36,18.2799-31.66,24.4301-6.9839,3.0013-16.1205,4.5978-25.2427,4.5978-9.5692,0-19.1227-1.7556-26.1672-5.4879-18.9202-10.03-19.4401-39.96-26.9701-60.01-5.98-15.9299-17.7699-27.3499-30.9-37.8999-8.9731,5.9592-16.9351,10.4346-21.6511,10.4346-.0876,0-.1735-.0015-.2588-.0046-.2627-.0095-.5222-.0142-.777-.0142-11.2754-.0006-15.0222,9.2062-34.453,19.9242-7.3201,4.0399-23.2101,12.62-42.8901,13.7899-.882.0525-1.778.0786-2.6921.0786-9.3589,0-20.7754-2.728-41.7378-7.7385-23.0342-5.5059-28.2858-8.1884-32.9758-8.1884-1.2045-.0001-2.3719.1769-3.7942.5283-15.72,3.91-15.7,17.63-38.2901,30.64-6.3138,3.6388-16.3019,9.3881-24.2482,9.3881-2.3611,0-4.5408-.5072-6.3917-1.728-7.42-4.89-6.92-19.52-6.1301-42.89.4601-13.5,1.8101-16.52,0-24.51-.8999-3.99-4.0899-18.09-15.3199-26.05-8.9301-6.3199-14.5099-2.7999-32.1701-6.1199-11.9199-2.25-27.52-5.1801-39.8299-16.8501-.85-.8101-19.25-18.76-16.85-41.37,1.56-14.6801,10.1699-15.13,10.72-29.1.27-6.86-1.73-8.4501-13.7802-38.3-7.52-18.6199-8.5-22.3601-7.6599-27.5801,1.75-10.8999,8.87-12.0798,10.72-22.97,1.7401-10.24-1.99-24.27-10.8201-29.1099-2.0134-1.1025-3.9765-1.5542-5.9515-1.5544-8.9405-.001-18.1517,9.2498-33.6519,9.2498-.5479,0-1.1028-.0115-1.6666-.0354-17.24-.73-37.2699-12.8301-42.8899-30.6399-1.0601-3.3601-1.53-6.6902-1.53-9.9502,0-.47.0099-.9399.03-1.4099s.05-.9299.09-1.3999q-.01-.01,0-.02c.03-.46.0798-.9102.14-1.3701v-.03c.05-.4199.11-.8398.1799-1.25,0-.0698.0099-.1399.03-.2.0601-.3799.1201-.76.2-1.1399.04-.21.0801-.4102.1301-.6201.01-.0601.02-.1299.04-.1899.06-.3101.1299-.6201.21-.9299.1699-.75.3799-1.5.6-2.23.0699-.24.14-.4702.22-.7102.47-1.49,1.02-2.95,1.64-4.3799.0901-.23.1899-.45.3-.6799,2.31-5.1702,5.45-9.9502,8.77-14.1401.29-.3699.58-.73.8699-1.0798.5402-.6602,1.0801-1.3,1.6301-1.9302q.01-.01.0201-.02c.3198-.3799.6599-.76.9799-1.1299.0201-.03.05-.05.08-.0801.87-.97,1.73-1.8899,2.59-2.78,5.8-5.99,10.9199-9.8298,11.89-10.54,6.782-4.9678,17.5957-12.8916,29.5242-12.8916,1.8784,0,3.7835.1963,5.7059.6316,16.3359,3.697,19.8544,21.4502,35.201,21.4502h.039c10.38-.02,17.4901-8.1401,18.38-9.1902,9.58-11.2898,4.88-26.6899,4.59-27.5798-3.25-10.0601-9.26-9.23-13.78-19.9102-3.8401-9.0698-4.77-22.1299,1.53-30.6399,4.54-6.1301,9.54-5.46,18.3799-10.72,6.8201-4.0601,15.5801-11.45,22.98-26.05,2.7101-8.46,5-20.6399,0-32.1699-5.6099-12.9302-15.6999-14.1702-33.6999-32.1702-12.91-12.8999-20.51-20.49-22.98-32.1699-4.75-22.48,13.15-43.01,18.38-49.02,4.5588-5.2275,24.2753-27.8372,54.1176-27.8372,1.8409,0,3.7155.0859,5.6324.2671,26.4,2.49,41.95,21.4001,44.42,24.51,14.77,18.55,15.2901,41.1802,15.3199,44.4202.14,14.5-4.4401,20.03.01,29.1099,4.6,9.3901,15.5799,15.8601,26.0299,16.8501.881.0837,1.7136.1243,2.5094.1243,9.9435,0,14.2102-6.3313,37.3207-13.9143,10.916-3.5801,18.0581-5.8689,23.8647-5.8689,2.4331,0,4.6315.4019,6.7753,1.2788,9.85,4.02,8.63,12.24,21.4501,19.9102,2.8907,1.738,10.77,6.4507,20.2803,6.4507,1.379,0,2.7924-.0991,4.2297-.3208,9.71-1.5,10.72-7.0898,22.98-10.72,2.3959-.7085,7.7916-2.3083,14.1388-2.3083,2.3419,0,4.8126.2178,7.3112.7783,15.48,3.47,15.3999,16.4102,30.63,22.97,4.8516,2.0918,10.1656,3.0686,15.5094,3.0686,8.0167,0,16.1001-2.1982,22.7905-6.1284,17.0601-10.01,20.77-28.74,21.4501-32.1702,3.7899-19.1399-6.7301-25.21-7.66-45.96-.84-18.8699,6.3-48.98,29.11-59.74,5.6888-2.6843,11.5134-3.7693,17.2118-3.7695M583.943,0h-.0005c-7.6074,0-14.8341,1.5898-21.4792,4.7256-12.4963,5.8948-22.3276,17.0059-28.4299,32.1311-4.6099,11.426-6.9435,24.9475-6.4027,37.0974.476,10.6191,3.1641,18.1038,5.3239,24.1177,2.4723,6.8835,4.1056,11.4312,2.5167,19.4551-1.3143,6.6301-5.2318,18.7581-16.7013,25.4875-5.2196,3.0664-11.5146,4.7534-17.7297,4.7534-4.1399,0-8.1339-.7786-11.5502-2.2515-4.9651-2.1387-7.5415-5.1853-10.8031-9.0427-4.4906-5.3105-10.0795-11.9202-21.5989-14.5022-3.0171-.677-6.2135-1.0205-9.4984-1.0205-7.7816,0-14.2134,1.9023-16.9598,2.7146-7.5199,2.2266-11.8823,5.1938-15.0676,7.3604-2.6752,1.8196-3.8961,2.6501-6.6179,3.0706-.8748.135-1.7852.2034-2.7032.2034-6.7764,0-12.8435-3.6477-15.1276-5.0208-4.7296-2.8298-6.6919-5.5588-8.964-8.719-2.8214-3.9238-6.3326-8.8074-13.8601-11.8794-3.3198-1.3584-6.7747-2.0203-10.5538-2.0203-7.5676,0-15.7106,2.6707-26.981,6.3669-11.4332,3.7515-18.5804,7.2441-23.7993,9.7944-5.507,2.6912-7.5564,3.6218-10.4052,3.6218-.4824,0-1.0083-.0266-1.563-.0793-7.5746-.7175-15.1415-5.4673-17.996-11.2944-1.2797-2.6111-1.0997-4.2639-.278-9.5947.6013-3.9001,1.3495-8.7539,1.2872-15.2124-.0625-6.7793-1.5092-30.4736-17.4965-50.5525-4.7067-5.926-22.3395-25.5049-51.304-28.2368-2.1821-.2063-4.3939-.311-6.5715-.311-15.6885,0-39.1198,5.4241-61.6541,31.2644-2.7769,3.1909-9.2115,10.585-14.284,20.3235-6.7186,12.8982-8.8528,25.4602-6.3434,37.3364,3.0838,14.5823,12.0728,23.564,25.6792,37.1599,8.0648,8.0647,14.5781,12.9331,19.8116,16.8452,6.8274,5.1033,9.6825,7.3687,11.7993,12.2476,2.8644,6.6057,2.8263,14.8064-.1122,24.3826-5.0295,9.6748-11.3551,16.8271-18.8092,21.2646-2.7468,1.6345-5.0781,2.5769-7.3326,3.4883-4.4533,1.8-9.5006,3.8406-13.9682,9.873-9.3191,12.5879-7.2799,29.679-2.7025,40.4902,3.0054,7.1013,6.7402,10.6997,9.4674,13.3271,2.2028,2.1221,3.1146,3.0007,4.0054,5.7581.0306.0981,3.319,10.9436-2.699,18.0356-.1993.2354-4.8554,5.6489-10.7745,5.6604-3.5366,0-5.7726-1.9343-10.8118-7.0532-5.1501-5.2312-11.5596-11.7419-22.2017-14.1504-2.5733-.5825-5.2361-.8782-7.9132-.8782-15.195,0-27.8596,9.2766-35.4265,14.8193-1.0855.7947-6.7993,5.075-13.1718,11.656-.9221.9543-1.7843,1.8772-2.6345,2.8196-.1753.1799-.3425.3647-.5024.5557l-.2193.2512c-.2051.2341-.4117.4707-.6136.7073-.0167.0188-.0332.0378-.0497.0566-.6073.6958-1.1994,1.3965-1.8088,2.1409-.3398.4104-.6797.8323-1.0198,1.2659-4.2075,5.3147-7.5668,10.7393-9.9866,16.1262-.1727.3655-.32.6997-.4544,1.031-.7321,1.7007-1.3783,3.4307-1.9219,5.146-.1046.3174-.199.625-.2921.9434-.3056,1.0161-.5402,1.887-.7334,2.7236-.0898.3564-.1725.7178-.2469,1.0789-.0325.1401-.0597.2708-.0828.3904-.0487.2202-.093.438-.136.6611-.0925.4502-.1627.8633-.2207,1.2229-.0524.2644-.0947.531-.1268.7991-.0695.4397-.1317.8901-.1857,1.3442-.0078.0652-.0149.1306-.0214.196-.0781.6296-.1318,1.1873-.1675,1.7356-.0454.5593-.0789,1.0996-.1022,1.6458-.0259.6086-.039,1.2261-.039,1.835,0,4.4065.6707,8.7666,1.9934,12.959,7.3581,23.3181,32.2852,36.7874,52.0034,37.6221.695.0295,1.3981.0444,2.0897.0444,10.9154,0,19.3287-3.7087,25.4719-6.417,3.3048-1.4568,6.4263-2.833,8.1789-2.8328.3519,0,.6525.0532,1.1493.3254,4.1239,2.2603,6.9808,11.5059,5.7646,18.6636-.5219,3.0723-1.5986,4.5298-3.5534,7.1758-2.4971,3.3806-5.9172,8.01-7.1814,15.8843-1.2926,8.0308.5287,13.7644,8.261,32.9102,3.5899,8.8928,6.3184,15.3527,8.3105,20.0695,4.7173,11.1688,4.8435,11.7091,4.7498,14.0924-.1707,4.3331-1.275,6.0208-3.4753,9.3827-2.6057,3.9816-6.1743,9.4342-7.1965,19.054-2.8767,27.1008,17.5555,47.4359,19.8948,49.6655,14.4447,13.6938,32.0002,17.0076,44.8187,19.4272l.0555.0105c7.6068,1.4299,13.0921,1.7003,17.4995,1.9176,6.1019.3007,7.8188.465,10.7486,2.5383,5.3777,3.8118,9.1956,10.5717,11.3418,20.0875.9033,3.9875.7566,5.9866.3642,11.3291-.2002,2.728-.4495,6.1232-.6035,10.6403l-.0018.0537c-.412,12.1892-.7374,21.817.0317,29.6542.6708,6.8351,2.4986,16.5389,10.5916,21.8724,3.397,2.241,7.4001,3.3783,11.8945,3.3783,10.6339,0,21.8317-6.4535,29.2416-10.724,12.5327-7.2177,19.1632-14.9075,24.0048-20.5223,4.8143-5.5835,6.9574-7.8964,11.7058-9.0774.8423-.2083,1.1919-.2327,1.3804-.2327,1.0873,0,3.8781.7948,7.7408,1.8949,4.7247,1.3457,11.8649,3.3793,22.9102,6.0194,21.6146,5.1665,33.5211,8.0125,44.0626,8.0125,1.1072,0,2.2126-.0323,3.286-.0962,22.3226-1.3269,40.3439-11.2728,47.1281-15.0171,8.78-4.843,14.7469-9.5073,19.1038-12.9131,5.9789-4.6738,7.6663-5.7664,10.5168-5.7662.1365,0,.2749.0026.415.0076.2081.0074.4125.0112.6213.0112,5.3387,0,11.4844-2.3284,20.89-8.0771,9.2869,7.9962,17.8412,17.1815,22.2991,29.057,1.9537,5.2023,3.4388,11.3735,5.011,17.9072,4.3057,17.8925,9.1857,38.172,26.6372,47.4236,8.0984,4.2904,19.0541,6.6526,30.8512,6.6526,10.7061,0,21.0731-1.9214,29.1912-5.4103l.1028-.0442c14.931-6.4214,27.8258-11.9672,36.5194-29.0345,4.9169-9.6515,6.709-22.9475,4.9164-36.4784-1.8574-14.0205-7.1157-26.0496-14.8064-33.8715-6.3229-6.4304-14.2057-10.1676-21.1606-13.4647-1.799-.8529-3.4979-1.6584-5.1545-2.4967-7.9612-4.0281-16.5686-6.4987-24.8926-8.8878-6.8414-1.9637-13.3035-3.8185-18.7982-6.3575-.3657-.1687-.7659-.4531-1.1813-.8196,11.14-3.7972,17.9767-10.3873,20.7819-19.9468,1.6719-5.7205,1.4818-11.3933,1.3291-15.9514-.0748-2.2358-.1875-5.6021.1804-6.6516.0011-.0021.0022-.004.0033-.0061,1.1183-2.004,1.7876-2.4417,6.0745-4.7034,4.7826-2.5231,12.0101-6.3363,22.3876-15.5273,7.5068-6.6399,14.4636-14.1082,19.0671-19.0502,4.5677-4.8967,6.8279-7.5675,8.6438-9.7135,1.2609-1.4901,2.1719-2.5665,3.5217-3.9762,8.3378-8.7152,16.0111-11.9655,22.7814-14.833,7.61-3.2233,16.2354-6.8766,20.5902-17.3556,5.8263-13.9977.387-30.569-7.9984-39.701-6.0624-6.6069-12.7577-8.4785-17.6464-9.845-4.2684-1.1934-6.0762-1.7712-7.9724-4.125-3.3099-4.1116-4.5549-10.9583-2.8937-15.9238,1.0375-3.1104,2.8766-4.4348,6.9382-7.1348,4.7153-3.135,11.1732-7.4285,15.1471-16.5562,2.2949-5.2947,2.5281-10.1477-.192-34.2244-3.9562-35.0664-6.2694-39.3965-9.7158-43.5569-5.7177-6.895-11.7413-8.9277-16.5814-10.5608-4.1165-1.3892-7.368-2.4866-11.7478-6.9297-3.0522-3.0972-3.8668-4.9541-4.9941-7.5242-1.5442-3.5205-3.4659-7.9019-9.4376-12.9824-.4819-.4111-.9276-.7739-1.3527-1.1011-.4037-.3188-.7937-.615-1.1606-.8809-.4247-.3088-.8547-.6079-1.2679-.8813-.4338-.2959-.8363-.55-1.177-.7617-.0151-.0095-.0304-.0188-.0454-.0283-.0399-.0249-.08-.0498-.1202-.0742-.3728-.2268-.7179-.4255-1.0482-.6038-.8926-.5107-1.8346-.9888-2.8719-1.458-.6877-.3162-1.4053-.6128-2.1912-.9062-.3585-.1353-.7164-.2605-1.0747-.3845-.3922-.1394-.7976-.2771-1.2025-.4031-1.1257-.3555-2.3623-.6987-3.8412-1.0647-.2771-.0757-.5585-.147-.8357-.2158l-.1252-.0312c-.5066-.1243-.9708-.2368-1.4347-.3669-.0914-.0256-.1832-.05-.2753-.073-.1199-.03-.2444-.0662-.3641-.1011-.1124-.0325-.2256-.0635-.3391-.092-.0109-.0029-.022-.0056-.0331-.0083l-.0454-.0132-.3765-.1094c-.0525-.0149-.105-.0295-.1576-.0437l-.5295-.167c-1.0375-.3235-1.9541-.687-2.8359-1.1221-.0668-.033-.1338-.0652-.201-.0967l-.0649-.0298c-.0552-.0288-.1107-.0571-.1665-.085l-.0031-.0017c-.1343-.0759-.2703-.1489-.408-.2188-.0889-.0513-.1785-.1011-.2688-.1497l-.0992-.0566c-.095-.0583-.1897-.1155-.2845-.1721-.0297-.0188-.0594-.0371-.0892-.0554-.1852-.1138-.3773-.2314-.5625-.3567-.0575-.0391-.1155-.0774-.1738-.115-.4004-.2593-.8546-.5862-1.3887-1-.2734-.2109-.4808-.3784-.6672-.5383-.0299-.0254-.0599-.0508-.09-.0759-1.6526-1.3826-4.4186-3.6968-6.4271-6.6736-.063-.0933-.1276-.1855-.1937-.2769l-.0322-.0491-.0856-.1299c-1.1111-1.7532-1.7819-3.4338-2.0498-5.136-.5316-3.3696.7034-5.7683,3.1172-10.0647,2.9055-5.1709,6.8848-12.2529,4.3098-21.6602-1.0781-3.9473-2.9866-7.0952-6.0045-9.9021-.0128-.0122-.0258-.0242-.0388-.0359-1.2654-1.1648-2.5504-2.1101-3.7932-3.0242-2.5736-1.8931-5.2346-3.8503-8.4342-8.4761-2.2097-3.1873-7.3693-10.6289-6.259-14.5706.2203-.783,1.5538-1.6348,5.7235-3.9692,3.2476-1.8184,7.2892-4.0813,12.0052-7.531,9.1769-6.7087,12.6671-12.5469,15.4716-17.238,2.4282-4.0615,4.3461-7.2695,10.6024-11.887,5.9519-4.3967,10.8959-6.7747,15.677-9.0742,7.0038-3.3687,14.2461-6.8518,22.4009-15.4507,5.302-5.5991,16.278-17.1899,18.0146-34.6194,1.2842-12.8423-2.2627-32.4707-26.4547-53.0315-4.1642-3.5654-26.3767-21.4695-52.0637-21.4695h0Z"/>
      </g>
      <g>
        <path class="cls-4" d="M71.4678,253.241c-.9795,0-1.9736-.0337-2.9551-.1006-16.5059-1.1235-31.9717-11.8535-39.4014-27.3359-8.3877-17.479-2.8828-34.0649-.2373-42.0361,2.6602-8.0195,10.7588-32.4253,35.4541-39.9727,4.7197-1.4424,9.7031-2.1738,14.8115-2.1738,13.4131,0,26.0576,5.1851,34.6914,14.2261,16.6318,17.4165,12.0029,41.0664,10.4824,48.8384-3.7803,19.3169-13.9189,30.6162-21.7588,36.6938-4.1846,3.2441-15.3008,11.8608-31.0859,11.8608h-.001Z"/>
        <path class="cls-1" d="M79.1402,146.6218c11.0944,0,22.683,3.8916,31.0745,12.6792,14.8439,15.5444,10.6545,36.95,9.1915,44.4255-.9699,4.9558-4.5279,21.7742-19.9149,33.7021-3.9401,3.0544-13.9477,10.8125-28.0227,10.8125-.8567,0-1.7292-.0288-2.6156-.0891-15.7892-1.0747-29.0748-11.676-35.2338-24.5107-7.5132-15.6567-2.5259-30.686,0-38.2979,2.5461-7.6726,9.9466-29.9741,32.17-36.7659,4.187-1.2795,8.7254-1.9558,13.351-1.9558M79.1402,136.6221c-5.6044,0-11.0798.8047-16.2738,2.3923-27.1642,8.3015-35.8755,34.553-38.7382,43.1792-2.8517,8.5942-8.7854,26.4758.4753,45.7742,8.1956,17.0786,25.298,28.9175,43.5704,30.1611,1.0939.0745,2.2023.1123,3.2947.1123,17.4966,0,29.5946-9.3784,34.149-12.9087,8.5165-6.6021,19.5239-18.8459,23.6024-39.6853,1.644-8.4001,6.647-33.9629-11.7731-53.2524-9.5721-10.0239-23.5343-15.7727-38.3067-15.7727h0Z"/>
      </g>
      <g>
        <path class="cls-4" d="M365,108.2927c-5.0889,0-8.7197-.689-9.1172-.7671-5.71-1.1304-24.8418-6.25-31.3223-24.6948-5.7568-16.3882,1.7275-36.0522,17.4092-45.7407,6.2744-3.8774,13.5664-5.9268,21.0869-5.9268,7.5615,0,14.8164,2.0591,20.9785,5.9536,9.5723,6.0508,16.2812,16.3936,18.4053,28.3765,1.9375,10.9268-.3926,21.6626-6.3916,29.4536-8.4932,11.0303-21.5713,13.3457-31.0479,13.3457h-.001Z"/>
        <path class="cls-1" d="M363.0564,36.1636c6.472,0,12.8823,1.751,18.3073,5.1799,16.6992,10.5552,22.1096,35.7659,10.7234,50.5532-7.3751,9.5781-19.188,11.396-27.0868,11.396-4.5104,0-7.7455-.593-8.1473-.6726-3.0649-.6062-21.6842-4.6787-27.5745-21.4468-5.192-14.7803,2.2092-31.7297,15.3192-39.8298,5.6272-3.4768,12.073-5.1799,18.4587-5.1799M363.0564,26.1636c-8.4491,0-16.6495,2.3074-23.7148,6.6729-17.6326,10.8943-26.0148,33.0994-19.4979,51.6511,7.3582,20.9468,28.7024,26.6833,35.069,27.9426.728.1438,4.6368.8625,10.0876.8625,14.9819,0,27.4155-5.4319,35.0101-15.2952,6.8555-8.9033,9.5358-21.0688,7.3534-33.3777-2.3695-13.3643-9.8987-24.9292-20.6572-31.7292-6.9626-4.4009-15.1407-6.7271-23.6501-6.7271h0Z"/>
      </g>
      <g>
        <path class="cls-4" d="M736.8858,334.9958c-5.2812,0-18.5938-1.0444-28.1338-10.7163-6.5713-6.6616-7.5957-13.5986-8.5-19.7188-.7686-5.2026-1.4326-9.6963-5.3857-14.1938-2.3828-2.7114-3.6973-3.1602-10.2764-5.0874-4.7832-1.4014-11.335-3.3203-21.5938-7.3462-15.5986-6.1211-25.9033-10.1646-36.6123-19.1108-7.5-6.2651-15.9971-13.3628-19.9297-25.3462-7.001-21.3374,3.9893-44.3242,18.4629-56.0034,8.8311-7.1265,22.5684-11.2168,39.7266-11.8286,1.3389-.0479,3.5791-.1279,6.4365-.1279,24.8369,0,70.7139,5.8594,98.9092,45.1006,22.8135,31.7505,22.1699,58.1538,17.6113,74.7124-5.2686,19.1401-22.6572,48.1504-48.9668,49.6226-.2607.0146-.8662.0439-1.748.0439Z"/>
        <path class="cls-1" d="M671.078,170.5161c18.7595,0,66.4619,3.5071,94.851,43.0181,4.8839,6.7974,26.208,36.4756,16.8511,70.4683-5.2487,19.0676-21.5787,44.679-44.4255,45.9573-.2195.0122-.7281.0361-1.4686.0361-4.2766,0-16.2589-.7971-24.574-9.2275-10.6378-10.7852-3.6368-22.2644-13.6899-33.7021-5.816-6.6169-9.4353-4.2266-33.7994-13.7871-15.9415-6.2556-25.348-10.0361-35.234-18.2939-7.3663-6.1533-14.8966-12.4434-18.3829-23.0679-5.8953-17.9656,2.7701-39.1909,16.8511-50.5532,2.9941-2.416,13.0376-9.8767,36.7659-10.7234,1.3529-.0483,3.4885-.1245,6.2555-.1245M671.078,160.5161c-2.9429,0-5.2374.0818-6.6083.1309-18.2512.6511-33.0128,5.1238-42.6927,12.9346-15.8098,12.7576-27.7812,37.9626-20.0729,61.4536,4.379,13.345,13.4604,20.9312,21.4728,27.624,11.3348,9.468,22.5166,13.8557,37.9928,19.9287,10.4662,4.1072,17.4161,6.1431,22.015,7.4902,6.4252,1.8821,6.5671,2.0437,7.9261,3.5898,2.8458,3.2378,3.3956,6.2124,4.1952,11.624.9149,6.1924,2.168,14.6733,9.8864,22.4985,10.8654,11.0161,25.7838,12.2053,31.6935,12.2053.912,0,1.6063-.0281,2.0281-.0518,13.084-.7322,25.4901-7.5859,35.8761-19.8203,7.9177-9.3269,14.3441-21.5254,17.6313-33.4673,4.5369-16.4817,3.3988-33.8586-3.3823-51.6479-5.2355-13.7346-12.3214-23.5967-14.9889-27.3093-13.5168-18.8123-32.3765-32.2693-56.0551-39.9973-18.1979-5.9392-35.5581-7.1858-46.9171-7.1858h0Z"/>
      </g>
      <g>
        <path class="cls-4" d="M740.0899,473.4329c-19.8838-.001-37.8467-10.9551-44.6973-27.2588-7.5996-18.0845-.9873-41.0483,15.3828-53.4155,8.0146-6.0557,18.0322-9.3901,28.209-9.3901,10.4014,0,20.2734,3.3745,27.7979,9.5024,9.1611,7.4604,14.8867,19.2026,15.71,32.2158.9414,14.8818-4.6152,29.8193-15.2461,40.9819l-.5791.6079-.7461.3857c-8.1777,4.2271-16.8682,6.3706-25.8291,6.3706h-.002Z"/>
        <path class="cls-1" d="M738.9843,388.3682c9.1118,0,17.953,2.9333,24.6405,8.3796,17.4268,14.1926,19.7909,45.0913,0,65.8723-7.7543,4.0085-15.8151,5.8125-23.5345,5.8125-17.9298,0-34.0118-9.7358-40.0884-24.1956-6.4589-15.3696-1.5436-35.9062,13.7872-47.4893,7.5553-5.708,16.4985-8.3796,25.1952-8.3796M738.9843,378.3682c-11.2573,0-22.3459,3.6938-31.2233,10.4009-9.0154,6.8113-15.649,16.6318-18.6788,27.6523-2.9626,10.7759-2.3586,22.0303,1.7007,31.6899,7.6215,18.136,27.4365,30.3213,49.3074,30.3213,9.769,0,19.2323-2.3313,28.1267-6.9292l1.4915-.771,1.1578-1.2158c11.5886-12.1685,17.6448-28.4775,16.6158-44.7456-.9106-14.3989-7.3047-27.4392-17.5425-35.7771-8.4136-6.8521-19.4071-10.6257-30.9553-10.6257h0Z"/>
      </g>
      <g>
        <path class="cls-4" d="M651.9366,616.4788c-5.4062,0-10.5498-1.3179-11.9971-1.7217-7.6514-2.1348-14.3984-6.6772-18.998-12.791-9.0137-11.9839-11.3105-31.4551.4492-43.2949,5.3633-5.3999,13.3213-8.4966,21.834-8.4966,8.6016,0,16.5996,3.1567,21.9414,8.6611,1.3975,1.4404,2.6133,3.04,3.6143,4.7559,3.6006,6.1743,4.998,13.9092,4.043,22.3696-.8096,7.166-3.1553,13.978-5.4893,20.3403-.6016,1.6372-1.4238,3.8765-3.1035,5.8066-2.5254,2.9004-6.6621,4.3706-12.2939,4.3706Z"/>
        <path class="cls-1" d="M643.2246,555.1746c6.8657,0,13.7273,2.3772,18.3531,7.1436,1.0968,1.1301,2.068,2.3947,2.8839,3.7937,3.3457,5.7374,4.1376,12.6885,3.3926,19.2883-.745,6.6-2.9271,12.9442-5.2147,19.1797-.5511,1.5023-1.1302,3.038-2.1809,4.245-1.739,1.9974-5.0317,2.6542-8.5222,2.6542-3.9579,0-8.1698-.845-10.6528-1.5377-6.4554-1.8009-12.304-5.6075-16.3457-10.981-7.8008-10.3708-9.5533-27.1472.0002-36.7656,4.6445-4.6761,11.4675-7.0201,18.2865-7.0201M643.2246,545.1746c-9.8351,0-19.0862,3.635-25.3815,9.973-13.6688,13.7616-11.1901,36.1395-.8969,49.824,5.256,6.9875,12.9448,12.1733,21.6501,14.6019,1.6025.447,7.3002,1.9055,13.34,1.9055,7.1427,0,12.5475-2.0483,16.0645-6.088,2.2888-2.6295,3.3347-5.4805,4.0269-7.3671,2.4384-6.6464,4.892-13.7816,5.7634-21.5021,1.0768-9.5388-.5454-18.3384-4.6909-25.4475-1.2048-2.0659-2.6672-3.9905-4.3466-5.7208-6.2781-6.4689-15.5831-10.179-25.5291-10.179h0Z"/>
      </g>
      <g>
        <path class="cls-4" d="M407.5479,807.865c-4.1738-.0005-8.3359-.6475-12.373-1.9238-16.3271-5.1636-29.0869-20.1084-31.0312-36.3438-3.1904-26.6479,22.7139-43.6235,31.2266-49.2017,5.5254-3.6211,20.1992-13.2358,35.0176-13.2358,5.499,0,10.4902,1.3267,14.833,3.9434,7.5127,4.5254,16.4229,15.0625,16.207,39.5596-.0615,6.8276-1.6602,24.252-15.1416,38.6133-4.0947,4.3613-18.9893,18.5889-38.7363,18.5889h-.002Z"/>
        <path class="cls-1" d="M430.3879,712.1603c4.2356,0,8.4198.917,12.2523,3.2258,14.0245,8.4487,13.8354,29.8002,13.7872,35.2341-.0421,4.7656-.8431,21.4454-13.7872,35.234-2.3344,2.4867-16.4507,17.0105-35.092,17.0105-3.4792,0-7.1182-.5065-10.8654-1.6914-14.1517-4.4751-25.7987-17.3411-27.5745-32.1702-2.8226-23.5707,20.8524-39.085,29.0023-44.4255,5.0995-3.3418,18.9487-12.4174,32.2772-12.4174M430.3879,702.1603c-16.3127,0-31.8926,10.2095-37.7578,14.053-9.1542,5.9987-37.0106,24.2527-33.4508,53.979,2.2042,18.4075,16.0641,34.6896,34.4885,40.5157,4.5255,1.431,9.1956,2.1566,13.8804,2.1566,21.7612,0,37.9421-15.4354,42.3829-20.1663,14.6919-15.6504,16.4304-34.5782,16.496-41.9897.2383-26.8561-9.9977-38.6899-18.6266-43.8883-5.1331-3.0922-10.9915-4.66-17.4126-4.66h0Z"/>
      </g>
      <g>
        <path class="cls-4" d="M175.2618,732.1609c-12.1328-.0005-24.627-7.5908-31.0889-18.8877-6.0957-10.6553-7.8545-26.938,1.9561-39.2944,6.3223-7.9619,16.3027-12.7153,26.6992-12.7153,3.8887,0,7.6299.6538,11.1191,1.9434,8.2344,3.042,14.7891,9.6787,18.457,18.6875,4.2832,10.5215,4.1475,22.9414-.3545,32.4126-1.8174,3.8223-7.2422,13.0859-18.3359,16.5728-2.7051.8501-5.5479,1.2812-8.4512,1.2812h-.001Z"/>
        <path class="cls-1" d="M172.8277,666.2634c3.2461,0,6.4412.5449,9.387,1.6333,17.1535,6.3376,22.2209,29.7432,15.3192,44.2635-.9028,1.8994-5.4302,10.8413-15.3192,13.9492-2.2813.717-4.6172,1.0511-6.9535,1.0511-10.7009,0-21.3959-7.0129-26.7487-16.3702-5.0963-8.9093-7.0426-22.9026,1.5319-33.7021,5.7341-7.222,14.4324-10.8248,22.7832-10.8248M172.8277,656.2634c-11.9081,0-23.353,5.4604-30.6149,14.6067-11.265,14.1881-9.3126,32.767-2.3804,44.8856,7.3237,12.8029,21.5615,21.4049,35.4288,21.4049,3.413,0,6.7613-.5084,9.9518-1.5112,12.9749-4.0778,19.2548-14.783,21.3525-19.1963,5.0852-10.6986,5.2652-24.6628.4696-36.4434-4.2031-10.3252-11.787-17.9584-21.3548-21.4933-4.0464-1.495-8.3707-2.2531-12.8527-2.2531h0Z"/>
      </g>
      <g>
        <path class="cls-4" d="M84.8213,623.656c-10.0293-.0005-22.7627-3.7046-34.0625-9.9087-15.3701-8.4385-26.1064-17.1567-33.7881-27.437-9.9707-13.3423-13.9844-29.0947-11.0137-43.2178,6.1396-29.1904,38.1592-41.9707,51.6406-46.1108,3.0713-.9434,6.7178-1.9077,10.4834-1.9077,2.8135,0,5.4023.5527,7.6953,1.6421,8.3438,3.9644,10.6758,13.4917,12.2188,19.7959,1.6123,6.5889,3.457,13.2134,5.4834,19.6895,2.8096,8.9805,6.0508,17.9409,9.6338,26.6328.3525.855.709,1.7114,1.0664,2.5698,4.0166,9.6484,8.1699,19.626,7.8682,30.6143-.4814,17.564-10.4043,27.6377-27.2236,27.6377h-.002Z"/>
        <path class="cls-1" d="M68.0807,500.0741c1.9197,0,3.7971.3252,5.5498,1.158,5.9319,2.8187,7.9467,10.0895,9.5078,16.4688,1.6447,6.7211,3.5024,13.39,5.5687,19.9937,2.8637,9.1521,6.1282,18.1787,9.782,27.045,4.135,10.0339,8.8577,20.2933,8.5601,31.1417-.47,17.1333-10.306,22.7749-22.2282,22.7749-10.6127,0-22.879-4.4729-31.6557-9.2916-12.1929-6.6943-23.8636-14.9043-32.1898-26.0469-8.3263-11.1427-12.989-25.5837-10.1259-39.1959,4.6241-21.9845,26.7402-35.7655,48.2159-42.3605,2.9028-.8914,6.0114-1.6871,9.0154-1.6871M68.0807,490.0741c-4.4258,0-8.525,1.0756-11.951,2.1277-30.2865,9.3007-50.3574,27.4745-55.0662,49.8616-3.2662,15.5291,1.0716,32.7474,11.9012,47.2401,8.1238,10.8718,19.3685,20.0317,35.3877,28.8268,12.0045,6.5909,25.6376,10.5259,36.4684,10.5259,19.6197,0,31.6662-12.1498,32.2245-32.5007.3307-12.0588-4.2287-23.0106-8.2514-32.6731-.355-.8528-.7093-1.7037-1.0593-2.553-3.5269-8.5582-6.7177-17.3804-9.484-26.2211-1.9956-6.3778-3.8121-12.8997-5.399-19.3844-1.6602-6.7843-4.4387-18.1392-14.9293-23.1239-2.9688-1.4106-6.2799-2.1259-9.8416-2.1259h0Z"/>
      </g>
      <circle class="cls-5" cx="168.9222" cy="395.0226" r="14.9723"/>
      <circle class="cls-5" cx="200.0684" cy="76.0089" r="21.1863"/>
      <circle class="cls-5" cx="389.7424" cy="525.6169" r="21.1863"/>
      <circle class="cls-5" cx="200.0684" cy="254.7185" r="7.4862"/>
      <circle class="cls-5" cx="41.1069" cy="551.5494" r="7.4862"/>
      <circle class="cls-5" cx="573.9363" cy="525.0764" r="7.4862"/>
      <circle class="cls-5" cx="581.4225" cy="62.301" r="17.0518"/>
      <circle class="cls-5" cx="468.6008" cy="569.9339" r="10.5687"/>
      <circle class="cls-5" cx="398.1106" cy="757.5125" r="10.5687"/>
      <circle class="cls-5" cx="581.4225" cy="685.0809" r="10.5687"/>
      <circle class="cls-5" cx="511.3562" cy="402.2642" r="7.2416"/>
      <circle class="cls-5" cx="501.7171" cy="525.0764" r="12.9662"/>
      <circle class="cls-5" cx="697.2288" cy="208.4957" r="12.9662"/>
      <circle class="cls-5" cx="547.1595" cy="311.7217" r="12.9662"/>
      <circle class="cls-5" cx="256.7973" cy="207.3473" r="9.9898"/>
      <circle class="cls-5" cx="618.7022" cy="350.3396" r="8.5733"/>
      <circle class="cls-5" cx="200.0684" cy="538.5832" r="12.9662"/>
      <circle class="cls-5" cx="445.0659" cy="174.3703" r="12.9662"/>
      <circle class="cls-5" cx="513.519" cy="193.8197" r="6.4831"/>
      <circle class="cls-5" cx="351.6551" cy="669.7163" r="6.4831"/>
      <circle class="cls-5" cx="351.6551" cy="170.5162" r="12.9662"/>
      <circle class="cls-5" cx="84.5212" cy="358.9129" r="27.11"/>
      <circle class="cls-5" cx="597.3997" cy="430.6034" r="23.0273"/>
      <circle class="cls-5" cx="200.0684" cy="459.3831" r="23.0273"/>
      <circle class="cls-5" cx="356.1905" cy="609.705" r="25.9325"/>
      <circle class="cls-5" cx="75.3631" cy="187.3366" r="25.9325"/>
      <g>
        <path class="cls-2" d="M360.1407,488.7952c-22.209,0-37.6299-2.5522-51.5615-8.5337l-.25-.1074-.0381-.0083c-.5312-.2266-1.0576-.4668-1.5879-.7085l-.2871-.1309c-.6289-.29-1.2402-.5718-1.8418-.873l-.1035-.0493c-.3691-.1675-.7402-.3433-1.1104-.5366-14.4375-7.2412-26.4189-17.375-40.1074-33.9067-1.6025-1.9346-3.3047-3.8809-5.1064-5.9414-5.1992-5.9448-10.5752-12.0923-13.9141-18.3774,0,0-.3613-.7026-.4473-.8628-.1807-.3569-.3828-.769-.5752-1.1904-3.0303-6.4585-4.6816-13.127-6.3809-20.5508l-.2461-1.0786c-.3799-1.6646-.7646-3.3447-1.1689-5.0527-.3652-1.5327-.748-3.0796-1.1348-4.6421-2.1172-8.5605-4.3057-17.4131-4.3057-26.1265,0-16.3667,5.2451-30.166,10.7988-44.7749,6.3057-16.5493,14.6621-35.3296,28.8301-49.1284,10.0459-9.7939,23.0469-16.6558,34.4434-22.3184,20.3984-10.1421,38.5156-14.8657,57.0146-14.8657,19.8955,0,39.1279,5.7891,62.3584,18.77,1.4551.811,2.8857,1.6309,4.3184,2.4702,1.0986.6436,2.1855,1.2861,3.2637,1.9385.917.5483,1.8105,1.0981,2.7031,1.6572,1.7588,1.0908,3.5361,2.2451,5.4453,3.5352.7793.5225,1.54,1.0493,2.3008,1.5859.4814.3306.9199.6387,1.3594.9658l.082.0596c.5215.3608,1.0283.7349,1.5391,1.1108l.3135.231c.1289.0938.249.1807.3604.2686l.1143.0864c.4512.3218.8926.6631,1.335,1.0127.002.0034.0762.061.1514.1177l.1348.1128.1152.0684c.0703.0459.1328.0986.1982.1514l.0332.0347,1.0537.8228s.6064.4834.7617.6108l.0449.0469.2188.1704c.3047.2334.6084.4839.9131.7334l.4521.3647c.3027.2539,1.1396.9683,1.1396.9683.8232.6978,1.6318,1.4092,2.4199,2.1206.0732.0684.1504.1353.2256.1963.7998.7251,1.5898,1.4595,2.3613,2.2119.4268.4067.8193.7891,1.2109,1.1816.3818.3726.7236.7236,1.0654,1.0747,1.9912,2.0303,3.9062,4.1704,5.6982,6.3691.3574.4341.707.8677,1.0469,1.311.3906.4863.7275.9287,1.0576,1.3701.3652.479.7031.9409,1.0391,1.4028.3369.4604.6602.918.9756,1.3755,14.8408,21.4116,16.8857,48.8818,16.8857,75.3794,0,4.2388.1436,8.3965.2822,12.4165.4521,13.083.8789,25.4399-3.8643,37.0308l-.3408.8115c-.1895.4507-.3994.9277-.6094,1.395l-.0918.2021-.0088.0312c-7.5195,16.5659-20.501,30.1787-32.2109,41.312-2.5459,2.4243-4.7803,4.5-6.832,6.3467-.4287.3887-.8535.7666-1.2773,1.1431l-.6738.5991c-1.6357,1.436-3.0293,2.623-4.3662,3.7197-.6455.5278-1.293,1.0576-1.9502,1.5776-.457.3633-.8584.6826-1.2607.9844-.376.2974-.6875.5352-.998.7642-.5293.4111-.9922.7632-1.4639,1.0967-.8281.6094-1.6152,1.1733-2.4141,1.728-.3164.2207-.6299.4399-.9434.6489-.4824.3354-.9287.6284-1.3643.9126l-.9756.6338c-.4727.3057-.9482.6011-1.4355.8965-.3008.1929-.5352.335-.7695.4688l-.1035.0615c-.5303.3315-1.0703.6436-1.6104.9561-.8555.4868-2.0039,1.1313-3.1748,1.7271-.6738.3618-1.2959.6733-1.9189.9751-.959.4736-1.8203.8779-2.6553,1.2456-.4648.2075-.917.3999-1.3682.5928-.4404.1958-.8271.3521-1.2139.5088l-.4404.1802c-.1602.064-.3555.1382-.5508.2124-15.1064,5.8882-32.4824,6.6987-49.0117,6.6987Z"/>
        <path class="cls-3" d="M361.0603,231.9434c19.3712,0,38.1653,5.6746,60.9419,18.4016,1.4246.7949,2.8188,1.5925,4.264,2.4395,1.0856.636,2.1611,1.2712,3.2544,1.9331.8854.5293,1.7612,1.0684,2.6589,1.6309,1.7208,1.0674,3.4672,2.2012,5.3551,3.4771.7527.5049,1.4955,1.0193,2.2385,1.5432l.0278.0198.0281.0193c.4193.2883.8306.5759,1.2412.8821l.0811.0603.083.0574c.4911.3401.9692.6931,1.451,1.0479l.356.262c.0906.0664.1816.1318.2661.1985l.1063.0837.1102.0786c.3431.2451.7118.5249,1.192.9048.0573.0461.1149.0911.1747.1367l.186.155.2017.1309.0038.0039.2684.2129c.1581.1255.3188.2507.4796.3762l.3624.2832.3417.2732c.1256.1001.2515.1997.3772.3027l.079.0789.3021.2319c.2754.2114.5502.438.8256.6638l.3342.2732.2119.1726.0081.0054c.28.2351.5592.4736.8344.7087l.1876.1602c.7283.6169,1.4866,1.2812,2.3163,2.0293.099.0925.2015.1826.3085.2712.8433.7661,1.5718,1.4492,2.2233,2.085l.025.0244.0254.0242c.3857.3672.7623.7349,1.139,1.1113l.0271.0271.0276.0269c.3319.3232.6545.6555.995,1.0056,1.9208,1.9583,3.7762,4.0317,5.5282,6.1792.328.3992.6564.8066.9756,1.2234l.0422.0552.0436.0542c.3242.4031.6395.8149.946,1.2268l.0244.033.0248.0322c.3318.4329.6538.8755.9767,1.3186.3181.4363.6272.8726.9395,1.3267,14.38,20.7454,16.3622,47.6873,16.3622,73.7114,0,4.2891.1444,8.4719.2841,12.5171.4596,13.3152.8566,24.8145-3.6538,35.8357-.0435.1067-.0891.2134-.1346.3201-.0647.1521-.1292.304-.1914.4561-.1885.4482-.386.8962-.5833,1.3354l-.171.3809-.0068.0239c-7.3265,16.0264-20.019,29.3203-31.485,40.2222-2.5234,2.4031-4.7378,4.46-6.7874,6.3047-.4225.3835-.8495.7625-1.2749,1.1401l-.6147.5471c-1.5947,1.4009-3.0043,2.6021-4.3295,3.6887-.627.5127-1.2538,1.0256-1.903,1.5393-.3967.3157-.793.6316-1.1896.9292l-.0635.0476-.0621.0493c-.2831.2249-.5662.4414-.8492.6494l-.0662.0488-.0648.0505c-.5247.4092-.9214.7063-1.2863.9639l-.05.0352-.0493.0366c-.7527.5549-1.5255,1.1084-2.3046,1.6499-.2964.2068-.5925.4136-.8888.6111l-.0476.0317-.047.0327c-.4126.2869-.8345.5645-1.2601.8423l-.4537.2944-.4857.3154c-.463.2996-.9171.5808-1.38.8623l-.063.0383-.062.0398c-.1937.1245-.3875.2422-.5812.353l-.0991.0566-.0969.0605c-.4788.2993-.9896.595-1.4929.8865-.8419.479-1.9519,1.1018-3.0715,1.6715l-.0605.0308-.0598.0322c-.4962.2673-1.0519.5491-1.7899.907-.8977.444-1.7211.8304-2.5431,1.1929-.4375.1953-.875.3813-1.3165.5692l-.0464.0198-.0461.0206c-.3586.16-.7175.3047-1.076.4503l-.4021.1641c-.1639.0653-.3356.1305-.5073.196l-.0354.0134-.0201.0078c-14.639,5.7057-31.6896,6.4922-47.9344,6.4922-21.7896,0-36.866-2.4814-50.4119-8.2974l-.5006-.215-.0356-.0079c-.4203-.1826-.8373-.3732-1.2576-.5647l-.2887-.1313c-.624-.288-1.2134-.5599-1.7698-.8383l-.1018-.0509-.1038-.0469c-.3671-.166-.6801-.3171-.9567-.4622l-.0459-.0242-.0463-.0232c-14.0096-7.0256-25.7104-16.936-39.126-33.1396-1.6257-1.9617-3.3389-3.9207-5.1526-5.9946-5.0916-5.8215-10.3564-11.8416-13.5469-17.8474-.0558-.1045-.1094-.2107-.1635-.3169-.0817-.1604-.1636-.3208-.2476-.479-.1967-.386-.3688-.7412-.5255-1.0845l-.0126-.0276-.0128-.0276c-2.8982-6.1765-4.4447-12.4177-6.1652-19.9346l-.2468-1.0798c-.3817-1.6711-.7672-3.3584-1.1756-5.0837-.3665-1.5354-.7509-3.0898-1.1392-4.6599-2.0754-8.3914-4.2216-17.0686-4.2216-25.4272,0-15.8308,5.1536-29.3875,10.6083-43.7361,6.1921-16.2529,14.3777-34.6755,28.1428-48.0825,9.746-9.501,22.5082-16.2314,33.7072-21.7952,19.9792-9.9341,37.6836-14.5608,55.7164-14.5608M361.0603,226.1179c-21.3901,0-40.3701,6.25-58.3101,15.1699-12.5601,6.24-25.2401,13.1501-35.18,22.8401-13.8501,13.49-22.51,31.78-29.52,50.1799-5.6301,14.8101-10.99,29.03-10.99,45.8101,0,10.7,3.1399,21.47,5.52,31.4399.49,2.0701.95,4.1001,1.4099,6.1101,1.6799,7.3398,3.37,14.2898,6.5701,21.1099.21.46.4299.9102.6599,1.3601.15.28.29.5698.4399.8499,4.6802,8.8101,13.1101,17.28,19.3501,24.8101,12.03,14.53,24.2701,26.24,41.0001,34.63.4199.22.84.42,1.26.61.6399.3201,1.29.62,1.9399.9199.66.3,1.3101.6001,1.97.8801.0801.04.1602.08.25.1,16.3501,7.0199,33.6501,8.7699,52.7101,8.7699,17.35,0,34.8099-.95,50.0499-6.8899.2101-.0801.42-.16.6201-.24.5599-.23,1.1199-.45,1.6799-.7.47-.2001.9399-.4001,1.41-.6101.9301-.4099,1.84-.84,2.75-1.29.66-.3199,1.3199-.6499,1.97-1,1.12-.5699,2.2201-1.1799,3.3099-1.7999.5701-.33,1.1401-.66,1.7001-1.01.2799-.16.5599-.33.84-.51.51-.3099,1.01-.62,1.52-.9501.3201-.21.65-.4199.97-.6299.46-.3.9301-.6101,1.39-.9299.33-.22.66-.45.9901-.6802.8198-.5698,1.6299-1.1499,2.4299-1.74.51-.3599,1.01-.74,1.51-1.1299.34-.25.6799-.51,1.02-.78.4399-.3301.8799-.6799,1.3199-1.03.67-.53,1.33-1.0701,1.99-1.6099,1.5-1.23,2.9801-2.5,4.4601-3.8.6499-.5801,1.3099-1.1602,1.96-1.75,2.3-2.0701,4.59-4.21,6.8899-6.4001,12.8101-12.1799,25.4801-25.9399,32.8801-42.27.03-.0598.0599-.1199.08-.1899.22-.49.4401-.99.65-1.49.11-.27.23-.54.34-.8101,6.4701-15.8098,3.7999-32.3599,3.7999-50.5498,0-28.3201-2.3999-55.3901-17.3999-77.03-.3301-.48-.67-.96-1.02-1.4399-.35-.4802-.7-.9602-1.0601-1.4302-.3499-.47-.71-.9399-1.08-1.3999-.36-.47-.73-.9299-1.1-1.3801-1.86-2.28-3.8201-4.47-5.87-6.5598-.36-.3701-.7201-.74-1.09-1.1001-.41-.4099-.8201-.8101-1.24-1.21-.8201-.8-1.66-1.5801-2.51-2.3501-.04-.03-.0901-.0698-.1301-.1099-.8199-.74-1.6599-1.48-2.51-2.2002-.4099-.3499-.8298-.71-1.25-1.0598-.0299-.02-.0499-.04-.0798-.0601-.4301-.3501-.8601-.71-1.29-1.04-.02-.02-.04-.03-.0601-.05-.3101-.26-.62-.5-.9299-.75-.29-.23-.5901-.46-.8801-.6899-.0199-.02-.0399-.03-.0599-.05-.1901-.1499-.37-.3-.5699-.4299-.0601-.05-.1201-.0901-.1801-.1399-.48-.3801-.96-.75-1.4501-1.1001-.1399-.1101-.2899-.22-.4399-.3301-.6399-.47-1.27-.9399-1.9199-1.3899-.47-.3501-.9401-.6799-1.42-1.01-.78-.55-1.5599-1.0901-2.35-1.6201-1.8201-1.23-3.66-2.4299-5.53-3.5898-.9099-.5701-1.8201-1.1301-2.74-1.6802-1.0901-.6599-2.1899-1.3098-3.3-1.96-1.45-.8499-2.8999-1.6799-4.3699-2.5-19.3101-10.79-40.1001-19.1399-63.78-19.1399h0Z"/>
      </g>
    </g>
  </g>
</svg>