<?xml version="1.0" encoding="UTF-8"?>
<svg id="Capa_2" xmlns="http://www.w3.org/2000/svg" viewBox="0 0 795.1437 812.8647">
  <defs>
    <style>
      .cls-1 {
        fill: #70569b;
      }

      .cls-2 {
        fill: #604593;
      }

      .cls-3 {
        fill: #47327c;
      }

      .cls-4 {
        fill: #a486ce;
      }

      .cls-5 {
        fill: #8566b2;
      }
    </style>
  </defs>
  <g id="Capa_1-2" data-name="Capa_1">
    <g>
      <g>
        <path class="cls-4" d="M574.6277,736.7568c-10.9961,0-21.1201-2.1553-28.5078-6.0698-15.46-8.1958-20.0605-27.3105-24.1182-44.1748-1.6094-6.6885-3.1299-13.0054-5.1914-18.4951-5.2979-14.1118-15.6846-24.4878-26.5449-33.4736-10.2021,6.5391-16.5039,9.25-21.3252,9.25-.1494,0-.2969-.0024-.4414-.0078-.2002-.0073-.3994-.0107-.5947-.0107-4.6758,0-7.3838,1.9707-13.5957,6.8271-4.46,3.4858-10.0098,7.8242-18.4424,12.4751-7.126,3.9326-23.8154,13.1436-45.0088,14.4033-.9736.0581-1.9785.0874-2.9883.0874-9.9521,0-21.6553-2.7974-42.9004-7.8755-10.9404-2.6152-18.0186-4.6313-22.7021-5.9653-4.8779-1.3887-7.3252-2.0859-9.1104-2.0859-.7344,0-1.5107.1143-2.5957.3823-6.4727,1.6099-9.5781,5.2114-14.2783,10.6626-4.8643,5.6411-10.917,12.6611-22.7158,19.4556-6.9463,4.0039-17.4473,10.0552-26.7441,10.0557-3.498.0005-6.5752-.8589-9.1445-2.5542-9.7539-6.4282-9.2354-21.7686-8.376-47.1831.1523-4.4712.3975-7.8125.5947-10.4971.4082-5.5508.5938-8.084-.4717-12.7886-2.4258-10.7607-6.9121-18.5229-13.335-23.0762-4.2354-2.9976-7.2949-3.1484-13.3877-3.4487-4.2559-.2095-9.5518-.4707-16.8154-1.8359-12.2676-2.3154-28.9873-5.4717-42.3457-18.1357-.8682-.8271-21.0518-20.3672-18.3818-45.5264.8945-8.4199,3.9512-13.0913,6.4082-16.8442,2.2695-3.4683,4.0625-6.208,4.2871-11.9248.1416-3.5981-.376-4.957-5.1396-16.2349-1.9854-4.7012-4.7051-11.1396-8.2803-19.9966-7.4346-18.4072-9.0605-23.4053-7.96-30.2456,1.0713-6.6724,3.8311-10.4082,6.2656-13.7046,2.0898-2.8281,3.7402-5.062,4.4609-9.3086,1.4229-8.3691-1.6338-20.2378-8.2939-23.8887-1.1689-.6401-2.2969-.9385-3.5479-.9385-2.8057,0-6.2305,1.5093-10.1953,3.2573-6.0566,2.6699-13.5938,5.9922-23.4561,5.9922-.6182,0-1.2432-.0127-1.8789-.0396-18.0195-.7632-40.7734-12.9844-47.4463-34.1309-1.1689-3.7041-1.7617-7.5581-1.7617-11.4546,0-.543.0117-1.0864.0352-1.6289.0205-.5024.0527-1.0034.0957-1.5146v-.0142c.0332-.5112.0859-1.0122.1494-1.521.0039-.0479.0088-.0952.0146-.1401.0498-.4238.1094-.8467.1758-1.2622.0205-.1943.0518-.3872.0918-.5781.0684-.4219.1338-.8071.2148-1.1929.0283-.1519.0693-.3574.1201-.5815.0186-.0972.04-.2031.0674-.3169.0664-.3291.1416-.6582.2256-.9873.1738-.7583.3887-1.5547.6738-2.499.0713-.2471.1611-.541.2637-.8477.4766-1.5146,1.0781-3.1255,1.7627-4.7114.1152-.2876.2402-.5674.377-.856,2.2588-5.0391,5.4189-10.1377,9.3936-15.1538.3018-.3853.6201-.7798.9385-1.1641.5547-.6787,1.1289-1.3584,1.7139-2.0283.0137-.0161.9863-1.1343.9863-1.1343l.001.001c.0781-.0913.1602-.1807.2432-.2656.8525-.9473,1.708-1.8638,2.6113-2.7983,6.0957-6.2949,11.5078-10.3501,12.5312-11.0991,7.0811-5.1865,18.9189-13.8574,32.4775-13.8574,2.3066,0,4.5977.2544,6.8105.7554,9.2109,2.084,14.8047,7.7671,19.7412,12.7808,5.2158,5.2983,8.6992,8.5454,14.3555,8.5454,8.0908-.0156,13.9629-6.6655,14.6055-7.4238,7.8955-9.3047,3.6924-22.6636,3.6494-22.7974-1.2803-3.9629-2.9658-5.5869-5.2988-7.834-2.5498-2.457-5.7246-5.5151-8.332-11.6753-4.3848-10.3569-5.4307-25.3701,2.1162-35.5645,3.6299-4.9009,7.6104-6.5098,11.8242-8.2139,2.4287-.9814,4.9404-1.9971,8.0176-3.8281,8.3701-4.9829,15.3984-12.9409,20.8945-23.6572,3.4336-10.9282,3.4521-20.4404.0547-28.2764-2.7295-6.292-6.7432-9.292-13.3926-14.2617-5.1045-3.8159-11.458-8.5649-19.2549-16.3618-13.4531-13.4429-21.5615-21.5449-24.3369-34.6719-3.4893-16.5112,3.0635-34.4463,19.4756-53.3086,21.3271-24.4556,43.2627-29.5825,57.9131-29.5825,2.0205,0,4.0742.0972,6.1035.2896,27,2.5464,43.4629,20.8345,47.8652,26.3784,14.9844,18.8193,16.3447,41.1016,16.4043,47.4824.0576,6.0493-.6562,10.6797-1.2295,14.4004-.8369,5.4292-1.2979,8.4199.7285,12.5562,3.627,7.4014,12.6787,13.188,22.0127,14.0728.7129.0674,1.3975.1021,2.0381.1021,4.1494,0,7.1514-1.4668,12.6006-4.1299,5.0879-2.4863,12.0566-5.8916,23.1611-9.5356,11.9141-3.9072,18.9688-6.1177,25.4229-6.1177,3.1172,0,5.9531.54,8.6689,1.6514,6.1924,2.5269,8.9854,6.4111,11.6855,10.1675,2.3789,3.3081,4.8389,6.729,10.4385,10.0791,2.6182,1.5742,9.5508,5.7417,17.7129,5.7417,1.1719,0,2.3389-.0884,3.4678-.2622,3.8359-.5928,5.7568-1.8999,8.665-3.8779,3.0762-2.0918,6.9033-4.6953,13.6572-6.6953,2.5547-.7554,8.5-2.5137,15.5576-2.5137,2.918,0,5.7461.3027,8.4072.8994,9.8789,2.2144,14.6572,7.8657,18.873,12.8516,3.3926,4.0122,6.5977,7.8022,12.6396,10.4048,4.0957,1.7661,8.6475,2.6611,13.5312,2.6611,7.0928,0,14.2871-1.9321,20.2588-5.4399,13.1533-7.7183,17.5977-21.374,19.0771-28.8276,1.8584-9.3848-.1602-15.0039-2.7148-22.1187-2.1533-5.9941-4.5928-12.7876-5.0352-22.6489-1.0371-23.3057,8.5254-53.4258,31.9727-64.4858,5.9717-2.8184,12.4805-4.2476,19.3438-4.2476,24.4355,0,46.415,18.2148,48.8408,20.2915,22.5264,19.146,25.8682,37.061,24.7031,48.7158-1.5664,15.7261-11.749,26.4785-16.6416,31.6465-7.5479,7.958-14.0654,11.0928-20.9658,14.4111-4.9902,2.4004-10.1504,4.8823-16.4775,9.5562-7.0654,5.2148-9.3174,8.9829-11.9258,13.3457-2.707,4.5269-5.7744,9.6577-14.1338,15.7695-4.4697,3.2695-8.3652,5.4502-11.4941,7.2026-5.4072,3.0273-7.3164,4.2144-8.0928,6.9746-1.75,6.2109,3.9121,14.3794,6.9551,18.7676,3.6787,5.3184,6.8174,7.627,9.5869,9.6641,1.1865.8726,2.3066,1.6968,3.3701,2.6753,2.3262,2.1636,3.7842,4.5669,4.6074,7.582,2.0322,7.4248-1.0908,12.9839-3.8467,17.8882-2.4277,4.3203-4.5244,8.0518-3.6982,13.2896.375,2.3813,1.3193,4.7695,2.8066,7.0996l.083.125c.041.0635.0801.127.125.1885.0508.0674.0947.1294.1416.1997,2.4014,3.5586,5.5088,6.1592,7.3643,7.7129.3291.2817.6143.5078.8975.7266.6504.5044,1.2178.9116,1.7402,1.2495.0283.0186.0566.0371.084.0557.2471.167.501.3257.748.4766.0322.0195.3262.1978.4404.2695l.29.1626c.0947.0513.1885.106.2803.1631l.0645.0273c.1084.0547.2275.1196.332.1816,0,0,.2832.1426.3516.1816l.0322.0103c.0068.0034.1699.0796.2012.0947,1.1201.5522,2.2734,1.0107,3.5273,1.4014,0,0,.6465.2036.6846.2153.0508.0127.6816.1943.6816.1943,0,0,.1895.0474.2422.063.1816.0527.3701.106.5508.1514.0449.0107.0898.0229.1338.0352.5166.145,1.0332.2715,1.5498.3979l.1758.0439c.252.0625.5078.127.7588.1968,1.3955.3442,2.5537.6646,3.6396,1.0073.334.1035.6953.2271,1.042.3516.2803.0962.6162.2129.9531.3403.6689.2495,1.292.5068,1.8779.7783.8906.4004,1.7236.8237,2.5059,1.2734.291.1562.5928.3311.8818.5078.0225.0132.1006.0625.1182.0737.3389.2095.6875.4312,1.0264.6636.3691.2437.75.5093,1.1318.7866.3369.2446.6963.5195,1.043.7944.3379.2573.7471.5928,1.1553.9409,5.0947,4.334,6.6904,7.9722,8.0986,11.1816,1.1885,2.7109,2.3125,5.271,6.0127,9.0259,5.2139,5.29,9.3398,6.6826,13.709,8.1567,4.4619,1.5059,9.5195,3.2124,14.3281,9.0112,2.3711,2.8638,4.6094,5.5654,8.5996,40.9312,2.7021,23.9189,2.3047,27.6792.5781,31.6602-3.3877,7.7827-8.9023,11.4487-13.333,14.3945-4.2314,2.813-7.2881,4.8452-8.9102,9.708-2.1924,6.5537-.6182,15.2373,3.7412,20.6523,2.9756,3.6938,6.3047,4.6245,10.5186,5.8022,4.5498,1.272,10.2109,2.8545,15.3115,8.4131,7.1309,7.7676,12.0303,22.4648,7.0615,34.4019-3.5693,8.5884-10.541,11.5415-17.9229,14.668-7.2148,3.0562-15.3936,6.52-24.4404,15.9771-1.457,1.522-2.4102,2.6475-3.7285,4.2056-1.7812,2.105-3.998,4.7246-8.4883,9.5381-4.5391,4.8726-11.4014,12.2383-18.7236,18.7148-9.9248,8.7905-16.5596,12.2905-21.4033,14.8462-4.3799,2.3105-6.208,3.2749-8.1357,6.7393-.0322.0615-.1133.2168-.1211.2334-.9033,1.8706-.7881,5.3223-.665,8.9771.1475,4.4204.3154,9.4307-1.1289,14.3721-2.8105,9.5801-10.8135,15.644-24.3965,18.4482,1.6562,3.0225,4.4932,6.8843,7.4932,8.2686,5.8457,2.7012,12.4863,4.6079,19.5186,6.626,8.0996,2.3247,16.4756,4.729,24.0137,8.543,1.7139.8677,3.5225,1.7246,5.2705,2.5537,6.9014,3.2715,14.0361,6.6543,19.7373,12.4521,14.1855,14.4272,18.5596,45.8101,9,64.5752-7.874,15.457-19.4209,20.4233-34.0391,26.71l-.1006.0435c-7.5098,3.2275-17.1758,5.0044-27.2188,5.0044Z"/>
        <path class="cls-1" d="M583.9425,9.9998c22.6189,0,43.2559,17.0925,45.5883,19.0896,4.9301,4.1899,25.2699,21.5198,22.98,44.4199-1.4,14.05-10.6801,23.8301-15.3199,28.73-12.1201,12.78-21.22,11.8799-36.76,23.3601-15.65,11.5498-10.8701,18.0098-26.04,29.0999-11.77,8.6101-19.3,9.22-21.45,16.8601-2.3801,8.45,4.02,17.72,7.6599,22.97,5.72,8.27,10.54,10.28,13.6801,13.1699,1.4301,1.3301,2.5199,2.8401,3.17,5.22,3.0299,11.0701-9.8201,16.95-7.6602,30.6401.54,3.4299,1.8901,6.4399,3.53,9.01.1401.21.27.4199.42.6199,2.78,4.1201,6.28,7.0601,8.2999,8.75.3501.3.7001.5801,1.05.8501.71.55,1.4,1.05,2.0801,1.49.3099.21.6299.4099.9399.5999l.01.01c.1699.1001.3401.2002.51.3101.01,0,.03.01.04.02.1399.0801.28.1599.4099.23.16.1001.3201.1799.48.26.1501.0901.3101.1699.4701.25.16.0901.3199.1599.47.23,1.4601.72,2.87,1.26,4.25,1.6899l.5699.1802c.1301.04.25.0798.3801.1099.21.0601.4099.1201.6199.1802.04.0098.0901.0198.1301.0298.24.0701.49.1401.73.2002.5699.1599,1.1399.2998,1.71.4399.28.0701.5701.1399.85.22,1.14.28,2.27.5801,3.41.9399.29.0901.58.1899.86.29.2899.1001.58.2.87.3101.51.1899,1.03.3999,1.55.6399.71.3201,1.4399.6802,2.1799,1.1101.23.1199.47.26.7.3999.03.02.05.03.0801.05.29.1799.59.3701.88.5701.3199.21.65.4399.98.6799.2899.21.59.4399.88.6699.3401.26.6799.54,1.02.8301,8.3101,7.0701,4.96,10.95,13.79,19.9099,11.73,11.9001,19.6899,7.1301,27.75,16.8501,1.6899,2.04,3.74,5.1499,7.48,38.3,2.7,23.8999,2.1,26.48.96,29.1099-5.6899,13.0701-18.14,11.74-22.4,24.51-2.7799,8.3101-.7799,18.7,4.59,25.3701,7.79,9.6699,17.5801,5.24,26.04,14.46,6.4,6.97,10.0801,19.6101,6.13,29.1001-5.66,13.6199-22.14,9.0198-41.36,29.1099-3.61,3.77-4.49,5.4602-12.26,13.79-4.49,4.8201-11.28,12.1001-18.38,18.3801-18.98,16.8098-25.3199,13.3398-30.64,22.98-.0699.1399-.1499.27-.21.4099-2.8201,5.8401.3999,15.6001-2.0901,24.1201-2.1099,7.1899-8.2899,13.5-25.6599,15.7998-2.02.26,3.79,13.3201,11.46,16.8601,13.1801,6.0901,29.95,8.3,43.3701,15.0901,8.24,4.1699,17.23,7.47,23.7,14.0498,12.8999,13.1201,16.46,42.4102,8.11,58.8-7.0699,13.8801-17.36,18.28-31.66,24.4302-6.9839,3.0015-16.1205,4.5977-25.2427,4.5977-9.5692,0-19.1227-1.7556-26.1672-5.4878-18.9202-10.03-19.4401-39.96-26.9701-60.01-5.98-15.9299-17.7699-27.3499-30.9-37.8999-8.9738,5.9595-16.9353,10.4346-21.6512,10.4346-.0874,0-.1736-.0015-.2587-.0046-.2627-.0095-.5222-.0142-.777-.0142-11.2754-.0005-15.0222,9.2063-34.453,19.9241-7.3201,4.04-23.2101,12.6201-42.8901,13.79-.882.0525-1.778.0786-2.6921.0786-9.3589,0-20.7754-2.728-41.7378-7.7385-23.0342-5.5059-28.2858-8.1885-32.976-8.1885-1.2045,0-2.3718.1768-3.7941.5283-15.72,3.9102-15.7,17.6301-38.29,30.6401-6.3138,3.6389-16.3019,9.3879-24.2482,9.3879-2.361,0-4.5409-.5071-6.3917-1.728-7.42-4.8899-6.92-19.52-6.13-42.8899.46-13.5,1.81-16.52,0-24.51-.9-3.99-4.0899-18.0901-15.32-26.05-8.93-6.3201-14.5099-2.8-32.17-6.1199-11.92-2.25-27.52-5.1802-39.83-16.8501-.85-.8101-19.25-18.76-16.85-41.3701,1.5601-14.6799,10.17-15.1299,10.72-29.0999.27-6.8601-1.73-8.4502-13.78-38.3-7.52-18.6201-8.5-22.3601-7.6599-27.5801,1.75-10.8999,8.87-12.0801,10.7198-22.97,1.7401-10.24-1.99-24.27-10.8199-29.1101-2.0134-1.1025-3.9764-1.5542-5.9514-1.5544-8.9406-.0007-18.1522,9.25-33.6524,9.25-.5479,0-1.1024-.0115-1.6662-.0354-17.24-.73-37.27-12.8301-42.89-30.6401-1.06-3.3599-1.53-6.6899-1.53-9.95,0-.47.0099-.9399.03-1.4099.0201-.47.0501-.9299.09-1.4001q-.01-.01,0-.02c.03-.46.08-.9099.14-1.3699v-.03c.0502-.4199.11-.8401.1801-1.25,0-.0701.0099-.1399.03-.2.06-.3801.1201-.76.2-1.1401.04-.21.08-.4099.1301-.6199.01-.0601.02-.1301.04-.1899.0599-.3101.1299-.6201.21-.9302.1699-.75.3799-1.5.5999-2.23.07-.24.1401-.47.22-.71.4701-1.49,1.02-2.95,1.64-4.3799.0901-.23.19-.4502.3002-.6802,2.3099-5.1699,5.4498-9.95,8.77-14.1399.2899-.3701.58-.73.8699-1.0801.54-.6599,1.08-1.3,1.6301-1.9299l.02-.02c.3199-.3799.6599-.76.98-1.1299.02-.03.0499-.05.08-.0801.8699-.97,1.7299-1.8901,2.5899-2.78,5.8001-5.99,10.92-9.8301,11.89-10.54,6.782-4.9678,17.5957-12.8916,29.5242-12.8916,1.8784,0,3.7835.1963,5.7059.6316,16.336,3.6968,19.8544,21.45,35.201,21.45h.039c10.38-.0198,17.4901-8.1399,18.38-9.1899,9.5801-11.29,4.88-26.6899,4.5901-27.5798-3.25-10.0601-9.26-9.2302-13.78-19.9102-3.8401-9.0701-4.7701-22.1299,1.53-30.6399,4.5399-6.1301,9.5399-5.46,18.3799-10.72,6.82-4.0601,15.5801-11.4502,22.98-26.05,2.71-8.46,5-20.6401,0-32.1702-5.6099-12.9299-15.7-14.1699-33.7-32.1699-12.9099-12.8999-20.51-20.49-22.98-32.1699-4.75-22.48,13.1501-43.01,18.38-49.02,4.5588-5.2275,24.2753-27.8372,54.1176-27.8372,1.8409,0,3.7155.0857,5.6324.2671,26.4001,2.49,41.9501,21.4001,44.42,24.51,14.77,18.55,15.29,41.1799,15.3199,44.4199.14,14.5-4.4401,20.03.01,29.1101,4.6,9.3899,15.58,15.8601,26.0299,16.8501.881.0837,1.7136.1243,2.5094.1243,9.9435,0,14.2102-6.3313,37.3207-13.9143,10.916-3.5801,18.0581-5.8689,23.8647-5.8689,2.4331,0,4.6315.4019,6.7753,1.2788,9.85,4.02,8.63,12.24,21.4501,19.9102,2.8907,1.738,10.77,6.4504,20.2803,6.4504,1.379,0,2.7924-.0989,4.2297-.3206,9.71-1.5,10.72-7.0901,22.98-10.72,2.3959-.7085,7.7915-2.3083,14.1387-2.3083,2.3419,0,4.8127.2175,7.3113.7783,15.48,3.47,15.3999,16.4099,30.63,22.97,4.8516,2.0918,10.1655,3.0686,15.5093,3.0686,8.0167,0,16.1002-2.1985,22.7906-6.1287,17.0601-10.01,20.77-28.74,21.4501-32.1699,3.7899-19.1399-6.7301-25.21-7.66-45.96-.84-18.8701,6.3-48.98,29.11-59.74,5.6888-2.6843,11.5134-3.7693,17.2118-3.7695M583.943,0h-.0005c-7.6074,0-14.8341,1.5898-21.4792,4.7256-12.4963,5.895-22.3276,17.0056-28.4299,32.1309-4.6099,11.4263-6.9435,24.9475-6.4027,37.0977.476,10.6191,3.1641,18.1038,5.3239,24.1177,2.4723,6.8835,4.1056,11.4312,2.5167,19.4551-1.3145,6.6301-5.2321,18.7578-16.7013,25.4873-5.2196,3.0664-11.5146,4.7537-17.7299,4.7537-4.14,0-8.1339-.7786-11.55-2.2515-4.9651-2.1387-7.5414-5.1853-10.8031-9.0427-4.4906-5.3105-10.0793-11.9202-21.5989-14.5022-3.0171-.677-6.2135-1.0205-9.4985-1.0205-7.7815,0-14.2131,1.9023-16.9597,2.7146-7.52,2.2263-11.8824,5.1938-15.0679,7.3604-2.675,1.8196-3.896,2.6501-6.6177,3.0706-.8748.1348-1.7852.2034-2.7032.2034-6.7764,0-12.8435-3.6477-15.1276-5.0208-4.7296-2.8298-6.6919-5.5588-8.964-8.719-2.8214-3.9238-6.3326-8.8074-13.8601-11.8794-3.3198-1.3584-6.7747-2.0203-10.5538-2.0203-7.5676,0-15.7106,2.6707-26.981,6.3669-11.4332,3.7515-18.5804,7.2441-23.7993,9.7944-5.507,2.6912-7.5564,3.6218-10.4052,3.6218-.4824,0-1.0083-.0266-1.563-.0793-7.5745-.7175-15.1415-5.4675-17.996-11.2944-1.2798-2.6111-1.0997-4.2639-.278-9.595.6013-3.9001,1.3495-8.7539,1.2871-15.2124-.0624-6.7793-1.5092-30.4734-17.4965-50.5522-4.7067-5.926-22.3395-25.5051-51.304-28.2368-2.1821-.2065-4.3939-.311-6.5715-.311-15.6885,0-39.1198,5.4241-61.6541,31.2644-2.7773,3.1914-9.2119,10.5859-14.2842,20.324-6.7184,12.8982-8.8526,25.4597-6.3432,37.3359,3.0838,14.582,12.0724,23.5635,25.6783,37.1592,8.0658,8.0657,14.5792,12.9341,19.8127,16.8459,6.8274,5.1033,9.6824,7.3687,11.7992,12.2476,2.8644,6.6055,2.8263,14.8057-.1121,24.3823-5.0297,9.6755-11.3547,16.8271-18.8094,21.2649-2.7467,1.6343-5.078,2.5769-7.3325,3.4883-4.4533,1.8-9.5007,3.8406-13.9683,9.873-9.3189,12.5876-7.2798,29.6787-2.7026,40.4902,3.0056,7.1011,6.7404,10.6995,9.4674,13.3269,2.2028,2.1223,3.1146,3.0007,4.0056,5.7583.0303.0977,3.3189,10.9436-2.6992,18.0359-.1993.2351-4.8553,5.6484-10.7742,5.6599-3.5369,0-5.7727-1.9343-10.8119-7.053-5.1501-5.2314-11.5596-11.7419-22.202-14.1504-2.5731-.5825-5.2359-.8782-7.913-.8782-15.195,0-27.8596,9.2766-35.4265,14.8193-1.0842.7935-6.7957,5.0713-13.1716,11.656-.9247.9568-1.7919,1.885-2.6494,2.8359-.1524.1575-.2994.3193-.4409.4856l-.2638.3022c-.2066.2358-.4147.4741-.618.7124-.0155.0173-.0308.0347-.0458.052-.6061.6941-1.2006,1.3975-1.8167,2.1497-.3364.407-.673.8245-1.0095,1.2537-4.2089,5.3154-7.5692,10.7407-9.9898,16.1289-.1733.3665-.3211.7017-.4558,1.0339-.7313,1.6987-1.3771,3.4277-1.921,5.1428-.1055.3206-.2007.6306-.2947.9521-.3047,1.0139-.5386,1.8828-.7314,2.7168-.0901.3579-.1729.7195-.2471,1.0796-.0325.1406-.0599.2715-.083.3914-.0486.2202-.093.4377-.136.6609-.0928.4521-.1631.8652-.221,1.2246-.0521.2634-.0942.5288-.1262.7961-.069.437-.1312.887-.1856,1.3423-.0079.0662-.0151.1326-.0217.199-.0782.6316-.1319,1.1892-.1675,1.7354-.0452.5591-.0787,1.0984-.1021,1.6433-.026.6113-.0391,1.2288-.0391,1.8376,0,4.4062.6707,8.7661,1.9933,12.9587,7.3582,23.3181,32.2853,36.7876,52.0036,37.6223.6951.0295,1.398.0444,2.0893.0444,10.9155,0,19.3291-3.709,25.4724-6.4172,3.305-1.4568,6.4266-2.8328,8.1791-2.8328.3516,0,.6525.0532,1.1495.3254,4.1234,2.2603,6.9805,11.5061,5.7641,18.6638-.5219,3.0723-1.5986,4.5298-3.5533,7.1758-2.4972,3.3806-5.9172,8.01-7.1814,15.8843-1.2925,8.0305.5287,13.7644,8.261,32.9102,3.5899,8.8926,6.3182,15.3525,8.3104,20.0693,4.7173,11.1689,4.8435,11.709,4.7498,14.0925-.1706,4.3333-1.275,6.0208-3.4753,9.3828-2.6057,3.9814-6.1741,9.4341-7.1965,19.0535-2.8767,27.1013,17.5555,47.4363,19.8948,49.6658,14.4451,13.6941,32.0008,17.0078,44.8194,19.4275l.0549.0103c7.6067,1.4299,13.0919,1.7002,17.4993,1.9177,6.102.3005,7.8189.4648,10.7485,2.5383,5.3776,3.8115,9.1956,10.5715,11.342,20.0879.9033,3.9871.7565,5.9861.3642,11.3284-.2002,2.728-.4495,6.1233-.6035,10.6406l-.0018.053c-.412,12.1895-.7375,21.8171.0316,29.6545.6708,6.8352,2.4985,16.5391,10.5917,21.8728,3.3968,2.2407,7.4,3.3782,11.8945,3.3782,10.6339,0,21.8317-6.4534,29.2415-10.7239,12.5327-7.2178,19.1632-14.9077,24.0048-20.5225,4.8143-5.5835,6.9574-7.8962,11.7058-9.0774.8423-.2083,1.1919-.2327,1.3804-.2327,1.0872,0,3.8778.7949,7.7404,1.895,4.7247,1.3455,11.865,3.3792,22.9106,6.0195,21.6146,5.1663,33.5211,8.0125,44.0626,8.0125,1.1072,0,2.2126-.0325,3.286-.0964,22.3231-1.3269,40.3441-11.2729,47.1282-15.0171,8.7799-4.843,14.7468-9.5073,19.1036-12.9131,5.979-4.6738,7.6663-5.7664,10.5168-5.7661.1365,0,.2749.0024.415.0076.207.0073.4125.0112.6212.0112,5.3387,0,11.4845-2.3284,20.8901-8.0771,9.2869,7.9961,17.8412,17.1816,22.2991,29.0569,1.9537,5.2024,3.4388,11.3735,5.011,17.9075,4.3057,17.8923,9.1857,38.1719,26.6372,47.4233,8.0984,4.2905,19.0541,6.6526,30.8512,6.6526,10.7061,0,21.0731-1.9214,29.1912-5.4102l.1028-.0442c14.931-6.4214,27.8258-11.9673,36.5195-29.0349,4.9167-9.6511,6.7089-22.947,4.9163-36.4783-1.8574-14.0203-7.1157-26.0493-14.8063-33.8713-6.3231-6.4304-14.2058-10.1675-21.1606-13.4646-1.799-.8528-3.498-1.6584-5.1547-2.4968-7.9612-4.0278-16.5686-6.4985-24.8926-8.8877-6.8414-1.9639-13.3035-3.8184-18.7982-6.3574-.3657-.1689-.7659-.4534-1.1814-.8198,11.1401-3.7971,17.9768-10.3872,20.782-19.9465,1.6719-5.7207,1.4818-11.3933,1.3291-15.9514-.0748-2.2358-.1876-5.6021.1804-6.6516.0016-.0029.0031-.0059.0046-.0088,1.1177-2.002,1.788-2.4402,6.0732-4.7009,4.7826-2.5232,12.01-6.3364,22.3875-15.5271,7.5068-6.6401,14.4636-14.1082,19.0671-19.0503,4.5677-4.8967,6.8279-7.5676,8.6439-9.7136,1.2609-1.4902,2.1718-2.5667,3.5216-3.9763,8.3378-8.7153,16.0112-11.9653,22.7814-14.8328,7.61-3.2234,16.2354-6.8767,20.5902-17.3557,5.8263-13.9976.387-30.5688-7.9984-39.7009-6.0624-6.6069-12.7577-8.4785-17.6464-9.8452-4.2684-1.1931-6.0762-1.771-7.9724-4.1248-3.3099-4.1116-4.5549-10.9585-2.8937-15.9241,1.0375-3.1101,2.8766-4.4346,6.9381-7.1348,4.7153-3.1348,11.1733-7.4282,15.1472-16.5562,2.2949-5.2942,2.5281-10.147-.192-34.2241-3.9562-35.0664-6.2694-39.3965-9.7158-43.5569-5.7175-6.895-11.7412-8.9275-16.5813-10.5608-4.1165-1.3894-7.368-2.4866-11.7479-6.9299-3.0524-3.0972-3.8668-4.9541-4.9941-7.5242-1.5442-3.5203-3.4659-7.9016-9.4376-12.9822-.491-.4187-.9255-.7725-1.3533-1.1018-.4048-.3196-.7948-.6155-1.16-.8801-.4244-.3086-.8544-.6077-1.2675-.8809-.4425-.302-.8573-.5635-1.1765-.7615-.0155-.0098-.031-.0195-.0464-.0291-.0399-.0249-.08-.0498-.1202-.0742-.3748-.228-.7206-.4272-1.0502-.605-.8921-.5103-1.8334-.988-2.87-1.4568-.6877-.3162-1.4053-.6128-2.1912-.9062-.3608-.1362-.7212-.2622-1.0819-.387-.39-.1387-.7928-.2756-1.1953-.4006-1.1254-.3555-2.3615-.6985-3.8396-1.0642-.276-.0757-.5563-.1465-.8325-.2151l-.13-.0325c-.5074-.1248-.9712-.2368-1.4347-.3669-.0914-.0256-.1832-.05-.2753-.073-.1169-.0293-.2385-.0647-.3555-.0986-.1154-.0337-.2313-.0652-.3478-.0947-.0127-.0032-.0255-.0066-.0386-.0098l-.0399-.0117-.3765-.1091c-.053-.0151-.106-.0298-.1591-.0439l-.5245-.1658c-1.0406-.3245-1.9572-.688-2.8407-1.1238-.0625-.0308-.1251-.0608-.1882-.0903l-.0773-.0359c-.0515-.0269-.1033-.0532-.1553-.0793l-.0137-.0068c-.134-.0759-.2699-.1487-.4072-.2183-.085-.0491-.1707-.0969-.2571-.1436l-.1152-.0654c-.0907-.0557-.1814-.1106-.2721-.1648-.0341-.0215-.0684-.0427-.1027-.0637-.1837-.1125-.3741-.2292-.5579-.3535-.0575-.0391-.1155-.0774-.1738-.115-.4004-.2593-.8546-.5862-1.3887-1-.2734-.2112-.4808-.3784-.6672-.5383-.0299-.0254-.0599-.0508-.09-.0759-1.6526-1.3826-4.4186-3.6968-6.4271-6.6736-.063-.0933-.1276-.1858-.1937-.2769l-.0322-.0491-.0856-.1299c-1.1111-1.7532-1.7819-3.4338-2.0498-5.1362-.5316-3.3694.7034-5.7681,3.1173-10.0645,2.9054-5.1709,6.8846-12.2529,4.3097-21.6602-1.0781-3.9473-2.9866-7.0952-6.0045-9.9021-.0128-.0122-.0258-.0242-.0388-.0359-1.2654-1.1648-2.5504-2.1101-3.7932-3.0242-2.5736-1.8931-5.2346-3.8503-8.4342-8.4761-2.2097-3.1873-7.3693-10.6289-6.259-14.5706.2203-.783,1.5538-1.6348,5.7235-3.9692,3.2476-1.8184,7.2892-4.0813,12.0052-7.5312,9.1768-6.7087,12.6671-12.5469,15.4716-17.2378,2.4281-4.0615,4.3459-7.2695,10.6024-11.8867,5.952-4.3972,10.8961-6.7751,15.6774-9.0747,7.0037-3.3687,14.2458-6.8518,22.4005-15.4504,5.302-5.5991,16.278-17.1899,18.0146-34.6196,1.2842-12.842-2.2627-32.4705-26.4547-53.0312-4.1642-3.5654-26.3767-21.4695-52.0637-21.4695h0Z"/>
      </g>
      <g>
        <path class="cls-4" d="M71.4695,253.2412c-.9805,0-1.9746-.0342-2.9561-.1011-16.5059-1.123-31.9727-11.8525-39.4023-27.3354-8.3857-17.4771-2.8828-34.0635-.2383-42.0347,2.6611-8.021,10.7598-32.4263,35.4541-39.9741,4.7207-1.4424,9.7041-2.1738,14.8135-2.1738,13.4131,0,26.0576,5.1851,34.6904,14.2256,16.6309,17.4165,12.0029,41.0669,10.4824,48.8384-3.7803,19.3179-13.9189,30.6172-21.7588,36.6943-4.1855,3.2446-15.2998,11.8608-31.083,11.8608h-.002Z"/>
        <path class="cls-1" d="M79.1401,146.6218c11.0944,0,22.6831,3.8916,31.0746,12.6792,14.8439,15.5444,10.6545,36.95,9.1915,44.4255-.9699,4.9558-4.5279,21.7742-19.9149,33.7021-3.9401,3.0544-13.9477,10.8125-28.0226,10.8125-.8566,0-1.7292-.0288-2.6156-.0891-15.7892-1.0747-29.0748-11.676-35.2339-24.5107-7.5132-15.6567-2.5258-30.686,0-38.2979,2.5461-7.6726,9.9467-29.9741,32.17-36.7659,4.187-1.2795,8.7253-1.9558,13.351-1.9558M79.1401,136.6221c-5.6044,0-11.0797.8047-16.2737,2.3923-27.1641,8.3015-35.8755,34.5527-38.7382,43.1792-2.8519,8.5945-8.7854,26.4758.4753,45.7742,8.1957,17.0786,25.2982,28.9175,43.5705,30.1611,1.0939.0745,2.2023.1123,3.2947.1123,17.4967,0,29.5947-9.3784,34.149-12.9089,8.5162-6.6018,19.5237-18.8455,23.6023-39.6851,1.644-8.4006,6.6467-33.9634-11.7731-53.2524-9.5721-10.0239-23.5344-15.7727-38.3068-15.7727h0Z"/>
      </g>
      <g>
        <path class="cls-4" d="M365.0007,108.293c-5.0918-.0005-8.7207-.6895-9.1182-.7681-5.709-1.1294-24.8418-6.2485-31.3223-24.6943-5.7559-16.3882,1.7285-36.0522,17.4092-45.7402,6.2754-3.8774,13.5674-5.9268,21.0869-5.9268,7.5625,0,14.8164,2.0586,20.9795,5.9536,9.5723,6.0508,16.2803,16.3931,18.4053,28.3755,1.9365,10.9272-.3936,21.6631-6.3926,29.4546-8.4922,11.0293-21.5703,13.3457-31.0459,13.3457h-.002Z"/>
        <path class="cls-1" d="M363.0565,36.1636c6.472,0,12.8822,1.751,18.3071,5.1799,16.6992,10.5552,22.1096,35.7659,10.7234,50.5532-7.3751,9.5781-19.188,11.396-27.0868,11.396-4.5103,0-7.7454-.593-8.1472-.6726-3.0649-.6062-21.6842-4.6787-27.5745-21.4468-5.1921-14.7803,2.2092-31.7297,15.3191-39.8298,5.6272-3.4768,12.0731-5.1799,18.4589-5.1799M363.0565,26.1636c-8.4491,0-16.6495,2.3074-23.715,6.6726-17.6326,10.8945-26.0148,33.0999-19.4978,51.6514,7.3582,20.9468,28.7025,26.6833,35.069,27.9426.7277.1438,4.6361.8625,10.0875.8625,14.9821,0,27.4155-5.4319,35.0101-15.2952,6.8555-8.9033,9.5358-21.0688,7.3534-33.3777-2.3695-13.3643-9.8987-24.9292-20.6572-31.7292-6.9626-4.4009-15.1406-6.7271-23.65-6.7271h0Z"/>
      </g>
      <g>
        <path class="cls-4" d="M736.8865,334.9961c-5.2812,0-18.5947-1.0444-28.1338-10.7163-6.5713-6.6621-7.5957-13.5986-8.5-19.7188-.7686-5.2026-1.4326-9.6958-5.3867-14.1934-2.3828-2.7119-3.6973-3.1606-10.2754-5.0879-4.7832-1.4014-11.335-3.3203-21.5938-7.3467-15.5977-6.1201-25.9023-10.1631-36.6133-19.1108-7.498-6.2622-15.9951-13.3604-19.9287-25.3457-7.002-21.3374,3.9873-44.3247,18.4619-56.0034,8.832-7.1265,22.5693-11.2173,39.7275-11.8296,1.3398-.0474,3.5791-.1274,6.4336-.1274,24.8379,0,70.7158,5.8594,98.9121,45.1006,22.8135,31.7524,22.1689,58.1548,17.6104,74.7129-5.2686,19.1401-22.6572,48.1504-48.9668,49.6226-.2617.0146-.8672.0439-1.7471.0439Z"/>
        <path class="cls-1" d="M671.0781,170.5161c18.7595,0,66.4618,3.5071,94.8508,43.0181,4.8839,6.7974,26.2081,36.4756,16.8511,70.4683-5.2487,19.0676-21.5787,44.679-44.4255,45.9573-.2195.0122-.7281.0361-1.4686.0361-4.2766,0-16.2588-.7971-24.574-9.2275-10.6378-10.7852-3.6368-22.2644-13.6898-33.7021-5.8162-6.6169-9.4354-4.2266-33.7994-13.7871-15.9417-6.2556-25.348-10.0361-35.2341-18.2939-7.3663-6.1533-14.8966-12.4434-18.3829-23.0679-5.8951-17.9656,2.7701-39.1909,16.8511-50.5532,2.9941-2.416,13.0376-9.8767,36.766-10.7234,1.3529-.0483,3.4884-.1245,6.2555-.1245M671.0781,160.5161c-2.9429,0-5.2374.0818-6.6083.1309-18.2513.6511-33.0129,5.1238-42.6929,12.9346-15.8097,12.7573-27.7811,37.9626-20.073,61.4536,4.3792,13.3452,13.4607,20.9312,21.4733,27.6243,11.3348,9.468,22.5165,13.8557,37.9926,19.9285,10.4662,4.1072,17.416,6.1431,22.015,7.4902,6.425,1.8821,6.5671,2.0437,7.9263,3.5901,2.8456,3.2375,3.3954,6.2122,4.1949,11.6235.9149,6.1926,2.168,14.6736,9.8864,22.4988,10.8655,11.0161,25.7838,12.2053,31.6935,12.2053.912,0,1.6063-.0281,2.0282-.0518,13.084-.7322,25.49-7.5859,35.876-19.8203,7.9177-9.3269,14.3441-21.5254,17.6313-33.4673,4.5369-16.4814,3.3989-33.8584-3.3821-51.6477-5.2354-13.7344-12.3214-23.5964-14.9889-27.3093-13.5171-18.8125-32.3767-32.2695-56.0553-39.9976-18.1978-5.9392-35.5581-7.1858-46.917-7.1858h0Z"/>
      </g>
      <g>
        <path class="cls-4" d="M740.0906,473.4326c-19.8838-.0005-37.8467-10.9551-44.6982-27.2583-7.5996-18.084-.9873-41.0479,15.3828-53.4155,8.0146-6.0557,18.0332-9.3906,28.209-9.3906,10.4014,0,20.2734,3.375,27.7979,9.5029,9.1611,7.4604,14.8867,19.2026,15.71,32.2153.9414,14.8818-4.6152,29.8193-15.2461,40.9819l-.5791.6079-.7461.3853c-8.1768,4.2275-16.8682,6.3711-25.8291,6.3711h-.001Z"/>
        <path class="cls-1" d="M738.9842,388.3682c9.1118,0,17.953,2.9333,24.6405,8.3796,17.4269,14.1926,19.791,45.0913,0,65.8723-7.7543,4.0085-15.8149,5.8125-23.5345,5.8125-17.9297,0-34.0117-9.7358-40.0883-24.1956-6.4589-15.3696-1.5437-35.9062,13.7872-47.4893,7.5552-5.708,16.4984-8.3796,25.1951-8.3796M738.9842,378.3682c-11.2573,0-22.3459,3.6938-31.2233,10.4009-9.0153,6.8113-15.6489,16.6318-18.6788,27.6523-2.9625,10.7759-2.3585,22.0303,1.7008,31.6899,7.6215,18.136,27.4365,30.3213,49.3074,30.3213,9.7689,0,19.2322-2.3313,28.1265-6.9292l1.4916-.771,1.1578-1.2158c11.5886-12.1682,17.6449-28.4775,16.616-44.7456-.9106-14.3989-7.3047-27.4392-17.5426-35.7771-8.4135-6.8521-19.407-10.6257-30.9553-10.6257h0Z"/>
      </g>
      <g>
        <path class="cls-4" d="M651.9363,616.479c-5.4033,0-10.5479-1.3174-11.9951-1.7212-7.6543-2.1357-14.4014-6.6782-18.999-12.792-9.0146-11.9844-11.3115-31.4556.4482-43.2944,5.3633-5.3999,13.3223-8.4971,21.835-8.4971,8.6016,0,16.5986,3.1572,21.9404,8.6611,1.3994,1.4429,2.6162,3.0435,3.6152,4.7583,3.5996,6.1719,4.9971,13.9062,4.042,22.3672-.8105,7.1733-3.1562,13.9819-5.4893,20.3413-.5986,1.6323-1.4189,3.8706-3.1035,5.8057-2.5254,2.9004-6.6611,4.3711-12.2939,4.3711Z"/>
        <path class="cls-1" d="M643.2246,555.1746c6.8657,0,13.7274,2.3772,18.3531,7.1436,1.0969,1.1301,2.0681,2.3945,2.8839,3.7937,3.3457,5.7373,4.1376,12.6885,3.3926,19.2883s-2.9271,12.9441-5.2147,19.1797c-.5511,1.5022-1.1302,3.0378-2.1809,4.2449-1.739,1.9976-5.0319,2.6543-8.5223,2.6543-3.9579,0-8.1697-.845-10.6527-1.5378-6.4553-1.8008-12.304-5.6074-16.3457-10.981-7.8007-10.3708-9.5533-27.1472.0002-36.7656,4.6447-4.676,11.4675-7.02,18.2865-7.02M643.2246,545.1746c-9.835,0-19.0861,3.635-25.3813,9.9729-13.6688,13.7615-11.1901,36.1394-.8971,49.8237,5.256,6.9878,12.9449,12.1738,21.6504,14.6023,1.6022.4468,7.2997,1.9055,13.3397,1.9055,7.1427,0,12.5476-2.0483,16.0646-6.0881,2.2887-2.6294,3.3346-5.4802,4.0267-7.3667,2.4385-6.6467,4.8921-13.7822,5.7635-21.5024,1.0768-9.5388-.5454-18.3384-4.691-25.4475-1.204-2.0649-2.6666-3.99-4.3468-5.7212-6.2776-6.4683-15.5826-10.1785-25.5287-10.1785h0Z"/>
      </g>
      <g>
        <path class="cls-4" d="M407.5476,807.8647c-4.1738-.0005-8.3359-.6475-12.373-1.9238-16.3252-5.1631-29.0859-20.1079-31.0312-36.3433-3.1904-26.6504,22.7148-43.6245,31.2275-49.2021,5.5234-3.6196,20.1953-13.2354,35.0176-13.2354,5.499,0,10.4893,1.3267,14.832,3.9434,7.5127,4.5254,16.4229,15.0625,16.207,39.5591-.0605,6.8252-1.6562,24.2476-15.1416,38.6133-4.0938,4.3608-18.9863,18.5889-38.7363,18.5889h-.002Z"/>
        <path class="cls-1" d="M430.3879,712.1602c4.2355,0,8.4198.917,12.2523,3.2258,14.0244,8.4487,13.8353,29.8003,13.7872,35.2341-.0422,4.7656-.8433,21.4456-13.7872,35.2341-2.3345,2.4866-16.4509,17.0105-35.0922,17.0105-3.4794,0-7.1182-.5063-10.8654-1.6914-14.1517-4.4751-25.7986-17.3411-27.5745-32.1702-2.8225-23.5708,20.8525-39.085,29.0023-44.4255,5.0995-3.3418,18.9487-12.4175,32.2773-12.4175M430.3878,702.1602c-16.3132,0-31.8932,10.21-37.7584,14.0535-9.1537,5.9985-37.0098,24.2524-33.4502,53.9785,2.2045,18.4077,16.0643,34.6897,34.4885,40.5159,4.5255,1.4312,9.1956,2.1567,13.8804,2.1567,21.7594,0,37.9414-15.4353,42.3827-20.166,14.6918-15.6504,16.4307-34.5784,16.4963-41.99.2378-26.8567-9.9979-38.6904-18.6266-43.8884-5.1331-3.0923-10.9915-4.6602-17.4127-4.6602h0Z"/>
      </g>
      <g>
        <path class="cls-4" d="M175.2615,732.1606c-12.1328-.0005-24.627-7.5908-31.0889-18.8872-6.0957-10.6558-7.8545-26.9385,1.9561-39.2944,6.3223-7.9619,16.3027-12.7158,26.6992-12.7158,3.8887,0,7.6299.6538,11.1191,1.9434,8.2354,3.0425,14.7891,9.6792,18.457,18.688,4.2832,10.5215,4.1475,22.9409-.3545,32.4121-1.8174,3.8223-7.2422,13.0859-18.3359,16.5728-2.7051.8501-5.5488,1.2812-8.4512,1.2812h-.001Z"/>
        <path class="cls-1" d="M172.8275,666.2634c3.2461,0,6.4413.5449,9.3872,1.6333,17.1535,6.3376,22.2209,29.7432,15.3192,44.2634-.9028,1.8994-5.4302,10.8413-15.3192,13.9492-2.2813.717-4.6174,1.0513-6.9536,1.0513-10.7009,0-21.3958-7.0129-26.7485-16.3704-5.0964-8.9092-7.0426-22.9026,1.5319-33.7021,5.7341-7.2219,14.4322-10.8247,22.783-10.8247M172.8275,656.2634c-11.9081,0-23.3528,5.4604-30.6147,14.6067-11.2651,14.1882-9.3126,32.7671-2.3804,44.8855,7.3235,12.803,21.5613,21.405,35.4286,21.405,3.4131,0,6.7615-.5085,9.952-1.5115,12.9747-4.0776,19.2546-14.7827,21.3524-19.196,5.0853-10.6985,5.2653-24.6628.4697-36.4434-4.2031-10.3252-11.787-17.9583-21.3548-21.4932-4.0464-1.4951-8.3708-2.2532-12.8528-2.2532h0Z"/>
      </g>
      <g>
        <path class="cls-4" d="M84.821,623.6562c-10.0293-.001-22.7627-3.7051-34.0625-9.9092-15.3711-8.4395-26.1074-17.1577-33.7881-27.437-9.9707-13.3423-13.9844-29.0947-11.0137-43.2178,6.1396-29.1904,38.1592-41.9707,51.6406-46.1108,3.0723-.9434,6.7197-1.9072,10.4844-1.9072,2.8135,0,5.4023.5522,7.6953,1.6416,8.3428,3.9648,10.6748,13.4917,12.2178,19.7959,1.6123,6.5894,3.457,13.2139,5.4834,19.6895,2.8135,8.9883,6.0547,17.9492,9.6338,26.6328.3525.856.709,1.7129,1.0664,2.5723,4.0166,9.6479,8.1699,19.624,7.8691,30.6118-.4814,17.5645-10.4053,27.6382-27.2246,27.6382h-.002Z"/>
        <path class="cls-1" d="M68.0809,500.074c1.9197,0,3.7969.3252,5.5497,1.158,5.9319,2.8186,7.9467,10.0896,9.5078,16.4688,1.6447,6.7212,3.5023,13.3901,5.5687,19.9937,2.8637,9.1521,6.1282,18.1787,9.782,27.0452,4.135,10.0339,8.8577,20.2932,8.5601,31.1416-.47,17.1333-10.306,22.7749-22.2282,22.7749-10.6127,0-22.879-4.4729-31.6558-9.2915-12.1929-6.6946-23.8636-14.9043-32.1898-26.0469-8.3263-11.1428-12.989-25.584-10.1259-39.196,4.6241-21.9844,26.7402-35.7654,48.2159-42.3604,2.9028-.8914,6.0115-1.6873,9.0156-1.6873M68.0809,490.074c-4.4257,0-8.525,1.0757-11.9512,2.1279-30.2864,9.3005-50.3572,27.4744-55.0661,49.8613-3.2662,15.5288,1.0715,32.7473,11.9012,47.2402,8.1233,10.8711,19.3679,20.031,35.3875,28.8267,12.0049,6.5911,25.6379,10.5259,36.4686,10.5259,19.6197,0,31.6662-12.1497,32.2245-32.5007.3307-12.0588-4.2286-23.0105-8.2513-32.6729-.355-.8528-.7094-1.7039-1.0594-2.5532-3.5266-8.5576-6.7175-17.3796-9.484-26.2212-1.9955-6.377-3.8119-12.8987-5.399-19.3843-1.6603-6.7844-4.439-18.1394-14.9294-23.124-2.9686-1.4104-6.2797-2.1257-9.8414-2.1257h0Z"/>
      </g>
      <g>
        <path class="cls-2" d="M373.7361,499.0449c-13.5693.001-28.1172-7.293-33.7422-10.4287-6.9023-3.8301-9.5967-6.7148-11.9736-9.2598-2.6328-2.8193-4.9062-5.2539-11.0225-7.3218-3.7373-1.2617-7.3779-1.875-11.1309-1.875-4.874,0-9.0986,1.0244-13.1855,2.0151-3.6611.8877-7.1191,1.7266-10.7314,1.7266-2.9805,0-5.8418-.5874-8.7471-1.7964-12.8691-5.3496-18.2734-19.2456-18.8467-20.8125-1.7217-4.729-1.4775-7.3691-1.1396-11.0234.3291-3.5605.7383-7.9917-.7949-15.1797-1.1582-5.4438-2.5098-8.0669-4.75-12.4131-1.9443-3.7729-4.6084-8.9404-8.708-18.7925-4.4658-10.7266-6.4609-15.6782-6.9551-20.6504-1.0605-10.6909,1.9727-19.7134,3.874-24.1401,2.0693-4.8379,3.876-6.9312,5.79-9.1475,2.0732-2.4014,4.2168-4.8843,6.4902-10.3096,2.5508-6.084,2.8457-10.1758,3.1309-14.1333.2373-3.2935.4834-6.6992,2.0732-11.686.04-.1274.084-.2515.1279-.3682l.0391-.1113c2.7109-8.251,6.874-13.6372,12.6357-21.0923,5.8896-7.6152,10.0654-11.0688,14.1025-14.4092,4.2832-3.5435,8.3291-6.8906,13.6211-14.3662,4.1797-5.9038,5.8643-9.751,7.2178-12.8423,1.4277-3.2612,2.29-5.2295,5.5967-8.0571,8.8867-7.5967,20.2705-8.5708,29.1953-8.5708l1.6035.0059c8.3887.0513,12.5322,1.6118,17.3291,3.4189,4.5879,1.728,9.7871,3.6865,19.2139,4.7461,3.2588.3672,6.2617.5459,9.1797.5459,5.7891,0,9.9238-.709,13.5723-1.3345,2.6631-.4565,4.9629-.8511,7.3613-.8511,2.5947,0,5.1807.4761,8.1377,1.498,6.0449,2.0869,8.3301,4.6255,12.1172,8.832,2.8594,3.1768,6.418,7.1304,12.6709,12.1479,1.3477,1.0854,2.6895,2.1206,4.0977,3.1597,9.001,6.6323,14.8545,9.2163,20.0176,11.4961,5.4453,2.4038,10.1475,4.4795,17.6816,10.8896,8.0479,6.8447,18.0625,15.3633,21.5654,29.1899,2.3516,9.2803,1.0693,18.4268-.0615,26.4966-.6777,4.8608-1.5166,8.1724-2.3271,11.375-1.0996,4.3413-2.1377,8.4414-2.7246,15.6689-.4248,5.2109-.2607,7.8433-.1025,10.3892.1387,2.2231.2812,4.522.0166,8.8335-.5498,8.9399-1.2314,20.043-6.8174,30.5205-3.3223,6.2266-6.4346,8.6479-9.7285,11.2124-3.6816,2.8657-7.4893,5.8291-10.8359,13.5483-1.7852,4.1157-2.3955,7.2065-2.9863,10.1958-.6982,3.5396-1.4219,7.1997-4.1621,13.2983-2.9639,6.5903-4.749,10.5605-8.6221,14.498-6.6484,6.7446-16.6816,10.5825-29.8174,11.4048-1.1299.0723-2.2119.1074-3.3125.1074-1.8057,0-3.3232-.0942-4.79-.1851-1.2812-.0796-2.4912-.1548-3.7393-.1548-2.9111,0-5.4072.4209-8.3467,1.4077-5.1338,1.7183-7.7197,3.9097-10.2207,6.0288-1.4199,1.2031-2.7617,2.3398-4.6211,3.4087-3.75,2.1543-8.2969,3.2466-13.5156,3.2466Z"/>
        <path class="cls-3" d="M335.9005,226.9121c.566,0,1.0997.0029,1.6108.0059,7.8448.0481,11.575,1.4531,16.2975,3.2319,4.7472,1.7883,10.1278,3.8149,19.9137,4.9148,3.3694.3796,6.479.5645,9.5066.5645,6.0374,0,10.4883-.7632,14.0646-1.3765,2.6365-.4519,4.7189-.8091,6.8698-.8091,2.2916,0,4.5077.4128,7.1875,1.3389,5.333,1.8408,7.1941,3.9082,10.9017,8.0269,2.9301,3.2549,6.5765,7.3057,13.0013,12.4609,1.3573,1.0952,2.772,2.186,4.2064,3.2441,9.2577,6.821,15.2665,9.4741,20.5679,11.8147,5.4523,2.4072,9.7588,4.3083,16.9706,10.4431,7.7319,6.5779,17.3545,14.7644,20.6283,27.6875,2.2107,8.7239,1.0248,17.1899-.1227,25.3811-.6553,4.7004-1.4377,7.7898-2.2661,11.0605-1.0806,4.2661-2.198,8.6772-2.8038,16.1453-.4419,5.4207-.2716,8.1594-.1068,10.8079.1388,2.2332.27,4.3423.0156,8.4866-.5304,8.6414-1.1904,19.3958-6.4779,29.3145-3.0314,5.6807-5.7733,7.8147-8.9482,10.2856-3.786,2.9468-8.0773,6.2866-11.719,14.6873-1.9104,4.4041-2.5516,7.6511-3.1718,10.7915-.6981,3.5349-1.3575,6.8738-3.9663,12.6794-2.8252,6.2817-4.5305,10.0732-8.032,13.6343-6.1327,6.2202-15.5292,9.7683-27.9353,10.5454-1.0638.0681-2.0856.1011-3.1238.1011-1.7161,0-3.187-.0913-4.6097-.1794-1.3275-.0825-2.5814-.1602-3.9197-.1602-3.201,0-6.061.4807-9.2681,1.5574-5.668,1.897-8.5975,4.3796-11.1823,6.5701-1.3733,1.1636-2.5592,2.1687-4.1882,3.1047-3.3032,1.8977-7.3623,2.8599-12.0645,2.8599-12.8881,0-26.8983-7.0356-32.3342-10.0664-6.4957-3.6042-9.0231-6.3103-11.2531-8.698-2.6586-2.8464-5.4076-5.7898-12.2205-8.0933-4.0404-1.3643-7.9857-2.0276-12.0616-2.0278-5.2227-.0005-9.8182,1.114-13.8728,2.0974-3.4872.8457-6.7809,1.6445-10.0446,1.6445-2.6257,0-5.0496-.5-7.6302-1.574-11.7228-4.8733-16.6996-17.6802-17.2246-19.1138-1.4998-4.1206-1.3036-6.2451-.9784-9.7646.3472-3.7576.7793-8.4336-.8459-16.0518-1.2393-5.8274-2.6586-8.5813-5.0103-13.1438-1.9218-3.7283-4.5536-8.8347-8.6083-18.5771-4.3503-10.4487-6.2927-15.26-6.7449-19.8176-.9964-10.0415,1.8602-18.5339,3.6559-22.7124,1.8889-4.418,3.4761-6.2561,5.3137-8.3848,2.1184-2.4539,4.5195-5.2349,6.9716-11.0864,2.7355-6.5244,3.048-10.8582,3.3501-15.0493.2356-3.2678.4581-6.354,1.9543-11.0464.0197-.063.0442-.1296.0677-.1924l.0425-.113.0377-.1147c2.5551-7.7747,6.381-12.7251,12.1973-20.251,5.6677-7.3279,9.7161-10.677,13.6311-13.916,4.2408-3.5083,8.6261-7.1365,14.1421-14.9275,4.3508-6.1462,6.1758-10.314,7.5084-13.3569,1.3883-3.1707,2.022-4.6179,4.8207-7.011,8.1622-6.9775,18.8771-7.8723,27.3-7.8723M335.9005,221.0867c-7.5969,0-20.8767.5427-31.0853,9.2698-7.1022,6.073-4.6421,9.2019-13.2985,21.4302-10.0563,14.2041-15.3983,12.8352-27.6265,28.6453-5.9185,7.658-10.2517,13.2573-13.1235,21.9961-.0618.1646-.1235.3396-.1749.5044-3.6334,11.3943-.6793,14.9968-5.1156,25.5779-4.2098,10.0461-7.8021,8.9858-12.2693,19.4333-1.6057,3.7363-5.2905,13.5454-4.0966,25.5779.5455,5.4966,2.7585,10.9004,7.1639,21.4814,8.9446,21.4917,11.2914,21.2551,13.2985,30.6936,2.9644,13.8955-1.7395,16.1909,2.0483,26.5972.5353,1.4617,6.2993,16.6128,20.4624,22.5005,3.5627,1.4827,6.7958,2.02,9.8665,2.02,8.1007,0,15.0623-3.7424,23.917-3.7417,3.1198.0002,6.4766.4648,10.1985,1.7217,10.7458,3.6333,7.7815,8.1931,22.5107,16.3657,3.0201,1.6838,19.4224,10.7981,35.1605,10.7981,5.2341,0,10.3964-1.0088,14.9663-3.634,5.4449-3.1292,6.8448-6.7009,14.3175-9.2019,2.9567-.9924,5.1957-1.2563,7.4191-1.2561,2.5229,0,5.0244.3396,8.5295.3396,1.0627,0,2.219-.0312,3.4948-.1128,4.7657-.2986,20.9154-1.3176,31.7126-12.2693,4.2407-4.3127,6.2068-8.6873,9.202-15.3469,5.2494-11.6824,3.4893-15.0586,7.1639-23.5298,5.939-13.7,13.0309-10.6223,20.4624-24.5486,5.8876-11.0444,6.5978-22.655,7.1537-31.7126.5763-9.3872-.7-9.5725.0822-19.1655,1.0088-12.4341,3.438-15.4292,5.0334-26.875,1.1938-8.5227,2.4805-17.8274,0-27.6162-3.7262-14.7085-14.225-23.6531-22.5005-30.6936-15.1616-12.897-19.7111-9.1401-37.8577-22.5107-1.4513-1.0703-2.7791-2.0996-4.0039-3.0879-14.5852-11.7031-14.0911-17.467-25.6604-21.4607-3.5618-1.231-6.4229-1.6577-9.0887-1.6577-6.0322.0002-11.0608,2.1855-20.9338,2.1855-2.584,0-5.5017-.1499-8.854-.5278-19.1449-2.1514-19.9478-8.0801-36.8282-8.1831-.5126-.0029-1.0627-.0061-1.6464-.0061h0Z"/>
      </g>
      <circle class="cls-5" cx="168.9222" cy="395.0225" r="14.9723"/>
      <circle class="cls-5" cx="200.0684" cy="76.0088" r="21.1863"/>
      <circle class="cls-5" cx="389.7424" cy="525.6168" r="21.1863"/>
      <circle class="cls-5" cx="200.0684" cy="254.7185" r="7.4862"/>
      <circle class="cls-5" cx="41.1069" cy="551.5493" r="7.4862"/>
      <circle class="cls-5" cx="573.9363" cy="525.0763" r="7.4862"/>
      <circle class="cls-5" cx="581.4225" cy="62.3009" r="17.0518"/>
      <circle class="cls-5" cx="468.6008" cy="569.9338" r="10.5687"/>
      <circle class="cls-5" cx="398.1106" cy="757.5124" r="10.5687"/>
      <circle class="cls-5" cx="581.4225" cy="685.0808" r="10.5687"/>
      <circle class="cls-5" cx="501.7171" cy="525.0763" r="12.9662"/>
      <circle class="cls-5" cx="697.2288" cy="208.4957" r="12.9662"/>
      <circle class="cls-5" cx="547.1595" cy="311.7216" r="12.9662"/>
      <circle class="cls-5" cx="256.7973" cy="207.3472" r="9.9898"/>
      <circle class="cls-5" cx="618.7022" cy="350.3395" r="8.5733"/>
      <circle class="cls-5" cx="200.0684" cy="538.5831" r="12.9662"/>
      <circle class="cls-5" cx="445.0659" cy="174.3702" r="12.9662"/>
      <circle class="cls-5" cx="513.519" cy="193.8196" r="6.4831"/>
      <circle class="cls-5" cx="351.6551" cy="669.7162" r="6.4831"/>
      <circle class="cls-5" cx="351.6551" cy="170.5161" r="12.9662"/>
      <circle class="cls-5" cx="84.5212" cy="358.9128" r="27.11"/>
      <circle class="cls-5" cx="597.3997" cy="430.6033" r="23.0273"/>
      <circle class="cls-5" cx="200.0684" cy="459.3831" r="23.0273"/>
      <circle class="cls-5" cx="356.1904" cy="609.705" r="25.9325"/>
      <circle class="cls-5" cx="75.363" cy="187.3365" r="25.9325"/>
    </g>
  </g>
</svg>