<?xml version="1.0" encoding="UTF-8"?>
<svg id="Capa_2" xmlns="http://www.w3.org/2000/svg" viewBox="0 0 795.1437 812.8647">
  <defs>
    <style>
      .cls-1 {
        fill: #898686;
      }

      .cls-2 {
        fill: #a3a2a2;
      }

      .cls-3 {
        fill: #c4c2c2;
      }

      .cls-4 {
        fill: #938989;
      }

      .cls-5 {
        fill: #847a7a;
      }
    </style>
  </defs>
  <g id="Capa_1-2" data-name="Capa_1">
    <g>
      <g>
        <path class="cls-3" d="M574.6279,736.758c-10.9961,0-21.1201-2.1562-28.5078-6.0703-15.4609-8.1963-20.0615-27.3125-24.1191-44.1787-1.6094-6.6865-3.1289-13.0029-5.1904-18.4922-5.2988-14.1123-15.6855-24.4883-26.5469-33.4746-10.0947,6.459-16.5713,9.251-21.3232,9.252-.1494,0-.2959-.0029-.4414-.0078-.2002-.0078-.3994-.0117-.5947-.0117-4.6768,0-7.3838,1.9717-13.5977,6.8281-4.459,3.4854-10.0088,7.8242-18.4404,12.4746-7.126,3.9326-23.8154,13.1436-45.0088,14.4033-.9736.0576-1.9795.0869-2.9883.0869-9.9521.001-21.6553-2.7969-42.9004-7.875-10.9414-2.6152-18.0195-4.6318-22.7031-5.9658-4.8779-1.3887-7.3262-2.0859-9.1113-2.0859-.7344,0-1.5098.1143-2.5947.3818-6.4717,1.6104-9.5771,5.2119-14.2773,10.6631-4.8643,5.6406-10.917,12.6611-22.7168,19.457-6.9463,4.0029-17.4453,10.0537-26.7422,10.0547-3.499,0-6.5762-.8594-9.1455-2.5547-9.7539-6.4277-9.2354-21.7676-8.376-47.1826.1523-4.4707.3975-7.8115.5947-10.4961.4072-5.5508.5938-8.085-.4727-12.79-2.4277-10.7627-6.9141-18.5244-13.335-23.0752-4.2363-2.998-7.2949-3.1494-13.3887-3.4492-4.2549-.21-9.5508-.4707-16.8135-1.8359-12.2656-2.3154-28.9863-5.4717-42.3457-18.1357-.8701-.8291-21.0518-20.377-18.3818-45.5273.8945-8.4199,3.9512-13.0908,6.4072-16.8438,2.2705-3.4688,4.0635-6.208,4.2881-11.9238.1416-3.5986-.377-4.958-5.1406-16.2373-1.9854-4.7012-4.7051-11.1387-8.2803-19.9941-7.4346-18.4102-9.0605-23.4082-7.959-30.2471,1.0713-6.6719,3.8311-10.4072,6.2666-13.7041,2.0889-2.8281,3.7393-5.0615,4.46-9.3076,1.4229-8.3701-1.6338-20.2383-8.2939-23.8887-1.1689-.6406-2.2969-.9395-3.5479-.9395-2.8066,0-6.2314,1.5098-10.1973,3.2578-6.0557,2.6699-13.5928,5.9922-23.4551,5.9922-.6172,0-1.2422-.0127-1.8779-.04-18.0205-.7627-40.7744-12.9844-47.4473-34.1299-1.168-3.7061-1.7607-7.5605-1.7607-11.4551,0-.54.0107-1.0791.0332-1.6182.0195-.4453.0459-.876.0801-1.3105.0039-.1719.0166-.3428.0381-.5117.0322-.415.0762-.8262.1289-1.2422.0039-.0469.0088-.0928.0146-.1377.0498-.4219.1084-.8428.1758-1.2578.0205-.1953.0508-.3887.0918-.5801.0635-.3984.1309-.7959.2148-1.1934.0283-.1504.0693-.3535.1182-.5742.0186-.1006.041-.21.0693-.3291.0664-.3281.1416-.6553.2256-.9844.1719-.75.3857-1.5449.6709-2.4922.0781-.2656.167-.5557.2676-.8564.4756-1.5117,1.0771-3.123,1.7617-4.708.1162-.29.2412-.5713.3799-.8623,2.2588-5.0391,5.418-10.1348,9.3906-15.1475.3008-.3838.6182-.7783.9346-1.1606.5586-.6826,1.1328-1.3633,1.7188-2.0342.0137-.0151.0273-.0308.041-.0459.2012-.2368.4082-.4731.6133-.707l.3311-.3789.001.001c.0781-.0903.1592-.1787.2412-.2632.8408-.9351,1.6963-1.8525,2.6133-2.8008,6.0938-6.2939,11.5078-10.3501,12.5312-11.0991,7.0781-5.1855,18.917-13.8574,32.4775-13.8574,2.3066,0,4.5977.2539,6.8105.7549,9.2109,2.0845,14.8047,7.7676,19.7412,12.7812,5.2148,5.2983,8.6992,8.5454,14.3545,8.5454,8.0947-.0156,13.9619-6.6646,14.6045-7.4224,7.8975-9.3066,3.6943-22.665,3.6514-22.7988-1.2803-3.9629-2.9658-5.5864-5.2988-7.8335-2.5508-2.4575-5.7246-5.5161-8.332-11.6768-4.3848-10.3569-5.4307-25.3701,2.1162-35.5635,3.6299-4.9014,7.6104-6.5103,11.8242-8.2139,2.4287-.9819,4.9404-1.9971,8.0176-3.8281,8.3701-4.9839,15.3994-12.9419,20.8945-23.6572,3.4336-10.9307,3.4521-20.4424.0547-28.2764-2.7295-6.292-6.7432-9.292-13.3926-14.2622-5.1055-3.8159-11.459-8.5649-19.2559-16.3618-13.4531-13.4434-21.5605-21.5449-24.3359-34.6714-3.4893-16.5112,3.0635-34.4463,19.4756-53.3086,21.3271-24.4561,43.2627-29.5825,57.9131-29.5825,2.0205,0,4.0742.0972,6.1035.2896,26.9961,2.5459,43.4609,20.8335,47.8643,26.3779,14.9854,18.8198,16.3457,41.1021,16.4053,47.4829.0576,6.0493-.6562,10.6797-1.2295,14.4004-.8369,5.4292-1.2979,8.4199.7285,12.5562,3.626,7.4014,12.6777,13.188,22.0127,14.0728.7129.0674,1.3975.1021,2.0381.1021,4.1494,0,7.1514-1.4668,12.6006-4.1299,5.0879-2.4863,12.0566-5.8916,23.1611-9.5356,11.9141-3.9072,18.9688-6.1182,25.4238-6.1182,3.1172,0,5.9521.54,8.667,1.6509,6.1924,2.5273,8.9854,6.4116,11.6865,10.1675,2.3779,3.3086,4.8379,6.7295,10.4385,10.0801,2.6182,1.5742,9.5469,5.7412,17.7129,5.7412,1.1719,0,2.3389-.0884,3.4678-.2622,3.8359-.5928,5.7568-1.8994,8.665-3.8774,3.0752-2.0918,6.9033-4.6953,13.6572-6.6953,2.5527-.7549,8.498-2.5142,15.5586-2.5142,2.917,0,5.7451.3027,8.4053.8994,9.8789,2.2148,14.6582,7.8662,18.874,12.8521,3.3926,4.0122,6.5977,7.8022,12.6396,10.4048,4.0957,1.7661,8.6475,2.6606,13.5312,2.6606,7.0918,0,14.2861-1.9316,20.2588-5.4395,13.1533-7.7183,17.5977-21.374,19.0771-28.8276,1.8574-9.3843-.1602-15.0039-2.7158-22.1187-2.1523-5.9937-4.5918-12.7876-5.0342-22.6489-1.0371-23.3057,8.5254-53.4258,31.9717-64.4858,5.9717-2.8184,12.4805-4.2476,19.3447-4.2476,24.4277,0,46.4131,18.2144,48.8398,20.2915,22.5273,19.146,25.8691,37.061,24.7041,48.7158-1.5684,15.7295-11.752,26.4824-16.6465,31.6499-7.5439,7.9546-14.0605,11.0894-20.9609,14.4082-4.9902,2.3999-10.1504,4.8818-16.4775,9.5557-7.0654,5.2148-9.3174,8.9829-11.9258,13.3457-2.707,4.5269-5.7744,9.6577-14.1338,15.7695-4.4697,3.2695-8.3652,5.4502-11.4951,7.2026-5.4072,3.0273-7.3164,4.2144-8.0928,6.9751-1.749,6.2104,3.9131,14.3784,6.9561,18.7671,3.6777,5.3184,6.8174,7.627,9.5869,9.6641,1.1865.8726,2.3066,1.6968,3.3701,2.6753,2.3262,2.1636,3.7842,4.5669,4.6074,7.5811,2.0322,7.4253-1.0918,12.9844-3.8467,17.8887-2.4277,4.3208-4.5244,8.0518-3.6982,13.29.374,2.3721,1.3115,4.751,2.7891,7.0732l.2217.3354c.0527.0693.0977.1323.1465.2041,2.4033,3.564,5.5078,6.1597,7.3623,7.7109.333.2856.6162.5107.8984.7285.6504.5044,1.2178.9116,1.7402,1.2495.0303.02.0605.0396.0898.0601.248.168.5049.3267.7529.479.0234.0146.3105.188.4297.2627l.29.1626c.0947.0513.1885.106.2803.1631l.0566.0229c.1182.0591.2354.123.3486.1914l.123.0591c.0811.0405.1611.083.2402.1279l.0068-.0029c.0068.0029.1719.0796.207.0977,1.1191.5518,2.2725,1.0103,3.5264,1.4009,0,0,.6367.2007.6729.2119.0547.0137.6875.1958.6875.1958,0,0,.1992.0503.2529.0659.1777.0522.3633.1045.542.1489.0459.0117.0918.0239.1377.0366.5166.145,1.0312.271,1.5479.3975l.1777.0444c.252.0625.5078.127.7588.1968,1.3965.3442,2.5547.665,3.6396,1.0073.3311.1025.6904.2256,1.0361.3496.3145.1079.6406.2212.9668.3452.6592.2456,1.2793.5024,1.8662.7729.8965.4043,1.7285.8267,2.5049,1.2739.2939.1567.5967.332.8867.5098.0215.0127.1104.0684.1104.0684.3408.2114.6904.4341,1.0312.668.3701.2437.751.5083,1.1309.7847.3418.2476.7031.5239,1.0518.8013.3359.2554.7461.5918,1.1562.9414,5.0879,4.3296,6.6846,7.9678,8.0918,11.1772,1.1895,2.7109,2.3125,5.2715,6.0127,9.0259,5.2139,5.29,9.3408,6.6826,13.71,8.1567,4.4619,1.5059,9.5186,3.2124,14.3271,9.0117,2.3711,2.8613,4.6094,5.563,8.6006,40.9307,2.7021,23.916,2.3047,27.6768.5791,31.6592-3.3887,7.7832-8.9033,11.4492-13.335,14.3955-4.2305,2.8135-7.2881,4.8457-8.9102,9.708-2.1924,6.5537-.6182,15.2373,3.7412,20.6523,2.9756,3.6943,6.3047,4.625,10.5195,5.8027,4.5488,1.2715,10.21,2.8545,15.3096,8.4121,7.1318,7.7666,12.0322,22.4639,7.0635,34.4014-3.5693,8.5889-10.541,11.542-17.9229,14.6689-7.2148,3.0557-15.3936,6.5195-24.4404,15.9766-1.46,1.5244-2.4131,2.6504-3.7324,4.21-1.7812,2.1045-3.9971,4.7236-8.4844,9.5342-4.5352,4.8682-11.3916,12.2295-18.7236,18.7148-9.9248,8.79-16.5586,12.29-21.4023,14.8457-4.3818,2.3115-6.21,3.2754-8.1387,6.7432-.0322.0615-.1123.2139-.1191.2295-.9043,1.8711-.7881,5.3232-.665,8.9785.1475,4.4199.3154,9.4297-1.1289,14.3701-2.8115,9.5811-10.8145,15.6445-24.3975,18.4482,1.6572,3.0234,4.4941,6.8848,7.4941,8.2695,5.8447,2.7012,12.4863,4.6074,19.5166,6.625,8.1006,2.3252,16.4775,4.7295,24.0156,8.543,1.7139.8682,3.5205,1.7246,5.2686,2.5537,6.9014,3.2715,14.0381,6.6553,19.7393,12.4521,14.1855,14.4287,18.5596,45.8115,9,64.5762-7.873,15.4561-19.4189,20.4219-34.0361,26.709l-.1035.0439c-7.5098,3.2285-17.1768,5.0059-27.2188,5.0059Z"/>
        <path class="cls-1" d="M583.9426,10c22.6188-.0002,43.2559,17.0925,45.5883,19.0894,4.9301,4.19,25.2699,21.52,22.98,44.42-1.4,14.05-10.6801,23.83-15.3199,28.73-12.1201,12.78-21.22,11.88-36.76,23.36-15.65,11.55-10.8701,18.01-26.04,29.1-11.77,8.61-19.3,9.22-21.45,16.86-2.3801,8.45,4.02,17.72,7.6599,22.97,5.72,8.27,10.54,10.28,13.6801,13.17,1.4301,1.33,2.5199,2.84,3.17,5.22,3.0299,11.07-9.8201,16.95-7.6602,30.64.54,3.43,1.8901,6.44,3.53,9.01.1401.21.27.42.42.62,2.78,4.12,6.28,7.06,8.2999,8.75.3501.3.7001.58,1.05.85.71.55,1.4,1.05,2.0801,1.49.3099.21.6299.41.9399.6l.01.01c.1699.1.3401.2.51.31.01,0,.03.01.04.02.1399.08.28.16.4099.23.16.1.3201.18.48.26.1501.09.3101.17.4701.25.16.09.3199.16.47.23,1.4601.72,2.87,1.26,4.25,1.69l.5699.18c.1301.04.25.08.3801.11.21.06.4099.12.6199.18.04.01.0901.02.1301.03.24.07.49.14.73.2.5699.16,1.1399.3,1.71.44.28.0699.5701.14.85.22,1.14.28,2.27.58,3.41.94.29.09.58.19.86.29.2899.1.58.2.87.31.51.19,1.03.4,1.55.64.71.32,1.4399.68,2.1799,1.11.23.12.47.26.7.4.03.02.05.03.0801.05.29.18.59.37.88.57.3199.21.65.44.98.68.2899.21.59.44.88.67.3401.26.6799.54,1.02.83,8.3101,7.07,4.96,10.95,13.79,19.91,11.73,11.9,19.6899,7.13,27.75,16.85,1.6899,2.04,3.74,5.15,7.48,38.3,2.7,23.9,2.1,26.48.96,29.11-5.6899,13.0701-18.14,11.74-22.4,24.51-2.7799,8.3101-.7799,18.7,4.59,25.37,7.79,9.67,17.5801,5.24,26.04,14.46,6.4,6.9701,10.0801,19.6101,6.13,29.1001-5.66,13.62-22.14,9.0199-41.36,29.11-3.61,3.77-4.49,5.4601-12.26,13.7899-4.49,4.8201-11.28,12.1001-18.38,18.3801-18.98,16.8099-25.3199,13.34-30.64,22.98-.0699.1399-.1499.27-.21.4099-2.8201,5.8401.3999,15.6001-2.0901,24.1201-2.1099,7.1899-8.2899,13.5-25.6599,15.7999-2.02.26,3.79,13.3199,11.46,16.86,13.1801,6.0901,29.95,8.3,43.3701,15.0901,8.24,4.1699,17.23,7.47,23.7,14.0499,12.8999,13.12,16.46,42.41,8.11,58.8-7.0699,13.88-17.36,18.2799-31.66,24.4301-6.9839,3.0013-16.1205,4.5978-25.2427,4.5978-9.5692,0-19.1227-1.7556-26.1672-5.4879-18.9202-10.03-19.4401-39.96-26.9701-60.01-5.98-15.9299-17.7699-27.3499-30.9-37.8999-8.9731,5.9592-16.9351,10.4346-21.6511,10.4346-.0876,0-.1735-.0015-.2588-.0046-.2627-.0095-.5222-.0142-.777-.0142-11.2754-.0006-15.0222,9.2062-34.453,19.9242-7.3201,4.0399-23.2101,12.62-42.8901,13.7899-.882.0525-1.778.0785-2.6921.0785-9.3589,0-20.7754-2.7279-41.7378-7.7384-23.0342-5.5059-28.2858-8.1884-32.9758-8.1884-1.2045-.0001-2.3719.1769-3.7942.5283-15.72,3.91-15.7,17.63-38.29,30.64-6.3138,3.6388-16.302,9.3881-24.2483,9.3881-2.361,0-4.5408-.5072-6.3916-1.728-7.42-4.89-6.92-19.52-6.1301-42.89.4601-13.5,1.8101-16.52,0-24.51-.8999-3.99-4.0898-18.09-15.3199-26.05-8.9301-6.3199-14.5099-2.7999-32.17-6.1199-11.9199-2.25-27.52-5.1801-39.83-16.8501-.85-.8101-19.25-18.76-16.85-41.37,1.5601-14.6801,10.1699-15.13,10.72-29.1.27-6.86-1.73-8.4501-13.78-38.3-7.52-18.62-8.5-22.36-7.6599-27.58,1.75-10.9,8.87-12.0801,10.72-22.97,1.74-10.2401-1.99-24.27-10.8201-29.1101-2.0134-1.1025-3.9764-1.5542-5.9514-1.5544-8.9406-.0009-18.152,9.25-33.6522,9.25-.5479,0-1.1025-.0116-1.6664-.0355-17.24-.73-37.2699-12.83-42.8899-30.64-1.0601-3.36-1.53-6.6899-1.53-9.95,0-.47.01-.9401.03-1.41s.05-.9299.09-1.4q-.01-.01,0-.02c.03-.46.08-.9099.14-1.37v-.0299c.05-.42.11-.8401.1799-1.25,0-.0701.01-.14.03-.2001.0601-.38.1201-.76.2-1.14.04-.21.0801-.4099.1301-.62.01-.0599.02-.13.04-.1899.0599-.3101.1299-.62.21-.9301.1699-.7499.3799-1.4999.6-2.23.0699-.24.14-.47.22-.71.4701-1.49,1.02-2.95,1.64-4.38.0901-.23.1899-.45.3-.68,2.3099-5.17,5.45-9.95,8.77-14.14.2899-.37.58-.73.8699-1.08.54-.66,1.0801-1.3,1.6301-1.93q.01-.01.02-.02c.3198-.38.6599-.76.98-1.13.02-.03.0499-.05.08-.08.87-.97,1.73-1.89,2.59-2.78,5.8-5.99,10.9199-9.83,11.89-10.54,6.7821-4.9677,17.5957-12.8917,29.5242-12.8917,1.8784,0,3.7834.1963,5.7058.6317,16.3359,3.6968,19.8546,21.4501,35.2012,21.4501.0132,0,.0258,0,.0388,0,10.38-.02,17.4901-8.14,18.38-9.19,9.5801-11.29,4.88-26.69,4.5901-27.58-3.25-10.06-9.26-9.23-13.78-19.91-3.8401-9.07-4.77-22.13,1.53-30.64,4.5399-6.13,9.5399-5.46,18.3799-10.72,6.8201-4.06,15.5801-11.45,22.98-26.05,2.7101-8.46,5-20.64,0-32.17-5.6099-12.93-15.7-14.17-33.7-32.17-12.9099-12.9-20.51-20.49-22.98-32.17-4.75-22.48,13.15-43.01,18.38-49.02,4.5588-5.2275,24.2751-27.837,54.1174-27.837,1.8409,0,3.7157.0858,5.6326.267,26.4,2.49,41.9501,21.4,44.42,24.51,14.77,18.55,15.29,41.18,15.3199,44.42.14,14.5-4.4401,20.03.01,29.11,4.6,9.39,15.58,15.86,26.0299,16.85.881.0837,1.7139.1243,2.5096.1243,9.9435,0,14.21-6.3312,37.3204-13.9144,10.916-3.5799,18.0581-5.8687,23.8647-5.8687,2.4331,0,4.6315.4017,6.7753,1.2787,9.85,4.02,8.63,12.24,21.4501,19.91,2.8907,1.738,10.7701,6.4507,20.2803,6.4507,1.3792,0,2.7924-.0991,4.2297-.3207,9.71-1.5,10.72-7.09,22.98-10.72,2.3959-.7086,7.7913-2.3083,14.1384-2.3083,2.342,0,4.813.2177,7.3115.7783,15.48,3.47,15.3999,16.41,30.63,22.97,4.8516,2.0918,10.1655,3.0686,15.5093,3.0686,8.0167,0,16.1002-2.1984,22.7906-6.1286,17.0601-10.01,20.77-28.7401,21.4501-32.17,3.7899-19.14-6.7301-25.21-7.66-45.96-.84-18.87,6.3-48.98,29.11-59.74,5.6888-2.6844,11.5134-3.7694,17.2118-3.7694M583.9429,0h-.0005c-7.6073,0-14.834,1.59-21.4791,4.7257-12.4963,5.8947-22.3276,17.0057-28.4299,32.131-4.6099,11.426-6.9435,24.9475-6.4027,37.0974.476,10.6191,3.1641,18.1038,5.3239,24.1177,2.4723,6.8837,4.1056,11.4312,2.5167,19.4552-1.3145,6.6301-5.2321,18.7579-16.7013,25.4874-5.2196,3.0663-11.5146,4.7535-17.7299,4.7535-4.14,0-8.1339-.7786-11.55-2.2514-4.9651-2.1385-7.5414-5.1854-10.8031-9.0427-4.4906-5.3107-10.0793-11.9202-21.5989-14.5024-3.0175-.6769-6.214-1.0204-9.4988-1.0204-7.7812,0-14.2128,1.9021-16.9592,2.7144-7.5203,2.2267-11.8827,5.194-15.0681,7.3607-2.675,1.8196-3.896,2.65-6.6177,3.0705-.8748.1349-1.7852.2036-2.7031.2036-6.7762,0-12.8436-3.6478-15.1277-5.0211-4.7297-2.8297-6.6919-5.5587-8.9641-8.7189-2.8213-3.9238-6.3325-8.8074-13.86-11.8794-3.3198-1.3582-6.7747-2.0201-10.5538-2.0201-7.5674,0-15.7104,2.6705-26.981,6.3666-11.4332,3.7515-18.5803,7.2443-23.7991,9.7946-5.507,2.6912-7.5564,3.6219-10.4052,3.6219-.4827,0-1.0085-.0267-1.5632-.0794-7.5746-.7177-15.1415-5.4674-17.996-11.2943-1.2798-2.6111-1.0997-4.2641-.278-9.5948.6013-3.9003,1.3495-8.7542,1.2871-15.2125-.0624-6.7793-1.5092-30.4736-17.4965-50.5524-4.7064-5.926-22.3387-25.5049-51.304-28.2368-2.183-.2065-4.3948-.3113-6.5717-.3113-15.6881,0-39.119,5.424-61.6536,31.2639-2.7772,3.1915-9.2119,10.5856-14.2844,20.324-6.7186,12.8984-8.8528,25.4603-6.3434,37.3365,3.0837,14.5822,12.0723,23.5638,25.6783,37.1593,8.0657,8.0657,14.579,12.9341,19.8125,16.846,6.8274,5.1031,9.6824,7.3687,11.7992,12.2476,2.8646,6.6056,2.8264,14.8059-.1121,24.3821-5.0297,9.6749-11.3552,16.8275-18.8093,21.265-2.7468,1.6345-5.0781,2.5768-7.3326,3.4882-4.4532,1.8002-9.5005,3.8406-13.968,9.8728-9.3191,12.5881-7.28,29.6792-2.7028,40.4905,3.0055,7.1014,6.7404,10.6996,9.4675,13.3271,2.2029,2.1222,3.1146,3.0007,4.0054,5.7582.0305.0978,3.3191,10.9434-2.6991,18.0359-.1992.235-4.8552,5.6486-10.7744,5.66-3.5364,0-5.7725-1.9343-10.8118-7.053-5.15-5.2314-11.5594-11.742-22.2017-14.1504-2.5732-.5826-5.2361-.8782-7.9131-.8782-15.1951,0-27.8596,9.2767-35.4265,14.8193-1.0836.793-6.7942,5.0698-13.1718,11.6561-.9213.9536-1.7837,1.8765-2.6346,2.8196-.1748.1795-.3418.364-.5015.5543l-.2222.2546c-.2043.2335-.4103.4692-.6115.7052-.0166.0186-.033.0373-.0493.056-.6104.6991-1.2061,1.4042-1.8208,2.155-.3368.4071-.6738.8255-1.0107,1.2552-4.207,5.3146-7.5665,10.7401-9.9861,16.1269-.1719.3641-.3186.697-.4524,1.0267-.7323,1.7014-1.3785,3.4316-1.9224,5.1472-.1045.3172-.1989.6245-.292.9426-.3054,1.0157-.54,1.8865-.7333,2.723-.0898.3569-.1725.7183-.2468,1.0791-.0327.1411-.0602.2725-.0834.3928-.0485.2194-.0927.4362-.1355.6584-.0927.451-.163.8647-.2211,1.225-.0522.2639-.0945.5299-.1266.7976-.0693.4397-.1316.8904-.1857,1.3448-.0077.0642-.0148.1285-.0211.1929-.0781.6312-.1321,1.1896-.1678,1.7382-.0454.5596-.079,1.0999-.1022,1.6459-.0259.6089-.0391,1.2262-.0391,1.8352,0,4.4066.6708,8.7666,1.9934,12.959,7.358,23.3179,32.2852,36.7871,52.0034,37.6221.6951.0294,1.3982.0443,2.0896.0443,10.9154,0,19.3287-3.7089,25.472-6.417,3.3048-1.457,6.4265-2.8331,8.179-2.8329.3517,0,.6526.0533,1.1497.3256,4.1234,2.2601,6.9805,11.5059,5.7643,18.6638-.522,3.0719-1.5986,4.5294-3.5533,7.1755-2.4973,3.3804-5.9172,8.01-7.1815,15.8844-1.2925,8.0308.5287,13.7644,8.2611,32.91,3.5898,8.8928,6.3184,15.3527,8.3104,20.0695,4.7173,11.1688,4.8435,11.7091,4.7498,14.0924-.1707,4.3331-1.275,6.0208-3.4753,9.3827-2.6056,3.9816-6.1742,9.4342-7.1964,19.0538-2.8767,27.101,17.5555,47.436,19.8948,49.6655,14.4447,13.694,32.0002,17.0077,44.8187,19.4274l.0555.0105c7.6068,1.4299,13.0922,1.7003,17.4995,1.9176,6.1019.3007,7.8188.465,10.7487,2.5383,5.3776,3.8118,9.1954,10.5717,11.3417,20.0875.9033,3.9875.7566,5.9866.3643,11.3291-.2002,2.728-.4495,6.1232-.6035,10.6403l-.0017.0537c-.412,12.1892-.7374,21.817.0316,29.6542.6708,6.835,2.4985,16.5389,10.5917,21.8724,3.3969,2.241,7.4,3.3783,11.8944,3.3783,10.6339,0,21.8317-6.4535,29.2416-10.724,12.5327-7.2178,19.1632-14.9075,24.0048-20.5223,4.8143-5.5835,6.9574-7.8964,11.7058-9.0774.8423-.2083,1.1919-.2327,1.3804-.2327,1.0873,0,3.8781.7948,7.7408,1.8949,4.7247,1.3457,11.8649,3.3793,22.9102,6.0194,21.6146,5.1665,33.5211,8.0125,44.0626,8.0125,1.1072,0,2.2126-.0323,3.286-.0962,22.3226-1.3269,40.3439-11.2728,47.1281-15.0171,8.78-4.843,14.7469-9.5073,19.1038-12.9131,5.9789-4.6738,7.6663-5.7664,10.5168-5.7662.1365,0,.2749.0026.415.0076.2081.0074.4125.0112.6213.0112,5.3387,0,11.4844-2.3284,20.89-8.0771,9.2869,7.9962,17.8412,17.1815,22.2991,29.057,1.9537,5.2023,3.4388,11.3735,5.011,17.9072,4.3057,17.8925,9.1857,38.172,26.6372,47.4236,8.0984,4.2904,19.0541,6.6526,30.8512,6.6526,10.7061,0,21.0731-1.9214,29.1912-5.4103l.1028-.0442c14.931-6.4214,27.8258-11.9672,36.5194-29.0345,4.9169-9.6515,6.709-22.9475,4.9164-36.4784-1.8574-14.0205-7.1157-26.0496-14.8064-33.8715-6.3229-6.4304-14.2057-10.1676-21.1606-13.4647-1.799-.8529-3.4979-1.6584-5.1545-2.4967-7.9612-4.0281-16.5686-6.4987-24.8926-8.8878-6.8414-1.9637-13.3035-3.8185-18.7982-6.3575-.3657-.1687-.7659-.4531-1.1813-.8197,11.14-3.7971,17.9767-10.3873,20.7819-19.9467,1.6719-5.7205,1.4818-11.3933,1.3291-15.9514-.0748-2.2358-.1876-5.6019.1804-6.6516.0012-.0022.0023-.0044.0035-.0066,1.1182-2.0037,1.7876-2.4414,6.0742-4.7029,4.7826-2.5232,12.0101-6.3362,22.3876-15.5271,7.5068-6.6401,14.4636-14.1084,19.0671-19.0504,4.5677-4.8967,6.8279-7.5675,8.6438-9.7135,1.2609-1.4901,2.1719-2.5665,3.5217-3.9762,8.3378-8.7152,16.0111-11.9655,22.7814-14.833,7.61-3.2233,16.2354-6.8766,20.5902-17.3556,5.8262-13.9976.3868-30.5687-7.9984-39.701-6.0624-6.6069-12.7577-8.4785-17.6464-9.8451-4.2684-1.1931-6.0762-1.7712-7.9723-4.125-3.3101-4.1115-4.5551-10.9583-2.8938-15.9238,1.0375-3.1101,2.8766-4.4346,6.9381-7.1348,4.7153-3.1349,11.1733-7.4283,15.1472-16.5562,2.2949-5.2944,2.5281-10.1473-.192-34.2242-3.9562-35.0666-6.2695-39.3966-9.7161-43.5569-5.7173-6.8948-11.741-8.9276-16.5811-10.5609-4.1166-1.3892-7.3682-2.4863-11.7479-6.9296-3.0524-3.0973-3.8668-4.9541-4.9941-7.5241-1.5442-3.5205-3.4659-7.9018-9.4376-12.9824-.491-.4186-.9255-.7725-1.3533-1.1017-.4048-.3196-.7948-.6155-1.16-.88-.4254-.3095-.8556-.6086-1.2676-.8813-.4414-.3011-.8567-.5629-1.1766-.7614-.0137-.0086-.0273-.0171-.0409-.0255-.0405-.0255-.0813-.0507-.1223-.0756-.3743-.2279-.7207-.4276-1.0521-.6063-.8917-.5101-1.8335-.9882-2.8708-1.4572-.6851-.3151-1.4003-.611-2.184-.9037-.3611-.1365-.7217-.2627-1.0825-.3873-.3933-.1399-.7998-.2782-1.2058-.4041-1.1221-.3545-2.3583-.6976-3.8364-1.0633-.2771-.0759-.5582-.1471-.8354-.216l-.1267-.0315c-.5046-.124-.9689-.2363-1.4329-.3665-.092-.0259-.1844-.0504-.2771-.0735-.1169-.0293-.2385-.0645-.3555-.0986-.1241-.0362-.2491-.0699-.3745-.1014-.0038-.0009-.0076-.0019-.0114-.0028l-.043-.0125-.3739-.1086c-.052-.0148-.1041-.0292-.1562-.0432l-.5291-.1671c-1.0389-.3238-1.9554-.6874-2.839-1.123-.0643-.0318-.129-.0629-.1941-.0932l-.0713-.033c-.0516-.0269-.1034-.0534-.1554-.0794l-.0138-.0069c-.1342-.076-.27-.1489-.4075-.2185-.0848-.049-.1704-.0968-.2567-.1433l-.1152-.0654c-.0907-.0558-.1815-.1107-.2722-.1649-.0341-.0215-.0682-.0427-.1025-.0637-.183-.112-.3728-.2283-.5558-.3522-.0582-.0394-.1169-.0783-.1759-.1165-.4004-.2592-.8546-.5861-1.3887-.9999-.2744-.2118-.4817-.3792-.6672-.5381-.0298-.0256-.0597-.0508-.0897-.0759-1.6527-1.3829-4.4191-3.6974-6.4275-6.6738-.0627-.0931-.1272-.1851-.1931-.2761l-.0319-.0485-.0856-.13c-1.1117-1.7536-1.7826-3.4346-2.0507-5.1373-.5316-3.3695.7034-5.7682,3.1172-10.0645,2.9055-5.1711,6.8848-12.2531,4.3098-21.6604-1.0782-3.9473-2.9867-7.0954-6.0049-9.9025-.0127-.0118-.0254-.0236-.0382-.0354-1.2655-1.1647-2.5507-2.1101-3.7936-3.0244-2.5736-1.8929-5.2346-3.8503-8.4341-8.4761-2.2097-3.1871-7.3693-10.6288-6.259-14.5704.2203-.783,1.5538-1.6347,5.7236-3.9693,3.2476-1.8182,7.2892-4.0811,12.0051-7.5308,9.1769-6.7088,12.6671-12.5471,15.4716-17.2381,2.4282-4.0616,4.3461-7.2695,10.6024-11.887,5.9519-4.3969,10.8959-6.7747,15.6771-9.0743,7.0038-3.3685,14.246-6.8518,22.4006-15.4504,5.3024-5.5996,16.2781-17.1906,18.0148-34.6198,1.2842-12.8422-2.2627-32.4706-26.4547-53.0313-4.1642-3.5655-26.3767-21.4696-52.0638-21.4696h0Z"/>
      </g>
      <g>
        <path class="cls-3" d="M71.4687,253.2409c-.9795,0-1.9736-.0337-2.9551-.1006-16.5059-1.1235-31.9727-11.8535-39.4023-27.3359-8.3857-17.4761-2.8828-34.0625-.2383-42.0337,2.6621-8.022,10.7607-32.4282,35.4551-39.9746,4.7197-1.4424,9.7031-2.1743,14.8125-2.1743,13.4121,0,26.0566,5.1855,34.6904,14.2261,16.6309,17.4165,12.0029,41.0664,10.4824,48.8384-3.7803,19.3174-13.9189,30.6167-21.7588,36.6943-4.1846,3.2437-15.3008,11.8604-31.085,11.8604h-.001Z"/>
        <path class="cls-1" d="M79.1399,146.6221c11.0944,0,22.6832,3.8915,31.0747,12.679,14.844,15.5444,10.6545,36.9501,9.1915,44.4255-.97,4.9558-4.5278,21.7742-19.9149,33.7021-3.9401,3.0543-13.9474,10.8125-28.0225,10.8125-.8567,0-1.7295-.0288-2.6158-.0891-15.7892-1.0746-29.0747-11.6759-35.2338-24.5106-7.5133-15.6567-2.5259-30.6862,0-38.2979,2.546-7.6727,9.9465-29.9741,32.1699-36.766,4.187-1.2796,8.7252-1.9556,13.3508-1.9556M79.1399,136.6221c-5.6042,0-11.0795.8049-16.2736,2.3923-27.1649,8.3021-35.8759,34.5535-38.7383,43.1799-2.8517,8.5934-8.7855,26.475.4755,45.7737,8.1956,17.0786,25.298,28.9175,43.5704,30.1611,1.0941.0745,2.2026.1122,3.2948.1122,17.4968,0,29.5946-9.3784,34.1489-12.9089,8.516-6.6016,19.5234-18.8452,23.6023-39.6849,1.644-8.4004,6.647-33.9631-11.7732-53.2526-9.5721-10.0238-23.5344-15.7728-38.3069-15.7728h0Z"/>
      </g>
      <g>
        <path class="cls-3" d="M364.9999,108.2927c-5.0908,0-8.7197-.689-9.1172-.7676-5.709-1.1294-24.8418-6.2485-31.3223-24.6943-5.7559-16.3877,1.7285-36.0522,17.4092-45.7407,6.2754-3.8774,13.5674-5.9263,21.0869-5.9263,7.5625,0,14.8164,2.0586,20.9785,5.9531,9.5723,6.0508,16.2812,16.394,18.4053,28.377,1.9375,10.9268-.3926,21.6621-6.3916,29.4536-8.4932,11.0298-21.5713,13.3452-31.0479,13.3452h-.001Z"/>
        <path class="cls-1" d="M363.0564,36.1637c6.472,0,12.8822,1.751,18.3071,5.18,16.6993,10.5552,22.1097,35.7657,10.7235,50.5532-7.3752,9.5782-19.1879,11.3959-27.0868,11.3959-4.5103,0-7.7455-.5931-8.1473-.6725-3.0649-.6063-21.6842-4.6788-27.5745-21.4468-5.192-14.7804,2.2092-31.7299,15.3192-39.8298,5.6272-3.4768,12.073-5.18,18.4587-5.18M363.0564,26.1637c-8.4491,0-16.6495,2.3074-23.715,6.6728-17.6323,10.8942-26.0146,33.0994-19.4978,51.6512,7.3579,20.9458,28.7021,26.683,35.0686,27.9424.7284.144,4.6372.8627,10.088.8627,14.9819,0,27.4154-5.4318,35.0101-15.295,6.8556-8.9034,9.5358-21.0692,7.3534-33.3779-2.3695-13.3642-9.8988-24.9291-20.6573-31.7292-6.9625-4.4009-15.1406-6.727-23.65-6.727h0Z"/>
      </g>
      <g>
        <path class="cls-3" d="M736.8866,334.9963c-5.2812,0-18.5947-1.0449-28.1348-10.7168-6.5713-6.6616-7.5957-13.5986-8.5-19.7188-.7686-5.2026-1.4326-9.6958-5.3857-14.1938-2.3828-2.7114-3.6973-3.1602-10.2764-5.0874-4.7832-1.4014-11.335-3.3203-21.5938-7.3462-15.5977-6.1201-25.9014-10.1631-36.6123-19.1108-7.498-6.2637-15.9961-13.3618-19.9287-25.3462-7.002-21.3369,3.9873-44.3237,18.4619-56.0034,8.8311-7.1265,22.5684-11.2168,39.7266-11.8291,1.3398-.0474,3.5791-.1274,6.4346-.1274,24.8379,0,70.7158,5.8594,98.9111,45.1006,22.8135,31.752,22.1689,58.1548,17.6113,74.7124-5.2686,19.1406-22.6572,48.1514-48.9668,49.623-.2617.0146-.8672.0439-1.7471.0439Z"/>
        <path class="cls-1" d="M671.0789,170.5163c18.7594,0,66.4609,3.507,94.8501,43.0181,4.8839,6.7972,26.208,36.4756,16.8511,70.4681-5.2487,19.0676-21.5787,44.6791-44.4255,45.9574-.2194.0123-.7285.0361-1.4684.0361-4.2759,0-16.2585-.7967-24.5742-9.2275-10.6379-10.7853-3.6368-22.2645-13.6899-33.7021-5.816-6.6171-9.4353-4.2266-33.7994-13.7872-15.9415-6.2556-25.348-10.036-35.234-18.2939-7.3663-6.1532-14.8967-12.4434-18.3829-23.0677-5.8953-17.9656,2.77-39.191,16.851-50.5532,2.9943-2.416,13.0377-9.8767,36.766-10.7234,1.3529-.0483,3.4893-.1245,6.2563-.1245M671.0788,160.5163c-2.9459,0-5.2415.0819-6.613.1309-18.2469.6511-33.0085,5.1238-42.6887,12.9345-15.8099,12.7573-27.7814,37.9626-20.0729,61.4536,4.3789,13.3452,13.4606,20.9313,21.4731,27.6243,11.334,9.4674,22.516,13.8553,37.9923,19.9285,10.4663,4.107,17.4163,6.1429,22.0153,7.4901,6.4249,1.8821,6.567,2.0438,7.926,3.59,2.8458,3.2377,3.3955,6.2123,4.1951,11.6238.9149,6.1926,2.168,14.6735,9.8865,22.4988,10.8654,11.0159,25.7839,12.2053,31.6936,12.2053.9124,0,1.6064-.0282,2.0282-.0519,13.0837-.732,25.4899-7.5858,35.8759-19.8203,7.9178-9.327,14.3441-21.5254,17.6313-33.4674,4.5369-16.4816,3.3988-33.8586-3.3824-51.6482-5.2357-13.7349-12.3214-23.5965-14.989-27.309-13.5166-18.812-32.3761-32.269-56.0544-39.997-18.1976-5.9392-35.5579-7.1859-46.9167-7.1859h0Z"/>
      </g>
      <g>
        <path class="cls-3" d="M740.0907,473.4328c-19.8848-.001-37.8477-10.9551-44.6982-27.2578-7.5996-18.085-.9863-41.0488,15.3828-53.416,8.0146-6.0557,18.0322-9.3906,28.209-9.3906,10.4014,0,20.2734,3.375,27.7979,9.5029,9.1611,7.4609,14.8867,19.2021,15.71,32.2158.9414,14.8818-4.6152,29.8184-15.2461,40.9814l-.5791.6084-.7461.3848c-8.1768,4.2275-16.8672,6.3711-25.8281,6.3711h-.002Z"/>
        <path class="cls-1" d="M738.9843,388.3685c9.1118,0,17.953,2.9331,24.6405,8.3795,17.4268,14.1925,19.7909,45.0912,0,65.8723-7.7543,4.0085-15.8149,5.8125-23.5345,5.8125-17.9297,0-34.0118-9.7358-40.0884-24.1956-6.4589-15.3696-1.5436-35.9064,13.7872-47.4893,7.5552-5.7081,16.4985-8.3795,25.1952-8.3795M738.9843,378.3685c-11.2573,0-22.3459,3.6937-31.2234,10.4008-9.0153,6.8113-15.6488,16.6318-18.6787,27.6525-2.9626,10.7758-2.3586,22.03,1.7007,31.6897,7.6215,18.1361,27.4365,30.3214,49.3074,30.3214,9.769,0,19.2323-2.3313,28.1267-6.9292l1.4915-.771,1.1578-1.2158c11.5886-12.1685,17.6449-28.4777,16.616-44.7458-.9108-14.3989-7.3048-27.4391-17.5426-35.7769-8.4136-6.8521-19.4071-10.6256-30.9553-10.6256h0Z"/>
      </g>
      <g>
        <path class="cls-3" d="M651.9355,616.4787c-5.4062,0-10.5488-1.3174-11.9961-1.7207-7.6523-2.1348-14.3994-6.6777-18.998-12.792-9.0137-11.9844-11.3096-31.4551.4492-43.2949,5.3643-5.3994,13.3223-8.4961,21.834-8.4961,8.6025,0,16.5996,3.1562,21.9414,8.6611,1.3955,1.4375,2.6113,3.0381,3.6143,4.7549,3.6006,6.1748,4.998,13.9102,4.043,22.3701-.8096,7.1641-3.1553,13.9766-5.4893,20.3408-.5996,1.6348-1.4209,3.873-3.1055,5.8066-2.5234,2.8994-6.6602,4.3701-12.292,4.3701h-.001Z"/>
        <path class="cls-1" d="M643.2247,555.1746c6.8657,0,13.7273,2.3772,18.3531,7.1436,1.0968,1.1301,2.068,2.3947,2.8839,3.7937,3.3457,5.7374,4.1375,12.6885,3.3926,19.2883-.745,6.6-2.9271,12.9442-5.2147,19.1797-.5511,1.5023-1.1302,3.038-2.1809,4.2449-1.739,1.9976-5.0319,2.6543-8.5223,2.6543-3.9579,0-8.1697-.845-10.6527-1.5377-6.4554-1.8009-12.304-5.6075-16.3457-10.981-7.8008-10.3708-9.5533-27.1472.0002-36.7656,4.6447-4.6761,11.4675-7.0201,18.2865-7.0201M643.2247,545.1746c-9.835,0-19.0862,3.635-25.3815,9.973-13.6688,13.7616-11.1901,36.1395-.897,49.8239,5.256,6.9877,12.9449,12.1735,21.6503,14.6021,1.6024.447,7.2999,1.9055,13.3398,1.9055,7.1428,0,12.5477-2.0483,16.0647-6.0883,2.2887-2.629,3.3346-5.4802,4.0267-7.3668,2.4384-6.6464,4.892-13.7816,5.7634-21.5021,1.0767-9.5392-.5455-18.3386-4.691-25.4475-1.2045-2.0654-2.6667-3.9901-4.3462-5.7207-6.2782-6.4689-15.5833-10.1791-25.5293-10.1791h0Z"/>
      </g>
      <g>
        <path class="cls-3" d="M407.5478,807.8644c-4.1729,0-8.3359-.6475-12.373-1.9238-16.3262-5.1631-29.0869-20.1074-31.0312-36.3428-3.1904-26.6475,22.7129-43.623,31.2256-49.2021,5.5283-3.6221,20.2012-13.2354,35.0186-13.2354,5.499,0,10.4902,1.3262,14.833,3.9424,7.5127,4.5264,16.4229,15.0635,16.207,39.5596-.0605,6.8262-1.6562,24.248-15.1416,38.6143-4.0957,4.3613-18.9912,18.5879-38.7354,18.5879h-.0029Z"/>
        <path class="cls-1" d="M430.3879,712.1603c4.2356,0,8.4198.917,12.2523,3.2258,14.0245,8.4487,13.8354,29.8002,13.7872,35.2341-.0421,4.7656-.8433,21.4454-13.7872,35.234-2.3344,2.4867-16.4507,17.0105-35.092,17.0105-3.4792,0-7.1182-.5065-10.8654-1.6914-14.1517-4.4751-25.7987-17.3411-27.5745-32.1702-2.8226-23.5707,20.8524-39.085,29.0023-44.4255,5.0995-3.3418,18.9487-12.4174,32.2772-12.4174M430.3879,702.1603c-16.3127,0-31.8926,10.2095-37.7578,14.053-9.1542,5.9987-37.0105,24.2527-33.4508,53.9789,2.2043,18.4076,16.0641,34.6897,34.4885,40.5159,4.5255,1.431,9.1956,2.1566,13.8804,2.1566,21.761,0,37.942-15.4354,42.3829-20.1661,14.692-15.6506,16.4304-34.5785,16.496-41.9899.2383-26.8561-9.9977-38.6899-18.6266-43.8883-5.1331-3.0922-10.9915-4.66-17.4126-4.66h0Z"/>
      </g>
      <g>
        <path class="cls-3" d="M175.2616,732.1603c-12.1328,0-24.627-7.5908-31.0889-18.8877-6.0957-10.6553-7.8545-26.9375,1.9561-39.2939,6.3223-7.9619,16.3027-12.7158,26.6982-12.7158,3.8896,0,7.6309.6543,11.1211,1.9434,8.2344,3.043,14.7881,9.6797,18.4561,18.6885,4.2832,10.5215,4.1475,22.9414-.3545,32.4121-1.8174,3.8223-7.2422,13.0869-18.3359,16.5732-2.7051.8496-5.5479,1.2803-8.4512,1.2803h-.001Z"/>
        <path class="cls-1" d="M172.8277,666.2635c3.2461,0,6.4412.5449,9.387,1.6333,17.1536,6.3376,22.2209,29.7432,15.3192,44.2635-.9028,1.8994-5.4302,10.8413-15.3192,13.9492-2.2814.7169-4.6172,1.0511-6.9535,1.0511-10.7008,0-21.3959-7.0129-26.7485-16.3702-5.0964-8.9093-7.0427-22.9026,1.5319-33.7021,5.7341-7.222,14.4324-10.8248,22.7832-10.8248M172.8277,656.2635c-11.9082,0-23.3529,5.4604-30.6149,14.6067-11.2651,14.1882-9.3126,32.7671-2.3804,44.8856,7.3236,12.8029,21.5613,21.4049,35.4287,21.4049,3.413,0,6.7612-.5084,9.9518-1.5112,12.9749-4.0778,19.2548-14.7828,21.3525-19.1962,5.0852-10.6987,5.2651-24.6631.4696-36.4436-4.2031-10.3251-11.787-17.9583-21.3547-21.4932-4.0465-1.495-8.3707-2.2531-12.8527-2.2531h0Z"/>
      </g>
      <g>
        <path class="cls-3" d="M84.8202,623.6564c-10.0283-.001-22.7617-3.7051-34.0615-9.9092-15.3711-8.4395-26.1074-17.1582-33.7881-27.4365-9.9707-13.3428-13.9854-29.0947-11.0137-43.2178,6.1387-29.1895,38.1592-41.9707,51.6406-46.1113,3.0713-.9434,6.7188-1.9072,10.4824-1.9072,2.8135,0,5.4033.5527,7.6973,1.6426,8.3428,3.9639,10.6748,13.4902,12.2178,19.7949,1.6123,6.5889,3.457,13.2129,5.4834,19.6895,2.8096,8.9785,6.0508,17.9395,9.6338,26.6328.3525.8564.709,1.7129,1.0674,2.5723,4.0156,9.6475,8.1689,19.624,7.8672,30.6123-.4814,17.5635-10.4043,27.6377-27.2236,27.6377h-.0029Z"/>
        <path class="cls-1" d="M68.0807,500.0742c1.9198,0,3.797.3251,5.5498,1.158,5.9319,2.8187,7.9467,10.0895,9.5078,16.4688,1.6447,6.7211,3.5023,13.39,5.5686,19.9937,2.8636,9.1521,6.1282,18.1787,9.7821,27.045,4.135,10.0339,8.8575,20.2933,8.5601,31.1417-.47,17.1333-10.3062,22.7749-22.2283,22.7749-10.6128,0-22.879-4.4729-31.6558-9.2916-12.1929-6.6943-23.8636-14.9043-32.1898-26.0469-8.3262-11.1427-12.989-25.5839-10.1259-39.1959,4.6241-21.9845,26.7401-35.7655,48.2159-42.3605,2.9028-.8914,6.0114-1.6871,9.0154-1.6871M68.0807,490.0742c-4.4255,0-8.5248,1.0756-11.9509,2.1277-30.2866,9.3007-50.3574,27.4745-55.0663,49.8616-3.2662,15.5288,1.0715,32.7471,11.9011,47.24,8.1238,10.8718,19.3684,20.0317,35.3877,28.8269,12.0046,6.5909,25.6377,10.5259,36.4685,10.5259,19.6196,0,31.6663-12.1498,32.2245-32.5006.3307-12.0592-4.2288-23.0111-8.2515-32.6737-.355-.8527-.7092-1.7034-1.0592-2.5525-3.5269-8.5581-6.7178-17.3801-9.4839-26.2211-1.9957-6.3779-3.8123-12.8998-5.399-19.3844-1.6603-6.7844-4.4391-18.1392-14.9293-23.1239-2.9685-1.4106-6.2798-2.1259-9.8417-2.1259h0Z"/>
      </g>
      <circle class="cls-2" cx="168.9222" cy="395.0227" r="14.9723"/>
      <circle class="cls-2" cx="200.0684" cy="76.009" r="21.1863"/>
      <circle class="cls-2" cx="389.7424" cy="525.617" r="21.1863"/>
      <circle class="cls-2" cx="200.0684" cy="254.7186" r="7.4862"/>
      <circle class="cls-2" cx="41.1069" cy="551.5494" r="7.4862"/>
      <circle class="cls-2" cx="573.9363" cy="525.0765" r="7.4862"/>
      <circle class="cls-2" cx="581.4225" cy="62.3011" r="17.0518"/>
      <circle class="cls-2" cx="468.6008" cy="569.9339" r="10.5687"/>
      <circle class="cls-2" cx="398.1106" cy="757.5126" r="10.5687"/>
      <circle class="cls-2" cx="581.4225" cy="685.081" r="10.5687"/>
      <circle class="cls-2" cx="511.3562" cy="402.2643" r="7.2416"/>
      <circle class="cls-2" cx="501.7171" cy="525.0765" r="12.9662"/>
      <circle class="cls-2" cx="697.2288" cy="208.4958" r="12.9662"/>
      <circle class="cls-2" cx="547.1595" cy="311.7217" r="12.9662"/>
      <circle class="cls-2" cx="256.7973" cy="207.3473" r="9.9898"/>
      <circle class="cls-2" cx="618.7022" cy="350.3397" r="8.5733"/>
      <circle class="cls-2" cx="200.0684" cy="538.5832" r="12.9662"/>
      <circle class="cls-2" cx="445.0659" cy="174.3704" r="12.9662"/>
      <circle class="cls-2" cx="513.519" cy="193.8197" r="6.4831"/>
      <circle class="cls-2" cx="351.6551" cy="669.7164" r="6.4831"/>
      <circle class="cls-2" cx="351.6551" cy="170.5162" r="12.9662"/>
      <circle class="cls-2" cx="84.5212" cy="358.9129" r="27.11"/>
      <circle class="cls-2" cx="597.3997" cy="430.6034" r="23.0273"/>
      <circle class="cls-2" cx="200.0684" cy="459.3832" r="23.0273"/>
      <circle class="cls-2" cx="356.1905" cy="609.7051" r="25.9325"/>
      <circle class="cls-2" cx="75.3631" cy="187.3366" r="25.9325"/>
      <g>
        <path class="cls-4" d="M360.1406,488.7951c-22.21,0-37.6299-2.5518-51.5605-8.5342l-.2568-.1104-.0371-.0078c-.5225-.2217-1.0381-.457-1.5576-.6943l-.3145-.1426c-.6055-.2793-1.2295-.5674-1.8428-.874l-.0977-.0459c-.3711-.168-.7422-.3447-1.1123-.5391-14.4395-7.2412-26.4209-17.374-40.1074-33.9062-1.6016-1.9326-3.3018-3.8779-5.1025-5.9365-5.2012-5.9463-10.5781-12.0957-13.9189-18.3828l-.4414-.8535c-.1885-.3682-.3887-.7793-.5811-1.2002-3.0293-6.4561-4.6816-13.125-6.3809-20.5488l-.25-1.0977c-.3789-1.6582-.7617-3.333-1.165-5.0342-.3652-1.5332-.748-3.0801-1.1348-4.6426-2.1172-8.5605-4.3057-17.4131-4.3057-26.126,0-16.3682,5.2461-30.167,10.7998-44.7754,6.3037-16.5479,14.6602-35.3271,28.8291-49.1284,10.0488-9.7959,23.0479-16.6562,34.4434-22.3184,20.3984-10.1421,38.5156-14.8657,57.0146-14.8657,19.8955,0,39.1279,5.7891,62.3594,18.77,1.4531.8105,2.8857,1.6304,4.3164,2.4697,1.1006.644,2.1875,1.2866,3.2666,1.9395.915.5474,1.8076,1.0967,2.6992,1.6558,1.7598,1.0913,3.5371,2.2451,5.4473,3.5361.7793.5225,1.54,1.0493,2.3008,1.5859.4805.3306.9209.6396,1.3623.9678.5889.4102,1.0859.7769,1.5879,1.1455l.3467.2554c.1436.1055.2549.186.3574.2676l.1123.0845c.4521.3228.8936.6636,1.3359,1.0137.0107.0107.0811.0654.1533.1187l.1348.1128.1143.0679c.0703.0459.1328.0991.1982.1514l.0332.0342,1.0547.8232s.6113.4883.7607.6113l.0469.0474.2197.1714c.3008.2305.6006.4775.9014.7236l.457.3696c.3057.2559,1.1436.9712,1.1436.9712.8271.6997,1.6357,1.4131,2.4258,2.1255.0713.0669.1475.1323.2217.1919.7979.7251,1.5879,1.4595,2.3594,2.2114.4277.4077.8213.792,1.2148,1.1855.375.3662.7188.7183,1.0615,1.0708,1.9893,2.0283,3.9043,4.1689,5.7002,6.3696.3535.4316.7041.8667,1.0459,1.3115.3887.4844.7266.9253,1.0537,1.3657.3711.4844.7061.9448,1.041,1.4053.3379.4614.6611.9189.9756,1.3765,14.8418,21.4116,16.8867,48.8818,16.8867,75.3799,0,4.2393.1436,8.3965.2832,12.418.4512,13.082.8779,25.4385-3.8652,37.0283l-.3398.8096c-.1904.4531-.4004.9297-.6113,1.3984l-.0908.2012-.0107.0381c-7.5205,16.5625-20.5,30.1729-32.209,41.3047-2.5361,2.416-4.7705,4.4912-6.8311,6.3467-.4521.4092-.8994.8066-1.3447,1.2031l-.6055.5381c-1.6055,1.4102-3.0391,2.6318-4.3682,3.7207-.6455.5283-1.2939,1.0586-1.9512,1.5791-.4238.3379-.8428.6709-1.2607.9844-.374.2959-.6855.5342-.9971.7627-.5273.4102-.9902.7637-1.4629,1.0957-.8281.6104-1.6172,1.1758-2.415,1.7305-.3154.2207-.6279.4375-.9404.6455-.4873.3389-.9336.6318-1.3701.918l-.9727.6318c-.4736.3057-.9512.6016-1.4385.8984-.2939.1875-.5322.332-.7705.4678l-.0977.0586c-.5205.3262-1.0518.6328-1.5811.9395-.8867.5049-2.0361,1.1494-3.2051,1.7441-.6758.3633-1.2969.6738-1.9189.9746-.8945.4424-1.7666.8545-2.6572,1.2471-.4502.2012-.8877.3877-1.3252.5742l-.0977.042c-.3799.1699-.7607.3242-1.1416.4785l-.459.1875-.5488.2109c-15.1074,5.8887-32.4824,6.6992-49.0117,6.6992Z"/>
        <path class="cls-5" d="M361.0603,231.9434c19.3712,0,38.1653,5.6747,60.9419,18.4017,1.4282.7968,2.8223,1.5944,4.2644,2.4397,1.0854.6356,2.1609,1.2711,3.254,1.9328.8855.5295,1.7615,1.0686,2.6588,1.6306,1.7213,1.0678,3.4678,2.2017,5.3552,3.4772.7527.5049,1.4955,1.0194,2.2385,1.5434l.0283.02.0286.0197c.4191.2881.83.5757,1.2402.8813l.0811.0603.083.0575c.4911.34.9692.6932,1.451,1.0479l.356.2619c.0906.0665.1816.132.2661.1985l.1068.084.1107.079c.3397.2426.7074.5215,1.1885.902.058.0468.1163.0923.1768.1384l.1865.1555.2017.1309.0038.0038.2684.2128c.1581.1254.3188.2508.4796.3761l.3624.2834.3417.2731c.1256.1.2515.1997.3772.3026l.079.0789.3021.2321c.2754.2114.5502.4379.8256.6637l.3342.2733.2119.1725.0084.0057c.2795.2347.558.4728.8325.7073l.1896.1618c.7275.6162,1.4852,1.28,2.3148,2.0278.0994.0929.202.1833.3091.272.8435.7663,1.572,1.4495,2.2236,2.0851l.025.0245.0254.0241c.3854.3671.7618.7343,1.1383,1.1107l.028.0279.0283.0276c.3319.323.6545.6556.9939,1.0044,1.9211,1.9587,3.7767,4.0323,5.5291,6.1804.3278.3986.6558.8058.9746,1.2221l.0425.0555.0437.0544c.3242.4031.6395.8151.946,1.2269l.0244.0327.0248.0323c.3319.4331.6541.8759.9768,1.3187.3181.4362.6271.8725.9393,1.3265,14.38,20.7455,16.3622,47.6873,16.3622,73.7114,0,4.2892.1444,8.472.2841,12.5171.4596,13.3152.8566,24.8146-3.6538,35.8358-.0435.1067-.0891.2134-.1346.3202-.0647.1519-.1292.304-.1914.4559-.1885.4482-.386.8962-.5833,1.3353l-.171.3811-.0068.0238c-7.3265,16.0265-20.019,29.3202-31.4847,40.2219-2.5267,2.406-4.7412,4.4631-6.7876,6.3049-.4225.3834-.8495.7626-1.2749,1.1403l-.6145.5469c-1.5967,1.4023-3.0063,2.6034-4.3143,3.676-.6321.5171-1.2639,1.0344-1.9197,1.5531-.3962.3152-.792.631-1.1882.9282l-.0635.0476-.0621.0494c-.2831.2247-.5662.4413-.8492.6494l-.0662.0487-.0648.0505c-.5247.4092-.9214.7064-1.2863.9639l-.05.0353-.0493.0364c-.7505.5535-1.5233,1.1069-2.3036,1.6494-.2969.2069-.5935.4141-.8903.6119l-.0477.0319-.0471.0327c-.4124.2869-.834.5643-1.2594.8418l-.4537.2947-.4857.3153c-.463.2997-.9171.5809-1.38.8623l-.063.0382-.062.0399c-.1937.1246-.3875.2422-.5812.353l-.0991.0566-.0969.0605c-.4788.2993-.9896.595-1.4929.8865-.8419.4789-1.9519,1.1017-3.0715,1.6715l-.0605.0308-.0598.0322c-.4962.2673-1.0519.5491-1.7899.907-.8977.444-1.7211.8304-2.5431,1.1929-.4375.1953-.875.3813-1.3165.5692l-.0464.0198-.0461.0206c-.3586.16-.7175.3047-1.076.4503l-.4021.1641c-.1639.0653-.3356.1305-.5073.196l-.0354.0134-.0201.0078c-14.639,5.7057-31.6896,6.4922-47.9344,6.4922-21.7896,0-36.866-2.4814-50.4119-8.2974l-.5006-.215-.0356-.0079c-.4203-.1826-.8373-.3732-1.2576-.5647l-.2887-.1313c-.624-.288-1.2134-.5599-1.7698-.8383l-.1018-.0509-.1038-.0469c-.3671-.166-.6801-.3173-.9567-.4622l-.0459-.024-.0463-.0232c-14.0096-7.0258-25.7103-16.9362-39.126-33.1398-1.6257-1.9617-3.3389-3.9207-5.1527-5.9945-5.0916-5.8218-10.3564-11.8418-13.5469-17.8475-.0558-.1041-.1093-.2101-.1631-.316-.0814-.16-.1632-.3198-.2469-.4777-.1976-.3881-.3701-.7438-.5264-1.0862l-.0127-.0278-.0131-.0277c-2.8982-6.1769-4.4447-12.418-6.1652-19.9349l-.2465-1.0785c-.3818-1.6715-.7673-3.359-1.1759-5.0847-.3666-1.5358-.751-3.0902-1.1393-4.6603-2.0754-8.3915-4.2214-17.0686-4.2214-25.427,0-15.831,5.1536-29.3875,10.6083-43.7361,6.192-16.2529,14.3777-34.6754,28.1427-48.0826,9.7457-9.5007,22.5081-16.2313,33.7072-21.7952,19.9792-9.934,37.6836-14.5607,55.7164-14.5607M361.0603,226.118c-21.3901,0-40.3701,6.25-58.3101,15.1699-12.5601,6.24-25.24,13.15-35.1799,22.8401-13.8501,13.49-22.51,31.7799-29.52,50.1799-5.6301,14.8101-10.99,29.03-10.99,45.8101,0,10.7,3.1399,21.47,5.52,31.4399.49,2.0701.95,4.1,1.4099,6.11,1.6799,7.34,3.37,14.2899,6.5701,21.11.21.46.4299.91.6599,1.36.15.28.29.5699.4399.85,4.6802,8.8101,13.1101,17.28,19.3501,24.8101,12.03,14.53,24.27,26.24,41,34.63.4199.22.84.42,1.26.61.6399.3201,1.29.62,1.9399.9199.66.3,1.3101.6001,1.97.8801.0801.04.1602.08.25.1,16.3501,7.0199,33.6501,8.7699,52.7101,8.7699,17.35,0,34.8099-.95,50.0499-6.8899.2101-.0801.42-.16.6201-.24.5599-.23,1.1199-.45,1.6799-.7.47-.2001.9399-.4001,1.41-.6101.9301-.4099,1.84-.84,2.75-1.29.66-.3199,1.3199-.6499,1.97-1,1.12-.5699,2.2201-1.1799,3.3099-1.7999.5701-.33,1.1401-.66,1.7001-1.01.2799-.16.5599-.33.84-.51.51-.3099,1.01-.62,1.52-.9501.3201-.21.65-.4199.97-.6299.46-.3.9301-.6101,1.39-.9301.33-.22.66-.45.9901-.6801.8198-.5699,1.6299-1.1499,2.4299-1.74.51-.3599,1.01-.74,1.51-1.1299.34-.25.6799-.51,1.02-.78.4399-.3301.8799-.6801,1.3199-1.03.67-.53,1.33-1.0701,1.99-1.61,1.5-1.23,2.9801-2.5,4.4601-3.7999.6499-.5801,1.3099-1.1602,1.96-1.75,2.3-2.0701,4.59-4.2101,6.8899-6.4001,12.8101-12.1799,25.4801-25.9399,32.8801-42.27.03-.0599.0599-.1199.08-.1899.22-.49.4401-.99.65-1.49.11-.27.23-.54.34-.8101,6.4701-15.8099,3.7999-32.3599,3.7999-50.5499,0-28.3199-2.3999-55.39-17.3999-77.03-.3301-.48-.67-.96-1.02-1.4399-.35-.4801-.7-.9601-1.0601-1.4301-.3499-.47-.71-.9399-1.08-1.3999-.36-.4701-.73-.9301-1.1-1.3801-1.86-2.28-3.8201-4.47-5.87-6.5599-.36-.37-.7201-.74-1.09-1.1-.41-.41-.8201-.8101-1.24-1.21-.8201-.8-1.66-1.5801-2.51-2.3501-.04-.03-.0901-.0699-.1301-.11-.8199-.74-1.6599-1.48-2.51-2.2001-.4099-.3499-.8298-.71-1.25-1.0599-.0299-.0199-.0499-.0399-.0798-.0599-.4301-.3501-.8601-.71-1.29-1.04-.02-.02-.04-.03-.0601-.05-.3101-.26-.62-.5-.9299-.75-.29-.23-.5901-.46-.8801-.6899-.0199-.02-.0399-.03-.0599-.05-.1901-.1499-.37-.3-.5699-.4299-.0601-.05-.1201-.0901-.1801-.14-.48-.38-.96-.75-1.4501-1.1-.1399-.1101-.2899-.22-.4399-.3301-.6399-.47-1.27-.9399-1.9199-1.3899-.47-.3501-.9401-.6801-1.42-1.01-.78-.55-1.5599-1.0901-2.35-1.6201-1.8201-1.23-3.66-2.4299-5.53-3.59-.9099-.5699-1.8201-1.13-2.74-1.6801-1.0901-.6599-2.1899-1.3099-3.3-1.96-1.45-.85-2.8999-1.6799-4.3699-2.5-19.3101-10.79-40.1001-19.1399-63.78-19.1399h0Z"/>
      </g>
    </g>
  </g>
</svg>