<?xml version="1.0" encoding="UTF-8"?>
<svg id="Capa_2" xmlns="http://www.w3.org/2000/svg" viewBox="0 0 572.2724 597.6934">
  <defs>
    <style>
      .cls-1 {
        fill: #70569b;
      }

      .cls-2 {
        fill: #604593;
      }

      .cls-3 {
        fill: #47327c;
      }

      .cls-4 {
        fill: #a486ce;
      }

      .cls-5 {
        fill: #8566b2;
      }
    </style>
  </defs>
  <g id="Capa_1-2" data-name="Capa_1">
    <g>
      <g>
        <path class="cls-4" d="M286.0383,592.6934c-14.4688,0-28.8008-1.4006-42.5977-4.1628-22.3262-4.4673-44.6367-12.7009-66.3105-24.4722-17.9795-9.7507-35.5918-21.9543-52.3447-36.2709-5.5879-4.7616-11.1836-9.8566-16.624-15.1392-52.4238-50.8896-87.6445-115.4509-99.1748-181.791-9.5742-55.0786-1.8223-111.1832,22.417-162.2487,23.0576-48.5754,59.3877-89.7903,105.0635-119.1892C181.6155,20.3599,233.011,4.9999,285.0989,4.9999c20.75,0,41.6279,2.4575,62.0537,7.3043,13.7695,3.2615,27.4932,7.733,40.7891,13.29,16.0811,6.7139,31.7451,15.0825,46.5547,24.8729,68.1191,44.9873,116.4023,118.4862,129.1562,196.6083,4.9873,30.5703,4.8203,62.1371-.4971,93.8241-6.6172,39.4452-21.3779,78.5425-42.6855,113.0652-21.6064,35.0052-50.1299,65.5616-82.4863,88.3658-46.0791,32.4771-100.041,50.3628-151.9453,50.3628Z"/>
        <path class="cls-1" d="M285.0985,10c20.0134-.0005,40.3979,2.3042,60.8999,7.1689,13.7124,3.248,27.08,7.6323,40.015,13.0386,15.9741,6.6694,31.2753,14.8779,45.7251,24.4307,65.9734,43.5703,114.1862,114.8804,126.9795,193.2432,4.9885,30.5781,4.6145,61.75-.4929,92.1909-13.1709,78.5078-57.8158,152.1455-123.1226,198.1714-43.4349,30.6138-96.2761,49.4497-149.0637,49.4497-13.9362,0-27.8606-1.3115-41.6166-4.0659-22.7739-4.5562-44.5155-12.8892-64.9055-23.9629-18.3236-9.937-35.5609-22.0723-51.4838-35.6782-5.6355-4.8022-11.0975-9.7881-16.3893-14.9253-49.6039-48.1538-85.8936-110.9531-97.731-179.0601C-5.767,216.7852,50.5267,110.6807,139.1733,53.6235c42.7469-27.5142,93.0231-43.6226,145.9252-43.6235M285.105,0v10l-.0022-10c-53.0554.001-105.387,15.6362-151.3418,45.2148-22.9103,14.7461-43.7095,32.6191-61.8197,53.1226-18.2401,20.6504-33.3986,43.5713-45.0546,68.127C2.2016,218.4688-5.6916,275.6108,4.0604,331.7134c11.7095,67.3706,47.4429,132.9023,100.6179,184.5229,5.5189,5.3579,11.1943,10.5259,16.8687,15.3613,17.0121,14.5366,34.9154,26.9404,53.2025,36.8574,22.1112,12.0083,44.8942,20.4131,67.7111,24.978,14.1172,2.8267,28.7795,4.2603,43.5781,4.2603,52.9266,0,107.9111-18.2104,154.8248-51.2759,32.9042-23.1899,61.903-54.2515,83.8608-89.8267,21.6448-35.0674,36.6394-74.7871,43.3629-114.8643,5.4073-32.2285,5.5757-64.3442.5002-95.4551-6.4506-39.5127-22.0387-78.7876-45.0791-113.5801-22.6604-34.2188-52.4883-64.0947-86.259-86.3979-15.0658-9.9595-31.009-18.4775-47.3831-25.314-13.5441-5.6606-27.5289-10.2168-41.563-13.5415-20.8002-4.9351-42.0645-7.438-63.1984-7.438h0Z"/>
      </g>
      <g>
        <path class="cls-2" d="M291.4817,554.019c-50.0947,0-99.1143-19.0371-134.4893-52.2299-.8721-.8251-1.749-1.6537-2.6074-2.4962-24.6396-24.0691-42.3271-55.1581-51.1543-89.9104-6.3838-25.1658-7.6924-51.5536-3.7861-76.3099,3.8877-24.6931,20.7705-48.2837,33.1318-63.8802,30.7031-38.7549,74.1885-67.1969,122.4443-80.0868,18.9199-5.0481,37.9844-7.6078,56.6641-7.6078,21.8848,0,42.6641,3.5172,61.7607,10.4536,14.7871,5.3756,28.8984,13.0187,41.9404,22.7166,29.0088,21.572,51.1699,52.2131,62.4023,86.2789,5.1826,15.72,8.1611,32.3595,8.8525,49.4561,1.4023,35.0208-7.1631,71.161-24.1172,101.762-26.3457,47.5454-73.4561,83.6168-126.0215,96.4911-14.5303,3.5586-29.6777,5.363-45.0205,5.363Z"/>
        <path class="cls-3" d="M311.691,184.4106c21.54,0,41.9827,3.458,60.7587,10.2778,14.5223,5.2798,28.3837,12.7881,41.1986,22.3164,28.5304,21.2173,50.3269,51.3521,61.3744,84.8535,5.0985,15.4663,8.0281,31.8384,8.7074,48.6597,1.3812,34.4966-7.0548,70.0942-23.7538,100.2349-12.7645,23.0361-30.8518,43.9028-52.3064,60.3442-21.4919,16.4702-46.3408,28.48-71.8599,34.73-14.3042,3.5029-29.2185,5.2793-44.3285,5.2793-49.3625,0-97.6554-18.7495-132.495-51.4404-.8599-.8135-1.7201-1.6265-2.5712-2.4609-24.2506-23.6899-41.6656-54.3066-50.3617-88.5376-6.2874-24.7876-7.5779-50.771-3.7318-75.1426,3.7811-24.0151,20.3804-47.1846,32.5378-62.5244,30.3162-38.2661,73.257-66.3511,120.9108-79.0806,18.6726-4.9819,37.4847-7.5088,55.918-7.5093h.0026M311.6839,178.5854c-19.3311.0005-38.7465,2.7251-57.4153,7.7061-48.4822,12.9507-92.7996,41.7407-123.9751,81.0918-14.7455,18.605-29.9958,41.543-33.7262,65.2354-4.0616,25.7383-2.5569,52.2627,3.8397,77.481,8.7235,34.3389,26.5554,66.4771,51.9376,91.2725.8734.8564,1.7642,1.6987,2.6548,2.541,36.4678,34.2188,86.5275,53.0186,136.4821,53.0186,15.3806,0,30.7539-1.7827,45.7142-5.4463,53.6504-13.1401,101.1045-49.5952,127.876-97.9087,17.3583-31.3311,25.9098-67.5576,24.4791-103.2915-.6888-17.0571-3.6406-34.0063-8.9956-50.2505-11.4774-34.8052-34.0944-65.8877-63.4308-87.7041-13.0353-9.6924-27.385-17.5547-42.6846-23.1167-20.0902-7.2974-41.3723-10.6294-62.756-10.6284h0Z"/>
      </g>
      <path class="cls-5" d="M346.511,70.0294c-12.9034-6.8174-32.2915-7.0558-44.3551,6.1534-11.9928,13.1316-12.0448,34.4045-.5371,46.6919,13.7245,14.6544,35.9458,8.0442,38.5872,7.2124,2.7168-.8555,23.1506-7.2902,26.316-25.3025,2.6912-15.3141-8.8788-28.8737-20.0109-34.7552Z"/>
      <path class="cls-5" d="M168.5549,91.2437c-13.0287-1.0331-28.6373,6.939-33.8607,21.5287-5.8468,16.3307,3.9714,33.5419,16.9463,41.1685,17.2393,10.1332,41.3658,4.119,49.0216-9.9861,10.0337-18.4857-8.249-50.8192-32.1072-52.7111Z"/>
      <path class="cls-5" d="M66.1808,230.6415c-19.5573.2607-35.7998,21.4041-30.9398,38.4061,3.9021,13.651,20.4622,21.3238,34.6388,19.7597,12.2536-1.3519,26.0603-9.9726,28.3662-23.3638,2.9245-16.983-13.7838-35.0458-32.0653-34.802Z"/>
      <path class="cls-5" d="M520.6861,220.3908c-4.179-7.2461-14.4462-17.6889-26.6685-14.7622-10.9334,2.6181-16.7937,14.3451-16.9872,23.967-.2623,13.0398,9.8268,25.0276,22.2511,27.0155.7178.1149,13.9679,2.0185,21.5973-7.3596,9.4345-11.5971.2392-28.1116-.1927-28.8606Z"/>
      <path class="cls-5" d="M474.89,146.0032c-2.0895-3.6231-7.2231-8.8445-13.3342-7.3811-5.4667,1.309-8.3969,7.1726-8.4936,11.9835-.1311,6.5199,4.9134,12.5138,11.1256,13.5077.3589.0574,6.9839,1.0092,10.7986-3.6798,4.7172-5.7985.1196-14.0558-.0964-14.4303Z"/>
    </g>
  </g>
</svg>