<?xml version="1.0" encoding="UTF-8"?>
<svg id="Capa_2" xmlns="http://www.w3.org/2000/svg" viewBox="0 0 572.2724 597.6935">
  <defs>
    <style>
      .cls-1 {
        fill: #898686;
      }

      .cls-2 {
        fill: #a3a2a2;
      }

      .cls-3 {
        fill: #c4c2c2;
      }

      .cls-4 {
        fill: #938989;
      }

      .cls-5 {
        fill: #847a7a;
      }
    </style>
  </defs>
  <g id="Capa_1-2" data-name="Capa_1">
    <g>
      <g>
        <path class="cls-3" d="M558.718,247.8813c4.9886,30.5784,4.6145,61.7502-.4928,92.191-13.171,78.5079-57.8158,152.1454-123.1226,198.1715-54.9018,38.6959-124.8185,58.5709-190.6802,45.3839-22.7739-4.5565-44.5155-12.8891-64.9055-23.9631-18.3236-9.9369-35.561-22.0721-51.4838-35.6783-5.6356-4.8022-11.0976-9.7878-16.3894-14.9253-49.6039-48.1537-85.8935-110.9528-97.7309-179.0598C-5.7669,216.7852,50.5267,110.6809,139.1733,53.6239,198.0921,15.7011,271.303-.5547,345.9984,17.1692c13.7124,3.2482,27.08,7.6321,40.0149,13.0385,15.9742,6.6693,31.2753,14.8779,45.7251,24.4307,65.9735,43.5701,114.1863,114.8803,126.9795,193.2429Z"/>
        <path class="cls-1" d="M285.0986,10c20.0135-.0004,40.3978,2.3044,60.8999,7.1693,13.7124,3.248,27.08,7.6321,40.0149,13.0385,15.9742,6.6693,31.2753,14.8779,45.7251,24.4307,65.9735,43.5701,114.1863,114.8802,126.9796,193.2429,4.9886,30.5784,4.6144,61.7502-.4929,92.191-13.1709,78.508-57.8158,152.1454-123.1226,198.1716-43.4349,30.6138-96.2761,49.4496-149.0638,49.4496-13.9361,0-27.8605-1.3115-41.6165-4.0657-22.7739-4.5565-44.5155-12.8891-64.9055-23.9631-18.3235-9.9369-35.5609-22.0722-51.4837-35.6783-5.6356-4.8022-11.0976-9.7878-16.3894-14.9253-49.6039-48.1537-85.8935-110.9528-97.7309-179.0598C-5.767,216.7852,50.5267,110.6809,139.1733,53.6239c42.7471-27.5139,93.0231-43.6227,145.9252-43.6239M285.105,0v10l-.0022-10c-53.055.0012-105.3865,15.6363-151.3418,45.2151-22.9103,14.7462-43.7095,32.6192-61.8198,53.1225-18.24,20.6502-33.3985,43.5715-45.0545,68.1272C2.2016,218.469-5.6916,275.6112,4.0604,331.7139c11.7095,67.3707,47.4429,132.9021,100.6178,184.5224,5.5174,5.3565,11.193,10.525,16.869,15.3615,17.0115,14.5365,34.9149,26.9401,53.2023,36.8575,22.1097,12.008,44.8928,20.4128,67.7108,24.9782,14.1174,2.8266,28.7798,4.26,43.5784,4.26,52.9266,0,107.9111-18.2101,154.8248-51.2758,32.9043-23.1899,61.903-54.2515,83.8608-89.8266,21.6448-35.0678,36.6394-74.7872,43.363-114.8643,5.4073-32.2291,5.5756-64.3451.5002-95.4556-6.4507-39.5123-22.0387-78.7872-45.0792-113.5799-22.6604-34.2188-52.4883-64.0946-86.259-86.3974-15.0664-9.9604-31.0097-18.4782-47.3833-25.3142-13.5416-5.66-27.5265-10.2165-41.5626-13.5412-20.8001-4.9355-42.0644-7.4385-63.1984-7.4385h0Z"/>
      </g>
      <g>
        <path class="cls-4" d="M489.5509,350.2854c1.4306,35.7338-7.1209,71.9606-24.4791,103.2913-26.7715,48.3135-74.2257,84.7685-127.876,97.9086-63.5492,15.5632-134.5002-2.8179-182.1963-47.572-.8907-.8423-1.7814-1.6846-2.6549-2.541-25.3822-24.7954-43.2141-56.9335-51.9375-91.2725-6.3966-25.2183-7.9014-51.7427-3.8398-77.481,3.7303-23.6926,18.9807-46.6301,33.7263-65.2353,31.1755-39.3509,75.4929-68.1414,123.975-81.0918,39.32-10.4911,81.9195-10.9719,120.1713,2.9223,15.2997,5.562,29.6493,13.4245,42.6846,23.1168,29.3365,21.8165,51.9534,52.8987,63.4307,87.7042,5.355,16.2442,8.3068,33.1932,8.9957,50.2505Z"/>
        <path class="cls-5" d="M311.6846,178.5853v5.8254c21.5448,0,41.9896,3.4583,60.7651,10.2781,14.5219,5.2792,28.3833,12.7877,41.1987,22.3165,28.5306,21.2172,50.3272,51.3523,61.3745,84.8535,5.0984,15.4658,8.028,31.8379,8.7074,48.6596,1.3811,34.4966-7.0549,70.0941-23.7538,100.2347-12.7646,23.0358-30.8518,43.9024-52.3064,60.344-21.492,16.4704-46.3408,28.4797-71.8598,34.7299-14.3043,3.5032-29.2186,5.2794-44.3288,5.2794-49.3622,0-97.655-18.7497-132.4897-51.4358-.8616-.8148-1.7234-1.6294-2.5762-2.4656-24.2507-23.6902-41.6657-54.3067-50.3617-88.5377-6.2873-24.7873-7.5779-50.7706-3.7319-75.1427,3.7811-24.0146,20.3803-47.1842,32.5379-62.5239,30.3166-38.2668,73.2574-66.3517,120.9106-79.0807,18.6754-4.9829,37.4877-7.5094,55.9142-7.5095v-5.8254M311.6846,178.5854c-19.3335,0-38.7447,2.7246-57.416,7.7064-48.4821,12.9504-92.7995,41.7409-123.975,81.0918-14.7456,18.6052-29.9959,41.5428-33.7263,65.2353-4.0616,25.7383-2.5568,52.2627,3.8398,77.481,8.7234,34.339,26.5554,66.4771,51.9375,91.2725.8734.8565,1.7642,1.6987,2.6549,2.5411,36.4678,34.2184,86.5274,53.0186,136.4818,53.0186,15.3807,0,30.7542-1.7828,45.7144-5.4466,53.6504-13.1401,101.1045-49.5952,127.876-97.9086,17.3582-31.3307,25.9097-67.5575,24.4791-103.2913-.6889-17.0573-3.6406-34.0063-8.9957-50.2504-11.4773-34.8054-34.0943-65.8877-63.4307-87.7042-13.0354-9.6924-27.385-17.5549-42.6846-23.1169-20.0878-7.2965-41.3741-10.6287-62.7554-10.6286h0Z"/>
      </g>
      <path class="cls-2" d="M346.511,70.0296c-12.9034-6.8174-32.2915-7.0558-44.3551,6.1534-11.9928,13.1316-12.0448,34.4045-.5371,46.6919,13.7245,14.6544,35.9458,8.0442,38.5872,7.2124,2.7168-.8555,23.1506-7.2902,26.316-25.3025,2.6912-15.3141-8.8788-28.8737-20.0109-34.7552Z"/>
      <path class="cls-2" d="M168.555,91.2438c-13.0287-1.0331-28.6373,6.939-33.8607,21.5287-5.8468,16.3307,3.9714,33.5419,16.9463,41.1685,17.2393,10.1332,41.3658,4.119,49.0216-9.9861,10.0337-18.4857-8.249-50.8192-32.1072-52.7111Z"/>
      <path class="cls-2" d="M66.1809,230.6417c-19.5573.2607-35.7998,21.4041-30.9398,38.4061,3.9021,13.651,20.4622,21.3238,34.6388,19.7597,12.2536-1.3519,26.0603-9.9726,28.3662-23.3638,2.9245-16.983-13.7838-35.0458-32.0653-34.802Z"/>
      <path class="cls-2" d="M520.6861,220.391c-4.179-7.2461-14.4462-17.6889-26.6685-14.7622-10.9334,2.6181-16.7937,14.3451-16.9872,23.967-.2623,13.0398,9.8268,25.0276,22.2511,27.0155.7178.1149,13.9679,2.0185,21.5973-7.3596,9.4345-11.5971.2392-28.1116-.1927-28.8606Z"/>
      <path class="cls-2" d="M474.8901,146.0034c-2.0895-3.6231-7.2231-8.8445-13.3342-7.3811-5.4667,1.309-8.3969,7.1726-8.4936,11.9835-.1311,6.5199,4.9134,12.5138,11.1256,13.5077.3589.0574,6.9839,1.0092,10.7986-3.6798,4.7172-5.7985.1196-14.0558-.0964-14.4303Z"/>
    </g>
  </g>
</svg>