<?xml version="1.0" encoding="UTF-8"?>
<svg id="Capa_2" data-name="Capa 2" xmlns="http://www.w3.org/2000/svg" viewBox="0 0 449.14 506.36">
  <defs>
    <style>
      .cls-1 {
        fill: #70579c;
      }

      .cls-2 {
        fill: #a185bd;
      }

      .cls-3 {
        fill: #6facde;
      }

      .cls-4 {
        fill: #9170af;
      }

      .cls-5 {
        fill: #87bfe9;
      }

      .cls-6 {
        fill: #4591c1;
      }

      .cls-7 {
        fill: #8467aa;
      }

      .cls-8 {
        fill: #5c9ed1;
      }
    </style>
  </defs>
  <g id="Capa_1-2" data-name="Capa 1">
    <g>
      <g>
        <g>
          <path class="cls-4" d="M218.08,414.62v77.08c0,7.5-6.07,13.58-13.56,13.58h-14.24c-6.03,0-11.13-3.94-12.9-9.39-.43-1.32-.66-2.73-.66-4.19v-77.08c0-7.48,6.08-13.56,13.56-13.56h14.24c7.5,0,13.56,6.08,13.56,13.56Z"/>
          <path class="cls-1" d="M204.51,505.66h-14.24c-6.06,0-11.38-3.88-13.26-9.65-.45-1.39-.68-2.84-.68-4.3v-77.08c0-7.69,6.25-13.94,13.94-13.94h14.24c7.69,0,13.94,6.25,13.94,13.94v77.08c0,7.69-6.25,13.95-13.94,13.95ZM190.28,401.43c-7.27,0-13.19,5.92-13.19,13.19v77.08c0,1.38.21,2.75.64,4.07,1.78,5.46,6.82,9.13,12.55,9.13h14.24c7.27,0,13.19-5.92,13.19-13.2v-77.08c0-7.27-5.92-13.19-13.19-13.19h-14.24Z"/>
        </g>
        <path class="cls-7" d="M218.08,423.68v68.02c0,7.5-6.07,13.58-13.56,13.58h-14.24c-6.03,0-11.13-3.94-12.9-9.39,2.75-.58,5.64-1.55,8.57-3.16,9.31-5.11,14-14,19.34-27.57,6.41-16.32,10.24-30.48,12.79-41.49Z"/>
        <path class="cls-2" d="M195.93,403.61c-.42-1.2-4.53-1.29-7.79,0-4.89,1.93-8.3,7.09-7.39,8.33.97,1.32,6.97-1.59,10.21-3.63,1.57-.98,5.42-3.41,4.97-4.7Z"/>
        <path class="cls-2" d="M180.28,423.68c1.28-.29,2.14-3.97.87-6.64-.52-1.09-1.51-2.26-2.01-2.08-.51.19.04,1.55-.27,4.57-.18,1.78-.52,2.79.13,3.56.25.29.77.71,1.28.6Z"/>
      </g>
      <g>
        <g>
          <path class="cls-4" d="M216.65,306.97v77.08c0,7.5-6.07,13.58-13.56,13.58h-14.24c-6.03,0-11.13-3.94-12.9-9.39-.43-1.32-.66-2.73-.66-4.19v-77.08c0-7.48,6.08-13.56,13.56-13.56h14.24c7.5,0,13.56,6.08,13.56,13.56Z"/>
          <path class="cls-1" d="M203.08,398.01h-14.24c-6.06,0-11.38-3.88-13.26-9.65-.45-1.39-.68-2.84-.68-4.3v-77.08c0-7.69,6.25-13.94,13.94-13.94h14.24c7.69,0,13.94,6.25,13.94,13.94v77.08c0,7.69-6.25,13.95-13.94,13.95ZM188.85,293.78c-7.27,0-13.19,5.92-13.19,13.19v77.08c0,1.39.22,2.76.64,4.07,1.78,5.46,6.82,9.13,12.55,9.13h14.24c7.27,0,13.19-5.92,13.19-13.2v-77.08c0-7.27-5.92-13.19-13.19-13.19h-14.24Z"/>
        </g>
        <path class="cls-7" d="M216.65,316.03v68.02c0,7.5-6.07,13.58-13.56,13.58h-14.24c-6.03,0-11.13-3.94-12.9-9.39,2.75-.58,5.64-1.55,8.57-3.16,9.31-5.11,14-14,19.34-27.57,6.41-16.32,10.24-30.48,12.79-41.49Z"/>
        <path class="cls-2" d="M194.5,295.96c-.42-1.2-4.53-1.29-7.79,0-4.89,1.93-8.3,7.09-7.39,8.33.97,1.32,6.97-1.59,10.21-3.63,1.57-.98,5.42-3.41,4.97-4.7Z"/>
        <path class="cls-2" d="M178.85,316.03c1.28-.29,2.14-3.97.87-6.64-.52-1.09-1.51-2.26-2.01-2.08-.51.19.04,1.55-.27,4.57-.18,1.78-.52,2.79.13,3.56.25.29.77.71,1.28.6Z"/>
      </g>
      <g>
        <g>
          <path class="cls-4" d="M216.65,197.02v77.08c0,7.5-6.07,13.58-13.56,13.58h-14.24c-6.03,0-11.13-3.94-12.9-9.39-.43-1.32-.66-2.73-.66-4.19v-77.08c0-7.48,6.08-13.56,13.56-13.56h14.24c7.5,0,13.56,6.08,13.56,13.56Z"/>
          <path class="cls-1" d="M203.08,288.06h-14.24c-6.06,0-11.38-3.88-13.26-9.65-.45-1.39-.68-2.84-.68-4.3v-77.08c0-7.69,6.25-13.94,13.94-13.94h14.24c7.69,0,13.94,6.25,13.94,13.94v77.08c0,7.69-6.25,13.95-13.94,13.95ZM188.85,183.83c-7.27,0-13.19,5.92-13.19,13.19v77.08c0,1.39.22,2.76.64,4.07,1.78,5.46,6.82,9.13,12.55,9.13h14.24c7.27,0,13.19-5.92,13.19-13.2v-77.08c0-7.27-5.92-13.19-13.19-13.19h-14.24Z"/>
        </g>
        <path class="cls-7" d="M216.65,206.09v68.02c0,7.5-6.07,13.58-13.56,13.58h-14.24c-6.03,0-11.13-3.94-12.9-9.39,2.75-.58,5.64-1.55,8.57-3.16,9.31-5.11,14-14,19.34-27.57,6.41-16.32,10.24-30.48,12.79-41.49Z"/>
        <path class="cls-2" d="M194.5,186.02c-.42-1.2-4.53-1.29-7.79,0-4.89,1.93-8.3,7.09-7.39,8.33.97,1.32,6.97-1.59,10.21-3.63,1.57-.98,5.42-3.41,4.97-4.7Z"/>
        <path class="cls-2" d="M178.85,206.09c1.28-.29,2.14-3.97.87-6.64-.52-1.09-1.51-2.26-2.01-2.08-.51.19.04,1.55-.27,4.57-.18,1.78-.52,2.79.13,3.56.25.29.77.71,1.28.6Z"/>
      </g>
      <g>
        <g>
          <path class="cls-4" d="M146.1,92.76l45.19,62.45c4.39,6.07,3.04,14.56-3.03,18.95l-11.53,8.35c-4.88,3.53-11.33,3.33-15.96-.04-1.12-.82-2.14-1.83-2.99-3.01l-45.19-62.45c-4.39-6.06-3.02-14.55,3.04-18.94l11.53-8.35c6.07-4.39,14.55-3.02,18.94,3.04Z"/>
          <path class="cls-1" d="M168.78,185.46c-2.89,0-5.77-.9-8.24-2.69-1.18-.86-2.21-1.9-3.07-3.09l-45.19-62.45c-2.18-3.01-3.06-6.7-2.46-10.38.59-3.68,2.57-6.91,5.59-9.08l11.53-8.35c6.23-4.5,14.96-3.1,19.46,3.12l45.19,62.45c4.51,6.23,3.11,14.97-3.11,19.47l-11.53,8.34c-2.44,1.77-5.3,2.65-8.16,2.65ZM135.09,87.53c-2.68,0-5.38.81-7.71,2.5l-11.53,8.35c-2.85,2.06-4.73,5.12-5.29,8.6s.27,6.97,2.33,9.82l45.19,62.45c.81,1.12,1.79,2.11,2.91,2.92,4.64,3.39,10.88,3.4,15.52.04l11.53-8.34c5.89-4.26,7.21-12.53,2.95-18.43l-45.19-62.45c-2.58-3.56-6.61-5.45-10.7-5.45Z"/>
        </g>
        <path class="cls-7" d="M151.41,100.1l39.88,55.11c4.39,6.07,3.04,14.56-3.03,18.95l-11.53,8.35c-4.88,3.53-11.33,3.33-15.96-.04,1.89-2.08,3.66-4.56,5.09-7.58,4.55-9.59,3.14-19.55-.49-33.67-4.37-16.98-9.57-30.69-13.95-41.11Z"/>
        <path class="cls-2" d="M121.7,96.83c-1.05-.73-4.42,1.61-6.31,4.57-2.83,4.43-2.57,10.61-1.1,11.08,1.56.5,4.71-5.38,6.14-8.92.69-1.71,2.4-5.94,1.27-6.72Z"/>
        <path class="cls-2" d="M120.79,122.26c.87-.99-.59-4.47-3.18-5.89-1.06-.58-2.55-.95-2.85-.51-.31.45.94,1.24,2.46,3.86.9,1.55,1.21,2.56,2.19,2.8.37.09,1.04.12,1.38-.26Z"/>
      </g>
      <g>
        <g>
          <path class="cls-4" d="M82.11,5.99l45.19,62.45c4.39,6.07,3.04,14.56-3.03,18.95l-11.53,8.35c-4.88,3.53-11.33,3.33-15.96-.04-1.12-.82-2.14-1.83-2.99-3.01L48.6,30.24c-4.39-6.06-3.02-14.55,3.04-18.94l11.53-8.35c6.07-4.39,14.55-3.02,18.94,3.04Z"/>
          <path class="cls-1" d="M104.79,98.69c-2.89,0-5.77-.9-8.24-2.69-1.18-.86-2.21-1.9-3.07-3.09L48.29,30.46c-2.18-3.01-3.06-6.7-2.47-10.38.59-3.68,2.57-6.91,5.59-9.08l11.53-8.35c3.02-2.18,6.71-3.06,10.38-2.47,3.68.59,6.9,2.58,9.08,5.59l45.19,62.45c2.18,3.02,3.06,6.71,2.48,10.38-.59,3.68-2.57,6.91-5.59,9.09l-11.53,8.35c-2.44,1.77-5.3,2.65-8.16,2.65ZM71.09.75c-2.75,0-5.43.86-7.7,2.51l-11.53,8.35c-2.85,2.06-4.73,5.12-5.29,8.6-.56,3.48.27,6.97,2.33,9.82l45.19,62.45c.81,1.12,1.79,2.11,2.91,2.92,4.64,3.38,10.88,3.4,15.52.04l11.53-8.35c2.85-2.07,4.73-5.12,5.29-8.6.56-3.48-.28-6.97-2.34-9.83L81.81,6.21c-2.06-2.85-5.12-4.73-8.59-5.29-.71-.11-1.42-.17-2.12-.17Z"/>
        </g>
        <path class="cls-7" d="M87.42,13.33l39.88,55.11c4.39,6.07,3.04,14.56-3.03,18.95l-11.53,8.35c-4.88,3.53-11.33,3.33-15.96-.04,1.89-2.08,3.66-4.56,5.09-7.58,4.55-9.59,3.14-19.55-.49-33.67-4.37-16.98-9.57-30.69-13.95-41.11Z"/>
        <path class="cls-2" d="M57.71,10.05c-1.05-.73-4.42,1.61-6.31,4.57-2.83,4.43-2.57,10.61-1.1,11.08,1.56.5,4.71-5.38,6.14-8.92.69-1.71,2.4-5.94,1.27-6.72Z"/>
        <path class="cls-2" d="M56.8,35.49c.87-.99-.59-4.47-3.18-5.89-1.06-.58-2.55-.95-2.85-.51-.31.45.94,1.24,2.46,3.86.9,1.55,1.21,2.56,2.19,2.8.37.09,1.04.12,1.38-.26Z"/>
      </g>
      <g>
        <g>
          <path class="cls-3" d="M100.83,124.02l45.19,62.45c4.39,6.07,3.04,14.56-3.03,18.95l-11.53,8.35c-4.88,3.53-11.33,3.33-15.96-.04-1.12-.82-2.14-1.83-2.99-3.01l-45.19-62.45c-4.39-6.06-3.02-14.55,3.04-18.94l11.53-8.35c6.07-4.39,14.55-3.02,18.94,3.04Z"/>
          <path class="cls-6" d="M89.82,118.41c4.21,0,8.35,1.95,11,5.61l45.19,62.45c4.39,6.07,3.04,14.56-3.03,18.95l-11.53,8.35c-2.4,1.74-5.18,2.57-7.93,2.57s-5.68-.9-8.03-2.61c-1.12-.82-2.14-1.83-2.99-3.01l-45.19-62.45c-4.39-6.06-3.02-14.55,3.04-18.94l11.53-8.35c2.4-1.74,5.18-2.57,7.94-2.57M89.82,117.66h0c-3.02,0-5.92.94-8.38,2.72l-11.53,8.35c-3.09,2.24-5.13,5.55-5.74,9.33-.61,3.78.29,7.56,2.53,10.66l45.19,62.45c.88,1.22,1.94,2.28,3.15,3.17,2.44,1.78,5.45,2.76,8.47,2.76s5.91-.94,8.37-2.71l11.53-8.35c3.1-2.24,5.14-5.56,5.74-9.33.6-3.78-.3-7.56-2.54-10.66l-45.19-62.45c-2.68-3.71-7.02-5.92-11.61-5.92h0Z"/>
        </g>
        <path class="cls-8" d="M106.14,131.36l39.88,55.11c4.39,6.07,3.04,14.56-3.03,18.95l-11.53,8.35c-4.88,3.53-11.33,3.33-15.96-.04,1.89-2.08,3.66-4.56,5.09-7.58,4.55-9.59,3.14-19.55-.49-33.67-4.37-16.98-9.57-30.69-13.95-41.11Z"/>
        <path class="cls-5" d="M76.43,128.09c-1.05-.73-4.42,1.61-6.31,4.57-2.83,4.43-2.57,10.61-1.1,11.08,1.56.5,4.71-5.38,6.14-8.92.69-1.71,2.4-5.94,1.27-6.72Z"/>
        <path class="cls-5" d="M75.52,153.52c.87-.99-.59-4.47-3.18-5.89-1.06-.58-2.55-.95-2.85-.51-.31.45.94,1.24,2.46,3.86.9,1.55,1.21,2.56,2.19,2.8.37.09,1.04.12,1.38-.26Z"/>
      </g>
      <g>
        <g>
          <path class="cls-3" d="M36.83,37.25l45.19,62.45c4.39,6.07,3.04,14.56-3.03,18.95l-11.53,8.35c-4.88,3.53-11.33,3.33-15.96-.04-1.12-.82-2.14-1.83-2.99-3.01L3.32,61.49c-4.39-6.06-3.02-14.55,3.04-18.94l11.53-8.35c6.07-4.39,14.55-3.02,18.94,3.04Z"/>
          <path class="cls-6" d="M25.83,31.63c4.21,0,8.35,1.95,11,5.61l45.19,62.45c4.39,6.07,3.04,14.56-3.03,18.95l-11.53,8.35c-2.4,1.74-5.18,2.57-7.93,2.57s-5.68-.9-8.03-2.61c-1.12-.82-2.14-1.83-2.99-3.01L3.32,61.49c-4.39-6.06-3.02-14.55,3.04-18.94l11.53-8.35c2.4-1.74,5.18-2.57,7.94-2.57M25.83,30.89h0c-3.02,0-5.92.94-8.38,2.72l-11.53,8.35c-3.09,2.24-5.13,5.55-5.74,9.33-.61,3.78.29,7.56,2.53,10.66l45.19,62.45c.88,1.22,1.94,2.28,3.15,3.17,2.44,1.78,5.45,2.76,8.47,2.76s5.91-.94,8.37-2.71l11.53-8.35c6.39-4.63,7.83-13.6,3.2-20l-45.19-62.45c-2.68-3.71-7.02-5.92-11.61-5.92h0Z"/>
        </g>
        <path class="cls-8" d="M42.14,44.59l39.88,55.11c4.39,6.07,3.04,14.56-3.03,18.95l-11.53,8.35c-4.88,3.53-11.33,3.33-15.96-.04,1.89-2.08,3.66-4.56,5.09-7.58,4.55-9.59,3.14-19.55-.49-33.67-4.37-16.98-9.57-30.69-13.95-41.11Z"/>
        <path class="cls-5" d="M12.43,41.31c-1.05-.73-4.42,1.61-6.31,4.57-2.83,4.43-2.57,10.61-1.1,11.08,1.56.5,4.71-5.38,6.14-8.92.69-1.71,2.4-5.94,1.27-6.72Z"/>
        <path class="cls-5" d="M11.52,66.74c.87-.99-.59-4.47-3.18-5.89-1.06-.58-2.55-.95-2.85-.51-.31.45.94,1.24,2.46,3.86.9,1.55,1.21,2.56,2.19,2.8.37.09,1.04.12,1.38-.26Z"/>
      </g>
      <g>
        <g>
          <path class="cls-4" d="M231.06,415.33v77.08c0,7.5,6.07,13.58,13.56,13.58h14.24c6.03,0,11.13-3.94,12.9-9.39.43-1.32.66-2.73.66-4.19v-77.08c0-7.48-6.08-13.56-13.56-13.56h-14.24c-7.5,0-13.56,6.08-13.56,13.56Z"/>
          <path class="cls-1" d="M258.86,506.36h-14.24c-7.69,0-13.94-6.26-13.94-13.95v-77.08c0-7.69,6.25-13.94,13.94-13.94h14.24c7.69,0,13.94,6.25,13.94,13.94v77.08c0,1.46-.23,2.91-.68,4.3-1.88,5.77-7.2,9.65-13.26,9.65ZM244.63,402.14c-7.27,0-13.19,5.92-13.19,13.19v77.08c0,7.28,5.92,13.2,13.19,13.2h14.24c5.73,0,10.77-3.67,12.55-9.13.42-1.32.64-2.69.64-4.07v-77.08c0-7.27-5.92-13.19-13.19-13.19h-14.24Z"/>
        </g>
        <path class="cls-7" d="M231.06,424.39v68.02c0,7.5,6.07,13.58,13.56,13.58h14.24c6.03,0,11.13-3.94,12.9-9.39-2.75-.58-5.64-1.55-8.57-3.16-9.31-5.11-14-14-19.34-27.57-6.41-16.32-10.24-30.48-12.79-41.49Z"/>
        <path class="cls-2" d="M253.21,404.32c.42-1.2,4.53-1.29,7.79,0,4.89,1.93,8.3,7.09,7.39,8.33-.97,1.32-6.97-1.59-10.21-3.63-1.57-.98-5.42-3.41-4.97-4.7Z"/>
        <path class="cls-2" d="M268.86,424.39c-1.28-.29-2.14-3.97-.87-6.64.52-1.09,1.51-2.26,2.01-2.08.51.19-.04,1.55.27,4.57.18,1.78.52,2.79-.13,3.56-.25.29-.77.71-1.28.6Z"/>
      </g>
      <g>
        <g>
          <path class="cls-4" d="M232.49,307.67v77.08c0,7.5,6.07,13.58,13.56,13.58h14.24c6.03,0,11.13-3.94,12.9-9.39.43-1.32.66-2.73.66-4.19v-77.08c0-7.48-6.08-13.56-13.56-13.56h-14.24c-7.5,0-13.56,6.08-13.56,13.56Z"/>
          <path class="cls-1" d="M260.29,398.71h-14.24c-7.69,0-13.94-6.26-13.94-13.95v-77.08c0-7.69,6.25-13.94,13.94-13.94h14.24c7.69,0,13.94,6.25,13.94,13.94v77.08c0,1.46-.23,2.91-.68,4.3-1.88,5.77-7.21,9.65-13.26,9.65ZM246.06,294.49c-7.27,0-13.19,5.92-13.19,13.19v77.08c0,7.28,5.92,13.2,13.19,13.2h14.24c5.73,0,10.77-3.67,12.55-9.13.42-1.32.64-2.69.64-4.07v-77.08c0-7.27-5.92-13.19-13.19-13.19h-14.24Z"/>
        </g>
        <path class="cls-7" d="M232.49,316.74v68.02c0,7.5,6.07,13.58,13.56,13.58h14.24c6.03,0,11.13-3.94,12.9-9.39-2.75-.58-5.64-1.55-8.57-3.16-9.31-5.11-14-14-19.34-27.57-6.41-16.32-10.24-30.48-12.79-41.49Z"/>
        <path class="cls-2" d="M254.64,296.67c.42-1.2,4.53-1.29,7.79,0,4.89,1.93,8.3,7.09,7.39,8.33-.97,1.32-6.97-1.59-10.21-3.63-1.57-.98-5.42-3.41-4.97-4.7Z"/>
        <path class="cls-2" d="M270.29,316.74c-1.28-.29-2.14-3.97-.87-6.64.52-1.09,1.51-2.26,2.01-2.08.51.19-.04,1.55.27,4.57.18,1.78.52,2.79-.13,3.56-.25.29-.77.71-1.28.6Z"/>
      </g>
      <g>
        <g>
          <path class="cls-4" d="M232.49,197.73v77.08c0,7.5,6.07,13.58,13.56,13.58h14.24c6.03,0,11.13-3.94,12.9-9.39.43-1.32.66-2.73.66-4.19v-77.08c0-7.48-6.08-13.56-13.56-13.56h-14.24c-7.5,0-13.56,6.08-13.56,13.56Z"/>
          <path class="cls-1" d="M260.29,288.76h-14.24c-7.69,0-13.94-6.26-13.94-13.95v-77.08c0-7.69,6.25-13.94,13.94-13.94h14.24c7.69,0,13.94,6.25,13.94,13.94v77.08c0,1.46-.23,2.91-.68,4.3-1.88,5.77-7.21,9.65-13.26,9.65ZM246.06,184.54c-7.27,0-13.19,5.92-13.19,13.19v77.08c0,7.28,5.92,13.2,13.19,13.2h14.24c5.73,0,10.77-3.67,12.55-9.13.42-1.32.64-2.69.64-4.07v-77.08c0-7.27-5.92-13.19-13.19-13.19h-14.24Z"/>
        </g>
        <path class="cls-7" d="M232.49,206.79v68.02c0,7.5,6.07,13.58,13.56,13.58h14.24c6.03,0,11.13-3.94,12.9-9.39-2.75-.58-5.64-1.55-8.57-3.16-9.31-5.11-14-14-19.34-27.57-6.41-16.32-10.24-30.48-12.79-41.49Z"/>
        <path class="cls-2" d="M254.64,186.72c.42-1.2,4.53-1.29,7.79,0,4.89,1.93,8.3,7.09,7.39,8.33-.97,1.32-6.97-1.59-10.21-3.63-1.57-.98-5.42-3.41-4.97-4.7Z"/>
        <path class="cls-2" d="M270.29,206.79c-1.28-.29-2.14-3.97-.87-6.64.52-1.09,1.51-2.26,2.01-2.08.51.19-.04,1.55.27,4.57.18,1.78.52,2.79-.13,3.56-.25.29-.77.71-1.28.6Z"/>
      </g>
      <g>
        <g>
          <path class="cls-4" d="M303.04,93.47l-45.19,62.45c-4.39,6.07-3.04,14.56,3.03,18.95l11.53,8.35c4.88,3.53,11.33,3.33,15.96-.04,1.12-.82,2.14-1.83,2.99-3.01l45.19-62.45c4.39-6.06,3.02-14.55-3.04-18.94l-11.53-8.35c-6.07-4.39-14.55-3.02-18.94,3.04Z"/>
          <path class="cls-1" d="M280.36,186.17c-2.86,0-5.72-.88-8.16-2.65l-11.53-8.35c-3.02-2.18-5-5.41-5.59-9.09-.59-3.68.29-7.36,2.48-10.38l45.19-62.45c2.18-3.01,5.41-5,9.08-5.59,3.68-.59,7.36.29,10.38,2.47l11.53,8.35c3.01,2.18,5,5.41,5.59,9.08.59,3.68-.29,7.36-2.46,10.38l-45.19,62.45c-.86,1.19-1.89,2.23-3.07,3.09-2.46,1.8-5.35,2.69-8.24,2.69ZM314.06,88.23c-.7,0-1.41.06-2.12.17-3.48.56-6.53,2.44-8.59,5.29l-45.19,62.45c-2.07,2.86-2.9,6.35-2.34,9.83.56,3.48,2.43,6.54,5.29,8.6l11.53,8.35c4.64,3.36,10.88,3.34,15.52-.04,1.12-.82,2.09-1.8,2.91-2.92l45.19-62.45c2.06-2.85,2.89-6.34,2.33-9.82s-2.44-6.54-5.29-8.6l-11.53-8.35c-2.27-1.64-4.95-2.51-7.7-2.51Z"/>
        </g>
        <path class="cls-7" d="M297.73,100.81l-39.88,55.11c-4.39,6.07-3.04,14.56,3.03,18.95l11.53,8.35c4.88,3.53,11.33,3.33,15.96-.04-1.89-2.08-3.66-4.56-5.09-7.58-4.55-9.59-3.14-19.55.49-33.67,4.37-16.98,9.57-30.69,13.95-41.11Z"/>
        <path class="cls-2" d="M327.44,97.53c1.05-.73,4.42,1.61,6.31,4.57,2.83,4.43,2.57,10.61,1.1,11.08-1.56.5-4.71-5.38-6.14-8.92-.69-1.71-2.4-5.94-1.27-6.72Z"/>
        <path class="cls-2" d="M328.35,122.96c-.87-.99.59-4.47,3.18-5.89,1.06-.58,2.55-.95,2.85-.51.31.45-.94,1.24-2.46,3.86-.9,1.55-1.21,2.56-2.19,2.8-.37.09-1.04.12-1.38-.26Z"/>
      </g>
      <g>
        <g>
          <path class="cls-4" d="M367.03,6.69l-45.19,62.45c-4.39,6.07-3.04,14.56,3.03,18.95l11.53,8.35c4.88,3.53,11.33,3.33,15.96-.04,1.12-.82,2.14-1.83,2.99-3.01l45.19-62.45c4.39-6.06,3.02-14.55-3.04-18.94l-11.53-8.35c-6.07-4.39-14.55-3.02-18.94,3.04Z"/>
          <path class="cls-1" d="M344.35,99.39c-2.86,0-5.72-.88-8.16-2.65l-11.53-8.35c-6.23-4.51-7.62-13.24-3.11-19.47l45.19-62.45c4.51-6.23,13.24-7.63,19.46-3.12l11.53,8.35c3.01,2.18,5,5.41,5.59,9.08.59,3.68-.29,7.36-2.47,10.38l-45.19,62.45c-.86,1.18-1.89,2.22-3.07,3.09-2.46,1.8-5.35,2.69-8.24,2.69ZM367.33,6.91l-45.19,62.45c-4.27,5.9-2.95,14.17,2.95,18.43l11.53,8.35c4.64,3.36,10.88,3.34,15.52-.04,1.12-.82,2.1-1.8,2.91-2.92l45.19-62.45c2.06-2.85,2.89-6.34,2.33-9.82-.56-3.48-2.44-6.53-5.29-8.6l-11.53-8.35c-5.89-4.26-14.15-2.94-18.42,2.95Z"/>
        </g>
        <path class="cls-7" d="M361.72,14.03l-39.88,55.11c-4.39,6.07-3.04,14.56,3.03,18.95l11.53,8.35c4.88,3.53,11.33,3.33,15.96-.04-1.89-2.08-3.66-4.56-5.09-7.58-4.55-9.59-3.14-19.55.49-33.67,4.37-16.98,9.57-30.69,13.95-41.11Z"/>
        <path class="cls-2" d="M391.43,10.76c1.05-.73,4.42,1.61,6.31,4.57,2.83,4.43,2.57,10.61,1.1,11.08-1.56.5-4.71-5.38-6.14-8.92-.69-1.71-2.4-5.94-1.27-6.72Z"/>
        <path class="cls-2" d="M392.34,36.19c-.87-.99.59-4.47,3.18-5.89,1.06-.58,2.55-.95,2.85-.51.31.45-.94,1.24-2.46,3.86-.9,1.55-1.21,2.56-2.19,2.8-.37.09-1.04.12-1.38-.26Z"/>
      </g>
      <g>
        <g>
          <path class="cls-3" d="M348.31,123.32l-45.19,62.45c-4.39,6.07-3.04,14.56,3.03,18.95l11.53,8.35c4.88,3.53,11.33,3.33,15.96-.04,1.12-.82,2.14-1.83,2.99-3.01l45.19-62.45c4.39-6.06,3.02-14.55-3.04-18.94l-11.53-8.35c-6.07-4.39-14.55-3.02-18.94,3.04Z"/>
          <path class="cls-6" d="M359.32,117.71c2.75,0,5.53.84,7.94,2.57l11.53,8.35c6.06,4.39,7.42,12.88,3.04,18.94l-45.19,62.45c-.85,1.18-1.87,2.19-2.99,3.01-2.36,1.72-5.18,2.61-8.03,2.61s-5.53-.84-7.93-2.57l-11.53-8.35c-6.07-4.39-7.42-12.88-3.03-18.95l45.19-62.45c2.65-3.66,6.8-5.61,11-5.61M359.32,116.96c-4.59,0-8.92,2.21-11.61,5.92l-45.19,62.45c-4.63,6.4-3.2,15.37,3.2,20l11.53,8.35c2.45,1.77,5.35,2.71,8.37,2.71s6.04-.98,8.47-2.76c1.21-.89,2.27-1.95,3.15-3.17l45.19-62.45c4.63-6.39,3.19-15.36-3.21-19.98l-11.53-8.35c-2.46-1.78-5.35-2.72-8.38-2.72h0Z"/>
        </g>
        <path class="cls-8" d="M343,130.66l-39.88,55.11c-4.39,6.07-3.04,14.56,3.03,18.95l11.53,8.35c4.88,3.53,11.33,3.33,15.96-.04-1.89-2.08-3.66-4.56-5.09-7.58-4.55-9.59-3.14-19.55.49-33.67,4.37-16.98,9.57-30.69,13.95-41.11Z"/>
        <path class="cls-5" d="M372.71,127.39c1.05-.73,4.42,1.61,6.31,4.57,2.83,4.43,2.57,10.61,1.1,11.08-1.56.5-4.71-5.38-6.14-8.92-.69-1.71-2.4-5.94-1.27-6.72Z"/>
        <path class="cls-5" d="M373.62,152.82c-.87-.99.59-4.47,3.18-5.89,1.06-.58,2.55-.95,2.85-.51.31.45-.94,1.24-2.46,3.86-.9,1.55-1.21,2.56-2.19,2.8-.37.09-1.04.12-1.38-.26Z"/>
      </g>
      <g>
        <g>
          <path class="cls-3" d="M412.31,36.55l-45.19,62.45c-4.39,6.07-3.04,14.56,3.03,18.95l11.53,8.35c4.88,3.53,11.33,3.33,15.96-.04,1.12-.82,2.14-1.83,2.99-3.01l45.19-62.45c4.39-6.06,3.02-14.55-3.04-18.94l-11.53-8.35c-6.07-4.39-14.55-3.02-18.94,3.04Z"/>
          <path class="cls-6" d="M423.31,30.93c2.75,0,5.53.84,7.94,2.57l11.53,8.35c6.06,4.39,7.42,12.88,3.04,18.94l-45.19,62.45c-.85,1.18-1.87,2.19-2.99,3.01-2.36,1.72-5.18,2.61-8.03,2.61s-5.53-.84-7.93-2.57l-11.53-8.35c-6.07-4.39-7.42-12.88-3.03-18.95l45.19-62.45c2.65-3.66,6.8-5.61,11-5.61M423.31,30.19c-4.59,0-8.92,2.21-11.61,5.92l-45.19,62.45c-2.24,3.1-3.15,6.89-2.54,10.66.6,3.78,2.64,7.09,5.74,9.33l11.53,8.35c2.45,1.77,5.35,2.71,8.37,2.71s6.04-.98,8.47-2.76c1.21-.89,2.27-1.95,3.15-3.17l45.19-62.45c2.24-3.09,3.14-6.88,2.53-10.66-.61-3.78-2.64-7.09-5.74-9.33l-11.53-8.35c-2.46-1.78-5.35-2.72-8.38-2.72h0Z"/>
        </g>
        <path class="cls-8" d="M407,43.89l-39.88,55.11c-4.39,6.07-3.04,14.56,3.03,18.95l11.53,8.35c4.88,3.53,11.33,3.33,15.96-.04-1.89-2.08-3.66-4.56-5.09-7.58-4.55-9.59-3.14-19.55.49-33.67,4.37-16.98,9.57-30.69,13.95-41.11Z"/>
        <path class="cls-5" d="M436.71,40.61c1.05-.73,4.42,1.61,6.31,4.57,2.83,4.43,2.57,10.61,1.1,11.08-1.56.5-4.71-5.38-6.14-8.92-.69-1.71-2.4-5.94-1.27-6.72Z"/>
        <path class="cls-5" d="M437.62,66.04c-.87-.99.59-4.47,3.18-5.89,1.06-.58,2.55-.95,2.85-.51.31.45-.94,1.24-2.46,3.86-.9,1.55-1.21,2.56-2.19,2.8-.37.09-1.04.12-1.38-.26Z"/>
      </g>
    </g>
  </g>
</svg>