<?xml version="1.0" encoding="UTF-8"?>
<svg id="Capa_2" data-name="Capa 2" xmlns="http://www.w3.org/2000/svg" viewBox="0 0 102.71 497.74">
  <defs>
    <style>
      .cls-1 {
        fill: #a2a0a0;
      }

      .cls-2 {
        fill: #b0b0af;
      }

      .cls-3 {
        fill: #878585;
      }

      .cls-4 {
        fill: #c4c1c2;
      }
    </style>
  </defs>
  <g id="Capa_1-2" data-name="Capa 1">
    <g>
      <g>
        <path class="cls-2" d="M63.71,206.63v276.83c0,7.05-4.58,12.77-10.23,12.77s-10.22-5.72-10.22-12.77V195.7c0-34.06.56-68.38-5.74-101.77-.39-2.03-1.07-3.91-1.86-5.75-13.23-30.79,18.86-23.53,19.03-23.36,9.07,9,5.63,12.55,4.16,16.4-1.62,4.24-1.96,7.25-1.12,11.76,2.89,15.6,4.41,31.2,5.2,46.84,1.12,22.14.78,44.36.78,66.81Z"/>
        <path class="cls-3" d="M47.03,63.95c4.16,0,7.6.81,7.66.86,9.07,9,5.63,12.55,4.16,16.4-1.62,4.24-1.96,7.25-1.12,11.76,2.89,15.6,4.41,31.2,5.2,46.84,1.12,22.14.78,44.36.78,66.81v276.83c0,7.05-4.58,12.77-10.23,12.77s-10.22-5.72-10.22-12.77V195.7c0-34.06.56-68.38-5.74-101.77-.39-2.03-1.07-3.91-1.86-5.75-8.92-20.76,2.76-24.22,11.37-24.22M47.04,62.44v1.51-1.51h0c-6.73,0-11.62,2.01-14.13,5.82-2.99,4.54-2.53,11.44,1.37,20.51.9,2.1,1.44,3.77,1.76,5.44,5.8,30.73,5.76,62.78,5.72,93.77,0,2.57,0,5.14,0,7.71v287.76c0,7.87,5.26,14.28,11.73,14.28s11.74-6.41,11.74-14.28V206.63c0-4.25.01-8.48.02-12.71.05-17.79.1-36.18-.81-54.17-.88-17.43-2.59-32.82-5.22-47.04-.77-4.13-.5-6.89,1.05-10.95.17-.43.36-.88.57-1.34,1.98-4.4,2.96-8.69-5.08-16.67-.27-.27-.47-.47-3.13-.87-1.3-.2-3.32-.43-5.59-.43h0Z"/>
      </g>
      <g>
        <path class="cls-2" d="M100.64,117.9c-3.35,9.33-12.59,15.79-22.48,15.79H24.22c-6.93,0-13.63-3.08-18.14-8.34-4.06-4.73-5.38-9.56-5.16-14.87.1-2.41.52-4.93,1.15-7.57,4.88-20.52,6.2-42.13,1.68-62.73-1.19-5.45-2.8-10.87-2.9-16.44C.6,10.93,11.56.85,24.22.85h53.94c1.88,0,3.74.23,5.54.67,5.48,1.32,10.44,4.56,13.8,9.18,5.73,7.89,4.06,16.09,2,25-5.11,22.12-4.79,45.47.91,67.45.62,2.39,1.31,4.79,1.43,7.25.14,2.55-.34,5.1-1.2,7.5Z"/>
        <path class="cls-3" d="M78.16.85c1.88,0,3.74.23,5.54.67,5.48,1.32,10.44,4.56,13.8,9.18,5.73,7.89,4.06,16.09,2,25-5.11,22.12-4.79,45.47.91,67.45.62,2.39,1.31,4.79,1.43,7.25.14,2.55-.34,5.1-1.2,7.5-3.35,9.33-12.59,15.79-22.48,15.79H24.22c-6.93,0-13.63-3.08-18.14-8.34-4.06-4.73-5.38-9.56-5.16-14.87.1-2.41.52-4.93,1.15-7.57,4.88-20.52,6.2-42.13,1.68-62.73-1.19-5.45-2.8-10.87-2.9-16.44C.6,10.93,11.56.85,24.22.85h53.94M78.16,0H24.22c-6.6,0-13.02,2.69-17.63,7.39C2.23,11.84-.11,17.65,0,23.75c.08,4.45,1.11,8.84,2.11,13.08.28,1.17.55,2.35.81,3.52,4.19,19.09,3.62,40.07-1.68,62.35-.69,2.91-1.08,5.43-1.17,7.73-.25,5.99,1.46,10.9,5.36,15.46,4.64,5.41,11.66,8.63,18.78,8.63h53.94c10.25,0,19.82-6.72,23.28-16.35.97-2.7,1.39-5.33,1.25-7.83-.11-2.29-.7-4.52-1.26-6.68l-.19-.74c-5.67-21.87-5.98-45.06-.9-67.05,1.96-8.48,3.99-17.25-2.14-25.69-3.45-4.74-8.52-8.12-14.29-9.51-1.88-.46-3.81-.69-5.74-.69h0Z"/>
      </g>
      <path class="cls-1" d="M100.64,117.9c-3.35,9.33-12.59,15.79-22.48,15.79H24.22c-6.93,0-13.63-3.08-18.14-8.34-4.06-4.73-5.38-9.56-5.16-14.87,2.95,1.97,6.89,4.71,13.49,6.26,12.21,2.86,22.77-.88,27.65-2.61,6.09-2.16,13.51-4.79,19.04-12,3.6-4.69,5.22-9.78,6.26-13.04,1.69-5.31,2.17-9.8,2.61-14.09.77-7.55.01-8.45.52-12.26,1.39-10.38,8.05-11.63,13.57-23.48,1.27-2.73,5.42-11.9,4.43-22.7-.57-6.33-2.74-11.3-4.79-15.04,5.48,1.32,10.44,4.56,13.8,9.18,5.73,7.89,4.06,16.09,2,25-5.11,22.12-4.79,45.47.91,67.45.62,2.39,1.31,4.79,1.43,7.25.14,2.55-.34,5.1-1.2,7.5Z"/>
      <path class="cls-4" d="M35.93,4.17c-5.07-2.54-10.8-.68-12.91,0-.83.27-4.39,1.47-8.02,4.5-2.5,2.08-4.78,3.98-4.89,6.85-.07,1.73.65,4.06,2.35,4.89,1.84.9,4.05-.32,6.65-1.76,3.17-1.75,2.63-2.39,5.48-3.91,3.76-2.01,7.89-2.77,7.89-2.77,1.34-.24,2.23-.3,3.46-.95.43-.23,3.24-1.78,3.13-3.72-.09-1.61-2.17-2.65-3.13-3.13Z"/>
      <path class="cls-4" d="M10.1,25.01c-.62-.7-1.76-.78-2.54-.59-1.05.26-1.63,1.05-2.05,1.66-1.3,1.86-1.23,3.97-1.17,4.7.15,1.95.87,1.87,1.27,4.6.06.42.17,1.25.59,2.25.29.69.51,1.22,1.01,1.66.8.71,2.18,1.09,3.29.59,1.39-.62,1.69-2.3,1.86-3.23.29-1.61-.1-2.95-.59-4.6-.66-2.23-1.07-2.11-1.27-3.62-.25-1.85.28-2.67-.4-3.42Z"/>
      <path class="cls-1" d="M63.71,206.63v276.83c0,7.05-4.58,12.77-10.23,12.77s-10.22-5.72-10.22-12.77v-3.51c.6.34,1.24.51,1.93.44,5.04-.51,7.69-13.3,8.87-19.83,3.97-21.92,4.01-131.56,3.49-171.91-.13-10.03-1.41-110.27,5.38-148.83,1.12,22.14.78,44.36.78,66.81Z"/>
    </g>
  </g>
</svg>