<?xml version="1.0" encoding="UTF-8"?>
<svg id="Capa_2" data-name="Capa 2" xmlns="http://www.w3.org/2000/svg" viewBox="0 0 191.93 1009.18">
  <defs>
    <style>
      .cls-1 {
        fill: #93c67d;
      }

      .cls-2 {
        fill: #649547;
      }

      .cls-3 {
        fill: #7bb561;
      }

      .cls-4 {
        fill: #56843b;
      }

      .cls-5 {
        fill: #71a856;
      }
    </style>
  </defs>
  <g id="Capa_1-2" data-name="Capa 1">
    <g>
      <rect class="cls-4" x="43.64" y="644.88" width="10.29" height="115.84" rx="4.16" ry="4.16"/>
      <rect class="cls-4" x="145.34" y="644.88" width="10.29" height="115.84" rx="4.16" ry="4.16"/>
      <rect class="cls-5" x="93.24" y="649.96" width="10.29" height="115.84" rx="4.16" ry="4.16"/>
      <path class="cls-2" d="M75.57,758.53v201.81c0,14.79-11.99,26.78-26.78,26.78-10.37,0-19.37-5.9-23.81-14.52-1.9-3.68-2.97-7.84-2.97-12.26v-201.81c0-14.79,11.99-26.78,26.78-26.78,8.6,0,16.25,4.05,21.14,10.35,3.54,4.54,5.64,10.23,5.64,16.43Z"/>
      <path class="cls-4" d="M75.57,758.53v201.81c0,14.79-11.99,26.78-26.78,26.78-10.37,0-19.37-5.9-23.81-14.52,2.33.99,5.62,3.18,10.72,3.06,11.39-.27,19.56-11.77,21.39-14.35,3.46-4.86,5.73-10.38,7.76-21.98,3.51-20.03,2.35-35.41,2.35-35.41-1.89-25.04-1.19-50.87.22-102.52.79-29.43,1.79-22.27,2.33-47.74.09-4.59.13-8.41.18-11.56,3.54,4.54,5.64,10.23,5.64,16.43Z"/>
      <g>
        <path class="cls-2" d="M191.93,519.42v91.6c0,12.46-5.9,23.74-15.43,31.9-9.54,8.16-22.71,13.21-37.26,13.21-23.19,0-42.88-12.82-49.93-30.64h0c-1.8-4.55-2.77-9.42-2.77-14.48v-91.6c0-24.91,23.59-45.1,52.7-45.1,23.05,0,42.64,12.67,49.79,30.32h0c1.88,4.64,2.9,9.6,2.9,14.78Z"/>
        <path class="cls-4" d="M191.93,519.42v91.6c0,12.46-5.9,23.74-15.43,31.9-9.54,8.16-22.71,13.21-37.26,13.21-23.19,0-42.88-12.82-49.93-30.64,13.66,5.62,31.29,15.1,49.24,9.08,16.82-5.64,25.24-22,31.06-33.29,7.7-14.97,8.45-26.65,10.14-40.87,1.77-14.81,5.3-38.44,9.28-55.77,1.88,4.63,2.9,9.6,2.9,14.78Z"/>
        <path class="cls-5" d="M134.12,477.56c-4.85-2.68-13.74,3.02-17.74,5.58-11.81,7.56-19.53,18.66-17.74,20.1,1.46,1.17,6.98-5.92,21.65-10.94,8.76-3,14.79-3.21,16.43-7.15,1.11-2.64-.07-6.19-2.61-7.59Z"/>
        <path class="cls-1" d="M93.43,509.05c-1.32-.12-3.28,6.88-4.12,10.72-2.28,10.36-1.7,21.51,0,21.66,1.55.14,4.12-8.92,5.04-16.19.95-7.48.53-16.06-.91-16.19Z"/>
      </g>
      <g>
        <path class="cls-2" d="M112.07,521.09v91.6c0,12.46-5.9,23.74-15.43,31.9-9.54,8.16-22.71,13.21-37.26,13.21-23.19,0-42.88-12.82-49.93-30.64h0c-1.8-4.55-2.77-9.42-2.77-14.48v-91.6c0-24.91,23.59-45.1,52.7-45.1,23.05,0,42.64,12.67,49.79,30.32h0c1.88,4.64,2.9,9.6,2.9,14.78Z"/>
        <path class="cls-4" d="M112.07,521.09v91.6c0,12.46-5.9,23.74-15.43,31.9-9.54,8.16-22.71,13.21-37.26,13.21-23.19,0-42.88-12.82-49.93-30.64,13.66,5.62,31.29,15.1,49.24,9.08,16.82-5.64,25.24-22,31.06-33.29,7.7-14.97,8.45-26.65,10.14-40.87,1.77-14.81,5.3-38.44,9.28-55.77,1.88,4.63,2.9,9.6,2.9,14.78Z"/>
        <path class="cls-5" d="M54.27,479.24c-4.85-2.68-13.74,3.02-17.74,5.58-11.81,7.56-19.53,18.66-17.74,20.1,1.46,1.17,6.98-5.92,21.65-10.94,8.76-3,14.79-3.21,16.43-7.15,1.11-2.64-.07-6.19-2.61-7.59Z"/>
        <path class="cls-1" d="M13.57,510.72c-1.32-.12-3.28,6.88-4.12,10.72-2.28,10.36-1.7,21.51,0,21.66,1.55.14,4.12-8.92,5.04-16.19.95-7.48.53-16.06-.91-16.19Z"/>
      </g>
      <g>
        <path class="cls-3" d="M149.8,531.53v91.6c0,12.46-5.9,23.74-15.43,31.9-9.54,8.16-22.71,13.21-37.26,13.21-23.19,0-42.88-12.82-49.93-30.64h0c-1.8-4.55-2.77-9.42-2.77-14.48v-91.6c0-24.91,23.59-45.1,52.7-45.1,23.05,0,42.64,12.67,49.79,30.32h0c1.88,4.64,2.9,9.6,2.9,14.78Z"/>
        <path class="cls-5" d="M149.8,531.53v91.6c0,12.46-5.9,23.74-15.43,31.9-9.54,8.16-22.71,13.21-37.26,13.21-23.19,0-42.88-12.82-49.93-30.64,13.66,5.62,31.29,15.1,49.24,9.08,16.82-5.64,25.24-22,31.06-33.29,7.7-14.97,8.45-26.65,10.14-40.87,1.77-14.81,5.3-38.44,9.28-55.77,1.88,4.63,2.9,9.6,2.9,14.78Z"/>
        <path class="cls-1" d="M91.99,489.68c-4.85-2.68-13.74,3.02-17.74,5.58-11.81,7.56-19.53,18.66-17.74,20.1,1.46,1.17,6.98-5.92,21.65-10.94,8.76-3,14.79-3.21,16.43-7.15,1.11-2.64-.07-6.19-2.61-7.59Z"/>
        <path class="cls-1" d="M51.3,521.16c-1.32-.12-3.28,6.88-4.12,10.72-2.28,10.36-1.7,21.51,0,21.66,1.55.14,4.12-8.92,5.04-16.19.95-7.48.53-16.06-.91-16.19Z"/>
      </g>
      <g>
        <path class="cls-2" d="M187.47,364.79v91.6c0,12.46-5.9,23.74-15.43,31.9-9.54,8.16-22.71,13.21-37.26,13.21-23.19,0-42.88-12.82-49.93-30.64h0c-1.8-4.55-2.77-9.42-2.77-14.48v-91.6c0-24.91,23.59-45.1,52.7-45.1,23.05,0,42.64,12.67,49.79,30.32h0c1.88,4.64,2.9,9.6,2.9,14.78Z"/>
        <path class="cls-4" d="M187.47,364.79v91.6c0,12.46-5.9,23.74-15.43,31.9-9.54,8.16-22.71,13.21-37.26,13.21-23.19,0-42.88-12.82-49.93-30.64,13.66,5.62,31.29,15.1,49.24,9.08,16.82-5.64,25.24-22,31.06-33.29,7.7-14.97,8.45-26.65,10.14-40.87,1.77-14.81,5.3-38.44,9.28-55.77,1.88,4.63,2.9,9.6,2.9,14.78Z"/>
        <path class="cls-5" d="M129.67,322.93c-4.85-2.68-13.74,3.02-17.74,5.58-11.81,7.56-19.53,18.66-17.74,20.1,1.46,1.17,6.98-5.92,21.65-10.94,8.76-3,14.79-3.21,16.43-7.15,1.11-2.64-.07-6.19-2.61-7.59Z"/>
        <path class="cls-1" d="M88.98,354.42c-1.32-.12-3.28,6.88-4.12,10.72-2.28,10.36-1.7,21.51,0,21.66,1.55.14,4.12-8.92,5.04-16.19.95-7.48.53-16.06-.91-16.19Z"/>
      </g>
      <g>
        <path class="cls-2" d="M107.62,366.46v91.6c0,12.46-5.9,23.74-15.43,31.9-9.54,8.16-22.71,13.21-37.26,13.21-23.19,0-42.88-12.82-49.93-30.64h0c-1.8-4.55-2.77-9.42-2.77-14.48v-91.6c0-24.91,23.59-45.1,52.7-45.1,23.05,0,42.64,12.67,49.79,30.32h0c1.88,4.64,2.9,9.6,2.9,14.78Z"/>
        <path class="cls-4" d="M107.62,366.46v91.6c0,12.46-5.9,23.74-15.43,31.9-9.54,8.16-22.71,13.21-37.26,13.21-23.19,0-42.88-12.82-49.93-30.64,13.66,5.62,31.29,15.1,49.24,9.08,16.82-5.64,25.24-22,31.06-33.29,7.7-14.97,8.45-26.65,10.14-40.87,1.77-14.81,5.3-38.44,9.28-55.77,1.88,4.63,2.9,9.6,2.9,14.78Z"/>
        <path class="cls-5" d="M49.81,324.61c-4.85-2.68-13.74,3.02-17.74,5.58-11.81,7.56-19.53,18.66-17.74,20.1,1.46,1.17,6.98-5.92,21.65-10.94,8.76-3,14.79-3.21,16.43-7.15,1.11-2.64-.07-6.19-2.61-7.59Z"/>
        <path class="cls-1" d="M9.12,356.09c-1.32-.12-3.28,6.88-4.12,10.72-2.28,10.36-1.7,21.51,0,21.66,1.55.14,4.12-8.92,5.04-16.19.95-7.48.53-16.06-.91-16.19Z"/>
      </g>
      <g>
        <path class="cls-3" d="M145.34,376.9v91.6c0,12.46-5.9,23.74-15.43,31.9-9.54,8.16-22.71,13.21-37.26,13.21-23.19,0-42.88-12.82-49.93-30.64h0c-1.8-4.55-2.77-9.42-2.77-14.48v-91.6c0-24.91,23.59-45.1,52.7-45.1,23.05,0,42.64,12.67,49.79,30.32h0c1.88,4.64,2.9,9.6,2.9,14.78Z"/>
        <path class="cls-5" d="M145.34,376.9v91.6c0,12.46-5.9,23.74-15.43,31.9-9.54,8.16-22.71,13.21-37.26,13.21-23.19,0-42.88-12.82-49.93-30.64,13.66,5.62,31.29,15.1,49.24,9.08,16.82-5.64,25.24-22,31.06-33.29,7.7-14.97,8.45-26.65,10.14-40.87,1.77-14.81,5.3-38.44,9.28-55.77,1.88,4.63,2.9,9.6,2.9,14.78Z"/>
        <path class="cls-1" d="M87.54,335.05c-4.85-2.68-13.74,3.02-17.74,5.58-11.81,7.56-19.53,18.66-17.74,20.1,1.46,1.17,6.98-5.92,21.65-10.94,8.76-3,14.79-3.21,16.43-7.15,1.11-2.64-.07-6.19-2.61-7.59Z"/>
        <path class="cls-1" d="M46.85,366.53c-1.32-.12-3.28,6.88-4.12,10.72-2.28,10.36-1.7,21.51,0,21.66,1.55.14,4.12-8.92,5.04-16.19.95-7.48.53-16.06-.91-16.19Z"/>
      </g>
      <g>
        <path class="cls-2" d="M189.7,199.73v91.6c0,12.46-5.9,23.74-15.43,31.9-9.54,8.16-22.71,13.21-37.26,13.21-23.19,0-42.88-12.82-49.93-30.64h0c-1.8-4.55-2.77-9.42-2.77-14.48v-91.6c0-24.91,23.59-45.1,52.7-45.1,23.05,0,42.64,12.67,49.79,30.32h0c1.88,4.64,2.9,9.6,2.9,14.78Z"/>
        <path class="cls-4" d="M189.7,199.73v91.6c0,12.46-5.9,23.74-15.43,31.9-9.54,8.16-22.71,13.21-37.26,13.21-23.19,0-42.88-12.82-49.93-30.64,13.66,5.62,31.29,15.1,49.24,9.08,16.82-5.64,25.24-22,31.06-33.29,7.7-14.97,8.45-26.65,10.14-40.87,1.77-14.81,5.3-38.44,9.28-55.77,1.88,4.63,2.9,9.6,2.9,14.78Z"/>
        <path class="cls-5" d="M131.9,157.88c-4.85-2.68-13.74,3.02-17.74,5.58-11.81,7.56-19.53,18.66-17.74,20.1,1.46,1.17,6.98-5.92,21.65-10.94,8.76-3,14.79-3.21,16.43-7.15,1.11-2.64-.07-6.19-2.61-7.59Z"/>
        <path class="cls-1" d="M91.2,189.36c-1.32-.12-3.28,6.88-4.12,10.72-2.28,10.36-1.7,21.51,0,21.66,1.55.14,4.12-8.92,5.04-16.19.95-7.48.53-16.06-.91-16.19Z"/>
      </g>
      <g>
        <path class="cls-2" d="M109.84,201.41v91.6c0,12.46-5.9,23.74-15.43,31.9-9.54,8.16-22.71,13.21-37.26,13.21-23.19,0-42.88-12.82-49.93-30.64h0c-1.8-4.55-2.77-9.42-2.77-14.48v-91.6c0-24.91,23.59-45.1,52.7-45.1,23.05,0,42.64,12.67,49.79,30.32h0c1.88,4.64,2.9,9.6,2.9,14.78Z"/>
        <path class="cls-4" d="M109.84,201.41v91.6c0,12.46-5.9,23.74-15.43,31.9-9.54,8.16-22.71,13.21-37.26,13.21-23.19,0-42.88-12.82-49.93-30.64,13.66,5.62,31.29,15.1,49.24,9.08,16.82-5.64,25.24-22,31.06-33.29,7.7-14.97,8.45-26.65,10.14-40.87,1.77-14.81,5.3-38.44,9.28-55.77,1.88,4.63,2.9,9.6,2.9,14.78Z"/>
        <path class="cls-5" d="M52.04,159.55c-4.85-2.68-13.74,3.02-17.74,5.58-11.81,7.56-19.53,18.66-17.74,20.1,1.46,1.17,6.98-5.92,21.65-10.94,8.76-3,14.79-3.21,16.43-7.15,1.11-2.64-.07-6.19-2.61-7.59Z"/>
        <path class="cls-1" d="M11.35,191.04c-1.32-.12-3.28,6.88-4.12,10.72-2.28,10.36-1.7,21.51,0,21.66,1.55.14,4.12-8.92,5.04-16.19.95-7.48.53-16.06-.91-16.19Z"/>
      </g>
      <g>
        <path class="cls-3" d="M147.57,211.85v91.6c0,12.46-5.9,23.74-15.43,31.9-9.54,8.16-22.71,13.21-37.26,13.21-23.19,0-42.88-12.82-49.93-30.64h0c-1.8-4.55-2.77-9.42-2.77-14.48v-91.6c0-24.91,23.59-45.1,52.7-45.1,23.05,0,42.64,12.67,49.79,30.32h0c1.88,4.64,2.9,9.6,2.9,14.78Z"/>
        <path class="cls-5" d="M147.57,211.85v91.6c0,12.46-5.9,23.74-15.43,31.9-9.54,8.16-22.71,13.21-37.26,13.21-23.19,0-42.88-12.82-49.93-30.64,13.66,5.62,31.29,15.1,49.24,9.08,16.82-5.64,25.24-22,31.06-33.29,7.7-14.97,8.45-26.65,10.14-40.87,1.77-14.81,5.3-38.44,9.28-55.77,1.88,4.63,2.9,9.6,2.9,14.78Z"/>
        <path class="cls-1" d="M89.77,169.99c-4.85-2.68-13.74,3.02-17.74,5.58-11.81,7.56-19.53,18.66-17.74,20.1,1.46,1.17,6.98-5.92,21.65-10.94,8.76-3,14.79-3.21,16.43-7.15,1.11-2.64-.07-6.19-2.61-7.59Z"/>
        <path class="cls-1" d="M49.07,201.48c-1.32-.12-3.28,6.88-4.12,10.72-2.28,10.36-1.7,21.51,0,21.66,1.55.14,4.12-8.92,5.04-16.19.95-7.48.53-16.06-.91-16.19Z"/>
      </g>
      <g>
        <path class="cls-2" d="M185.25,45.1v91.6c0,12.46-5.9,23.74-15.43,31.9-9.54,8.16-22.71,13.21-37.26,13.21-23.19,0-42.88-12.82-49.93-30.64h0c-1.8-4.55-2.77-9.42-2.77-14.48V45.1C79.86,20.19,103.45,0,132.56,0c23.05,0,42.64,12.67,49.79,30.32h0c1.88,4.64,2.9,9.6,2.9,14.78Z"/>
        <path class="cls-4" d="M185.25,45.1v91.6c0,12.46-5.9,23.74-15.43,31.9-9.54,8.16-22.71,13.21-37.26,13.21-23.19,0-42.88-12.82-49.93-30.64,13.66,5.62,31.29,15.1,49.24,9.08,16.82-5.64,25.24-22,31.06-33.29,7.7-14.97,8.45-26.65,10.14-40.87,1.77-14.81,5.3-38.44,9.28-55.77,1.88,4.63,2.9,9.6,2.9,14.78Z"/>
        <path class="cls-5" d="M127.45,3.25c-4.85-2.68-13.74,3.02-17.74,5.58-11.81,7.56-19.53,18.66-17.74,20.1,1.46,1.17,6.98-5.92,21.65-10.94,8.76-3,14.79-3.21,16.43-7.15,1.11-2.64-.07-6.19-2.61-7.59Z"/>
        <path class="cls-1" d="M86.75,34.74c-1.32-.12-3.28,6.88-4.12,10.72-2.28,10.36-1.7,21.51,0,21.66,1.55.14,4.12-8.92,5.04-16.19.95-7.48.53-16.06-.91-16.19Z"/>
      </g>
      <g>
        <path class="cls-2" d="M105.39,46.78v91.6c0,12.46-5.9,23.74-15.43,31.9-9.54,8.16-22.71,13.21-37.26,13.21-23.19,0-42.88-12.82-49.93-30.64h0c-1.8-4.55-2.77-9.42-2.77-14.48V46.78C0,21.87,23.59,1.67,52.7,1.67c23.05,0,42.64,12.67,49.79,30.32h0c1.88,4.64,2.9,9.6,2.9,14.78Z"/>
        <path class="cls-4" d="M105.39,46.78v91.6c0,12.46-5.9,23.74-15.43,31.9-9.54,8.16-22.71,13.21-37.26,13.21-23.19,0-42.88-12.82-49.93-30.64,13.66,5.62,31.29,15.1,49.24,9.08,16.82-5.64,25.24-22,31.06-33.29,7.7-14.97,8.45-26.65,10.14-40.87,1.77-14.81,5.3-38.44,9.28-55.77,1.88,4.63,2.9,9.6,2.9,14.78Z"/>
        <path class="cls-5" d="M47.59,4.92c-4.85-2.68-13.74,3.02-17.74,5.58-11.81,7.56-19.53,18.66-17.74,20.1,1.46,1.17,6.98-5.92,21.65-10.94,8.76-3,14.79-3.21,16.43-7.15,1.11-2.64-.07-6.19-2.61-7.59Z"/>
        <path class="cls-1" d="M6.89,36.41c-1.32-.12-3.28,6.88-4.12,10.72-2.28,10.36-1.7,21.51,0,21.66,1.55.14,4.12-8.92,5.04-16.19.95-7.48.53-16.06-.91-16.19Z"/>
      </g>
      <g>
        <path class="cls-3" d="M143.12,57.22v91.6c0,12.46-5.9,23.74-15.43,31.9-9.54,8.16-22.71,13.21-37.26,13.21-23.19,0-42.88-12.82-49.93-30.64h0c-1.8-4.55-2.77-9.42-2.77-14.48V57.22c0-24.91,23.59-45.1,52.7-45.1,23.05,0,42.64,12.67,49.79,30.32h0c1.88,4.64,2.9,9.6,2.9,14.78Z"/>
        <path class="cls-5" d="M143.12,57.22v91.6c0,12.46-5.9,23.74-15.43,31.9-9.54,8.16-22.71,13.21-37.26,13.21-23.19,0-42.88-12.82-49.93-30.64,13.66,5.62,31.29,15.1,49.24,9.08,16.82-5.64,25.24-22,31.06-33.29,7.7-14.97,8.45-26.65,10.14-40.87,1.77-14.81,5.3-38.44,9.28-55.77,1.88,4.63,2.9,9.6,2.9,14.78Z"/>
        <path class="cls-1" d="M85.32,15.36c-4.85-2.68-13.74,3.02-17.74,5.58-11.81,7.56-19.53,18.66-17.74,20.1,1.46,1.17,6.98-5.92,21.65-10.94,8.76-3,14.79-3.21,16.43-7.15,1.11-2.64-.07-6.19-2.61-7.59Z"/>
        <path class="cls-1" d="M44.62,46.85c-1.32-.12-3.28,6.88-4.12,10.72-2.28,10.36-1.7,21.51,0,21.66,1.55.14,4.12-8.92,5.04-16.19.95-7.48.53-16.06-.91-16.19Z"/>
      </g>
      <path class="cls-2" d="M177.27,758.53v201.81c0,14.79-11.99,26.78-26.78,26.78-10.37,0-19.37-5.9-23.81-14.52-1.9-3.68-2.97-7.84-2.97-12.26v-201.81c0-14.79,11.99-26.78,26.78-26.78,8.6,0,16.25,4.05,21.14,10.35,3.54,4.54,5.64,10.23,5.64,16.43Z"/>
      <path class="cls-3" d="M126.42,762.19v220.21c0,7.39-3,14.09-7.84,18.94-4.85,4.84-11.54,7.84-18.94,7.84-6.58,0-12.6-2.37-17.26-6.3-5.82-4.91-9.52-12.27-9.52-20.48v-220.21c0-14.78,11.99-26.77,26.78-26.77,9.19,0,17.3,4.63,22.13,11.68,2.93,4.3,4.65,9.49,4.65,15.09Z"/>
      <path class="cls-5" d="M126.42,762.19v220.21c0,7.39-3,14.09-7.84,18.94-4.85,4.84-11.54,7.84-18.94,7.84-6.58,0-12.6-2.37-17.26-6.3,4.95-.53,10.1-1.97,14.72-5.57,9.54-7.42,11.4-19.85,12.39-27.13,10.58-77.87,10.43-152.87,10.43-152.87-.05-24.44.64-54.15,1.85-70.21,2.93,4.3,4.65,9.49,4.65,15.09Z"/>
      <path class="cls-1" d="M91.72,738.89c-2.35-.8-5.34,2.32-7.04,4.11-2.94,3.08-5.92,7.62-5.09,8.41.27.26,2.47-1.03,6.85-3.62,0,0,1.51-.89,5.97-4.79.44-.39,1.2-1.07,1.17-1.96-.03-.96-.98-1.85-1.86-2.15Z"/>
      <path class="cls-1" d="M77.34,755.42c-.6-.11-2.03,3.11-2.35,6.46-.32,3.41.5,7.04,1.17,7.04.85,0,1.5-5.72,1.57-9.59.03-1.84.06-3.83-.39-3.91Z"/>
      <path class="cls-4" d="M177.27,758.53v201.81c0,14.79-11.99,26.78-26.78,26.78-10.37,0-19.37-5.9-23.81-14.52,2.33.99,5.62,3.18,10.72,3.06,11.39-.27,19.56-11.77,21.39-14.35,3.46-4.86,5.73-10.38,7.76-21.98,3.51-20.03,2.35-35.41,2.35-35.41-1.89-25.04-1.19-50.87.22-102.52.79-29.43,1.79-22.27,2.33-47.74.09-4.59.13-8.41.18-11.56,3.54,4.54,5.64,10.23,5.64,16.43Z"/>
    </g>
  </g>
</svg>