<?xml version="1.0" encoding="UTF-8"?>
<svg id="Capa_2" data-name="Capa 2" xmlns="http://www.w3.org/2000/svg" viewBox="0 0 217.44 610.24">
  <defs>
    <style>
      .cls-1 {
        fill: #ef7735;
      }

      .cls-2 {
        fill: #f18949;
      }

      .cls-3 {
        fill: #f39868;
      }
    </style>
  </defs>
  <g id="Capa_1-2" data-name="Capa 1">
    <g>
      <rect class="cls-1" x="42.6" y="421.64" width="19.48" height="188.61" rx="9.74" ry="9.74"/>
      <rect class="cls-1" x="155.21" y="421.64" width="19.48" height="188.61" rx="9.74" ry="9.74"/>
      <g>
        <path class="cls-2" d="M98.63,400.98c-2.41,11.39-9,21.92-18.41,28.82-11.92,8.75-28.08,11.43-42.16,6.93-8.81-2.81-16.66-8.39-22.41-15.63-3.44-4.33-6.13-9.24-7.81-14.51-3.31-10.37-2.83-21.43-1.55-32.11,1.26-10.55,1.29-21.13,1.41-31.8.25-22.44-.55-44.88-1.63-67.29-.37-7.48-.72-15.08,1.11-22.34,4.91-19.52,25.53-33.61,45.2-33.61,13.61,0,26.76,6.02,35.67,16.3.02.03.05.05.07.08,10.25,11.87,11.91,25.28,10.61,40.41-1.84,21.51-2.51,43.12-2,64.7.25,10.57.51,21.28,1.61,31.81.99,9.4,2.27,18.84.29,28.24Z"/>
        <path class="cls-1" d="M98.63,400.98c-2.41,11.39-9,21.92-18.41,28.82-11.92,8.75-28.08,11.43-42.16,6.93-8.81-2.81-16.66-8.39-22.41-15.63,8.55,1.77,18.72,2.41,29.18-1.42,14.77-5.41,28.89-19.31,32.09-35.22,2.05-10.2,0-20.35,0-20.35-1.76-8.7-4.56-10.4-5.09-16.82-.66-8.05,3.22-11.58,8.61-23.48,6.2-13.7,8.42-25.26,10.17-34.44,1.59-8.26,3.34-17.44,2.74-28.56-.55-10.17-2.89-18.56-5.3-25.07.02.03.05.05.07.08,10.25,11.87,11.91,25.28,10.61,40.41-1.84,21.51-2.51,43.12-2,64.7.25,10.57.51,21.28,1.61,31.81.99,9.4,2.27,18.84.29,28.24Z"/>
        <path class="cls-3" d="M44.04,224.29c-1.81-.7-5.38-1.13-14.61,5.35-2.26,1.58-16.22,11.38-14.35,15.13.89,1.77,2.81,2.46,3.26,2.41,3.72-.42,6.9-3.8,11.74-7.5,8.7-6.65,14.61-9.91,14.61-9.91.74-.41,2.48-1.35,2.48-2.61,0-1.62-2.92-2.79-3.13-2.87Z"/>
        <path class="cls-3" d="M14.35,251.19c-.62-.04-1.27.54-1.63,1.17-1.41,2.45-2.63,5.01-3.65,7.65-1.1,2.85-1.97,6.03-.98,8.92.3.88.78,1.71,1.48,2.32s1.63.99,2.55.9c1.59-.14,2.81-1.57,3.27-3.1s.32-3.16.3-4.76c-.07-3.71.44-7.44-.03-11.12-.06-.46-.14-.93-.37-1.32-.27-.45-.6-.65-.93-.67Z"/>
      </g>
      <g>
        <path class="cls-2" d="M93.31,181.54c-2.41,11.39-9,21.92-18.41,28.82-11.92,8.75-28.08,11.43-42.16,6.93-8.81-2.81-16.66-8.39-22.41-15.63-3.44-4.33-6.13-9.24-7.81-14.51-3.31-10.37-2.83-21.43-1.55-32.11,1.26-10.55,1.29-21.13,1.41-31.8.25-22.44-.55-44.88-1.63-67.29-.37-7.48-.72-15.08,1.11-22.34C6.77,14.09,27.39,0,47.06,0c13.61,0,26.76,6.02,35.67,16.3.02.03.05.05.07.08,10.25,11.87,11.91,25.28,10.61,40.41-1.84,21.51-2.51,43.12-2,64.7.25,10.57.51,21.28,1.61,31.81.99,9.4,2.27,18.84.29,28.24Z"/>
        <path class="cls-1" d="M93.31,181.54c-2.41,11.39-9,21.92-18.41,28.82-11.92,8.75-28.08,11.43-42.16,6.93-8.81-2.81-16.66-8.39-22.41-15.63,8.55,1.77,18.72,2.41,29.18-1.42,14.77-5.41,28.89-19.31,32.09-35.22,2.05-10.2,0-20.35,0-20.35-1.76-8.7-4.56-10.4-5.09-16.82-.66-8.05,3.22-11.58,8.61-23.48,6.2-13.7,8.42-25.26,10.17-34.44,1.59-8.26,3.34-17.44,2.74-28.56-.55-10.17-2.89-18.56-5.3-25.07.02.03.05.05.07.08,10.25,11.87,11.91,25.28,10.61,40.41-1.84,21.51-2.51,43.12-2,64.7.25,10.57.51,21.28,1.61,31.81.99,9.4,2.27,18.84.29,28.24Z"/>
        <path class="cls-3" d="M38.73,4.85c-1.81-.7-5.38-1.13-14.61,5.35-2.26,1.58-16.22,11.38-14.35,15.13.89,1.77,2.81,2.46,3.26,2.41,3.72-.42,6.9-3.8,11.74-7.5,8.7-6.65,14.61-9.91,14.61-9.91.74-.41,2.48-1.35,2.48-2.61,0-1.62-2.92-2.79-3.13-2.87Z"/>
        <path class="cls-3" d="M9.04,31.75c-.62-.04-1.27.54-1.63,1.17-1.41,2.45-2.63,5.01-3.65,7.65-1.1,2.85-1.97,6.03-.98,8.92.3.88.78,1.71,1.48,2.32.7.61,1.63.99,2.55.9,1.59-.14,2.81-1.57,3.27-3.1s.32-3.16.3-4.76c-.07-3.71.44-7.44-.03-11.12-.06-.46-.14-.93-.37-1.32-.27-.45-.6-.65-.93-.67Z"/>
      </g>
      <g>
        <path class="cls-2" d="M118.81,400.98c2.41,11.39,9,21.92,18.41,28.82,11.92,8.75,28.08,11.43,42.16,6.93,8.81-2.81,16.66-8.39,22.41-15.63,3.44-4.33,6.13-9.24,7.81-14.51,3.31-10.37,2.83-21.43,1.55-32.11-1.26-10.55-1.29-21.13-1.41-31.8-.25-22.44.55-44.88,1.63-67.29.37-7.48.72-15.08-1.11-22.34-4.91-19.52-25.53-33.61-45.2-33.61-13.61,0-26.76,6.02-35.67,16.3-.02.03-.05.05-.07.08-10.25,11.87-11.91,25.28-10.61,40.41,1.84,21.51,2.51,43.12,2,64.7-.25,10.57-.51,21.28-1.61,31.81-.99,9.4-2.27,18.84-.29,28.24Z"/>
        <path class="cls-1" d="M118.81,400.98c2.41,11.39,9,21.92,18.41,28.82,11.92,8.75,28.08,11.43,42.16,6.93,8.81-2.81,16.66-8.39,22.41-15.63-8.55,1.77-18.72,2.41-29.18-1.42-14.77-5.41-28.89-19.31-32.09-35.22-2.05-10.2,0-20.35,0-20.35,1.76-8.7,4.56-10.4,5.09-16.82.66-8.05-3.22-11.58-8.61-23.48-6.2-13.7-8.42-25.26-10.17-34.44-1.59-8.26-3.34-17.44-2.74-28.56.55-10.17,2.89-18.56,5.3-25.07-.02.03-.05.05-.07.08-10.25,11.87-11.91,25.28-10.61,40.41,1.84,21.51,2.51,43.12,2,64.7-.25,10.57-.51,21.28-1.61,31.81-.99,9.4-2.27,18.84-.29,28.24Z"/>
        <path class="cls-3" d="M173.4,224.29c1.81-.7,5.38-1.13,14.61,5.35,2.26,1.58,16.22,11.38,14.35,15.13-.89,1.77-2.81,2.46-3.26,2.41-3.72-.42-6.9-3.8-11.74-7.5-8.7-6.65-14.61-9.91-14.61-9.91-.74-.41-2.48-1.35-2.48-2.61,0-1.62,2.92-2.79,3.13-2.87Z"/>
        <path class="cls-3" d="M203.09,251.19c.62-.04,1.27.54,1.63,1.17,1.41,2.45,2.63,5.01,3.65,7.65,1.1,2.85,1.97,6.03.98,8.92-.3.88-.78,1.71-1.48,2.32s-1.63.99-2.55.9c-1.59-.14-2.81-1.57-3.27-3.1s-.32-3.16-.3-4.76c.07-3.71-.44-7.44.03-11.12.06-.46.14-.93.37-1.32.27-.45.6-.65.93-.67Z"/>
      </g>
      <g>
        <path class="cls-2" d="M124.13,181.54c2.41,11.39,9,21.92,18.41,28.82,11.92,8.75,28.08,11.43,42.16,6.93,8.81-2.81,16.66-8.39,22.41-15.63,3.44-4.33,6.13-9.24,7.81-14.51,3.31-10.37,2.83-21.43,1.55-32.11-1.26-10.55-1.29-21.13-1.41-31.8-.25-22.44.55-44.88,1.63-67.29.37-7.48.72-15.08-1.11-22.34C210.67,14.09,190.05,0,170.38,0c-13.61,0-26.76,6.02-35.67,16.3-.02.03-.05.05-.07.08-10.25,11.87-11.91,25.28-10.61,40.41,1.84,21.51,2.51,43.12,2,64.7-.25,10.57-.51,21.28-1.61,31.81-.99,9.4-2.27,18.84-.29,28.24Z"/>
        <path class="cls-1" d="M124.13,181.54c2.41,11.39,9,21.92,18.41,28.82,11.92,8.75,28.08,11.43,42.16,6.93,8.81-2.81,16.66-8.39,22.41-15.63-8.55,1.77-18.72,2.41-29.18-1.42-14.77-5.41-28.89-19.31-32.09-35.22-2.05-10.2,0-20.35,0-20.35,1.76-8.7,4.56-10.4,5.09-16.82.66-8.05-3.22-11.58-8.61-23.48-6.2-13.7-8.42-25.26-10.17-34.44-1.59-8.26-3.34-17.44-2.74-28.56.55-10.17,2.89-18.56,5.3-25.07-.02.03-.05.05-.07.08-10.25,11.87-11.91,25.28-10.61,40.41,1.84,21.51,2.51,43.12,2,64.7-.25,10.57-.51,21.28-1.61,31.81-.99,9.4-2.27,18.84-.29,28.24Z"/>
        <path class="cls-3" d="M178.71,4.85c1.81-.7,5.38-1.13,14.61,5.35,2.26,1.58,16.22,11.38,14.35,15.13-.89,1.77-2.81,2.46-3.26,2.41-3.72-.42-6.9-3.8-11.74-7.5-8.7-6.65-14.61-9.91-14.61-9.91-.74-.41-2.48-1.35-2.48-2.61,0-1.62,2.92-2.79,3.13-2.87Z"/>
        <path class="cls-3" d="M208.4,31.75c.62-.04,1.27.54,1.63,1.17,1.41,2.45,2.63,5.01,3.65,7.65,1.1,2.85,1.97,6.03.98,8.92-.3.88-.78,1.71-1.48,2.32s-1.63.99-2.55.9c-1.59-.14-2.81-1.57-3.27-3.1s-.32-3.16-.3-4.76c.07-3.71-.44-7.44.03-11.12.06-.46.14-.93.37-1.32.27-.45.6-.65.93-.67Z"/>
      </g>
    </g>
  </g>
</svg>