<?xml version="1.0" encoding="UTF-8" standalone="no"?>
<svg
   id="Capa_2"
   data-name="Capa 2"
   viewBox="0 0 99.670111 610.25001"
   version="1.1"
   sodipodi:docname="CD86 - green.svg"
   width="99.670113"
   height="610.25"
   inkscape:version="1.4.2 (ebf0e940, 2025-05-08)"
   xmlns:inkscape="http://www.inkscape.org/namespaces/inkscape"
   xmlns:sodipodi="http://sodipodi.sourceforge.net/DTD/sodipodi-0.dtd"
   xmlns="http://www.w3.org/2000/svg"
   xmlns:svg="http://www.w3.org/2000/svg">
  <sodipodi:namedview
     id="namedview18"
     pagecolor="#ffffff"
     bordercolor="#000000"
     borderopacity="0.25"
     inkscape:showpageshadow="2"
     inkscape:pageopacity="0.0"
     inkscape:pagecheckerboard="0"
     inkscape:deskcolor="#d1d1d1"
     inkscape:zoom="0.63655321"
     inkscape:cx="19.637007"
     inkscape:cy="249.78273"
     inkscape:window-width="1024"
     inkscape:window-height="723"
     inkscape:window-x="0"
     inkscape:window-y="38"
     inkscape:window-maximized="0"
     inkscape:current-layer="Capa_1-2" />
  <defs
     id="defs1">
    <style
       id="style1">
      .cls-1 {
        fill: #93c67d;
      }

      .cls-2 {
        fill: #7bb561;
      }

      .cls-3 {
        fill: #71a856;
      }
    </style>
  </defs>
  <g
     id="Capa_1-2"
     data-name="Capa 1"
     transform="translate(2.6274879e-4)">
    <g
       id="g18">
      <rect
         class="cls-3"
         x="42.599998"
         y="421.64001"
         width="19.48"
         height="188.61"
         rx="9.7399998"
         ry="9.7399998"
         id="rect1" />
      <g
         id="g5">
        <path
           class="cls-2"
           d="m 98.63,400.98 c -2.41,11.39 -9,21.92 -18.41,28.82 -11.92,8.75 -28.08,11.43 -42.16,6.93 C 29.25,433.92 21.4,428.34 15.65,421.1 12.21,416.77 9.52,411.86 7.84,406.59 4.53,396.22 5.01,385.16 6.29,374.48 7.55,363.93 7.58,353.35 7.7,342.68 7.95,320.24 7.15,297.8 6.07,275.39 5.7,267.91 5.35,260.31 7.18,253.05 c 4.91,-19.52 25.53,-33.61 45.2,-33.61 13.61,0 26.76,6.02 35.67,16.3 0.02,0.03 0.05,0.05 0.07,0.08 10.25,11.87 11.91,25.28 10.61,40.41 -1.84,21.51 -2.51,43.12 -2,64.7 0.25,10.57 0.51,21.28 1.61,31.81 0.99,9.4 2.27,18.84 0.29,28.24 z"
           id="path2" />
        <path
           class="cls-3"
           d="m 98.63,400.98 c -2.41,11.39 -9,21.92 -18.41,28.82 -11.92,8.75 -28.08,11.43 -42.16,6.93 -8.81,-2.81 -16.66,-8.39 -22.41,-15.63 8.55,1.77 18.72,2.41 29.18,-1.42 14.77,-5.41 28.89,-19.31 32.09,-35.22 2.05,-10.2 0,-20.35 0,-20.35 -1.76,-8.7 -4.56,-10.4 -5.09,-16.82 -0.66,-8.05 3.22,-11.58 8.61,-23.48 6.2,-13.7 8.42,-25.26 10.17,-34.44 1.59,-8.26 3.34,-17.44 2.74,-28.56 -0.55,-10.17 -2.89,-18.56 -5.3,-25.07 0.02,0.03 0.05,0.05 0.07,0.08 10.25,11.87 11.91,25.28 10.61,40.41 -1.84,21.51 -2.51,43.12 -2,64.7 0.25,10.57 0.51,21.28 1.61,31.81 0.99,9.4 2.27,18.84 0.29,28.24 z"
           id="path3" />
        <path
           class="cls-1"
           d="m 44.04,224.29 c -1.81,-0.7 -5.38,-1.13 -14.61,5.35 -2.26,1.58 -16.22,11.38 -14.35,15.13 0.89,1.77 2.81,2.46 3.26,2.41 3.72,-0.42 6.9,-3.8 11.74,-7.5 8.7,-6.65 14.61,-9.91 14.61,-9.91 0.74,-0.41 2.48,-1.35 2.48,-2.61 0,-1.62 -2.92,-2.79 -3.13,-2.87 z"
           id="path4" />
        <path
           class="cls-1"
           d="m 14.35,251.19 c -0.62,-0.04 -1.27,0.54 -1.63,1.17 -1.41,2.45 -2.63,5.01 -3.65,7.65 -1.1,2.85 -1.97,6.03 -0.98,8.92 0.3,0.88 0.78,1.71 1.48,2.32 0.7,0.61 1.63,0.99 2.55,0.9 1.59,-0.14 2.81,-1.57 3.27,-3.1 0.46,-1.53 0.32,-3.16 0.3,-4.76 -0.07,-3.71 0.44,-7.44 -0.03,-11.12 -0.06,-0.46 -0.14,-0.93 -0.37,-1.32 -0.27,-0.45 -0.6,-0.65 -0.93,-0.67 z"
           id="path5" />
      </g>
      <g
         id="g9">
        <path
           class="cls-2"
           d="m 93.31,181.54 c -2.41,11.39 -9,21.92 -18.41,28.82 -11.92,8.75 -28.08,11.43 -42.16,6.93 C 23.93,214.48 16.08,208.9 10.33,201.66 6.89,197.33 4.2,192.42 2.52,187.15 -0.79,176.78 -0.31,165.72 0.97,155.04 2.23,144.49 2.26,133.91 2.38,123.24 2.63,100.8 1.83,78.36 0.75,55.95 0.38,48.47 0.03,40.87 1.86,33.61 6.77,14.09 27.39,0 47.06,0 c 13.61,0 26.76,6.02 35.67,16.3 0.02,0.03 0.05,0.05 0.07,0.08 10.25,11.87 11.91,25.28 10.61,40.41 -1.84,21.51 -2.51,43.12 -2,64.7 0.25,10.57 0.51,21.28 1.61,31.81 0.99,9.4 2.27,18.84 0.29,28.24 z"
           id="path6" />
        <path
           class="cls-3"
           d="m 93.31,181.54 c -2.41,11.39 -9,21.92 -18.41,28.82 -11.92,8.75 -28.08,11.43 -42.16,6.93 -8.81,-2.81 -16.66,-8.39 -22.41,-15.63 8.55,1.77 18.72,2.41 29.18,-1.42 14.77,-5.41 28.89,-19.31 32.09,-35.22 2.05,-10.2 0,-20.35 0,-20.35 -1.76,-8.7 -4.56,-10.4 -5.09,-16.82 -0.66,-8.05 3.22,-11.58 8.61,-23.48 6.2,-13.7 8.42,-25.26 10.17,-34.44 1.59,-8.26 3.34,-17.44 2.74,-28.56 -0.55,-10.17 -2.89,-18.56 -5.3,-25.07 0.02,0.03 0.05,0.05 0.07,0.08 10.25,11.87 11.91,25.28 10.61,40.41 -1.84,21.51 -2.51,43.12 -2,64.7 0.25,10.57 0.51,21.28 1.61,31.81 0.99,9.4 2.27,18.84 0.29,28.24 z"
           id="path7" />
        <path
           class="cls-1"
           d="M 38.73,4.85 C 36.92,4.15 33.35,3.72 24.12,10.2 21.86,11.78 7.9,21.58 9.77,25.33 c 0.89,1.77 2.81,2.46 3.26,2.41 3.72,-0.42 6.9,-3.8 11.74,-7.5 8.7,-6.65 14.61,-9.91 14.61,-9.91 0.74,-0.41 2.48,-1.35 2.48,-2.61 0,-1.62 -2.92,-2.79 -3.13,-2.87 z"
           id="path8" />
        <path
           class="cls-1"
           d="M 9.04,31.75 C 8.42,31.71 7.77,32.29 7.41,32.92 6,35.37 4.78,37.93 3.76,40.57 c -1.1,2.85 -1.97,6.03 -0.98,8.92 0.3,0.88 0.78,1.71 1.48,2.32 0.7,0.61 1.63,0.99 2.55,0.9 1.59,-0.14 2.81,-1.57 3.27,-3.1 0.46,-1.53 0.32,-3.16 0.3,-4.76 C 10.31,41.14 10.82,37.41 10.35,33.73 10.29,33.27 10.21,32.8 9.98,32.41 9.71,31.96 9.38,31.76 9.05,31.74 Z"
           id="path9" />
      </g>
    </g>
  </g>
</svg>
