<?xml version="1.0" encoding="UTF-8"?>
<svg id="Capa_2" data-name="Capa 2" xmlns="http://www.w3.org/2000/svg" viewBox="0 0 110.79 551.15">
  <defs>
    <style>
      .cls-1 {
        fill: #93c67d;
      }

      .cls-2 {
        fill: #649547;
      }

      .cls-3 {
        fill: #7bb561;
      }

      .cls-4 {
        fill: #71a856;
      }
    </style>
  </defs>
  <g id="Capa_1-2" data-name="Capa 1">
    <g>
      <g>
        <path class="cls-3" d="M109.94,363.9h0c0,3.94-1.59,7.49-4.16,10.05-2.58,2.57-6.13,4.16-10.04,4.16-8.4,0-15.22,6.81-15.22,15.22v150.77c0,3.61-3.08,6.49-6.75,6.17-3.26-.28-5.64-3.22-5.64-6.49v-150.39c0-8.39-6.76-15.32-15.15-15.29-7.87.05-14.26-6.33-14.27-14.19h0s7.36-63.59,7.36-63.59c.75-6.41,6.17-11.26,12.64-11.26h5.45c.08,0,.09-.09.01-.11-9.13-2.1-15.8-8.74-15.8-16.63l-6.16-68.82c-.52-5.88,5.17-10.87,12.47-11.2.08,0,.09-.08.02-.1-7.23-2.05-12.53-8.67-12.53-16.56v-54.72c0-8.19,5.72-15.04,13.38-16.78.07-.02.07-.1,0-.11-8.55-1.29-15.76-7.32-18.42-15.74l-1.4-4.42h0c-1.64-2.66-3.1-5.44-4.43-8.2-5.2-10.7-9.57-21.93-16.72-31.43-3.98-5.28-8.82-10.01-11.72-15.96C-1.81,18.73,1.71,5.12,13.14,2.76c3.88-.8,7.88-.45,11.84-.44,9.05.03,18.05-1.71,27.08-1.45,8.55.26,16.93,2.31,25.42,3.32,2.35.28,4.74.5,7.07.88,2.53.41,5,1.02,7.29,2.13,5.31,2.57,9.13,7.59,11.32,13.06,3.45,8.59,3.26,18.21,2.15,27.4-.89,7.4-2.33,14.75-2.85,22.15v.02l1.04,8.91c1.35,11.66-6.26,22.09-17.08,24.83-.08.02-.07.11.01.11h2.74c9.54,0,17.29,7.75,17.29,17.29v54.65c0,8.91-6.76,16.23-15.42,17.13l2.4.03c7.69.1,13.65,5.34,12.97,11.39l-7.6,68.12c0,7.89-6.67,14.53-15.8,16.63-.08.02-.07.11.01.11h4.46c6.28,0,11.61,4.58,12.56,10.79l9.89,64.05Z"/>
        <path class="cls-2" d="M50.18.85c.63,0,1.26,0,1.88.03,8.55.26,16.93,2.31,25.42,3.32,2.35.28,4.74.5,7.07.88,2.53.41,5,1.02,7.29,2.13,5.31,2.57,9.13,7.59,11.32,13.06,3.45,8.59,3.26,18.21,2.15,27.4-.89,7.4-2.33,14.75-2.85,22.15v.02l1.04,8.91c1.35,11.66-6.26,22.08-17.08,24.83-.08.02-.07.11.01.11h2.74c9.54,0,17.29,7.75,17.29,17.29v54.65c0,8.91-6.76,16.23-15.42,17.13l2.4.03c7.69.1,13.65,5.34,12.97,11.39l-7.6,68.12c0,7.89-6.67,14.53-15.8,16.63-.08.02-.07.11.01.11h4.46c6.28,0,11.61,4.58,12.56,10.79l9.89,64.05h0c0,3.94-1.59,7.49-4.16,10.05-2.58,2.57-6.13,4.16-10.04,4.16-8.4,0-15.22,6.81-15.22,15.22v150.77c0,3.43-2.77,6.2-6.2,6.2-.18,0-.37,0-.55-.02-3.26-.28-5.64-3.22-5.64-6.49v-150.39c0-8.37-6.73-15.29-15.09-15.29-.02,0-.04,0-.06,0-.03,0-.06,0-.08,0-7.83,0-14.18-6.36-14.19-14.19h0s7.36-63.59,7.36-63.59c.75-6.41,6.17-11.26,12.64-11.26h5.45c.08,0,.09-.09.01-.11-9.13-2.1-15.8-8.74-15.8-16.63l-6.16-68.82c-.52-5.88,5.17-10.87,12.47-11.2.08,0,.09-.08.02-.1-7.23-2.05-12.53-8.67-12.53-16.56v-54.72c0-8.19,5.72-15.04,13.38-16.78.07-.02.07-.1,0-.11-8.55-1.29-15.76-7.32-18.42-15.74l-1.4-4.42h0c-1.64-2.66-3.1-5.44-4.43-8.2-5.2-10.7-9.57-21.93-16.72-31.43-3.98-5.28-8.82-10.01-11.72-15.96C-1.81,18.73,1.71,5.12,13.14,2.76c2.05-.42,4.14-.53,6.24-.53,1.87,0,3.74.08,5.6.09.09,0,.17,0,.26,0,8.33,0,16.62-1.47,24.94-1.47M50.18,0c-4.19,0-8.43.38-12.53.74-4.07.36-8.28.73-12.4.73h-.26c-.9,0-1.79-.02-2.69-.04-.97-.02-1.95-.04-2.92-.04-1.76,0-4.08.06-6.41.54-4.84,1-8.73,4.05-10.96,8.6-2.71,5.52-2.68,12.46.08,18.12,2.05,4.21,5.06,7.84,7.98,11.35,1.28,1.54,2.61,3.14,3.82,4.75,5.45,7.23,9.34,15.64,13.11,23.78,1.14,2.47,2.32,5.02,3.53,7.5,1.52,3.15,2.97,5.82,4.41,8.16l1.38,4.34c2.4,7.61,8.58,13.51,16.16,15.68-6.7,2.74-11.16,9.24-11.16,16.7v54.72c0,6.96,4.06,13.26,10.18,16.24-3.07.71-5.75,2.23-7.63,4.37-1.85,2.12-2.75,4.71-2.52,7.31l6.16,68.79c.02,6.66,4.67,12.72,11.76,15.86h-.58c-6.89,0-12.69,5.16-13.48,12.01l-7.36,63.58v.05s0,.05,0,.05c.01,8.3,6.76,15.05,15.03,15.05h.09s.06,0,.06,0c7.86,0,14.25,6.48,14.25,14.44v150.39c0,3.8,2.82,7.02,6.42,7.33.21.02.42.03.62.03,3.88,0,7.05-3.16,7.05-7.04v-150.77c0-7.93,6.45-14.38,14.38-14.38,4.01,0,7.78-1.57,10.64-4.41,2.84-2.84,4.41-6.62,4.41-10.64v-.14s-9.9-64.05-9.9-64.05c-1-6.53-6.43-11.31-12.99-11.5,7.09-3.14,11.75-9.2,11.77-15.86l7.59-68.07c.3-2.68-.6-5.37-2.53-7.56-2.01-2.28-5-3.86-8.33-4.48,6.49-2.78,10.92-9.2,10.92-16.61v-54.65c0-9.46-7.27-17.24-16.52-18.06,9.07-4.23,14.74-13.99,13.55-24.27l-1.03-8.84c.32-4.57,1.02-9.24,1.69-13.76.4-2.71.82-5.51,1.15-8.28.96-7.99,1.58-18.38-2.2-27.82-2.51-6.27-6.68-11.07-11.74-13.51-2.1-1.01-4.49-1.71-7.53-2.2-1.67-.28-3.4-.47-5.06-.65-.68-.08-1.36-.15-2.04-.23-3.09-.37-6.23-.89-9.26-1.39C63.04,1.1,57.57.19,52.09.03c-.64-.02-1.27-.03-1.91-.03h0Z"/>
      </g>
      <path class="cls-4" d="M109.94,363.9h0c0,3.94-1.59,7.49-4.16,10.05-2.58,2.57-6.13,4.16-10.04,4.16-8.4,0-15.22,6.81-15.22,15.22v150.77c0,3.61-3.08,6.49-6.75,6.17-3.26-.28-5.64-3.22-5.64-6.49v-14.99c1.19,6.11,1.55,12.83,3.57,12.91,1.75.08,3.48-4.82,4.21-7.08,1.48-4.66,1.27-8.56,1.22-9.4-.61-11.2.63-58.44.06-69.63-.9-17.17.33-12.02-.61-58.52-.01-.63-.03-6.06-.29-13.13-.24-6.5-.36-9.75-.59-10.77-.66-2.87-1.48-4.55-.6-6.49.85-1.87,2.95-3.34,5.02-3.39,1.75-.05,2.26.95,5.16,2.21,1.29.57,4.3,1.88,6.78,1.63,3.99-.4,6.59-4.77,7.53-6.34,1.92-3.25,3.7-8.57-1.78-36.44,0,0-1.8-9.15-8.7-24.63-.84-1.88-2.04-4.32-4.58-5.76-1.28-.71-2.25-.8-6.05-1.91-2.35-.69-3.51-.45-4.72-1.48-.86-.72-1.93-2.14-1.62-3.39.43-1.71,3.3-2.32,4.57-2.65,0,0,3.86-1.04,12.83-9.44,1.58-1.49,3.91-4.3,7.08-29.21,3.75-29.58-.18-20.4,1.47-33.92.24-1.88.74-5.52-1.32-8.55-1.33-1.97-3.35-3.09-7.37-5.31-.92-.51-2.91-1.56-5.61-2.66-3.16-1.27-5.12-.54-6.78-2.21-.18-.19-1.71-1.71-1.32-3.1.45-1.71,3.45-2.17,5.45-2.66,0,0,2.69-.66,12.1-6.49,12.2-7.57,10.21-38.84,7.23-51.62-1.26-5.36-3.14-9.44-6.2-12.83-1.1-1.22-3.2-3.52-6.64-5.31-2.95-1.53-5.13-1.78-11.94-4.42-3.31-1.28-4.18-1.76-4.21-2.43-.06-1.21,2.66-1.88,9.07-5.09,3.12-1.56,4.7-2.36,6.2-3.54,0,0,3.19-2.52,5.53-6.64,7.8-13.73,2.14-51.18,2.14-51.18-2.59-5.62-9.52-21.33-9.86-32.84,2.53.41,5,1.02,7.29,2.13,5.31,2.57,9.13,7.59,11.32,13.06,3.45,8.59,3.26,18.21,2.15,27.4-.89,7.4-2.33,14.75-2.85,22.15v.02l1.04,8.91c1.35,11.66-6.26,22.09-17.08,24.83-.08.02-.07.11.01.11h2.74c9.54,0,17.29,7.75,17.29,17.29v54.65c0,8.91-6.76,16.23-15.42,17.13l2.4.03c7.69.1,13.65,5.34,12.97,11.39l-7.6,68.12c0,7.89-6.67,14.53-15.8,16.63-.08.02-.07.11.01.11h4.46c6.28,0,11.61,4.58,12.56,10.79l9.89,64.05Z"/>
      <path class="cls-1" d="M20.37,7.46c-8.3,2.64-8.24,1.68-9.74,2.88-5,4-3.42,12.96-3.32,13.5.7,3.7,2.13,4.6,8.19,13.72,4.55,6.86,7.04,11.31,7.52,11.06.62-.32-4.14-7.06-4.43-17.04-.14-4.98-.24-8.59,1.99-12.17,1.59-2.55,3.7-4.01,3.98-7.3.03-.34.28-3.72-1.49-4.71-.92-.51-2.01-.16-2.71.06Z"/>
      <path class="cls-1" d="M57.25,108.86c-3.58-.82-6.81,3.72-7.52,4.72-2.72,3.83-2.88,7.99-2.95,11.36-.16,8.17-.48,24.11,1.33,24.19,1.54.07,3.86-11.34,4.72-16.52,1.19-7.22,1.02-11.28,4.43-14.31,1.78-1.58,3.68-2.11,3.98-3.98.35-2.17-1.62-4.92-3.98-5.46Z"/>
      <path class="cls-1" d="M56.88,196.4c-2.86-1.39-6.76.43-8.63,2.21-2.61,2.49-2.76,6.34-1.61,16.59.17,1.47,2.54,22.28,4.06,22.12,1.1-.11-2.52-10.88,3.26-20.51,1.65-2.75,3.99-5.28,5.36-10.25,1.37-4.97.36-7.26-.44-8.41-.25-.36-.88-1.23-1.99-1.77Z"/>
      <path class="cls-1" d="M52.97,246.18c3.08,22.21,3.41,27.37,3.02,27.43-.47.08-2.33-7.29-3.02-14.49-.48-5.03-.34-9.43,0-12.94Z"/>
      <path class="cls-1" d="M61.08,293.09c-3.26-.92-6.05.7-6.69,1.11-3.5,2.2-4.49,6.6-5.26,12.61-1.5,11.78-1.51,24.93-.17,25,1.19.06-.53-10.21,6.43-17.92,2.24-2.48,4.94-4.21,8.12-9.07,2.84-4.34,2.83-6.24,2.43-7.52-.95-3.04-4.57-4.12-4.87-4.2Z"/>
    </g>
  </g>
</svg>