<?xml version="1.0" encoding="UTF-8"?>
<svg id="Capa_2" data-name="Capa 2" xmlns="http://www.w3.org/2000/svg" viewBox="0 0 238.91 577.19">
  <defs>
    <style>
      .cls-1 {
        fill: #d83b55;
      }

      .cls-2 {
        fill: #d5414b;
      }

      .cls-3 {
        fill: #a51c1e;
      }

      .cls-4 {
        fill: #e4606d;
      }

      .cls-5 {
        fill: #c03442;
      }

      .cls-6 {
        fill: #9f243a;
      }
    </style>
  </defs>
  <g id="Capa_1-2" data-name="Capa 1">
    <g>
      <path class="cls-6" d="M94.37,52.03v117.03c0,13.2-5.42,25.13-14.16,33.7-6.17,6.05-14.01,10.41-22.74,12.35v351.8c0,5.68-4.6,10.28-10.28,10.28s-10.3-4.6-10.3-10.28V215.11C15.78,210.42,0,191.58,0,169.06V52.03C0,25.98,21.12,4.85,47.19,4.85c15.6,0,29.44,7.58,38.03,19.25,1,1.35,1.93,2.77,2.78,4.24,4.05,6.97,6.38,15.06,6.38,23.7Z"/>
      <path class="cls-3" d="M80.21,202.76c-6.17,6.05-14.01,10.41-22.74,12.35v351.8c0,5.68-4.6,10.28-10.28,10.28s-10.3-4.6-10.3-10.28v-.91c2.22.52,4.5.7,6.76-.69,4.38-2.72,5-9.12,5.26-12.14,2.7-32.13-10.35-119.53,2.43-317.5.38-6.06,1.73-9.6.69-16.86-.73-5.17-2.24-9.17,0-11.87,1.48-1.77,3.2-1.33,6.45-2.42,6.66-2.23,11.98-8.26,13.61-13.76.73-2.47.27-3.31-1.15-12.94-1.51-10.34-2.27-15.5-2.22-20.02.1-8.77,4.38-14.21,4.86-19.62,2.08-23.59,2.08-43.01-1.49-69.7-.49-3.68-3.68-17.3-2.7-24,1.57-10.61,10.9-21.08,15.37-20.5.16.02.3.05.44.1,1.28.4,2.18,1.84,2.78,4.24,4.25,17.13-7.02,83.29-7.78,174.43Z"/>
      <path class="cls-6" d="M238.91,56.09v117.02c0,22.53-15.79,41.36-36.9,46.06v347.75c0,2.84-1.15,5.42-3.02,7.28-1.86,1.86-4.43,3.01-7.27,3.01-5.68,0-10.3-4.6-10.3-10.28V219.16c-21.11-4.7-36.9-23.53-36.9-46.06V56.09c0-26.07,21.13-47.19,47.2-47.19,22.06,0,40.58,15.13,45.75,35.59.94,3.71,1.44,7.6,1.44,11.6Z"/>
      <path class="cls-2" d="M162.91,145.68l3.57,18.53c0,22.46-15.71,41.25-36.74,46.01v317.85c0,5.68-4.61,10.29-10.28,10.29-4.07,0-7.6-2.37-9.26-5.8-.66-1.36-1.03-2.88-1.03-4.5V210.29c-21.44-4.68-37.32-24.1-36.5-46.12.32-8.4,2.27-16.64,3.68-24.92,5.32-31.29.3-61.12-4.25-92.07C72.1,21.13,93.22,0,119.29,0c19.23,0,35.77,11.5,43.12,28,2.62,5.86,4.06,12.35,4.06,19.18s-2.71,14.64-3.8,21.64c-1.33,8.5-2.28,17.05-2.78,25.64-.99,17.11-.22,34.36,3.02,51.21Z"/>
      <path class="cls-5" d="M162.91,145.68l3.57,18.53c0,22.46-15.71,41.25-36.74,46.01v317.85c0,5.68-4.61,10.29-10.28,10.29-4.07,0-7.6-2.37-9.26-5.8,1.92.12,3.97-.13,5.86-1.24,4.28-2.51,5.5-8.03,6.06-11.73,5.5-36.14,2.03-51.36,2.03-51.36-3.3-14.45,4.26,7.51-1.88-246.06-.52-21.11-.41-21.06-.55-21.57-.75-3.1-1.86-6.17-.27-8.62,2.15-3.32,7-2.14,11.6-3.51,10.87-3.25,15.16-19.23,16.45-23.99,3.65-13.57-1.27-17.23-2.15-37.48-.85-19.45,2.84-35.62,6.74-52.72,3.68-16.15,5.17-16,6.87-27.1,1.09-7.09,1.46-13.56,1.47-19.18,2.62,5.86,4.06,12.35,4.06,19.18s-2.71,14.64-3.8,21.64c-1.33,8.5-2.28,17.05-2.78,25.64-.99,17.11-.22,34.36,3.02,51.21Z"/>
      <path class="cls-4" d="M75.9,43.96c2.22-19.81,20.12-41.89,41.48-38.99,1.84.25,3.77.76,5.01,2.15,2.09,2.34,1.28,6.08-.29,8.8-6.14,10.69-20.11,13.83-28.99,22.38-4.19,4.03-7.12,9.16-10.62,13.81-.51.68-1.06,1.37-1.84,1.71-1.48.64-3.27-.29-4.1-1.67-.83-1.38-.91-3.08-.88-4.69.02-1.15.1-2.32.23-3.49Z"/>
      <path class="cls-4" d="M87.03,83.49c2.31-6.88-.73-13.64-1.62-15.47-.98-2.01-3.31-6.8-5.66-6.47-1.62.23-2.71,2.82-3.03,4.65-.54,3.05,1.07,3.83,2.63,10.11.7,2.83.75,4.18,1.92,6.57.64,1.3,1.99,4.07,3.44,3.94,1.22-.11,1.95-2.22,2.33-3.34Z"/>
      <path class="cls-3" d="M238.91,56.09v117.02c0,22.53-15.79,41.36-36.9,46.06v347.75c0,2.84-1.15,5.42-3.02,7.28-1.86,1.86-4.43,3.01-7.27,3.01-5.68,0-10.3-4.6-10.3-10.28v-.14c1.19,1.16,2.52,2.1,4.32,1.91,4.19-.44,6.86-6.64,7.55-8.23,1.92-4.43,1.84-8.39,1.83-9.1-1.03-54.17,2.65-108.37,1.27-162.53-.06-2.74.03.85,0-52.85-.03-70.67-2.53-105.62-2.49-108.09.1-5.97-2.89-12.72,1.22-16.69,2.18-2.11,5.25-1.28,8.49-1.82,10.37-1.71,16.3-16.27,18.41-21.44,10.72-26.32,10.52-71,10.51-77.25-.02-23.32,2.08-49.15,4.94-66.19.94,3.71,1.44,7.6,1.44,11.6Z"/>
      <path class="cls-1" d="M39.41,10.58c-5.99-3.05-17.37,6.14-23.46,14.76-10.13,14.34-9.67,32.82-7.08,33.57,1.78.52,2.46-7.91,11.33-15.64,6.05-5.27,11.32-6.22,19.21-14.29,1.94-1.99,3.7-4.05,4.25-7.08.77-4.24-.95-9.65-4.25-11.33Z"/>
      <path class="cls-1" d="M11.17,86.47c1.08-3.62,3.4-12.81,0-19.21-1.03-1.93-1.68-1.93-1.82-1.92-2.33.16-3.21,11.93-3.34,13.55-.83,11.09.5,23.24,2.02,23.26.74,0,1.79-2.82,3.13-15.67Z"/>
      <path class="cls-1" d="M195.6,15.37c-7.92-2.89-19.75.14-25.08,8.6-2.28,3.61-5.01,10.83-1.62,14.59,2.26,2.5,6.74,2.93,9.98,1.62,4.93-2,3.34-6.57,9.44-10.8.48-.33.15-.07,9.44-5.4,2.64-1.52,3.96-2.3,4.04-3.48.15-2.16-3.85-4.27-6.2-5.12Z"/>
    </g>
  </g>
</svg>