<?xml version="1.0" encoding="UTF-8"?>
<svg id="Capa_2" data-name="Capa 2" xmlns="http://www.w3.org/2000/svg" viewBox="0 0 274.21 612.75">
  <defs>
    <style>
      .cls-1 {
        fill: #70579c;
      }

      .cls-2 {
        fill: #a185bd;
      }

      .cls-3 {
        fill: #9170af;
      }

      .cls-4 {
        fill: #8467aa;
      }
    </style>
  </defs>
  <g id="Capa_1-2" data-name="Capa 1">
    <g>
      <g>
        <g>
          <path class="cls-3" d="M124.1,215.01v116.38c0,11.48-10.59,20.77-23.64,20.77-10.2,0-18.48,7.28-18.48,16.25v236.28c0,4.21-3.89,7.63-8.67,7.63s-8.69-3.42-8.69-7.63v-236.28c0-4.48-2.07-8.55-5.41-11.49-3.34-2.94-7.96-4.76-13.07-4.76-13.05,0-23.64-9.3-23.64-20.77v-116.38c0-11.48,10.59-20.77,23.64-20.77h54.32c13.05,0,23.64,9.3,23.64,20.77Z"/>
          <path class="cls-1" d="M73.31,612.75c-5.03,0-9.12-3.62-9.12-8.06v-236.28c0-4.21-1.87-8.18-5.27-11.16-3.41-3-7.95-4.65-12.78-4.65-13.27,0-24.07-9.51-24.07-21.21v-116.38c0-11.69,10.8-21.21,24.07-21.21h54.32c13.27,0,24.07,9.51,24.07,21.21v116.38c0,11.69-10.8,21.21-24.07,21.21-9.95,0-18.05,7.1-18.05,15.82v236.28c0,4.44-4.08,8.06-9.11,8.06ZM46.14,194.67c-12.8,0-23.21,9.12-23.21,20.34v116.38c0,11.21,10.41,20.34,23.21,20.34,5.04,0,9.78,1.73,13.35,4.87,3.59,3.15,5.56,7.35,5.56,11.82v236.28c0,3.97,3.7,7.19,8.26,7.19s8.24-3.23,8.24-7.19v-236.28c0-9.2,8.49-16.68,18.91-16.68,12.8,0,23.21-9.12,23.21-20.34v-116.38c0-11.21-10.41-20.34-23.21-20.34h-54.32Z"/>
        </g>
        <path class="cls-4" d="M124.1,240.48v90.91c0,11.48-10.59,20.77-23.64,20.77-10.2,0-18.48,7.28-18.48,16.25v236.28c0,4.21-3.89,7.63-8.67,7.63s-8.69-3.42-8.69-7.63v-16.8c1.88,2.49,3.48,5.42,5.58,5.1,3.28-.48,4.5-8.22,5.31-16.06,1.7-16.46.83-29.29.54-34.46-.1-1.76.03-59.63.49-93.28,1.1-83.04-.34-49.68,0-59.85.25-7.88.75-16.61-1.54-24.82-.34-1.24-.8-3.64-1.7-8.48-1.37-7.19-1.56-9.42,0-11.39,1.58-2.01,4.12-2.69,5.52-3.06,4.63-1.24,7.47,1.1,10.64,1.01,7.37-.18,12.59-12.7,13.61-15.18,7.06-17.35,13.66-56.6,21.03-86.97Z"/>
        <path class="cls-2" d="M64.62,201.13c-4.77-4.06-13.25-2.26-15.67-1.75-2.17.46-7.93,1.68-12.29,6.13-1.66,1.69-3.98,4.75-5.31,15.18-.79,6.18-2.49,20.93-.11,21.31,1.83.3,3.1-8.39,12.4-18.1,3.1-3.24,4.87-5.09,8.13-6.72,5.66-2.82,9.33-1.77,12.78-5.26.57-.58,3.2-3.23,2.66-6.57-.38-2.31-2.08-3.8-2.59-4.23Z"/>
      </g>
      <g>
        <path class="cls-3" d="M133.05,146.41c.04,16.67.23,25.99-4.88,31.99-3.95,4.63-9.16,5.9-13.2,6.9-5.75,1.41-8.99.49-17.6,0-1-.06-6.54-.05-17.6,0-15.32.05-30.64-.58-45.96,0-5.59.2-9.17.44-13.92-1.57-3.02-1.27-11.9-5.75-16.63-16.93-3.57-8.47-3.29-17.31-1.94-26.18.53-3.51,1.24-7.02,1.94-10.52,1.62-8.11,2.56-7.51,7.09-23.83,3.92-14.15,7.6-27.35,8.19-42.16.58-14.56-.17-29.32,3.14-43.63.87-3.73,2.07-7.51,4.59-10.4,2.74-3.14,6.73-4.84,10.59-6.44,3.93-1.65,8.02-3.32,12.29-3.23,12.06.22,11.1,10.69,8.99,18.98-.49,1.95-4.14,9.65.89,25.42,1.07,3.33,2.13,6.24,3.22,8.88,2.86,6.92,6.01,12.13,10.27,18.86,9.81,15.56,27.83,32.3,56.38,34.33.7.05,3.01-1.38,4.21,0,1.62,1.86.1,7.06-.54,9.64-2.34,9.53.46,12.09.48,29.87Z"/>
        <path class="cls-1" d="M108.84,186.45c-1.76,0-3.59-.15-5.83-.34-1.63-.13-3.47-.29-5.66-.41-1-.06-6.7-.05-17.57,0-5.5.02-11.09-.05-16.5-.12-9.65-.12-19.64-.25-29.45.12l-.76.03c-5.25.2-8.72.33-13.33-1.64-3.51-1.48-12.18-6.12-16.84-17.14-3.9-9.27-3.1-18.98-1.96-26.4.5-3.34,1.18-6.73,1.83-10.01l.1-.53c.83-4.15,1.5-6.09,2.52-9.03.99-2.87,2.36-6.81,4.58-14.82l.08-.27c3.86-13.95,7.51-27.13,8.1-41.8.14-3.58.21-7.24.27-10.77.19-10.87.38-22.1,2.88-32.93.82-3.52,2.01-7.52,4.68-10.57,2.88-3.29,7.05-5.02,10.74-6.55C40.47,1.7,44.73-.07,49.16,0c3.99.07,6.91,1.27,8.66,3.57,3.2,4.19,1.94,11.09.72,15.92-.05.21-.14.48-.25.81-.91,2.84-3.34,10.37,1.13,24.39,1.05,3.28,2.1,6.18,3.21,8.85,2.89,6.99,6.06,12.2,10.23,18.8,7.44,11.79,24.61,31.91,56.07,34.14.1,0,.47-.11.76-.2,1.07-.34,2.69-.86,3.73.34,1.62,1.86.48,6.31-.26,9.26l-.19.75c-1.32,5.38-.99,8.44-.45,13.52.41,3.84.93,8.62.94,16.25v1.58c.04,15.96.07,24.76-4.98,30.68-4.03,4.71-9.21,5.99-13.37,7.02-2.34.57-4.26.77-6.27.77ZM92.76,184.85c2.63,0,4.15.01,4.63.04,2.2.13,4.05.28,5.68.41,4.73.39,7.58.63,11.8-.4,4.09-1.01,9.13-2.26,12.99-6.77,4.85-5.69,4.83-14.38,4.79-30.15v-1.58c-.01-7.59-.53-12.35-.94-16.17-.54-4.99-.89-8.28.46-13.8l.19-.75c.67-2.61,1.78-6.99.44-8.53-.69-.79-1.95-.39-2.87-.1-.44.14-.77.25-1.06.23-31.82-2.26-49.18-22.6-56.7-34.52-4.19-6.63-7.38-11.87-10.3-18.92-1.12-2.7-2.17-5.61-3.23-8.92-4.55-14.27-2.06-21.98-1.13-24.88.1-.32.18-.57.23-.76,1.85-7.31,1.66-12.29-.58-15.23-1.59-2.09-4.29-3.18-8.03-3.25-4.3-.09-8.44,1.66-12.12,3.2-3.61,1.49-7.69,3.19-10.44,6.34-2.55,2.92-3.71,6.81-4.5,10.22-2.48,10.74-2.67,21.93-2.86,32.76-.06,3.54-.12,7.2-.27,10.79-.59,14.76-4.25,27.98-8.13,41.98l-.08.27c-2.23,8.04-3.6,11.99-4.6,14.87-1.04,3.01-1.67,4.83-2.49,8.93l-.1.53c-.65,3.27-1.33,6.65-1.83,9.97-1.12,7.32-1.92,16.89,1.91,25.96,4.54,10.74,12.99,15.26,16.41,16.71,4.45,1.89,7.84,1.76,12.98,1.57l.76-.03c9.83-.37,19.82-.24,29.49-.12,5.4.07,10.98.14,16.48.12,5.75-.03,10.05-.04,12.99-.04Z"/>
      </g>
      <path class="cls-4" d="M133.05,146.41c.04,16.67.23,25.99-4.88,31.99-3.95,4.63-9.16,5.9-13.2,6.9-5.75,1.41-8.99.49-17.6,0-1-.06-6.54-.05-17.6,0-15.32.05-30.64-.58-45.96,0-5.59.2-9.17.44-13.92-1.57-3.02-1.27-11.9-5.75-16.63-16.93-3.57-8.47-3.29-17.31-1.94-26.18,3.98,6.31,7.96,14.82,17.41,20.7,14.89,9.27,33.65,5.93,56.44,1.88,4.35-.77,9.54-1.91,15.53-4.7,3.39-1.57,21.87-10.19,22.58-22.11.14-2.43-.46-4.96,0-11.29.35-4.8.85-5.52.65-7.06-.93-7.22-14.58-10.81-19.57-12.71-19.39-7.37-32.4-36.64-32.11-51.63,2.86,6.92,6.01,12.13,10.27,18.86,9.81,15.56,27.83,32.3,56.38,34.33.7.05,3.01-1.38,4.21,0,1.62,1.86.1,7.06-.54,9.64-2.34,9.53.46,12.09.48,29.87Z"/>
      <path class="cls-2" d="M45.4,4.51c-6.08-.83-11.19,3.18-12.54,4.23-.88.69-4.42,3.57-7.06,9.09-1.53,3.21-2.3,6.34-2.98,16.31-.58,8.44-1.24,18.18-.1,18.35.82.12,1.75-4.89,5.9-16.93,5.12-14.88,7.25-17.55,10.04-19.13,1.06-.6,3.63-1.85,6.74-4.39,2.22-1.81,4.7-3.88,4.23-5.49-.44-1.52-3.32-1.91-4.23-2.04Z"/>
      <g>
        <g>
          <path class="cls-3" d="M150.11,215.01v116.38c0,11.48,10.59,20.77,23.64,20.77,10.2,0,18.48,7.28,18.48,16.25v236.28c0,4.21,3.89,7.63,8.67,7.63s8.69-3.42,8.69-7.63v-236.28c0-4.48,2.07-8.55,5.41-11.49,3.34-2.94,7.96-4.76,13.07-4.76,13.05,0,23.64-9.3,23.64-20.77v-116.38c0-11.48-10.59-20.77-23.64-20.77h-54.32c-13.05,0-23.64,9.3-23.64,20.77Z"/>
          <path class="cls-1" d="M200.9,612.75c-5.02,0-9.11-3.62-9.11-8.06v-236.28c0-8.72-8.1-15.82-18.05-15.82-13.27,0-24.07-9.51-24.07-21.21v-116.38c0-11.69,10.8-21.21,24.07-21.21h54.32c13.27,0,24.07,9.51,24.07,21.21v116.38c0,11.69-10.8,21.21-24.07,21.21-4.83,0-9.37,1.65-12.78,4.65-3.4,2.99-5.27,6.95-5.27,11.17v236.28c0,4.44-4.09,8.06-9.12,8.06ZM173.75,194.67c-12.8,0-23.21,9.12-23.21,20.34v116.38c0,11.21,10.41,20.34,23.21,20.34,10.43,0,18.91,7.48,18.91,16.68v236.28c0,3.97,3.7,7.19,8.24,7.19s8.25-3.23,8.25-7.19v-236.28c0-4.47,1.98-8.66,5.56-11.82,3.57-3.14,8.31-4.87,13.35-4.87,12.8,0,23.21-9.12,23.21-20.34v-116.38c0-11.21-10.41-20.34-23.21-20.34h-54.32Z"/>
        </g>
        <path class="cls-4" d="M150.11,240.48v90.91c0,11.48,10.59,20.77,23.64,20.77,10.2,0,18.48,7.28,18.48,16.25v236.28c0,4.21,3.89,7.63,8.67,7.63s8.69-3.42,8.69-7.63v-16.8c-1.88,2.49-3.48,5.42-5.58,5.1-3.28-.48-4.5-8.22-5.31-16.06-1.7-16.46-.83-29.29-.54-34.46.1-1.76-.03-59.63-.49-93.28-1.1-83.04.34-49.68,0-59.85-.25-7.88-.75-16.61,1.54-24.82.34-1.24.8-3.64,1.7-8.48,1.37-7.19,1.56-9.42,0-11.39-1.58-2.01-4.12-2.69-5.52-3.06-4.63-1.24-7.47,1.1-10.64,1.01-7.37-.18-12.59-12.7-13.61-15.18-7.06-17.35-13.66-56.6-21.03-86.97Z"/>
        <path class="cls-2" d="M209.59,201.13c4.77-4.06,13.25-2.26,15.67-1.75,2.17.46,7.93,1.68,12.29,6.13,1.66,1.69,3.98,4.75,5.31,15.18.79,6.18,2.49,20.93.11,21.31-1.83.3-3.1-8.39-12.4-18.1-3.1-3.24-4.87-5.09-8.13-6.72-5.66-2.82-9.33-1.77-12.78-5.26-.57-.58-3.2-3.23-2.66-6.57.38-2.31,2.08-3.8,2.59-4.23Z"/>
      </g>
      <g>
        <path class="cls-3" d="M141.16,146.41c-.04,16.67-.23,25.99,4.88,31.99,3.95,4.63,9.16,5.9,13.2,6.9,5.75,1.41,8.99.49,17.6,0,1-.06,6.54-.05,17.6,0,15.32.05,30.64-.58,45.96,0,5.59.2,9.17.44,13.92-1.57,3.02-1.27,11.9-5.75,16.63-16.93,3.57-8.47,3.29-17.31,1.94-26.18-.53-3.51-1.24-7.02-1.94-10.52-1.62-8.11-2.56-7.51-7.09-23.83-3.92-14.15-7.6-27.35-8.19-42.16-.58-14.56.17-29.32-3.14-43.63-.87-3.73-2.07-7.51-4.59-10.4-2.74-3.14-6.73-4.84-10.59-6.44-3.93-1.65-8.02-3.32-12.29-3.23-12.06.22-11.1,10.69-8.99,18.98.49,1.95,4.14,9.65-.89,25.42-1.07,3.33-2.13,6.24-3.22,8.88-2.86,6.92-6.01,12.13-10.27,18.86-9.81,15.56-27.83,32.3-56.38,34.33-.7.05-3.01-1.38-4.21,0-1.62,1.86-.1,7.06.54,9.64,2.34,9.53-.46,12.09-.48,29.87Z"/>
        <path class="cls-1" d="M165.36,186.45c-2,0-3.9-.2-6.22-.76-4.2-1.04-9.38-2.32-13.41-7.03-5.04-5.92-5.02-14.72-4.98-30.68v-1.58c.01-7.63.53-12.41.94-16.25.55-5.08.88-8.14-.45-13.52l-.19-.75c-.75-2.95-1.88-7.4-.26-9.25,1.04-1.19,2.66-.68,3.73-.33.29.09.66.2.76.2,31.46-2.24,48.63-22.35,56.06-34.14,4.17-6.6,7.34-11.8,10.23-18.8,1.1-2.67,2.15-5.56,3.21-8.85,4.47-14.02,2.04-21.55,1.13-24.39-.11-.34-.2-.61-.25-.81-1.22-4.83-2.48-11.73.72-15.92,1.75-2.29,4.67-3.49,8.66-3.57,4.44-.08,8.7,1.69,12.45,3.26,3.68,1.53,7.86,3.26,10.74,6.55,2.67,3.05,3.87,7.06,4.68,10.57,2.5,10.82,2.7,22.06,2.88,32.93.06,3.54.12,7.19.27,10.77.58,14.67,4.23,27.85,8.1,41.8l.08.27c2.23,8.01,3.59,11.95,4.58,14.82,1.02,2.94,1.69,4.88,2.52,9.03l.1.53c.65,3.28,1.33,6.67,1.83,10.01,1.14,7.42,1.94,17.13-1.96,26.4-4.66,11.02-13.33,15.66-16.84,17.14-4.61,1.96-8.08,1.83-13.33,1.63l-.76-.03c-9.81-.37-19.79-.24-29.45-.12-5.41.07-11,.14-16.5.12-10.88-.05-16.58-.06-17.57,0-2.19.13-4.04.28-5.66.41-2.25.19-4.08.34-5.84.34ZM142.55,106.7c-.44,0-.85.12-1.15.46-1.34,1.54-.23,5.91.44,8.52l.19.76c1.36,5.52,1,8.82.47,13.8-.41,3.82-.92,8.58-.93,16.17v1.58c-.04,15.77-.06,24.46,4.78,30.15,3.86,4.51,8.9,5.76,12.95,6.76,4.26,1.04,7.11.81,11.84.41,1.63-.14,3.48-.29,5.68-.41,1.02-.06,6.73-.05,17.62,0,5.49.02,11.08-.05,16.48-.12,9.66-.12,19.66-.25,29.49.12l.76.03c5.14.19,8.54.32,12.98-1.57,3.42-1.45,11.87-5.97,16.41-16.71,3.82-9.08,3.03-18.64,1.91-25.96-.5-3.33-1.18-6.71-1.83-9.97l-.1-.53c-.82-4.1-1.45-5.91-2.49-8.93-1-2.88-2.36-6.83-4.6-14.87l-.08-.27c-3.88-14-7.54-27.22-8.13-41.98-.14-3.59-.21-7.25-.27-10.79-.19-10.82-.38-22.02-2.86-32.76-.79-3.42-1.95-7.3-4.5-10.22-2.75-3.15-6.84-4.84-10.44-6.34-3.68-1.54-7.85-3.29-12.12-3.2-3.73.07-6.43,1.16-8.03,3.25-2.24,2.94-2.43,7.92-.58,15.23.05.19.13.45.23.76.93,2.9,3.42,10.61-1.13,24.88-1.07,3.31-2.12,6.23-3.23,8.92-2.92,7.06-6.11,12.29-10.3,18.92-7.52,11.92-24.88,32.26-56.69,34.52-.27.02-.62-.09-1.06-.23-.52-.17-1.15-.37-1.72-.37Z"/>
      </g>
      <path class="cls-4" d="M141.16,146.41c-.04,16.67-.23,25.99,4.88,31.99,3.95,4.63,9.16,5.9,13.2,6.9,5.75,1.41,8.99.49,17.6,0,1-.06,6.54-.05,17.6,0,15.32.05,30.64-.58,45.96,0,5.59.2,9.17.44,13.92-1.57,3.02-1.27,11.9-5.75,16.63-16.93,3.57-8.47,3.29-17.31,1.94-26.18-3.98,6.31-7.96,14.82-17.41,20.7-14.89,9.27-33.65,5.93-56.44,1.88-4.35-.77-9.54-1.91-15.53-4.7-3.39-1.57-21.87-10.19-22.58-22.11-.14-2.43.46-4.96,0-11.29-.35-4.8-.85-5.52-.65-7.06.93-7.22,14.58-10.81,19.57-12.71,19.39-7.37,32.4-36.64,32.11-51.63-2.86,6.92-6.01,12.13-10.27,18.86-9.81,15.56-27.83,32.3-56.38,34.33-.7.05-3.01-1.38-4.21,0-1.62,1.86-.1,7.06.54,9.64,2.34,9.53-.46,12.09-.48,29.87Z"/>
      <path class="cls-2" d="M228.82,4.51c6.08-.83,11.19,3.18,12.54,4.23.88.69,4.42,3.57,7.06,9.09,1.53,3.21,2.3,6.34,2.98,16.31.58,8.44,1.24,18.18.1,18.35-.82.12-1.75-4.89-5.9-16.93-5.12-14.88-7.25-17.55-10.04-19.13-1.06-.6-3.63-1.85-6.74-4.39-2.22-1.81-4.7-3.88-4.23-5.49.44-1.52,3.32-1.91,4.23-2.04Z"/>
    </g>
  </g>
</svg>