<?xml version="1.0" encoding="UTF-8"?>
<svg id="Capa_2" data-name="Capa 2" xmlns="http://www.w3.org/2000/svg" viewBox="0 0 348.21 393.92">
  <defs>
    <style>
      .cls-1 {
        fill: #a185bd;
      }

      .cls-2 {
        fill: #9170af;
      }

      .cls-3 {
        fill: #8467aa;
      }
    </style>
  </defs>
  <g id="Capa_1-2" data-name="Capa 1">
    <g>
      <path class="cls-2" d="M140.51,222.66c-1.91.98-3.86,1.82-5.83,2.55v156.51c0,6.74-5.47,12.2-12.2,12.2s-12.2-5.46-12.2-12.2v-153.3c-1.88-.18-3.74-.44-5.58-.8-23.19-4.65-35.13-21.97-45.16-41.77-2.43-4.79-4.86-9.58-6.78-14.6-3.97-10.34-4.98-21.37-9.51-31.46-4.06-9.06-9.67-17.41-16.52-24.59-1.6-1.67-3.26-3.29-4.73-5.07-6.92-8.45-11.01-20.2-15.96-29.92-7.49-14.69-7.76-31.18-2.13-45.39,4.77-12.04,13.78-22.46,26.23-28.8C42.36-.21,55.82-1.44,68.18,1.56c15.08,3.67,28.53,13.65,36.12,28.56,3.31,6.49,6.69,12.76,9.68,19.15h0c3.49,7.43,6.47,15.02,8.2,23.35,6.65,31.77,34.75,51.28,44.71,81.6,8.66,26.37-1.05,55.53-26.39,68.43Z"/>
      <path class="cls-3" d="M140.51,222.66c-1.91.98-3.86,1.82-5.83,2.55v156.51c0,6.74-5.47,12.2-12.2,12.2s-12.2-5.46-12.2-12.2v-7.27c1.6,2.19,3.29,3.95,5.33,3.73,6.31-.69,9.1-19.6,9.79-24.48,4.87-34.65-1.36-67.78-.47-78.08.82-9.5.78-17.12.71-32.39-.08-15.27-.83-18.13-1.87-20.74-1.34-3.36-3.15-6.28-1.87-8.39,1.65-2.7,6.63-1.13,10.95-1.87,11.57-1.93,19.52-20.37,21.21-33.67,1.65-12.99-2.49-22.42-9.08-37.4-4.86-11.05-8.49-18.99-16.36-22.02-3.47-1.34-6.54-1.25-13.7-4.2-6.07-2.49-9.23-3.8-10.84-6.64-2.57-4.55,2.2-9.29,5.94-19.93,2.22-6.33,2.85-10.98,3.96-19.22,1.06-7.9.74-14.52.02-19.88,3.49,7.42,6.47,15.02,8.2,23.34,6.65,31.77,34.75,51.28,44.71,81.6,8.66,26.37-1.05,55.53-26.39,68.43Z"/>
      <path class="cls-1" d="M34.69,7.65c-9.16-.62-17.28,13.81-19.05,16.95-9.23,16.4-9.06,34.34-7.17,34.78,1.63.38,1.81-12.87,12.81-22.2,2.15-1.83,6.66-5.15,14.11-11.53,1.54-1.32,4.6-4.01,5.94-8.39.46-1.48,1.25-4.08,0-6.29-1.7-2.99-6.04-3.28-6.64-3.32Z"/>
      <path class="cls-1" d="M20.3,98.3c-1.72.74-8.75-8.74-10.95-19.92-.81-4.12-1.36-10.45,0-10.84,1.74-.5,6.17,8.91,8.62,16.78.41,1.32,4.12,13.21,2.33,13.98Z"/>
      <path class="cls-1" d="M70.16,191.51c-2.11.69-6.99-7.04-9.55-14.21-3.23-9.05-3.81-20.09-1.17-20.97,2.13-.71,6.12,5.23,7.92,8.86.61,1.22,1.84,3.94,2.8,10.02.57,3.64,2.44,15.51,0,16.31Z"/>
      <path class="cls-2" d="M207.7,222.66c1.91.98,3.86,1.82,5.83,2.55v156.51c0,6.74,5.47,12.2,12.2,12.2s12.2-5.46,12.2-12.2v-153.3c1.88-.18,3.74-.44,5.58-.8,23.19-4.65,35.13-21.97,45.16-41.77,2.43-4.79,4.86-9.58,6.78-14.6,3.97-10.34,4.98-21.37,9.51-31.46,4.06-9.06,9.67-17.41,16.52-24.59,1.6-1.67,3.26-3.29,4.73-5.07,6.92-8.45,11.01-20.2,15.96-29.92,7.49-14.69,7.76-31.18,2.13-45.39-4.77-12.04-13.78-22.46-26.23-28.8-12.23-6.23-25.69-7.46-38.05-4.46-15.08,3.67-28.53,13.65-36.12,28.56-3.31,6.49-6.69,12.76-9.68,19.15h0c-3.49,7.43-6.47,15.02-8.2,23.35-6.65,31.77-34.75,51.28-44.71,81.6-8.66,26.37,1.05,55.53,26.39,68.43Z"/>
      <path class="cls-3" d="M207.7,222.66c1.91.98,3.86,1.82,5.83,2.55v156.51c0,6.74,5.47,12.2,12.2,12.2s12.2-5.46,12.2-12.2v-7.27c-1.6,2.19-3.29,3.95-5.33,3.73-6.31-.69-9.1-19.6-9.79-24.48-4.87-34.65,1.36-67.78.47-78.08-.82-9.5-.78-17.12-.71-32.39.08-15.27.83-18.13,1.87-20.74,1.34-3.36,3.15-6.28,1.87-8.39-1.65-2.7-6.63-1.13-10.95-1.87-11.57-1.93-19.52-20.37-21.21-33.67-1.65-12.99,2.49-22.42,9.08-37.4,4.86-11.05,8.49-18.99,16.36-22.02,3.47-1.34,6.54-1.25,13.7-4.2,6.07-2.49,9.23-3.8,10.84-6.64,2.57-4.55-2.2-9.29-5.94-19.93-2.22-6.33-2.85-10.98-3.96-19.22-1.06-7.9-.74-14.52-.02-19.88-3.49,7.42-6.47,15.02-8.2,23.34-6.65,31.77-34.75,51.28-44.71,81.6-8.66,26.37,1.05,55.53,26.39,68.43Z"/>
      <path class="cls-1" d="M313.52,7.65c9.16-.62,17.28,13.81,19.05,16.95,9.23,16.4,9.06,34.34,7.17,34.78-1.63.38-1.81-12.87-12.81-22.2-2.15-1.83-6.66-5.15-14.11-11.53-1.54-1.32-4.6-4.01-5.94-8.39-.46-1.48-1.25-4.08,0-6.29,1.7-2.99,6.04-3.28,6.64-3.32Z"/>
      <path class="cls-1" d="M327.91,98.3c1.72.74,8.75-8.74,10.95-19.92.81-4.12,1.36-10.45,0-10.84-1.74-.5-6.17,8.91-8.62,16.78-.41,1.32-4.12,13.21-2.33,13.98Z"/>
      <path class="cls-1" d="M278.04,191.51c2.11.69,6.99-7.04,9.55-14.21,3.23-9.05,3.81-20.09,1.17-20.97-2.13-.71-6.12,5.23-7.92,8.86-.61,1.22-1.84,3.94-2.8,10.02-.57,3.64-2.44,15.51,0,16.31Z"/>
    </g>
  </g>
</svg>