<?xml version="1.0" encoding="UTF-8"?>
<svg id="Capa_2" data-name="Capa 2" xmlns="http://www.w3.org/2000/svg" viewBox="0 0 465.77 742.49">
  <defs>
    <style>
      .cls-1 {
        fill: #93c67d;
      }

      .cls-2 {
        fill: #7bb561;
      }

      .cls-3 {
        fill: #71a856;
      }
    </style>
  </defs>
  <g id="Capa_1-2" data-name="Capa 1">
    <g>
      <rect class="cls-3" x="175.45" y="312.31" width="27.13" height="430.17" rx="13.57" ry="13.57"/>
      <path class="cls-2" d="M231.14,289.3c0,18.14-9.39,35.84-26.15,45.51-15.86,9.16-34.64,9.01-49.92,1.28-8.77-4.43-16.38-11.35-21.63-20.45l-17.98-31.13c-14.4-24.94-5.77-57.14,19.18-71.55,11.86-6.84,25.35-8.48,37.78-5.64h.01c13.74,3.13,26.2,11.72,33.76,24.81l17.97,31.13c4.73,8.19,6.98,17.17,6.98,26.04Z"/>
      <path class="cls-3" d="M231.14,289.3c0,18.14-9.39,35.84-26.15,45.51-15.86,9.16-34.64,9.01-49.92,1.28,5-5.41,18.59,1.09,30.21-4.86,17.69-9.05,18.47-40.62,18.79-53.22.22-9.16.44-25.66-8.35-43.04-7.24-14.29-17.24-22.63-23.29-27.65,13.74,3.13,26.2,11.72,33.76,24.81l17.97,31.13c4.73,8.19,6.98,17.17,6.98,26.04Z"/>
      <path class="cls-1" d="M134.81,218.05c-2.17.68-5.25,2.21-10.17,8.45-4.91,6.22-7.74,9.82-7.04,14.35.4,2.59,2.01,5.81,4.04,6,1.46.14,2.4-1.36,7.3-8.35,2.37-3.38,4.36-7.04,7.04-10.17.42-.49,3.2-3.71,4.57-8.02.21-.67.47-1.61,0-2.25-1.07-1.47-5.02-.23-5.74,0Z"/>
      <path class="cls-1" d="M121.63,277.23c-.64-1.97-2.49-8.48-2.48-12.78.01-3.3,1.11-4.16.52-7.57-.55-3.15-1.75-3.93-2.19-4.17-.82-.44-2.12-.68-3.16,0-1.17.77-1.09,2.6-1.04,4.04.26,7.4.39,11.1.72,12.49,1.06,4.49,1.87,7.72,4.5,9.1.7.37,2.53,1.13,3.13.49.39-.42.11-1.27,0-1.6Z"/>
      <path class="cls-2" d="M140.34,222.34c-11.71,6.3-25.99,8.27-41.08,3.58-19.85-6.17-30.79-22.42-39.73-40.07-2.43-4.79-4.86-9.58-6.78-14.6-3.97-10.34-4.98-21.37-9.51-31.46-4.06-9.06-9.67-17.41-16.52-24.59-1.6-1.67-3.26-3.29-4.73-5.07-6.92-8.45-11.01-20.2-15.96-29.92-7.49-14.69-7.76-31.18-2.13-45.39,4.77-12.04,13.78-22.46,26.23-28.8C42.36-.21,55.82-1.44,68.18,1.56c15.08,3.67,28.53,13.65,36.12,28.56,3.31,6.49,6.69,12.76,9.68,19.16,3.49,7.42,6.47,15.02,8.2,23.34,6.65,31.77,34.75,51.28,44.71,81.6,9.09,27.67-3.96,55.96-26.56,68.12Z"/>
      <path class="cls-3" d="M140.51,222.66c-1.91.98-3.86,1.82-5.83,2.55,0,0-14.69,3.65-10.92-2.72,1.84-3.11,28.6-30.62,30.29-43.92,1.65-12.99-2.49-22.42-9.08-37.4-4.86-11.05-8.49-18.99-16.36-22.02-3.47-1.34-6.54-1.25-13.7-4.2-6.07-2.49-9.23-3.8-10.84-6.64-2.57-4.55,2.2-9.29,5.94-19.93,2.22-6.33,2.85-10.98,3.96-19.22,1.06-7.9.74-14.52.02-19.88,3.49,7.42,6.47,15.02,8.2,23.34,6.65,31.77,34.75,51.28,44.71,81.6,8.66,26.37-1.05,55.53-26.39,68.43Z"/>
      <path class="cls-1" d="M34.69,7.65c-9.16-.62-17.28,13.81-19.05,16.95-9.23,16.4-9.06,34.34-7.17,34.78,1.63.38,1.81-12.87,12.81-22.2,2.15-1.83,6.66-5.15,14.11-11.53,1.54-1.32,4.6-4.01,5.94-8.39.46-1.48,1.25-4.08,0-6.29-1.7-2.99-6.04-3.28-6.64-3.32Z"/>
      <path class="cls-1" d="M70.16,191.51c-2.11.69-6.99-7.04-9.55-14.21-3.23-9.05-3.81-20.09-1.17-20.97,2.13-.71,6.12,5.23,7.92,8.86.61,1.22,1.84,3.94,2.8,10.02.57,3.64,2.44,15.51,0,16.31Z"/>
      <rect class="cls-3" x="263.19" y="312.31" width="27.13" height="430.17" rx="13.57" ry="13.57" transform="translate(553.5 1054.8) rotate(-180)"/>
      <path class="cls-2" d="M234.63,289.3c0,18.14,9.39,35.84,26.15,45.51,15.86,9.16,34.64,9.01,49.92,1.28,8.77-4.43,16.38-11.35,21.63-20.45l17.98-31.13c14.4-24.94,5.77-57.14-19.18-71.55-11.86-6.84-25.35-8.48-37.78-5.64h-.01c-13.74,3.13-26.2,11.72-33.76,24.81l-17.97,31.13c-4.73,8.19-6.98,17.17-6.98,26.04Z"/>
      <path class="cls-3" d="M234.63,289.3c0,18.14,9.39,35.84,26.15,45.51,15.86,9.16,34.64,9.01,49.92,1.28-5-5.41-18.59,1.09-30.21-4.86-17.69-9.05-18.47-40.62-18.79-53.22-.22-9.16-.44-25.66,8.35-43.04,7.24-14.29,17.24-22.63,23.29-27.65-13.74,3.13-26.2,11.72-33.76,24.81l-17.97,31.13c-4.73,8.19-6.98,17.17-6.98,26.04Z"/>
      <path class="cls-1" d="M330.96,218.05c2.17.68,5.25,2.21,10.17,8.45,4.91,6.22,7.74,9.82,7.04,14.35-.4,2.59-2.01,5.81-4.04,6-1.46.14-2.4-1.36-7.3-8.35-2.37-3.38-4.36-7.04-7.04-10.17-.42-.49-3.2-3.71-4.57-8.02-.21-.67-.47-1.61,0-2.25,1.07-1.47,5.02-.23,5.74,0Z"/>
      <path class="cls-1" d="M344.13,277.23c.64-1.97,2.49-8.48,2.48-12.78-.01-3.3-1.11-4.16-.52-7.57.55-3.15,1.75-3.93,2.19-4.17.82-.44,2.12-.68,3.16,0,1.17.77,1.09,2.6,1.04,4.04-.26,7.4-.39,11.1-.72,12.49-1.06,4.49-1.87,7.72-4.5,9.1-.7.37-2.53,1.13-3.13.49-.39-.42-.11-1.27,0-1.6Z"/>
      <path class="cls-2" d="M325.43,222.34c11.71,6.3,25.99,8.27,41.08,3.58,19.85-6.17,30.79-22.42,39.73-40.07,2.43-4.79,4.86-9.58,6.78-14.6,3.97-10.34,4.98-21.37,9.51-31.46,4.06-9.06,9.67-17.41,16.52-24.59,1.6-1.67,3.26-3.29,4.73-5.07,6.92-8.45,11.01-20.2,15.96-29.92,7.49-14.69,7.76-31.18,2.13-45.39-4.77-12.04-13.78-22.46-26.23-28.8-12.23-6.23-25.69-7.46-38.05-4.46-15.08,3.67-28.53,13.65-36.12,28.56-3.31,6.49-6.69,12.76-9.68,19.16-3.49,7.42-6.47,15.02-8.2,23.34-6.65,31.77-34.75,51.28-44.71,81.6-9.09,27.67,3.96,55.96,26.56,68.12Z"/>
      <path class="cls-3" d="M325.26,222.66c1.91.98,3.86,1.82,5.83,2.55,0,0,14.69,3.65,10.92-2.72-1.84-3.11-28.6-30.62-30.29-43.92-1.65-12.99,2.49-22.42,9.08-37.4,4.86-11.05,8.49-18.99,16.36-22.02,3.47-1.34,6.54-1.25,13.7-4.2,6.07-2.49,9.23-3.8,10.84-6.64,2.57-4.55-2.2-9.29-5.94-19.93-2.22-6.33-2.85-10.98-3.96-19.22-1.06-7.9-.74-14.52-.02-19.88-3.49,7.42-6.47,15.02-8.2,23.34-6.65,31.77-34.75,51.28-44.71,81.6-8.66,26.37,1.05,55.53,26.39,68.43Z"/>
      <path class="cls-1" d="M431.08,7.65c9.16-.62,17.28,13.81,19.05,16.95,9.23,16.4,9.06,34.34,7.17,34.78-1.63.38-1.81-12.87-12.81-22.2-2.15-1.83-6.66-5.15-14.11-11.53-1.54-1.32-4.6-4.01-5.94-8.39-.46-1.48-1.25-4.08,0-6.29,1.7-2.99,6.04-3.28,6.64-3.32Z"/>
      <path class="cls-1" d="M395.6,191.51c2.11.69,6.99-7.04,9.55-14.21,3.23-9.05,3.81-20.09,1.17-20.97-2.13-.71-6.12,5.23-7.92,8.86-.61,1.22-1.84,3.94-2.8,10.02-.57,3.64-2.44,15.51,0,16.31Z"/>
    </g>
  </g>
</svg>