<?xml version="1.0" encoding="UTF-8"?>
<svg id="Capa_2" data-name="Capa 2" xmlns="http://www.w3.org/2000/svg" viewBox="0 0 490.61 577.52">
  <defs>
    <style>
      .cls-1 {
        fill: #a2a0a0;
      }

      .cls-2 {
        fill: #b0b0af;
      }

      .cls-3 {
        fill: #6eaadd;
      }

      .cls-4 {
        fill: #5c9dd1;
      }

      .cls-5 {
        fill: #86bde7;
      }

      .cls-6 {
        fill: #878585;
      }

      .cls-7 {
        fill: #c4c1c2;
      }

      .cls-8 {
        fill: #4690c0;
      }
    </style>
  </defs>
  <g id="Capa_1-2" data-name="Capa 1">
    <g>
      <g>
        <g>
          <path class="cls-3" d="M60.41,317.94v77.99c0,7.69-6.24,13.92-13.93,13.92-6.01,0-10.89,4.88-10.89,10.89v151.13c0,2.82-2.29,5.11-5.11,5.11s-5.12-2.29-5.12-5.11v-151.13c0-3-1.22-5.73-3.19-7.7-1.97-1.97-4.69-3.19-7.7-3.19-7.69,0-13.93-6.23-13.93-13.92v-77.99c0-7.69,6.24-13.92,13.93-13.92h32.01c7.69,0,13.93,6.23,13.93,13.92Z"/>
          <path class="cls-8" d="M46.48,304.02c7.69,0,13.93,6.23,13.93,13.92v77.99c0,7.69-6.24,13.92-13.93,13.92-6.01,0-10.89,4.88-10.89,10.89v151.13c0,2.82-2.29,5.11-5.11,5.11s-5.12-2.29-5.12-5.11v-151.13c0-3-1.22-5.73-3.19-7.7-1.97-1.97-4.69-3.19-7.7-3.19-7.69,0-13.93-6.23-13.93-13.92v-77.99c0-7.69,6.24-13.92,13.93-13.92h32.01M46.48,303.47H14.47c-7.98,0-14.47,6.49-14.47,14.46v77.99c0,7.98,6.49,14.46,14.47,14.46,2.76,0,5.36,1.08,7.31,3.03,1.95,1.95,3.03,4.55,3.03,7.31v151.13c0,3.12,2.54,5.65,5.66,5.65s5.65-2.54,5.65-5.65v-151.13c0-5.7,4.64-10.35,10.35-10.35,7.98,0,14.47-6.49,14.47-14.46v-77.99c0-7.98-6.49-14.46-14.47-14.46h0Z"/>
        </g>
        <path class="cls-4" d="M60.41,335.01v60.92c0,7.69-6.24,13.92-13.93,13.92-6.01,0-10.89,4.88-10.89,10.89v151.13c0,2.82-2.29,5.11-5.11,5.11s-5.12-2.29-5.12-5.11v-11.26c1.11,1.67,2.05,3.63,3.29,3.42,1.93-.32,2.65-38.51,3.13-43.76,1-11.03.49-19.63.32-23.09-.06-1.18.02.25.29-22.3.65-55.65-.2-33.29,0-40.11.15-5.28.44-11.13-.91-16.63-.2-.83-.47-2.44-1-5.68-.81-4.82-.92-6.31,0-7.63.93-1.35,2.43-1.8,3.25-2.05,2.73-.83,4.4.74,6.27.68,4.34-.12,7.42-8.51,8.02-10.17,4.16-11.63,8.05-37.93,12.39-58.28Z"/>
        <path class="cls-5" d="M25.36,308.63c-2.81-2.72-7.81-1.52-9.23-1.17-1.28.31-4.67,1.13-7.24,4.11-.98,1.13-2.35,3.18-3.13,10.17-.46,4.14-1.47,14.02-.07,14.28,1.08.2,1.83-5.62,7.3-12.13,1.83-2.17,2.87-3.41,4.79-4.5,3.33-1.89,5.5-1.19,7.53-3.52.34-.39,1.89-2.17,1.57-4.4-.22-1.55-1.23-2.55-1.53-2.84Z"/>
      </g>
      <g>
        <g>
          <path class="cls-2" d="M130.07,317.94v77.99c0,7.69-6.24,13.92-13.93,13.92-6.01,0-10.89,4.88-10.89,10.89v151.13c0,2.82-2.29,5.11-5.11,5.11s-5.12-2.29-5.12-5.11v-151.13c0-3-1.22-5.73-3.19-7.7-1.97-1.97-4.69-3.19-7.7-3.19-7.69,0-13.93-6.23-13.93-13.92v-77.99c0-7.69,6.24-13.92,13.93-13.92h32.01c7.69,0,13.93,6.23,13.93,13.92Z"/>
          <path class="cls-6" d="M100.14,577.25c-2.97,0-5.39-2.42-5.39-5.38v-151.13c0-2.84-1.1-5.5-3.11-7.51-2.01-2.01-4.67-3.11-7.51-3.11-7.83,0-14.2-6.37-14.2-14.19v-77.99c0-7.83,6.37-14.19,14.2-14.19h32.01c7.83,0,14.2,6.37,14.2,14.19v77.99c0,7.83-6.37,14.19-14.2,14.19-5.85,0-10.62,4.76-10.62,10.62v151.13c0,2.97-2.42,5.38-5.38,5.38ZM84.13,304.29c-7.53,0-13.66,6.12-13.66,13.65v77.99c0,7.53,6.13,13.65,13.66,13.65,2.98,0,5.78,1.16,7.89,3.27,2.11,2.11,3.27,4.91,3.27,7.89v151.13c0,2.67,2.17,4.84,4.85,4.84s4.84-2.17,4.84-4.84v-151.13c0-6.15,5.01-11.16,11.16-11.16,7.53,0,13.66-6.12,13.66-13.65v-77.99c0-7.53-6.13-13.65-13.66-13.65h-32.01Z"/>
        </g>
        <path class="cls-1" d="M130.07,335.01v60.92c0,7.69-6.24,13.92-13.93,13.92-6.01,0-10.89,4.88-10.89,10.89v151.13c0,2.82-2.29,5.11-5.11,5.11s-5.12-2.29-5.12-5.11v-11.26c1.11,1.67,2.05,3.63,3.29,3.42,1.93-.32,2.65-38.51,3.13-43.76,1-11.03.49-19.63.32-23.09-.06-1.18.02.25.29-22.3.65-55.65-.2-33.29,0-40.11.15-5.28.44-11.13-.91-16.63-.2-.83-.47-2.44-1-5.68-.81-4.82-.92-6.31,0-7.63.93-1.35,2.43-1.8,3.25-2.05,2.73-.83,4.4.74,6.27.68,4.34-.12,7.42-8.51,8.02-10.17,4.16-11.63,8.05-37.93,12.39-58.28Z"/>
        <path class="cls-7" d="M95.02,308.63c-2.81-2.72-7.81-1.52-9.23-1.17-1.28.31-4.67,1.13-7.24,4.11-.98,1.13-2.35,3.18-3.13,10.17-.46,4.14-1.47,14.02-.07,14.28,1.08.2,1.83-5.62,7.3-12.13,1.83-2.17,2.87-3.41,4.79-4.5,3.33-1.89,5.5-1.19,7.53-3.52.34-.39,1.89-2.17,1.57-4.4-.22-1.55-1.23-2.55-1.53-2.84Z"/>
      </g>
      <g>
        <g>
          <path class="cls-2" d="M420.41,317.94v77.99c0,7.69-6.24,13.92-13.93,13.92-6.01,0-10.89,4.88-10.89,10.89v151.13c0,2.82-2.29,5.11-5.11,5.11s-5.12-2.29-5.12-5.11v-151.13c0-3-1.22-5.73-3.19-7.7-1.97-1.97-4.69-3.19-7.7-3.19-7.69,0-13.93-6.23-13.93-13.92v-77.99c0-7.69,6.24-13.92,13.93-13.92h32.01c7.69,0,13.93,6.23,13.93,13.92Z"/>
          <path class="cls-6" d="M390.48,577.25c-2.97,0-5.39-2.42-5.39-5.38v-151.13c0-2.84-1.1-5.5-3.11-7.51s-4.67-3.11-7.51-3.11c-7.83,0-14.2-6.37-14.2-14.19v-77.99c0-7.83,6.37-14.19,14.2-14.19h32.01c7.83,0,14.2,6.37,14.2,14.19v77.99c0,7.83-6.37,14.19-14.2,14.19-5.85,0-10.62,4.76-10.62,10.62v151.13c0,2.97-2.41,5.38-5.38,5.38ZM374.47,304.29c-7.53,0-13.66,6.12-13.66,13.65v77.99c0,7.53,6.13,13.65,13.66,13.65,2.98,0,5.78,1.16,7.89,3.27,2.11,2.11,3.27,4.91,3.27,7.89v151.13c0,2.67,2.17,4.84,4.85,4.84s4.84-2.17,4.84-4.84v-151.13c0-6.15,5.01-11.16,11.16-11.16,7.53,0,13.66-6.12,13.66-13.65v-77.99c0-7.53-6.13-13.65-13.66-13.65h-32.01Z"/>
        </g>
        <path class="cls-1" d="M420.41,335.01v60.92c0,7.69-6.24,13.92-13.93,13.92-6.01,0-10.89,4.88-10.89,10.89v151.13c0,2.82-2.29,5.11-5.11,5.11s-5.12-2.29-5.12-5.11v-11.26c1.11,1.67,2.05,3.63,3.29,3.42,1.93-.32,2.65-38.51,3.13-43.76,1-11.03.49-19.63.32-23.09-.06-1.18.02.25.29-22.3.65-55.65-.2-33.29,0-40.11.15-5.28.44-11.13-.91-16.63-.2-.83-.47-2.44-1-5.68-.81-4.82-.92-6.31,0-7.63.93-1.35,2.43-1.8,3.25-2.05,2.73-.83,4.4.74,6.27.68,4.34-.12,7.42-8.51,8.02-10.17,4.16-11.63,8.05-37.93,12.39-58.28Z"/>
        <path class="cls-7" d="M385.36,308.63c-2.81-2.72-7.81-1.52-9.23-1.17-1.28.31-4.67,1.13-7.24,4.11-.98,1.13-2.35,3.18-3.13,10.17-.46,4.14-1.47,14.02-.07,14.28,1.08.2,1.83-5.62,7.3-12.13,1.83-2.17,2.87-3.41,4.79-4.5,3.33-1.89,5.5-1.19,7.53-3.52.34-.39,1.89-2.17,1.57-4.4-.22-1.55-1.23-2.55-1.53-2.84Z"/>
      </g>
      <g>
        <g>
          <path class="cls-3" d="M490.07,317.94v77.99c0,7.69-6.24,13.92-13.93,13.92-6.01,0-10.89,4.88-10.89,10.89v151.13c0,2.82-2.29,5.11-5.11,5.11s-5.12-2.29-5.12-5.11v-151.13c0-3-1.22-5.73-3.19-7.7-1.97-1.97-4.69-3.19-7.7-3.19-7.69,0-13.93-6.23-13.93-13.92v-77.99c0-7.69,6.24-13.92,13.93-13.92h32.01c7.69,0,13.93,6.23,13.93,13.92Z"/>
          <path class="cls-8" d="M476.14,304.02c7.69,0,13.93,6.23,13.93,13.92v77.99c0,7.69-6.24,13.92-13.93,13.92-6.01,0-10.89,4.88-10.89,10.89v151.13c0,2.82-2.29,5.11-5.11,5.11s-5.12-2.29-5.12-5.11v-151.13c0-3-1.22-5.73-3.19-7.7-1.97-1.97-4.69-3.19-7.7-3.19-7.69,0-13.93-6.23-13.93-13.92v-77.99c0-7.69,6.24-13.92,13.93-13.92h32.01M476.14,303.47h-32.01c-7.98,0-14.47,6.49-14.47,14.46v77.99c0,7.98,6.49,14.46,14.47,14.46,2.76,0,5.36,1.08,7.31,3.03,1.95,1.95,3.03,4.55,3.03,7.31v151.13c0,3.12,2.54,5.65,5.66,5.65s5.65-2.54,5.65-5.65v-151.13c0-5.7,4.64-10.35,10.35-10.35,7.98,0,14.47-6.49,14.47-14.46v-77.99c0-7.98-6.49-14.46-14.47-14.46h0Z"/>
        </g>
        <path class="cls-4" d="M490.07,335.01v60.92c0,7.69-6.24,13.92-13.93,13.92-6.01,0-10.89,4.88-10.89,10.89v151.13c0,2.82-2.29,5.11-5.11,5.11s-5.12-2.29-5.12-5.11v-11.26c1.11,1.67,2.05,3.63,3.29,3.42,1.93-.32,2.65-38.51,3.13-43.76,1-11.03.49-19.63.32-23.09-.06-1.18.02.25.29-22.3.65-55.65-.2-33.29,0-40.11.15-5.28.44-11.13-.91-16.63-.2-.83-.47-2.44-1-5.68-.81-4.82-.92-6.31,0-7.63.93-1.35,2.43-1.8,3.25-2.05,2.73-.83,4.4.74,6.27.68,4.34-.12,7.42-8.51,8.02-10.17,4.16-11.63,8.05-37.93,12.39-58.28Z"/>
        <path class="cls-5" d="M455.02,308.63c-2.81-2.72-7.81-1.52-9.23-1.17-1.28.31-4.67,1.13-7.24,4.11-.98,1.13-2.35,3.18-3.13,10.17-.46,4.14-1.47,14.02-.07,14.28,1.08.2,1.83-5.62,7.3-12.13,1.83-2.17,2.87-3.41,4.79-4.5,3.33-1.89,5.5-1.19,7.53-3.52.34-.39,1.89-2.17,1.57-4.4-.22-1.55-1.23-2.55-1.53-2.84Z"/>
      </g>
      <g>
        <g>
          <path class="cls-2" d="M247.07,221.7v116.61c0,13.18-10.69,23.87-23.87,23.87-6.05,0-10.96,4.91-10.96,10.96v147.26c0,4.49-3.79,8.1-8.34,7.81-4.16-.27-7.31-3.91-7.31-8.08v-146.99c0-6.05-4.91-10.96-10.96-10.96h-1.95c-13.19,0-23.87-10.69-23.87-23.87v-116.61c0-13.18,10.68-23.87,23.87-23.87h39.52c9.23,0,17.23,5.24,21.2,12.9,1.71,3.28,2.67,7.02,2.67,10.97Z"/>
          <path class="cls-6" d="M204.42,528.6c-.18,0-.36,0-.54-.02-4.3-.28-7.66-3.99-7.66-8.45v-146.99c0-5.84-4.75-10.59-10.59-10.59h-1.95c-13.37,0-24.25-10.88-24.25-24.24v-116.61c0-13.37,10.88-24.24,24.25-24.24h39.52c9.09,0,17.34,5.02,21.53,13.1,1.77,3.4,2.71,7.26,2.71,11.14v116.61c0,13.37-10.88,24.24-24.25,24.24-5.84,0-10.58,4.75-10.58,10.59v147.26c0,2.25-.94,4.43-2.59,5.98-1.54,1.44-3.51,2.22-5.6,2.22ZM183.68,198.2c-12.96,0-23.5,10.54-23.5,23.49v116.61c0,12.96,10.54,23.49,23.5,23.49h1.95c6.25,0,11.34,5.08,11.34,11.34v146.99c0,4.07,3.06,7.45,6.96,7.71,2.08.13,4.07-.58,5.59-2,1.52-1.42,2.35-3.35,2.35-5.43v-147.26c0-6.25,5.08-11.34,11.33-11.34,12.96,0,23.5-10.54,23.5-23.49v-116.61c0-3.77-.91-7.5-2.63-10.8-4.06-7.83-12.05-12.7-20.87-12.7h-39.52Z"/>
        </g>
        <path class="cls-1" d="M247.07,221.7v116.61c0,13.18-10.69,23.87-23.87,23.87-6.05,0-10.96,4.91-10.96,10.96v147.26c0,4.49-3.79,8.1-8.34,7.81-4.16-.27-7.31-3.91-7.31-8.08v-9.57c.69.3,1.39.39,2.09.19,2.43-.7,3.67-37.45,4.76-48.92,2.21-23.3,3.32-34.96,3.32-43.5.02-21.56-1.66-22.76-.78-33.84.19-2.32.8-9.12,0-18.13-.13-1.52-.54-4.87-1.17-8.87-.89-5.67-1.37-6.94-.52-8.61,1.4-2.8,4.96-3.69,8.47-4.57,5.41-1.35,7.6-.41,10.31-1.04,7.27-1.7,10.65-12.98,11.87-17.48,6.93-25.57,6.06-60.51,6-63-.42-17.71,1.09-38.82,3.46-52.06,1.71,3.28,2.67,7.02,2.67,10.97Z"/>
        <path class="cls-7" d="M201.48,202.92c-7.53-1.78-13.96.63-14.87.98-8.25,3.21-14.52,7.88-15.75,10.76-6.36,14.87-3.24,33.73-1.66,33.85,1.49.11.07-15.35,10.37-23.48,6.02-4.75,11.74-5.67,11.74-5.67,4.45-.72,7.1.36,11.35-1.76,3.68-1.83,4.98-4.28,5.28-4.89.44-.87,1.62-3.25.78-5.48-1.07-2.84-4.76-3.72-7.24-4.3Z"/>
        <path class="cls-7" d="M170.5,253.92c.43.03.13,6.15,0,24.52-.28,40.43.83,58.91,0,58.96-.81.05-3.15-17.65-3.47-36.78-.42-24.88,2.66-46.75,3.47-46.7Z"/>
      </g>
      <g>
        <g>
          <path class="cls-2" d="M247.07,5.83v168.07c0,9.47-7.68,17.15-17.15,17.15h-52.96c-9.47,0-17.15-7.68-17.15-17.15V10.01c18.55,18.55,49.65,14.44,62.75-8.29l.64-1.1c5.77,5.92,14.36,8.13,22.27,5.7l1.6-.49Z"/>
          <path class="cls-6" d="M229.92,191.42h-52.96c-9.66,0-17.52-7.86-17.52-17.52V9.1l.64.64c8.76,8.76,20.82,12.85,33.1,11.23,12.28-1.62,22.87-8.71,29.06-19.44l.89-1.53.34.35c5.7,5.85,14.09,8,21.89,5.6l2.09-.64v168.58c0,9.66-7.86,17.52-17.53,17.52ZM160.18,10.9v163c0,9.25,7.53,16.77,16.77,16.77h52.96c9.25,0,16.78-7.53,16.78-16.77V6.33l-1.12.34c-7.91,2.43-16.41.34-22.3-5.45l-.39.68c-6.3,10.94-17.1,18.16-29.61,19.81-12.22,1.61-24.22-2.32-33.09-10.82Z"/>
        </g>
        <path class="cls-1" d="M247.07,26.04v147.86c0,9.47-7.68,17.15-17.15,17.15h-52.96c-9.47,0-17.15-7.68-17.15-17.15v-86.29c3.03,8.93,6.55,20.92,10.95,35.88,2.68,9.09,5.37,19.17,14.48,27.39,1.58,1.42,14.29,12.62,23.77,8.61,3.66-1.55,11.28-1.09,18.1-25.05,4.58-16.07,6.65-30.91,6.65-30.91,3.33-14.49,1.4-26.2,4.7-40.7,3.34-14.67,6.14-26.97,8.61-36.79Z"/>
        <path class="cls-7" d="M207.35,23.11c-.28-.49-4.62,3.19-11.74,4.3-10.05,1.58-19.61-2.88-20.93-3.52-5.34-2.57-7.43-5.14-9.39-4.11-1.91,1-1.82,4.46-1.57,11.15.59,15.27.89,22.9,1.57,22.89.97-.01-1.18-12.12,5.48-17.14,1.09-.82,1.75-.95,11.15-2.82,7.94-1.58,11.95-2.38,13.89-3.13,6.93-2.67,11.85-7.11,11.54-7.63Z"/>
      </g>
      <g>
        <g>
          <path class="cls-2" d="M252.81,221.7v116.61c0,13.18,10.69,23.87,23.87,23.87,6.05,0,10.96,4.91,10.96,10.96v147.26c0,4.49,3.79,8.1,8.34,7.81,4.16-.27,7.31-3.91,7.31-8.08v-146.99c0-6.05,4.91-10.96,10.96-10.96h1.95c13.19,0,23.87-10.69,23.87-23.87v-116.61c0-13.18-10.68-23.87-23.87-23.87h-39.52c-9.23,0-17.23,5.24-21.2,12.9-1.71,3.28-2.67,7.02-2.67,10.97Z"/>
          <path class="cls-6" d="M295.46,528.6c-2.09,0-4.07-.78-5.6-2.22-1.65-1.55-2.59-3.73-2.59-5.98v-147.26c0-5.84-4.75-10.59-10.58-10.59-13.37,0-24.25-10.88-24.25-24.24v-116.61c0-3.89.94-7.74,2.71-11.14,4.19-8.08,12.44-13.1,21.53-13.1h39.52c13.37,0,24.25,10.88,24.25,24.24v116.61c0,13.37-10.88,24.24-24.25,24.24h-1.95c-5.84,0-10.58,4.75-10.58,10.59v146.99c0,4.46-3.37,8.18-7.66,8.45-.18.01-.36.02-.54.02ZM276.68,198.2c-8.81,0-16.81,4.87-20.87,12.7-1.72,3.3-2.63,7.03-2.63,10.8v116.61c0,12.96,10.54,23.49,23.5,23.49,6.25,0,11.33,5.08,11.33,11.34v147.26c0,2.08.84,4.01,2.35,5.43,1.52,1.42,3.51,2.14,5.59,2,3.9-.25,6.96-3.64,6.96-7.71v-146.99c0-6.25,5.08-11.34,11.33-11.34h1.95c12.96,0,23.5-10.54,23.5-23.49v-116.61c0-12.96-10.54-23.49-23.5-23.49h-39.52Z"/>
        </g>
        <path class="cls-1" d="M252.81,221.7v116.61c0,13.18,10.69,23.87,23.87,23.87,6.05,0,10.96,4.91,10.96,10.96v147.26c0,4.49,3.79,8.1,8.34,7.81,4.16-.27,7.31-3.91,7.31-8.08v-9.57c-.69.3-1.39.39-2.09.19-2.43-.7-3.67-37.45-4.76-48.92-2.21-23.3-3.32-34.96-3.32-43.5-.02-21.56,1.66-22.76.78-33.84-.19-2.32-.8-9.12,0-18.13.13-1.52.54-4.87,1.17-8.87.89-5.67,1.37-6.94.52-8.61-1.4-2.8-4.96-3.69-8.47-4.57-5.41-1.35-7.6-.41-10.31-1.04-7.27-1.7-10.65-12.98-11.87-17.48-6.93-25.57-6.06-60.51-6-63,.42-17.71-1.09-38.82-3.46-52.06-1.71,3.28-2.67,7.02-2.67,10.97Z"/>
        <path class="cls-7" d="M298.4,202.92c7.53-1.78,13.96.63,14.87.98,8.25,3.21,14.52,7.88,15.75,10.76,6.36,14.87,3.24,33.73,1.66,33.85-1.49.11-.07-15.35-10.37-23.48-6.02-4.75-11.74-5.67-11.74-5.67-4.45-.72-7.1.36-11.35-1.76-3.68-1.83-4.98-4.28-5.28-4.89-.44-.87-1.62-3.25-.78-5.48,1.07-2.84,4.76-3.72,7.24-4.3Z"/>
        <path class="cls-7" d="M329.38,253.92c-.43.03-.13,6.15,0,24.52.28,40.43-.83,58.91,0,58.96.81.05,3.15-17.65,3.47-36.78.42-24.88-2.66-46.75-3.47-46.7Z"/>
      </g>
      <g>
        <g>
          <path class="cls-2" d="M252.81,5.83v168.07c0,9.47,7.68,17.15,17.15,17.15h52.96c9.47,0,17.15-7.68,17.15-17.15V10.01c-18.55,18.55-49.65,14.44-62.75-8.29l-.64-1.1c-5.77,5.92-14.36,8.13-22.27,5.7l-1.6-.49Z"/>
          <path class="cls-6" d="M322.92,191.42h-52.96c-9.66,0-17.52-7.86-17.52-17.52V5.32l2.08.64c7.8,2.4,16.19.25,21.89-5.6l.34-.35.89,1.53c6.19,10.73,16.78,17.82,29.06,19.44,12.28,1.62,24.34-2.47,33.1-11.23l.64-.64v164.8c0,9.66-7.86,17.52-17.53,17.52ZM253.18,6.33v167.56c0,9.25,7.53,16.77,16.77,16.77h52.96c9.25,0,16.78-7.53,16.78-16.77V10.9c-8.87,8.49-20.88,12.43-33.09,10.82-12.51-1.65-23.31-8.87-29.61-19.81l-.39-.68c-5.89,5.79-14.39,7.88-22.3,5.45l-1.11-.34Z"/>
        </g>
        <path class="cls-1" d="M252.81,26.04v147.86c0,9.47,7.68,17.15,17.15,17.15h52.96c9.47,0,17.15-7.68,17.15-17.15v-86.29c-3.03,8.93-6.55,20.92-10.95,35.88-2.68,9.09-5.37,19.17-14.48,27.39-1.58,1.42-14.29,12.62-23.77,8.61-3.66-1.55-11.28-1.09-18.1-25.05-4.58-16.07-6.65-30.91-6.65-30.91-3.33-14.49-1.4-26.2-4.7-40.7-3.34-14.67-6.14-26.97-8.61-36.79Z"/>
        <path class="cls-7" d="M292.53,23.11c.28-.49,4.62,3.19,11.74,4.3,10.05,1.58,19.61-2.88,20.93-3.52,5.34-2.57,7.43-5.14,9.39-4.11,1.91,1,1.82,4.46,1.57,11.15-.59,15.27-.89,22.9-1.57,22.89-.97-.01,1.18-12.12-5.48-17.14-1.09-.82-1.75-.95-11.15-2.82-7.94-1.58-11.95-2.38-13.89-3.13-6.93-2.67-11.85-7.11-11.54-7.63Z"/>
      </g>
    </g>
  </g>
</svg>