<?xml version="1.0" encoding="UTF-8"?>
<svg id="Capa_2" xmlns="http://www.w3.org/2000/svg" viewBox="0 0 565.6269 567.5266">
  <defs>
    <style>
      .cls-1 {
        fill: #70569b;
      }

      .cls-2 {
        fill: #604593;
      }

      .cls-3 {
        fill: #47327c;
      }

      .cls-4 {
        fill: #a486ce;
      }

      .cls-5 {
        fill: #8566b2;
      }
    </style>
  </defs>
  <g id="Capa_1-2" data-name="Capa_1">
    <g>
      <g>
        <path class="cls-4" d="M234.6116,562.5269c-3.2236,0-6.3721-.3789-9.3564-1.127-8.1113-2.0254-14.0059-6.3789-23.7715-13.5913-1.0703-.7925-1.9883-1.4941-2.8535-2.1562-3.6963-2.8281-5.9277-4.5352-9.8506-5.6543-2.7588-.7871-5.1533-.9478-10.3076-1.2358-1.8447-.106-3.4512-.1567-4.9189-.1567-1.8789,0-3.2031.0864-4.3711.1631-.9922.0649-1.9287.1265-2.9971.1265-.9365,0-1.8799-.0493-2.8838-.1499-10.0664-1.0195-17.1113-6.2744-25.2695-12.3594-5.6143-4.1919-10.04-7.4956-13.4873-13.6816-2.3018-4.1318-2.7588-7.0542-3.0928-9.188-.2383-1.5244-.3584-2.2896-1.0625-3.4199-3.9961-6.4224-16.2617-7.1147-21.3496-7.1147-2.6914,0-4.5049.1812-4.5225.1826-5.8975.603-9.3232,2.1743-12.6367,3.6943-3.2305,1.4819-6.5703,3.0142-11.165,3.0146-1.2617,0-2.5352-.1123-3.8945-.3442-7.4453-1.27-14.8232-5.7202-19.2549-11.6138-2.085-2.7568-3.4453-5.7036-4.0332-8.7466-.4727-2.395-.2354-4.3071,2.1738-11.5635,1.1816-3.5586,2.8691-8.334,5.1592-14.6011l.3506-.9639c2.2559-6.189,3.1895-8.751,3.6465-12.8276.3955-3.5161.9365-8.3301-1.5166-12.6387-.6172-1.0845-2.1309-2.5991-4.8799-5.3477-3.0713-3.062-6.5479-6.5283-10.7012-9.3887-3.4062-2.3472-5.1504-2.8726-7.1699-3.4805-2.0791-.6255-4.4355-1.335-7.7803-3.6396-7.0742-4.8818-15.2393-14.6992-14.9824-26.3081.0967-4.2021,1.2617-6.6548,3.583-11.5405.5371-1.1304,1.1562-2.4331,1.8652-3.9727,2.2227-4.834,4.2617-9.647,6.2305-14.709.9951-2.5527.0938-5.4429-2.1924-7.0308-3.293-2.2832-7.3105-5.4956-9.1348-10.0918-2.3779-5.9756-5.6377-14.166-.3496-21.7852,2.3516-3.3926,4.6309-5.6743,6.4629-7.5073,2.5293-2.5317,4.0557-4.0601,5.1807-7.4331,1.0703-3.2002.666-5.2578-.0039-8.667-.6348-3.2285-1.4238-7.2471-.9453-12.9595.4492-5.3286,1.6709-8.1436,3.085-11.4028.8398-1.936,1.792-4.1309,2.8213-7.457,2.5811-8.3379,2.2861-12.6699,1.9443-17.686-.3213-4.7192-.6855-10.0688,1.5635-18.4526,2.0312-7.5801,4.6943-12.0684,6.835-15.6743,2.4609-4.1475,4.0859-6.8872,4.3896-13.1802.4697-9.6108-1.2383-16.2021-1.2559-16.2676-.582-2.1562-1.2354-3.8804-1.8672-5.5479-1.3545-3.5757-2.6338-6.9526-2.0713-11.9712.8701-7.7173,4.2959-11.9966,7.0176-14.2285,2.9561-2.4204,5.542-2.8384,8.5371-3.3218,2.0244-.3271,4.5439-.7339,8.418-1.8779,2.8252-.8428,5.7607-1.7188,9.083-3.4429,4.877-2.5283,7.874-5.209,9.5293-7.0127,2.6533-2.8818,3.1943-4.8291,4.0918-8.0552.8828-3.1733,1.9805-7.1221,5.2979-12.5361,4.6641-7.6006,10.2061-12.4453,13.0938-14.6572,3.335-2.5205,5.4219-3.4263,7.4404-4.3022,1.7744-.7705,3.6094-1.5669,7.0098-3.9136,5.8174-4.0181,11.3584-9.2144,13.1797-10.9219.8154-.7637,1.5146-1.4355,2.1416-2.0386,2.4541-2.3604,4.2275-4.0659,7.4248-5.8184,3.7256-2.0493,6.7588-2.7588,11.7988-3.8354,8.0879-1.7144,12.3086-2.4302,14.8311-2.8579,2.707-.459,2.8496-.4941,3.8164-.9409,2.4824-1.1445,3.1709-1.978,4.542-3.6382,1.5332-1.8555,3.6318-4.397,8.4014-7.4316,5.3154-3.3813,9.041-4.2993,11.7617-4.9692,2.417-.5957,3.2305-.7964,4.6895-2.3843,2.999-3.2744,4.8223-8.7363,7.1299-15.6514.209-.624.3906-1.1899.5596-1.7139.9062-2.8247,1.6904-5.2646,4.0156-7.8657,5.6631-6.3364,13.8867-6.6572,15.4775-6.6572,6.2725.0938,10.3506,2.9463,17.1064,7.6729,1.8262,1.2764,3.1797,2.353,4.4893,3.3945,1.9121,1.5215,3.7178,2.958,7.0127,4.9829,1.8965,1.1631,3.4805,2.0337,5.5049,2.7725,2.9727,1.0776,5.3994,1.3345,7.0049,1.5049,6.7041.7017,11.5205,1.2061,17.2578,1.2061,1.8545,0,3.7578-.0513,5.8184-.1567,8.249-.4307,12.0078-.6924,14.6006-2.396.9229-.606,1.4658-1.1182,2.1543-1.7671,1.0293-.9712,2.3105-2.1802,4.6201-3.4307,3.6699-1.9917,7.8848-3.0029,12.5244-3.0029,1.9541,0,3.5654.1738,4.6318.2886,17.2998,1.8311,27.1064,15.5479,28.168,17.106,2.2578,3.353,2.8857,5.4692,3.3906,7.1694.3818,1.2886.6133,2.0664,1.8291,3.7031,4.9219,6.6392,13.1836,8.9492,20.4736,10.9873,5.0908,1.4224,8.0547,1.6831,11.4873,1.9854,3.8184.3364,8.1455.7173,15.7861,2.606l.1064.0264c9.1328,2.2573,14.1641,3.501,18.7334,6.8408,6.5576,4.791,12.5762,12.9795,16.9473,23.0576.7314,1.6797,1.1943,2.9375,1.5312,3.856.5859,1.5933.6396,1.6982,1.1406,2.2495,2.6387,2.895,7.7852,4.5029,15.293,4.7749.4746.0156.8887.0205,1.2842.0205.5879,0,1.1367-.0107,1.6582-.021.5342-.0103,1.043-.0195,1.5371-.0195,2.2178,0,4.6865.1807,7.7129,1.4893,1.7061.7471,6.0947,2.6689,8.4961,7.2632,1.3516,2.5396,1.5166,4.854.916,13.0034-.1641,2.1821-.3115,3.7832-.4248,5.0098-.2529,2.7402-.2324,2.8115-.1182,3.2075.1992.6895.2568.7925,1.6025,2.1636.8682.8838,2.0557,2.0933,3.5312,3.9043,3.4268,4.2041,4.6982,7.0991,5.627,9.2124.7969,1.8149,1.0654,2.4258,2.4893,3.5479.9824.7739,1.6484,1.0757,2.752,1.5757,1.6289.7383,3.6562,1.6567,6.8076,4.0747l.0869.0669c2.8057,2.166,4.6592,3.5972,6.3457,6.0801,1.0615,1.5581,1.8838,3.2627,2.4404,5.0615,1.6758,5.2397,1.0117,10.7246.5273,14.7295-.4824,3.9512-1.1689,5.9609-1.7207,7.5752-.3682,1.0786-.6113,1.7905-.7676,3.0991-.4756,3.9282.6631,6.186,3.1582,11.1333.6729,1.333,1.4033,2.7827,2.1699,4.4111.9277,1.9873,1.7559,3.9062,2.5361,5.8818,3.0781,7.7998,3.6562,12.2959,4.0781,15.5786.3906,3.042.5869,4.5688,2.6289,7.7988,1.4023,2.2207,2.0938,2.7769,4.3838,4.6196,2.3301,1.874,5.8506,4.7061,12.0225,10.9033,11.4766,11.519,13.9541,16.5049,15.376,20.2734.8154,2.1572,3.3037,8.7344,2.4346,17.2329-.7119,6.9165-3.4492,13.5181-8.1367,19.626-2.876,3.7534-5.2266,5.4307-6.9434,6.6553-1.5205,1.0854-2.2842,1.6299-3.3936,3.5156-2.001,3.4087-2.3027,6.6675-2.8799,15.5879-.125,1.981-.1162,2.7671-.0352,10.2871l.0459,4.2983c.1484,14.1421.1709,16.3154-1.0137,19.5645-1.6631,4.563-3.8945,6.5698-5.8623,8.3398-1.457,1.3105-2.834,2.5483-4.5225,5.3496-1.8301,3.0435-5.9121,11.0059-4.3486,19.2793.5723,3.0391,1.5928,4.5376,2.8857,6.4341,1.6602,2.4355,3.7256,5.4663,4.2959,11.0796.2412,2.4263,1.0186,14.8174-7.3057,21.4951-3.3389,2.6729-7.7617,3.395-16.5732,4.834-4.3262.7051-6.5586.8618-8.0352.9653-1.3594.0952-1.502.1055-2.416.4458-6.2949,2.3438-10.0469,8.1602-11.3682,10.5522-.5352.9487-1.6367,3.6602-3.3047,7.7642-1.5068,3.6987-2.123,5.4521-2.5303,6.6123-.4082,1.1616-.7041,2.001-1.4111,3.4453-3.4424,7.0205-8.1768,11.3916-11.3096,14.2842-1.8623,1.7227-5.3359,4.936-10.7529,7.8496-2.9375,1.5874-4.999,2.2905-6.8174,2.9106-.8262.2817-1.6055.5474-2.459.8921-1.1729.4604-11.1914,4.5884-16.001,13.416-2.1621,3.9658-2.7461,8.0068-3.7129,14.7026-.4346,2.9937-.582,5.311-.7012,7.1729-.248,3.9097-.4629,7.2861-3.4375,10.48-3.0068,3.2251-7.4766,4.8594-13.2842,4.8594-2.4668,0-4.6758-.2949-5.9961-.4707-5.2246-.6875-8.1045-2.2534-11.1543-3.9111-2.4404-1.3262-4.9629-2.6968-9.5703-4.0884-1.8291-.5518-2.3193-.6177-3.7764-.8135-1.7549-.2358-4.4062-.5928-10.7588-1.9307-2.8818-.605-5.2256-1.1396-7.165-1.5815-3.1455-.7173-5.4189-1.2354-6.5342-1.2354-.2012,0-.3037.0093-.4277.0586-.9785,1.1909-4.1689,5.9658-6.3252,9.1934l-1.2773,1.9146c-3.5605,5.3369-4.0186,6.0225-5.6484,7.1958-3.083,2.2109-6.8486,3.3291-11.2002,3.3296-5.2656,0-9.7988-1.6904-10.6533-2.0293-3.2637-1.2769-4.6963-2.6196-5.959-3.8047-.916-.8589-1.7803-1.6694-3.9531-2.9199-7.375-4.2402-15.2666-4.9277-18.3164-5.0259-.9004-.0288-2.1855-.0376-3.498-.0376-2.2754,0-4.6299.0278-5.3262.0366-.5537.0547-2.1943.2183-4.1113.4399-2.9004.3237-5.3105.6504-6.6328.8979-4.0625.771-5.9092,2.3975-8.7051,4.8594-2.3779,2.0947-5.3379,4.7017-10.0654,6.8779-.791.3643-8.0117,3.5645-17.4502,3.5649Z"/>
        <path class="cls-1" d="M223.2614,10c4.65.0698,7.85,2.2998,14.24,6.77,4.38,3.0598,5.9399,4.97,11.75,8.5398,2.0699,1.27,3.97,2.3201,6.41,3.2102,3.4199,1.24,6.21,1.5698,8.1899,1.7798,6.8325.7153,11.7721,1.2336,17.783,1.2336,1.8892,0,3.8842-.0513,6.077-.1636,8.8301-.46,13.3301-.74,17.09-3.21,2.88-1.8899,3.27-3.28,6.41-4.98,3.575-1.9402,7.2356-2.3994,10.1439-2.3994,1.6637,0,3.0808.1501,4.0961.2593,15.3,1.6201,24.0801,14.2302,24.5701,14.9502,3.65,5.4199,1.87,6.3699,5.34,11.0398,5.8199,7.8501,14.77,10.4802,23.14,12.8201,11.24,3.1401,13.1,1.0901,27.42,4.6301,8.86,2.1899,13.2999,3.28,17.09,6.0498,9.02,6.5901,14.2,18.4502,15.3099,21.01,1.9501,4.4802,1.75,5.49,3.5601,7.4802,5.4299,5.96,15.83,6.2998,18.87,6.4099.494.0159.9623.0215,1.4087.0215,1.1842,0,2.2179-.0403,3.1917-.0403,1.9138,0,3.5952.1555,5.7296,1.0789,1.37.5999,4.4501,1.9299,6.05,4.99.6799,1.28.9299,2.5798.36,10.3198-.55,7.3201-.92,8.03-.36,9.9702.9,3.1199,2.46,3.4199,6.0599,7.8398,6.13,7.52,4.1901,9.8201,8.9,13.53,3.21,2.53,4.67,1.8999,9.61,5.6899,2.7201,2.1001,4.0901,3.1501,5.3401,4.99.8099,1.1902,1.3999,2.4402,1.7999,3.73,1.3301,4.1602.8201,8.6802.34,12.6501-.7599,6.22-2,6.5999-2.49,10.6799-.8199,6.78,2.04,10.3501,5.77,18.27.77,1.6499,1.5801,3.49,2.41,5.5901,5.78,14.6499,1.9399,16,7.13,24.21,3.58,5.6699,4.75,3.99,17.09,16.3799,10.8,10.8401,13.01,15.25,14.24,18.51.87,2.3,2.87,7.8101,2.14,14.96-.91,8.8301-5.45,14.9001-7.13,17.0901-4.95,6.46-7.45,5.1899-10.6799,10.6799-2.7001,4.6001-2.99,9-3.5601,17.8-.16,2.53-.12,3.3801,0,14.96.15,14.24.11,15.55-.71,17.8-2.3301,6.3901-5.55,5.49-9.97,12.8201-1.04,1.73-7.0701,11.73-4.9801,22.79,1.5901,8.45,6.27,8.71,7.12,17.0898.1101,1.1001,1.0601,11.8601-5.46,17.0901-2.3099,1.8501-6.29,2.5-14.25,3.8-8.53,1.3899-8.33.52-11.39,1.6599-8.65,3.22-13.15,11.28-14,12.8201-.66,1.1699-1.63,3.55-3.5599,8.3-2.9701,7.2898-2.5901,7.27-3.8,9.74-3.03,6.1799-7.2,10.03-10.21,12.8098-1.86,1.7202-4.97,4.5601-9.73,7.1201-3.8501,2.0801-5.8101,2.3699-8.78,3.5701-1.48.5798-12.88,5.3098-18.52,15.6599-2.59,4.75-3.26,9.3799-4.27,16.3799-1.3199,9.0701-.14,12.05-2.85,14.9602-2.4495,2.627-6.272,3.2666-9.6248,3.2666-2.1223,0-4.056-.2561-5.3352-.4268-8.13-1.0698-9.0801-4.55-19.9401-7.8298-4.61-1.3901-3.08-.3501-14.95-2.8501-8.4288-1.7705-12.1942-2.9243-14.7296-2.9243-1.1735,0-2.0833.2471-3.0704.7944-.9199.5-1.34.95-7.84,10.6799-4.49,6.72-4.6901,7.1099-5.6901,7.8298-2.5287,1.8135-5.5135,2.3877-8.2792,2.3877-4.3868,0-8.222-1.4446-8.8108-1.6775-4.5499-1.78-3.63-3.1702-9.26-6.4102-8.47-4.8699-17.25-5.5798-20.65-5.6899-.9432-.03-2.2867-.04-3.6586-.04-2.7438,0-5.6014.04-5.6014.04,0,0-1.99.1899-4.4099.47-2.42.27-5.27.6301-6.98.95-9.5901,1.8201-10.6001,7.8101-19.9401,12.1101-.4819.2219-6.9756,3.1069-15.3595,3.1069-2.5752,0-5.3278-.272-8.1405-.9771-7.17-1.7898-12.71-5.8899-22.08-12.8098-5.47-4.05-8.35-6.8701-14.24-8.55-3.3301-.95-6.2101-1.1301-11.4-1.4199-2.1129-.1211-3.8007-.1648-5.1979-.1648-3.6003,0-5.2771.2896-7.368.2896-.7152,0-1.4788-.0339-2.3842-.1248-8.6899-.8801-14.7999-5.4402-22.7899-11.4001-5.5601-4.1499-9.23-6.95-12.1-12.0999-3.52-6.3201-1.63-8.5701-4.28-12.8201-5.1343-8.2512-18.2916-9.4688-25.5912-9.469-2.7947,0-4.7299.1785-5.0288.209-12.6086,1.2883-15.7917,6.6829-23.2964,6.6829-.9413,0-1.9492-.0847-3.0536-.2729-6.04-1.03-12.37-4.73-16.1001-9.6899-1.5499-2.05-2.6599-4.3101-3.12-6.6899-.22-1.1201-.2699-2.1702,2.01-9.04,1.0901-3.28,2.7101-7.8901,5.11-14.46,2.5701-7.0601,3.7201-10.05,4.27-14.95.4601-4.0901,1.0601-10.05-2.14-15.6702-.95-1.6699-2.5299-3.25-5.6899-6.4099-3.17-3.1602-6.87-6.8501-11.4-9.97-7.59-5.23-9.16-3.1301-14.95-7.1201-6.55-4.52-13.02-13.05-12.8201-22.0798.0901-3.9102,1.38-5.7002,4.99-13.53,1.7101-3.72,3.9301-8.77,6.3501-14.99,1.84-4.7202.1599-10.0601-4-12.9502-3-2.0798-6.05-4.5798-7.3401-7.8298-2.75-6.9102-4.2899-12.1902-.89-17.0901,5.2001-7.5,9.77-8.6799,12.28-16.21,2.74-8.1899-1.63-11.8101-.71-22.79.63-7.47,2.9-8.75,5.7-17.8,5.4301-17.54-.73-20.3298,3.5601-36.3198,4.12-15.3701,10.73-16.2102,11.39-29.9102.5199-10.6299-1.42-17.8-1.42-17.8-1.9-7.0398-4.45-9.8699-3.8-15.6699.16-1.4199.8201-7.3101,5.2201-10.9199,3.37-2.76,5.5499-1.4202,15.2-4.27,3.05-.9102,6.25-1.8701,9.97-3.8,1.64-.8501,6.78-3.5701,10.91-8.0701,6.49-7.0498,3.64-11.03,9.97-21.3599,4.8101-7.8401,10.63-12.3501,11.87-13.3,5.73-4.3301,6.73-2.8801,14.25-8.0701,6.0801-4.2,11.8301-9.5798,13.76-11.3899,3.91-3.6602,5.23-5.3,8.55-7.1201,3.09-1.7,5.62-2.3,10.4399-3.3298,16.89-3.5801,16.65-2.74,19.7001-4.1501,6.8999-3.1799,5.1699-6.0701,13.5299-11.3899,9.4801-6.03,12.6101-2.9202,17.4501-8.1899,3.71-4.05,5.73-10.0801,8.1899-17.4502,1.26-3.76,1.61-5.6499,3.5601-7.8298,4.46-4.99,11.4299-4.99,11.75-4.99M223.3365,0h-.0751c-1.9645,0-12.123.4014-19.2059,8.3259-3.033,3.3904-4.0573,6.5811-5.048,9.6665-.1625.5061-.3378,1.0527-.538,1.6499-2.0399,6.1116-3.7983,11.3801-6.0819,13.873-.2981.3242-.4445.4231-.4459.4241-.207.0981-1.0983.3176-1.7489.478-2.8839.7104-7.2422,1.7844-13.2485,5.6047-5.438,3.4604-7.9263,6.4731-9.5729,8.4668-1.2069,1.4614-1.3331,1.614-2.7755,2.2788-.2589.1196-.3433.1506-.3467.1519-.235.0669-1.2439.238-2.2195.4036-2.5596.4341-6.8436,1.1606-15.0219,2.894-5.3561,1.1445-8.8494,1.9648-13.1865,4.3508-3.7675,2.0654-5.8451,4.0632-8.4753,6.5928-.6125.5891-1.2946,1.2454-2.0886,1.9888-1.759,1.6497-7.092,6.6509-12.6095,10.4624-2.9948,2.0667-4.4602,2.7029-6.1572,3.4395-2.1807.9465-4.6525,2.0193-8.4384,4.8804l-.0264.0198-.0261.0203c-3.1644,2.4241-9.2317,7.7278-14.3121,16.0088-3.6866,6.0161-4.9399,10.5225-5.8551,13.813-.835,3.0017-1.1162,4.0129-2.9484,6.0032-1.3933,1.5183-3.9292,3.7744-8.1548,5.9648-2.907,1.5083-5.4913,2.2793-8.2274,3.0957-3.5406,1.0457-5.788,1.4084-7.7708,1.7288-3.2396.5229-6.9116,1.116-10.906,4.3872-3.444,2.8257-7.7634,8.1555-8.8204,17.5317-.698,6.2285.9285,10.5215,2.3635,14.3093.6121,1.6157,1.1904,3.1421,1.7086,5.0547.0785.314,1.5134,6.2153,1.0963,14.7422-.2437,5.0586-1.3975,7.0029-3.6962,10.877-2.2964,3.8699-5.1543,8.686-7.3647,16.9326-2.4645,9.1858-2.0699,14.9766-1.7218,20.0857.3204,4.7036.5736,8.4187-1.7319,15.866-.9487,3.0669-1.8044,5.0393-2.6321,6.9468-1.4561,3.3562-2.9617,6.8269-3.4797,12.9702-.5375,6.4141.3635,10.999,1.0214,14.3469.6494,3.3049.7936,4.2463.1698,6.1106-.7207,2.1624-1.5295,3.0403-3.9781,5.491-1.9727,1.9744-4.4277,4.4316-7.0364,8.1941-6.8149,9.8215-2.6637,20.2529-.1833,26.4854,2.3149,5.8323,7.0594,9.6646,10.934,12.3506.3715.2581.5312.7129.3802,1.1001-1.934,4.9707-3.9347,9.6938-6.1189,14.4451-.6959,1.5093-1.3069,2.7954-1.8368,3.9106-2.3746,4.999-3.9434,8.3015-4.0646,13.5657-.3014,13.6077,9.0436,24.9553,17.1377,30.5408,3.9955,2.7534,6.9928,3.6558,9.1813,4.3147,1.8147.5461,3.0137.907,5.7744,2.8093,3.7806,2.6038,7.0865,5.8994,10.0033,8.8071,1.8254,1.8252,3.7133,3.7131,4.0758,4.2952,1.5183,2.667,1.3005,5.9241.8875,9.5957-.3746,3.3389-1.0598,5.3215-3.3785,11.6838l-.3508.9631c-2.3009,6.2986-4.004,11.1194-5.2029,14.7271-2.4071,7.2529-3.0813,10.3091-2.3331,14.1199.7288,3.77,2.3981,7.4114,4.9559,10.7944,5.1543,6.8538,13.7418,12.041,22.3959,13.5168,1.6384.2795,3.1873.4153,4.7346.4153,5.6866,0,9.705-1.8435,13.2504-3.47,3.0782-1.4121,5.986-2.7461,11.0625-3.2646.0096-.001,1.6042-.1572,4.012-.157,9.7708,0,15.6293,2.3867,17.1011,4.752.1547.248.1703.2732.3708,1.5554.3698,2.3643.9286,5.9373,3.6632,10.8472,3.97,7.1235,9.0143,10.8887,14.855,15.248,8.4015,6.2668,16.3245,12.1768,27.7637,13.3352,1.1805.1187,2.2871.1758,3.3917.1758,1.2317,0,2.2952-.0696,3.3236-.137,1.1448-.0752,2.3286-.1526,4.0446-.1526,1.3711,0,2.8844.0486,4.6257.1484,4.7799.2668,6.9816.4116,9.229,1.0527,3.0096.8584,4.6315,2.0991,8.1848,4.8176.8846.6768,1.8228,1.3938,2.8477,2.1526l.08.0591c9.9075,7.3171,16.4528,12.1509,25.5288,14.4165,3.3712.845,6.9281,1.2744,10.5624,1.2744,10.4996,0,18.6471-3.6113,19.5415-4.0232,5.3916-2.4822,8.7941-5.4788,11.2783-7.667,2.557-2.252,3.6155-3.1841,6.3444-3.7019,1.1667-.2183,3.5034-.5327,6.2241-.8362,1.6974-.1965,3.1744-.3472,3.8541-.4148.8766-.0105,3.0096-.0337,5.0486-.0337,1.8528,0,2.8392.019,3.3405.0349,2.6702.0864,9.5848.6853,15.9836,4.3643,1.666.9587,2.235,1.4924,3.0225,2.231,1.7905,1.6794,3.7175,3.3123,7.5787,4.8228,1.3734.5437,6.4419,2.3645,12.454,2.3645,5.4178,0,10.1642-1.4336,14.1068-4.261,2.3821-1.7151,3.1635-2.8865,6.9186-8.5151l1.2585-1.8855c1.2222-1.8293,3.1396-4.6997,4.5215-6.6982,1.0096.2114,2.264.4976,3.4962.7783,1.9236.4385,4.3174.9841,7.2518,1.6006,6.5288,1.375,9.2902,1.7463,11.1174,1.9922,1.3152.177,1.5521.2087,3.0013.6458,4.1119,1.2419,6.3031,2.4329,8.6229,3.6936,3.1621,1.7188,6.7462,3.6667,12.8994,4.4766,1.4253.1899,3.8403.5122,6.6399.5122,7.2507,0,12.9497-2.1689,16.9386-6.4468,4.196-4.5061,4.5026-9.3235,4.7729-13.5737.1187-1.8643.2532-3.9773.6589-6.7661.9868-6.8389,1.4923-9.9854,3.1539-13.033,4.0352-7.405,13.0081-10.9873,13.3881-11.136l.0496-.0195.0493-.0198c.7256-.2935,1.4095-.5266,2.2013-.7966,1.9042-.6497,4.2737-1.458,7.5854-3.2471,5.9567-3.2036,9.8806-6.8325,11.7664-8.5767,3.4022-3.1418,8.5477-7.8938,12.3992-15.749.8385-1.7119,1.2098-2.7683,1.6399-3.9915.3918-1.1145.9839-2.7986,2.442-6.3777,1.3463-3.3132,2.6144-6.4343,3.0151-7.1709l.0232-.0413.0161-.0293c.8195-1.4849,3.8708-6.47,8.7333-8.28.1101-.041.1868-.0676.2366-.0845.1769-.0171.5089-.0403.785-.0598,1.4727-.1033,3.9375-.2761,8.488-1.0176,9.3743-1.531,14.5345-2.374,18.8932-5.8647,10.354-8.3054,9.4459-23.0254,9.1588-25.8918-.6987-6.8889-3.2656-10.6548-5.14-13.4045-1.1843-1.7373-1.725-2.5305-2.1027-4.5381-1.2454-6.5906,2.1843-13.229,3.7166-15.7773,1.3042-2.1631,2.2605-3.0229,3.5839-4.2131,2.1632-1.9456,5.126-4.6101,7.217-10.3445,1.496-4.1047,1.4718-6.3997,1.3146-21.3313l-.0459-4.3105c-.0814-7.5381-.085-8.1519.0264-9.9124.5317-8.2065.7687-10.9238,2.2042-13.3696.5649-.9602.6451-1.0176,1.9835-1.9727,1.8623-1.3286,4.6765-3.3367,8.0099-7.687,5.255-6.8501,8.3312-14.3027,9.1396-22.147.9885-9.6816-1.8132-17.0891-2.734-19.5232-2.0458-5.4224-5.5226-11.0029-16.509-22.0303-6.3649-6.3904-10.0144-9.3264-12.4293-11.269-2.1567-1.7351-2.3329-1.877-3.2893-3.3916-1.4531-2.2986-1.5388-2.9648-1.8994-5.769-.4556-3.5437-1.0795-8.3967-4.384-16.7722-.8165-2.0662-1.6829-4.0759-2.6504-6.1489-.818-1.7371-1.5753-3.2385-2.2434-4.563-2.5073-4.9712-2.9319-6.0352-2.6608-8.2773.0955-.7944.1978-1.0942.537-2.0872.5935-1.7378,1.4064-4.1174,1.9515-8.5808.5398-4.4634,1.2765-10.5554-.726-16.8608-.7042-2.2573-1.7379-4.3965-3.073-6.3582-2.132-3.1379-4.4685-4.9419-7.4266-7.2256l-.0693-.0535c-3.6321-2.7866-6.0479-3.8813-7.8119-4.6809-1.0232-.4636-1.2313-.563-1.7191-.9475-.3256-.2566-.4297-.3792-.4307-.3804-.0897-.1411-.3719-.7837-.578-1.2527-.985-2.2419-2.4734-5.6296-6.3306-10.3616-1.619-1.9878-2.9011-3.2935-3.8372-4.2468-.0593-.0603-.1213-.1235-.1837-.1873.032-.3718.0717-.8015.1107-1.2249.1115-1.2083.2643-2.8628.4312-5.0835.5947-8.0769.6251-11.7585-1.5005-15.7603-3.2233-6.1121-8.953-8.6199-10.84-9.4458l-.0199-.0088-.0515-.0225c-3.8722-1.6748-7.0762-1.9006-9.6997-1.9006-.5247,0-1.0647.0098-1.6311.0205-.4911.0093-1.0073.0198-1.5605.0198-.345,0-.7069-.0042-1.0887-.0164l-.0164-.0007c-7.8848-.2849-10.7144-2.0984-11.6448-3.0078-.0817-.2129-.1869-.499-.278-.7466-.3589-.9758-.8503-2.3125-1.6418-4.1311-3.3319-7.6846-9.2655-18.2886-18.5797-25.0935-5.3634-3.9197-11.0548-5.3264-20.484-7.657l-.1057-.0261c-8.0153-1.9814-12.7457-2.3979-16.5468-2.7327-3.4457-.3035-5.9353-.5227-10.5822-1.8208-8.1375-2.2749-14.1783-4.2627-17.7976-9.1445-.6945-.9346-.7356-1.0732-1.056-2.1523-.6836-2.3027-1.5574-4.8572-4.0227-8.5178-1.2209-1.7944-12.255-17.2378-31.8113-19.3086-1.0864-.1169-2.9303-.3149-5.1492-.3149-5.4818,0-10.4995,1.2146-14.9137,3.6104-2.8767,1.5574-4.4874,3.0771-5.6636,4.1868-.6063.572-.9108.8591-1.463,1.2217-1.5021.9866-5.3867,1.2332-12.1239,1.5842-1.9672.1008-3.7875.1499-5.5568.1499-5.4783,0-9.9447-.4675-16.7058-1.1755-1.469-.1558-3.4502-.366-5.8585-1.239-1.6208-.5913-2.9124-1.304-4.589-2.3325-3.0308-1.8623-4.6433-3.1453-6.5106-4.6311-1.3054-1.0386-2.7849-2.2158-4.7422-3.583C236.2138,3.6653,231.142.1172,223.4114.001l-.075-.001h0Z"/>
      </g>
      <g>
        <path class="cls-2" d="M206.7005,478.731c-7.3994.0005-13.5156-1.6899-17.5635-2.8086-2.2666-.6235-5.5449-2.0928-10.9756-4.5269-1.792-.8027-3.8174-1.7104-6.1221-2.7295-21.9209-9.6909-31.374-15.5132-34.4805-17.4263-12.0791-7.4658-15.4141-11.2573-16.5107-12.5034-2.0977-2.3853-3.2451-4.1636-5.1445-7.1094-1.1621-1.8022-2.6074-4.0449-4.6826-7.0591-3.6602-5.3169-5.9023-8.1445-8.0693-10.8794-1.3545-1.7085-2.6338-3.3223-4.1816-5.4575-6.3232-8.7437-14.9854-20.7212-16.8945-34.248-.7627-5.4434.001-7.7998,1.2666-11.7041,1.1963-3.6914,2.6846-8.2856,3.5576-16.9365.3467-3.4355.5332-7.0444.5547-10.7256.1406-18.938-4.1621-34.4741-6.0186-40.2749-1.6494-5.124-3.2432-8.8735-4.6494-12.1812-2.4834-5.8428-4.124-9.7026-4.1123-16.7456.0098-4.562,1.6973-10.4019,5.207-22.1299,6.1816-20.6265,9.21-30.0474,16.2188-37.1841,2.2256-2.269,3.501-3.0742,4.9766-4.0068,1.751-1.1055,3.7344-2.3584,7.0986-5.8691,5.335-5.5742,7.7344-10.1128,10.0537-14.5024,1.5176-2.8711,3.0869-5.8408,5.5371-9.1641,2.3018-3.1313,3.3799-3.9146,6.5801-6.2388,2.7178-1.9751,6.8271-4.9595,14.0088-11.1069,5.8047-4.9717,9.2314-8.2524,12.8594-11.7251,4.0557-3.8828,8.25-7.8975,16.3057-14.8184,7.7666-6.6831,11.625-9.9536,14.4521-11.2837,7.6143-3.5747,15.1738-3.8286,30.2344-4.3345l.1396-.0044c4.2871-.1431,7.6738-.2559,10.4004-.2559,3.4541,0,5.7422.1875,7.6504.6274,5.6035,1.2954,8.8818,3.293,12.0508,5.2251,3.7236,2.269,7.2412,4.4131,13.3496,4.8423.6396.0444,1.2617.0659,1.873.0659,5.6758,0,10.4326-1.9033,18.3135-5.0576,7.6406-3.0498,11.3047-5.6821,14.248-7.7979,2.6426-1.8989,4.5518-3.2705,8.6064-4.4863,3.3115-.9902,6.8506-1.4922,10.5166-1.4922,9.1943,0,17.0088,3.1577,19.9502,4.3467,3.8867,1.5728,7.6514,3.6553,11.2021,6.1948,2.877,2.0425,5.1602,4.0684,6.6709,5.4092,4.1875,3.7212,6.208,6.397,8.1631,8.9844,2.1191,2.8066,4.1221,5.458,8.3262,8.687,4.8643,3.7476,8.6836,5.147,22.5166,9.9043,15.3984,5.2959,22.2168,7.5,25.8799,8.6841,3.3633,1.0869,3.9688,1.2827,6.1865,2.2373,11.2432,4.8252,22.8662,9.814,31.1943,21.2764,1.1299,1.5479,2.0537,3.0552,7.9209,16.0933,9.165,20.3843,14.2139,31.6138,15.291,35.6636,2.2441,8.4385,6.9141,25.9966-.8291,44.8652-2.2061,5.3906-8.8936,18.8623-23.3496,27.582-9.2637,5.5894-17.6289,6.7217-34.2969,8.9775-2.8447.3882-3.7373.4326-18.6514,1.1729l-16.4531.8228c-11.9609.6035-17.9639.9067-21.6895.9067-2.6221,0-4.1201-.145-6.126-.4297-13.1709-1.8804-22.9004-6.4263-27.5273-8.9688-7.4424-4.0928-11.9424-8.2227-18.7529-14.4736l-2.293-2.0967c-8.7979-8.0332-17.1084-15.6201-22.2607-26.1206-2.7861-5.6729-4.7676-11.8945-6.6836-17.9106-1.96-6.1543-3.9863-12.5176-6.9131-18.5308-.793-1.6357-1.6396-3.2437-2.585-4.9116-2.7119-4.8237-5.8564-9.4092-9.3398-13.6201l-.1289-.1558-.1484-.1362c-2.1592-1.9766-4.5732-3.6562-7.1768-4.9927-4.6758-2.3979-10.0283-3.6655-15.4805-3.6655-2.3486,0-4.1426.2261-5.2871.3955-7.5547,1.0981-12.5928,4.3374-15.9277,6.481-.9775.6279-1.9189,1.2871-2.7959,1.958-5.3965,4.0591-8.5557,8.3345-10.252,10.6318-4.5938,6.2075-10.3125,13.9355-9.9678,24.3174.2461,7.3911,3.4961,12.5635,7.9951,19.7227,3.1582,5.0371,5.4053,7.4155,8.25,10.4272,1.8271,1.9331,3.8975,4.1245,6.6885,7.5449,4.8896,5.9712,11.582,14.1445,16.1982,25.2373,2.1035,5.0586,2.6611,8.0259,3.2012,10.896.6143,3.2661,1.25,6.6431,4.002,12.3755,2.0146,4.1968,3.3789,5.9844,5.8555,9.23,1.709,2.2388,4.0479,5.3047,7.6338,10.561,16.3818,24,16.6934,42.2241,11.291,71.6426l-.0391.2134c-1.8525,10.0742-2.7822,15.1304-5.2148,20.4634-5.0029,10.9946-12.7285,17.5176-17.8398,21.8335-6.2637,5.3047-11.6709,9.8833-20.3809,12.4736-4.0449,1.2031-8.3115,1.813-12.6807,1.813Z"/>
        <path class="cls-3" d="M313.3563,101.8047l-.0002,5.8254h.0011c8.6263,0,15.7947,2.8972,18.8691,4.1399,3.6605,1.4812,7.2222,3.4521,10.6029,5.8699,2.7433,1.9478,4.953,3.9089,6.4124,5.2043,3.9731,3.5312,5.9056,6.0898,7.7745,8.5642,2.1434,2.8376,4.3597,5.7722,8.8704,9.2363,5.2324,4.0305,9.1602,5.4734,23.3503,10.354,15.4166,5.3022,22.2529,7.512,25.9255,8.699,3.3311,1.0769,3.8431,1.2424,5.9418,2.1455,10.8781,4.6685,22.1265,9.4958,29.9919,20.321.9865,1.3516,1.991,3.0737,7.6123,15.5645,8.8041,19.5808,14.118,31.3997,15.1333,35.218,2.1622,8.1318,6.6614,25.0525-.7119,43.0173-2.0941,5.1191-8.4452,17.918-22.1582,26.1882-8.7455,5.2776-16.9119,6.3828-33.1887,8.5859-2.714.3706-3.598.4146-18.3643,1.1475-3.5316.1753-7.8445.3894-13.1501.656l-3.3566.1694c-11.9012.6003-17.8749.9019-21.5258.9019-2.448,0-3.8453-.1348-5.7113-.3999-12.7163-1.8157-22.0851-6.1917-26.5366-8.6377-7.1371-3.9246-11.5332-7.9595-18.1871-14.0669-.7665-.7036-1.5332-1.4036-2.2985-2.1023-8.5889-7.8416-16.7014-15.2483-21.6121-25.2537-2.6898-5.4783-4.5509-11.3225-6.5212-17.5095-1.9913-6.2532-4.0505-12.7192-7.0664-18.915-.8201-1.6912-1.6946-3.3528-2.6635-5.0627-2.8016-4.9836-6.0448-9.7139-9.6395-14.0588l-.2573-.311-.2979-.2727c-2.3497-2.1509-4.9781-3.9795-7.8148-5.4363-5.0848-2.6077-10.8976-3.9861-16.8098-3.9861-2.8351,0-5.0018.3215-5.6965.4246-8.1865,1.1899-13.7614,4.7737-17.0873,6.9116-1.0377.6655-2.0383,1.3657-2.9747,2.0815-5.7457,4.3252-9.0631,8.8169-10.843,11.2271-4.6071,6.2263-10.9167,14.7537-10.5392,26.1492.2729,8.1782,3.8768,13.9138,8.4366,21.1704,3.3126,5.283,5.7642,7.8777,8.6028,10.8821,1.7926,1.8972,3.8245,4.0479,6.5553,7.3936,5.0383,6.1536,11.3087,13.812,15.7583,24.5059,1.9869,4.7791,2.493,7.4692,3.0288,10.3176.6492,3.4512,1.3206,7.0198,4.2388,13.0977,2.1442,4.4656,3.658,6.4495,6.1661,9.7363,1.6885,2.2126,4.001,5.2432,7.5439,10.4363,15.9039,23.3003,16.1951,40.2634,10.8322,69.4722l-.037.2009c-1.8673,10.1533-2.7195,14.7871-5.0061,19.8-4.7301,10.3955-12.1537,16.6638-17.072,20.8169-6.0116,5.0903-11.2032,9.4863-19.326,11.9021-3.7761,1.1228-7.7632,1.6921-11.8505,1.6921-7.0048,0-12.8918-1.6267-16.7931-2.7048-2.0496-.5642-5.4358-2.0818-10.5615-4.3789-1.7942-.804-3.8215-1.7126-6.1292-2.7327-21.7291-9.606-31.0635-15.3535-34.1223-17.2371-7.7744-4.8059-13.1101-8.8271-15.8595-11.9531-1.955-2.2217-2.995-3.8347-4.8832-6.7629-1.1726-1.8186-2.632-4.0818-4.7318-7.1316-3.7174-5.4011-6.0931-8.3979-8.1891-11.0422-1.3335-1.6819-2.593-3.2708-4.099-5.3486-6.1464-8.4993-14.564-20.1396-16.3715-32.9448-.6699-4.7817-.061-6.6606,1.152-10.4043,1.1736-3.6218,2.7809-8.582,3.6851-17.543.3553-3.5242.5469-7.2249.5693-10.9912.1438-19.3752-4.2582-35.2598-6.16-41.1978-1.6884-5.2454-3.3801-9.2256-4.7396-12.4236-2.4265-5.7087-3.8912-9.1545-3.8802-15.6003.0082-4.1555,1.6566-9.8462,5.0847-21.2993,6.038-20.1494,8.9824-29.3374,15.5082-35.9827,1.9873-2.0256,3.075-2.7126,4.452-3.5823,1.8918-1.1948,4.036-2.5491,7.6476-6.3188,5.6162-5.8667,8.1116-10.5884,10.5247-15.1545,1.5352-2.9048,2.9852-5.6487,5.3112-8.8035,2.0311-2.7632,2.7821-3.3086,5.9423-5.6042,2.7561-2.0022,6.9211-5.0276,14.1936-11.2517,5.8646-5.0234,9.3196-8.3311,12.9775-11.8328,4.028-3.8557,8.193-7.843,16.1923-14.7158,6.7428-5.8015,11.1974-9.6343,13.7858-10.8523,7.0764-3.3215,13.9781-3.5535,29.0988-4.0613l.1342-.0046c4.2618-.1418,7.6281-.2542,10.3069-.2542,3.2218,0,5.3143.1655,6.9927.5522,5.1473,1.1899,8.084,2.9797,11.193,4.8748,3.6775,2.2412,7.8458,4.7817,14.6646,5.2607.6993.0488,1.3975.0735,2.0752.0735,6.2365,0,11.1891-1.9824,19.389-5.2644,7.974-3.1829,11.7981-5.9304,14.871-8.1384,2.5027-1.7983,4.1561-2.9863,7.7383-4.0605,3.0422-.9097,6.3008-1.3708,9.6852-1.3711l.001-5.8254M313.355,101.8049c-3.613,0-7.4545.4492-11.3536,1.615-9.37,2.8101-8.97,6.73-23.1,12.3699-7.8318,3.1348-12.1301,4.8494-17.2296,4.8494-.5458,0-1.101-.0195-1.6704-.0593-10.39-.73-12.3201-7.0798-24.9501-10-2.2664-.5222-4.8007-.7017-8.3049-.7017-2.8043,0-6.2299.115-10.635.2617-15.48.52-23.22.78-31.38,4.6101-3.23,1.52-7.23,4.9299-15.11,11.71-15.41,13.24-17.03,16.1499-29.16,26.54-15.6799,13.4199-16.35,11.45-21.0399,17.8298-6.3401,8.6001-6.8301,14.48-15.3501,23.3801-5.9399,6.2-6.87,4.5698-12.0499,9.8499-7.66,7.8-10.85,18.1001-16.9301,38.3901-3.5499,11.8599-5.3199,17.8999-5.33,22.96-.02,11.77,4.3199,15.5901,8.9,29.8201.98,3.0598,6.0299,19.1899,5.88,39.3699-.02,3.3801-.1801,6.8801-.54,10.45-1.8101,17.9402-6.41,17.9202-4.8101,29.3401,2.01,14.24,10.89,26.52,17.42,35.55,4.03,5.5601,6.27,7.6499,12.21,16.28,5.4601,7.9299,6.4501,10.3599,10.04,14.4399,1.46,1.6599,5.15,5.6299,17.17,13.0601,3.9299,2.4199,13.6799,8.26,34.83,17.6099,9.5,4.2,14.23,6.5,17.5,7.4001,4.071,1.125,10.5549,2.9138,18.3391,2.9138,4.1854,0,8.7483-.5176,13.5109-1.9338,9.28-2.76,15.1-7.6802,21.4301-13.04,5.27-4.45,13.35-11.29,18.61-22.8501,2.6-5.7,3.5499-10.9199,5.47-21.3599,5.51-30.01,5.28-48.8601-11.75-73.8101-8.61-12.6201-10.01-12.6201-13.27-19.4099-4.96-10.3301-2.5-11.97-7.14-23.1301-4.76-11.4399-11.48-19.6699-16.63-25.96-7.1499-8.76-9.72-9.6899-14.73-17.6799-4.4299-7.05-7.33-11.6802-7.5499-18.27-.3101-9.3601,4.99-16.53,9.3999-22.49,1.78-2.4102,4.7201-6.3201,9.6801-10.05.8101-.6201,1.6801-1.23,2.6-1.8201,3.22-2.0698,7.9-5.05,14.78-6.05.871-.1292,2.5903-.364,4.8584-.364,3.6957,0,8.847.6238,14.1516,3.3442,2.9399,1.5098,5.12,3.25,6.54,4.5498,2.5399,3.0701,5.84,7.49,9.0499,13.2002.85,1.5,1.6901,3.0798,2.5,4.75,5.7001,11.71,7.87,24.7798,13.6,36.45,5.8601,11.9399,15.5601,20.23,25.2001,29.0798,7.0599,6.48,11.7,10.6902,19.3199,14.8801,3.13,1.72,13.53,7.1599,28.52,9.3,2.1356.3035,3.7892.4585,6.5347.4585,4.1323,0,10.7374-.3516,25.1753-1.0786,27.8501-1.3999,28.3501-1.3499,32.01-1.8499,16.92-2.29,25.65-3.4802,35.41-9.3701,16.15-9.74,22.92-25.01,24.54-28.97,8.11-19.76,3.25-38.0701.95-46.72-1.13-4.25-5.9-14.8701-15.45-36.1101-5.99-13.3101-6.9501-14.8699-8.2201-16.6099-8.61-11.8501-20.33-17.0601-32.3999-22.24-4.88-2.1001-2.7001-.8301-32.27-11-13.84-4.76-17.25-6.04-21.6901-9.4602-7.63-5.8599-7.34-9.5498-16.33-17.5398-1.6899-1.5-3.98-3.52-6.91-5.6001-3.1599-2.26-7.0699-4.6101-11.7899-6.52-3.1617-1.2778-11.2794-4.5654-21.0564-4.5649h0Z"/>
      </g>
      <circle class="cls-5" cx="274.878" cy="86.5911" r="12.861"/>
      <circle class="cls-5" cx="520.1716" cy="279.6515" r="18.1988"/>
      <circle class="cls-5" cx="379.9292" cy="500.1702" r="13.6785"/>
      <circle class="cls-5" cx="149.6276" cy="513.9158" r="6.4305"/>
      <circle class="cls-5" cx="52.4537" cy="378.9597" r="6.4305"/>
      <circle class="cls-5" cx="211.0119" cy="76.9749" r="6.4305"/>
      <circle class="cls-5" cx="351.3952" cy="351.429" r="6.4305"/>
      <circle class="cls-5" cx="303.1478" cy="393.6092" r="14.6473"/>
      <circle class="cls-5" cx="331.7645" cy="57.6338" r="9.0784"/>
      <circle class="cls-5" cx="393.6077" cy="86.5911" r="9.0784"/>
      <circle class="cls-5" cx="494.1666" cy="395.7182" r="11.1378"/>
      <circle class="cls-5" cx="505.3061" cy="339.6894" r="11.1378"/>
      <circle class="cls-5" cx="52.4537" cy="254.1834" r="11.1378"/>
      <circle class="cls-5" cx="89.489" cy="465.6327" r="8.5811"/>
      <circle class="cls-5" cx="89.489" cy="154.5725" r="7.3643"/>
      <circle class="cls-5" cx="494.1666" cy="213.3515" r="11.1378"/>
      <circle class="cls-5" cx="46.0125" cy="308.701" r="11.1378"/>
      <circle class="cls-5" cx="293.0795" cy="481.6512" r="5.5689"/>
      <circle class="cls-5" cx="452.9019" cy="137.907" r="5.5689"/>
      <circle class="cls-5" cx="413.8269" cy="345.2519" r="11.1378"/>
      <circle class="cls-5" cx="210.1919" cy="514.2098" r="23.2871"/>
      <circle class="cls-5" cx="138.9017" cy="116.0306" r="19.7801"/>
      <circle class="cls-5" cx="404.2325" cy="436.5862" r="19.7801"/>
      <circle class="cls-5" cx="234.3337" cy="259.5721" r="16.8869"/>
    </g>
  </g>
</svg>