<?xml version="1.0" encoding="UTF-8"?>
<svg id="Capa_2" xmlns="http://www.w3.org/2000/svg" viewBox="0 0 584.0921 588.2082">
  <defs>
    <style>
      .cls-1 {
        fill: #44911c;
      }

      .cls-2 {
        fill: #639648;
      }

      .cls-3 {
        fill: #367710;
      }

      .cls-4 {
        fill: #94c67d;
      }

      .cls-5 {
        fill: #70a856;
      }
    </style>
  </defs>
  <g id="Capa_1-2" data-name="Capa_1">
    <g>
      <g>
        <path class="cls-4" d="M572.9898,213.0904c-2.62,5.88-8.48,7.1899-15.26,10.96-2.79,1.55-11.71,6.5-16.82,14.47-7.02,10.9301-4.77,24.2001-3.92,29.22,1.58,9.3201,4.12,8.9601,7.31,21.3901,3.05,11.8899,3.12,21.52,3.13,26.6099.01,8.6401.02,15.6901-2.61,24.52-1.36,4.5701-2.79,7.48-4.7,15.1301-2.43,9.7799-2.03,12.74-1.56,14.6099.7,2.8201,2.91,5.75,7.3,11.4801,5.52,7.2,7.12,8.15,9.92,12.5199,4.01,6.28,6.34,9.26,5.73,12.52-.9,4.8801-6.41,7.6401-8.86,8.8701-5.63,2.8199-8.62,1.5699-14.61,3.1299-5.59,1.4601-8.95,4.1101-15.66,9.4-7.3,5.75-13.99,11.03-18.2599,19.8199-5.32,10.9801-.47,14.3-5.7401,23.4801-5.28,9.22-14.56,13.5299-21.39,16.7-9.43,4.37-10.97,2.4-24.52,7.8199-11.12,4.4501-16.79,6.8201-19.3,12.52-.67,1.53-.56,2.02-1.05,16.7001-.39,12.0599-.28,6.09-.52,13.5599-.46,14.6901-.2,15.9-1.56,17.22-4.21,4.0801-14.53.0901-25.57-4.1699-10.34-4-12.29-6.48-21.91-8.87-5.67-1.41-10.02-2.4401-15.65-1.5699-3.91.6099-5.27,1.6399-15.66,5.74-4.3,1.7-8.35,3.2999-12.52,4.7-8.37,2.8101-14.78,4.97-22.43,5.22-8.22.26-7.78-1.99-20.35-3.1299-9.53-.8701-15.15-1.3801-21.91,1.0399-8.49,3.0399-14.44,9.14-16.18,10.9601-5.29,5.5299-5.09,8.1399-9.39,10.4299-4.85,2.58-12.6,3.24-17.22-.52-3.64-2.97-2.56-6.4299-5.7401-24.52-2.08-11.9199-3.43-15.4299-5.73-18.79-.83-1.1899-3.66-5.1199-10.44-9.3899-7.5-4.72-13.3-5.75-27.13-8.8701-20.26-4.5599-13.85-3.7-32.61-7.8199-15.96-3.51-17.3-3.4-21.13-5.48-5.1-2.76-9.04-6.38-12.1-9.99-.08-.09-.16-.1901-.23-.28-3.41-4.0699-5.69-8.08-7.23-10.86-1.08-1.9399-1.94-3.71-2.64-5.36-.22-.52-.43-1.02-.62-1.51-3.68-9.38-2.68-14.92-10.05-24.4401-5.2-6.72-10.5-10.1699-11.74-10.95-6.42-4.0701-12.08-5.22-21.13-7.05-6.88-1.3899-13.65-2.76-22.69-2.34-6.68.3-8.09,1.28-10.96,0-6.7-3-10.61-13.5399-8.61-21.92,1.46-6.0898,5.85-10.22,13.31-17.21,4.18-3.9299,6.76-5.48,10.17-10.1799,3.47-4.79,5.09-9.0901,5.48-10.17,1.84-5.1,2.16-9.59,1.56-21.92-.38-7.8799-.63-12.97-1.56-21.1299-1.03-9-2.27-15.78-4.7-28.9501-2.22-12.0299-3.35-18.09-4.69-20.35-5.61-9.45-12.11-7.87-21.13-18.78-4.01-4.85-10.34-12.5-8.61-20.35,1.63-7.4,9.65-11.4401,18-15.65,13.6-6.86,17.89-3.7,25.82-10.1799,9.34-7.6201,11.43-18.54,11.74-20.3401.21-1.1599.34-2.29.42-3.3799.78-10.5901,6.17-20.3501,14.77-26.5801,5.03-3.64,9.35-7.21,12.99-10.48,11.43-10.25,18.44-16.55,23.47-27.65,7.26-16.01,7.31-35.22,7.31-36-.05-9-1.48-13.22,1.56-19.3099,5.22-10.41,17.14-13.42,17.7401-13.5601,4.92-1.1699,8.52-.48,14.61.52,16.87,2.76,25.3,4.1499,30.26,4.1699,10.14.0601,19.98-5,39.66-15.1299,14.51-7.4601,17.71-10.91,26.6-11.4701,8.19-.5199,8.99,2.17,22.44,3.13,4.97.3501,12.25-.11,26.61-1.05,13.34-.8699,20.05-1.3199,21.91-2.08,4.46-1.84,11.15-6.97,24.52-17.22,3.75-2.87,6.01-4.67,9.39-4.7001,6.36-.0499,11.23,6.2201,14.09,9.92,3.65,4.7001,3.77,6.79,9.39,18.78,4.28,9.12,6.41,13.6801,8.87,16.6901,5.7,6.99,12.48,10.5599,17.22,13.0499,3.04,1.6,3.04,1.3099,16.6899,6.78,9.22,3.6901,13.8701,5.5699,15.66,6.7799,8.37,5.7201,12.56,13.7101,14.08,16.7001,2.54,4.97,1.69,5.5,6.2599,16.17,2.57,5.99,3.89,9.04,5.7401,11.48.65.85,1.29,1.61,3.24,3.25,1.45,1.24,3.63,2.98,7.09,5.63.83.64,1.7401,1.33,2.72,2.08,1.98,1.51,3.55,2.6899,4.81,3.65.28.22.55.42.8.62,2.99,2.3101,4.09,3.3201,5.34,5.12,2.78,3.98,2.43,6.27,4.18,10.9601,3.18,8.5399,8.95,13.7,14.48,18.6499,3.5,3.13,9.87,8.73,19.56,12.13,3.81,1.33,2.65.41,17.61,3.91,5.77,1.35,11.06,2.6899,17.22,5.87,6.26,3.24,7.97,5.5699,8.61,7.83.89,3.16-.35,6.0601-.79,7.04Z"/>
        <path class="cls-2" d="M360.1953,10c6.3237-.0007,11.1655,6.2349,14.0146,9.9203,3.6499,4.7001,3.77,6.79,9.3896,18.78,4.2803,9.12,6.4102,13.6801,8.8701,16.6901,5.7002,6.99,12.48,10.5599,17.2202,13.0499,3.04,1.6,3.04,1.3099,16.6899,6.78,9.2197,3.6901,13.8701,5.5699,15.6597,6.7799,8.3701,5.7201,12.5601,13.7101,14.0801,16.7001,2.54,4.97,1.6899,5.5,6.2603,16.17,2.5698,5.99,3.8896,9.04,5.7397,11.48.6499.85,1.29,1.61,3.2402,3.25,1.4497,1.24,3.6299,2.98,7.0898,5.63.8301.64,1.7402,1.33,2.7202,2.08,1.98,1.51,3.5498,2.6899,4.8101,3.65.2798.22.5498.42.7998.62,2.9897,2.3101,4.0898,3.3201,5.3398,5.12,2.7803,3.98,2.4302,6.27,4.1802,10.9601,3.1802,8.5399,8.9502,13.7,14.48,18.6499,3.5,3.13,9.8701,8.73,19.5601,12.13,3.8101,1.33,2.6499.41,17.6099,3.91,5.77,1.35,11.0601,2.6899,17.2202,5.87,6.2598,3.24,7.9697,5.5699,8.6099,7.83.8901,3.16-.3501,6.0601-.79,7.04-2.6201,5.88-8.48,7.1899-15.2598,10.96-2.79,1.55-11.7104,6.5-16.8203,14.47-7.02,10.9301-4.77,24.2001-3.9199,29.22,1.5801,9.3201,4.1201,8.9601,7.3101,21.3902,3.0498,11.8898,3.1201,21.52,3.1299,26.6098.0103,8.6402.02,15.6901-2.6099,24.52-1.3599,4.5701-2.79,7.48-4.7002,15.1302-2.4297,9.7799-2.0298,12.74-1.5601,14.6098.7002,2.8201,2.9102,5.75,7.3003,11.4801,5.52,7.2,7.1201,8.1501,9.9199,12.5199,4.0098,6.2801,6.3398,9.2599,5.73,12.52-.8999,4.8802-6.4102,7.6402-8.8599,8.8702-5.6304,2.8199-8.6201,1.5699-14.6104,3.1298-5.5898,1.4601-8.9497,4.1102-15.6597,9.4001-7.3003,5.75-13.9902,11.03-18.2603,19.8199-5.3198,10.9801-.4697,14.3001-5.7397,23.4801-5.2803,9.22-14.5601,13.5299-21.3901,16.7-9.4302,4.37-10.9702,2.4-24.52,7.8199-11.1201,4.4501-16.79,6.8201-19.2998,12.52-.6699,1.5302-.5601,2.0201-1.0503,16.7001-.3896,12.0599-.2798,6.09-.52,13.5599-.46,14.6901-.1997,15.9001-1.5601,17.22-1.2407,1.2026-3.0137,1.7042-5.1777,1.7042-5.1792,0-12.606-2.8698-20.3921-5.8741-10.3398-4-12.29-6.48-21.9102-8.87-4.2241-1.0504-7.7163-1.89-11.5498-1.8901-1.3125,0-2.6646.0983-4.1001.3203-3.9097.6098-5.27,1.6398-15.6597,5.7399-4.3003,1.7-8.3501,3.3-12.52,4.7-8.3701,2.8101-14.7803,4.97-22.4302,5.22-.4424.014-.8613.0207-1.2568.0207-6.9551,0-7.2002-2.0721-19.0933-3.1506-4.3682-.3988-7.915-.722-11.127-.722-3.7949,0-7.1216.4512-10.7832,1.7619-8.4897,3.0399-14.4397,9.14-16.1797,10.9601-5.29,5.5299-5.0901,8.1399-9.3901,10.4299-2.4517,1.3041-5.6445,2.1178-8.7993,2.1178-3.0862,0-6.136-.7784-8.4207-2.6378-3.6399-2.97-2.5601-6.4299-5.74-24.52-2.0801-11.9199-3.4299-15.43-5.73-18.7901-.8301-1.1899-3.6599-5.1198-10.4399-9.3899-7.5-4.7199-13.3-5.75-27.1301-8.8701-20.26-4.5599-13.8499-3.7-32.6099-7.8199-15.9602-3.5099-17.3-3.4-21.1301-5.48-5.0999-2.76-9.04-6.38-12.0999-9.99-.0801-.09-.1602-.1901-.2302-.28-3.4099-4.07-5.6899-8.08-7.23-10.86-1.0798-1.9399-1.9399-3.71-2.6399-5.36-.22-.52-.4299-1.02-.6201-1.51-3.6799-9.38-2.6799-14.92-10.0498-24.4401-5.2002-6.7198-10.5-10.1699-11.74-10.9499-6.4202-4.0701-12.0801-5.22-21.1301-7.0501-6.019-1.2159-11.9553-2.4168-19.3999-2.4169-1.0647,0-2.1589.0245-3.29.0771-4.1794.1877-6.2959.6416-7.9978.6416-1.0181,0-1.8879-.1625-2.9622-.6416-6.7002-3-10.6101-13.5399-8.6101-21.9201,1.46-6.0898,5.8501-10.2199,13.3101-17.2099,4.1799-3.9301,6.76-5.48,10.1699-10.1801,3.47-4.79,5.0901-9.0901,5.48-10.17,1.8401-5.1,2.1602-9.59,1.5601-21.9201-.3799-7.8798-.6299-12.9699-1.5601-21.1298-1.03-9-2.27-15.7802-4.7-28.9501-2.22-12.0299-3.3501-18.09-4.6899-20.35-5.6101-9.4499-12.1101-7.87-21.1301-18.7801-4.01-4.85-10.3398-12.5-8.6099-20.35,1.6299-7.4,9.6499-11.4401,18-15.65,13.5999-6.86,17.8899-3.7,25.8201-10.1799,9.3398-7.6201,11.4299-18.54,11.74-20.3401.21-1.1599.3398-2.29.4199-3.3799.78-10.5901,6.1699-20.3501,14.77-26.5801,5.03-3.64,9.3499-7.21,12.99-10.48,11.4299-10.25,18.4399-16.55,23.47-27.65,7.26-16.01,7.3101-35.22,7.3101-36-.05-9-1.48-13.22,1.5598-19.3099,5.2202-10.41,17.1401-13.42,17.7402-13.5601,1.8313-.4354,3.4802-.6133,5.1421-.6133,2.8032,0,5.6443.5055,9.4678,1.1333,16.8701,2.76,25.3,4.1499,30.26,4.1699.0593.0004.1189.0005.1782.0005,10.0774,0,19.917-5.0598,39.4817-15.1304,14.51-7.4601,17.7102-10.91,26.6001-11.4701.7102-.045,1.366-.066,1.9783-.066,6.4465,0,8.1782,2.3193,20.4619,3.196,1.1255.0793,2.3701.1171,3.7881.1171,4.8433,0,11.7144-.4399,22.8218-1.1671,13.3398-.8699,20.0498-1.3199,21.9102-2.08,4.46-1.84,11.1499-6.97,24.52-17.22,3.75-2.87,6.0098-4.67,9.3896-4.7001.0249-.0001.0508-.0002.0757-.0002M360.1963,0h-.001l-.1562.0006c-6.6387.0588-10.9375,3.3513-15.0952,6.5352l-.2915.2233-.0034.0026-.0366.0282c-10.9697,8.4098-18.3667,14.0804-21.8042,15.7034-2.3555.4325-10.5288.9656-19.1592,1.5283-11.1797.7318-17.7202,1.1458-22.1709,1.1458-1.1948,0-2.2041-.0302-3.0854-.0923-5.7356-.4093-8.7039-1.153-11.3225-1.8092-2.7698-.694-5.634-1.4116-9.842-1.4116-.8325,0-1.7112.0291-2.6121.0863-8.7046.5483-13.6304,3.2949-21.0859,7.4524-2.6328,1.468-5.6167,3.1318-9.4529,5.1041-18.1411,9.3379-27.2449,14.0238-34.9092,14.0238l-.1108-.0002c-4.1287-.0167-12.6235-1.4065-28.0449-3.9297l-.668-.1093-.8181-.1348c-3.675-.6062-6.8489-1.1298-10.2644-1.1298-2.5132,0-4.9519.2892-7.4551.8844-1.6958.3959-17.1248,4.3661-24.366,18.8064-3.4263,6.8641-3.135,12.3142-2.8267,18.0844.0947,1.7734.1929,3.6069.2058,5.7223-.0027.5925-.1504,18.0358-6.4175,31.856-4.1741,9.2113-10.1643,14.583-21.0388,24.3351-3.8477,3.4563-7.9421,6.7595-12.1763,9.8235-10.998,7.967-17.8782,20.3392-18.8804,33.9469-.0623.847-.1562,1.6096-.2871,2.3329l-.0076.0421-.0073.0422c-.2542,1.4752-1.8438,9.0977-8.2068,14.2889-2.3889,1.9521-3.741,2.265-7.355,3.1013-3.8623.8937-9.1519,2.1178-16.647,5.8984-9.6675,4.8743-20.6113,10.392-23.2622,22.4275-2.7788,12.6089,5.9648,23.1837,10.6624,28.8651,5.4243,6.5609,10.3645,9.6328,13.9717,11.8759,3.0923,1.9229,4.5503,2.8295,6.1375,5.4204.7644,1.9717,2.1379,9.4148,3.5903,17.2845,2.489,13.4901,3.6304,19.811,4.5989,28.2724.9004,7.9006,1.1416,12.9027,1.5066,20.4743.5928,12.1788.1338,14.9631-.978,18.0446-.3267.905-1.5955,4.1409-4.1719,7.6973-1.7551,2.4193-3.1145,3.6048-5.3662,5.5689-1.0371.9046-2.2124,1.9298-3.5552,3.1922-8.1343,7.6218-14.0205,13.1371-16.1846,22.164-1.4443,6.0517-.9333,12.763,1.4368,18.9077,2.626,6.8083,7.1758,11.9475,12.8113,14.4707,2.3213,1.0353,4.5569,1.5146,7.0486,1.5146,1.3167,0,2.5295-.1323,3.8137-.2723,1.2515-.1365,2.6699-.2912,4.6328-.3794.9619-.0447,1.9126-.067,2.8413-.067,6.4368.0002,11.5178,1.0267,17.4014,2.2153,9.1829,1.8569,13.0894,2.7275,17.7744,5.6976,1.1709.7367,5.2039,3.4788,9.1858,8.6241,3.6584,4.726,4.4609,7.7963,5.676,12.4437.7161,2.7396,1.5276,5.8447,2.9729,9.5285.2122.5465.4595,1.1388.7197,1.7543.885,2.0862,1.9019,4.1531,3.1123,6.3275,2.1077,3.8049,4.5688,7.9421,8.2085,12.3063.1301.1628.2695.3317.4099.4937,4.3711,5.1437,9.3901,9.2683,14.9194,12.2607,4.1841,2.2724,6.6201,2.7894,14.6912,4.5023,2.3606.501,5.2983,1.1245,9.0505,1.9497,9.2856,2.0393,12.1392,2.7974,15.4436,3.6752,3.2463.8625,6.926,1.8401,17.1184,4.1341,1.1226.2532,2.197.4938,3.2234.7236,11.166,2.4999,15.3438,3.4353,20.7761,6.854,3.3489,2.109,6.0261,4.4573,7.5417,6.6149,1.1582,1.7026,2.2036,3.9327,4.1035,14.8206.9954,5.6628,1.5483,9.7595,1.9924,13.0513,1.0557,7.8228,1.7532,12.9909,7.2766,17.4977,3.9341,3.2018,9.0288,4.8898,14.7427,4.8898,4.7158,0,9.5088-1.1682,13.4961-3.2894,4.6282-2.4647,6.7163-5.4899,8.394-7.9208.9429-1.3661,1.8335-2.6565,3.5254-4.4249,4.8599-5.0836,9.3843-7.4052,12.3247-8.458,2.3345-.8356,4.4819-1.1766,7.4121-1.1766,2.7632,0,6.0527.3003,10.2178.6806,5.2759.4784,7.6401,1.118,9.9268,1.7365,2.6455.7156,5.3809,1.4555,10.0757,1.4555.4951,0,1.019-.0082,1.5732-.0257,9.1001-.2974,16.5664-2.8041,25.2119-5.7066l.0845-.0284c4.4355-1.4892,8.6025-3.1364,13.0137-4.8802,3.3452-1.3201,5.8296-2.3516,7.6436-3.1047,3.8911-1.6155,4.4697-1.8343,5.8809-2.0544.8696-.1344,1.7109-.2007,2.5586-.2007,2.5415,0,5.1475.6025,9.1372,1.5946,4.7446,1.1788,7.0425,2.2957,10.5205,3.9864,2.5205,1.2253,5.6577,2.7503,10.1948,4.5055l.0039.0016.0498.0192c8.6987,3.3565,16.915,6.5269,23.9463,6.5269,6.1743,0,10.0083-2.4599,12.1372-4.5235,3.0034-2.914,3.7124-6.2326,3.9844-8.4757.231-1.9028.2939-4.2488.4199-8.9227.0493-1.8443.1089-4.0474.1914-6.6893.1021-3.1699.1362-3.7855.1758-4.4983.0576-1.0293.1226-2.1959.3438-9.0517.082-2.4595.1479-4.5291.2031-6.2701.1055-3.3314.187-5.9171.2661-7.1682,1.3594-1.8502,6.1665-3.8452,13.6016-6.8206,6.1221-2.4488,9.3193-3.1663,12.4111-3.8602,3.4297-.7697,6.9761-1.5654,12.5981-4.1708,7.5688-3.5131,18.9995-8.8183,25.8633-20.8034,3.8706-6.7422,4.0425-11.9243,4.168-15.708.0962-2.8923.1597-4.803,1.8936-8.3816,3.2705-6.7324,8.6445-10.9653,15.4482-16.3243,6.5498-5.1634,8.5864-6.689,11.9995-7.5805,1.5879-.4135,2.8618-.5306,4.4746-.6788,3.1245-.287,7.0132-.6443,12.0864-3.1851,3.4102-1.7122,12.4155-6.2337,14.2158-15.9981,1.2612-6.7419-1.9722-11.7333-5.7163-17.513-.4443-.6861-.9185-1.4175-1.4189-2.2018-1.9136-2.9866-3.4302-4.7558-5.1865-6.8044-1.354-1.5792-2.8882-3.3692-5.2261-6.4185-2.4023-3.1357-5.1255-6.6899-5.5386-7.8381-.1543-.721.0146-3.5071,1.5674-9.7563,1.1167-4.4733,2.0435-7.1351,2.9395-9.7093.5361-1.5395,1.0903-3.1314,1.6401-4.9799,3.0459-10.2253,3.0356-18.5529,3.0254-27.3694-.0098-5.1404-.0303-15.791-3.4434-29.0971-1.8062-7.0364-3.4868-10.6245-4.8374-13.5076-1.1128-2.3753-1.7261-3.6837-2.2998-7.0695-.7339-4.3336-2.4512-14.4749,2.4746-22.1443,3.7485-5.8468,10.9023-9.8212,13.2529-11.1272,1.4375-.7992,2.9062-1.5079,4.3271-2.1935,5.2383-2.5275,11.7578-5.6731,15.2202-13.4432,2.626-5.8489,2.1475-10.7469,1.2812-13.8215-2.0308-7.1685-8.0337-11.0986-13.6387-13.9996-7.0605-3.6448-13.0259-5.2023-19.5391-6.7261-8.1157-1.8987-11.668-2.5428-13.7905-2.9277-1.6382-.2969-1.7363-.3147-2.8013-.6865-7.9785-2.7994-13.3203-7.5764-16.1899-10.1428-5.0806-4.5477-9.459-8.4672-11.7749-14.6857-.4448-1.1929-.7012-2.1709-.998-3.3036-.6846-2.6097-1.5361-5.8577-4.3555-9.8933-2.001-2.8817-3.8979-4.5801-7.3701-7.2653-.1655-.131-.3364-.2628-.5122-.3976l-.2729-.2104-.061-.0481-.0615-.047c-.54-.4111-1.1357-.8622-1.7954-1.3615-.8804-.6667-1.8774-1.4214-3.0103-2.2852l-1.084-.8275c-.5596-.427-1.0923-.833-1.5942-1.2202-3.1484-2.4115-5.3306-4.1421-6.6963-5.3101l-.0312-.027-.0317-.0267c-1.2754-1.0725-1.4873-1.3499-1.7329-1.6711-1.064-1.4032-2.21-4.0255-4.4937-9.3483-2.2061-5.1503-3.0107-7.6388-3.6577-9.6384-.6748-2.0857-1.312-4.0558-2.8882-7.1399-4.418-8.6909-10.2563-15.5629-17.3423-20.4053-2.6538-1.7948-6.5898-3.4069-17.5859-7.8077-5.585-2.2383-8.8994-3.5183-11.0923-4.3655-3.124-1.2068-3.3911-1.3141-4.6562-1.9799-4.3281-2.2737-9.7061-5.0988-14.1274-10.5205-1.6592-2.0302-3.8364-6.6683-7.4424-14.3525l-.125-.2665c-1.7993-3.8391-3.0112-6.6178-3.9849-8.8506-2.0884-4.7893-3.3491-7.6802-6.5596-11.8141-3.4502-4.4634-10.6582-13.7869-21.9116-13.7869h0Z"/>
      </g>
      <g>
        <path class="cls-1" d="M416.9934,410.7739c-4.09,19.1899-2.08,40.4099-12.47,57.0599-9.95,15.9501-26.12,18.91-43.11,22.24-13.6,2.66-20.06,1.33-39.14,4.7001-17.29,3.0499-17.74,5.1599-28.18,6.7799-30.78,4.78-57.16-8.86-66.26-13.5699-11.66-6.03-27.3-14.12-38.61-31.8201-9.63-15.09-11.58-30.0699-13.04-41.22-1.5-11.51-.84-18.22-.19-24.5701.7-6.97,1.39-13.5199-.85-25.5199-2.32-12.41-5-25.83-15.65-36.52-8.19-8.2101-12.39-6.1-21.4-15.13-11.57-11.61-15.11-25.5701-16.69-31.8301-4.06-16.0199-1.92-29.0399,0-40.6899,1.52-9.22,2.65-16.1399,6.78-24.52,6.13-12.45,14.68-19.6399,25.04-28.1799,16.31-13.4301,16.93-9.03,30.79-20.87,17.06-14.5699,20.11-24.63,31.82-25.5601,3.9-.3099,9.04.36,16.7-2.09,5.1-1.63,8.5-3.75,10.96-5.22,0,0,9.95-5.95,26.08-13.04,14.13-6.21,27.84-4.78,38.61-3.65,22.3,2.33,37.64,11.66,49.04,18.78,14.83,9.26,24.23,15.12,30.02,25.5499.65,1.1602,1.25,2.3801,1.81,3.67,8.4,19.34.6,38.7201-2.09,45.39-2.01,5.01-10.26,24.6899-30.78,34.96-12.2,6.1101-22.94,5.98-43.82,5.73-19.16-.22-17.83-2.9099-39.14-3.6499-28.29-.98-32.95,3.6899-48-1.5601-7.99-2.79-8.3-4.6799-25.04-11.48-12.21-4.96-18.46-7.45-25.56-7.83-3.33-.17-23.23-1.2101-30.26,10.96-3.96,6.85-2.09,14.84-1.05,19.2999.44,1.8501,1.9,7.4501,8.36,16.02.78,1.05,1.65,2.1501,2.6,3.29,8.78,10.54,12.54,10.3101,19.82,18.26,10.75,11.73,14.27,25.01,15.66,30.26,4.44,16.78-1.15,19.53,3.13,36,2.05,7.91,6.25,24.0601,18.78,30.26,7.98,3.95,10.49-.52,29.74,1.04,16.21,1.3199,17.44,4.73,31.3,4.7,8.37-.02,17.4-.04,26.09-5.22,7.8-4.64,9.19-9.79,16.7-19.8201,14.5-19.3899,31.71-36.34,58.02-29.4299,12.77,3.36,23.9,11.36,33.25,20.6899,4.69,4.67,9.13,9.99,11.6801,16.01.95,2.23,1.64,4.5701,1.98,7,1.15,8.17-1.71,16.28-3.43,24.3401Z"/>
        <path class="cls-3" d="M293.3628,122.3848c5.0386,0,9.9126.5115,14.2153.9629,21.4424,2.2404,35.9595,11.307,46.5601,17.9274l.064.04c14.2788,8.916,22.8975,14.2976,27.959,23.4158.5439.9709,1.0649,2.0278,1.5488,3.1438,7.437,17.1212.4727,34.3895-2.1533,40.9004-3.3579,8.3717-11.459,23.6506-27.9814,31.9202-8.8311,4.4226-16.9268,5.2009-30.6719,5.2009-3.1826,0-6.7183-.0424-10.4731-.0873-9.2593-.1063-13.3379-.7905-18.061-1.5826-4.7114-.7903-10.0513-1.6859-20.9441-2.0642-2.75-.0953-5.4631-.1436-8.0637-.1436-7.5278-.0001-13.1443.3975-17.657.717-3.072.2175-5.7251.4054-8.1409.4054-3.6404,0-7.146-.3772-12.4197-2.2168-3.2205-1.1245-4.9644-2.0482-7.6042-3.4464-3.2791-1.7366-7.7698-4.1149-17.1638-7.9309-11.9897-4.8705-19.2266-7.8103-27.4724-8.2516-.6436-.0328-1.9824-.1012-3.7158-.1013-8.8887-.0001-24.8489,1.8141-31.8672,13.9644-5.1086,8.8363-2.7954,18.7552-1.6741,23.5632,1.3232,5.5653,4.4775,11.6815,9.3508,18.1461.8362,1.1257,1.7786,2.3186,2.8005,3.5447,5.3284,6.3964,9.1145,9.2643,12.4551,11.7947,2.5144,1.9044,4.6858,3.5492,7.5461,6.6727,9.7864,10.6784,12.9656,22.6871,14.323,27.8143,1.9963,7.5446,1.7363,11.6378,1.4353,16.3773-.3135,4.9347-.6687,10.5279,1.6873,19.5939,2.24,8.6437,6.9009,26.63,21.8347,34.0195,3.1907,1.5794,6.0908,2.2838,9.4026,2.2838,1.7319,0,3.3904-.1805,5.311-.3896,2.5603-.2787,5.4622-.5945,9.5632-.5945,2.3923,0,4.8706.1066,7.5745.3257,7.1316.5807,11.0496,1.563,14.8386,2.5131,4.5251,1.1346,8.7996,2.2063,16.7532,2.2063l.2031-.0002c8.9021-.0214,18.9919-.0455,29.0466-6.0389,6.6055-3.9297,9.4883-8.2808,13.1382-13.7895,1.4512-2.1909,3.0967-4.6743,5.2485-7.5483,11.1338-14.8884,23.8921-28.6659,41.7056-28.6665,3.2559,0,6.6772.465,10.1665,1.3815,10.271,2.7025,20.5723,9.1555,30.6221,19.1844,5.228,5.2053,8.541,9.7028,10.4312,14.1654.7881,1.8485,1.3159,3.7069,1.5708,5.5283.7422,5.2746-.6289,10.8954-2.0811,16.8464-.4341,1.7792-.8828,3.6188-1.2773,5.4675-1.4097,6.6132-2.1221,13.4023-2.811,19.968-1.3594,12.9538-2.6431,25.1891-8.9043,35.2231-8.4663,13.5711-22.4058,16.3008-38.5469,19.4615l-.7388.1447c-6.1694,1.2066-10.7729,1.5456-16.1035,1.9379-5.9512.4381-12.6963.9347-22.9302,2.7424-9.79,1.7269-14.5254,3.2079-18.3311,4.3979-3.022.9451-5.4092,1.6917-9.7314,2.3624-3.9814.6183-8.0928.9319-12.2188.9319-23.5771,0-43.1143-10.1121-50.4709-13.9199-11.5427-5.9693-25.9082-13.3983-36.3755-29.7794-8.9187-13.9754-10.7205-27.7364-12.1741-38.8391-1.4275-10.9526-.7888-17.191-.1702-23.2352l.0193-.1929c.7048-7.0148,1.4336-14.2683-.9397-26.9794-2.2805-12.2009-5.1189-27.3853-17.2517-39.5638-4.6543-4.6656-8.3708-6.5544-11.6497-8.2209-3.1096-1.5803-5.7952-2.9451-9.7483-6.907-10.4619-10.4981-13.6406-23.0916-15.1694-29.1491-3.7646-14.8551-1.7996-26.7797.1008-38.3112l.0176-.1073c1.4561-8.8317,2.5081-15.2126,6.241-22.787,5.6938-11.5642,13.9543-18.3737,23.5166-26.2562,7.822-6.4408,11.7283-8.4884,15.5059-10.4686,3.9568-2.0742,8.0486-4.2191,15.3645-10.4688,6.4946-5.5466,11.0383-10.4635,14.6892-14.4144,6.1519-6.6569,8.8462-9.374,13.8091-9.7683.7744-.0614,1.6887-.0765,2.7476-.0941,3.657-.0605,8.6658-.1434,15.2644-2.254,5.4663-1.7469,9.2615-4.0221,11.7729-5.5276l.4014-.2404c.0972-.058,9.8821-5.871,25.436-12.7078,6.3572-2.7939,13.3723-4.1522,21.4456-4.1522M293.3628,116.5594c-7.4541,0-15.5503,1.0236-23.7893,4.6444-16.1301,7.0901-26.0801,13.04-26.0801,13.04-2.46,1.47-5.8599,3.59-10.96,5.22-7.6599,2.45-12.8,1.78-16.7,2.09-11.71.9301-14.76,10.9901-31.8201,25.5601-13.8601,11.84-14.48,7.4399-30.79,20.87-10.3599,8.54-18.9099,15.73-25.04,28.1799-4.1299,8.3801-5.26,15.3-6.78,24.52-1.9199,11.65-4.0598,24.67,0,40.6899,1.5801,6.26,5.1201,20.2201,16.6902,31.8301,9.01,9.03,13.21,6.9199,21.3999,15.13,10.6499,10.6901,13.3301,24.1099,15.6499,36.52,2.2402,12,1.55,18.5499.8501,25.5199-.6499,6.3501-1.3101,13.0601.1899,24.57,1.46,11.1501,3.4102,26.1301,13.04,41.22,11.3101,17.7001,26.95,25.79,38.6101,31.8201,7.7764,4.0249,28.1707,14.5708,53.147,14.5708,4.251,0,8.6357-.3056,13.1128-1.0009,10.4399-1.62,10.8901-3.73,28.1802-6.7799,19.0801-3.3701,25.54-2.04,39.1401-4.7001,16.9897-3.33,33.1597-6.2899,43.1099-22.24,10.3901-16.65,8.3799-37.87,12.4702-57.0599,1.7197-8.0601,4.5796-16.17,3.4297-24.3401-.3398-2.4299-1.0298-4.77-1.98-7-2.5498-6.02-6.9897-11.34-11.6802-16.01-9.3496-9.33-20.48-17.33-33.25-20.6899-4.0962-1.0759-7.9707-1.5734-11.6504-1.5732-19.9512.0007-34.127,14.6323-46.3691,31.0032-7.5103,10.03-8.9004,15.1801-16.7002,19.8201-8.6899,5.1799-17.7202,5.2-26.0901,5.22-.0608.0002-.1208.0002-.1812.0002-13.689,0-14.98-3.386-31.1189-4.7002-3.0818-.2498-5.7327-.3449-8.0474-.3449-7.4397,0-11.3899.9841-14.874.9841-2.2034,0-4.2222-.394-6.8186-1.6792-12.5298-6.2-16.73-22.35-18.7798-30.26-4.28-16.47,1.3098-19.22-3.1301-36-1.3899-5.25-4.9099-18.53-15.6599-30.2601-7.28-7.9499-11.04-7.7199-19.8201-18.2599-.95-1.1399-1.8201-2.2401-2.6001-3.29-6.46-8.5699-7.9199-14.1699-8.3599-16.02-1.04-4.46-2.9102-12.45,1.05-19.2999,5.7095-9.8844,19.9077-11.0547,26.824-11.0546,1.5994,0,2.8105.0626,3.436.0946,7.0999.38,13.3499,2.87,25.5598,7.83,16.74,6.8,17.05,8.6899,25.04,11.48,5.6438,1.9688,9.8245,2.5424,14.3401,2.5424,6.314,0,13.2771-1.1226,25.7976-1.1224,2.4033.0001,5.0149.0415,7.8623.1401,21.3098.74,19.9802,3.4299,39.1399,3.6499,3.8311.0459,7.3203.0878,10.54.0878,14.3301,0,23.3184-.8286,33.2803-5.8177,20.52-10.27,28.77-29.95,30.7798-34.96,2.6899-6.6699,10.4902-26.05,2.0898-45.39-.5596-1.2899-1.1597-2.5099-1.8096-3.67-5.79-10.4299-15.1904-16.2899-30.02-25.5499-11.4004-7.12-26.7402-16.4501-49.04-18.78-4.4902-.4712-9.4912-.9944-14.8208-.9944h0Z"/>
      </g>
      <circle class="cls-5" cx="436.8149" cy="198.4243" r="12.861"/>
      <circle class="cls-5" cx="80.3161" cy="253.5226" r="18.1988"/>
      <circle class="cls-5" cx="404.0991" cy="278.7206" r="18.1988"/>
      <circle class="cls-5" cx="105.3783" cy="428.2132" r="6.4305"/>
      <circle class="cls-5" cx="263.4597" cy="350.636" r="6.4305"/>
      <circle class="cls-5" cx="422.6624" cy="121.5926" r="6.4305"/>
      <circle class="cls-5" cx="315.2003" cy="344.2048" r="6.4305"/>
      <circle class="cls-5" cx="257.0648" cy="278.7206" r="14.6473"/>
      <circle class="cls-5" cx="497.3361" cy="202.2703" r="9.0784"/>
      <circle class="cls-5" cx="518.1534" cy="244.6652" r="9.0784"/>
      <circle class="cls-5" cx="329.4308" cy="294.9141" r="11.1378"/>
      <circle class="cls-5" cx="458.5131" cy="468.7603" r="11.1378"/>
      <circle class="cls-5" cx="200.4818" cy="121.1396" r="11.1378"/>
      <circle class="cls-5" cx="118.9623" cy="359.2179" r="8.5811"/>
      <circle class="cls-5" cx="278.2785" cy="65.3709" r="7.3643"/>
      <circle class="cls-5" cx="509.0741" cy="389.592" r="11.1378"/>
      <circle class="cls-5" cx="110.2862" cy="195.2652" r="11.1378"/>
      <circle class="cls-5" cx="135.2195" cy="88.7023" r="5.5689"/>
      <circle class="cls-5" cx="523.0466" cy="326.0828" r="5.5689"/>
      <circle class="cls-5" cx="80.3161" cy="320.5133" r="11.1378"/>
      <circle class="cls-5" cx="152.9343" cy="465.7172" r="23.2871"/>
      <circle class="cls-5" cx="334.9824" cy="84.5708" r="19.7801"/>
      <circle class="cls-5" cx="353.6483" cy="523.9501" r="19.7801"/>
      <circle class="cls-5" cx="472.3402" cy="316.017" r="22.2756"/>
    </g>
  </g>
</svg>