<?xml version="1.0" encoding="UTF-8"?>
<svg id="Capa_2" xmlns="http://www.w3.org/2000/svg" viewBox="0 0 584.0919 588.208">
  <defs>
    <style>
      .cls-1 {
        fill: #70569b;
      }

      .cls-2 {
        fill: #604593;
      }

      .cls-3 {
        fill: #47327c;
      }

      .cls-4 {
        fill: #a486ce;
      }

      .cls-5 {
        fill: #8566b2;
      }
    </style>
  </defs>
  <g id="Capa_1-2" data-name="Capa_1">
    <g>
      <g>
        <path class="cls-4" d="M239.6705,583.208c-4.5518.0005-8.5547-1.2998-11.5771-3.7598-3.998-3.2622-4.4951-6.9492-5.4863-14.2954-.4268-3.1602-1.0107-7.4878-2.0215-13.2368-2.0977-12.0205-3.3145-14.4683-4.9316-16.8315-2.3896-3.4258-6.2041-6.2358-8.9785-7.9829-6.1602-3.877-10.8975-4.9375-22.3428-7.5l-3.2236-.7236c-10.0967-2.2725-13.7266-3.2373-16.9297-4.0884-3.2207-.8555-6.2627-1.6636-15.6514-3.7256-3.7744-.8301-6.7266-1.4565-9.0859-1.9575-7.918-1.6802-9.7988-2.0796-13.3584-4.0122-4.9805-2.6953-9.5244-6.4365-13.499-11.1167-.1162-.1328-.2314-.2734-.3369-.4082-3.8594-4.6211-6.3633-9.1421-7.7119-11.5762-1.1152-2.0034-2.0557-3.9136-2.8682-5.8296-.2441-.5762-.4736-1.124-.6816-1.6606-1.3271-3.3848-2.0996-6.3379-2.7803-8.9434-1.2715-4.8643-2.2764-8.7061-6.5596-14.2385-4.3633-5.6392-8.7598-8.7168-10.4482-9.7781-5.667-3.593-10.5654-4.5835-19.459-6.3818-5.9092-1.1938-11.4727-2.3179-18.4092-2.3179-1.0049,0-2.0342.0242-3.0576.0718-2.1299.0957-3.6982.2666-4.958.4041-1.1953.1304-2.2275.2429-3.2715.2429-1.79,0-3.332-.3315-5-1.0752-8.834-3.9558-14.0684-16.6155-11.4355-27.6472,1.8154-7.5747,6.9629-12.3977,14.7539-19.698,1.2686-1.1926,2.4072-2.1853,3.4111-3.061,2.3447-2.0449,4.0381-3.5225,6.1309-6.4065,2.873-3.9661,4.332-7.5696,4.8252-8.9346,1.4561-4.0347,1.8662-7.6604,1.2676-19.9763-.3701-7.6716-.6143-12.7385-1.5332-20.8069-1.0283-8.978-2.3145-15.9507-4.6494-28.6086-1.6992-9.2065-3.166-17.1577-4.0742-18.7078-2.2627-3.8118-4.5176-5.2136-7.9307-7.3359-3.499-2.1758-7.8535-4.8835-12.752-10.8076-4.4531-5.3857-11.8936-14.385-9.6387-24.6123,2.1396-9.7156,11.5352-14.4519,20.6201-19.0325,6.9678-3.5149,11.7168-4.6138,15.5322-5.4968,3.8047-.8804,6.1016-1.4119,9.3857-4.0959,7.748-6.3218,9.6699-15.5334,9.9766-17.3159.1699-.9417.2861-1.876.3613-2.8989.8936-12.1357,7.0264-23.1658,16.8232-30.2629,4.3799-3.1697,8.6123-6.5842,12.5811-10.1499,11.0088-9.8713,17.6504-15.8276,22.2578-25.9944,6.7861-14.9646,6.8643-33.1687,6.8643-33.9363-.0127-2.2253-.1191-4.2183-.2129-5.9766-.2842-5.3125-.5293-9.9006,2.2988-15.5667,6.3291-12.6204,20.4766-16.0557,21.0762-16.1958,2.1006-.4995,4.1602-.7444,6.2803-.7444,3.0059,0,5.8506.4692,9.4521,1.0635l1.4902.2446c15.6738,2.5645,24.3076,3.9771,28.8057,3.9951l.1572.0005c8.877,0,18.3398-4.8711,37.1943-14.5759,3.9131-2.012,6.9365-3.6978,9.6035-5.1851,7.1035-3.9612,11.3916-6.3521,18.9697-6.8296.793-.0503,1.5654-.0759,2.293-.0759,3.5908,0,6.0371.6128,8.627,1.2617,2.8174.7058,6.0107,1.5059,12.1914,1.947.9951.0701,2.1191.1045,3.4326.1045,4.6074,0,11.2148-.418,22.4941-1.1565,10.0039-.6523,18.6523-1.2163,20.4004-1.7424,3.8613-1.623,10.7871-6.9324,23.2959-16.5225l.3145-.24c3.8262-2.9307,7.1309-5.4617,12.0908-5.5056l.1201-.0007c8.8027,0,14.7666,7.7173,17.9707,11.8633,2.8193,3.6299,3.8555,6.0046,5.9189,10.7361.9854,2.2605,2.2119,5.0737,4.043,8.9792l.1055.2239c3.9082,8.3301,6.0615,12.9185,8.1084,15.4241,5.0703,6.2175,11.1992,9.437,15.6738,11.7876,1.5547.8181,2.1084,1.0322,5.1836,2.2202,2.1816.8428,5.4785,2.116,11.041,4.3452,10.168,4.0691,14.3838,5.7805,16.5996,7.2786,9.6475,6.5925,14.2314,15.613,15.7373,18.5774,1.3896,2.718,1.9141,4.3403,2.5791,6.394.6777,2.0969,1.5215,4.7068,3.8203,10.0728,2.5107,5.8513,3.6816,8.5203,5.1279,10.428.3945.5156.7803,1.0195,2.4736,2.4434,1.4912,1.2747,3.6777,3.01,6.9121,5.4875.5098.3928,2.7197,2.0793,2.7197,2.0793,1.0977.8372,2.0752,1.5769,2.9414,2.2327l1.8604,1.4109s.7256.5586.8916.6914c3.2246,2.4907,4.6846,3.8135,6.3232,6.1733,2.3008,3.2925,2.9668,5.8313,3.6104,8.2866.3037,1.1575.6172,2.3545,1.1484,3.7771,2.748,7.3799,7.7842,11.8882,13.1172,16.6614,3.1387,2.8071,8.9619,8.0146,17.8926,11.1489,1.4277.498,1.835.5718,3.5488.8826,2.0762.3765,5.5508,1.0063,13.5449,2.8767,6.1846,1.4468,11.835,2.9192,18.375,6.2957,6.6914,3.4629,9.9141,6.6233,11.127,10.9111.6445,2.2859.9844,5.9485-1.04,10.4517-2.7109,6.083-7.8496,8.5627-12.8203,10.9607-1.4844.7163-3.0195,1.457-4.5703,2.3191-2.6338,1.4634-10.6162,5.8982-15.041,12.7991-5.9727,9.2998-3.958,21.1997-3.2002,25.6797.6885,4.0615,1.5332,5.8647,2.7031,8.3608,1.2617,2.6938,2.833,6.0466,4.5215,12.6274,3.2549,12.6895,3.2764,22.9241,3.2871,27.8425.0098,8.8279.0186,16.4326-2.8184,25.9578-.5166,1.7368-1.0283,3.2041-1.5684,4.7578-.9336,2.6797-1.8975,5.4507-3.0723,10.1562-2.2988,9.252-1.7637,11.3779-1.5625,12.1782.4697,1.8926,2.8369,4.9827,6.4209,9.6602,2.4199,3.157,4.0703,5.0828,5.3975,6.6304,1.7012,1.9849,3.0459,3.5527,4.7627,6.2324.5117.8008.9912,1.5415,1.4414,2.2363,3.4209,5.2803,5.8916,9.0952,4.9941,13.8999-1.3486,7.3079-8.4785,10.8867-11.5225,12.415-4.2441,2.126-7.4717,2.4224-10.3193,2.6838-1.6934.1558-3.293.3027-5.2842.821-4.5732,1.1948-7.2803,3.3286-13.8193,8.4841-7.0244,5.5332-13.0859,10.3076-16.8633,18.0823-2.1934,4.5276-2.2832,7.2446-2.3877,10.3906-.1211,3.6196-.2568,7.7222-3.5137,13.394-6.0693,10.5996-16.6318,15.502-23.6211,18.7456-5.1387,2.3818-8.2734,3.0854-11.5928,3.8301-3.1309.7026-6.6797,1.499-13.1748,4.0972-10.9922,4.3994-14.9824,6.2627-16.5811,9.8931l-.0479.1133c-.1279.5571-.2217,3.5273-.3779,8.4478-.0547,1.7427-.1201,3.8149-.2031,6.2905-.2188,6.7832-.2822,7.9214-.3379,8.9258-.042.7485-.0781,1.4082-.1816,4.6274-.082,2.6431-.1416,4.8511-.1914,6.6997-.2549,9.4771-.3086,11.4492-2.8848,13.9482-2.1338,2.0684-5.0469,3.1157-8.6592,3.1157-6.1006,0-13.8955-3.0078-22.1475-6.1924-4.3916-1.6987-7.2988-3.1118-9.8623-4.3584-3.627-1.7627-6.2461-3.0361-11.498-4.3408-4.3604-1.0845-7.2324-1.7427-10.3447-1.7427-1.1064,0-2.1973.0859-3.3359.2617-2.0029.3125-3.0215.7158-7.0156,2.374-1.8975.7876-4.2598,1.7686-7.5732,3.0757-4.3467,1.7188-8.4561,3.3428-12.7627,4.7886-8.7002,2.9209-15.502,5.2046-23.8584,5.478-.5029.0156-.9736.0229-1.4189.0229-4.0303.0005-6.333-.6226-8.7705-1.2817-2.377-.6431-5.0723-1.3721-10.7754-1.8892-4.2959-.3921-7.6865-.7017-10.6768-.7017-3.499,0-6.2197.4395-9.0977,1.4692-3.4463,1.2344-8.7178,3.9209-14.25,9.708-1.9688,2.0576-3.0635,3.6436-4.0283,5.0425-1.5117,2.1899-3.0752,4.4541-6.625,6.3452-3.2324,1.7192-7.2959,2.7046-11.1504,2.7046Z"/>
        <path class="cls-1" d="M360.1952,10c6.3236-.0005,11.1659,6.2349,14.0146,9.9204,3.65,4.7,3.77,6.79,9.39,18.78,4.2799,9.1199,6.4099,13.6799,8.87,16.6899,5.7,6.99,12.48,10.5601,17.22,13.05,3.04,1.5999,3.04,1.3098,16.6899,6.78,9.2201,3.6899,13.8701,5.5698,15.66,6.7798,8.37,5.7202,12.5601,13.7102,14.0801,16.7002,2.5399,4.97,1.6899,5.5,6.2599,16.1699,2.5701,5.99,3.89,9.04,5.7401,11.48.6499.8501,1.2899,1.6101,3.24,3.25,1.45,1.24,3.63,2.98,7.09,5.6301.83.6399,1.74,1.3298,2.72,2.0798,1.98,1.51,3.55,2.6899,4.8101,3.6501.2799.22.5499.4199.7999.6199,2.99,2.3101,4.0901,3.3201,5.3401,5.1201,2.7799,3.98,2.4299,6.27,4.1799,10.96,3.1801,8.54,8.9501,13.7,14.48,18.6499,3.5,3.1301,9.87,8.73,19.5601,12.1301,3.8099,1.3298,2.65.4099,17.61,3.9099,5.77,1.3501,11.0599,2.6899,17.22,5.8701,6.26,3.24,7.97,5.5698,8.61,7.8298.89,3.1602-.35,6.0601-.7899,7.04-2.62,5.8801-8.4801,7.1899-15.26,10.96-2.79,1.55-11.7101,6.5-16.8201,14.47-7.02,10.9302-4.77,24.2002-3.9199,29.22,1.58,9.3201,4.12,8.9602,7.3099,21.3901,3.05,11.8899,3.12,21.52,3.13,26.6099.01,8.6401.02,15.6902-2.61,24.52-1.36,4.5701-2.79,7.48-4.7,15.1301-2.4301,9.78-2.03,12.74-1.5601,14.6099.7,2.8201,2.91,5.75,7.3,11.4802,5.5199,7.2,7.12,8.1499,9.9199,12.5198,4.01,6.28,6.3401,9.26,5.73,12.52-.8999,4.8801-6.4099,7.6401-8.86,8.8701-5.63,2.8201-8.62,1.5701-14.61,3.1299-5.59,1.4602-8.95,4.1101-15.66,9.4001-7.2999,5.75-13.99,11.03-18.2599,19.8198-5.3201,10.9802-.4701,14.3-5.7401,23.4802-5.2799,9.22-14.5599,13.5298-21.3899,16.7-9.4301,4.3699-10.9701,2.3999-24.52,7.8198-11.12,4.4502-16.79,6.8201-19.3,12.52-.6699,1.53-.5599,2.02-1.0499,16.7002-.39,12.0598-.28,6.0898-.52,13.5598-.4601,14.6902-.2001,15.9001-1.5601,17.22-1.2408,1.2026-3.0134,1.7041-5.1779,1.7041-5.1791,0-12.6061-2.8696-20.3921-5.874-10.3401-4-12.29-6.48-21.91-8.8699-4.2241-1.0505-7.7163-1.8901-11.5503-1.8901-1.3123-.0002-2.6641.0981-4.0997.3201-3.9099.6099-5.27,1.6399-15.6599,5.74-4.3,1.7-8.3501,3.3-12.52,4.7-8.37,2.8101-14.78,4.97-22.4301,5.22-.4425.0139-.8611.0208-1.2568.0208-6.9546,0-7.1998-2.072-19.0931-3.1506-4.3677-.3987-7.9154-.7219-11.1266-.7219-3.7955-.0002-7.1217.4509-10.7834,1.762-8.49,3.0398-14.4399,9.1399-16.1799,10.96-5.29,5.53-5.0901,8.1399-9.39,10.4299-2.4517,1.3042-5.6444,2.1177-8.7992,2.1177-3.0863,0-6.1361-.7783-8.4208-2.6377-3.64-2.97-2.5601-6.4299-5.7401-24.52-2.08-11.9199-3.4299-15.4299-5.73-18.79-.83-1.1899-3.6599-5.1199-10.4399-9.3899-7.5-4.72-13.3-5.75-27.13-8.8701-20.26-4.5598-13.85-3.7-32.61-7.8198-15.9601-3.51-17.3-3.4001-21.13-5.48-5.1-2.76-9.04-6.3801-12.1-9.99-.0801-.0901-.16-.1902-.2301-.28-3.4099-4.0701-5.6899-8.0801-7.23-10.8601-1.08-1.9399-1.9399-3.71-2.64-5.3599-.22-.52-.4299-1.02-.62-1.51-3.6799-9.3801-2.6799-14.9202-10.0499-24.4402-5.2001-6.72-10.5-10.1699-11.74-10.95-6.42-4.0701-12.0801-5.22-21.13-7.05-6.0192-1.2161-11.9554-2.4167-19.4-2.417-1.0647,0-2.1589.0247-3.29.0771-4.1791.1877-6.2959.6416-7.9977.6416-1.0183,0-1.8877-.1624-2.9623-.6416-6.7001-3-10.61-13.54-8.61-21.9202,1.46-6.0898,5.85-10.22,13.3099-17.21,4.1801-3.9299,6.76-5.48,10.17-10.1799,3.47-4.79,5.09-9.0901,5.48-10.1699,1.84-5.1001,2.16-9.5901,1.5601-21.9202-.38-7.8799-.63-12.97-1.5601-21.1299-1.03-9-2.27-15.78-4.7-28.95-2.2201-12.03-3.3501-18.0901-4.6901-20.3501-5.61-9.45-12.11-7.8699-21.13-18.78-4.01-4.8499-10.34-12.5-8.61-20.3499,1.63-7.4001,9.65-11.4402,18-15.6501,13.6-6.8599,17.89-3.7,25.8201-10.1799,9.34-7.6201,11.4299-18.54,11.74-20.3401.21-1.1599.34-2.29.4199-3.3799.78-10.5901,6.17-20.3501,14.77-26.5801,5.03-3.6399,9.35-7.21,12.99-10.48,11.4301-10.25,18.4401-16.55,23.47-27.6499,7.26-16.01,7.3101-35.22,7.3101-36-.05-9-1.48-13.22,1.5599-19.3101,5.2201-10.4099,17.14-13.4199,17.7401-13.5601,1.8312-.4355,3.4801-.6133,5.142-.6133,2.8033,0,5.6447.5056,9.468,1.1333,16.87,2.76,25.2999,4.1499,30.26,4.1699.0594.0005.1188.0005.1782.0005,10.0774,0,19.9171-5.0598,39.4817-15.1304,14.51-7.46,17.7101-10.9099,26.6001-11.47.7108-.0452,1.366-.0662,1.9786-.0662,6.4454,0,8.1787,2.3193,20.4613,3.196,1.1256.0793,2.3706.1169,3.7887.1169,4.843,0,11.7139-.4397,22.8213-1.167,13.34-.8699,20.05-1.3198,21.91-2.0798,4.46-1.8401,11.15-6.97,24.52-17.22,3.75-2.8701,6.01-4.6702,9.39-4.7002.0249-.0002.0505-.0002.0753-.0002M360.1961,0l-.1567.0005c-6.6393.0591-10.939,3.3521-15.097,6.5366l-.2903.2224c-11.0033,8.4355-18.4049,14.1101-21.8438,15.7336-2.3551.4326-10.5288.9656-19.1592,1.5283-11.1782.7317-17.718,1.1458-22.1705,1.1458-1.1952,0-2.2046-.0303-3.0861-.0923-5.7352-.4092-8.7036-1.1531-11.3225-1.8091-2.7699-.6941-5.634-1.4116-9.8414-1.4116-.8319,0-1.7107.0291-2.6118.0862-8.7052.5483-13.6309,3.2952-21.0867,7.4524-2.6327,1.468-5.6167,3.1321-9.4526,5.1042-18.1414,9.3376-27.245,14.0237-34.9093,14.0237l-.111-.0002c-4.1288-.0168-12.6234-1.4065-28.0443-3.9297l-.6683-.1091-.8184-.135c-3.6748-.6062-6.8486-1.1296-10.2643-1.1296-2.5134,0-4.952.2893-7.4553.8845-1.6971.3965-17.1261,4.3689-24.3658,18.8064-3.4264,6.8643-3.135,12.3145-2.8267,18.085.0948,1.7732.1929,3.6067.2058,5.7219-.0027.5945-.1508,18.0364-6.4175,31.8557-4.174,9.2112-10.1643,14.583-21.0388,24.335-3.8475,3.4563-7.9419,6.7595-12.1761,9.8232-10.9982,7.9675-17.8783,20.3396-18.8806,33.947-.0621.8469-.1559,1.6089-.2869,2.333l-.0076.042-.0072.0417c-.2543,1.4756-1.8445,9.0986-8.2069,14.2896-2.389,1.9521-3.7413,2.2651-7.3555,3.1016-3.8621.8936-9.1515,2.1177-16.6465,5.8982-9.668,4.8745-20.6115,10.3921-23.2625,22.4275-2.7787,12.6091,5.9652,23.1841,10.6627,28.8652,5.4241,6.561,10.3643,9.6328,13.9714,11.8757,3.0924,1.9229,4.5502,2.8293,6.1376,5.4204.7643,1.9707,2.1379,9.4143,3.5905,17.2844,2.4891,13.4917,3.6306,19.8132,4.5986,28.2722.9004,7.8999,1.1416,12.9023,1.5068,20.4746.5927,12.1785.1337,14.9629-.9781,18.0447-.3268.9045-1.5962,4.1416-4.172,7.6973-1.7551,2.4192-3.1146,3.605-5.3668,5.5693-1.0369.9043-2.212,1.9292-3.5544,3.1914-8.1345,7.6221-14.0206,13.1375-16.1847,22.1646-1.4442,6.0513-.9331,12.7627,1.4369,18.9072,2.626,6.8083,7.1758,11.9475,12.811,14.4709,2.3209,1.0352,4.5566,1.5146,7.0488,1.5146,1.3167,0,2.5298-.1323,3.8141-.2722,1.2513-.1367,2.6698-.2913,4.6323-.3794.9618-.0449,1.9126-.0671,2.8413-.0671,6.4368.0002,11.5178,1.0266,17.4014,2.2153,9.183,1.8569,13.0896,2.7275,17.7744,5.6975,1.1708.7366,5.2047,3.4795,9.1855,8.624,3.6589,4.7263,4.4615,7.7966,5.6763,12.4438.7162,2.7397,1.528,5.8447,2.973,9.5286.2117.5457.4589,1.1379.7194,1.7537.8861,2.0884,1.9028,4.155,3.1125,6.3279,2.1077,3.8047,4.5686,7.9412,8.2072,12.3047.1304.1633.2701.3328.411.4954,4.3715,5.1438,9.3909,9.2688,14.9198,12.261,4.1842,2.2722,6.62,2.7891,14.6913,4.5022,2.3605.501,5.2982,1.1245,9.0504,1.9497,9.2859,2.0393,12.1394,2.7974,15.4437,3.675,3.2466.8625,6.9263,1.8403,17.1183,4.1343,1.123.2532,2.1979.4939,3.2247.7239,11.165,2.4998,15.3427,3.4351,20.7748,6.8538,3.348,2.1084,6.0243,4.4553,7.5389,6.6108,1.1593,1.7031,2.2047,3.928,4.1062,14.8245.9954,5.6626,1.5482,9.7593,1.9924,13.0513,1.0558,7.823,1.7533,12.9912,7.277,17.4978,3.9337,3.2017,9.0283,4.8896,14.7424,4.8896,4.7158,0,9.5088-1.168,13.496-3.2891,4.6283-2.4651,6.7163-5.4902,8.394-7.9209.9429-1.3662,1.8336-2.6565,3.5254-4.425,4.8601-5.0835,9.3846-7.405,12.3247-8.4578,2.335-.8359,4.4824-1.177,7.4122-1.1768,2.7648,0,6.0537.3003,10.2177.6804,5.276.4785,7.6406,1.1182,9.9274,1.7366,2.6453.7156,5.3806,1.4556,10.0751,1.4556.4954,0,1.0192-.0083,1.573-.0256,9.1006-.2976,16.567-2.8042,25.2123-5.7068l.0845-.0283c4.4359-1.4893,8.6023-3.1365,13.0135-4.8801,3.3458-1.3206,5.8304-2.3521,7.6447-3.1052,3.8904-1.6152,4.469-1.834,5.88-2.054.8694-.1345,1.7108-.2007,2.5586-.2007,2.542,0,5.1476.6023,9.1366,1.5945,4.7454,1.179,7.043,2.2959,10.5208,3.9863,2.5208,1.2256,5.6577,2.7505,10.1951,4.5056l.004.0015.0496.0193c8.6987,3.3567,16.915,6.5271,23.9464,6.5271,6.1741,0,10.0081-2.4597,12.1372-4.5232,3.0039-2.9155,3.7124-6.2339,3.9844-8.4768.2308-1.9031.2939-4.2498.4198-8.9248.0497-1.8438.109-4.0459.1917-6.6865.1019-3.1726.1362-3.7881.1758-4.5005.0574-1.03.1223-2.1978.3439-9.0491.0823-2.4629.1478-4.5347.203-6.2771.1052-3.3279.187-5.9111.2656-7.1616,1.3599-1.8501,6.1667-3.845,13.6021-6.8206,6.1221-2.4487,9.3193-3.1663,12.4114-3.8604,3.4294-.7695,6.9757-1.5652,12.5977-4.1704,7.5695-3.5134,18.9999-8.8188,25.8633-20.8037,3.8702-6.7419,4.0425-11.9238,4.1681-15.7075.0961-2.8923.1594-4.803,1.8934-8.3818,3.2704-6.7322,8.6445-10.9651,15.4485-16.3245,6.5487-5.1628,8.5857-6.6887,11.9995-7.5806,1.5876-.4133,2.8615-.5303,4.4742-.6785,3.1248-.2871,7.0137-.6443,12.087-3.1858,3.4086-1.7109,12.4148-6.2324,14.2156-15.9976,1.2617-6.7419-1.9724-11.7341-5.7174-17.5146-.4442-.6855-.918-1.4167-1.4185-2.2007-1.9133-2.9861-3.4299-4.7551-5.186-6.8037-1.3539-1.5791-2.8883-3.3691-5.2261-6.4185-2.4025-3.1357-5.1254-6.6902-5.5385-7.8381-.1547-.7217.0145-3.5076,1.5673-9.7563,1.1171-4.4744,2.0437-7.1365,2.9399-9.7107.5358-1.5391,1.0898-3.1306,1.6396-4.9785,3.0453-10.2239,3.0355-18.5498,3.0254-27.3647-.0101-5.1465-.031-15.7991-3.4436-29.1023-1.8058-7.0359-3.4866-10.624-4.8373-13.5071-1.1128-2.3752-1.7257-3.6838-2.2998-7.0696-.7338-4.3335-2.4513-14.4749,2.4747-22.1445,3.7488-5.8469,10.9023-9.8213,13.2532-11.1272,1.4368-.7991,2.9059-1.5078,4.3265-2.1934,5.2386-2.5273,11.7583-5.6731,15.2206-13.4434,2.6255-5.8491,2.147-10.7468,1.2812-13.8208-2.03-7.1682-8.0336-11.0989-13.6392-14-7.0587-3.6443-13.0242-5.2021-19.5381-6.7263-8.1166-1.8989-11.6692-2.543-13.7917-2.9277-1.6376-.2969-1.7357-.3147-2.8009-.6865-7.9785-2.7996-13.3199-7.5764-16.1896-10.1428-5.0808-4.5479-9.4592-8.467-11.7748-14.6853-.4453-1.1934-.7018-2.1716-.9987-3.3042-.6843-2.6096-1.5358-5.8572-4.3544-9.8926-2.0013-2.8818-3.8982-4.5803-7.3699-7.2649-.1674-.1328-.3407-.2661-.5189-.4026l-.2716-.2097-.058-.0454-.0587-.0447c-.5505-.4197-1.1595-.8809-1.8351-1.3921-.8713-.6597-1.856-1.4048-2.972-2.2561l-1.0771-.8223c-.5623-.429-1.0967-.8364-1.6007-1.2251-3.1488-2.4119-5.3308-4.1426-6.6967-5.3105l-.0316-.0271-.0317-.0269c-1.2743-1.0715-1.4863-1.3489-1.7317-1.6699-1.0647-1.4041-2.2108-4.0264-4.4948-9.3494-2.2056-5.1499-3.0105-7.6384-3.6573-9.6379-.6746-2.0857-1.3118-4.0557-2.8878-7.1396-4.4181-8.6912-10.2562-15.563-17.3423-20.4058l-.0209-.0142-.021-.0144c-2.6144-1.7673-6.5499-3.3789-17.545-7.7793-5.5854-2.2383-8.8998-3.5186-11.0929-4.3657-3.1234-1.2065-3.3905-1.314-4.6554-1.9795-4.328-2.2737-9.7061-5.0986-14.1271-10.5203-1.6602-2.0315-3.8381-6.6724-7.4465-14.3613l-.1207-.2573c-1.8002-3.8406-3.012-6.6196-3.9858-8.8525-2.0883-4.7888-3.3486-7.6792-6.5588-11.8127-3.4498-4.4631-10.6571-13.7869-21.9119-13.7869h0Z"/>
      </g>
      <g>
        <path class="cls-2" d="M280.98,499.6421c-24.2871,0-44.2803-10.3491-51.8076-14.2451-11.2285-5.8066-26.6045-13.7588-37.4951-30.8018-9.2656-14.52-11.1924-29.2356-12.5996-39.9807-1.4775-11.3374-.8213-17.7461-.1865-23.9438l.0195-.1931c.7158-7.1252,1.3926-13.8555-.9043-26.1582-2.207-11.8071-4.9531-26.501-16.4492-38.0413-4.3271-4.3379-7.6729-6.0381-10.9092-7.6824-3.1924-1.6228-6.209-3.1558-10.4932-7.4492-11.0244-11.0625-14.46-24.6733-15.9268-30.4856-3.915-15.4456-1.8086-28.2268.0498-39.5034l.0176-.1052c1.4961-9.0798,2.5771-15.6401,6.5-23.6008,5.9707-12.1257,14.4561-19.1206,24.2803-27.22,8.0537-6.6311,12.0947-8.7498,16.0039-10.7988,3.9902-2.0913,7.7588-4.0669,14.8252-10.1042,6.3643-5.4348,10.8438-10.2817,14.4424-14.1765,6.0752-6.5735,9.4209-10.1946,15.7168-10.6946.8652-.0688,1.8223-.0845,2.9297-.1028,3.4766-.0576,8.2363-.1362,14.4277-2.1165,5.1445-1.6445,8.623-3.7297,11.1631-5.2522l.4033-.2417c.0986-.0588,10.0088-5.9509,25.7578-12.8738,6.7344-2.9595,14.1318-4.3982,22.6172-4.3982,5.1914,0,10.1455.5198,14.5166.9783,22.1152,2.3108,37.5723,11.9651,47.8008,18.3538,14.7402,9.2041,23.6006,14.7361,29.0166,24.4934.5986,1.0696,1.1641,2.2156,1.6846,3.4153,7.9238,18.2437.3652,36.9834-2.1191,43.1414-3.5137,8.76-12.001,24.7458-29.3828,33.4448-9.3545,4.6853-17.7637,5.5098-31.9756,5.5098-3.2051,0-6.6768-.0417-10.4893-.0874-9.5029-.1091-13.6846-.8105-18.5273-1.6228-4.6221-.7751-9.8613-1.6541-20.5635-2.0256-2.7168-.0942-5.3955-.1418-7.9629-.1418-7.4248,0-12.9844.3936-17.4521.7097-3.127.2214-5.8271.4126-8.3457.4126-4.6582.0002-8.5342-.6892-13.3809-2.3799-3.4268-1.1968-5.3467-2.2139-8.0049-3.6216-3.2246-1.7075-7.6396-4.0459-16.8984-7.8066-12.1055-4.9177-18.7734-7.6265-26.5-8.04-.6924-.0354-1.9336-.0989-3.5908-.0989-8.2617,0-23.0596,1.6255-29.3467,12.5105-4.5312,7.8394-2.4736,16.6636-1.3682,21.4043,1.2383,5.2004,4.2217,10.9534,8.874,17.1257.791,1.0642,1.6992,2.2136,2.6875,3.4006,5.1152,6.1406,8.6035,8.7827,11.9766,11.3376,2.5176,1.9072,4.8965,3.709,7.9336,7.0256,10.2734,11.21,13.7021,24.1624,14.9932,29.0383,2.1172,8.002,1.8301,12.5217,1.5264,17.3069-.3145,4.9468-.6396,10.062,1.5996,18.6804,2.1309,8.2234,6.5664,25.3389,20.3076,32.1379,2.8057,1.3887,5.2314,1.9812,8.1104,1.9812,1.5732,0,3.1592-.1726,4.9961-.3723,2.5039-.2725,5.6201-.6116,9.8779-.6116,2.4727,0,5.0273.1096,7.8125.3352,7.3691.6001,11.5879,1.6577,15.3086,2.5908,4.3457,1.0896,8.4512,2.1189,16.0449,2.1189l.1875-.0002c8.5361-.0203,18.2012-.0435,27.5752-5.6306,6.0322-3.5889,8.6191-7.4924,12.1982-12.895,1.4727-2.2234,3.1426-4.7434,5.3428-7.6812,11.0332-14.7546,24.8926-29.8364,44.0371-29.8364,3.5059,0,7.1768.4973,10.9102,1.4778,10.7744,2.8345,21.5176,9.5415,31.9326,19.9346,5.5059,5.4812,9.0176,10.2737,11.0566,15.0845.8896,2.0918,1.4873,4.199,1.7764,6.2673.8213,5.8301-.6152,11.7146-2.1348,17.9443-.4297,1.7593-.873,3.5781-1.2588,5.3845-1.377,6.4626-2.0811,13.1733-2.7627,19.6631-1.3955,13.2981-2.7129,25.8586-9.3301,36.4626-9.1357,14.645-23.6514,17.4873-40.459,20.7783l-.7402.145c-6.3398,1.2402-11.0234,1.585-16.4473,1.9844-5.8828.4331-12.5498.9238-22.6396,2.7061-9.6035,1.6938-14.2402,3.144-17.9648,4.3091-3.1387.9814-5.6172,1.7568-10.1543,2.4604-4.1299.6416-8.3916.9668-12.667.9668Z"/>
        <path class="cls-3" d="M293.3627,122.3848c5.0385,0,9.9126.5115,14.2155.9629,21.4429,2.2405,35.9597,11.3069,46.5598,17.9272l.0604.0378c14.2806,8.917,22.9004,14.2991,27.963,23.4185.543.9692,1.064,2.0264,1.5488,3.1431,7.4368,17.1223.4724,34.3901-2.1533,40.9004-3.3588,8.3721-11.4602,23.6514-27.9821,31.9204-8.8308,4.4229-16.9263,5.2012-30.6714,5.2012-3.1827,0-6.7188-.0425-10.4731-.0874-9.2595-.1064-13.3383-.7905-18.061-1.5828-4.7113-.79-10.0511-1.6858-20.9442-2.0642-2.75-.0952-5.4631-.1433-8.0637-.1433-7.5277-.0002-13.1442.3975-17.657.7168-3.072.2175-5.7251.4055-8.1409.4055-3.6405,0-7.146-.3772-12.4197-2.2168-3.2203-1.1245-4.9644-2.0481-7.6042-3.4463-3.2789-1.7366-7.7697-4.115-17.1637-7.9312-11.9899-4.8704-19.2268-7.8103-27.4717-8.2515-.6433-.033-1.9819-.1013-3.7161-.1013-8.889-.0002-24.8494,1.8142-31.868,13.9644-5.1083,8.8367-2.7952,18.7556-1.674,23.5632,1.3234,5.5652,4.4777,11.6814,9.3508,18.146.8372,1.127,1.7798,2.3201,2.8007,3.5449,5.3281,6.3962,9.1145,9.2642,12.455,11.7944,2.5144,1.9045,4.6859,3.5493,7.5461,6.6729,9.7859,10.678,12.9656,22.6873,14.3231,27.8145,1.9963,7.5447,1.7363,11.6377,1.4353,16.3772-.3135,4.9348-.6688,10.5278,1.6873,19.594,2.2404,8.644,6.902,26.6306,21.8348,34.0195,3.1908,1.5793,6.0907,2.2837,9.4027,2.2837,1.7318,0,3.3903-.1807,5.3108-.3896,2.5604-.2786,5.4624-.5945,9.5632-.5945,2.3925,0,4.8708.1067,7.5747.3257,7.1313.5808,11.0493,1.563,14.8383,2.5129,4.5253,1.1348,8.7998,2.2065,16.7533,2.2065l.2031-.0002c8.902-.0215,18.9917-.0457,29.0464-6.0388,6.6061-3.9299,9.4888-8.2812,13.1384-13.7898,1.4514-2.1909,3.0966-4.6741,5.2484-7.5481,11.1339-14.8887,23.8921-28.666,41.7057-28.6665,3.2561,0,6.6775.4651,10.1669,1.3816,10.2703,2.7019,20.5714,9.155,30.6219,19.1841,5.2279,5.2056,8.541,9.7034,10.431,14.165.7876,1.8491,1.3159,3.7078,1.5708,5.5291.7424,5.2744-.6293,10.8958-2.0814,16.8467-.4341,1.7791-.8829,3.6184-1.2775,5.467-1.4094,6.6128-2.1217,13.4016-2.8105,19.967-1.3593,12.9541-2.6431,25.1897-8.9045,35.2239-8.4661,13.5713-22.4061,16.301-38.5474,19.4617l-.7384.1445c-6.1693,1.2068-10.7729,1.5457-16.1035,1.938-5.9512.4382-12.6964.9348-22.9302,2.7424-9.7896,1.7268-14.5253,3.2078-18.3303,4.3979-3.0222.9451-5.4093,1.6917-9.7318,2.3623-3.9816.6182-8.0925.9319-12.2188.9319-23.5767,0-43.1144-10.1121-50.4712-13.9197-11.5427-5.9695-25.9081-13.3987-36.3754-29.7795-8.9185-13.9751-10.7202-27.7356-12.168-38.7925l-.006-.0466c-1.4276-10.9541-.7891-17.1917-.1704-23.2349l.0192-.1909c.705-7.0151,1.4338-14.2693-.9392-26.9819-2.281-12.2009-5.1199-27.3857-17.252-39.5635-4.6543-4.6658-8.3707-6.5544-11.6498-8.2209-3.1096-1.5803-5.795-2.9451-9.7482-6.907-10.4623-10.4985-13.6406-23.0916-15.1694-29.1492-3.7649-14.8552-1.7996-26.7798.101-38.3113l.0178-.1079c1.4558-8.8313,2.5078-15.2122,6.2407-22.7864,5.694-11.5645,13.9543-18.3738,23.5166-26.2561,7.8219-6.4409,11.7281-8.4885,15.5056-10.4688,3.957-2.0742,8.0488-4.219,15.3646-10.4688,6.4946-5.5466,11.0383-10.4636,14.6893-14.4143,6.1516-6.657,8.8458-9.374,13.8087-9.7683.7743-.0615,1.6885-.0767,2.7472-.0942,3.6572-.0603,8.666-.1433,15.2651-2.2539,5.4667-1.7473,9.2621-4.0225,11.7736-5.5281l.4006-.24c.0972-.0579,9.8823-5.8708,25.436-12.7078,6.3572-2.7939,13.3721-4.1521,21.4454-4.1521M293.3627,116.5593c-7.4536,0-15.5505,1.0237-23.7893,4.6445-16.1299,7.0901-26.08,13.04-26.08,13.04-2.46,1.47-5.86,3.5898-10.96,5.22-7.66,2.45-12.8,1.78-16.7001,2.0898-11.71.9302-14.76,10.9902-31.8199,25.5601-13.86,11.8401-14.48,7.4399-30.79,20.8701-10.36,8.54-18.9099,15.73-25.0399,28.1799-4.13,8.3801-5.26,15.3-6.78,24.52-1.92,11.6499-4.0601,24.6699,0,40.6899,1.58,6.26,5.12,20.22,16.6899,31.8301,9.01,9.03,13.2101,6.9199,21.4,15.1299,10.65,10.6902,13.33,24.1101,15.65,36.52,2.24,12,1.55,18.55.85,25.52-.65,6.3501-1.3099,13.0601.1901,24.5701,1.46,11.1499,3.4099,26.1299,13.0399,41.22,11.3101,17.7,26.9501,25.79,38.61,31.8201,7.7765,4.0249,28.1708,14.5708,53.1472,14.5708,4.251,0,8.636-.3057,13.1128-1.001,10.4401-1.6199,10.89-3.73,28.1801-6.7798,19.08-3.3701,25.54-2.04,39.14-4.7002,16.99-3.3298,33.1599-6.2898,43.11-22.24,10.39-16.6499,8.38-37.8699,12.47-57.0598,1.72-8.0601,4.58-16.1702,3.4301-24.3401-.3401-2.4299-1.03-4.77-1.98-7-2.55-6.02-6.9901-11.3401-11.6801-16.01-9.35-9.3301-20.48-17.3301-33.25-20.6899-4.0964-1.0759-7.9712-1.5735-11.6505-1.5732-19.9518.0005-34.1272,14.6323-46.3695,31.0032-7.51,10.03-8.9,15.1799-16.7,19.8201-8.6901,5.1799-17.7201,5.2-26.0901,5.22-.0609.0002-.1208.0002-.1813.0002-13.6891,0-14.98-3.3862-31.1187-4.7002-3.0818-.2498-5.7325-.345-8.0475-.345-7.4397,0-11.3898.9841-14.874.9841-2.2034,0-4.2219-.394-6.8185-1.6792-12.53-6.2-16.73-22.3501-18.78-30.26-4.28-16.47,1.3101-19.22-3.13-36-1.39-5.25-4.91-18.53-15.66-30.26-7.2799-7.95-11.0399-7.72-19.8199-18.26-.9501-1.1399-1.8201-2.24-2.6-3.29-6.4601-8.5701-7.92-14.1699-8.36-16.02-1.04-4.46-2.91-12.45,1.0499-19.3,5.7097-9.8843,19.9084-11.0547,26.8246-11.0544,1.5992,0,2.8101.0625,3.4354.0945,7.1.3801,13.35,2.8701,25.5601,7.8301,16.74,6.8,17.0499,8.6899,25.0399,11.48,5.6438,1.9688,9.8245,2.5422,14.3401,2.5422,6.3141,0,13.2772-1.1226,25.7977-1.1223,2.4032,0,5.0149.0415,7.8622.1401,21.3101.74,19.98,3.4299,39.14,3.6499,3.8308.0459,7.3202.0876,10.54.0876,14.3298,0,23.3184-.8286,33.28-5.8176,20.5199-10.27,28.7699-29.95,30.7799-34.96,2.6901-6.6699,10.49-26.05,2.0901-45.3901-.5601-1.2898-1.16-2.5098-1.8101-3.6699-5.79-10.4299-15.1899-16.29-30.02-25.55-11.4-7.1199-26.74-16.45-49.0399-18.78-4.4904-.4712-9.491-.9944-14.8208-.9944h0Z"/>
      </g>
      <circle class="cls-5" cx="436.815" cy="198.4243" r="12.861"/>
      <circle class="cls-5" cx="80.3162" cy="253.5226" r="18.1988"/>
      <circle class="cls-5" cx="404.0992" cy="278.7205" r="18.1988"/>
      <circle class="cls-5" cx="105.3784" cy="428.2132" r="6.4305"/>
      <circle class="cls-5" cx="263.4597" cy="350.6359" r="6.4305"/>
      <circle class="cls-5" cx="422.6625" cy="121.5926" r="6.4305"/>
      <circle class="cls-5" cx="315.2004" cy="344.2048" r="6.4305"/>
      <circle class="cls-5" cx="257.0649" cy="278.7205" r="14.6473"/>
      <circle class="cls-5" cx="497.3362" cy="202.2703" r="9.0784"/>
      <circle class="cls-5" cx="518.1535" cy="244.6651" r="9.0784"/>
      <circle class="cls-5" cx="329.4309" cy="294.914" r="11.1378"/>
      <circle class="cls-5" cx="458.5131" cy="468.7602" r="11.1378"/>
      <circle class="cls-5" cx="200.4819" cy="121.1396" r="11.1378"/>
      <circle class="cls-5" cx="118.9624" cy="359.2179" r="8.5811"/>
      <circle class="cls-5" cx="278.2786" cy="65.3708" r="7.3643"/>
      <circle class="cls-5" cx="509.0742" cy="389.592" r="11.1378"/>
      <circle class="cls-5" cx="110.2863" cy="195.2651" r="11.1378"/>
      <circle class="cls-5" cx="135.2196" cy="88.7023" r="5.5689"/>
      <circle class="cls-5" cx="523.0467" cy="326.0827" r="5.5689"/>
      <circle class="cls-5" cx="80.3162" cy="320.5133" r="11.1378"/>
      <circle class="cls-5" cx="152.9344" cy="465.7172" r="23.2871"/>
      <circle class="cls-5" cx="334.9825" cy="84.5708" r="19.7801"/>
      <circle class="cls-5" cx="353.6484" cy="523.95" r="19.7801"/>
      <circle class="cls-5" cx="472.3402" cy="316.017" r="22.2756"/>
    </g>
  </g>
</svg>