<?xml version="1.0" encoding="UTF-8"?>
<svg id="Capa_1" data-name="Capa 1" xmlns="http://www.w3.org/2000/svg" viewBox="0 0 1512.51 1117.69">
  <defs>
    <style>
      .cls-1 {
        fill: #c37880;
      }

      .cls-2 {
        fill: #efcbc9;
      }

      .cls-3 {
        fill: #e3a0a5;
      }
    </style>
  </defs>
  <path class="cls-1" d="M1484.89,789.14c40.81-25.31,34.98-86.65-8.17-106.18,12.3-13.8,20.12-27.31,24.94-45.29,13-48.49-10.75-149.95-39.9-191.22-6.58-9.32-18.83-19.14-23.5-28.76-4.64-9.5-5.32-23.6-9.31-34.8-9.11-25.62-30.05-51.77-54.92-63.48,9.34-37.74-1.75-69.16-24.01-99.29-28.68-38.8-84.82-92.17-132.26-104.53-6.58-1.71-35.19-4.65-36.73-5.73-.8-.56-5.14-13.38-8.33-17.78-25.13-34.74-96.43-67.86-138.91-57.81-4.78,1.13-13.33,6.19-16.85,6.01-3.23-.18-7.05-5.93-10.53-8.08-4.96-.96-9.72-3.07-14.27-6.32-7.64-4.47-8.39-4.1-11.09,3.61-10.63-4.33-19.37,5.01-6.43,9.34,5.62,1.5,10.76,3.64,15.47,6.43l-.41,4c18.6,9.54,17.62,27.47,16.4,45.89l-5.44,40.79c-5.06,12.53,2.74,44.27,17.75,24.99,7.64-9.83,12.95-64.57,14.26-79.68-2.63-18.75-2.69-25.74,18.78-25.57,31.85.24,62.01,17.67,86.98,35.99,12.66,9.29,23.73,20.05,13.55,35.96-17.41,26.65-31.13,54.63-41.14,83.91-9.9,28.2,8.38,41.07,20.18,10.09,8.2-23.71,18.86-46.27,31.96-67.64,29.23-48.96,98.74,9.06,126.56,34.21,32.47,29.35,80.41,81.74,58.69,128.21l1.14,4.83-3.82.7c-29.43,38.07-97.45,67.89-133.36,22.16-11.73-10.13-11.3,7.77-8.23,16.85,18.13,53.5,122.27,20.9,149.92-12.41,22.31-17.29,49.34,26.65,54.59,45.58,2.73,26.52,14.18,44.7,32.51,63.23,30.65,50.4,47.7,117.93,36.97,176.46l2.06,4.25-2.17,1.18c-12.15,30.95-58.87,51.83-79.42,18.94-3.61-9.44-8.54-17.78-14.76-25.02,4.96-4.83-5.29-10.29-9.49-8.35-5.34,2.47-6.21,11.68-.31,13.24,0,0-49.07-5.05-55.53-11.43l1.34-4.64c-3.35-8.9-23.55-53.11-31.19-54.56-20.4-3.9-3.38,36.37,1.49,45.43l3.87.7c5.52,16.9-2.69,69.09-18.43,42.89-5.06-29.41-17.59-32.14-40.36-52.69l-.07-5.93c-15.38-18.57-24.58-38.85-32.58-60.59-3.61-8.35-10.91-14.68-17.46-5.45-14.21,20.05,34.33,85.15,47.59,101.89,13,18.83,22.54,40.11,23.6,63.27l3.41,4.8c1.83,22.24-16.37,34.53-39.44,44.44l-57.13,14.61c-17.34,8.44-13.88,31-20.35,49.04-8.26,4.08,5.05,22.7,14.14,18.81,14.89-11.81,29.93-23.61,45.16-35.41,8.43-7.01,44.5-17.96,47.62-3.15-4.96,34.43,21.3,25.82,25.95.44,2.06-95.08,100.11-104.29,173.96-90.85,33.74,6.12,49.04,26.59,31.14,58.33l1.06,4.15c-11.84,6.96-22.5,13.2-36.56,15.6l-1,2.37-7.79-2.22c-15.55.83-70.68,10.14-77.57,25.3-11.64,25.64,32.74,7.22,42.04,2.24,105.42-29.56,92.19,61.45,61.27,129.16l1.65,3.94c-9.46,12.08-20.53,16.61-33.22,13.59-17.25-3.94-33.94-9.55-50.07-16.85.87-6.03-17.85-13.85-22.39-12.72-18.75,4.67,3.72,24.07,12.12,28.89,20.19,11.63,41.12,18.86,63.49,24.19,1.71,1.13,2.14,2.89,2.34,4.85,3.4,33.48-63.71,84.56-94.28,92.66-.07,2.01-27.85-.69-27.85-.69-35.34-7.61-63.26-34.83-82.69-63.36l-2.61-.33,1.27-4.83c-13.57-24.79-10.65-47.72-1.08-72.22-.96-27.47-15.81-11.24-23.01,4.23-16.02,34.44-6.22,68.97,14.27,99.23,5.73,8.46,24.77,32.71,32.69,36.96,1.6.87,3.53.62,5.24.33-.29,3.56,2.53,6.71,8.48,9.46-13.91,7.95-29.8,12.41-47.67,13.41l-3.05-3.07c-20.48,2.17-40.96,2.48-61.47.93-79.78-6.03-65.59-104.7-32.5-152.86,11.28-26.59-7.74-28.66-21.95-7.28-27.34,41.17-32.37,87.47-18.93,135.4l3.98,4.02c-1.99,16.31-20.43,21.26-34.93,19.61-18.65-2.83-37.33-5.26-56.23-4.25-27.39-3.07-37.2-20.85-32.96-46.4l4.18-3.14c4.56-17.7,12.84-33.14,26.49-45.09,8.48-9.91,3.3-20.77-10.21-15.43-18.55,7.33-36.52,51.46-41.37,68.59l1.31,4.87-2.24-.13c-20.38,22.72-63.69-12.48-69.06-36.29.26-20.92-8.54-32.4-26.68-41.97l1.65-3.74c-14.86-26.13-2.81-52.41,27.89-53.97l40.34-3.56c34.08-12.43,62.76-13.65,97.35-7.86,10.39,2.73,17.29-7.86,10.21-15.14-9.33-9.57-68.51-12.05-80.17-6.48l-4.18,4.2c-10.88-.03-21.49,1.75-31.88,5.34-28.01,4.38-43.47,3.71-15.71-21.61l-1.4-3.33,5.24-1.27c15.78-20.36,34.7-37.71,60-44.93l3.35-4.43c8.69-3.76,3.05-9.57-5.11-10.47-20.48-2.25-43.1,14.5-56.86,28.27l-33.48,36.4c-23.55,23.76-55.2,42.38-82.55,12.75l1.88-3.45c-10.76-30.62-12.69-67.86-4.61-99.26,18.18-19.47,18.73-30.87,9.41-55.46-.59-46.87,10.73-98.57,51.07-127.77,31.47-22.47,63.59-44.03,96.39-64.67,60.72-38.57,123.51-155.54-3.76-143.27-36.94,12.25-72.1,29.51-105.48,51.79-55.23,28.68-78.67,30.26-133.03.96-27.48-17.39-56.02-32.73-85.61-45.97-30.56-15.51-96.04-11.99-96.21,32.81-.24,62.92,101.86,127.84,149.15,154.21,40.62,28.5,56.82,48.94,66.39,97.48,6.03,30.52,2.73,46.18-4.31,74.71,4.18,8.9,9.6,17.36,16.28,25.35,4.77,11.71,5.44,62.63,3.36,76.1-1.73,11.19-5.32,21.49-13.16,29.92l-.02,4.69-4.12-.18c-20.41,15.73-46.04,2.73-62.76-12.8l-40.71-43.42c-13.44-12.8-33.28-27.99-52.39-29.18-5.96-.38-16.22.07-11.5,7.2l1.13,4.52c25.28,11.24,47.15,25.28,63.87,48.19l5.23,1.18c-.2,4.49,2.52,8.98,8.13,13.44,16.76,19.78-14.78,13.8-25.61,11.4-10.89-3.01-21.85-5.03-33.15-5.24l-4.18-4.13c-11.37-5.42-73.67-3.41-80.48,8.54-5.24,9.21,3.69,14.55,12.51,13.31,34.28-6.6,62.83-4.36,96.7,7.23l39.46,3.81c26.11,2.14,40.42,19.61,32.16,45.56-3.09,4.44-4.12,8.52-3.07,12.23-16.61,9-26.59,22.49-26.67,42.75-4.77,23.22-45.84,55.8-67.33,37.02l-2.35.25,1.81-3.74c-4.9-20.25-19.6-57.81-38.39-68.48-16.56-9.42-23.45-1.14-12.49,14.14,19.86,16.71,27.5,42.92,30.05,67.12l1.06,4.02-2.32.21c-7.09,12.71-20.76,21.95-35.49,22.5-16.71-.96-33.14.54-49.56,3.61-14.89.15-37.53-.44-38.38-19.79l3.81-3.76c5.68-23.52,9.88-52.72,6.21-76.62-2.11-13.65-22.42-64.75-33.35-71.01-11.15-6.39-21.23,2.47-15.11,13.88,22.5,38.57,39.24,83.7,19.65,128.23l-3.48,7.14c-13.98,21.67-41.46,24.64-65.16,26.11-14.22.88-29.35.41-43.21-1.11-2.69-4.82-10.27-4.62-13.06,0-13.54-3.01-26.59-7.19-39.15-12.57,6.14-3.33,9.39-7.3,9.75-11.92,1.71.36,3.51.46,5.13-.33,6.3-2.99,26.68-28.51,31.68-35.7,22.49-32.3,29.9-61.32,15.09-98.67-7.2-18.13-25.9-30.05-22.9-2.14,12.28,27.06,9.54,53.01-7.01,78.05l.87,4.9-2.74.67c-10.17,14.57-22.51,26.63-36.71,37.42-20.36,15.48-39.12,20.86-63.44,22.33-4.72-4.44-10.99-7.56-18.78-9.37-30.82-14.34-82.13-54.74-78.03-92.78,18.05-1.88,84.74-23.97,84.04-44.96-.54-16.18-27.97-.15-34.85,4.75-.93.65-21.64,10.44-32.65,14.42-20.07,5.54-26.91,6.42-42.22-7.61l1.5-3.89c-12.31-24.66-21.39-52.99-25.02-80.43-9.49-71.71,63.04-64.05,107.42-42,29.89,7.95,22.62-16.45-2.69-25.85-16.36-6.09-39.9-10.75-56.72-7.87l-1.08-2.38c-17.9-1.8-32.43-8.59-43.64-20.38l-1.26-4.23c-26.62-62.61,59.33-60.21,99.01-58.94,60.36,1.94,103.9,29.3,106.9,93.14-.87,11.81,18.14,35.34,25.46,17.95-4.28-46.2,46.13-18.36,64.75-1.86l27.45,23.47c10.47,3.53,17.56-9.21,8.18-14.09-6.76-17.7-26.11-32.22-43.28-40.65l-32.66-19.77c-19.86-11.02-19.83-18.26-32.04-35.77-.97-1.38-1.44-2.76-3.07-3.43.29-2.16,1.36-3.87,3.07-5.23-.87-25.07,6.47-48.99,20.36-69.65,17.88-24.15,33.46-46.36,46.49-73.7,5.96-12.49,18.11-48.91-8.7-34.2-9.57,25.25-22.44,48.47-38.59,69.65l.23,5.34c-21.83,18.72-23.53,22.01-30.87,46.32-4.12,38.75-52.43,20.55-38.59-6.48,8.49-14.99,7.46-12.86,12.31-28.4l4.2-1.34c4.41-7.37,17.95-41.27,12.41-47.88-11.94-14.29-32.48,34.98-35.14,43.06,0,0-6.88,23.28-20.32,35.8-27.12,24.59-39.26,5.48-39.68-3.73l.15-6.32c5.8-2.09,4.87-11.14-.96-13.46-5.16-2.06-16.53,7.5-10.47,11.82-.75-.07-1.47-.07-2.07.2-.95.41-6.29,9.68-7.41,11.69-12.62,22.62-18.7,33.27-50.27,22.96-17.26-5.63-26.64-19.71-34.21-35.37l-2.38-1.11,2.27-4.1c-7.46-56.95,8.05-122.48,37.68-171.38,19.83-20.22,30.54-41.61,35.52-69.29,4.77-19.3,30.96-58.87,52.94-41.55,30.96,25.43,64.07,44.21,105.22,40.39,20.72-1.93,44.11-12.59,45.27-36.39.57-12.18-6.12-17-11.07-6.74-35.45,44.08-101.89,12.93-131.2-23.14l-4.34-1.36,1.24-4.62c-20.23-49.32,28.09-100.3,61.78-131.53,25.67-23.79,97.23-77.28,123.18-31.65,14.53,25.64,26.72,52.36,36.58,80.2,6.79,8.93,14.04,8.97,17.33-2.5,6.34-22.1-30.96-85.36-43.82-106.28-9.29-14.31,1.85-23.6,12.62-32.5,28.43-23.48,71.17-45.69,108.44-32.12-1.22,28.66.64,66.25,10.11,93.45,10.5,30.2,29.13,1.55,20.89-18.44-7.59-27.35-7.38-53.16.62-77.36l-1.13-4.47.69-1.81c23.26-12.13,25.44-18.75,6.58-19.81-2.38-1.62-4.8-2.58-7.27-2.87-4.07,2.22-14.14,10.75-15.87,11.2-1.7.44-22.01-7.14-27.58-7.77-38.38-4.31-108.8,28.68-129.39,61.34-2.2,3.53-6.24,16.18-7.01,16.67-.98.6-18.93,1.47-23.03,2.29-55.56,11.12-110.87,61.63-143.99,105.87-22.5,30.07-35.8,61.76-25.64,99.99-25.39,14.65-46.64,38.64-55.82,66.76-5.21,15.94-3.66,26.64-14.27,41.27-23.65,32.53-33.53,42.85-45.24,83.78-13.82,48.37-28.68,111.88.49,157.01,2.07,3.18,13.24,14.89,12.12,16.43-43.23,16.23-46.25,81.16-8.15,105.38-10.83,12.4-18.94,22.96-22.47,39.59-7.35,34.82,13.95,104.96,35.55,133.47,2.55,3.35,10.14,8.66,11.07,11.79,2.51,8.56.33,17.47,4.93,29.36,20.17,52.18,89.53,101.86,146.42,96.84,4.85-.42,17.05-4.64,19.68-4.26,1.34.18,15.73,11.68,22.75,14.16,27.37,9.6,125.03,10.17,151.98-.05,3.98-1.5,16.71-9.83,17.7-9.65.8.13,9.5,8.12,13.02,9.91,26.96,13.82,41.81,1.26,65.6,1.22,23.63-.03,33.71,5.57,56.86-8.33,6.35-3.81,20.41-20.28,21.87-20.71,3.98-1.18,8.08,1.54,12.46,1.29,39.06-2.27,70.65-30.56,81.98-66.78,5.91-18.89,6.61-12.9,16.8-27.29,14-19.76,16.62-42.74,10.08-65.86,23.57,1.18,54.24-5.55,62.07-31.01,3.12,1.49,3.46,6.61,5.8,9.67,12.75,16.67,37.76,22.36,57.86,21.34-8.2,26.95-3.23,51.18,14.73,72.66,2.99,3.58,8.41,5.19,10.19,9.39,1.85,4.33.9,9.21,2.37,13.98,10.26,33.54,45.79,63.17,81.33,64.15,4.15.11,8.97-2.86,12.77-1.57.91.31,9.73,11.3,12.53,13.7,23.89,20.68,38.46,15.42,66.14,15.37,23.55-.05,33.97,11.68,61.83-.11,5.06-2.14,15.81-10.86,16.8-11.04,1.13-.2,15.92,8.9,20.25,10.4,30.88,10.7,133.98,9.57,162.15-7.56,2.92-1.76,6.53-7.12,8.64-7.53,2.43-.47,16.18,4.07,21.05,4.51,56.86,5.14,128.59-46.54,147.39-99.16,3.28-9.18,2.4-21.87,4.51-26.52,1.08-2.38,11.97-12.79,15.17-17.49,16.8-24.79,34.92-85.95,32.76-115.44-1.52-20.63-10.91-37.36-24.3-52.44ZM756.53,752.36c-2.86.39-1.54-3.71-1.62-5.68-2.35-60.1-5.06-116.91-53.12-159.19-52.37-46.12-121.63-64.54-159.86-129.19-8.77-14.83-19.71-34.49,2.66-42.8,57.24-21.3,142.91,73.11,209.44,74.06,68.88.98,137.26-83.14,200.92-76.84,60.64,6.01-7.35,76.87-26.91,93.9-48.65,42.36-124.64,64.38-152.66,126.6-16.54,36.76-18.21,79.42-18.85,119.15Z"/>
  <path class="cls-1" d="M509.94,28.92c19.98-10.98,45.91-18.17,68.29-22.35,63.1-11.77,152.27-15.11,177.49,58.29,12.82-40.92,50.04-58.42,90.03-63.5,44.82-5.69,121.93,6.8,160.65,30.82-1.71,4.11-7.25-2.33-8.13-1.63-.27.22-.17,2.24-.93,3.16-2.91,3.49-7.25,1.63-7.32-2.35-.01-.76,9.76-1.44-4.05-7.33-1.02,14.5-9.88,6.24-12.26,7.24-1.37.58-4.05,2.96-1.61,4.99,3.09,2.58,15.15,5.32,19.61,7.42-.25.66-1.67,1.41-1.64,1.56l-6.9,1.08c-47.18-18.3-148.82-36.31-188.48,1.81-14.59,14.02-16.73,32.66-18.32,51.94-2.2,26.61-.47,54.41,2.32,80.47-1.59.77-2.54,1.88-2.55,3.5l3.25.92c4.43,8.05,13.02,9.15,21.48,8.78,22.7-2.55,48.56-4.87,62.06,18.33,2.9,4.98,7.57,13.29,3.03,17.7-.46,1.43-1.01,1.41-1.63,0-5.51-1.36-10.91-5.5-14.7-9.8l-4.03,1.68c-51.34-22.28-80.52,10.66-72.86,61.9l-3.13,3.37c2.28,9.86,4.94,19.52,8.01,28.97l3.26,2.85c16.86,3.86,34.33,6.32,52.42,7.38,9.45-7.16,14.09,10.31.76,12.91-16.38,4.83-33.41,6.59-51.1,5.27-9.21,1.27-12.35,9.24-13.19,17.49l-1.3,33.6c-.57,35.52-26.66,30.96-26.33-1.62l-1-29.91c-1.16-7.8-2.94-17.84-12.15-19.35-10.79.51-57.02-.04-58.63-12.56-.72-5.55,5.52-10.71,9.43-5.83,13-2.29,26.16-3.59,39.47-3.88,7.82-1.28,15.77-3.97,17.75-12.48l4.84-32.64-3.3-3.28c8.36-57.24-48.11-76.11-87.31-42.78l-4.11-1.3c-9.17,2.98-5.23-6.57-2.63-12.26,12.75-27.91,40.99-27.1,66.53-23.62,11.72,1.23,18.78-5,24.29-14.75l-2.89-2.9c2.84-26.84,3.57-54.38,1.33-81.44-1.55-18.78-3.58-35.39-18.62-48.4-42.08-36.41-154.44-19.49-200.43,7.4l-4.76-.41c.05-.07-1.19-.91-.7-1.63,3.8-5.64,9.95-6.27,15-9.32,3.2-1.94,2.87-6.85,1.09-7.04-6.79-.73-11.54,1.72-15.39-6.5Z"/>
  <path class="cls-3" d="M735.31,179.16c-4.19,11.82-16.55,12.07-27.38,11.89-32.89-5.66-72.47-3.29-70.28,40.13,3.57-2.33,6.73-2.8,9.48-1.4,19.15-11.59,25.24-20.75,51.02-17.55,41.56,5.16,43.41,29.13,43.7,64.9-1.46,29.06-11.54,39.97-39.58,46.02l-22.48,2.97c-1.81.85-5.95,1.53-6.52,4.12-1.1,5.02,21.5,9.97,25.47,10.41,26.94,2.99,42.69-9.76,46.16,27.33.62,6.63-3.18,61.18,15.88,46.47,6.12-4.73,4.58-43.27,5.75-53.03,3.48-29.09,25.44-18.56,46.35-20.61,4.58-.45,27.83-4.9,26.88-10.42-1.46-3.15-3.76-3.28-6.45-4.26l-26.98-3.02c-21.03-4.29-33.47-14.05-36.71-36.17-1.73-39.62-.49-73.84,48.1-75.2,12.97-.36,20.68,2.76,31.92,8.24,4.01,4.36,8.96,8.09,14.7,9.8h1.63c15.36,8.11,3.16-31.23-5.64-33.5-17.34-8.69-37.15-10.42-59.45-5.19-10.98,1.57-16.74-1.68-24.73-7.04-2.09-7.23-2.96-28.02-3.33-36.68-.99-22.98-1.41-61.98,6.99-82.96,21.95-54.8,120.5-43.6,166.2-33.07,15.14,3.49,29.45,8.94,44.08,13.9.14.89,10.82,7.27,13.77,11.54,13.6,19.67.16,65.09-.77,88.82-.24,6.16-1.61,18.16,7.33,17.3,5.4-.52,6.82-7.37,8-11.76,5.07-18.94,9.86-49.54,10.93-69.09.83-15.12-7.02-23.14,9.66-27.9,30.8-8.78,80.33,16.89,103.72,36.86,13.11,11.19,21.56,18.45,13.18,35.94-13.9,29-31.37,47.35-40.88,81.6-1.46,5.25-9.18,30.68,2.92,27.56,6.64-1.71,19.75-41.33,23.73-49.91,7.32-15.76,23.92-50.9,42.31-54.03,42.52-7.23,102.17,45.26,128.65,74.7,27.09,30.13,60.3,72.52,36.72,114.34-12.06,6.53-23.42,14.73-34.08,24.61-29.45,21.57-77,26.67-103.1-1.74-2.09-.27-4.41.15-6.54,0-2.44,17.81,7.79,31.05,24.06,37.2,32.53,12.29,72.33.03,100.28-18.2,6.15-4.01,25.68-21.38,30.04-22.23,19.57-3.84,42.56,28.14,48.92,44.09,5.25,13.14,5.18,27.56,10.85,39.78,5.48,11.83,18.04,22.25,25.62,33.17,26.48,38.17,50.17,136.11,34.6,180.15-12.41,21.24-14.95,44.61-64.06,37.77-20.64-2.88-32.29-42.67-32.29-42.67-.78-.57-1.34-3.16-3.22-4.06-10.74-5.14-6.12,5.6-6.57,8.96-.89,37.44-26.35,18.65-37.82,8.18-7.41-7.92-13.32-14.46-17.71-19.61-7.37-14.51-15.67-35.62-24.18-48.5-2.64-3.99-9.1-13.11-12.63-5.33-2.33,5.14,9.29,33.97,12.31,40.77,3.8,8.53,5.78,17.13,6.3,26.51.47,8.37.6,19.28-4.35,26.54-5.09,7.47-14.68,3.34-19.39-2.52-6.36-7.91-11.1-17.83-16.77-26.3s-11.73-17.16-17.87-25.54c-.98-1.34-1.97-2.68-2.96-4.01-11.45-15.41-23.65-30.62-31-48.36-3.41-8.24-5.75-16.99-10.28-24.67-1.82-3.08-5.82-6.26-8.5-3.88-.78.69-1.18,1.71-1.48,2.71-1.74,5.81-.93,12.07.5,17.96,9.95,40.88,47.29,69.59,62.84,108.68,5.81,14.61,8.58,30.46,9.11,46.13.06,1.77.09,3.55-.16,5.3-.19,1.37-.55,2.71-.95,4.04-4.49,14.89-14.48,27.73-27.64,35.95-15.25,9.53-32.37,15.19-48.16,23.66-16,8.58-31.01,21.7-34.6,40.31.4,2.36-.83,6.08.71,8.24,6.17,8.66,26.05-15.43,31.17-19.63,16.95-13.89,38.74-28.34,61.92-24.45,17.65,2.96,7.19,21.55,11.44,27.75s14.43-5.2,16.41-9.88c3.58-8.43,2.63-21.88,4.53-31.4,6.47-32.51,34.78-58.64,65.64-68.27,18.3-5.71,38.91-6.03,57.9-6.07,21.63-.04,43.96,1.14,64.8,7.27,10.7,3.15,19.71,9.62,24.98,19.66,5.45,10.4,6.1,23.07,2.32,34.18-1.19,3.51-2.83,6.91-5.24,9.72-3.73,4.35-9.02,7-14.16,9.53-8.04,3.96-15.71,7.59-24.6,8.92-8.63,1.29-17.33,2.01-26.01,2.87-17,1.7-34.44,3.92-49.71,12.12-4.02,2.16-14.69,10.55-9.28,16.02,2.62,2.65,8.9.63,11.85-.15,9.73-2.57,18.45-8.04,28.07-10.69,30.12-8.29,74.38-9.35,84.49,27.27,7.35,26.62-9.04,84.92-22.08,109.45-17.4,21.9-44.15,12.02-66.27,3.58-5.78-3.23-11.45-5.51-17.02-6.85-5.05-2.57-17.72-10.67-21.68-9.56-14.72,4.11,10.02,21.1,14.66,23.94,13.44,8.21,30.01,13.85,44.97,18.72,9.36,3.04,19.97.94,20.86,11.81.93,11.38-4.95,22.51-11.18,31.6-8.25,12.04-18.77,22.52-29.91,31.87-9.07,7.62-18.71,14.59-28.99,20.47-5.12,2.93-10.39,5.59-15.8,7.92s-10.78,5.09-16.67,4.89c-5.61-.81-15.54.16-25.2-2.51-9.66-2.66-18.59-7.51-26.98-12.98-13.26-8.64-25.44-18.93-36.16-30.57-4.99-5.41-9.65-11.11-14.32-16.8-3.08-3.75-6.17-7.53-8.57-11.75-3.45-6.04-5.39-12.83-6.75-19.65-1.68-8.39-2.52-17.08-.96-25.49,1.76-9.5,6.5-18.27,8.07-27.8.59-3.58-.4-8.56-4.02-8.69-2.04-.07-3.67,1.59-4.95,3.18-16.81,20.91-19.1,50.94-10.86,76.48,8.24,25.54,25.7,47.14,45.17,65.6,4.61,4.38,11.26,8.93,7.12,15.56-3.01,4.82-9.33,8.85-14.93,9.72l-24.58,4.07c-33.74,2.2-94.14,9.49-113.99-24.01-18.07-30.51-14.95-66.9-3.18-98.88,4.12-11.19,18.96-34.19,20.49-41.63,1.72-8.41-3.15-11.26-10.38-7.04-10.51,6.13-29.72,52.55-32.58,65.39-6.71,30.09,1.05,54.15,5.73,83.3-1.51,15-21.83,20.38-34.96,19.63-16.73-3.1-33.55-4.51-50.44-4.22-27.35-2.85-43.85-18.15-38.72-46.45,3.42-13.94,9.07-28.56,18-39.97,3.2-4.08,19.44-15.63,11.49-21.39-8.38-6.07-27.89,21.1-31.43,27.58-7.32,13.4-11,30.41-17.66,43.58-13.91,13.61-36.12,4.64-49.95-6.21-17.03-13.36-19.87-27.09-19.09-47.76-5.88-10.53-15.52-18.67-28.95-24.42-5-8.57-8.99-19.76-7.76-29.77,4.7-38.16,47.58-29.91,75.08-34.37,17.7-2.87,36.92-11.57,54.36-12.58,9.2-.53,51.71,7.46,54.45,2.99.81-1.33.89-6.92-.73-8.11-2.37-1.74-24.97-7.08-29.43-7.79-17.89-2.82-35.25-.7-52.88,3.07-19.61,2.57-37.05,1.83-49.85-15.59l.86-4.01c20.64-25.51,35.18-40.99,68.59-50.63l1.66-2.99c5.51,1.35,1.92-5.39-3.53-7.08-29.22-9.07-79.87,39.38-95.32,61.58-20.27,24.38-54.62,40.28-80.82,15.44-11.57-20.1-14.07-82.14-6.04-103.21,3.2-8.4,14.6-16.37,15.74-23.45,1.89-11.7-4.99-20.3-6.26-31.11-2.62-22.35,6.65-65.83,15.86-86.67,25.12-56.79,117.18-86.58,161.17-132.79,25.61-26.9,71.14-91.5,13.33-111.35-78.86-27.09-156.58,91.32-240.81,69.33-56.87-14.84-134.89-96.76-197.98-66.62-56.68,27.08,12.41,103.01,40.08,126.53,43.88,37.31,120.48,62.56,142.88,118.41,8.04,20.05,16.51,57.01,14.46,78.23-.95,9.81-8.93,26.79-7.95,34.36,1.06,8.21,13.81,16.98,17.11,27.1,3.66,11.22,1.91,22.03,2.48,33.45,1.32,26.42,4.84,55.55-16.35,75.96-20.3,6.74-34.9,6.32-53.1-5.83-18.28-15.54-35.25-32.52-50.92-50.96-13.55-13.02-29.25-22.27-47.45-27.06-6.45-1.7-23.98-5.42-20.01,5.46,13.19,8.46,24.11,10.66,37.39,20.58,13.7,10.22,22.23,20.58,32.83,33.31,3.55,5.2-3.68,10.73-7.97,13.85-12.25,8.9-28.56,7.38-42.66,5.75-17.46-3.52-35.04-5.61-52.6-2.79-5.04.81-24.06,4.77-27.35,6.93-3.02,1.98-4.33,6.65-1.02,9.03,6.15,4.44,41.22-3.9,52.37-3.35,17.93.89,39.1,9.75,57.63,12.59,24.35,3.72,66.1-2.24,71.83,31.05,2.42,14.06-.45,22.19-7.77,33.09-1.88-.44-4.85,1.75-8.93,6.6-15.84,5.37-22.74,17.48-20.69,36.31-3.42,27.4-42.45,52.07-66.73,37.11-4.78-9.07-7.79-24.16-12.27-34.27-6.81-15.35-19.82-38.25-38.35-39.22-2.45,11.55,8.31,15.84,14.42,23.96,11.13,14.82,22.76,44.37,18.24,62.59-4.53,4.39-9.25,8.99-14.14,13.79-14.89,8.31-31.66,11.33-50.3,9.05-19.19,4.21-56.92,9.15-61.31-16.3,4.41-34.22,14.35-56.7,3.73-92.73-3.15-10.68-20.95-50.14-28.92-55.99-4.93-3.62-12.61-1.18-11.99,5.56.3,3.31,17.34,33.14,20.44,41.5,12.05,32.48,14.46,66.24-1.22,98.39,0,0-14.68,20.9-30.69,24.93-22.83,5.75-58.76,2.74-82,1.2-4.34-.11-8.74.22-13.06,0,0,0-47.34-2.36-39.94-16.35,34.2-31.5,79.91-84.62,62.44-134.34-1.8-5.12-10.51-25.38-16.47-23.87-10.13,2.56,1.73,25.18,3.29,32.16,5.31,23.78-3.65,44.1-15.85,64.02-26.62,30.75-59.08,61.15-102.88,60.42-31.18-6.36-59.51-28.85-79.97-53.12-10.53-12.49-27.78-35.09-18.57-51.53,22.36-5.18,46.93-12.28,66.38-24.68,5.89-3.75,17.95-11.65,15.93-19.84-1.65-6.7-17.5,2.82-20.32,4.38-9.17,5.08-18.47,8.12-28.35,11.55-10.87,3.77-21.6,8.9-33.11,9.21-25.37.67-33.23-27.51-39.67-47.13-6.79-20.69-13.99-44.37-12.53-66.42,2.93-44.28,46.96-47.48,81.63-39.23,10.62,2.53,30.47,13.05,38.51,13.87,11,1.12,8.58-9.45,1.49-14.68-10.76-7.94-24.32-10.77-37.25-12.88-10.8-1.76-21.46-3.83-32.33-5.25-11.14-1.46-22.58-3.3-32.34-9.22-25.32-15.35-30.87-55.21-1.85-69.87,25.32-12.79,101.35-12.56,129.11-4.87,27.44,7.6,56.26,33.91,64.15,61.6,3.97,13.92,1.28,42.73,15.86,49.48,15.17,7.02,1.2-23.11,15.88-28.17,31-10.7,67.1,27.06,88.15,45.1,11.96.59,7.33-1.63,7.54-6.93-3.41-18.79-18.19-27.94-34.48-37.3-20.49-9.92-41.19-18.67-57-35.61-7.09-7.59-8.88-13.29-14.87-21.78-.81-1.15-4.31-7.7-4.79-9.02-.56-1.55-.64-3.22-.68-4.87-.42-18.27,2.82-36.47,10.44-53.12,6.39-13.96,15.42-26.41,24.47-38.73,12.81-17.43,25.16-35.09,33.06-55.38,1.96-5.02,10.86-27.44,5.53-30.78-2.45-1.54-7.57,0-9.69,2.13-2.6,2.61-14.77,34.96-19.21,42.84-6.23,11.06-14.91,20.19-21.51,29.93-12.68,10.79-21.14,51.38-38.55,65.27-12.37,7.39-31.25,2.23-33.85-10.76-2.68-13.4,11.19-34.89,15.24-43.08,3.24-7.07,6.31-14.22,9.04-21.51,1.85-4.95,8.9-19.09,5.77-24.15-1.36-2.19-4.46-3.09-6.78-1.96-1.53.75-2.6,2.18-3.57,3.58-10.15,14.69-15.96,31.91-24.93,47.34-8.97,15.43-20.18,35.22-37.83,37.93-6.04.93-10.04,2.25-19.43-7.01-4.28-4.22-.14-15.5-.45-21.51-.05-1.05-.23-2.19-.97-2.94-1.88-1.92-5.03.17-6.74,2.25-5.98,7.23-10.76,15.36-15.16,23.62-2.63,4.93-5.11,10.07-9.02,14.06-6.4,6.54-15.99,9.21-25.13,8.87-14.87-.55-28.97-8.52-38.45-19.99-21.41-25.93-17.38-62.68-12.3-93.57,4.98-30.27,13.05-61.28,26.61-88.93,1.23-2.51,2.52-4.99,3.9-7.42,9.56-16.81,27.79-30.7,33.4-48.26,9.17-28.71,8.1-48.48,34.69-69.83,10.2-8.19,16.08-12.74,28.13-5.34,18.68,11.47,30.11,25.06,52.7,33.85,33.45,13.01,97.95,16.94,96.32-33.45-3.16-.59-5.4.6-8.16,1.64-28.2,30.85-78.21,17.91-107.96-4.86-8.06-8.68-17.26-15.22-27.59-19.64-29.55-51.62,36.97-119.67,74.35-150.2,20.78-16.98,68.74-47.14,95.88-37.18,23.93,8.79,45.41,75.23,55.37,98.15,3.81,6.02,10.3,6.93,11.3-1.34,2.05-16.87-15.49-55.46-23.74-71.14-5.79-11-24.56-35.88-23.82-46.48.88-12.58,21.94-26.89,31.9-33.55,27.53-18.4,66.29-36.97,98.57-20.92,1.08,10.98-.49,22.21.3,33.19,1.16,16.09,6.41,44.02,10.23,59.99,3.88,16.17,16.38,14.92,16.01-1.18-.7-31.02-16.42-69.59,1.5-97.17,5.07-4.25,10.79-7.47,16.85-10.09,47.6-20.62,179.64-41.29,204.42,19.9,9.3,22.96,7.95,90.48,4.1,115.94Z"/>
  <path class="cls-1" d="M955.78,816.07c5.14-7.57-2.5-8.64-8.9-8.22-33.35,2.16-63.18,41.74-83.35,63.77-21.28,23.25-64.41,48.5-85.76,11.41l18.01,7.31c41.96,12.13,66.32-36.64,92.18-59.61,9.3-8.26,24.25-18.99,36.06-22.73,8.89-2.82,36.21-10.19,38.07,2.73,1.2,8.36-5.83,5.2-6.32,5.34Z"/>
  <path class="cls-1" d="M554.04,812.8c-.82-.53-6.7.72-2.47-6.55,3.31-5.69,20.02-2.38,25.69-1.16,14.66,3.16,28.99,12.12,40.48,21.58,30.02,24.72,60.09,85.19,106.98,59.65l.78,4.88c-12.29,11.84-26.03,12.61-41.93,6.82-40.21-14.64-58.18-67.87-105.08-85.99-5.88-2.27-22.41-8.94-24.47.79Z"/>
  <path class="cls-1" d="M1349.35,321.24c-21.89,38.83-111.69,76.26-137.18,22.86,6.22.81,11.6,6.9,17.35,9.6,21.8,10.24,48.04,7.92,69.58-1.87,15.66-7.11,26.01-19.74,39.94-28.65,2.94-1.88,8.9-7.55,10.31-1.94Z"/>
  <path class="cls-1" d="M297.64,345.74c-12.4,30.75-52.19,27.21-78.32,18.71-17.97-5.84-47.91-26.95-57.22-43.21,11.03-4.19,21.36,11.17,29.53,17.01,27.05,19.37,58.32,29.88,90.79,15.94,5.49-2.36,9.72-6.39,15.22-8.46Z"/>
  <path class="cls-1" d="M666.72,972.84c-6.42,9.56-19.65,17.58-21.09,27.09-2.78,18.31-1.5,23.88-14.89,39-11.56,13.05-48.8,35.91-60.38,13.93,2.63-6.55,5.96.74,10.71,1.56,13.54,2.34,36.63-9.52,44.77-20.39,10.87-14.49,7.5-24.81,10.23-40.4,1.91-10.92,14.23-12.72,22.74-17.71.8-.47,8.86-10.62,7.9-3.09Z"/>
  <path class="cls-1" d="M843.1,972.84c5-.89,16.08,5.56,20.15,8.43,18.95,13.37,9.32,20.73,13.63,38.63,4.89,20.29,34.55,38.89,54.87,34.24,6.86-1.57,5.56-10.32,9.33-2.91-4,7.91-6.77,10.98-16.38,10.65-23.6-.81-50.22-21.65-57.43-43.81-2.43-7.47-1.8-19.52-3.79-23.97-2.25-5.03-15.2-12.36-20.39-21.25Z"/>
  <path class="cls-1" d="M960.68,1041.43c2.53,15.49,1.43,26.13,15.79,35.66,14.65,9.72,25.04,6.84,40.53,8.47,24.61,2.59,50.54,10.99,67.8-13.09,1.13,7.02,3.39,8.95-4.04,14.68-20.94,16.17-38.41,4.41-58.9,3.25-20.12-1.14-34.82,6.39-53.8-9.8-14.83-12.65-11.42-22.72-7.39-39.16Z"/>
  <path class="cls-1" d="M552.41,1065.93c-2.85,11.53-18.3,22.58-29.73,24.98-13.27,2.79-21.66-.89-33.05-.53-7.14.22-15.68,4.24-22.97,4.94-12.67,1.21-42.43-1-41.8-18.81.08-2.2,1.74-3.59,1.8-4.04,8.41,15.54,27.12,17.76,43.26,16.32,14.7-1.31,23.95-2.6,39.25-3.17,16.05-.6,34.46-8.46,39.99-24.56l3.25,4.89Z"/>
  <path class="cls-1" d="M573.64,886.29c19.44-2.69,39.63.48,50.63-19.6,4.87,5.84,18.83,16.9,16.12,25.04-4.92,14.81-56.15-3.3-66.75-5.44Z"/>
  <path class="cls-1" d="M936.18,886.29c-19.16,4.1-37.87,14.03-59.19,9.35-18.16-3.99,5.95-23.7,10.2-28.95,6.25,7.29,11.21,12.9,20.79,15.96,10.34,3.31,18.47.42,28.21,3.64Z"/>
  <path class="cls-1" d="M1463.67,938.55c-13.22,24.87-28.36,19.08-51.5,11.49-11.36-3.72-21.32-9.43-31.79-14.76,1.05-3.38,4.82.1,6.51.84,17.35,7.52,43.9,16.57,62.46,10.16,5.48-1.89,8.73-6.48,14.31-7.73Z"/>
  <path class="cls-1" d="M1218.71,1095.33c13.61-6.34,36.44-4.2,39.19-22.86,1.68,1.49,12.54,6.92,13.06,9.01-10.53,14.97-35.82,12.78-52.26,13.85Z"/>
  <path class="cls-1" d="M865.96,229.79c-4.16-20.07-15.22-31.88-36.74-34.31-16.17-1.82-46.95,9.83-53.08-11.42,3.2-6.84,5.04,2.4,12.16,3.35,27.26,3.63,61.89-14.15,81.63,14.72,4.62,6.76,8.59,21.79,4.99,29.28-2.41,5.01-7.64,4.8-8.97-1.62Z"/>
  <path class="cls-1" d="M647.12,229.79c-7.22,4.37-13.71,9.95-12.97-3.83,1.3-24.29,16.36-38.31,39.94-40.24,20.03-1.64,46.72,9.21,61.22-6.56-4.28,28.25-34.79,14.32-54.69,16.35-16.47,1.68-30.24,12.97-35.22,28.6-.94,2.93-2.24,4.32,1.72,5.68Z"/>
  <path class="cls-1" d="M679.79,326.14c13.88-6.51,33.03-5.83,44.9-14.71,10.65-7.96,13.49-22.45,17.16-34.28.08,10.35.92,24.97-2.03,34.71-6.25,20.58-43.87,12.79-60.02,14.28Z"/>
  <path class="cls-1" d="M833.3,326.14c-14.79-1.44-49.6,4.9-58.8-8.98-4.52-6.82-4.53-21.79-4.89-30.22,4.23,3.46,4.19,9.34,6.79,13.63,13.33,22.01,35.2,17.7,56.9,25.57Z"/>
  <path class="cls-1" d="M864.33,229.79c-3.81,3.02-14.39-4.98-14.7-9.8,5.56,2.71,10.43,5.18,14.7,9.8Z"/>
  <path class="cls-1" d="M521.39,28.91c-1.1-5.33,6.92-4.05,9.77-6.53,1.15,8-4.55,5.47-9.77,6.53Z"/>
  <path class="cls-2" d="M1110.37,120.93c4.97,5.16,4.61,14.35,3.43,21.1-3.29,18.86-23.43,48.94-29.79,69.83-5.11,16.77-10.04,63.41,13.41,68.18,26.73,5.45,44.71-14.2,54.13-36.57,8.63-20.49,9.38-56.06,35.7-62.28,28.81-6.82,63.84,18.25,84.58,37.13,7.57,6.89,35.37,40.6,37.57,48.98,4.21,16,.83,35.77-13.39,45.51-3.68,2.52-32.86,16.76-35.7,16.73-5.08-.04-16.72-13.96-23.12-17.8-59.95-36.03-98.88,46.32-53.66,91.22,34.01,33.78,80.4,23.05,120.05,7.23,27.06-10.8,56.43-37.17,72.7,2.52,5.52,13.46,5.7,29.39,13.59,41.94,5.41,8.61,14.96,12.72,21.27,21.19,17.99,24.18,35.92,97.45,32.92,127.08-1.34,13.2-11.54,37.13-28.36,28.39-19.65-10.22-17.19-46.63-38.24-48.44-22.81-1.95-24.63,37.99-44.43,13.54-17.31-21.39-13.47-68.51-49.84-71.07-21.45-1.51-26.31,25.24-25.34,41.74.6,10.23,14.94,50.27-10.55,26.87-16.22-14.89-32.9-41.96-40.08-62.8-6.06-17.58-5.44-46.16-30.23-46.65-20.08-.4-19.38,16.94-16.66,31.48,3.56,19.01,13.16,49.75,20.07,68.12,11.88,31.57,38.72,61.96,31.05,98.15-4.35,20.55-31.28,28.56-47.14,37.79-11.13,6.48-20.11,18.44-33.8,17.65-2.99-14.19,17.88-27.17,8.91-40.77-6.98-10.57-20.91-3.14-30.21-10.61s-3.87-22.01-18.37-30.62c-19.55-11.61-41.76,6.29-50.63-24.49-4.3-14.91-5.65-59.64-30.6-52.8-21.26,5.83-62.73,53.69-73.72,73.27-14.15,25.2-17.74,49.63-27.87,75.01-10.52,26.34-20.22,19.85-38.7,33.16-18.97,13.67-7.13,40.68-20.62,59.4-12.53,17.39-49.64,31.13-39.44-3.52,3.59-12.21,14.3-20.49,15.87-34.75,2.45-22.32-9.37-50.52-4.57-71.53,1.22-5.36,11.55-15.05,15.04-20.89,13.37-22.38,4.94-39.22,11.58-60.28,10.38-32.93,71.66-54.02,99.3-73.8,47.7-34.13,114.37-112.27,66.39-170.31-49.3-59.64-148.49-12.34-199.16,22.82-14.64,3.52-19.23-4.07-13.89-17.15,13.33-32.65,67.87-25.26,80.9-51.38,6.62-13.27,2.29-28.03-10.35-35.52-19.6-11.61-61.9,1.31-64.85-29.87-1.96-20.69,10.03-30.1,30.12-26.85,10.02,1.62,22.88,14.73,31.89,17.1,16.91,4.46,34.39-3.77,40.43-20.1,13.46-36.4-16.14-78.79-50.24-90.94-9.24-3.29-24.56-3.92-30.94-6.63-11.8-5.02-14.16-30.96-12.67-42.01,7.01-52.05,66.86-48.67,106.13-41.65,15.8,2.82,54.54,10.74,56.79,29.76,3.5,29.58-28.38,108.04,22.15,115.02,57.54,7.95,38.3-76.39,59.56-95.3,13.57-12.07,40.72-1.86,51.61,9.45Z"/>
  <path class="cls-2" d="M612.49,58.79c31.94-2.63,73.18-.31,82.9,36.98,3.93,15.07,3.91,44.03-13.95,49.94-17.84,5.9-32.17,5.43-48.92,18.04-26.48,19.96-49.88,81.34-10.54,98.51,26.66,11.64,34.64-12.44,54.1-15.76,22.74-3.88,30.94,6.21,28.23,28.23-4.26,34.55-70.3,8.4-76.39,46.08-7.44,46,68.82,34.92,82.46,68.63,5.19,12.83,0,21.46-14.33,17.58-11.85-3.21-36.1-22.65-48.9-29.47-42.23-22.52-111.38-34.73-147.66,4.29-51.27,55.13,22.53,142.96,69.38,175.24,28.49,19.63,84.47,38.37,95.38,72.83,5.08,16.06.8,34.08,7.28,51.51,6.83,18.33,22.51,19.84,21.11,43.79-1.28,21.98-12.47,40.72-3.35,64.2,2.79,7.17,10.92,17.07,12.59,23.34,11.32,42.7-38.31,21.79-46.15-7.74-5.59-21.07,4.64-33.25-17.92-47.4-20.03-12.57-26.07-7.25-35.29-33.3-20.17-57-26.82-89.69-77.12-130.29-12.62-10.18-30.78-26.01-42.96-7.13-9.67,14.99-7.08,34.54-13.67,50.02-8.72,20.45-30.29,10.71-46.86,18.47-17.16,8.04-9.77,24.47-20.57,31.69-9.13,6.1-35.78-.16-33.16,18.35,1.24,8.73,26.93,42.04.2,29.29-8.61-4.11-55.96-34.31-60.99-40.26-25.89-30.58,10.89-76.71,22.49-106.6,6.71-17.29,12.28-37.17,16.62-55.24,3.77-15.7,15.51-47.83-12.1-48.06-23.48-.19-25.29,31.13-31.12,47.3-7.17,19.9-25.27,49.37-40.78,63.74-23.47,21.76-9.29-23.81-8.91-31.77,1.4-28.91-17.98-52.06-44.93-30.23-20.47,16.58-14.32,44.87-31.05,63.67-22.29,25.04-21.12-21.71-47.9-13.67-16.99,5.11-15.05,37.8-33.98,47.73-25.33,13.3-29.41-41.64-28.36-56.11,1.47-20.15,20.39-82.48,31.93-98.72,7-9.85,17.48-13.57,23.85-25.15,8.15-14.82,9.74-44.8,21.76-55,16.56-14.04,37.87,3.64,53.63,10.1,41.38,16.95,95.35,33.59,130.97-5.14,40.06-43.56,6.63-123.46-54.27-90.19-6.7,3.66-19.23,18.6-24.02,18.34-27.88-14.77-54.51-17.3-49.95-56.38,1.38-11.87,28.65-46.01,38.34-54.75,12.05-10.88,46.76-35.76,62.1-37.52,52.65-6.07,45.06,32.88,61.72,67.31,6.96,14.38,17.64,30.21,34.82,32.13,44.36,4.96,36.33-46.87,26.8-74.15-7.01-20.05-30.49-57.74-27.87-76.82.95-6.89,11.21-13.85,17.19-17.09,51.31-27.84,45.76,33.55,55.92,63.37,6.98,20.47,21.1,38.23,44.92,30.92,26.45-8.12,27.4-35.69,25.75-59.12-1.48-21.1-16.5-54.9,3.37-70.15,12.69-9.74,51.84-17.05,68.16-18.39Z"/>
  <path class="cls-2" d="M93.11,721.77c34.28-4.59,91.95,6.71,107.97,41.43,7.51,16.26,4.75,33.12,16.58,48.75,9,11.9,55.37,45.93,69.31,46.69,16.73.92,11.94-13.86,23.68-17.41,6.71-2.03,25.94,7.67,34.33,9.97,25.2,6.9,47.83,9.07,70.8,23.92,21.95,14.19,32.02,35.48,59.48,45.04,10.73,3.74,14.54,2.18,24.05,3.71,34.15,5.47,71.63,15.31,105.76,23.26,27.85,6.48,27.36,31.94,8.61,48.61-41.17,36.61-47.73-14.1-76.11-31.74-9.17-5.7-40.16-17.37-43.64-1.39-4.22,19.37,34.6,49.01,28.7,77.64-3.61,17.52-36.69,20.99-50.34,16.79-18.67-5.75-17.67-58.63-21.91-76.07-8.31-34.14-30.45-58.59-57.25-79.93-7.14-5.69-28.79-18.49-33.08-3.79-4.04,13.86,16.45,52,21.34,67.78,9.28,29.92,15.02,74.83-19.68,90.67-13.02,5.94-55,12.89-54.4-8.55.39-14,13.75-37.17,16.29-54.06,5.33-35.44-2.16-86.53-40.68-101.06-41.03-15.48-19.67,38.41-17.97,57.16,2.61,28.7-3.99,51.38-28.88,67.42-16.5,10.64-41.7,24.21-61.59,21.41-17.92-2.52-66.57-34.82-44.95-54.47,17.25-15.68,56.86-22.57,58.76-50.66,1.81-26.82-15.95-35.27-40.05-33.52-14.94,1.08-48.44,14.31-59.56,10.51-9.67-3.31-15.93-19.46-18.87-28.48-6.57-20.19-14.65-48.56,14.9-52.1,23.4-2.8,35.47,7.11,55.48,9.49,11.94,1.42,26.79,1.96,29.71-12.49,7.15-35.35-22.15-54.99-51.9-63.31-13.47-3.77-58.19-6.34-48.12-30.19,2.49-5.89,17.19-10.23,23.24-11.04Z"/>
  <path class="cls-2" d="M1386.58,721.83c13-1.19,55.75-2.56,55.92,16.64.08,9.59-6.86,13.38-14.79,16.33-14.07,5.24-30.88,5.83-45.67,11.49-23.65,9.05-44.43,29.78-40.7,57,4.26,31.1,47.31,7.9,66.19,6.06,13.02-1.27,35.89-.19,39.47,15.66,2.82,12.5-8.48,51.04-17.61,60.09-13.04,12.91-36.5-.46-51.93-3.61-25.38-5.17-56.28-4.84-54.31,29.78,1.85,32.42,61.74,41.89,65.15,60.76,3.29,18.18-33.86,43.36-49.98,45.73-26.23,3.85-76.21-25.03-86.96-49.37-14.75-33.39,6.09-60.76,1.54-89.73-2.85-18.13-30.52-5.47-39.1,1.5-44.02,35.75-24.25,101.75-8.31,147.03-6.6,22.02-46.14,15.13-60.81,5.41-29.6-19.62-22.02-60.69-12.96-89.17,4.84-15.22,23.49-52.2,19.3-65.78-4.22-13.66-22.48-4.19-30.14,1.05-50.59,34.6-56.72,63.71-65.67,120.5-4.4,27.93-4.49,41.7-38.16,38.57-20.91-1.95-33.74-11.44-27.83-34.33,4.06-15.73,24.84-37.51,27.92-50.46,5.06-21.31-17.52-20.27-31.93-15.62-25.07,8.08-41.92,48.67-56.44,51.35-16.23,3-43.86-19.55-44.85-36.74-1.67-29.17,27.14-24.43,47.44-29.27,20.66-4.93,42.43-13.43,63.23-16.79,16.54-2.67,28.02-.52,44.48-7.78,19.28-8.51,33.15-28.13,51.1-40.35,26.99-18.39,49.65-19.47,79.58-28.2,11.81-3.45,23.62-13.86,35.09-5.73,9.97,7.06,4.24,17.43,22.76,14.58,11.26-1.73,54.46-32.25,62.96-41.54,14.37-15.72,12.13-34.12,20.09-51.76,12.89-28.54,46.59-40.59,75.94-43.28Z"/>
  <path class="cls-2" d="M574.87,853.23c-4.07,3.92-38.34,1.39-47.36,2.45-4.35.51-12.81,2.69-17.24,3.99-12.14,3.55-54.17,29.13-49.2-1.84,1.81-11.27,12.84-6.27,20.35-12.32,10.67-8.61,4.78-33,29.42-34.36,14.16-.78,41.7,14.79,53.51,23.2,4.71,3.35,17.06,12.6,10.53,18.88Z"/>
  <path class="cls-2" d="M938.05,853.4c-4.82-7.69,5.57-15.44,10.7-19.06,12.49-8.82,38.32-24.3,53.54-23.23,25.52,1.8,17.93,30.09,30.71,36.33,7.74,3.77,20.52.99,19.13,15.01-2.25,22.62-38.23.4-49.34-2.75-4.59-1.3-12.74-3.5-17.21-4.02-7.56-.89-45.46,1.02-47.53-2.27Z"/>
</svg>