<?xml version="1.0" encoding="UTF-8"?>
<svg id="Capa_2" data-name="Capa 2" xmlns="http://www.w3.org/2000/svg" viewBox="0 0 1534.51 1166.22">
  <defs>
    <style>
      .cls-1 {
        fill: #c47781;
      }

      .cls-2 {
        fill: #ad6c51;
      }

      .cls-3 {
        fill: #fff;
      }

      .cls-4 {
        fill: #efccca;
      }

      .cls-5 {
        fill: #e4a1a6;
      }

      .cls-6 {
        fill: #a49f9d;
      }
    </style>
  </defs>
  <g id="Capa_1-2" data-name="Capa 1">
    <g>
      <g>
        <path class="cls-1" d="M1170.07,1087.17c-8.8-1.07-24.29-9.12-32-6.92-3.68,1.05-1.28,4.41.5,6.37,9.25,10.12,23.5,15.96,37.22,15.32,3.75-.18,15.28-1.7,16.49-5.39,4.08-12.41-15.64-8.58-22.21-9.38Z"/>
        <path class="cls-1" d="M391.3,1081.51c-10.19-.72-19.93,2.72-29.88,4.34-3.97.65-28.31.26-26.81,9.27,2.3,13.76,58.29,6.38,56.68-13.62Z"/>
        <path class="cls-1" d="M1533.35,583.44c3.69-21.76-1.66-40.29-13.13-57.89-5.06-7.76-8.66-10.77-6.26-20.49,3.19-12.89,7.99-12.13,5.91-29.75-1.59-13.54-10.1-35.74-16.82-47.26-10.72-18.37-32.45-16.75-50.2-10.29-27.78,10.11-33.06,17.65-65.79,9.74-4.92-3.29-36.07-9.12-37.36-11.07-2.81-4.24.91-11.43,4.38-14.4,6.28-5.39,19.7-5.73,26.27-10.14,4.92-3.31,8.96-14.67,16.49-18.48,18.59-9.38,40.99-7.92,60.43-15.34,3.77-1.44,7.61-3.22,10.12-6.39,3.44-4.35,3.67-10.56,2.04-15.87s-4.85-9.95-7.88-14.59c-6.22-9.52-11.85-19.42-16.84-29.64-4.71-9.65-9.53-20.3-19.08-25.21-14.11-7.26-40.32-.82-49.36,12.24-4.33,6.25-6.85,16.22-11.26,22.21-12.56,17.08-30.08,4.98-45.1,5.8-7.04.38-15.47,7.26-21.92.22-11.74-12.81,8.93-25.72,18.13-31.6,17.18-10.97,50.83-24.74,58.33-43.93,2.02-5.18,2.31-11.49.03-16.66-.78-1.77-11.83-17.98-13.51-19.57-10.66-10.13-29.06-19.43-40.8-29.11-1.25-1.03-3.92-2.9-5.32-3.41-10.63-9.73-22.59-18.93-34.25-27.65-26.66-19.94-53.81-40.95-88.86-43.68-5.88-.46-25.11,1.27-28.4-.73-2.11-1.28-4.07-8.72-5.85-11.31-29.71-43.12-86.79-59-137.59-54.95-6.44.51-29.81,6.77-33.27,5.66-2.16-.69-2.8-4.24-4.62-5.69-35.62-28.44-87.37-30.35-127.91-11.78-24.6,11.27-44.25,31.26-54.83,56.19-5.18,12.21-8.15,25.32-9.03,38.54-.47,7.08-.34,14.2.35,21.26.55,5.68,4.18,13.48,3.81,18.86-.14,2.12-6.32,5.14-8.12,7.47-16.11,20.75-16.11,58.77-14.83,84.32.64,12.92,3.04,28.89,6.53,40.07,1.72,5.5,6.87,12.23,6.44,18.07-.12,1.61-.78,3.12-1.43,4.59-1.4,3.17-2.8,6.34-4.59,9.31-1.39,2.3-3.01,4.48-4.02,6.96-.98,2.39-1.35,4.98-1.58,7.55-1.17,13.59,1.84,27.3.58,40.88-.44,4.74-1.81,10.39-6.88,12.08-4.39,1.46-8.7-1.05-9.52-5.61-3.46-19.08,3.91-51.73-7.26-69.55-1.01-1.6-6.93-4.81-6.89-7.61.03-2.31,6.22-7.99,7.06-10.02,12.56-30.41,12.15-109.34-11.07-134.96-1.58-1.74-6.28-3.12-5.16-4.27.16-.16,2.14.59,3.36-1.8,6.44-12.69,4.03-51.7-.59-65.52-24.09-72.07-127.1-109.38-183.41-49.21-8.77,9.37-13.42,17.13-15.65,30.23-1.77,10.42,2.87,24.55-11.66,26.31-13.48,1.63-14.7-20.4-18.89-28.49-.86-1.65-9.76-12.24-11.33-13.48-16.12-12.8-43.33-8.81-61.63-3.36-6.12,1.82-21.32,8.04-25.83,12.03-7.91,6.99,7.42,23.2-8.33,29.55-14.05,5.67-35.44-11.29-38.8,16.55-2.05,17.05,2.93,42.77,18.89,52.15,7.41,4.36,18.72,3.99,25.46,10.95,9.5,9.82,5.87,21.24,13.11,30.59,6.22,8.02,24.94,12.94,20.8,25.38-.63,1.89-3.37,2.05-4.16,3.44-4.94,8.66-5.63,18.83-7.35,28.48-.49,2.73-1.13,5.73-3.34,7.41-1.26.96-2.87,1.34-4.45,1.45-7.05.48-13.47-3.99-18.53-8.92-5.06-4.93-9.61-10.66-15.9-13.88-5.42-2.77-11.9-3.4-17.75-1.74-2.28.65-4.51,1.64-6.88,1.66-3.99.03-7.54-2.76-9.7-6.11s-3.24-7.27-4.63-11.01c-4.42-11.94-12.28-22.58-22.38-30.32-3-2.3-6.23-4.38-8.69-7.25s-4.09-6.77-3.17-10.44c.46-1.81,1.49-3.42,2.25-5.13,3.93-8.81,2.17-25.83-7.06-31.03-7.44-4.19-15.67-.04-23.14-.03-18.53.02-43.28-6.86-58.18,10.15-1.93,2.2-6.58,10.05-7.98,12.7-2.43,4.59-2.98,12.82-7.48,16.99-5.94,5.51-17.76,5.59-25.04,8.46-13.31,5.24-19.63,18.04-30.37,24.98-15.86,10.27-39.28,9.36-51.47,28.64-2.98,4.71-9.77,17.37-9.65,22.43.22,9.59,15.63,13.3,19.44,20.09,4.78,8.5.16,16.99,1.18,26.38,2.41,22.14,24.42,29.07,34.43,47.12,1.16,2.09,2.23,10.11,1.83,11.54-2.38,8.46-.46,14.48-7.29,23.04-11.35,14.22-38.13,11.21-49.34-1.64-7.08-8.12-10.04-27.96-20.5-34.85-6.03-3.97-15.63-1.99-21.24,2.23-8.47,6.38-15.1,17.11-21.31,25.55-3.44,4.67-8,9.79-9.93,15.31-1.27,3.64-1.38,7.59-1.15,11.4.1,1.59,1.08,4.77,1.45,7.27-13.27,15.45-17.23,47.37-19.64,66.42-3.88,30.72-2.16,62.16,5.27,92.23,1.08,4.35,2.28,8.74,2.22,13.22-.09,7.34-3.5,14.19-5.14,21.34-3.09,13.53.6,28.44,9.64,38.96,2.38,2.76,5.16,5.34,6.48,8.74,3.26,8.37-13.29,32.63-13.97,44.29-1,17.12,3.46,34.68,11.84,49.58,1.62,2.87,10.21,16.15,10.21,17.15,0,1.19-6.68,12.3-7.97,15.3-4.44,10.29-7.84,29.82-5.1,41.22,1.37,5.67,3.4,12.77,4.77,20.23,4.36,23.63,9.85,51.41,27.17,68.9,3.05,3.07,16.87,13.47,17.28,14.81,1.99,6.5-.42,22.11.31,30.28,2.17,24.45,22.98,54.02,44.11,66.56,4.64,2.76,23.42,9.01,24.12,10.13.98,1.52-.13,11.4.36,14.93,4.93,36.39,73.29,71.97,107.1,76.43,6.06.8,16.15-1.13,21.26,1.67,2.01,1.09,6.96,10.88,9.98,13.7,20.17,19.03,57.81,28.91,85.08,27.03,49.25-3.4,101.43-51.87,96.88-102.64-.7-7.82-3.27-6.56-4.75-9.85-7.71-16.9-16.54-32.69-27.29-47.34-2.91-3.97-5.18-8.39-8.72-11.97,15.68,6.35,31.36,13.7,48.83,13.16,34.54-1.09,111.51-43.85,127.23-75.19,14.7-29.28-1.27-50.4-19.21-72.3-5.5-31.67,22.31-40.3,48.88-35.72,24.71,4.26,68.25,14.16,91.73,21.88,34.08,11.22,19.38,47.93,22.88,74.68.08.64,2.53,8.79,3.18,11.42,3.9,15.58,10.01,25.85,28.27,25.74,52.31-.33,12.82-85.97,42.98-107.1,12.13-8.49,61.44-16.56,78.65-20.41,18.93-4.25,34.23-12.3,54.28-4.8,18.76,7.02,24.63,26.39,13.21,42.98-13.28,19.29-22.42,20.97-19.29,49.01.78,6.96,8.67,20.3,13.16,26.18,21.21,27.73,96.43,66.55,131.45,63.36,12.18-1.11,23.08-7.63,34.41-11.45-12.69,13.62-17.85,31.55-29.17,45.74-32.55,56.44,31.93,120.42,86.73,124.61,26.85,2.04,63.46-7.14,83.63-25.56,3.09-2.83,11.07-15.32,14.18-16.43,4.93-1.75,20.23.36,27.26-.41,18.62-2.01,47.34-19.47,62.56-30.67,21.08-15.51,40.03-31.68,36.01-60.83,11.45-2.16,24.81-8.98,34.18-16.09,15.68-11.89,32.3-37.87,34.21-57.53,1.12-11.5-4.63-25.05,3.72-34.64,4.15-4.77,9.76-7.99,14.42-12.26,11.68-10.69,16.41-26.79,20.63-42.05,5.08-18.34,10.17-37.11,10.78-56.24.32-9.9.02-21.04-3.46-30.45-1.88-5.08-10.48-13.79-9.41-19.29.88-4.59,6.73-7.73,9.48-11.01,5.17-6.15,6.78-14.54,8.6-22.13,4.03-16.75,7.63-31.1,2.1-48.18-2.61-8.05-6.63-15.64-11.83-22.31-1.75-2.24-2.87-4.11-1.14-6.92.96-1.57,2.44-2.73,3.82-3.95,5.86-5.15,10.49-11.7,13.39-18.94,2.11-5.27,3.31-10.98,2.79-16.63-.23-2.55-.81-5.06-.81-7.62,0-8,5.53-14.62,6.85-22.39ZM775.98,910.9c.64,6.19-.7,11.07-4,14.65-4.72,23.68-17.78,7.95-15.97-8.88,2.65-29.54-2.25-54.71-14.84-81.16,4.41-6.12,7.74-12.23,10.01-18.31,0-.01,0-.02.01-.03,4,2.77,14.21.94,14.48-3.63,0,0,0,0,0,0,1.93,2.42,5.03,2.56,9.32.44,2.04,8.46,6.37,15.04,13.29,20.4-14.32,23.88-13.54,49.63-12.31,76.53ZM749.64,814.99s0,0,0,0c0,0,0,0,0,0h0ZM1506.78,601.55c-2.11,1.55-3.67,3.43-4.72,5.65-.24,36.52-15.99,33.05-43.29,19.35l-38.66-8.28c.39-14.57-8.49-16.02-21.07-16.35l-29.33,2.01c-50.4.18-83.6-42.4-108.11-81.23-42.3-69.01-102.95-36.09-65.57,33.09,7.71,18.29,14.26,36.96,20.5,55.77,5.11,15.37,6.66,27.96,5.31,43.39-5.26,4.75-5.34,21.25.05,25.82,4.95,20.41,7.99,26.73,23.29,41.77l2.6,7.4c5.23,29.05,18.06,53.65,49.3,59.59,23.12,4.39,41.53-14.35,39.59-36.14-6.83-8.25-9.85-23.11-.82-30.78,4.29-10.81,5.94-32.45-2.4-41.1-8.07-32.97,30.67-36.89,54.66-38.28,51.39-2.96,122.89,10.42,105.04,78.06-4.1,15.51-10.4,31.54-27.55,34.34-14.21,1.93-38.7,7.64-44.6,22.54-3.84,9.72,5.01,14.49,13.47,9.9,70.27-38.41,55.67,42.4,40.89,84.94-16.46,47.41-46.28,31.44-78.73,11.35-5.86-3.22-14.18-7.25-17.23,1.24-5.13,14.26,30.83,32.78,41.33,36.03,15.16,6.71,24.35,23.06,15.45,37.45-3.3,24.15-22.41,40.29-42.71,50.99l-.69,3-2.09-2.91c-3.61-.91-31.34-.51-36.3,0-.88.08-1.37,1.76-1.67,2.91l-1.21,3.28,13.06,16.15c12.8,16.46-7.09,32.12-19.96,41.45-13.42,9.75-54.17,36.52-68.61,20.32l-20.63-32.65c-11.6-11.19-21.7-23.26-30.33-36.16,5.86-14.34,16.35-25.66,31.44-34,17.77-19.07-2.04-26.95-21.77-12.36-16.74,12.38-42.66,36.47-30.69,59.04,13.34,13,30.44,29.85,38.64,46.82,19.48,40.34-33.02,59-65.24,56.6-33.76-2.5-72.67-26.54-77.02-62.19-3.85-31.62,15.11-40.4,42.69-30.64,6.4,1.01,16.8,1.7,22.5-1.58,22.65-13.05-23.78-21.56-32.14-20.84-20.67-6.88,8.25-26.11,18.96-27.4,41.17-6.45,69.44-28.56,78.91-69.62l4.36-3.67c56.46-27.65,8.2-70.81-30.1-84.58-17.13-13.29-30.83-30.36-41.11-51.2-26.47-46.89-97.68-23.75-97.48,26.78.2,48.81,35.08,67.17,73.42,87.24,6.66,3.64,28.19,18.72,28.81,27.06.42,5.76-6.97,15.29-11.38,18.7-12.71,9.85-63.07,33.87-78.24,34.41-31.86,1.14-84.97-27.48-107.85-49.17-22.41-21.23-10.27-36.6,6.79-56,28.19-39.26-14.84-89.46-59.44-80.74-26.42,4.69-52.54,10.94-78.32,18.78-15.87,3.94-37.53,5.73-44.34-12.49,0,0-3.14-1.05-3.13-1.05-1.92-16.09,8.3-20.87,14.79-32.53,3.65-6.56,6.87-14.68,9.83-21.07,2.26-4.86,3.4-10.84,7.43-14.85,1.29-.61,1.32-1.09,0-1.46,2.98-1.69,10.1-7.77,11.65-10.19.49-.77,5.69-12.4,5.83-13.11,1.08-5.74-.27-12.15-1.46-17.48,1.1-.9,1.83-2.03,2.1-3.43.47-2.44-9.63-21.31-12.49-23.96-.49-5.92,1.54-14.15,7.77-16.09l26.25-2.92c30.02-4.14,45.29-24.91,52.92-52.56,2.65-27.44,12.59-50.39,33.52-69.47,19.47-16.89,38.23-34.48,56.29-52.78,12.23-18.24,25.13-36.04,38.7-53.39,20.75-23.61,23.25-61.75-9.96-75.16-5.34-2.16-14.93-5.99-18.84-1.22-6.2-1.43-12.74-1.46-18.94,0-1.87-2.36-8.2-.76-10.2,1.46l-4.56-2.17c-58.74,12.96-110.33,46.34-159.74,79.13-1.36.9-1.64,2.87-1.76,4.59l-5.42,1.97c-13.5,10.39-26.7,21.24-39.61,32.53l-32.8.88c-18.39-20.28-44.29-37.88-68.06-52.67-18.68-11.62-44.29-27.05-64.56-34.59-2.57-.95-5.38-.81-8.06-.55.73-4.22-5.62-6.76-8.74-4.37-3.33-6.51-14.94-11.11-21.85-8.74-2.56-3.3-7.52-4.89-11.65-4.37-.69-1.24-1.19-1.3-1.46,0-6.4-5.52-19.64-8.01-28.65-9.32l-3.51-2.38c-9.69,1.57-19.13,1.85-28.32.85-1.32,3.33-6.36,4.4-9.52,2.98-23.82,16.13-27.3,31.61-18.05,59.51,15.24,45.95,44.1,77.06,83.85,104.43,30.14,21.62,44.53,49.65,48.4,85.2,7.91,39.63,43.56,52.96,79.52,54.92,11.12,2.77,4.1,18.85-.34,25.32-12.66,14.29-21.32,26.95-11.44,45.93,2.08,3.99,8.94,13.77,13.32,12.66-.63,5.58.82,8.49,4.37,8.74,3.82,9.75,4.98,18,8.03,27.65,1.49,4.7,5.82,19.08,7.93,22.28,2.88,4.36,19.43,13.31,24.82,15.6l-2.91,1.29c-2.69,11.07-20.41,9.42-29.59,8.35-29.25-7.37-58.64-14.09-88.19-20.2-43.41-9.44-86.23,38.64-61.06,77.49l19.37,29.69c7.2,6.55-7.46,25.38-13.38,31.22-17.18,16.95-58.92,38.02-82.1,44.27-14.03,3.79-21.1,3.74-34.44-.25-13.46-4.02-28.5-10.71-41.37-16.61-65.37-29.95-30.87-49.97,19.81-76.1,27.39-14.26,46.77-40.22,45.17-71.94-2.52-50.27-68.25-72.87-96.47-28.64-16.41,33.35-35.16,54.09-70.24,67.81-24.92,15.78-39.72,39.34-14.34,62.5,15.14,6.84,21.8,16.4,24.94,32.43,11.35,31.36,42.59,41.27,71.69,48.75,42.04,15.48,25.93,26.26-7.66,31.81-24.94,9.98-5.1,25.23,12.31,18.55,27.24-11.06,50.4-8.9,46.71,27.08-5.98,58.19-82.65,80.66-129.47,52.37-43.31-26.15-.2-66.52,23.48-88.24,24.45-22.63-33.1-76.76-50.81-69.55-19.14,7.79,10.34,27.35,18.6,32.12,9.59,9.01,21.07,20.09,8.02,31.63-21.17,16.23-33.84,38.74-45.38,62.56-8.18,10.65-46.27-6.83-55.97-12.84-22.9-14.22-54.92-36.74-24.51-61.09,4.41-4.36,5.34-7.89,2.78-10.58l-2.07-2.91c-9.46-.75-25.41-.77-34.87,0-.87.07-1.36,1.76-1.67,2.91l-.91-3.43c-14.27-5.34-25.26-14.68-33.59-27.58-24.48-37.86-12.23-56.26,26.21-68.69,5.9-3.49,15.53-11.27,18.39-17.51,12.41-27.09-25.12-7.79-33.98,0-27.71,15.14-48.98,9.15-59.53-21.61-14.34-41.87-30.54-123.48,39.57-86.36,13.83,5.75,20.64-4.33,10.52-15.63-10.57-11.82-25.72-14.39-40.53-16.41-28.71-5.08-36.34-61.89-22.99-81.69,22.81-33.87,108.8-39.24,142.91-21.97,10.16,5.14,14.71,13.24,12.85,24.45-5.91,21.44-5.47,38.48,3.09,59.22l-.46,5.44c-23.58,63.32,59.54,61.24,75.63,15.07,2.97-14.24,7.54-27.48,13.72-39.73,24.2-17.83,22.68-45.06,20.02-71.64-.24-24.38,8.43-47.88,17.56-70.22l-1.27-4.43c2.38-.95,4.2-3.66,5.42-6.61.38-.85.69-1.73.96-2.63.1-.33.2-.65.28-.96.18-.65.33-1.31.44-1.94.07-.33.13-.64.18-.96,1.24-.57,1.26-1.06,0-1.45,1.83-3.09,3.59-6.53,5.18-10.17.02-.02.03-.05.03-.08.07-.11.11-.26.18-.39.11-.28.23-.56.34-.85.28-.62.52-1.24.77-1.86,1.37-3.51,2.58-7.17,3.46-10.81.03-.03.03-.05.03-.08.03-.13.07-.28.1-.42.08-.31.15-.64.21-.96.05-.21.1-.42.13-.64.03-.13.07-.24.08-.38.6-2.81.98-5.59,1.14-8.3,5.67-4.46.15-18.78-3.4-24.33-19.73-30.82-59.1,4.46-71.48,25.67-26.55,39.95-54.45,80.53-107.57,81.69l-29.38-2.03c-11.53-1.44-25.48,5.75-19.94,17.8-22.14.38-44.83,8.25-64.9,16.95-20.56,5.57-27.13-33.43-9.8-41.53,34.77,6.91,62.84-3.67,88.12-27.39,19.91-18.67,3.63-34.46-17.1-21.59-15.22,15.84-49.78,39.64-71.1,22.9-7.2-5.65-9.44-16.89-9.77-25.72-.67-17.9-.44-35.93.64-53.65,2.87-6.11,3.85-16.36,1.03-22.67,0,0,0,0,0,0h0c4.1-1.18,2.56-7.58,0-10.19l3.22-1.24c3.38-13.4,9.17-25.28,17.36-35.64l1.23-6.56c-2.8-14.43.46-22.7,12.01-30.88,10.4,28.68,41.23,49.77,71.46,40.18,20.7-9.53,38.76-9.44,60.35-3.55,27.13,3.97,24.16-19.99,2.5-26.43l-22.71-7.03c7.37-18.32,6.49-40.78-5.96-56.63-10.43-10.62-20.08-21.75-28.94-33.37l-.55-21.35c-.69-11.21-7.44-18.56-16.78-23.85-2.41-6.29,26.99-17.94,32.71-18.32-4,23.27,38.1,54.12,56.85,54.4,34.92.53-.93-36.24-17.26-39.08-6.3-3.43-17.31-14.09-11.58-20.55,3.17-12.75,6.47-24.89,21.15-28.01,21.67-2.31,30.41-13.1,39.08-31.78,2.82-11.3,43.72-5.82,44.83-3.72-4.58,20.07,4.88,32.77,22,42.31,3.99,2.94,6.59,7.22,8.69,11.65,9.22,26.25,22.28,48.8,53.53,41.42,19.42,23.55,67.72,41.19,77.9.36l2.39-17.74c17.26-19.73,14.93-38.68-5.3-54.98l-3.2-4.33c-6.38-31.03-18.95-46.73-49.62-54.95-2.31-1.35-4.09-15.46-3.09-16.04,24.97-2.82,43.28-14.48,45.16-40.66,4.7-4.26,44.79-13.38,45.12,3.18,5.11,32.37,39.01,54.09,68.87,34.38,7.09-4.68,18.65-18.91,14.66-26.9-.5-19,4.67-36.06,22.26-45.58l1.05-3.93,4.71.89c49.64-19.91,106.44,6.37,118.86,59.78,2.9,12.48,7.9,43.33-7.67,48-20.83,2.45-39.29,6.33-56.28,19.91-8.11,6.49-24.77,23.11-6.66,27.1,19.67-15.11,76.26-43.39,86.28-5.11,4.35,16.61,7.14,86.45-4.83,97.49-1.9,1.75-4.07,2.7-6.52,3.26l-40.81-1.08c-9.76.2-43.34,5.84-34.45,20.01,16.34,1.9,32.78,2.25,49.31,1.06,32.95,1.25,40.22,6.08,40.9,38.07l-.93,28.94c2.89,20.21,15.17,33.63,37,31.76,20.51-1.76,28.59-10.29,31.12-30.19l.27-35.05c1.77-28.89,11.68-32.25,39.13-33.86l32.44,1.23c6.75.34,26.88.58,21.64-10.15-6.52-13.35-58.65-12.05-71.34-10.09-9.24-.39-13.93-2.58-17.45-11.54-6.42-16.35-6.95-85.67,1.35-98.62,13.24-20.66,52.26-6.25,69.29,2.78,7.94,7.5,27.04,18.19,22.17-.84-5.54-21.65-46.56-31.77-65.89-34.57-14.91-1.14-15.19-10.11-14.63-23.71,2.26-55.53,35.27-87.67,90.11-91.69,26.12-1.91,72.31,8.23,65.36,42.78-5.37,14.59-16.02,64.6,13.92,37.75,12.33-11.06,14.65-28.14,14.16-43.62.38-8.14,3.05-10.94,10.86-12.78,18.21-4.31,43.55-1.63,61.85,2.19,24.2,5.05,81.87,29,59.13,61.55-12.04,13.15-55.05,63.2-42.91,82.85,5.94,9.61,18.44,2.43,21.01-6.81,7.81-24.14,28.87-51.47,48.43-67.49,21.88-17.93,62.82-1.98,82.8,13.46l35.32,27.96,7.79,2.34c2.11,7.31,15.71,16.13,23.31,16.02h0l.58,4.08c12.01,8.11,23.38,16.98,34.1,26.61,11.42,11.2,5.43,15.38-5.8,22.83-15.76,8.93-31.29,18.32-46.6,28.15-44.5,26.18-9.01,83.16,34.69,62.83,28.99,12.04,61.51-.33,70.74-31.31,2.32-4.57,19.07-11.84,21.42-4.18l7.08,18.23c3.03,2.02,17.65,27.19,16.69,28.56-27.53,5.35-53.01,15.12-76.45,29.31-1.31,6.84-4.63,11.05-9.97,12.6-20.59,3.19-29.68,13.45-38.01,30.87,7.59,17.59,14.45,23.45,32.52,29.54,39.57,13.33,84.28,24.3,121.74-.46.9-.69,5.65-1.79,5.84-1.56,6.55,7.77,15.58,34.74,12.68,45.57-10.19,21.51-9.6,37.61,8.82,53.98l3.36,10.73,3.22.62,2.43,22.25c-3.24,2.45-.34,7.26,2.18,8.04l-.59,22.76ZM1310.01,687.52c2.89,14.63,2.82,28.8-3.18,42.74-.77,1.8-1.64,3.62-1.69,5.57-.04,1.61.49,3.18,1,4.7,1.63,4.79,3.25,9.58,4.88,14.36,5.3,15.6-13.67,14.12-22.35,8-8.83-6.23-14.22-17.69-15.06-28.29-.76-9.62-.75-20.09-6.68-27.7-2.78-3.57-6.63-6.15-9.83-9.35-6.99-7-10.6-16.81-11.84-26.63-3.31-26.05,2.76-50.86-6.04-76.64-6.01-17.59-24.66-48.36-27.44-64.36-.9-5.18,1.83-11.48-3.28-12.75,7.3-9.21,16.76-.21,22.23,6.91,6.29,8.18,12.3,16.89,19.12,25.33,20.41,25.26,38.69,49.21,70.11,63.14,9.31,4.13,19.66,8.03,29.85,8.75.38,5.94-5.8,3.54-9.05,4.77-11.97,4.51-22.84,12.4-28.7,24.01-6.08,12.04-4.56,24.7-2.05,37.44ZM1187.31,918.47c-1.34-3.72-4.82-4.59-6.04-6.32-2.58-3.63-1.78-3.97-6.27-9.03-22.73-25.61-78.36-37.84-82.86-75.89-2.34-19.66,1.91-31.34,20.23-39.16,6.37-2.71,12.2-2.69,18.52.41.73.36,11.12,7.54,11.64,8.02,12.36,11.48,20.17,36.22,35.32,49.87,14.03,12.66,33.04,17.85,47.41,28.33,7.82,5.73,13.06,11.71,10.62,22.28-1.93,8.3-15.58,13.55-21.44,19.34-7.9,7.79-7.86,17.72-12.07,27.24-5.67,12.75-26.06,28.95-39.83,31.55-1.42.26-8.02,1.27-7.92-1.36l18.21-11.66c6.92-7.43,13.67-13.52,15.17-24.15.62-4.44.77-15.43-.69-19.47ZM340.74,941.87c1.18,2.03,2.72,3.88,4.23,5.69,4.09,4.88,7.97,10.28,12.68,14.51,2.24,2.01,4.53,3.94,6.94,5.74.9.67,7.75,4.48,7.76,5.21.05,5.46-11.66.68-14.47-.47-6.33-2.58-12.07-6.42-17.45-10.58-5.35-4.14-10.56-8.79-13.52-14.86-4.04-8.29-2.9-18.99-8.4-26.57-5-6.91-20.1-13.24-24.81-20.35-13.03-19.71,28.86-34.95,40.71-42.31,6.39-3.98,17.69-12.74,22.65-18.14,14.04-15.29,19.38-36.17,37.32-48.6,10.16-7.05,22.71-6.3,31.86,2.17,2.74,2.54,5.01,5.55,7.25,8.54,1.82,2.43,3.67,4.9,4.69,7.76,1.28,3.58,1.16,7.49,1.02,11.29-.14,4-.3,8.07-1.6,11.85-.81,2.37-2.06,4.57-3.34,6.73-15.47,25.9-43.55,34.66-66.61,51.82-11.27,8.39-21.34,18.96-26.68,31.96-2.03,4.94-3.34,10.53-1.64,15.59.36,1.06.84,2.07,1.39,3.03ZM281.85,680.56c-1.3,5.71-3.62,11.43-8.03,15.28-2.09,1.83-4.57,3.16-6.7,4.94-6.06,5.06-8.68,13.14-9.87,20.94-1.19,7.8-1.27,15.83-3.58,23.37-3.51,11.45-15.55,21.45-27.76,21.88-7.53.27-10.65-5.74-8.09-12.65,3.38-9.12,10.25-14.47,4.92-25.35-2.02-4.13-5.39-7.52-7.14-11.76-2.73-6.63-1.1-14.22,1.38-20.95,2.48-6.73,5.8-13.29,6.45-20.43,1.6-17.48-12.76-37.09-27.77-44.59-2.06-1.03-17-5.11-15.56-7.01,32.17-7.41,59.46-27,81-51.52,13.28-15.12,23.84-35.14,36.99-49.7,3.36-3.72,15.37-13.98,20.04-9.13,4.12,4.28.34,17.98-1.78,23.08-8.17,19.62-19.31,36.95-25.24,57.68-4,13.99-6.56,28.39-7.6,42.9-1.03,14.32,1.56,28.94-1.64,43.02Z"/>
      </g>
      <path class="cls-5" d="M1157.53,493.15c-3.1-9.36,7.89-19.82,14.47-25.83,33.08-30.26,73.64-12.43,100.47,16.91l34.66,39.25c14.46,14.47,31.98,31.19,46.59,7.57l3.37,1.42c22.02,19.55,46.33,29.74,72.92,30.56,13.07-7.37,22.22-6.95,35.53.11,11.42,1.14,23.15,1.12,35.2-.05-1.68-6.88-1.01-11.74,2.01-14.6,2.47,7.79,2.4,15.79,3.76,23.75,1.73,10.13,4.03,20,.55,30.1-1,2.91-2.45,5.7-2.91,8.75-.39,2.58-.06,5.21-.14,7.82-.27,8.87-5.99,19.54-15.48,21.04-6.59,1.05-21.76-7.88-29.75-10.35-6.56-2.03-38.54-7.46-40.54-8.99-3.65-2.79,3-12.45-9.77-14.99-13.66-2.71-33.44,2.61-49.04.97-26.72-2.81-53.43-21.74-70.76-41.33-18.29-20.66-38.95-63.43-63.78-74.65-30.89-13.96-41.88,14.62-36.11,40.47,2.07,9.27,7.12,16.55,9.95,23.59,11.61,28.87,31.64,64.71,25.61,96.95-1.53,8.21-5.22,16.79-2.12,24.54.8,2,2.02,3.81,2.77,5.83.87,2.33,1.07,4.84,1.52,7.28,2.78,15.23,16.21,20.03,21.68,32.88,3.42,8.03,4.43,17.55,7.34,26.15,5.24,15.47,14.93,28.69,30.6,34.94,14.58,5.82,30.53,5.81,41.37-7.17,5.72-6.84,7.94-16.82,4.48-25.03-1.4-3.33-3.66-6.31-4.57-9.81-1.95-7.5,2.63-14.37,5.47-20.96,3.4-7.87,4.53-15.83,2.81-24.33-1.54-7.61-4.99-14.8-5.82-22.53-1.09-10.25,4.44-18.31,13.06-23.3,21.34-12.36,73.71-12.01,97.46-6.56,52.96,12.15,71.51,45.07,49.49,95.21-11.55,26.29-31.71,16.41-52.53,27.58-4.79,2.57-20.78,14.81-11.84,20.28,4.35,2.66,20.91-8.93,27.61-10.33,18.41-3.85,34.45,1.86,36.48,21.95,2.22,21.93-3.76,56.09-11.56,75.78-3.91,9.86-7.03,18.31-15.39,25.39-24.35,20.63-51.16-6.18-73.97-15.45-1.47-.6-3.17-1.14-4.59-.43-2.35,1.18-2.04,4.64-1.06,7.08,1.32,3.3,3.2,6.37,5.55,9.05,10.36,11.82,27.02,14.22,39.55,22.85,5.29,3.64,9.93,8.5,12.23,14.49,1.7,4.42,2.06,9.24,1.9,13.97-.08,2.33-.3,4.72-1.34,6.81-.7,1.39-1.73,2.59-2.48,3.96-1.36,2.48-1.72,5.37-2.34,8.14-3.13,13.95-14.67,23.4-24.85,32.52-5.23,4.69-11.28,8.83-18.19,10.11-2.83.52-5.73.55-8.61.57-10.22.06-21.26-1.25-31.38.01.93,3.72,6.05,7.98,8.57,10.97,2.81,3.33,5.67,6.74,7.67,10.63,4.58,8.89,1.65,17.42-4.37,24.82-13.3,16.22-46.15,36.13-66.45,41.34-7.77,1.99-15.48,3.62-22.19-1.98-9.4-7.84-13.9-22.02-20.71-31.92-9.32-13.55-21.41-25.44-32.25-37.76-.77-.88-1.58-1.83-1.7-3-.1-.97.3-1.92.71-2.8,7.61-16.34,22.32-23.93,34.22-36.45,1.9-2,3.79-4.4,3.68-7.16-.15-3.88-4.42-6.55-8.29-6.38s-7.33,2.38-10.49,4.63c-8.73,6.19-16.86,13.22-24.25,20.96-4.31,4.51-8.43,9.36-10.95,15.06-2.53,5.71-3.31,12.43-.9,18.18,1.51,3.6,4.14,6.59,6.73,9.51,13.27,14.98,33.28,31.64,36.83,52.47,3.48,20.41-6.27,31.12-23.12,40.27-43.76,23.74-104.75,4.56-125.03-41.01-4.11-9.23-5.54-30.26-.53-39.25.42-.76,9.89-9.31,10.74-9.77,12.77-6.91,25.56,1.49,38.45,2.13,4.58.23,20.11-.08,18.11-7.79-2.53-9.77-34.92-6.07-41.45-12.56-3.75-3.73-2.74-11.52.29-15.76.56-.78,11.27-8.66,12.62-9.37,16.7-8.83,36.48-8.76,52.78-18.64,15.28-9.26,27.2-24.2,32.24-41.4,1.07-3.65,1.87-7.43,3.71-10.76,6.97-12.6,24.36-12.26,28.92-27.12,6.59-21.47-10.89-37.27-27.71-46.76-15.89-8.96-26.46-10.95-40.14-25.4-19.72-20.84-26.15-54.18-56.72-62.72-28.51-7.96-59.74,16.44-61.97,44.52-1.43,18.07,4.19,34.85,14.8,49.3,16.08,21.91,51.71,32.36,73.28,50.46,4.35,3.65,13.66,12.72,13.93,18.2.35,6.93-7.1,16.79-12.45,21.08-11.92,9.54-64.18,33.46-78.67,34.94-30.95,3.18-98.4-32.32-117.28-56.43-7.66-9.79-9.64-21.11-3.53-32.3,4.57-8.38,17.18-20.35,21.46-29.57,7.65-16.46.5-36.06-10.02-49.03-36.23-44.64-108.75,3.82-152.81,2.91-10.56-.22-24.15-7.71-25.5-19.06-1.64-5.59-1.9-10.57-.78-14.95,11.84-16.74,21.63-34.73,29.37-53.98l3.46.48c3.6-1.57,10.47,6.02,12.86,9.18,2.73,3.61,9.88,16.64,10.68,20.29.81,3.71.42,11.06-3.53,12.55-7.63,13.93,10.05,10.15,18.36,8.13,44.93-17.1,96.78-31.92,131.23,13.73,18.83,24.96,31.15,63.25,16.28,92.74-11.11,13.81-14.8,21.22,1.12,32.88,25.13,18.41,61.33,39.43,91.28,19.12,2.48-1.68,10.39-10.25,10.15-12.62-.07-.72-8.01-10.25-9.19-11.16-36.31-19.78-59.74-45.84-65.78-88.03-12.78-89.33,79.12-134.38,138.6-67.6,23.29,30.33,47.31,55.77,80.6,75.62,28.79,18.46,51.28,64.81,21.89,91.55-17.46,7.48-20.51,13.21-9.17,17.19,46.26-4.27,60.84,28.85,17.36,49.87-5.32,2.09-24.59,24.23-23.1,26.82,4.83,8.42,14.76,22.24,23.36,27.3,11.77,6.92,27,2.73,25.68-12.6-7.89-29.31-1.15-50.96,31.73-55.95l21.55-1.29c16.73-.58,41-25.99,23.89-39.38-24.56-11.37-66.32-34.74-49.45-68.41,7.93-15.82,25.09-19.18,41.28-15.94l34.91,7.33c11.5,1.54,24.67-1.63,27.94-13.89l4.96-17.41c2.03-2.87,3.89-2.78,5.26.47-4.77-2.4-4.56-20.48,0-23.3-2.43,1.97-5.93,2.65-10.5,2.06-63.29,18.4-72.41-41.84-25.98-77.01,17.07-7.39,55.9-28.25,31.54-49.95-27.09-24.13-84.17-13.02-79.91,31.52,1.77,41.85,2.42,93.48-47.28,107.16-36.03,9.92-75.95-20.49-93.77-49.98-10.53-18.97-21.42-37.76-36.42-53.3-5.95-4.67-17.23-40.53-15.61-46.12.38-1.3,1.43-2.13,2.59-2.71-4.23-.98-4.12-4.78,0-5.83,2.5-11.16,3.05-30.44,0-37.86l-3.12-3.13c-1.9-12.99-4.95-25.74-9.17-38.24l2.1-3.77c-8.08-26.37-12.48-53.74-13.2-82.11-1.56-2.92-1.53-5.16.09-6.73-4.02.07-3.77-1.5,0-2.91Z"/>
      <path class="cls-5" d="M338.86,545.58l2.19,4.09c-1.73,35.2-1.98,70.85-.74,106.95.03-5,3.99-10.1,7.29-4.73l2.98,3.42c4.91,37.2-8.77,63.55-32.65,90.81-22.51,36.48-50.99,79.79-98.44,81.32-43.52,1.41-61.25-41.83-62.91-79.3,2.71-37.82,2.72-76.25-45.78-72.95-33.75,2.3-56.95,29.98-22.03,51.06,34.81,11.2,71.37,57.72,35.41,87.05-13.96,4.53-28.92,5.09-44.88,1.65-4.56,23.12,3.62,57.75,33.77,51.93,33.73-11.08,87.1-19.63,76.71,33.77-6.76,16.6-20.03,28.38-39.82,35.34-32.5,12.6-15.11,44.27,12.56,47.06,27.19.58,57.42,2.31,55.1,38.04-11.77,41.27,18.92,44.61,41.77,15.25,9.31-11.96-3.48-23.53-12.58-31.07-17.82-11.48-49.34-35.27-18.49-53.65,2.53-1.51,5.79-1.93,8.67-2.26,23.49,1.88,31.48-1.96,23.96-11.52-46.05-21.7-24.3-79.23,12.71-99.34,34.4-16.1,54.07-42.95,75.67-72.89,105.42-102.73,200.14,57.29,101.68,137.59-20.38,9.77-55.51,30.96-16.66,44.24,37.88,12.95,69.74-11.8,95.78-37.3-5.26-6.87-9.58-14.86-12.95-24-9.08-7.57-7.25-28.11-4.45-38.94,19.51-75.5,76.03-97.05,145.12-64.79,23.58,8.73,31.4,5.72,23.43-9.04,2.92-7.06,4.15-14.86,3.71-23.38.1-4.31,1.74-6.43,4.92-6.36l3.93,2.24,8.28,29.03c2.85,17.53,12.58,23.88,27.9,30.76l.68,3.51c.49,11.49-13.65,13.24-22.58,13.24-47.62,0-129.15-54.38-158.76,10.08-3.54,7.7-7.04,19.49-5.08,28.08.13.56,3.85,7.01,5.07,9.76,5.91,13.3,14.74,20.87,21.27,33.76.56,1.11,3.22,6.15-.03,14-7.22,17.45-15.5,23.93-31.13,34.12-22.51,14.68-63.89,37.55-90.65,34.64-10.89-1.18-58.02-21.19-68.7-27.44-18.19-10.63-31.31-24.37-13.64-42.94,15.44-16.22,41.5-24.7,60.24-37.67,23.33-16.14,37.37-43.55,30.93-72.64-7.17-32.44-50.62-51.82-78.07-29.82-15.49,12.41-23.75,37.65-36.86,52.72-17.88,20.55-49.16,23.65-64.83,45.14-3.77,5.18-7.3,12.33-7.36,18.86-.07,8.66,6.83,18.64,13.69,23.87,2.38,1.81,5.82,2.53,8.5,4.61,16.26,12.58,10.65,19.88,19.49,35.79,8.3,14.94,22.14,24.6,37.87,30.65,12.44,4.78,55.18,11.92,55.59,28.69.41,16.87-41.07,11.91-44.43,24.03-.94,3.36,2.4,5.79,5.2,6.66,17.47,5.39,40.4-18.37,59.08.66,11.26,11.48,6.61,39.93-.77,52.8-25.27,44.06-88.5,57.57-130.11,28.53-18.7-13.06-20.78-34.18-8.68-53.23,9.03-14.22,24.36-24.13,33.95-36.1,6.27-7.83,7.18-15.01,4.04-24.42-4.4-13.19-30.81-38.73-44.43-41.53-3.49-.72-9.32-.79-10.37,3.62-2.14,8.98,18.16,18.87,23.81,23.74,4.99,4.31,13.66,13.95,14.72,20.35,1.98,11.94-16.58,22.96-23.52,30.56-11.42,12.52-16.95,27.1-25.38,40.47-2.7,4.29-1.63,7.62-7.57,9.6-12.53,4.19-33.63-4.1-45.24-9.66-14.83-7.11-45.61-27.83-48.59-44.68-2.91-16.44,13.79-21.35,18.31-34.99h-38.6c-1.05,0-13.97-6.31-15.78-7.52-20.08-13.36-36.09-41.34-33.05-66.05,2.16-17.57,28.55-21.59,41.34-30.03,4.45-2.94,13.3-10.59,15.19-15.39,9.32-23.61-24.27,1.68-31.43,4.98-15.82,7.3-32.27,13-47.26.45-7.17-6-14.13-19.96-16.72-28.84-6.12-21.02-12.46-47.19-10.66-69.54,1.82-22.6,18.73-29.45,39.68-23.55,6.4,1.8,20.34,12.38,25.29,8.45,9-7.15-12.16-20.32-18.33-22.69-9.9-3.79-22.57-2.8-31.59-7.74-21.1-11.54-26.95-55.06-19.67-75.6,15.25-43.03,116.52-48.64,150.42-30.36,27.06,14.59,8.17,36.12,10.07,59.84.78,9.76,6.99,18.64,7.4,26.21.54,9.97-6.22,18.01-4.3,31.86,2.12,15.27,18.82,21.15,32.49,19.63,9.41-1.05,27.68-9.97,33.61-17.37,13.13-16.4,11.49-42.68,22.06-55.13,1.71-2.01,4.54-2.9,6.4-5.25,22.65-28.63,11.25-40.96,13.04-72.89,1.15-20.47,10.8-47.4,19.01-66.19,4.44-2.74,6.46-8.19,7.28-13.11.13-.45-.13-1.01,0-1.46,2.47-2.89,4.24-6.45,5.32-10.66l1.96.47Z"/>
      <path class="cls-5" d="M62.09,510.63l3.28,1.14c2.73,15.69,14.92,15.16,27.68,11.41,25.51-11.49,55.28-24.24,77.18,1.47,16.8,29.33,31.72,19.77,51.15-.34l37.61-41.85c21.78-22.01,40.85-36.43,73.57-28.65,16.43,3.91,37.79,18.69,38.35,36.42-2.5,8.71-6.26,17.34-11.28,25.88-12.86,24.85-17.64,50.55-13.94,78.53,2.14,9.72,3.42,19.74,1.91,29.57,4.26,10.42,4.26,19.65,0,27.67-3.95-.02-4.08,1.73-4.45,5.02-.67,6.06-.2,15.59,0,21.99.06,2.05,1.84,7.66,1.53,7.92-3.81,3.23-5.57-3.64-5.83-6.53-2.7-30.62-1.47-61.28-1.37-91.72.05-15.23-1.88-27.76,1.37-43.01l-1.55-1.3c3.34-7.69,5.31-15.51,5.92-23.46-.49-7.94-1.08-13.53-4.74-20.75-6.02-11.88-16.73-14.71-29.17-10.96-27.74,8.35-51.36,57.8-71.64,79.83-17.99,19.54-41.41,35.02-68.71,37.62-14.79,1.41-34.99-3.79-47.58-.96-7.65,1.72-9.41,8.8-8.32,15.71-17.12,1.72-33.99,6.35-50.27,11.63-7.05,2.29-16.12,8.64-23.23,7.29-1.51-.28-10.1-7.1-11.03-8.34-7.6-10.22-6.42-35.34,8.1-39.68,34.68,6.53,66.09-3.88,89.39-30.03,13.53-15.19-2.19-23.47-16.6-13.69-14.95,10.15-22.49,24.35-44.07,27.3-25.59,3.5-38.71-3.38-41.12-29.5-2.43-26.37,2.3-53.22,4.35-79.35.26-3.36-.27-6.84,0-10.19,4.69-4.25,7.4,2.14,7.72,7.05-.72,8.92-1.44,17.48-2.18,25.68-6.06,1.94-5.23,20.68-.47,6.58,4.99-1.35,7.57-4.21,7.72-8.58,4.94-3.71,7.36-9.54,7.26-17.48,2.33-7.48,17.36-9.41,20.74-3.05l2.03,2.68c-.45,3.57-5.66,26.24-7.03,26.5-.73.14-1.5.07-2.29-.05-1.06,4.47-1.06,9.32,0,14.56Z"/>
      <path class="cls-5" d="M765.67,813.54c4.04-.9,7.58-2.47,11.64-2.92.58,4.59,3.44,11.42,6.08,15.05,2.03,2.8,8.03,6.66,8.27,7.66.29,1.23-8.05,17.53-9.17,21.04-8.52,26.59-.34,49.51-5.21,70.27-.24,1.03-2.34.98-2.74,2.15-1.86,5.35-1.1,12.86-9.69,13.42-6.53.42-9.57-5.82-10.47-11.25-4.46-26.84,4.19-43.19-7.51-71.42-1.75-4.21-8.23-18.79-8.56-21.79-.66-5.85,11.16-13.72,11.36-20.75,6.8.84,9.74-.06,16.02-1.46Z"/>
      <path class="cls-5" d="M343.23,520.82c.06.92,1.53,2.4,1.35,6.27-.21,4.63-4.34,12.02-5.72,18.49-3.34,2.9-2.31,10.95-7.28,10.19l11.65-34.95Z"/>
      <path class="cls-5" d="M331.58,557.23c-.03.11,1.3.98,1.09,1.91-.59,2.52-3.28,14.51-8.37,11.2,2.24-5.12,4.07-8.58,7.28-13.11Z"/>
      <path class="cls-5" d="M587.96,31.5c17.33-9.28,35.19-10.24,54.42-7.08,51.66,8.51,80.55,54.29,73.64,105.25-2.33,17.15-18.77,13.22-32.83,16.69-6.29,1.55-13.7,3.92-19.54,6.68-7.49,3.54-29.04,18.48-27.71,27.67,1.4,9.6,11.07-1.45,14.16-3.35,21.55-13.29,69.92-32.64,79.64,2.92,5.61,20.5,5.75,73.31-.9,93.28-2.3,6.9-5.28,10.5-12.62,12.13-15.69.87-31.51-2.28-47.25-.62-4.44.47-32.48,6.45-27.12,14.37,24.65,3.55,46.64-2.97,71.69,3.34,15.45,3.89,18.45,14.56,19.88,29.64,1.25,13.13-2.27,35.06.24,46.11.24,1.05,2.28,1.11,2.73,2.18,6.62,15.66,15.39,19.47,32.89,17.77,49.47-4.82,7.12-75,40.14-93.85,5.49-3.13,24.09-4.94,31.2-5.22,7.66-.3,47.3,4.64,48.85-2.14,1.65-7.17-28.78-12.12-34.16-12.43-12.32-.72-35.71,4-45.09-.06-11.99-5.2-12.75-21.19-13.96-32.65-1.86-17.55-2.75-65.7,5.36-80.41.48-.87,8.22-7.74,9.24-8.36,15.42-9.42,49.22,1.94,63.92,10.26,6.46,3.66,10.31,10.55,19.05,9.34.35-16.33-21.29-27.94-34.98-32.73-8.3-2.9-41.02-7.34-43.75-11.96-1.08-1.82-2.14-7.89-2.42-10.32-2.03-17.58.9-34.82,7.2-50.25,17.11-41.91,60.36-58.7,103.89-54.98,17.66,1.51,47.64,13.06,50.07,32.94,2.07,16.94-9.63,37.73-7.14,50.85,1.77,9.36,15.46-1.54,18.69-6.06,1.13-1.58,8.74-15.16,8.94-16.08,1.88-8.76-.98-28.78,5.34-33.73,13.37-10.47,57.42-5.29,73.9-1.47,27.03,6.27,84.12,31.22,58.4,66.78-11.13,15.38-26.01,27.64-35.42,46.11-3.75,7.36-16.23,39.1,1.59,35.12,7.5-1.68,11.36-21.73,15.72-29.15,6.57-11.18,36.09-46.77,46.67-52.69,8.37-4.68,18.88-4.48,28.36-3.8,38.31,2.74,65.98,32.97,93.9,53.94-.91,2.9-3.88,3.87-8.93,2.91-1.66,1.62,13.09,28.16,17.7,29.19,17.39,5.59,13.77,24.94,3.92,36.13l-25.28,24.98c-14.72,12.89-18.19,40.48-1.56,53.36,10.94,9.16,20.3,19.38,28.07,30.66l-2.26,3.35c-2.54,4.64-16.92-.73-16.02-5.83l-11.06-9.53c-39.08-40.2-22.61-63.91,9.61-98.23l.32-3.77c13.93-7.27,11.19-13.7,1.22-22.78-18.49-17.45-38.01-35.58-59.24-49.83-30.61-20.55-49.88-12.9-66.54,20.08l-16.78,39.04c-18.42,28.14-61.02,23.08-78.11-4.3-19.86-31.81,5.56-67.9,25.36-92.44,32.96-42.91-57.44-52.71-64.28-15.74,1.14,41.1-41.33,53.33-72.19,32.96-22.72-15-21.34-34.15-15.35-57.18,4.44-21.25-17.56-22.59-33.37-19.93-31,5.21-66.29,36.48-23.45,56.17,33.69,13.86,64.41,38.65,60.08,79.19-4.8,44.91-59.64,23.91-83.66,8.36-13.21-4.63-13.92-2.58-15.32,10.33-3.48,31.98-1.29,46.72,34.88,41.64,86.72,12.11,65.54,101.71-17.17,78.69-16.96-1.12-23.19,10.4-18.68,34.56.61,4.88-.67,8.29-3.84,10.25-4.34,15.03-11.72,36.47-28.75,39.64.68,5.27-10.44,11.91-14.57,8.74-6.21,9.3-26.32,7.77-36.88,5.48-10.55-2.29-29.48-9.18-31.59-20.04-1.72.38-3.37.21-4.8-.86-16.12-11.99-20.05-47.39-18.7-66.43-1.06-8.86-8.01-11.66-16.02-11.68l-31.94,3.47c-44.04-.15-63.82-43.91-23.17-70.87,17.69-11.73,34.11-11.44,54.26-10.09,15.42-.37,16.73-13.32,17.41-25.77.76-13.85,1.3-36.29-18.81-26.73l-34.55,15.71c-23.91,10.2-44.68,1.05-47.94-26.08-.69-5.72-1.68-16.1,3.66-19.05,6.35-32.95,31.92-48.88,60.14-60.87,46.61-25.36-14.41-61.06-45.45-47.02l-3.35-1.79c-12.26.58-23.77-1.36-34.52-5.82-3.29,7.18-5.74,14.67-7.35,22.49l-3.29.8c-6.16-22.03,4.33-39.35,23.31-49.51Z"/>
      <path class="cls-5" d="M1282.45,166.44c1.1.52,2.16,1.11,3.15,1.7,20.55,12.26,39.91,26.52,57.71,42.51,2.8,2.52,5.74,5.4,6.23,9.14.53,4.11-2.08,7.95-4.92,10.97-8.49,9.05-19.86,14.75-30.98,20.26-11.12,5.5-22.5,11.17-31.05,20.16s-13.83,22.16-10.16,34.01c4.22,13.63,19.41,21.74,33.67,21.25,6.03-.21,11.97-1.67,18.01-1.69,7.31-.02,14.48,2.09,21.79,2.37,17.14.65,34.18-9.86,41.29-25.46,1.6-3.5,2.78-7.29,5.33-10.17,3.72-4.2,9.57-5.65,15.04-6.89,1.91-.43,4.01-.83,5.73.1,1.38.75,2.2,2.2,2.94,3.58,4.33,8.01,8.66,16.02,12.99,24.03,3.93,7.27,7.86,14.54,11.79,21.82.43.8.87,1.62.93,2.53.22,3.15-3.73,4.64-6.84,5.21-22.55,4.14-44.45,11.83-64.64,22.7-2,1.08-4.05,2.24-5.35,4.1-1.31,1.87-1.71,4.22-2.72,6.27-4.46,9.03-17.44,8.25-26.42,12.82-7.57,3.85-12.19,11.62-16.41,18.99-.79,1.38-1.6,2.86-1.53,4.45.08,1.74,1.21,3.22,2.29,4.59,3.58,4.53,6.92,9.97,11.08,13.97,2.78,2.67,8.01,4.15,11.56,5.42,13.87,4.97,60.85,16.91,74.32,16.64,11.3-.22,27.19-4.37,37.81-8.5,5.03-1.96,16.13-11.13,21.47-7.77,5.9,11.06,13.59,26.76,14.54,39.42,1.07,14.31-10.72,22.12-6.95,40.42,1.76,8.54,11.3,14.58,14.57,20.35,1.84,3.25,2.84,8.98,4.03,12.75l1.45,23.29c-4.7,1.57-2.67-5.22-5.33-5.88-4.95-1.23-20.27,2.39-28.73,1.36s-15.93-7.18-23.49-7.13c-6.2.04-10.87,4.92-16.09,5.75-23.6,3.74-52.87-13.99-70.62-28.29-1.91-1.54-3.95-.26-2.85-5.12.5-5.16,11.79-6.95,14.57-2.91,8.2-.76,16.55-.38,24.76,0,4.32-4,12.35-3.04,16.02,1.46,5.74,1.61,11.69.84,17.48,0l.05-3.19c15.85-19.19-11.16-41.1-29.94-45.38l-48.19-13.09c-41.37-7.94-99.42-63.58-42.74-94.16,10.85-5.85,22.22-10.42,32.1-17.93,1.13-.86,2.36-2.02,2.17-3.42-.26-1.95-2.82-2.44-4.79-2.45-12.06-.05-24.12-.1-36.18-.15-1.89,0-3.97-.08-5.39-1.33-1.06-.92-1.54-2.32-2.06-3.62-7.8-19.27-32.1-28.25-38.91-47.88-3.67-10.58-1.33-22.66,4.59-32.16,10.63-17.07,31.67-26.77,38.86-45.55,1.57-4.09,2.34-8.85.33-12.75-1.79-3.47-5.39-5.54-8.56-7.83-11.06-7.96-18.59-20.66-20.25-34.18,3.3-2.36,7.58-1.34,11.42.49Z"/>
      <path class="cls-5" d="M609.81,63.54l-.71,3.57c-4.29,2.2-7.67,5.71-9.65,10.08-10.63,59.46-60.45,110.28-114.38,54-20.21-14.17-32.88-4.49-15.24,15.59,10.33,22.92,20.74,47.33,26.32,71.72.91,7.93,2.18,19.11-4.97,24.13l-12.42,28.71c-18.38,40.54-45.01,55.88-88.75,42.22-45.79-14.3-84.86-38.44-105.98-82.18-12.45-18.36-43.26-5.57-53.23,10.14l21.28,14.29c28.79,20.53,33.6,58.25-5.03,69.85-12.03,1.3-23.36,4.16-33.99,8.56-3.73,4-9.07,14.5-2.57,18.15,1.98,11.48,6.84,19.51,14.57,24.1,59.13,12.23,40.58,60.9-8.15,73.69-17.17,4.51-42.42,2.29-59.73-1.62l-3.31-3.44c-2.9-.46-5.6.54-8.24,1.64-17.74-3.24-36.28-6.25-53.05,2.34l-4.26-1.06c.66,2.3-1.16,4.22-5.45,5.76l-10.25,13.48-3.24-.31c-26.26-3.34-14.31,7.12-21.81,19.32-.87,1.41-3.53,1.53-4.17,3.47-.63,1.89.22,5.7-.31,6.26-.3.32-4.26-.22-6.59,1.41-3.1,2.16-2.66,7.91-5.71,10.29-4.98.03-3.4-14.54-2.16-17.79.73-1.92,3.8-1.75,4.16-3.37.31-1.37-1.42-3.83-1.28-5.75.44-5.9,5.62-22.3-2.91-24.03-1.64-.33,12.28-30.69,14.19-33.15,1.24-1.6,2.61-3.13,3.47-4.95,1.98-4.16,1.05-9.02.46-13.59-1.26-9.67,6.42-25.62,16.63-28.6,4.04,7.88,6.62,15.74,12.28,22.87,11.79,14.86,30.01,25.28,49.48,22.34,16.18-2.45,29.84-11.53,46.8-9.88,7.16.69,35.85,10.3,38.57.24,4.93-18.21-40.03-20.85-40.39-25.87,4.95-8.68,6.18-19.09,5.45-28.97-.76-10.29-5.25-19.96-11.94-27.76-8.38-9.76-16.77-19.65-25.02-29.59-.65-.79-1.31-1.59-1.74-2.51-.61-1.33-.69-2.83-.77-4.29-.35-6.91-.23-14.03-1.07-20.9-.33-2.71-.84-4.73-2.13-7.2-.72-1.38-5.19-5.97-5.19-6.98-4.82-4.46-10.78-3.48-8.11-10.96,2.73-7.64,28.74-17,37.2-18.89,1.42,7.95,2.34,17.82,6.44,24.91,5.51,9.5,37.51,30.52,48.19,30.56,21.02.08,9.38-15.85-.26-23.17-9.45-7.17-21.36-9.39-28.83-19.23-1.92-2.54-5.86-10.61-5.09-13.49.28-1.05,2.35-.98,2.74-2.16,2.71-8.23,2.81-15.32,9.54-22.22,9.37-9.61,23.94-7.55,34.23-13.84,7.23-4.42,11.03-14.99,14.89-21.53,11.18-18.96,34.79-7.47,52.18-8.27-.73,11.04-3.55,18.4,2.61,28.7,4.95,8.29,16.35,11.97,22.18,19.01,8.73,10.54,12.48,33.02,23.98,42.6,2.86,2.38,11.27,6.29,14.93,6.9,6.62,1.11,14.44-1.97,18.27-.87,2.35.67,14.11,12.97,18.05,15.55,16.17,10.59,45.7,14.99,54.22-6.49,3.46-8.74,1.77-17.2,4.32-24.76,1.06-3.14,7.91-10.77,9.69-15.12,3.66-8.92,2.11-15.47-2.44-23.76-3.84-6.99-12.28-11.23-16.05-18.91-3.07-6.28-3.94-15.3-6.91-22.21-4.31-10.03-8.39-15.6-18.01-21.32-5.85-3.47-20.41-7.02-23.68-9.83-3.94-3.4-4.23-15.28-4.41-20.54,14.68-2.42,27.37-4.7,38-15.94,5.93-6.28,6.41-22.86,8.35-24.43,2.41-1.94,24.14-7.11,28.23-7.44,11.92-.94,17.54,1.37,22.07,12.53,4.36,10.74,3.4,16.31,11.98,25.89,9.75,10.9,22.21,14.11,36.78,11.99,18.11-2.63,26.35-14.43,31.7-30.2,1.6-4.71,5.67-24.93,9.69-26.09,3.16-.91,7.1,3.24,10.29,3.93,7.16,1.56,19.64-.74,25.18,4.69Z"/>
      <path class="cls-5" d="M1157.53,496.06c.35,1.8,2.53,3.84,2.82,6.63,2.83,27,4.5,56.51,10.29,82.2-3.64.47-2.86-2.1-3.66-4.28-7.98-22.01-17.05-43.77-15.11-67.63.29-3.54,1.69-8.44,2.48-12.15.45-2.13-1-5.3,3.17-4.77Z"/>
      <path class="cls-3" d="M746.74,555.77c-1.92,17.02-3.76,43.37,22.27,34.64,12.41-4.16,10.5-13.57,9.77-25.16-.42-6.62-3.76-12.34-4.33-14.84-1.85-8.12-2.12-27.83.06-35.8.26-.94,4.98-12,6.09-14.56,18-41.19,100.43-90.17,140.47-111.51,24.12-12.86,56.72-28.34,84.18-29.43,5.65-.22,13.89-.63,19.1,1.41,12.99,5.1,17.09,25.2,10.78,36.89-13.83,25.61-36.66,51.44-57.49,72.45-23.61,23.81-64.18,52.09-74.61,84.14-4.74,14.56-5.83,29.56-10.17,43.71-4.6,15-18.67,24.29-33.62,27.56-14.9,3.26-35.02.52-45.28,14.44-5.14,6.96-5.44,23.31-4.41,31.68,2.15,17.53,23.18,23.03,9.79,42.21-3.76,5.39-13.98,13.88-17.22,19.43-3.76,6.45-9.53,23.32-11.67,30.99-8.32,22.89-32.43,55.13-58.35,30.92-.28-.26-.16-.97.08-1.79-13.47-13.26-14.82-35.66-19.6-52.49-1.89-6.65-4.35-7.41-6.57-11.23-2.87-4.94-12.33-18.91-13.09-23.05-1.33-7.28,1.66-5.5,2.78-7.52,10.4-18.78,20.4-22.48,17.38-47.54-3.07-25.47-27.68-20.75-46.75-24.62-13.69-2.78-28.18-9.14-34.49-22.32s-6.4-24-9.6-38.47c-15.04-68.05-104.24-91.09-125.68-155.42-12.44-37.32-2.38-52.55,37.28-44.55,45.15,9.1,127.54,53.17,163.39,82.77,35.13,29,57.55,49.24,52.42,98.32-.84,2.26-1.81,5.18-2.91,8.74Z"/>
      <path class="cls-2" d="M770.04,482.96c-1.54,3.93-3.44,7.73-5.17,11.63-.79,1.78.11,3.57-2.82,2.92l-9.48-16,17.46,1.46Z"/>
      <path class="cls-6" d="M749.65,547.03c-.43,4.09,1.94,9.94-2.91,8.74.46-4.08-1.97-9.94,2.91-8.74Z"/>
      <path class="cls-5" d="M62.09,496.06v14.56c-1.31-5.55-2.12-10.02-1.44-16.02,1.65-.25,1.34,1.46,1.44,1.46Z"/>
      <path class="cls-5" d="M1278.43,340.24c-1.03-1.57-6.27-3.11-8.02-4.12-3.13-1.81-6.16-3.81-9.05-5.99-5.55-4.19-10.63-9.06-14.85-14.6-11.66-15.31-15.87-34.23-4.76-50.99,5.81-8.76,14.3-16.97,23.16-22.56,2.78-1.75,11.77-5.79,12.07-9.5-.7,8.74-10.15,15.14-15.18,21.96-10.48,14.21-17.6,22.75-12.96,41.85,4.44,18.28,19.77,29.01,29.6,43.96Z"/>
      <path class="cls-5" d="M1396.42,529.56h-24.76c11.16-1.67,14.24-.74,24.76,0Z"/>
      <path class="cls-5" d="M1429.93,531.01c-5.12,1.87-12.88,2.93-17.48,0,5.79.28,11.68-.2,17.48,0Z"/>
      <path class="cls-4" d="M1423.38,815.12c-14.38-.01-28.72-9.19-29.85-24.17-1.59-21.06,12.72-42.19,30.08-52.9,16.75-10.33,40.04-14.52,36.94-40.33-1.57-13.02-18.69-21.22-30.29-23.59-17.07-3.48-38.66-3.24-50.61,11.22-6.69,8.09-10.24,16.38-10.95,26.91-2.12,31.37,6.39,68.21-17.38,93.3-32.61,34.42-74.45,17.7-103.53-11.63-13.73-13.85-20.6-33.07-32.52-48.52-11.78-15.27-25.16-30.31-30.26-49.38-6.42-23.99,1.29-48.92-3.14-73.09-4.7-25.64-17.29-50.55-23.34-76.21-4.33-18.36-4.97-33.16-1-50.67-.13-.67-.14-2.27,0-2.91,3-13.48,22.96-32.17,36.07-36.03,28.3-8.31,51.66,5.13,71.57,23.8,15.85,14.86,48.59,62.5,69.32,64.69,16.98,1.8,14.75-9.77,22.6-13.15,3.31-1.42,10.71-2.34,14.57-2.91,8.25-.57,16.5-.57,24.76,0,5.41.38,10.58,1.19,16.02,1.46,5.74,1.59,11.71.88,17.48,0,12.53-4.58,7.66-25.06.65-33.41-25.46-30.32-92.48-20.03-126.86-58.85-4.36-4.93-14.49-19.24-15.06-24.98-3.39-34.48,29.72-35.79,51.46-51.91,2.66-1.98,8.58-7.16,5.84-10.08-7.24-7.73-26.98-1.94-37.71-2.75-4.79-.36-9.19-1.88-13.79-2.97-7.29-1.72-9.55-2.91-16.02-5.83-14.17-9.64-25.78-21.18-34.84-34.61-15.66-29.85,4.76-48.97,27.77-65.87l5.61-7.29c5.82-4.34,15.47-8.08,12.46-17.54-2.13-6.69-29.44-30.34-36.53-36.31-10.09-8.5-38.52-31.82-49.58-34.9-16.46-4.58-28.3-1.21-39.94,10.86-14.49,15.02-19.97,39.67-29.34,58.04-10.91,21.38-43.45,23.31-61.73,9.65-18.63-13.92-20.96-33.4-15.82-55.13,5.5-23.21,36.48-47.41,36.98-66.53.6-22.8-35.09-24.79-51.67-22.42-8.07,1.15-20.08,9.87-23.53,17.21-5.01,10.65-2.53,26.19-10.21,34.99-5.11,5.85-17.16,10.81-24.77,11.63-22.99,2.49-52.61-13.02-53.06-38.5-.31-17.61,16.52-43.29-13-48.06-15.77-2.55-35.23,2.27-48.02,11.85-18.9,14.16-26.78,30.32-3.53,45.51,23.83,15.57,49.3,18.79,61.28,50.8,15.67,41.9-6.28,66.9-49.13,49.19-8.35-3.45-35.06-22.53-42.12-12.97-4.26,5.77-3.72,31.13-2.86,39.01,2.8,25.75,19.34,16.87,38.4,18.41,19.97,1.61,48.79,15.21,51.61,37.23,4,31.25-24.25,40.44-50.18,38.53-9.15-.68-18.27-4.76-27.53-3.11-8.43,1.5-12.89,9.48-13.82,17.43-.76,6.56.37,13.17.57,19.77.07,2.16.01,4.41-.95,6.34-.63,1.27-1.62,2.32-2.38,3.52-1.45,2.26-2.07,4.94-2.84,7.52-3.95,13.26-12.44,24.88-23.65,32.94-3.55,2.55-10.74,7.23-14.57,8.74-23.07,9.11-50.81,2.76-68.46-14.56-10.28-10.08-19.09-28.67-20.37-42.98-1.38-15.4,6.05-35.9-15.27-38.6-14.72-1.87-30.24,5.77-47.48,2.31-11.27-2.26-27.95-13.4-30.15-25.19-5.02-26.91,23.63-46.69,47.36-49.53,11.21-1.34,25.3,3.28,35.77-2.12,11.23-5.79,10.52-27.22,9.73-38.29-1.13-15.87-2.96-23.11-20.7-17.82-21.17,6.31-57.19,36.97-75.53,7.7-4.71-7.52-6.27-21.11-4.21-30.38.23-1.03,2.41-.99,2.75-2.14,6.1-21.07,13.13-33.88,32.26-46.11,16.91-10.8,60.63-20.63,39.91-50.29-12.35-17.68-44.23-23-63.32-14.61-18.42,8.09-14.46,25.6-21.44,41.87-1.04,2.43-6.55,11.93-8.4,14.96-14.84,24.37-35.15,39.92-65.21,28.73-16.21-6.04-29.89-28.17-45.47-27.36-8.58.45-12.96,4.36-10.31,13.22,1.28,4.3,6.05,8.39,7.46,11.42,4.21,9.08,8.52,20.26,12.12,29.02,6.65,16.18,20.84,46.75,13.16,63.23-.56,1.21-2.57,1.32-3.23,2.95-22.16,54.68-40.39,91.62-108.4,65.45-32.15-12.37-60.45-26.82-80.51-55.28-4.55-6.46-13.28-25.58-19.87-29.32-9.59-5.44-28.93-1.92-37.73,4.2-2.33,1.62-15.71,13.49-15.28,15.25.31,1.28,18.57,12.25,21.73,14.74,9.21,7.27,20.28,17.8,22.78,29.65,5.14,24.34-15.48,35.94-36.03,38.35-11.81,1.38-25.91,5.01-29.3,16.4-2.2,7.4,1.22,15.19,4.56,22.15,2.25,4.69,4.61,9.52,8.6,12.86,5.66,4.74,13.49,5.62,20.48,8.02,7.39,2.54,14.42,7.33,17.58,14.48,3.67,8.3,1.36,18.32-3.87,25.74-23.91,33.95-65.17,22.77-99.36,20.83-23.75-3.52-43.05-9.57-65.55,2.91-2.32,1.29-4.27.84-7.36,3.57-1.6,1.41-10.55,13.38-11.58,15.36-2.97,5.72-5.78,29.11-7.28,29.13-1.08,4.46-1.08,9.32,0,14.56,2.47,10.46,5.09,16.71,16.73,17.53,23.56,1.67,43.81-24.45,73.94-12.79,17.69,6.85,19.79,22.49,31.76,29.41,12.5,7.22,28.93-9.13,37.83-17.38,23.48-21.77,51.45-68.67,85.21-72.09,29.07-2.95,50.86,8.77,63.35,34.93-6.19,1.03-3.91,5.83-6.2,10.55-11.99,24.73-21.44,38.09-22.91,67.38-1.05,21,4.3,36.58,5.8,56.04h.27c-.2,2.3-.21,4.62-.2,6.93.05,20.83,2.25,42.77-1.92,63.3-3.79,18.68-18.09,33.14-28.98,48.28-15.88,22.09-27.77,47.41-50.86,64.13-31.15,22.57-72.97,28.11-93.89-10.74-6.65-12.34-11.35-28.91-12.3-43.04-1.14-16.94,2.46-37.29-1.91-53.43-1.91-7.08-10.41-18.71-17.2-22.13-17.3-8.72-44.71-6.75-60.29,4.96-4.53,3.41-12.51,14.05-12.5,19.64,0,6.6,7.38,18.57,12.73,22.34,17.15,12.1,36.16,14.68,48.27,36.17,9.42,16.72,11.62,44.57-10.17,51.91-15.32,5.16-26.61-1.51-41.9-.38-4.72,20.7.76,56.35,27.09,58.08,21.19,1.39,46.63-16.19,69.04-6.53,16.01,6.9,18.27,23.16,13.48,38.36-5.68,18.06-23.2,22.78-37.35,31.11-2.8,1.65-15.06,9.61-16.35,11.33-4.35,5.8-3.62,12.85-1.67,19.34,2.79,9.29,10.43,14.92,18.97,18.89,19.74,9.18,53.71-4,62.87,23.06,4.71,13.91.4,17.73-.67,29.82-2.12,24.09,19.88,28.7,36.29,15.91,2.24-1.74,11.49-11.17,13.24-13.39,16.11-20.47-21.55-40.32-33.57-50.55-5.34-4.54-6.33-9.23-10.27-14.55-1.05-5.37,7.25-16.45,11.87-18.87,10.95-5.74,34.87,3.54,37.5-9.19,2.02-9.78-15.78-15-22.32-22.23-10.74-11.85-7.17-39,.34-52.03,13.58-23.58,36-32.62,57.01-46.48,26.75-17.64,38.28-50.97,63.57-70.43,26.74-20.57,61.54-25.82,90.31-5.83,49.73,34.54,39.25,111.57-1.43,148.69-8.78,8.02-24.73,13.74-33.5,21.73-19.4,17.67,3.71,30.23,20.79,34.48,32.65,8.12,69.43-18.7,90.59-41.34,1.39-5.29-2.05-4.25-3.31-6.65-3.52-6.7-6.5-13.66-9.79-20.45-.47-.97-2.6-1.03-3.36-2.81-2.38-5.59-2.82-16.11-2.44-22.23,1.17-18.67,15.43-51.76,29.09-65.57,23.09-23.34,55.28-26.92,86.29-19.25,11.41,2.82,22.23,8.15,33.63,11.18,5.51,1.47,13.08,4.09,18.86,2.88,9.09-1.91,3.78-6.38,3.3-13.37-.11-1.54.31-3.06.69-4.56,2.81-11.09,6.85-26.06,0-35.85-7-10-15.2-14.98-14.61-29.78.63-15.97,15.22-22.25,19.69-35.77,8.37-25.32-8.74-20.85-24.58-23.46-30.69-5.05-51.45-19.52-58.73-50.51-5.35-22.77-4.06-34.17-18.17-54.72-22.48-32.73-62.09-49.46-85.7-80.68-13.37-17.69-32.83-55.18-33.1-77.19-.43-34.76,34.39-41.07,62.31-36.07,7.25,1.3,22.78,7.91,27.6,8.08.49.02.97-.02,1.46,0,3.78,1.73,7.75,2.97,11.65,4.37,7.63,2.74,14.46,5.4,21.85,8.74,2.63,1.19,5.78,3,8.74,4.37,52.89,24.49,91.48,47.45,135.58,85.12,1.62,1.38,2.47,4.86,3.83,5.2,3.53.86,31.85.36,35.32-.82,15.58-11.16,28.5-25.56,43.77-37.07,39.89-30.08,117.2-73.94,166.06-81.55,3.75-.58,5.94-1.18,10.2-1.46,5.73-.37,13.21-.38,18.94,0,26.92,1.77,45.11,19.03,40.7,47.24-2.49,15.91-29.42,46.88-39.69,60.89-4.13,5.63-6.99,12.32-11.72,18.06-25.7,31.19-66.65,52.32-83.87,90.48-7.08,15.69-4.42,31.8-13.15,49.48-8.66,17.53-15.57,26.52-35.05,33.1-13.03,4.4-24.89,2.84-36.81,5.44-6.94,1.51-11.78,12.45-9.98,19.02,1.6,5.82,6.65,10.68,9.44,15.99,4.12,7.86,4,18.25,3.59,26.89-.03.53-.06,1.08-.3,1.56-.28.56-.81.96-1.24,1.41-2.05,2.16-1.9,5.35-3.04,7.94-1.31,2.97-3.98,5.19-6.64,6.92-1.81,1.18-7.24,6.28-7.98,8.31-.6,1.63,3.21-.42,4.07,1.09,1.85,3.25,5.21,5.64,7.82,8.24,4.68,4.68,7.04,10.03,9.14,16.28.42,1.26,2.54,1.06,2.78,2.09.48,2.02.46,9.03,0,11.07-.23,1.01-2.29.93-2.73,2.17-2.32,6.64-5.33,11.3,3.02,13.9,14,4.36,47.96-13.31,64.97-16.11,27.33-4.5,50.59-2.2,71.73,16.34,15.76,13.82,29.67,43.58,31.88,64.25,1.51,14.13-.3,25.49-6.73,38.05-.9,1.75-2.76,1.97-3.28,2.93-5.56,10.21-10.03,17.9.07,27.21,11.23,10.35,48.41,31.48,63.27,32.85,12,1.11,26.35-2.32,36.7-8.43,3.99-2.36,13.17-12.75,12.08-16.79-4.64-3.62-5.84-8.79-10.93-12.62-11.48-8.63-24.2-13.74-35.01-24.71-44.27-44.96-43.57-139.11,26.95-155.2,48.19-10.99,76.38,25.45,101.78,58.48,23.94,31.13,59.49,40.11,80.81,70.82,10.93,15.74,15.84,46.69.3,60.82-5.44,4.95-20.8,8.16-19.44,16.43,2.01,12.31,23.88,7.07,32.44,8.4,4.09.64,14.08,6.58,15.75,10.46,8.33,19.29-12.42,25.52-23.55,33.98-9.67,7.35-14.53,12.28-20.58,22.82-.97,1.69-3.72.2-2.98,6.19.33,2.64,2.35,2.09,2.9,3.32,6.53,14.45,23.39,35.91,42.01,28.33,17.85-7.27,5.92-28.91,6.31-40.18.41-12.05,10.35-24.18,21.72-27.91,17.72-5.82,31.59,1.95,50.56-10.62,9.92-6.57,9.01-13.67,14.95-21.7,1.71-3.95-2.95-11.48-5.85-14.18-9.14-8.48-27.42-13.83-37.69-22.03-16.85-13.46-23.38-43.27-2.07-55.75,22.44-13.14,55.93,10.82,78.92,3.17,17.19-5.72,14.2-19.22,19.24-31.45.69-1.68,2.86-.91,2.86-1.06v-23.3c-10.74-3.65-21.89,3.05-32.77,3.04ZM359.26,622.76h0s0,0,0,0h0Z"/>
    </g>
  </g>
</svg>