<?xml version="1.0" encoding="UTF-8"?>
<svg id="Capa_2" xmlns="http://www.w3.org/2000/svg" viewBox="0 0 612.7447 1067.5525">
  <defs>
    <style>
      .cls-1 {
        fill: #e28da3;
      }

      .cls-2 {
        fill: #b5486f;
      }

      .cls-3 {
        fill: #f2afc1;
      }

      .cls-4 {
        fill: #d36380;
      }
    </style>
  </defs>
  <g id="Capa_1-2" data-name="Capa_1">
    <g>
      <g>
        <path class="cls-3" d="M273.4233,1061.0529c-18.5918,0-35.4961-.9209-51.6768-2.8135-44.0234-5.1494-105.8447-21.0449-150.3594-67.5303-11.1777-11.6748-21.1123-25.2354-29.5303-40.3066-13.5098-24.2207-23.25-52.541-28.9521-84.1758-1.2627-6.9658-2.3428-14.2476-3.209-21.6367-4.9395-42.1528-3.1191-85.0889-1.3584-126.6113.4365-10.3057.8887-20.9624,1.2285-31.4165,1.2451-38.3926,1.2666-77.5898,1.2871-115.4966.0479-86.8047.0967-176.5649,14.7725-264.0884,2.4668-14.7124,6.0078-29.3379,9.4326-43.4824,5.0859-21.0039,10.3447-42.7227,11.958-64.5132,2.3125-31.231-2.6328-59.542-14.3008-81.873-2.501-4.7861-5.3145-9.3589-8.2939-14.2007-4.6162-7.5005-9.3887-15.2563-12.8438-23.8003-7.1006-17.5522-6.1826-35.2251,2.457-47.2739,6.6748-9.3086,18.0195-14.8662,30.3467-14.8662,6.6133,0,12.9795,1.6616,18.4111,4.8047,10.0273,5.8032,16.3916,15.5576,20.8164,23.4072,14.041,24.9043,22.2881,54.54,25.2139,90.6006,1.1699,14.4087.9414,28.9146.7207,42.9429-.2451,15.5464-.498,31.6216,1.209,47.1606.6426,5.8442,2.6084,12.8115,6.0371,13.2139.1133.0132.2295.02.3447.02,2.4932,0,5.7539-3.856,7.9307-9.3774,9.793-24.8652,6.4131-52.3066,2.8359-81.3599-2.5283-20.5308-5.1436-41.7603-2.7031-62.1592,2.5869-21.7104,10.5195-35.0605,23.5781-39.6763,2.8936-1.0215,5.8594-1.5391,8.8184-1.5391,19.2979,0,34.6895,21.9932,36.958,42.5342.0703.6401.1348,1.2783.1934,1.9185.043-1.8408.126-3.6846.251-5.5273,1.3965-20.4604,10.4893-34.9727,24.3242-38.8198,2.3242-.6479,4.6895-.9766,7.0254-.9766,19.499,0,33.9043,22.5088,35.125,43.5317,1.2529,21.4375-4.5752,42.1113-10.2119,62.1045-5.3701,19.0474-10.4424,37.0381-9.8809,55.5649.3477,11.437,6.3613,28.3599,18.166,28.3599l.2051-.0015c11.0859-.1724,17.7324-15.6772,19.2168-30.0103,2.5186-24.3354.2939-49.6245-6.4336-73.1323-.9746-3.4087-2.0762-6.9136-3.1406-10.3032-4.1836-13.3105-8.5088-27.0737-7.6074-41.6851,1.208-19.6011,15.5391-40.7568,36.5859-40.7568.2432,0,.4834.0029.7275.0088,19.0947.4585,32.374,18.4272,35.1738,35.1011,2.5029,14.9219-1.0352,29.4233-4.457,43.4478-.2832,1.1597-.5654,2.3164-.8438,3.4712-11.918,49.4346-9.7529,86.582,6.6182,113.5664,1.416,2.3369,3.5703,5.5225,5.9189,6.2222.4297.1279.8389.1934,1.2129.1934,3.9932,0,8.8584-8.6675,10.0117-17.8354,5.04-40.0806,3.9014-80.5684-3.3848-120.3374-5.7881-31.5566.7021-51.9082,18.2754-57.3047,2.5322-.7769,5.0918-1.1704,7.6104-1.1704,21.7617,0,33.8486,27.25,36.6631,45.5664,5.7314,37.229,5.0342,74.8657-2.0713,111.8638l-.5566,2.8599c-2.1152,10.8208-4.3027,22.0103-1.0488,31.4951,2.3154,6.7349,9.4951,12.4282,15.6777,12.4282,1.7051,0,3.209-.4219,4.5967-1.29,4.8271-3.0264,6.6582-10.2695,7.8115-16.9551,5.8242-33.7632,3.8818-69.0039-5.6191-101.9116-.9932-3.4355-2.1016-6.9688-3.1729-10.3857-4.457-14.2188-9.0674-28.9219-8.2734-44.4883,1.0498-20.8354,15.2939-43.2007,37.3115-44.5566.6973-.0425,1.3906-.0635,2.0742-.0635,22.3057,0,38.6699,22.2817,43.3057,44.2915,6.7539,31.999-1.8564,63.7217-10.1836,94.3999-4.2754,15.75-8.6963,32.0366-10.8877,47.9751-1.4414,10.4771-.2832,17.2651,3.541,20.752,1.7617,1.6079,4.0752,2.4224,6.877,2.4224,4.8555,0,10.168-2.4707,13.5342-6.2949,6.4043-7.2734,8.5205-18.145,10.3887-27.7368,3.873-19.8569,4.291-40.2749,4.6953-60.0205.416-20.2974.8467-41.2856,4.9336-62.2412,9.6592-49.6187,26.2207-74.7788,49.2246-74.7788,2.3242,0,4.7148.2734,7.1074.813,21.0713,4.752,28.9004,27.7241,23.2695,68.2783-3.2168,23.1587-14.1846,59.6914-26.9697,80.7412-17.2412,28.3555-12.9766,50.3867-7.0742,80.8794,1.5479,7.9966,3.1484,16.2656,4.54,25.4253,1.9902,13.1235,4.4678,26.4507,6.8623,39.3389,1.4443,7.7695,2.9375,15.8032,4.2861,23.5986,5.2383,30.2349,8.6982,61.9053,10.5752,96.8188,3.5156,65.5386.6924,132.5352-2.0381,197.3267-1.8145,43.04-3.6895,87.5454-3.6816,131.1313.002,7.6729.0605,15.5034.1172,23.0767.3164,42.1484.6436,85.7319-8.5479,127.7729-5.7549,26.3545-15.6357,51.2295-28.5732,71.9336-14.7354,23.5801-33.1338,41.7236-54.6846,53.9248-33.8965,19.2021-73.3232,22.7402-111.4512,26.1631,0,0-9.2725.8369-13.2168,1.1963-33.1162,3.0156-67.3604,6.1338-101.1523,6.1338ZM195.1108,103.4919c-.5107,15.2559-3.709,30.3779-6.8281,45.1274-5.0244,23.7544-9.7705,46.1919-3.6475,67.8018,2.1406,7.5771,8.166,14.4741,12.6416,14.4741.6738,0,1.335-.1528,2.0195-.4678,2.3955-1.1069,4.3701-4.418,5.8564-9.835,6.5645-23.9175,1.6885-48.5908-3.4736-74.7124-2.7422-13.873-5.5479-28.0693-6.5684-42.3882Z"/>
        <path class="cls-1" d="M574.0552,13c1.8201-.0001,3.7104.2103,5.6772.6539,22.6819,5.1152,21.4487,38.087,18.261,61.0435-3.1987,23.0335-14.0171,58.3908-26.087,78.2608-23.16,38.09-10.2848,65.3448-3.4048,110.6548,3.22,21.23,7.61,42.49,11.1699,63.07,5.52,31.86,8.76,63.9,10.49,96.06,5.8301,108.71-5.75,218.8-5.73,328.11.01,50,2.4,100.61-8.28,149.4598-10.6699,48.8602-36.5898,96.9502-80.1097,121.5902-33.0802,18.74-72.3601,22.0701-110.2202,25.47-37.3723,3.3556-74.95,7.1794-112.3972,7.1794-17.0118,0-33.995-.7889-50.9227-2.7694-54.1998-6.34-108.6899-26.17-146.42-65.5699-11.24-11.74-20.6801-24.8903-28.5498-38.9801-14.0502-25.1901-23.0502-53.4202-28.23-82.16-1.2803-7.06-2.3202-14.16-3.1503-21.24-6.0997-52.06-1.7899-104.68-.0898-157.06,4.0967-126.2258-5.0131-253.5568,15.9742-378.721,6.1085-36.4294,18.7185-71.537,21.4625-108.5903,2.1615-29.189-1.468-59.4222-15.0223-85.3635-6.6217-12.6732-15.5116-24.1723-20.8734-37.4275-5.3622-13.2553-6.6178-29.4295,1.7144-41.0497,5.6537-7.8846,15.3831-12.1534,25.0637-12.1534,5.2908,0,10.5664,1.2746,15.1558,3.9307,8.15,4.7167,13.7863,12.7698,18.4105,20.9727,15.1451,26.8648,21.9216,57.4247,24.3973,87.9348,2.4431,30.107-1.3463,60.3092,1.9474,90.2872.88,8.01,3.7297,18.02,11.74,18.96.3727.0434.7401.0645,1.1021.0645,6.6396,0,11.4552-7.0934,13.9778-13.4945,17.72-44.99-5.14-97.65.5399-145.13,1.6403-13.76,6.2201-29.7,19.29-34.32,2.2583-.7972,4.4832-1.1674,6.6528-1.1674,15.7388,0,28.5902,19.4781,30.4972,36.7474,4.8099,43.53-21.65,87.8-9.71,129.94,2.6047,9.2182,10.3452,19.202,18.8958,19.202,1.5599,0,3.1465-.3322,4.7341-1.062,5.2803-2.44,7.8701-8.41,9.4103-14.02,12.2898-44.78-13.1002-91.6-9.9402-137.94.9302-13.63,6.4199-29.34,19.5801-33,1.803-.5023,3.5676-.7389,5.2839-.7389,15.8468,0,27.6344,20.1572,28.636,37.4089,2.3301,39.85-21.3098,77.59-20.1,117.49.4768,15.7167,9.0292,34.6624,24.6627,34.6624.1028,0,.2039-.0008.3073-.0024,16.11-.25,23.9199-19.81,25.5801-35.84,2.6201-25.31.3501-51.13-6.6499-75.59-4.6902-16.41-11.5602-32.77-10.5103-49.8,1.0382-16.8387,13.3318-34.6569,30.0994-34.6569.1904,0,.3792.0023.5707.0069,14.9802.36,26.4401,14.91,28.92,29.68,2.48,14.78-1.6998,29.75-5.2101,44.32-9.5199,39.49-13.6899,83.73,7.3802,118.46,2.3398,3.86,5.2898,7.79,9.6198,9.08,1.0605.3155,2.0846.4637,3.0696.4637,9.2878,0,15.1586-13.1717,16.4606-23.5237,5.1101-40.63,3.9399-82.04-3.4401-122.32-3.4299-18.7-4.38-44.34,13.7902-49.92,1.9608-.6015,3.865-.8839,5.7018-.8839,16.2703,0,27.4795,22.1007,30.238,40.0539,5.5901,36.31,4.9,73.57-2.03,109.65-2.3998,12.5-5.5,25.65-1.37,37.69,3.1735,9.2292,12.6938,16.8195,21.8256,16.8195,2.7811,0,5.5254-.7036,8.0444-2.2795,6.9702-4.37,9.3701-13.25,10.77-21.36,6-34.78,4.01-70.91-5.7799-104.82-5.0199-17.36-12.12-34.69-11.2001-52.74.9099-18.05,13.1902-37.29,31.22-38.4.5616-.0343,1.1224-.0513,1.6754-.0513,19.0983,0,32.9406,20.1217,36.9446,39.1313,9.84,46.62-14.6598,92.95-21.1498,140.15-1.2803,9.3-1.3302,20.12,5.5997,26.44,3.135,2.8607,7.1195,4.1196,11.2573,4.1196,6.725,0,13.8563-3.3241,18.4127-8.4996,7.3602-8.36,9.76-19.85,11.89-30.79,7.9602-40.81,1.6692-81.4497,9.6292-122.2595,3.0214-15.5208,13.6989-69.5214,42.8445-69.5235M574.0574,0v13l-.0004-13h-.0029c-10.2344.0008-19.8804,4.368-27.895,12.6295-5.7434,5.9202-10.8745,14.0435-15.2512,24.1443-7.3273,16.911-10.9225,35.3793-12.4576,43.2657-4.1938,21.501-4.6296,42.7742-5.0513,63.347-.4174,20.3665-.8115,39.6035-4.5769,58.9077-1.7104,8.7848-3.6482,18.737-8.8878,24.6885-2.1201,2.4082-5.6793,4.09-8.6554,4.09-1.1298,0-1.9691-.2432-2.4946-.7227-.9523-.8683-2.9973-4.0695-1.484-15.0642,2.135-15.5268,6.3057-30.8927,10.7213-47.1607,8.5287-31.4215,17.3479-63.9127,10.2699-97.4468-2.5564-12.1367-8.1189-23.6698-15.6614-32.4698-9.3834-10.9477-21.4594-16.9768-34.0032-16.9768-.8177,0-1.6483.0255-2.4685.0755-24.4529,1.5056-40.6451,24.6982-43.1421,47.3846-1.9104-4.6766-4.2021-9.0732-6.781-12.9406-8.2057-12.3052-19.2157-19.082-31.0017-19.082-3.165,0-6.366.4897-9.5143,1.4555-9.3064,2.8579-22.6493,11.2825-24.6931,36.0236-.1003-.7682-.2145-1.5365-.3438-2.3066-1.6753-9.9775-6.2896-19.5152-12.9926-26.8575-7.8154-8.5607-17.9143-13.4145-28.4359-13.6673-.2938-.0072-.5869-.0107-.8831-.0107-18.0648,0-31.9143,12.8824-38.6515,28.5829-.8884-1.5513-1.84-3.0527-2.8499-4.4908-8.0442-11.4553-18.8845-17.7642-30.5239-17.7642-2.926,0-5.8777.409-8.7732,1.2158-9.5374,2.6525-17.3011,9.339-22.4458,19.3352-.7549,1.4664-1.4268,2.9496-2.0251,4.4343-7.7177-13.6619-20.3215-24.1139-35.5071-24.1139-3.6976,0-7.3918.6422-10.98,1.9088-6.3909,2.259-15.2767,7.6325-21.347,20.4142-3.1794,6.6948-5.3746,14.9802-6.5244,24.6258-2.5334,21.177.1301,42.805,2.7059,63.7208,3.4741,28.2095,6.7555,54.8546-2.433,78.1838-.3379.8576-.6908,1.6173-1.0385,2.2802-.2924-1.1878-.5658-2.6655-.7635-4.4659-1.6628-15.1349-1.4242-30.2979-1.1715-46.3513.2231-14.1818.454-28.8467-.7406-43.5677-3.0038-37.0177-11.5182-67.5257-26.0304-93.2675-4.8307-8.569-11.8358-19.2498-23.2231-25.8402-6.4192-3.7152-13.9119-5.679-21.6675-5.679-14.417,0-27.7361,6.5712-35.6284,17.578C-1.193,41.9155-2.3896,61.9155,5.5514,81.5458c3.6603,9.0485,8.5785,17.0408,13.3346,24.77,2.9176,4.7412,5.6733,9.2195,8.068,13.8025,11.1072,21.2577,15.8031,48.3622,13.5798,78.3833-1.5743,21.2593-6.5381,41.76-11.7931,63.4644-3.4515,14.255-7.0205,28.9955-9.5259,43.9362-14.7651,88.0562-14.8141,178.0907-14.8617,265.1609-.0206,37.8555-.042,76.9998-1.2847,115.2883-.3381,10.4211-.7893,21.061-1.2255,31.3506-1.771,41.7772-3.6025,84.9768,1.3969,127.6439.8827,7.5288,1.9828,14.946,3.2705,22.0466,5.8265,32.3285,15.8092,61.326,29.668,86.173,8.6906,15.5593,18.9553,29.566,30.5131,41.6378,19.1105,19.9564,43.1119,36.1581,71.3385,48.1562,25.0504,10.6481,52.9626,17.8263,82.9613,21.3354,16.4348,1.9229,33.5858,2.8575,52.433,2.8575,34.0884,0,68.4825-3.1318,101.7444-6.1606,3.9404-.3589,7.8792-.7175,11.8157-1.071l1.387-.1245c38.8173-3.4833,78.9562-7.0854,114.0784-26.9822,22.5001-12.7391,41.6754-31.6261,56.9902-56.1346,13.3289-21.33,23.4994-46.9165,29.4124-73.9932,9.3461-42.7479,9.0157-86.7012,8.6964-129.2073-.0568-7.5612-.1156-15.3798-.1171-23.0287-.0079-43.447,1.8646-87.8815,3.6757-130.8528,2.7371-64.9451,5.5671-132.1013,2.0356-197.9506-1.8921-35.1757-5.3798-67.0947-10.6621-97.5832-1.3541-7.8282-2.8503-15.8778-4.2972-23.6627-2.3865-12.8402-4.8541-26.1175-6.829-39.1375-1.411-9.292-3.0243-17.6266-4.5846-25.687-5.8353-30.1435-9.6903-50.0575,6.2443-76.2643,13.2262-21.7733,24.5487-59.4133,27.8557-83.2267,2.3271-16.7592,2.4862-30.274.486-41.3173-1.495-8.2548-4.2639-15.2125-8.23-20.6798-5.0411-6.9497-12.1416-11.6235-20.5337-13.516-2.8613-.6452-5.7327-.9723-8.5348-.9723h0ZM342.5483,232.1581c-.3767-.5132-.8407-1.2021-1.3995-2.1239-15.4381-25.4468-17.354-60.9932-5.8591-108.6745.2769-1.1493.5575-2.2995.8386-3.4517,2.0627-8.4521,4.2917-17.586,5.1301-27.0764.3573,3.7327.9144,7.7223,1.6965,11.9867,7.1661,39.113,8.2863,78.9333,3.3285,118.3525-.605,4.8099-2.3385,8.8433-3.7351,10.9872h0ZM423.897,240.8825c-3.0641,0-7.9993-3.5894-9.532-8.0467-2.6848-7.827-.7578-17.6865,1.2826-28.125.1886-.9655.3768-1.928.5608-2.8868,5.1962-27.053,7.0316-54.4449,5.4994-81.7764.9635,3.0762,1.8779,6.0209,2.7356,8.9868,9.228,31.964,11.1157,66.1992,5.4574,98.9987-1.2207,7.0725-2.8575,11.2973-4.8647,12.5557-.2386.1494-.5507.2939-1.139.2939h0ZM259.5444,227.1955c-6.1946,0-11.3593-11.8568-11.6688-22.0567-.5315-17.5278,4.4091-35.0515,9.6395-53.6042,2.3954-8.4965,4.8245-17.1124,6.7548-25.8928.7051,2.2659,1.3787,4.4764,2.0125,6.6936,6.5029,22.7234,8.653,47.1624,6.2186,70.679-1.2228,11.8065-6.364,24.0793-12.851,24.18l-.1056.001h0ZM196.8554,224.0198c-1.7755-1.2385-4.693-4.8649-5.9636-9.3618-5.6877-20.0735-1.1034-41.7478,3.75-64.6948.2096-.9914.4199-1.9853.6294-2.9799.0105.0528.0206.1043.0311.157,5.0098,25.349,9.7416,49.2922,3.583,71.732-.7986,2.9085-1.5562,4.4129-2.0299,5.1475h0Z"/>
      </g>
      <g>
        <path class="cls-4" d="M254.8705,891.5216c-5.373,0-10.3506-.127-15.2178-.3887-32.6631-1.7402-59.5381-10.1592-79.876-25.0215-13.2471-9.6836-24.4141-22.959-32.2939-38.3931-5.0215-9.8306-8.6611-20.3535-10.8184-31.2764-1.9902-10.1289-2.6699-20.3711-2.0195-30.4478,1.9551-30.2651,16.1328-61.2471,38.8984-85.0029,23.8789-24.918,53.6084-38.6406,83.7139-38.6406,11.1201,0,22.1768,1.9082,32.8633,5.6714,11.4404,4.0327,21.9229,10.0264,32.0596,15.8223,5.1934,2.9697,10.5645,6.0405,15.8965,8.7388,5.1787,2.6162,9.8301,4.6328,14.2158,6.1626,12.5557,4.3867,26.6729,6.1118,40.3252,7.7803,21.5566,2.6343,43.8467,5.3579,62.0713,18.4243.6445.4585,1.2949.9409,1.9453,1.4453,6.125,4.7163,11.4316,10.5029,15.7559,17.1865,13.3574,20.5781,17.5469,50.6797,11.1992,80.5132-4.9355,23.1899-14.1445,41.4805-27.3721,54.3638-27.4424,26.7344-68.7998,28.2227-105.2881,29.5361-3.2275.1162-6.4346.2314-9.6094.3623-8.0889.3389-16.3535.8662-24.3457,1.377-13.7666.8779-28.002,1.7871-42.1035,1.7871Z"/>
        <path class="cls-2" d="M237.2571,648.8507c10.1017-.001,20.3979,1.6729,30.7045,5.3023,16.6801,5.88,31.41,16.25,47.1801,24.23,4.87,2.46,9.85,4.7,15.01,6.5,32.97,11.52,72.59,5.16,100.75,25.35.59.42,1.1699.85,1.75,1.3,5.74,4.42,10.47,9.6899,14.28,15.58,13.73,21.15,15.71,50.2,10.2999,75.63-4.02,18.89-11.71,37.58-25.5499,51.06-27.9301,27.21-71.66,26.45-110.63,28.06-22.0626.9227-44.1263,3.1589-66.1835,3.1589-4.9562,0-9.911-.1129-14.8666-.3789-27.01-1.4399-54.55-7.82-76.39-23.78-12.86-9.4-23.11-21.94-30.34-36.1-4.75-9.3-8.2001-19.3-10.23-29.58-1.86-9.46-2.53-19.16-1.91-28.77,3.8146-59.0489,56.4226-117.5565,116.1255-117.5623M237.2662,635.8507v13-13h-.0104c-16.4021.0016-32.6887,3.8176-48.4071,11.342-14.6088,6.9932-28.0662,16.8522-39.9983,29.3032-23.808,24.8431-38.6395,57.3112-40.6917,89.079-.6865,10.6408.0292,21.4458,2.1272,32.1161,2.2754,11.5229,6.1129,22.6173,11.4084,32.9852,8.3401,16.3342,20.1824,30.4023,34.2457,40.682,21.3744,15.6198,49.4235,24.4567,83.3695,26.2664,4.9781.2672,10.0691.3973,15.5587.3973,14.3091,0,28.6495-.9156,42.5178-1.8013,7.9579-.5081,16.1868-1.0334,24.2087-1.369,3.157-.1304,6.3522-.2454,9.5677-.361,37.6635-1.3552,80.3521-2.8912,109.5906-31.376,14.1639-13.7955,23.9866-33.1974,29.1936-57.6657,3.0966-14.5554,3.8655-29.6458,2.2238-43.6406-1.8708-15.9485-6.694-30.0033-14.335-41.7739-4.714-7.2874-10.5225-13.6191-17.2524-18.8015-.6766-.5249-1.3894-1.0545-2.1425-1.5905-19.5389-14.0091-42.6676-16.8353-65.0347-19.5685-13.9236-1.7014-27.075-3.3084-38.9663-7.4633-4.1184-1.4367-8.5116-3.3434-13.4366-5.8312-5.1758-2.6191-10.2373-5.5132-15.5961-8.5773-10.3879-5.9397-21.1296-12.0816-33.1234-16.3096-11.3857-4.0095-23.166-6.0417-35.0175-6.0417h0Z"/>
      </g>
    </g>
  </g>
</svg>