<?xml version="1.0" encoding="UTF-8"?>
<svg id="Capa_2" xmlns="http://www.w3.org/2000/svg" viewBox="0 0 612.7448 1067.5527">
  <defs>
    <style>
      .cls-1 {
        fill: #ce7c74;
      }

      .cls-2 {
        fill: #db9c95;
      }

      .cls-3 {
        fill: #a86260;
      }

      .cls-4 {
        fill: #edb0a9;
      }
    </style>
  </defs>
  <g id="Capa_1-2" data-name="Capa_1">
    <g>
      <g>
        <path class="cls-4" d="M571.9065,152.9582c-23.16,38.09-10.2848,65.3448-3.4048,110.6548,3.22,21.23,7.61,42.49,11.1699,63.07,5.52,31.86,8.76,63.9,10.49,96.06,5.8301,108.71-5.75,218.8-5.73,328.11.01,50,2.4,100.61-8.28,149.46-10.6699,48.8601-36.5898,96.9501-80.1099,121.5901-33.08,18.74-72.36,22.0699-110.22,25.47-54.35,4.88-109.13,10.75-163.3199,4.41-54.2-6.34-108.69-26.17-146.42-65.5699-11.24-11.7401-20.68-24.8901-28.55-38.9801-14.05-25.1901-23.05-53.42-28.23-82.16-1.28-7.06-2.32-14.16-3.15-21.24-6.1-52.06-1.79-104.68-.09-157.06,4.0967-126.2259-5.0131-253.5568,15.9743-378.7209,6.1084-36.4293,18.7185-71.537,21.4625-108.5904,2.1616-29.1891-1.4679-59.4222-15.0223-85.3635-6.6217-12.6731-15.5114-24.1723-20.8735-37.4275-5.362-13.2553-6.6177-29.4294,1.7145-41.0496,8.7436-12.1939,27.2328-15.7386,40.2194-8.2227,8.15,4.7168,13.7861,12.7698,18.4105,20.9728,15.1451,26.8648,21.9216,57.4245,24.3974,87.9347,2.443,30.107-1.3463,60.3093,1.9472,90.2872.88,8.0099,3.73,18.02,11.74,18.96,7.21.84,12.42-6.68,15.08-13.43,17.72-44.99-5.14-97.65.54-145.13,1.64-13.76,6.22-29.7,19.29-34.32,18.64-6.58,34.98,15.93,37.15,35.58,4.81,43.53-21.65,87.8-9.71,129.94,3.08,10.9,13.34,22.87,23.63,18.14,5.28-2.44,7.87-8.41,9.41-14.02,12.29-44.78-13.1-91.6-9.94-137.94.93-13.63,6.42-29.34,19.58-33,18.45-5.14,32.81,17.55,33.92,36.67,2.33,39.85-21.31,77.59-20.1,117.4901.48,15.8199,9.14,34.91,24.97,34.66,16.11-.25,23.92-19.81,25.58-35.84,2.62-25.31.35-51.13-6.65-75.59-4.69-16.41-11.56-32.77-10.51-49.8,1.05-17.03,13.61-35.06,30.67-34.65,14.98.36,26.44,14.91,28.92,29.68,2.48,14.78-1.7,29.75-5.21,44.32-9.52,39.49-13.69,83.73,7.38,118.46,2.34,3.86,5.29,7.79,9.62,9.08,11.06,3.29,18.09-11.61,19.53-23.06,5.11-40.63,3.94-82.04-3.44-122.32-3.43-18.7-4.38-44.34,13.79-49.92,19.33-5.93,32.87,19.19,35.94,39.17,5.59,36.3101,4.9,73.57-2.03,109.65-2.4,12.5-5.5,25.65-1.37,37.69,4.14,12.04,19.08,21.29,29.87,14.54,6.97-4.37,9.3701-13.25,10.77-21.36,6-34.78,4.01-70.91-5.78-104.82-5.02-17.36-12.12-34.69-11.2-52.74.91-18.05,13.19-37.29,31.22-38.4,19.96-1.22,34.5,19.52,38.62,39.08,9.84,46.62-14.66,92.95-21.15,140.15-1.28,9.3-1.33,20.12,5.6,26.44,8.23,7.51,22.31,3.98,29.67-4.38,7.3601-8.36,9.76-19.85,11.89-30.79,7.9601-40.8101,1.6692-81.4496,9.6291-122.2596,3.21-16.49,15.0603-76.4157,48.5217-68.8696,22.682,5.1152,21.4488,38.087,18.2609,61.0435-3.1987,23.0335-14.0169,58.3909-26.087,78.2609Z"/>
        <path class="cls-2" d="M574.0559,13c1.8198,0,3.71.2104,5.6768.6538,22.6821,5.1152,21.4487,38.0869,18.2607,61.0435-3.1987,23.0337-14.0166,58.3911-26.0869,78.2607-23.1602,38.0903-10.2847,65.3452-3.4048,110.6548,3.2202,21.2305,7.6099,42.4902,11.1699,63.0703,5.52,31.8599,8.7603,63.8999,10.4902,96.0601,5.8301,108.71-5.75,218.7998-5.73,328.1099.0098,50,2.3999,100.6099-8.2803,149.46-10.6699,48.8599-36.5898,96.9502-80.1099,121.5898-33.0801,18.7402-72.3599,22.0703-110.2202,25.4702-37.3721,3.3555-74.9512,7.1797-112.3984,7.1797-17.0117,0-33.9937-.7891-50.9214-2.7695-54.2002-6.3403-108.6899-26.1704-146.4199-65.5703-11.2402-11.7397-20.6802-24.8901-28.5503-38.98-14.0498-25.1899-23.0498-53.4199-28.23-82.1597-1.2798-7.0601-2.3198-14.1602-3.1499-21.2402-6.1001-52.0601-1.79-104.6802-.0898-157.0601,4.0967-126.2256-5.0132-253.5566,15.9741-378.7207,6.1084-36.4297,18.7188-71.5371,21.4624-108.5903,2.1616-29.1895-1.4678-59.4224-15.022-85.3638-6.6216-12.6729-15.5117-24.1724-20.8735-37.4277-5.3618-13.2549-6.6177-29.4292,1.7144-41.0493,5.6538-7.8848,15.3828-12.1533,25.0635-12.1533,5.291,0,10.5669,1.2744,15.1562,3.9307,8.1499,4.7168,13.7856,12.7695,18.4102,20.9727,15.1455,26.8647,21.9219,57.4243,24.3975,87.9346,2.4429,30.1074-1.3462,60.3096,1.9473,90.2876.8799,8.0098,3.73,18.0195,11.7397,18.96.3721.0435.7402.0645,1.1021.0645,6.6406,0,11.4556-7.0933,13.978-13.4946,17.7202-44.9902-5.1396-97.6499.54-145.1299,1.6401-13.7603,6.2202-29.7002,19.29-34.3203,2.2573-.7969,4.4839-1.1675,6.6528-1.1675,15.7402,0,28.5898,19.4771,30.4971,36.7476,4.8101,43.5303-21.6499,87.8003-9.71,129.9399,2.605,9.2183,10.3457,19.2021,18.896,19.2021,1.5596,0,3.1465-.332,4.7339-1.062,5.2803-2.4399,7.8701-8.4102,9.4102-14.02,12.29-44.7798-13.1001-91.6001-9.9399-137.9399.9302-13.6299,6.4199-29.3398,19.5801-33,1.8027-.5024,3.5679-.7388,5.2842-.7388,15.8467,0,27.6343,20.1567,28.6357,37.4087,2.3301,39.8501-21.3101,77.5898-20.1001,117.4902.4771,15.7163,9.0293,34.6621,24.6631,34.6621.1025,0,.2036-.001.3071-.0024,16.1099-.25,23.9199-19.8101,25.5801-35.8398,2.6196-25.3101.3496-51.1299-6.6504-75.5898-4.6899-16.4102-11.5596-32.77-10.5098-49.8003,1.0381-16.8384,13.3315-34.6567,30.0991-34.6567.1904,0,.3794.0024.5708.0068,14.98.3599,26.4399,14.9102,28.9199,29.6802,2.48,14.7798-1.6997,29.75-5.21,44.3198-9.52,39.4902-13.6899,83.73,7.3799,118.46,2.3403,3.8599,5.29,7.79,9.6201,9.0801,1.0605.3154,2.0845.4639,3.0698.4639,9.2876,0,15.1587-13.1714,16.4604-23.5239,5.1099-40.6299,3.9399-82.04-3.4399-122.3198-3.4302-18.7002-4.3804-44.3403,13.7896-49.9199,1.9609-.6016,3.8652-.8838,5.7021-.8838,16.2705,0,27.4795,22.1006,30.2383,40.0537,5.5898,36.3101,4.8999,73.5698-2.0303,109.6499-2.3999,12.5-5.5,25.6499-1.3701,37.6899,3.1733,9.229,12.6938,16.8193,21.8257,16.8193,2.7812,0,5.5254-.7036,8.0444-2.2793,6.9702-4.3701,9.3701-13.25,10.77-21.3599,6-34.7803,4.0103-70.9102-5.7798-104.8203-5.02-17.3599-12.1201-34.6899-11.2002-52.7397.9102-18.0503,13.1899-37.29,31.2202-38.3999.563-.0342,1.1216-.0513,1.6758-.0513,19.0962,0,32.9404,20.123,36.9438,39.1309,9.8403,46.6201-14.6597,92.9502-21.1499,140.1504-1.2798,9.2998-1.3301,20.1196,5.6001,26.4399,3.1348,2.8604,7.1196,4.1196,11.2573,4.1196,6.7251,0,13.8564-3.3242,18.4126-8.4995,7.3604-8.3604,9.7603-19.8501,11.8901-30.79,7.96-40.8101,1.6689-81.4497,9.6289-122.2598,3.0215-15.5205,13.6992-69.521,42.8452-69.5234M574.0579,0v13l-.0005-13h-.0029c-10.2344.001-19.8804,4.3682-27.895,12.6294-5.7432,5.9204-10.8745,14.0435-15.2515,24.1445-7.3276,16.9111-10.9229,35.3794-12.458,43.2656-4.1938,21.501-4.6294,42.7744-5.0508,63.3477-.4175,20.3662-.8115,39.603-4.5767,58.9072-1.7104,8.7847-3.6479,18.7363-8.8882,24.6885-2.1201,2.4082-5.6792,4.0898-8.6553,4.0898-1.1299,0-1.9692-.2432-2.4946-.7227-.9521-.8682-2.9971-4.0693-1.4839-15.0645,2.1348-15.5264,6.3052-30.8921,10.7212-47.1597,8.5288-31.4219,17.3477-63.9136,10.2695-97.4482-2.5562-12.1353-8.1187-23.668-15.6616-32.4688-9.3838-10.9478-21.4595-16.9771-34.002-16.9771-.8164,0-1.6465.0254-2.4673.0757-24.4546,1.5049-40.647,24.6978-43.144,47.3838-1.9106-4.6763-4.2021-9.0728-6.7812-12.9399-8.2056-12.3052-19.2153-19.082-31.0015-19.082-3.165,0-6.3662.4897-9.5146,1.4556-9.3062,2.8574-22.6494,11.2817-24.6929,36.0229-.1001-.7671-.2144-1.5366-.3438-2.3057-1.6753-9.978-6.2896-19.5156-12.9922-26.8579-7.8159-8.561-17.9146-13.415-28.4365-13.6675-.2935-.0073-.5869-.0107-.8828-.0107-18.0649,0-31.9146,12.8823-38.6514,28.583-.8882-1.5518-1.8398-3.0527-2.8496-4.4907-8.0444-11.4556-18.8848-17.7642-30.5239-17.7642-2.9258,0-5.8774.4092-8.7734,1.2158-9.5376,2.6528-17.3013,9.3394-22.4458,19.3354-.7549,1.4663-1.4268,2.9492-2.0249,4.4341-7.7178-13.6616-20.3218-24.1143-35.5073-24.1143-3.6982,0-7.3926.6426-10.9805,1.9092-6.3901,2.2588-15.2759,7.6323-21.3462,20.4141-3.1797,6.6948-5.375,14.9805-6.5249,24.626-2.5332,21.1768.1304,42.8042,2.7061,63.7197,3.4741,28.21,6.7559,54.8555-2.4331,78.1846-.3379.8579-.6904,1.6177-1.0381,2.2808-.2925-1.188-.5659-2.6655-.7637-4.4658-1.6626-15.1353-1.4243-30.2988-1.1714-46.3525.2231-14.1816.4536-28.8462-.7407-43.5669-3.0039-37.0181-11.5186-67.5264-26.0308-93.2676-4.8306-8.5688-11.8354-19.2495-23.2227-25.8398-6.4194-3.7153-13.9121-5.6792-21.668-5.6792-14.417,0-27.7358,6.5713-35.6279,17.5781C-1.1926,41.9155-2.3894,61.9155,5.5515,81.5454c3.6606,9.0493,8.5786,17.042,13.3354,24.7715,2.917,4.7407,5.6729,9.2188,8.0674,13.8013,11.1069,21.2583,15.8027,48.3628,13.5796,78.3838-1.5742,21.2593-6.5381,41.7598-11.7935,63.4639-3.4512,14.2554-7.0205,28.9956-9.5259,43.9365-14.7646,88.0557-14.814,178.0903-14.8613,265.1602-.0205,37.856-.042,77-1.2847,115.2886-.3384,10.4219-.7891,21.0625-1.2256,31.3525-1.771,41.7769-3.6025,84.9756,1.397,127.6426.8823,7.5269,1.9824,14.9443,3.27,22.0459,5.8271,32.3291,15.8096,61.3267,29.668,86.1733,8.6919,15.5605,18.957,29.5674,30.5137,41.6382,19.1104,19.9556,43.1118,36.1577,71.3384,48.1558,25.0503,10.6479,52.9624,17.8267,82.9609,21.3359,16.4341,1.9224,33.585,2.8574,52.4321,2.8574,34.0874,0,68.481-3.1318,101.7422-6.1606,3.9414-.3589,7.8813-.7173,11.8188-1.0713l1.3867-.1245c38.8179-3.4834,78.9565-7.0854,114.0786-26.9824,22.5005-12.7388,41.6758-31.6255,56.9907-56.1343,13.3286-21.3301,23.499-46.9165,29.4121-73.9932,9.3462-42.7471,9.0156-86.6997,8.6963-129.2051-.0566-7.562-.1152-15.3813-.1167-23.0308-.0083-43.4473,1.8647-87.8813,3.6758-130.853,2.7368-64.9448,5.5669-132.1011,2.0356-197.9507-1.8921-35.1748-5.3799-67.0938-10.6626-97.583-1.354-7.8286-2.8501-15.8784-4.2969-23.6631-2.3867-12.8403-4.854-26.1177-6.8291-39.1377-1.4111-9.292-3.0244-17.6265-4.585-25.687-5.835-30.1436-9.6899-50.0571,6.2446-76.2642,13.2256-21.7715,24.5483-59.4116,27.8555-83.2266,2.3271-16.7593,2.4863-30.2739.4863-41.3169-1.4951-8.2549-4.2642-15.2129-8.23-20.6802-5.041-6.9497-12.1416-11.6235-20.5337-13.5161-2.8613-.645-5.7329-.9722-8.5347-.9722h0ZM342.5486,232.1582c-.377-.5137-.8413-1.2026-1.4009-2.1255-15.437-25.4453-17.3525-60.9917-5.8579-108.6729.2764-1.1489.5571-2.2988.8384-3.4507,2.063-8.4531,4.292-17.5869,5.1304-27.0786.3574,3.7329.9146,7.7236,1.6968,11.9878,7.166,39.1128,8.2856,78.9331,3.3281,118.3525-.605,4.8101-2.3384,8.8433-3.7349,10.9873h0ZM423.8972,240.8823c-3.0645,0-7.9995-3.5894-9.5322-8.0464-2.6846-7.8271-.7578-17.6865,1.2827-28.125.1885-.9653.377-1.9282.5605-2.8867,5.1963-27.0527,7.0317-54.4448,5.5-81.7764.9629,3.0762,1.8774,6.0205,2.7354,8.9863,9.228,31.9634,11.1157,66.1987,5.457,98.999-1.2207,7.0723-2.8574,11.2974-4.8647,12.5557-.2383.1494-.5503.2935-1.1387.2935h0ZM259.5447,227.1953c-6.1948,0-11.3594-11.8564-11.6689-22.0562-.5317-17.5283,4.4087-35.0522,9.6396-53.605,2.395-8.4961,4.8242-17.1118,6.7544-25.8921.7051,2.2656,1.3784,4.4766,2.0122,6.6934,6.5029,22.7231,8.6528,47.1621,6.2188,70.6792-1.2227,11.8062-6.3638,24.0791-12.8506,24.1797l-.1055.001h0ZM196.8552,224.0195c-1.7754-1.2383-4.6929-4.8647-5.9634-9.3618-5.6875-20.0732-1.1035-41.7471,3.75-64.6943.2095-.9912.4199-1.9854.6294-2.98.0107.0527.0205.104.0312.1572,5.0093,25.3486,9.7417,49.292,3.5825,71.7319-.7983,2.9082-1.5557,4.4126-2.0298,5.147h0Z"/>
      </g>
      <g>
        <path class="cls-1" d="M457.2318,802.743c-4.02,18.89-11.71,37.58-25.55,51.06-27.93,27.21-71.66,26.45-110.63,28.06-27.02,1.13-54.04,4.23-81.05,2.78-27.01-1.44-54.55-7.82-76.39-23.78-12.86-9.4-23.11-21.94-30.34-36.1-4.75-9.3-8.2-19.3-10.23-29.58-1.86-9.46-2.53-19.16-1.91-28.77,4.46-69.04,75.61-137.34,146.83-112.2599,16.68,5.88,31.41,16.25,47.18,24.23,4.87,2.46,9.85,4.7,15.01,6.5,32.97,11.52,72.59,5.16,100.75,25.35.59.42,1.17.85,1.75,1.3,5.74,4.42,10.47,9.6899,14.28,15.58,13.73,21.15,15.71,50.2,10.3,75.63Z"/>
        <path class="cls-3" d="M237.2576,648.8506c10.1016-.001,20.3975,1.6729,30.7041,5.3022,16.6802,5.8804,31.4102,16.25,47.1802,24.23,4.8696,2.4604,9.8501,4.7002,15.0098,6.5,32.9702,11.52,72.5903,5.1602,100.75,25.3501.5903.4199,1.1699.8501,1.75,1.3003,5.7402,4.4199,10.4702,9.6899,14.2803,15.5796,13.73,21.1504,15.71,50.2002,10.2998,75.6304-4.02,18.8896-11.71,37.5801-25.5498,51.0601-27.9302,27.21-71.6602,26.4497-110.6304,28.0596-22.0625.9229-44.126,3.1592-66.1826,3.1592-4.9565,0-9.9116-.1128-14.8672-.3789-27.0098-1.4399-54.5498-7.8198-76.3901-23.7803-12.8599-9.3999-23.1099-21.9399-30.3398-36.0996-4.75-9.3003-8.2002-19.3003-10.23-29.5801-1.8599-9.46-2.5303-19.1602-1.9102-28.77,3.8145-59.0488,56.4233-117.5566,116.126-117.5625M237.2669,635.8506v13l-.0005-13h-.0103c-16.4019.002-32.6885,3.8179-48.4072,11.3423-14.6089,6.9932-28.0659,16.8521-39.998,29.3032-23.8081,24.8433-38.6401,57.311-40.6924,89.0791-.6865,10.6392.0293,21.4443,2.1274,32.1157,2.2754,11.5225,6.1128,22.6167,11.4087,32.9854,8.3403,16.334,20.1821,30.4023,34.2456,40.6816,21.374,15.6201,49.4233,24.457,83.3696,26.2666,4.978.2676,10.0688.3975,15.5586.3975,14.3105,0,28.6519-.916,42.521-1.8013,7.957-.5083,16.1846-1.0337,24.2056-1.3691,3.1567-.1304,6.3521-.2456,9.5674-.3613,37.6636-1.355,80.3525-2.8906,109.5908-31.3755,14.1641-13.7954,23.9863-33.1973,29.1938-57.6655,3.0967-14.5557,3.8652-29.646,2.2236-43.6406-1.8706-15.9487-6.6938-30.0034-14.335-41.7744-4.7104-7.2812-10.5122-13.6074-17.2344-18.7866-.7124-.5527-1.4204-1.0791-2.1641-1.6079-19.5352-14.0063-42.6641-16.8325-65.0308-19.5659-13.9238-1.7012-27.0752-3.3086-38.9668-7.4634-4.1216-1.4375-8.5142-3.3442-13.4351-5.8306-5.1772-2.6196-10.2393-5.5142-15.5981-8.5781-10.3877-5.9395-21.1289-12.0811-33.1226-16.3091-11.3857-4.0098-23.166-6.042-35.0171-6.042h0Z"/>
      </g>
    </g>
  </g>
</svg>