<?xml version="1.0" encoding="UTF-8"?>
<svg id="Capa_2" xmlns="http://www.w3.org/2000/svg" viewBox="0 0 612.7449 1067.5522">
  <defs>
    <style>
      .cls-1 {
        fill: #eac3b5;
      }

      .cls-2 {
        fill: #a86d45;
      }

      .cls-3 {
        fill: #d8a28f;
      }

      .cls-4 {
        fill: #c48458;
      }
    </style>
  </defs>
  <g id="Capa_1-2" data-name="Capa_1">
    <g>
      <g>
        <path class="cls-1" d="M571.9065,152.9579c-23.16,38.09-10.2848,65.3448-3.4048,110.6548,3.22,21.23,7.61,42.49,11.1699,63.07,5.52,31.86,8.76,63.9,10.49,96.06,5.8301,108.71-5.75,218.8-5.73,328.11.01,50,2.4,100.61-8.28,149.46-10.6699,48.8601-36.5898,96.9501-80.1099,121.5901-33.08,18.74-72.36,22.0699-110.22,25.47-54.35,4.88-109.13,10.75-163.3199,4.41-54.2-6.34-108.69-26.17-146.42-65.5699-11.24-11.7401-20.68-24.8901-28.55-38.9801-14.05-25.1901-23.05-53.42-28.23-82.16-1.28-7.06-2.32-14.16-3.15-21.24-6.1-52.06-1.79-104.68-.09-157.06,4.0967-126.2259-5.0131-253.5568,15.9743-378.7209,6.1084-36.4293,18.7185-71.537,21.4625-108.5904,2.1616-29.1891-1.4679-59.4222-15.0223-85.3635-6.6217-12.6731-15.5114-24.1723-20.8735-37.4275-5.362-13.2553-6.6177-29.4294,1.7145-41.0496,8.7436-12.1939,27.2328-15.7386,40.2194-8.2227,8.15,4.7168,13.7861,12.7698,18.4105,20.9728,15.1451,26.8648,21.9216,57.4245,24.3974,87.9347,2.443,30.107-1.3463,60.3093,1.9472,90.2872.88,8.0099,3.73,18.02,11.74,18.96,7.21.84,12.42-6.68,15.08-13.43,17.72-44.99-5.14-97.65.54-145.13,1.64-13.76,6.22-29.7,19.29-34.32,18.64-6.58,34.98,15.93,37.15,35.58,4.81,43.53-21.65,87.8-9.71,129.94,3.08,10.9,13.34,22.87,23.63,18.14,5.28-2.44,7.87-8.41,9.41-14.02,12.29-44.78-13.1-91.6-9.94-137.94.93-13.63,6.42-29.34,19.58-33,18.45-5.14,32.81,17.55,33.92,36.67,2.33,39.85-21.31,77.59-20.1,117.4901.48,15.8199,9.14,34.91,24.97,34.66,16.11-.25,23.92-19.81,25.58-35.84,2.62-25.31.35-51.13-6.65-75.59-4.69-16.41-11.56-32.77-10.51-49.8,1.05-17.03,13.61-35.06,30.67-34.65,14.98.36,26.44,14.91,28.92,29.68,2.48,14.78-1.7,29.75-5.21,44.32-9.52,39.49-13.69,83.73,7.38,118.46,2.34,3.86,5.29,7.79,9.62,9.08,11.06,3.29,18.09-11.61,19.53-23.06,5.11-40.63,3.94-82.04-3.44-122.32-3.43-18.7-4.38-44.34,13.79-49.92,19.33-5.93,32.87,19.19,35.94,39.17,5.59,36.3101,4.9,73.57-2.03,109.65-2.4,12.5-5.5,25.65-1.37,37.69,4.14,12.04,19.08,21.29,29.87,14.54,6.97-4.37,9.3701-13.25,10.77-21.36,6-34.78,4.01-70.91-5.78-104.82-5.02-17.36-12.12-34.69-11.2-52.74.91-18.05,13.19-37.29,31.22-38.4,19.96-1.22,34.5,19.52,38.62,39.08,9.84,46.62-14.66,92.95-21.15,140.15-1.28,9.3-1.33,20.12,5.6,26.44,8.23,7.51,22.31,3.98,29.67-4.38,7.3601-8.36,9.76-19.85,11.89-30.79,7.9601-40.8101,1.6692-81.4496,9.6291-122.2596,3.21-16.49,15.0603-76.4157,48.5217-68.8696,22.682,5.1152,21.4488,38.087,18.2609,61.0435-3.1987,23.0335-14.0169,58.3909-26.087,78.2609Z"/>
        <path class="cls-3" d="M574.0553,13c1.8201-.0005,3.7106.21,5.6773.6538,22.682,5.1147,21.4488,38.0869,18.2608,61.0435-3.1987,23.0332-14.017,58.3906-26.087,78.2607-23.16,38.0898-10.2847,65.3447-3.4047,110.6548,3.2198,21.23,7.6098,42.4897,11.1698,63.0698,5.52,31.8599,8.76,63.8999,10.49,96.0601,5.83,108.71-5.75,218.7998-5.73,328.1099.01,50,2.4,100.6104-8.28,149.46-10.67,48.8604-36.5898,96.9502-80.11,121.5903-33.08,18.7397-72.36,22.0698-110.22,25.4697-37.3723,3.356-74.9497,7.1797-112.3969,7.1797-17.0118,0-33.9952-.7891-50.9229-2.7695-54.2002-6.3398-108.6902-26.1699-146.4202-65.5698-11.24-11.7402-20.68-24.8901-28.55-38.98-14.05-25.1904-23.05-53.4204-28.23-82.1602-1.28-7.0601-2.32-14.1602-3.15-21.2402-6.1-52.0596-1.79-104.6797-.09-157.0596,4.0968-126.2261-5.013-253.5571,15.9743-378.7212,6.1085-36.4292,18.7185-71.5371,21.4625-108.5903,2.1615-29.189-1.468-59.4224-15.0223-85.3638-6.6217-12.6729-15.5114-24.1719-20.8734-37.4272-5.362-13.2554-6.6178-29.4297,1.7144-41.0498,5.6537-7.8848,15.3829-12.1533,25.0636-12.1533,5.2908,0,10.5665,1.2749,15.1559,3.9307,8.15,4.7168,13.786,12.77,18.4105,20.9727,15.1451,26.8647,21.9216,57.4248,24.3973,87.9351,2.443,30.1069-1.3464,60.3091,1.9471,90.2871.88,8.0098,3.73,18.02,11.74,18.96.3723.0435.7404.0645,1.1019.0645,6.6404,0,11.4554-7.0933,13.9781-13.4946,17.72-44.9897-5.14-97.6499.54-145.1299,1.64-13.7598,6.22-29.7002,19.29-34.3198,2.2583-.7974,4.4833-1.1675,6.653-1.1675,15.7388,0,28.59,19.478,30.497,36.7476,4.81,43.5298-21.65,87.7998-9.71,129.9399,2.6048,9.2183,10.3452,19.2017,18.8957,19.2017,1.56,0,3.1466-.332,4.7343-1.062,5.28-2.4399,7.87-8.4097,9.41-14.02,12.29-44.7798-13.1-91.5996-9.94-137.9399.93-13.6299,6.42-29.3398,19.58-33,1.8029-.5024,3.5674-.7388,5.2836-.7388,15.847,0,27.6349,20.1572,28.6364,37.4087,2.33,39.8501-21.31,77.5903-20.1,117.4902.4769,15.7163,9.0293,34.6626,24.6628,34.6626.1028,0,.2038-.001.3072-.0024,16.11-.25,23.92-19.8101,25.58-35.8403,2.62-25.3101.35-51.1299-6.65-75.5898-4.69-16.4102-11.56-32.77-10.51-49.7998,1.0382-16.8389,13.3322-34.6572,30.0998-34.6572.1904,0,.3786.0024.5702.0068,14.98.3604,26.44,14.9102,28.92,29.6802,2.48,14.7803-1.7,29.75-5.21,44.3198-9.52,39.4902-13.69,83.73,7.38,118.4604,2.34,3.8599,5.29,7.7896,9.62,9.0796,1.0605.3154,2.0846.4639,3.0696.4639,9.2878,0,15.1585-13.1714,16.4604-23.5239,5.11-40.6299,3.94-82.0396-3.44-122.3198-3.43-18.6997-4.38-44.3398,13.79-49.9199,1.9608-.6016,3.8651-.8838,5.7019-.8838,16.2704,0,27.4795,22.1006,30.2381,40.0537,5.59,36.3101,4.9,73.5698-2.03,109.6499-2.4,12.5-5.5,25.6504-1.37,37.6899,3.1735,9.229,12.6938,16.8193,21.8256,16.8193,2.7812,0,5.5254-.7036,8.0444-2.2793,6.97-4.3696,9.37-13.25,10.77-21.3599,6-34.7798,4.01-70.9102-5.78-104.8198-5.02-17.3604-12.12-34.6899-11.2-52.7402.91-18.0498,13.19-37.29,31.22-38.3999.5628-.0342,1.1215-.0513,1.6756-.0513,19.0962,0,32.9406,20.123,36.9444,39.1313,9.84,46.6201-14.66,92.9497-21.15,140.1499-1.28,9.2998-1.33,20.1201,5.6,26.4399,3.135,2.8608,7.1195,4.1196,11.2574,4.1196,6.725,0,13.8562-3.3242,18.4126-8.4995,7.3602-8.3599,9.76-19.8501,11.89-30.79,7.9602-40.8101,1.6692-81.4497,9.6292-122.2598,3.0213-15.5205,13.6987-69.521,42.8445-69.5229M574.0575,0v13l-.0003-13h-.003c-10.2343.0005-19.8803,4.3677-27.895,12.6294-5.7433,5.9199-10.8745,14.0435-15.2512,24.144-7.3272,16.9106-10.9223,35.3789-12.4577,43.2656-4.1938,21.501-4.6297,42.7744-5.0513,63.3472-.4173,20.3667-.8115,39.6035-4.5768,58.9077-1.7105,8.7852-3.6482,18.7368-8.8877,24.6885-2.1203,2.4082-5.6795,4.0898-8.6555,4.0898-1.1298,0-1.969-.2432-2.4945-.7222-.9525-.8687-2.9975-4.0698-1.4842-15.0649,2.1348-15.5264,6.3057-30.8926,10.7213-47.1606,8.5287-31.4214,17.3477-63.9121,10.2698-97.4463-2.5563-12.1362-8.1188-23.6689-15.662-32.4697-9.3838-10.9478-21.4595-16.9771-34.0023-16.9771-.8162,0-1.6463.0254-2.467.0757-24.4545,1.5049-40.6469,24.6978-43.1438,47.3843-1.9104-4.6768-4.2021-9.0732-6.781-12.9404-8.2057-12.3052-19.2155-19.082-31.0017-19.082-3.165,0-6.3661.4897-9.5145,1.4556-9.3057,2.8574-22.6477,11.2861-24.693,36.0225-.1002-.7671-.2146-1.5361-.3436-2.3052-1.6754-9.978-6.2895-19.5156-12.9927-26.8579-7.8153-8.5605-17.914-13.4146-28.4355-13.6675-.2943-.0073-.5869-.0107-.8828-.0107-18.065,0-31.9149,12.8828-38.6521,28.5835-.8887-1.5518-1.8398-3.0522-2.8501-4.4912-8.0442-11.4556-18.8845-17.7642-30.524-17.7642-2.9248,0-5.8762.4092-8.772,1.2153-9.5384,2.6533-17.302,9.3398-22.4468,19.3359-.7548,1.4663-1.4267,2.9497-2.025,4.4341-7.7177-13.6616-20.3215-24.1138-35.5068-24.1138-3.6977,0-7.392.6421-10.9802,1.9087-6.3905,2.2588-15.2765,7.6323-21.347,20.4141-3.1797,6.6953-5.3748,14.9805-6.5245,24.626-2.5334,21.1768.1301,42.8052,2.706,63.7207,3.4742,28.2095,6.7555,54.855-2.433,78.1836-.338.8579-.6909,1.6177-1.0385,2.2808-.2925-1.188-.5659-2.6655-.7637-4.4663-1.6627-15.1348-1.424-30.2979-1.1713-46.3511.2231-14.1821.454-28.8467-.7407-43.5674-3.0037-37.0181-11.5182-67.5264-26.0303-93.2681-4.8311-8.5693-11.8365-19.25-23.223-25.8398-6.4197-3.7153-13.9122-5.6792-21.6677-5.6792-14.4172,0-27.7361,6.5713-35.6284,17.5781C-1.1927,41.915-2.3894,61.915,5.5515,81.5454c3.6605,9.0488,8.5787,17.0415,13.3348,24.7705,2.9175,4.7412,5.6732,9.2192,8.0678,13.8022,11.1072,21.2578,15.803,48.3623,13.5798,78.3833-1.5743,21.2593-6.5381,41.7603-11.7933,63.4644-3.4515,14.2549-7.0203,28.9956-9.5256,43.936-14.765,88.0557-14.8141,178.0898-14.8617,265.1597-.0206,37.856-.0422,77.0005-1.2848,115.2896-.3382,10.4224-.7894,21.063-1.2255,31.3535-1.771,41.7764-3.6024,84.9751,1.397,127.6406.8825,7.5283,1.9828,14.9458,3.2702,22.0469,5.8268,32.3286,15.8095,61.3257,29.668,86.1733,8.6909,15.5591,18.9555,29.5654,30.5134,41.6377,19.1105,19.9561,43.112,36.1582,71.3385,48.1562,25.0505,10.6479,52.9628,17.8262,82.9615,21.3354,16.4337,1.9224,33.5848,2.8574,52.4333,2.8574,34.0903,0,68.4868-3.1323,101.7506-6.1611,3.9383-.3589,7.8747-.7173,11.8088-1.0708l1.3848-.124c38.818-3.4834,78.9577-7.0854,114.0802-26.9824,22.5005-12.7393,41.6758-31.626,56.9907-56.1343,13.3288-21.3306,23.4993-46.917,29.4123-73.9937,9.346-42.7476,9.0157-86.7012,8.6963-129.2075-.0567-7.561-.1155-15.3799-.117-23.0283-.008-43.4473,1.8647-87.8818,3.6757-130.853,2.737-64.9453,5.5672-132.1016,2.0357-197.9507-1.8922-35.1758-5.3798-67.0947-10.6622-97.583-1.354-7.8276-2.85-15.877-4.2968-23.6606-2.3865-12.8408-4.8543-26.1187-6.8292-39.1392-1.411-9.2925-3.0245-17.627-4.5848-25.6875-5.8353-30.1436-9.6903-50.0571,6.2443-76.2642,13.2262-21.7734,24.5487-59.4131,27.8557-83.2266,2.3273-16.7588,2.4863-30.2739.4862-41.3174-1.495-8.2549-4.264-15.2124-8.23-20.6797-5.0413-6.9502-12.1417-11.6235-20.5338-13.5161-2.8612-.645-5.7327-.9722-8.5348-.9722h0ZM342.5483,232.1577c-.3768-.5132-.8409-1.2021-1.4-2.124-15.4377-25.4468-17.3533-60.9932-5.8587-108.6743.277-1.1499.5578-2.3008.8392-3.4536,2.0625-8.4517,4.2913-17.5835,5.1295-27.0737.3574,3.7329.9145,7.7217,1.6967,11.9858,7.166,39.1128,8.286,78.9331,3.3283,118.3525-.605,4.8101-2.3385,8.8433-3.735,10.9873h0ZM423.8971,240.8818c-3.0642,0-7.9993-3.5889-9.532-8.0464-2.685-7.8271-.7577-17.6875,1.2828-28.127.1885-.9644.3765-1.9268.5605-2.8848,5.196-27.0527,7.0315-54.4443,5.4994-81.7759.9633,3.0757,1.8779,6.021,2.7355,8.9863,9.2282,31.9639,11.116,66.1987,5.4575,98.9985-1.2208,7.0728-2.8577,11.2974-4.8643,12.5552-.239.1499-.551.2939-1.1393.2939h0ZM259.5445,227.1953c-6.1947,0-11.3593-11.8569-11.6689-22.0566-.5315-17.5283,4.4088-35.0518,9.6395-53.605,2.3953-8.4961,4.8243-17.1118,6.7545-25.8926.7051,2.2661,1.3788,4.4766,2.0125,6.6938,6.503,22.7236,8.653,47.1626,6.2187,70.6792-1.2227,11.8066-6.3638,24.0796-12.8508,24.1802l-.1055.001h0ZM196.8555,224.0195c-1.7755-1.2388-4.693-4.8647-5.9637-9.3618-5.6877-20.0732-1.1033-41.748,3.75-64.6948.2097-.9912.4199-1.9854.6295-2.98.0104.0527.0206.1045.031.1572,5.0097,25.3486,9.7417,49.292,3.5829,71.7319-.7984,2.9082-1.556,4.4131-2.0297,5.1475h0Z"/>
      </g>
      <g>
        <path class="cls-4" d="M457.2317,802.7427c-4.02,18.89-11.71,37.58-25.55,51.06-27.93,27.21-71.66,26.45-110.63,28.06-27.02,1.13-54.04,4.23-81.05,2.78-27.01-1.44-54.55-7.82-76.39-23.78-12.86-9.4-23.11-21.94-30.34-36.1-4.75-9.3-8.2-19.3-10.23-29.58-1.86-9.46-2.53-19.16-1.91-28.77,4.46-69.04,75.61-137.34,146.83-112.2599,16.68,5.88,31.41,16.25,47.18,24.23,4.87,2.46,9.85,4.7,15.01,6.5,32.97,11.52,72.59,5.16,100.75,25.35.59.42,1.17.85,1.75,1.3,5.74,4.42,10.47,9.6899,14.28,15.58,13.73,21.15,15.71,50.2,10.3,75.63Z"/>
        <path class="cls-2" d="M237.257,648.8506c10.1017-.001,20.3981,1.6729,30.7047,5.3022,16.68,5.8799,31.4101,16.25,47.18,24.23,4.87,2.46,9.8501,4.6997,15.01,6.5,32.9701,11.52,72.5901,5.1597,100.75,25.3501.5901.4199,1.17.8496,1.75,1.2998,5.74,4.4199,10.4701,9.6899,14.2801,15.5801,13.7299,21.1499,15.7099,50.1997,10.2999,75.6299-4.02,18.8901-11.71,37.5801-25.5499,51.0601-27.93,27.21-71.6601,26.4502-110.6301,28.0601-22.0609.9224-44.1266,3.1587-66.1821,3.1587-4.9578,0-9.9106-.1128-14.8678-.3789-27.01-1.4399-54.5501-7.8198-76.3901-23.7798-12.8599-9.3999-23.1099-21.9399-30.34-36.1001-4.75-9.2998-8.2-19.2998-10.23-29.5801-1.8599-9.46-2.53-19.1597-1.91-28.77,3.8146-59.0488,56.4225-117.5566,116.1254-117.562M237.2655,635.8506h-.0096c-16.4023.0015-32.6888,3.8174-48.4073,11.3418-14.6088,6.9932-28.0661,16.8525-39.9982,29.3032-23.8079,24.8433-38.6395,57.311-40.6916,89.0791-.6865,10.6401.0292,21.4453,2.1271,32.1157,2.2755,11.5234,6.1132,22.6182,11.4085,32.9854,8.3402,16.3345,20.1824,30.4028,34.2458,40.6821,21.3742,15.6196,49.4232,24.4565,83.3695,26.2661,4.9795.2676,10.0708.3975,15.5599.3975,14.3078,0,28.6483-.9155,42.5165-1.8013,7.9582-.5078,16.1872-1.0332,24.2087-1.3687,3.1565-.1304,6.3513-.2456,9.5665-.3613,37.664-1.355,80.3532-2.8906,109.5921-31.376,14.164-13.7954,23.9865-33.1973,29.1935-57.6655,3.0965-14.5557,3.8655-29.646,2.2238-43.6406-1.8709-15.9487-6.6939-30.0034-14.335-41.7739-4.7139-7.2871-10.5224-13.6191-17.2526-18.8018-.6718-.5215-1.3859-1.0518-2.1438-1.5913-19.5374-14.0083-42.6661-16.8345-65.0333-19.5674-13.9235-1.7012-27.0748-3.3086-38.9662-7.4634-4.1195-1.4375-8.5128-3.3442-13.4367-5.8311-5.1758-2.6191-10.2373-5.5132-15.5962-8.5776-10.3879-5.9395-21.1295-12.0815-33.1233-16.3096-11.3858-4.0093-23.1663-6.0415-35.0181-6.0415h0Z"/>
      </g>
    </g>
  </g>
</svg>