<?xml version="1.0" encoding="UTF-8"?>
<svg id="Capa_2" xmlns="http://www.w3.org/2000/svg" viewBox="0 0 612.7443 1067.5524">
  <defs>
    <style>
      .cls-1 {
        fill: #a04040;
      }

      .cls-2 {
        fill: #f48787;
      }

      .cls-3 {
        fill: #dd6262;
      }

      .cls-4 {
        fill: #ba5858;
      }
    </style>
  </defs>
  <g id="Capa_1-2" data-name="Capa_1">
    <g>
      <g>
        <path class="cls-2" d="M571.9062,152.9582c-23.16,38.09-10.2848,65.3448-3.4048,110.6548,3.22,21.23,7.61,42.49,11.1699,63.07,5.52,31.86,8.76,63.9,10.49,96.06,5.8301,108.71-5.75,218.8-5.73,328.11.01,50,2.4,100.61-8.28,149.46-10.6699,48.8601-36.5898,96.9501-80.1099,121.5901-33.08,18.74-72.36,22.0699-110.22,25.47-54.35,4.88-109.13,10.75-163.3199,4.41-54.2-6.34-108.69-26.17-146.42-65.5699-11.24-11.7401-20.68-24.8901-28.55-38.9801-14.05-25.1901-23.05-53.42-28.23-82.16-1.28-7.06-2.32-14.16-3.15-21.24-6.1-52.06-1.79-104.68-.09-157.06,4.0967-126.2259-5.0131-253.5568,15.9743-378.7209,6.1084-36.4293,18.7185-71.537,21.4625-108.5904,2.1616-29.1891-1.4679-59.4222-15.0223-85.3635-6.6217-12.6731-15.5114-24.1723-20.8735-37.4275-5.362-13.2553-6.6177-29.4294,1.7145-41.0496,8.7436-12.1939,27.2328-15.7386,40.2194-8.2227,8.15,4.7168,13.7861,12.7698,18.4105,20.9728,15.1451,26.8648,21.9216,57.4245,24.3974,87.9347,2.443,30.107-1.3463,60.3093,1.9472,90.2872.88,8.0099,3.73,18.02,11.74,18.96,7.21.84,12.42-6.68,15.08-13.43,17.72-44.99-5.14-97.65.54-145.13,1.64-13.76,6.22-29.7,19.29-34.32,18.64-6.58,34.98,15.93,37.15,35.58,4.81,43.53-21.65,87.8-9.71,129.94,3.08,10.9,13.34,22.87,23.63,18.14,5.28-2.44,7.87-8.41,9.41-14.02,12.29-44.78-13.1-91.6-9.94-137.94.93-13.63,6.42-29.34,19.58-33,18.45-5.14,32.81,17.55,33.92,36.67,2.33,39.85-21.31,77.59-20.1,117.4901.48,15.8199,9.14,34.91,24.97,34.66,16.11-.25,23.92-19.81,25.58-35.84,2.62-25.31.35-51.13-6.65-75.59-4.69-16.41-11.56-32.77-10.51-49.8,1.05-17.03,13.61-35.06,30.67-34.65,14.98.36,26.44,14.91,28.92,29.68,2.48,14.78-1.7,29.75-5.21,44.32-9.52,39.49-13.69,83.73,7.38,118.46,2.34,3.86,5.29,7.79,9.62,9.08,11.06,3.29,18.09-11.61,19.53-23.06,5.11-40.63,3.94-82.04-3.44-122.32-3.43-18.7-4.38-44.34,13.79-49.92,19.33-5.93,32.87,19.19,35.94,39.17,5.59,36.3101,4.9,73.57-2.03,109.65-2.4,12.5-5.5,25.65-1.37,37.69,4.14,12.04,19.08,21.29,29.87,14.54,6.97-4.37,9.3701-13.25,10.77-21.36,6-34.78,4.01-70.91-5.78-104.82-5.02-17.36-12.12-34.69-11.2-52.74.91-18.05,13.19-37.29,31.22-38.4,19.96-1.22,34.5,19.52,38.62,39.08,9.84,46.62-14.66,92.95-21.15,140.15-1.28,9.3-1.33,20.12,5.6,26.44,8.23,7.51,22.31,3.98,29.67-4.38,7.3601-8.36,9.76-19.85,11.89-30.79,7.9601-40.8101,1.6692-81.4496,9.6291-122.2596,3.21-16.49,15.0603-76.4157,48.5217-68.8696,22.682,5.1152,21.4488,38.087,18.2609,61.0435-3.1987,23.0335-14.0169,58.3909-26.087,78.2609Z"/>
        <path class="cls-3" d="M574.055,13c1.8203-.0001,3.7104.2103,5.6772.6539,22.6821,5.1152,21.4487,38.087,18.2607,61.0435-3.1982,23.0335-14.0166,58.3909-26.0869,78.2609-23.1597,38.09-10.2847,65.3448-3.4048,110.6547,3.2202,21.2301,7.6104,42.49,11.1699,63.0701,5.52,31.86,8.7603,63.9,10.4902,96.0598,5.8301,108.7102-5.75,218.8002-5.73,328.1101.0098,50,2.3999,100.6101-8.2803,149.46-10.6699,48.8601-36.5898,96.95-80.1099,121.5902-33.0798,18.74-72.3599,22.0698-110.22,25.4697-37.3721,3.3556-74.9507,7.1796-112.3979,7.1796-17.0117,0-33.9941-.7889-50.9219-2.7693-54.2-6.3401-108.6899-26.1702-146.4202-65.5701-11.24-11.7401-20.6799-24.8901-28.5498-38.9801-14.05-25.1901-23.05-53.42-28.23-82.1599-1.28-7.0602-2.3201-14.16-3.1501-21.24-6.0999-52.0599-1.79-104.6799-.0898-157.0599,4.0967-126.2258-5.0132-253.5569,15.9741-378.7211,6.1084-36.4293,18.7185-71.537,21.4624-108.5903,2.1616-29.1891-1.4678-59.4223-15.0222-85.3636-6.6216-12.673-15.5115-24.1722-20.8733-37.4275-5.3621-13.2552-6.6179-29.4293,1.7144-41.0495,5.6538-7.8846,15.3831-12.1534,25.0637-12.1534,5.2908,0,10.5664,1.2745,15.1558,3.9306,8.1499,4.7169,13.7861,12.77,18.4104,20.9728,15.1453,26.8648,21.9216,57.4245,24.3975,87.9348,2.4431,30.107-1.3464,60.3092,1.9473,90.2872.8799,8.0099,3.73,18.0199,11.74,18.96.3728.0435.7402.0646,1.1021.0646,6.6396,0,11.4553-7.0936,13.9778-13.4948,17.72-44.9899-5.1399-97.65.54-145.1299,1.6401-13.76,6.22-29.7,19.29-34.32,2.2583-.7972,4.4829-1.1674,6.6526-1.1674,15.7388,0,28.5903,19.478,30.4973,36.7474,4.8101,43.5302-21.6499,87.8-9.71,129.9401,2.6047,9.2181,10.3452,19.202,18.8958,19.202,1.5601,0,3.1465-.3322,4.7344-1.062,5.28-2.4399,7.8699-8.41,9.4099-14.02,12.29-44.78-13.1001-91.6-9.9399-137.9401.9299-13.63,6.4199-29.3398,19.5801-33,1.803-.5023,3.5676-.7389,5.2839-.7389,15.8469,0,27.6345,20.1572,28.636,37.4089,2.3301,39.8502-21.3101,77.59-20.1001,117.4902.4768,15.7165,9.0293,34.6624,24.6626,34.6624.1028,0,.2039-.0007.3074-.0024,16.1101-.25,23.9202-19.8102,25.5801-35.8401,2.6201-25.31.3501-51.13-6.6499-75.59-4.6902-16.41-11.5601-32.77-10.51-49.7999,1.0381-16.8389,13.3318-34.657,30.0996-34.657.1904,0,.3787.0023.5703.0069,14.98.36,26.4399,14.91,28.9199,29.68,2.48,14.7802-1.7,29.75-5.21,44.32-9.52,39.49-13.6899,83.73,7.3801,118.4602,2.3398,3.8597,5.2898,7.7899,9.6199,9.0798,1.0605.3154,2.0847.4637,3.0698.4637,9.2876,0,15.1582-13.1716,16.4602-23.5237,5.1101-40.6301,3.9399-82.0401-3.4399-122.3201-3.4299-18.6998-4.3801-44.34,13.79-49.92,1.9609-.6016,3.865-.8839,5.7019-.8839,16.2703,0,27.4795,22.1006,30.238,40.0538,5.5901,36.3102,4.8999,73.57-2.03,109.65-2.3999,12.5-5.5,25.6502-1.3701,37.6901,3.1736,9.229,12.6938,16.8193,21.8257,16.8193,2.7812,0,5.5254-.7036,8.0444-2.2794,6.97-4.37,9.3701-13.25,10.77-21.3601,6-34.7798,4.01-70.9098-5.78-104.8199-5.02-17.36-12.1199-34.69-11.2-52.74.9099-18.05,13.1899-37.2899,31.22-38.3998.5627-.0344,1.1216-.0513,1.6755-.0513,19.0962,0,32.9407,20.1227,36.9446,39.1312,9.8398,46.62-14.6602,92.95-21.1501,140.15-1.28,9.3002-1.3301,20.12,5.6001,26.4402,3.135,2.8607,7.1194,4.1196,11.2571,4.1196,6.7251,0,13.8564-3.3241,18.4126-8.4996,7.3604-8.36,9.7603-19.8501,11.8901-30.79,7.96-40.8102,1.6694-81.4496,9.6294-122.2596,3.021-15.5208,13.6987-69.5212,42.8442-69.5234M574.0574,0v13l-.0005-13h-.0029c-10.2344.0009-19.8804,4.368-27.895,12.6293-5.7432,5.9203-10.8745,14.0435-15.251,24.1443-7.3276,16.9115-10.9229,35.3797-12.4575,43.2659-4.1938,21.501-4.6299,42.7743-5.0518,63.3472-.4175,20.3665-.812,39.6035-4.5771,58.9077-1.71,8.7847-3.6475,18.7366-8.8877,24.6882-2.1201,2.4083-5.6792,4.0901-8.655,4.0901-1.1299,0-1.9692-.2432-2.4946-.7227-.9524-.8683-2.9973-4.0695-1.4841-15.0646,2.1348-15.5266,6.3057-30.8925,10.7212-47.1607,8.5288-31.4213,17.3481-63.9125,10.27-97.4465-2.5562-12.136-8.1187-23.6689-15.6621-32.4693-9.3838-10.9478-21.4592-16.9772-34.002-16.9772-.8164,0-1.6467.0253-2.4673.0755-24.4543,1.5054-40.647,24.6981-43.1438,47.3844-1.9104-4.6766-4.2021-9.0732-6.781-12.9406-8.2058-12.3052-19.2156-19.082-31.0017-19.082-3.165,0-6.366.4897-9.5144,1.4555-9.3062,2.8579-22.6492,11.2824-24.6931,36.0235-.1001-.7682-.2144-1.5362-.3438-2.3063-1.6753-9.9777-6.2893-19.5153-12.9924-26.8577-7.8157-8.5607-17.9143-13.4145-28.436-13.6673-.2937-.0072-.5867-.0107-.8828-.0107-18.0652,0-31.9146,12.8822-38.6516,28.5828-.8884-1.5513-1.8401-3.0526-2.8499-4.4907-8.0442-11.4553-18.8845-17.7642-30.5239-17.7642-2.926,0-5.8777.409-8.7732,1.2158-9.5376,2.6526-17.3013,9.3392-22.446,19.3351-.7546,1.4665-1.4268,2.9497-2.0249,4.4344-7.7178-13.6618-20.3218-24.1139-35.5073-24.1139-3.6978,0-7.3918.6422-10.9797,1.9087-6.3909,2.259-15.2766,7.6325-21.3469,20.4142-3.1797,6.6948-5.3748,14.9802-6.5247,24.6258-2.5332,21.177.1301,42.8051,2.7061,63.7209,3.4741,28.2097,6.7556,54.8546-2.4331,78.1838-.3379.8574-.6907,1.6173-1.0383,2.28-.2922-1.1877-.5657-2.6652-.7634-4.4653-1.6628-15.1353-1.4243-30.2984-1.1716-46.3519.2231-14.1819.4541-28.8465-.7407-43.5674-3.0037-37.0181-11.5186-67.5261-26.0305-93.2675-4.8303-8.5685-11.8352-19.2493-23.2227-25.8402-6.4202-3.7153-13.9124-5.679-21.6677-5.679-14.417,0-27.7361,6.5712-35.6284,17.578C-1.1933,41.9153-2.3896,61.9153,5.5513,81.5457c3.6604,9.0488,8.5786,17.0413,13.335,24.7706,2.9175,4.741,5.6731,9.219,8.0676,13.802,11.1072,21.2577,15.803,48.3622,13.5798,78.3832-1.5745,21.2595-6.5383,41.7602-11.7932,63.4645-3.4517,14.255-7.0205,28.9955-9.5259,43.9362-14.7651,88.0559-14.814,178.0903-14.8616,265.1603-.0205,37.8557-.042,77.0002-1.2847,115.2888-.3381,10.4213-.7893,21.061-1.2253,31.3507-1.771,41.7772-3.6025,84.9768,1.3967,127.6438.8826,7.5283,1.9829,14.9456,3.2703,22.0465,5.8267,32.3289,15.8093,61.3262,29.6682,86.173,8.6904,15.5592,18.9551,29.5659,30.5129,41.6379,19.1106,19.9563,43.1121,36.1581,71.3386,48.1562,25.0505,10.6482,52.9629,17.8264,82.9612,21.3356,16.4338,1.9226,33.5847,2.8573,52.4324,2.8573,34.0889,0,68.4841-3.132,101.7468-6.1609,3.9399-.3588,7.8779-.7173,11.8137-1.0708l1.3884-.1245c38.8167-3.4835,78.9553-7.0854,114.0767-26.9822,22.5005-12.7391,41.6758-31.6261,56.9907-56.1345,13.3286-21.3301,23.499-46.9166,29.4121-73.9932,9.3457-42.7474,9.0156-86.7004,8.6968-129.2063-.0571-7.5616-.1157-15.3806-.1172-23.0297-.0078-43.447,1.8647-87.8815,3.6758-130.8528,2.7368-64.9452,5.5669-132.1013,2.0356-197.9509-1.8921-35.1749-5.3799-67.094-10.6626-97.5829-1.3545-7.8328-2.8521-15.8877-4.2993-23.6772-2.3857-12.8354-4.8525-26.108-6.8267-39.1232-1.4106-9.2917-3.0244-17.6266-4.5845-25.687-5.8354-30.1434-9.6904-50.0573,6.2441-76.2643,13.2271-21.774,24.5488-59.4138,27.8555-83.2269,2.3271-16.7587,2.4863-30.2736.4863-41.3168-1.4951-8.2548-4.2642-15.2126-8.23-20.68-5.041-6.9496-12.1416-11.6235-20.5337-13.516-2.8613-.6451-5.7324-.9724-8.5347-.9724h0ZM342.5482,232.1581c-.3767-.5132-.8408-1.2023-1.3997-2.124-15.438-25.4468-17.3538-60.9932-5.8591-108.6746.2771-1.15.5579-2.3003.8391-3.453,2.0625-8.4517,4.2915-17.5852,5.1296-27.0753.3574,3.7327.9146,7.7225,1.6968,11.9869,7.166,39.113,8.2861,78.9335,3.3281,118.3525-.605,4.8101-2.3384,8.8435-3.7349,10.9874h0ZM423.897,240.8823c-3.0642,0-7.9995-3.5894-9.5322-8.0468-2.6846-7.8267-.7576-17.6864,1.2827-28.1249.1887-.9655.3767-1.928.5608-2.8868,5.196-27.053,7.0315-54.4448,5.4993-81.7763.9636,3.0762,1.8782,6.0209,2.7356,8.9866,9.228,31.9642,11.116,66.1992,5.4575,98.9987-1.2207,7.0725-2.8577,11.2974-4.865,12.5559-.2383.1492-.5503.2936-1.1387.2936h0ZM259.5442,227.1956c-6.1948,0-11.3594-11.8568-11.6687-22.0567-.5315-17.528,4.4089-35.0518,9.6394-53.6045,2.3955-8.4964,4.8245-17.1122,6.7546-25.8926.7051,2.2659,1.3789,4.4765,2.0125,6.6938,6.5032,22.7233,8.6531,47.1622,6.2185,70.6786-1.2227,11.8066-6.364,24.0797-12.8508,24.1804l-.1055.001h0ZM196.8553,224.0198c-1.7754-1.2384-4.6929-4.8649-5.9636-9.3617-5.6877-20.0735-1.1035-41.7479,3.75-64.6947.2097-.9914.4199-1.9854.6294-2.98.0105.0527.0208.1042.031.157,5.0098,25.349,9.7417,49.2921,3.583,71.7319-.7983,2.9083-1.5559,4.4128-2.0298,5.1475h0Z"/>
      </g>
      <g>
        <path class="cls-4" d="M457.2315,802.7429c-4.02,18.89-11.71,37.58-25.55,51.06-27.93,27.21-71.66,26.45-110.63,28.06-27.02,1.13-54.04,4.23-81.05,2.78-27.01-1.44-54.55-7.82-76.39-23.78-12.86-9.4-23.11-21.94-30.34-36.1-4.75-9.3-8.2-19.3-10.23-29.58-1.86-9.46-2.53-19.16-1.91-28.77,4.46-69.04,75.61-137.34,146.83-112.2599,16.68,5.88,31.41,16.25,47.18,24.23,4.87,2.46,9.85,4.7,15.01,6.5,32.97,11.52,72.59,5.16,100.75,25.35.59.42,1.17.85,1.75,1.3,5.74,4.42,10.47,9.6899,14.28,15.58,13.73,21.15,15.71,50.2,10.3,75.63Z"/>
        <path class="cls-1" d="M237.2571,648.8507c10.1016-.0011,20.3977,1.6729,30.7043,5.3022,16.6799,5.88,31.4099,16.25,47.1799,24.23,4.8701,2.4601,9.8501,4.7001,15.01,6.5,32.97,11.52,72.5901,5.16,100.75,25.35.5901.42,1.1699.8501,1.75,1.3,5.74,4.42,10.47,9.6899,14.28,15.58,13.73,21.15,15.71,50.2001,10.3,75.63-4.02,18.89-11.71,37.5801-25.55,51.0601-27.9299,27.21-71.6599,26.45-110.6299,28.0599-22.0625.9227-44.1262,3.1589-66.1833,3.1589-4.9563,0-9.9111-.1129-14.8667-.3789-27.01-1.4399-54.55-7.8199-76.3901-23.78-12.8599-9.3999-23.1099-21.9399-30.3398-36.1-4.75-9.2999-8.2002-19.2999-10.23-29.58-1.8601-9.4601-2.53-19.16-1.9102-28.77,3.8145-59.049,56.4229-117.5565,116.1257-117.5623M237.2654,635.8506h-.0095c-16.4023.0017-32.689,3.8176-48.4075,11.3422-14.6086,6.9933-28.0662,16.8523-39.9983,29.3031-23.8079,24.8431-38.6396,57.3112-40.6917,89.079-.6865,10.6414.0293,21.4464,2.1272,32.1162,2.2751,11.5223,6.1128,22.6167,11.4084,32.985,8.3401,16.3344,20.1824,30.4025,34.2458,40.682,21.3743,15.6199,49.4233,24.4568,83.3694,26.2665,4.9783.2672,10.0691.3973,15.5588.3973,14.3091,0,28.6497-.9156,42.5178-1.8013,7.958-.5081,16.1868-1.0334,24.2087-1.369,3.157-.1304,6.3521-.2454,9.5679-.361,37.6633-1.3552,80.3521-2.8912,109.5903-31.376,14.1641-13.7954,23.9866-33.1974,29.1936-57.6658,3.0967-14.5554,3.8655-29.6458,2.2239-43.6405-1.8711-15.9486-6.6941-30.0033-14.335-41.7739-4.7141-7.2875-10.5225-13.6191-17.2527-18.8015-.6804-.528-1.3933-1.0576-2.1436-1.5916-19.5376-14.0082-42.6663-16.8344-65.0334-19.5675-13.9236-1.7014-27.075-3.3083-38.9663-7.4633-4.1184-1.4366-8.5115-3.3434-13.4368-5.8313-5.1758-2.619-10.2373-5.5132-15.5962-8.5774-10.3879-5.9396-21.1294-12.0815-33.123-16.3094-11.3857-4.0095-23.1663-6.0419-35.0181-6.0419h0Z"/>
      </g>
    </g>
  </g>
</svg>