<?xml version="1.0" encoding="UTF-8"?>
<svg id="Capa_2" data-name="Capa 2" xmlns="http://www.w3.org/2000/svg" viewBox="0 0 200.07 395.6">
  <defs>
    <style>
      .cls-1 {
        fill: #71a956;
      }

      .cls-2 {
        fill: #649648;
      }

      .cls-3 {
        fill: #56853c;
      }
    </style>
  </defs>
  <g id="Capa_1-2" data-name="Capa 1">
    <g>
      <g>
        <rect class="cls-2" x="77.18" y="184.97" width="8.04" height="210.39" rx="4.02" ry="4.02"/>
        <path class="cls-2" d="M91.76,290.4c-.43,1.9-.78,3.86-.83,5.82-.04,1.41.08,2.81.44,4.19.33,1.25.86,2.47.98,3.76.1,1.13-.1,2.27-.43,3.35-1.34,4.47-4.69,7.08-9.25,7.68-4.65.62-9.53.22-13.73-1.86-13.16-6.53-9.95-23.68-2.34-33.21,2.65-3.33,5.89-6.34,9.86-7.88.69-.26,1.49-.51,2.38-.7,4.2-.93,10.07-.83,12.14,2.61,2.15,3.59,1.82,4.33,2.05,8.41.05.82-.01,1.67-.13,2.52-.24,1.81-.77,3.64-1.14,5.31Z"/>
        <path class="cls-3" d="M92.88,304.24c.1,1.13-.1,2.27-.43,3.35-1.34,4.47-5.21,7.01-9.77,7.61-4.65.62-9.53.22-13.73-1.86-13.16-6.53-9.95-23.68-2.34-33.21,2.65-3.33,5.89-6.34,9.86-7.88.69-.26,1.49-.51,2.38-.7-1.08,1.26-3.91,3.47-7.03,8.04-4.65,6.78-5.7,12.57-5.94,14.02-.67,4.11-1.21,7.4.72,10.7,3.13,5.37,9.89,5.79,10.24,5.8,1.32.06,5.02.23,7.56-2.28,1.93-1.91,2.35-4.53,2.68-6.52.4-2.48-.09-2.9.19-5.09.4-3.06,1.74-5.17,3.46-7.83.79-1.21,1.51-2.32,2.18-3.3-.24,1.81-.77,3.64-1.14,5.31-.43,1.9-.78,3.86-.83,5.82-.04,1.41.6,2.88.96,4.26.33,1.25.86,2.47.98,3.76Z"/>
        <path class="cls-2" d="M91.69,338.61c-.43,1.9-.78,3.86-.83,5.82-.04,1.41.08,2.81.44,4.19.33,1.25.86,2.47.98,3.76.1,1.13-.1,2.27-.43,3.35-1.34,4.47-4.69,7.08-9.25,7.68-4.65.62-9.53.22-13.73-1.86-13.16-6.53-9.95-23.68-2.34-33.21,2.65-3.33,5.89-6.34,9.86-7.88.69-.26,1.49-.51,2.38-.7,4.2-.93,10.07-.83,12.14,2.61,2.15,3.59,1.82,4.33,2.05,8.41.05.82-.01,1.67-.13,2.52-.24,1.81-.77,3.64-1.14,5.31Z"/>
        <path class="cls-3" d="M92.8,352.45c.1,1.13-.1,2.27-.43,3.35-1.34,4.47-5.21,7.01-9.77,7.61-4.65.62-9.53.22-13.73-1.86-13.16-6.53-9.95-23.68-2.34-33.21,2.65-3.33,5.89-6.34,9.86-7.88.69-.26,1.49-.51,2.38-.7-1.08,1.26-3.91,3.47-7.03,8.04-4.65,6.78-5.7,12.57-5.94,14.02-.67,4.11-1.21,7.4.72,10.7,3.13,5.37,9.89,5.79,10.24,5.8,1.32.06,5.02.23,7.56-2.28,1.93-1.91,2.35-4.53,2.68-6.52.4-2.48-.09-2.9.19-5.09.4-3.06,1.74-5.17,3.46-7.83.79-1.21,1.51-2.32,2.18-3.3-.24,1.81-.77,3.64-1.14,5.31-.43,1.9-.78,3.86-.83,5.82-.04,1.41.6,2.88.96,4.26.33,1.25.86,2.47.98,3.76Z"/>
        <g>
          <path class="cls-2" d="M31.78,22.2c-.17,1.19-.91,5.64-4.77,8.88-3.62,3.02-7.71,3.12-9.72,3.16-4.81.12-8.25-1.74-9.1-2.23-1.05-.59-3.96-2.3-6.01-5.71-.12-.18-.23-.37-.34-.57-3.38-6.17-1.18-12.57-.71-13.92C1.62,10.39,4.62,1.62,12.53.19c4.06-.74,7.57.8,9.62,2.03.91.55,1.52,1.04,1.78,1.24,2.24,1.82,3.29,3.79,4.62,6.31,1.93,3.64,3.97,7.49,3.23,12.43Z"/>
          <path class="cls-3" d="M31.78,22.2c-.17,1.19-.91,5.64-4.77,8.88-3.62,3.02-7.71,3.12-9.72,3.16-4.81.12-8.25-1.74-9.1-2.23-1.05-.59-3.96-2.3-6.01-5.71,1.45.65,3.23,1.32,5.41,1.85,4.89,1.18,8.43.88,11.22-.1,2.47-.87,3.65-2.04,4.13-2.57.37-.4,1.67-1.92,2.11-4.2.31-1.59-.13-1.83.03-5.02.08-1.74.22-1.81.21-3.02,0-1.67-.26-3.1-.6-4.41-.69-2.68-1.73-4.92-2.53-6.6.91.55,1.52,1.04,1.78,1.24,2.24,1.82,3.29,3.79,4.62,6.31,1.93,3.64,3.97,7.49,3.23,12.43Z"/>
        </g>
        <path class="cls-1" d="M14.27,3.25c-1.96-.12-3.45.74-3.91,1.02-3.43,2.04-5.22,6.82-4.11,7.92.58.57,1.94.12,4.5-.72,1.33-.43,2.21-.88,3.33-1.43,2.21-1.1,3.32-1.67,3.65-2.54.4-1.04.12-2.38-.66-3.22-.83-.9-1.98-.97-2.8-1.02Z"/>
        <path class="cls-1" d="M4.16,13.72c-.88-.13-2.15,1.54-1.96,3,.07.53.37,1.38.98,1.5.54.11,1.05-.44,1.3-.72.16-.18.92-1,.75-2.15-.09-.59-.46-1.54-1.08-1.63Z"/>
        <g>
          <path class="cls-2" d="M45.17,45.91c.17,1.19.72,5.67-2.07,9.86-2.62,3.91-6.52,5.17-8.44,5.77-4.58,1.47-8.41.66-9.36.43-1.17-.28-4.45-1.09-7.37-3.79-.16-.14-.32-.29-.48-.45-4.98-4.97-4.67-11.73-4.61-13.16.07-1.49.47-10.75,7.66-14.35,3.69-1.85,7.49-1.37,9.8-.77,1.03.27,1.75.56,2.06.69,2.66,1.12,4.23,2.71,6.21,4.75,2.88,2.95,5.93,6.07,6.6,11.01Z"/>
          <path class="cls-3" d="M45.17,45.91c.17,1.19.72,5.67-2.07,9.86-2.62,3.91-6.52,5.17-8.44,5.77-4.58,1.47-8.41.66-9.36.43-1.17-.28-4.45-1.09-7.37-3.79,1.57.22,3.47.35,5.71.25,5.02-.24,8.34-1.53,10.73-3.26,2.13-1.53,2.93-2.98,3.24-3.63.24-.49,1.06-2.31.84-4.63-.15-1.61-.64-1.72-1.39-4.82-.41-1.69-.3-1.8-.65-2.96-.47-1.6-1.12-2.9-1.82-4.06-1.42-2.38-3.05-4.23-4.29-5.62,1.03.27,1.75.56,2.06.69,2.66,1.12,4.23,2.71,6.21,4.75,2.88,2.95,5.93,6.07,6.6,11.01Z"/>
        </g>
        <g>
          <path class="cls-2" d="M67.79,72.64c.05,1.2.16,5.71-3.03,9.61-2.99,3.64-6.99,4.5-8.96,4.92-4.7,1.01-8.43-.17-9.36-.49-1.14-.39-4.32-1.52-6.97-4.49-.15-.16-.29-.32-.44-.49-4.47-5.43-3.5-12.13-3.3-13.55.21-1.47,1.53-10.66,9.04-13.53,3.85-1.48,7.58-.63,9.83.2.99.37,1.69.73,1.98.89,2.54,1.37,3.94,3.11,5.71,5.34,2.57,3.22,5.3,6.62,5.49,11.61Z"/>
          <path class="cls-3" d="M67.79,72.64c.05,1.2.16,5.71-3.03,9.61-2.99,3.64-6.99,4.5-8.96,4.92-4.7,1.01-8.43-.17-9.36-.49-1.14-.39-4.32-1.52-6.97-4.49,1.54.37,3.42.69,5.66.81,5.02.25,8.45-.71,11-2.19,2.27-1.31,3.21-2.68,3.58-3.29.29-.47,1.28-2.2,1.29-4.52,0-1.61-.47-1.77-.91-4.94-.24-1.72-.12-1.82-.36-3-.31-1.64-.83-2.99-1.42-4.22-1.18-2.51-2.62-4.51-3.71-6.02.99.37,1.69.73,1.98.89,2.54,1.37,3.94,3.11,5.71,5.34,2.57,3.22,5.3,6.62,5.49,11.61Z"/>
        </g>
        <g>
          <path class="cls-2" d="M85.12,103.19c-.14,1.19-.76,5.66-4.53,9-3.53,3.11-7.62,3.32-9.63,3.42-4.8.25-8.29-1.52-9.16-1.98-1.06-.57-4.02-2.19-6.16-5.55-.12-.18-.24-.36-.35-.56-3.54-6.08-1.51-12.54-1.08-13.9.45-1.42,3.22-10.27,11.09-11.91,4.04-.85,7.59.6,9.67,1.77.92.53,1.55,1,1.81,1.19,2.29,1.76,3.39,3.71,4.79,6.18,2.02,3.59,4.17,7.39,3.56,12.34Z"/>
          <path class="cls-3" d="M85.12,103.19c-.14,1.19-.76,5.66-4.53,9-3.53,3.11-7.62,3.32-9.63,3.42-4.8.25-8.29-1.52-9.16-1.98-1.06-.57-4.02-2.19-6.16-5.55,1.47.61,3.27,1.23,5.46,1.71,4.92,1.05,8.45.66,11.21-.4,2.45-.93,3.59-2.13,4.06-2.67.36-.41,1.62-1.96,2-4.26.26-1.59-.18-1.83-.11-5.02.04-1.74.17-1.81.13-3.02-.04-1.67-.34-3.09-.72-4.39-.76-2.67-1.86-4.87-2.7-6.53.92.53,1.55,1,1.81,1.19,2.29,1.76,3.39,3.71,4.79,6.18,2.02,3.59,4.17,7.39,3.56,12.34Z"/>
        </g>
        <g>
          <path class="cls-2" d="M91.52,139.28c-.51,1.09-2.49,5.14-7.12,7.13-4.33,1.85-8.28.77-10.22.23-4.64-1.27-7.4-4.04-8.08-4.75-.83-.87-3.13-3.34-4.11-7.2-.06-.21-.11-.42-.16-.64-1.46-6.88,2.49-12.38,3.32-13.54.87-1.21,6.27-8.75,14.26-7.84,4.1.46,7.02,2.94,8.63,4.71.71.79,1.16,1.43,1.35,1.7,1.62,2.39,2.06,4.58,2.61,7.37.8,4.04,1.65,8.32-.48,12.83Z"/>
          <path class="cls-3" d="M91.52,139.28c-.51,1.09-2.49,5.14-7.12,7.13-4.33,1.85-8.28.77-10.22.23-4.64-1.27-7.4-4.04-8.08-4.75-.83-.87-3.13-3.34-4.11-7.2,1.2,1.04,2.72,2.19,4.65,3.33,4.34,2.54,7.82,3.27,10.77,3.13,2.62-.12,4.08-.9,4.69-1.27.47-.28,2.15-1.36,3.23-3.42.75-1.43.4-1.79,1.47-4.8.58-1.64.73-1.67,1.07-2.83.48-1.6.64-3.04.69-4.4.11-2.77-.24-5.21-.52-7.05.71.79,1.16,1.43,1.35,1.7,1.62,2.39,2.06,4.58,2.61,7.37.8,4.04,1.65,8.32-.48,12.83Z"/>
        </g>
        <g>
          <path class="cls-2" d="M92.88,172.28c-.51,1.09-2.49,5.14-7.12,7.13-4.33,1.85-8.28.77-10.22.23-4.64-1.27-7.4-4.04-8.08-4.75-.83-.87-3.13-3.34-4.11-7.2-.06-.21-.11-.42-.16-.64-1.46-6.88,2.49-12.38,3.32-13.54.87-1.21,6.27-8.75,14.26-7.84,4.1.46,7.02,2.94,8.63,4.71.71.79,1.16,1.43,1.35,1.7,1.62,2.39,2.06,4.58,2.61,7.37.8,4.04,1.65,8.32-.48,12.83Z"/>
          <path class="cls-3" d="M92.88,172.28c-.51,1.09-2.49,5.14-7.12,7.13-4.33,1.85-8.28.77-10.22.23-4.64-1.27-7.4-4.04-8.08-4.75-.83-.87-3.13-3.34-4.11-7.2,1.2,1.04,2.72,2.19,4.65,3.33,4.34,2.54,7.82,3.27,10.77,3.13,2.62-.12,4.08-.9,4.69-1.27.47-.28,2.15-1.36,3.23-3.42.75-1.43.4-1.79,1.47-4.8.58-1.64.73-1.67,1.07-2.83.48-1.6.64-3.04.69-4.4.11-2.77-.24-5.21-.52-7.05.71.79,1.16,1.43,1.35,1.7,1.62,2.39,2.06,4.58,2.61,7.37.8,4.04,1.65,8.32-.48,12.83Z"/>
        </g>
        <g>
          <path class="cls-2" d="M93.63,204.78c-.51,1.09-2.49,5.14-7.12,7.13-4.33,1.85-8.28.77-10.22.23-4.64-1.27-7.4-4.04-8.08-4.75-.83-.87-3.13-3.34-4.11-7.2-.06-.21-.11-.42-.16-.64-1.46-6.88,2.49-12.38,3.32-13.54.87-1.21,6.27-8.75,14.26-7.84,4.1.46,7.02,2.94,8.63,4.71.71.79,1.16,1.43,1.35,1.7,1.62,2.39,2.06,4.58,2.61,7.37.8,4.04,1.65,8.32-.48,12.83Z"/>
          <path class="cls-3" d="M93.63,204.78c-.51,1.09-2.49,5.14-7.12,7.13-4.33,1.85-8.28.77-10.22.23-4.64-1.27-7.4-4.04-8.08-4.75-.83-.87-3.13-3.34-4.11-7.2,1.2,1.04,2.72,2.19,4.65,3.33,4.34,2.54,7.82,3.27,10.77,3.13,2.62-.12,4.08-.9,4.69-1.27.47-.28,2.15-1.36,3.23-3.42.75-1.43.4-1.79,1.47-4.8.58-1.64.73-1.67,1.07-2.83.48-1.6.64-3.04.69-4.4.11-2.77-.24-5.21-.52-7.05.71.79,1.16,1.43,1.35,1.7,1.62,2.39,2.06,4.58,2.61,7.37.8,4.04,1.65,8.32-.48,12.83Z"/>
        </g>
        <path class="cls-1" d="M74.62,116.36c-1.96-.12-3.45.74-3.91,1.02-3.43,2.04-5.22,6.82-4.11,7.92.58.57,1.94.12,4.5-.72,1.33-.43,2.21-.88,3.33-1.43,2.21-1.1,3.32-1.67,3.65-2.54.4-1.04.12-2.38-.66-3.22-.83-.9-1.98-.97-2.8-1.02Z"/>
        <path class="cls-1" d="M64.51,126.83c-.88-.13-2.15,1.54-1.96,3,.07.53.37,1.38.98,1.5.54.11,1.05-.44,1.3-.72.16-.18.92-1,.75-2.15-.09-.59-.46-1.54-1.08-1.63Z"/>
      </g>
      <g>
        <rect class="cls-2" x="114.85" y="185.21" width="8.04" height="210.39" rx="4.02" ry="4.02" transform="translate(237.74 580.81) rotate(-180)"/>
        <path class="cls-2" d="M108.31,290.64c.43,1.9.78,3.86.83,5.82.04,1.41-.08,2.81-.44,4.19-.33,1.25-.86,2.47-.98,3.76-.1,1.13.1,2.27.43,3.35,1.34,4.47,4.69,7.08,9.25,7.68,4.65.62,9.53.22,13.73-1.86,13.16-6.53,9.95-23.68,2.34-33.21-2.65-3.33-5.89-6.34-9.86-7.88-.69-.26-1.49-.51-2.38-.7-4.2-.93-10.07-.83-12.14,2.61-2.15,3.59-1.82,4.33-2.05,8.41-.05.82.01,1.67.13,2.52.24,1.81.77,3.64,1.14,5.31Z"/>
        <path class="cls-3" d="M107.19,304.47c-.1,1.13.1,2.27.43,3.35,1.34,4.47,5.21,7.01,9.77,7.61,4.65.62,9.53.22,13.73-1.86,13.16-6.53,9.95-23.68,2.34-33.21-2.65-3.33-5.89-6.34-9.86-7.88-.69-.26-1.49-.51-2.38-.7,1.08,1.26,3.91,3.47,7.03,8.04,4.65,6.78,5.7,12.57,5.94,14.02.67,4.11,1.21,7.4-.72,10.7-3.13,5.37-9.89,5.79-10.24,5.8-1.32.06-5.02.23-7.56-2.28-1.93-1.91-2.35-4.53-2.68-6.52-.4-2.48.09-2.9-.19-5.09-.4-3.06-1.74-5.17-3.46-7.83-.79-1.21-1.51-2.32-2.18-3.3.24,1.81.77,3.64,1.14,5.31.43,1.9.78,3.86.83,5.82.04,1.41-.6,2.88-.96,4.26-.33,1.25-.86,2.47-.98,3.76Z"/>
        <path class="cls-2" d="M108.38,338.85c.43,1.9.78,3.86.83,5.82.04,1.41-.08,2.81-.44,4.19-.33,1.25-.86,2.47-.98,3.76-.1,1.13.1,2.27.43,3.35,1.34,4.47,4.69,7.08,9.25,7.68,4.65.62,9.53.22,13.73-1.86,13.16-6.53,9.95-23.68,2.34-33.21-2.65-3.33-5.89-6.34-9.86-7.88-.69-.26-1.49-.51-2.38-.7-4.2-.93-10.07-.83-12.14,2.61-2.15,3.59-1.82,4.33-2.05,8.41-.05.82.01,1.67.13,2.52.24,1.81.77,3.64,1.14,5.31Z"/>
        <path class="cls-3" d="M107.27,352.68c-.1,1.13.1,2.27.43,3.35,1.34,4.47,5.21,7.01,9.77,7.61,4.65.62,9.53.22,13.73-1.86,13.16-6.53,9.95-23.68,2.34-33.21-2.65-3.33-5.89-6.34-9.86-7.88-.69-.26-1.49-.51-2.38-.7,1.08,1.26,3.91,3.47,7.03,8.04,4.65,6.78,5.7,12.57,5.94,14.02.67,4.11,1.21,7.4-.72,10.7-3.13,5.37-9.89,5.79-10.24,5.8-1.32.06-5.02.23-7.56-2.28-1.93-1.91-2.35-4.53-2.68-6.52-.4-2.48.09-2.9-.19-5.09-.4-3.06-1.74-5.17-3.46-7.83-.79-1.21-1.51-2.32-2.18-3.3.24,1.81.77,3.64,1.14,5.31.43,1.9.78,3.86.83,5.82.04,1.41-.6,2.88-.96,4.26-.33,1.25-.86,2.47-.98,3.76Z"/>
        <g>
          <path class="cls-2" d="M168.29,22.43c.17,1.19.91,5.64,4.77,8.88,3.62,3.02,7.71,3.12,9.72,3.16,4.81.12,8.25-1.74,9.1-2.23,1.05-.59,3.96-2.3,6.01-5.71.12-.18.23-.37.34-.57,3.38-6.17,1.18-12.57.71-13.92-.49-1.41-3.49-10.18-11.4-11.61-4.06-.74-7.57.8-9.62,2.03-.91.55-1.52,1.04-1.78,1.24-2.24,1.82-3.29,3.79-4.62,6.31-1.93,3.64-3.97,7.49-3.23,12.43Z"/>
          <path class="cls-3" d="M168.29,22.43c.17,1.19.91,5.64,4.77,8.88,3.62,3.02,7.71,3.12,9.72,3.16,4.81.12,8.25-1.74,9.1-2.23,1.05-.59,3.96-2.3,6.01-5.71-1.45.65-3.23,1.32-5.41,1.85-4.89,1.18-8.43.88-11.22-.1-2.47-.87-3.65-2.04-4.13-2.57-.37-.4-1.67-1.92-2.11-4.2-.31-1.59.13-1.83-.03-5.02-.08-1.74-.22-1.81-.21-3.02,0-1.67.26-3.1.6-4.41.69-2.68,1.73-4.92,2.53-6.6-.91.55-1.52,1.04-1.78,1.24-2.24,1.82-3.29,3.79-4.62,6.31-1.93,3.64-3.97,7.49-3.23,12.43Z"/>
        </g>
        <path class="cls-1" d="M185.8,3.48c1.96-.12,3.45.74,3.91,1.02,3.43,2.04,5.22,6.82,4.11,7.92-.58.57-1.94.12-4.5-.72-1.33-.43-2.21-.88-3.33-1.43-2.21-1.1-3.32-1.67-3.65-2.54-.4-1.04-.12-2.38.66-3.22.83-.9,1.98-.97,2.8-1.02Z"/>
        <path class="cls-1" d="M195.91,13.95c.88-.13,2.15,1.54,1.96,3-.07.53-.37,1.38-.98,1.5-.54.11-1.05-.44-1.3-.72-.16-.18-.92-1-.75-2.15.09-.59.46-1.54,1.08-1.63Z"/>
        <g>
          <path class="cls-2" d="M154.9,46.14c-.17,1.19-.72,5.67,2.07,9.86,2.62,3.91,6.52,5.17,8.44,5.77,4.58,1.47,8.41.66,9.36.43,1.17-.28,4.45-1.09,7.37-3.79.16-.14.32-.29.48-.45,4.98-4.97,4.67-11.73,4.61-13.16-.07-1.49-.47-10.75-7.66-14.35-3.69-1.85-7.49-1.37-9.8-.77-1.03.27-1.75.56-2.06.69-2.66,1.12-4.23,2.71-6.21,4.75-2.88,2.95-5.93,6.07-6.6,11.01Z"/>
          <path class="cls-3" d="M154.9,46.14c-.17,1.19-.72,5.67,2.07,9.86,2.62,3.91,6.52,5.17,8.44,5.77,4.58,1.47,8.41.66,9.36.43,1.17-.28,4.45-1.09,7.37-3.79-1.57.22-3.47.35-5.71.25-5.02-.24-8.34-1.53-10.73-3.26-2.13-1.53-2.93-2.98-3.24-3.63-.24-.49-1.06-2.31-.84-4.63.15-1.61.64-1.72,1.39-4.82.41-1.69.3-1.8.65-2.96.47-1.6,1.12-2.9,1.82-4.06,1.42-2.38,3.05-4.23,4.29-5.62-1.03.27-1.75.56-2.06.69-2.66,1.12-4.23,2.71-6.21,4.75-2.88,2.95-5.93,6.07-6.6,11.01Z"/>
        </g>
        <g>
          <path class="cls-2" d="M132.28,72.88c-.05,1.2-.16,5.71,3.03,9.61,2.99,3.64,6.99,4.5,8.96,4.92,4.7,1.01,8.43-.17,9.36-.49,1.14-.39,4.32-1.52,6.97-4.49.15-.16.29-.32.44-.49,4.47-5.43,3.5-12.13,3.3-13.55-.21-1.47-1.53-10.66-9.04-13.53-3.85-1.48-7.58-.63-9.83.2-.99.37-1.69.73-1.98.89-2.54,1.37-3.94,3.11-5.71,5.34-2.57,3.22-5.3,6.62-5.49,11.61Z"/>
          <path class="cls-3" d="M132.28,72.88c-.05,1.2-.16,5.71,3.03,9.61,2.99,3.64,6.99,4.5,8.96,4.92,4.7,1.01,8.43-.17,9.36-.49,1.14-.39,4.32-1.52,6.97-4.49-1.54.37-3.42.69-5.66.81-5.02.25-8.45-.71-11-2.19-2.27-1.31-3.21-2.68-3.58-3.29-.29-.47-1.28-2.2-1.29-4.52,0-1.61.47-1.77.91-4.94.24-1.72.12-1.82.36-3,.31-1.64.83-2.99,1.42-4.22,1.18-2.51,2.62-4.51,3.71-6.02-.99.37-1.69.73-1.98.89-2.54,1.37-3.94,3.11-5.71,5.34-2.57,3.22-5.3,6.62-5.49,11.61Z"/>
        </g>
        <g>
          <path class="cls-2" d="M114.96,103.43c.14,1.19.76,5.66,4.53,9,3.53,3.11,7.62,3.32,9.63,3.42,4.8.25,8.29-1.52,9.16-1.98,1.06-.57,4.02-2.19,6.16-5.55.12-.18.24-.36.35-.56,3.54-6.08,1.51-12.54,1.08-13.9-.45-1.42-3.22-10.27-11.09-11.91-4.04-.85-7.59.6-9.67,1.77-.92.53-1.55,1-1.81,1.19-2.29,1.76-3.39,3.71-4.79,6.18-2.02,3.59-4.17,7.39-3.56,12.34Z"/>
          <path class="cls-3" d="M114.96,103.43c.14,1.19.76,5.66,4.53,9,3.53,3.11,7.62,3.32,9.63,3.42,4.8.25,8.29-1.52,9.16-1.98,1.06-.57,4.02-2.19,6.16-5.55-1.47.61-3.27,1.23-5.46,1.71-4.92,1.05-8.45.66-11.21-.4-2.45-.93-3.59-2.13-4.06-2.67-.36-.41-1.62-1.96-2-4.26-.26-1.59.18-1.83.11-5.02-.04-1.74-.17-1.81-.13-3.02.04-1.67.34-3.09.72-4.39.76-2.67,1.86-4.87,2.7-6.53-.92.53-1.55,1-1.81,1.19-2.29,1.76-3.39,3.71-4.79,6.18-2.02,3.59-4.17,7.39-3.56,12.34Z"/>
        </g>
        <g>
          <path class="cls-2" d="M108.56,139.52c.51,1.09,2.49,5.14,7.12,7.13,4.33,1.85,8.28.77,10.22.23,4.64-1.27,7.4-4.04,8.08-4.75.83-.87,3.13-3.34,4.11-7.2.06-.21.11-.42.16-.64,1.46-6.88-2.49-12.38-3.32-13.54-.87-1.21-6.27-8.75-14.26-7.84-4.1.46-7.02,2.94-8.63,4.71-.71.79-1.16,1.43-1.35,1.7-1.62,2.39-2.06,4.58-2.61,7.37-.8,4.04-1.65,8.32.48,12.83Z"/>
          <path class="cls-3" d="M108.56,139.52c.51,1.09,2.49,5.14,7.12,7.13,4.33,1.85,8.28.77,10.22.23,4.64-1.27,7.4-4.04,8.08-4.75.83-.87,3.13-3.34,4.11-7.2-1.2,1.04-2.72,2.19-4.65,3.33-4.34,2.54-7.82,3.27-10.77,3.13-2.62-.12-4.08-.9-4.69-1.27-.47-.28-2.15-1.36-3.23-3.42-.75-1.43-.4-1.79-1.47-4.8-.58-1.64-.73-1.67-1.07-2.83-.48-1.6-.64-3.04-.69-4.4-.11-2.77.24-5.21.52-7.05-.71.79-1.16,1.43-1.35,1.7-1.62,2.39-2.06,4.58-2.61,7.37-.8,4.04-1.65,8.32.48,12.83Z"/>
        </g>
        <g>
          <path class="cls-2" d="M107.19,172.52c.51,1.09,2.49,5.14,7.12,7.13,4.33,1.85,8.28.77,10.22.23,4.64-1.27,7.4-4.04,8.08-4.75.83-.87,3.13-3.34,4.11-7.2.06-.21.11-.42.16-.64,1.46-6.88-2.49-12.38-3.32-13.54-.87-1.21-6.27-8.75-14.26-7.84-4.1.46-7.02,2.94-8.63,4.71-.71.79-1.16,1.43-1.35,1.7-1.62,2.39-2.06,4.58-2.61,7.37-.8,4.04-1.65,8.32.48,12.83Z"/>
          <path class="cls-3" d="M107.19,172.52c.51,1.09,2.49,5.14,7.12,7.13,4.33,1.85,8.28.77,10.22.23,4.64-1.27,7.4-4.04,8.08-4.75.83-.87,3.13-3.34,4.11-7.2-1.2,1.04-2.72,2.19-4.65,3.33-4.34,2.54-7.82,3.27-10.77,3.13-2.62-.12-4.08-.9-4.69-1.27-.47-.28-2.15-1.36-3.23-3.42-.75-1.43-.4-1.79-1.47-4.8-.58-1.64-.73-1.67-1.07-2.83-.48-1.6-.64-3.04-.69-4.4-.11-2.77.24-5.21.52-7.05-.71.79-1.16,1.43-1.35,1.7-1.62,2.39-2.06,4.58-2.61,7.37-.8,4.04-1.65,8.32.48,12.83Z"/>
        </g>
        <g>
          <path class="cls-2" d="M106.44,205.02c.51,1.09,2.49,5.14,7.12,7.13,4.33,1.85,8.28.77,10.22.23,4.64-1.27,7.4-4.04,8.08-4.75.83-.87,3.13-3.34,4.11-7.2.06-.21.11-.42.16-.64,1.46-6.88-2.49-12.38-3.32-13.54-.87-1.21-6.27-8.75-14.26-7.84-4.1.46-7.02,2.94-8.63,4.71-.71.79-1.16,1.43-1.35,1.7-1.62,2.39-2.06,4.58-2.61,7.37-.8,4.04-1.65,8.32.48,12.83Z"/>
          <path class="cls-3" d="M106.44,205.02c.51,1.09,2.49,5.14,7.12,7.13,4.33,1.85,8.28.77,10.22.23,4.64-1.27,7.4-4.04,8.08-4.75.83-.87,3.13-3.34,4.11-7.2-1.2,1.04-2.72,2.19-4.65,3.33-4.34,2.54-7.82,3.27-10.77,3.13-2.62-.12-4.08-.9-4.69-1.27-.47-.28-2.15-1.36-3.23-3.42-.75-1.43-.4-1.79-1.47-4.8-.58-1.64-.73-1.67-1.07-2.83-.48-1.6-.64-3.04-.69-4.4-.11-2.77.24-5.21.52-7.05-.71.79-1.16,1.43-1.35,1.7-1.62,2.39-2.06,4.58-2.61,7.37-.8,4.04-1.65,8.32.48,12.83Z"/>
        </g>
        <path class="cls-1" d="M125.45,116.6c1.96-.12,3.45.74,3.91,1.02,3.43,2.04,5.22,6.82,4.11,7.92-.58.57-1.94.12-4.5-.72-1.33-.43-2.21-.88-3.33-1.43-2.21-1.1-3.32-1.67-3.65-2.54-.4-1.04-.12-2.38.66-3.22.83-.9,1.98-.97,2.8-1.02Z"/>
        <path class="cls-1" d="M135.56,127.07c.88-.13,2.15,1.54,1.96,3-.07.53-.37,1.38-.98,1.5-.54.11-1.05-.44-1.3-.72-.16-.18-.92-1-.75-2.15.09-.59.46-1.54,1.08-1.63Z"/>
      </g>
    </g>
  </g>
</svg>