<?xml version="1.0" encoding="UTF-8"?>
<svg id="Capa_2" data-name="Capa 2" xmlns="http://www.w3.org/2000/svg" viewBox="0 0 126.17 234.66">
  <defs>
    <style>
      .cls-1 {
        fill: #d6404b;
      }

      .cls-2 {
        fill: #ef8090;
      }

      .cls-3 {
        fill: #9f253a;
      }

      .cls-4 {
        fill: #b23140;
      }

      .cls-5 {
        fill: #c03442;
      }
    </style>
  </defs>
  <g id="Capa_1-2" data-name="Capa 1">
    <g>
      <g>
        <rect class="cls-1" x="101.4" y="103.06" width="7.91" height="104.37" rx="3.59" ry="3.59" transform="translate(210.71 310.48) rotate(180)"/>
        <path class="cls-4" d="M105.72,207.92h-.73c-2.25,0-4.08-1.83-4.08-4.08v-97.2c0-2.25,1.83-4.08,4.08-4.08h.73c2.25,0,4.08,1.83,4.08,4.08v97.2c0,2.25-1.83,4.08-4.08,4.08ZM104.99,103.55c-1.7,0-3.09,1.39-3.09,3.09v97.2c0,1.7,1.39,3.09,3.09,3.09h.73c1.7,0,3.09-1.39,3.09-3.09v-97.2c0-1.7-1.39-3.09-3.09-3.09h-.73Z"/>
      </g>
      <path class="cls-4" d="M88.89,98.95c.1.35.22.72.36,1.07.93,2.41,2.52,4.66,4.96,5.38,2.34.68,4.78-.14,7.15.17,2.31.31,4.42,1.45,6.65,2.06,3.54.98,7.42.65,10.72-.93,3.68-1.74,6.27-4.63,7.12-7.92.75-2.82.21-5.95-2.01-8.91-1.85-2.49-4.29-4.46-6.44-6.7-3.82-3.99-7.02-8.99-12.17-11-4.23-1.65-11.42-2.22-14.47,1.88-.62.83-.8,1.8-.83,2.82-.06,1.76.36,3.7-.22,5.4-1.83,5.36-2.47,11.26-.84,16.68Z"/>
      <path class="cls-3" d="M88.89,98.95c.1.35.22.72.36,1.07.93,2.41,2.52,4.66,4.96,5.38,2.34.68,4.78-.14,7.15.17,2.31.31,4.42,1.45,6.65,2.06,3.54.98,7.42.65,10.72-.93,3.68-1.74,6.27-4.63,7.12-7.92-1.14,1.17-2.94,3.15-5.97,4.64-1.4.68-5.52,2.71-9.2,1.22-1.6-.65-1.49-1.3-3.62-2.37-3.03-1.53-4.83-1.02-6.73-1.65-2.25-.75-4.09-2.91-6.9-11.07-1.95-5.65-2.9-9.91-3.48-12.67-.06,1.76.36,3.7-.22,5.4-1.83,5.36-2.47,11.26-.84,16.68Z"/>
      <path class="cls-4" d="M99.02,234.08c4.2.72,8.5.77,12.71.17,3.56-.51,7.31-1.64,9.49-4.5.21-.26.4-.55.56-.84,1.94-3.22,1.63-7.47.5-11.12-1.69-5.4-3.67-11.02-6.04-16.12-1.41-3.05-4.65-4.71-8.11-5.2-1.88-.28-3.82-.21-5.57.17-.86.18-1.68.43-2.4.75-2.76,1.21-5.06,3.59-5.85,6.5-.73,2.65-.2,5.48-.6,8.2-1.29,9.08-8.74,19.62,5.31,22Z"/>
      <path class="cls-3" d="M99.02,234.08c4.2.72,8.5.77,12.71.17,3.56-.51,7.31-1.64,9.49-4.5.21-.26.4-.55.56-.84-2.01.68-5.16,1.77-9.49,1.81-3.19.03-8.61.08-11.54-3.45-1.98-2.39-2.25-5.72-2.48-8.63-.23-2.83.23-3.84-.32-7.11-.5-2.92-1.02-3.04-.98-4.75.08-2.73,1.49-4.81,3.02-7.01.94-1.33,1.82-2.35,2.57-3.14-.86.18-1.68.43-2.4.75-2.76,1.21-5.06,3.59-5.85,6.5-.73,2.65-.2,5.48-.6,8.2-1.29,9.08-8.74,19.62,5.31,22Z"/>
      <g>
        <rect class="cls-1" x="16.86" y="103.06" width="7.91" height="104.37" rx="3.59" ry="3.59"/>
        <path class="cls-4" d="M21.18,207.92h-.73c-2.25,0-4.08-1.83-4.08-4.08v-97.2c0-2.25,1.83-4.08,4.08-4.08h.73c2.25,0,4.08,1.83,4.08,4.08v97.2c0,2.25-1.83,4.08-4.08,4.08ZM20.45,103.55c-1.7,0-3.09,1.39-3.09,3.09v97.2c0,1.7,1.39,3.09,3.09,3.09h.73c1.7,0,3.09-1.39,3.09-3.09v-97.2c0-1.7-1.39-3.09-3.09-3.09h-.73Z"/>
      </g>
      <g>
        <rect class="cls-1" x="70.7" y=".41" width="20.7" height="109.11" rx="9.39" ry="9.39"/>
        <path class="cls-4" d="M82.01,109.94h-1.92c-5.41,0-9.8-4.4-9.8-9.8V9.8c0-5.41,4.4-9.8,9.8-9.8h1.92c5.41,0,9.8,4.4,9.8,9.8v90.33c0,5.41-4.4,9.8-9.8,9.8ZM80.09.83c-4.95,0-8.98,4.03-8.98,8.98v90.33c0,4.95,4.03,8.98,8.98,8.98h1.92c4.95,0,8.98-4.03,8.98-8.98V9.8c0-4.95-4.03-8.98-8.98-8.98h-1.92Z"/>
      </g>
      <path class="cls-4" d="M37.28,98.95c-.1.35-.22.72-.36,1.07-.93,2.41-2.52,4.66-4.96,5.38-2.34.68-4.78-.14-7.15.17-2.31.31-4.42,1.45-6.65,2.06-3.54.98-7.42.65-10.72-.93-3.68-1.74-6.27-4.63-7.12-7.92-.75-2.82-.21-5.95,2.01-8.91,1.85-2.49,4.29-4.46,6.44-6.7,3.82-3.99,7.02-8.99,12.17-11,4.23-1.65,11.42-2.22,14.47,1.88.62.83.8,1.8.83,2.82.06,1.76-.36,3.7.22,5.4,1.83,5.36,2.47,11.26.84,16.68Z"/>
      <path class="cls-3" d="M37.28,98.95c-.1.35-.22.72-.36,1.07-.93,2.41-2.52,4.66-4.96,5.38-2.34.68-4.78-.14-7.15.17-2.31.31-4.42,1.45-6.65,2.06-3.54.98-7.42.65-10.72-.93-3.68-1.74-6.27-4.63-7.12-7.92,1.14,1.17,2.94,3.15,5.97,4.64,1.4.68,5.52,2.71,9.2,1.22,1.6-.65,1.49-1.3,3.62-2.37,3.03-1.53,4.83-1.02,6.73-1.65,2.25-.75,4.09-2.91,6.9-11.07,1.95-5.65,2.9-9.91,3.48-12.67.06,1.76-.36,3.7.22,5.4,1.83,5.36,2.47,11.26.84,16.68Z"/>
      <g>
        <rect class="cls-1" x="35.98" y=".41" width="20.7" height="109.11" rx="9.39" ry="9.39"/>
        <path class="cls-4" d="M47.29,109.94h-1.92c-5.41,0-9.8-4.4-9.8-9.8V9.8c0-5.41,4.4-9.8,9.8-9.8h1.92c5.41,0,9.8,4.4,9.8,9.8v90.33c0,5.41-4.4,9.8-9.8,9.8ZM45.37.83c-4.95,0-8.98,4.03-8.98,8.98v90.33c0,4.95,4.03,8.98,8.98,8.98h1.92c4.95,0,8.98-4.03,8.98-8.98V9.8c0-4.95-4.03-8.98-8.98-8.98h-1.92Z"/>
      </g>
      <path class="cls-4" d="M27.14,234.08c-4.2.72-8.5.77-12.71.17-3.56-.51-7.31-1.64-9.49-4.5-.21-.26-.4-.55-.56-.84-1.94-3.22-1.63-7.47-.5-11.12,1.69-5.4,3.67-11.02,6.04-16.12,1.41-3.05,4.65-4.71,8.11-5.2,1.88-.28,3.82-.21,5.57.17.86.18,1.68.43,2.4.75,2.76,1.21,5.06,3.59,5.85,6.5.73,2.65.2,5.48.6,8.2,1.29,9.08,8.74,19.62-5.31,22Z"/>
      <path class="cls-3" d="M27.14,234.08c-4.2.72-8.5.77-12.71.17-3.56-.51-7.31-1.64-9.49-4.5-.21-.26-.4-.55-.56-.84,2.01.68,5.16,1.77,9.49,1.81,3.19.03,8.61.08,11.54-3.45,1.98-2.39,2.25-5.72,2.48-8.63.23-2.83-.23-3.84.32-7.11.5-2.92,1.02-3.04.98-4.75-.08-2.73-1.49-4.81-3.02-7.01-.94-1.33-1.82-2.35-2.57-3.14.86.18,1.68.43,2.4.75,2.76,1.21,5.06,3.59,5.85,6.5.73,2.65.2,5.48.6,8.2,1.29,9.08,8.74,19.62-5.31,22Z"/>
      <path class="cls-2" d="M45.54,2.2c-.08-.02-.17-.04-.25-.06-1.77-.34-3.36.73-4.63,1.84s-2.36,2.56-3.06,4.14c-.2.46-.38.93-.44,1.42,0,.05-.01.1,0,.15.04.1.18.13.28.08s.17-.14.23-.22c.76-1.01,1.7-1.9,2.84-2.43.88-.41,1.85-.59,2.79-.85s1.89-.61,2.59-1.28c.31-.3.57-.67.68-1.09s.03-.9-.25-1.23c-.2-.24-.49-.38-.8-.47Z"/>
      <rect class="cls-2" x="38.22" y="20.74" width="1.32" height="70.86" rx=".6" ry=".6"/>
      <path class="cls-2" d="M80.4,3.14c-.08-.02-.17-.04-.25-.06-1.77-.34-3.36.73-4.63,1.84s-2.36,2.56-3.06,4.14c-.2.46-.38.93-.44,1.42,0,.05-.01.1,0,.15.04.1.18.13.28.08s.17-.14.23-.22c.76-1.01,1.7-1.9,2.84-2.43.88-.41,1.85-.59,2.79-.85s1.89-.61,2.59-1.28c.31-.3.57-.67.68-1.09s.03-.9-.25-1.23c-.2-.24-.49-.38-.8-.47Z"/>
      <rect class="cls-2" x="73.08" y="21.67" width="1.32" height="70.86" rx=".6" ry=".6"/>
      <path class="cls-5" d="M14.92,80.27c-.4-.6,1.76-2.96,4.17-4.53,3.07-2,7.53-3.36,8.55-2.01.54.71.09,2.14-.65,2.95-.95,1.04-2.36,1.03-3.67,1.15-5.24.49-7.98,3.1-8.41,2.44Z"/>
    </g>
  </g>
</svg>