<?xml version="1.0" encoding="UTF-8"?>
<svg id="Capa_2" data-name="Capa 2" xmlns="http://www.w3.org/2000/svg" viewBox="0 0 140.31 214.2">
  <defs>
    <style>
      .cls-1 {
        fill: #6facde;
      }

      .cls-2 {
        fill: #3583ab;
      }

      .cls-3 {
        fill: #87bfe9;
      }

      .cls-4 {
        fill: #4591c1;
      }
    </style>
  </defs>
  <g id="Capa_1-2" data-name="Capa 1">
    <g>
      <g>
        <path class="cls-1" d="M51.41,24.39c.05-.11.09-.22.14-.34,1.06-2.67,1.81-5.53,1.59-8.39-.15-2.05-.84-4.1-2.1-5.73-.53-.69-1.33-1.19-1.7-1.95-.41-.83-.31-1.89-.57-2.78-.12-.42-.77-2.64-2.74-3.91-1.61-1.05-3.32-.94-4.3-.88-.94.06-3.28.21-4.7,1.92-.44.53-.64,1.1-1.04,2.22-.88,2.46-.43,3.06-1.17,4.43-.72,1.33-1.82,2.03-2.74,2.61-1.7,1.08-3.3,1.35-3.91,1.43-1.67.22-2.91-.07-4.3-.39-1.41-.33-2.63-.61-3.91-1.57-1.05-.78-1.65-1.64-1.96-2.09-.78-1.13-1.16-2.22-1.57-3.39-.46-1.33-.29-1.22-.52-1.7-1.18-2.42-4.62-3.06-5.74-3.26-1.04-.19-2.2-.39-3.65,0-.27.07-1.66.47-3,1.7-1.29,1.19-1.82,2.49-2.22,3.52-.86,2.2-.9,4.07-.91,5.61-.03,3.01.52,5.42.91,6.78.81,2.84,1.89,6.64,5.28,9.59,2.47,2.14,5.09,2.9,7.24,3.52,3.83,1.11,7.87,1.09,11.82.87,2.46-.14,8.77-1.81,10.53.41.58.72.82,1.65,1.03,2.55,3.5,14.82,3.18,30.07,3.18,45.19v127.78c0,3.13,2.54,5.67,5.67,5.67s5.67-2.54,5.67-5.67v-122.93c0-17.01.55-33.73-3.32-50.46-.46-2-.28-3.34.62-5.22.81-1.71,1.66-3.4,2.38-5.16Z"/>
        <path class="cls-4" d="M46.05,214.2c-3.34,0-6.05-2.71-6.05-6.05V76.94c.02-13.77.05-28.01-3.17-41.67-.22-.94-.44-1.76-.96-2.41-1.22-1.54-5.27-.94-7.95-.54-.9.13-1.67.25-2.26.28-3.88.22-8.01.26-11.95-.88-2.16-.63-4.85-1.41-7.38-3.6-3.48-3.02-4.59-6.92-5.4-9.77C.29,16.09-.02,13.78,0,11.46c.02-1.45.04-3.43.94-5.74.39-1.01.93-2.39,2.31-3.66C4.55.87,5.89.41,6.41.27c1.56-.42,2.81-.19,3.82,0,1.17.21,4.74.87,6.01,3.47.13.26.15.39.19.57.04.19.1.47.34,1.17.4,1.14.77,2.22,1.52,3.3.28.4.85,1.24,1.87,2,1.22.91,2.4,1.18,3.77,1.5,1.38.32,2.57.6,4.17.39.92-.12,2.31-.46,3.76-1.38.91-.58,1.94-1.23,2.61-2.47.34-.63.41-1.08.5-1.7.09-.64.21-1.43.65-2.68.42-1.16.62-1.74,1.11-2.33C38.26.25,40.76.1,41.7.04c.98-.06,2.82-.18,4.53.94,1.81,1.17,2.59,3.09,2.9,4.12.12.4.16.82.21,1.22.06.55.12,1.06.33,1.49.2.4.54.73.91,1.08.26.25.53.51.75.8,1.24,1.6,2.01,3.71,2.17,5.93.19,2.55-.34,5.35-1.62,8.56l-.14.34c-.57,1.39-1.23,2.76-1.86,4.08l-.52,1.09c-.88,1.84-1.03,3.09-.6,4.98,3.45,14.92,3.4,29.49,3.34,44.91,0,1.87-.01,3.75-.01,5.63v122.93c0,3.34-2.71,6.05-6.05,6.05ZM32.48,31.12c1.69,0,3.2.3,3.97,1.28.61.77.87,1.71,1.1,2.7,3.24,13.74,3.22,28.03,3.2,41.84v131.21c0,2.92,2.37,5.3,5.3,5.3s5.3-2.38,5.3-5.3v-122.93c0-1.88,0-3.76.01-5.64.06-15.38.11-29.9-3.32-44.74-.47-2.05-.3-3.48.65-5.47l.53-1.1c.63-1.31,1.29-2.67,1.85-4.04l.13-.33c1.24-3.1,1.75-5.79,1.57-8.22-.15-2.08-.87-4.04-2.02-5.53-.19-.25-.43-.48-.68-.72-.4-.38-.8-.78-1.06-1.29-.27-.55-.34-1.15-.41-1.74-.04-.39-.09-.76-.19-1.1-.27-.94-.98-2.66-2.58-3.7-1.51-.98-3.12-.88-4.08-.82-.93.06-3.12.2-4.43,1.78-.4.48-.58.99-.98,2.11-.42,1.18-.53,1.9-.62,2.53-.09.64-.17,1.2-.58,1.95-.76,1.41-1.93,2.15-2.87,2.75-1.57.99-3.07,1.36-4.06,1.49-1.73.23-3.05-.07-4.44-.4-1.45-.34-2.7-.63-4.05-1.63-1.12-.83-1.77-1.77-2.04-2.18-.8-1.17-1.2-2.29-1.61-3.48-.26-.74-.33-1.05-.37-1.26-.03-.16-.05-.22-.14-.4-1.1-2.26-4.39-2.86-5.47-3.06-.98-.18-2.09-.39-3.49,0-.47.13-1.67.53-2.84,1.61-1.25,1.15-1.75,2.44-2.12,3.38-.85,2.19-.87,4.09-.89,5.48-.02,2.25.28,4.49.9,6.68.78,2.76,1.86,6.54,5.17,9.41,2.4,2.09,5.01,2.84,7.1,3.44,3.83,1.11,7.89,1.07,11.7.86.55-.03,1.31-.14,2.19-.27,1.44-.21,3.14-.46,4.68-.46Z"/>
      </g>
      <path class="cls-4" d="M58.74,147.87c-.43,1.9-.78,3.86-.83,5.82-.04,1.41.08,2.81.44,4.19.33,1.25.86,2.47.98,3.76.1,1.13-.1,2.27-.43,3.35-1.34,4.47-4.69,7.08-9.25,7.68-4.65.62-9.53.22-13.73-1.86-13.16-6.53-9.95-23.68-2.34-33.21,2.65-3.33,5.89-6.34,9.86-7.88.69-.26,1.49-.51,2.38-.7,4.2-.93,10.07-.83,12.14,2.61,2.15,3.59,1.82,4.33,2.05,8.41.05.82-.01,1.67-.13,2.52-.24,1.81-.77,3.64-1.14,5.31Z"/>
      <path class="cls-2" d="M59.85,161.71c.1,1.13-.1,2.27-.43,3.35-1.34,4.47-5.21,7.01-9.77,7.61-4.65.62-9.53.22-13.73-1.86-13.16-6.53-9.95-23.68-2.34-33.21,2.65-3.33,5.89-6.34,9.86-7.88.69-.26,1.49-.51,2.38-.7-1.08,1.26-3.91,3.47-7.03,8.04-4.65,6.78-5.7,12.57-5.94,14.02-.67,4.11-1.21,7.4.72,10.7,3.13,5.37,9.89,5.79,10.24,5.8,1.32.06,5.02.23,7.56-2.28,1.93-1.91,2.35-4.53,2.68-6.52.4-2.48-.09-2.9.19-5.09.4-3.06,1.74-5.17,3.46-7.83.79-1.21,1.51-2.32,2.18-3.3-.24,1.81-.77,3.64-1.14,5.31-.43,1.9-.78,3.86-.83,5.82-.04,1.41.6,2.88.96,4.26.33,1.25.86,2.47.98,3.76Z"/>
      <path class="cls-3" d="M1.81,10.93c-.3-.86-.34-1.81-.21-2.72C1.91,6.13,5.22.16,7.96,2.89c.3.3.51.74.4,1.15-.15.53-.73.78-1.23,1.01-1.59.73-2.99,1.99-3.66,3.61-.38.93-.51,1.95-.55,2.95,0,.24-.11.56-.34.53-.11-.01-.19-.11-.25-.19-.23-.31-.4-.66-.53-1.02Z"/>
      <g>
        <g>
          <path class="cls-1" d="M88.9,24.39c-.05-.11-.09-.22-.14-.34-1.06-2.67-1.81-5.53-1.59-8.39.15-2.05.84-4.1,2.1-5.73.53-.69,1.33-1.19,1.7-1.95.41-.83.31-1.89.57-2.78.12-.42.77-2.64,2.74-3.91,1.61-1.05,3.32-.94,4.3-.88.94.06,3.28.21,4.7,1.92.44.53.64,1.1,1.04,2.22.88,2.46.43,3.06,1.17,4.43.72,1.33,1.82,2.03,2.74,2.61,1.7,1.08,3.3,1.35,3.91,1.43,1.67.22,2.91-.07,4.3-.39,1.41-.33,2.63-.61,3.91-1.57,1.05-.78,1.65-1.64,1.96-2.09.78-1.13,1.16-2.22,1.57-3.39.46-1.33.29-1.22.52-1.7,1.18-2.42,4.62-3.06,5.74-3.26,1.04-.19,2.2-.39,3.65,0,.27.07,1.66.47,3,1.7,1.29,1.19,1.82,2.49,2.22,3.52.86,2.2.9,4.07.91,5.61.03,3.01-.52,5.42-.91,6.78-.81,2.84-1.89,6.64-5.28,9.59-2.47,2.14-5.09,2.9-7.24,3.52-3.83,1.11-7.87,1.09-11.82.87-2.46-.14-8.77-1.81-10.53.41-.58.72-.82,1.65-1.03,2.55-3.5,14.82-3.18,30.07-3.18,45.19v127.78c0,3.13-2.54,5.67-5.67,5.67s-5.67-2.54-5.67-5.67v-122.93c0-17.01-.55-33.73,3.32-50.46.46-2,.28-3.34-.62-5.22-.81-1.71-1.66-3.4-2.38-5.16Z"/>
          <path class="cls-4" d="M94.26,214.2c-3.34,0-6.05-2.71-6.05-6.05v-122.93c0-1.88,0-3.76-.01-5.64-.06-15.42-.11-29.99,3.34-44.91.44-1.88.28-3.14-.6-4.98l-.52-1.09c-.64-1.32-1.3-2.69-1.87-4.08l-.14-.34c-1.28-3.21-1.81-6.01-1.62-8.56.17-2.23.94-4.33,2.17-5.93.23-.3.5-.55.75-.8.37-.35.71-.68.91-1.08.21-.43.27-.95.33-1.49.05-.41.09-.83.21-1.22.3-1.04,1.08-2.95,2.89-4.12,1.72-1.11,3.55-1,4.53-.94.94.06,3.44.22,4.96,2.06.48.59.69,1.17,1.11,2.33.45,1.25.56,2.04.65,2.68.09.62.15,1.07.5,1.7.67,1.24,1.7,1.89,2.61,2.47,1.45.92,2.85,1.26,3.76,1.38,1.6.21,2.79-.06,4.17-.38,1.37-.32,2.55-.59,3.77-1.5,1.02-.76,1.6-1.6,1.87-2,.75-1.09,1.12-2.16,1.52-3.3.24-.69.3-.98.35-1.17.04-.18.07-.31.19-.57,1.26-2.6,4.84-3.25,6.01-3.47,1-.18,2.26-.42,3.82,0,.52.14,1.86.59,3.16,1.78,1.38,1.27,1.94,2.71,2.31,3.66.9,2.31.92,4.29.94,5.74.03,2.32-.29,4.64-.93,6.89-.81,2.85-1.92,6.75-5.4,9.77-2.53,2.19-5.22,2.97-7.38,3.6-3.94,1.14-8.07,1.1-11.95.88-.59-.03-1.36-.15-2.26-.28-2.68-.4-6.73-.99-7.95.54-.51.65-.74,1.47-.96,2.41-3.22,13.66-3.2,27.9-3.18,41.67v131.21c0,3.34-2.71,6.05-6.05,6.05ZM97.65.75c-.92,0-2.07.14-3.17.85-1.61,1.04-2.31,2.77-2.58,3.7-.1.34-.14.71-.19,1.1-.07.59-.14,1.19-.41,1.74-.26.52-.66.91-1.06,1.29-.25.24-.49.47-.68.72-1.15,1.49-1.87,3.45-2.02,5.53-.18,2.43.33,5.12,1.57,8.22l.14.33c.56,1.37,1.21,2.73,1.85,4.04l.52,1.09c.95,1.99,1.12,3.42.65,5.47-3.43,14.84-3.38,29.36-3.32,44.74,0,1.88.01,3.76.01,5.64v122.93c0,2.92,2.38,5.3,5.3,5.3s5.3-2.38,5.3-5.3V76.94c-.02-13.81-.05-28.1,3.19-41.84.23-.99.49-1.94,1.1-2.7,1.49-1.87,5.63-1.26,8.65-.82.88.13,1.64.24,2.19.27,3.81.21,7.87.25,11.7-.86,2.09-.61,4.69-1.36,7.1-3.44,3.31-2.87,4.38-6.65,5.17-9.41.62-2.18.92-4.43.9-6.68-.02-1.39-.04-3.29-.89-5.48-.37-.94-.87-2.23-2.12-3.38-1.17-1.08-2.38-1.48-2.84-1.61-1.4-.38-2.51-.17-3.49,0-1.08.2-4.37.8-5.47,3.06-.09.18-.1.24-.13.4-.04.21-.11.52-.37,1.25-.42,1.19-.81,2.31-1.61,3.48-.28.4-.92,1.34-2.04,2.18-1.35,1-2.6,1.29-4.05,1.63-1.39.32-2.7.63-4.44.4-.99-.13-2.5-.5-4.06-1.49-.94-.59-2.1-1.33-2.87-2.75-.41-.75-.49-1.31-.58-1.95-.09-.6-.19-1.35-.62-2.53-.4-1.11-.58-1.62-.98-2.11-1.31-1.59-3.5-1.73-4.43-1.78-.26-.02-.57-.04-.91-.04Z"/>
        </g>
        <path class="cls-4" d="M81.57,147.87c.43,1.9.78,3.86.83,5.82.04,1.41-.08,2.81-.44,4.19-.33,1.25-.86,2.47-.98,3.76-.1,1.13.1,2.27.43,3.35,1.34,4.47,4.69,7.08,9.25,7.68,4.65.62,9.53.22,13.73-1.86,13.16-6.53,9.95-23.68,2.34-33.21-2.65-3.33-5.89-6.34-9.86-7.88-.69-.26-1.49-.51-2.38-.7-4.2-.93-10.07-.83-12.14,2.61-2.15,3.59-1.82,4.33-2.05,8.41-.05.82.01,1.67.13,2.52.24,1.81.77,3.64,1.14,5.31Z"/>
        <path class="cls-2" d="M80.46,161.71c-.1,1.13.1,2.27.43,3.35,1.34,4.47,5.21,7.01,9.77,7.61,4.65.62,9.53.22,13.73-1.86,13.16-6.53,9.95-23.68,2.34-33.21-2.65-3.33-5.89-6.34-9.86-7.88-.69-.26-1.49-.51-2.38-.7,1.08,1.26,3.91,3.47,7.03,8.04,4.65,6.78,5.7,12.57,5.94,14.02.67,4.11,1.21,7.4-.72,10.7-3.13,5.37-9.89,5.79-10.24,5.8-1.32.06-5.02.23-7.56-2.28-1.93-1.91-2.35-4.53-2.68-6.52-.4-2.48.09-2.9-.19-5.09-.4-3.06-1.74-5.17-3.46-7.83-.79-1.21-1.51-2.32-2.18-3.3.24,1.81.77,3.64,1.14,5.31.43,1.9.78,3.86.83,5.82.04,1.41-.6,2.88-.96,4.26-.33,1.25-.86,2.47-.98,3.76Z"/>
        <path class="cls-3" d="M138.5,10.93c.3-.86.34-1.81.21-2.72-.31-2.08-3.62-8.05-6.36-5.33-.3.3-.51.74-.4,1.15.15.53.73.78,1.23,1.01,1.59.73,2.99,1.99,3.66,3.61.38.93.51,1.95.55,2.95,0,.24.11.56.34.53.11-.01.19-.11.25-.19.23-.31.4-.66.53-1.02Z"/>
      </g>
    </g>
  </g>
</svg>