<?xml version="1.0" encoding="UTF-8"?>
<svg id="Capa_2" xmlns="http://www.w3.org/2000/svg" viewBox="0 0 85.0909 860.0906">
  <defs>
    <style>
      .cls-1 {
        fill: #70569b;
      }

      .cls-2 {
        fill: #a486ce;
      }
    </style>
  </defs>
  <g id="Capa_1-2" data-name="Capa_1">
    <g>
      <path class="cls-2" d="M42.5457,853.5906c-19.8755,0-36.0454-16.1699-36.0454-36.0454V42.5452C6.5002,22.6697,22.6702,6.4998,42.5457,6.4998s36.0454,16.1699,36.0454,36.0454v775c0,19.8755-16.1699,36.0454-36.0454,36.0454Z"/>
      <path class="cls-1" d="M42.5455,13c16.3175,0,29.5455,13.2275,29.5455,29.5454v774.9998c0,16.3176-13.228,29.5454-29.5455,29.5454s-29.5455-13.2278-29.5455-29.5454V42.5454c0-16.3179,13.2279-29.5454,29.5455-29.5454M42.5455,0C19.0859,0,0,19.0859,0,42.5454v774.9998c0,23.4595,19.0859,42.5454,42.5455,42.5454s42.5455-19.0859,42.5455-42.5454V42.5454C85.0909,19.0859,66.0051,0,42.5455,0h0Z"/>
    </g>
  </g>
</svg>