<?xml version="1.0" encoding="UTF-8"?>
<svg id="Capa_2" xmlns="http://www.w3.org/2000/svg" viewBox="0 0 420.4348 420.4348">
  <defs>
    <style>
      .cls-1 {
        fill: #e55e6c;
      }

      .cls-2 {
        fill: #b22f3f;
      }
    </style>
  </defs>
  <g id="Capa_1-2" data-name="Capa_1">
    <g>
      <circle class="cls-1" cx="210.2174" cy="210.2174" r="197.2174"/>
      <path class="cls-2" d="M210.2173,13c108.9202,0,197.2175,88.2972,197.2175,197.2174s-88.2974,197.2174-197.2175,197.2174S13,319.1376,13,210.2174,101.2971,13,210.2173,13M210.2173,0c-28.3735,0-55.905,5.5599-81.8301,16.5252-25.0342,10.5886-47.5142,25.7442-66.8159,45.046-19.3018,19.3018-34.4575,41.782-45.0459,66.8161C5.5601,154.3123,0,181.844,0,210.2174s5.5601,55.9051,16.5254,81.8301c10.5884,25.0341,25.7441,47.5143,45.0459,66.8161,19.3018,19.3018,41.7817,34.4574,66.8159,45.046,25.925,10.9653,53.4565,16.5253,81.8301,16.5253s55.905-5.5599,81.8301-16.5253c25.0342-10.5886,47.5144-25.7441,66.8162-45.046,19.3018-19.3018,34.4575-41.782,45.0459-66.8161,10.9653-25.925,16.5254-53.4567,16.5254-81.8301s-5.5601-55.9051-16.5254-81.8301c-10.5884-25.0341-25.7441-47.5143-45.0459-66.8161-19.3018-19.3018-41.782-34.4574-66.8162-45.046C266.1223,5.5599,238.5908,0,210.2173,0h0Z"/>
    </g>
  </g>
</svg>