<?xml version="1.0" encoding="UTF-8"?>
<svg id="Capa_2" xmlns="http://www.w3.org/2000/svg" viewBox="0 0 85.0909 464.6362">
  <defs>
    <style>
      .cls-1 {
        fill: #70569b;
      }

      .cls-2 {
        fill: #a486ce;
      }
    </style>
  </defs>
  <g id="Capa_1-2" data-name="Capa_1">
    <g>
      <path class="cls-2" d="M42.5453,458.1362c-19.8755,0-36.0454-16.1699-36.0454-36.0454V42.5454C6.4999,22.6699,22.6698,6.5,42.5453,6.5s36.0454,16.1699,36.0454,36.0454v379.5454c0,19.8755-16.1699,36.0454-36.0454,36.0454Z"/>
      <path class="cls-1" d="M42.5455,13c16.3175,0,29.5454,13.228,29.5454,29.5454v379.5454c0,16.3176-13.2279,29.5454-29.5454,29.5454h0c-16.3176,0-29.5455-13.2278-29.5455-29.5454V42.5454c0-16.3174,13.2279-29.5454,29.5455-29.5454h0M42.5455,0C19.0858,0,0,19.0857,0,42.5454v379.5454c0,23.4597,19.0858,42.5454,42.5455,42.5454s42.5455-19.0857,42.5455-42.5454V42.5454C85.0909,19.0857,66.0052,0,42.5455,0h0Z"/>
    </g>
  </g>
</svg>