<?xml version="1.0" encoding="UTF-8"?>
<svg id="Capa_2" xmlns="http://www.w3.org/2000/svg" viewBox="0 0 470.4548 470.4549">
  <defs>
    <style>
      .cls-1 {
        fill: #4291c1;
      }

      .cls-2 {
        fill: #86bfea;
      }
    </style>
  </defs>
  <g id="Capa_1-2" data-name="Capa_1">
    <g>
      <polygon class="cls-2" points="235.2273 17.2403 272.1844 49.4318 318.6474 33.8336 340.4721 77.7175 389.3676 81.0872 392.7372 129.9827 436.6212 151.8074 421.0229 198.2704 453.2145 235.2275 421.0229 272.1845 436.6212 318.6475 392.7372 340.4722 389.3676 389.3677 340.4721 392.7374 318.6474 436.6213 272.1844 421.0231 235.2273 453.2146 198.2703 421.0231 151.8073 436.6213 129.9826 392.7374 81.0871 389.3677 77.7174 340.4722 33.8334 318.6475 49.4317 272.1845 17.2402 235.2275 49.4317 198.2704 33.8334 151.8074 77.7174 129.9827 81.0871 81.0872 129.9826 77.7175 151.8073 33.8336 198.2703 49.4318 235.2273 17.2403"/>
      <path class="cls-1" d="M235.2273,17.2403l36.957,32.1916,46.4631-15.5983,21.8247,43.884,48.8953,3.3698,3.3699,48.8954,43.884,21.8246-15.5984,46.4631,32.1917,36.957-32.1917,36.957,15.5984,46.4631-43.884,21.8246-3.3699,48.8954-48.8953,3.3697-21.8247,43.884-46.4631-15.5983-36.957,32.1915-36.957-32.1915-46.4629,15.5983-21.8247-43.884-48.8955-3.3697-3.3696-48.8954-43.884-21.8246,15.5981-46.4631-32.1914-36.957,32.1914-36.957-15.5981-46.4631,43.884-21.8246,3.3696-48.8954,48.8955-3.3698,21.8247-43.884,46.4629,15.5983,36.957-32.1916M235.2273,0l-8.5386,7.4376-31.3413,27.2999-39.4026-13.2281-10.7351-3.6038-5.0425,10.139-18.5083,37.2157-41.4656,2.8577-11.2969.7786-.7786,11.2969-2.8577,41.4656-37.2156,18.5082-10.1392,5.0425,3.604,10.7348,13.2278,39.403-27.2996,31.3412-7.4377,8.5386,7.4377,8.5386,27.2996,31.3412-13.2278,39.403-3.604,10.7348,10.1392,5.0425,37.2156,18.5082,2.8577,41.4656.7786,11.2969,11.2969.7785,41.4656,2.8577,18.5083,37.2156,5.0425,10.139,10.7351-3.6038,39.4026-13.2281,31.3413,27.2999,8.5386,7.4377,8.5386-7.4377,31.3413-27.2999,39.4028,13.2281,10.7349,3.6038,5.0425-10.139,18.5085-37.2156,41.4653-2.8577,11.2969-.7785.7786-11.2969,2.8579-41.4656,37.2156-18.5082,10.1392-5.0425-3.6038-10.7349-13.2283-39.4029,27.3-31.3412,7.4375-8.5386-7.4375-8.5386-27.3-31.3412,13.2283-39.4029,3.6038-10.7349-10.1392-5.0425-37.2156-18.5082-2.8579-41.4656-.7786-11.2969-11.2969-.7786-41.4653-2.8577-18.5085-37.2157-5.0425-10.139-10.7349,3.6038-39.4028,13.2281-31.3413-27.2999-8.5386-7.4376h0Z"/>
    </g>
  </g>
</svg>