<?xml version="1.0" encoding="UTF-8"?>
<svg id="Capa_2" xmlns="http://www.w3.org/2000/svg" viewBox="0 0 85.0908 860.0909">
  <defs>
    <style>
      .cls-1 {
        fill: #ffcb80;
      }

      .cls-2 {
        fill: #db963b;
      }
    </style>
  </defs>
  <g id="Capa_1-2" data-name="Capa_1">
    <g>
      <rect class="cls-1" x="13" y="13" width="59.0909" height="834.0909" rx="29.5454" ry="29.5454"/>
      <path class="cls-2" d="M42.5455,13c16.3175,0,29.5453,13.2279,29.5453,29.5455v774.9999c0,16.3176-13.2278,29.5455-29.5453,29.5455h-.0001c-16.3174,0-29.5454-13.2279-29.5454-29.5455V42.5455c0-16.3176,13.228-29.5455,29.5454-29.5455h.0001M42.5455,0C19.0858,0,0,19.0859,0,42.5455v774.9999c0,23.4597,19.0858,42.5455,42.5454,42.5455s42.5454-19.0858,42.5454-42.5455V42.5455C85.0908,19.0859,66.0051,0,42.5455,0h0Z"/>
    </g>
  </g>
</svg>