<?xml version="1.0" encoding="UTF-8"?>
<svg id="Capa_2" xmlns="http://www.w3.org/2000/svg" viewBox="0 0 420.4348 420.4348">
  <defs>
    <style>
      .cls-1 {
        fill: #70569b;
      }

      .cls-2 {
        fill: #a486ce;
      }
    </style>
  </defs>
  <g id="Capa_1-2" data-name="Capa_1">
    <g>
      <path class="cls-2" d="M210.217,413.9348c-112.3301,0-203.7173-91.3872-203.7173-203.7173S97.887,6.5,210.217,6.5s203.7178,91.3875,203.7178,203.7175-91.3877,203.7173-203.7178,203.7173Z"/>
      <path class="cls-1" d="M210.2173,13c108.9202,0,197.2175,88.2974,197.2175,197.2175s-88.2972,197.2173-197.2175,197.2173S13,319.1377,13,210.2175,101.2972,13,210.2173,13M210.2173,0c-28.3734,0-55.9051,5.5601-81.8301,16.5254-25.0341,10.5884-47.5143,25.7441-66.816,45.0459-19.3018,19.3018-34.4575,41.782-45.046,66.8162C5.5599,154.3125,0,181.8442,0,210.2175s5.5599,55.905,16.5253,81.8301c10.5885,25.0342,25.7441,47.5142,45.046,66.8159,19.3018,19.3018,41.7819,34.4575,66.816,45.0459,25.925,10.9653,53.4567,16.5254,81.8301,16.5254s55.9051-5.5601,81.8301-16.5254c25.0341-10.5884,47.5143-25.7441,66.816-45.0459s34.4575-41.7817,45.046-66.8159c10.9653-25.925,16.5253-53.4565,16.5253-81.8301s-5.5599-55.905-16.5253-81.8301c-10.5885-25.0342-25.7443-47.5144-45.046-66.8162s-41.782-34.4575-66.816-45.0459C266.1224,5.5601,238.5908,0,210.2173,0h0Z"/>
    </g>
  </g>
</svg>