<?xml version="1.0" encoding="UTF-8"?>
<svg id="Capa_2" xmlns="http://www.w3.org/2000/svg" viewBox="0 0 470.4548 470.4548">
  <defs>
    <style>
      .cls-1 {
        fill: #70569b;
      }

      .cls-2 {
        fill: #a486ce;
      }
    </style>
  </defs>
  <g id="Capa_1-2" data-name="Capa_1">
    <g>
      <polygon class="cls-2" points="196.8085 428.3704 148.5087 444.5852 125.8202 398.9658 74.9911 395.4629 71.4891 344.634 25.87 321.9463 42.0848 273.646 8.62 235.2275 42.0848 196.8091 25.87 148.5085 71.4891 125.8208 74.9911 74.9917 125.8202 71.4888 148.5087 25.8696 196.8094 42.0847 235.2274 8.6201 273.6454 42.0847 321.9462 25.8696 344.6346 71.4888 395.4637 74.9917 398.9657 125.8208 444.5848 148.5085 428.37 196.8091 461.8348 235.2275 428.37 273.646 444.5848 321.9463 398.9657 344.634 395.4637 395.4629 344.6346 398.9658 321.9462 444.5852 273.6464 428.3704 235.2274 461.8347 196.8085 428.3704"/>
      <path class="cls-1" d="M235.2274,17.2402l36.957,32.1917,46.463-15.5984,21.8247,43.884,48.8955,3.3696,3.3696,48.8955,43.884,21.8247-15.5983,46.4631,32.1915,36.957-32.1915,36.957,15.5983,46.4629-43.884,21.8247-3.3696,48.8955-48.8955,3.3696-21.8247,43.884-46.463-15.5981-36.957,32.1914-36.957-32.1914-46.463,15.5981-21.8247-43.884-48.8954-3.3696-3.3698-48.8955-43.884-21.8247,15.5984-46.4629-32.1917-36.957,32.1917-36.957-15.5984-46.4631,43.884-21.8247,3.3698-48.8955,48.8954-3.3696,21.8247-43.884,46.463,15.5984,36.957-32.1917M235.2274,0l-8.5387,7.4375-31.3412,27.3-39.4027-13.2283-10.735-3.6038-5.0425,10.1392-18.5083,37.2156-41.4656,2.8577-11.297.7786-.7786,11.2969-2.8577,41.4656-37.2157,18.5085-10.1389,5.0425,3.6038,10.7349,13.2281,39.4028-27.2999,31.3413-7.4376,8.5386,7.4376,8.5386,27.3,31.3413-13.2281,39.4026-3.6039,10.7351,10.1389,5.0425,37.2157,18.5083,2.8577,41.4656.7786,11.2969,11.2969.7786,41.4657,2.8577,18.5083,37.2156,5.0425,10.1392,10.7349-3.604,39.4028-13.2278,31.3412,27.2996,8.5387,7.4377,8.5387-7.4377,31.3412-27.2996,39.4028,13.2278,10.7349,3.604,5.0425-10.1392,18.5083-37.2156,41.4657-2.8577,11.297-.7786.7784-11.2969,2.8577-41.4656,37.2157-18.5083,10.1389-5.0425-3.6038-10.7351-13.228-39.4026,27.2998-31.3413,7.4376-8.5386-7.4376-8.5386-27.2999-31.3413,13.2281-39.4028,3.6038-10.7349-10.1389-5.0425-37.2157-18.5085-2.8577-41.4656-.7784-11.2969-11.297-.7786-41.4657-2.8577-18.5083-37.2156-5.0425-10.1392-10.735,3.6038-39.4027,13.2283-31.3412-27.3-8.5387-7.4375h0Z"/>
    </g>
  </g>
</svg>