<?xml version="1.0" encoding="UTF-8"?>
<svg id="Capa_2" data-name="Capa 2" xmlns="http://www.w3.org/2000/svg" viewBox="0 0 585.41 578.59">
  <defs>
    <style>
      .cls-1 {
        fill: #bf3441;
      }

      .cls-2 {
        fill: #ba0c1c;
      }

      .cls-3 {
        fill: #d83954;
      }

      .cls-4 {
        fill: #ef7f8f;
      }

      .cls-5 {
        fill: #e55e6c;
      }

      .cls-6 {
        fill: #d6404a;
      }

      .cls-7 {
        fill: #b22f3f;
      }

      .cls-8 {
        fill: #9e2539;
      }

      .cls-9 {
        fill: #a5071b;
      }
    </style>
  </defs>
  <g id="Capa_1-2" data-name="Capa 1">
    <g>
      <path class="cls-6" d="M569.25,260.6c-17.19,7.82-23.42,27.53-30.81,43.48-8.12,17.55.72,42.43,2.34,60.63.25,2.81.44,5.77-.7,8.36-1.5,3.42-4.96,5.46-7.91,7.75-13.31,10.39-17.37,27.48-24.66,41.87-7.66,15.14-21.47,23.17-30.38,37.14-4.27,6.71-6.15,14.29-2.58,23.8,4.52,12.03,7.73,20.98,3.92,29.76-2.68,6.18-8.66,11.85-15.65,13.3-3.31.69-5.47.15-20.35-4.69-17.64-5.75-18.25-6.17-21.13-6.27-3.73-.11-8.32,1.02-24,7.83-14.25,6.19-14.37,9.23-24,13.04-4.13,1.64-8.74,2.92-47.48,3.66-19.69.37-22.29.11-27.13,2.6-6.15,3.17-11.4,9.07-21.91,20.87-8.52,9.58-10.09,12.59-15.13,14.09-6.88,2.06-15.5-.11-20.87-5.22-5.92-5.62-6.78-13.76-8.35-28.69-1.19-11.35.1-12.92-2.09-16.44-3.43-5.53-10.86-8.46-30.52-9.39-30.24-1.42-31.86,4.62-47.74,1.57-4.06-.78-30.79-5.92-41.47-25.83-4.83-8.99-3.69-15.99-10.96-21.13-6.3-4.46-13.74-3.85-22.7-3.13-18.53,1.5-23.28,8.38-36.78,6.26-4.24-.67-12.27-1.93-15.65-7.82-3.85-6.71.45-15.68,5.48-25.83,8.96-18.09,14.78-17.57,19.56-31.31,1.54-4.4,5.5-16.28,1.57-28.95-1.31-4.19-2.36-4.9-8.61-15.65-7.25-12.48-11.29-19.43-12.84-23.56-.2-.54-.35-1.04-.47-1.49-4.12-15.9,4.66-22.41-1.56-36-2.55-5.56-3.97-4.36-8.61-12.52-4.34-7.63-19.95-14.97-19.04-24.06.05-.52.13-1.03.25-1.53,3.13-13.85,28.85-16.78,31.31-32.32,1.45-9.13-3.89-9.85-3.91-24.26-.02-12.53,3.99-22.12,6.26-27.39,2.22-5.17,6.18-14.38,14.87-22.7,12.71-12.17,21.29-8.79,28.17-19.57,4.57-7.14,6.91-18.21,2.35-25.04-3.94-5.91-9.62-3.54-15.65-10.17-5.99-6.59-8.78-18.18-3.91-24.26,3.43-4.3,9.64-4.55,13.3-4.7,10.91-.44,13.18,6.36,24.26,7.04,6.24.39,20.94,1.3,31.31-7.82,5.42-4.77,2.91-6.36,10.17-14.09,3.82-4.07,11.72-12.27,23.48-14.09,1.22-.18,4.46-.12,10.95,0,12.15.24,15.25,1.02,21.92,0,4.67-.71,8.15-1.28,11.74-3.91,4.16-3.05,6-7.06,7.04-9.39,3.63-8.17.8-11.43,3.13-18.78C219.3,8.65,225.56-.08,231.95,0c3.89.04,5.2,3.32,17.22,14.86,4.92,4.73,7.38,7.1,9.39,8.61,13.61,10.29,29.8,10.21,31.3,10.18,7.03-.13,6.29-1.73,26.61-6.26,9.46-2.11,14.18-3.17,20.35-3.92,16.51-2,28.38-4.33,37.56,2.35,7.32,5.32,7.8,11.84,19.57,19.57,4.55,2.98,10.82,6.98,19.57,7.04,2.08.01,9.46-.03,16.43-4.7,7.94-5.31,6.54-10.73,13.3-14.08,6.16-3.05,15.3-2.53,19.57,2.35,2.09,2.39,3.34,6.21.78,19.56-3.34,17.44-7.37,20.88-8.61,28.96-2.82,18.36,12.53,35.79,22.4,45.86.65.66,1.27,1.29,1.86,1.88,12.13,12.13,21.3,13.22,30.15,21.11,2.48,2.22,4.93,4.96,7.42,8.63,11.91,17.57,6.68,29.95,19.56,38.34,9.93,6.47,16.96,1.69,27.4,10.18,1.46,1.18,19.62,9.32,21.52,21.59.72,4.66-1.57,21.91-16.05,28.49Z"/>
      <path class="cls-5" d="M456.24,157.67c-16.09,50.6-32.11,45.1-55.98,49.88-79.35,15.88-108.79-62.85-180.45-43.15-16.26,4.47-38.89,51.08-88.95,75.83-14.64,7.24-45.58,30.72-45.58,80.01,0,10.68-27.02,36.31-35.68,30.04-2.05-1.48-3.61-3.25-4.87-5.35-2.68-4.45-4.03-10.41-5.82-18.39-4.01-17.78.5-21.49-4.7-31.82-5.08-10.1-21.52-14.06-21.52-21.61-.01-16.74,16.9-19.91,21.85-28.29,7.79-13.2-2.17-16.27-1.37-33.99,1.3-28.49,8.02-38.07,17.21-45.52,9.78-7.9,19.71-2.96,31.83-14.86,7.18-7.05,8.36-13.36,8.61-14.87,1.53-9.43-3.48-17.09-3.91-17.74-3.26-4.84-16.16-9.44-20.09-15.46-2.41-3.7-.57-9.38.98-13.13,1.68-4.05,8.61-5.77,12.72-5.5,4.68.3,10.6,9.44,15.78,11.39,5.66,2.13,10.45,1.52,18.26.52,4.87-.62,6.18-3.86,13.11-7.76,17.43-9.8,5.09-22.5,31.89-33.85,4.52-1.91,3.24-4.85,38.74-1.95,8.02.66,12.22,1.6,16.04-1.7,5.38-4.65,3.35-11.18,8.96-19.3,3.64-5.27,5.22-17.26,12.3-17.22,9.09.04,18.02,20.1,27.65,25.7,8.91,5.17,15.38,2.58,48.53-2.35,44.22-6.58,50.93-4.68,56.34-1.31,6.87,4.28,8.56,9.01,21.4,17.22,8.81,5.64,14.54,4.41,19.3,9.91,2.77,3.2,26.05-6.04,32.67-1.37,8.22,5.81-1.51,25.6-.69,27.57,4.08,9.75,14.34,18.4,18.05,33.7,2.14,8.85,2.09,19.92-2.61,34.71Z"/>
      <path class="cls-1" d="M569.25,260.6c-17.19,7.82-23.42,27.53-30.81,43.48-8.12,17.55.72,42.43,2.34,60.63.25,2.81.44,5.77-.7,8.36-1.5,3.42-4.96,5.46-7.91,7.75-13.31,10.39-17.37,27.48-24.66,41.87-7.66,15.14-21.47,23.17-30.38,37.14-4.27,6.71-6.15,14.29-2.58,23.8,4.52,12.03,7.73,20.98,3.92,29.76-2.68,6.18-8.66,11.85-15.65,13.3-3.31.69-5.47.15-20.35-4.69-17.64-5.75-18.25-6.17-21.13-6.27-3.73-.11-8.32,1.02-24,7.83-14.25,6.19-14.37,9.23-24,13.04-4.13,1.64-8.74,2.92-47.48,3.66-19.69.37-22.29.11-27.13,2.6-6.15,3.17-11.4,9.07-21.91,20.87-8.52,9.58-10.09,12.59-15.13,14.09-6.88,2.06-15.5-.11-20.87-5.22-5.92-5.62-6.78-13.76-8.35-28.69-1.19-11.35.1-12.92-2.09-16.44-3.43-5.53-10.86-8.46-30.52-9.39-30.24-1.42-31.86,4.62-47.74,1.57-4.06-.78-30.79-5.92-41.47-25.83-4.83-8.99-3.69-15.99-10.96-21.13-6.3-4.46-13.74-3.85-22.7-3.13-18.53,1.5-23.28,8.38-36.78,6.26-4.24-.67-12.27-1.93-15.65-7.82-3.85-6.71.45-15.68,5.48-25.83,8.96-18.09,14.78-17.57,19.56-31.31,1.54-4.4,5.5-16.28,1.57-28.95-1.31-4.19-2.36-4.9-8.61-15.65-7.25-12.48-11.29-19.43-12.84-23.56-.2-.54-.35-1.04-.47-1.49-4.12-15.9,4.66-22.41-1.56-36-2.55-5.56-3.97-4.36-8.61-12.52-4.34-7.63-19.95-14.97-19.04-24.06.05-.52.13-1.03.25-1.53,4.91,2.09,9.45,4.47,13.31,6.49,25.38,13.26,32.32,30.88,66.52,69.65,17.31,19.61,25.96,29.42,34.44,36,44.07,34.2,102.33,27.49,144,22.69,0,0,74.61-8.59,130.69-50.87,8.61-6.48,12.72-11.01,15.66-14.87,14.75-19.38,9.1-36.4,19.56-72.78,7.44-25.86,9.75-32.02,12.52-38.35,13.2-30.07,23.25-32.46,32.87-54.78,7.31-16.96,7.7-29.92,7.53-39.9.65.66,1.27,1.29,1.86,1.88,12.13,12.13,21.3,13.22,30.15,21.11,2.48,2.22,4.93,4.96,7.42,8.63,11.91,17.57,6.68,29.95,19.56,38.34,9.93,6.47,16.96,1.69,27.4,10.18,1.46,1.18,19.62,9.32,21.52,21.59.72,4.66-1.57,21.91-16.05,28.49Z"/>
      <path class="cls-2" d="M392.13,324.55c-.74,2.18-1.65,4.29-2.68,6.34-4.1,8.16-10.02,15.47-14.29,23.62-6.92,13.21-9.33,28.35-15.62,41.87-9.33,20.02-27.27,35.68-48.1,43.02-20.83,7.34-44.29,6.48-64.85-1.57-15.08-5.91-28.76-15.52-44.56-19.09-19.43-4.39-42.06.21-57.67-12.17-10.89-8.65-14.98-23.42-15.6-37.31-.63-13.89,1.54-27.85.22-41.69-1.41-14.84-6.79-29.1-8.06-43.96-.28-3.3-.28-6.43-.01-9.42,1.52-17.71,12.21-30.2,28.41-39.59,19.2-11.12,40.56-19.42,56.69-35.14,10.69-10.41,20.28-24.65,35.14-26.06,10.9-1.03,21.04,5.51,29.29,12.71s15.97,15.55,26.19,19.51c10.38,4.02,21.91,2.94,33.04,3.08,11.13.15,23.26,2.06,30.78,10.26,3.7,4.03,5.72,8.86,6.99,14.08,2.78,11.48,1.88,24.86,6.98,35.75,3.61,7.7,10.05,13.71,14.3,21.08,5.99,10.37,7.27,23.34,3.41,34.68Z"/>
      <path class="cls-4" d="M283.08,59.93c3.31-2.93,9.37-7.47,20.87-10.96,6.31-1.91,18.57-4.81,34.96-3.13,15.53,1.6,27.94,2.87,32.87,12,3.58,6.62,3.27,17.45-2.61,22.96-9.43,8.83-23.81-4.81-60-6.26-18.9-.76-32.73,2.25-34.43-2.61-1.23-3.51,4.68-8.75,8.35-12Z"/>
      <path class="cls-4" d="M141.3,78.1c-.13-.04-.26-.1-.37-.21-.34-.35-.3-.91-.22-1.39,2.85-16.75,22.62-24.71,37.8-20.89,1.46.37,3.19,1.21,3.15,2.72-.02.7-.45,1.32-.89,1.87-3.3,4.08-8.33,6.7-13.57,7.08-3.53.25-7.13-.47-10.58.33-5.52,1.29-9.36,6.1-13.63,9.83-.47.41-1.16.81-1.7.67Z"/>
      <path class="cls-7" d="M569.25,260.6c-17.19,7.82-23.42,27.53-30.81,43.48-8.12,17.55.72,42.43,2.34,60.63.25,2.81.44,5.77-.7,8.36-1.5,3.42-4.96,5.46-7.91,7.75-13.31,10.39-17.37,27.48-24.66,41.87-7.66,15.14-21.47,23.17-30.38,37.14-4.27,6.71-6.15,14.29-2.58,23.8,4.52,12.03,7.73,20.98,3.92,29.76-2.68,6.18-8.66,11.85-15.65,13.3-3.31.69-5.47.15-20.35-4.69-17.64-5.75-18.25-6.17-21.13-6.27-3.73-.11-8.32,1.02-24,7.83-14.25,6.19-14.37,9.23-24,13.04-4.13,1.64-8.74,2.92-47.48,3.66-19.69.37-22.29.11-27.13,2.6-6.15,3.17-11.4,9.07-21.91,20.87-8.52,9.58-10.09,12.59-15.13,14.09-6.88,2.06-15.5-.11-20.87-5.22-5.92-5.62-6.78-13.76-8.35-28.69-1.19-11.35.1-12.92-2.09-16.44-3.43-5.53-10.86-8.46-30.52-9.39-30.24-1.42-31.86,4.62-47.74,1.57-4.06-.78-30.79-5.92-41.47-25.83-4.83-8.99-3.69-15.99-10.96-21.13-6.3-4.46-13.74-3.85-22.7-3.13-18.53,1.5-23.28,8.38-36.78,6.26-4.24-.67-12.27-1.93-15.65-7.82-3.85-6.71.45-15.68,5.48-25.83,8.96-18.09,14.78-17.57,19.56-31.31,1.54-4.4,5.5-16.28,1.57-28.95-1.31-4.19-2.36-4.9-8.61-15.65-7.25-12.48-11.29-19.43-12.84-23.56,2.15.31,27,13.64,33.97,38.49,6.97,24.86,9.35,47.54,12.52,51.65,6.82,8.84,20.84,10.01,40.42,10.77,18.07.71,18.6,33.39,37.06,41.53,26.72,11.78,69.54-.38,77.97-5.43,6.84-4.09,8.12-13.85,14.37-18.79,4.5-3.55,10.7-3.93,16.42-3.53,13.37.94,26.23,5.27,39.34,8.03,11.35,2.39,24.8,4.15,35.96-.09,9.87-3.75,17.72-8.13,28.81-7.85,8.4.21,15.56,2.15,18.78,3.13,16.63,5.07,20.19,12.75,31.31,12.52,6.43-.13,16.46-2.93,18.78-9.39,3.37-9.38-13.1-16.47-14.09-34.44-.47-8.5,2.78-14.97,6.26-21.91,8.54-17,22.54-25.78,26.61-28.17,18.1-10.63,29.83-6.29,32.87-14.09,2.47-6.34-4.6-10.92-14.09-31.3-7.45-16-11.17-24-9.39-31.31,1.96-8.03,8.09-10.69,39.13-31.3,21.61-14.35,23.83-16.51,25.05-20.35,5.12-16.2-18.65-27.73-25.05-50.09-4.01-14-.92-31.26,6.67-47.43,2.48,2.22,4.93,4.96,7.42,8.63,11.91,17.57,6.68,29.95,19.56,38.34,9.93,6.47,16.96,1.69,27.4,10.18,1.46,1.18,19.62,9.32,21.52,21.59.72,4.66-1.57,21.91-16.05,28.49Z"/>
      <path class="cls-9" d="M392.13,324.55c-.74,2.18-1.65,4.29-2.68,6.34-4.1,8.16-10.02,15.47-14.29,23.62-6.92,13.21-9.33,28.35-15.62,41.87-9.33,20.02-27.27,35.68-48.1,43.02-20.83,7.34-44.29,6.48-64.85-1.57-15.08-5.91-28.76-15.52-44.56-19.09-19.43-4.39-42.06.21-57.67-12.17-10.89-8.65-14.98-23.42-15.6-37.31-.63-13.89,1.54-27.85.22-41.69-1.41-14.84-6.79-29.1-8.06-43.96-.28-3.3-.28-6.43-.01-9.42,8,7.13,15.89,18.45,20.26,26.79,6.34,12.1,8.32,23.72,11.35,41.48,4.79,28.15,10.65,26.49,15.65,33.26,10,13.5,18.2,11.53,55.17,21.52,13.37,3.61,17.83,7.88,35.22,12.91,15.9,4.6,23.85,6.9,33.65,6.26,5.22-.34,29.71-2.65,42.26-20.35,11.54-16.27.42-27.86,13.31-46.56,7.94-11.53,13.52-9.11,21.91-22.7,2.71-4.39,10.88-17.63,9-33.65-1.29-10.97-8.36-11.38-12.13-23.74-3.81-12.44-1.62-28.2.88-36.37,2.78,11.48,1.88,24.86,6.98,35.75,3.61,7.7,10.05,13.71,14.3,21.08,5.99,10.37,7.27,23.34,3.41,34.68Z"/>
      <path class="cls-3" d="M268.47,215.93c-1.17-4.53-4.07-15.7-14.61-20.87-9.08-4.46-21.67-3.41-27.13,3.13-3.02,3.62-1.02,5.52-4.17,18.26-2.89,11.71-5.28,12.9-4.7,18.78.89,9.02,7.34,14.78,8.35,15.65,8.59,7.45,19.01,5.95,20.35,5.74,10.49-1.69,16.03-9.57,17.74-12,8.48-12.06,4.89-25.93,4.17-28.7Z"/>
      <path class="cls-3" d="M166.01,262.63c-1.64-.3-12.14-2.02-20.15,4.89-7.4,6.39-9.45,17.37-6.46,25.24,1.78,4.68,5.16,7.49,11.93,13.11,3.17,2.63,7.79,6.48,13.5,9.2,10.11,4.81,30.42,9.3,39.33-1.37,4.89-5.86,5.63-15.45,2.15-21.91-2.23-4.15-5.02-4.81-12.52-9.59-17.99-11.46-17.84-17.77-27.78-19.57Z"/>
      <path class="cls-3" d="M343.86,236.41c-4.84-3.95-11.88-5.25-18-3.52-11.71,3.31-14.87,16.29-15.26,18-2.64,11.67,4.13,21.37,5.87,23.87,5.4,7.74,9.17,6.18,17.22,16.04,6.14,7.52,5.22,9.99,10.17,13.7,5.05,3.78,14.49,7.55,21.52,3.52,7.46-4.27,9.16-15.56,7.43-23.48-2.75-12.65-13.13-11.61-20.35-27.78-4.55-10.19-2.59-15.44-8.61-20.35Z"/>
      <path class="cls-3" d="M328.83,309.27c-1.63-1.49-16.04-14.28-33.91-9.91-2.08.51-12.52,3.3-19.3,13.04-4.36,6.26-5.19,12.59-5.74,16.7-.99,7.35.06,13.31,1.04,18.65,1.74,9.48,3.48,9.53,3.91,16.04.58,8.69-2.41,10.07-1.96,17.61.11,1.89.79,13.23,9,19.57,8.04,6.21,20.07,4.65,27.78.78,7.71-3.87,13.07-14.11,23.48-34.43,4.71-9.2,7.08-13.87,7.83-17.61.4-1.97,4.62-25.09-12.13-40.43Z"/>
      <path class="cls-3" d="M194.16,327.02c-8.12-1.23-15.37,5.99-17.61,8.22-2.33,2.32-8.31,8.28-8.22,16.83.14,13.3,14.85,20.74,15.65,21.13,3.92,1.91,4.2.81,9.39,3.13,8.61,3.84,9.22,7.47,16.04,10.96,2.27,1.16,10.59,5.4,19.96,2.74,2.22-.63,10.5-3.35,14.09-11.35,3.04-6.78.86-13.2-1.17-19.17-1.57-4.61-5.75-16.9-15.65-19.96-5.81-1.79-7.17,1.57-13.7,0-10.05-2.42-10.44-11.26-18.78-12.52Z"/>
      <path class="cls-4" d="M39.62,203.52c-2.07-1.39,3.4-14.56,11.35-25.24,4.64-6.23,12.97-17.11,25.04-18,1.1-.08,7.6-.56,9,2.35,1.88,3.9-6.53,11.54-9.98,14.67-6.99,6.36-10.05,6.62-18.98,13.11-11.41,8.29-14.99,14.08-16.43,13.11Z"/>
      <path class="cls-6" d="M395.9,106.5c-1.14-.82-6.76-4.85-12.13-2.35-3.63,1.69-6.55,6.09-5.48,9,.77,2.09,3.12,2.12,11.35,4.7,9.79,3.07,11.71,4.66,12.91,3.52,2.19-2.07-.66-10.58-6.65-14.87Z"/>
      <path class="cls-6" d="M262.67,128.61c-.69-.01-7.13-.06-9,3.91-1.85,3.95,2.21,8.87,4.7,10.96,1.35,1.13,4.96,4.16,9.2,2.93,3.08-.89,5.69-3.81,5.87-6.85.08-1.4-.37-2.47-.98-3.91-.56-1.34-1.53-3.63-3.91-5.28-2.4-1.66-4.88-1.74-5.87-1.76Z"/>
      <path class="cls-6" d="M242.9,81.59c-1.93-3.09-7.77-3.27-11.74-1.83-1.08.39-7.28,2.82-7.83,8.61-.53,5.67,4.87,9.17,5.22,9.39,3.66,2.29,9.17,2.67,11.74,0,.51-.53.87-1.15,1.83-6.52,1-5.66,1.49-8.52.78-9.65Z"/>
      <path class="cls-6" d="M154.47,138.98c-6.05-1.33-11.81,4.11-14.09,6.26-1.07,1.02-13.09,12.67-7.83,22.7,3.57,6.81,13.12,9.07,20.35,7.04.99-.28,7.61-2.24,10.96-8.61,5.29-10.07-.63-25.46-9.39-27.39Z"/>
      <path class="cls-6" d="M105.69,106.63c-5.31.46-10.01,5.73-9.13,11.22.64,3.99,4.14,7.47,8.35,7.83,4.79.4,7.9-3.47,8.61-4.43.5-.68,3.38-4.58,1.83-8.87-1.43-3.95-5.85-6.07-9.65-5.74Z"/>
      <path class="cls-6" d="M66.82,225.06c-4.29-.89-8.62,5.67-9,6.26-.39.61-4.5,7.23-1.57,14.48,2.28,5.63,8.55,10.96,13.3,9.39,3.35-1.1,4.73-5.2,5.09-6.26,1.24-3.68.33-6.82-1.17-11.74-2.21-7.22-3.51-11.48-6.65-12.13Z"/>
      <path class="cls-6" d="M133.34,210.98c-3.92-1.09-10.13,4.44-9.39,9.78.37,2.69,2.57,5.79,5.87,6.26,2.85.41,5.39-1.32,6.65-3.13,3-4.31.69-11.85-3.13-12.91Z"/>
      <path class="cls-6" d="M382.99,156.19c-7.41,1.21-15.39,7.22-16.43,15.65-1.17,9.41,7,16.05,9.39,18,2.34,1.9,10.97,8.93,20.35,5.48,8.02-2.95,12.27-11.96,11.74-19.57-.82-11.89-13.4-21.46-25.04-19.57Z"/>
      <path class="cls-7" d="M458.12,239.05c-3.7-1.47-9.83,2.72-10.96,7.83-1.59,7.2,7.09,14.75,10.96,13.57,3.1-.95,3.54-7.63,3.65-9.39.1-1.47.67-10.28-3.65-12Z"/>
      <path class="cls-7" d="M473.38,212c-4.33-.35-10.25,1.77-11.35,5.87-1.01,3.77,2.5,7.52,3.52,8.61,6.51,6.95,19.62,8.53,22.3,4.3,2.88-4.54-4.86-18.01-14.48-18.78Z"/>
      <path class="cls-7" d="M68.55,335.24c-3.98-.95-10.58,6.14-10.96,13.57-.41,8,6.41,15.94,10.43,15.13,4.12-.82,5.08-10.74,5.22-12.52.45-5.65-.57-15.19-4.7-16.17Z"/>
      <path class="cls-6" d="M53.53,277.65c-4.9.57-8.5,7.64-8.35,13.57.11,4.22,2.2,10.8,7.3,12,5.44,1.28,11.37-4.24,12.52-9.91,1.57-7.73-5.64-16.33-11.48-15.65Z"/>
      <path class="cls-7" d="M90.04,376.63c-4.65,1.15-7.11,8.22-6.78,13.57.22,3.58,1.92,10.04,6.78,11.48,5.56,1.65,12.65-4.06,13.57-10.43,1.15-8.06-7.73-16.05-13.57-14.61Z"/>
      <path class="cls-7" d="M175.34,438.98c-2.6-1.78-6.39-.91-8.61,1.04-3.04,2.68-2.51,6.82-2.35,8.09.1.82.74,5.75,3.91,6.78,3.21,1.05,7.16-2.49,8.61-6,1.12-2.71,1.68-7.69-1.57-9.91Z"/>
      <path class="cls-7" d="M364.73,426.72c-3.29-.14-7.39,1.68-8.09,4.96-.95,4.47,5.22,7.81,5.74,8.09.96.5,5.6,2.94,8.61.52,2.31-1.86,2.22-5.42,1.57-7.57-1.03-3.35-4.25-5.85-7.83-6Z"/>
      <path class="cls-7" d="M408.3,368.54c-4.39-1.82-10.72-.42-13.04,4.17-2.42,4.77,1.08,9.87,1.83,10.96,1.5,2.19,4.76,5.5,7.04,4.7,2.02-.71,1.03-3.85,3.91-7.3,2.69-3.22,5.43-2.75,6-4.96.67-2.61-2.42-6.19-5.74-7.57Z"/>
      <path class="cls-7" d="M447.72,303.73c-7.73-3.67-22.08,4.53-22.7,15.65-.56,10.2,10.59,19.97,18.78,18,7.96-1.92,10.06-14.17,10.17-14.87.98-6.2-.23-15.92-6.26-18.78Z"/>
      <path class="cls-6" d="M319.6,92.02c-5.79.23-12.36,7.14-10.96,14.87,1.29,7.11,8.7,11.44,14.87,10.17,3.3-.68,6.49-3.01,7.83-6.26,3.09-7.5-4-19.09-11.74-18.78Z"/>
      <path class="cls-6" d="M425.7,69.39c-2.77-.33-5.16,1.59-6.26,3.52-1.76,3.09-.53,6.72,1.17,8.8.26.32,3.07,3.65,6.26,2.93,3.46-.77,5.26-5.82,4.3-9.59-.06-.23-1.39-5.19-5.48-5.67Z"/>
      <path class="cls-6" d="M241.34,29.41c-2.42-.52-5.08.76-6.52,2.61-2.88,3.69-.56,9.22,1.83,12,.39.45,3.98,4.54,7.04,3.39,2.5-.94,2.97-4.75,3.13-6,.54-4.32-1-11.03-5.48-12Z"/>
      <path class="cls-6" d="M173.51,79.76c-5.82-.51-11.61,6.2-10.43,12.52.9,4.82,5.78,9.11,10.96,8.35,4.2-.62,7.07-4.35,7.83-7.83,1.25-5.74-2.85-12.56-8.35-13.04Z"/>
      <path class="cls-6" d="M322.95,160.24c-3.41.33-7.16,2.55-8.35,6.26-1.64,5.15,2.22,11.46,7.83,12.52,6.03,1.14,12.3-4.14,12-9.91-.28-5.38-6.15-9.38-11.48-8.87Z"/>
      <path class="cls-8" d="M70.99,445.76c-1.71-1.77-7.73-.41-10.17,3.65-1.46,2.43-1.85,6.18.26,8.87,1.33,1.69,3.95,3.35,6,2.61,1.91-.69,2.49-3.59,3.65-9.39.97-4.87.48-5.51.26-5.74Z"/>
      <path class="cls-8" d="M144.04,491.15c-3.57-2.26-9.16-.59-10.17,2.35-1.06,3.06,3.02,6.95,6.52,8.35,1.05.42,3.82,1.53,5.48.26,2.41-1.84,2.14-8.45-1.83-10.96Z"/>
      <path class="cls-8" d="M264.82,470.8c-3.46-1.63-9.46,1.64-11.74,6.52-2.1,4.48-1.11,10.44,2.61,13.3,1.89,1.45,5.25,2.7,7.83,1.3.83-.45,2.1-1.46,3.13-4.96,1.25-4.22,2.72-14.04-1.83-16.17Z"/>
      <path class="cls-8" d="M320.9,519.85c-1.67-4.95-11.15-5.88-17.22-4.96-1.32.2-13.57,2.07-14.61,9.39-.53,3.72,1.99,7.69,5.22,9.65,4.12,2.51,8.55,1.22,9.13,1.04,3.94-1.21,3.87-3.75,8.61-5.48,3.31-1.2,4.43-.36,6.26-1.83,2.18-1.74,3.48-5.25,2.61-7.83Z"/>
      <path class="cls-8" d="M399.95,483.06c-2.06-4.78-14.99-6.3-19.57-.26-1.73,2.29-2.5,5.95-1.04,9.13,1.63,3.57,5.51,5.36,8.87,5.22,3.54-.16,5.83-2.44,7.3-3.91.33-.33,6.13-6.23,4.43-10.17Z"/>
      <path class="cls-8" d="M478.73,425.93c-3.71-3.61-11.13-2.82-15.39,1.04-.22.2-5.5,5.14-3.65,10.96,1.43,4.48,6.51,7.64,9.13,6.52,2.2-.94.98-4.17,3.91-7.04,3.11-3.06,6.73-1.62,8.09-4.17,1.14-2.17-.23-5.5-2.09-7.3Z"/>
      <path class="cls-8" d="M485.77,298.11c-2.49.94-6.09,3.33-6.52,6.78-.31,2.44,1.19,4.41,4.17,8.35,3.16,4.16,4.74,6.24,7.3,6.78,4.62.98,8.79-3.09,10.17-4.43,1.62-1.58,4.67-4.56,4.43-8.09-.44-6.47-11.79-12.31-19.57-9.39Z"/>
      <path class="cls-8" d="M482.77,385.11c-4.56-1.99-11.1.33-12.91,5.09-1.61,4.23,1.31,8.27,1.57,8.61,3.47,4.64,11.25,6.13,14.87,2.74,4.12-3.86,2.58-13.78-3.52-16.43Z"/>
      <path class="cls-8" d="M542.64,209.61c-3.97-1.7-5.95-2.56-7.63-1.76-2.19,1.04-3.59,4.13-2.74,5.48,1.03,1.63,4.43-.7,8.8,1.37,2.13,1.01,2.9,2.3,4.3,1.96,1.39-.34,2.57-2.09,2.35-3.52-.22-1.41-1.85-2.13-5.09-3.52Z"/>
      <path class="cls-8" d="M567.1,225.46c-1.62-.55-3.86,1.8-4.89,3.52-.44.74-2.26,3.77-.78,6.65.17.33,1.45,2.72,4.11,2.93,1.97.16,3.97-.93,4.7-2.54.24-.54.37-1.19-.98-5.67-1.32-4.41-1.74-4.75-2.15-4.89Z"/>
      <path class="cls-8" d="M218.25,497.8c-5.38.81-10.45,6.1-9.39,9.39,1.02,3.18,7.86,4.79,12.52,2.35,3.33-1.75,6.44-6.03,5.09-9-1.22-2.69-5.57-3.14-8.22-2.74Z"/>
      <path class="cls-5" d="M227.25,203.74c-.55-1.02,3.04-4.21,6.46-6.07,2.4-1.3,5.79-3.13,9-1.76,2.01.86,3.97,2.98,3.52,4.3-.46,1.37-3.15.97-9.39,1.96-6.57,1.04-9.15,2.37-9.59,1.57Z"/>
      <path class="cls-5" d="M330.82,235.76c-2.1-1.68-6.4.84-8.48,2.61-4.57,3.88-5.91,10.45-4.7,11.22.99.62,2.76-3.17,8.35-5.09,2.47-.85,3.73-.66,4.83-1.96,1.59-1.89,1.64-5.47,0-6.78Z"/>
      <path class="cls-5" d="M164.45,264.78c-.1-.67-3.48-1.06-6.46,0-.45.16-3.08,1.1-3,2.22.05.64.99,1.23,1.83,1.3.95.09,1.68-.47,2.22-.85,3.12-2.18,5.5-2.11,5.41-2.67Z"/>
      <path class="cls-5" d="M148.08,269.28c-.63-.28-1.68.83-2.87,2.09-1.64,1.74-2.82,2.99-2.41,4.17.32.91,1.49,1.53,2.48,1.43,1.68-.16,2.45-2.36,2.8-3.39.55-1.59.79-3.95,0-4.3Z"/>
      <path class="cls-5" d="M278.77,315.72c-.84-1.05,1.77-5.25,5.35-7.83,1.49-1.07,4.4-1.9,10.17-3.52,5.73-1.61,7.16-1.8,8.35-.91,1.47,1.09,2.15,3.53,1.3,4.83-.91,1.4-3.01.55-6.91,1.17-2.71.43-2.79,1.01-9.78,3.78-5.3,2.1-7.95,3.13-8.48,2.48Z"/>
      <path class="cls-5" d="M183.46,333.18c-.16-.92,3.32-2.5,6.46-3.03,1.29-.22,3.43-.56,5.87.29,1.18.41,3.7,1.29,3.91,3.13.11.94-.38,2.16-1.27,2.54-1.37.6-2.25-1.38-5.09-2.05-2.53-.6-3.43.6-7.34,0-1.31-.2-2.45-.38-2.54-.88Z"/>
      <path class="cls-5" d="M178.57,336.71c-.19-.13-.85.66-3.13,3.23-3.16,3.54-3.61,3.94-4.11,5.09-.94,2.15-1.21,4.99-.39,5.38.86.41,3.03-1.83,4.21-4.11.69-1.35.51-1.69,1.37-4.21,1.18-3.47,2.33-5.2,2.05-5.38Z"/>
    </g>
  </g>
</svg>