<?xml version="1.0" encoding="UTF-8"?>
<svg id="Capa_2" xmlns="http://www.w3.org/2000/svg" viewBox="0 0 1696.4552 1561.1002">
  <defs>
    <style>
      .cls-1 {
        fill: #ffcb80;
      }

      .cls-2 {
        fill: #db963b;
      }

      .cls-3 {
        fill: #eaa94b;
      }
    </style>
  </defs>
  <g id="Capa_1-2" data-name="Capa_1">
    <g>
      <g>
        <path class="cls-1" d="M1366.582,1154.7907c-76.89-15.03-141.05-49.0599-141.05-49.0599-6.73-3.5701-12.9399-7.0701-18.71-10.49-24.5701-14.5601-55.87-9.8901-75.3601,10.99-.1299.1399-.2599.2799-.3899.4199-35.79,38.16-106.0701,50.23-153.14,74.2-61.64,31.4001-103.4601,68.99-177.37,68.99-2.26,0-4.53-.0699-6.8101-.22-38.5699-2.46-74.02,21.92-83.9099,59.28-.2.75-.39,1.5-.5701,2.27-8.04,33.38,8.0901,38.47,0,90.45-3.1499,20.23-9.5099,58.22-37.1899,93.52-26.29,33.53-66.72,58.14-75.13,50.5901-10.51-9.4301,48.17-55.79,44.46-131.8401-1.37-28.26-9.25-36.95-12.26-81.26-1.89-27.79-4.02-63.6,7.66-104.25,2.94-10.23,6.06-21.05,9.78-31.6299.64-1.79-.29-3.76-2.08-4.3901l-.03-.01c-69.69-24.5699-126.55-36.0399-175.54-86.98-1.75-1.8099-3.49-3.6799-5.22-5.6-.48-.5299-.95-1.0699-1.42-1.62-13.77-15.95-35.76-22.09-55.6-15.01-4.44,1.5801-8.9901,3.47-13.65,5.73-11.13,5.3701-28.6,20.4401-63.55,50.5901-6.38,5.5-12.06,10.49-17.13,15.02-42.48,37.9199-43.11,44.0499-64.8,55.5-15.28,8.0699-51.75,25.22-101.35,27.5999-20.3.9701-70.9.8101-72.91-10.73-2.71-15.6099,88.88-20.21,158.76-93.52,3.86-4.0499,20.01-24.6799,52.32-65.9299,54.73-69.89,51.11-67.59,63.1299-81.25.17-.1899.33-.38.4901-.5601,30.96-35.0699,37.25-85.3398,16.2-127.1099-9.68-19.2101-16.69-39.3101-16.69-61.67,0-26.4701,11.16-50.09,24.9301-72.86,20.7599-34.3,17.47-77.9901-8.13-108.84l-.4-.47c-52.1-62.79-53.6-83.97-98.12-117.05-18.04-13.4-60.41-44.13-119.58-51.1-76.67-9.04-127.24,28.2-131.85,19.44-5.92-11.24,56.67-63.18,160.96-76.36,13.85-1.75,109.77-14.59,180.77,51.31,26.85,24.92,59.38,24.53,72.2,45.9,8.31,13.86,27.6,15.6,38.51,3.67.07-.08,21.73-31.1,21.8-31.18,38.77-42.16,85.26-19.13,137.47-44.21,59.29-28.47,104.3101-71.29,174.48-71.29h.11c15.58.12,29.2001-10.49,32.6-25.69.1801-.83.3601-1.64.54-2.45,12.86-57.69.54-65.91,8.5801-114.66,18.1899-110.22,130.5599-204.6,147.97-184.17,13.97,16.4-34.5801,69.58-51.1101,114.38-19.79,53.68,14.74,105.27,20.26,134.27,10.1801,53.44,24.49,53.76,35.9401,102.86.2699,1.16.5299,2.33.7899,3.52,5.97,27.14,24.5,49.89,49.9601,61.02,32.41,14.17,63.16,30.78,86.0599,55.39,11.79,12.66,20.55,27.31,27.6301,43.09,8.0999,18.05,27.1099,28.6,46.6699,25.63.1899-.03.38-.06.5701-.09,66.6599-10.08,77.8298,4.91,135.0898,0,104.9401-8.98,165.04-67.7,171.54-58.25,3.41,4.96-9.55,26.47-34.84,50.66-2.66,2.54-5.4501,5.12-8.38,7.7-24.38,21.55-57.89,44.03-97.8301,58.15-66.7,23.58-90.5199,2.31-141.0499,33.73-.09.06-.1901.12-.2799.18-14.1301,8.82-19.2201,26.89-12.1001,41.83.16.34.3301.68.5,1.01,1.42,2.74,2.8401,5.48,4.25,8.22,5.25,10.2,10.3501,20.41,14.8,30.8901,14.5,8.3899,33.52,16.75,56.75,21.0399,26,4.8099,30.59-2.22,64.3899,0,21.8801,1.4401,68.75,5.1,108.8501,35.75,24.5,18.7201,42.48,44.4701,38.33,49.58-4.5399,5.5801-30.34-19.6699-78.1901-29.6499-22.3999-4.6801-44.0599-3.1201-87.3899,0-40.42,2.8999-61.17,4.58-87.39,15.33-1.34.5499-2.66,1.11-3.9601,1.6801-2.47,11.0599-6.1399,22.3199-10.3999,33.5599-.49,1.28-.98,2.5599-1.48,3.84-2.47,6.3301-5.1201,12.66-7.8301,18.9301-6.86,15.87-3.05,34.33,9.5901,46.13.26.24.51.48.76.71,31.5599,29.49,29.1799,47.0601,52.0499,76.65,50.51,65.35,138.2999,78.22,199.38,87.17,116.24,17.04,187.9399-12.17,190.11-3.4301,3.2301,13.0499-151.66,98.6-315.8199,66.51Z"/>
        <path class="cls-2" d="M983.2252,14c3.0959,0,5.5225.9066,7.1367,2.8007,13.97,16.4-34.5801,69.5801-51.1101,114.38-19.79,53.6801,14.74,105.27,20.26,134.27,10.1802,53.4399,24.49,53.76,35.9402,102.86.2698,1.16.5298,2.33.7898,3.52,5.97,27.14,24.5,49.89,49.9602,61.02,32.4099,14.17,63.1599,30.78,86.0598,55.39,11.79,12.66,20.55,27.31,27.6301,43.09,7.1873,16.0163,22.9651,26.1276,40.0945,26.1276,2.175,0,4.3716-.163,6.5754-.4976.1899-.03.3801-.06.5701-.09,17.5398-2.6523,31.24-3.569,42.9465-3.569,26.1914,0,42.4155,4.5872,69.3955,4.5872,6.7915,0,14.2627-.2905,22.748-1.0182,97.1641-8.3146,155.8892-59.2758,169.2178-59.2758,1.0664,0,1.8408.3256,2.3223,1.0258,3.4097,4.96-9.5503,26.47-34.8403,50.66-2.6597,2.54-5.4497,5.12-8.3799,7.7-24.3799,21.55-57.8901,44.03-97.8301,58.15-66.6997,23.58-90.52,2.31-141.0498,33.73-.0898.06-.1899.1201-.2798.1801-14.1304,8.8199-19.2202,26.89-12.1003,41.83.1602.34.3301.68.5,1.01,1.4202,2.74,2.8401,5.48,4.2502,8.22,5.25,10.2,10.3501,20.41,14.7998,30.89,14.5,8.39,33.52,16.75,56.75,21.04,6.9219,1.2806,12.3286,1.722,17.1709,1.722,10.7354,0,18.7075-2.1686,34.3262-2.1686,3.7969,0,8.043.1281,12.8931.4466,21.8799,1.44,68.75,5.1,108.8501,35.75,24.5,18.72,42.48,44.47,38.3296,49.58-.4434.5446-1.0894.7957-1.938.7957-7.8481,0-33.0718-21.4396-76.252-30.4456-10.1118-2.1126-20.0728-2.9537-31.9443-2.9537-14.4268,0-31.6753,1.2421-55.4453,2.9537-40.4204,2.9-61.1704,4.58-87.3901,15.33-1.3398.55-2.6602,1.11-3.96,1.68-2.4702,11.06-6.1401,22.32-10.3999,33.56-.4902,1.28-.98,2.56-1.48,3.84-2.4702,6.33-5.1201,12.66-7.8301,18.93-6.8604,15.87-3.0503,34.33,9.5898,46.13.2603.24.5103.48.7603.71,31.5596,29.49,29.1797,47.06,52.0498,76.65,50.5098,65.35,138.2998,78.22,199.3799,87.17,27.2085,3.9885,51.9858,5.4435,73.9927,5.4435,59.2676,0,98.5044-10.5444,111.4658-10.5455,2.7871-.0002,4.3569.4872,4.6514,1.672,2.7261,11.0125-107.1729,73.6613-240.1982,73.6613-24.6118,0-49.9917-2.1411-75.6216-7.1513-76.8901-15.03-141.0498-49.06-141.0498-49.06-6.7302-3.57-12.9402-7.07-18.7102-10.49-9.5947-5.6857-20.2195-8.439-30.7627-8.4397-16.4558-.0011-32.718,6.7034-44.5974,19.4297-.1299.14-.2598.28-.3899.42-35.79,38.16-106.0701,50.23-153.1399,74.2-61.6401,31.4-103.4602,68.99-177.3701,68.99-2.26,0-4.53-.07-6.8101-.22-1.7866-.114-3.5732-.1703-5.3445-.1705-36.4614-.0028-69.1335,23.8212-78.5654,59.4505-.2.75-.3899,1.5-.5701,2.27-8.04,33.38,8.0901,38.47,0,90.45-3.1499,20.23-9.51,58.22-37.1899,93.52-23.0601,29.4104-57.0002,51.9596-70.667,51.9596-1.9143,0-3.4294-.4419-4.4629-1.3696-10.51-9.43,48.1699-55.79,44.46-131.84-1.3701-28.26-9.25-36.95-12.26-81.26-1.8901-27.79-4.02-63.6,7.6599-104.25,2.9399-10.23,6.0601-21.05,9.78-31.63.6399-1.79-.29-3.76-2.0801-4.39l-.03-.01c-69.6899-24.57-126.5498-36.04-175.5398-86.98-1.75-1.81-3.49-3.68-5.2202-5.6-.48-.53-.95-1.07-1.4199-1.62-9.9451-11.5196-24.1807-17.9221-38.7944-17.9229-5.6204-.0003-11.2944.9463-16.8054,2.9129-4.4402,1.58-8.9902,3.47-13.6501,5.73-11.1299,5.37-28.5999,20.44-63.55,50.59-6.3799,5.5-12.0598,10.49-17.1299,15.02-42.48,37.92-43.1101,44.05-64.8,55.5-15.28,8.07-51.75,25.22-101.3501,27.6-4.3948.21-10.2139.3671-16.6484.3671-23.2874,0-54.6865-2.0554-56.2615-11.0971-2.71-15.61,88.8801-20.21,158.76-93.52,3.8601-4.05,20.01-24.68,52.3201-65.93,54.73-69.89,51.1099-67.59,63.1299-81.25.1702-.19.3301-.38.49-.56,30.96-35.07,37.25-85.34,16.2-127.11-9.6799-19.21-16.6899-39.3101-16.6899-61.67,0-26.47,11.1602-50.09,24.9302-72.86,20.7598-34.3,17.47-77.99-8.1301-108.84l-.3999-.47c-52.1001-62.79-53.6001-83.97-98.1201-117.05-18.04-13.4-60.4099-44.13-119.5801-51.1-8.4045-.9909-16.5027-1.4258-24.2537-1.426-55.4187-.002-93.4604,22.2111-104.5784,22.2111-1.5127,0-2.5264-.411-3.0178-1.3451-5.9199-11.24,56.6699-63.1799,160.96-76.36,4.29-.5421,16.4614-2.1486,33.3206-2.1486,37.5684,0,98.4419,7.9713,147.4495,53.4586,26.8501,24.92,59.3799,24.53,72.2,45.9,4.5891,7.6541,12.5283,11.6124,20.5542,11.6124,6.5071,0,13.0708-2.6008,17.9558-7.9424.0701-.08,21.73-31.1,21.8-31.18,38.77-42.16,85.26-19.13,137.47-44.21,59.29-28.47,104.3101-71.29,174.48-71.29h.1101c.0867.0007.1753.0011.2617.0011,15.4714,0,28.957-10.5754,32.3381-25.691.1802-.83.3601-1.64.54-2.45,12.8601-57.6901.54-65.91,8.5801-114.66,16.5034-100.0012,110.5371-186.9707,140.8333-186.9707M983.2255,0c-25.1157,0-62.1418,32.7916-86.2173,60.8723-21.1289,24.6438-58.115,75.3186-68.4294,137.8188-3.823,23.1804-3.3142,37.786-2.822,51.9105.5703,16.3755,1.1094,31.8428-5.6094,61.9828-.1833.8247-.3643,1.6407-.5459,2.476-1.9556,8.6633-9.6265,14.7112-18.6677,14.7112l-.146-.0005c-.0386-.0002-.0771-.0005-.1157-.0005h-.1101c-54.1233,0-94.6143,23.8412-133.7722,46.8975-15.0039,8.8345-30.519,17.9697-46.7678,25.7721-19.6465,9.4376-39.0283,11.3545-57.7722,13.2084-28.416,2.8102-57.7996,5.7164-83.9431,34.1457-.0776.0848-.1548.1707-.2307.2574q-.5378.6145-11.8401,16.7905c-4.104,5.8738-8.6689,12.4072-10.2578,14.6761-2.5869,2.4869-5.5359,2.8748-7.1218,2.8748-1.7024,0-5.9434-.4688-8.5471-4.8114-9.0037-15.0089-24.2524-21.6191-38.9995-28.012-12.0945-5.2428-24.6006-10.664-35.6838-20.9504-23.3745-21.6952-51.4941-37.4929-83.5786-46.9539-23.0496-6.7969-47.7432-10.2433-73.3945-10.2433-17.2598,0-29.9253,1.606-34.6931,2.2104l-.3828.0486c-52.7693,6.6688-91.9722,22.4193-115.5676,34.4576-27.7446,14.1559-48.3826,30.4288-55.2061,43.5302-4.634,8.8976-2.5017,15.5888-.8181,18.7855,2.9072,5.5226,8.6665,8.8212,15.405,8.8212,5.8398,0,12.439-2.3317,22.428-5.8615,18.4275-6.5112,46.2751-16.351,82.1499-16.3497,7.5256.0004,15.1345.4478,22.615,1.3297,56.6479,6.6731,97.4941,37.0134,112.8711,48.4352,25.6438,19.0543,35.6167,33.3343,52.1396,56.9929,10.3503,14.8207,23.2322,33.2657,43.5547,57.7581.0364.0438.0728.0874.1099.1307l.3472.4081c21.7395,26.2556,24.5024,63.4493,6.8699,92.5823-13.3296,22.0414-26.9531,48.7919-26.9531,80.109,0,21.7476,5.7793,43.3455,18.1877,67.97,18.6055,36.9193,13.0342,80.7029-14.1931,111.5445-.0811.0912-.1938.221-.3081.3529l-.1152.1324c-.0278.0312-.054.0602-.0815.0919-6.0935,6.925-8.5891,10.2362-15.2578,19.0857-7.4365,9.8681-19.8826,26.3843-48.3845,62.7809l-1.2551,1.6029c-29.2063,37.2874-46.8352,59.794-50.1763,63.2995-41.7634,43.8134-92.9707,62.1957-123.5662,73.1791-10.0396,3.6038-17.9692,6.4505-23.9529,9.4786-4.2109,2.131-7.2671,4.2607-9.6184,6.7021-4.4241,4.5941-6.3,10.3524-5.2822,16.2143,2.7959,16.0519,23.7983,19.2031,31.7048,20.3895,12.741,1.9117,27.8875,2.3129,38.3503,2.3129,5.9968,0,12.1467-.136,17.3169-.3831,47.2041-2.265,84.3606-17.1317,107.2197-29.2045,15.5042-8.1845,22.0396-14.5095,35.0593-27.1105,7.2451-7.0121,17.1675-16.6155,32.5256-30.3248,5.2878-4.7245,10.9885-9.7231,16.9482-14.8605,32.9021-28.3833,51.0242-44.0164,60.4924-48.5847,4.0508-1.9645,8.1672-3.6929,12.2598-5.1493,3.9148-1.3969,7.9856-2.1028,12.1108-2.1026,10.7324.0005,20.9944,4.7498,28.1643,13.032.6221.7278,1.1548,1.3347,1.6746,1.9087,1.853,2.0564,3.7222,4.0614,5.532,5.9333,42.8459,44.5517,90.6396,60.3445,145.9795,78.6312,8.197,2.7087,16.5964,5.4843,25.1709,8.419-2.4746,7.7605-4.6665,15.3869-6.6711,22.3617-12.606,43.8733-9.9377,83.106-8.1721,109.0669,1.7034,25.076,4.8784,39.1407,7.6797,51.5498,2.2319,9.8893,3.9954,17.7002,4.5645,29.4381,2.157,44.2143-18.917,77.4352-32.8621,99.4181-4.3857,6.914-7.8501,12.3752-10.0874,17.3345-6.1548,13.6431-.6848,21.4129,3.1238,24.83,2.5134,2.2564,6.9529,4.949,13.8123,4.949,12.6431,0,28.6943-9.5426,39.9331-17.5476,15.4314-10.9914,30.2588-25.1167,41.751-39.7736,30.4888-38.8819,36.917-80.1648,40.0061-100.0043,4.6094-29.616,1.8699-45.674-.3315-58.5769-1.822-10.6793-3.0254-17.7345.1091-30.7488.0071-.0291.0139-.0583.0205-.0876.1379-.5888.2903-1.195.4661-1.8533,7.6494-28.8971,34.3911-49.0602,65.0369-49.0579,1.4817.0002,2.9805.0481,4.4539.1421,2.4963.164,5.0967.2483,7.7019.2483,59.989,0,100.2344-23.2562,142.8425-47.8776,13.0142-7.5202,26.4709-15.2964,40.8826-22.6376,15.446-7.866,33.6824-14.4448,52.9895-21.41,38.4731-13.8795,78.2563-28.2317,104.0068-55.6874.0132-.0138.0259-.0279.0391-.0417l.2717-.2926.1267-.1367c8.8643-9.4959,21.3887-14.9569,34.3376-14.9562,8.2991.0005,16.4692,2.2426,23.6262,6.4838,6.2109,3.6814,12.7004,7.32,19.2869,10.8138,2.6953,1.4293,66.8931,35.179,144.9248,50.4321,25.1572,4.9179,51.5039,7.4114,78.3071,7.4114,68.8286,0,127.7925-16.0693,165.1372-29.5495,39.9604-14.4245,74.7847-33.3352,84.6865-45.9876,4.897-6.2564,4.8584-11.8759,3.9644-15.4886-.7183-2.8933-4.1499-12.3076-18.2393-12.3076-5.2275.0005-12.0459,1.0743-22.3667,2.7-19.8354,3.1241-49.811,7.8455-89.1011,7.8455-23.7808,0-47.9922-1.7817-71.9619-5.2955-60.4653-8.86-143.2744-20.9938-190.334-81.8795-8.5068-11.0069-13.104-20.0221-17.9707-29.5669-7.4165-14.5443-15.0854-29.5838-35.5977-48.751-.0264-.0245-.0527-.0493-.0796-.0738l-.271-.2538c-.1431-.1343-.2876-.27-.4346-.4058-8.2554-7.7224-10.7759-19.904-6.2725-30.3221,3.1348-7.2531,5.7588-13.5971,8.0215-19.3957.4873-1.2476.9668-2.4998,1.4463-3.7516l.0654-.1705c3.916-10.3329,6.9624-19.6718,9.2456-28.3542,22.5093-8.7904,41.4717-10.4637,80.4326-13.2591,23.5283-1.6943,40.521-2.9178,54.4434-2.9176,11.3149,0,20.2842.8198,29.0815,2.6576,25.9697,5.4167,45.0435,15.73,57.665,22.5545,9.4424,5.1055,15.1421,8.1871,21.4497,8.1871,5.0508,0,9.7148-2.1721,12.7969-5.9593,2.0635-2.5405,4.3535-6.9071,3.5903-13.3392-.8569-7.2229-5.8374-16.5119-14.8027-27.6091-8.2632-10.2281-18.7314-20.3826-29.4761-28.5924-18.8076-14.3754-41.1226-24.8988-66.3228-31.2766-21.4727-5.4343-40.1006-6.6603-50.1079-7.3188-4.8862-.3209-9.4038-.4769-13.8125-.4769-9.2627,0-15.979.6962-21.9053,1.3104-4.4419.4608-8.2783.8583-12.4209.8583-4.4873,0-9.1343-.4731-14.624-1.4885-16.8354-3.1091-33.0728-8.881-48.3335-17.1744-4.2383-9.5588-8.8784-18.7756-13.3154-27.3961-1.416-2.7519-2.8418-5.5038-4.2686-8.2557-.0791-.1541-.1753-.3447-.2651-.5357-.0088-.0183-.0176-.0364-.0264-.0547-4.1123-8.629-1.1567-18.9172,6.8755-23.9307.0791-.0494.1577-.0995.2358-.1504.0449-.0287.0889-.0566.1318-.0841,24.7046-15.3348,41.1919-16.494,63.9971-18.0974,19.8315-1.394,42.3091-2.9743,74.2183-14.2548,46.2588-16.3541,81.2373-42.1226,102.4355-60.86,2.8579-2.5162,5.7358-5.1602,8.7769-8.0652,12.4028-11.8626,23.1201-24.2669,30.1855-34.9348,6.7954-10.26,13.6782-23.3715,6.5229-33.7803-3.1025-4.5102-8.1528-7.095-13.8594-7.095-7.4512,0-15.2241,4.3138-29.334,12.1453-27.9731,15.525-74.7915,41.5093-141.0771,47.1814-7.5903.6509-14.6401.9672-21.5547.9672-12.8418,0-22.9927-1.0879-33.7397-2.2393-10.771-1.1543-21.9092-2.3478-35.6558-2.3478-13.7256,0-28.4583,1.2188-45.04,3.7264-.0308.0048-.0618.0095-.0928.0143l-.3765.0595-.1375.0218c-1.4729.222-2.9683.3347-4.4451.3347-11.7288,0-22.4534-7.0103-27.322-17.8596-8.4568-18.8488-18.3215-34.19-30.1575-46.8993-26.449-28.4238-62.3635-46.2885-90.6968-58.6764-21.2224-9.2773-36.884-28.4174-41.8955-51.2-.2693-1.2327-.5427-2.4634-.8267-3.6836-5.7456-24.6377-12.168-37.7722-18.3789-50.4741-6.3779-13.0433-12.4021-25.363-17.4448-51.8345-1.7219-9.0461-5.4912-18.9504-9.8557-30.4186-10.5359-27.6841-23.6484-62.1376-11.0212-96.389,6.1663-16.7114,17.8228-35.8136,28.1072-52.6671,8.2905-13.5858,16.1211-26.4183,20.9849-37.5786,2.6748-6.1383,10.8154-24.8184-.4602-38.0553-4.2441-4.9807-10.563-7.7223-17.7939-7.7223h0Z"/>
      </g>
      <path class="cls-1" d="M738.5572,486.3488l-17.13,9.25-116.25,62.81c1.87-12.25,2.5499-23.4,2.42-33.45-.24-19.44-3.51-34.82-7.02-46.27-9.76-31.94-24.3101-43.16-26.0601-75.13-.51-9.35.6401-10.18,7.66-52.12,7.41-44.18,11.11-66.27,10.74-76.66-1.45-40.4-20.47-70.58-29.13-84.32-29.78-47.24-66.29-60.73-62.86-67.46,4.67-9.15,80.25.01,122.65,52.13,20.97,25.78,26.76,57.56,38.3301,121.11,12.8198,70.41,7.45,98.13,30.6599,137.99,14.5601,24.99,32.8,41.8,45.99,52.12Z"/>
      <path class="cls-1" d="M474.2996,914.0889c-6.88-5.2001-15.78-11.3801-26.63-17.54-11.28-6.41-24.65-12.79-40.0599-18.04-23.5901-8.03-32.6801-6.83-98.8801-16.25-65.78-9.35-63.3599-11.47-87.3899-12.5599-57.8101-2.63-83.24,9.0699-87.3901,0-5.5499-12.15,32.0901-50.5699,80.4901-64.39,37.12-10.61,57.24-.0801,96.59,0,32.6799.0601,79.86-7.0901,137.98-41.88l1.29,8.71,24,161.9501Z"/>
      <path class="cls-1" d="M1147.3397,441.8888c-11.6599,14.7-11.24,19.77-38.3301,75.1201-13.9199,28.46-17.6199,34.45-23.6499,41.4-3.02,3.48-6.1301,6.64-9.28,9.5-11.6201,10.5699-23.6101,17.11-32.54,21.16l-30.5-49.25-23.61-38.14c13.4-2.49,33.65-7.93,54.11-21.46,27.79-18.38,29.1099-33.94,54.74-52.13,35.03-24.85,79.3101-28.99,82.79-21.46,2.28,4.92-14.6001,11.14-33.73,35.2599Z"/>
      <path class="cls-1" d="M1097.0883,1400.2133c-1.4978,3.2888-7.1551,6.8454-15.8163,8.0671h-.0084c-19.4902,2.7365-54.1775-6.3515-90.8315-56.7967-12.0171-16.5445-17.2892-40.0766-23.7915-59.0732-11.4564-33.4488-20.486-67.7847-37.0389-99.2501-13.9837-26.5783-33.0387-51.0477-58.0521-67.6759-17.2725-11.4815-36.8966-18.9379-54.7215-29.5408-20.1514-11.9836-29.6662-26.3021-41.265-45.6332l27.8419-14.4106,147.6869-76.4459,14.101-7.2974c17.1805,19.6325,2.9038,81.9693,20.193,127.3348,9.1301,23.9506,11.2223,38.3862,25.5741,112.9074,15.0214,77.9106,22.6368,117.1001,28.2269,128.2972,38.5871,77.2745,62.2448,69.9354,57.9014,79.5173Z"/>
      <path class="cls-2" d="M748.7139,502.5362l-29.1268-10.1372c-13.9401-15.36-27.5475-37.9901-30.2975-42.3202-7.8401-12.34-19.98-31.77-27.5701-59.75-3.6199-13.31-3.8099-19.77-6.8999-51.19-4.98-50.79-7.48-76.18-11.64-94.34-8.03-35.06-12.0499-52.58-27.58-70.47-18.8501-21.71-43.3701-30.99-68.78-40.59-9.6001-3.64-29-10.97-31.4-6.9-2.9,4.91,22.9401,19.58,49.7799,52.09,14.4102,17.45,31.1602,37.73,37.9001,66.64,2.8099,12.04,1.9199,17.2-3.4301,75.83-6.49,71.16-6.27,75.44-5.36,81.84,2.1799,15.27-4.2767,19.3754,26.29,81.3,8.5719,17.3658,11.8019,50.9542,8.5719,53.1542-3.8401,2.62-36.1373,55.1052-20.602-12.7342-.24-19.44-3.51-34.82-7.02-46.27-9.76-31.94-24.3101-43.16-26.0601-75.13-.51-9.35.6401-10.18,7.66-52.12,7.41-44.18,11.11-66.27,10.74-76.66-1.45-40.4-20.47-70.58-29.13-84.32-29.78-47.24-66.29-60.73-62.86-67.46,4.67-9.15,80.25.01,122.65,52.13,20.97,25.78,26.76,57.56,38.3301,121.11,12.8198,70.41,7.45,98.13,30.6599,137.99,9.7731,16.774,39.4718,40.9732,59.3172,53.3779,6.8233,4.265,3.9025,14.7906-4.1429,14.9295Z"/>
      <path class="cls-2" d="M145.7196,840.4688c2.1101,4.2101,15.4701-2.5699,42.8901-4.0999,11.1799-.6201,15.3398.1499,67.9099,6.6099,29.03,3.5601,43.79,5.3701,55.8501,6.67,44.2,4.77,40.4199,2.91,53.4299,5.37,26.11,4.9301,85.0219,12.5028,95.2347,46.9709-11.28-6.41-38.0147-18.2309-53.4246-23.4809-23.5901-8.03-32.6801-6.83-98.8801-16.25-65.78-9.35-63.3599-11.47-87.3899-12.5599-57.8101-2.63-83.24,9.0699-87.3901,0-5.5499-12.15,32.0901-50.5699,80.4901-64.39,37.12-10.61,57.24-.0801,96.59,0,30.3828.0558,90.3454-20.4585,144.8293-51.2999,3.4177-1.9347,3.7898,1.6687,1.8562,5.0871l-12.5106,10.9787c-6.4,6.9501-18.8849,24.584-64.0649,36.5041-22.42,5.9199-46.11,12.1699-77.2799,9.6-24.1801-1.99-25.6401-7.04-48.3601-7.2999-32.74-.3701-56.3999,9.8298-63.83,13.2799-25.42,11.83-48.9601,32.3199-45.9501,38.3099Z"/>
      <path class="cls-2" d="M1147.3397,441.8888c-11.6599,14.7-11.24,19.77-38.3301,75.1201-13.9199,28.46-21.1668,54.3425-16.0604,73.7468,1.1726,4.456-14.2979.5187-15.5745-8.9362,1.23-7,8.5019-29.594,9.7021-35.234,4.7898-22.42,8.8085-35.2147,14.8085-47.7447,10.3101-21.57,21.6207-38.0177,24.5106-42.1277,19.53-27.79,40.4834-44.9393,38.5532-47.4894-2.48-3.28-40.4696,14.8351-65.8695,38.5551-19.8,18.49-21.25,28.2-38.3,48.38-9.1832,10.8631-49.6667,6.2069-73.1346,2.4346-2.8578-.4594-2.7097-4.6183.1742-4.8651,17.4181-1.4903,41.2276-3.9256,55.7203-13.5096,27.79-18.38,29.1099-33.94,54.74-52.13,35.03-24.85,79.3101-28.99,82.79-21.46,2.28,4.92-14.6001,11.14-33.73,35.2599Z"/>
      <path class="cls-2" d="M1097.0883,1400.2133c-1.4978,3.2888-7.1551,6.8454-15.8163,8.0671h-.0084c-19.4902,2.7365-54.1775-6.3515-90.8315-56.7967-12.0171-16.5445-17.2892-40.0766-23.7915-59.0732-11.4564-33.4488-20.486-67.7847-37.0389-99.2501-13.9837-26.5783-33.0387-51.0477-58.0521-67.6759-17.2725-11.4815-36.8966-18.9379-54.7215-29.5408-10.1236-6.0203-17.5627-12.6299-23.9302-20.1683-6.225-7.3697,6.8142-2.1546,15.7433,1.497,29.2722,11.9708,60.2698,24.0334,73.2119,38.2158,30.1265,33.0137,53.9998,58.3242,57.1715,64.9855,12.536,26.3356,11.7159,34.9133,35.7417,100.9407,15.8081,43.4742,21.8167,55.3072,31.4907,67.9436,22.4024,29.2897,61.6711,49.9629,65.5123,46.1552,3.9331-3.9165-27.4289-29.37-46.668-75.9657-6.268-15.1888-16.2837-39.5056-24.8864-88.1515-9.5652-54.0772-10.4356-70.4877-20.4359-105.4512-7.6237-26.6537-9.6405-25.9171-15.3561-45.8174-4.0101-13.9686-1.771-75.4636-.258-107.8527.2434-5.2096,7.7937-5.6762,8.6551-.5325,4.6575,27.8112-.7487,72.8128,12.5659,107.7492,9.1301,23.9506,11.2223,38.3862,25.5741,112.9074,15.0214,77.9106,22.6368,117.1001,28.2269,128.2972,38.5871,77.2745,62.2448,69.9354,57.9014,79.5173Z"/>
      <path class="cls-3" d="M919.208,580.3832c.8388-3.2475,3.4619-12.9603,11.0063-20.4389,18.0089-17.8517,50.8024-9.8323,51.0853-6.5346.1921,2.2388-14.7572.4748-31.0458,11.2742-21.6982,14.386-26.5906,38.3483-31.0458,36.8488-3.1502-1.0603-1.983-13.4714,0-21.1494Z"/>
      <path class="cls-3" d="M890.0719,703.6502c-11.2598,1.2352-24.5518,2.6931-37.1428,12.9193-17.4957,14.2098-19.9737,34.252-21.8009,49.0297-1.2658,10.2372-2.3352,20.0949,4.0373,27.7103,5.1877,6.1993,14.9246,10.4561,20.186,7.2343,5.2224-3.198,2.5282-11.6171,4.7387-27.4532,1.6882-12.0943,3.5265-25.265,11.41-33.9127,15.0906-16.5531,43.4519-6.7937,46.8322-17.7638,1.6075-5.2172-3.5146-11.6206-7.267-14.5341-2.4676-1.9161-7.4272-4.7179-20.9936-3.2299Z"/>
      <path class="cls-3" d="M1132.7914,748.7882c8.4126,9.5932,9.5948,20.9386,10.1868,27.4704.4569,5.0416,2.1812,24.066-10.1868,40.6228-10.9688,14.6835-19.2518,13.9072-21.2537,11.4443-2.0506-2.5229,5.1426-4.4885,11.3122-25.9561,4.9382-17.1822.8651-33.6957-.2866-37.9305-4.3878-16.1323-12.6612-24.2158-10.1453-26.6493,2.5021-2.4202,13.3538,2.9935,20.3735,10.9984Z"/>
      <path class="cls-3" d="M980.7263,676.1842c2.0536-17.6463,11.9359-29.7468,15.2153-33.4732,13.2977-15.1106,29.6366-19.3579,37.5628-21.3011,9.0578-2.2205,28.7094-7.0383,38.5125,3.1254,2.8512,2.9562,5.8581,8.2048,4.4756,12.8504-1.9841,6.6678-12.0305,8.8024-16.6476,9.7833-14.0234,2.9796-17.2289-3.1133-26.3405.0767-10.4276,3.6508-16.1821,15.1154-20.0655,22.8524-5.2976,10.5544-3.8544,14.7433-9.89,21.3011-4.3585,4.7355-12.8471,10.9563-18.2578,8.3683-6.9235-3.3117-5.0681-19.2585-4.5647-23.5834Z"/>
      <path class="cls-3" d="M722.5166,959.1869c-4.8956-16.4007-.9396-30.7645,0-33.9508,6.1792-20.9557,24.7584-42.9363,46.8837-44.4592,8.5848-.5907,21.9171,1.6079,24.2508,8.8919,1.5659,4.8884-2.0962,11.2121-6.467,14.5516-6.7692,5.1726-12.417,1.0302-21.0167,4.0405-11.3654,3.9784-19.5684,17.5385-21.0173,29.1002-1.7421,13.9026,6.9415,19.653,2.4254,32.334-.4043,1.1337-4.0355,11.0116-9.7005,11.317-7.1177.3836-13.1937-14.5737-15.3584-21.8254Z"/>
      <path class="cls-3" d="M692.02,781.5483c-2.5015-18.4943,4.752-33.9194,5.2708-34.9883.6963-1.4346,12.3198-24.5038,37.1123-32.6809,5.4465-1.7964,15.0359-4.9592,21.4468,0,3.2327,2.5007,5.9412,7.2863,4.5957,10.7234-1.6069,4.1046-7.8457,3.3505-17.3616,6.6383-2.7725.9579-13.1436,4.6575-21.3442,13.188-2.3086,2.4014-11.4854,11.9471-12.8687,25.6205-.7368,7.2832,1.1252,11.9049-2.5532,17.533-1.9951,3.0526-5.8804,6.7996-9.0271,5.9564-3.7104-.9941-4.7205-7.9219-5.2708-11.9904Z"/>
      <path class="cls-3" d="M792.1052,1117.0493c-3.4915-3.0905-12.8042,10.271-26.0427,8.4255-10.0378-1.3993-11.0142-9.9636-25.5508-14.5531-1.3604-.4296-15.5808-4.8005-18.772,0-3.5061,5.2744,8.4548,18.3809,9.8547,19.9148,5.2603,5.764,12.5691,13.7729,24.9868,15.3192,1.3943.1736,17.0679,1.8721,27.8643-9.1915,6.6262-6.7904,10.4741-17.4237,7.6597-19.9149Z"/>
      <path class="cls-3" d="M408.4409,973.3047c-6.5061-14.0424-1.3071-28.12,0-31.6595.542-1.4679,9.4275-24.5487,28.26-27.5563,6.3701-1.0173,14.3853.181,15.3191,3.392.9597,3.2998-6.2361,6.3977-15.3191,15.994-4.5054,4.76-11.0327,11.6562-14.1677,20.4255-6.0474,16.916,3.717,31.8844,0,33.7021-2.7817,1.3604-10.2651-6.0376-14.0923-14.2979Z"/>
      <path class="cls-3" d="M1069.6957,924.219c2.5718,6.7129-4.2074,15.2889-17.8705,32.167-15.4278,19.058-23.3117,28.5633-31.641,27.4014-8.891-1.2402-16.925-12.4677-14.8226-19.0618,1.9552-6.1324,11.152-3.477,20.3959-10.6287,15.573-12.0486,8.0226-33.9396,20.1108-39.409,8.0528-3.6435,20.8624,1.7911,23.8274,9.5311Z"/>
      <path class="cls-3" d="M990.3549,847.6876c9.6433,8.8153,7.5718,26.017,7.0544,29.6171-3.158,21.9803-21.0452,42.7435-30.666,40.1761-4.3093-1.15-7.6365-7.1611-6.8083-11.5804.9006-4.8058,6.2168-5.0691,12.646-11.234,1.4238-1.3654,11.6646-11.1849,10.8433-22.1277-.6785-9.0408-8.3542-11.4764-7.1489-20.4255.135-1.0017,1.022-6.8428,4.7659-8.1702,3.7593-1.3329,8.1511,2.682,9.3137,3.7446Z"/>
      <path class="cls-3" d="M618.4883,1088.7215c-.3565.0988-.7119.2-1.0659.2962-6.3994,1.7378-13.1262,1.8838-19.7485,1.5431-7.1841-.3696-14.5303-1.3583-20.8579-4.7801-6.0922-3.2945-10.8057-8.6015-15.3334-13.8425-2.4237-2.8055-4.9762-5.7276-8.4301-7.0746-7.3062-2.8495-12.6828,3.6322-7.5458,9.8414,9.229,11.1553,21.3538,20.1387,35.1855,24.4167,13.6318,4.2162,29.3238,3.6202,42.2236-3.1102,1.8253-.9523,3.8268-2.4271,3.7319-4.4838-.0851-1.8455-1.9564-3.1861-3.7918-3.3964-1.4709-.1685-2.9287.1913-4.3674.5901Z"/>
      <path class="cls-3" d="M511.6363,998.4317c-1.7687-5.641-7.2599-23.1514,0-42.925,9.2646-25.2338,36.6934-47.0681,53.9025-40.9333,8.2925,2.9562,14.9994,12.6879,13.1113,18.7963-2.2525,7.287-15.039,3.9247-28.3549,14.5152-1.8767,1.4927-14.2925,11.6471-16.1965,26.8554-1.4758,11.7885,4.7058,15.8988,1.9054,28.4029-1.4011,6.255-5.3536,15.9671-10.4799,16.1963-7.2303.3232-13.0963-18.3834-13.888-20.9078Z"/>
      <path class="cls-3" d="M639.3875,581.2313c-6.2381-10.4439,4.1231-25.3932,9.8311-33.6287,8.4894-12.2487,18.7211-18.0503,21.3707-19.4854,10.452-5.6611,19.6254-6.5859,27.4943-7.2966,9.4037-.8494,23.4823-2.1209,36.3312,5.8801,4.0082,2.4961,10.8657,6.7662,11.1175,13.284.2374,6.1442-5.4876,11.9079-11.1175,14.3355-11.5802,4.9934-17.6361-6.3366-31.2126-3.6101-16.1008,3.2334-28.3624,23.341-29.9052,25.932-3.5436,5.9514-4.2078,9.4093-8.4983,11.6711-7.7361,4.0783-20.6986.808-25.4112-7.0818Z"/>
      <path class="cls-3" d="M525.2866,740.8687c-15.0386.0203-24.9807,11.4203-25.5842,12.1342-4.1448,4.9038-5.9364,12.9795-9.5197,29.1309-2.5868,11.6599-2.5877,16.1504-1.6682,20.6008.9076,4.393,2.5017,12.1083,9.3047,15.677,4.2593,2.2343,10.1193,2.6117,14.6753,0,6.736-3.8614,7.7225-12.5951,8.2946-17.66,1.1517-10.1965-2.8383-11.6282-1.3734-19.9912,1.5196-8.6756,7.1898-14.9923,10.9914-19.2274,7.7234-8.6041,13.4996-9.7917,13.0429-13.2887-.5786-4.4301-10.4841-7.3859-18.1634-7.3756Z"/>
      <path class="cls-3" d="M474.7357,537.5434c7.8532-20.4731,11.7798-30.7097,21.0381-39.6282,16.7404-16.1257,36.7358-18.5386,42.0175-19.0115,10.1281-.9067,27.5812-2.4695,39.174,9.6184,9.0448,9.4312,13.6414,26.2529,7.3605,33.1062-7.8508,8.5662-24.4128-7.481-46.5344,0-14.7507,4.9883-23.6391,17.6194-36.1165,35.3506-10.186,14.4749-8.5461,27.6782-16.6244,29.4648-5.8997,1.3049-12.7863-3.6118-16.1108-8.9004-5.8107-9.2437-1.5344-20.8896,5.796-40Z"/>
      <path class="cls-3" d="M601.2683,643.4774c-13.6511-.1462-23.5973,8.9954-28.2553,13.2766-3.6313,3.3376-12.9971,12.1829-16,26.5532-.9351,4.4749-2.4651,12.3335,1.3361,20.4255,1.3407,2.854,4.0003,8.5159,10.2384,10.5532.528.1724,7.5695,2.365,12.2554-1.3618,5.1093-4.0635,1.5234-10.4761,4.7659-22.8083,1.4588-5.5483,4.513-17.1646,13.617-22.1277,6.2585-3.4119,10.8414-1.2075,15.6596-6.1277,2.3445-2.394,5.2062-6.9463,3.9614-10.8936-2.2642-7.1792-16.5746-7.4788-17.5784-7.4895Z"/>
      <path class="cls-3" d="M410.5386,715.2958c-6.5504-14.8795-1.7477-29.9104,0-35.3801.9334-2.9214,7.4993-22.4873,26.6982-34.396,5.1218-3.177,12.7187-7.7424,22.1779-6.4215,2.2133.309,10.9089,1.5235,13.8968,7.917,3.2338,6.92-2.4071,15.2242-3.5532,16.9113-7.2812,10.7189-15.9252,6.89-24.2801,17.1736-4.4861,5.5219-8.1441,14.1958-8.2414,23.0957-.079,7.229,2.2393,10.2166,0,15.3972-2.1747,5.0311-7.7237,9.9926-13.4368,9.5707-7.3968-.5463-11.4938-9.8525-13.2615-13.8679Z"/>
      <path class="cls-3" d="M886.7406,366.3275c-13.8483-12.7329-33.0483-11.241-55.1814-9.1914-26.1062,2.4175-56.7087,5.2512-66.8896,26.0425-5.5544,11.3433-4.7281,27.4146,2.5962,32.1702,6.4622,4.1958,14.1326-2.9167,37.3077-10.7234,8.1393-2.7417,25.5298-8.5999,45.2968-9.9214,28.8188-1.9268,43.1069,7.0986,48.0289,0,4.402-6.3486-2.3646-20.2908-11.1586-28.3765Z"/>
      <path class="cls-3" d="M860.7191,470.5952c17.6173-6.116,34.3264-.5793,35.9996,0,21.7407,7.5283,41.9967,28.6357,37.9163,41.0691-1.5356,4.6792-6.6954,8.6699-11.2341,8.5203-5.2572-.1733-6.9221-5.811-13.6859-12.2554-11.3247-10.79-25.9716-13.3882-29.2076-13.886-12.9227-1.9875-18.2118,2.707-25.532-2.4543-3.4999-2.4678-7.4983-7.2129-6.6383-11.7446.9856-5.1936,7.8937-7.6909,12.3821-9.249Z"/>
      <path class="cls-3" d="M745.8311,1052.0385c-9.9844-4.0754-15.6801,5.2896-29.4614,6.8667-19.6355,2.2468-41.1917-12.9744-51.7438-20.4255-6.1432-4.3379-9.6561-5.6155-16.6818-8.1704-9.3438-3.3979-11.944-2.4976-13.2766-1.7021-4.2849,2.5579-5.2731,9.8882-3.7447,15.1736,1.9598,6.7773,8.1122,10.3833,17.7021,15.1748,21.766,10.8755,32.6489,16.3132,46.9788,19.0134,13.2102,2.4893,24.702,4.511,38.1277,0,1.9894-.6685,21.1545-7.2952,20.766-16.3403-.1838-4.2795-4.6964-7.9697-8.6663-9.5901Z"/>
      <path class="cls-1" d="M364.0292,1002.3234c-2.3528-1.135-11.303-3.1064-44.9362,39.22-25.6771,32.314-29.2466,44.5203-46.9787,67.146-22.1335,28.2419-44.7792,45.2156-57.1915,54.386-52.5359,38.8145-98.7293,45.6631-97.0213,53.1064,1.3497,5.8816,31.1304,5.6909,56.1702,0,30.9908-7.0432,52.224-21.9443,71.4894-35.7449,27.5485-19.7341,45.5755-39.9299,51.6589-46.9788,28.4727-32.9907,24.1912-43.1841,45.3624-58.2126,26.4537-18.7783,55.4594-18.7083,55.1489-27.3281-.2221-6.167-15.0552-5.8169-24.5106-20.0466-8.2606-12.4316-3.7246-22.9102-9.1915-25.5474Z"/>
      <path class="cls-3" d="M1220.0446,993.0923c2.0425,10.0684-10.447,19.8298-20.9269,28.0208-12.4071,9.6968-35.6956,27.8984-58.9862,21.7512-2.3684-.6252-14.6038-4.1064-15.006-10.2722-.2649-4.061,4.6837-8.0576,8.8892-9.75,6.2144-2.5007,9.7137.4695,16.4279.4324,15.8358-.0879,28.2159-16.7874,29.8295-19.0217,6.9585-9.6367,5.0787-15.0823,12.537-19.8862,1.2623-.813,8.6241-5.5549,16.6768-2.6362,5.0201,1.8196,9.5397,6.3374,10.5588,11.3621Z"/>
      <path class="cls-3" d="M701.5775,1152.8625c-6.5177-4.9062-12.7466,1.449-24.0164,0-15.1017-1.9414-20.498-15.4849-29.6171-12.269-2.574.9077-5.2008,3.0647-5.7872,5.7559-1.2723,5.8394,7.5266,12.0618,11.234,14.6833,2.8948,2.0471,19.5708,13.3892,38.9843,8.5107,3.4-.8545,12.5425-3.1519,13.4413-8.5107.5168-3.082-1.8303-6.3572-4.2389-8.1702Z"/>
      <path class="cls-3" d="M1217.7675,828.8119c.285.3496.5397.7261.7595,1.1299,1.0947,2.0103,1.1227,4.4116,1.0719,6.7-.1965,8.8389-1.1732,17.6602-2.915,26.3279-1.6898,8.4094-4.1906,16.928-9.3845,23.8962-5.1573,6.9187-13.3754,12.032-21.9928,11.5767-1.4489-.0764-3.1539-.51-3.6405-1.877-.2606-.7322-.084-1.541.1162-2.2922,2.3887-8.9653,7.7319-16.7959,12.0869-24.9888,4.3549-8.1926,7.8411-17.4998,6.0444-26.6025-.579-2.9329-1.7-5.7947-1.6936-8.7849.0201-9.0471,14.5175-11.2559,19.5475-5.0852Z"/>
      <path class="cls-3" d="M1126.9229,1080.6467c2.4871,10.7114-9.6742,21.1953-17.6171,28.0427-8.7955,7.5825-28.8768,24.894-49.0212,18.8301-9.9924-3.0081-20.4072-11.8901-19.1489-18.8301,1.1383-6.2783,11.5216-9.2664,13.026-9.6992,13.8832-3.9951,20.8838,5.3577,29.7981.7661,6.0083-3.0947,3.6493-7.7664,13.6401-19.1096,5.5574-6.3096,10.6719-12.1165,17.0676-11.5288,5.634.5176,10.9429,5.8762,12.2554,11.5288Z"/>
      <path class="cls-3" d="M833.3386,1194.242c-1.3672,11.8989-26.9662,16.8174-31.1274,17.6169-18.2,3.4968-43.7659,1.6482-47.1614-8.8086-1.5269-4.7021,1.4241-11.1619,5.7561-13.4043,5.517-2.856,9.5648,3.0479,21.2135,4.5959,2.0901.2778,17.5913,2.1299,29.9768-6.4143,5.7476-3.9651,7.2151-7.6792,11.1586-7.373,5.3013.4114,10.8762,7.7617,10.1838,13.7874Z"/>
    </g>
  </g>
</svg>