<?xml version="1.0" encoding="UTF-8"?>
<svg id="Capa_2" data-name="Capa 2" xmlns="http://www.w3.org/2000/svg" viewBox="0 0 1394.41 173.8">
  <defs>
    <style>
      .cls-1 {
        fill: #1d1d1b;
      }

      .cls-2 {
        fill: #574898;
      }

      .cls-3 {
        fill: none;
      }

      .cls-4 {
        fill: #a6cded;
      }

      .cls-4, .cls-5 {
        fill-rule: evenodd;
      }

      .cls-5 {
        fill: #4181c2;
      }

      .cls-6 {
        fill: #9f97c9;
      }
    </style>
  </defs>
  <g id="Capa_1-2" data-name="Capa 1">
    <g>
      <path class="cls-5" d="M662.25,88.43v65.03h-15.6v-65.03c0-6.97,3.48-12.63,7.79-12.63s7.81,5.65,7.81,12.63Z"/>
      <path class="cls-4" d="M662.25,24.85v63.76c0-6.83-3.5-12.38-7.81-12.38s-7.79,5.54-7.79,12.38V24.85h15.6Z"/>
      <path class="cls-4" d="M691.03,90.42V25.39h-15.6v65.03c0,6.97,3.48,12.63,7.79,12.63s7.81-5.65,7.81-12.63Z"/>
      <path class="cls-5" d="M691.03,154v-63.76c0,6.83-3.5,12.38-7.81,12.38s-7.79-5.54-7.79-12.38v63.76h15.6Z"/>
      <path class="cls-5" d="M749.38,89.88V24.85h-15.6v65.03c0,6.97,3.48,12.63,7.79,12.63s7.81-5.65,7.81-12.63Z"/>
      <path class="cls-4" d="M749.38,153.46v-63.76c0,6.83-3.5,12.38-7.81,12.38s-7.79-5.54-7.79-12.38v63.76h15.6Z"/>
      <path class="cls-4" d="M705.57,88.97v65.03h15.6v-65.03c0-6.97-3.48-12.63-7.79-12.63s-7.81,5.65-7.81,12.63Z"/>
      <path class="cls-5" d="M705.57,25.39v63.76c0-6.83,3.5-12.38,7.81-12.38s7.79,5.54,7.79,12.38V25.39h-15.6Z"/>
      <path class="cls-5" d="M557.64,87.1V22.07h15.6v65.03c0,6.97-3.48,12.63-7.79,12.63s-7.81-5.65-7.81-12.63Z"/>
      <path class="cls-4" d="M557.64,150.68v-63.76c0,6.83,3.5,12.38,7.81,12.38s7.79-5.54,7.79-12.38v63.76h-15.6Z"/>
      <path class="cls-4" d="M528.86,85.11v65.03h15.6v-65.03c0-6.97-3.48-12.63-7.79-12.63s-7.81,5.65-7.81,12.63Z"/>
      <path class="cls-5" d="M528.86,21.53v63.76c0-6.83,3.5-12.38,7.81-12.38s7.79,5.54,7.79,12.38V21.53h-15.6Z"/>
      <path class="cls-5" d="M470.52,85.65v65.03h15.6v-65.03c0-6.97-3.48-12.63-7.79-12.63s-7.81,5.65-7.81,12.63Z"/>
      <path class="cls-4" d="M470.52,22.07v63.76c0-6.83,3.5-12.38,7.81-12.38s7.79,5.54,7.79,12.38V22.07h-15.6Z"/>
      <path class="cls-4" d="M514.32,86.56V21.53h-15.6v65.03c0,6.97,3.48,12.63,7.79,12.63s7.81-5.65,7.81-12.63Z"/>
      <path class="cls-5" d="M514.32,150.14v-63.76c0,6.83-3.5,12.38-7.81,12.38s-7.79-5.54-7.79-12.38v63.76h15.6Z"/>
      <path class="cls-5" d="M383.09,87.91V22.88h15.6v65.03c0,6.97-3.48,12.63-7.79,12.63s-7.81-5.65-7.81-12.63Z"/>
      <path class="cls-4" d="M383.09,151.5v-63.76c0,6.83,3.5,12.38,7.81,12.38s7.79-5.54,7.79-12.38v63.76h-15.6Z"/>
      <path class="cls-4" d="M354.31,85.92v65.03h15.6v-65.03c0-6.97-3.48-12.63-7.79-12.63s-7.81,5.65-7.81,12.63Z"/>
      <path class="cls-5" d="M354.31,22.34v63.76c0-6.83,3.5-12.38,7.81-12.38s7.79,5.54,7.79,12.38V22.34h-15.6Z"/>
      <path class="cls-5" d="M295.97,86.46v65.03h15.6v-65.03c0-6.97-3.48-12.63-7.79-12.63s-7.81,5.65-7.81,12.63Z"/>
      <path class="cls-4" d="M295.97,22.88v63.76c0-6.83,3.5-12.38,7.81-12.38s7.79,5.54,7.79,12.38V22.88h-15.6Z"/>
      <path class="cls-4" d="M339.77,87.37V22.34h-15.6v65.03c0,6.97,3.48,12.63,7.79,12.63s7.81-5.65,7.81-12.63Z"/>
      <path class="cls-5" d="M339.77,150.95v-63.76c0,6.83-3.5,12.38-7.81,12.38s-7.79-5.54-7.79-12.38v63.76h15.6Z"/>
      <path class="cls-5" d="M207.21,88.73V23.69h15.6v65.03c0,6.97-3.48,12.63-7.79,12.63s-7.81-5.65-7.81-12.63Z"/>
      <path class="cls-4" d="M207.21,152.31v-63.76c0,6.83,3.5,12.38,7.81,12.38s7.79-5.54,7.79-12.38v63.76h-15.6Z"/>
      <path class="cls-4" d="M178.43,86.74v65.03h15.6v-65.03c0-6.97-3.48-12.63-7.79-12.63s-7.81,5.65-7.81,12.63Z"/>
      <path class="cls-5" d="M178.43,23.15v63.76c0-6.83,3.5-12.38,7.81-12.38s7.79,5.54,7.79,12.38V23.15h-15.6Z"/>
      <path class="cls-5" d="M120.09,87.28v65.03h15.6v-65.03c0-6.97-3.48-12.63-7.79-12.63s-7.81,5.65-7.81,12.63Z"/>
      <path class="cls-4" d="M120.09,23.69v63.76c0-6.83,3.5-12.38,7.81-12.38s7.79,5.54,7.79,12.38V23.69h-15.6Z"/>
      <path class="cls-4" d="M163.89,88.18V23.15h-15.6v65.03c0,6.97,3.48,12.63,7.79,12.63s7.81-5.65,7.81-12.63Z"/>
      <path class="cls-5" d="M163.89,151.77v-63.76c0,6.83-3.5,12.38-7.81,12.38s-7.79-5.54-7.79-12.38v63.76h15.6Z"/>
      <path class="cls-5" d="M36.77,89.61V24.57h15.6v65.03c0,6.97-3.48,12.63-7.79,12.63s-7.81-5.65-7.81-12.63Z"/>
      <path class="cls-4" d="M36.77,153.19v-63.76c0,6.83,3.5,12.38,7.81,12.38s7.79-5.54,7.79-12.38v63.76h-15.6Z"/>
      <path class="cls-4" d="M8,87.61v65.03h15.6v-65.03c0-6.97-3.48-12.63-7.79-12.63s-7.81,5.65-7.81,12.63Z"/>
      <path class="cls-5" d="M8,24.03v63.76c0-6.83,3.5-12.38,7.81-12.38s7.79,5.54,7.79,12.38V24.03H8Z"/>
      <path class="cls-2" d="M609.15,111.69s.04-.06.06-.08c2.5-4.13,4.25-7.58,6.05-11.14,1.98-3.9,4.03-7.92,7.47-13.57,2.86,4.86,5.15,8.51,9.55,14.42,4.99,6.73,10.65,14.3,18.93,21.74,5.17,4.64,15.94,14.33,30.64,18.26,5.01,1.33,9.79,1.84,14.28,1.75v30.7c-5.71.06-11.86-.59-18.3-2.32-18.8-5.03-31.96-16.88-38.29-22.56-10.03-8.99-16.78-18.06-22.23-25.33-3.52-4.75-5.95-8.4-8.15-11.87Z"/>
      <path class="cls-1" d="M594.78,88.06c.22-.4.42-.76.62-1.16-.2-.4-.42-.79-.62-1.19-.24.37-.48.76-.74,1.16.26.4.5.79.74,1.19Z"/>
      <path class="cls-6" d="M434.6,111.69s.04-.08.06-.11c2.5-4.13,4.25-7.55,6.05-11.14,2-3.9,4.03-7.89,7.47-13.54,2.86,4.83,5.15,8.54,9.55,14.45,4.99,6.7,10.65,14.3,18.93,21.71,5.17,4.66,15.94,14.36,30.64,18.29,21.37,5.71,38.87-3.93,44.64-7.07,17.62-9.7,28.54-24.96,35.77-35.08,3.26-4.58,5.31-7.92,7.07-11.14.22-.4.42-.76.62-1.16-.2-.4-.42-.79-.62-1.19,4.75-7.41,7.71-12.44,10.13-16.54,1.16-1.98,2.26-3.84,3.38-5.68.28-.45.56-.9.86-1.39,2.18-3.51,4.63-7.15,8.15-11.87,5.45-7.29,12.2-16.37,22.23-25.39,6.33-5.68,19.49-17.5,38.29-22.53C684.01.68,689.94,0,695.47,0c.22,0,.44,0,.66.03v30.67c-4.49-.08-9.27.42-14.28,1.75-14.7,3.93-25.47,13.6-30.64,18.26-8.27,7.43-13.94,15.04-18.93,21.74-4.41,5.88-6.69,9.58-9.55,14.42v.03c-3.44,5.65-5.49,9.67-7.47,13.57-1.8,3.56-3.54,7.01-6.05,11.14-.02.03-.04.06-.06.08-1.64,2.71-3.62,5.74-6.17,9.3-7.97,11.17-21.35,29.85-43.18,41.84-7.19,3.96-29.06,15.97-56.53,8.62-18.8-5-31.96-16.85-38.29-22.53-10.01-9.02-16.78-18.06-22.21-25.36-3.52-4.75-5.97-8.37-8.17-11.87Z"/>
      <path class="cls-1" d="M420.22,88.06c.2-.4.42-.79.62-1.19-.2-.37-.4-.76-.62-1.13-.24.37-.48.76-.74,1.16.26.4.5.79.74,1.16Z"/>
      <path class="cls-2" d="M260.05,111.69s.04-.06.06-.08c2.5-4.13,4.25-7.58,6.07-11.14,1.98-3.9,4.03-7.92,7.45-13.57,2.86,4.86,5.15,8.51,9.55,14.42,4.99,6.73,10.67,14.33,18.93,21.74,5.19,4.64,15.94,14.33,30.64,18.26,21.39,5.71,38.89-3.9,44.64-7.07,17.62-9.67,28.54-24.96,35.77-35.05,3.26-4.58,5.33-7.94,7.07-11.14.2-.4.42-.79.62-1.19-.2-.37-.4-.76-.62-1.13,4.75-7.43,7.71-12.44,10.13-16.57,1.16-1.98,2.26-3.82,3.38-5.68.28-.45.58-.93.86-1.39,2.2-3.51,4.65-7.12,8.17-11.87,5.43-7.27,12.2-16.34,22.21-25.36,6.33-5.68,19.49-17.53,38.29-22.53C509.48.68,515.39.03,520.92,0c18.96,0,33.32,7.92,38.89,10.97,21.83,11.99,35.21,30.67,43.18,41.84,2.52,3.53,4.51,6.56,6.17,9.3-.3.48-.58.93-.86,1.39-1.12,1.84-2.22,3.7-3.38,5.68-2.42,4.1-5.39,9.13-10.13,16.54-1.76-3.19-3.8-6.56-7.07-11.14-7.23-10.09-18.14-25.36-35.77-35.02-5.75-3.17-23.27-12.78-44.64-7.07-14.7,3.9-25.47,13.6-30.64,18.26-8.27,7.41-13.94,15.01-18.93,21.74-4.41,5.88-6.69,9.55-9.55,14.39v.03c-3.44,5.65-5.47,9.64-7.47,13.54-1.8,3.59-3.54,7.01-6.05,11.14-.02.03-.04.08-.06.11-1.66,2.71-3.64,5.74-6.17,9.27-7.97,11.17-21.33,29.85-43.16,41.84-7.19,3.96-29.08,16-56.55,8.65-18.8-5.03-31.96-16.88-38.29-22.56-10.01-8.99-16.78-18.06-22.21-25.33-3.52-4.75-5.97-8.4-8.17-11.87Z"/>
      <path class="cls-1" d="M245.69,88.09c.2-.4.42-.79.62-1.19-.2-.4-.42-.79-.64-1.19-.24.37-.48.76-.74,1.16.26.42.52.82.76,1.22Z"/>
      <path class="cls-6" d="M260.61,110.77c-.14.28-.32.55-.49.83-.02.02-.05.05-.07.09-1.64,2.71-3.61,5.73-6.15,9.29-8,11.17-21.34,29.85-43.17,41.85-7.19,3.95-29.08,15.95-56.57,8.65-18.8-5.04-31.95-16.88-38.26-22.57-10.03-8.99-16.81-18.06-22.22-25.36-3.56-4.74-5.99-8.39-8.16-11.91l.05-.05c2.5-4.14,4.25-7.58,6.06-11.14,1.99-3.88,4.02-7.91,7.47-13.57,2.84,4.83,5.16,8.55,9.55,14.45,4.99,6.7,10.66,14.31,18.91,21.73,5.2,4.65,15.98,14.33,30.66,18.26,21.39,5.71,38.89-3.88,44.64-7.05,17.62-9.71,28.53-24.97,35.77-35.07,3.26-4.58,5.32-7.93,7.07-11.12.21-.39.42-.81.62-1.2-.21-.39-.42-.79-.65-1.18,0-.02.02-.02.02-.05l14.91,25.11Z"/>
      <path class="cls-6" d="M434.61,62.11c-.28.46-.58.92-.88,1.39-1.11,1.87-2.22,3.7-3.38,5.69-2.43,4.12-5.39,9.13-10.13,16.55-1.76-3.21-3.79-6.59-7.07-11.17-7.24-10.08-18.15-25.34-35.77-35.05-5.76-3.17-23.26-12.79-44.64-7.07-14.7,3.93-25.46,13.62-30.63,18.26-8.25,7.44-13.94,15.05-18.94,21.76-4.39,5.87-6.66,9.57-9.55,14.4v.02c-3.42,5.66-5.46,9.69-7.44,13.57-1.71,3.31-3.33,6.54-5.57,10.31l-14.91-25.11c4.74-7.38,7.7-12.39,10.13-16.48,1.16-1.99,2.24-3.86,3.38-5.69.28-.46.58-.92.86-1.39,2.2-3.51,4.65-7.14,8.16-11.86,5.43-7.31,12.21-16.37,22.22-25.39,6.33-5.69,19.49-17.5,38.29-22.52C334.94.68,340.86,0,346.36,0c18.98,0,33.34,7.88,38.91,10.94,21.83,11.98,35.19,30.7,43.17,41.87,2.54,3.56,4.53,6.59,6.17,9.29Z"/>
      <path class="cls-2" d="M98.26,88.28c-2.96,4.95-4.81,8.62-6.64,12.21-1.8,3.56-3.56,7.01-6.1,11.19-1.62,2.71-3.63,5.76-6.17,9.32-7.98,11.17-21.34,29.85-43.17,41.85-5.29,2.91-18.57,10.2-36.18,10.89l.23-30.75c11.81-.65,23.49-5.13,33.71-12.14,8.3-5.69,15.72-12.97,22.29-21.11,3.35-4.16,6.57-8.55,9.46-13.16,2.13-3.35,3.4-7.61,5.46-10.84,2.96-4.62,5.25-8.32,7.12-11.47.28-.46.55-.92.81-1.36.53-.9,1.04-1.73,1.5-2.54.23-.39.46-.79.69-1.18.99-1.64,1.9-3.21,2.84-4.76l14.15,23.86Z"/>
      <path class="cls-2" d="M260.06,62.1c-.28.46-.58.95-.86,1.39-1.13,1.85-2.22,3.7-3.38,5.69-2.45,4.09-5.41,9.13-10.15,16.53-1.76-3.19-3.79-6.54-7.05-11.1-7.24-10.13-18.15-25.39-35.77-35.05-5.78-3.17-23.28-12.79-44.64-7.07-14.7,3.93-25.48,13.59-30.66,18.26-8.25,7.42-13.92,15-18.94,21.73-4.37,5.87-6.66,9.59-9.53,14.43-.28.46-.55.92-.83,1.36l-14.15-23.86c.18-.3.37-.62.55-.92.28-.44.55-.9.83-1.34,2.17-3.51,4.62-7.17,8.16-11.91,5.43-7.26,12.21-16.35,22.24-25.36,6.31-5.69,19.47-17.5,38.26-22.52C160.39.67,166.31.02,171.83.02c18.96,0,33.34,7.88,38.89,10.94,21.83,12,35.19,30.7,43.19,41.87,2.52,3.51,4.49,6.54,6.15,9.27Z"/>
      <path class="cls-5" d="M834.61,86.69v65.03h-15.6v-65.03c0-6.97,3.48-12.63,7.79-12.63s7.81,5.65,7.81,12.63Z"/>
      <path class="cls-4" d="M834.61,23.11v63.76c0-6.83-3.5-12.38-7.81-12.38s-7.79,5.54-7.79,12.38V23.11h15.6Z"/>
      <path class="cls-4" d="M863.39,88.69V23.65h-15.6v65.03c0,6.97,3.48,12.63,7.79,12.63s7.81-5.65,7.81-12.63Z"/>
      <path class="cls-5" d="M863.39,152.27v-63.76c0,6.83-3.5,12.38-7.81,12.38s-7.79-5.54-7.79-12.38v63.76h15.6Z"/>
      <path class="cls-5" d="M921.74,88.14V23.11h-15.6v65.03c0,6.97,3.48,12.63,7.79,12.63s7.81-5.65,7.81-12.63Z"/>
      <path class="cls-4" d="M921.74,151.73v-63.76c0,6.83-3.5,12.38-7.81,12.38s-7.79-5.54-7.79-12.38v63.76h15.6Z"/>
      <path class="cls-4" d="M877.93,87.24v65.03h15.6v-65.03c0-6.97-3.48-12.63-7.79-12.63s-7.81,5.65-7.81,12.63Z"/>
      <path class="cls-5" d="M877.93,23.65v63.76c0-6.83,3.5-12.38,7.81-12.38s7.79,5.54,7.79,12.38V23.65h-15.6Z"/>
      <path class="cls-5" d="M1009.16,85.88v65.03h-15.6v-65.03c0-6.97,3.48-12.63,7.79-12.63s7.81,5.65,7.81,12.63Z"/>
      <path class="cls-4" d="M1009.16,22.3v63.76c0-6.83-3.5-12.38-7.81-12.38s-7.79,5.54-7.79,12.38V22.3h15.6Z"/>
      <path class="cls-4" d="M1037.94,87.87V22.84h-15.6v65.03c0,6.97,3.48,12.63,7.79,12.63s7.81-5.65,7.81-12.63Z"/>
      <path class="cls-5" d="M1037.94,151.46v-63.76c0,6.83-3.5,12.38-7.81,12.38s-7.79-5.54-7.79-12.38v63.76h15.6Z"/>
      <path class="cls-5" d="M1096.29,87.33V22.3h-15.6v65.03c0,6.97,3.48,12.63,7.79,12.63s7.81-5.65,7.81-12.63Z"/>
      <path class="cls-4" d="M1096.29,150.91v-63.76c0,6.83-3.5,12.38-7.81,12.38s-7.79-5.54-7.79-12.38v63.76h15.6Z"/>
      <path class="cls-4" d="M1052.48,86.42v65.03h15.6v-65.03c0-6.97-3.48-12.63-7.79-12.63s-7.81,5.65-7.81,12.63Z"/>
      <path class="cls-5" d="M1052.48,22.84v63.76c0-6.83,3.5-12.38,7.81-12.38s7.79,5.54,7.79,12.38V22.84h-15.6Z"/>
      <path class="cls-5" d="M1185.04,85.07v65.03h-15.6v-65.03c0-6.97,3.48-12.63,7.79-12.63s7.81,5.65,7.81,12.63Z"/>
      <path class="cls-4" d="M1185.04,21.49v63.76c0-6.83-3.5-12.38-7.81-12.38s-7.79,5.54-7.79,12.38V21.49h15.6Z"/>
      <path class="cls-4" d="M1213.82,87.06V22.03h-15.6v65.03c0,6.97,3.48,12.63,7.79,12.63s7.81-5.65,7.81-12.63Z"/>
      <path class="cls-5" d="M1213.82,150.64v-63.76c0,6.83-3.5,12.38-7.81,12.38s-7.79-5.54-7.79-12.38v63.76h15.6Z"/>
      <path class="cls-5" d="M1272.17,86.52V21.49h-15.6v65.03c0,6.97,3.48,12.63,7.79,12.63s7.81-5.65,7.81-12.63Z"/>
      <path class="cls-4" d="M1272.17,150.1v-63.76c0,6.83-3.5,12.38-7.81,12.38s-7.79-5.54-7.79-12.38v63.76h15.6Z"/>
      <path class="cls-4" d="M1228.36,85.61v65.03h15.6v-65.03c0-6.97-3.48-12.63-7.79-12.63s-7.81,5.65-7.81,12.63Z"/>
      <path class="cls-5" d="M1228.36,22.03v63.76c0-6.83,3.5-12.38,7.81-12.38s7.79,5.54,7.79,12.38V22.03h-15.6Z"/>
      <path class="cls-6" d="M783.1,62.11s-.04.06-.06.08c-2.5,4.13-4.25,7.58-6.05,11.14-1.98,3.9-4.03,7.92-7.47,13.57-2.86-4.86-5.15-8.51-9.55-14.42-4.99-6.73-10.65-14.3-18.93-21.74-5.17-4.64-15.94-14.33-30.64-18.26-5.01-1.33-9.79-1.84-14.28-1.75V.03c5.71-.06,11.86.59,18.3,2.32,18.8,5.03,31.96,16.88,38.29,22.56,10.03,8.99,16.78,18.06,22.23,25.33,3.52,4.75,5.95,8.4,8.15,11.87Z"/>
      <path class="cls-1" d="M797.48,85.74c-.22.4-.42.76-.62,1.16.2.4.42.79.62,1.19.24-.37.48-.76.74-1.16-.26-.4-.5-.79-.74-1.19Z"/>
      <path class="cls-2" d="M957.65,62.11s-.04.08-.06.11c-2.5,4.13-4.25,7.55-6.05,11.14-2,3.9-4.03,7.89-7.47,13.54-2.86-4.83-5.15-8.54-9.55-14.45-4.99-6.7-10.65-14.3-18.93-21.71-5.17-4.66-15.94-14.36-30.64-18.29-21.37-5.71-38.87,3.93-44.64,7.07-17.62,9.7-28.54,24.96-35.77,35.08-3.26,4.58-5.31,7.92-7.07,11.14-.22.4-.42.76-.62,1.16.2.4.42.79.62,1.19-4.75,7.41-7.71,12.44-10.13,16.54-1.16,1.98-2.26,3.84-3.38,5.68-.28.45-.56.9-.86,1.39-2.18,3.51-4.63,7.15-8.15,11.87-5.45,7.29-12.2,16.37-22.23,25.39-6.33,5.68-19.49,17.5-38.29,22.53-6.19,1.64-12.12,2.32-17.64,2.32-.22,0-.44,0-.66-.03v-30.67c4.49.08,9.27-.42,14.28-1.75,14.7-3.93,25.47-13.6,30.64-18.26,8.27-7.43,13.94-15.04,18.93-21.74,4.41-5.88,6.69-9.58,9.55-14.42v-.03c3.44-5.65,5.49-9.67,7.47-13.57,1.8-3.56,3.54-7.01,6.05-11.14.02-.03.04-.06.06-.08,1.64-2.71,3.62-5.74,6.17-9.3,7.97-11.17,21.35-29.85,43.18-41.84,7.19-3.96,29.06-15.97,56.53-8.62,18.8,5,31.96,16.85,38.29,22.53,10.01,9.02,16.78,18.06,22.21,25.36,3.52,4.75,5.97,8.37,8.17,11.87Z"/>
      <path class="cls-1" d="M972.03,85.74c-.2.4-.42.79-.62,1.19.2.37.4.76.62,1.13.24-.37.48-.76.74-1.16-.26-.4-.5-.79-.74-1.16Z"/>
      <path class="cls-6" d="M1132.2,62.11s-.04.06-.06.08c-2.5,4.13-4.25,7.58-6.07,11.14-1.98,3.9-4.03,7.92-7.45,13.57-2.86-4.86-5.15-8.51-9.55-14.42-4.99-6.73-10.67-14.33-18.93-21.74-5.19-4.64-15.94-14.33-30.64-18.26-21.39-5.71-38.89,3.9-44.64,7.07-17.62,9.67-28.54,24.96-35.77,35.05-3.26,4.58-5.33,7.94-7.07,11.14-.2.4-.42.79-.62,1.19.2.37.4.76.62,1.13-4.75,7.43-7.71,12.44-10.13,16.57-1.16,1.98-2.26,3.82-3.38,5.68-.28.45-.58.93-.86,1.39-2.2,3.51-4.65,7.12-8.17,11.87-5.43,7.27-12.2,16.34-22.21,25.36-6.33,5.68-19.49,17.53-38.29,22.53-6.21,1.67-12.12,2.32-17.64,2.35-18.96,0-33.32-7.92-38.89-10.97-21.83-11.99-35.21-30.67-43.18-41.84-2.52-3.53-4.51-6.56-6.17-9.3.3-.48.58-.93.86-1.39,1.12-1.84,2.22-3.7,3.38-5.68,2.42-4.1,5.39-9.13,10.13-16.54,1.76,3.19,3.8,6.56,7.07,11.14,7.23,10.09,18.14,25.36,35.77,35.02,5.75,3.17,23.27,12.78,44.64,7.07,14.7-3.9,25.47-13.6,30.64-18.26,8.27-7.41,13.94-15.01,18.93-21.74,4.41-5.88,6.69-9.55,9.55-14.39v-.03c3.44-5.65,5.47-9.64,7.47-13.54,1.8-3.59,3.54-7.01,6.05-11.14.02-.03.04-.08.06-.11,1.66-2.71,3.64-5.74,6.17-9.27,7.97-11.17,21.33-29.85,43.16-41.84,7.19-3.96,29.08-16,56.55-8.65,18.8,5.03,31.96,16.88,38.29,22.56,10.01,8.99,16.78,18.06,22.21,25.33,3.52,4.75,5.97,8.4,8.17,11.87Z"/>
      <path class="cls-1" d="M1146.56,85.71c-.2.4-.42.79-.62,1.19.2.4.42.79.64,1.19.24-.37.48-.76.74-1.16-.26-.42-.52-.82-.76-1.22Z"/>
      <path class="cls-2" d="M1306.73,62.13s-.02.03-.04.06c-2.5,4.13-4.27,7.58-6.07,11.14-1.98,3.9-4.03,7.92-7.47,13.57-2.84-4.83-5.15-8.54-9.53-14.45-5.01-6.7-10.67-14.3-18.93-21.74-5.19-4.64-15.96-14.33-30.66-18.26-21.37-5.71-38.87,3.9-44.64,7.07-17.62,9.7-28.54,24.96-35.77,35.05-3.26,4.58-5.31,7.94-7.07,11.14-.2.4-.42.79-.62,1.19.2.4.42.79.64,1.19-4.75,7.41-7.71,12.44-10.15,16.54-1.16,1.98-2.24,3.84-3.36,5.68-.28.45-.58.93-.86,1.39-2.2,3.51-4.65,7.15-8.17,11.87-5.43,7.29-12.2,16.37-22.21,25.39-6.33,5.68-19.49,17.5-38.29,22.5-6.21,1.67-12.14,2.35-17.64,2.35-18.97,0-33.34-7.89-38.91-10.94-21.83-11.99-35.19-30.7-43.16-41.87-2.54-3.56-4.53-6.59-6.17-9.3.28-.45.58-.93.86-1.39,1.12-1.87,2.22-3.7,3.38-5.68,2.42-4.13,5.39-9.13,10.13-16.57,1.74,3.22,3.79,6.59,7.07,11.17,7.23,10.09,18.14,25.36,35.77,35.05,5.75,3.17,23.25,12.78,44.64,7.07,14.7-3.93,25.45-13.6,30.64-18.26,8.25-7.43,13.94-15.04,18.93-21.74,4.41-5.88,6.67-9.58,9.55-14.42v-.03c3.42-5.65,5.47-9.67,7.45-13.57,1.82-3.56,3.56-7.01,6.07-11.14.02-.03.04-.06.06-.08,1.64-2.71,3.6-5.74,6.15-9.3,7.99-11.17,21.35-29.85,43.18-41.84,7.19-3.96,29.08-15.97,56.55-8.65,18.8,5.03,31.96,16.88,38.27,22.56,10.03,8.99,16.8,18.06,22.23,25.36,3.54,4.75,5.99,8.4,8.15,11.9Z"/>
      <path class="cls-1" d="M1321.11,85.74c-.22.4-.42.76-.62,1.16.2.4.4.76.62,1.16.26-.37.5-.76.76-1.16-.26-.4-.5-.79-.76-1.16Z"/>
      <path class="cls-6" d="M1394.41,0v30.68c-14.7.16-26.03,6.4-30.47,8.83-17.62,9.69-28.53,24.97-35.77,35.07-3.26,4.58-5.29,7.93-7.07,11.14-.21.39-.42.76-.6,1.16.19.39.39.76.6,1.16-4.74,7.42-7.7,12.44-10.13,16.58-1.16,1.94-2.24,3.81-3.38,5.66-.28.46-.56.92-.86,1.36-2.17,3.51-4.62,7.17-8.16,11.91-5.43,7.26-12.21,16.35-22.22,25.36-6.31,5.66-19.47,17.5-38.29,22.52-6.2,1.66-12.14,2.31-17.66,2.31-18.94,0-33.32-7.88-38.89-10.94-21.83-11.98-35.19-30.7-43.17-41.87-2.54-3.49-4.49-6.52-6.15-9.27.28-.44.58-.92.86-1.39,1.11-1.83,2.2-3.7,3.35-5.66,2.45-4.12,5.41-9.13,10.17-16.55,1.73,3.21,3.77,6.57,7.03,11.12,7.24,10.13,18.15,25.39,35.77,35.05,5.78,3.17,23.28,12.79,44.64,7.07,14.7-3.93,25.48-13.59,30.66-18.26,8.25-7.44,13.92-15,18.94-21.73,4.39-5.9,6.66-9.59,9.53-14.43,3.44-5.64,5.5-9.66,7.47-13.57,1.8-3.56,3.58-7.01,6.08-11.14l.05-.05c1.62-2.71,3.61-5.76,6.15-9.32,7.98-11.17,21.36-29.87,43.19-41.85,5.53-3.03,19.65-10.8,38.33-10.96Z"/>
      <path class="cls-2" d="M1394.41,143.08v30.73c-18.68-.16-32.81-7.95-38.33-10.98-21.83-11.98-35.21-30.7-43.19-41.82-2.54-3.56-4.51-6.59-6.15-9.34.3-.44.58-.9.86-1.36,1.13-1.85,2.22-3.72,3.38-5.66,2.43-4.14,5.39-9.16,10.13-16.58,1.78,3.24,3.82,6.57,7.07,11.17,7.24,10.1,18.15,25.36,35.77,35.03,4.42,2.43,15.77,8.67,30.47,8.83Z"/>
      <path class="cls-6" d="M85.5,62.13c-.28.46-.55.9-.83,1.36-.18.3-.37.62-.55.92-.95,1.55-1.85,3.12-2.84,4.76-.23.39-.46.79-.69,1.18-.49.81-.97,1.64-1.5,2.54-.25.44-.53.9-.81,1.36-1.87,3.14-4.16,6.84-7.12,11.47-1.76-3.21-3.79-6.54-7.07-11.17-7.21-10.08-18.13-25.34-35.77-35.03-4.07-2.24-14.06-7.72-27.14-8.67L1.39.15c16.92.99,29.64,8,34.8,10.82,21.83,12,35.21,30.7,43.17,41.85,2.54,3.56,4.53,6.59,6.15,9.32Z"/>
      <line class="cls-3" x1="268.22" y1="123.56" x2="260.61" y2="110.77"/>
      <line class="cls-3" x1="245.7" y1="85.67" x2="243.45" y2="81.87"/>
    </g>
  </g>
</svg>