<?xml version="1.0" encoding="UTF-8"?>
<svg id="Capa_2" data-name="Capa 2" xmlns="http://www.w3.org/2000/svg" viewBox="0 0 698.29 173.8">
  <defs>
    <style>
      .cls-1 {
        fill: #1d1d1b;
      }

      .cls-2 {
        fill: #574898;
      }

      .cls-3 {
        fill: #a6cded;
      }

      .cls-3, .cls-4 {
        fill-rule: evenodd;
      }

      .cls-4 {
        fill: #4181c2;
      }

      .cls-5 {
        fill: #9f97c9;
      }
    </style>
  </defs>
  <g id="Capa_1-2" data-name="Capa 1">
    <g>
      <path class="cls-4" d="M53.25,89.88V24.85h-15.6v65.03c0,6.97,3.48,12.63,7.79,12.63s7.81-5.65,7.81-12.63Z"/>
      <path class="cls-3" d="M53.25,153.46v-63.76c0,6.83-3.5,12.38-7.81,12.38s-7.79-5.54-7.79-12.38v63.76h15.6Z"/>
      <path class="cls-3" d="M9.44,88.97v65.03h15.6v-65.03c0-6.97-3.48-12.63-7.79-12.63s-7.81,5.65-7.81,12.63Z"/>
      <path class="cls-4" d="M9.44,25.39v63.76c0-6.83,3.5-12.38,7.81-12.38s7.79,5.54,7.79,12.38V25.39h-15.6Z"/>
      <path class="cls-4" d="M138.49,86.69v65.03h-15.6v-65.03c0-6.97,3.48-12.63,7.79-12.63s7.81,5.65,7.81,12.63Z"/>
      <path class="cls-3" d="M138.49,23.11v63.76c0-6.83-3.5-12.38-7.81-12.38s-7.79,5.54-7.79,12.38V23.11h15.6Z"/>
      <path class="cls-3" d="M167.26,88.69V23.65h-15.6v65.03c0,6.97,3.48,12.63,7.79,12.63s7.81-5.65,7.81-12.63Z"/>
      <path class="cls-4" d="M167.26,152.27v-63.76c0,6.83-3.5,12.38-7.81,12.38s-7.79-5.54-7.79-12.38v63.76h15.6Z"/>
      <path class="cls-4" d="M225.61,88.14V23.11h-15.6v65.03c0,6.97,3.48,12.63,7.79,12.63s7.81-5.65,7.81-12.63Z"/>
      <path class="cls-3" d="M225.61,151.73v-63.76c0,6.83-3.5,12.38-7.81,12.38s-7.79-5.54-7.79-12.38v63.76h15.6Z"/>
      <path class="cls-3" d="M181.81,87.24v65.03h15.6v-65.03c0-6.97-3.48-12.63-7.79-12.63s-7.81,5.65-7.81,12.63Z"/>
      <path class="cls-4" d="M181.81,23.65v63.76c0-6.83,3.5-12.38,7.81-12.38s7.79,5.54,7.79,12.38V23.65h-15.6Z"/>
      <path class="cls-4" d="M313.04,85.88v65.03h-15.6v-65.03c0-6.97,3.48-12.63,7.79-12.63s7.81,5.65,7.81,12.63Z"/>
      <path class="cls-3" d="M313.04,22.3v63.76c0-6.83-3.5-12.38-7.81-12.38s-7.79,5.54-7.79,12.38V22.3h15.6Z"/>
      <path class="cls-3" d="M341.81,87.87V22.84h-15.6v65.03c0,6.97,3.48,12.63,7.79,12.63s7.81-5.65,7.81-12.63Z"/>
      <path class="cls-4" d="M341.81,151.46v-63.76c0,6.83-3.5,12.38-7.81,12.38s-7.79-5.54-7.79-12.38v63.76h15.6Z"/>
      <path class="cls-4" d="M400.16,87.33V22.3h-15.6v65.03c0,6.97,3.48,12.63,7.79,12.63s7.81-5.65,7.81-12.63Z"/>
      <path class="cls-3" d="M400.16,150.91v-63.76c0,6.83-3.5,12.38-7.81,12.38s-7.79-5.54-7.79-12.38v63.76h15.6Z"/>
      <path class="cls-3" d="M356.36,86.42v65.03h15.6v-65.03c0-6.97-3.48-12.63-7.79-12.63s-7.81,5.65-7.81,12.63Z"/>
      <path class="cls-4" d="M356.36,22.84v63.76c0-6.83,3.5-12.38,7.81-12.38s7.79,5.54,7.79,12.38V22.84h-15.6Z"/>
      <path class="cls-4" d="M488.92,85.07v65.03h-15.6v-65.03c0-6.97,3.48-12.63,7.79-12.63s7.81,5.65,7.81,12.63Z"/>
      <path class="cls-3" d="M488.92,21.49v63.76c0-6.83-3.5-12.38-7.81-12.38s-7.79,5.54-7.79,12.38V21.49h15.6Z"/>
      <path class="cls-3" d="M517.69,87.06V22.03h-15.6v65.03c0,6.97,3.48,12.63,7.79,12.63s7.81-5.65,7.81-12.63Z"/>
      <path class="cls-4" d="M517.69,150.64v-63.76c0,6.83-3.5,12.38-7.81,12.38s-7.79-5.54-7.79-12.38v63.76h15.6Z"/>
      <path class="cls-4" d="M576.04,86.52V21.49h-15.6v65.03c0,6.97,3.48,12.63,7.79,12.63s7.81-5.65,7.81-12.63Z"/>
      <path class="cls-3" d="M576.04,150.1v-63.76c0,6.83-3.5,12.38-7.81,12.38s-7.79-5.54-7.79-12.38v63.76h15.6Z"/>
      <path class="cls-3" d="M532.24,85.61v65.03h15.6v-65.03c0-6.97-3.48-12.63-7.79-12.63s-7.81,5.65-7.81,12.63Z"/>
      <path class="cls-4" d="M532.24,22.03v63.76c0-6.83,3.5-12.38,7.81-12.38s7.79,5.54,7.79,12.38V22.03h-15.6Z"/>
      <path class="cls-5" d="M86.97,62.11s-.04.06-.06.08c-2.5,4.13-4.25,7.58-6.05,11.14-1.98,3.9-4.03,7.92-7.47,13.57-2.86-4.86-5.15-8.51-9.55-14.42-4.99-6.73-10.65-14.3-18.93-21.74-5.17-4.64-15.94-14.33-30.64-18.26-5.01-1.33-9.79-1.84-14.28-1.75V.03C5.71-.03,11.86.62,18.3,2.35c18.8,5.03,31.96,16.88,38.29,22.56,10.03,8.99,16.78,18.06,22.23,25.33,3.52,4.75,5.95,8.4,8.15,11.87Z"/>
      <path class="cls-1" d="M101.35,85.74c-.22.4-.42.76-.62,1.16.2.4.42.79.62,1.19.24-.37.48-.76.74-1.16-.26-.4-.5-.79-.74-1.19Z"/>
      <path class="cls-2" d="M261.53,62.11s-.04.08-.06.11c-2.5,4.13-4.25,7.55-6.05,11.14-2,3.9-4.03,7.89-7.47,13.54-2.86-4.83-5.15-8.54-9.55-14.45-4.99-6.7-10.65-14.3-18.93-21.71-5.17-4.66-15.94-14.36-30.64-18.29-21.37-5.71-38.87,3.93-44.64,7.07-17.62,9.7-28.54,24.96-35.77,35.08-3.26,4.58-5.31,7.92-7.07,11.14-.22.4-.42.76-.62,1.16.2.4.42.79.62,1.19-4.75,7.41-7.71,12.44-10.13,16.54-1.16,1.98-2.26,3.84-3.38,5.68-.28.45-.56.9-.86,1.39-2.18,3.51-4.63,7.15-8.15,11.87-5.45,7.29-12.2,16.37-22.23,25.39-6.33,5.68-19.49,17.5-38.29,22.53-6.19,1.64-12.12,2.32-17.64,2.32-.22,0-.44,0-.66-.03v-30.67c4.49.08,9.27-.42,14.28-1.75,14.7-3.93,25.47-13.6,30.64-18.26,8.27-7.43,13.94-15.04,18.93-21.74,4.41-5.88,6.69-9.58,9.55-14.42v-.03c3.44-5.65,5.49-9.67,7.47-13.57,1.8-3.56,3.54-7.01,6.05-11.14.02-.03.04-.06.06-.08,1.64-2.71,3.62-5.74,6.17-9.3,7.97-11.17,21.35-29.85,43.18-41.84,7.19-3.96,29.06-15.97,56.53-8.62,18.8,5,31.96,16.85,38.29,22.53,10.01,9.02,16.78,18.06,22.21,25.36,3.52,4.75,5.97,8.37,8.17,11.87Z"/>
      <path class="cls-1" d="M275.9,85.74c-.2.4-.42.79-.62,1.19.2.37.4.76.62,1.13.24-.37.48-.76.74-1.16-.26-.4-.5-.79-.74-1.16Z"/>
      <path class="cls-5" d="M436.07,62.11s-.04.06-.06.08c-2.5,4.13-4.25,7.58-6.07,11.14-1.98,3.9-4.03,7.92-7.45,13.57-2.86-4.86-5.15-8.51-9.55-14.42-4.99-6.73-10.67-14.33-18.93-21.74-5.19-4.64-15.94-14.33-30.64-18.26-21.39-5.71-38.89,3.9-44.64,7.07-17.62,9.67-28.54,24.96-35.77,35.05-3.26,4.58-5.33,7.94-7.07,11.14-.2.4-.42.79-.62,1.19.2.37.4.76.62,1.13-4.75,7.43-7.71,12.44-10.13,16.57-1.16,1.98-2.26,3.82-3.38,5.68-.28.45-.58.93-.86,1.39-2.2,3.51-4.65,7.12-8.17,11.87-5.43,7.27-12.2,16.34-22.21,25.36-6.33,5.68-19.49,17.53-38.29,22.53-6.21,1.67-12.12,2.32-17.64,2.35-18.96,0-33.32-7.92-38.89-10.97-21.83-11.99-35.21-30.67-43.18-41.84-2.52-3.53-4.51-6.56-6.17-9.3.3-.48.58-.93.86-1.39,1.12-1.84,2.22-3.7,3.38-5.68,2.42-4.1,5.39-9.13,10.13-16.54,1.76,3.19,3.8,6.56,7.07,11.14,7.23,10.09,18.14,25.36,35.77,35.02,5.75,3.17,23.27,12.78,44.64,7.07,14.7-3.9,25.47-13.6,30.64-18.26,8.27-7.41,13.94-15.01,18.93-21.74,4.41-5.88,6.69-9.55,9.55-14.39v-.03c3.44-5.65,5.47-9.64,7.47-13.54,1.8-3.59,3.54-7.01,6.05-11.14.02-.03.04-.08.06-.11,1.66-2.71,3.64-5.74,6.17-9.27,7.97-11.17,21.33-29.85,43.16-41.84,7.19-3.96,29.08-16,56.55-8.65,18.8,5.03,31.96,16.88,38.29,22.56,10.01,8.99,16.78,18.06,22.21,25.33,3.52,4.75,5.97,8.4,8.17,11.87Z"/>
      <path class="cls-1" d="M450.43,85.71c-.2.4-.42.79-.62,1.19.2.4.42.79.64,1.19.24-.37.48-.76.74-1.16-.26-.42-.52-.82-.76-1.22Z"/>
      <path class="cls-2" d="M610.6,62.13s-.02.03-.04.06c-2.5,4.13-4.27,7.58-6.07,11.14-1.98,3.9-4.03,7.92-7.47,13.57-2.84-4.83-5.15-8.54-9.53-14.45-5.01-6.7-10.67-14.3-18.93-21.74-5.19-4.64-15.96-14.33-30.66-18.26-21.37-5.71-38.87,3.9-44.64,7.07-17.62,9.7-28.54,24.96-35.77,35.05-3.26,4.58-5.31,7.94-7.07,11.14-.2.4-.42.79-.62,1.19.2.4.42.79.64,1.19-4.75,7.41-7.71,12.44-10.15,16.54-1.16,1.98-2.24,3.84-3.36,5.68-.28.45-.58.93-.86,1.39-2.2,3.51-4.65,7.15-8.17,11.87-5.43,7.29-12.2,16.37-22.21,25.39-6.33,5.68-19.49,17.5-38.29,22.5-6.21,1.67-12.14,2.35-17.64,2.35-18.97,0-33.34-7.89-38.91-10.94-21.83-11.99-35.19-30.7-43.16-41.87-2.54-3.56-4.53-6.59-6.17-9.3.28-.45.58-.93.86-1.39,1.12-1.87,2.22-3.7,3.38-5.68,2.42-4.13,5.39-9.13,10.13-16.57,1.74,3.22,3.79,6.59,7.07,11.17,7.23,10.09,18.14,25.36,35.77,35.05,5.75,3.17,23.25,12.78,44.64,7.07,14.7-3.93,25.45-13.6,30.64-18.26,8.25-7.43,13.94-15.04,18.93-21.74,4.41-5.88,6.67-9.58,9.55-14.42v-.03c3.42-5.65,5.47-9.67,7.45-13.57,1.82-3.56,3.56-7.01,6.07-11.14.02-.03.04-.06.06-.08,1.64-2.71,3.6-5.74,6.15-9.3,7.99-11.17,21.35-29.85,43.18-41.84,7.19-3.96,29.08-15.97,56.55-8.65,18.8,5.03,31.96,16.88,38.27,22.56,10.03,8.99,16.8,18.06,22.23,25.36,3.54,4.75,5.99,8.4,8.15,11.9Z"/>
      <path class="cls-1" d="M624.98,85.74c-.22.4-.42.76-.62,1.16.2.4.4.76.62,1.16.26-.37.5-.76.76-1.16-.26-.4-.5-.79-.76-1.16Z"/>
      <path class="cls-5" d="M698.29,0v30.68c-14.7.16-26.03,6.4-30.47,8.83-17.62,9.69-28.53,24.97-35.77,35.07-3.26,4.58-5.29,7.93-7.07,11.14-.21.39-.42.76-.6,1.16.19.39.39.76.6,1.16-4.74,7.42-7.7,12.44-10.13,16.58-1.16,1.94-2.24,3.81-3.38,5.66-.28.46-.56.92-.86,1.36-2.17,3.51-4.62,7.17-8.16,11.91-5.43,7.26-12.21,16.35-22.22,25.36-6.31,5.66-19.47,17.5-38.29,22.52-6.2,1.66-12.14,2.31-17.66,2.31-18.94,0-33.32-7.88-38.89-10.94-21.83-11.98-35.19-30.7-43.17-41.87-2.54-3.49-4.49-6.52-6.15-9.27.28-.44.58-.92.86-1.39,1.11-1.83,2.2-3.7,3.35-5.66,2.45-4.12,5.41-9.13,10.17-16.55,1.73,3.21,3.77,6.57,7.03,11.12,7.24,10.13,18.15,25.39,35.77,35.05,5.78,3.17,23.28,12.79,44.64,7.07,14.7-3.93,25.48-13.59,30.66-18.26,8.25-7.44,13.92-15,18.94-21.73,4.39-5.9,6.66-9.59,9.53-14.43,3.44-5.64,5.5-9.66,7.47-13.57,1.8-3.56,3.58-7.01,6.08-11.14l.05-.05c1.62-2.71,3.61-5.76,6.15-9.32,7.98-11.17,21.36-29.87,43.19-41.85,5.53-3.03,19.65-10.8,38.33-10.96Z"/>
      <path class="cls-2" d="M698.29,143.08v30.73c-18.68-.16-32.81-7.95-38.33-10.98-21.83-11.98-35.21-30.7-43.19-41.82-2.54-3.56-4.51-6.59-6.15-9.34.3-.44.58-.9.86-1.36,1.13-1.85,2.22-3.72,3.38-5.66,2.43-4.14,5.39-9.16,10.13-16.58,1.78,3.24,3.82,6.57,7.07,11.17,7.24,10.1,18.15,25.36,35.77,35.03,4.42,2.43,15.77,8.67,30.47,8.83Z"/>
    </g>
  </g>
</svg>