<?xml version="1.0" encoding="UTF-8"?>
<svg id="Capa_2" data-name="Capa 2" xmlns="http://www.w3.org/2000/svg" viewBox="0 0 685.68 110.29">
  <defs>
    <style>
      .cls-1 {
        fill: #a6cded;
      }

      .cls-1, .cls-2 {
        fill-rule: evenodd;
      }

      .cls-3 {
        fill: #497997;
      }

      .cls-2 {
        fill: #4181c2;
      }
    </style>
  </defs>
  <g id="Capa_1-2" data-name="Capa 1">
    <g>
      <path class="cls-1" d="M64.17,21.16v57.15c0-6.12-2.96-11.09-6.59-11.09s-6.58,4.97-6.58,11.09V21.16h13.17Z"/>
      <path class="cls-2" d="M94.36,80.98V22.7h-13.17v58.28c0,6.25,2.94,11.32,6.58,11.32s6.59-5.07,6.59-11.32Z"/>
      <path class="cls-1" d="M111.93,21.64v57.15c0-6.12,2.96-11.09,6.59-11.09s6.58,4.97,6.58,11.09V21.64h-13.17Z"/>
      <path class="cls-1" d="M150.06,38.38v57.15c0-6.12-2.96-11.09-6.59-11.09s-6.58,4.97-6.58,11.09v-57.15h13.17Z"/>
      <path class="cls-2" d="M180.25,98.2v-58.28h-13.17v58.28c0,6.25,2.94,11.32,6.58,11.32s6.59-5.07,6.59-11.32Z"/>
      <path class="cls-1" d="M197.83,38.86v57.15c0-6.12,2.96-11.09,6.59-11.09s6.58,4.97,6.58,11.09v-57.15h-13.17Z"/>
      <path class="cls-1" d="M318.71,38.38v57.15c0-6.12-2.96-11.09-6.59-11.09s-6.58,4.97-6.58,11.09v-57.15h13.17Z"/>
      <path class="cls-2" d="M348.9,98.2v-58.28h-13.17v58.28c0,6.25,2.94,11.32,6.58,11.32s6.59-5.07,6.59-11.32Z"/>
      <path class="cls-1" d="M366.47,38.86v57.15c0-6.12,2.96-11.09,6.59-11.09s6.58,4.97,6.58,11.09v-57.15h-13.17Z"/>
      <path class="cls-1" d="M488.19,39.15v57.15c0-6.12-2.96-11.09-6.59-11.09s-6.58,4.97-6.58,11.09v-57.15h13.17Z"/>
      <path class="cls-2" d="M518.39,98.97v-58.28h-13.17v58.28c0,6.25,2.94,11.32,6.58,11.32s6.59-5.07,6.59-11.32Z"/>
      <path class="cls-1" d="M535.96,39.63v57.15c0-6.12,2.96-11.09,6.59-11.09s6.58,4.97,6.58,11.09v-57.15h-13.17Z"/>
      <path class="cls-1" d="M662.07,39.15v57.15c0-6.12-2.96-11.09-6.59-11.09s-6.58,4.97-6.58,11.09v-57.15h13.17Z"/>
      <path class="cls-1" d="M235.95,21.93v57.15c0-6.12-2.96-11.09-6.59-11.09s-6.58,4.97-6.58,11.09V21.93h13.17Z"/>
      <path class="cls-2" d="M266.15,81.75V23.47h-13.17v58.28c0,6.25,2.94,11.32,6.58,11.32s6.59-5.07,6.59-11.32Z"/>
      <path class="cls-1" d="M283.72,22.41v57.15c0-6.12,2.96-11.09,6.59-11.09s6.58,4.97,6.58,11.09V22.41h-13.17Z"/>
      <path class="cls-1" d="M402.01,21.93v57.15c0-6.12-2.96-11.09-6.59-11.09s-6.58,4.97-6.58,11.09V21.93h13.17Z"/>
      <path class="cls-2" d="M432.2,81.75V23.47h-13.17v58.28c0,6.25,2.94,11.32,6.58,11.32s6.59-5.07,6.59-11.32Z"/>
      <path class="cls-1" d="M449.78,22.41v57.15c0-6.12,2.96-11.09,6.59-11.09s6.58,4.97,6.58,11.09V22.41h-13.17Z"/>
      <path class="cls-1" d="M574.38,21.93v57.15c0-6.12-2.96-11.09-6.59-11.09s-6.58,4.97-6.58,11.09V21.93h13.17Z"/>
      <path class="cls-2" d="M604.57,81.75V23.47h-13.17v58.28c0,6.25,2.94,11.32,6.58,11.32s6.59-5.07,6.59-11.32Z"/>
      <path class="cls-1" d="M622.14,22.41v57.15c0-6.12,2.96-11.09,6.59-11.09s6.58,4.97,6.58,11.09V22.41h-13.17Z"/>
      <path class="cls-1" d="M20.8,22.41v57.15c0-6.12,2.96-11.09,6.59-11.09s6.58,4.97,6.58,11.09V22.41h-13.17Z"/>
      <path class="cls-3" d="M685.68,20.4v28.12c-.14.01-.29.02-.43.02-16.65.56-31.73-5.26-46.29-10.87-11.8-4.54-22.95-8.83-34.02-9.39-13.64-.72-27.48,4.17-42.16,9.39-15.41,5.45-31.33,11.07-48.66,10.75-15.85-.36-30.37-5.7-44.41-10.87-13.24-4.86-25.75-9.47-38.19-9.47s-25.11,4.65-38.43,9.59c-14.6,5.41-29.73,11.03-46.21,11.03h-.2c-16.29-.04-31.25-5.58-45.69-10.95-12.76-4.74-24.8-9.19-36.79-9.55-13.36-.4-26.96,4.37-41.28,9.43-15.76,5.49-32.05,11.19-49.66,10.63-14.68-.49-28.16-5.3-41.16-9.95-8.06-2.89-15.65-5.62-23.31-7.26-33.65-7.26-69.36,6.29-100.89,18.21L0,22.62C32.69,10.27,73.41-5.18,113.45,3.45c9.1,1.96,17.77,5.05,26.15,8.06,11.92,4.25,23.19,8.3,34.42,8.67,13.4.44,27.08-4.34,41.52-9.39C231.14,5.33,247.35-.32,264.8.16c15.69.44,30.05,5.73,43.97,10.91,13.16,4.89,25.59,9.51,37.99,9.55,12.39,0,25.19-4.66,38.59-9.63,14.6-5.42,29.68-10.99,46.17-10.99s31.37,5.49,45.89,10.83c12.88,4.77,25.07,9.22,37.15,9.51,13.32.28,26.64-4.46,40.8-9.47,16.08-5.7,32.69-11.55,50.74-10.67,14.6.76,27.96,5.89,40.88,10.87,13.08,5.05,25.39,9.79,37.55,9.39.38-.01.76-.03,1.15-.06Z"/>
    </g>
  </g>
</svg>