<?xml version="1.0" encoding="UTF-8"?>
<svg id="Capa_2" data-name="Capa 2" xmlns="http://www.w3.org/2000/svg" viewBox="0 0 1371.91 111.79">
  <defs>
    <style>
      .cls-1 {
        fill: #a6cded;
      }

      .cls-1, .cls-2 {
        fill-rule: evenodd;
      }

      .cls-3 {
        fill: #497997;
      }

      .cls-2 {
        fill: #4181c2;
      }
    </style>
  </defs>
  <g id="Capa_1-2" data-name="Capa 1">
    <g>
      <path class="cls-1" d="M64.17,21.89v57.15c0-6.12-2.96-11.09-6.59-11.09s-6.58,4.97-6.58,11.09V21.89h13.17Z"/>
      <path class="cls-2" d="M94.36,81.71V23.43h-13.17v58.28c0,6.25,2.94,11.32,6.58,11.32s6.59-5.07,6.59-11.32Z"/>
      <path class="cls-1" d="M111.93,22.37v57.15c0-6.12,2.96-11.09,6.59-11.09s6.58,4.97,6.58,11.09V22.37h-13.17Z"/>
      <path class="cls-1" d="M150.06,39.1v57.15c0-6.12-2.96-11.09-6.59-11.09s-6.58,4.97-6.58,11.09v-57.15h13.17Z"/>
      <path class="cls-2" d="M180.25,98.93v-58.28h-13.17v58.28c0,6.25,2.94,11.32,6.58,11.32s6.59-5.07,6.59-11.32Z"/>
      <path class="cls-1" d="M197.83,39.59v57.15c0-6.12,2.96-11.09,6.59-11.09s6.58,4.97,6.58,11.09v-57.15h-13.17Z"/>
      <path class="cls-1" d="M318.71,39.1v57.15c0-6.12-2.96-11.09-6.59-11.09s-6.58,4.97-6.58,11.09v-57.15h13.17Z"/>
      <path class="cls-2" d="M348.9,98.93v-58.28h-13.17v58.28c0,6.25,2.94,11.32,6.58,11.32s6.59-5.07,6.59-11.32Z"/>
      <path class="cls-1" d="M366.47,39.59v57.15c0-6.12,2.96-11.09,6.59-11.09s6.58,4.97,6.58,11.09v-57.15h-13.17Z"/>
      <path class="cls-1" d="M488.19,39.88v57.15c0-6.12-2.96-11.09-6.59-11.09s-6.58,4.97-6.58,11.09v-57.15h13.17Z"/>
      <path class="cls-2" d="M518.39,99.7v-58.28h-13.17v58.28c0,6.25,2.94,11.32,6.58,11.32s6.59-5.07,6.59-11.32Z"/>
      <path class="cls-1" d="M535.96,40.36v57.15c0-6.12,2.96-11.09,6.59-11.09s6.58,4.97,6.58,11.09v-57.15h-13.17Z"/>
      <path class="cls-1" d="M662.07,39.88v57.15c0-6.12-2.96-11.09-6.59-11.09s-6.58,4.97-6.58,11.09v-57.15h13.17Z"/>
      <path class="cls-2" d="M692.27,99.7v-58.28h-13.17v58.28c0,6.25,2.94,11.32,6.58,11.32s6.59-5.07,6.59-11.32Z"/>
      <path class="cls-1" d="M709.84,40.36v57.15c0-6.12,2.96-11.09,6.59-11.09s6.58,4.97,6.58,11.09v-57.15h-13.17Z"/>
      <path class="cls-1" d="M836.07,40.65v57.15c0-6.12-2.96-11.09-6.59-11.09s-6.58,4.97-6.58,11.09v-57.15h13.17Z"/>
      <path class="cls-2" d="M866.27,100.47v-58.28h-13.17v58.28c0,6.25,2.94,11.32,6.58,11.32s6.59-5.07,6.59-11.32Z"/>
      <path class="cls-1" d="M883.84,41.13v57.15c0-6.12,2.96-11.09,6.59-11.09s6.58,4.97,6.58,11.09v-57.15h-13.17Z"/>
      <path class="cls-1" d="M1011.2,39.1v57.15c0-6.12-2.96-11.09-6.59-11.09s-6.58,4.97-6.58,11.09v-57.15h13.17Z"/>
      <path class="cls-2" d="M1041.4,98.93v-58.28h-13.17v58.28c0,6.25,2.94,11.32,6.58,11.32s6.59-5.07,6.59-11.32Z"/>
      <path class="cls-1" d="M1058.97,39.59v57.15c0-6.12,2.96-11.09,6.59-11.09s6.58,4.97,6.58,11.09v-57.15h-13.17Z"/>
      <path class="cls-1" d="M1178.6,39.09v57.15c0-6.12-2.96-11.09-6.59-11.09s-6.58,4.97-6.58,11.09v-57.15h13.17Z"/>
      <path class="cls-2" d="M1208.8,98.92v-58.28h-13.17v58.28c0,6.25,2.94,11.32,6.58,11.32s6.59-5.07,6.59-11.32Z"/>
      <path class="cls-1" d="M1226.37,39.58v57.15c0-6.12,2.96-11.09,6.59-11.09s6.58,4.97,6.58,11.09v-57.15h-13.17Z"/>
      <path class="cls-1" d="M235.95,22.66v57.15c0-6.12-2.96-11.09-6.59-11.09s-6.58,4.97-6.58,11.09V22.66h13.17Z"/>
      <path class="cls-2" d="M266.15,82.48V24.2h-13.17v58.28c0,6.25,2.94,11.32,6.58,11.32s6.59-5.07,6.59-11.32Z"/>
      <path class="cls-1" d="M283.72,23.14v57.15c0-6.12,2.96-11.09,6.59-11.09s6.58,4.97,6.58,11.09V23.14h-13.17Z"/>
      <path class="cls-1" d="M402.01,22.66v57.15c0-6.12-2.96-11.09-6.59-11.09s-6.58,4.97-6.58,11.09V22.66h13.17Z"/>
      <path class="cls-2" d="M432.2,82.48V24.2h-13.17v58.28c0,6.25,2.94,11.32,6.58,11.32s6.59-5.07,6.59-11.32Z"/>
      <path class="cls-1" d="M449.78,23.14v57.15c0-6.12,2.96-11.09,6.59-11.09s6.58,4.97,6.58,11.09V23.14h-13.17Z"/>
      <path class="cls-1" d="M574.38,22.66v57.15c0-6.12-2.96-11.09-6.59-11.09s-6.58,4.97-6.58,11.09V22.66h13.17Z"/>
      <path class="cls-2" d="M604.57,82.48V24.2h-13.17v58.28c0,6.25,2.94,11.32,6.58,11.32s6.59-5.07,6.59-11.32Z"/>
      <path class="cls-1" d="M622.14,23.14v57.15c0-6.12,2.96-11.09,6.59-11.09s6.58,4.97,6.58,11.09V23.14h-13.17Z"/>
      <path class="cls-1" d="M745.86,26.6v57.15c0-6.12-2.96-11.09-6.59-11.09s-6.58,4.97-6.58,11.09V26.6h13.17Z"/>
      <path class="cls-2" d="M776.05,86.42V28.14h-13.17v58.28c0,6.25,2.94,11.32,6.58,11.32s6.59-5.07,6.59-11.32Z"/>
      <path class="cls-1" d="M793.63,27.08v57.15c0-6.12,2.96-11.09,6.59-11.09s6.58,4.97,6.58,11.09V27.08h-13.17Z"/>
      <path class="cls-1" d="M923.79,21.16v57.15c0-6.12-2.96-11.09-6.59-11.09s-6.58,4.97-6.58,11.09V21.16h13.17Z"/>
      <path class="cls-2" d="M953.98,80.98V22.7h-13.17v58.28c0,6.25,2.94,11.32,6.58,11.32s6.59-5.07,6.59-11.32Z"/>
      <path class="cls-1" d="M971.56,21.64v57.15c0-6.12,2.96-11.09,6.59-11.09s6.58,4.97,6.58,11.09V21.64h-13.17Z"/>
      <path class="cls-1" d="M1095.58,21.93v57.15c0-6.12-2.96-11.09-6.59-11.09s-6.58,4.97-6.58,11.09V21.93h13.17Z"/>
      <path class="cls-2" d="M1125.77,81.76V23.47h-13.17v58.28c0,6.25,2.94,11.32,6.58,11.32s6.59-5.07,6.59-11.32Z"/>
      <path class="cls-1" d="M1143.34,22.42v57.15c0-6.12,2.96-11.09,6.59-11.09s6.58,4.97,6.58,11.09V22.42h-13.17Z"/>
      <path class="cls-1" d="M1261.63,21.93v57.15c0-6.12-2.96-11.09-6.59-11.09s-6.58,4.97-6.58,11.09V21.93h13.17Z"/>
      <path class="cls-2" d="M1291.83,81.76V23.47h-13.17v58.28c0,6.25,2.94,11.32,6.58,11.32s6.59-5.07,6.59-11.32Z"/>
      <path class="cls-1" d="M1309.4,22.42v57.15c0-6.12,2.96-11.09,6.59-11.09s6.58,4.97,6.58,11.09V22.42h-13.17Z"/>
      <path class="cls-3" d="M1337.03,10.83c-14.52-5.34-29.48-10.83-45.89-10.83s-31.57,5.57-46.17,10.99c-13.4,4.97-26.2,9.63-38.59,9.63-12.4-.04-24.83-4.66-37.99-9.55-13.92-5.17-28.28-10.47-43.97-10.91-17.45-.48-33.65,5.17-49.26,10.63-14.44,5.05-28.12,9.83-41.52,9.39-11.23-.37-22.5-4.42-34.42-8.67-8.38-3.01-17.05-6.1-26.15-8.06-39.77-8.57-80.2,6.61-112.78,18.92-1.28.09-2.56.15-3.83.18-8.95.08-18.97-3.93-29.57-8.26-9.19-3.81-18.69-7.7-28.72-9.35-24.31-3.97-49.46-2.29-72.65,4.93-4.01,1.24-8.02,2.65-12.03,4.05-10.07,3.57-19.62,6.94-28.96,7.26-12.15.4-24.47-4.33-37.55-9.39-12.92-4.97-26.28-10.11-40.88-10.87-18.05-.88-34.66,4.97-50.75,10.67-14.16,5.01-27.48,9.75-40.8,9.47-12.07-.28-24.27-4.73-37.15-9.51-14.52-5.34-29.48-10.83-45.89-10.83s-31.57,5.58-46.17,10.99c-13.4,4.97-26.2,9.63-38.59,9.63-12.4-.04-24.83-4.65-37.99-9.55-13.92-5.17-28.28-10.47-43.97-10.91-17.45-.48-33.66,5.17-49.26,10.63-14.44,5.05-28.12,9.83-41.52,9.39-11.23-.36-22.5-4.41-34.42-8.67-8.38-3.01-17.05-6.1-26.16-8.06C73.41-4.45,32.69,11,0,23.35l7.9,26.64c31.53-11.91,67.23-25.47,100.89-18.21,7.66,1.65,15.24,4.37,23.31,7.26,13,4.65,26.48,9.47,41.16,9.95,17.61.56,33.9-5.13,49.66-10.63,14.32-5.05,27.92-9.83,41.28-9.43,11.99.36,24.03,4.81,36.79,9.55,14.44,5.38,29.4,10.91,45.69,10.95h.2c16.49,0,31.61-5.62,46.21-11.03,13.32-4.93,25.91-9.59,38.43-9.59s24.95,4.61,38.19,9.47c14.04,5.18,28.56,10.51,44.41,10.87,17.33.32,33.26-5.3,48.66-10.75,14.68-5.21,28.52-10.11,42.16-9.39,11.07.56,22.22,4.85,34.02,9.39,14.56,5.62,29.65,11.43,46.29,10.87,12.8-.44,24.43-4.53,35.66-8.54,3.73-1.32,7.46-2.61,11.19-3.77,19.94-6.18,41.56-7.66,62.5-4.21,7.5,1.2,15.4,4.49,23.79,7.9,11.91,4.93,24.23,9.99,37.39,9.99h1.16c1.49-.04,3.66-.18,5.59-.33,2.78-.21,10.48-1.76,13.15-2.55,12.23-3.62,17.75-5.41,29.45-8.9,21.08-6.3,42.51-12.28,63.28-7.8,7.67,1.64,15.25,4.37,23.31,7.26,13,4.65,26.48,9.47,41.16,9.95,17.61.56,33.9-5.14,49.66-10.63,14.32-5.06,27.92-9.83,41.28-9.43,12,.36,24.03,4.81,36.79,9.55,14.44,5.37,29.4,10.91,45.69,10.95h.2c16.49,0,31.61-5.62,46.21-11.03,13.32-4.94,25.92-9.59,38.43-9.59s24.95,4.61,38.19,9.47c13.5,4.97,27.44,10.1,42.58,10.8v-28.11c-11.33-.74-22.81-4.94-34.88-9.41Z"/>
    </g>
  </g>
</svg>