<?xml version="1.0" encoding="UTF-8"?>
<svg id="Capa_2" xmlns="http://www.w3.org/2000/svg" viewBox="0 0 1258.1864 1287.1401">
  <defs>
    <style>
      .cls-1 {
        fill: #70569b;
      }

      .cls-2 {
        fill: #604593;
        stroke: #47327c;
        stroke-linejoin: round;
        stroke-width: 9px;
      }

      .cls-3 {
        fill: #a486ce;
      }

      .cls-4 {
        fill: #8566b2;
      }
    </style>
  </defs>
  <g id="Capa_1-2" data-name="Capa_1">
    <g>
      <g>
        <g>
          <path class="cls-3" d="M702.5512,1280.1404c-4.7793.0002-9.5049-.6904-14.0469-2.0527-9.2637-2.7529-17.1777-8.1106-22.8711-15.4888-.0186-.0237-.0361-.0474-.0547-.0713-.2969-.3696-.5869-.7578-.8799-1.1787-8.4805-12.478-13.0557-26.552-14.4414-44.3525-.0059-.0715-.0107-.1431-.0137-.2146-.9766-12.7808-.1582-25.9475.6338-38.6816.1328-2.1353.2656-4.271.3896-6.405.8301-13.9233,1.418-28.6611-1.2246-42.4792-.0391-.157-.0771-.3174-.1104-.4788-1.8418-7.5767-3.6123-16.9888-5.4873-26.9509-1.124-5.9729-2.2852-12.147-3.5684-18.5278-.0195-.0823-.0381-.1648-.0547-.248-4.9883-24.8542-12.4375-56.0078-25.8779-76.4753-9.9414-15.1565-21.7715-22.5227-36.1689-22.5227l-.0938.0002c-4.3906.3728-8.8818.562-13.3555.562-5.8271,0-11.8125-.3208-17.79-.9534-.1758-.0154-.3496-.0334-.5186-.0549-.3369-.0342-.6719-.075-1.0088-.1172-26.5391-3.0042-55.1221-12.2268-87.3027-28.1848-.4932-.2378-1.0527-.5171-1.6123-.7974l-.918-.4583c-.1455-.0718-.2891-.1489-.4297-.2307-1.1328-.6619-2.2646-1.2173-3.3643-1.6521-.041-.0151-.0811-.0305-.1211-.0461-2.3105-.9062-4.5459-1.3469-6.833-1.3469-1.9062,0-3.7969.3047-5.7734.9309-.0664.0237-.1328.0464-.1992.0679-9.4326,3.0586-18.3721,12.8542-24.2764,19.9563-3.0996,3.7363-6.0166,7.5493-8.8369,11.2366-2.0479,2.677-3.9863,5.2102-5.8555,7.5305-14.0898,20.5955-26.7041,43.3477-38.9033,65.3516l-2.2363,4.0325c-11.9551,21.5471-22.8828,40.9216-35.5674,59.8335-11.9072,17.7588-23.7676,32.6106-36.2432,45.3818-7.9531,10.9514-18.3271,19.2915-30.0322,24.1365-7.5244,3.1125-15.6289,4.7573-23.4404,4.7573-6.6943.0002-13.0234-1.1497-18.8115-3.4175-13.917-5.4536-22.8164-16.9436-23.8086-30.7356-.0049-.074-.0088-.1482-.0117-.2222-.7227-10.8943,3.2188-22.5554,11.7148-34.6611.1094-.1555.2246-.3064.3457-.4526,8.4062-10.1157,19.2578-17.1885,29.752-24.0281l1.7871-1.1655c16.376-11.4985,42.7852-33.3875,67.918-60.428,25.7227-27.6899,57.6416-68.9138,63.6172-108.0513,2.6426-17.2495-.1426-32.6477-8.2793-45.7852-5.6689-5.8108-9.9863-10.8386-13.9258-15.498l-.8535-1.0129c-4.2832-5.0874-7.377-8.7629-10.2275-10.6511-1.7354-1.1589-3.3701-1.657-5.6533-1.7266-.0283-.0005-.377-.0071-.5254-.0071-6.0459,0-15.8291,2.9407-29.6357,7.6948-.4668.2273-.9248.4653-1.3828.708-.5166.2722-.9893.5188-1.4443.7839-.0371.0217-.0742.0432-.1123.0642-.6807.3796-1.334.769-1.9795,1.1665-3.9902,2.4395-7.9658,5.4639-12.1729,9.2585-.5762.5249-1.1729,1.0769-1.7627,1.6216l-.1846.1711c-.6553.6016-1.2725,1.1997-1.8789,1.7898-.1436.1516-.293.2969-.4463.4351-.75.7168-1.4658,1.4333-2.1641,2.1321-8.4912,8.3296-12.9912,14.9265-16.6064,20.2273-4.7578,6.9746-8.8672,12.9993-18.1875,16.0374-.3115.1052-.6318.2017-.9531.2961l-.2881.0852c-3.7705,1.1125-7.4688,1.6663-11.0586,1.6663-5.7285.0002-11.084-1.3687-15.9199-4.0684-5.6777-3.1353-10.291-7.9541-13.3125-13.9197-6.2109-12.2007-4.4551-26.3247,4.4795-35.9692,4.3975-4.7385,10.251-8.1931,17.4043-10.2769,9.2061-3.6201,15.1016-3.7397,20.3096-3.8452,3.376-.0681,6.2988-.1272,10.1445-1.2378,5.7754-2.1145,12.3828-6.345,18.6309-11.9314,9.6582-8.6404,17.4199-19.5332,21.2998-29.8916.0293-.0823.0596-.1636.0898-.2424,2.292-6.2344,3.127-12.0464,2.4824-17.2795,0,0-.0293-.1987-.0352-.2397-.332-2.5117-1.04-4.9287-2.1025-7.1833-.1182-.2485-.2207-.5039-.3076-.7646-1.9014-5.6848-3.3252-11.8276-4.833-18.3311-6.043-26.0688-11.1104-41.8975-30.4883-41.8975-1.042,0-2.1338.0471-3.248.1401-35.8516,4.585-74.1328,14.5962-110.7139,28.9541-39.748,15.3396-62.4414,49.2712-77.7754,77.1204-5.7549,10.4351-13.3564,12.6252-18.7197,12.6257-8.9375.0007-18.5107-6.3271-25.6094-16.9275-5.2842-7.9001-12.2314-19.9648-11.5752-33.5037.5068-10.5122,5.4629-21.0879,15.1494-32.3306,40.8789-47.3818,110.6865-62.199,161.6592-73.0181,2.4775-.5266,5.0928-1.0605,7.8096-1.615,25.0752-5.1184,59.417-12.1284,71.4824-31.7229,5.0059-8.1289,5.8516-17.9148,2.5869-29.9175-10.0811-37.0449-47.4492-40.75-87.0127-44.6724-22.4248-2.2234-45.6055-4.522-63.9189-13.3687-28.4766-7.9739-41.0361-29.7349-38.7109-47.2517,1.7803-13.4146,13.0186-27.7488,39.2227-27.7488,3.0273,0,6.2246.2002,9.501.5947.2656.032.5283.0791.7881.1411,15.0244,3.5862,27.2139,12.627,39.0029,21.3696,2.8027,2.0779,5.6992,4.2266,8.5391,6.2227,16.8691,11.8813,35.6885,20.9419,55.9395,26.9338.042.0125,2.1172.6707,2.1172.6707,10.584,3.3638,25.0791,7.9707,37.0518,7.9707,12.5225,0,18.6699-4.676,20.5566-15.6362.0674-.3938.1689-.7812.3027-1.1577,4.7861-13.4622,8.3525-24.6584,7.1641-35.9631-3.1074-29.3711-32.0225-50.1482-57.5342-68.4795-4.7158-3.3882-9.1689-6.5886-13.3682-9.7783-6.6865-5.0806-15.0078-11.4031-18.8447-21.2019-2.4512-6.2832-2.166-13.9158.7412-19.927,2.4229-5.0115,6.4795-8.6077,11.4219-10.1262,1.7705-.542,3.624-.8159,5.5166-.8159,5.2227,0,10.6328,2.0684,15.2344,5.824,3.9463,3.22,6.7686,7.0483,9.498,10.7512.5293.7173,1.0566,1.4338,1.5918,2.1423,20.4062,27.0701,54.7881,43.8826,89.7334,43.8826,2.8457,0,5.7178-.1118,8.5361-.3318,1.9131-.1516,3.9004-.354,5.2275-.9985,9.2461-4.4822,12.9482-26.8997,11.8281-46.728-.9805-17.4722-5.8184-36.2407-15.2227-59.0684-13.5674-32.9509-33.4346-66.1411-62.5234-104.4534-1.668-2.1958-3.3467-4.4224-5.04-6.667-12.9297-17.1431-26.2998-34.8696-41.6709-48.4622-1.6816-1.4851-3.3926-2.9248-5.2031-4.449-6.6826-5.625-13.5928-11.4414-18.6182-19.3511-7.2549-11.3794-7.6484-25.3625-1.0498-37.3965,6.584-12.0054,18.9121-19.4631,32.1729-19.4631,1.9268,0,3.8877.1553,5.8262.4614.0342.0054.0684.011.1016.0168,29.4561,5.0967,42.3848,33.6365,52.7734,56.5681l.0996.2207c.0801.1768.1533.3569.2178.5398,6.1211,17.1812,40.3164,67.3718,79.6006,111.9233,47.4482,53.8093,88.7031,84.6707,113.1875,84.6707,5.6572,0,22.8721,0,27.9736-40.1182,1.8291-14.3711-1.8076-29.6167-5.3252-44.3608-1.0488-4.3977-2.1338-8.9453-3.0635-13.4221-.1895-.9114-.4404-2.0266-.7275-3.3025-4.4414-19.7827-7.3848-39.5564,1.0801-50.2021,3.4785-4.376,8.5117-6.7097,14.5547-6.749.0156-.0002.1279-.0005.1436-.0005,4.5,0,8.6768,1.2537,12.5195,2.6084,2.3096.7998,5.0078,1.8425,7.3574,3.9421,2.333,2.0898,3.6689,4.6641,4.4717,6.4189,2.4668,5.4224,3.4766,11.0969,4.0225,14.8945,2.168,15.1868.9033,30.3325-.3193,44.9795-.3867,4.6338-.7871,9.4258-1.0625,14.0796-.7275,12.4692-1.5518,26.6077,2.9297,38.302,3.3125,8.6553,10.4629,13.9192,20.1367,14.8257,4.6621.4338,8.6719.6448,12.2539.6448,22.6367,0,24.79-6.5757,25.7158-40.1284.0049-.1716.0156-.343.0332-.5139.127-1.2539.25-2.6694.3828-4.2063.7178-8.2478,1.6992-19.5439,5.0527-29.2795,5.8682-17.0327,16.335-20.6082,24.083-20.6082,1.0605,0,2.1553.0681,3.2549.2026,10.0723,1.2383,18.7734,8.9846,21.1631,18.8384,2.668,11.0483-2.4307,20.749-6.9287,29.3076-1.9121,3.6394-3.7227,7.0833-4.9121,10.4636-3.9434,17.5764-3.0186,30.634,2.6797,37.7742,3.8184,4.7837,10.0723,7.2095,18.5889,7.2095,19.1455,0,46.5342-12.5051,65.1836-29.75,46.5459-47.3357,62.6162-113.8564,78.1592-178.189,6.3184-26.1562,12.8516-53.198,21.3438-78.4653,3.7139-21.6787,20.749-38.5737,39.0117-38.5737,7.2266,0,17.8789,2.6084,27.5869,15.0332.0557.0708.1094.1423.1621.2153,24.207,33.5649-3.4932,82.1968-21.8232,114.3777-2.4883,4.3689-4.8418,8.5007-6.8525,12.218-5.873,13.2898-13.9805,29.0789-23.3604,47.3438-32.7803,63.8364-77.2158,150.3704-58.8506,198.4792,42.1611-16.7446,53.8115-32.6096,59.1816-44.7046,2.9434-6.6199,4.3086-13.1484,5.7549-20.0603,1.2998-6.2156,2.6436-12.6426,5.2168-18.9749,3.8184-9.4189,9.625-16.8789,18.2715-23.4712.5186-.395,1.0889-.7158,1.6963-.9529,2.7031-1.0566,5.5752-1.5923,8.5361-1.5923,7.6689,0,15.4932,3.665,20.9316,9.8035,5.0762,5.73,7.4053,12.7236,6.5596,19.6926-1.3584,11.3535-9.3643,19.2795-16.4277,26.2729-1.0176,1.0068-2.0283,2.0073-3.0088,3.0088-8.8369,9.0107-15.876,19.5085-23.3281,30.6223-8.4805,12.6475-17.25,25.7253-28.9209,36.4385-.1045.0962-.2119.189-.3223.2786-7.417,6.0195-12.1729,11.5796-14.1348,16.5261-.0234.0576-.0469.115-.0713.1721-2.1357,5.5344-1.0693,10.8992,3.6738,18.5015,1.3096,2.105,2.9395,4.4277,4.9844,7.1074,2.2285,2.9321,4.7041,5.9866,7.3252,9.2202,1.2607,1.5352,2.5635,3.1438,3.8945,4.7979,6.0977,5.5198,13.6855,8.7917,22.5605,9.7285,1.7988.1912,3.666.2878,5.5547.2878,13.21,0,28.3066-4.6438,42.5068-13.0757,7.9014-4.6985,15.042-10.3118,20.667-16.2449,1.5088-1.9126,2.7363-3.7378,3.9258-5.5042,3.0781-4.574,6.2607-9.3015,12.8906-12.9465,4.5752-2.9934,9.7119-4.5742,14.8779-4.5742.2607,0,.5205.0042.7803.012,8.0889.2375,15.4082,4.3389,19.6279,10.9873.126.1841.2432.375.3545.5737,2.9092,4.9062,3.9736,10.7593,3.0781,16.9392-.002.0161-.0049.032-.0068.0479-.0205.1621-.0391.2961-.0615.4304-.3975,2.5403-1.1445,5.1682-2.2129,7.7737-.0605.1489-.127.2959-.1982.4402-3.2266,6.5435-8.0801,8.9033-19.8066,14.6047-1.6562.8052-3.4863,1.6951-5.5127,2.6914-11.8125,5.8-15.7578,8.0645-18.1152,9.4175-2.1631,1.2419-3.2539,1.8428-6.4316,3.0706-9.916,3.8147-16.3438,4.718-22.5596,5.5911-6.082.8547-11.8281,1.6619-21.3154,5.5588-.8193.3979-1.7119.8188-2.6562,1.2646-2.7891,1.3164-5.9502,2.8081-8.9307,4.5125-.0283.0168-.0576.0334-.0859.0498-5.874,3.3586-8.1006,5.9321-8.9336,7.4995-.3018.5691-.4346,1.0393-.4814,1.4302,8.0195,15.5178,26.8965,23.0671,57.6406,23.0671,9.5771,0,20.2178-.7227,32.5205-2.209.1729-.0298.3477-.053.5225-.0701,16.2686-1.9758,32.8096-4.9871,47.4072-7.6448l5.7139-1.0378c15.2764-2.7595,28.7109-5.061,38.416-5.2793,15.3838-1.2939,30.0859-5.394,44.9375-12.5317.0928-.0444.1865-.0872.2812-.1274,9.9531-4.8027,19.7617-10.8586,29.9736-18.5071.043-.0344.0879-.0684.1318-.1021,10.9277-8.2134,21.9141-17.9407,34.5742-30.6118.2969-.2905.5254-.5212.7559-.7534l.4033-.4065c.2119-.2122.4375-.4104.6748-.5935,7.2832-5.6226,14.9639-8.7876,22.8281-9.4075.9258-.074,1.8691-.1116,2.7969-.1116,14.2646,0,26.9932,8.9463,32.4287,22.792,3.5547,9.0447,3.6357,19.4468.2295,29.2881-.9072,2.6721-2.1143,5.3911-3.5752,8.04-.0322.0583-.0654.1162-.0996.1738-11.4863,19.4929-33.9746,28.8076-50.0029,34.1194-17.7432,7.3794-37.7842,14.5-63.0391,22.3977-.0146.0046-.1396.0439-.1865.0581-20.9688,6.554-42.9072,12.8103-64.123,18.8606-11.7314,3.3455-23.8623,6.8049-35.5869,10.2468-.0625.0183-.1289.0371-.1963.0554-28.2422,8.2937-48.9629,15.0051-67.0557,21.7212-.0039.0024-.0088.0049-.0127.0073-5.8848,3.5132-10.9385,6.7815-15.4482,9.9919l-.2275.1658c-8.1406,5.8264-14.1885,11.2595-17.9531,16.1316-.0117.0156-.2568.3259-.3398.4382-2.1475,2.8691-4.499,6.8848-3.7061,9.9885.2939,1.1426,1.0518,2.3076,2.2539,3.4634,3.1221,1.5056,6.4121,2.75,9.793,3.7029,0,0,.1406.0403.1494.0427,5.1406,1.457,10.5244,2.2842,16.0039,2.458.8477.0308,1.667.0454,2.4854.0454,3.6699,0,7.3945-.2969,11.0713-.8818,2.5225-.4026,5.0645-.9548,7.5654-1.6433,5.3418-2.7583,11.3584-4.2126,17.458-4.2126.4199,0,.8369.0066,1.2529.0203.0527.0007.1045.002.1465.0034,8.75.3291,17.0703,3.6997,22.2725,9.02.0264.0261.0527.0527.0781.0793,5.7002,5.8486,7.2578,13.5857,4.167,20.6965-2.1465,4.9216-6.3926,9.3772-12.624,13.2512-.2402.1558-.4932.3-.7402.4214-.1104.0542-.2227.1055-.335.1538-1.4082.6013-2.873,1.0806-4.3574,1.4255-.0957.0239-.501.1223-.6006.144-2.4844.5461-5.1416.8118-8.124.8118-3.6621,0-7.7881-.4121-12.6143-1.2595-.1084-.0178-.2168-.0374-.3213-.0591-5.6807-1.0066-11.6113-2.4739-17.3477-3.8936-3.3467-.8279-6.8057-1.6841-10.1328-2.4282-.0303-.0063-.1748-.0369-.2168-.0464-7.7803-1.7363-13.3213-2.5107-17.9678-2.5107-2.3896,0-4.5205.2209-6.334.656-.0713.0168-.1426.033-.2139.0476-2.5586.6416-4.5029,1.6995-6.0537,3.3018-11.7275,21.998,9.9873,48.2898,23.2441,59.2112.6377.5398,1.2324,1.0159,1.8945,1.5193.3018.2329.5244.4075.749.5669.0322.0229.0645.0464.0967.0701,10.3145,7.5967,29.5098,16.5803,45.0811,23.5581,9.0469,4.0576,18.7119,8.2507,28.9434,12.6902,25.3682,11.0073,54.1201,23.4824,79.6504,36.74.1963.0986.3828.1978.5762.3057,40.8145,21.2549,64.8428,40.0344,75.6006,59.0896.0186.031.0537.0935.0537.0935,7.3047,12.9487,8.2822,25.9338,2.9072,38.5947-.2705.636-.6328,1.2288-1.0771,1.7585-7.1787,8.5735-15.7461,12.9214-25.4619,12.9226-23.3887.0032-49.7383-25.7698-80.249-55.6125l-.9082-.8877c-23.5391-23.0137-50.2197-49.0977-79.4434-68.0317-28.0713-18.1934-54.2061-27.0369-79.8984-27.0369-3.752,0-7.5479.1938-11.2822.5759-.0586.0061-.1162.011-.1748.0156-8.4033.6479-8.9072.6868-11.7021,6.5874-.5713,1.2043-2.085,4.3992-25.4883,38.7266-6.7236,9.8613-12.7559,18.6257-15.7539,22.9724-2.1318,3.0923-3.9033,5.6531-5.1445,7.4409-.1045.1499-.2061.2969-.3066.4404.4336,1.9685,1.0518,3.9988,1.8486,6.0642,2.6523,6.8237,7.3906,14.3711,14.4795,23.0574.0186.0232.0381.0464.0576.0696,4.3994,5.3801,9.0371,10.4436,13.5215,15.3406l2.3818,2.6042c.1826.2007.3545.4119.5127.6323,5.8271,8.1089,12.9014,15.2625,21.7324,23.5083.0566.0525.1113.1057.166.1599,1.5391,1.4392,3.084,2.8696,4.626,4.2974,10.1406,9.3887,20.627,19.0972,28.5098,30.6287.0205.03.041.0601.0615.0903,6.873,10.0803,11.0166,20.4446,12.665,31.6841.0107.0718.0195.1438.0283.2161.0361.2969.0566.604.0566.8899,0,.1521-.0029.3313-.0146.5359-.0596,4.168-.5645,8.1538-1.499,11.8501,0,0-.0527.198-.082.2959-2.2197,8.4314-6.7617,15.2275-13.1504,19.6741-.0723.053-.2188.1565-.2188.1565-5.2373,3.5728-11.54,5.4612-18.2256,5.4612s-13.5098-1.8782-19.7461-5.4319c-9.1436-5.2002-16.5449-13.8057-20.8467-24.2393-3.1787-7.0911-8.6611-15.3801-14.4639-24.1536-6.9121-10.4504-14.0596-21.2568-17.7734-30.9944-5.333-13.9978-26.2188-37.8633-40.2725-43.0945-1.4043-.5195-2.6631-.7747-3.834-.7747-3.4912,0-6.7139,2.3608-12.1104,6.5337-2.418,1.8699-5.1553,3.9863-8.2725,6.0088-7.4834,5.2297-15.8262,10.1138-25.501,14.929-6.4043,3.1929-13.3076,6.3301-22.3809,10.1697-4.1602,1.7666-8.3447,3.4978-12.5264,5.2273-5.6777,2.3491-11.542,4.7751-17.2285,7.25-.6133.4993-1.2471,1.3628-1.8135,2.4785-1.7061,3.3398-3.7139,10.4502-3.6299,25.4182v.0994c.165,29.5483,8.79,79.8054,23.0723,134.3987,7.4727,28.5371,15.6367,54.4231,20.3164,64.4119.0664.1418.1279.2859.1846.4319l.0908.2319c2.7959,7.1887,5.6865,14.6199,7.6602,22.3491.0176.0632.0518.1897.0518.1897,3.2588,12.8804,3.0654,23.7825-.5889,33.3293-1.4961,3.9514-3.5596,7.6055-6.123,10.8374-4.6387,5.9045-11.0029,10.4773-18.3838,13.198-5.2217,1.9417-10.7939,2.9297-16.5449,2.9297Z"/>
          <path class="cls-1" d="M890.2641,14c7.5142,0,15.2812,3.6528,22.0713,12.3428,24.6802,34.2202-12.77,88.8101-29.29,119.4199-27.71,62.8701-112.5698,194.4502-79.6597,257.6401.0298.0498.0596.1099.0898.1699,45.46-16.9697,61.8599-34.1699,69.23-50.77,6.0698-13.6499,6.04-26.8896,11.0601-39.2397,2.9097-7.1802,7.5298-14.0601,16.0298-20.54,1.9473-.7607,3.9692-1.1118,5.9883-1.1118,10.9849,0,21.9102,10.3828,20.542,21.6519-1.2402,10.3701-10.1899,17.77-17.4902,25.23-19.79,20.1797-31.1499,47.6797-51.98,66.7998-8.7598,7.1099-13.8701,13.4302-16.23,19.3799-.0298.0601-.0498.1104-.0698.1704-3.3301,8.5596-1,16.3896,4.2397,24.7896,1.5503,2.4902,3.3604,5.0303,5.3604,7.6504,2.2798,3,4.7998,6.1099,7.4497,9.3799,1.3799,1.6802,2.7803,3.4102,4.21,5.1899,7.7002,7.1499,17,10.8398,26.9502,11.8901,2.0713.2202,4.1714.3267,6.2896.3267,15.4717,0,31.9629-5.6743,46.0806-14.0566,8.6099-5.1201,16.3398-11.2402,22.4199-17.71.0098-.02.0298-.0503.0498-.0703,5.7803-7.2798,7.48-12.8696,15.0503-16.9297,3.6455-2.4468,7.5547-3.5791,11.2686-3.5791.1875,0,.3745.0029.561.0088,5.79.1699,11.0503,3.0703,14.04,7.9102.0303.0298.0503.0698.0703.1099,2.0098,3.3301,2.9497,7.5801,2.2397,12.48-.02.1201-.0298.2402-.0498.3604-.3101,1.98-.8901,4.0698-1.7803,6.2397-2.4897,5.0498-6.4897,6.4199-22.1299,14.1099-21.73,10.6704-17.6899,9.8101-23.98,12.2402-19.0801,7.3398-24.1699,3.0098-44.2202,11.29-3.2998,1.6099-7.8799,3.6201-12.23,6.1099-.02,0-.0298.0103-.0498.0303-4.8799,2.7896-9.46,6.1899-11.6401,10.2896-1.0601,2-1.5498,4.1704-1.2197,6.5103,10.1724,21.6587,35.3091,28.2734,64.5596,28.2734,10.833,0,22.2295-.9072,33.6401-2.2935.0303-.0103.0703-.02.1104-.02,18.6597-2.2598,37.3496-5.8101,53.6597-8.7598,15.1699-2.7402,28.27-4.9702,37.3604-5.1704h.1299c17.1797-1.4097,32.98-6.1699,47.6499-13.2197.04-.0103.0801-.0303.1201-.0503,11.0801-5.3296,21.5098-11.9497,31.4297-19.3896q.0103,0,.0103-.0103c12.52-9.4097,24.21-20.1401,35.3198-31.2598.3901-.3804.77-.77,1.1602-1.1602,6.4897-5.0098,13.0098-7.4897,19.1001-7.9702.7554-.0601,1.5059-.0898,2.2466-.0898,11.7876-.001,21.6514,7.4927,25.9131,18.3501,2.79,7.1001,3.1802,15.6299.1304,24.4399-.7803,2.2998-1.8101,4.6299-3.0903,6.9502-9.6699,16.4097-28.3398,25.1396-46.4199,31.1099-19.4697,8.1099-40.6797,15.3999-62.6797,22.2798-.04.0103-.0903.0303-.1304.04-32.5298,10.1699-66.7798,19.4399-99.6499,29.0903-.0298.0098-.0698.02-.1099.0298-23.8398,7-46.9502,14.21-68.1699,22.1099-.02.0103-.0303.0103-.0503.02-.1797.1104-.3599.21-.5498.3301-3.9199,2.3398-9.8101,5.9502-15.9199,10.3003-.0703.0498-.1499.1099-.2202.1597-7.1401,5.1104-14.5498,11.23-19.4399,17.5601-.1499.1899-.2998.3799-.4399.5698-3.9902,5.3301-6.1499,10.7803-4.8501,15.8701.6802,2.6401,2.29,5.1899,5.0698,7.5801.0103,0,.0103.0103.02.0103,3.79,1.8999,7.7603,3.4297,11.8403,4.5796.0498.0103.0898.0303.1396.04,5.75,1.6304,11.7104,2.5303,17.6904,2.7202.9028.0327,1.8066.0488,2.7104.0488,4.0796,0,8.1582-.3306,12.1694-.9688,3.0698-.4902,6.1099-1.1699,9.0801-2.02,4.8076-2.6226,9.9614-3.749,14.8418-3.749.3677,0,.7339.0063,1.0981.019h.04c7.1797.27,13.6797,2.96,17.5601,6.9497.0098.0103.02.0303.04.04,3.4897,3.5801,4.8599,8.1899,2.7598,13.02-1.4702,3.3701-4.6401,6.8403-9.9702,10.1401-.02.0098-.0396.0298-.0596.04-1.0303.4399-2.1201.7998-3.2603,1.0601-.1499.04-.2998.0698-.4502.1099-2.0498.4507-4.269.6484-6.6216.6484-3.5454,0-7.3945-.4492-11.4282-1.1582-.0498,0-.1001-.02-.1602-.0303-8.6597-1.52-18.1597-4.2397-27.3296-6.29-.0601-.0098-.1304-.0298-.1904-.04-6.8486-1.5288-13.5088-2.6787-19.4927-2.6787-2.8232,0-5.4961.2559-7.9673.8486-.02,0-.04.0103-.0601.0103-4.0596.98-7.5698,2.8799-10.3096,6.0498-13.8604,24.5103,6.3696,53.75,24.5298,68.71.6602.5601,1.3599,1.1201,2.1099,1.6899.3101.2402.6201.4805.9302.7002,9.8301,7.2402,26.4199,15.3701,46.3701,24.3101,32.1299,14.4102,72.9697,30.9399,108.2798,49.2798.1401.0703.27.1401.4102.2202,33.1997,17.2798,61.46,36.1699,72.8701,56.4199.0098.0103.02.0303.0298.0503,5.8999,10.46,7.29,21.2798,2.5601,32.4199-6.0698,7.2485-12.7725,10.4165-20.0967,10.4165-20.3315,0-45.4761-24.3936-75.3535-53.6167-24.0898-23.5498-51.25-50.23-81.4399-69.79-25.7129-16.6646-53.6245-28.1611-83.7046-28.1621-3.9624-.0005-7.9575.1992-11.9951.6123-9.3403.7197-13.0703,1.2397-17.4902,10.5698-2.9199,6.1602-47.6802,70.9399-47.77,70.9399.48,3.4399,1.4199,6.8501,2.7202,10.2202,3.3896,8.7197,9.1997,17.1401,15.5996,24.98.0103.02.0303.04.0503.0601,5.3398,6.5298,11.0698,12.6597,16.1499,18.23,6.5103,9.0601,14.4902,16.9297,22.6401,24.54.0298.04.0601.0698.0898.0898,11.6299,10.8799,23.6099,21.25,32.21,33.8301,0,.0098.0103.02.02.0298,5.71,8.3604,9.9302,17.7002,11.5601,28.8101,0,.0303.0103.0601.0103.0898,0,.0703,0,.1401-.0103.2104-.04,3.8599-.5,7.3398-1.29,10.46,0,.0098-.0098.0098-.0098.02-1.8901,7.3599-5.6899,12.6499-10.52,15.98-.02.0298-.0503.0498-.0801.0601-4.1787,2.8506-9.124,4.2437-14.2803,4.2437-5.4062,0-11.0439-1.5298-16.2798-4.5137-7.3501-4.1802-13.9102-11.23-17.8799-20.9204-7.3403-16.4497-25.71-38.0498-32.1304-54.8799-5.9697-15.6699-28.1699-41.1299-44.3696-47.1602-2.2754-.8418-4.3433-1.2144-6.2764-1.2144-8.6504,0-14.5913,7.4653-24.2939,13.7344-7.8696,5.5103-16.1699,10.2202-24.71,14.4702-7.1997,3.5898-14.5698,6.8501-21.9897,9.9902-10.1499,4.3096-20.3999,8.3896-30.4502,12.7798-1.8501,1.1602-3.3901,3.0098-4.6299,5.4502-3.1499,6.1699-4.46,16.1597-4.3901,28.6299-.0098.02,0,.04,0,.0601.2002,35.6597,11.6201,91.52,23.3003,136.1699,7.9399,30.3198,16,55.4697,20.75,65.6099,2.75,7.0698,5.6396,14.4702,7.5298,21.9199,0,.0103.0103.02.0103.0303,2.4897,9.8398,3.2397,19.7598-.3403,29.1099-1.2798,3.3799-3,6.3799-5.0698,8.9902-4.0303,5.1299-9.3799,8.7896-15.3203,10.98-4.4766,1.6641-9.2876,2.4971-14.124,2.4971-4.0547,0-8.1274-.5854-12.0356-1.7573-7.4702-2.2197-14.3403-6.5801-19.3403-13.0601v-.0098c-.2598-.3101-.5-.6304-.73-.96-8.6099-12.6704-12.0898-26.5103-13.21-40.9004v-.0396c-1.1196-14.4204.1504-29.4004,1.02-44.3101.9004-15.1001,1.3901-30.1201-1.3799-44.4204-.04-.1499-.0801-.3096-.1099-.4697-2.8799-11.8101-5.5503-28.0698-9.0703-45.5498,0-.0103,0-.02-.0098-.0303-5.52-27.5-13.1401-58-26.8901-78.9399-10.1309-15.4453-23.5996-25.6807-42.0225-25.6812-.0894,0-.1782.0005-.2676.001h-.1299c-4.3604.3794-8.7119.5615-13.0503.5615-5.731,0-11.4395-.3179-17.1196-.9214-.1201-.0098-.25-.02-.3701-.04-.3198-.0298-.6401-.0698-.96-.1099-29.5898-3.3501-58.3599-14.27-85.0601-27.5103-.8501-.4097-1.6899-.8398-2.54-1.2598-1.4897-.8701-2.9697-1.5898-4.4297-2.1602-.0103,0-.02-.0098-.0303-.0098-3.2104-1.2588-6.3418-1.8301-9.3896-1.8301-2.7622,0-5.4561.4688-8.0801,1.3198-.02,0-.04.0103-.0503.02-10.27,3.3301-19.4697,12.48-27.5,22.1401-5.5498,6.6899-10.54,13.6299-14.9297,19.0601-15.1904,22.1699-28.3301,46.1797-41.6401,70.1699-11.1802,20.1499-22.4902,40.29-35.2603,59.3301-10.6597,15.8999-22.3296,31.0298-35.7998,44.7598-7.77,10.8604-17.4102,18.0801-27.3398,22.1899-6.9497,2.875-14.0488,4.2256-20.7622,4.2256-5.8262,0-11.3608-1.0166-16.2578-2.9355-10.8203-4.2397-18.5303-12.8896-19.3804-24.7197v-.04c-.6099-8.5898,2.4004-18.8501,10.4502-30.3203,8.21-9.8799,19.3198-16.8398,30.0801-23.8696,17.2798-12.1201,43.9697-34.3999,69.1201-61.46,30.9897-33.3604,59.6396-73.9702,65.4097-111.7603,2.77-18.0801.29-35.52-9.6699-51.1997-5.98-6.0903-10.4399-11.3203-14.1099-15.6602-5.1001-6.0503-8.6499-10.3901-12.5601-12.98-2.7397-1.8301-5.6499-2.79-9.3999-2.8901-.0068,0-.0137-.0044-.02-.0044-.0034,0-.0068.001-.0103.0044-.2021-.0049-.4072-.0073-.6147-.0073-6.8198,0-16.3691,2.7144-32.2949,8.2075-.6802.3198-1.3403.6597-2,1.0098-.5703.3003-1.1401.6001-1.6899.9199-.77.4302-1.5103.8701-2.2402,1.3203-4.9399,3.02-9.3198,6.5298-13.1899,10.02-.6802.6196-1.3501,1.2397-2.0103,1.8496-.7397.6802-1.4497,1.3701-2.1499,2.0503-.0498.0601-.1001.1099-.1499.1499-.8301.79-1.6201,1.5801-2.3901,2.3501-19.9297,19.5498-19.2197,30.4102-32.0498,34.5698-.3501.1201-.7202.2202-1.0801.3301-3.1626.9326-6.1772,1.3604-9.0127,1.3604-4.7056,0-8.9194-1.1772-12.5073-3.1802-4.6001-2.54-8.1899-6.4502-10.48-10.9702-4.5-8.8398-4.0498-20.04,3.3701-28.0498,3.3599-3.6201,8.1401-6.5903,14.5298-8.3999,14.4102-5.75,19.1001-1.73,30.3701-5.0601,6.8198-2.4502,14.2202-7.2002,21.1201-13.3701,9.8701-8.8301,18.6797-20.5801,23.21-32.71.0098-.0503.04-.1001.0601-.1602,2.5601-6.9399,3.7197-14.0098,2.8701-20.73-.0103-.0601-.02-.1299-.0303-.1899-.4199-3.1802-1.3101-6.2798-2.71-9.25-8.3125-24.8516-8.3633-65.0044-41.9614-65.0083-1.2817,0-2.6074.0586-3.9888.1782-37.96,4.8398-76.8096,15.3799-112.5298,29.3999-38.6599,14.9204-62.3198,45.7002-81.3499,80.2603-3.5503,6.438-7.9961,9.002-12.5886,9.002-7.1917,0-14.7444-6.2852-19.7915-13.8223-5.8599-8.7598-10.9099-18.75-10.3999-29.2695.51-10.5703,6.55-20.0801,13.46-28.1001,38.53-44.6602,102.7798-59.0601,157.8101-70.7402,36.3696-7.73,102.1396-16.9399,87.1797-71.9399-17.6099-64.71-106.6499-38.79-155.1997-62.7798-43.5586-11.77-47.5991-61.4248-1.9739-61.4248,2.7141,0,5.5959.1748,8.6638.5444,17.0898,4.0801,30.7598,16.4004,45.1401,26.5103,17.6196,12.4102,37.3296,21.8101,57.98,27.9199,11.2041,3.5444,27.2988,8.9292,41.1548,8.9292,13.3511,0,24.6235-4.9951,27.4551-21.4492,4.48-12.6001,8.9302-25.73,7.5298-39.04-4.0498-38.2798-46.3398-62.3701-73.6299-83.1001-6.6201-5.0298-13.5298-10.4399-16.5601-18.1797-3.02-7.7402-.2397-18.3701,7.7002-20.8101,1.1348-.3472,2.2969-.5073,3.4609-.5073,3.8638,0,7.7583,1.7573,10.8091,4.2471,3.9697,3.2402,6.8398,7.6001,9.9297,11.6904,22.2354,29.4956,58.6079,46.6626,95.3188,46.6626,3.0293,0,6.0552-.1167,9.0815-.353,2.6499-.21,5.3496-.52,7.7397-1.6797,15.4302-7.48,16.5601-39.2603,15.7603-53.4199-1.1899-21.1802-7.71-41.8501-15.7402-61.3403-15.6997-38.1299-38.5698-73.29-63.4199-106.02-14.4399-19.0098-29.6802-40.25-47.6499-56.1396-7.96-7.0303-16.8501-13.3403-22.5503-22.3101-12.7578-20.0127,2.5825-46.1055,25.2148-46.1055,1.5469,0,3.1274.1216,4.7354.3755,25.8901,4.48,37.8999,31.1699,47.6899,52.7798,12.9014,36.2173,136.4897,201.2451,199.3823,201.2451,17.7866,0,30.7158-13.1948,34.9175-46.2349,2.5601-20.1201-4.3999-40.4502-8.48-60.0903-2.3398-11.23-13.3999-51.6899,8.1001-51.8301.0322,0,.0649-.0005.0972-.0005,3.4873,0,6.9331,1.0615,10.1929,2.2109,1.79.6196,3.6099,1.2998,5.02,2.5596,1.2402,1.1104,2.0801,2.6001,2.77,4.1104,1.8599,4.0898,2.8198,8.5298,3.46,12.98,2.73,19.1299-.3101,38.5-1.4399,57.6499-.79,13.52-1.5601,28.3301,3.3799,41.2197,4.3403,11.3403,13.96,18.1602,26.02,19.29,4.7983.4463,9.083.6753,12.9087.6753,29.7642,0,31.7988-13.8564,32.7114-46.9351,1.4253-14.0327,2.3262-47.8008,22.5547-47.8008.7744,0,1.5732.0493,2.4053.1509,7.1602.8799,13.5103,6.5298,15.21,13.54,3.04,12.5898-7.6099,23.9399-11.7798,36.1997-9.0337,39.7202,6.0322,53.9048,28.0103,53.9048,22.2046,0,51.4648-14.4766,70.0596-31.7246,67.4399-68.4702,72.0303-172.8398,101.4399-259.98,2.9346-18.4092,17.0479-33.2729,32.1987-33.2729M890.2636,0c-11.1392,0-22.0664,4.9814-30.7686,14.0264-7.6885,7.9912-13.0024,18.5381-15.0464,29.8164-8.5063,25.4106-15.0317,52.4194-21.3447,78.5513-15.3052,63.3521-31.1294,128.856-76.228,174.8062-17.2036,15.8516-43.0757,27.7773-60.3101,27.7773-6.2803,0-10.6938-1.5396-13.1167-4.5757-4.167-5.2212-4.6748-16.6611-1.4141-31.4565,1.0317-2.8037,2.6572-5.897,4.3711-9.1582,4.8223-9.1753,10.8232-20.5942,7.5381-34.2002-3.0645-12.6392-14.2119-22.5645-27.1113-24.1494-1.3882-.1699-2.7695-.2554-4.1128-.2554-8.2065,0-23.1079,3.2905-30.6997,25.3301-3.6348,10.5508-4.6606,22.3433-5.4092,30.9531-.1304,1.499-.25,2.8794-.374,4.1025-.0347.3423-.0571.6855-.0664,1.0288-.3491,12.6489-.8945,24.4087-3.6963,29.311-.627,1.0972-2.2925,4.0107-15.0205,4.0107-3.3179,0-7.2241-.207-11.6113-.6157-4.8589-.4551-11.2827-2.6216-14.2422-10.3545-3.9458-10.2949-3.1665-23.6318-2.479-35.3989.2695-4.562.6479-9.1011,1.0493-13.9067,1.2544-15.0327,2.5518-30.5771.2744-46.5371-.6099-4.2388-1.7451-10.5728-4.5757-16.7979-1.0728-2.3486-2.8687-5.7842-6.1758-8.7451-3.584-3.2017-7.5693-4.5942-9.7363-5.3442-4.4204-1.5576-9.2739-2.9956-14.8149-2.9956h-.1841c-8.1211.0532-15.2197,3.3892-19.9937,9.3931-10.8096,13.5967-6.9224,36.083-2.4302,56.0928.2773,1.2344.5205,2.314.7051,3.1997.9492,4.5693,2.0459,9.168,3.1069,13.6147,3.5269,14.7842,6.8579,28.7485,5.1904,41.853-2.1021,16.5317-6.2622,24.6206-9.3813,28.4951-3.1079,3.8599-6.5913,5.5068-11.6479,5.5068-6.4121,0-21.0811-3.0405-47.2803-23.4053-18.1421-14.1016-39.1167-34.4668-60.6572-58.895-42.3486-48.0264-73.1528-95.3149-78.2568-109.6426-.1299-.3657-.2754-.7256-.4355-1.0796l-.0996-.2197c-10.4863-23.1475-24.8477-54.8486-57.9561-60.5776-.0674-.0117-.1348-.0229-.2021-.0337-2.2993-.3628-4.6274-.5474-6.9199-.5474-15.8169,0-30.4966,8.8506-38.3101,23.0977-7.8477,14.3086-7.3652,30.957,1.29,44.5342,5.5923,8.7998,13.2505,15.2466,20.0073,20.9341,1.7783,1.4966,3.458,2.9106,5.0806,4.3438,14.8364,13.1187,27.9897,30.5581,40.7104,47.4233,1.6987,2.2524,3.3843,4.4868,5.0586,6.6909,28.7109,37.8149,48.2925,70.5073,61.6226,102.8818,9.0986,22.0825,13.7715,40.1289,14.708,56.7959.1846,3.27.6182,14.7764-1.5488,25.7065-1.9165,9.6689-4.8892,13.5376-6.2646,14.291-.4111.1235-1.3569.2446-2.8145.3604-2.6201.2046-5.3091.3091-7.9756.3091-32.7925,0-65.0332-15.7451-84.1396-41.0903-.5269-.6973-1.0386-1.3921-1.5513-2.0874-2.8477-3.8633-6.0752-8.2422-10.7046-12.021-5.8491-4.7729-12.8315-7.4009-19.6621-7.4009-2.5879,0-5.1313.377-7.5596,1.1201-6.8379,2.1016-12.4019,6.9922-15.6821,13.7759-3.7817,7.8232-4.1416,17.3594-.9619,25.5098,4.5601,11.647,14.1392,18.9243,21.1328,24.2383,4.2734,3.2461,8.7632,6.4722,13.5166,9.8877,24.3193,17.4741,51.8828,37.2798,54.6606,63.5381,1.0347,9.8325-2.3135,20.2632-6.7983,32.877-.2681.7534-.4707,1.5278-.6064,2.3159-.9575,5.5659-2.5713,9.8232-13.6577,9.8232-10.8862,0-24.7832-4.417-34.9302-7.6421l-2.002-.6353c-.0835-.0264-.167-.0518-.2505-.0767-19.52-5.7754-37.6514-14.5034-53.8906-25.9409-2.7778-1.9531-5.5127-3.9814-8.4082-6.1284-12.3535-9.1616-25.1274-18.6343-41.5425-22.5532-.52-.124-1.0469-.2188-1.5776-.2822-3.5532-.4277-7.0312-.645-10.3372-.645-12.6526,0-23.2285,3.0601-31.4336,9.0942-8.1792,6.0156-13.4099,14.7993-14.7285,24.7339-1.5229,11.4746,2.1094,23.4028,10.2278,33.5879,7.9006,9.9111,19.2659,17.2065,32.9336,21.1543,19.3257,9.1655,42.9009,11.5029,65.7168,13.7646,19.0786,1.8916,38.8066,3.8477,53.7153,9.8369,14.8687,5.9731,23.2676,15.1357,27.2334,29.709,2.7285,10.0322,2.1421,18.0166-1.7935,24.4082-10.4756,17.0122-44.4438,23.9463-66.9209,28.5342-2.7358.5586-5.3701,1.0962-7.8672,1.627-24.1768,5.1318-57.2939,12.1606-87.1938,23.625-33.9182,13.0044-59.5322,29.9043-78.3057,51.6646-10.7507,12.4775-16.2583,24.4375-16.8435,36.5703-.7568,15.606,6.9126,29.0068,12.7471,37.7285,8.4036,12.5493,20.1511,20.0381,31.428,20.0381,5.9351,0,17.0549-2.1099,24.8481-16.2412,22.2278-40.3677,44.3965-62.4844,74.1309-73.96.0249-.0098.0498-.019.0742-.0288,36-14.1299,73.6445-23.9849,108.8877-28.5063.8691-.0688,1.7134-.104,2.5137-.1035,13.0171.0015,17.3276,9.1099,23.6733,36.48,1.478,6.376,3.0068,12.9692,5.0137,18.9688.1743.521.3789,1.0312.6128,1.5283.7554,1.6016,1.2578,3.3218,1.4946,5.1138.0132.1011.0278.2021.0435.3027.4736,4.0557-.2236,8.6826-2.0732,13.7598-.0664.1685-.1289.3369-.1885.5054-3.5186,9.2812-10.5586,19.0933-19.3467,26.9551-5.5142,4.9312-11.2275,8.6426-16.1382,10.4888-2.8428.7915-4.9658.8345-8.1104.8979-5.4595.1104-12.2266.2476-22.4346,4.2139-8.2466,2.4526-15.061,6.5342-20.2637,12.1396-10.9595,11.8306-13.1484,29.0684-5.5854,43.9248,3.6372,7.1797,9.2197,13.0112,16.1328,16.8438h0c5.8906,3.2881,12.3945,4.9556,19.3311,4.9556,4.2603,0,8.625-.6499,12.9727-1.9316.0444-.0137.0889-.0269.1333-.0405l.2134-.063c.4028-.1182.8047-.2402,1.1953-.3716,11.5576-3.7827,16.7422-11.3833,21.7563-18.7344,3.6216-5.3096,7.7271-11.3281,15.6753-19.125.0322-.0312.064-.063.0957-.0947.6577-.6577,1.3364-1.3364,2.0005-1.9727.2158-.1978.4258-.4023.6304-.6133.5747-.5581,1.1128-1.0776,1.6353-1.5576l.2271-.21c.5679-.5244,1.1431-1.0566,1.7266-1.5879,3.8657-3.4829,7.4883-6.2417,11.0732-8.4331.0156-.0098.0312-.019.0464-.0283.6255-.3857,1.188-.7178,1.7197-1.0151.0708-.0391.1411-.0791.2109-.1201.29-.1685.7119-.3906,1.1587-.626.0132-.0068.0415-.022.0542-.0288.3042-.1611.5659-.2974.8008-.416,10.9331-3.7588,21.6528-7.168,26.9321-7.168.0908,0,.1802.001.2686.0034.0312.0005.0625.0015.0938.002,1.168.0405,1.4795.2485,1.9067.5342.0151.0098.0303.02.0454.0298,2.0073,1.3296,5.1211,5.0283,8.7271,9.311l.8589,1.02c3.9077,4.6211,8.166,9.5825,13.7212,15.3145,7.0327,11.6787,9.2979,24.9116,6.9243,40.4023-5.7075,37.3828-36.7725,77.3799-61.8281,104.3521-24.7075,26.5835-50.6187,48.0786-66.7104,59.3921l-1.6792,1.0952c-10.9326,7.1245-22.2373,14.4917-31.3208,25.4229-.2427.2925-.4736.5942-.6919.9053-9.4253,13.4297-13.7891,26.5815-12.9731,39.0942.0049.106.0112.2109.0186.312,1.1895,16.5503,11.7451,30.2896,28.2368,36.7515,6.604,2.5879,13.7925,3.9004,21.3652,3.9004,8.8457,0,17.6318-1.7798,26.1143-5.2891,12.7534-5.2783,24.0444-14.2822,32.7168-26.0747,12.6509-13,24.6636-28.063,36.6992-46.0156,12.8359-19.1387,23.8408-38.647,35.8735-60.3335l2.2271-4.0161c12.0801-21.7896,24.5684-44.3154,38.4165-64.5889,1.8682-2.3262,3.7759-4.8203,5.7891-7.4521,2.7798-3.6333,5.6543-7.3906,8.6704-11.0269,3.0723-3.6953,12.4478-14.9741,21.0435-17.7612.0815-.0264.1621-.0537.2427-.0811,1.2495-.3877,2.4189-.5762,3.5693-.5762,1.3965,0,2.7964.2827,4.2788.8638.0625.0249.1255.0488.1885.0728.7456.3003,1.5259.688,2.3223,1.1528.2808.1641.5669.3179.8584.4619.2939.1455.5864.292.8789.4385.5698.2852,1.1387.5698,1.7119.8467,32.8638,16.2896,62.1587,25.7217,89.5562,28.8359.3267.0405.6489.0791.9692.1128.2544.0317.4844.0547.6929.0728,6.1943.6528,12.3979.9839,18.4424.9839,4.5693,0,9.1572-.1895,13.647-.5625,7.5625.0356,18.8345,2.1582,30.1167,19.3589,12.7832,19.4673,20.0059,49.7817,24.8706,74.0171.0215.1074.0439.2144.0684.3208,1.269,6.3149,2.4224,12.4438,3.5386,18.3745,1.8828,10.0054,3.6621,19.4619,5.5366,27.1948.0327.1504.0649.292.0962.4224,2.4541,12.979,1.8809,27.1533,1.0811,40.5688-.1255,2.147-.2578,4.2773-.3901,6.4067-.8047,12.9473-1.6367,26.334-.6318,39.5728.0054.0986.0117.1958.019.29,1.4639,18.8032,6.563,34.4004,15.5884,47.6826.0327.0479.0654.0957.0986.1431.3652.5229.7285,1.0107,1.1025,1.4785.0083.0107.0161.021.0244.0317,6.5967,8.5498,15.7383,14.749,26.4365,17.9277,5.1606,1.5479,10.563,2.3374,16.0234,2.3374,6.5854,0,12.979-1.1353,19.0024-3.3745,8.5464-3.1514,15.9644-8.4854,21.4204-15.415,3.0073-3.7949,5.4238-8.0728,7.1821-12.7144,4.1733-10.9302,4.4424-23.1992.8218-37.5073h-.001c-.02-.0791-.0405-.1582-.062-.2373-2.0786-8.1279-5.0444-15.7524-7.9136-23.1274l-.0884-.2266c-.1133-.292-.2368-.5801-.3696-.8633-3.7583-8.0234-11.3643-30.6826-19.8843-63.2183-14.1357-54.0352-22.6748-103.627-22.8438-132.6685v-.0933c-.082-14.6509,1.9287-20.3281,2.8311-22.1294,5.1357-2.2148,10.4102-4.397,15.5322-6.5156,4.1177-1.7036,8.3755-3.4653,12.5786-5.2495,9.1973-3.8926,16.2227-7.0859,22.7651-10.3481,9.938-4.9453,18.5415-9.981,26.2837-15.3848,3.3149-2.1577,6.1421-4.3433,8.6426-6.2769,2.7681-2.1406,6.5596-5.0718,7.8306-5.0718.1465,0,.5771.0332,1.4189.3447,11.959,4.4517,31.457,26.7109,36.144,39.0137,3.9927,10.4658,11.3569,21.5996,18.4785,32.3672,5.3672,8.1152,10.9155,16.5039,13.873,23.062,4.8989,11.8218,13.3511,21.6025,23.8203,27.5566,7.2798,4.1484,15.3062,6.3438,23.2012,6.3438,8.0142,0,15.6035-2.2603,21.9663-6.54.2344-.1533.4639-.313.6885-.4795,7.6465-5.4004,13.0645-13.4883,15.6948-23.4331.0396-.1377.0767-.2759.1118-.4146h.0005c1.0591-4.1821,1.6343-8.6694,1.7119-13.3433.0137-.2988.0166-.5552.0166-.7632,0-.5317-.0327-1.0825-.0947-1.6235-.0181-.1665-.0396-.3325-.064-.4985-1.8071-12.3193-6.3291-23.6484-13.8223-34.6323-.0171-.0254-.0347-.0508-.0518-.0762-8.3281-12.1821-19.1084-22.1626-29.5337-31.8145-1.5044-1.3931-3.0112-2.7881-4.5127-4.1919-.0845-.0825-.1694-.1646-.2559-.2451-8.5283-7.9639-15.334-14.8335-20.8262-22.4771-.3169-.4409-.6592-.8633-1.0249-1.2646-.7871-.8628-1.5898-1.7397-2.4043-2.6289-4.4155-4.8213-8.9814-9.8071-13.252-15.0298-.0352-.0425-.0698-.085-.1055-.127-6.5879-8.0801-10.9497-14.9902-13.3335-21.1226-.2832-.7344-.5396-1.4634-.7681-2.1846,1.0273-1.4839,2.2476-3.2495,3.6152-5.2334,3.002-4.3525,9.0425-13.1289,15.7749-23.0034,23.7109-34.7788,25.2192-37.9604,26.0293-39.6694.499-1.0527.8779-1.7212,1.1313-2.126,1.2456-.2095,3.4731-.3813,4.7842-.4824.1167-.0088.2329-.0195.3496-.0312,3.501-.3584,7.0571-.54,10.5693-.5396,24.3008.001,49.1904,8.4761,76.0913,25.9106,28.6367,18.5542,55.0503,44.3774,78.355,67.1606l.9121.8921c14.2637,13.9512,29.0156,28.3799,42.4585,38.8149,16.5156,12.8198,30.0776,18.7905,42.6816,18.7905,11.8848,0,22.2573-5.1909,30.8301-15.4282.8877-1.0596,1.6128-2.2446,2.1533-3.5166,6.1646-14.5195,5.0615-29.9585-3.188-44.6543-.0674-.1226-.1362-.2441-.207-.3643-11.4868-20.2217-36.3789-39.8242-78.2949-61.6611-.2275-.126-.4497-.2437-.6807-.3613-25.7407-13.3652-54.6021-25.8877-80.0684-36.9375-10.2139-4.4316-19.8608-8.6177-28.8687-12.6572-15.2559-6.8364-34.0166-15.6055-43.7969-22.8086-.0679-.0498-.1357-.0991-.2046-.1479-.1489-.1069-.2983-.2266-.4497-.3438-.0337-.0264-.0747-.0576-.1089-.084-.5557-.4219-1.0537-.8203-1.5229-1.2183-.0513-.0439-.1025-.0869-.1548-.1294-13.3174-10.9707-29.6953-32.8521-22.0396-49.4614.4497-.3013,1.0752-.5923,2.0054-.834.0801-.0181.1597-.0361.2393-.0552,1.2783-.3071,2.8604-.4624,4.7007-.4624,5.332,0,11.9375,1.3369,16.4424,2.3423.0557.0127.1108.0244.1665.0361.0532.0117.1099.0239.1709.0366,3.2124.7207,6.5874,1.5562,9.853,2.3643,5.8311,1.4429,11.8574,2.9341,17.6841,3.9702.2437.0498.4863.0933.729.1299,5.1177.8867,9.5547,1.3179,13.5552,1.3179,3.4937,0,6.6426-.3188,9.627-.9746.1416-.0312.2822-.0645.4224-.1001.1108-.0259.2163-.0513.3193-.0767,1.8613-.436,3.6978-1.0386,5.4619-1.7925.292-.1245.5796-.2588.8618-.4028.4165-.2124.8306-.4512,1.2314-.7095,7.4194-4.6265,12.5571-10.1255,15.27-16.3447,4.2729-9.8257,2.189-20.4331-5.5669-28.3901-.0327-.0337-.0659-.0674-.0991-.1006-6.5195-6.6597-16.3535-10.7061-26.9995-11.1069-.0898-.0034-.1792-.0059-.2686-.0073-.4639-.0142-.9287-.0215-1.396-.0215-6.9507,0-13.8174,1.6001-19.9717,4.6406-2.0391.5381-4.105.9756-6.1587,1.3037-3.3057.5259-6.6602.7935-9.9609.7935-.7339,0-1.4761-.0137-2.2056-.0396-.02-.001-.04-.0015-.0605-.0024-4.8833-.1553-9.6748-.8867-14.2422-2.1753-.1191-.0356-.2378-.0693-.3564-.1016-2.3145-.6582-4.5791-1.4702-6.7617-2.4233.2744-.7139.8813-1.9375,2.2134-3.7168.019-.0259.0386-.0518.0576-.0776.0425-.0557.1025-.1309.1626-.2061.0298-.0386.0615-.0791.0913-.1172,2.3003-2.978,7.0322-7.9521,16.5093-14.7344.0747-.0542.1538-.1113.2324-.1685l-.0757.0532c4.2505-3.0259,8.9805-6.0933,14.4766-9.3887,17.7729-6.5752,38.1782-13.1748,65.8975-21.3164.123-.0337.2432-.0679.3623-.104,11.6763-3.4277,23.7676-6.8755,35.4619-10.2104,21.2368-6.0562,43.1948-12.3179,64.2275-18.8916.0747-.0225.1499-.0459.2256-.0698.0073-.0024.0151-.0044.0225-.0068,25.3477-7.9268,45.5127-15.0879,63.397-22.5151,17.085-5.6826,40.9653-15.7124,53.5854-37.1284.0669-.1138.1323-.2285.1958-.3442,1.6475-2.9854,3.0151-6.0605,4.0654-9.1421,3.9492-11.4146,3.8311-23.5356-.333-34.1318-6.4922-16.5396-21.7778-27.23-38.9409-27.23-1.1167,0-2.2485.0449-3.3647.1343-9.2275.728-18.1611,4.3765-26.5386,10.8438-.4731.3652-.9224.7603-1.3447,1.1826l-.4331.4355c-.2007.2021-.3999.4043-.603.6021-.043.042-.0859.0845-.1284.127-12.4238,12.4346-23.1729,21.9556-33.8271,29.9629-.0605.0459-.1206.0913-.1802.1377-9.7915,7.3286-19.168,13.1245-28.6509,17.7095-.1279.0566-.2554.1157-.3818.1763-14.0059,6.7305-27.8428,10.6084-42.2886,11.8481-10.189.2593-23.8218,2.5923-39.2764,5.3838-1.8857.3408-3.7998.6895-5.7422,1.043-14.4736,2.6348-30.8687,5.6191-46.8984,7.5693-.249.0259-.4966.0581-.7437.0967-11.96,1.4409-22.2803,2.1411-31.5371,2.1411-33.248,0-44.8154-9.3647-49.3926-15.8179.9399-.7764,2.4023-1.8213,4.6406-3.1011.0566-.0322.1128-.0649.1689-.0981,2.7202-1.5488,5.7144-2.9619,8.3599-4.2104.8921-.4214,1.7393-.8213,2.5249-1.2012,8.5547-3.4937,13.6025-4.2026,19.4355-5.022,6.2974-.8848,13.4351-1.8877,24.0894-5.9863,3.6597-1.4141,5.0586-2.1851,7.4136-3.5366,2.1338-1.2246,6.106-3.5049,17.7109-9.2036,2.022-.9941,3.8428-1.8794,5.4897-2.6802,12.4766-6.0654,18.7393-9.1104,23.0259-17.8057.1421-.2876.2739-.5801.3955-.877,1.2769-3.1118,2.1714-6.27,2.6597-9.3877.0283-.1787.0532-.3574.0762-.5361,1.1216-7.7661-.252-15.1841-3.9741-21.4736-.1611-.2817-.3315-.5571-.5103-.8257-5.4717-8.5854-14.9014-13.8789-25.313-14.1846-.3071-.0093-.6387-.0146-.9717-.0146-6.4492,0-12.8252,1.9233-18.4854,5.5698-7.9536,4.438-11.7407,10.0635-15.0913,15.0405-1.1128,1.6528-2.168,3.2202-3.4287,4.8394-5.1519,5.3838-11.6865,10.4937-18.939,14.8066-13.1279,7.7944-26.9546,12.0894-38.9248,12.0894-1.6426,0-3.2603-.0835-4.8081-.248-7.1855-.7583-13.3071-3.3179-18.2207-7.6108-1.3096-1.626-2.4849-3.0728-3.5747-4.3999-2.5752-3.1777-5.0078-6.1802-7.1494-8.9985-1.9263-2.5239-3.4321-4.668-4.6216-6.5786-4.4097-7.0693-3.9854-9.9341-3.1147-12.2178.0249-.0605.0493-.1211.0732-.1816,1.0405-2.624,3.9741-7.1255,12.0391-13.6714.2207-.1792.4351-.3647.644-.5566,12.2871-11.2778,21.2935-24.709,30.0029-37.6978,7.2661-10.8364,14.1294-21.0718,22.5059-29.6133.938-.958,1.9097-1.9199,2.9385-2.939,7.4883-7.4126,16.8076-16.6382,18.457-30.4307,1.0723-8.8306-1.9419-18.0078-8.2725-25.1533-6.7461-7.6147-16.5293-12.1611-26.1704-12.1611-3.8354,0-7.5645.6968-11.083,2.0718-1.2144.4746-2.356,1.1162-3.3931,1.9062-9.5547,7.2842-16.2656,15.9248-20.5171,26.416-2.8062,6.9038-4.2163,13.6455-5.5801,20.1655-1.3672,6.5356-2.6582,12.709-5.2974,18.6436-4.1875,9.4321-13.8052,23.208-48.3008,38.1162-4.1177-18.2261-.6406-43.6509,10.4014-75.8408,12.6704-36.939,32.604-75.7563,50.1914-110.0049,9.3682-18.2437,17.4751-34.0308,23.4194-47.4517,1.9478-3.5898,4.2344-7.6045,6.6494-11.8442,19.2163-33.7373,48.2559-84.7212,21.4165-121.9355-.105-.1455-.2129-.2891-.3232-.4307-8.9307-11.4287-20.6865-17.7227-33.1035-17.7227h0Z"/>
        </g>
        <path class="cls-2" d="M784.1813,666.0124c-8.4581,71.9919-59.4762,139.1686-128.9613,159.8355-23.4982,6.9972-49.0527,8.7285-72.5147,1.587-41.6224-12.6599-73.2-54.3906-66.708-95.2917,1.8034-11.3795,6.5285-22.6868,14.8241-33.2908,13.9044-17.7996,35.491-29.125,46.6179-48.7639,8.0612-14.283,9.5942-31.1809,12.0288-47.4115.0178-.036.0178-.0721.0178-.1082,3.2643-21.5146,8.8189-43.498,22.3805-60.5222,19.8374-24.8689,55.1658-34.8777,86.1124-27.5199,18.3044,4.3463,34.8775,14.1568,48.3852,27.3035,9.3237,9.0891,17.1863,19.7653,23.1376,31.3251,14.5716,28.2593,18.3946,61.2616,14.6797,92.8571Z"/>
      </g>
      <circle class="cls-4" cx="386.7634" cy="639.8079" r="27.3512"/>
      <circle class="cls-4" cx="520.4147" cy="453.7754" r="24.2088"/>
      <circle class="cls-4" cx="360.0985" cy="827.5694" r="18.1988"/>
      <circle class="cls-4" cx="406.6089" cy="487.8981" r="6.4305"/>
      <circle class="cls-4" cx="152.5083" cy="549.4447" r="6.4305"/>
      <circle class="cls-4" cx="858.7433" cy="649.984" r="6.4305"/>
      <circle class="cls-4" cx="656.7597" cy="1057.778" r="6.4305"/>
      <circle class="cls-4" cx="726.4626" cy="420.8898" r="14.6473"/>
      <circle class="cls-4" cx="1047.8127" cy="563.9079" r="14.6473"/>
      <circle class="cls-4" cx="538.2875" cy="217.1592" r="9.8546"/>
      <circle class="cls-4" cx="262.0735" cy="140.5694" r="14.6473"/>
      <circle class="cls-4" cx="863.327" cy="147.3449" r="9.4363"/>
      <circle class="cls-4" cx="711.8154" cy="902.2127" r="9.0784"/>
      <circle class="cls-4" cx="895.7298" cy="989.5359" r="9.0784"/>
      <circle class="cls-4" cx="604.2958" cy="849.845" r="9.0784"/>
      <circle class="cls-4" cx="227.9517" cy="1147.1558" r="9.0784"/>
      <circle class="cls-4" cx="798.746" cy="816.4316" r="11.1378"/>
      <circle class="cls-4" cx="847.4277" cy="522.3188" r="19.6024"/>
      <circle class="cls-4" cx="1107.2909" cy="860.9828" r="11.1378"/>
      <circle class="cls-4" cx="448.4801" cy="860.9828" r="11.1378"/>
      <circle class="cls-4" cx="787.6082" cy="501.6687" r="11.1378"/>
      <circle class="cls-4" cx="476.7369" cy="493.0876" r="8.5811"/>
      <circle class="cls-4" cx="819.183" cy="581.2087" r="8.5811"/>
      <circle class="cls-4" cx="468.1558" cy="688.051" r="8.5811"/>
      <circle class="cls-4" cx="122.7692" cy="718.4458" r="8.5811"/>
      <circle class="cls-4" cx="888.3655" cy="601.655" r="7.3643"/>
      <circle class="cls-4" cx="604.2958" cy="369.8372" r="7.3643"/>
      <circle class="cls-4" cx="428.0076" cy="777.6145" r="11.1378"/>
      <circle class="cls-4" cx="296.327" cy="605.95" r="11.1378"/>
      <circle class="cls-4" cx="638.457" cy="950.311" r="11.1378"/>
      <circle class="cls-4" cx="55.4648" cy="777.6145" r="11.1378"/>
      <circle class="cls-4" cx="638.457" cy="464.7608" r="11.1378"/>
      <circle class="cls-4" cx="407.7721" cy="409.752" r="16.5074"/>
      <circle class="cls-4" cx="697.2573" cy="481.4676" r="5.5689"/>
      <circle class="cls-4" cx="400.1784" cy="539.0133" r="5.5689"/>
      <circle class="cls-4" cx="558.2184" cy="890.2561" r="5.5689"/>
      <circle class="cls-4" cx="497.5174" cy="382.4608" r="11.1378"/>
      <circle class="cls-4" cx="339.6321" cy="493.0876" r="20.4664"/>
      <circle class="cls-4" cx="406.6089" cy="319.8262" r="11.1378"/>
      <circle class="cls-4" cx="519.793" cy="594.2907" r="23.2871"/>
      <circle class="cls-4" cx="838.9631" cy="738.2259" r="19.7801"/>
      <circle class="cls-4" cx="359.4122" cy="728.2947" r="19.7801"/>
      <circle class="cls-4" cx="702.8262" cy="361.0687" r="19.7801"/>
      <circle class="cls-4" cx="519.793" cy="858.9234" r="22.2756"/>
      <circle class="cls-4" cx="888.3655" cy="55.6504" r="22.2756"/>
      <circle class="cls-4" cx="702.8262" cy="1209.4186" r="22.2756"/>
    </g>
  </g>
</svg>