<?xml version="1.0" encoding="UTF-8"?>
<svg id="Capa_2" xmlns="http://www.w3.org/2000/svg" viewBox="0 0 2558.1362 2326.6786">
  <defs>
    <style>
      .cls-1 {
        fill: #44911c;
      }

      .cls-2 {
        fill: #639648;
      }

      .cls-3 {
        fill: #367710;
      }

      .cls-4 {
        fill: #94c67d;
      }

      .cls-5 {
        fill: #70a856;
      }
    </style>
  </defs>
  <g id="Capa_1-2" data-name="Capa_1">
    <g>
      <g>
        <path class="cls-4" d="M2519.6202,1363.9914c-20.1401,14.53-45.9902,18.02-70.7197,20.3599-235.5303,22.2201-476.9402-21.5599-689.6704-125.0798-31.5898-15.3801-63.5498-32.3301-98.5198-35.7101-34.97-3.37-74.3901,10.6901-89.1602,42.5699-14.23,30.7001-1.97,66.77,12.6201,97.3,76.8201,160.76,220.0701,288.5,388.54,346.49,106.3999,36.63,222.5999,46.9,321.24,101.0701,31.02,17.0399,61.29,40.1399,73.5898,73.33,12.29,33.1901-.9399,77.5499-34.6099,88.49-36.6602,11.9-71.9302-18.24-102.6802-41.49-110.5398-83.59-257.8098-96.61-385.1399-151.35-121.8699-52.4-226.01-145.1101-292.1599-260.1001-17.8801-31.09-33.9202-64.7799-62.1501-86.9099-28.22-22.14-73.6099-27.77-97.72-1.23-13,14.3099-17.04,34.3799-20.5,53.3899-21.3899,117.7001-39.99,238.02-23.5801,356.51,16.4102,118.49,72.7202,236.65,173,301.8701,36.9402,24.03,86.0901,62.76,62.6702,100.0798-18.1799,28.9902-62.71,20.3501-92.6902,3.8501-103.9897-57.23-173.46-164.95-205.7798-279.1699-32.3101-114.2101-31.1401-235.2101-21.3201-353.5,5.3401-64.2001-1.53-150.0901-64.51-163.6101-60.6299-13.01-102.0901,56.25-135.3799,108.5601-67.28,105.71-175.1401,177.46-266.4302,263.3-91.28,85.8499-171.6499,202.4399-155.23,326.6699,5.3999,40.8,16.4199,91.48,3.4399,125.98-5.2998,14.0801-14.5898,25.46-29.8999,32.3799-27.51,12.4302-61.55-1.5098-79.98-25.4099-18.4399-23.9099-24.1602-55.22-25.6602-85.3699-7.2197-145.54,70.8-282.8101,167.5701-391.76,2.3801-2.6801,4.77-5.3501,7.1799-8,95.3201-105.3601,208.9702-193.2101,302.7002-300.0701,30.97-35.3101,58-94.37,21.0999-123.4299-18.8398-14.8301-45.5-12.49-69.28-9.41-178.8799,23.1899-370.5398,52.1899-501.8198,175.9-74.98,70.6599-128.8901,170.9399-225.4601,206.8599-44.91,16.7001-114.91-2.8999-107.41-50.23,5.2001-32.7999,43.72-46.1199,74.2101-59.2799,126.4799-54.64,190.7098-200.4301,310.36-268.7301,122.1699-69.74,287.6101-50.3999,392.55-144.0898,16.0999-14.3801,31.1599-34.53,26.74-55.6602-8.6702-41.3999-63.3801-31.6099-110.3301-40.2099-122.6199-22.4901-241.6799-61.71-368.03-72.57-102.73-8.84-208.5599,39-269.8099,121.96-29.9,40.51-68.91,95.99-115.7101,77.41-48.26-19.16-35.0599-92.6899-3.3999-133.85,84.49-109.82,231.4399-155.42,370-154.68,138.55.73,273.3701,40.86,408.3101,72.34,21.8999,5.11,46.7798,9.5,65.3799-3.14,33.8601-23.02,16.9199-76-6.03-109.92-60.0598-88.74-139.6099-164.21-231.3899-219.52-85.5-51.53-180.8701-85.49-264.78-139.57-61.3201-39.52-117.9399-92.93-148.3101-160.32-10.5599-23.43-28.3099-62.17-15.54-87.36,13.8301-27.29,53.6802-39.76,79.27-21.73,28.8801,20.35,38.72,57.72,54.6902,89.24,57.8499,114.17,197.3499,153.29,309.8799,214.26,77.5601,42.01,146.99,98.96,203.3701,166.78,23.1299,27.82,44.8098,58.11,75.6099,77.08,30.79,18.98,74.27,23.36,101.1001-.9,37.79-34.18,20.3599-95.21,6.1599-144.14-25.45-87.67-30.6101-180.08-53.6199-268.43-23.0103-88.34-68.8901-177.23-149.6101-219.8701-31.46-16.61-67.6799-25.99-93.4299-50.54s-33.6501-73.32-3.7202-92.56c18.2402-11.73,42.2603-7.52,62.8501-.68,113.01,37.53,194.8301,139.1,240.97,248.88,46.1401,109.78,62.4602,229.29,85.5,346.12,9.8,49.68,27.4202,106.9,75.1401,123.83,39.2,13.9,83.3599-8.23,107.6699-38.08,25.6301-31.48,36.8899-71.98,46.3401-111.45,21.1799-88.48,36.54-178.35,45.96-268.84,6.9199-66.55,10.79-134.2401,31.95-197.71,21.1501-63.48,62.6899-123.74,124.26-149.93,38.1401-16.22,97.3501-5.67,99.47,35.72,1.79,34.79-37.6399,54.22-66.74,73.3699-76.23,50.18-106.6399,147.14-116.1499,237.91-9.51,90.77-3.9399,184.37-32.1001,271.18-11.8899,36.66-16.8201,82.3-23.1599,120.31-6.3501,38.02-11.3401,71.13,19.26,94.55,38.0498,29.12,95.6599,14.47,131.1499-17.72,35.48-32.2,55.4199-77.51,79.1699-119.12,103.6201-181.52,299.9902-306.72,508.28-324.08,24.8301-2.07,51.3501-2.33,72.76,10.41,21.4199,12.73,34.1899,42.91,20.26,63.57-6.76,10.02-18.1299,15.83-29.3098,20.44-93.8101,38.6-205.2002,20.61-295.4102,67.02-58.52,30.1-100.79,83.7-140.6899,136.03-58.54,76.76-116.0701,154.29-172.5901,232.54-12.0701,16.71-24.4399,34.52-31.26,53.68-3.48,9.77-5.51,19.9-5.3101,30.42.3501,18.95,7.48,35.38,18.7202,49.7,21.1199,26.95,56.79,46.44,89.25,61.19,237.3298,107.84,495.46,214.08,751.1899,163.4899,27.0898-5.3599,60.6299-9.8499,80.9697,5.0901,4.2202,3.09,7.8701,7.02,10.7803,11.95,12.6299,21.4.8501,50.54-19.29,65.0801Z"/>
        <path class="cls-2" d="M1607.786,14.0001c30.7983,0,60.562,13.8538,62.0542,42.9814,1.79,34.79-37.6401,54.22-66.7402,73.37-76.23,50.1801-106.6396,147.14-116.1499,237.91-9.5098,90.77-3.9399,184.37-32.1001,271.1801-11.8896,36.6599-16.8198,82.2999-23.1597,120.3099-6.3501,38.02-11.3403,71.13,19.2598,94.55,14.2573,10.911,31.2642,15.6777,48.8213,15.6777,29.2993,0,60.1367-13.2692,82.3286-33.3978,35.48-32.2,55.4199-77.51,79.1699-119.12,103.6201-181.5199,299.9902-306.72,508.2803-324.08,7.3926-.6163,14.9375-1.0723,22.4502-1.0723,17.7207,0,35.2744,2.5353,50.3096,11.4822,21.4199,12.73,34.1899,42.91,20.2603,63.57-6.7603,10.02-18.1299,15.83-29.3101,20.44-93.8101,38.6-205.2002,20.61-295.4102,67.02-58.52,30.1001-100.79,83.7001-140.6899,136.03-58.54,76.76-116.0698,154.29-172.5898,232.54-12.0703,16.71-24.4399,34.52-31.2603,53.6799-3.48,9.77-5.5098,19.9-5.3101,30.42.3501,18.9501,7.48,35.38,18.7202,49.7001,21.1201,26.95,56.79,46.4399,89.25,61.1899,195.3799,88.7784,404.8628,176.4741,615.4922,176.4741,45.2241,0,90.4956-4.042,135.6978-12.9841,13.3433-2.6401,28.252-5.0691,42.3765-5.0692,14.5522,0,28.272,2.578,38.5933,10.1592,4.2202,3.0901,7.8701,7.02,10.7803,11.9501,12.6299,21.4.8501,50.5399-19.29,65.08-20.1401,14.53-45.9902,18.02-70.7197,20.36-39.9644,3.7703-80.1128,5.6407-120.2466,5.6407-196.397,0-392.7891-44.7657-569.4238-130.7207-31.5898-15.38-63.5498-32.33-98.5195-35.71-3.3765-.3254-6.7959-.4884-10.2295-.4884-32.1245-.0004-65.5869,14.2566-78.9307,43.0583-14.23,30.7-1.9702,66.77,12.6201,97.3,76.8198,160.76,220.0698,288.5,388.54,346.49,106.3999,36.6299,222.5996,46.8999,321.2397,101.0701,31.02,17.0398,61.29,40.1399,73.5898,73.3298,12.29,33.1899-.9399,77.55-34.6099,88.49-5.7036,1.8516-11.3784,2.6858-17.0029,2.6858-30.5273,0-59.7109-24.543-85.6772-44.1758-110.5396-83.5898-257.8096-96.6099-385.1396-151.3499-121.8701-52.4001-226.0103-145.1101-292.1602-260.1001-17.8799-31.09-33.9199-64.78-62.1499-86.91-15.0918-11.8402-35.0996-18.9586-54.1313-18.96-16.5562-.0011-32.3726,5.3833-43.5889,17.73-13,14.3101-17.04,34.38-20.5,53.39-21.3896,117.7-39.9897,238.02-23.5801,356.51,16.4102,118.49,72.7202,236.6499,173,301.8701,36.9404,24.0298,86.0903,62.7598,62.6704,100.0798-8.6187,13.7432-23.1641,19.0308-39.2686,19.0308-17.8667,0-37.6538-6.5027-53.4219-15.1807-103.9897-57.23-173.46-164.95-205.7798-279.1702-32.3101-114.21-31.1401-235.21-21.3198-353.5,5.3398-64.1998-1.5303-150.0898-64.5103-163.6099-5.0439-1.0823-9.9648-1.5953-14.7495-1.5959-52.7319-.0078-90.1099,62.1976-120.6304,110.156-67.2798,105.71-175.1401,177.46-266.4302,263.2998-91.2798,85.8501-171.6499,202.4402-155.23,326.6702,5.3999,40.8,16.4199,91.48,3.4399,125.98-5.2998,14.0801-14.5898,25.46-29.8999,32.3799-7.0435,3.1826-14.5195,4.6372-22.0479,4.6372-21.874,0-44.2212-12.2666-57.9321-30.0471-18.4399-23.9099-24.1602-55.22-25.6602-85.3701-7.2197-145.5398,70.8003-282.8098,167.5703-391.7598,2.3799-2.6802,4.77-5.3501,7.1797-8,95.3203-105.3601,208.9702-193.2102,302.7002-300.0701,30.9702-35.3101,58-94.37,21.1001-123.4301-11.4863-9.0415-25.8833-11.7008-40.7588-11.7013-9.5229-.0004-19.2397,1.0891-28.5215,2.2913-178.8799,23.1901-370.5396,52.1901-501.8198,175.9-74.98,70.66-128.8901,170.9401-225.46,206.86-10.6274,3.9519-22.6602,5.8711-34.7378,5.8711-38.9619,0-78.3975-19.9709-72.6724-56.1011,5.2002-32.8,43.7202-46.1199,74.2104-59.28,126.4795-54.6399,190.7095-200.4299,310.3599-268.73,122.1699-69.74,287.6099-50.4,392.5498-144.09,16.1001-14.38,31.1602-34.53,26.7402-55.66-8.6704-41.4-63.3804-31.61-110.3301-40.21-122.6201-22.49-241.6802-61.71-368.0303-72.5701-8.1323-.6997-16.2876-1.0443-24.4351-1.0444-94.7744-.0011-188.9731,46.6118-245.3745,123.0045-25.8125,34.9714-58.4209,81.1052-96.9624,81.1052-6.104,0-12.3496-1.155-18.748-3.6953-48.2598-19.1599-35.0596-92.6899-3.3999-133.85,83.8149-108.9419,229.104-154.6888,366.6846-154.6888,1.1089,0,2.2075.0029,3.3154.0089,138.5503.73,273.3701,40.86,408.3101,72.34,11.3281,2.6433,23.4575,5.0944,35.0991,5.0944,10.8638,0,21.3022-2.1327,30.2808-8.2344,33.8604-23.02,16.9199-76-6.0298-109.92-60.0601-88.74-139.6099-164.21-231.3901-219.5199-85.5-51.53-180.8701-85.49-264.7798-139.5701-61.3203-39.52-117.9399-92.93-148.3101-160.32-10.5601-23.43-28.3101-62.17-15.54-87.36,9.3726-18.4937,30.6992-30.1834,51.4346-30.1834,9.8623,0,19.5869,2.6418,27.8354,8.4534,28.8799,20.35,38.7197,57.72,54.6899,89.24,57.8501,114.17,197.3501,153.29,309.8799,214.2599,77.5601,42.01,146.9902,98.9601,203.3701,166.78,23.1299,27.8201,44.8101,58.11,75.6099,77.0801,16.0098,9.8688,35.4536,15.7911,54.2002,15.7911,17.3076,0,34.0205-5.0454,46.8999-16.6912,37.79-34.1801,20.3599-95.2101,6.1602-144.14-25.4502-87.67-30.6104-180.08-53.6201-268.43-23.0103-88.34-68.8901-177.23-149.6099-219.87-31.46-16.61-67.6802-25.9901-93.4302-50.54s-33.6499-73.32-3.7202-92.56c8.2808-5.3252,17.7534-7.3653,27.5547-7.3653,11.7886,0,24.0527,2.9505,35.2954,6.6853,113.0103,37.53,194.8301,139.1,240.9702,248.88,46.1401,109.78,62.46,229.29,85.5,346.1201,9.7998,49.6799,27.4199,106.8999,75.1401,123.83,8.2402,2.9219,16.7061,4.2524,25.1543,4.2524,31.7407,0,63.3154-18.7571,82.5156-42.3324,25.6299-31.4801,36.8896-71.9801,46.3398-111.4501,21.1802-88.48,36.54-178.35,45.96-268.84,6.9199-66.55,10.79-134.24,31.9502-197.71,21.1499-63.48,62.6899-123.74,124.2598-149.93,11.2998-4.8054,24.4502-7.2614,37.416-7.2614M1607.786,0c-15.1738,0-30.0068,2.8972-42.895,8.3779-31.332,13.3279-59.1895,35.2621-82.8003,65.1943-20.6274,26.1503-37.6626,58.3764-49.2622,93.1939-18.4551,55.3539-24.1191,113.8793-29.5972,170.4782-.9604,9.9189-1.9531,20.1761-2.9961,30.2093-9.3296,89.6186-24.6885,179.4607-45.6504,267.0286-8.9824,37.5165-19.7466,76.5946-43.5811,105.87-18.3901,22.5803-46.5186,37.1718-71.6597,37.1718-7.1343,0-14.0234-1.1599-20.4746-3.4475-18.1489-6.4385-32.5454-20.4464-44.0093-42.8224-11.8984-23.2225-18.2969-51.3701-22.0747-70.5219-4.2661-21.6321-8.3774-43.7661-12.3525-65.171-17.6133-94.8333-35.8267-192.895-73.9766-283.6643-24.8701-59.1732-58.7642-112.9768-98.0176-155.5939-44.7769-48.614-95.731-82.645-151.4463-101.1479-14.9873-4.9786-27.9761-7.3989-39.708-7.3989-13.4136,0-25.2319,3.2264-35.127,9.5904-14.5508,9.3532-23.5508,24.8342-25.3398,43.5889-2.3989,25.1486,8.1875,52.9703,26.9717,70.8789,19.3042,18.4043,43.2036,28.7604,66.3159,38.7753,10.6113,4.5983,20.6338,8.9411,30.2388,14.0121,83.9854,44.3654,123.9019,139.2407,142.5981,211.0186,10.5977,40.6914,17.5151,83.2778,24.2056,124.4621,7.7358,47.6211,15.7349,96.8636,29.5176,144.3418,13.103,45.1525,29.4116,101.3472-2.1064,129.8542-11.9507,10.8054-26.9941,13.074-37.5088,13.074-15.6436,0-32.7207-4.9968-46.8535-13.7086-23.8882-14.7128-41.9819-37.0043-61.1382-60.605-3.603-4.4386-7.3286-9.0282-11.0532-13.5078-28.6279-34.4375-60.8027-66.3811-95.6294-94.9436-34.8359-28.5696-72.4639-53.8696-111.8379-75.1964-26.6099-14.4171-55.0317-27.7811-82.5171-40.705-88.1831-41.4636-179.3682-84.339-221.5425-167.5726-3.7686-7.4382-7.1646-15.1818-10.7593-23.3803-11.5137-26.2557-23.4189-53.4054-48.355-70.9761-10.2227-7.2025-22.6362-11.0093-35.8994-11.0093-26.7588,0-52.4478,15.2125-63.9224,37.8546-7.1689,14.1404-7.8838,31.6854-2.186,53.6357,4.3442,16.7354,11.7046,33.0618,17.0791,44.9828l.3711.8228c14.9751,33.2297,36.9141,65.0404,65.207,94.5479,24.7974,25.8622,54.4995,50.015,88.2827,71.7875,45.5859,29.38,94.9282,53.1233,142.6465,76.0847,40.9326,19.6968,83.2593,40.064,122.4907,63.7083,89.772,54.0996,168.2749,128.5753,227.0225,215.3763,11.6846,17.2697,19.7222,36.6447,22.0503,53.155,2.4741,17.5475-1.6636,30.1104-12.2974,37.34-5.7544,3.9108-13.0854,5.8121-22.4097,5.8121-10.2427,0-21.3936-2.2725-31.918-4.7281-23.833-5.5597-48.1069-11.4993-71.5815-17.2433-110.2144-26.9674-224.1807-54.8531-339.8359-55.4624-1.1304-.0065-2.2544-.0093-3.3892-.0093-73.8848,0-146.02,12.9518-208.6079,37.4546-33.9956,13.309-65.2471,30.0297-92.8872,49.6975-29.5049,20.995-55.1714,45.5557-76.2856,73-11.7402,15.2635-21.1284,34.4403-26.436,53.9993-5.8164,21.4343-6.4219,41.7343-1.7505,58.705,5.6201,20.4178,18.5933,35.1815,37.5166,42.6947,7.8276,3.1075,15.873,4.6832,23.9141,4.6832,44.2861,0,78.2476-46.1003,105.5366-83.1426l2.6899-3.6489c53.4282-72.365,143.1343-117.3196,234.1104-117.3185,7.7617.0004,15.5791.3346,23.2354.9932,78.7407,6.7678,156.2866,25.0879,231.2793,42.8051,44.1792,10.4375,89.8628,21.23,135.4248,29.5868,12.793,2.3431,25.7607,3.3674,38.3013,4.3582,39.3271,3.1068,56.9678,6.4058,60.8521,24.951,3.4312,16.4028-12.5386,33.5736-22.3638,42.349-56.1875,50.1639-130.5752,66.3396-209.3311,83.465-61.6562,13.4075-125.4126,27.2715-180.833,58.9078-57.5352,32.8429-102.5688,82.8586-146.1201,131.2272-50.3613,55.9325-97.9297,108.7629-162.8516,136.8093-2.6235,1.1326-5.2769,2.2532-8.0869,3.4397-30.4907,12.8762-68.4375,28.9016-74.3984,66.5002-2.5615,16.1658,1.6426,31.2185,12.1582,43.5317,7.9238,9.2783,19.4414,16.8296,33.3076,21.8379,12.54,4.5295,26.7295,6.9236,41.0337,6.9236,14.0444,0,27.7437-2.334,39.6172-6.749,68.894-25.6257,116.855-82.0286,163.2368-136.5737,21.3184-25.0713,43.3628-50.9958,66.9453-73.2197,123.0742-115.9768,296.5474-146.6046,494.0186-172.2047,8.7236-1.1299,18-2.1757,26.7207-2.1753,14.3584.0007,24.5586,2.7657,32.1001,8.7021,7.3706,5.8049,11.3931,13.38,12.2935,23.1564,2.2939,24.9069-16.0562,58.1472-35.2593,80.0415-48.3354,55.1061-103.1821,106.1909-156.2227,155.5942-49.2817,45.9021-100.2417,93.3672-146.3345,144.3147-2.1753,2.3918-4.5596,5.0488-7.2661,8.0964-54.0322,60.8328-96.0923,123.2646-125.0117,185.5601-34.0493,73.3469-49.5508,146.0837-46.0732,216.1895,2.0396,40.9858,11.1133,70.6084,28.5571,93.2266,16.8838,21.895,43.3301,35.4971,69.0181,35.4971,9.8213,0,19.1787-1.9778,27.8125-5.8789,17.6743-7.989,30.2026-21.5156,37.2378-40.2061,12.167-32.3386,5.8257-74.967.231-112.5779-1.0483-7.0479-2.0386-13.7051-2.8945-20.1711-16.7773-126.9348,72.8228-241.1624,150.9424-314.635,26.3623-24.7881,54.7192-48.8997,82.1421-72.2175,67.7031-57.5674,137.7119-117.0952,186.5073-193.7634,1.1729-1.8428,2.3555-3.7065,3.5488-5.5864,27.7363-43.7032,62.2554-98.0929,105.2686-98.0868,3.8696.0007,7.8447.4329,11.8154,1.2847,23.084,4.9553,38.5737,22.2795,47.3516,52.962,9.0361,31.5847,8.3286,69.5293,6.1436,95.7991-5.7866,69.7002-7.4307,126.9067-5.1748,180.0342,2.7939,65.783,11.6172,124.1499,26.9746,178.4373,17.064,60.3035,44.0625,117.4495,78.0776,165.261,37.5396,52.7646,82.7656,93.9336,134.4238,122.3633,19.5332,10.75,41.4648,16.9153,60.1719,16.9153,22.9492,0,40.6299-8.8496,51.1294-25.5928,9.5337-15.1929,15.6001-39.8894-9.6582-71.2444-12.271-15.2324-30.9941-30.9365-57.2388-48.009-88.2246-57.3792-149.0078-163.8291-166.7666-292.0552-16.1626-116.7026,2.7402-237.9255,23.4868-352.0862,3.4453-18.9296,7.1099-35.4956,17.0884-46.4792,9.8696-10.8646,23.5156-13.1447,33.2246-13.1439,15.7368.0011,32.7432,5.9729,45.4907,15.9746,21.7871,17.079,35.7822,42.1064,50.5996,68.6029,2.6211,4.6868,5.3311,9.5332,8.0562,14.2721,33.6719,58.5321,76.7407,111.3536,128.0122,156.9982,51.27,45.644,108.7202,82.311,170.7544,108.9836,47.771,20.5371,98.6533,35.4006,147.8604,49.7749,85.71,25.0376,166.6665,48.6865,234.3647,99.8804,2.2529,1.7029,4.5288,3.4429,6.8286,5.2004,25.6382,19.5967,54.6978,41.8086,87.293,41.8086,7.2622,0,14.437-1.1335,21.3252-3.3696,17.1289-5.5657,31.3032-18.4229,39.9146-36.2043,10.5015-21.6838,11.8105-48.0254,3.502-70.4631-11.5244-31.0979-37.6851-57.5066-79.9785-80.739-63.4053-34.8203-134.2212-52.0503-202.7051-68.7131-40.1025-9.7576-81.5703-19.8469-120.7178-33.324-166.0713-57.1643-304.7451-180.83-380.4653-339.2886-11.3589-23.7686-25.0181-58.4781-12.5503-85.3765,11.9507-25.7946,43.146-34.946,66.2295-34.9457,2.9785,0,5.9688.1425,8.8862.4236,29.4775,2.8492,58.0493,16.8661,85.6802,30.421,2.6885,1.319,5.3726,2.6354,8.0542,3.9412,88.7085,43.1678,183.0151,76.3589,280.3022,98.6521,96.9507,22.2164,196.2871,33.4811,295.2495,33.4811,40.5537,0,81.4531-1.9186,121.5615-5.7025,26.6704-2.5239,54.6274-6.3739,77.5957-22.9446,12.3945-8.9479,22.2485-22.41,27.0386-36.9369,5.4614-16.5621,4.0825-33.116-3.8828-46.6124-3.7695-6.3865-8.6704-11.8132-14.5664-16.1304-11.7788-8.6515-27.1138-12.8633-46.8633-12.8633-16.0693.0004-32.54,2.8514-45.0942,5.3354-42.6592,8.4392-87.4004,12.7181-132.9805,12.7181-206.7812,0-414.582-86.5603-609.7007-175.22-26.1948-11.9032-63.4043-30.7708-84.0225-57.08-10.3237-13.1528-15.4707-26.6671-15.7417-41.3229-.1558-8.1971,1.3164-16.5239,4.501-25.464,6.125-17.2061,17.4116-33.5542,29.4204-50.1799,56.4121-78.1,114.4067-156.2396,172.3735-232.2479,42.6465-55.9325,82.3125-104.4757,135.9614-132.0699,45.8218-23.5736,97.2114-29.6993,151.6187-36.1846,47.7456-5.6911,97.1167-11.5757,142.7148-30.3383,12.5732-5.1843,26.6255-12.2714,35.5884-25.5568,7.6362-11.3254,10.0488-25.5486,6.7949-40.0525-3.9961-17.8146-15.7749-34.0322-31.5078-43.3825-15.4155-9.1729-33.6768-13.4471-57.4624-13.4471-6.9419,0-14.4448.3561-23.6138,1.1207-104.4541,8.7057-208.1074,44.1935-299.7544,102.6268-91.6484,58.4346-167.5576,137.4361-219.5205,228.4639-4.9292,8.6354-9.7412,17.5111-14.395,26.0942-18.2861,33.7247-35.5586,65.5793-62.0254,89.5994-20.2407,18.3585-48.1831,29.765-72.9204,29.765-15.6548,0-29.2178-4.3051-40.3125-12.7958-23.2129-17.7664-20.4272-42.4017-13.9595-81.1257,1.5117-9.0603,2.9087-18.3185,4.3877-28.12,4.6929-31.0922,9.5454-63.2428,18.2808-90.1775,20.0308-61.7489,23.4868-127.0214,26.8296-190.145,1.4644-27.6418,2.978-56.2247,5.877-83.8954,7.9736-76.1025,33.5171-177.3782,109.9238-227.6746,3.6938-2.4307,7.541-4.8547,11.6143-7.4211,28.2407-17.7928,63.3872-39.9368,61.4097-78.3625-.9243-18.0475-10.3887-33.5322-26.6499-43.5979-13.1934-8.1664-30.7319-12.6639-49.3857-12.6639h0Z"/>
      </g>
      <g>
        <path class="cls-1" d="M1417.4917,1263.2275c-1.8276,3.5415-3.9615,6.9241-6.3907,10.091-25.0627,32.7362-82.8733,59.8422-124.0886,60.1146-53.3151.3519-106.5739-8.9105-157.0743-25.971-37.2084-12.5769-74.0763-30.1595-100.0247-59.6378-56.5616-64.2464-13.7913-186.0988,73.1684-200.6167,20.1479-3.3712,40.7157-1.6118,60.3983,3.9502,18.2638,5.1419,35.7668,13.5643,51.4653,24.2002,33.1899,22.4749,60.4549,54.9045,98.1516,68.5143,28.5362,10.2953,61.7377,9.2283,86.199,27.1514,5.3349,3.9047,9.8639,8.604,13.5871,13.8709,15.6416,22.0208,17.2647,53.8829,4.6086,78.3328Z"/>
        <path class="cls-3" d="M1284.0355,1337.9427c-51.7178,0-104.0273-8.8154-155.5381-26.2168-46.9404-15.8672-79.3389-35.2275-101.9619-60.9277-27.2402-30.9424-34.2393-78.0625-18.2637-122.9746,7.6191-21.4209,19.8838-40.5371,35.4678-55.2812,16.7842-15.8799,37.0479-26.1748,58.6006-29.7734,20.0029-3.3477,40.9844-1.9824,62.3633,4.0586,18.3408,5.1641,36.0947,13.5098,52.7666,24.8047,11.8408,8.0195,23.0254,17.3564,33.8418,26.3867,20.3652,17.001,39.6016,33.0605,63.3135,41.6211,10.3047,3.7178,21.5713,5.9756,32.4668,8.1582,19.0283,3.8135,38.7051,7.7568,54.8633,19.5957,5.5908,4.0918,10.5049,9.1064,14.6025,14.9033,16.5674,23.3242,18.5518,56.6787,4.9326,82.9941h0c-1.9639,3.8057-4.2578,7.4277-6.8193,10.7666-25.4551,33.249-83.9033,61.5859-127.6299,61.875-1,.0068-2.0049.0098-3.0059.0098ZM1124.0228,1049.9857c-6.8389,0-13.5791.5527-20.1992,1.6602-38.627,6.4492-71.9912,36.7939-87.0723,79.1943-14.8809,41.834-8.543,85.5205,16.54,114.0107,21.5371,24.4678,52.7051,43.0078,98.0879,58.3486,51.5576,17.416,103.9316,26.082,155.6025,25.7334,40.625-.2686,96.9541-27.5352,120.5459-58.3496,2.2402-2.9189,4.2461-6.0869,5.9648-9.4189.001-.002.002-.0039.0029-.0049,11.9229-23.0352,10.1631-53.3242-4.2812-73.6592-3.541-5.0088-7.7695-9.3281-12.5752-12.8447-14.5586-10.667-32.4131-14.2441-51.3154-18.0322-11.2178-2.248-22.8174-4.5723-33.7539-8.5176-25.2061-9.1006-45.957-26.4248-66.0254-43.1787-10.6455-8.8877-21.6533-18.0771-33.1221-25.8438-15.8711-10.7529-32.748-18.6904-50.1621-23.5938-12.9736-3.666-25.7695-5.5039-38.2373-5.5039Z"/>
      </g>
      <circle class="cls-5" cx="833.3547" cy="1095.3188" r="26.4405"/>
      <circle class="cls-5" cx="688.7394" cy="667.9615" r="31.5987"/>
      <circle class="cls-5" cx="669.6209" cy="1345.2352" r="23.7541"/>
      <circle class="cls-5" cx="714.3306" cy="1805.0544" r="23.7541"/>
      <circle class="cls-5" cx="858.2769" cy="901.8764" r="8.3935"/>
      <circle class="cls-5" cx="624.7994" cy="1034.8714" r="8.3935"/>
      <circle class="cls-5" cx="1448.4289" cy="1113.4403" r="8.3935"/>
      <circle class="cls-5" cx="1879.5868" cy="1262.7305" r="8.3935"/>
      <circle class="cls-5" cx="1355.5793" cy="1368.9893" r="8.3935"/>
      <circle class="cls-5" cx="1355.5793" cy="833.5319" r="19.1185"/>
      <circle class="cls-5" cx="1407.9932" cy="2076.2007" r="19.1185"/>
      <circle class="cls-5" cx="1307.3854" cy="1922.7456" r="19.1185"/>
      <circle class="cls-5" cx="2264.9661" cy="1353.6554" r="19.1185"/>
      <circle class="cls-5" cx="1407.9932" cy="636.3627" r="19.1185"/>
      <circle class="cls-5" cx="1738.7172" cy="1653.3219" r="19.1185"/>
      <circle class="cls-5" cx="1056.1665" cy="548.4923" r="12.8628"/>
      <circle class="cls-5" cx="886.2077" cy="179.0864" r="19.1185"/>
      <circle class="cls-5" cx="1454.4118" cy="457.3667" r="12.3167"/>
      <circle class="cls-5" cx="1256.6501" cy="1442.664" r="11.8496"/>
      <circle class="cls-5" cx="1496.706" cy="1556.6432" r="11.8496"/>
      <circle class="cls-5" cx="1845.152" cy="1736.0762" r="11.8496"/>
      <circle class="cls-5" cx="1175.4362" cy="1345.2352" r="11.8496"/>
      <circle class="cls-5" cx="961.0126" cy="1600.3746" r="11.8496"/>
      <circle class="cls-5" cx="1458.0182" cy="1357.0848" r="14.5377"/>
      <circle class="cls-5" cx="1516.1691" cy="946.8044" r="25.5861"/>
      <circle class="cls-5" cx="2159.4701" cy="429.4118" r="25.5861"/>
      <circle class="cls-5" cx="2061.152" cy="1292.3596" r="25.5861"/>
      <circle class="cls-5" cx="1608.0216" cy="1490.9069" r="14.5377"/>
      <circle class="cls-5" cx="811.2107" cy="1346.0581" r="14.5377"/>
      <circle class="cls-5" cx="1355.5793" cy="919.8506" r="14.5377"/>
      <circle class="cls-5" cx="2006.4904" cy="484.2211" r="14.5377"/>
      <circle class="cls-5" cx="616.4059" cy="1949.23" r="14.5377"/>
      <circle class="cls-5" cx="1355.5793" cy="2010.4616" r="14.5377"/>
      <circle class="cls-5" cx="2431.6578" cy="1317.9457" r="14.5377"/>
      <circle class="cls-5" cx="949.8121" cy="908.6501" r="11.2006"/>
      <circle class="cls-5" cx="1396.7926" cy="1023.6708" r="11.2006"/>
      <circle class="cls-5" cx="1738.7172" cy="1198.8107" r="11.2006"/>
      <circle class="cls-5" cx="938.6115" cy="1163.1277" r="11.2006"/>
      <circle class="cls-5" cx="311.239" cy="1608.4932" r="11.2006"/>
      <circle class="cls-5" cx="161.2221" cy="1121.1542" r="11.2006"/>
      <circle class="cls-5" cx="1541.7552" cy="1050.3586" r="9.6123"/>
      <circle class="cls-5" cx="1669.8477" cy="799.8757" r="9.6123"/>
      <circle class="cls-5" cx="1857.0016" cy="535.6295" r="9.6123"/>
      <circle class="cls-5" cx="1116.3093" cy="747.7765" r="9.6123"/>
      <circle class="cls-5" cx="886.2077" cy="1280.0312" r="14.5377"/>
      <circle class="cls-5" cx="728.8683" cy="1074.5087" r="14.5377"/>
      <circle class="cls-5" cx="1321.9231" cy="1519.9823" r="14.5377"/>
      <circle class="cls-5" cx="1092.5108" cy="968.595" r="14.5377"/>
      <circle class="cls-5" cx="1160.8985" cy="871.6764" r="14.5377"/>
      <circle class="cls-5" cx="476.5922" cy="548.4923" r="14.5377"/>
      <circle class="cls-5" cx="867.0893" cy="1691.4406" r="14.5377"/>
      <circle class="cls-5" cx="859.7951" cy="799.8757" r="21.5464"/>
      <circle class="cls-5" cx="1237.648" cy="893.4829" r="7.2689"/>
      <circle class="cls-5" cx="849.8834" cy="968.595" r="7.2689"/>
      <circle class="cls-5" cx="1056.1665" cy="1427.0575" r="7.2689"/>
      <circle class="cls-5" cx="1077.9731" cy="650.9005" r="14.5377"/>
      <circle class="cls-5" cx="399.9432" cy="1001.0889" r="26.714"/>
      <circle class="cls-5" cx="1019.8222" cy="337.6816" r="14.5377"/>
      <circle class="cls-5" cx="991.4083" cy="1021.6974" r="30.3957"/>
      <circle class="cls-5" cx="300.0384" cy="408.5409" r="30.3957"/>
      <circle class="cls-5" cx="2215.452" cy="1838.5026" r="30.3957"/>
      <circle class="cls-5" cx="1551.3675" cy="1156.7415" r="25.8182"/>
      <circle class="cls-5" cx="1738.7172" cy="684.8541" r="25.8182"/>
      <circle class="cls-5" cx="476.5922" cy="1434.3263" r="25.8182"/>
      <circle class="cls-5" cx="1256.6501" cy="1010.3506" r="25.8182"/>
      <circle class="cls-5" cx="1048.8976" cy="1333.0371" r="29.0754"/>
      <circle class="cls-5" cx="2006.4904" cy="1775.979" r="29.0754"/>
      <circle class="cls-5" cx="1450.7493" cy="301.3373" r="21.8066"/>
      <circle class="cls-5" cx="1307.3854" cy="1722.2518" r="29.0754"/>
    </g>
  </g>
</svg>