<?xml version="1.0" encoding="UTF-8"?>
<svg id="Capa_2" xmlns="http://www.w3.org/2000/svg" viewBox="0 0 2558.1362 2326.6785">
  <defs>
    <style>
      .cls-1 {
        fill: #70569b;
      }

      .cls-2 {
        fill: #604593;
        stroke: #47327c;
        stroke-linejoin: round;
        stroke-width: 9px;
      }

      .cls-3 {
        fill: #a486ce;
      }

      .cls-4 {
        fill: #8566b2;
      }
    </style>
  </defs>
  <g id="Capa_1-2" data-name="Capa_1">
    <g>
      <g>
        <path class="cls-3" d="M594.8224,2319.6785c-23.564.0015-47.8862-12.5562-63.4756-32.7725-16.5298-21.4333-25.1436-49.8081-27.1079-89.2969-3.4209-68.9614,11.8643-140.5898,45.4307-212.8965,28.6318-61.677,70.3169-123.5364,123.8965-183.8599,2.3994-2.7007,4.8071-5.3911,7.2358-8.0615,45.8789-50.7119,96.728-98.0732,145.9023-143.8755,53.168-49.5215,108.1455-100.7285,156.7139-156.1003,18.7119-21.3347,39.6216-56.4761,36.9668-85.2993-1.0713-11.6282-6.0962-21.0542-14.936-28.0154-8.8408-6.959-20.416-10.2007-36.4272-10.2007-9.1221,0-18.667,1.0732-27.6226,2.2334-198.7007,25.7595-373.3174,56.6365-497.918,174.0522-23.8638,22.489-46.0352,48.563-67.4771,73.7786-45.8008,53.8628-93.1611,109.5588-160.3438,134.5481-11.1016,4.1279-23.957,6.3101-37.1777,6.3101-28.7139,0-55.1602-10.0801-69.0186-26.3071-9.1445-10.708-12.7988-23.8098-10.5674-37.8896,5.3516-33.7593,39.8076-48.3101,70.2075-61.1479,2.7568-1.1643,5.4805-2.3145,8.1421-3.4634,66.3232-28.6519,116.6274-84.521,165.2759-138.5505,43.1802-47.9575,87.8311-97.5471,144.3877-129.8318,54.4878-31.104,117.71-44.8516,178.8506-58.1467,79.6816-17.3269,154.9443-33.6929,212.5083-85.0857,13.376-11.9475,28.4941-30.1489,24.5498-49.0049-5.1045-24.3748-28.8433-27.4666-67.1514-30.4929-12.3652-.9768-25.1514-1.9868-37.5884-4.2651-45.3887-8.3247-90.9844-19.0967-135.0791-29.5139-75.2383-17.7749-153.0381-36.1553-232.2891-42.967-7.856-.676-15.8755-1.0186-23.8359-1.0186-93.1567,0-185.0205,46.0432-239.7432,120.1619l-2.6846,3.6421c-26.3555,35.7756-59.1558,80.2996-99.9077,80.3057-7.1504.001-14.3276-1.4084-21.332-4.1895-16.8037-6.6711-28.3359-19.8276-33.3511-38.0466-8.5327-31.0012,2.5635-74.8274,26.9858-106.5774,40.4648-52.5962,96.3745-93.1208,166.1763-120.448,61.7832-24.1875,133.0361-36.9729,206.0566-36.9729,1.1211,0,2.2324.0029,3.3525.009,114.8296.605,228.3892,28.3914,338.21,55.2627,23.4922,5.748,47.7847,11.6919,71.6533,17.2603,10.9326,2.551,22.5581,4.9114,33.5083,4.9114,10.7734,0,19.3916-2.2976,26.3467-7.0239,13.0244-8.8552,18.1699-23.6943,15.292-44.1055-2.4722-17.53-10.9229-37.9783-23.1855-56.1023-59.311-87.6343-138.5688-162.8267-229.2051-217.4473-39.5132-23.814-81.9907-44.2542-123.0698-64.0208-47.5254-22.8687-96.6685-46.5161-141.8892-75.6606-71.2646-45.9294-123.4453-102.4073-150.9004-163.328l-.3706-.8234c-10.9087-24.1959-29.167-64.693-15.0308-92.5776,10.3115-20.3473,33.4907-34.0183,57.6782-34.0183,11.8125,0,22.8315,3.365,31.8672,9.731,23.3413,16.4467,34.8481,42.6876,45.9766,68.0647,3.4756,7.9257,7.0693,16.121,10.9268,23.734,43.2617,85.38,135.5537,128.776,224.8076,170.743,27.397,12.8823,55.7266,26.2029,82.1621,40.5259,77.7993,42.1396,148.8325,100.3921,205.4189,168.4597,3.6973,4.4478,7.4097,9.021,10.9995,13.4436,18.6821,23.0168,38.0005,46.8167,62.8979,62.1511,15.2085,9.3752,33.625,14.7512,50.5288,14.7512,16.8428,0,31.4375-5.1462,42.2061-14.8833,34.7642-31.4434,17.7793-89.97,4.1313-136.9966-13.6636-47.0693-21.6279-96.0981-29.3301-143.5125-6.7158-41.3435-13.6606-84.095-24.3408-125.1042-19.0508-73.1394-59.8638-169.8877-146.106-215.4451-9.8418-5.1959-20.4565-9.7957-30.7217-14.2437-22.5498-9.7714-45.8672-19.8754-64.2686-37.4193-17.0229-16.2296-27.0029-42.411-24.834-65.1479,1.5811-16.572,9.4507-30.1974,22.1587-38.3667,8.7466-5.6246,19.291-8.4771,31.3403-8.4771,10.9702,0,23.2373,2.3037,37.502,7.0424,54.5752,18.1244,104.5391,51.5156,148.5029,99.2469,38.7104,42.0273,72.1533,95.129,96.7129,153.5637,37.8599,90.078,56.0029,187.7667,73.5488,282.2389,3.979,21.4211,8.0928,43.5715,12.3657,65.239,9.2373,46.8254,25.6113,102.6213,70.6133,118.5874,7.2031,2.554,14.8789,3.8494,22.8135,3.8494,27.1616,0,57.4209-15.6038,77.0879-39.7527,24.7637-30.4155,35.7896-70.3567,44.9604-108.6597,21.0337-87.8704,36.4448-178.0166,45.8052-267.9347,1.0454-10.057,2.0396-20.3259,3.0005-30.257,5.4409-56.2117,11.0669-114.3367,29.271-168.9424,11.3472-34.057,27.9863-65.549,48.1172-91.0699,22.875-28.9996,49.8057-50.2253,80.0435-63.0873,12.0298-5.1161,25.9155-7.8201,40.1562-7.8201,33.1021,0,67.2891,15.344,69.0449,49.6233,1.7661,34.3284-30.0664,54.384-58.1514,72.0791-4.1035,2.585-7.9785,5.0266-11.7314,7.4963-78.6948,51.8022-104.9058,155.1859-113.0361,232.792-2.918,27.851-4.4365,56.5266-5.9053,84.2579-3.3188,62.6718-6.751,127.4769-26.4985,188.3527-8.9126,27.4807-13.8086,59.9207-18.5435,91.2925-1.4751,9.7739-2.8687,19.0056-4.3701,28.0093-6.9224,41.447-9.2588,68.0405,16.6099,87.8396,12.3438,9.4468,27.3379,14.2363,44.5664,14.2363,26.8037,0,55.8228-11.8066,77.6265-31.5828,27.3467-24.8188,45.7119-58.6895,63.4727-91.4448,4.6357-8.5503,9.4297-17.3914,14.3203-25.96,51.4023-90.0454,126.5107-168.2061,217.2051-226.0325,90.6929-57.825,193.2456-92.9417,296.5728-101.5533,8.9727-.7483,16.2915-1.0967,23.0317-1.0967,22.4722,0,39.5962,3.9614,53.8896,12.4667,13.8955,8.2581,24.7217,23.1627,28.2505,38.8954,2.8276,12.6057.7798,24.8947-5.7666,34.6036-7.9224,11.7434-20.8467,18.2156-32.4443,22.998-44.7188,18.4004-93.6064,24.2275-140.8848,29.863-52.6289,6.2732-107.0503,12.76-153.9922,36.9102-54.9492,28.2634-95.1553,77.4304-138.3257,134.0498-58.0015,76.054-116.0327,154.2427-172.4824,232.3943-12.3179,17.0537-23.9072,33.8577-30.3394,51.9287-3.4736,9.7522-5.0786,18.8909-4.9062,27.9392.3003,16.239,5.9355,31.1248,17.228,45.5115,21.5669,27.5205,59.7754,46.9319,86.6396,59.1389,195.8164,88.9771,404.416,175.8472,612.5962,175.8472,46.0356,0,91.2339-4.3237,134.3394-12.8511,12.2412-2.4221,28.2749-5.2024,43.7349-5.2024,18.2065,0,32.186,3.7676,42.7373,11.5176,5.1167,3.7468,9.3804,8.4705,12.6646,14.0334,15.0801,25.552.7261,58.4692-21.2212,74.314-21.5469,15.5449-48.4492,19.2207-74.1577,21.6533-39.894,3.7637-80.5728,5.6716-120.9062,5.6716-197.8379,0-395.8008-45.4463-572.4863-131.4263-2.6768-1.303-5.3545-2.6169-8.0366-3.9326-28.1929-13.8308-57.3452-28.1321-88.0938-31.104-3.1382-.3027-6.354-.4561-9.5562-.4561-33.1133,0-61.603,15.3086-72.5796,39.001-13.5566,29.2483-.3955,64.1768,12.585,91.3391,76.5239,160.1404,216.6699,285.1187,384.5024,342.8892,39.4556,13.5835,81.084,23.7122,121.3423,33.5071,68.0405,16.5549,138.3984,33.6736,200.9893,68.0464,40.7554,22.3877,65.8711,47.5852,76.7837,77.0332,7.6606,20.688,6.4507,44.98-3.2363,64.9832-7.7729,16.0503-20.478,27.6267-35.7739,32.5967-6.1895,2.009-12.6367,3.0276-19.165,3.0283-30.2251.0027-58.2832-21.4441-83.0381-40.3657-2.311-1.7666-4.5986-3.5154-6.8618-5.2263-68.7246-51.9692-154.0801-76.9033-236.625-101.0164-49.0059-14.3154-99.6802-29.1184-147.0581-49.4863-123.5005-53.1013-228.4307-146.5173-295.4624-263.0403-2.7056-4.7041-5.4053-9.5325-8.0166-14.2021-14.5024-25.9326-29.498-52.7478-52.3853-70.6895-13.9429-10.9392-32.5635-17.469-49.8125-17.469-11.124,0-26.8169,2.6782-38.4072,15.4368-11.2241,12.3547-15.1523,29.925-18.7944,49.9365-20.8477,114.7156-39.8374,236.5676-23.5332,354.2961,18.0371,130.2378,79.957,238.4761,169.8828,296.9624,25.6167,16.6638,43.8047,31.8848,55.605,46.533,12.5132,15.5337,24.2632,39.0967,9.1777,63.136-9.1509,14.593-24.7803,22.3081-45.1968,22.3098-17.5625.0012-38.2642-5.8481-56.7974-16.0481-50.728-27.918-95.1714-68.3887-132.0952-120.2883-33.5557-47.1663-60.1973-103.5684-77.0449-163.1084-35.0254-123.8079-29.9214-255.2795-21.561-355.9849,2.2339-26.8528,2.9385-65.7036-6.3887-98.3057-9.4224-32.9353-27.1245-52.4094-52.6143-57.8813-4.4526-.9553-8.9214-1.4399-13.2808-1.4399-46.8682,0-82.5327,56.196-111.1899,101.3503l-3.5342,5.564c-48.23,75.7781-117.8291,134.958-185.1372,192.1897-27.4883,23.3733-55.9126,47.5422-82.4033,72.4517-79.312,74.5933-170.2524,190.7749-153.0859,320.6528.8633,6.5208,1.8574,13.2051,2.9102,20.2817,5.4692,36.7688,11.6685,78.4434.1421,109.0808-6.3569,16.8882-17.6509,29.0989-33.5688,36.2935-7.7207,3.4888-16.1084,5.2578-24.9307,5.2585Z"/>
        <path class="cls-1" d="M1607.7861,14c30.7986,0,60.5621,13.8535,62.0537,42.9814,1.79,34.79-37.6396,54.2197-66.74,73.3701-76.23,50.1797-106.64,147.1396-116.15,237.9097-9.5099,90.77-3.9396,184.3701-32.1,271.1802-11.89,36.6602-16.82,82.2998-23.16,120.3101-6.35,38.02-11.34,71.1299,19.2599,94.5498,14.2571,10.9111,31.2643,15.6777,48.8211,15.6777,29.2995,0,60.1368-13.269,82.3289-33.3975,35.48-32.2002,55.42-77.5103,79.17-119.1201,103.62-181.52,299.9904-306.7202,508.28-324.0801,7.3926-.6162,14.9373-1.0723,22.4501-1.0723,17.7208,0,35.2743,2.5352,50.3099,11.4824,21.42,12.73,34.19,42.9097,20.26,63.5698-6.76,10.02-18.13,15.8301-29.3096,20.4399-93.8104,38.6001-205.2004,20.6099-295.4104,67.02-58.52,30.1001-100.79,83.7002-140.69,136.0303-58.54,76.7598-116.07,154.29-172.59,232.54-12.07,16.71-24.44,34.5195-31.26,53.6797-3.48,9.77-5.51,19.8999-5.31,30.4199.35,18.9502,7.48,35.3804,18.7204,49.7002,21.1196,26.9502,56.79,46.4399,89.25,61.1899,195.3798,88.7783,404.8616,176.4741,615.4911,176.4741,45.2241,0,90.4963-4.0425,135.6986-12.9844,13.3433-2.6401,28.2516-5.0688,42.3763-5.0688,14.5519,0,28.2722,2.5776,38.5937,10.1592,4.22,3.0898,7.87,7.02,10.78,11.9497,12.63,21.4004.8504,50.54-19.29,65.0801-20.14,14.5303-45.99,18.02-70.7196,20.3599-39.9643,3.77-80.1143,5.6406-120.2482,5.6406-196.3966,0-392.7874-44.7656-569.4221-130.7202-31.59-15.3804-63.55-32.3301-98.5197-35.71-3.3766-.3257-6.7958-.4883-10.2292-.4883-32.1247-.0005-65.5872,14.2563-78.9311,43.0581-14.23,30.7002-1.97,66.77,12.62,97.2998,76.8203,160.7603,220.0703,288.5002,388.5403,346.4902,106.3996,36.6299,222.5996,46.8999,321.24,101.0701,31.02,17.0398,61.29,40.1399,73.5897,73.3298,12.29,33.1899-.94,77.55-34.61,88.49-5.7035,1.8516-11.3785,2.6858-17.003,2.6858-30.5273,0-59.711-24.543-85.677-44.1758-110.5396-83.5898-257.81-96.6099-385.14-151.3499-121.8696-52.4001-226.01-145.1101-292.1597-260.1003-17.8803-31.0898-33.9203-64.7798-62.1503-86.9097-15.0918-11.8403-35.0995-18.9585-54.1316-18.96-16.5558-.001-32.3722,5.3833-43.5884,17.73-13,14.3101-17.04,34.3799-20.5,53.3896-21.39,117.7002-39.99,238.0203-23.58,356.5103,16.41,118.49,72.7203,236.6499,173,301.8701,36.9404,24.0298,86.09,62.7598,62.67,100.0798-8.6183,13.7432-23.1636,19.0308-39.2681,19.0308-17.8669,0-37.654-6.5027-53.4219-15.1807-103.9896-57.23-173.46-164.95-205.78-279.1702-32.31-114.21-31.14-235.21-21.32-353.5,5.3404-64.2-1.53-150.0898-64.5099-163.6099-5.0439-1.0825-9.9651-1.5952-14.75-1.5962-52.7315-.0078-90.1094,62.1978-120.6296,110.1562-67.2803,105.71-175.1404,177.46-266.4304,263.2998-91.28,85.8501-171.65,202.4402-155.23,326.6702,5.3999,40.8,16.4199,91.48,3.4399,125.98-5.2997,14.0801-14.59,25.46-29.9,32.3799-7.0437,3.1826-14.5198,4.6372-22.048,4.6372-21.8743,0-44.2208-12.2666-57.932-30.0471-18.4399-23.9099-24.16-55.22-25.66-85.3701-7.2196-145.5398,70.8-282.8098,167.5701-391.7598,2.38-2.6802,4.77-5.3501,7.1799-8,95.3201-105.3601,208.9701-193.2102,302.7001-300.0703,30.97-35.3101,58-94.3696,21.1-123.4297-11.4863-9.0415-25.8835-11.7012-40.7585-11.7017-9.5231,0-19.2396,1.0894-28.5215,2.2915-178.88,23.1899-370.5399,52.1899-501.8199,175.9001-74.98,70.6599-128.89,170.9399-225.46,206.8599-10.6273,3.9519-22.66,5.8711-34.7378,5.8711-38.9619,0-78.3975-19.9709-72.6722-56.1011,5.2-32.8,43.72-46.1199,74.21-59.28,126.48-54.6399,190.71-200.4302,310.36-268.73,122.17-69.7402,287.6104-50.3999,392.55-144.0898,16.1-14.3804,31.16-34.5303,26.74-55.6602-8.67-41.3999-63.38-31.6099-110.33-40.21-122.6198-22.4902-241.6801-61.71-368.03-72.5698-8.1324-.6997-16.2883-1.0444-24.4359-1.0444-94.7745-.0015-188.9728,46.6118-245.3741,123.0044-25.8121,34.9712-58.4207,81.105-96.962,81.105-6.1039,0-12.3495-1.1548-18.7479-3.6953-48.26-19.1597-35.0601-92.6899-3.4-133.8496,83.8145-108.9419,229.1023-154.689,366.683-154.689,1.1089,0,2.2091.0029,3.317.0088,138.55.73,273.3704,40.8599,408.3101,72.3398,11.3282,2.6436,23.4578,5.0947,35.099,5.0947,10.8639,0,21.3022-2.1328,30.281-8.2344,33.86-23.02,16.9199-76-6.03-109.9204-60.0597-88.7397-139.61-164.21-231.39-219.52-85.5-51.5298-180.87-85.4897-264.78-139.5698-61.3199-39.52-117.9399-92.9302-148.3099-160.3198-10.5601-23.4302-28.3101-62.1699-15.54-87.3604,9.3722-18.4932,30.6992-30.1831,51.4346-30.1831,9.8625,0,19.587,2.6416,27.8354,8.4531,28.88,20.3501,38.72,57.7202,54.6903,89.2402,57.8497,114.1699,197.3497,153.29,309.8796,214.2598,77.5601,42.0103,146.99,98.96,203.3704,166.7803,23.1296,27.8198,44.8097,58.1099,75.6096,77.0801,16.0095,9.8687,35.4531,15.791,54.1998,15.791,17.3076,0,34.0207-5.0454,46.9002-16.6914,37.7904-34.1797,20.36-95.21,6.16-144.1396-25.45-87.6699-30.61-180.0801-53.6197-268.4302-23.0104-88.3398-68.8904-177.23-149.6104-219.8701-31.46-16.6099-67.6799-25.9897-93.4299-50.54-25.75-24.5498-33.65-73.3198-3.7201-92.5596,8.2808-5.3252,17.7539-7.3652,27.5553-7.3652,11.7885,0,24.0524,2.9502,35.2948,6.6851,113.01,37.5298,194.83,139.1001,240.97,248.8799,46.14,109.7803,62.4603,229.29,85.5,346.1201,9.8,49.6802,27.4203,106.8999,75.14,123.8301,8.24,2.9219,16.7063,4.2524,25.1542,4.2524,31.741,0,63.3158-18.7573,82.5157-42.3325,25.6304-31.48,36.89-71.98,46.34-111.4502,21.18-88.48,36.5404-178.3496,45.96-268.8398,6.92-66.5498,10.79-134.2402,31.95-197.71,21.1503-63.48,62.69-123.7402,124.26-149.9302,11.2997-4.8052,24.4504-7.2612,37.4163-7.2612M1607.786,0c-15.1739,0-30.0068,2.897-42.895,8.3779-31.3318,13.3276-59.1896,35.2622-82.8004,65.1943-20.6275,26.1499-37.6622,58.376-49.2629,93.1938-18.4539,55.353-24.1186,113.8784-29.5964,170.4771-.9603,9.9194-1.9528,20.1768-2.9964,30.2104-9.3282,89.6133-24.6875,179.4551-45.6504,267.0283-8.9825,37.5171-19.7464,76.5957-43.5814,105.8701-18.3896,22.5806-46.5178,37.1719-71.6589,37.1719-7.135,0-14.0239-1.1602-20.4753-3.4478-18.1486-6.4385-32.5446-20.4463-44.0089-42.8223-11.8983-23.2227-18.2968-51.3701-22.0746-70.522-4.2657-21.6299-8.3761-43.7612-12.3511-65.1646-17.614-94.835-35.8271-192.8989-73.9778-283.6709-24.8704-59.1729-58.7643-112.9766-98.0175-155.5938-44.7771-48.6138-95.7311-82.645-151.4464-101.1479-14.9865-4.978-27.975-7.3984-39.7072-7.3984-13.4143,0-25.2329,3.2266-35.1278,9.5903-14.5508,9.353-23.5508,24.834-25.3397,43.5884-2.3993,25.1489,8.1879,52.9707,26.9718,70.8789,19.304,18.4043,43.2036,28.7607,66.316,38.7759,10.6107,4.5981,20.6329,8.9409,30.2379,14.0117,83.9857,44.3657,123.9025,139.2407,142.5989,211.0186,10.5975,40.6914,17.5154,83.2778,24.2054,124.4619,7.7354,47.6216,15.7346,96.8638,29.5172,144.3423,13.1036,45.1523,29.4121,101.3472-2.1061,129.8535-11.9507,10.8062-26.9939,13.0747-37.5089,13.0747-15.6432,0-32.7207-4.9971-46.8536-13.7085-23.8882-14.7134-41.9824-37.0054-61.1389-60.6064-3.6024-4.438-7.3278-9.0273-11.0518-13.5068-28.6285-34.4375-60.8036-66.3813-95.6304-94.9434-34.8361-28.5698-72.4635-53.8696-111.8375-75.1963-26.6096-14.4175-55.0314-27.7812-82.5171-40.7051-88.1829-41.4634-179.3679-84.3389-221.5421-167.5728-3.7689-7.4385-7.1647-15.1821-10.76-23.3809-11.5135-26.2554-23.4189-53.4048-48.3546-70.9756-10.2222-7.2021-22.6357-11.0088-35.8993-11.0088-26.7596,0-52.4479,15.2124-63.9225,37.8545-7.1682,14.1401-7.8837,31.6851-2.1862,53.6357,4.344,16.7349,11.7047,33.0615,17.0793,44.9824l.3711.8232c14.9753,33.229,36.9138,65.04,65.207,94.5479,24.7972,25.8618,54.4998,50.0151,88.2822,71.7876,45.5864,29.3804,94.929,53.1235,142.6471,76.085,40.9332,19.6963,83.2596,40.0635,122.4907,63.7075,89.7728,54.1006,168.2758,128.5767,227.0221,215.3765,11.6847,17.27,19.7222,36.645,22.05,53.1553,2.4746,17.5479-1.6628,30.1104-12.2968,37.3403-5.7543,3.9102-13.0857,5.812-22.41,5.812-10.2435,0-21.3939-2.2725-31.9175-4.728-23.8325-5.5601-48.1061-11.4995-71.5803-17.2432-110.2147-26.9683-224.1819-54.854-339.8372-55.4629-1.1307-.0068-2.2565-.0093-3.3911-.0093-73.8843,0-146.0197,12.9517-208.6075,37.4546-33.995,13.3091-65.2463,30.0293-92.886,49.6973-29.505,20.9951-55.1711,45.5562-76.2854,73.0005-11.7404,15.2632-21.1285,34.4395-26.436,53.9985-5.8164,21.4341-6.4218,41.7339-1.7507,58.7046,5.62,20.4185,18.5933,35.1821,37.5168,42.6953,7.8274,3.1074,15.8732,4.6831,23.9138,4.6831,44.2865,0,78.2487-46.1011,105.5372-83.1436l2.6888-3.6475c53.4282-72.3657,143.1343-117.3198,234.1097-117.3184,7.7664.0005,15.5842.3345,23.2357.9932,78.7428,6.7681,156.2899,25.0884,231.2842,42.8052,44.1782,10.4375,89.8604,21.23,135.4208,29.5864,12.7928,2.3433,25.7607,3.3672,38.3014,4.3579,39.3268,3.1069,56.9679,6.4058,60.8514,24.9512,3.431,16.4023-12.5386,33.5737-22.3632,42.3491-56.1871,50.1636-130.5751,66.3394-209.3308,83.4648-61.6567,13.4072-125.4128,27.271-180.8339,58.9077-57.535,32.8428-102.5686,82.8584-146.1196,131.2271-50.3615,55.9324-97.9297,108.7632-162.8518,136.8096-2.6235,1.1326-5.2775,2.2532-8.0875,3.4399-30.4904,12.8765-68.4368,28.9014-74.3975,66.5-2.5618,16.1658,1.6425,31.2185,12.1578,43.5317,7.924,9.2783,19.4414,16.8296,33.3079,21.8379,12.54,4.5295,26.7292,6.9236,41.0336,6.9236,14.0447,0,27.7439-2.334,39.6176-6.749,68.8939-25.6257,116.8546-82.0286,163.2363-136.5737,21.3186-25.0713,43.3633-50.9958,66.9458-73.2197,123.0735-115.9768,296.5471-146.6047,494.0182-172.2048,8.7235-1.1299,18-2.1753,26.7211-2.1753,14.3578.001,24.5582,2.7661,32.0996,8.7021,7.3711,5.8052,11.3929,13.3799,12.2936,23.1562,2.2939,24.9062-16.056,58.1465-35.2593,80.0415-48.3357,55.1062-103.1821,106.1917-156.2233,155.5952-49.2817,45.9021-100.2413,93.3667-146.3335,144.314-2.1754,2.3918-4.5601,5.0488-7.2665,8.0964-54.0317,60.8328-96.0922,123.2642-125.0114,185.5601-34.0497,73.3469-49.5508,146.0837-46.0732,216.1895,2.0393,40.9858,11.1132,70.6084,28.5568,93.2266,16.8839,21.895,43.3303,35.4971,69.0178,35.4971,9.8214,0,19.179-1.9778,27.8129-5.8789,17.675-7.989,30.2029-21.5161,37.2379-40.2065,12.1667-32.3381,5.8257-74.9666.2311-112.5774-1.0486-7.0479-2.0389-13.7051-2.8947-20.1711-16.7775-126.9348,72.8229-241.1624,150.9425-314.635,26.3621-24.7886,54.7189-48.8999,82.1417-72.2175,67.7032-57.5676,137.7115-117.0952,186.5079-193.7634,1.1729-1.8428,2.3553-3.7061,3.5482-5.5862,27.7365-43.7034,62.2554-98.0935,105.2686-98.0872,3.871.001,7.8461.4331,11.8143,1.2842,23.0853,4.9561,38.575,22.2803,47.3528,52.9629,9.0364,31.5847,8.3282,69.5291,6.1432,95.7983-5.7864,69.7012-7.4304,126.9075-5.1743,180.0347,2.7936,65.783,11.6171,124.1499,26.9746,178.4373,17.0636,60.3032,44.0625,117.4492,78.0779,165.261,37.5389,52.7646,82.7657,93.9336,134.4236,122.3633,19.5328,10.75,41.4646,16.9153,60.1718,16.9153,22.9496,0,40.6296-8.8501,51.1289-25.5928,9.5343-15.1929,15.6003-39.8894-9.6582-71.2444-12.2707-15.2324-30.9936-30.9365-57.2386-48.009-88.2243-57.3796-149.0079-163.8291-166.7664-292.0552-16.1625-116.7043,2.7404-237.9265,23.4868-352.0867,3.4454-18.9292,7.11-35.4951,17.0882-46.4785,9.8697-10.8647,23.5157-13.145,33.225-13.144,15.7368.001,32.7429,5.9727,45.4907,15.9746,21.7864,17.0786,35.7814,42.105,50.5985,68.6006,2.6211,4.6875,5.3318,9.5347,8.0575,14.2739,33.6714,58.5322,76.7404,111.3535,128.0118,156.9985,51.27,45.6436,108.72,82.311,170.7539,108.9836,47.7711,20.5371,98.6536,35.4006,147.8607,49.7754,85.7096,25.0371,166.6664,48.686,234.365,99.8799,2.2525,1.7029,4.5286,3.4429,6.8282,5.2004,25.6386,19.5967,54.6979,41.8086,87.2932,41.8086,7.2621,0,14.4371-1.1335,21.3253-3.3696,17.1289-5.5657,31.3029-18.4229,39.9143-36.2043,10.5014-21.6838,11.8107-48.0254,3.5022-70.4631-11.5243-31.0977-37.685-57.5066-79.9782-80.739-63.4053-34.8203-134.2211-52.0503-202.705-68.7131-40.1029-9.7571-81.5711-19.8469-120.7182-33.324-166.0707-57.1643-304.745-180.8303-380.4657-339.2888-11.3586-23.7686-25.0175-58.478-12.55-85.376,11.9507-25.7949,43.1461-34.9463,66.2293-34.9458,2.9789,0,5.9689.1426,8.8864.4233,29.4789,2.8496,58.0518,16.8667,85.6839,30.4229,2.6872,1.3184,5.37,2.6343,8.05,3.9395,88.7093,43.168,183.0154,76.3589,280.3018,98.6523,96.9511,22.2163,196.2871,33.481,295.2489,33.481,40.5521,0,81.4521-1.9189,121.5632-5.7031,26.67-2.5229,54.6264-6.3726,77.5957-22.9443,12.3943-8.9478,22.2482-22.4097,27.0386-36.9365,5.4614-16.562,4.0825-33.1167-3.8829-46.6128-3.77-6.3867-8.6703-11.8125-14.5657-16.1299-11.7793-8.6519-27.1143-12.8633-46.8646-12.8633-16.0679,0-32.5393,2.8511-45.0936,5.335-42.6593,8.439-87.4007,12.7183-132.9814,12.7183-206.7814,0-414.5814-86.5601-609.6996-175.2197-26.195-11.9038-63.405-30.771-84.0218-57.0796-10.3246-13.1528-15.4718-26.667-15.7425-41.3232-.1557-8.1973,1.3164-16.5239,4.5007-25.4639,6.1239-17.2046,17.4111-33.5532,29.4207-50.1797,56.4168-78.1069,114.4114-156.2461,172.3732-232.248,42.6464-55.9326,82.3125-104.4756,135.9614-132.0703,45.8218-23.5737,97.2121-29.6992,151.6196-36.1846,47.7454-5.6909,97.1161-11.5762,142.7143-30.3384,12.5736-5.1846,26.6257-12.272,35.5882-25.5566,7.6361-11.3252,10.0486-25.5488,6.795-40.0527-3.9964-17.8145-15.775-34.0317-31.5082-43.3823-15.4157-9.1729-33.6772-13.4473-57.4625-13.4473-6.9418,0-14.445.356-23.6132,1.1206-104.4543,8.7061-208.1079,44.1938-299.7547,102.627-91.6486,58.4346-167.5579,137.436-219.5207,228.4639-4.9289,8.6357-9.7411,17.5112-14.3954,26.0942-18.2861,33.7251-35.5579,65.5796-62.0246,89.5996-20.2411,18.3589-48.1836,29.7646-72.9203,29.7646-15.655,0-29.2182-4.3047-40.3125-12.7954-23.2133-17.7661-20.4275-42.4019-13.96-81.126,1.5114-9.061,2.9089-18.3208,4.3886-28.124,4.6924-31.0908,9.5446-63.2397,18.28-90.1729,20.0307-61.7485,23.4871-127.0205,26.83-190.1431,1.4639-27.6426,2.9775-56.2266,5.8768-83.8975,7.9732-76.103,33.5161-177.3779,109.9236-227.6748,3.6939-2.4307,7.541-4.8545,11.6143-7.4209,28.2404-17.793,63.3868-39.9365,61.4096-78.3623-.9243-18.0479-10.3886-33.5327-26.6497-43.5981-13.1932-8.1665-30.7318-12.6641-49.3857-12.6641h0Z"/>
      </g>
      <path class="cls-2" d="M1417.4915,1263.2275c-1.8276,3.5415-3.9615,6.9241-6.3907,10.091-25.0627,32.7362-82.8733,59.8422-124.0886,60.1146-53.3151.3519-106.5739-8.9105-157.0743-25.971-37.2084-12.5769-74.0763-30.1595-100.0247-59.6378-56.5616-64.2464-13.7913-186.0988,73.1684-200.6167,20.1479-3.3712,40.7157-1.6118,60.3983,3.9502,18.2638,5.1419,35.7668,13.5643,51.4653,24.2002,33.1899,22.4749,60.4549,54.9045,98.1516,68.5143,28.5362,10.2953,61.7377,9.2283,86.199,27.1514,5.3349,3.9047,9.8639,8.604,13.5871,13.8709,15.6416,22.0208,17.2647,53.8829,4.6086,78.3328Z"/>
      <circle class="cls-4" cx="833.3544" cy="1095.3188" r="26.4405"/>
      <circle class="cls-4" cx="688.7392" cy="667.9615" r="31.5987"/>
      <circle class="cls-4" cx="669.6207" cy="1345.2352" r="23.7541"/>
      <circle class="cls-4" cx="714.3303" cy="1805.0544" r="23.7541"/>
      <circle class="cls-4" cx="858.2767" cy="901.8764" r="8.3935"/>
      <circle class="cls-4" cx="624.7992" cy="1034.8714" r="8.3935"/>
      <circle class="cls-4" cx="1448.4287" cy="1113.4403" r="8.3935"/>
      <circle class="cls-4" cx="1879.5866" cy="1262.7305" r="8.3935"/>
      <circle class="cls-4" cx="1355.5791" cy="1368.9893" r="8.3935"/>
      <circle class="cls-4" cx="1355.5791" cy="833.5318" r="19.1185"/>
      <circle class="cls-4" cx="1407.9929" cy="2076.2007" r="19.1185"/>
      <circle class="cls-4" cx="1307.3852" cy="1922.7456" r="19.1185"/>
      <circle class="cls-4" cx="2264.9659" cy="1353.6554" r="19.1185"/>
      <circle class="cls-4" cx="1407.9929" cy="636.3627" r="19.1185"/>
      <circle class="cls-4" cx="1738.717" cy="1653.3219" r="19.1185"/>
      <circle class="cls-4" cx="1056.1663" cy="548.4923" r="12.8628"/>
      <circle class="cls-4" cx="886.2075" cy="179.0864" r="19.1185"/>
      <circle class="cls-4" cx="1454.4116" cy="457.3667" r="12.3167"/>
      <circle class="cls-4" cx="1256.6499" cy="1442.664" r="11.8496"/>
      <circle class="cls-4" cx="1496.7057" cy="1556.6432" r="11.8496"/>
      <circle class="cls-4" cx="1845.1518" cy="1736.0761" r="11.8496"/>
      <circle class="cls-4" cx="1175.436" cy="1345.2352" r="11.8496"/>
      <circle class="cls-4" cx="961.0124" cy="1600.3746" r="11.8496"/>
      <circle class="cls-4" cx="1458.018" cy="1357.0848" r="14.5377"/>
      <circle class="cls-4" cx="1516.1688" cy="946.8043" r="25.5861"/>
      <circle class="cls-4" cx="2159.4699" cy="429.4118" r="25.5861"/>
      <circle class="cls-4" cx="2061.1518" cy="1292.3596" r="25.5861"/>
      <circle class="cls-4" cx="1608.0214" cy="1490.9069" r="14.5377"/>
      <circle class="cls-4" cx="811.2105" cy="1346.0581" r="14.5377"/>
      <circle class="cls-4" cx="1355.5791" cy="919.8506" r="14.5377"/>
      <circle class="cls-4" cx="2006.4902" cy="484.2211" r="14.5377"/>
      <circle class="cls-4" cx="616.4057" cy="1949.23" r="14.5377"/>
      <circle class="cls-4" cx="1355.5791" cy="2010.4616" r="14.5377"/>
      <circle class="cls-4" cx="2431.6576" cy="1317.9457" r="14.5377"/>
      <circle class="cls-4" cx="949.8119" cy="908.6501" r="11.2006"/>
      <circle class="cls-4" cx="1396.7924" cy="1023.6708" r="11.2006"/>
      <circle class="cls-4" cx="1738.717" cy="1198.8107" r="11.2006"/>
      <circle class="cls-4" cx="938.6113" cy="1163.1277" r="11.2006"/>
      <circle class="cls-4" cx="311.2388" cy="1608.4932" r="11.2006"/>
      <circle class="cls-4" cx="161.2219" cy="1121.1542" r="11.2006"/>
      <circle class="cls-4" cx="1541.755" cy="1050.3586" r="9.6123"/>
      <circle class="cls-4" cx="1669.8475" cy="799.8757" r="9.6123"/>
      <circle class="cls-4" cx="1857.0014" cy="535.6295" r="9.6123"/>
      <circle class="cls-4" cx="1116.3091" cy="747.7764" r="9.6123"/>
      <circle class="cls-4" cx="886.2075" cy="1280.0312" r="14.5377"/>
      <circle class="cls-4" cx="728.8681" cy="1074.5087" r="14.5377"/>
      <circle class="cls-4" cx="1321.9229" cy="1519.9823" r="14.5377"/>
      <circle class="cls-4" cx="1092.5106" cy="968.595" r="14.5377"/>
      <circle class="cls-4" cx="1160.8983" cy="871.6763" r="14.5377"/>
      <circle class="cls-4" cx="476.592" cy="548.4923" r="14.5377"/>
      <circle class="cls-4" cx="867.089" cy="1691.4406" r="14.5377"/>
      <circle class="cls-4" cx="859.7949" cy="799.8757" r="21.5464"/>
      <circle class="cls-4" cx="1237.6478" cy="893.4829" r="7.2689"/>
      <circle class="cls-4" cx="849.8832" cy="968.595" r="7.2689"/>
      <circle class="cls-4" cx="1056.1663" cy="1427.0574" r="7.2689"/>
      <circle class="cls-4" cx="1077.9728" cy="650.9005" r="14.5377"/>
      <circle class="cls-4" cx="399.943" cy="1001.0889" r="26.714"/>
      <circle class="cls-4" cx="1019.822" cy="337.6816" r="14.5377"/>
      <circle class="cls-4" cx="991.4081" cy="1021.6974" r="30.3957"/>
      <circle class="cls-4" cx="300.0382" cy="408.5409" r="30.3957"/>
      <circle class="cls-4" cx="2215.4518" cy="1838.5026" r="30.3957"/>
      <circle class="cls-4" cx="1551.3673" cy="1156.7415" r="25.8182"/>
      <circle class="cls-4" cx="1738.717" cy="684.8541" r="25.8182"/>
      <circle class="cls-4" cx="476.592" cy="1434.3263" r="25.8182"/>
      <circle class="cls-4" cx="1256.6499" cy="1010.3506" r="25.8182"/>
      <circle class="cls-4" cx="1048.8974" cy="1333.0371" r="29.0754"/>
      <circle class="cls-4" cx="2006.4902" cy="1775.979" r="29.0754"/>
      <circle class="cls-4" cx="1450.7491" cy="301.3373" r="21.8066"/>
      <circle class="cls-4" cx="1307.3852" cy="1722.2518" r="29.0754"/>
    </g>
  </g>
</svg>