<?xml version="1.0" encoding="UTF-8"?>
<svg id="Capa_2" xmlns="http://www.w3.org/2000/svg" viewBox="0 0 527.8481 530.8381">
  <defs>
    <style>
      .cls-1 {
        fill: #f47731;
      }

      .cls-2 {
        fill: #fc9b65;
      }

      .cls-3 {
        fill: #c64e12;
      }

      .cls-4 {
        fill: #e56525;
      }

      .cls-5 {
        fill: #d8601d;
      }
    </style>
  </defs>
  <g id="Capa_1-2" data-name="Capa_1">
    <g>
      <g>
        <path class="cls-2" d="M208.7102,525.8379c-5.4941,0-10.5332-.6484-15.4033-1.9834-13.5117-3.707-25.4268-13.5537-36.9502-23.0752-7.1992-5.9492-13.999-11.5693-20.7744-15.3848-7.1182-4.0156-14.5342-6.2031-21.7051-8.3184-10.7158-3.1611-21.7949-6.4297-31.584-15.6494-3.4229-3.2275-6.4814-7.1738-9.3525-12.0664-4.6064-7.8027-8.0508-16.8633-11.3809-25.626-2.8203-7.4209-5.4844-14.4307-8.7334-20.5215-.8311-1.5674-1.6689-3.0107-2.4941-4.3008-2.1045-3.2842-4.6543-6.3789-8.0234-9.7373-2.5059-2.501-5.2012-4.8818-7.8086-7.1855-8.2998-7.333-16.8828-14.915-21.2188-27.6426-6.4971-19.0615-5.0391-38.374-3.4961-58.8203.6543-8.6738,1.3311-17.6426,1.3311-26.5303,0-7.9951-1.543-16.1875-3.0342-24.1113-2.2871-12.1445-4.6514-24.7021-1.6787-37.1904,3.3066-13.877,12.6543-24.8682,21.6943-35.4971,5.9619-7.0107,11.5938-13.6328,15.4062-20.8398,4.1221-7.7949,6.6455-16.5156,9.085-24.9482,3.8408-13.2725,7.8125-26.998,18.0674-37.9307,10.4414-11.1328,26.9883-17.0049,42.9893-22.6836,10.3467-3.6719,20.1191-7.1406,27.752-11.7842,7.4971-4.5615,12.7256-10.4512,18.2617-16.6855,7.7637-8.7432,15.792-17.7842,29.8975-21.8779,3.3662-.9795,7.0605-1.4355,11.625-1.4355,2.7979,0,5.6143.1689,8.3379.333,2.709.1631,5.2676.3174,7.7939.3174,2.3184,0,4.3096-.1357,6.085-.415,5.0713-.7988,10.0146-2.4072,15.249-4.1094,7.7646-2.5254,15.7939-5.1377,24.7012-5.1377,14.2168,0,26.5713,4.8525,38.5195,9.5459,7.0225,2.7578,13.6562,5.3633,20.6719,7.0703,6.8457,1.6641,14.0879,2.2227,21.7559,2.8145,11.6621.8994,23.7197,1.8301,34.3633,6.9971,10.625,5.1699,18.3857,14.1162,25.8916,22.7666,5.0527,5.8242,9.8252,11.3252,15.3086,15.6084,6.2041,4.8506,13.1963,8.9121,19.958,12.8408,1.8291,1.0615,3.6533,2.1221,5.4619,3.1953,5.2354,3.1025,11.3408,6.8965,16.9053,11.5049,4.1816,3.4512,7.6797,7.0322,10.6875,10.9414,7.3691,9.5879,9.9678,23.623,12.4814,37.1973,1.7812,9.6182,3.4639,18.7031,6.6416,25.5527,3.2256,6.9473,8.0469,11.8838,13.1514,17.1104,6.9902,7.1572,14.2178,14.5586,16.8027,27.0186,2.2744,10.9502-.2178,23.9531-2.627,36.5264-1.6611,8.666-3.2295,16.8516-3.2295,23.9346,0,8.9727.8447,17.1396,1.6621,25.0381,1.5986,15.46,3.1094,30.0615-2.1631,47.0156-3.3496,10.7646-12.2754,20.4043-20.9072,29.7256-6.0283,6.5107-11.7227,12.6592-14.9961,18.585-.3125.5605-.6084,1.1074-.8867,1.6523l-.2158.4316c-.2676.5078-.5264,1.0166-.7666,1.5156-.293.5947-.5586,1.1553-.8154,1.7148-.3398.7354-.6553,1.4502-.9629,2.167-.4502,1.0508-.8838,2.1064-1.2979,3.1611-.4941,1.2773-.9707,2.5635-1.4268,3.8486-.6172,1.7236-1.1904,3.4307-1.8613,5.4678-.1914.5732-.3682,1.1191-.5449,1.666l-.0469.1455c-.3076.9648-.6201,1.9336-.9375,2.9043v.0166l-.377,1.1504c-.1631.4971-.3271.998-.498,1.4912-.082.2412-.1445.418-.1982.5947l-.043.1348c-.4561,1.3564-.9219,2.7119-1.4072,4.0479l-.0469.125c-.0459.1152-.0869.2256-.1221.3359l-.0723.2109c-.8164,2.2275-1.6162,4.2188-2.4443,6.0879-.1729.3926-.3584.7939-.5449,1.1963l-.0693.1494c-.2412.5244-.4951,1.0537-.7568,1.5859v.0264l-.5498,1.083c-2.9277,5.7148-6.4609,10.6475-10.8027,15.0781-8.7256,8.9004-21.0176,12.5723-32.9053,16.124-8.585,2.5654-16.6934,4.9883-23.249,9.1777-6.5762,4.207-11.8311,10.2803-17.3945,16.71-7.7891,9.0029-15.8438,18.3115-28.0469,22.5693-8.8223,3.0791-18.4551,4.5137-30.3125,4.5137-9.7451,0-19.8291-.9951-29.5811-1.958-9.7266-.96-19.7842-1.9521-29.4668-1.9521-9.0703,0-17.9287,1.7129-26.4941,3.3682-8.4082,1.626-17.1025,3.3066-25.833,3.3066Z"/>
        <path class="cls-4" d="M263.3488,10c21.166,0,38.3188,11.6846,58.0093,16.4744,18.0483,4.3867,38.7715,1.5146,55.1177,9.4519,16.4546,8.0061,26.0146,26.6541,40.3057,37.8171,8.1538,6.3733,17.2314,11.2222,25.9458,16.3958,5.6948,3.3735,11.2319,6.8848,16.2681,11.0549,3.6094,2.98,6.9634,6.3044,9.9141,10.1404,11.5664,15.0481,10.4746,44.397,18.5493,61.8057,8.2124,17.6841,25.5327,23.4575,29.5947,43.0398,3.5508,17.0938-5.96,41.2988-5.96,59.4451,0,26.8311,7.2979,46.2166-.2754,70.5691-5.2427,16.8481-27.1162,32.1914-35.5059,47.3772-.3345.6001-.6592,1.2-.9639,1.8-.0688.1277-.1279.2458-.187.3735-.2949.5608-.5806,1.1213-.8457,1.6721-.2954.5999-.5806,1.2-.856,1.7998-.354.7673-.6885,1.5247-1.0132,2.282-.4717,1.1016-.9243,2.2031-1.3569,3.3047-.5215,1.3474-1.0132,2.675-1.4854,4.0029-.6689,1.8687-1.2886,3.7275-1.8979,5.5767-.2065.6196-.4033,1.2295-.6001,1.8394-.3838,1.1997-.7671,2.3899-1.1606,3.5801-.0098.0195-.0195.0491-.0195.0786-.1968.5999-.3936,1.2097-.6001,1.8098-.0884.2556-.1772.5112-.2559.7671-.4424,1.3179-.895,2.636-1.3672,3.9341-.0884.2263-.167.4426-.2358.6589-.7178,1.9573-1.4756,3.8752-2.3213,5.7832-.1865.4231-.3833.8459-.5801,1.2688-.3838.8359-.7969,1.6721-1.2197,2.5081v.0098c-2.459,4.7998-5.5864,9.4324-9.9238,13.8582-13.7305,14.0056-38.6729,13.9761-55.2749,24.5886-16.7891,10.7402-25.2573,32.093-44.3975,38.7712-9.124,3.1846-18.7544,4.2341-28.6655,4.2341-19.1377,0-39.335-3.9097-59.0464-3.9097-18.644,0-35.4131,6.6748-52.3262,6.6748-4.6699,0-9.3477-.5083-14.0825-1.8064-20.5757-5.6455-38.3975-27.7456-56.5933-37.9941-18.3623-10.3567-37.0791-8.9009-52.3145-23.2507-3.2651-3.0786-6.0391-6.8159-8.4683-10.9568-8.1533-13.8088-12.6387-32.1421-20.0151-45.9707-.8555-1.613-1.7505-3.167-2.6948-4.6423-2.5767-4.0227-5.5571-7.4453-8.7041-10.5828-10.4258-10.406-22.6118-17.5957-27.8247-32.8997-8.9404-26.231-1.8979-54.4783-1.8979-83.7385,0-20.7527-9.4521-40.8071-4.8491-60.1436,5.0947-21.3823,26.6245-36.1943,36.6567-55.157,10.8584-20.5364,10.6123-44.9873,26.3784-61.7959,16.0415-17.1038,49.5508-21.3625,69.6938-33.6174,19.2183-11.6943,24.8936-31.6309,46.9541-38.0337,3.27-.9512,6.7119-1.2373,10.23-1.2373,5.3066,0,10.7886.6504,16.1323.6504,2.3228,0,4.6182-.1228,6.8618-.4753,13.2388-2.085,25.356-9.1863,39.1743-9.1863M263.3488,0c-9.6997,0-18.1118,2.7363-26.2476,5.3828-5.04,1.6394-9.8008,3.188-14.4824,3.9253-1.5132.2378-3.25.3535-5.3062.3535-2.376,0-4.8618-.1497-7.4937-.3081-2.7969-.1682-5.6895-.3423-8.6387-.3423-5.0493,0-9.1875.5195-13.0229,1.6353-15.4863,4.4946-24.3853,14.5168-32.2368,23.3591-5.2798,5.946-10.2666,11.5623-17.1226,15.7339-7.1919,4.3755-16.728,7.7598-26.8242,11.3428-16.5645,5.8784-33.6924,11.9573-44.9653,23.9763-11.0762,11.8088-15.2173,26.1204-19.2222,39.9607-2.479,8.5674-4.8203,16.6599-8.7026,24.002-3.5557,6.7212-9.0151,13.1401-14.7949,19.9363-9.4219,11.0784-19.165,22.5339-22.749,37.5771-3.2202,13.5266-.7554,26.6167,1.6284,39.2756,1.5161,8.0518,2.9482,15.6572,2.9482,23.1858,0,8.6997-.6699,17.5732-1.3174,26.1545-1.5132,20.0479-3.0776,40.7783,3.75,60.8101,4.7622,13.981,14.2598,22.3716,22.6396,29.7747,2.6689,2.3579,5.1895,4.5847,7.5859,6.9768,3.1123,3.1025,5.4458,5.9287,7.3477,8.8984.7529,1.1763,1.521,2.5005,2.2812,3.9341,3.1108,5.8323,5.7207,12.6982,8.4829,19.9673,3.4048,8.9583,6.9253,18.2214,11.7559,26.4026,3.0981,5.2815,6.4453,9.5903,10.2188,13.1482,10.6616,10.0417,22.3237,13.4822,33.6016,16.8091,7.2207,2.1301,14.0405,4.1421,20.6606,7.876,6.3921,3.6003,13.0259,9.0818,20.0488,14.885,11.9297,9.8579,24.2656,20.0515,38.811,24.0425,5.3091,1.4556,10.7803,2.1628,16.7285,2.1628,9.2085,0,18.1421-1.7271,26.7812-3.3972,8.7188-1.6855,16.9536-3.2776,25.5449-3.2776,9.4365,0,19.3696.9802,28.9756,1.9282,9.8721.9741,20.0806,1.9814,30.0708,1.9814,12.2661,0,22.7207-1.5676,31.9609-4.7927,13.4634-4.6975,22.3447-14.9619,30.1812-24.0183,5.3188-6.1472,10.3433-11.9536,16.3096-15.7705,5.9614-3.8105,13.7441-6.136,21.9839-8.5977,12.4951-3.7334,25.4155-7.5938,35.0435-17.4143,4.6992-4.7949,8.52-10.1262,11.6826-16.2991l1.1001-2.1472v-.0979c.103-.218.2021-.4302.2988-.6404.2212-.4753.4414-.9507.6509-1.4263.8633-1.9473,1.7031-4.0383,2.5601-6.3748l.0747-.2039.0659-.2068.022-.0547.0425-.1086.0396-.1094c.4414-1.2139.9023-2.5391,1.4497-4.1704l.041-.1216.0376-.1223c.041-.1333.0889-.2659.1348-.3992l.0024-.0066.0156-.0449c.1812-.5266.356-1.0596.5288-1.5889l.1177-.3582.498-1.519v-.0215c.2363-.7273.4702-1.4561.7046-2.1882.1797-.5569.3662-1.136.5625-1.7244.543-1.6472,1.166-3.5247,1.8262-5.3689.459-1.2903.9102-2.5076,1.3872-3.74.3877-.9871.8022-1.9966,1.2324-3.001.313-.7292.6079-1.394.9009-2.0288.2461-.5356.4922-1.0542.7471-1.572l.0195-.0398.0195-.04c.2148-.4465.4468-.9006.686-1.3552l.1187-.2251.0654-.1421.0132-.0242.0562-.1104c.2148-.4238.4634-.8872.7817-1.4583,2.9976-5.4255,8.4907-11.3574,14.3062-17.6379,9.0103-9.7302,18.3276-19.7917,22.0132-31.6365,5.5776-17.9351,4.0156-33.0327,2.3623-49.0168-.8037-7.7722-1.6353-15.8091-1.6353-24.5234,0-6.6079,1.5249-14.5662,3.1396-22.9917,2.502-13.0566,5.0894-26.5576,2.6113-38.4873-2.8813-13.8901-10.978-22.1802-18.1216-29.4946-4.7969-4.9114-9.3281-9.5505-12.1943-15.7231-2.9097-6.2732-4.5361-15.0564-6.2578-24.3552-2.6216-14.1558-5.332-28.7932-13.4326-39.3328-3.2388-4.2104-6.9917-8.0554-11.4761-11.7576-5.8242-4.8225-12.1348-8.7463-17.5381-11.9473-1.8169-1.0786-3.6577-2.1482-5.5024-3.2202-6.9175-4.019-13.4512-7.8152-19.3818-12.4504-5.104-3.9871-9.7227-9.3105-14.6123-14.9468-7.8345-9.0305-15.936-18.3687-27.4766-23.9839-11.5039-5.5859-24.0435-6.5535-36.1704-7.489-7.4604-.5757-14.5073-1.1194-20.9604-2.6877-6.6841-1.626-13.1641-4.1711-20.0249-6.8657-12.3809-4.863-25.1831-9.8916-40.3462-9.8916h0Z"/>
      </g>
      <circle class="cls-1" cx="106.9606" cy="259.9478" r="12.861"/>
      <circle class="cls-1" cx="282.7257" cy="47.6628" r="18.1988"/>
      <circle class="cls-1" cx="296.642" cy="372.1265" r="18.1988"/>
      <circle class="cls-1" cx="112.316" cy="93.5478" r="6.4305"/>
      <circle class="cls-1" cx="231.9306" cy="238.297" r="6.4305"/>
      <circle class="cls-1" cx="454.862" cy="371.6622" r="6.4305"/>
      <circle class="cls-1" cx="320.4384" cy="217.2192" r="14.6473"/>
      <circle class="cls-1" cx="383.7483" cy="455.4948" r="9.0784"/>
      <circle class="cls-1" cx="344.1641" cy="481.2585" r="9.0784"/>
      <circle class="cls-1" cx="271.5879" cy="299.947" r="11.1378"/>
      <circle class="cls-1" cx="154.1872" cy="466.6326" r="11.1378"/>
      <circle class="cls-1" cx="459.5693" cy="147.2878" r="11.1378"/>
      <circle class="cls-1" cx="182.444" cy="98.7373" r="8.5811"/>
      <circle class="cls-1" cx="493.3152" cy="221.5657" r="7.3643"/>
      <circle class="cls-1" cx="133.7147" cy="383.2643" r="11.1378"/>
      <circle class="cls-1" cx="344.1641" cy="70.4106" r="11.1378"/>
      <circle class="cls-1" cx="402.9643" cy="87.1173" r="5.5689"/>
      <circle class="cls-1" cx="263.9255" cy="495.9058" r="5.5689"/>
      <circle class="cls-1" cx="243.0684" cy="125.0121" r="11.1378"/>
      <circle class="cls-1" cx="83.6024" cy="168.3887" r="23.2871"/>
      <circle class="cls-1" cx="481.0726" cy="280.1669" r="19.7801"/>
      <circle class="cls-1" cx="53.2047" cy="330.8649" r="19.7801"/>
      <circle class="cls-1" cx="267.8213" cy="444.357" r="22.2756"/>
      <g>
        <path class="cls-5" d="M260.8078,469.2676c-6.1494,0-12.6797-1.4609-18.8418-2.957-10.71-2.6055-21.7852-5.2998-30.8955-11.4443-9.6045-6.4736-15.2891-16.6074-14.4834-25.8164.0303-.3027.0625-.6367.1123-.9717l.0322-.2129v-.0703c.459-3.1523,1.5312-6.2295,2.667-9.4863,1.0947-3.1406,2.2266-6.3877,2.8193-9.8252.2617-1.5254.4131-3.0303.4502-4.4756.0088-.1084.0127-.2168.0127-.3262.3262-11.6973-5.6133-24.2139-16.2998-34.2637v-.0605l-1-.8584c-7.3408-6.6709-15.9082-11.7949-24.1934-16.75-3.0498-1.8232-6.2031-3.71-9.2246-5.6328-8.9531-5.6973-21.4785-14.7803-26.8691-27.8271-1.375-3.3203-2.2705-6.8037-3.2178-10.4922-.8906-3.4658-1.8115-7.0498-3.1719-10.5166-2.4502-6.2432-6.1982-11.7998-9.8232-17.1738-4.0215-5.9629-7.8213-11.5947-9.9248-18.0098-9.4873-28.9375,17.4873-53.4961,46.5654-64.0684,7.5293-2.7441,15.043-4.4355,21.7305-4.8926,2.0889-.1436,4.2852-.2246,6.4102-.3027,9.8945-.3652,20.126-.7422,28.0928-7.1416,9.0166-7.2383,10.8682-18.5889,12.6582-29.5664,1.3145-8.0586,2.6738-16.3916,6.9092-22.7031,6.7383-10.0312,20.0293-13.8887,29.4404-15.916,10.0771-2.167,20.4102-3.2656,30.7109-3.2656,34.3975,0,65.0117,12.3535,83.9922,33.8936.8906,1.0098,1.7637,2.0449,2.6377,3.0801,3.5508,4.2061,7.2227,8.5557,12.1953,11.5312,5.9209,3.5449,12.627,4.5186,19.1123,5.46,4.6016.668,8.9473,1.2988,12.9893,2.7783,15.7012,5.7607,22.6504,22.8496,25.3955,32.5225.6182,2.1709,1.1445,4.3643,1.5654,6.5234,3.5605,18.0283,2.3184,35.418-3.5908,50.2949-6.5596,16.5254-18.8975,29.4717-33.8516,35.5215-6.6533,2.6953-13.916,4.0615-21.5869,4.0615-10.3711,0-21.0117-2.5117-30.7715-7.2646-14.9297-7.2715-28.7129-20.0059-39.8604-36.8252-3.7578-5.6865-7.2256-11.7969-10.5801-17.7051-6.832-11.999-13.8945-24.4043-24.1758-34.3096-13.9395-13.458-33.0605-21.1777-52.457-21.1777l-.6982.0039c-5.5312.042-10.9883.8721-15.7744,2.4014-8.1016,2.5781-14.4043,7.1455-18.2217,13.2051-.5918.9434-1.1289,1.9258-1.6006,2.9307l-.0068.0068-.1963.4238c-3.9229,8.6768-3.6709,19.8496.748,33.207.9541,2.8701,2.0254,5.7432,3.0625,8.5215,3.0986,8.3066,6.0264,16.1533,6.3027,24.4639.1641,4.9434-.6289,9.8535-1.4688,15.0518-.9775,6.0605-1.9893,12.3281-1.3643,18.7012.3633,3.6729,1.2568,7.2305,2.1221,10.6699,1.1504,4.5771,2.2373,8.9004,2.0859,13.2568-.1631,4.5449-1.6719,9.0039-3.2695,13.7246-1.998,5.9014-4.0635,12.0049-3.4316,18.5508,1.0205,10.5547,8.4072,18.498,16.5439,26.373,1.1006,1.0615,2.1299,2.042,3.0908,2.9258,8.6904,8.0098,13.2832,9.7393,25.8613,9.7393.6953,0,1.417-.0049,2.1689-.0146,1.9922-.0283,4.7305-.2422,7.6289-.4688,3.8125-.2979,8.1328-.6348,11.7129-.6348,2.2139,0,3.9209.1299,5.0762.3857,6.9775,1.5547,19.4199,10.7568,23.2383,15.4951,7.2812,9.0557,14.2139,12.9209,23.1777,12.9209,1.2129,0,2.4824-.0752,3.7734-.2246,10.3311-1.1914,15.7188-11.4502,20.0479-19.6934l.4346-.8271c10.1162-19.1855,29.4648-42.0283,53.4248-48.5938,3.0762-.8438,5.9404-1.2715,8.5146-1.2715,2.1406,0,4.1377.2959,5.9365.8789,1.3418.4346,2.6514.8271,3.9355,1.2109,4.624,1.3828,8.6172,2.5771,12.4609,5.292.1924.1357.4443.3018.7432.498,1.0967.7178,2.7549,1.8018,4.4541,3.583,3.6475,3.8037,5.627,8.874,5.8887,15.0762l.002.1943c.0303.8516.0332,1.6113.0088,2.3213-.3594,12.001-3.2578,22.1104-8.6133,30.0586-.3828.5693-.7812,1.1357-1.1973,1.6855-12.7842,17.0312-31.7432,20.6055-45.3984,20.6055-5.2656,0-10.6885-.54-16.1162-1.6064-3.5645-.7012-6.9658-2.0938-10.5674-3.5684-2.9189-1.1943-5.9365-2.4307-9.1084-3.2969-3.3438-.9102-6.8398-1.3701-10.3945-1.3701-10.9482,0-21.5586,4.292-29.1104,11.7744-3.9082,3.873-7.002,8.4951-9.9941,12.9639-4.5254,6.7607-8.7998,13.1475-15.418,16.502-3.4688,1.7549-7.4512,2.6094-12.1748,2.6094Z"/>
        <path class="cls-3" d="M281.4719,117.1533c15.9658,0,31.6055,2.7725,45.2285,8.0178,14.7119,5.6643,27.019,14.0381,36.5815,24.8896.8618.9775,1.7036,1.9746,2.5947,3.0305,3.7046,4.3892,7.5356,8.928,12.9243,12.1523,6.4229,3.8457,13.4224,4.8616,20.1914,5.844,4.4473.6455,8.6484,1.2554,12.4028,2.6292,14.4912,5.3171,21.0049,21.4441,23.6001,30.5908.5957,2.0903,1.103,4.2026,1.5107,6.2922,3.4497,17.4712,2.2593,34.2939-3.4429,48.6504-6.2676,15.7886-18.0171,28.1428-32.2383,33.896-6.3037,2.5535-13.1987,3.8481-20.4932,3.8481-9.9321,0-20.1313-2.4106-29.4951-6.9709-14.4614-7.043-27.8467-19.4275-38.7036-35.8071-3.7012-5.6023-7.1455-11.6689-10.4834-17.5471-6.9321-12.1768-14.1006-24.7678-24.6797-34.9602-14.479-13.979-34.3379-21.9963-54.4839-21.9963-.2427,0-.4829.0012-.7134.0034-4.084.0312-8.1323.4719-11.9302,1.2888,4.6353-7.1782,6.0581-15.9016,7.4458-24.4114,1.3228-8.1074,2.5718-15.7651,6.4521-21.5466,4.6816-6.97,13.4634-11.6392,27.6333-14.6936,9.877-2.1233,20.0034-3.2,30.0981-3.2M186.6384,194.7744c-.4639.623-.9033,1.2629-1.3164,1.9189-.5298.8445-1.02,1.719-1.4644,2.6108l-.0503.0479-.4722,1.0447c-4.2329,9.364-4.0186,21.2478.6392,35.3281.9692,2.9177,2.0508,5.8164,3.0967,8.6196,3.0132,8.0774,5.8599,15.7068,6.1206,23.5408.1543,4.6621-.6162,9.4375-1.4326,14.4932-1.0078,6.2434-2.0498,12.6992-1.3882,19.4529.3848,3.8853,1.3057,7.5483,2.1963,11.0908,1.0991,4.3713,2.1372,8.5002,2,12.439-.1475,4.1218-1.5903,8.3845-3.1182,12.8975-2.0962,6.1931-4.2637,12.5969-3.5713,19.7654.5103,5.2847,2.5488,10.022,5.2207,14.2039-1.1968-1.3923-2.4722-2.7512-3.8237-4.0713l-.0024-.2795-2.0488-1.6392c-7.5283-6.8142-16.1763-11.9858-24.5405-16.988-3.0327-1.8137-6.1685-3.689-9.1562-5.5906-8.6187-5.4849-20.6646-14.1978-25.7432-26.4868-1.2954-3.1277-2.165-6.5142-3.0859-10.0994-.9126-3.5515-1.856-7.2239-3.2812-10.8557-2.5674-6.5427-6.4072-12.2349-10.1201-17.7397-3.9058-5.7898-7.5947-11.2583-9.5718-17.2886-4.0718-12.4187-1.2705-24.562,8.3252-36.093,8.3955-10.0886,21.6875-18.9568,36.4717-24.3318,7.2729-2.6504,14.5103-4.2834,20.9321-4.7224,2.0425-.1409,4.1206-.2175,6.3203-.2986,4.1499-.1531,8.5317-.3147,12.8647-.9688M395.4709,356.7686c1.835,0,3.5303.2478,5.0381.7366,1.3828.4482,2.7134.8462,4,1.2307,4.3784,1.3096,8.1602,2.4404,11.6084,4.8762.2183.1548.499.3406.8325.5586.9854.6448,2.4751,1.6189,3.9546,3.1692,3.125,3.2593,4.8315,7.6724,5.0728,13.1179v.1326l.0034.1033c.0278.7805.0308,1.4744.0088,2.1396-.3379,11.2708-3.145,21.1284-8.1221,28.5142-.3906.5808-.749,1.0859-1.1133,1.5664-12.0557,16.0615-30.0713,19.4331-43.062,19.4331-5.0791,0-10.313-.522-15.5542-1.551-3.2871-.6465-6.561-1.9871-10.0273-3.4062-2.999-1.228-6.1006-2.4978-9.4487-3.4126-3.5894-.9766-7.3428-1.4717-11.1562-1.4717-1.2637,0-2.5225.0535-3.7744.1589,5.4712-4.436,9.0571-11.2644,11.9438-16.7612l.4321-.822c9.832-18.6472,28.5562-40.8247,51.6191-47.146,2.8247-.7742,5.4307-1.1665,7.7446-1.1665M197.7693,378.4324c2.5742,2.9861,5.2573,5.5825,7.5322,7.7842,1.2949,1.2495,2.2632,2.1658,3.1328,2.9656,9.1685,8.4502,14.6318,10.5134,27.8379,10.5134.7075,0,1.4419-.0051,2.2158-.0151,2.0806-.03,4.7354-.2373,7.8096-.4773,3.7588-.2935,8.019-.6262,11.4854-.6262,2.4937,0,3.7939.1724,4.4399.3154,6.2461,1.3916,18.0352,10.0481,21.6025,14.4749,4.9575,6.1653,12.0479,13.1919,23.4224,13.9453-4.0215,2.0251-7.7158,4.6531-10.9033,7.8113-4.1157,4.0789-7.292,8.8237-10.3638,13.4126-4.3076,6.4353-8.3765,12.5137-14.3125,15.5217-3.0527,1.5454-6.6055,2.2966-10.8608,2.2966-5.8276,0-12.1641-1.4199-18.1519-2.874-10.4619-2.5454-21.2798-5.1775-29.958-11.0303-8.7393-5.8909-13.9243-14.9763-13.2129-23.1013.0278-.2791.0542-.5583.0957-.8374l.064-.4285v-.0735c.4375-2.812,1.4424-5.6948,2.5049-8.7424,1.1333-3.2517,2.3052-6.6143,2.9404-10.2957.2798-1.6326.4434-3.2424.4873-4.7893.0107-.1516.0151-.2864.0161-.4019.2207-8.4758-2.5503-17.2708-7.8237-25.3481M281.4719,111.3279c-10.5605,0-21.1289,1.1387-31.3228,3.3301-11.917,2.5688-24.4453,7.0186-31.2446,17.1406-10.4082,15.5078-4.4019,39.925-18.9741,51.6228-8.8804,7.1331-21.5044,6.0254-32.8774,6.8086-6.9805.4773-14.7441,2.2249-22.5264,5.0608-29.1538,10.5996-58.6128,36.3728-48.3379,67.7131,4.2207,12.8721,14.8584,22.7366,19.8047,35.3413,2.6836,6.8372,3.6001,14.2759,6.4077,21.0559,5.2329,12.6621,16.4438,21.8198,27.998,29.1726,11.1914,7.1235,23.2329,13.1777,33.04,22.0967.0098.0095.0288.019.0288.0381.3052.2578.6108.5349.9072.8213,8.9189,8.3843,15.7271,20.1201,15.3931,32.1519,0,.0479,0,.0957-.0098.1433-.0283,1.3848-.1719,2.7693-.4106,4.1633-1.1455,6.6367-4.5356,12.7673-5.5,19.3943-.0195.0862-.0288.1721-.0288.2676-.0571.3818-.0952.7639-.1338,1.1458-.9932,11.3445,6.3213,22.1255,15.7563,28.4851,9.4438,6.3694,20.769,9.1672,31.8369,11.8601,6.3379,1.5388,13.0503,3.0391,19.5288,3.0391,4.6982,0,9.2729-.7891,13.4917-2.9246,11.9463-6.054,16.6348-20.5688,26.146-29.9939,7.0957-7.0308,17.0918-10.9314,27.0601-10.9309,3.2456,0,6.4893.4136,9.6274,1.2673,6.7798,1.8525,12.9868,5.5576,19.8813,6.9136,5.4966,1.0793,11.1084,1.6606,16.6782,1.6606,18.2822,0,36.0913-6.2668,47.7212-21.7617.4487-.592.8784-1.2031,1.2891-1.8142,6.1973-9.1958,8.7759-20.4448,9.1099-31.5886.0288-.8689.019-1.7092-.0098-2.521v-.1526c-.3438-8.4893-3.5713-13.77-6.6934-17.0261-2.3784-2.4924-4.708-3.8005-5.625-4.45-5.3662-3.791-10.9336-4.8701-17.1787-6.8945-2.2129-.7173-4.5142-1.0205-6.8345-1.0205-3.1172,0-6.2681.5471-9.2842,1.3738-23.7969,6.5222-44.0698,28.8767-55.2324,50.0471-4.2686,8.1072-9.1289,17.9333-18.2388,18.9836-1.1934.1379-2.3384.2058-3.4404.2058-8.8188,0-14.8833-4.3416-20.9102-11.8367-4.2397-5.2615-17.1597-14.7915-24.8755-16.5105-1.4922-.3308-3.478-.4546-5.7065-.4546-6.4561,0-14.9492,1.04-19.3789,1.104-.7388.0093-1.4482.0144-2.1318.0144-11.8354,0-15.8188-1.533-23.8896-8.9714-.9453-.8691-1.9575-1.8335-3.0366-2.8745-7.1333-6.9038-14.7153-14.677-15.6699-24.5603-1.0508-10.8765,6.3213-20.97,6.7129-31.894.2866-8.241-3.4092-16.1094-4.2207-24.312-1.0981-11.2012,3.2183-22.3164,2.8457-33.5654-.3916-11.7549-5.8062-22.6504-9.5112-33.804-3.3325-10.0742-5.1372-21.6287-.8594-31.092l.0098-.0093c.4585-1.022.9932-2.0247,1.604-2.9985,3.772-5.9873,9.8359-9.8167,16.6445-11.9841,4.7842-1.5278,9.9404-2.2251,14.9155-2.2632.2236-.0022.4453-.0032.6689-.0032,18.5771,0,37.0684,7.4541,50.438,20.3618,9.9312,9.5684,16.7969,21.5908,23.6631,33.6514,3.4375,6.054,6.875,12.1082,10.6851,17.876,10.3994,15.6892,24.0928,29.5928,41.0137,37.8335,9.9268,4.8347,21.0347,7.5591,32.0459,7.5591,7.7578,0,15.4692-1.3535,22.6802-4.2742,16.3101-6.5984,28.9722-20.7883,35.4658-37.146,6.4932-16.3481,7.1523-34.6636,3.7432-51.9282-.4395-2.2537-.9839-4.5168-1.6235-6.7607-4.2397-14.9446-12.8818-29.2109-27.1958-34.4629-10.2559-3.7529-22.2305-2.3875-31.6079-8.0022-5.7295-3.4282-9.7305-9.0334-14.1421-14.0374-21.2271-24.0886-53.6675-34.8804-86.1797-34.8804h0Z"/>
      </g>
    </g>
  </g>
</svg>