<?xml version="1.0" encoding="UTF-8"?>
<svg id="Capa_2" xmlns="http://www.w3.org/2000/svg" viewBox="0 0 527.8481 530.8381">
  <defs>
    <style>
      .cls-1 {
        fill: #599dd1;
      }

      .cls-2 {
        fill: #1e86c6;
      }

      .cls-3 {
        fill: #0476af;
      }

      .cls-4 {
        fill: #4291c1;
      }

      .cls-5 {
        fill: #86bfea;
      }
    </style>
  </defs>
  <g id="Capa_1-2" data-name="Capa_1">
    <g>
      <g>
        <path class="cls-5" d="M208.7111,525.838c-5.4941.0005-10.5322-.6484-15.4043-1.9839-13.5117-3.7075-25.4277-13.5537-36.9502-23.0762-7.1992-5.9487-13.999-11.5679-20.7744-15.3838-7.1182-4.0146-14.5332-6.2021-21.7041-8.3179-10.7158-3.1611-21.7959-6.4297-31.585-15.6499-3.4229-3.2271-6.4814-7.1733-9.3525-12.0659-4.6064-7.8022-8.0508-16.8633-11.3809-25.6255-2.8203-7.4214-5.4844-14.4312-8.7334-20.5225-.8311-1.5669-1.6689-3.0107-2.4941-4.3003-2.1045-3.2842-4.6543-6.3789-8.0225-9.7363-2.5068-2.502-5.2031-4.8843-7.8105-7.188-8.2998-7.3325-16.8828-14.915-21.2178-27.6411-6.4971-19.0625-5.0391-38.3745-3.4961-58.8208.6543-8.6733,1.3311-17.6421,1.3311-26.5298,0-7.9951-1.543-16.188-3.0342-24.1108-2.2871-12.1445-4.6514-24.7021-1.6787-37.1909,3.3066-13.877,12.6543-24.8682,21.6943-35.4976,5.9619-7.0107,11.5938-13.6323,15.4062-20.8398,4.1221-7.7949,6.6455-16.5146,9.085-24.9478,3.8408-13.2729,7.8125-26.998,18.0674-37.9307,10.4414-11.1328,26.9883-17.0054,42.9893-22.6841,10.3467-3.6719,20.1191-7.1396,27.752-11.7837,7.4971-4.562,12.7256-10.4507,18.2617-16.6855,7.7637-8.7437,15.792-17.7847,29.8975-21.8784,3.3662-.979,7.0605-1.4355,11.624-1.4355,2.7988,0,5.6143.1694,8.3379.333,2.709.1631,5.2676.3174,7.7939.3174,2.3184,0,4.3096-.1357,6.0859-.415,5.0713-.7988,10.0146-2.4067,15.249-4.1094,7.7646-2.5254,15.7939-5.1372,24.7012-5.1372,14.2158,0,26.5703,4.8525,38.5186,9.5449,7.0234,2.7588,13.6572,5.3643,20.6729,7.0708,6.8447,1.6636,14.0879,2.2227,21.7549,2.8145,11.6621.8994,23.7207,1.8301,34.3643,6.9985,10.626,5.1694,18.3867,14.1147,25.8916,22.7661,5.0527,5.8237,9.8252,11.3252,15.3086,15.6079,6.2012,4.8477,13.1904,8.9082,19.9492,12.835,1.832,1.0645,3.6592,2.1265,5.4717,3.2021,5.2324,3.1001,11.3359,6.8926,16.9033,11.5029,4.1846,3.4541,7.6816,7.0352,10.6885,10.9429,7.3691,9.5869,9.9678,23.623,12.4814,37.1968,1.7812,9.6187,3.4639,18.7036,6.6416,25.5537,3.2256,6.9468,8.0469,11.8828,13.1514,17.1094,6.9902,7.1572,14.2178,14.5581,16.8027,27.0186,2.2744,10.9507-.2178,23.9526-2.627,36.5269-1.6611,8.6655-3.2295,16.8511-3.2295,23.9341,0,8.9722.8447,17.1396,1.6621,25.0381,1.5986,15.4595,3.1094,30.0615-2.1631,47.0156-3.3496,10.7646-12.2754,20.4038-20.9072,29.7256-6.0283,6.5103-11.7227,12.6592-14.9961,18.585-.3115.5601-.6074,1.1055-.8857,1.6514l-.0986.1929-.0557.1201-.0615.1172c-.2676.5093-.5264,1.0181-.7676,1.5181-.292.5942-.5586,1.1538-.8154,1.7134-.3398.7368-.6562,1.4531-.9629,2.1689-.4502,1.0513-.8838,2.1074-1.2998,3.1636-.4922,1.2749-.9688,2.5601-1.4248,3.8452-.6201,1.7324-1.1924,3.4375-1.8613,5.4678-.1855.5552-.3564,1.084-.5273,1.6118l-.0645.2012c-.3076.9634-.6201,1.9326-.9375,2.9028v.0181l-.3945,1.2002c-.1562.478-.3135.9585-.4766,1.4331-.0742.2134-.1426.4077-.2021.6025l-.043.1348c-.4561,1.356-.9219,2.7114-1.4072,4.0474l-.0459.1211c-.0479.1221-.0908.2388-.1279.356l-.0674.1953c-.8184,2.2324-1.6182,4.2236-2.4443,6.0884-.1797.4077-.374.8257-.5674,1.2437l-.0488.1045c-.2393.5215-.4932,1.0503-.7549,1.582v.0264l-.5498,1.0835c-2.9287,5.7168-6.4629,10.6489-10.8027,15.0781-8.7256,8.8999-21.0176,12.5728-32.9053,16.1245-8.585,2.5649-16.6943,4.9878-23.249,9.1772-6.5762,4.207-11.8311,10.2803-17.3945,16.7104-7.7891,9.002-15.8438,18.311-28.0469,22.5688-8.8223,3.0791-18.4551,4.5132-30.3135,4.5132-9.7441,0-19.8281-.9951-29.5801-1.9575-9.7266-.9595-19.7842-1.9521-29.4668-1.9521-9.0703,0-17.9287,1.7124-26.4951,3.3682-8.4082,1.6255-17.1016,3.3062-25.8311,3.3066Z"/>
        <path class="cls-4" d="M263.3488,10c21.166,0,38.3188,11.6844,58.0098,16.4744,18.0479,4.3865,38.771,1.5146,55.1172,9.4517,16.4546,8.0061,26.0146,26.6541,40.3057,37.8173,8.1538,6.3732,17.2319,11.2222,25.9458,16.3956,5.6948,3.3735,11.2319,6.8848,16.2681,11.055,3.6094,2.9801,6.9634,6.3044,9.9141,10.1403,11.5664,15.0482,10.4746,44.3971,18.5493,61.8057,8.2129,17.6841,25.5327,23.4575,29.5947,43.0397,3.5508,17.094-5.96,41.2989-5.96,59.4453,0,26.831,7.2979,46.2166-.2754,70.5691-5.2427,16.8481-27.1162,32.1913-35.5059,47.3772-.3345.6-.6592,1.1999-.9639,1.7999-.0688.1278-.1279.2458-.187.3737-.2949.5606-.5806,1.1213-.8457,1.672-.2954.6-.5806,1.1999-.856,1.7999-.354.7672-.6885,1.5244-1.0132,2.2818-.4717,1.1015-.9243,2.2031-1.3569,3.3047-.5215,1.3474-1.0132,2.6752-1.4854,4.003-.6689,1.8686-1.2886,3.7276-1.8979,5.5766-.2065.6196-.4033,1.2294-.6001,1.8392-.3838,1.1999-.7671,2.39-1.1606,3.5802-.0098.0196-.0195.0491-.0195.0786-.1968.6-.3936,1.2097-.6001,1.8097-.0884.2557-.1772.5114-.2559.7671-.4424,1.318-.895,2.636-1.3672,3.9342-.0884.2263-.167.4426-.2358.659-.7178,1.9573-1.4751,3.8752-2.3213,5.7833-.1865.4229-.3833.8458-.5801,1.2687-.3838.836-.7969,1.672-1.2197,2.508v.0098c-2.459,4.7997-5.5864,9.4323-9.9238,13.8582-13.7305,14.0056-38.6729,13.9761-55.2749,24.5885-16.7891,10.7402-25.2573,32.0929-44.397,38.7712-9.124,3.1845-18.7549,4.2342-28.666,4.2342-19.1377,0-39.335-3.9096-59.0464-3.9096-18.644,0-35.4136,6.6748-52.3262,6.6748-4.6699,0-9.3477-.5082-14.0825-1.8063-20.5757-5.6455-38.3975-27.7456-56.5928-37.9941-18.3628-10.3567-37.0796-8.9011-52.3149-23.2509-3.2651-3.0785-6.0386-6.816-8.4683-10.9567-8.1533-13.8089-12.6382-32.1421-20.0151-45.9706-.8555-1.6131-1.7505-3.1671-2.6948-4.6424-2.5767-4.0226-5.5566-7.4455-8.7041-10.5829-10.4258-10.4058-22.6118-17.5955-27.8247-32.8995-8.9399-26.2311-1.8979-54.4784-1.8979-83.7387,0-20.7527-9.4521-40.8071-4.8491-60.1436,5.0947-21.3822,26.6245-36.1943,36.6567-55.1569,10.8584-20.5363,10.6123-44.9873,26.3784-61.7959,16.0415-17.1038,49.5508-21.3625,69.6938-33.6174,19.2183-11.6943,24.8936-31.6307,46.9541-38.0336,3.2705-.9513,6.7114-1.2374,10.23-1.2374,5.3062,0,10.79.6506,16.1328.6506,2.3228,0,4.6177-.1228,6.8613-.4753,13.2388-2.0851,25.356-9.1864,39.1743-9.1864M263.3488,0c-9.6997,0-18.1123,2.7365-26.248,5.3828-5.04,1.6395-9.8008,3.188-14.4819,3.9253-1.5132.2378-3.25.3536-5.3057.3536-2.3755,0-4.8613-.1497-7.4937-.3081-2.7974-.1683-5.6899-.3424-8.6392-.3424-5.0493,0-9.1875.5196-13.0229,1.6353-15.4863,4.4947-24.3853,14.5168-32.2368,23.3591-5.2798,5.9459-10.2666,11.5621-17.1226,15.7338-7.1919,4.3755-16.728,7.7599-26.8242,11.3428-16.5645,5.8785-33.6924,11.9571-44.9653,23.9764-11.0762,11.8087-15.2173,26.1202-19.2222,39.9605-2.479,8.5675-4.8203,16.6598-8.7026,24.002-3.5557,6.7211-9.0151,13.1402-14.7949,19.9363-9.4219,11.0783-19.165,22.534-22.749,37.5771-3.2202,13.5266-.7554,26.6166,1.6284,39.2756,1.5161,8.0518,2.9482,15.6571,2.9482,23.1857,0,8.6996-.6694,17.5732-1.3174,26.1544-1.5127,20.048-3.0771,40.7784,3.75,60.8102,4.7622,13.9812,14.2603,22.3719,22.6396,29.775,2.6689,2.3576,5.1899,4.5846,7.5859,6.9764,3.1113,3.1013,5.4448,5.9275,7.3481,8.8988.7524,1.1762,1.5205,2.5005,2.2808,3.9338,3.1113,5.833,5.7212,12.6994,8.4839,19.969,3.4043,8.9576,6.9248,18.2203,11.7549,26.4007,3.1001,5.2836,6.4473,9.5922,10.2188,13.1483,10.6616,10.0419,22.3237,13.4823,33.6021,16.8094,7.2202,2.1301,14.0405,4.1421,20.6606,7.8759,6.3916,3.6001,13.0254,9.0815,20.0479,14.8846,11.9302,9.8582,24.2661,20.0519,38.8115,24.0429,5.3086,1.4555,10.7803,2.1627,16.7285,2.1627,9.208,0,18.1416-1.7271,26.7812-3.3973,8.7188-1.6855,16.9536-3.2775,25.5449-3.2775,9.4365,0,19.3696.9802,28.9756,1.9281,9.8721.9742,20.0806,1.9815,30.0708,1.9815,12.2666,0,22.7212-1.5677,31.9614-4.7927,13.4629-4.6975,22.3442-14.9619,30.1802-24.018,5.3193-6.1474,10.3433-11.9538,16.3101-15.7708,5.9614-3.8105,13.7441-6.1358,21.9839-8.5976,12.4951-3.7332,25.4155-7.5936,35.0435-17.4142,4.6992-4.7954,8.52-10.1264,11.6826-16.2991l1.1001-2.1471v-.0981c.1025-.2164.2007-.4272.2964-.6356.2217-.4764.4429-.9532.6528-1.4296.8613-1.9426,1.7017-4.0343,2.5605-6.3763l.0752-.2044.0654-.2075.0215-.0524.0425-.1093.04-.1102c.4424-1.2155.9028-2.5406,1.4502-4.1705l.04-.1204.0376-.1214c.041-.1341.0894-.2675.1357-.4016l.002-.0059.0156-.0447c.1816-.5283.3569-1.0633.5308-1.5944l.1157-.3535.498-1.5186v-.0213c.2363-.7276.4707-1.4566.7046-2.1891.1792-.5554.3662-1.1348.5625-1.7236.5435-1.6482,1.1665-3.5264,1.8262-5.3686.4619-1.2995.9165-2.5243,1.3965-3.7642.3721-.9474.7896-1.9646,1.2231-2.9772.313-.7296.6079-1.3939.9004-2.0278.2466-.5377.4932-1.0558.748-1.574l.0195-.039.0186-.0392c.2148-.4464.4473-.9005.686-1.3549l.1201-.2279.0654-.1422.0132-.0246.0547-.1074c.2153-.4245.4639-.8878.7817-1.4582,2.998-5.4261,8.4912-11.3583,14.3071-17.6387,9.0103-9.7301,18.3271-19.7915,22.0127-31.6361,5.5776-17.9351,4.0156-33.0328,2.3623-49.0169-.8037-7.7723-1.6353-15.8092-1.6353-24.5234,0-6.608,1.5249-14.5663,3.1396-22.9917,2.502-13.0565,5.0894-26.5576,2.6113-38.4873-2.8813-13.8904-10.978-22.1806-18.1216-29.495-4.7969-4.9115-9.3276-9.5506-12.1943-15.7232-2.9097-6.2728-4.5361-15.056-6.2578-24.3549-2.6216-14.1556-5.332-28.7933-13.4326-39.3328-3.2388-4.2101-6.9917-8.0551-11.4761-11.7574-5.8242-4.8229-12.1348-8.7465-17.5381-11.9474-1.8174-1.0788-3.6582-2.1488-5.5039-3.2211-6.917-4.0187-13.4502-7.8146-19.3804-12.4496-5.104-3.9869-9.7222-9.3104-14.6118-14.9465-7.835-9.0308-15.9365-18.369-27.4771-23.9841-11.5039-5.5859-24.0435-6.5535-36.1704-7.4891-7.4604-.5757-14.5073-1.1193-20.96-2.6877-6.6846-1.626-13.1646-4.1713-20.0254-6.8659-12.3809-4.8629-25.1836-9.8914-40.3462-9.8914h0Z"/>
      </g>
      <circle class="cls-1" cx="106.9606" cy="259.9477" r="12.861"/>
      <circle class="cls-1" cx="282.7257" cy="47.6628" r="18.1988"/>
      <circle class="cls-1" cx="296.642" cy="372.1264" r="18.1988"/>
      <circle class="cls-1" cx="112.316" cy="93.5478" r="6.4305"/>
      <circle class="cls-1" cx="231.9306" cy="238.2969" r="6.4305"/>
      <circle class="cls-1" cx="454.862" cy="371.6621" r="6.4305"/>
      <circle class="cls-1" cx="320.4384" cy="217.2191" r="14.6473"/>
      <circle class="cls-1" cx="383.7483" cy="455.4947" r="9.0784"/>
      <circle class="cls-1" cx="344.1641" cy="481.2585" r="9.0784"/>
      <circle class="cls-1" cx="271.5879" cy="299.9469" r="11.1378"/>
      <circle class="cls-1" cx="154.1872" cy="466.6325" r="11.1378"/>
      <circle class="cls-1" cx="459.5693" cy="147.2877" r="11.1378"/>
      <circle class="cls-1" cx="182.444" cy="98.7373" r="8.5811"/>
      <circle class="cls-1" cx="493.3153" cy="221.5657" r="7.3643"/>
      <circle class="cls-1" cx="133.7147" cy="383.2642" r="11.1378"/>
      <circle class="cls-1" cx="344.1641" cy="70.4105" r="11.1378"/>
      <circle class="cls-1" cx="402.9644" cy="87.1172" r="5.5689"/>
      <circle class="cls-1" cx="263.9255" cy="495.9058" r="5.5689"/>
      <circle class="cls-1" cx="243.0685" cy="125.0121" r="11.1378"/>
      <circle class="cls-1" cx="83.6024" cy="168.3886" r="23.2871"/>
      <circle class="cls-1" cx="481.0726" cy="280.1668" r="19.7801"/>
      <circle class="cls-1" cx="53.2048" cy="330.8649" r="19.7801"/>
      <circle class="cls-1" cx="267.8214" cy="444.3569" r="22.2756"/>
      <g>
        <path class="cls-2" d="M260.8069,469.2676c-6.1484,0-12.6787-1.4609-18.8408-2.957-10.71-2.606-21.7861-5.3008-30.8955-11.4443-9.6045-6.4741-15.2891-16.6074-14.4834-25.8164.0312-.3047.0635-.6387.1123-.9722l.0322-.2129v-.0703c.459-3.1528,1.5312-6.229,2.667-9.4863,1.0947-3.1401,2.2266-6.3872,2.8193-9.8242.2617-1.5269.4131-3.0312.4502-4.4771.0088-.1079.0127-.2163.0127-.3252.3262-11.6968-5.6133-24.2144-16.2998-34.2642v-.0859l-1.0215-.8521c-7.3369-6.6631-15.8965-11.7812-24.1748-16.7314-3.0488-1.8237-6.2012-3.709-9.2227-5.6313-8.9521-5.6978-21.4775-14.7812-26.8682-27.8281-1.375-3.3198-2.2705-6.8032-3.2178-10.4912-.8906-3.4663-1.8115-7.0508-3.1719-10.5166-2.4502-6.2437-6.1982-11.8008-9.8232-17.1743-4.0225-5.9629-7.8213-11.5947-9.9248-18.0103-9.4873-28.9375,17.4873-53.4961,46.5654-64.0684,7.5293-2.7437,15.042-4.4351,21.7295-4.8921,2.0908-.144,4.2891-.2251,6.415-.3032,9.8926-.3652,20.123-.7422,28.0889-7.1401,9.0166-7.2388,10.8682-18.5898,12.6582-29.5674,1.3145-8.0591,2.6738-16.3926,6.9092-22.7036,6.7383-10.0308,20.0293-13.8877,29.4404-15.9165,10.0771-2.166,20.4092-3.2646,30.71-3.2646,34.3975,0,65.0127,12.3535,83.9932,33.8936.8906,1.0103,1.7637,2.0444,2.6377,3.0801,3.5508,4.2065,7.2227,8.5557,12.1953,11.5312,5.9209,3.5454,12.627,4.5186,19.1113,5.46,4.6016.6675,8.9473,1.2983,12.9902,2.7778,15.7012,5.7607,22.6504,22.8491,25.3955,32.5225.6182,2.1694,1.1445,4.3633,1.5664,6.5234,3.5596,18.0283,2.3174,35.418-3.5918,50.2954-6.5596,16.5254-18.8975,29.4722-33.8516,35.521-6.6533,2.6948-13.916,4.061-21.5879,4.0615-10.3701.0005-21.0098-2.5117-30.7695-7.2646-14.9297-7.2705-28.7129-20.0039-39.8613-36.8242-3.752-5.6787-7.2197-11.7871-10.5742-17.6938-6.8379-12.0107-13.9004-24.4155-24.1807-34.3218-13.9404-13.4575-33.0615-21.1772-52.46-21.1772l-.6963.0034c-5.5312.0425-10.9873.8726-15.7734,2.4014-8.1025,2.5791-14.4053,7.146-18.2227,13.2061-.585.9316-1.1172,1.9038-1.5869,2.8994l-.2168.4614c-3.9229,8.6768-3.6709,19.8491.748,33.2065.9541,2.8701,2.0254,5.7437,3.0625,8.5225,3.0986,8.3066,6.0264,16.1528,6.3027,24.4639.1641,4.9429-.6289,9.853-1.4688,15.0513-.9775,6.0605-1.9893,12.3276-1.3643,18.7012.3633,3.6733,1.2568,7.2305,2.1221,10.6704,1.1504,4.5767,2.2373,8.8994,2.0859,13.2563-.1631,4.5444-1.6719,9.0029-3.2695,13.7236-1.998,5.9019-4.0635,12.0049-3.4316,18.5518,1.0205,10.5552,8.4072,18.498,16.5439,26.3726,1.1006,1.062,2.1299,2.0425,3.0908,2.9258,8.6895,8.0103,13.2822,9.7402,25.8604,9.7402.6963,0,1.418-.0054,2.1699-.0146,1.9922-.0288,4.7305-.2427,7.6289-.4692,3.8125-.2974,8.1328-.6348,11.7129-.6348,2.2139,0,3.9209.1299,5.0762.3857,6.9775,1.5547,19.4199,10.7573,23.2383,15.4946,7.2812,9.0566,14.2139,12.9214,23.1777,12.9214,1.2129,0,2.4824-.0757,3.7734-.2246,10.3301-1.1909,15.7188-11.4497,20.0479-19.6929l.4346-.8276c10.1162-19.1855,29.4648-42.0278,53.4248-48.5947,3.0762-.8428,5.9414-1.2705,8.5156-1.2705,2.1396,0,4.1377.2959,5.9355.8789,1.3418.4346,2.6514.8267,3.9355,1.2104,4.624,1.3828,8.6172,2.5771,12.4609,5.292.1914.1357.4434.3018.7422.4976,1.0977.7178,2.7549,1.8027,4.4551,3.584,3.6475,3.8032,5.627,8.8735,5.8887,15.0762l.002.1938c.0303.8521.0332,1.6113.0088,2.3213-.3594,12.0015-3.2578,22.1113-8.6133,30.0586-.3828.5684-.7793,1.1338-1.1943,1.6821-12.7871,17.0347-31.7461,20.6089-45.4014,20.6089-5.2656.0005-10.6885-.54-16.1162-1.6055-3.5654-.7012-6.9668-2.0942-10.5684-3.5688-2.9189-1.1948-5.9355-2.4302-9.1064-3.2964-3.3438-.9097-6.8398-1.3706-10.3955-1.3706-10.9482,0-21.5586,4.2915-29.1104,11.7749-3.9082,3.8726-7.002,8.4941-9.9932,12.9634-4.5264,6.7612-8.8008,13.147-15.4189,16.501-3.4697,1.7563-7.4521,2.6104-12.1758,2.6104Z"/>
        <path class="cls-3" d="M281.4719,117.1533c15.9658,0,31.6055,2.7725,45.2285,8.0179,14.7119,5.6643,27.019,14.0381,36.5815,24.8897.8623.9777,1.7041,1.9752,2.5952,3.0312,3.7046,4.3891,7.5356,8.9275,12.9238,12.1514,6.4229,3.8458,13.4229,4.8618,20.1919,5.8443,4.4473.6455,8.6479,1.2552,12.4019,2.6288,14.4917,5.3172,21.0054,21.4441,23.6006,30.592.5947,2.085,1.1021,4.1971,1.5107,6.2914,3.4497,17.4711,2.2593,34.2937-3.4429,48.6502-6.2676,15.7887-18.0171,28.143-32.2383,33.8963-6.3037,2.5533-13.1987,3.8479-20.4932,3.8479-9.9321,0-20.1313-2.4105-29.4951-6.9708-14.4614-7.0431-27.8467-19.4276-38.7041-35.8073-3.7012-5.6028-7.146-11.6705-10.4829-17.547-6.9312-12.1756-14.0981-24.7657-24.6797-34.9602-14.479-13.979-34.3379-21.9964-54.4839-21.9964-.2427,0-.4829.0012-.7139.0034-4.0835.0313-8.1323.472-11.9297,1.2888,4.6353-7.1781,6.0581-15.9015,7.4458-24.4113,1.3228-8.1074,2.5718-15.7651,6.4521-21.5466,4.6821-6.9702,13.4634-11.6395,27.6333-14.6937,9.877-2.1234,20.0034-3.1999,30.0981-3.1999M186.6384,194.7743c-.4639.623-.9033,1.2632-1.3164,1.9192-.5366.8556-1.0327,1.7419-1.4819,2.6461l-.0483.0471-.4565,1.0102c-4.2329,9.3638-4.0186,21.2475.6392,35.3281.9692,2.9175,2.0508,5.8161,3.0962,8.6194,3.0137,8.0774,5.8604,15.7069,6.1211,23.541.1543,4.6622-.6162,9.4373-1.4326,14.4929-1.0078,6.2434-2.0498,12.6994-1.3882,19.453.3848,3.8853,1.3057,7.5483,2.1963,11.0908,1.0991,4.3715,2.1372,8.5005,2,12.4391-.1475,4.1219-1.5903,8.3847-3.1182,12.8977-2.0962,6.1929-4.2637,12.5967-3.5713,19.7652.5103,5.2845,2.5488,10.0222,5.2207,14.204-1.1963-1.3922-2.4722-2.7516-3.8237-4.0716l-.0024-.2779-2.0479-1.6399c-7.5283-6.8146-16.1763-11.9861-24.5405-16.9884-3.0332-1.8138-6.1694-3.6894-9.1572-5.5912-8.6187-5.4849-20.6646-14.1977-25.7432-26.4868-1.2954-3.1275-2.165-6.514-3.0859-10.0993-.9126-3.5515-1.856-7.2238-3.2812-10.8557-2.5674-6.5428-6.4072-12.2349-10.1201-17.7396-3.9058-5.7897-7.5947-11.2584-9.5718-17.2885-4.0718-12.4187-1.2705-24.5622,8.3252-36.0932,8.3955-10.0885,21.6875-18.9565,36.4717-24.3317,7.2729-2.6504,14.5103-4.2835,20.9316-4.7227,2.043-.1406,4.1206-.2172,6.3198-.2983,4.1504-.153,8.5322-.3145,12.8657-.9688M395.4709,356.7684c1.835,0,3.5303.2478,5.0381.7366,1.3833.4483,2.7134.8461,4,1.2308,4.3784,1.3094,8.1602,2.4402,11.6089,4.8765.2183.1546.4985.3402.8315.558.9858.6447,2.4756,1.6189,3.9546,3.1692,3.1255,3.2599,4.832,7.6729,5.0732,13.1175v.1333l.0034.1033c.0278.7805.0308,1.4743.0088,2.1398-.3379,11.2707-3.145,21.1284-8.1221,28.514-.3911.5816-.7495,1.0867-1.1133,1.5664-12.0557,16.0616-30.0713,19.4331-43.0615,19.4331-5.0796,0-10.3135-.5219-15.5547-1.5511-3.2871-.6465-6.561-1.987-10.0273-3.4062-2.999-1.2279-6.1006-2.4977-9.4487-3.4126-3.5894-.9764-7.3428-1.4715-11.1562-1.4717-1.2637,0-2.5225.0535-3.7744.1591,5.4712-4.4362,9.0571-11.2645,11.9438-16.7614l.4321-.8219c9.8325-18.6474,28.5566-40.8251,51.6196-47.146,2.8242-.7742,5.4302-1.1667,7.7441-1.1667M197.7688,378.4321c2.5747,2.9861,5.2578,5.5829,7.5327,7.7847,1.2983,1.2526,2.2666,2.1688,3.1328,2.9653,9.1685,8.4501,14.6318,10.5135,27.8379,10.5135.7075,0,1.4419-.0053,2.2158-.0151,2.0806-.03,4.7358-.2373,7.8101-.4774,3.7588-.2935,8.0186-.6261,11.4849-.6261,2.4941,0,3.7944.1722,4.4404.3153,6.2456,1.3915,18.0347,10.0479,21.6021,14.4749,4.9575,6.1651,12.0479,13.1917,23.4229,13.9451-4.022,2.0253-7.7163,4.6534-10.9033,7.8116-4.1162,4.0788-7.2925,8.8238-10.3643,13.4125-4.3076,6.4352-8.3765,12.5135-14.3125,15.5218-3.0527,1.5454-6.6055,2.2965-10.8608,2.2965-5.8271,0-12.1636-1.4201-18.1519-2.8739-10.4619-2.5453-21.2798-5.1774-29.958-11.0303-8.7393-5.8911-13.9243-14.9766-13.2129-23.1002.0278-.2795.0542-.5592.0957-.8387l.064-.4284v-.0734c.4375-2.8121,1.4424-5.6949,2.5049-8.7426,1.1333-3.2518,2.3052-6.6142,2.9404-10.2956.2798-1.6326.4434-3.2427.4873-4.7896.0107-.1515.0151-.2861.0161-.4015.2207-8.4758-2.5503-17.2711-7.8242-25.3485M281.4719,111.3278c-10.5605,0-21.1289,1.1387-31.3228,3.3301-11.917,2.5687-24.4453,7.0186-31.2446,17.1407-10.4082,15.5078-4.4019,39.925-18.9741,51.6227-8.8804,7.1332-21.5044,6.0255-32.8774,6.8085-6.9805.4775-14.7441,2.225-22.5264,5.0611-29.1538,10.5996-58.6128,36.3727-48.3379,67.713,4.2207,12.8722,14.8584,22.7365,19.8047,35.3413,2.6836,6.8372,3.6001,14.2759,6.4077,21.0559,5.2329,12.6621,16.4438,21.8198,27.998,29.1726,11.1914,7.1236,23.2329,13.1778,33.04,22.0967.0098.0095.0288.0191.0288.0382.3052.2578.6108.5347.9072.8212,8.9189,8.3842,15.7271,20.1201,15.3931,32.1519,0,.0478,0,.0955-.0098.1432-.0283,1.3846-.1719,2.7693-.4106,4.1634-1.1455,6.6367-4.5356,12.7672-5.5,19.3943-.0195.0859-.0288.1718-.0288.2673-.0571.3819-.0952.7639-.1338,1.146-.9932,11.3443,6.3218,22.1254,15.7563,28.485,9.4438,6.3694,20.769,9.1673,31.8369,11.8601,6.3379,1.5388,13.0508,3.039,19.5293,3.039,4.6978,0,9.2725-.789,13.4912-2.9245,11.9463-6.0542,16.6348-20.5689,26.146-29.9939,7.0957-7.031,17.0918-10.9316,27.0601-10.9312,3.2456.0001,6.4893.4137,9.6274,1.2674,6.7798,1.8526,12.9868,5.5576,19.8813,6.9136,5.4966,1.0793,11.1089,1.6606,16.6787,1.6606,18.2817,0,36.0908-6.2668,47.7207-21.7616.4487-.592.8784-1.2032,1.2891-1.8143,6.1973-9.1958,8.7759-20.4447,9.1099-31.5885.0288-.869.019-1.7093-.0098-2.521v-.1528c-.3433-8.4892-3.5713-13.7699-6.6934-17.0262-2.3779-2.4923-4.708-3.8005-5.625-4.4498-5.3662-3.791-10.9336-4.8701-17.1787-6.8945-2.2129-.7172-4.5142-1.0205-6.8345-1.0205-3.1172,0-6.2681.5473-9.2842,1.3739-23.7969,6.5221-44.0693,28.8765-55.2324,50.0471-4.2686,8.1072-9.1289,17.9332-18.2388,18.9836-1.1934.1379-2.3384.2057-3.4404.2057-8.8188,0-14.8833-4.3413-20.9102-11.8365-4.2397-5.2615-17.1597-14.7916-24.875-16.5104-1.4927-.3309-3.4775-.4547-5.707-.4547-6.4561,0-14.9492,1.0402-19.3789,1.104-.7388.0094-1.4482.0145-2.1318.0145-11.8359,0-15.8188-1.5329-23.8896-8.9716-.9453-.8689-1.9575-1.8334-3.0366-2.8744-7.1333-6.904-14.7153-14.677-15.6699-24.5603-1.0508-10.8765,6.3213-20.9699,6.7129-31.8942.2866-8.2409-3.4092-16.1094-4.2207-24.312-1.0981-11.2012,3.2183-22.3163,2.8457-33.5652-.3916-11.755-5.8062-22.6505-9.5112-33.804-3.3325-10.0743-5.1372-21.6288-.8594-31.092l.0098-.0095c.4585-1.0218.9932-2.0245,1.604-2.9985,3.772-5.9873,9.8359-9.8165,16.6445-11.9841,4.7842-1.5279,9.9404-2.225,14.9155-2.2632.2236-.0022.4453-.0032.6689-.0032,18.5771,0,37.0684,7.4542,50.438,20.3619,9.9312,9.5683,16.7974,21.5907,23.6631,33.6512,3.4375,6.0541,6.875,12.1083,10.6851,17.8759,10.3994,15.6892,24.0928,29.5928,41.0137,37.8337,9.9268,4.8347,21.0347,7.5589,32.0459,7.5589,7.7578,0,15.4692-1.3533,22.6802-4.274,16.3101-6.5984,28.9722-20.7885,35.4658-37.1462,6.4932-16.3481,7.1523-34.6634,3.7432-51.9281-.4395-2.2537-.9834-4.5168-1.6235-6.7608-4.2397-14.9444-12.8818-29.2108-27.1958-34.4629-10.2559-3.7527-22.2305-2.3873-31.6079-8.0022-5.7295-3.4281-9.7305-9.0335-14.1421-14.0372-21.2271-24.0888-53.667-34.8805-86.1797-34.8805h0Z"/>
      </g>
    </g>
  </g>
</svg>