<?xml version="1.0" encoding="UTF-8"?>
<svg id="Capa_2" xmlns="http://www.w3.org/2000/svg" viewBox="0 0 527.8479 530.8384">
  <defs>
    <style>
      .cls-1 {
        fill: #bf3441;
      }

      .cls-2 {
        fill: #ba0c1c;
      }

      .cls-3 {
        fill: #e55e6c;
      }

      .cls-4 {
        fill: #b22f3f;
      }

      .cls-5 {
        fill: #a5071b;
      }
    </style>
  </defs>
  <g id="Capa_1-2" data-name="Capa_1">
    <g>
      <g>
        <path class="cls-3" d="M208.7097,525.8379c-5.4941,0-10.5332-.6484-15.4033-1.9834-13.5107-3.707-25.4258-13.5537-36.9492-23.0752-7.1992-5.9492-14-11.5684-20.7754-15.3848-7.1182-4.0156-14.5342-6.2031-21.7051-8.3184-10.7158-3.1611-21.7949-6.4297-31.583-15.6494-3.4238-3.2285-6.4834-7.1748-9.3535-12.0664-4.6064-7.8027-8.0508-16.8633-11.3809-25.627-2.8203-7.4209-5.4844-14.4297-8.7334-20.5205-.8262-1.5596-1.6641-3.002-2.4951-4.3008-2.1016-3.2822-4.6514-6.376-8.0225-9.7373-2.5059-2.501-5.2012-4.8818-7.8086-7.1855-8.2998-7.333-16.8828-14.915-21.2188-27.6426-6.4971-19.0615-5.0391-38.374-3.4961-58.8203.6543-8.6738,1.3311-17.6426,1.3311-26.5303,0-7.9951-1.543-16.1875-3.0342-24.1104-2.2871-12.1445-4.6514-24.7021-1.6787-37.1914,3.3066-13.877,12.6543-24.8682,21.6943-35.4971,5.9619-7.0107,11.5938-13.6328,15.4062-20.8398,4.1221-7.7949,6.6455-16.5156,9.085-24.9482,3.8408-13.2725,7.8125-26.998,18.0674-37.9307,10.4414-11.1328,26.9883-17.0049,42.9893-22.6836,10.3467-3.6719,20.1182-7.1406,27.752-11.7842,7.4971-4.5615,12.7256-10.4512,18.2617-16.6855,7.7637-8.7432,15.792-17.7842,29.8975-21.8779,3.3662-.9795,7.0615-1.4355,11.625-1.4355,2.7988,0,5.6152.1689,8.3379.333,2.709.1631,5.2686.3174,7.7939.3174,2.3184,0,4.3096-.1357,6.085-.415,5.0713-.7988,10.0146-2.4072,15.249-4.1094,7.7646-2.5254,15.7939-5.1377,24.7012-5.1377,14.2168,0,26.5713,4.8525,38.5195,9.5459,7.0225,2.7578,13.6562,5.3633,20.6719,7.0703,6.8447,1.6641,14.0879,2.2227,21.7549,2.8145,11.6621.8994,23.7217,1.8301,34.3652,6.998,10.625,5.1699,18.3857,14.1152,25.8906,22.7666,5.0527,5.8232,9.8252,11.3242,15.3086,15.6074,6.2041,4.8506,13.1963,8.9121,19.958,12.8408,1.8291,1.0615,3.6533,2.1221,5.4619,3.1953,5.2334,3.1006,11.3369,6.8936,16.9043,11.5039,4.1826,3.4531,7.6807,7.0332,10.6885,10.9424,7.3691,9.5879,9.9678,23.624,12.4814,37.1973,1.7812,9.6191,3.4639,18.7041,6.6416,25.5547,3.2256,6.9453,8.0469,11.8818,13.1504,17.1084,6.9902,7.1572,14.2188,14.5576,16.8037,27.0186,2.2754,10.9512-.2168,23.9531-2.627,36.5273-1.6611,8.666-3.2295,16.8506-3.2295,23.9336,0,8.9727.8447,17.1396,1.6621,25.0381,1.5986,15.46,3.1094,30.0615-2.1631,47.0156-3.3496,10.7646-12.2754,20.4043-20.9072,29.7256-6.0283,6.5107-11.7227,12.6592-14.9961,18.585-.3115.5596-.6074,1.1055-.8857,1.6523l-.2168.4316c-.2676.5078-.5264,1.0166-.7666,1.5156-.293.5947-.5586,1.1553-.8154,1.7148-.3398.7354-.6553,1.4502-.9629,2.167-.4502,1.0508-.8828,2.1064-1.2969,3.1611-.4961,1.2803-.9717,2.5635-1.4277,3.8486-.6855,1.9121-1.3203,3.8242-1.8613,5.4678-.208.6201-.3984,1.2129-.5889,1.8057-.3105.9707-.623,1.9404-.9404,2.9102v.0127l-.3281,1.0059c-.1777.5439-.3574,1.0918-.543,1.6328-.0732.2119-.1426.4072-.2021.6035l-.042.1299c-.4551,1.3574-.9219,2.7139-1.4082,4.0508l-.0479.126c-.0479.1221-.0898.2393-.1279.3555l-.0654.1904c-.8184,2.2344-1.6182,4.2256-2.4453,6.0889-.1846.4199-.3828.8486-.582,1.2773-.2598.5654-.5225,1.1133-.7881,1.6533v.0264l-.5498,1.083c-2.9287,5.7178-6.4629,10.6494-10.8027,15.0791-8.7256,8.8994-21.0176,12.5713-32.9053,16.123-8.585,2.5654-16.6934,4.9883-23.249,9.1777-6.5762,4.207-11.8311,10.2803-17.3945,16.71-7.7891,9.0029-15.8438,18.3115-28.0469,22.5693-8.8223,3.0791-18.4541,4.5137-30.3125,4.5137-9.7441,0-19.8281-.9951-29.5801-1.958-9.7266-.96-19.7852-1.9521-29.4668-1.9521-9.0713,0-17.9287,1.7129-26.4951,3.3682-8.4082,1.626-17.1025,3.3066-25.833,3.3066Z"/>
        <path class="cls-4" d="M263.3489,10c21.1655,0,38.3188,11.6846,58.0093,16.4746,18.0479,4.3867,38.771,1.5146,55.1177,9.4517,16.4546,8.0059,26.0146,26.6538,40.3052,37.8174,8.1538,6.373,17.2319,11.2222,25.9458,16.3955,5.6948,3.3735,11.2324,6.8848,16.2681,11.0552,3.6094,2.98,6.9634,6.3042,9.9141,10.1401,11.5664,15.0483,10.4746,44.397,18.5498,61.8057,8.2124,17.6841,25.5322,23.4575,29.5947,43.0396,3.5503,17.0942-5.9604,41.2993-5.9604,59.4453,0,26.8311,7.2979,46.2168-.2754,70.5693-5.2422,16.8481-27.1162,32.1914-35.5059,47.377-.3345.6001-.6592,1.2002-.9639,1.7998-.0688.1279-.1279.2461-.187.374-.2949.5605-.5801,1.1211-.8457,1.6719-.2949.6001-.5806,1.2002-.8555,1.7998-.3545.7671-.6885,1.5244-1.0132,2.2817-.4722,1.1021-.9248,2.2036-1.3574,3.3052-.521,1.3472-1.0132,2.6748-1.4854,4.0029-.6685,1.8687-1.2881,3.7275-1.8979,5.5767-.2065.6196-.4033,1.2295-.6001,1.8389-.3833,1.2002-.7671,2.3901-1.1606,3.5801-.0098.02-.0195.0493-.0195.0791-.1968.5996-.3936,1.2095-.6001,1.8096-.0884.2559-.1768.5112-.2554.7671-.4429,1.3179-.895,2.6357-1.3672,3.9341-.0889.2266-.1675.4429-.2363.6592-.7178,1.957-1.4751,3.875-2.3208,5.7832-.187.4229-.3838.8457-.5806,1.2686-.3833.8359-.7964,1.6724-1.2197,2.5083v.0098c-2.4585,4.7998-5.5864,9.4321-9.9238,13.8579-13.73,14.0059-38.6729,13.9761-55.2749,24.5889-16.7891,10.7402-25.2573,32.0928-44.397,38.771-9.124,3.1846-18.7549,4.2344-28.666,4.2344-19.1382,0-39.335-3.9097-59.0464-3.9097-18.644,0-35.4126,6.6748-52.3257,6.6748-4.6699,0-9.3481-.5083-14.083-1.8066-20.5757-5.6455-38.3975-27.7456-56.5928-37.9941-18.3628-10.3564-37.0796-8.9009-52.3145-23.251-3.2656-3.0781-6.0391-6.8159-8.4683-10.9565-8.1538-13.8086-12.6387-32.1421-20.0151-45.9707-.856-1.6128-1.751-3.167-2.6953-4.6421-2.5767-4.0229-5.5566-7.4458-8.7041-10.583-10.4258-10.4058-22.6118-17.5957-27.8242-32.8994-8.9404-26.231-1.8984-54.4785-1.8984-83.7388,0-20.7529-9.4517-40.8071-4.8486-60.1436,5.0947-21.3823,26.6245-36.1943,36.6562-55.1567,10.8584-20.5366,10.6128-44.9873,26.3789-61.7959,16.0415-17.104,49.5508-21.3628,69.6934-33.6177,19.2188-11.6943,24.8936-31.6309,46.9546-38.0337,3.27-.9512,6.7114-1.2373,10.229-1.2373,5.3062,0,10.79.6509,16.1338.6509,2.3228,0,4.6172-.123,6.8613-.4756,13.2383-2.085,25.3555-9.1865,39.1743-9.1865M263.3489,0c-9.7002,0-18.1128,2.7363-26.2485,5.3828-5.04,1.6396-9.8003,3.188-14.4814,3.9253-1.5132.2378-3.2495.354-5.3057.354-2.376,0-4.8618-.1499-7.4941-.3086-2.7974-.168-5.6904-.3423-8.6396-.3423-5.0488,0-9.1865.5195-13.022,1.6353-15.4863,4.4946-24.3857,14.5166-32.2373,23.3589-5.2798,5.9463-10.2666,11.5625-17.1226,15.7339-7.1919,4.376-16.728,7.7603-26.8237,11.3433-16.5645,5.8784-33.6924,11.957-44.9653,23.9766-11.0762,11.8086-15.2178,26.1201-19.2227,39.9609-2.479,8.5674-4.8208,16.6592-8.7026,24.0015-3.5557,6.7212-9.0151,13.1401-14.7949,19.936-9.4219,11.0786-19.1646,22.5342-22.7485,37.5771-3.2202,13.5269-.7554,26.6167,1.6279,39.2759,1.5161,8.0518,2.9482,15.6567,2.9482,23.1855,0,8.6992-.6694,17.5728-1.3174,26.1538-1.5127,20.0483-3.0771,40.7793,3.7505,60.811,4.7617,13.981,14.2598,22.3716,22.6396,29.7749,2.6685,2.3579,5.1895,4.5845,7.5854,6.9761,3.1108,3.1006,5.4443,5.9268,7.3477,8.8989.752,1.1743,1.5205,2.4995,2.2832,3.9365,3.1094,5.8291,5.7188,12.6948,8.481,19.9634,3.4048,8.959,6.9253,18.2227,11.7563,26.4038,3.1001,5.2842,6.4478,9.5933,10.2202,13.1489,10.6602,10.041,22.3223,13.4814,33.6006,16.8086,7.2202,2.1304,14.04,4.1421,20.6602,7.876,6.3916,3.6001,13.0249,9.0811,20.0479,14.8843,11.9297,9.8584,24.2661,20.0522,38.8115,24.043,5.3091,1.4556,10.7808,2.1631,16.729,2.1631,9.208,0,18.1416-1.7271,26.7808-3.3975,8.7188-1.6855,16.9536-3.2773,25.5449-3.2773,9.436,0,19.3691.98,28.9756,1.9282,9.8721.9741,20.0801,1.9814,30.0708,1.9814,12.2666,0,22.7212-1.5679,31.9614-4.793,13.4629-4.6973,22.3442-14.9619,30.1802-24.0181,5.3193-6.147,10.3438-11.9536,16.3101-15.7705,5.9614-3.8105,13.7441-6.1362,21.9844-8.5977,12.4951-3.7334,25.4155-7.5938,35.043-17.4146,4.7007-4.7964,8.522-10.1274,11.6831-16.2993l1.0996-2.147v-.0977c.1016-.2144.1992-.4238.2944-.6313.2246-.4824.4434-.9541.6519-1.4258.8647-1.9512,1.7046-4.042,2.563-6.3833l.0752-.2046.0659-.207.0171-.0415.0454-.1152.0425-.1172c.4409-1.2124.8877-2.4976,1.4482-4.1665l.0415-.123.0381-.1235c.0439-.1431.0947-.2847.144-.4272.189-.5493.3633-1.0811.5361-1.6089l.1182-.3604.4985-1.5195v-.0225c.2368-.729.4717-1.4595.7061-2.1938l.0054-.0161c.1821-.564.3647-1.1289.5557-1.7026.5454-1.6528,1.1709-3.5376,1.8267-5.3706.4536-1.2754.9058-2.4937,1.3877-3.7407.3882-.9878.8022-1.9961,1.2314-2.9976.3184-.7422.6123-1.4048.8989-2.0244.2505-.5474.4976-1.0659.7524-1.5845l.0166-.0332.0161-.0337c.2163-.4478.4482-.9038.6885-1.3599l.1196-.228.0664-.1431.0117-.022.0547-.1074c.2139-.4209.4702-.8989.7832-1.4609,2.9976-5.4248,8.4907-11.3569,14.3062-17.6372,9.0107-9.7305,18.3276-19.792,22.0132-31.6367,5.5776-17.9351,4.0161-33.0327,2.3623-49.0171-.8037-7.772-1.6353-15.8091-1.6353-24.5234,0-6.6079,1.5249-14.5664,3.1396-22.9917,2.5024-13.0566,5.0894-26.5576,2.6118-38.4868-2.8818-13.8906-10.978-22.1807-18.1216-29.4946-4.7969-4.9116-9.3276-9.5508-12.1943-15.7236-2.9102-6.2734-4.5366-15.0566-6.2588-24.356-2.6211-14.1553-5.3315-28.7925-13.4321-39.332-3.2388-4.21-6.9917-8.0547-11.4761-11.7573-5.8218-4.8213-12.1333-8.7456-17.5381-11.9473-1.8169-1.0786-3.6572-2.1484-5.5024-3.2202-6.9175-4.019-13.4517-7.8154-19.3818-12.4507-5.1035-3.9868-9.7217-9.3101-14.6108-14.9458-7.835-9.0312-15.9365-18.3696-27.4775-23.9849-11.5039-5.5859-24.0439-6.5532-36.1704-7.4888-7.4604-.5757-14.5078-1.1191-20.9604-2.688-6.6841-1.626-13.1641-4.1709-20.0244-6.8657-12.3813-4.8628-25.1841-9.8916-40.3467-9.8916h0Z"/>
      </g>
      <circle class="cls-1" cx="106.9603" cy="259.9479" r="12.861"/>
      <circle class="cls-1" cx="282.7254" cy="47.6629" r="18.1988"/>
      <circle class="cls-1" cx="296.6417" cy="372.1265" r="18.1988"/>
      <circle class="cls-1" cx="112.3157" cy="93.5479" r="6.4305"/>
      <circle class="cls-1" cx="231.9303" cy="238.297" r="6.4305"/>
      <circle class="cls-1" cx="454.8617" cy="371.6622" r="6.4305"/>
      <circle class="cls-1" cx="320.4381" cy="217.2192" r="14.6473"/>
      <circle class="cls-1" cx="383.748" cy="455.4948" r="9.0784"/>
      <circle class="cls-1" cx="344.1638" cy="481.2586" r="9.0784"/>
      <circle class="cls-1" cx="271.5876" cy="299.9471" r="11.1378"/>
      <circle class="cls-1" cx="154.1869" cy="466.6327" r="11.1378"/>
      <circle class="cls-1" cx="459.569" cy="147.2878" r="11.1378"/>
      <circle class="cls-1" cx="182.4437" cy="98.7374" r="8.5811"/>
      <circle class="cls-1" cx="493.3149" cy="221.5658" r="7.3643"/>
      <circle class="cls-1" cx="133.7144" cy="383.2643" r="11.1378"/>
      <circle class="cls-1" cx="344.1638" cy="70.4107" r="11.1378"/>
      <circle class="cls-1" cx="402.964" cy="87.1174" r="5.5689"/>
      <circle class="cls-1" cx="263.9252" cy="495.9059" r="5.5689"/>
      <circle class="cls-1" cx="243.0681" cy="125.0122" r="11.1378"/>
      <circle class="cls-1" cx="83.6021" cy="168.3888" r="23.2871"/>
      <circle class="cls-1" cx="481.0723" cy="280.167" r="19.7801"/>
      <circle class="cls-1" cx="53.2044" cy="330.865" r="19.7801"/>
      <circle class="cls-1" cx="267.821" cy="444.357" r="22.2756"/>
      <g>
        <path class="cls-2" d="M260.8064,469.2676c-6.1484,0-12.6787-1.4609-18.8408-2.9561-10.7109-2.6064-21.7871-5.3027-30.8955-11.4453-9.6045-6.4736-15.2891-16.6074-14.4834-25.8164.0303-.2998.0625-.6328.1123-.9648l.0332-.2158v-.0811c.46-3.1494,1.5312-6.2236,2.666-9.4785,1.0947-3.1406,2.2266-6.3887,2.8193-9.8262.2637-1.5322.4141-3.0371.4502-4.4775.0088-.1074.0127-.2158.0127-.3242.3262-11.6973-5.6133-24.2139-16.2998-34.2637v-.1084l-1.0371-.8438c-7.333-6.6553-15.8867-11.7715-24.1592-16.7178-3.0488-1.8232-6.2012-3.709-9.2207-5.6309-8.9531-5.6982-21.4795-14.7812-26.8701-27.8281-1.375-3.3203-2.2705-6.8037-3.2178-10.4912-.8906-3.4658-1.8115-7.0508-3.1719-10.5166-2.4502-6.2441-6.1982-11.8008-9.8232-17.1758-4.0225-5.9619-7.8213-11.5938-9.9248-18.0088-9.4863-28.9375,17.4883-53.4961,46.5654-64.0684,7.5293-2.7441,15.043-4.4355,21.7305-4.8926,2.0889-.1445,4.2861-.2246,6.4111-.3037,9.8936-.3643,20.125-.7412,28.0918-7.1396,9.0176-7.2383,10.8682-18.5898,12.6592-29.5674,1.3145-8.0586,2.6729-16.3926,6.9082-22.7031,6.7393-10.0312,20.0303-13.8877,29.4404-15.916,10.0771-2.167,20.4102-3.2656,30.7109-3.2656,34.3975,0,65.0117,12.3535,83.9922,33.8936.8906,1.0098,1.7637,2.0449,2.6387,3.0811,3.5498,4.2061,7.2217,8.5547,12.1934,11.5303,5.9219,3.5459,12.627,4.5186,19.1123,5.46,4.6016.668,8.9473,1.2988,12.9902,2.7783,15.7012,5.7607,22.6504,22.8496,25.3955,32.5225.6182,2.1709,1.1445,4.3643,1.5654,6.5234,3.5605,18.0283,2.3184,35.418-3.5908,50.2949-6.5596,16.5254-18.8975,29.4717-33.8516,35.5215-6.6533,2.6953-13.916,4.0615-21.5869,4.0615-10.3711,0-21.0107-2.5117-30.7705-7.2646-14.9287-7.2715-28.7129-20.0049-39.8613-36.8252-3.7578-5.6875-7.2266-11.7969-10.5801-17.7051-6.832-11.999-13.8945-24.4043-24.1758-34.3096-13.9395-13.458-33.0615-21.1777-52.4609-21.1777l-.6943.0039c-5.5312.042-10.9883.8721-15.7744,2.4014-8.1016,2.5781-14.4033,7.1455-18.2217,13.2061-.5801.9248-1.1055,1.8838-1.5674,2.8594l-.0078.0078-.2285.4932c-3.9229,8.6768-3.6709,19.8496.748,33.207.9541,2.8701,2.0254,5.7432,3.0625,8.5215,3.0986,8.3066,6.0264,16.1533,6.3027,24.4639.1641,4.9434-.6289,9.8545-1.4678,15.0527-.9785,6.0605-1.9902,12.3271-1.3652,18.7002.3633,3.6738,1.2578,7.2305,2.1221,10.6699,1.1514,4.5771,2.2383,8.9004,2.0859,13.2568-.1631,4.5449-1.6719,9.0039-3.2695,13.7246-1.998,5.9014-4.0635,12.0039-3.4316,18.5508,1.0205,10.5547,8.4072,18.498,16.5439,26.373,1.1006,1.0615,2.1299,2.042,3.0908,2.9258,8.6904,8.0098,13.2832,9.7393,25.8604,9.7393.6963,0,1.418-.0049,2.1699-.0146,1.9922-.0283,4.7305-.2422,7.6289-.4688,3.8125-.2979,8.1328-.6348,11.7129-.6348,2.2139,0,3.9209.1299,5.0762.3857,6.9775,1.5547,19.4199,10.7568,23.2383,15.4941,7.2812,9.0566,14.2139,12.9219,23.1777,12.9219,1.2129,0,2.4824-.0752,3.7734-.2246,10.3311-1.1914,15.7188-11.4502,20.0479-19.6934l.4346-.8262c10.1162-19.1865,29.4648-42.0293,53.4248-48.5947,3.0762-.8438,5.9404-1.2715,8.5146-1.2715,2.1406,0,4.1377.2959,5.9365.8789,1.3418.4346,2.6523.8271,3.9365,1.2109,4.624,1.3828,8.6172,2.5771,12.46,5.292.1924.1357.4434.3018.7402.4961,1.0977.7178,2.7559,1.8018,4.457,3.585,3.6475,3.8037,5.627,8.874,5.8887,15.0762l.002.1943c.0303.8496.0332,1.6104.0098,2.3242-.3604,11.999-3.2588,22.1084-8.6143,30.0557-.3828.5703-.7803,1.1348-1.1953,1.6826-12.7861,17.0342-31.7451,20.6084-45.3994,20.6084-5.2666,0-10.6895-.54-16.1172-1.6064-3.5654-.7012-6.9678-2.0938-10.5693-3.5684-2.918-1.1943-5.9355-2.4297-9.1055-3.2959-3.3438-.9102-6.8408-1.3711-10.3955-1.3711-10.9473,0-21.5576,4.292-29.1104,11.7744-3.9082,3.873-7.002,8.4951-9.9941,12.9639-4.5254,6.7607-8.7998,13.1475-15.418,16.502-3.4688,1.7559-7.4521,2.6094-12.1758,2.6094Z"/>
        <path class="cls-5" d="M281.4724,117.1533c15.9653,0,31.605,2.7725,45.228,8.0181,14.7114,5.6641,27.0186,14.0381,36.5811,24.8896.8623.978,1.7046,1.9756,2.5962,3.0317,3.7046,4.3887,7.5352,8.9268,12.9233,12.1509,6.4229,3.8457,13.4229,4.8618,20.1919,5.8442,4.4473.6455,8.6479,1.2549,12.4014,2.6284,14.4912,5.3174,21.0059,21.4443,23.6011,30.5908.5962,2.0923,1.1035,4.2046,1.5103,6.293,3.4497,17.4707,2.2593,34.2935-3.4429,48.6499-6.2671,15.7886-18.0166,28.1431-32.2378,33.8965-6.3037,2.5532-13.1987,3.8481-20.4932,3.8481-9.9321,0-20.1318-2.4106-29.4956-6.9712-14.4614-7.043-27.8467-19.4272-38.7031-35.8071-3.7056-5.6089-7.1499-11.6753-10.4839-17.5469-6.9312-12.1758-14.0981-24.7661-24.6792-34.9604-14.4795-13.979-34.3384-21.9961-54.4834-21.9961-.2427,0-.4839.001-.7144.0034-4.0845.0312-8.1328.4717-11.9297,1.2886,4.6348-7.1782,6.0576-15.9009,7.4453-24.4106,1.3228-8.1074,2.5718-15.7656,6.4526-21.5474,4.6816-6.9707,13.4634-11.6396,27.6328-14.6934,9.8774-2.1235,20.0044-3.2002,30.0991-3.2002M186.6379,194.7744c-.4634.6226-.9023,1.2622-1.3149,1.9175-.5459.8701-1.0498,1.7715-1.5049,2.6914l-.0454.0454-.4375.9678c-4.2334,9.3647-4.019,21.2485.6392,35.3286.9692,2.917,2.0503,5.8154,3.0957,8.6182,3.0137,8.0776,5.8604,15.7075,6.1211,23.542.1543,4.6621-.6162,9.437-1.4326,14.4922-1.0078,6.2437-2.0498,12.7002-1.3872,19.4536.3843,3.8853,1.3052,7.5483,2.1953,11.0908,1.0991,4.3716,2.1372,8.5005,2,12.4395-.1475,4.1221-1.5903,8.3848-3.1182,12.8979-2.0962,6.1929-4.2637,12.5962-3.5713,19.7646.5107,5.2856,2.5503,10.0239,5.2231,14.2065-1.1973-1.3926-2.4736-2.7529-3.8262-4.0737l-.002-.2734-2.0454-1.6416c-7.5293-6.8169-16.1792-11.9897-24.5459-16.9932-3.0322-1.813-6.1675-3.688-9.1548-5.5894-8.6187-5.4849-20.6641-14.1978-25.7432-26.4868-1.2954-3.1284-2.1655-6.5156-3.0864-10.1021-.9121-3.5503-1.8555-7.2217-3.2803-10.853-2.5679-6.543-6.4072-12.2354-10.1206-17.7397-3.9058-5.79-7.5942-11.2583-9.5718-17.2886-4.0718-12.4185-1.2705-24.562,8.3257-36.0928,8.395-10.0889,21.687-18.9565,36.4712-24.332,7.2734-2.6504,14.5107-4.2832,20.9321-4.7227,2.0425-.1406,4.1206-.2173,6.3203-.2983,4.1499-.1528,8.5317-.3145,12.8647-.9688M395.47,356.7686c1.835,0,3.5303.248,5.0386.7368,1.3833.4482,2.7134.8462,4,1.231,4.3789,1.3091,8.1606,2.4399,11.6094,4.8765.2183.1543.498.3398.8306.5571.9858.645,2.4756,1.6191,3.9551,3.1699,3.1255,3.2598,4.8325,7.6729,5.0737,13.1177v.1309l.0034.1016c.0273.7852.0303,1.48.0083,2.1436-.3379,11.271-3.1445,21.1289-8.1191,28.5103-.3955.5874-.7549,1.0938-1.1162,1.5698-12.0552,16.062-30.0713,19.4331-43.062,19.4331-5.0791,0-10.313-.522-15.5542-1.5508-3.2866-.6465-6.5601-1.9868-10.0264-3.4058-2.9995-1.228-6.1011-2.498-9.4497-3.4131-3.5889-.9766-7.3423-1.4717-11.1562-1.4717-1.2637,0-2.5225.0532-3.7739.1592,5.4697-4.436,9.0566-11.2646,11.9434-16.7607l.4321-.8223c9.8325-18.6475,28.5566-40.8257,51.6191-47.1465,2.8247-.7739,5.4302-1.1665,7.7441-1.1665M197.7673,378.4302c2.5747,2.9868,5.2583,5.5845,7.5337,7.7866,1.2915,1.2461,2.2598,2.1621,3.1333,2.9648,9.168,8.4507,14.6313,10.5142,27.8374,10.5142.708,0,1.4419-.0054,2.2158-.0151,2.0806-.0298,4.7358-.2373,7.8101-.4771,3.7588-.2939,8.019-.6265,11.4854-.6265,2.4937,0,3.7939.1724,4.4399.3154,6.2456,1.3911,18.0347,10.0479,21.6021,14.4746,4.957,6.165,12.0474,13.1919,23.4224,13.9453-4.022,2.0254-7.7158,4.6533-10.9033,7.8115-4.1157,4.0786-7.292,8.8232-10.3633,13.4121-4.3076,6.4355-8.377,12.5142-14.3125,15.5225-3.0527,1.5449-6.6055,2.2964-10.8608,2.2964-5.8281,0-12.1646-1.4204-18.1519-2.874-10.4624-2.5459-21.2808-5.1782-29.958-11.0303-8.7266-5.8823-13.9092-14.9507-13.2119-23.1113.0273-.2754.0532-.5518.0942-.8271l.064-.4287v-.0737c.4375-2.812,1.4424-5.6953,2.5049-8.7432,1.1333-3.2515,2.3052-6.6138,2.9414-10.2969.2788-1.6328.4424-3.2422.4863-4.7876.0107-.1514.0151-.2856.0161-.4014.2212-8.4771-2.5498-17.272-7.8252-25.3506M281.4724,111.3281c-10.5605,0-21.1294,1.1387-31.3232,3.3301-11.9175,2.5684-24.4458,7.0186-31.2446,17.1406-10.4087,15.5078-4.4023,39.9248-18.9741,51.6226-8.8809,7.1333-21.5049,6.0254-32.8779,6.8086-6.9805.4775-14.7437,2.2251-22.5264,5.061-29.1533,10.5996-58.6128,36.3726-48.3379,67.7129,4.2212,12.8721,14.8584,22.7363,19.8052,35.3413,2.6831,6.8374,3.5996,14.2759,6.4077,21.0562,5.2329,12.6621,16.4434,21.8193,27.9976,29.1724,11.1919,7.1235,23.2334,13.1777,33.04,22.0967.0098.0098.0288.019.0288.0381.3057.2578.6113.5347.9072.8213,8.9189,8.3843,15.7275,20.1201,15.3931,32.1519,0,.0479,0,.0957-.0098.1436-.0283,1.3843-.1719,2.769-.4102,4.1631-1.146,6.6367-4.5361,12.7676-5.5005,19.3945-.019.0859-.0288.1719-.0288.2676-.0571.3818-.0952.7637-.1333,1.1455-.9932,11.3447,6.3213,22.1255,15.7559,28.4854,9.4438,6.3691,20.7695,9.167,31.8369,11.8599,6.3379,1.5391,13.0508,3.0391,19.5293,3.0391,4.6982,0,9.2729-.7891,13.4917-2.9243,11.9458-6.0542,16.6348-20.5688,26.1455-29.9941,7.0957-7.0308,17.0918-10.9316,27.0601-10.9312,3.2456,0,6.4893.4141,9.6274,1.2676,6.7803,1.8525,12.9873,5.5576,19.8813,6.9136,5.4966,1.0791,11.1084,1.6606,16.6782,1.6606,18.2822,0,36.0913-6.2666,47.7212-21.7617.4487-.5918.8784-1.2031,1.2896-1.814,6.1973-9.1958,8.7754-20.4448,9.1094-31.5889.0288-.8687.019-1.709-.0093-2.521v-.1528c-.3438-8.4888-3.5718-13.7695-6.6938-17.0259-2.3779-2.4922-4.708-3.8008-5.6245-4.4497-5.3667-3.791-10.9341-4.8701-17.1792-6.8945-2.2129-.7173-4.5142-1.0205-6.835-1.0205-3.1167,0-6.2676.5469-9.2837,1.3735-23.7964,6.522-44.0693,28.8765-55.2324,50.0474-4.2686,8.1069-9.1289,17.9331-18.2388,18.9834-1.1938.1382-2.3384.2056-3.4409.2056-8.8174,0-14.8828-4.3413-20.9097-11.8364-4.2397-5.2612-17.1597-14.7915-24.875-16.5103-1.4922-.3306-3.478-.4546-5.7065-.4546-6.4561,0-14.9492,1.04-19.3794,1.104-.7388.0093-1.4478.0146-2.1318.0146-11.8354,0-15.8188-1.5332-23.8892-8.9722-.9453-.8687-1.958-1.833-3.0371-2.874-7.1328-6.9043-14.7148-14.6772-15.6699-24.5605-1.0503-10.8765,6.3213-20.9697,6.7129-31.894.2866-8.2407-3.4087-16.1094-4.2202-24.312-1.0986-11.2012,3.2178-22.3164,2.8452-33.5654-.3916-11.7549-5.8057-22.6504-9.5107-33.8037-3.333-10.0742-5.1377-21.6289-.8594-31.0923l.0093-.0093c.4585-1.022.9932-2.0244,1.6045-2.9985,3.7715-5.9873,9.8354-9.8164,16.644-11.9839,4.7842-1.5283,9.9404-2.2251,14.9155-2.2632.2236-.002.4463-.0034.6699-.0034,18.5771,0,37.0674,7.4541,50.4375,20.3618,9.9307,9.5684,16.7969,21.5908,23.6626,33.6514,3.4375,6.0542,6.8755,12.1084,10.6855,17.876,10.3989,15.689,24.0923,29.5928,41.0132,37.8335,9.9272,4.835,21.0352,7.5591,32.0464,7.5591,7.7578,0,15.4692-1.353,22.6802-4.2739,16.3096-6.5986,28.9722-20.7886,35.4653-37.1465,6.4932-16.3481,7.1523-34.6631,3.7432-51.9277-.439-2.2539-.9834-4.5171-1.623-6.7612-4.2402-14.9443-12.8818-29.2104-27.1963-34.4629-10.2554-3.7524-22.2305-2.3872-31.6074-8.002-5.7295-3.4282-9.7305-9.0332-14.1426-14.0371-21.2271-24.0889-53.6665-34.8804-86.1787-34.8804h0Z"/>
      </g>
    </g>
  </g>
</svg>