<?xml version="1.0" encoding="UTF-8"?>
<svg id="Capa_2" xmlns="http://www.w3.org/2000/svg" viewBox="0 0 527.8478 530.8381">
  <defs>
    <style>
      .cls-1 {
        fill: #70569b;
      }

      .cls-2 {
        fill: #604593;
      }

      .cls-3 {
        fill: #47327c;
      }

      .cls-4 {
        fill: #a486ce;
      }

      .cls-5 {
        fill: #8566b2;
      }
    </style>
  </defs>
  <g id="Capa_1-2" data-name="Capa_1">
    <g>
      <g>
        <path class="cls-4" d="M208.7108,525.838c-5.4941.0005-10.5322-.6484-15.4043-1.9839-13.5107-3.7075-25.4268-13.5537-36.9502-23.0757-7.1992-5.9492-13.999-11.5684-20.7744-15.3843-7.1182-4.0146-14.5332-6.2026-21.7051-8.3179-10.7148-3.1611-21.7949-6.4302-31.584-15.6499-3.4229-3.2271-6.4814-7.1733-9.3525-12.0659-4.6064-7.8022-8.0508-16.8633-11.3809-25.6255-2.8203-7.4214-5.4844-14.4312-8.7334-20.5225-.8281-1.5615-1.665-3.0049-2.4941-4.2998-2.1045-3.2847-4.6543-6.3789-8.0234-9.7378-2.5059-2.5015-5.2021-4.8833-7.8096-7.1865-8.2998-7.3325-16.8828-14.915-21.2178-27.6416-6.4971-19.0625-5.0391-38.3745-3.4961-58.8208.6543-8.6733,1.3311-17.6421,1.3311-26.5303,0-7.9951-1.543-16.1875-3.0342-24.1104-2.2871-12.1445-4.6514-24.7026-1.6787-37.1914,3.3066-13.877,12.6543-24.8682,21.6943-35.4976,5.9619-7.0103,11.5938-13.6323,15.4062-20.8394,4.1221-7.7949,6.6455-16.5146,9.085-24.9478,3.8408-13.2729,7.8125-26.998,18.0674-37.9307,10.4414-11.1333,26.9883-17.0059,42.9902-22.6846,10.3457-3.6719,20.1182-7.1396,27.751-11.7837,7.4971-4.562,12.7256-10.4507,18.2617-16.6855,7.7637-8.7432,15.792-17.7842,29.8975-21.8779,3.3662-.979,7.0605-1.4355,11.624-1.4355,2.7988,0,5.6143.1694,8.3379.333,2.709.1631,5.2676.3174,7.7939.3174,2.3184,0,4.3096-.1357,6.0859-.415,5.0713-.7988,10.0146-2.4067,15.249-4.1094,7.7646-2.5254,15.7939-5.1372,24.7012-5.1372,14.2158,0,26.5703,4.8525,38.5186,9.5449,7.0234,2.7588,13.6572,5.3643,20.6729,7.0708,6.8447,1.6641,14.0879,2.2227,21.7559,2.8145,11.6621.8994,23.7207,1.8301,34.3633,6.998,10.625,5.1694,18.3867,14.1152,25.8916,22.7661,5.0527,5.8242,9.8252,11.3257,15.3086,15.6084,6.2021,4.8486,13.1924,8.9097,19.9531,12.8369,1.8301,1.0635,3.6562,2.1245,5.4678,3.1997,5.2324,3.1001,11.3369,6.8931,16.9043,11.5034,4.1826,3.4541,7.6807,7.0347,10.6875,10.9424,7.3691,9.5874,9.9678,23.623,12.4814,37.1968,1.7812,9.6187,3.4639,18.7036,6.6416,25.5537,3.2256,6.9463,8.0469,11.8828,13.1504,17.1094,6.9902,7.1572,14.2188,14.5581,16.8037,27.019,2.2744,10.9507-.2178,23.9526-2.627,36.5269-1.6611,8.6655-3.2295,16.8511-3.2295,23.9341,0,8.9722.8447,17.1396,1.6621,25.0381,1.5986,15.4595,3.1094,30.0615-2.1631,47.0156-3.3496,10.7646-12.2754,20.4038-20.9072,29.7256-6.0283,6.5103-11.7227,12.6592-14.9961,18.585-.3125.5605-.6074,1.106-.8857,1.6514l-.2168.4321c-.2676.5083-.5264,1.0166-.7666,1.5161-.292.5942-.5586,1.1538-.8154,1.7134-.3398.7368-.6562,1.4531-.9629,2.1689-.4502,1.0513-.8838,2.1074-1.2998,3.1636-.4922,1.2744-.9688,2.5601-1.4248,3.8452-.6201,1.7324-1.1924,3.4375-1.8613,5.4678-.208.6211-.3984,1.2134-.5889,1.8062-.3105.9707-.623,1.9404-.9404,2.9097v.0181l-.3926,1.1958c-.1572.4795-.3145.9619-.4785,1.4385-.0752.2158-.1436.4097-.2031.6035l-.042.1318c-.4561,1.3564-.9219,2.7124-1.4072,4.0483l-.0459.1211c-.0479.1221-.0908.2388-.1279.356l-.0674.1953c-.8184,2.2324-1.6182,4.2236-2.4443,6.0884-.1826.4141-.3789.8379-.5762,1.2612-.2646.5757-.5283,1.127-.7949,1.6685v.0269l-.5498,1.0835c-2.9297,5.7178-6.4629,10.6499-10.8027,15.0781-8.7256,8.8999-21.0176,12.5728-32.9053,16.1245-8.585,2.5649-16.6943,4.9878-23.249,9.1772-6.5762,4.207-11.8311,10.2803-17.3945,16.71-7.7891,9.0024-15.8438,18.311-28.0469,22.5688-8.7012,3.0371-18.6172,4.5137-30.3135,4.5137-9.7441,0-19.8281-.9951-29.5801-1.9575-9.7266-.9595-19.7842-1.9521-29.4658-1.9521-9.0713,0-17.9297,1.7124-26.4961,3.3687-8.4082,1.625-17.1016,3.3057-25.8311,3.3062Z"/>
        <path class="cls-1" d="M263.349,10c21.1655,0,38.3184,11.6844,58.0093,16.4742,18.0479,4.3867,38.771,1.5148,55.1177,9.4519,16.4546,8.006,26.0146,26.6539,40.3052,37.8171,8.1538,6.3734,17.2319,11.2223,25.9458,16.3956,5.6948,3.3735,11.2324,6.8849,16.2681,11.0551,3.6094,2.9801,6.9634,6.3044,9.9141,10.1403,11.5664,15.0482,10.4746,44.3971,18.5493,61.8058,8.2129,17.6841,25.5327,23.4574,29.5947,43.0397,3.5508,17.094-5.96,41.299-5.96,59.4453,0,26.8311,7.2979,46.2166-.2754,70.5691-5.2422,16.848-27.1162,32.1913-35.5059,47.3771-.3345.6001-.6592,1.2-.9639,1.7999-.0688.1279-.1279.2458-.187.3738-.2949.5607-.5801,1.1212-.8457,1.672-.2954.6-.5806,1.2-.856,1.7999-.354.7671-.6885,1.5245-1.0127,2.2817-.4722,1.1017-.9248,2.2032-1.3574,3.3048-.5215,1.3474-1.0132,2.6752-1.4854,4.0029-.6685,1.8688-1.2881,3.7277-1.8979,5.5767-.2065.6196-.4033,1.2295-.6001,1.8392-.3838,1.2-.7671,2.39-1.1606,3.5801-.0098.0197-.0195.0492-.0195.0787-.1968.6-.3936,1.2097-.6001,1.8097-.0884.2557-.1768.5115-.2559.7671-.4424,1.318-.895,2.636-1.3667,3.9342-.0889.2263-.1675.4426-.2363.6591-.7178,1.9572-1.4751,3.8751-2.3213,5.7832-.1865.423-.3833.8458-.5801,1.2688-.3838.8359-.7969,1.672-1.2197,2.5079v.0099c-2.4585,4.7997-5.5864,9.4321-9.9238,13.8582-13.73,14.0056-38.6729,13.9761-55.2749,24.5885-16.7891,10.7402-25.2573,32.0929-44.397,38.7711-9.124,3.1846-18.7549,4.2343-28.666,4.2343-19.1377,0-39.335-3.9097-59.0464-3.9097-18.644,0-35.4136,6.6749-52.3262,6.6749-4.6699,0-9.3477-.5083-14.0825-1.8064-20.5757-5.6455-38.3975-27.7456-56.5928-37.9941-18.3628-10.3567-37.0796-8.9011-52.3149-23.251-3.2651-3.0785-6.0386-6.8159-8.4683-10.9567-8.1533-13.8088-12.6382-32.1421-20.0151-45.9707-.8555-1.613-1.7505-3.167-2.6948-4.6423-2.5767-4.0226-5.5566-7.4454-8.7041-10.5829-10.4258-10.4058-22.6118-17.5955-27.8247-32.8994-8.9399-26.2311-1.8979-54.4784-1.8979-83.7386,0-20.7528-9.4517-40.8071-4.8491-60.1437,5.0947-21.3821,26.6245-36.1942,36.6567-55.1569,10.8584-20.5364,10.6123-44.9873,26.3789-61.7959,16.0415-17.1039,49.5508-21.3625,69.6934-33.6174,19.2183-11.6943,24.8936-31.6307,46.9546-38.0336,3.2705-.9513,6.7114-1.2373,10.23-1.2373,5.3057,0,10.7891.6505,16.1323.6505,2.3223,0,4.6177-.1229,6.8613-.4755,13.2388-2.0851,25.356-9.1863,39.1748-9.1863M263.349,0c-9.7002,0-18.1128,2.7365-26.2485,5.3827-5.04,1.6395-9.8008,3.1881-14.4819,3.9253-1.5132.2379-3.25.3536-5.3057.3536-2.3755,0-4.8618-.1497-7.4937-.308-2.7974-.1683-5.6899-.3424-8.6387-.3424-5.0493,0-9.1875.5197-13.0229,1.6354-15.4863,4.4946-24.3857,14.5167-32.2373,23.3591-5.2798,5.9458-10.2671,11.5619-17.1226,15.7336-7.1919,4.3756-16.728,7.7599-26.8242,11.3429-16.564,5.8784-33.6919,11.957-44.9648,23.9764-11.0767,11.8086-15.2178,26.1204-19.2227,39.9611-2.479,8.5673-4.8208,16.6594-8.7026,24.0015-3.5557,6.7211-9.0151,13.1403-14.7949,19.9363-9.4219,11.0784-19.165,22.5339-22.749,37.5769-3.2197,13.5267-.7549,26.6166,1.6284,39.2754,1.5161,8.0519,2.9482,15.6573,2.9482,23.1862,0,8.6996-.6694,17.573-1.3174,26.1542-1.5127,20.0481-3.0771,40.7787,3.75,60.8105,4.7622,13.9811,14.2603,22.3718,22.6401,29.7748,2.6685,2.3578,5.1895,4.5846,7.5854,6.9763,3.1108,3.1011,5.4443,5.9274,7.3481,8.8989.7529,1.1769,1.521,2.5015,2.2808,3.9337,3.1118,5.833,5.7212,12.6995,8.4839,19.9689,3.4043,8.9578,6.9248,18.2205,11.7549,26.4009,3.1001,5.2837,6.4473,9.5922,10.2188,13.1483,10.6616,10.0419,22.3237,13.4823,33.6021,16.8094,7.2207,2.1301,14.0405,4.1421,20.6606,7.8759,6.3916,3.6001,13.0249,9.0815,20.0479,14.8846,11.9297,9.8582,24.2661,20.0519,38.8115,24.0428,5.3086,1.4556,10.7803,2.1628,16.7285,2.1628,9.208,0,18.1416-1.7272,26.7812-3.3973,8.7188-1.6855,16.9536-3.2776,25.5449-3.2776,9.436,0,19.3696.9802,28.9756,1.9281,9.8721.9741,20.0801,1.9816,30.0708,1.9816,12.2666,0,22.7212-1.5677,31.9614-4.7927,13.4629-4.6976,22.3442-14.9619,30.1802-24.0181,5.3193-6.1473,10.3438-11.9537,16.3101-15.7708,5.9614-3.8105,13.7441-6.1357,21.9839-8.5975,12.4951-3.7333,25.416-7.5936,35.0435-17.4143,4.7007-4.7968,8.522-10.1281,11.6831-16.2997l1.0996-2.1469v-.0977c.1064-.2246.2085-.4432.3076-.6594.2109-.4535.4316-.9301.6421-1.4066.8604-1.9402,1.7007-4.0316,2.5601-6.3749l.0752-.2052.0659-.2083.0156-.0365.0464-.118.0435-.1191c.4424-1.2177.9023-2.5419,1.4482-4.1676l.0376-.1127.0352-.1136c.0474-.1523.1016-.3043.1543-.4568.186-.54.3613-1.0759.5356-1.6079l.1147-.3502.498-1.5189v-.0217c.2363-.7277.4707-1.4569.7051-2.1896.1787-.5542.3657-1.134.562-1.723.5454-1.6532,1.1714-3.5382,1.8267-5.3707.4614-1.2976.916-2.5223,1.3955-3.7618.3735-.9504.791-1.9668,1.2231-2.9745.313-.7308.6069-1.3939.9009-2.0311.2466-.5369.4927-1.0547.7476-1.5724l.0181-.0366.0176-.0366c.2168-.4486.4492-.905.6895-1.3617l.1196-.2275.0645-.14.0137-.0253.0552-.1085c.2148-.4235.4639-.887.7822-1.4587,2.9976-5.4254,8.4907-11.3575,14.3066-17.6381,9.0103-9.7301,18.3271-19.7916,22.0127-31.6364,5.5776-17.9349,4.0161-33.0326,2.3623-49.0167-.8037-7.7722-1.6353-15.8092-1.6353-24.5234,0-6.608,1.5249-14.5662,3.1396-22.9916,2.502-13.0566,5.0894-26.5579,2.6113-38.4875-2.8813-13.8903-10.978-22.1805-18.1216-29.4949-4.7969-4.9114-9.3281-9.5505-12.1943-15.7231-2.9097-6.2728-4.5361-15.056-6.2578-24.355-2.6216-14.1556-5.332-28.7932-13.4326-39.3328-3.2388-4.21-6.9917-8.0548-11.4761-11.7573-5.8228-4.8221-12.1338-8.7462-17.5381-11.9476-1.8169-1.0787-3.6577-2.1484-5.5029-3.2205-6.9175-4.0189-13.4512-7.8149-19.3813-12.4501-5.1035-3.9868-9.7217-9.3102-14.6113-14.9462-7.8345-9.0309-15.936-18.3694-27.4771-23.9845-11.5039-5.5858-24.0439-6.5533-36.1704-7.489-7.4609-.5757-14.5078-1.1194-20.9604-2.6879-6.6846-1.626-13.165-4.1713-20.0259-6.8658-12.3804-4.8628-25.1831-9.8912-40.3452-9.8912h0Z"/>
      </g>
      <circle class="cls-5" cx="106.9603" cy="259.9477" r="12.861"/>
      <circle class="cls-5" cx="282.7255" cy="47.6627" r="18.1988"/>
      <circle class="cls-5" cx="296.6417" cy="372.1264" r="18.1988"/>
      <circle class="cls-5" cx="112.3157" cy="93.5477" r="6.4305"/>
      <circle class="cls-5" cx="231.9304" cy="238.2968" r="6.4305"/>
      <circle class="cls-5" cx="454.8617" cy="371.6621" r="6.4305"/>
      <circle class="cls-5" cx="320.4382" cy="217.2191" r="14.6473"/>
      <circle class="cls-5" cx="383.7481" cy="455.4947" r="9.0784"/>
      <circle class="cls-5" cx="344.1638" cy="481.2584" r="9.0784"/>
      <circle class="cls-5" cx="271.5876" cy="299.9469" r="11.1378"/>
      <circle class="cls-5" cx="154.1869" cy="466.6325" r="11.1378"/>
      <circle class="cls-5" cx="459.569" cy="147.2877" r="11.1378"/>
      <circle class="cls-5" cx="182.4438" cy="98.7372" r="8.5811"/>
      <circle class="cls-5" cx="493.315" cy="221.5656" r="7.3643"/>
      <circle class="cls-5" cx="133.7144" cy="383.2642" r="11.1378"/>
      <circle class="cls-5" cx="344.1638" cy="70.4105" r="11.1378"/>
      <circle class="cls-5" cx="402.9641" cy="87.1172" r="5.5689"/>
      <circle class="cls-5" cx="263.9253" cy="495.9057" r="5.5689"/>
      <circle class="cls-5" cx="243.0682" cy="125.012" r="11.1378"/>
      <circle class="cls-5" cx="83.6022" cy="168.3886" r="23.2871"/>
      <circle class="cls-5" cx="481.0724" cy="280.1668" r="19.7801"/>
      <circle class="cls-5" cx="53.2045" cy="330.8648" r="19.7801"/>
      <circle class="cls-5" cx="267.8211" cy="444.3569" r="22.2756"/>
      <g>
        <path class="cls-2" d="M260.8065,469.2672c-6.1484,0-12.6787-1.4604-18.8408-2.9565-10.71-2.6055-21.7852-5.3003-30.8955-11.4448-9.6045-6.4736-15.2891-16.6069-14.4834-25.8159.0303-.2988.0625-.6323.1123-.9653l.0332-.2158v-.0806c.46-3.1499,1.5312-6.2241,2.666-9.4785,1.0947-3.1406,2.2266-6.3882,2.8193-9.8257.2617-1.5264.4131-3.0303.4502-4.4756.0088-.1084.0127-.2173.0127-.3267.3262-11.6973-5.6133-24.2148-16.2998-34.2642v-.0859l-1.0215-.8521c-7.3359-6.6616-15.8926-11.7793-24.1689-16.729-3.0508-1.8242-6.2051-3.7109-9.2266-5.6343-8.9531-5.6968-21.4785-14.7793-26.8701-27.8276-1.375-3.3198-2.2705-6.8037-3.2178-10.4917-.8906-3.4663-1.8115-7.0503-3.1719-10.5161-2.4492-6.2437-6.1982-11.8003-9.8232-17.1738-4.0215-5.9629-7.8213-11.5952-9.9248-18.0112-9.4863-28.937,17.4883-53.4956,46.5654-64.0679,7.5283-2.7432,15.042-4.4351,21.7305-4.8926,2.0898-.1436,4.2871-.2246,6.4121-.3032,9.8936-.3647,20.124-.7417,28.0908-7.1401,9.0176-7.2383,10.8682-18.5898,12.6592-29.5674,1.3145-8.0591,2.6729-16.3921,6.9082-22.7031,6.7383-10.0308,20.0293-13.8877,29.4404-15.9165,10.0771-2.166,20.4092-3.2646,30.71-3.2646,34.3975,0,65.0127,12.3535,83.9932,33.8936.8906,1.0098,1.7637,2.0444,2.6377,3.0801,3.5508,4.2061,7.2227,8.5557,12.1953,11.5308,5.9209,3.5459,12.627,4.519,19.1123,5.4604,4.6006.668,8.9473,1.2983,12.9893,2.7778,15.7012,5.7607,22.6504,22.8491,25.3955,32.5225.6182,2.1704,1.1445,4.3643,1.5654,6.5234,3.5605,18.0283,2.3184,35.418-3.5908,50.2954-6.5596,16.5254-18.8975,29.4722-33.8516,35.521-6.6533,2.6948-13.916,4.061-21.5879,4.0615-10.3701.0005-21.0098-2.5117-30.7695-7.2646-14.9297-7.271-28.7139-20.0049-39.8613-36.8242-3.7539-5.6816-7.2236-11.793-10.5791-17.7036-6.833-12.0024-13.8965-24.4087-24.1768-34.312-13.9395-13.4575-33.0596-21.1772-52.457-21.1772l-.6982.0034c-5.5312.0425-10.9873.8726-15.7734,2.4014-8.1025,2.5791-14.4053,7.146-18.2227,13.2056-.5811.9263-1.1055,1.8848-1.5674,2.8594l-.0078.0078-.2285.4941c-3.9229,8.6763-3.6709,19.8486.748,33.2065.9541,2.8701,2.0254,5.7427,3.0625,8.5215,3.0986,8.3066,6.0264,16.1533,6.3027,24.4648.1641,4.9429-.6289,9.8535-1.4678,15.0522-.9785,6.0601-1.9902,12.3267-1.3652,18.6997.3633,3.6733,1.2568,7.23,2.1221,10.6699,1.1514,4.5767,2.2383,8.8999,2.0859,13.2563-.1631,4.5449-1.6719,9.0039-3.2695,13.7246-1.998,5.9019-4.0635,12.0049-3.4316,18.5518,1.0205,10.5552,8.4072,18.498,16.5439,26.3726,1.1006,1.062,2.1299,2.0425,3.0908,2.9258,8.6914,8.0103,13.2842,9.7402,25.8613,9.7402.6953,0,1.417-.0054,2.1689-.0146,1.9922-.0288,4.7305-.2427,7.6289-.4692,3.8125-.2974,8.1328-.6348,11.7129-.6348,2.2139,0,3.9209.1299,5.0762.3857,6.9775,1.5542,19.4199,10.7568,23.2383,15.4941,7.2812,9.0566,14.2129,12.9219,23.1768,12.9219,1.2129,0,2.4834-.0757,3.7754-.2251,10.3301-1.1909,15.7178-11.4497,20.0469-19.6929l.4346-.8271c10.1162-19.1855,29.4648-42.0278,53.4248-48.5947,3.0762-.8428,5.9414-1.2705,8.5156-1.2705,2.1396,0,4.1377.2959,5.9355.8789,1.3418.4346,2.6514.8267,3.9355,1.2104,4.624,1.3828,8.6172,2.5771,12.4609,5.292.1914.1357.4434.3018.7422.4976,1.0977.7178,2.7559,1.8027,4.4551,3.584,3.6475,3.8032,5.627,8.8735,5.8887,15.0762l.002.1938c.0303.8501.0332,1.6104.0098,2.3247-.3604,11.999-3.2588,22.1084-8.6143,30.0552-.3828.5698-.7793,1.1348-1.1943,1.6821-12.7871,17.0352-31.7461,20.6084-45.4004,20.6089-5.2666,0-10.6895-.5405-16.1172-1.606-3.5654-.7012-6.9668-2.0942-10.5684-3.5688-2.918-1.1948-5.9355-2.4302-9.1064-3.2964-3.3438-.9097-6.8398-1.3706-10.3945-1.3706-10.9492,0-21.5596,4.292-29.1113,11.7754-3.9082,3.8726-7.002,8.4941-9.9932,12.9634-4.5264,6.7607-8.8008,13.147-15.4189,16.501-3.4688,1.7559-7.4521,2.6099-12.1758,2.6099Z"/>
        <path class="cls-3" d="M281.472,117.1532c15.9653,0,31.605,2.7725,45.228,8.0178,14.7119,5.6644,27.019,14.0382,36.5815,24.8898.8618.9774,1.7036,1.9745,2.5947,3.0302,3.7051,4.3895,7.5361,8.9283,12.9248,12.1525,6.4229,3.8458,13.4224,4.8618,20.1914,5.8442,4.4473.6455,8.6479,1.2551,12.4023,2.6288,14.4907,5.3169,21.0049,21.4441,23.6006,30.5908.5962,2.0919,1.103,4.2041,1.5103,6.2926,3.4497,17.4709,2.2593,34.2936-3.4429,48.6501-6.2676,15.7886-18.0171,28.1429-32.2383,33.8964-6.3037,2.5533-13.1987,3.8479-20.4932,3.8479-9.9321,0-20.1313-2.4105-29.4951-6.9708-14.4619-7.0432-27.8467-19.4277-38.7036-35.8076-3.7021-5.6034-7.1475-11.6718-10.4834-17.5468-6.9312-12.1755-14.0981-24.7656-24.6797-34.9601-14.479-13.9791-34.3379-21.9965-54.4839-21.9965-.2427,0-.4829.0011-.7139.0034-4.084.0314-8.1318.4719-11.9292,1.2887,4.6353-7.178,6.0576-15.9012,7.4453-24.4109,1.3228-8.1075,2.5718-15.7654,6.4521-21.5469,4.6821-6.9703,13.4639-11.6395,27.6333-14.6937,9.8774-2.1234,20.0039-3.2,30.0986-3.2M186.6381,194.7743c-.4639.623-.9033,1.2633-1.3164,1.9192-.5366.8557-1.0327,1.7419-1.4819,2.646l-.0483.0471-.4565,1.0103c-4.2329,9.3636-4.0186,21.2474.6392,35.3282.9692,2.9165,2.0503,5.8142,3.0957,8.6165,3.0137,8.0784,5.8608,15.7086,6.1216,23.5436.1543,4.6622-.6162,9.4375-1.4326,14.493-1.0078,6.2434-2.0498,12.6993-1.3882,19.453.3848,3.8853,1.3057,7.5483,2.1963,11.0908,1.0991,4.3713,2.1372,8.5004,2,12.439-.1475,4.1219-1.5903,8.3846-3.1182,12.8977-2.0962,6.1929-4.2637,12.5968-3.5713,19.7655.5107,5.2847,2.5493,10.0226,5.2212,14.2042-1.1963-1.3922-2.4727-2.7521-3.8242-4.072l-.0024-.2815-2.0503-1.6382c-7.5273-6.8136-16.1748-11.9851-24.5386-16.9868-3.0327-1.8137-6.1689-3.6892-9.1567-5.5909-8.6187-5.485-20.6646-14.1978-25.7432-26.4867-1.2954-3.1276-2.165-6.514-3.0859-10.0994-.9126-3.5515-1.856-7.2239-3.2812-10.8558-2.5674-6.5427-6.4072-12.2349-10.1201-17.7395-3.9058-5.7898-7.5947-11.2584-9.5718-17.2886-4.0718-12.4187-1.2705-24.5621,8.3252-36.0931,8.3955-10.0885,21.6875-18.9565,36.4717-24.3318,7.2729-2.6504,14.5103-4.2834,20.9316-4.7227,2.043-.1406,4.1206-.2173,6.3203-.2983,4.1499-.1531,8.5317-.3146,12.8652-.9688M395.4706,356.7683c1.835,0,3.5303.2479,5.0381.7367,1.3833.4484,2.7134.8461,4,1.2308,4.3789,1.3094,8.1606,2.4403,11.6079,4.8756.2188.155.5.3409.8335.5592.9858.6448,2.4751,1.619,3.9536,3.1688,3.1255,3.2598,4.832,7.6727,5.0732,13.1174v.1333l.0034.1034c.0278.7804.0308,1.4741.0088,2.1396-.3379,11.2712-3.145,21.1289-8.1221,28.514-.3911.5815-.7495,1.0867-1.1133,1.5664-12.0557,16.0616-30.0713,19.4331-43.062,19.4331-5.0791,0-10.313-.522-15.5542-1.5511-3.2866-.6464-6.5605-1.9868-10.0264-3.4059-2.9995-1.228-6.1011-2.4979-9.4497-3.4128-3.5894-.9764-7.3428-1.4717-11.1562-1.4718-1.2637,0-2.5225.0536-3.7744.1592,5.4712-4.4363,9.0571-11.2646,11.9438-16.7615l.4321-.8218c9.8325-18.6473,28.5566-40.8252,51.6191-47.146,2.8252-.7742,5.4307-1.1667,7.7446-1.1667M197.7684,378.4318c2.5747,2.9861,5.2578,5.5834,7.5327,7.7852,1.2993,1.2534,2.2676,2.1696,3.1328,2.965,9.1685,8.4502,14.6318,10.5137,27.8379,10.5137.7075,0,1.4419-.0054,2.2158-.0151,2.0806-.03,4.7358-.2373,7.8101-.4774,3.7588-.2935,8.019-.6261,11.4854-.6261,2.4937,0,3.7939.1721,4.4399.3153,6.2456,1.3915,18.0347,10.048,21.6021,14.475,4.9575,6.1652,12.0479,13.1918,23.4224,13.9451-4.0215,2.0253-7.7158,4.6533-10.9028,7.8115-4.1162,4.0789-7.2925,8.8239-10.3643,13.4126-4.3076,6.4352-8.3765,12.5135-14.3125,15.5217-3.0527,1.5454-6.6055,2.2965-10.8604,2.2965-5.8276,0-12.1641-1.42-18.1523-2.8739-10.4619-2.5454-21.2798-5.1776-29.9575-11.0303-8.7397-5.8911-13.9248-14.9767-13.2134-23.1012.0278-.2791.0542-.5585.0957-.8374l.064-.4286v-.0735c.4375-2.8121,1.4424-5.6948,2.5049-8.7426,1.1333-3.2517,2.3052-6.6143,2.9404-10.2955.2798-1.6327.4434-3.2428.4873-4.7897.0107-.1515.0151-.2861.0161-.4015.2207-8.4767-2.5498-17.2709-7.8242-25.3488M281.472,111.3278c-10.5605,0-21.1289,1.1387-31.3228,3.3301-11.9175,2.5687-24.4458,7.0187-31.2451,17.1407-10.4082,15.5078-4.4019,39.9249-18.9736,51.6227-8.8809,7.1332-21.5049,6.0254-32.8779,6.8085-6.9805.4774-14.7441,2.225-22.5264,5.061-29.1538,10.5996-58.6128,36.3727-48.3379,67.713,4.2207,12.8722,14.8584,22.7365,19.8047,35.3413,2.6836,6.8372,3.6001,14.276,6.4077,21.0559,5.2329,12.6621,16.4438,21.8197,27.998,29.1726,11.1914,7.1235,23.2334,13.1777,33.04,22.0967.0098.0095.0288.019.0288.0382.3052.2578.6108.5347.9072.8212,8.9189,8.3842,15.7271,20.1201,15.3931,32.152,0,.0477,0,.0955-.0098.1432-.0283,1.3846-.1719,2.7693-.4106,4.1635-1.1455,6.6367-4.5356,12.7672-5.5,19.3943-.019.0859-.0288.1719-.0288.2675-.0571.3818-.0952.7639-.1338,1.1459-.9932,11.3444,6.3218,22.1254,15.7563,28.485,9.4438,6.3694,20.7695,9.1674,31.8369,11.8601,6.3379,1.5388,13.0508,3.0391,19.5293,3.0391,4.6978,0,9.2725-.7889,13.4912-2.9244,11.9463-6.0542,16.6348-20.569,26.146-29.9939,7.0957-7.0309,17.0918-10.9316,27.0605-10.9312,3.2451.0001,6.4888.4137,9.627,1.2675,6.7803,1.8525,12.9868,5.5576,19.8813,6.9136,5.4966,1.0793,11.1084,1.6606,16.6782,1.6606,18.2822,0,36.0913-6.2668,47.7212-21.7616.4487-.592.8784-1.2032,1.2891-1.8143,6.1978-9.1958,8.7759-20.4447,9.1099-31.5885.0288-.869.019-1.7094-.0098-2.521v-.1528c-.3433-8.4891-3.5713-13.7699-6.6934-17.0261-2.3779-2.4923-4.708-3.8005-5.6245-4.4498-5.3667-3.791-10.9341-4.8701-17.1792-6.8945-2.2129-.7173-4.5142-1.0205-6.8345-1.0205-3.1167,0-6.2681.5472-9.2842,1.3738-23.7969,6.5221-44.0693,28.8766-55.2324,50.0471-4.2686,8.1072-9.1289,17.9332-18.2388,18.9836-1.1934.1379-2.3384.2057-3.4404.2057-8.8184,0-14.8833-4.3413-20.9102-11.8365-4.2397-5.2615-17.1597-14.7916-24.875-16.5105-1.4922-.3308-3.478-.4547-5.7065-.4547-6.4565,0-14.9492,1.0403-19.3794,1.1041-.7388.0094-1.4482.0145-2.1318.0145-11.8354,0-15.8188-1.533-23.8896-8.9717-.9453-.8689-1.9575-1.8334-3.0366-2.8743-7.1333-6.9041-14.7148-14.677-15.6699-24.5603-1.0508-10.8766,6.3213-20.97,6.7129-31.8942.2866-8.241-3.4092-16.1094-4.2207-24.3121-1.0981-11.2012,3.2183-22.3163,2.8457-33.5652-.3916-11.755-5.8057-22.6505-9.5112-33.804-3.3325-10.0743-5.1372-21.6288-.8594-31.092l.0098-.0095c.4585-1.0217.9932-2.0244,1.604-2.9984,3.772-5.9873,9.8359-9.8165,16.6445-11.9841,4.7842-1.528,9.9404-2.225,14.9155-2.2632.2236-.0022.4453-.0033.6689-.0033,18.5771,0,37.0684,7.4543,50.438,20.3621,9.9312,9.5682,16.7974,21.5906,23.6631,33.6511,3.4375,6.0542,6.875,12.1084,10.6855,17.876,10.3989,15.6892,24.0923,29.5928,41.0132,37.8337,9.9268,4.8346,21.0347,7.559,32.0459,7.559,7.7578,0,15.4692-1.3533,22.6802-4.274,16.3101-6.5985,28.9722-20.7886,35.4658-37.1462,6.4932-16.3481,7.1523-34.6633,3.7432-51.9281-.439-2.2537-.9834-4.5168-1.623-6.7609-4.2402-14.9443-12.8818-29.2108-27.1963-34.4629-10.2559-3.7528-22.2305-2.3872-31.6074-8.0021-5.7295-3.4281-9.731-9.0334-14.1426-14.0372-21.2271-24.0887-53.6675-34.8805-86.1792-34.8805h0Z"/>
      </g>
    </g>
  </g>
</svg>