<?xml version="1.0" encoding="UTF-8"?>
<svg id="Capa_2" xmlns="http://www.w3.org/2000/svg" viewBox="0 0 527.8476 530.8382">
  <defs>
    <style>
      .cls-1 {
        fill: #44911c;
      }

      .cls-2 {
        fill: #639648;
      }

      .cls-3 {
        fill: #367710;
      }

      .cls-4 {
        fill: #94c67d;
      }

      .cls-5 {
        fill: #70a856;
      }
    </style>
  </defs>
  <g id="Capa_1-2" data-name="Capa_1">
    <g>
      <g>
        <path class="cls-4" d="M208.7117,525.8386c-5.4941,0-10.5342-.6494-15.4053-1.9844-13.5107-3.707-25.4258-13.5537-36.9492-23.0752-7.1992-5.9492-14-11.5693-20.7754-15.3848-7.1182-4.0146-14.5332-6.2021-21.7041-8.3174-10.7158-3.1611-21.7959-6.4307-31.585-15.6504-3.4219-3.2256-6.4805-7.1719-9.3525-12.0664-4.6064-7.8027-8.0508-16.8633-11.3809-25.626-2.8203-7.4219-5.4844-14.4307-8.7334-20.5215-.8301-1.5654-1.667-3.0078-2.4941-4.2988-2.1025-3.2842-4.6523-6.3789-8.0225-9.7373-2.5068-2.5029-5.2031-4.8848-7.8105-7.1885-8.2998-7.333-16.8828-14.915-21.2178-27.6406-6.4971-19.0625-5.0391-38.375-3.4961-58.8213.6543-8.6733,1.3311-17.6421,1.3311-26.5303,0-7.9951-1.543-16.1875-3.0342-24.1104-2.2871-12.1445-4.6514-24.7026-1.6787-37.1914,3.3066-13.877,12.6543-24.8682,21.6943-35.4976,5.9619-7.0103,11.5938-13.6323,15.4062-20.8394,4.1221-7.7949,6.6455-16.5146,9.085-24.9478,3.8408-13.2729,7.8125-26.998,18.0674-37.9307,10.4414-11.1333,26.9883-17.0059,42.9902-22.6846,10.3457-3.6719,20.1182-7.1396,27.751-11.7837,7.4971-4.562,12.7266-10.4507,18.2627-16.6855,7.7637-8.7432,15.791-17.7842,29.8965-21.8779,3.3662-.9795,7.0605-1.4355,11.624-1.4355,2.7988,0,5.6152.1694,8.3379.3335,2.709.1626,5.2686.3169,7.7939.3169,2.3193,0,4.3096-.1357,6.0859-.415,5.0713-.7988,10.0146-2.4067,15.249-4.1089,7.7646-2.5259,15.7939-5.1377,24.7012-5.1377,14.2158,0,26.5703,4.8525,38.5186,9.5454,7.0234,2.7583,13.6572,5.3638,20.6729,7.0703,6.8447,1.6636,14.0879,2.2227,21.7549,2.8145,11.6621.8994,23.7217,1.8301,34.3643,6.9985,10.626,5.1689,18.3867,14.1147,25.8916,22.7661,5.0527,5.8242,9.8252,11.3252,15.3086,15.6079,6.2021,4.8486,13.1934,8.9097,19.9531,12.8374,1.8301,1.063,3.6562,2.124,5.4678,3.1992,5.2324,3.1001,11.3369,6.8931,16.9043,11.5034,4.1826,3.4536,7.6807,7.0347,10.6875,10.9419,7.3691,9.5879,9.9678,23.6235,12.4814,37.1973,1.7812,9.6187,3.4639,18.7036,6.6416,25.5537,3.2256,6.9468,8.0469,11.8833,13.1514,17.1099,6.9902,7.1567,14.2178,14.5576,16.8027,27.0186,2.2754,10.9507-.2168,23.9531-2.627,36.5278-1.6611,8.6655-3.2295,16.8501-3.2295,23.9331,0,8.9722.8447,17.1392,1.6621,25.0376,1.5986,15.46,3.1094,30.0615-2.1631,47.0156-3.3496,10.7656-12.2754,20.4043-20.9082,29.7266-6.0283,6.5098-11.7217,12.6582-14.9951,18.584-.3115.5596-.6074,1.1064-.8867,1.6523l-.2158.4316c-.2676.5078-.5264,1.0166-.7666,1.5156-.292.5938-.5586,1.1543-.8154,1.7148-.3398.7354-.6553,1.4502-.9629,2.167-.4502,1.0508-.8828,2.1064-1.2969,3.1611-.4961,1.2803-.9717,2.5635-1.4277,3.8486-.624,1.7412-1.1943,3.4443-1.8613,5.4678-.2021.6035-.3867,1.1777-.5713,1.752-.3252,1.0146-.6396,1.9922-.958,2.9639v.0156l-.3428,1.0479c-.1729.5273-.3467,1.0605-.5273,1.5869-.0811.2324-.1465.417-.2031.6025l-.042.1318c-.4551,1.3574-.9219,2.7129-1.4082,4.0508l-.0469.126c-.0479.1191-.0898.2344-.126.3486l-.0684.1992c-.8193,2.2324-1.6182,4.2236-2.4443,6.0869-.1797.4092-.373.8252-.5674,1.2422l-.0488.1064c-.2393.5215-.4932,1.0508-.7549,1.582v.0264l-.5498,1.083c-2.9297,5.7197-6.4639,10.6514-10.8027,15.0791-8.7256,8.8994-21.0176,12.5723-32.9043,16.124-8.585,2.5645-16.6943,4.9873-23.249,9.1777-6.5771,4.207-11.832,10.2803-17.3955,16.71-7.7891,9.002-15.8438,18.3105-28.0469,22.5684-8.8223,3.0791-18.4551,4.5137-30.3145,4.5137-9.7441,0-19.8281-.9951-29.5801-1.957-9.7256-.96-19.7832-1.9521-29.4648-1.9521-9.0713,0-17.9287,1.7119-26.4951,3.3682-8.4082,1.625-17.1016,3.3057-25.8311,3.3066Z"/>
        <path class="cls-2" d="M263.3489,10c21.1655,0,38.3188,11.6846,58.0093,16.4744,18.0479,4.3867,38.771,1.5148,55.1177,9.4518,16.4546,8.0061,26.0146,26.654,40.3052,37.8172,8.1538,6.3734,17.2319,11.2222,25.9458,16.3956,5.6948,3.3736,11.2324,6.8848,16.2681,11.055,3.6094,2.9801,6.9634,6.3045,9.9141,10.1404,11.5664,15.048,10.4746,44.397,18.5498,61.8057,8.2124,17.6841,25.5322,23.4575,29.5942,43.0397,3.5508,17.0941-5.96,41.2988-5.96,59.4452,0,26.8311,7.2979,46.2166-.2754,70.5692-5.2422,16.848-27.1162,32.1913-35.5059,47.3772-.3345.6-.6592,1.2-.9639,1.7999-.0688.1278-.1279.2458-.187.3737-.2949.5607-.5801,1.1213-.8457,1.6721-.2949.5999-.5806,1.1998-.8555,1.7998-.3545.7672-.6885,1.5245-1.0132,2.2819-.4722,1.1016-.9248,2.2031-1.3574,3.3047-.521,1.3474-1.0132,2.6752-1.4854,4.0031-.6685,1.8687-1.2881,3.7275-1.8979,5.5767-.2065.6196-.4033,1.2294-.6001,1.8392-.3833,1.1998-.7671,2.3899-1.1606,3.5801-.0098.0197-.0195.0492-.0195.0786-.1968.6-.3936,1.2098-.6001,1.8097-.0884.2557-.1768.5115-.2554.7672-.4429,1.318-.895,2.6359-1.3672,3.9341-.0889.2263-.1675.4426-.2363.6591-.7178,1.9573-1.4751,3.8751-2.3208,5.7832-.187.423-.3838.8458-.5806,1.2688-.3833.8359-.7964,1.672-1.2197,2.5081v.0098c-2.4585,4.7997-5.5864,9.4323-9.9238,13.8582-13.73,14.0056-38.6729,13.9761-55.2749,24.5885-16.7891,10.7402-25.2573,32.093-44.397,38.7712-9.124,3.1846-18.7549,4.2343-28.666,4.2343-19.1377,0-39.335-3.9097-59.0464-3.9097-18.644,0-35.4136,6.6748-52.3262,6.6748-4.6699,0-9.3477-.5082-14.0825-1.8064-20.5757-5.6455-38.3975-27.7456-56.5928-37.9941-18.3628-10.3567-37.0796-8.901-52.3145-23.2509-3.2656-3.0785-6.0391-6.8159-8.4683-10.9567-8.1538-13.809-12.6387-32.1422-20.0151-45.9707-.856-1.613-1.751-3.1671-2.6953-4.6423-2.5767-4.0227-5.5566-7.4454-8.7041-10.5829-10.4258-10.4059-22.6118-17.5956-27.8242-32.8995-8.9404-26.2311-1.8984-54.4783-1.8984-83.7386,0-20.7526-9.4517-40.8071-4.8486-60.1437,5.0947-21.3821,26.6245-36.1943,36.6562-55.1569,10.8584-20.5363,10.6128-44.9872,26.3789-61.796,16.0415-17.1038,49.5508-21.3625,69.6934-33.6173,19.2188-11.6944,24.8936-31.6309,46.9546-38.0336,3.2705-.9514,6.7114-1.2374,10.23-1.2374,5.3057,0,10.7896.6505,16.1328.6505,2.3228,0,4.6172-.1228,6.8613-.4753,13.2383-2.0851,25.3555-9.1864,39.1743-9.1864M263.3489,0c-9.7002,0-18.1128,2.7366-26.2485,5.3829-5.04,1.6395-9.8003,3.1879-14.4814,3.9253-1.5132.2377-3.25.3535-5.3057.3535-2.3755,0-4.8618-.1497-7.4937-.3081-2.7974-.1683-5.6904-.3424-8.6392-.3424-5.0493,0-9.1875.5196-13.0229,1.6354-15.4863,4.4945-24.3857,14.5165-32.2373,23.3589-5.2798,5.9459-10.2666,11.5621-17.1226,15.7338-7.1919,4.3756-16.728,7.7599-26.8242,11.3429-16.564,5.8785-33.6919,11.9571-44.9648,23.9764-11.0762,11.8087-15.2173,26.1204-19.2227,39.9608-2.479,8.5674-4.8208,16.6597-8.7026,24.0017-3.5557,6.7214-9.0151,13.1406-14.7949,19.9368-9.4219,11.0782-19.1646,22.5338-22.7485,37.5766-3.2202,13.5267-.7554,26.6168,1.6279,39.2759,1.5161,8.0517,2.9482,15.657,2.9482,23.1855,0,8.6995-.6694,17.5727-1.3174,26.1538-1.5127,20.0482-3.0771,40.7789,3.7505,60.8109,4.7617,13.981,14.2598,22.3716,22.6392,29.7748,2.6689,2.3577,5.1895,4.5847,7.5859,6.9764,3.1113,3.1012,5.4448,5.9274,7.3481,8.8989.752,1.1753,1.5205,2.5004,2.2822,3.9357,3.1099,5.8303,5.7192,12.6959,8.4814,19.9646,3.4048,8.9586,6.9253,18.2222,11.7563,26.4034,3.0991,5.2828,6.4468,9.5918,10.2192,13.1486,10.6606,10.0414,22.3228,13.4818,33.6011,16.8088,7.2207,2.1301,14.0405,4.142,20.6606,7.8759,6.3916,3.6001,13.0249,9.0815,20.0479,14.8846,11.9297,9.8582,24.2661,20.0519,38.8115,24.0428,5.3086,1.4556,10.7803,2.1628,16.7285,2.1628,9.208,0,18.1416-1.7271,26.7812-3.3972,8.7188-1.6855,16.9536-3.2776,25.5449-3.2776,9.436,0,19.3696.9802,28.9756,1.9281,9.8721.9741,20.0801,1.9816,30.0708,1.9816,12.2666,0,22.7212-1.5677,31.9614-4.7927,13.4629-4.6976,22.3442-14.962,30.1802-24.0182,5.3193-6.1473,10.3438-11.9537,16.3101-15.7708,5.9614-3.8105,13.7441-6.1359,21.9839-8.5977,12.4951-3.7332,25.416-7.5935,35.0435-17.4143,4.7002-4.7961,8.5215-10.1274,11.6831-16.2996l1.0996-2.1467v-.0973c.1021-.2158.2002-.4264.2959-.6348.2271-.4885.4438-.9561.6504-1.4235.8652-1.9517,1.7051-4.0426,2.5635-6.3833l.0752-.2051.0659-.2083.0156-.0364.0459-.1167.0425-.1177c.4409-1.2123.8882-2.4976,1.4487-4.1675l.0415-.1223.0376-.1233c.0454-.1471.0981-.2935.1489-.4406.186-.5402.3618-1.0769.5361-1.6096l.1143-.349.498-1.5187v-.0211c.2368-.7289.4717-1.4591.7061-2.1929.1777-.5515.3647-1.131.561-1.72.5454-1.6528,1.1709-3.5375,1.8267-5.3707.4541-1.277.9067-2.4966,1.3892-3.7454.3887-.9878.8018-1.9938,1.2295-2.9907.3188-.7438.6128-1.4067.8994-2.0271.251-.5479.4976-1.0653.752-1.5828l.0166-.0336.0161-.0337c.2163-.4482.4492-.9045.689-1.3611l.1191-.2266.0649-.1406.0137-.0249.0557-.1097c.2129-.4196.4688-.8964.7817-1.4576,2.998-5.4265,8.4912-11.3588,14.3071-17.6392,9.0103-9.7302,18.3271-19.7916,22.0127-31.6366,5.5776-17.9348,4.0161-33.0325,2.3623-49.0165-.8037-7.7723-1.6353-15.8092-1.6353-24.5236,0-6.608,1.5249-14.5662,3.1396-22.9916,2.502-13.0565,5.0894-26.5576,2.6113-38.4874-2.8813-13.8901-10.978-22.1802-18.1216-29.4946-4.7969-4.9114-9.3271-9.5505-12.1938-15.7231-2.9102-6.2735-4.5366-15.0569-6.2583-24.356-2.6216-14.1554-5.332-28.7927-13.4326-39.3319-3.2393-4.2104-6.9922-8.0554-11.4761-11.7576-5.8218-4.8212-12.1333-8.7456-17.5381-11.9473-1.8169-1.0789-3.6577-2.1486-5.5029-3.2206-6.9175-4.0189-13.4512-7.8149-19.3813-12.4501-5.1035-3.9869-9.7217-9.3102-14.6113-14.9461-7.8345-9.0309-15.936-18.3693-27.4771-23.9845-11.5044-5.5859-24.0439-6.5534-36.1709-7.4891-7.4604-.5756-14.5073-1.1193-20.96-2.6877-6.6841-1.626-13.1641-4.1711-20.0249-6.8658-12.3809-4.8629-25.1836-9.8915-40.3462-9.8915h0Z"/>
      </g>
      <circle class="cls-5" cx="106.9603" cy="259.9478" r="12.861"/>
      <circle class="cls-5" cx="282.7254" cy="47.6628" r="18.1988"/>
      <circle class="cls-5" cx="296.6417" cy="372.1265" r="18.1988"/>
      <circle class="cls-5" cx="112.3156" cy="93.5478" r="6.4305"/>
      <circle class="cls-5" cx="231.9303" cy="238.2969" r="6.4305"/>
      <circle class="cls-5" cx="454.8617" cy="371.6622" r="6.4305"/>
      <circle class="cls-5" cx="320.4381" cy="217.2192" r="14.6473"/>
      <circle class="cls-5" cx="383.748" cy="455.4948" r="9.0784"/>
      <circle class="cls-5" cx="344.1638" cy="481.2585" r="9.0784"/>
      <circle class="cls-5" cx="271.5876" cy="299.947" r="11.1378"/>
      <circle class="cls-5" cx="154.1869" cy="466.6326" r="11.1378"/>
      <circle class="cls-5" cx="459.569" cy="147.2878" r="11.1378"/>
      <circle class="cls-5" cx="182.4437" cy="98.7373" r="8.5811"/>
      <circle class="cls-5" cx="493.3149" cy="221.5657" r="7.3643"/>
      <circle class="cls-5" cx="133.7144" cy="383.2643" r="11.1378"/>
      <circle class="cls-5" cx="344.1638" cy="70.4106" r="11.1378"/>
      <circle class="cls-5" cx="402.964" cy="87.1173" r="5.5689"/>
      <circle class="cls-5" cx="263.9252" cy="495.9058" r="5.5689"/>
      <circle class="cls-5" cx="243.0681" cy="125.0121" r="11.1378"/>
      <circle class="cls-5" cx="83.6021" cy="168.3887" r="23.2871"/>
      <circle class="cls-5" cx="481.0723" cy="280.1669" r="19.7801"/>
      <circle class="cls-5" cx="53.2044" cy="330.8649" r="19.7801"/>
      <circle class="cls-5" cx="267.821" cy="444.357" r="22.2756"/>
      <g>
        <path class="cls-1" d="M260.8064,469.2673c-6.1484,0-12.6787-1.4609-18.8408-2.9561-10.7109-2.6064-21.7871-5.3027-30.8955-11.4453-9.6045-6.4736-15.2891-16.6074-14.4834-25.8164.0303-.2979.0625-.6318.1123-.9648l.0332-.2158v-.0811c.46-3.1494,1.5312-6.2236,2.666-9.4785,1.0947-3.1406,2.2266-6.3887,2.8193-9.8262.2637-1.5322.4141-3.0371.4502-4.4775.0088-.1074.0127-.2158.0127-.3242.3262-11.6973-5.6133-24.2139-16.2998-34.2637v-.0918l-1.0225-.8477c-7.3369-6.6621-15.8965-11.7812-24.1738-16.7305-3.0488-1.8232-6.2012-3.709-9.2217-5.6309-8.9521-5.6982-21.4785-14.7812-26.8701-27.8281-1.374-3.3203-2.2695-6.8027-3.2168-10.4912-.8906-3.4658-1.8115-7.0508-3.1719-10.5166-2.4502-6.2441-6.1982-11.8008-9.8232-17.1748-4.0225-5.9624-7.8213-11.5942-9.9248-18.0098-9.4863-28.9375,17.4883-53.4961,46.5654-64.0684,7.5283-2.7432,15.042-4.4351,21.7305-4.8926,2.0889-.1436,4.2871-.2246,6.4121-.3032,9.8936-.3647,20.124-.7417,28.0908-7.1401,9.0176-7.2383,10.8682-18.5898,12.6592-29.5674,1.3145-8.0591,2.6729-16.3921,6.9092-22.7031,6.7383-10.0303,20.0293-13.8877,29.4404-15.9165,10.0762-2.166,20.4082-3.2646,30.709-3.2646,34.3975,0,65.0127,12.3535,83.9932,33.8936.8906,1.0098,1.7637,2.0444,2.6377,3.0801,3.5508,4.2061,7.2227,8.5557,12.1953,11.5308,5.9209,3.5459,12.627,4.519,19.1123,5.4604,4.6006.668,8.9473,1.2983,12.9893,2.7778,15.7012,5.7607,22.6504,22.8491,25.3955,32.5225.6182,2.1694,1.1445,4.3633,1.5664,6.5234,3.5596,18.0283,2.3174,35.418-3.5918,50.2954-6.5596,16.5249-18.8975,29.4712-33.8516,35.521-6.6533,2.6953-13.916,4.0615-21.5869,4.0615-10.3711,0-21.0107-2.5117-30.7705-7.2646-14.9277-7.27-28.7119-20.0039-39.8613-36.8247-3.7539-5.6821-7.2246-11.7939-10.5801-17.7046-6.832-12.0005-13.8945-24.4058-24.1758-34.3105-13.9395-13.4575-33.0605-21.1772-52.459-21.1772l-.6963.0034c-5.5312.0425-10.9873.8726-15.7734,2.4014-8.1025,2.5791-14.4053,7.146-18.2227,13.2061-.5811.9263-1.1064,1.8857-1.5684,2.8628l-.0078.0078-.2275.4902c-3.9229,8.6768-3.6709,19.8491.748,33.2065.9541,2.8701,2.0254,5.7432,3.0625,8.5215,3.0986,8.3071,6.0264,16.1538,6.3027,24.4648.1631,4.9434-.6289,9.8535-1.4678,15.0522-.9785,6.0601-1.9902,12.3267-1.3652,18.6997.3633,3.6738,1.2578,7.2305,2.1221,10.6699,1.1514,4.5771,2.2383,8.9004,2.0859,13.2568-.1631,4.5449-1.6719,9.0039-3.2695,13.7246-1.998,5.9014-4.0635,12.0039-3.4316,18.5508,1.0205,10.5547,8.4072,18.498,16.5439,26.373,1.1006,1.0625,2.1309,2.0439,3.0928,2.9268,8.6895,8.0098,13.2822,9.7393,25.8594,9.7393.6953,0,1.417-.0049,2.1689-.0146,1.9922-.0283,4.7305-.2422,7.6289-.4688,3.8125-.2979,8.1328-.6348,11.7129-.6348,2.2129,0,3.9209.1299,5.0752.3857,6.9795,1.5547,19.4209,10.7568,23.2393,15.4932,7.2803,9.0566,14.2119,12.9219,23.1758,12.9219,1.2129,0,2.4834-.0752,3.7764-.2246,10.3291-1.1904,15.7178-11.4492,20.0469-19.6924l.4346-.8271c10.1162-19.1865,29.4648-42.0293,53.4248-48.5947,3.0762-.8438,5.9404-1.2715,8.5146-1.2715,2.1406,0,4.1377.2959,5.9365.8789,1.3418.4346,2.6523.8271,3.9365,1.2109,4.624,1.3828,8.6172,2.5771,12.46,5.292.1924.1357.4424.3008.7393.4951,1.0977.7178,2.7559,1.8037,4.458,3.5869,3.6475,3.8027,5.627,8.873,5.8887,15.0752l.002.1943c.0303.8506.0332,1.6113.0098,2.3242-.3604,11.999-3.2588,22.1094-8.6143,30.0557-.3828.5693-.7793,1.1348-1.1943,1.6816-12.7871,17.0361-31.7451,20.6094-45.3994,20.6094-5.2676,0-10.6904-.54-16.1182-1.6064-3.5654-.7012-6.9678-2.0938-10.5693-3.5684-2.918-1.1943-5.9355-2.4297-9.1055-3.2959-3.3438-.9102-6.8408-1.3711-10.3955-1.3711-10.9473,0-21.5576,4.292-29.1104,11.7744-3.9082,3.873-7.002,8.4941-9.9932,12.9639-4.5254,6.7607-8.8008,13.1475-15.4189,16.501-3.4688,1.7568-7.4521,2.6104-12.1758,2.6104Z"/>
        <path class="cls-3" d="M281.4719,117.1533c15.9653,0,31.605,2.7725,45.228,8.0179,14.7119,5.6643,27.019,14.0381,36.582,24.89.8623.9781,1.7046,1.9759,2.5962,3.0324,3.7046,4.3884,7.5352,8.9263,12.9229,12.1498,6.4229,3.8459,13.4224,4.8618,20.1914,5.8444,4.4473.6455,8.6479,1.2552,12.4023,2.6288,14.4907,5.3169,21.0049,21.444,23.6006,30.5909.5962,2.0917,1.103,4.2038,1.5103,6.2924,3.4497,17.4711,2.2593,34.2938-3.4429,48.6504-6.2671,15.7881-18.0166,28.1425-32.2378,33.8961-6.3037,2.5533-13.1987,3.848-20.4932,3.848-9.9321,0-20.1318-2.4105-29.4956-6.9709-14.4619-7.0432-27.8467-19.4277-38.7031-35.8073-3.7056-5.6089-7.1499-11.675-10.4839-17.5471-6.9312-12.1756-14.0981-24.7656-24.6792-34.9603-14.4795-13.9789-34.3384-21.9963-54.4839-21.9963-.2427,0-.4834.0012-.7144.0034-4.0835.0313-8.1318.4719-11.9292,1.2887,4.6353-7.178,6.0576-15.9012,7.4453-24.4109,1.3228-8.1074,2.5718-15.7653,6.4521-21.5468,4.6821-6.9703,13.4639-11.6395,27.6333-14.6937,9.8774-2.1234,20.0039-3.2,30.0986-3.2M186.6384,194.7744c-.4639.6225-.9028,1.2621-1.3154,1.9174-.5508.8778-1.0596,1.7885-1.5181,2.7178l-.0439.0447-.4258.9424c-4.2334,9.3641-4.019,21.248.6392,35.3282.9692,2.9172,2.0503,5.8154,3.0962,8.6184,3.0132,8.0777,5.8599,15.7075,6.1206,23.5419.1543,4.662-.6162,9.437-1.4326,14.4922-1.0078,6.2437-2.0498,12.7-1.3872,19.4537.3843,3.8852,1.3052,7.5482,2.1953,11.0906,1.0991,4.3715,2.1372,8.5006,2,12.4392-.1475,4.1221-1.5903,8.385-3.1182,12.8982-2.0962,6.1927-4.2637,12.5964-3.5713,19.765.5107,5.285,2.5498,10.0232,5.2222,14.2053-1.1973-1.3929-2.4731-2.7524-3.8252-4.0731l-.0024-.2815-2.0503-1.6381c-7.5278-6.814-16.1758-11.9858-24.54-16.9878-3.0322-1.8135-6.168-3.6887-9.1553-5.5901-8.6187-5.485-20.6646-14.1978-25.7432-26.4867-1.2954-3.1279-2.1655-6.5149-3.0864-10.1006-.9121-3.551-1.855-7.2228-3.2803-10.8547-2.5679-6.5426-6.4072-12.2346-10.1206-17.7392-3.9053-5.7899-7.5942-11.2586-9.5718-17.2888-4.0718-12.4186-1.2705-24.5621,8.3257-36.0931,8.395-10.0884,21.687-18.9565,36.4712-24.3317,7.2729-2.6504,14.5103-4.2834,20.9316-4.7227,2.043-.1407,4.1206-.2173,6.3198-.2984,4.1504-.153,8.5327-.3145,12.8662-.9688M395.4704,356.7684c1.835,0,3.5303.2479,5.0381.7367,1.3833.4484,2.7134.8461,4,1.2308,4.3789,1.3094,8.1606,2.4403,11.6079,4.8754.2188.1552.5.3412.834.5597.9854.6448,2.4746,1.6191,3.9531,3.1687,3.1255,3.2599,4.8325,7.673,5.0737,13.1179v.131l.0034.1017c.0273.7847.0303,1.4796.0083,2.1431-.3379,11.2711-3.1445,21.1289-8.1201,28.5115-.3931.5841-.7524,1.0901-1.1152,1.569-12.0552,16.0616-30.0713,19.4331-43.0615,19.4331-5.0791,0-10.313-.522-15.5547-1.5511-3.2866-.6464-6.5601-1.9867-10.0264-3.4058-2.9995-1.2281-6.1011-2.498-9.4497-3.413-3.5894-.9764-7.3428-1.4717-11.1562-1.4718-1.2637,0-2.5225.0536-3.7744.1592,5.4712-4.4363,9.0571-11.2649,11.9443-16.7617l.4316-.8215c9.8325-18.6473,28.5566-40.825,51.6191-47.1459,2.8252-.7743,5.4312-1.1669,7.7446-1.1669M197.7678,378.4308c2.5747,2.9868,5.2578,5.5839,7.5332,7.7861,1.2925,1.2467,2.2607,2.1628,3.1333,2.9651,9.168,8.4501,14.6313,10.5135,27.8374,10.5135.7075,0,1.4419-.0054,2.2158-.0151,2.0806-.03,4.7354-.2373,7.8101-.4773,3.7583-.2936,8.0186-.6262,11.4849-.6262,2.4941,0,3.7944.1722,4.4404.3154,6.2456,1.3914,18.0347,10.0479,21.6021,14.4749,4.9575,6.1652,12.0479,13.1918,23.4229,13.9451-4.022,2.0254-7.7163,4.6534-10.9038,7.8116-4.1157,4.0787-7.292,8.8235-10.3633,13.4121-4.3081,6.4354-8.377,12.5139-14.3125,15.5221-3.0527,1.5454-6.6055,2.2966-10.8608,2.2966-5.8281,0-12.1641-1.42-18.1523-2.874-10.4619-2.5454-21.2803-5.1776-29.9575-11.0302-8.7275-5.8831-13.9102-14.9528-13.2119-23.1144.0273-.2748.0532-.5498.0942-.8247l.064-.4283v-.0734c.4375-2.8124,1.4424-5.6953,2.5049-8.7434,1.1333-3.2513,2.3052-6.6134,2.9414-10.2965.2788-1.6331.4424-3.2424.4863-4.7878.0107-.1511.0151-.2856.0161-.4009.2212-8.4763-2.5503-17.2722-7.8247-25.3503M281.4719,111.3279c-10.5605,0-21.1289,1.1387-31.3228,3.3301-11.9175,2.5687-24.4458,7.0187-31.2451,17.1407-10.4082,15.5078-4.4019,39.925-18.9736,51.6227-8.8809,7.1332-21.5049,6.0255-32.8779,6.8085-6.9805.4775-14.7437,2.225-22.5264,5.061-29.1533,10.5995-58.6128,36.3727-48.3379,67.713,4.2212,12.8723,14.8584,22.7365,19.8052,35.3413,2.6831,6.8372,3.5996,14.276,6.4072,21.0559,5.2329,12.6621,16.4438,21.8197,27.998,29.1726,11.1919,7.1237,23.2334,13.1779,33.04,22.0967.0098.0095.0288.019.0288.0382.3057.2578.6113.5348.9072.8212,8.9189,8.3843,15.7275,20.1201,15.3931,32.152,0,.0479,0,.0956-.0098.1433-.0283,1.3846-.1719,2.7693-.4102,4.1633-1.146,6.6367-4.5361,12.7672-5.5005,19.3943-.019.0861-.0288.1719-.0288.2675-.0571.382-.0952.7639-.1333,1.1459-.9932,11.3444,6.3213,22.1255,15.7559,28.4851,9.4438,6.3693,20.7695,9.1672,31.8369,11.86,6.3379,1.5388,13.0508,3.0391,19.5293,3.0391,4.6982,0,9.2729-.7889,13.4917-2.9244,11.9458-6.0541,16.6348-20.5688,26.1455-29.9939,7.0957-7.0309,17.0918-10.9316,27.0605-10.9312,3.2451.0001,6.4888.4137,9.627,1.2675,6.7803,1.8525,12.9873,5.5576,19.8813,6.9136,5.4966,1.0793,11.1089,1.6606,16.6787,1.6606,18.2817,0,36.0908-6.2667,47.7207-21.7616.4487-.592.8784-1.2031,1.2896-1.8143,6.1973-9.1958,8.7754-20.4447,9.1094-31.5885.0288-.869.019-1.7092-.0093-2.521v-.1527c-.3438-8.4893-3.5718-13.7699-6.6938-17.0261-2.3779-2.4923-4.708-3.8005-5.6245-4.45-5.3667-3.791-10.9341-4.8701-17.1792-6.8945-2.2129-.7173-4.5142-1.0205-6.8345-1.0205-3.1167,0-6.2681.5472-9.2842,1.3739-23.7964,6.5221-44.0693,28.8766-55.2324,50.047-4.2686,8.1073-9.1289,17.9332-18.2388,18.9836-1.1934.1379-2.3384.2057-3.4404.2057-8.8184,0-14.8833-4.3413-20.9102-11.8365-4.2397-5.2615-17.1597-14.7916-24.875-16.5104-1.4927-.3308-3.4775-.4547-5.707-.4547-6.4561,0-14.9492,1.0402-19.3789,1.104-.7388.0094-1.4482.0145-2.1318.0145-11.8354,0-15.8188-1.533-23.8892-8.9716-.9453-.869-1.958-1.8335-3.0371-2.8744-7.1328-6.9039-14.7148-14.677-15.6699-24.5603-1.0503-10.8765,6.3213-20.97,6.7129-31.8942.2866-8.2408-3.4087-16.1094-4.2202-24.3121-1.0986-11.2012,3.2178-22.3163,2.8452-33.5652-.3916-11.7549-5.8057-22.6505-9.5107-33.804-3.333-10.0743-5.1377-21.6288-.8594-31.092l.0093-.0095c.4585-1.0218.9932-2.0245,1.6045-2.9984,3.7715-5.9874,9.8354-9.8166,16.644-11.9842,4.7842-1.5279,9.9404-2.225,14.9155-2.2631.2236-.0022.4458-.0032.6694-.0032,18.5771,0,37.0679,7.4542,50.438,20.3619,9.9307,9.5682,16.7969,21.5906,23.6626,33.6512,3.4375,6.0541,6.8755,12.1083,10.6855,17.876,10.3989,15.6892,24.0923,29.5928,41.0132,37.8337,9.9272,4.8347,21.0352,7.559,32.0464,7.559,7.7578,0,15.4692-1.3533,22.6802-4.274,16.3096-6.5984,28.9722-20.7885,35.4653-37.1462,6.4932-16.3481,7.1523-34.6633,3.7432-51.9282-.439-2.2536-.9834-4.5168-1.623-6.7608-4.2402-14.9444-12.8818-29.2108-27.1963-34.4628-10.2554-3.7528-22.2305-2.3873-31.6074-8.0022-5.7295-3.4281-9.7305-9.0334-14.1426-14.0372-21.2271-24.0888-53.667-34.8805-86.1792-34.8805h0Z"/>
      </g>
    </g>
  </g>
</svg>