<?xml version="1.0" encoding="UTF-8"?>
<svg id="Capa_2" xmlns="http://www.w3.org/2000/svg" viewBox="0 0 527.8481 530.8379">
  <defs>
    <style>
      .cls-1 {
        fill: #898686;
      }

      .cls-2 {
        fill: #a3a2a2;
      }

      .cls-3 {
        fill: #c4c2c2;
      }

      .cls-4 {
        fill: #938989;
      }

      .cls-5 {
        fill: #847a7a;
      }
    </style>
  </defs>
  <g id="Capa_1-2" data-name="Capa_1">
    <g>
      <g>
        <path class="cls-3" d="M208.7121,525.8384c-5.4941,0-10.5342-.6494-15.4053-1.9844-13.5117-3.707-25.4268-13.5537-36.9502-23.0752-7.1992-5.9492-13.999-11.5693-20.7744-15.3848-7.1182-4.0146-14.5332-6.2021-21.7041-8.3174-10.7158-3.1611-21.7959-6.4307-31.585-15.6504-3.4219-3.2256-6.4805-7.1719-9.3525-12.0664-4.6064-7.8027-8.0508-16.8633-11.3809-25.626-2.8203-7.4209-5.4844-14.4307-8.7334-20.5215-.8467-1.5947-1.6611-2.998-2.4941-4.2988-2.1045-3.2861-4.6543-6.3809-8.0225-9.7373-2.5068-2.5029-5.2031-4.8848-7.8105-7.1885-8.2998-7.332-16.8828-14.915-21.2178-27.6406-6.4971-19.0625-5.0391-38.375-3.4961-58.8213.6543-8.6738,1.3311-17.6426,1.3311-26.5303,0-7.9951-1.543-16.1875-3.0342-24.1104-2.2871-12.1445-4.6514-24.7021-1.6787-37.1914,3.3066-13.877,12.6543-24.8682,21.6943-35.4971,5.9619-7.0107,11.5938-13.6328,15.4062-20.8398,4.1221-7.7949,6.6455-16.5156,9.085-24.9482,3.8408-13.2725,7.8125-26.9971,18.0674-37.9307,10.4414-11.1328,26.9883-17.0049,42.9893-22.6836,10.3467-3.6719,20.1191-7.1406,27.752-11.7842,7.4971-4.5615,12.7256-10.4512,18.2617-16.6855,7.7637-8.7432,15.792-17.7842,29.8975-21.8779,3.3662-.9795,7.0605-1.4355,11.625-1.4355,2.7979,0,5.6143.1689,8.3379.333,2.709.1631,5.2676.3174,7.7939.3174,2.3184,0,4.3096-.1357,6.085-.415,5.0713-.7988,10.0146-2.4072,15.249-4.1094,7.7646-2.5254,15.7939-5.1377,24.7012-5.1377,14.2168,0,26.5713,4.8525,38.5195,9.5459,7.0225,2.7578,13.6562,5.3633,20.6719,7.0703,6.8447,1.6641,14.0879,2.2227,21.7549,2.8145,11.6621.8994,23.7207,1.8301,34.3643,6.998,10.626,5.1699,18.3867,14.1162,25.8926,22.7676,5.0527,5.8232,9.8252,11.3242,15.3076,15.6074,6.2002,4.8467,13.1865,8.9062,19.9434,12.832,1.834,1.0654,3.6631,2.1279,5.4766,3.2041,5.2295,3.0977,11.332,6.8887,16.9043,11.5029,4.1855,3.4561,7.6836,7.0371,10.6885,10.9434,7.3691,9.5869,9.9678,23.623,12.4814,37.1973,1.7812,9.6182,3.4639,18.7031,6.6416,25.5537,3.2256,6.9463,8.0469,11.8818,13.1504,17.1084,6.9902,7.1572,14.2188,14.5576,16.8037,27.0186,2.2744,10.9512-.2178,23.9541-2.627,36.5283-1.6611,8.665-3.2295,16.8496-3.2295,23.9326,0,8.9727.8447,17.1396,1.6621,25.0381,1.5986,15.46,3.1094,30.0615-2.1631,47.0156-3.3496,10.7656-12.2754,20.4043-20.9082,29.7266-6.0283,6.5098-11.7217,12.6582-14.9951,18.584-.3105.5576-.6064,1.1025-.8838,1.6465l-.2188.4375c-.2676.5078-.5264,1.0166-.7666,1.5156-.292.5938-.5586,1.1543-.8154,1.7148-.3398.7354-.6553,1.4502-.9629,2.167-.4502,1.0508-.8838,2.1064-1.2979,3.1611-.4941,1.2793-.9717,2.5645-1.4287,3.8516-.6602,1.8457-1.2832,3.7168-1.8594,5.4648-.1797.5381-.3447,1.0488-.5098,1.5586l-.083.2559c-.3066.9619-.6182,1.9307-.9365,2.9014v.0166l-.3799,1.1572c-.1611.4941-.3242.9922-.4941,1.4834-.0869.2529-.1465.4238-.1992.5957l-.043.1348c-.4561,1.3564-.9219,2.7119-1.4072,4.0479l-.0469.125c-.0449.1133-.0859.2217-.1201.3311l-.0742.2178c-.8193,2.2324-1.6182,4.2236-2.4443,6.0879-.1807.4092-.374.8271-.5684,1.2441l-.0479.1035c-.2393.5215-.4932,1.0508-.7549,1.582v.0264l-.5498,1.083c-2.9287,5.7168-6.4629,10.6494-10.8027,15.0791-8.7256,8.8994-21.0176,12.5723-32.9043,16.124-8.585,2.5645-16.6943,4.9873-23.249,9.1777-6.5771,4.207-11.832,10.2803-17.3955,16.71-7.7891,9.002-15.8438,18.3105-28.0469,22.5684-8.8232,3.0791-18.4561,4.5137-30.3154,4.5137-9.7432,0-19.8271-.9951-29.5791-1.957-9.7266-.96-19.7842-1.9521-29.4658-1.9521-9.0713,0-17.9287,1.7129-26.4951,3.3682-8.4072,1.625-17.1016,3.3057-25.8301,3.3066Z"/>
        <path class="cls-1" d="M263.3488,10c21.166,0,38.3188,11.6846,58.0093,16.4741,18.0483,4.3867,38.7715,1.5146,55.1177,9.4517,16.4546,8.0063,26.0146,26.6543,40.3057,37.8174,8.1533,6.3735,17.2314,11.2222,25.9458,16.3955,5.6948,3.3735,11.2319,6.8848,16.2676,11.0552,3.6099,2.98,6.9639,6.3047,9.9141,10.1401,11.5664,15.0483,10.4751,44.3975,18.5498,61.8057,8.2124,17.6841,25.5327,23.4575,29.5947,43.04,3.5508,17.0938-5.9604,41.2988-5.9604,59.4453,0,26.8311,7.2979,46.2163-.2754,70.5688-5.2422,16.8481-27.1162,32.1914-35.5059,47.3774-.334.5996-.6587,1.1997-.9639,1.7998-.0688.1279-.1274.2456-.1865.3735-.2949.5605-.5806,1.1216-.8457,1.6724-.2954.5996-.5806,1.1997-.856,1.7998-.354.7671-.6885,1.5244-1.0132,2.2817-.4722,1.1016-.9243,2.2031-1.3569,3.3047-.5215,1.3477-1.0132,2.6753-1.4854,4.0029-.6689,1.8687-1.2886,3.7275-1.8984,5.5767-.2065.6196-.4028,1.2295-.5996,1.8394-.3838,1.1997-.7676,2.3901-1.1606,3.5801-.0098.0195-.0195.0493-.0195.0786-.1968.6001-.3936,1.21-.6001,1.8096-.0889.2559-.1772.5117-.2559.7671-.4424,1.3184-.895,2.6362-1.3672,3.9346-.0884.2261-.167.4424-.2358.6587-.7183,1.9575-1.4756,3.8755-2.3213,5.7832-.187.4229-.3838.8462-.5801,1.269-.3838.8359-.7969,1.6719-1.2197,2.5078v.0098c-2.459,4.7998-5.5864,9.4321-9.9238,13.8584-13.7305,14.0054-38.6729,13.9761-55.2749,24.5884-16.7891,10.7402-25.2578,32.0928-44.3975,38.771-9.1255,3.1851-18.7534,4.2344-28.666,4.2344-19.1362,0-39.3369-3.9097-59.0459-3.9097-18.644,0-35.4136,6.6748-52.3267,6.6748-4.6699,0-9.3472-.5078-14.082-1.8062-20.5757-5.6455-38.3975-27.7456-56.5933-37.9941-18.3623-10.3569-37.0796-8.9014-52.3145-23.251-3.2651-3.0786-6.0391-6.8159-8.4683-10.9565-8.1533-13.8091-12.6387-32.1421-20.0151-45.9707-.8555-1.6133-1.7505-3.167-2.6948-4.6426-2.5767-4.0225-5.5571-7.4453-8.7041-10.583-10.4258-10.4058-22.6118-17.5952-27.8247-32.8994-8.9404-26.231-1.8979-54.478-1.8979-83.7388,0-20.7524-9.4521-40.8071-4.8491-60.1436,5.0947-21.3818,26.6245-36.1943,36.6567-55.1567,10.8584-20.5361,10.6123-44.9873,26.3784-61.7959,16.0415-17.104,49.5508-21.3628,69.6938-33.6177,19.2183-11.6943,24.8936-31.6304,46.9541-38.0332,3.2705-.9512,6.7119-1.2373,10.2305-1.2373,5.3057,0,10.7886.6504,16.1318.6504,2.3228,0,4.6182-.123,6.8618-.4756,13.2383-2.085,25.3555-9.186,39.1743-9.186M263.3488,0c-9.7002,0-18.1128,2.7363-26.2485,5.3828-5.04,1.6392-9.8003,3.1875-14.4814,3.9248-1.5132.2383-3.25.354-5.3062.354-2.3755,0-4.8613-.1499-7.4932-.3081-2.7974-.1685-5.6899-.3423-8.6387-.3423-5.0493,0-9.1875.5195-13.0234,1.6353-15.4858,4.4946-24.3853,14.5166-32.2368,23.3589-5.2798,5.9458-10.2666,11.562-17.1226,15.7334-7.1919,4.376-16.728,7.7603-26.8242,11.3433-16.564,5.8784-33.6924,11.957-44.9653,23.9766-11.0762,11.8086-15.2173,26.1201-19.2222,39.9604-2.479,8.5674-4.8203,16.6597-8.7026,24.002-3.5557,6.7212-9.0151,13.1401-14.7949,19.936-9.4219,11.0786-19.165,22.5342-22.749,37.5771-3.2202,13.5269-.7554,26.6167,1.6284,39.2759,1.5161,8.0518,2.9482,15.6572,2.9482,23.1855,0,8.6997-.6699,17.5732-1.3174,26.1548-1.5132,20.0479-3.0776,40.7783,3.75,60.8101,4.7622,13.981,14.2603,22.3716,22.6396,29.7749,2.6689,2.3574,5.1899,4.5845,7.5859,6.9761,3.1118,3.1025,5.4453,5.9292,7.3481,8.8994.7534,1.1772,1.5215,2.5015,2.2803,3.9331,3.1118,5.833,5.7212,12.6992,8.4834,19.9683,3.4048,8.958,6.9253,18.2212,11.7559,26.4023,3.0986,5.2817,6.4458,9.5903,10.2188,13.1479,10.6611,10.0415,22.3232,13.4819,33.6011,16.8091,7.2207,2.1304,14.041,4.1421,20.6606,7.876,6.3926,3.6006,13.0264,9.082,20.0493,14.8853,11.9297,9.8579,24.2656,20.0518,38.811,24.0425,5.3091,1.4556,10.7803,2.1626,16.728,2.1626,9.2085,0,18.1421-1.7271,26.7817-3.3975,8.7183-1.6851,16.9536-3.2773,25.5449-3.2773,9.4351,0,19.3687.98,28.9746,1.9282,9.8726.9741,20.0815,1.9814,30.0713,1.9814,12.2666,0,22.7212-1.5679,31.9614-4.793,13.4629-4.6973,22.3447-14.9619,30.1807-24.0181,5.3193-6.147,10.3433-11.9536,16.3101-15.7705,5.9614-3.8105,13.7441-6.1357,21.9839-8.5977,12.4951-3.7334,25.4155-7.5933,35.043-17.4141,4.7002-4.7964,8.521-10.1274,11.6831-16.2993l1.1001-2.147v-.0981c.1064-.2246.2085-.4434.3076-.6597.2158-.4648.4316-.9312.6377-1.3965.8638-1.9487,1.7036-4.0396,2.5635-6.3833l.0757-.2056.0659-.208.0205-.0498.043-.1108.041-.1118c.4434-1.2197.9043-2.5449,1.4497-4.1709l.04-.1187.0366-.1196c.0439-.1421.0947-.2842.1445-.4272.1914-.5557.3672-1.0923.5415-1.6255l.1147-.3501.498-1.5186v-.022c.2363-.7271.4702-1.4556.7046-2.188l.0195-.0605c.1777-.5513.356-1.103.5425-1.6636.5454-1.6533,1.1714-3.5381,1.8267-5.3687.459-1.291.9111-2.5098,1.3882-3.7437.3921-.9966.8057-2.0039,1.2305-2.9941.314-.7329.6089-1.397.9014-2.0308.2466-.5376.4927-1.0552.7471-1.5718l.02-.0405.0195-.0405c.1953-.4058.4194-.8491.6855-1.3545l.1201-.228.0674-.1465.0093-.0166.0537-.106c.2148-.4224.4717-.9019.7861-1.4658,2.9961-5.4233,8.4893-11.3555,14.3052-17.6362,9.0103-9.73,18.3271-19.7915,22.0127-31.6362,5.5776-17.9351,4.0161-33.0327,2.3623-49.0166-.8037-7.7725-1.6353-15.8091-1.6353-24.5234,0-6.6079,1.5254-14.5664,3.1401-22.9922,2.502-13.0562,5.0894-26.5571,2.6113-38.4868-2.8813-13.8901-10.978-22.1807-18.1216-29.4951-4.7969-4.9116-9.3281-9.5508-12.1943-15.7231-2.9097-6.2729-4.5361-15.0562-6.2583-24.355-2.6211-14.1558-5.332-28.7935-13.4326-39.333-3.2393-4.2109-6.9927-8.0562-11.4766-11.7578-5.8228-4.8223-12.1338-8.7461-17.5371-11.9468-1.8169-1.0786-3.6572-2.1479-5.502-3.2197-6.918-4.019-13.4517-7.8154-19.3818-12.4507-5.1045-3.9873-9.7231-9.311-14.6128-14.9473-7.8345-9.0303-15.936-18.3687-27.4761-23.9839-11.5044-5.5859-24.0439-6.5532-36.1709-7.4888-7.4604-.5757-14.5073-1.1191-20.9604-2.688-6.6846-1.626-13.1646-4.1709-20.0249-6.8657-12.3813-4.8628-25.1836-9.8911-40.3462-9.8911h0Z"/>
      </g>
      <circle class="cls-2" cx="106.9605" cy="259.9476" r="12.861"/>
      <circle class="cls-2" cx="282.7256" cy="47.6626" r="18.1988"/>
      <circle class="cls-2" cx="296.6419" cy="372.1263" r="18.1988"/>
      <circle class="cls-2" cx="112.3159" cy="93.5476" r="6.4305"/>
      <circle class="cls-2" cx="231.9306" cy="238.2967" r="6.4305"/>
      <circle class="cls-2" cx="454.8619" cy="371.662" r="6.4305"/>
      <circle class="cls-2" cx="320.4384" cy="217.219" r="14.6473"/>
      <circle class="cls-2" cx="383.7482" cy="455.4946" r="9.0784"/>
      <circle class="cls-2" cx="344.164" cy="481.2583" r="9.0784"/>
      <circle class="cls-2" cx="271.5878" cy="299.9468" r="11.1378"/>
      <circle class="cls-2" cx="154.1871" cy="466.6324" r="11.1378"/>
      <circle class="cls-2" cx="459.5692" cy="147.2876" r="11.1378"/>
      <circle class="cls-2" cx="182.4439" cy="98.7371" r="8.5811"/>
      <circle class="cls-2" cx="493.3152" cy="221.5655" r="7.3643"/>
      <circle class="cls-2" cx="133.7146" cy="383.2641" r="11.1378"/>
      <circle class="cls-2" cx="344.164" cy="70.4104" r="11.1378"/>
      <circle class="cls-2" cx="402.9643" cy="87.1171" r="5.5689"/>
      <circle class="cls-2" cx="263.9254" cy="495.9056" r="5.5689"/>
      <circle class="cls-2" cx="243.0684" cy="125.0119" r="11.1378"/>
      <circle class="cls-2" cx="83.6024" cy="168.3885" r="23.2871"/>
      <circle class="cls-2" cx="481.0725" cy="280.1667" r="19.7801"/>
      <circle class="cls-2" cx="53.2047" cy="330.8647" r="19.7801"/>
      <circle class="cls-2" cx="267.8213" cy="444.3568" r="22.2756"/>
      <g>
        <path class="cls-4" d="M260.8069,469.2671c-6.1484,0-12.6787-1.4609-18.8408-2.9561-10.7109-2.6074-21.7891-5.3027-30.8955-11.4453-9.6045-6.4736-15.2891-16.6074-14.4834-25.8164.0303-.3027.0625-.6367.1123-.9717l.0322-.2129v-.0703c.459-3.1523,1.5312-6.2295,2.667-9.4863,1.0947-3.1406,2.2266-6.3877,2.8193-9.8252.2656-1.5498.4121-3.0078.4492-4.4561.0137-.1562.0137-.2773.0137-.3457.3262-11.6973-5.6133-24.2139-16.2998-34.2637v-.1279l-1.0498-.835c-7.3311-6.6514-15.8809-11.7646-24.1504-16.71-3.0479-1.8223-6.1992-3.707-9.2188-5.6279-8.9521-5.6982-21.4775-14.7822-26.8682-27.8281-1.375-3.3203-2.2705-6.8037-3.2178-10.4912-.8906-3.4658-1.8115-7.0508-3.1719-10.5166-2.4502-6.2441-6.1982-11.8008-9.8232-17.1758-4.0225-5.9619-7.8213-11.5938-9.9248-18.0088-9.4873-28.9375,17.4873-53.4961,46.5654-64.0684,7.5273-2.7432,15.041-4.4346,21.7305-4.8916,2.0898-.1445,4.2881-.2256,6.4141-.3037,9.8926-.3652,20.123-.7422,28.0889-7.1406,9.0166-7.2383,10.8682-18.5898,12.6582-29.5674,1.3145-8.0586,2.6738-16.3916,6.9092-22.7031,6.7383-10.0312,20.0293-13.8887,29.4404-15.916,10.0771-2.166,20.4092-3.2646,30.709-3.2646,34.3994,0,65.0137,12.3535,83.9941,33.8936.8916,1.0107,1.7656,2.0459,2.6406,3.083,3.5498,4.2051,7.2207,8.5527,12.1914,11.5273,5.9219,3.5459,12.627,4.5186,19.1123,5.46,4.6016.668,8.9473,1.2988,12.9902,2.7783,15.7012,5.7607,22.6504,22.8496,25.3955,32.5225.6182,2.1709,1.1445,4.3643,1.5654,6.5234,3.5605,18.0283,2.3184,35.418-3.5908,50.2949-6.5586,16.5244-18.8975,29.4717-33.8516,35.5215-6.6533,2.6953-13.916,4.0615-21.5869,4.0615-10.3711,0-21.0117-2.5117-30.7715-7.2646-14.9277-7.2705-28.7119-20.0039-39.8604-36.8242-3.75-5.6758-7.2168-11.7803-10.5693-17.6846-6.8428-12.0195-13.9053-24.4248-24.1855-34.3311-13.9395-13.457-33.0605-21.1768-52.459-21.1768l-.6982.0039c-5.5332.042-10.9893.8721-15.7734,2.4004-8.1035,2.5801-14.4053,7.1475-18.2227,13.2061-.5908.9414-1.1279,1.9258-1.6016,2.9326l-.2012.4277c-3.9229,8.6768-3.6709,19.8496.748,33.207.9541,2.8701,2.0254,5.7432,3.0625,8.5215,3.0986,8.3066,6.0264,16.1533,6.3027,24.4639.1641,4.9434-.6289,9.8535-1.4688,15.0518-.9775,6.0605-1.9893,12.3281-1.3643,18.7012.3633,3.6738,1.2568,7.2305,2.1221,10.6709,1.1504,4.5771,2.2373,8.8994,2.0859,13.2568-.1631,4.5439-1.6719,9.0029-3.2695,13.7236-1.998,5.9014-4.0635,12.0039-3.4316,18.5508,1.0205,10.5547,8.4072,18.498,16.5439,26.373,1.1006,1.0625,2.1309,2.0439,3.0928,2.9268,8.6875,8.0088,13.2783,9.7393,25.8486,9.7393.6992,0,1.4238-.0059,2.1787-.0156,1.9941-.0283,4.7344-.2422,7.6357-.4688,3.8096-.2969,8.1279-.6338,11.7061-.6338,2.2139,0,3.9219.1299,5.0771.3857,6.9795,1.5547,19.4199,10.7568,23.2363,15.4932,7.2822,9.0566,14.2148,12.9219,23.1787,12.9219,1.2129,0,2.4834-.0752,3.7744-.2246,10.3301-1.1904,15.7188-11.4492,20.0479-19.6924l.4346-.8271c10.1162-19.1865,29.4648-42.0293,53.4248-48.5947,3.0762-.8438,5.9404-1.2715,8.5146-1.2715,2.1396,0,4.1367.2959,5.9355.8789,1.3418.4346,2.6523.8271,3.9365,1.2109,4.624,1.3828,8.6172,2.5771,12.4609,5.292.1914.1357.4434.3018.7422.4971,1.0967.7178,2.7549,1.8037,4.4551,3.585,3.6475,3.8037,5.627,8.874,5.8887,15.0752l.002.1943c.0303.8516.0332,1.6113.0088,2.3213-.3594,12.002-3.2578,22.1113-8.6133,30.0586-.3828.5684-.7803,1.1357-1.1963,1.6836-12.7852,17.0342-31.7432,20.6074-45.3984,20.6074-5.2666,0-10.6895-.54-16.1172-1.6064-3.5654-.7002-6.9678-2.0938-10.5693-3.5684-2.918-1.1943-5.9355-2.4297-9.1064-3.2959-3.3438-.9102-6.8398-1.3711-10.3955-1.3711-10.9473,0-21.5566,4.292-29.1094,11.7744-3.9082,3.873-7.002,8.4951-9.9932,12.9639-4.5254,6.7607-8.8008,13.1475-15.4189,16.501-3.4688,1.7568-7.4521,2.6104-12.1758,2.6104Z"/>
        <path class="cls-5" d="M281.4719,117.1528c15.9658,0,31.6055,2.7729,45.2285,8.0181,14.7119,5.6646,27.019,14.0381,36.5815,24.8896.8618.9775,1.7036,1.9751,2.5952,3.0308,3.7046,4.3892,7.5356,8.9282,12.9238,12.1519,6.4229,3.8462,13.4229,4.8618,20.1919,5.8442,4.4473.6455,8.6479,1.2554,12.4019,2.6289,14.4917,5.3174,21.0054,21.4443,23.6006,30.5908.5957,2.0908,1.103,4.2031,1.5107,6.2925,3.4497,17.4712,2.2593,34.2939-3.4429,48.6504-6.2676,15.7886-18.0171,28.1431-32.2383,33.896-6.3037,2.5532-13.1987,3.8481-20.4932,3.8481-9.9321,0-20.1313-2.4106-29.4951-6.9707-14.4619-7.0435-27.8472-19.4282-38.7041-35.8076-3.6982-5.5986-7.1411-11.6616-10.4834-17.5469-6.9316-12.1763-14.0991-24.7671-24.6792-34.96-14.4795-13.979-34.3379-21.9966-54.4829-21.9966-.2427,0-.4839.001-.7144.0034-4.084.0312-8.1323.4717-11.9302,1.2886,4.6353-7.1777,6.0576-15.9009,7.4458-24.4106,1.3223-8.1074,2.5713-15.7656,6.4521-21.5469,4.6816-6.9702,13.4634-11.6396,27.6333-14.6938,9.877-2.1235,20.0034-3.2002,30.0981-3.2002M186.6384,194.7739c-.4639.623-.9028,1.2627-1.3159,1.9189-.5459.8701-1.0498,1.7715-1.5039,2.6899l-.0459.0459-.4375.9678c-4.2329,9.3638-4.0186,21.2476.6392,35.3281.9692,2.9175,2.0503,5.8159,3.0962,8.6187,3.0137,8.0781,5.8604,15.7075,6.1211,23.5415.1543,4.6621-.6167,9.437-1.4326,14.4922-1.0078,6.2437-2.0503,12.6997-1.3882,19.4541.3848,3.8853,1.3057,7.5483,2.1963,11.0908,1.0991,4.3711,2.1372,8.5005,2,12.439-.1475,4.1216-1.5903,8.3848-3.1182,12.8979-2.0962,6.1929-4.2637,12.5967-3.5713,19.7651.5103,5.2852,2.5493,10.0234,5.2217,14.2056-1.1968-1.3931-2.4727-2.752-3.8247-4.0728l-.0024-.2739-2.0454-1.6416c-7.5283-6.8154-16.1768-11.9878-24.5415-16.9902-3.0337-1.814-6.1704-3.6899-9.1587-5.5923-8.6187-5.4844-20.6641-14.1963-25.7432-26.4868-1.2954-3.1274-2.165-6.5142-3.0864-10.0996-.9121-3.5513-1.8555-7.2236-3.2808-10.8555-2.5674-6.5425-6.4067-12.2344-10.1201-17.7388-3.9058-5.79-7.5947-11.2588-9.5718-17.2896-4.0718-12.4185-1.2705-24.562,8.3252-36.0928,8.3955-10.0889,21.6875-18.9565,36.4717-24.332,7.2729-2.6504,14.5103-4.2832,20.9312-4.7227,2.0425-.1406,4.1196-.2168,6.3184-.2979,4.1504-.1533,8.5342-.3149,12.8677-.9692M395.4714,356.7681c1.835,0,3.5298.248,5.0376.7368,1.3828.4482,2.7134.8462,4,1.231,4.3784,1.3091,8.1602,2.4399,11.6084,4.876.2183.1548.499.3403.832.5586.9858.6445,2.4751,1.6187,3.9546,3.1689,3.1255,3.2593,4.832,7.6729,5.0732,13.1182v.1328l.0034.103c.0273.7749.0308,1.4697.0088,2.1396-.3384,11.2715-3.1455,21.1294-8.123,28.5151-.3882.5781-.7471,1.0835-1.1123,1.5654-12.0557,16.0615-30.0713,19.4331-43.0615,19.4331-5.0791,0-10.3135-.522-15.5547-1.5513-3.2871-.6465-6.561-1.9868-10.0273-3.4062-2.999-1.228-6.1006-2.4976-9.4487-3.4126-3.5894-.9766-7.3428-1.4717-11.1562-1.4717-1.2637,0-2.5225.0537-3.7744.1592,5.4712-4.4365,9.0581-11.2661,11.9448-16.7632l.4312-.8198c9.8325-18.6475,28.5562-40.8252,51.6191-47.146,2.8252-.7739,5.4312-1.167,7.7451-1.167M197.7678,378.4307c2.5752,2.9868,5.2583,5.5835,7.5337,7.7856,1.2949,1.2495,2.2632,2.1655,3.1328,2.9658,9.168,8.4497,14.6313,10.5132,27.8374,10.5132.708,0,1.4424-.0054,2.2163-.0151,2.0806-.0298,4.7354-.2373,7.8096-.4771,3.7588-.2939,8.019-.6265,11.4854-.6265,2.4937,0,3.7939.1724,4.4399.3154,6.2461,1.3916,18.0352,10.0479,21.6025,14.4751,4.957,6.165,12.0464,13.1919,23.4219,13.9453-4.022,2.0249-7.7158,4.6533-10.9033,7.8115-4.1157,4.0786-7.292,8.8232-10.3633,13.4121-4.3081,6.4351-8.377,12.5137-14.3125,15.522-3.0527,1.5449-6.6055,2.2964-10.8608,2.2964-5.8276,0-12.1641-1.4199-18.1519-2.8735-10.4614-2.5454-21.2788-5.1772-29.958-11.0308-8.7271-5.8823-13.9097-14.9507-13.2119-23.1118.0273-.2759.0537-.5513.0947-.8267l.064-.4287v-.0767c.438-2.811,1.4424-5.6929,2.5044-8.7393,1.1333-3.2515,2.3052-6.6138,2.9409-10.2954.2803-1.6362.4443-3.2495.4878-4.7998.0103-.1475.0142-.2788.0151-.3906.2212-8.4771-2.5498-17.2725-7.8247-25.3506M281.4719,111.3276c-10.5605,0-21.1289,1.1387-31.3228,3.3301-11.917,2.5688-24.4453,7.0186-31.2446,17.1406-10.4087,15.5078-4.4019,39.9253-18.9741,51.6226-8.8809,7.1333-21.5044,6.0259-32.8779,6.8086-6.98.4775-14.7437,2.2251-22.5259,5.061-29.1538,10.5996-58.6128,36.373-48.3379,67.7129,4.2207,12.8726,14.8584,22.7368,19.8047,35.3413,2.6836,6.8374,3.6001,14.2764,6.4077,21.0562,5.2329,12.6621,16.4434,21.8198,27.998,29.1724,11.1914,7.124,23.2329,13.1782,33.04,22.0972.0093.0093.0288.019.0288.0381.3052.2578.6108.5347.9067.8213,8.9189,8.3838,15.7275,20.1196,15.3931,32.1519,0,.0479,0,.0952-.0093.1431-.0283,1.3848-.1719,2.7695-.4106,4.1636-1.146,6.6367-4.5356,12.7671-5.5005,19.394-.019.0859-.0283.1719-.0283.2676-.0571.3818-.0957.7637-.1338,1.146-.9932,11.3442,6.3213,22.1255,15.7563,28.4849,9.4438,6.3691,20.769,9.1675,31.8369,11.8604,6.3379,1.5386,13.0503,3.0386,19.5288,3.0386,4.6978,0,9.2729-.7891,13.4917-2.9243,11.9458-6.0542,16.6348-20.5688,26.1455-29.9937,7.0957-7.0312,17.0923-10.9316,27.061-10.9312,3.2451,0,6.4888.4136,9.627,1.2671,6.7798,1.8525,12.9868,5.5576,19.8813,6.9136,5.4966,1.0796,11.1089,1.6606,16.6787,1.6606,18.2817,0,36.0903-6.2666,47.7207-21.7612.4487-.5923.8784-1.2031,1.2891-1.8145,6.1973-9.1958,8.7754-20.4448,9.1099-31.5884.0283-.8691.019-1.7095-.0098-2.521v-.1528c-.3438-8.4893-3.5713-13.77-6.6938-17.0264-2.3779-2.4922-4.7075-3.8003-5.6245-4.4497-5.3662-3.791-10.9336-4.8701-17.1787-6.8945-2.2129-.7173-4.5137-1.0205-6.834-1.0205-3.1172,0-6.2686.5474-9.2847,1.374-23.7969,6.522-44.0698,28.8765-55.2324,50.0469-4.2686,8.1074-9.1294,17.9331-18.2393,18.9839-1.1934.1377-2.3379.2056-3.4399.2056-8.8184,0-14.8833-4.3413-20.9102-11.8364-4.2397-5.2617-17.1597-14.792-24.8755-16.5107-1.4922-.3306-3.478-.4546-5.7065-.4546-6.4561,0-14.9492,1.04-19.3789,1.104-.7388.0093-1.4482.0146-2.1323.0146-11.8359,0-15.8184-1.5327-23.8892-8.9717-.9453-.8691-1.9575-1.8335-3.0366-2.8745-7.1333-6.9038-14.7153-14.6768-15.6699-24.5601-1.0508-10.8765,6.3213-20.9702,6.7129-31.8945.2866-8.2407-3.4092-16.1094-4.2207-24.312-1.0981-11.2012,3.2178-22.3159,2.8457-33.5649-.3916-11.7549-5.8062-22.6509-9.5112-33.8042-3.3325-10.0742-5.1372-21.6289-.8594-31.0918l.0098-.0098c.458-1.0215.9932-2.0244,1.604-2.998,3.772-5.9878,9.8359-9.8169,16.6445-11.9844,4.7842-1.5278,9.9404-2.2251,14.9155-2.2632.2236-.002.4463-.0034.6699-.0034,18.5771,0,37.0669,7.4541,50.437,20.3623,9.9312,9.5679,16.7969,21.5903,23.6626,33.6509,3.438,6.0542,6.8755,12.1084,10.6855,17.876,10.3994,15.6895,24.0928,29.5928,41.0137,37.834,9.9268,4.8345,21.0347,7.5586,32.0459,7.5586,7.7578,0,15.4692-1.353,22.6802-4.2739,16.3101-6.5981,28.9722-20.7886,35.4658-37.146,6.4932-16.3481,7.1523-34.6636,3.7432-51.9282-.4395-2.2534-.9839-4.5166-1.6235-6.7607-4.2397-14.9443-12.8818-29.2109-27.1958-34.4629-10.2559-3.7529-22.2305-2.3872-31.6079-8.0024-5.7295-3.4277-9.7305-9.0332-14.1421-14.0371-21.2271-24.0889-53.6675-34.8804-86.1797-34.8804h0Z"/>
      </g>
    </g>
  </g>
</svg>