<?xml version="1.0" encoding="UTF-8"?>
<svg id="Capa_2" xmlns="http://www.w3.org/2000/svg" viewBox="0 0 527.8481 530.838">
  <defs>
    <style>
      .cls-1 {
        fill: #ffcb80;
      }

      .cls-2 {
        fill: #db963b;
      }

      .cls-3 {
        fill: #eaa94b;
      }

      .cls-4 {
        fill: #d1831c;
      }

      .cls-5 {
        fill: #e09528;
      }
    </style>
  </defs>
  <g id="Capa_1-2" data-name="Capa_1">
    <g>
      <g>
        <path class="cls-1" d="M208.7121,525.838c-5.4941,0-10.5342-.6494-15.4053-1.9844-13.5117-3.708-25.4277-13.5537-36.9512-23.0762-7.1992-5.9492-13.999-11.5684-20.7734-15.3838-7.1182-4.0146-14.5332-6.2021-21.7041-8.3174-10.7148-3.1611-21.7959-6.4297-31.585-15.6504-3.4229-3.2266-6.4814-7.1729-9.3525-12.0654-4.6064-7.8027-8.0498-16.8633-11.3799-25.625-2.8203-7.4219-5.4854-14.4316-8.7344-20.5225-.8311-1.5674-1.6689-3.0107-2.4941-4.3008-2.1045-3.2842-4.6543-6.3789-8.0234-9.7373-2.5059-2.501-5.2012-4.8828-7.8086-7.1855-8.3008-7.333-16.8838-14.916-21.2188-27.6426-6.4971-19.0625-5.0391-38.375-3.4961-58.8213.6543-8.6729,1.3311-17.6416,1.3311-26.5293,0-7.9951-1.543-16.1875-3.0342-24.1113-2.2871-12.1445-4.6514-24.7021-1.6787-37.1904,3.3066-13.8779,12.6543-24.8682,21.6943-35.498,5.9619-7.0098,11.5938-13.6318,15.4062-20.8389,4.1221-7.7949,6.6455-16.5156,9.085-24.9482,3.8408-13.2725,7.8125-26.998,18.0674-37.9307,10.4414-11.1328,26.9883-17.0049,42.9893-22.6836,10.3467-3.6719,20.1191-7.1406,27.752-11.7842,7.4971-4.5615,12.7266-10.4512,18.2627-16.6855,7.7637-8.7441,15.791-17.7852,29.8965-21.8789,3.3652-.9795,7.0596-1.4355,11.6221-1.4355,2.7998,0,5.6162.1699,8.3408.334,2.71.1631,5.2695.3174,7.7959.3174,2.3174,0,4.3076-.1357,6.083-.415,5.0703-.7988,10.0137-2.4072,15.2471-4.1094,7.7656-2.5254,15.7949-5.1377,24.7031-5.1377,14.2168,0,26.5713,4.8525,38.5195,9.5459,7.0225,2.7578,13.6562,5.3633,20.6719,7.0703,6.8447,1.6631,14.0869,2.2217,21.7539,2.8135,11.6621.9004,23.7217,1.8301,34.3652,6.998,10.626,5.1699,18.3867,14.1152,25.8916,22.7666,5.0527,5.8242,9.8252,11.3252,15.3086,15.6084,6.2041,4.8496,13.1953,8.9111,19.957,12.8398,1.8291,1.0625,3.6533,2.123,5.4629,3.1963,5.2334,3.1006,11.3379,6.8945,16.9043,11.5029,4.1855,3.4561,7.6836,7.0371,10.6885,10.9434,7.3691,9.5869,9.9678,23.623,12.4814,37.1973,1.7812,9.6182,3.4639,18.7031,6.6416,25.5527,3.2256,6.9473,8.0469,11.8838,13.1514,17.1104,6.9902,7.1572,14.2178,14.5586,16.8027,27.0186,2.2744,10.9502-.2178,23.9531-2.627,36.5264-1.6611,8.666-3.2295,16.8516-3.2295,23.9346,0,8.9727.8447,17.1396,1.6621,25.0381,1.5986,15.46,3.1094,30.0615-2.1631,47.0156-3.3496,10.7646-12.2754,20.4033-20.9062,29.7246-6.0293,6.5107-11.7236,12.6602-14.9971,18.5859-.3115.5586-.6074,1.1035-.8838,1.6465l-.2188.4375c-.2676.5078-.5264,1.0166-.7666,1.5156-.292.5938-.5576,1.1523-.8145,1.7119-.3418.7393-.6572,1.4561-.9648,2.1709-.4492,1.0488-.8828,2.1045-1.2969,3.1592-.4941,1.2793-.9717,2.5654-1.4287,3.8525-.6162,1.7227-1.1895,3.4297-1.8594,5.4648-.1846.5527-.3555,1.0791-.5254,1.6045l-.0674.209c-.3066.9619-.6182,1.9316-.9365,2.9014v.0195l-.3916,1.1904c-.1582.4834-.3174.9697-.4834,1.4492-.082.2412-.1445.418-.1982.5947l-.043.1357c-.457,1.3555-.9219,2.7119-1.4072,4.0469l-.0439.1172c-.0459.1162-.0879.2266-.123.3379l-.0742.2178c-.8193,2.2324-1.6182,4.2236-2.4443,6.0869-.1797.4092-.373.8252-.5674,1.2422l-.0488.1064c-.2393.5215-.4932,1.0508-.7549,1.582v.0273l-.5498,1.084c-2.9297,5.7158-6.4629,10.6475-10.8027,15.0762-8.7256,8.9014-21.0176,12.5732-32.9053,16.125-8.585,2.5654-16.6943,4.9883-23.249,9.1777-6.5762,4.207-11.8311,10.2803-17.3945,16.71-7.7891,9.0029-15.8438,18.3115-28.0469,22.5693-8.8223,3.0791-18.4551,4.5127-30.3135,4.5127-9.7441,0-19.8281-.9951-29.5801-1.957-9.7266-.96-19.7842-1.9521-29.4668-1.9521-9.0713,0-17.9287,1.7119-26.4951,3.3682-8.4072,1.625-17.1016,3.3057-25.8301,3.3066Z"/>
        <path class="cls-2" d="M263.3488,10c21.166,0,38.3188,11.6844,58.0093,16.4742,18.0483,4.3867,38.7715,1.5148,55.1177,9.4519,16.4546,8.006,26.0146,26.6539,40.3057,37.8171,8.1533,6.3734,17.2314,11.2223,25.9458,16.3956,5.6948,3.3735,11.2319,6.8849,16.2676,11.0551,3.6099,2.9801,6.9634,6.3044,9.9141,10.1403,11.5664,15.0482,10.4751,44.3971,18.5498,61.8058,8.2124,17.6841,25.5327,23.4575,29.5947,43.0398,3.5508,17.094-5.9604,41.2988-5.9604,59.4451,0,26.8311,7.2979,46.2168-.2754,70.5691-5.2422,16.8481-27.1162,32.1914-35.5059,47.3772-.334.6001-.6587,1.2-.9639,1.8-.0688.1277-.1274.2458-.1865.3735-.2954.5608-.5806,1.1213-.8462,1.6721-.2949.5999-.5801,1.2-.8555,1.7998-.354.7673-.6885,1.5247-1.0132,2.282-.4722,1.1016-.9243,2.2031-1.3569,3.3047-.5215,1.3474-1.0132,2.675-1.4854,4.0029-.6689,1.8687-1.2886,3.7275-1.8984,5.5767-.2065.6196-.4028,1.2295-.5996,1.8394-.3838,1.1997-.7676,2.3899-1.1606,3.5801-.0098.0195-.0195.0491-.0195.0786-.1968.5999-.3936,1.2097-.6001,1.8098-.0889.2556-.1772.5112-.2559.7671-.4424,1.3179-.895,2.636-1.3672,3.9341-.0884.2263-.167.4426-.2358.6589-.7183,1.9573-1.4756,3.8752-2.3213,5.7832-.187.4231-.3838.8459-.5801,1.2688-.3838.8359-.7969,1.6721-1.2197,2.5081v.0098c-2.459,4.7998-5.5864,9.4324-9.9238,13.8582-13.7305,14.0056-38.6729,13.9761-55.2754,24.5886-16.7886,10.7402-25.2573,32.093-44.397,38.7712-9.124,3.1846-18.7544,4.2341-28.6655,4.2341-19.1377,0-39.3354-3.9097-59.0464-3.9097-18.644,0-35.4131,6.6748-52.3262,6.6748-4.6699,0-9.3477-.5083-14.0825-1.8064-20.5757-5.6455-38.3975-27.7456-56.5933-37.9941-18.3623-10.3567-37.0796-8.9009-52.3145-23.2507-3.2651-3.0786-6.0391-6.8159-8.4683-10.9568-8.1538-13.8088-12.6387-32.1421-20.0151-45.9707-.8555-1.613-1.7505-3.167-2.6948-4.6423-2.5767-4.0227-5.5571-7.4453-8.7041-10.5828-10.4258-10.406-22.6118-17.5957-27.8247-32.8994-8.9404-26.2312-1.8979-54.4785-1.8979-83.7388,0-20.7527-9.4521-40.8071-4.8491-60.1436,5.0947-21.3823,26.6245-36.1943,36.6567-55.157,10.8584-20.5364,10.6123-44.9873,26.3784-61.7959,16.0415-17.1039,49.5508-21.3625,69.6938-33.6176,19.2183-11.6942,24.8936-31.6306,46.9541-38.0334,3.2705-.9514,6.7114-1.2374,10.23-1.2374,5.3062,0,10.79.6505,16.1328.6505,2.3228,0,4.6177-.1228,6.8613-.4753,13.2383-2.0851,25.3555-9.1863,39.1743-9.1863M263.3488,0c-9.7002,0-18.1128,2.7365-26.2485,5.3829-5.04,1.6394-9.8003,3.1879-14.4814,3.9252-1.5132.2378-3.25.3535-5.3057.3535-2.3755,0-4.8613-.1497-7.4937-.3081-2.7974-.1683-5.6899-.3424-8.6392-.3424-5.0488,0-9.187.5197-13.0229,1.6354-15.4858,4.4948-24.3853,14.5167-32.2368,23.359-5.2798,5.9459-10.2666,11.562-17.1226,15.7338-7.1919,4.3756-16.728,7.7599-26.8242,11.3429-16.5645,5.8785-33.6924,11.9572-44.9653,23.9766-11.0762,11.8085-15.2173,26.1201-19.2222,39.9604-2.479,8.5675-4.8203,16.6599-8.7026,24.0021-3.5557,6.7211-9.0151,13.1403-14.7949,19.9362-9.4219,11.0784-19.165,22.5339-22.749,37.5771-3.2202,13.5266-.7554,26.6167,1.6284,39.2756,1.5161,8.0518,2.9482,15.6572,2.9482,23.1858,0,8.6997-.6699,17.5732-1.3174,26.1545-1.5132,20.0479-3.0776,40.7786,3.75,60.8103,4.7622,13.9807,14.2598,22.3713,22.6396,29.7744,2.6685,2.3577,5.1895,4.5847,7.5859,6.9768,3.1123,3.1025,5.4458,5.9287,7.3477,8.8984.7534,1.1768,1.5215,2.501,2.2812,3.9341,3.1108,5.832,5.7202,12.6978,8.4824,19.9663,3.4048,8.9587,6.9253,18.2224,11.7563,26.4036,3.0981,5.2815,6.4453,9.5903,10.2188,13.1479,10.6611,10.042,22.3232,13.4824,33.6016,16.8093,7.2207,2.1301,14.0405,4.1421,20.6606,7.876,6.3921,3.6003,13.0259,9.0818,20.0488,14.885,11.9297,9.8582,24.2656,20.0515,38.811,24.0425,5.3086,1.4556,10.7803,2.1628,16.7285,2.1628,9.208,0,18.1416-1.7271,26.7812-3.3972,8.7188-1.6855,16.9536-3.2776,25.5449-3.2776,9.436,0,19.3691.9802,28.9751,1.9282,9.8726.9741,20.0806,1.9814,30.0713,1.9814,12.2661,0,22.7207-1.5676,31.9609-4.7927,13.4629-4.6975,22.3447-14.9622,30.1807-24.0183,5.3193-6.1475,10.3433-11.9536,16.3101-15.7708,5.9609-3.8103,13.7437-6.1357,21.9839-8.5974,12.4951-3.7334,25.4155-7.5938,35.0435-17.4143,4.6992-4.7952,8.52-10.1262,11.6826-16.2991l1.1001-2.1472v-.0979c.1064-.2246.208-.4431.3076-.6594l.0151-.0332c.2114-.4553.4224-.9106.6235-1.3657.8633-1.9473,1.7026-4.0378,2.5625-6.3809l.0757-.2053.0659-.2087.022-.0537.0425-.1084.0396-.1096c.4414-1.2131.9019-2.5381,1.4497-4.1699l.041-.1221.0381-.123c.0425-.1396.0928-.2788.1416-.4182.1914-.5571.3657-1.0889.5386-1.6167l.1182-.3616.4985-1.5188v-.0225c.2363-.7273.4702-1.4558.7046-2.188l.0195-.0608c.1777-.5515.356-1.1033.5425-1.6633.5454-1.6536,1.1714-3.5383,1.8267-5.3687.4619-1.2988.916-2.5234,1.396-3.7639.377-.9592.7944-1.9753,1.2227-2.9744.314-.7322.6089-1.397.9019-2.032.2466-.5376.4941-1.0579.7495-1.5779l.0166-.0334.0161-.0337c.2153-.4465.4473-.9009.6865-1.3557l.1196-.2268.0698-.1506.0088-.0164.0552-.1086c.2158-.4246.4663-.8911.7876-1.4688,2.9946-5.4202,8.4878-11.3523,14.3037-17.6328,9.0103-9.7302,18.3271-19.7917,22.0127-31.6367,5.5776-17.9348,4.0161-33.0325,2.3623-49.0166-.8037-7.7722-1.6353-15.8091-1.6353-24.5234,0-6.6079,1.5254-14.5662,3.1396-22.9917,2.5024-13.0564,5.0898-26.5574,2.6118-38.4871-2.8813-13.8901-10.978-22.1804-18.1216-29.4949-4.7969-4.9114-9.3281-9.5505-12.1943-15.7231-2.9097-6.2732-4.5361-15.0564-6.2583-24.3552-2.6211-14.1556-5.332-28.7932-13.4326-39.3328-3.2397-4.2115-6.9932-8.0565-11.4766-11.7578-5.8232-4.8225-12.1338-8.7462-17.5371-11.9471-1.8164-1.0782-3.6562-2.1475-5.501-3.219-6.918-4.0193-13.4526-7.8157-19.3828-12.4514-5.1045-3.9872-9.7227-9.3107-14.6123-14.9468-7.835-9.0306-15.9365-18.3689-27.4771-23.984-11.5039-5.5858-24.0435-6.5533-36.1704-7.489-7.4604-.5757-14.5073-1.1194-20.9604-2.6879-6.6841-1.626-13.1641-4.171-20.0249-6.8657-12.3809-4.8629-25.1831-9.8914-40.3462-9.8914h0Z"/>
      </g>
      <circle class="cls-3" cx="106.9605" cy="259.9477" r="12.861"/>
      <circle class="cls-3" cx="282.7256" cy="47.6627" r="18.1988"/>
      <circle class="cls-3" cx="296.6419" cy="372.1264" r="18.1988"/>
      <circle class="cls-3" cx="112.3159" cy="93.5477" r="6.4305"/>
      <circle class="cls-3" cx="231.9305" cy="238.2968" r="6.4305"/>
      <circle class="cls-3" cx="454.8619" cy="371.6621" r="6.4305"/>
      <circle class="cls-3" cx="320.4383" cy="217.2191" r="14.6473"/>
      <circle class="cls-3" cx="383.7482" cy="455.4947" r="9.0784"/>
      <circle class="cls-3" cx="344.164" cy="481.2584" r="9.0784"/>
      <circle class="cls-3" cx="271.5878" cy="299.9469" r="11.1378"/>
      <circle class="cls-3" cx="154.1871" cy="466.6325" r="11.1378"/>
      <circle class="cls-3" cx="459.5692" cy="147.2877" r="11.1378"/>
      <circle class="cls-3" cx="182.4439" cy="98.7372" r="8.5811"/>
      <circle class="cls-3" cx="493.3152" cy="221.5656" r="7.3643"/>
      <circle class="cls-3" cx="133.7146" cy="383.2642" r="11.1378"/>
      <circle class="cls-3" cx="344.164" cy="70.4105" r="11.1378"/>
      <circle class="cls-3" cx="402.9643" cy="87.1172" r="5.5689"/>
      <circle class="cls-3" cx="263.9254" cy="495.9057" r="5.5689"/>
      <circle class="cls-3" cx="243.0684" cy="125.012" r="11.1378"/>
      <circle class="cls-3" cx="83.6023" cy="168.3886" r="23.2871"/>
      <circle class="cls-3" cx="481.0725" cy="280.1668" r="19.7801"/>
      <circle class="cls-3" cx="53.2047" cy="330.8648" r="19.7801"/>
      <circle class="cls-3" cx="267.8213" cy="444.3569" r="22.2756"/>
      <g>
        <path class="cls-5" d="M260.8078,469.2677c-6.1494,0-12.6797-1.4609-18.8418-2.957-10.7109-2.6055-21.7871-5.3008-30.8955-11.4443-9.6045-6.4746-15.2891-16.6084-14.4834-25.8164.0303-.3027.0635-.6377.1123-.9736l.0322-.2119v-.0693c.459-3.1533,1.5312-6.2305,2.667-9.4873,1.0947-3.1406,2.2266-6.3867,2.8193-9.8242.2656-1.5508.4121-3.0088.4492-4.4561.0137-.1562.0137-.2773.0137-.3457.3262-11.6963-5.6133-24.2139-16.2998-34.2646v-.1025l-1.0342-.8457c-7.333-6.6572-15.8867-11.7725-24.1592-16.7197-3.0498-1.8242-6.2031-3.71-9.2246-5.6328-8.9531-5.6973-21.4775-14.7803-26.8691-27.8281-1.375-3.3203-2.2705-6.8037-3.2178-10.4922-.8906-3.4658-1.8115-7.0498-3.1719-10.5156-2.4502-6.2432-6.1982-11.7998-9.8232-17.1738-4.0215-5.9629-7.8213-11.5947-9.9248-18.0098-9.4873-28.9375,17.4873-53.4961,46.5654-64.0684,7.5264-2.7432,15.04-4.4355,21.7305-4.8926,2.0908-.1445,4.2891-.2256,6.415-.3037,9.8926-.3652,20.1221-.7422,28.0879-7.1406,9.0166-7.2383,10.8682-18.5889,12.6582-29.5664,1.3145-8.0586,2.6738-16.3916,6.9092-22.7031,6.7383-10.0312,20.0293-13.8887,29.4404-15.916,10.0771-2.167,20.4102-3.2656,30.71-3.2656,34.3984,0,65.0127,12.3535,83.9932,33.8936.8906,1.0098,1.7637,2.0449,2.6377,3.0801,3.5508,4.2061,7.2227,8.5557,12.1953,11.5312,5.9209,3.5459,12.6279,4.5186,19.1143,5.46,4.6006.668,8.9453,1.2988,12.9873,2.7773,15.7012,5.7617,22.6504,22.8496,25.3955,32.5225.6182,2.1689,1.1445,4.3623,1.5664,6.5234,3.5596,18.0283,2.3174,35.418-3.5918,50.2959-6.5596,16.5244-18.8975,29.4717-33.8516,35.5215-6.6533,2.6953-13.916,4.0615-21.5869,4.0615-10.3711,0-21.0117-2.5117-30.7715-7.2646-14.9297-7.2715-28.7129-20.0059-39.8604-36.8252-3.7578-5.6865-7.2256-11.7969-10.5801-17.7051-6.832-11.999-13.8945-24.4043-24.1748-34.3105-13.9404-13.457-33.0625-21.1768-52.459-21.1768l-.6982.0039c-5.5303.042-10.9863.8721-15.7725,2.4004-8.1045,2.5801-14.4062,7.1475-18.2236,13.2061-.5781.9229-1.1035,1.8809-1.5664,2.8594l-.0088.0088-.2275.4922c-3.9219,8.6777-3.6709,19.8496.748,33.208.9541,2.8701,2.0254,5.7432,3.0625,8.5215,3.0986,8.3066,6.0264,16.1533,6.3027,24.4639.1641,4.9434-.6289,9.8535-1.4688,15.0518-.9775,6.0605-1.9893,12.3281-1.3643,18.7012.3633,3.6729,1.2568,7.2305,2.1221,10.6699,1.1504,4.5771,2.2373,8.9004,2.0859,13.2568-.1631,4.5439-1.6719,9.0029-3.2695,13.7236-1.998,5.9023-4.0635,12.0049-3.4316,18.5518,1.0205,10.5547,8.4072,18.498,16.5439,26.373,1.1006,1.0615,2.1299,2.042,3.0908,2.9258,8.6904,8.0098,13.2832,9.7393,25.8604,9.7393.6953,0,1.417-.0049,2.1689-.0146,1.9932-.0283,4.7314-.2422,7.6309-.4688,3.8115-.2979,8.1318-.6348,11.7119-.6348,2.2139,0,3.9209.1299,5.0762.3857,6.9785,1.5547,19.4199,10.7568,23.2363,15.4941,7.2832,9.0566,14.2158,12.9219,23.1797,12.9219,1.2129,0,2.4824-.0752,3.7734-.2246,10.3301-1.1914,15.7188-11.4502,20.0479-19.6934l.4346-.8271c10.1172-19.1855,29.4648-42.0283,53.4248-48.5947,3.0762-.8428,5.9404-1.2705,8.5146-1.2705,2.1406,0,4.1377.2959,5.9365.8779,1.3408.4346,2.6514.8271,3.9355,1.2109,4.624,1.3828,8.6172,2.5771,12.4609,5.292.1914.1357.4434.3018.7422.4971,1.0967.7178,2.7549,1.8037,4.4551,3.585,3.6475,3.8047,5.627,8.875,5.8887,15.0762l.002.1934c.0303.8525.0332,1.6123.0088,2.3223-.3594,12.001-3.2578,22.1104-8.6133,30.0586-.3818.5664-.7803,1.1338-1.1963,1.6826-12.7852,17.0332-31.7441,20.6074-45.4004,20.6084-5.2656,0-10.6875-.54-16.1152-1.6064-3.5645-.7012-6.9658-2.0938-10.5674-3.5684-2.9189-1.1943-5.9365-2.4307-9.1084-3.2969-3.3438-.9102-6.8398-1.3701-10.3945-1.3701-10.9482,0-21.5586,4.292-29.1104,11.7744-3.9082,3.873-7.002,8.4951-9.9941,12.9639-4.5254,6.7607-8.7998,13.1475-15.418,16.502-3.4688,1.7549-7.4512,2.6094-12.1748,2.6094Z"/>
        <path class="cls-4" d="M281.4724,117.1531c15.9653,0,31.605,2.7726,45.228,8.0179,14.7119,5.6643,27.019,14.0381,36.5815,24.8898.8618.9777,1.7041,1.975,2.5952,3.0309,3.7046,4.3892,7.5356,8.9277,12.9238,12.1519,6.4229,3.8457,13.4224,4.8616,20.1914,5.844,4.4478.6455,8.6484,1.2554,12.4023,2.6289,14.4917,5.3174,21.0054,21.4441,23.6006,30.5911.5957,2.0903,1.103,4.2026,1.5107,6.2922,3.4497,17.4712,2.2593,34.2937-3.4429,48.6504-6.2676,15.7886-18.0171,28.1428-32.2383,33.8962-6.3037,2.5532-13.1987,3.8479-20.4932,3.8479-9.9321,0-20.1313-2.4106-29.4951-6.9709-14.4614-7.043-27.8467-19.4272-38.7036-35.8071-3.6978-5.5974-7.1396-11.6587-10.4839-17.5471-6.9316-12.176-14.0991-24.7666-24.6792-34.9602-14.4795-13.979-34.3379-21.9963-54.4839-21.9963-.2427,0-.4829.0012-.7134.0034-4.084.0312-8.1323.4719-11.9302,1.2888,4.6353-7.178,6.0576-15.9011,7.4458-24.4109,1.3223-8.1075,2.5713-15.7654,6.4521-21.547,4.6821-6.9702,13.4634-11.6395,27.6333-14.6937,9.877-2.1234,20.0039-3.2001,30.0986-3.2001M186.6384,194.774c-.4639.623-.9033,1.2632-1.3164,1.9192-.5308.8459-1.021,1.7205-1.4648,2.6113l-.0498.0474-.4722,1.0447c-4.2329,9.364-4.0186,21.2478.6392,35.3281.9692,2.9177,2.0508,5.8164,3.0967,8.6196,3.0132,8.0774,5.8599,15.7068,6.1206,23.5405.1543,4.6621-.6167,9.437-1.4326,14.4924-1.0078,6.2437-2.0503,12.7-1.3882,19.4539.3848,3.8853,1.3057,7.5483,2.1963,11.0908,1.0991,4.3713,2.1372,8.5005,2,12.439-.1475,4.1218-1.5903,8.3845-3.1182,12.8975-2.0962,6.1931-4.2637,12.5969-3.5713,19.7654.5103,5.2854,2.5493,10.0237,5.2217,14.2058-1.1968-1.3928-2.4722-2.752-3.8247-4.0725l-.002-.2688-2.0415-1.6436c-7.5303-6.8179-16.1807-11.9912-24.5483-16.9951-3.0327-1.8137-6.1685-3.689-9.1562-5.5908-8.6187-5.4844-20.6641-14.1968-25.7432-26.4866-1.2954-3.1277-2.165-6.5142-3.0859-10.0994-.9126-3.5515-1.856-7.2239-3.2812-10.8557-2.5674-6.5427-6.4072-12.2349-10.1201-17.7395-3.9058-5.79-7.5947-11.2585-9.5718-17.2888-4.0718-12.4187-1.2705-24.562,8.3252-36.093,8.3955-10.0886,21.6875-18.9565,36.4717-24.3318,7.2729-2.6504,14.5098-4.2834,20.9316-4.7227,2.0425-.1406,4.1206-.2173,6.3203-.2983,4.1499-.1531,8.5317-.3147,12.8652-.969M395.4709,356.7684c1.835,0,3.5303.2478,5.0381.7366,1.3828.4482,2.7134.8462,4,1.2307,4.3784,1.3096,8.1602,2.4404,11.6084,4.8762.2183.1548.499.3403.832.5583.9854.6445,2.4751,1.6189,3.9546,3.1697,3.1255,3.2588,4.832,7.6721,5.0732,13.1177v.1326l.0034.1033c.0273.7747.0308,1.4697.0088,2.1394-.3384,11.2717-3.1455,21.1294-8.1221,28.5144-.3906.5808-.749,1.0859-1.1133,1.5662-12.0557,16.0618-30.0718,19.4333-43.062,19.4333-5.0791,0-10.313-.522-15.5542-1.551-3.2871-.6465-6.561-1.9871-10.0273-3.4062-2.999-1.228-6.1006-2.4978-9.4487-3.4126-3.5894-.9766-7.3428-1.4717-11.1562-1.4717-1.2637,0-2.5229.0535-3.7744.1592,5.4707-4.4365,9.0571-11.2654,11.9443-16.7625l.4316-.821c9.832-18.6472,28.5557-40.8247,51.6187-47.1458,2.8252-.7742,5.4312-1.1667,7.7451-1.1667M197.7673,378.4303c2.5752,2.9868,5.2588,5.5842,7.5342,7.7861,1.2949,1.2498,2.2632,2.1658,3.1328,2.9656,9.1685,8.4502,14.6318,10.5134,27.8379,10.5134.7075,0,1.4419-.0051,2.2158-.0151,2.0806-.03,4.7354-.2373,7.8096-.4773,3.7588-.2935,8.019-.6262,11.4854-.6262,2.4937,0,3.7939.1724,4.4399.3154,6.2461,1.3916,18.0352,10.0481,21.6021,14.4749,4.9575,6.1653,12.0474,13.1919,23.4229,13.9453-4.022,2.0251-7.7163,4.6533-10.9038,7.8115-4.1157,4.0786-7.292,8.8235-10.3633,13.4121-4.3081,6.4353-8.377,12.5139-14.3125,15.522-3.0527,1.5454-6.6055,2.2966-10.8608,2.2966-5.8276,0-12.1641-1.4199-18.1519-2.8738-10.4619-2.5457-21.2798-5.1777-29.958-11.0305-8.728-5.8833-13.9111-14.9531-13.2119-23.1152.0273-.2742.0537-.5488.0947-.8232l.064-.4285v-.0764c.438-2.8113,1.4429-5.6934,2.5044-8.74,1.1333-3.2517,2.3052-6.614,2.9409-10.2954.2803-1.636.4443-3.2495.4878-4.7993.0103-.1477.0142-.2791.0151-.3914.2212-8.4763-2.5503-17.2725-7.8252-25.3506M281.4724,111.3278c-10.5605,0-21.1294,1.1387-31.3232,3.3301-11.917,2.5687-24.4453,7.0187-31.2446,17.1407-10.4087,15.5078-4.4019,39.9249-18.9741,51.6227-8.8809,7.1331-21.5044,6.0254-32.8779,6.8086-6.98.4773-14.7437,2.2249-22.5259,5.061-29.1538,10.5994-58.6128,36.3726-48.3379,67.7129,4.2207,12.8721,14.8584,22.7366,19.8047,35.3413,2.6836,6.8372,3.6001,14.2759,6.4077,21.0559,5.2329,12.6621,16.4434,21.8198,27.998,29.1726,11.1914,7.1235,23.2329,13.1777,33.04,22.0967.0093.0095.0288.019.0288.0381.3052.2578.6108.5349.9067.8213,8.9189,8.3843,15.7275,20.1201,15.3931,32.1519,0,.0479,0,.0957-.0093.1433-.0283,1.3848-.1719,2.7693-.4106,4.1633-1.146,6.6367-4.5356,12.7673-5.5005,19.3945-.019.0859-.0283.1719-.0283.2673-.0571.3818-.0957.7639-.1338,1.1458-.9932,11.3445,6.3213,22.1255,15.7563,28.4851,9.4438,6.3694,20.769,9.1672,31.8369,11.8601,6.3379,1.5388,13.0503,3.0391,19.5288,3.0391,4.6982,0,9.2729-.7891,13.4917-2.9246,11.9458-6.054,16.6348-20.5688,26.1455-29.9939,7.0957-7.0308,17.0918-10.9314,27.0605-10.9309,3.2456,0,6.4893.4136,9.6274,1.2673,6.7798,1.8525,12.9868,5.5576,19.8813,6.9136,5.4966,1.0793,11.1084,1.6606,16.6782,1.6606,18.2817,0,36.0908-6.2668,47.7212-21.7617.4487-.592.8784-1.2031,1.2891-1.8142,6.1973-9.1958,8.7754-20.4448,9.1099-31.5886.0283-.8689.019-1.7092-.0098-2.521v-.1526c-.3438-8.4893-3.5713-13.77-6.6938-17.0261-2.3779-2.4924-4.7075-3.8005-5.6245-4.45-5.3662-3.791-10.9336-4.8701-17.1787-6.8945-2.2129-.7173-4.5142-1.0205-6.8345-1.0205-3.1172,0-6.2686.5471-9.2847,1.3738-23.7964,6.5222-44.0693,28.8767-55.2319,50.0471-4.2686,8.1072-9.1294,17.9333-18.2393,18.9836-1.1934.1379-2.3384.2058-3.4404.2058-8.8184,0-14.8828-4.3416-20.9097-11.8367-4.2397-5.2615-17.1597-14.7915-24.8755-16.5105-1.4922-.3308-3.478-.4546-5.7065-.4546-6.4561,0-14.9492,1.04-19.3789,1.104-.7388.0095-1.4482.0144-2.1318.0144-11.8359,0-15.8188-1.533-23.8896-8.9714-.9453-.8691-1.9575-1.8335-3.0366-2.8745-7.1333-6.9038-14.7153-14.677-15.6699-24.5603-1.0508-10.8765,6.3213-20.97,6.7129-31.894.2866-8.241-3.4092-16.1094-4.2207-24.312-1.0981-11.2012,3.2178-22.3164,2.8457-33.5654-.3916-11.7549-5.8062-22.6504-9.5112-33.804-3.3325-10.0742-5.1372-21.6287-.8594-31.092l.0098-.0093c.458-1.022.9932-2.0247,1.604-2.9985,3.772-5.9873,9.8359-9.8167,16.6445-11.9841,4.7842-1.5278,9.9404-2.2251,14.9155-2.2632.2236-.0022.4453-.0032.6689-.0032,18.5771,0,37.0679,7.4541,50.438,20.3618,9.9312,9.5684,16.7969,21.5908,23.6626,33.6514,3.438,6.054,6.8755,12.1082,10.6855,17.876,10.3994,15.6892,24.0928,29.5928,41.0137,37.8335,9.9268,4.8347,21.0347,7.5591,32.0459,7.5591,7.7578,0,15.4692-1.3535,22.6802-4.2742,16.3101-6.5984,28.9722-20.7883,35.4658-37.146,6.4932-16.3481,7.1523-34.6636,3.7432-51.9282-.4395-2.2537-.9839-4.5168-1.6235-6.7607-4.2397-14.9446-12.8818-29.2109-27.1958-34.4629-10.2559-3.7529-22.2305-2.3875-31.6079-8.0022-5.7295-3.4282-9.7305-9.0334-14.1421-14.0372-21.2271-24.0889-53.667-34.8805-86.1792-34.8805h0Z"/>
      </g>
    </g>
  </g>
</svg>