<?xml version="1.0" encoding="UTF-8"?>
<svg id="Capa_2" xmlns="http://www.w3.org/2000/svg" viewBox="0 0 1924.4467 514.5247">
  <defs>
    <style>
      .cls-1 {
        fill: #e28da3;
      }

      .cls-2 {
        fill: #b5486f;
      }

      .cls-3 {
        fill: #f2afc1;
      }

      .cls-4 {
        fill: #d36380;
      }
    </style>
  </defs>
  <g id="Capa_1-2" data-name="Capa_1">
    <g>
      <g>
        <path class="cls-3" d="M1839.216,507.0247c-13.8594,0-28.4062-2.3101-43.2363-6.8657-54.3525-16.6816-86.7417-50.1772-121.0332-85.6396-9.0112-9.3193-18.3296-18.9556-28.2339-28.4863-26.3311-25.3398-38.5986-36.8735-53.4536-44.728-26.9551-14.249-52.2192-17.6118-81.4722-21.5059-10.3096-1.3682-25.8413-3.4297-45.3013-3.4297-7.1162,0-14.332.2808-21.4478.8345-15.7026,1.2339-22.8799,3.0923-32.8145,5.665-7.9678,2.063-17.8838,4.6313-34.8276,7.396-13.6631,2.2227-23.2935,3.4268-35.0474,3.4272-11.8892,0-25.8315-1.2915-44.4736-3.3755-15.8931-1.7783-29.8911-5.4434-43.4287-8.9883-15.769-4.1289-30.6636-8.0288-46.0029-8.0288l-.3096.0005c-15.4253.0444-30.7573,8.0835-45.585,15.8584-5.6748,2.9751-11.5425,6.0522-17.3271,8.627-27.7207,12.3477-52.0552,22.3018-74.3916,30.4292-43.5278,15.8564-81.1655,23.5654-115.0605,23.5664-19.0122.0005-37.3203-2.4463-54.4165-7.2729-25.23-7.1152-48.2153-19.5137-70.4443-31.5044-6.9482-3.748-14.1333-7.6235-21.2275-11.2471-17.1382-8.7603-34.4248-14.3389-52.7266-20.2456-9.5884-3.0942-19.5039-6.2944-29.4033-9.9941-25.7114-9.627-41.8955-17.8623-54.8994-24.4795-5.4648-2.7803-10.1841-5.1816-14.7339-7.2349-15.5874-7.0454-31.8364-10.4692-49.6807-10.4692-24.8149,0-50.1318,6.3335-79.4468,13.6665-12.8916,3.2246-26.2222,6.5596-40.4204,9.5679-14.5518,3.0791-28.3506,5.0063-41.6953,6.8701-32.3838,4.522-60.3506,8.4277-85.8994,26.8726-17.519,12.6587-25.4766,22.3711-34.6909,33.6172-9.5918,11.7065-20.4629,24.9746-43.8716,43.2563-19.9751,15.5928-57.1538,44.6152-111.542,56.5625-14.0542,3.0801-33.2363,7.2832-54.083,7.2832-16.7046,0-32.125-2.7681-45.834-8.228-6.5615-2.6172-12.8628-5.8926-18.7324-9.7363-7.0137-4.6055-28.2056-18.5215-38.5928-44.0874-1.73-4.248-3.0874-8.6826-4.0317-13.1743-7.6099-36.4229,8.0366-70.8003,46.5034-102.1885,31.7954-25.9443,73.4805-45.8027,106.9746-61.7593,10.8901-5.1875,21.1758-10.0879,29.5674-14.4839,12.8701-6.7437,26.4219-13.6499,40.2788-20.5269,85.334-42.3223,174.3286-78.9731,264.5142-108.9346,72.3618-24.0444,142.894-42.626,209.6377-55.229,74.4336-14.0552,146.7842-21.1812,215.0415-21.1812,54.7168,0,108.2749,4.5742,159.186,13.5957,109.6602,19.4272,223.2896,48.271,319.9795,73.9238,68.0801,18.0786,133.8345,42.438,206.9355,76.6616,7.3105,3.4155,14.8252,7.1929,22.3311,11.2251,8.0767,4.3223,16.2681,9.0171,24.3374,13.9487,37.6982,22.9995,75.6387,52.7329,115.9863,90.896,14.3643,13.5928,32.7607,25.1216,52.2383,37.3271,43.0264,26.9639,87.5186,54.8457,93.5615,108.8584,2.1885,19.5405-3.209,37.9595-14.8105,50.5322-7.4541,8.0591-17.7471,14.1177-30.6006,18.0137-9.9365,3.0137-20.6504,4.542-31.8428,4.542Z"/>
        <path class="cls-1" d="M921.9152,15c52.8468-.0008,105.5955,4.2165,157.8764,13.4806,105.7839,18.7408,215.5275,46.2394,319.365,73.7886,72.2786,19.1936,137.9467,44.4947,205.6786,76.2047,7.4325,3.4731,14.7477,7.1639,21.9619,11.0397,8.1205,4.3453,16.1234,8.9425,23.9753,13.7408,41.525,25.3344,79.4094,56.5244,114.7433,89.9458,46.8434,44.3267,135.2286,67.6311,143.5,141.5706,1.7787,15.8716-2.0469,32.8847-12.8683,44.6122-7.2314,7.8183-17.0797,12.8347-27.2642,15.9222-9.6322,2.9213-19.6235,4.2194-29.6672,4.2194-13.8361,0-27.7743-2.4619-41.0339-6.5349-66.4736-20.4017-98.6702-66.5575-146.2689-112.3608-25.8375-24.8644-39.0922-37.4647-55.1483-45.9542-28.153-14.8819-54.7792-18.4219-84.0231-22.3144-11.2134-1.4885-26.7866-3.4905-46.2577-3.4908-6.8654,0-14.2122.2487-22.0278.8566-29.6797,2.3322-31.257,7.097-68.2686,13.1372-13.4405,2.1862-22.6796,3.3289-33.8392,3.3289-10.8506,0-23.5167-1.0793-43.6402-3.3289-34.2145-3.8277-60.6871-17.0632-90.2643-17.0636-.1123,0-.2233.0002-.3358.0005-23.5728.067-45.1661,15.8886-65.9367,25.1331-24.1433,10.7545-49.0081,21.1733-73.9061,30.2336-35.9352,13.0904-74.2351,23.114-112.4966,23.114-17.5452,0-35.077-2.1062-52.3784-6.9906-32.2469-9.0936-60.7019-27.0961-90.2981-42.2128-27.0456-13.825-54.8131-20.083-82.9156-30.5858-36.2067-13.5567-53.5211-24.4622-69.1747-31.5256-17.8056-8.0476-35.1505-11.132-52.765-11.1325-36.9922-.0009-75.1861,13.5999-121.422,23.3972-49.7964,10.5364-92.4789,7.6003-130.4303,34.9983-37.1961,26.8778-33.975,42.045-78.7883,77.0433-21.7942,17.0128-56.8264,43.79-108.5353,55.1486-13.8431,3.0335-32.4179,7.1086-52.4742,7.1086-13.9993,0-28.72-1.9852-43.0586-7.6958-5.8889-2.3489-11.7108-5.3186-17.3983-9.0433-6.1072-4.0097-26.2236-17.1803-35.7536-40.6356-1.5098-3.7078-2.7514-7.6675-3.6406-11.8956-18.7578-89.7778,120.1286-139.3055,179.1864-170.2439,13.288-6.9628,26.6766-13.7744,40.1325-20.4519,85.1805-42.2467,173.2975-78.5536,263.545-108.5356C635.7319,45.7937,779.1357,15.0021,921.9152,15M921.9308,0v15l-.0056-15c-68.7347.0008-141.5533,7.1714-216.4436,21.3122-67.0744,12.6653-137.9345,31.3317-210.6117,55.4811-90.5147,30.0708-179.8353,66.8556-265.4797,109.3322-13.9058,6.9008-27.5072,13.8322-40.4297,20.6036-8.2642,4.3292-18.4875,9.1994-29.3111,14.3558-33.858,16.1295-75.9953,36.2033-108.4908,62.7192C10.348,317.1047-6.1734,353.9536,2.053,393.3272c1.0411,4.95,2.5305,9.817,4.4311,14.4845,7.4731,18.3925,21.3947,34.3747,41.3745,47.4922l.0072.0047.0464.0305c6.2889,4.1183,13.0378,7.6266,20.0592,10.4272,14.603,5.8158,30.9572,8.7633,48.6158,8.7633,21.6572,0,41.2964-4.3033,55.6364-7.4456l.0039-.0008.0522-.0114c56.0506-12.3125,94.1036-42.0169,114.547-57.9756,24.0678-18.7964,35.2197-32.4072,45.0589-44.4156,8.8828-10.8414,16.5542-20.2042,33.2847-32.2936,24.0339-17.3506,51.1464-21.1372,82.5403-25.5214,13.4725-1.8817,27.4039-3.8272,42.2097-6.96,14.3361-3.0378,27.7342-6.3894,40.6911-9.6305,28.8333-7.2131,53.7344-13.4422,77.6255-13.4417,16.7572.0006,31.9964,3.2067,46.5875,9.8011,4.3989,1.985,9.0467,4.35,14.4283,7.0886,13.1711,6.7019,29.5631,15.0431,55.6644,24.8158,10.0669,3.7625,20.0644,6.9889,29.7328,10.1092,18.0072,5.8111,35.0156,11.3,51.6153,19.7853,7.0228,3.5872,14.1694,7.4422,21.0808,11.1703,22.5875,12.1842,45.9436,24.7831,71.9733,32.1234,17.7525,5.0119,36.7461,7.5536,56.4494,7.5536,34.7831,0,73.2606-7.8569,117.6308-24.02,22.502-8.1883,46.9953-18.2064,74.8755-30.6253,6.0005-2.6708,11.977-5.8044,17.7564-8.835,14.6739-7.6942,28.5339-14.9617,42.1192-15.0003l.2933-.0005c14.3736,0,28.8139,3.7814,44.1022,7.7845,13.7956,3.6125,28.0612,7.3478,44.4942,9.1861,18.8972,2.1128,33.0675,3.422,45.308,3.422,12.2603,0,22.1981-1.2383,36.2473-3.5233,17.2914-2.8219,27.3917-5.4378,35.5074-7.5394,9.5648-2.477,16.4753-4.2667,31.5281-5.4495,6.9125-.5375,13.9325-.8105,20.8528-.8105,18.9731.0003,34.2047,2.0222,44.2839,3.3603,28.5673,3.8025,53.2158,7.0833,78.9869,20.7061,13.957,7.3797,25.9534,18.6692,51.7573,43.5011,9.8069,9.4372,19.0775,19.0244,28.0428,28.2958,34.9825,36.1772,68.0247,70.3478,124.2261,87.5966,15.5414,4.7742,30.8291,7.1953,45.4349,7.1953,11.9305,0,23.3767-1.6369,34.0209-4.865,14.1442-4.2881,25.5577-11.0478,33.9225-20.0914,13.0897-14.1861,19.1953-34.7631,16.7631-56.468-2.9261-26.1572-14.697-49.0072-35.9847-69.8525-17.7792-17.4097-39.7753-31.1939-61.0472-44.5244-19.1525-12.0025-37.243-23.3392-51.0647-36.4183-40.7364-38.5311-79.0853-68.5767-117.2411-91.8555-8.1936-5.0072-16.5105-9.7736-24.7105-14.1614-7.5945-4.0803-15.2356-7.9208-22.6889-11.4036-73.5036-34.4122-139.6569-58.9169-208.1789-77.1128-96.8447-25.6939-210.6656-54.5853-320.5981-74.0611-51.3408-9.0975-105.3336-13.7106-160.4775-13.7106h0Z"/>
      </g>
      <g>
        <path class="cls-4" d="M903.3205,260.8563c-29.9146,0-56.6792-7.1182-79.5518-21.1577-35.3687-21.6797-48.6313-43.5479-53.5288-58.0747-2.2407-6.6631-3.3315-13.4683-3.2427-20.2314-.0005-.0845-.0005-.3105.0239-.6191.5049-20.8301,11.98-40.5229,34.1118-58.5352,17.1982-13.9971,36.3003-23.1909,44.4575-27.1167,24.6445-11.8638,49.8345-17.3896,79.2744-17.3896,22.0732,0,43.9551,3.1152,64.3135,6.4814,6.4829,1.0571,12.9165,2.1768,19.7275,3.3628l1.6509.2871c14.8853,2.5874,28.2998,6.2065,39.8701,10.7573,27.9888,10.9976,45.0869,27.2007,50.8179,48.1577,5.813,21.2012-4.2725,48.8208-10.7002,58.231-9.9033,14.5586-15.3921,18.7065-48.9341,36.9736-28.8755,15.7236-43.3589,19.9067-56.1377,23.5972-2.9771.8599-5.7886,1.6719-8.7158,2.6064-11.9111,3.7925-39.7925,12.6699-73.4365,12.6699Z"/>
        <path class="cls-2" d="M924.8644,64.2316c20.5092-.0006,41.3672,2.7756,63.2537,6.3947,6.9961,1.1409,14.0931,2.3824,21.3244,3.6407,14.0934,2.4496,27.1297,5.889,38.6056,10.4022,24.2102,9.5131,41.4578,23.8245,46.9274,43.8236,5.2349,19.0931-4.228,44.6959-9.7982,52.8499-8.9593,13.1706-13.1873,16.6939-46.6756,34.9313-34.8474,18.9756-47.7999,20.6366-63.7219,25.7204-11.1973,3.5654-38.8277,12.362-71.4595,12.362-24.1843,0-51.1128-4.8285-76.1512-20.1973-8.2381-5.0501-40.8036-25.0491-50.7695-54.6116-1.9129-5.6876-2.9865-11.7108-2.9027-18.0696,0-.1006,0-.2013.0168-.3019.8724-44.5618,58.7557-72.4297,74.8959-80.1978,25.7949-12.4177,50.8514-16.7458,76.4548-16.7466M924.8708,51.2316v13l-.0022-13c-30.4572.0009-56.5429,5.731-82.0979,18.0332-8.3624,4.0246-27.948,13.451-45.7406,27.9319-23.6276,19.2299-35.9071,40.5181-36.5039,63.2828-.0217.348-.028.6507-.0292.8997-.0901,7.4732,1.1146,14.9799,3.5807,22.3125,5.2433,15.5533,19.2636,38.8487,56.2971,61.5507,23.904,14.6724,51.813,22.1139,82.9454,22.1139,34.6553,0,64.2591-9.4262,75.4037-12.9748,2.8498-.9099,5.6188-1.7096,8.5504-2.5563,13.0982-3.7828,27.9441-8.0704,57.4443-24.1342,34.4023-18.7351,40.6237-23.4778,51.2074-39.0365,7.2126-10.5583,18.0349-40.0808,11.5866-63.5992-3.3046-12.083-10.1169-22.8659-20.2454-32.0412-8.9283-8.088-20.524-14.9665-34.4649-20.4444-11.9756-4.7097-25.8162-8.4484-41.1338-11.1108l-1.6034-.2791c-6.8443-1.1914-13.3089-2.3167-19.8549-3.3841-20.6037-3.4071-42.8029-6.5642-65.3396-6.5642h0Z"/>
      </g>
    </g>
  </g>
</svg>