<?xml version="1.0" encoding="UTF-8"?>
<svg id="Capa_2" xmlns="http://www.w3.org/2000/svg" viewBox="0 0 1924.4467 514.5247">
  <defs>
    <style>
      .cls-1 {
        fill: #a04040;
      }

      .cls-2 {
        fill: #f48787;
      }

      .cls-3 {
        fill: #dd6262;
      }

      .cls-4 {
        fill: #ba5858;
      }
    </style>
  </defs>
  <g id="Capa_1-2" data-name="Capa_1">
    <g>
      <g>
        <path class="cls-2" d="M1896.1473,479.3831c-7.2313,7.8183-17.0796,12.8348-27.2639,15.9221-22.9015,6.9458-47.8166,4.7144-70.7013-2.3155-66.4737-20.4016-98.6701-66.5573-146.2688-112.3606-25.8376-24.8646-39.0923-37.4647-55.1483-45.9541-28.1531-14.882-54.7792-18.4221-84.0232-22.3145-15.1672-2.0134-38.3038-4.9663-68.2854-2.6341-29.6798,2.3321-31.2572,7.097-68.2686,13.137-26.5089,4.3119-36.6596,4.5635-77.4796,0-34.3444-3.8422-60.8866-17.1637-90.5999-17.0631-23.5728.0672-45.166,15.8886-65.9367,25.1332-24.1434,10.7545-49.008,21.1734-73.9061,30.2335-52.4137,19.0931-109.844,31.6596-164.8751,16.1234-32.2468-9.0934-60.7018-27.0959-90.298-42.2127-27.0455-13.825-54.8128-20.083-82.9156-30.5859-36.2065-13.5565-53.5211-24.462-69.1747-31.5254-55.1989-24.9485-105.935-2.1979-174.1868,12.2645-49.7963,10.5364-92.479,7.6003-130.4303,34.9984-37.1962,26.8779-33.975,42.0451-78.7883,77.0435-21.7943,17.0127-56.8265,43.7899-108.5352,55.1485-23.5057,5.1509-60.6519,13.3047-95.5327-.5872-5.889-2.3489-11.7111-5.3186-17.3985-9.0432-6.1071-4.0099-26.2237-17.1804-35.7535-40.6357-1.5098-3.7078-2.7514-7.6676-3.6406-11.8956-18.7576-89.7777,120.1287-139.3056,179.1864-170.2438,13.2881-6.9628,26.6767-13.7746,40.1325-20.4521,85.1807-42.2465,173.2976-78.5535,263.545-108.5354C686.1183,29.0511,886.2603-5.8132,1079.7916,28.4806c105.7839,18.7407,215.5275,46.2395,319.3649,73.7886,72.2787,19.1938,137.9467,44.4947,205.6787,76.2047,7.4324,3.473,14.7477,7.164,21.9618,11.0397,8.1206,4.3455,16.1236,8.9426,23.9755,13.741,41.525,25.3345,79.4093,56.5243,114.7433,89.9457,46.8434,44.3268,135.2285,67.6312,143.4998,141.5707,1.7785,15.8717-2.0468,32.8846-12.8684,44.6122Z"/>
        <path class="cls-3" d="M921.9152,15c52.8467-.0008,105.5957,4.2165,157.8765,13.4806,105.7837,18.7408,215.5273,46.2394,319.3647,73.7886,72.2788,19.1939,137.9468,44.4947,205.6787,76.2047,7.4326,3.4731,14.7476,7.1639,21.9619,11.0397,8.1206,4.3453,16.1235,8.9425,23.9756,13.7408,41.5249,25.3344,79.4092,56.5244,114.7432,89.9458,46.8433,44.3267,135.2285,67.6311,143.5,141.5706,1.7783,15.8717-2.0469,32.8847-12.8687,44.6122-7.2314,7.8184-17.0796,12.8347-27.2637,15.9222-9.6323,2.9213-19.6235,4.2194-29.6675,4.2194-13.8359,0-27.7744-2.4619-41.0337-6.5349-66.4741-20.4017-98.6704-66.5575-146.269-112.3608-25.8374-24.8644-39.0923-37.4647-55.1484-45.9542-28.1528-14.882-54.7793-18.422-84.0229-22.3145-11.2134-1.4885-26.7866-3.4905-46.2578-3.4908-6.8652,0-14.2124.2487-22.0278.8566-29.6797,2.3322-31.2568,7.0972-68.2686,13.1372-13.4404,2.1862-22.6797,3.3289-33.8394,3.3289-10.8506,0-23.5166-1.0793-43.6401-3.3289-34.2144-3.8277-60.687-17.0632-90.2642-17.0636-.1123,0-.2236.0002-.3359.0006-23.5728.0672-45.166,15.8886-65.9365,25.1331-24.1436,10.7545-49.0078,21.1733-73.9062,30.2336-35.9351,13.0903-74.2349,23.114-112.4966,23.114-17.5449,0-35.0771-2.1062-52.3784-6.9906-32.2466-9.0936-60.7017-27.0961-90.2979-42.2128-27.0459-13.825-54.813-20.0831-82.9155-30.5858-36.2065-13.5566-53.5215-24.4619-69.1748-31.5255-17.8057-8.0476-35.1504-11.132-52.7651-11.1325-36.9922-.0009-75.186,13.5999-121.4219,23.3972-49.7961,10.5364-92.479,7.6003-130.4302,34.9984-37.1963,26.8778-33.9751,42.045-78.7883,77.0433-21.7944,17.0128-56.8264,43.79-108.5354,55.1486-13.8433,3.0335-32.418,7.1086-52.4741,7.1086-13.9993,0-28.72-1.9852-43.0583-7.6958-5.8892-2.3489-11.7112-5.3186-17.3987-9.0433-6.1072-4.0097-26.2236-17.1803-35.7534-40.6356-1.51-3.7078-2.7515-7.6675-3.6406-11.8955-18.7581-89.7778,120.1287-139.3056,179.1863-170.2439,13.2881-6.9628,26.677-13.7744,40.1323-20.4519,85.1809-42.2467,173.2979-78.5536,263.5452-108.5356C635.7321,45.7937,779.1359,15.0021,921.9152,15M921.9309,0v15l-.0054-15c-68.7344.0008-141.5537,7.1714-216.4438,21.3122-67.0742,12.6653-137.9346,31.3317-210.6118,55.4811-90.5144,30.0708-179.835,66.8555-265.4797,109.3322-13.9111,6.9036-27.5125,13.835-40.4297,20.6036-8.2642,4.3292-18.4878,9.1997-29.3118,14.3561-33.8577,16.1294-75.9946,36.2033-108.4905,62.7189C10.3479,317.1047-6.1736,353.9536,2.0532,393.3272c1.0413,4.9517,2.531,9.8189,4.4314,14.4853,7.4724,18.3917,21.394,34.3739,41.3738,47.4914l.0073.0047.0464.0305c6.2891,4.1186,13.0381,7.627,20.0596,10.4275,14.6028,5.8156,30.957,8.763,48.6157,8.763,21.6567,0,41.2959-4.3033,55.636-7.4456l.0039-.0008.0522-.0114c56.0498-12.3122,94.1033-42.0169,114.5471-57.9753,24.0676-18.7967,35.2195-32.4072,45.0583-44.4156,8.8828-10.8414,16.5544-20.2042,33.2854-32.2939,24.0339-17.3506,51.1462-21.1372,82.54-25.5214,13.4727-1.8817,27.4036-3.8272,42.2097-6.96,14.3359-3.0378,27.7339-6.3895,40.6909-9.6306,28.8335-7.2131,53.7344-13.4422,77.6255-13.4417,16.7573.0005,31.9966,3.2067,46.5879,9.8014,4.3979,1.9844,9.0449,4.3492,14.4258,7.0869,13.1714,6.7025,29.564,15.0436,55.667,24.8172,10.0669,3.7625,20.0645,6.9889,29.7329,10.1092,18.0068,5.8111,35.0156,11.3,51.6152,19.7853,7.0229,3.5872,14.1699,7.4422,21.0811,11.1706,22.5874,12.1839,45.9434,24.7828,71.9727,32.123,17.7524,5.0119,36.7466,7.5536,56.4497,7.5536,34.7832,0,73.2603-7.857,117.6309-24.02,22.5-8.1875,46.9937-18.2058,74.8755-30.6253,6.0005-2.6708,11.9766-5.8044,17.7559-8.8347,14.6743-7.6944,28.5342-14.9619,42.1201-15.0005l.293-.0005c14.3735,0,28.814,3.7814,44.1025,7.7844,13.7954,3.6125,28.0605,7.3478,44.4937,9.1861,18.8975,2.1128,33.0674,3.4219,45.3081,3.4219,12.2607,0,22.1982-1.2383,36.2476-3.5233,17.2915-2.822,27.3921-5.4378,35.5083-7.5395,9.564-2.4769,16.4746-4.2667,31.5269-5.4494,6.9131-.5375,13.9331-.8106,20.853-.8106,18.9722.0003,34.2046,2.0222,44.2842,3.3603,28.5674,3.8025,53.2158,7.0836,78.9863,20.7061,13.958,7.38,25.9541,18.6694,51.7578,43.5011,9.8071,9.4375,19.0776,19.0247,28.043,28.2964,34.9819,36.1767,68.0239,70.3472,124.2256,87.5961,15.5415,4.7742,30.8296,7.1953,45.4351,7.1953,11.9312,0,23.3774-1.6369,34.021-4.8652,14.1436-4.2878,25.5571-11.0475,33.9219-20.0911,13.0898-14.1856,19.1958-34.7625,16.7637-56.4678-2.9263-26.1575-14.6973-49.0075-35.9849-69.8528-17.7788-17.4097-39.7754-31.1939-61.0469-44.5244-19.1528-12.0025-37.2432-23.3392-51.0649-36.4183-40.7373-38.532-79.0864-68.5772-117.2412-91.8556-8.1938-5.0075-16.5112-9.7742-24.7109-14.1617-7.5962-4.0808-15.2373-7.9217-22.6885-11.4036-73.5029-34.4117-139.6562-58.9161-208.1787-77.1125-96.8452-25.6939-210.666-54.5853-320.5981-74.0611-51.3408-9.0975-105.3335-13.7106-160.4775-13.7106h0Z"/>
      </g>
      <g>
        <path class="cls-4" d="M1085.1774,181.3428c-8.9593,13.1706-13.1873,16.6939-46.6756,34.9313-34.8474,18.9756-47.7998,20.6366-63.7219,25.7203-19.496,6.2078-88.788,28.2705-147.6107-7.8352-8.2381-5.0501-40.8036-25.0492-50.7695-54.6117-1.9129-5.6876-2.9865-11.7108-2.9027-18.0696,0-.1007,0-.2013.0168-.302.8725-44.5617,58.7558-72.4297,74.896-80.1978,46.4575-22.3647,90.4992-18.489,139.7085-10.3519,6.9962,1.1409,14.0932,2.3824,21.3245,3.6407,14.0934,2.4496,27.1297,5.889,38.6056,10.4022,24.2102,9.5131,41.4578,23.8244,46.9274,43.8235,5.2349,19.0931-4.228,44.696-9.7982,52.85Z"/>
        <path class="cls-1" d="M924.8645,64.2316c20.5093-.0006,41.3672,2.7756,63.2534,6.3947,6.9966,1.1409,14.0933,2.3824,21.3247,3.6407,14.0933,2.4496,27.1299,5.889,38.6055,10.4023,24.2104,9.513,41.458,23.8244,46.9272,43.8235,5.2349,19.0931-4.228,44.6959-9.7979,52.8499-8.9595,13.1706-13.1875,16.6939-46.6758,34.9313-34.8472,18.9756-47.7998,20.6366-63.7217,25.7204-11.1973,3.5654-38.8276,12.362-71.4595,12.362-24.1846,0-51.1128-4.8285-76.1514-20.1972-8.2383-5.0501-40.8037-25.0491-50.7695-54.6116-1.9131-5.6876-2.9863-11.7108-2.9028-18.0696,0-.1007,0-.2014.0166-.302.8726-44.5618,58.7559-72.4297,74.896-80.1978,25.7949-12.4177,50.8516-16.7458,76.4551-16.7466M924.8708,51.2316v13l-.0024-13c-30.457.0009-56.543,5.731-82.0977,18.0332-8.3628,4.0247-27.9482,13.4511-45.7407,27.9319-23.6289,19.2311-35.9087,40.5219-36.5039,63.2882-.0215.3466-.0278.6481-.0293.8957-.0894,7.4742,1.1152,14.9799,3.5811,22.3113,5.2432,15.5534,19.2637,38.849,56.2974,61.5506,23.9038,14.6724,51.813,22.1139,82.9453,22.1139,34.6548,0,64.2588-9.4262,75.4038-12.9748,2.8496-.9099,5.6187-1.7096,8.5508-2.5563,13.0981-3.7829,27.9438-8.0704,57.4434-24.1342,34.4023-18.7352,40.624-23.4779,51.2075-39.0364,7.2129-10.5589,18.0347-40.0815,11.5864-63.5993-3.3042-12.0829-10.1162-22.8659-20.2451-32.0412-8.9282-8.088-20.5239-14.9664-34.4648-20.4444-11.9746-4.7094-25.8154-8.4481-41.1338-11.1107l-1.6177-.2816c-6.8394-1.1905-13.2993-2.315-19.8408-3.3817-20.6035-3.407-42.8027-6.5641-65.3394-6.5641h0Z"/>
      </g>
    </g>
  </g>
</svg>