<?xml version="1.0" encoding="UTF-8"?>
<svg id="Capa_2" xmlns="http://www.w3.org/2000/svg" viewBox="0 0 908.2904 466.7463">
  <defs>
    <style>
      .cls-1 {
        fill: #ce7c74;
      }

      .cls-2 {
        fill: #db9c95;
      }

      .cls-3 {
        fill: #a86260;
      }

      .cls-4 {
        fill: #edb0a9;
      }
    </style>
  </defs>
  <g id="Capa_1-2" data-name="Capa_1">
    <g>
      <g>
        <path class="cls-4" d="M888.8348,305.8786c-7.6101,38.47-24.23,76.1201-52.6801,103.11-48.5599,46.06-116.9,29.31-178.12,34.5-110.6899,9.39-440.95,12.52-512.95,0-35.33-6.14-66.39-26.14-89.0601-52.13-9.52-10.9-17.56-22.86-23.8199-35.3-4.45-8.86-8.02-18.26-10.72-28.04-19.08-69.07,4.81-156.68,60.7-200.48,32.7-25.63,74.37-34.03,112.31-48.76,45.24-17.57,87.12-42.02,134.9001-52.69,47.25-10.55,96.0199-10.81,144.1899-11.04,49.5699-.23,100.22-.29,147.1299,15.7,36.3201,12.37,68.5601,33.65,102.4701,51.1299,15.0499,7.75,31.08,13.2401,47.0699,18.7401,15.8201,5.45,31.6001,10.91,46.3601,18.6,3.45,1.8,6.84,3.72,10.1599,5.79,21.1001,13.14,36.5901,30.92,47.29,51.31,20.22,38.53,23.3301,86.33,14.77,129.56Z"/>
        <path class="cls-2" d="M489.9943,15c44.272,0,88.9756,1.519,130.7202,15.7488,36.3203,12.3699,68.5601,33.6499,102.4702,51.1299,15.0498,7.75,31.0801,13.24,47.0698,18.74,15.8203,5.45,31.6001,10.9099,46.3604,18.6001,3.4497,1.7998,6.8398,3.72,10.1597,5.7898,21.1001,13.1401,36.5903,30.9202,47.29,51.3101,20.2202,38.53,23.3301,86.3301,14.77,129.5601-7.6099,38.47-24.23,76.1201-52.6797,103.1101-32.2974,30.6345-73.3452,33.4844-115.2275,33.4844-9.5703,0-19.1948-.1487-28.7583-.1489-11.5103,0-22.936.2151-34.1343,1.1646-59.2363,5.0251-181.3726,8.2576-293.1411,8.2576-97.0835,0-186.3403-2.4377-219.8091-8.2576-35.3296-6.1401-66.3896-26.1401-89.0601-52.1301-9.5195-10.8999-17.5596-22.8599-23.8198-35.3-4.4497-8.8599-8.02-18.26-10.7197-28.04-19.0801-69.0698,4.8096-156.6799,60.6997-200.48,32.7002-25.6299,74.3701-34.03,112.3101-48.76,45.2402-17.5698,87.1201-42.02,134.8999-52.6899,47.25-10.55,96.02-10.8101,144.1899-11.04,5.458-.0254,10.9316-.0486,16.4097-.0486M489.9943,0c-5.5332,0-10.9526.0232-16.4795.0488-48.395.231-98.4355.47-147.3887,11.4001-33.1279,7.3979-63.4199,21.063-92.7148,34.2781-14.4673,6.5261-29.4268,13.2747-44.3467,19.0691-10,3.8823-20.1558,7.2727-30.9077,10.8621-29.1997,9.748-59.3931,19.8279-85.2256,40.0745-29.0869,22.7949-51.6748,57.7209-63.6025,98.3438-11.5898,39.4717-12.4072,81.3555-2.3022,117.9363,2.9829,10.8064,6.9443,21.1626,11.7739,30.7781,6.8955,13.7024,15.6167,26.6304,25.9263,38.4348,26.5488,30.4363,61.2798,50.6965,97.7896,57.0417,42.4272,7.3774,157.5376,8.479,222.3774,8.479,115.6582,0,236.7236-3.4177,294.4092-8.3113,11.6152-.9849,23.666-1.1108,32.8662-1.1108,4.7227,0,9.5698.0376,14.2573.074,4.7476.0369,9.6567.075,14.501.075,43.4683,0,88.9688-2.9033,125.5503-37.6013,28.2666-26.8162,48.001-65.2273,57.0718-111.0825,4.6689-23.5784,5.9199-48.116,3.6172-70.9578-2.5435-25.228-9.2119-48.269-19.8198-68.4832-12.5635-23.9409-30.2749-43.1431-52.6431-57.0728-3.5088-2.1875-7.2627-4.3271-11.1504-6.3557-15.8936-8.2805-32.4253-13.9756-48.4131-19.4834l-.4458-.1531c-15.7847-5.4294-30.6938-10.5576-44.6426-17.7405-9.8599-5.0828-19.853-10.6484-29.5171-16.0308-23.687-13.1921-48.1802-26.8335-74.9844-35.9624C580.7491,1.2781,534.0182,0,489.9943,0h0Z"/>
      </g>
      <g>
        <path class="cls-1" d="M602.9448,317.4187c-13.6801,16.12-35.6,22.1-56.2201,26.74-55.8599,12.58-114.3799,21.49-170.0299,8.04-20.8199-5.02-41.5-13.54-56.4-28.92-9.49-9.79-16.2-22.04-20.03-35.15-1.8-6.1299-2.97-12.45-3.51-18.8-.34-4.03-.46-8.06-.35-12.07,1.38-52.59,40.2301-102,89.4-119.18,30.6599-10.71,64.8101-9.14,95.71.88.3801.13.76.25,1.14.38,31.2001,10.36,59.2001,28.93,83.7001,50.85,5.84,5.22,11.53,10.7,16.8799,16.5,4.8801,5.29,9.4601,10.85,13.5701,16.69,6.36,9.01,11.6,18.71,15.1,29.2,7.2301,21.64,5.8099,47.45-8.96,64.84Z"/>
        <path class="cls-3" d="M430.7076,130.7178c17.1812-.0002,34.4482,2.9363,50.8071,8.241.3799.1299.7598.25,1.1401.3799,31.1997,10.3601,59.1997,28.9299,83.6997,50.8501,5.8403,5.22,11.5303,10.7,16.8799,16.5,4.8804,5.29,9.4604,10.8499,13.5703,16.6899,6.3599,9.01,11.6001,18.71,15.1001,29.2,7.23,21.6401,5.8096,47.45-8.96,64.8401-13.6802,16.1199-35.6001,22.0999-56.2202,26.74-36.1533,8.1421-73.4233,14.7468-110.3057,14.7468-20.104,0-40.0918-1.9619-59.7241-6.7068-20.8203-5.02-41.5-13.54-56.4004-28.9202-9.4897-9.7898-16.1997-22.0398-20.0298-35.1499-1.7998-6.1299-2.9702-12.45-3.5098-18.8-.3403-4.03-.4604-8.0601-.3501-12.0701,1.3799-52.5898,40.23-102,89.3999-119.1799,14.4277-5.0398,29.6318-7.3604,44.9028-7.3608M430.7106,117.7178v13l-.001-13h-.002c-17.2773.0005-33.8271,2.7217-49.1899,8.0881-26.4395,9.2378-50.8301,27.248-68.6807,50.7131-18.2456,23.9849-28.6968,52.5376-29.4277,80.3984-.1221,4.4314.0098,8.9807.3916,13.5049.6177,7.2656,1.96,14.4529,3.9902,21.3687,4.5493,15.571,12.5625,29.5938,23.1689,40.5359,14.7954,15.2717,35.3018,25.9065,62.688,32.5098,19.6787,4.7561,40.2134,7.0688,62.771,7.0688,41.0107,0,82.0181-8.0505,113.1616-15.0645,22.1016-4.9734,47.0425-11.8818,63.2759-31.0107,16.479-19.4028,20.8403-49.051,11.3784-77.3711-3.6787-11.0259-9.335-21.988-16.8096-32.5774-4.2158-5.991-9.1436-12.0547-14.6362-18.0081-5.2778-5.7229-11.0918-11.4075-17.7715-17.3777-28.5039-25.5027-58.1841-43.4963-88.2114-53.4768-.2183-.0742-.4365-.1465-.6548-.2183-.1431-.0469-.2861-.0938-.4292-.1426l-.0986-.0337-.0991-.0322c-18.1602-5.8887-36.6021-8.8748-54.814-8.8748h0Z"/>
      </g>
    </g>
  </g>
</svg>