<?xml version="1.0" encoding="UTF-8"?>
<svg id="Capa_2" xmlns="http://www.w3.org/2000/svg" viewBox="0 0 1924.4466 514.5249">
  <defs>
    <style>
      .cls-1 {
        fill: #ce7c74;
      }

      .cls-2 {
        fill: #db9c95;
      }

      .cls-3 {
        fill: #a86260;
      }

      .cls-4 {
        fill: #edb0a9;
      }
    </style>
  </defs>
  <g id="Capa_1-2" data-name="Capa_1">
    <g>
      <g>
        <path class="cls-4" d="M1896.1473,479.3833c-7.2313,7.8183-17.0796,12.8348-27.2639,15.9221-22.9015,6.9458-47.8166,4.7144-70.7013-2.3155-66.4737-20.4016-98.6701-66.5573-146.2688-112.3606-25.8376-24.8646-39.0923-37.4647-55.1483-45.9541-28.1531-14.882-54.7792-18.4221-84.0232-22.3145-15.1672-2.0134-38.3038-4.9663-68.2854-2.6341-29.6798,2.3321-31.2572,7.097-68.2686,13.137-26.5089,4.3119-36.6596,4.5635-77.4796,0-34.3444-3.8422-60.8866-17.1637-90.5999-17.0631-23.5728.0672-45.166,15.8886-65.9367,25.1332-24.1434,10.7545-49.008,21.1734-73.9061,30.2335-52.4137,19.0931-109.844,31.6596-164.8751,16.1234-32.2468-9.0934-60.7018-27.0959-90.298-42.2127-27.0455-13.825-54.8128-20.083-82.9156-30.5859-36.2065-13.5565-53.5211-24.462-69.1747-31.5254-55.1989-24.9485-105.935-2.1979-174.1868,12.2645-49.7963,10.5364-92.479,7.6003-130.4303,34.9984-37.1962,26.8779-33.975,42.0451-78.7883,77.0435-21.7943,17.0127-56.8265,43.7899-108.5352,55.1485-23.5057,5.1509-60.6519,13.3047-95.5327-.5872-5.889-2.3489-11.7111-5.3186-17.3985-9.0432-6.1071-4.0099-26.2237-17.1804-35.7535-40.6357-1.5098-3.7078-2.7514-7.6676-3.6406-11.8956-18.7576-89.7777,120.1287-139.3056,179.1864-170.2438,13.2881-6.9628,26.6767-13.7746,40.1325-20.4521,85.1807-42.2465,173.2976-78.5535,263.545-108.5354C686.1183,29.0513,886.2603-5.8129,1079.7916,28.4808c105.7839,18.7407,215.5275,46.2395,319.3649,73.7886,72.2787,19.1938,137.9467,44.4947,205.6787,76.2047,7.4324,3.473,14.7477,7.164,21.9618,11.0397,8.1206,4.3455,16.1236,8.9426,23.9755,13.741,41.525,25.3345,79.4093,56.5243,114.7433,89.9457,46.8434,44.3268,135.2285,67.6312,143.4998,141.5707,1.7785,15.8717-2.0468,32.8846-12.8684,44.6122Z"/>
        <path class="cls-2" d="M921.9144,15.0002c52.8467-.0007,105.5962,4.2166,157.877,13.4807,105.7842,18.7407,215.5278,46.2395,319.3652,73.7886,72.2788,19.1936,137.9468,44.4946,205.6787,76.2046,7.4321,3.4729,14.7476,7.1641,21.9619,11.0396,8.1206,4.3455,16.1235,8.9426,23.9751,13.7412,41.5249,25.3345,79.4097,56.5244,114.7437,89.9458,46.8433,44.3267,135.2285,67.6309,143.4995,141.5703,1.7788,15.8716-2.0464,32.8848-12.8682,44.6123-7.2314,7.8184-17.0796,12.835-27.2637,15.9219-9.6323,2.9214-19.6245,4.2197-29.6685,4.2197-13.8364,0-27.7734-2.4619-41.0332-6.5352-66.4736-20.4014-98.6699-66.5571-146.2686-112.3604-25.8379-24.8647-39.0923-37.4648-55.1484-45.9541-28.1533-14.8823-54.7793-18.4224-84.0229-22.3145-11.2134-1.4888-26.7871-3.4907-46.2583-3.4907-6.8652-.0005-14.2119.2485-22.0273.8564-29.6797,2.332-31.2573,7.0967-68.2686,13.1367-13.4419,2.1865-22.6787,3.3291-33.8403,3.3291-10.8496,0-23.5181-1.0796-43.6392-3.3291-34.2148-3.8271-60.688-17.063-90.2651-17.0635-.1123,0-.2227,0-.335.0005-23.5728.0674-45.166,15.8887-65.9365,25.1333-24.1436,10.7544-49.0083,21.1733-73.9062,30.2334-35.9351,13.0903-74.2354,23.1143-112.4971,23.1143-17.5449,0-35.0767-2.106-52.3779-6.9907-32.2471-9.0933-60.7021-27.0962-90.2983-42.2129-27.0454-13.8247-54.8125-20.083-82.9155-30.5859-36.2065-13.5562-53.521-24.4619-69.1748-31.5254-17.8057-8.0479-35.1499-11.1318-52.7646-11.1323-36.9922-.001-75.186,13.5996-121.4219,23.397-49.7964,10.5366-92.479,7.6001-130.4302,34.9985-37.1963,26.8779-33.9751,42.0449-78.7886,77.0435-21.7944,17.0127-56.8267,43.79-108.5352,55.1484-13.8433,3.0337-32.4175,7.1084-52.4736,7.1084-13.9995,0-28.7202-1.9854-43.0591-7.6958-5.8892-2.3486-11.7109-5.3184-17.3984-9.043-6.1074-4.0098-26.2236-17.1807-35.7534-40.6357-1.5103-3.708-2.7515-7.6675-3.6406-11.8955-18.7578-89.7778,120.1284-139.3057,179.186-170.2439,13.2881-6.9631,26.6768-13.7747,40.1328-20.4521,85.1807-42.2468,173.2974-78.5535,263.5449-108.5354C635.7323,45.7937,779.1351,15.0022,921.9144,15.0002M921.9251,0v15l-.0049-15c-68.7305.0012-141.5488,7.1716-216.439,21.3125-67.0742,12.665-137.9346,31.3318-210.6113,55.4812-90.5151,30.0708-179.8354,66.8555-265.48,109.332-13.9121,6.9041-27.5142,13.8357-40.4302,20.6038-8.2637,4.3291-18.4873,9.1995-29.311,14.356-33.8579,16.1296-75.9951,36.2036-108.4907,62.7192C10.348,317.105-6.1735,353.9541,2.0531,393.3276c1.042,4.9526,2.5317,9.8198,4.4316,14.4858,7.4727,18.3921,21.395,34.3745,41.375,47.4917l.0073.0044.0449.0298c6.29,4.1191,13.0391,7.6274,20.0605,10.4272,14.6016,5.8159,30.9561,8.7637,48.6152,8.7637,21.6562,0,41.2944-4.3032,55.6338-7.4453l.0503-.0112c56.0576-12.3135,94.1108-42.0186,114.5547-57.9766,24.0679-18.7969,35.2197-32.4072,45.0591-44.416,8.8828-10.8413,16.5542-20.2041,33.2847-32.2935,24.0337-17.3511,51.146-21.1372,82.5396-25.5215,13.4727-1.8818,27.4043-3.8271,42.2104-6.9604,14.3359-3.0376,27.7334-6.3892,40.6904-9.6304,28.8335-7.2129,53.7349-13.4419,77.626-13.4414,16.7573.0005,31.9961,3.2061,46.5874,9.8008,4.3984,1.9849,9.0459,4.3501,14.4277,7.0884,13.1714,6.7021,29.5635,15.0435,55.665,24.8164,10.0669,3.7617,20.064,6.9883,29.7319,10.1084,18.0073,5.8115,35.0161,11.3003,51.6162,19.7856,7.0229,3.5874,14.1699,7.4424,21.0815,11.1709,22.5874,12.1841,45.9438,24.7832,71.9727,32.123,17.7524,5.0122,36.7461,7.5537,56.4492,7.5537,34.7842,0,73.2617-7.8569,117.6313-24.0205,22.4961-8.186,46.9897-18.2041,74.8755-30.625,6.0005-2.6709,11.9766-5.8042,17.7554-8.8345,14.6743-7.6943,28.5347-14.9624,42.1206-15.001l.2915-.0005c14.3735.0005,28.814,3.7812,44.1021,7.7847,13.7964,3.6123,28.062,7.3477,44.4961,9.186,18.896,2.1128,33.0659,3.4219,45.3066,3.4219,12.2603,0,22.1982-1.2383,36.2485-3.5234,17.2905-2.8218,27.3906-5.4375,35.5068-7.5391,9.5645-2.4771,16.4756-4.2666,31.5283-5.4497,6.9126-.5371,13.9321-.8105,20.8525-.8105,18.9707.0005,34.2041,2.0225,44.2847,3.3608,28.5645,3.8018,53.2139,7.082,78.9863,20.7061,13.9575,7.3794,25.9536,18.6689,51.7578,43.501,9.8071,9.4375,19.0781,19.0249,28.0435,28.2969,34.9819,36.1763,68.0239,70.3467,124.2246,87.5952,15.541,4.7739,30.8286,7.1953,45.4346,7.1953,11.9312,0,23.3779-1.6372,34.0225-4.8657,14.1421-4.2866,25.5562-11.0464,33.9214-20.0903,13.0903-14.186,19.1958-34.7637,16.7632-56.4688-2.9263-26.1567-14.6968-49.0068-35.9844-69.8521-17.7788-17.4097-39.7754-31.1938-61.0469-44.5244-19.1528-12.0024-37.2432-23.3394-51.0649-36.4185-40.7363-38.5308-79.0854-68.5764-117.2412-91.8555-8.188-5.0042-16.5054-9.7708-24.7104-14.1616-7.5986-4.0818-15.2393-7.9224-22.689-11.4036-73.5039-34.4121-139.6577-58.9167-208.1792-77.1125-96.8447-25.6938-210.6655-54.5852-320.5981-74.061-51.3418-9.0979-105.3369-13.7109-160.4829-13.7109h0Z"/>
      </g>
      <g>
        <path class="cls-1" d="M1085.1774,181.343c-8.9593,13.1706-13.1873,16.6939-46.6756,34.9313-34.8474,18.9756-47.7998,20.6366-63.7219,25.7203-19.496,6.2078-88.788,28.2705-147.6107-7.8352-8.2381-5.0501-40.8036-25.0492-50.7695-54.6117-1.9129-5.6876-2.9865-11.7108-2.9027-18.0696,0-.1007,0-.2013.0168-.302.8725-44.5617,58.7558-72.4297,74.896-80.1978,46.4575-22.3647,90.4992-18.489,139.7085-10.3519,6.9962,1.1409,14.0932,2.3824,21.3245,3.6407,14.0934,2.4496,27.1297,5.889,38.6056,10.4022,24.2102,9.5131,41.4578,23.8244,46.9274,43.8235,5.2349,19.0931-4.228,44.696-9.7982,52.85Z"/>
        <path class="cls-3" d="M924.8646,64.2319c20.5093-.0005,41.3667,2.7756,63.2534,6.3945,6.9961,1.1411,14.0933,2.3826,21.3247,3.6409,14.0933,2.4495,27.1294,5.8889,38.6055,10.4023,24.21,9.5129,41.4575,23.8242,46.9272,43.8235,5.2349,19.093-4.228,44.6958-9.7979,52.8499-8.9595,13.1707-13.1875,16.6938-46.6758,34.9314-34.8477,18.9756-47.7998,20.6365-63.7222,25.7202-11.1973,3.5654-38.8271,12.3623-71.459,12.3623-24.1846,0-51.1128-4.8286-76.1514-20.1975-8.2383-5.05-40.8037-25.0491-50.7695-54.6116-1.9131-5.6877-2.9868-11.7109-2.9028-18.0696,0-.1008,0-.2014.0166-.302.8726-44.5618,58.7559-72.4297,74.896-80.1978,25.7949-12.4177,50.8516-16.7458,76.4551-16.7466M924.8709,51.2319v13l-.0024-13c-30.4575.001-56.543,5.731-82.0977,18.0332-8.3623,4.0247-27.9482,13.4512-45.7407,27.9319-23.6289,19.2312-35.9087,40.522-36.5039,63.2881-.0215.3457-.0278.6462-.0288.8933-.0908,7.4736,1.1138,14.9802,3.5806,22.3137,5.2432,15.5535,19.2637,38.8491,56.2974,61.5505,23.9038,14.6724,51.813,22.1143,82.9453,22.1143,34.6572,0,64.2598-9.4268,75.4033-12.9751,2.8496-.9097,5.6187-1.7095,8.5503-2.5562,13.0981-3.7827,27.9438-8.0703,57.4443-24.1343,34.4023-18.7354,40.624-23.478,51.2075-39.0364,7.2129-10.5593,18.0347-40.082,11.5864-63.5994-3.3047-12.083-10.1167-22.866-20.2451-32.0413-8.9287-8.0879-20.5239-14.9663-34.4648-20.4441-11.9756-4.71-25.8164-8.4487-41.1338-11.1111l-1.5771-.2744c-6.8535-1.1929-13.3267-2.3198-19.8809-3.3887-20.6045-3.4072-42.8037-6.5642-65.3398-6.5642h0Z"/>
      </g>
    </g>
  </g>
</svg>