<?xml version="1.0" encoding="UTF-8"?>
<svg id="Capa_2" xmlns="http://www.w3.org/2000/svg" viewBox="0 0 1924.4467 514.5251">
  <defs>
    <style>
      .cls-1 {
        fill: #eac3b5;
      }

      .cls-2 {
        fill: #a86d45;
      }

      .cls-3 {
        fill: #d8a28f;
      }

      .cls-4 {
        fill: #c48458;
      }
    </style>
  </defs>
  <g id="Capa_1-2" data-name="Capa_1">
    <g>
      <g>
        <path class="cls-1" d="M1896.1473,479.3833c-7.2313,7.8183-17.0796,12.8348-27.2639,15.9221-22.9015,6.9458-47.8166,4.7144-70.7013-2.3155-66.4737-20.4016-98.6701-66.5573-146.2688-112.3606-25.8376-24.8646-39.0923-37.4647-55.1483-45.9541-28.1531-14.882-54.7792-18.4221-84.0232-22.3145-15.1672-2.0134-38.3038-4.9663-68.2854-2.6341-29.6798,2.3321-31.2572,7.097-68.2686,13.137-26.5089,4.3119-36.6596,4.5635-77.4796,0-34.3444-3.8422-60.8866-17.1637-90.5999-17.0631-23.5728.0672-45.166,15.8886-65.9367,25.1332-24.1434,10.7545-49.008,21.1734-73.9061,30.2335-52.4137,19.0931-109.844,31.6596-164.8751,16.1234-32.2468-9.0934-60.7018-27.0959-90.298-42.2127-27.0455-13.825-54.8128-20.083-82.9156-30.5859-36.2065-13.5565-53.5211-24.462-69.1747-31.5254-55.1989-24.9485-105.935-2.1979-174.1868,12.2645-49.7963,10.5364-92.479,7.6003-130.4303,34.9984-37.1962,26.8779-33.975,42.0451-78.7883,77.0435-21.7943,17.0127-56.8265,43.7899-108.5352,55.1485-23.5057,5.1509-60.6519,13.3047-95.5327-.5872-5.889-2.3489-11.7111-5.3186-17.3985-9.0432-6.1071-4.0099-26.2237-17.1804-35.7535-40.6357-1.5098-3.7078-2.7514-7.6676-3.6406-11.8956-18.7576-89.7777,120.1287-139.3056,179.1864-170.2438,13.2881-6.9628,26.6767-13.7746,40.1325-20.4521,85.1807-42.2465,173.2976-78.5535,263.545-108.5354C686.1184,29.0513,886.2604-5.813,1079.7916,28.4808c105.7839,18.7407,215.5275,46.2395,319.3649,73.7886,72.2787,19.1938,137.9467,44.4947,205.6787,76.2047,7.4324,3.473,14.7477,7.164,21.9618,11.0397,8.1206,4.3455,16.1236,8.9426,23.9755,13.741,41.525,25.3345,79.4093,56.5243,114.7433,89.9457,46.8434,44.3268,135.2285,67.6312,143.4998,141.5707,1.7785,15.8717-2.0468,32.8846-12.8684,44.6122Z"/>
        <path class="cls-3" d="M921.9153,15c52.8468-.0007,105.5954,4.2166,157.8763,13.4807,105.7839,18.7407,215.5275,46.2395,319.365,73.7886,72.2786,19.1938,137.9467,44.4946,205.6786,76.2046,7.4325,3.4731,14.7478,7.1641,21.9617,11.0398,8.1208,4.3452,16.1239,8.9426,23.9758,13.741,41.5248,25.3345,79.4092,56.5244,114.743,89.9458,46.8436,44.3267,135.2286,67.6309,143.5,141.5708,1.7787,15.8716-2.0469,32.8843-12.8683,44.6118-7.2314,7.8184-17.0797,12.835-27.2639,15.9224-9.6323,2.9214-19.6241,4.2197-29.6678,4.2197-13.8362,0-27.7739-2.4619-41.0336-6.5352-66.4736-20.4019-98.6703-66.5576-146.2689-112.3608-25.8374-24.8647-39.0922-37.4648-55.1483-45.9541-28.1531-14.8818-54.7792-18.4219-84.0231-22.3145-11.2144-1.4888-26.7855-3.4907-46.2589-3.4907-6.864,0-14.2128.2485-22.0267.8564-29.6797,2.332-31.2569,7.0972-68.2686,13.1372-13.4405,2.1865-22.6796,3.3291-33.8392,3.3291-10.8506,0-23.5168-1.0796-43.6403-3.3291-34.2145-3.8276-60.6871-17.063-90.2642-17.0635-.1124,0-.2233,0-.3358.0005-23.5728.0669-45.1661,15.8887-65.9367,25.1328-24.1433,10.7549-49.008,21.1738-73.9061,30.2339-35.9352,13.0903-74.235,23.1138-112.4965,23.1138-17.5452,0-35.0771-2.106-52.3785-6.9907-32.2469-9.0933-60.702-27.0957-90.2981-42.2124-27.0456-13.8252-54.8128-20.083-82.9156-30.5859-36.2067-13.5566-53.5211-24.4622-69.1747-31.5256-17.8055-8.0476-35.1505-11.1321-52.765-11.1326-36.9922-.001-75.1861,13.5999-121.422,23.3972-49.7964,10.5364-92.4789,7.6003-130.4303,34.9983-37.1961,26.8779-33.975,42.0449-78.7883,77.0435-21.7942,17.0127-56.8264,43.79-108.5353,55.1484-13.8431,3.0337-32.4183,7.1089-52.4745,7.1089-13.9992,0-28.7195-1.9854-43.058-7.6958-5.8892-2.3491-11.7111-5.3188-17.3986-9.0435-6.1072-4.0098-26.2236-17.1802-35.7536-40.6357-1.5097-3.7075-2.7514-7.6675-3.6406-11.8955-18.7578-89.7778,120.1286-139.3054,179.1864-170.2437,13.2881-6.9629,26.6767-13.7747,40.1325-20.4521,85.1805-42.2466,173.2975-78.5532,263.545-108.5354C635.7319,45.7939,779.1358,15.0022,921.9153,15M921.9308,0v15l-.0056-15c-68.7347.0012-141.5536,7.1719-216.4436,21.3125-67.075,12.665-137.935,31.3318-210.6117,55.4812-90.5158,30.071-179.8364,66.856-265.4797,109.332-13.9089,6.9023-27.5105,13.8337-40.43,20.6038-8.2636,4.3289-18.4867,9.1992-29.3103,14.3552-33.8581,16.1299-75.9953,36.2034-108.4911,62.7192C10.348,317.1047-6.1734,353.9534,2.053,393.3274c1.0411,4.9507,2.5308,9.8179,4.4314,14.4849,7.4725,18.3921,21.3942,34.374,41.3739,47.4917l.0072.0044.0467.0308c6.2886,4.1182,13.0372,7.6265,20.0591,10.4277,14.6025,5.8159,30.9567,8.7632,48.6156,8.7632,21.6575,0,41.2975-4.3037,55.6381-7.4458l.0036-.001.0511-.0112c56.0505-12.3125,94.1036-42.0171,114.5469-57.9756,24.0678-18.7964,35.2197-32.4072,45.0589-44.4155,8.8828-10.8413,16.5542-20.2041,33.2847-32.2935,24.0339-17.3506,51.1464-21.1372,82.5403-25.5215,13.4725-1.8818,27.4039-3.8271,42.2097-6.96,14.3361-3.0378,27.7342-6.3894,40.6911-9.6306,28.8333-7.2131,53.7344-13.4421,77.6256-13.4417,16.7572.0005,31.9964,3.2065,46.5875,9.801,4.3983,1.9851,9.0458,4.3499,14.4269,7.0881,13.1714,6.7021,29.5636,15.0435,55.6658,24.8164,10.0669,3.7627,20.0642,6.9888,29.7322,10.1094,18.0072,5.811,35.0158,11.2998,51.6156,19.7852,7.0228,3.5869,14.1694,7.4419,21.0808,11.1704,22.5875,12.1841,45.9439,24.7832,71.9736,32.123,17.7525,5.0122,36.7464,7.5537,56.4497,7.5537,34.7836,0,73.2608-7.8569,117.6306-24.02,22.5036-8.1885,46.9972-18.207,74.8755-30.6255,6.0009-2.6709,11.9772-5.8047,17.7572-8.835,14.6733-7.6943,28.5331-14.9614,42.1183-15l.2933-.0005c14.3736,0,28.8141,3.7812,44.1025,7.7847,13.7956,3.6118,28.0609,7.3472,44.4939,9.1855,18.8989,2.1128,33.0698,3.4224,45.3081,3.4224,12.2611,0,22.1986-1.2383,36.2475-3.5239,17.2914-2.8218,27.3919-5.4375,35.5081-7.5391,9.5644-2.4771,16.475-4.2666,31.5272-5.4497,6.9111-.5371,13.9305-.8105,20.8516-.8105,18.9695.0005,34.2042,2.0225,44.285,3.3608,28.5672,3.8022,53.2158,7.083,78.9869,20.7061,13.9583,7.3799,25.9542,18.6694,51.7573,43.501,9.8071,9.4375,19.0778,19.0249,28.0433,28.2964,34.9822,36.1768,68.0244,70.3472,124.2255,87.5962,15.5414,4.7739,30.829,7.1953,45.4348,7.1953,11.9302,0,23.3766-1.6372,34.0214-4.8652,14.1439-4.2881,25.5575-11.0483,33.9222-20.0913,13.0897-14.1865,19.1952-34.7637,16.7631-56.4678-2.9261-26.1577-14.697-49.0078-35.9847-69.853-17.7792-17.4102-39.7753-31.1938-61.0475-44.5244-19.1526-12.0024-37.2428-23.3391-51.0648-36.4182-40.7358-38.5312-79.085-68.5767-117.2402-91.8557-8.193-5.0066-16.5105-9.7732-24.7117-14.1616-7.593-4.0793-15.2341-7.9202-22.6884-11.4033-73.5022-34.4116-139.6558-58.916-208.1786-77.1128-96.845-25.6938-210.6658-54.5852-320.5983-74.061-51.3408-9.0974-105.3336-13.7107-160.4775-13.7107h0Z"/>
      </g>
      <g>
        <path class="cls-4" d="M1085.1774,181.343c-8.9593,13.1706-13.1873,16.6939-46.6756,34.9313-34.8474,18.9756-47.7998,20.6366-63.7219,25.7203-19.496,6.2078-88.788,28.2705-147.6107-7.8352-8.2381-5.0501-40.8036-25.0492-50.7695-54.6117-1.9129-5.6876-2.9865-11.7108-2.9027-18.0696,0-.1007,0-.2013.0168-.302.8725-44.5617,58.7558-72.4297,74.896-80.1978,46.4575-22.3647,90.4992-18.489,139.7085-10.3519,6.9962,1.1409,14.0932,2.3824,21.3245,3.6407,14.0934,2.4496,27.1297,5.889,38.6056,10.4022,24.2102,9.5131,41.4578,23.8244,46.9274,43.8235,5.2349,19.0931-4.228,44.696-9.7982,52.85Z"/>
        <path class="cls-2" d="M924.8646,64.2317c20.5092-.0005,41.367,2.7756,63.2534,6.3948,6.9962,1.1409,14.0932,2.3826,21.3245,3.6409,14.0934,2.4495,27.1297,5.8889,38.6056,10.4021,24.2102,9.5132,41.4578,23.8245,46.9274,43.8235,5.2349,19.0933-4.228,44.696-9.7982,52.8501-8.9593,13.1707-13.1873,16.6938-46.6756,34.9312-34.8475,18.9758-47.7999,20.6367-63.7219,25.7205-11.1974,3.5654-38.8278,12.3621-71.4597,12.3621-24.1843,0-51.1126-4.8286-76.1511-20.1973-8.2381-5.05-40.8036-25.0491-50.7696-54.6118-1.9129-5.6875-2.9864-11.7107-2.9027-18.0696,0-.1006,0-.2012.0168-.3018.8725-44.5618,58.7558-72.4297,74.896-80.198,25.7949-12.4177,50.8515-16.7458,76.455-16.7466M924.8709,51.2317v13l-.0022-13c-30.4571.001-56.5429,5.7312-82.0978,18.0332-8.3628,4.0249-27.9489,13.4519-45.7406,27.9321-23.6276,19.23-35.9072,40.5181-36.5039,63.2827-.0217.3481-.028.6509-.0292.8999-.09,7.4734,1.1146,14.9797,3.5807,22.312,5.2433,15.5537,19.2636,38.8491,56.2972,61.551,23.904,14.6726,51.8129,22.114,82.9452,22.114,34.6551,0,64.2592-9.4263,75.4039-12.9749,2.8498-.9099,5.6188-1.7097,8.5505-2.5564,13.0982-3.7827,27.9441-8.0703,57.4442-24.1343,34.4023-18.7351,40.6238-23.4778,51.2074-39.0364,7.2126-10.5583,18.0348-40.0808,11.5866-63.5994-3.3046-12.083-10.1169-22.8657-20.2454-32.041-8.9283-8.0879-20.524-14.9666-34.4649-20.4443-11.9758-4.7097-25.8164-8.4485-41.1339-11.1108l-1.6324-.2842c-6.8342-1.1895-13.2893-2.3132-19.826-3.3792-20.6034-3.407-42.8024-6.5642-65.3394-6.5642h0Z"/>
      </g>
    </g>
  </g>
</svg>