<?xml version="1.0" encoding="UTF-8"?>
<svg id="Capa_2" xmlns="http://www.w3.org/2000/svg" viewBox="0 0 908.2906 466.7463">
  <defs>
    <style>
      .cls-1 {
        fill: #e28da3;
      }

      .cls-2 {
        fill: #b5486f;
      }

      .cls-3 {
        fill: #f2afc1;
      }

      .cls-4 {
        fill: #d36380;
      }
    </style>
  </defs>
  <g id="Capa_1-2" data-name="Capa_1">
    <g>
      <g>
        <path class="cls-3" d="M364.8928,459.2461c-109.9204.0005-190.5059-3.0498-221.0923-8.3682-34.8203-6.0518-68.0005-25.4385-93.4272-54.5894-9.8931-11.3271-18.2607-23.7295-24.8677-36.8589-4.6104-9.1792-8.395-19.0742-11.25-29.415-20.5542-74.4053,6.6606-163.9893,63.3032-208.3794,24.8101-19.4458,54.3784-29.3169,82.9727-38.8628,10.3633-3.46,21.0791-7.0371,31.249-10.9858,15.1055-5.8662,30.1577-12.6567,44.7148-19.2231,28.9507-13.0601,58.8872-26.5645,91.2651-33.7949,48.1655-10.7539,97.7939-10.9912,145.7891-11.2202,5.4702-.0254,10.9546-.0483,16.4438-.0483,43.3955,0,89.4214,1.2466,133.1416,16.1494,26.1616,8.9106,50.3545,22.3843,73.7505,35.4146,9.7163,5.4116,19.7632,11.0073,29.7363,16.1479,14.4307,7.4312,30.2988,12.8892,45.644,18.167l.4287.1475c15.7319,5.4194,31.9956,11.0225,47.3857,19.041,3.7236,1.9424,7.3101,3.9863,10.6631,6.0767,21.2158,13.2124,38.0269,31.4448,49.9629,54.189,19.4341,37.0337,25.0786,86.0576,15.4863,134.502-6.1143,30.9067-20.5981,74.5762-54.8755,107.0947-34.5796,32.7988-78.4351,35.5435-120.3906,35.5435-4.8057,0-9.6235-.0376-14.4409-.0747-4.7769-.0371-9.5522-.0742-14.3135-.0742-9.3506,0-21.6084.1294-33.5034,1.1377-57.4961,4.8774-178.3013,8.2837-293.7759,8.2842Z"/>
        <path class="cls-1" d="M489.9982,15c44.2715-.0002,88.9719,1.5191,130.7168,15.7486,36.32,12.3701,68.56,33.65,102.47,51.1299,15.05,7.75,31.08,13.2402,47.07,18.7402,15.82,5.4498,31.6002,10.91,46.3602,18.6,3.4498,1.8,6.8398,3.7198,10.1599,5.7899,21.1002,13.1401,36.5901,30.9202,47.29,51.31,20.22,38.5302,23.3302,86.3301,14.77,129.56-7.61,38.4702-24.2299,76.1201-52.68,103.1101-32.2943,30.6317-73.348,33.4845-115.2267,33.4845-9.578,0-19.1894-.1489-28.7602-.149-11.5064,0-22.9384.2154-34.1331,1.1645-59.2364,5.0251-181.3735,8.2576-293.1417,8.2576-97.0834,0-186.3394-2.4379-219.8081-8.2576-35.3302-6.1401-66.3902-26.1401-89.0602-52.13-9.52-10.9-17.56-22.86-23.8198-35.3-4.4502-8.86-8.0202-18.2599-10.7202-28.04-19.08-69.07,4.81-156.68,60.7-200.48,32.7001-25.63,74.37-34.0302,112.31-48.76,45.24-17.57,87.12-42.0201,134.9002-52.69,47.25-10.55,96.0198-10.81,144.19-11.04,5.458-.0254,10.9353-.0486,16.4131-.0486M490.005,0v15l-.0025-15c-5.5409,0-10.9603.0231-16.4871.0488-48.3951.2311-98.4357.47-147.3891,11.4003-33.1285,7.398-63.4211,21.0632-92.7163,34.2784-14.4668,6.526-29.426,13.2743-44.3455,19.0686-10,3.8823-20.1555,7.2728-30.9075,10.8622-29.1995,9.7479-59.3932,19.8277-85.2252,40.0745-29.0869,22.7949-51.6751,57.7209-63.6029,98.3437-11.5898,39.4716-12.4074,81.3553-2.3023,117.9362,2.984,10.8086,6.9457,21.1647,11.7745,30.7786,6.8948,13.7017,15.616,26.6297,25.9263,38.4346,26.548,30.4359,61.2792,50.696,97.7894,57.0413,42.4272,7.3777,157.5371,8.4792,222.3766,8.4792,115.6574,0,236.7231-3.4177,294.4095-8.3114,11.6129-.9845,23.664-1.1108,32.8654-1.1108,4.7263,0,9.572.0375,14.2582.074,4.7462.0368,9.6538.0749,14.502.0749,43.4681,0,88.968-2.9034,125.5494-37.6014,28.2663-26.8156,48.0012-65.2269,57.0721-111.0825,4.6688-23.5782,5.9197-48.116,3.6169-70.9577-2.5432-25.228-9.2115-48.2691-19.8197-68.4834-12.5634-23.9409-30.2749-43.1429-52.6428-57.0724-3.5052-2.1855-7.2591-4.3254-11.1505-6.3557-15.894-8.2808-32.4258-13.9758-48.4134-19.4833l-.4389-.1511c-15.7871-5.43-30.6985-10.5588-44.6494-17.7427-9.86-5.0826-19.8534-10.6485-29.5177-16.0309-23.6866-13.192-48.1796-26.8332-74.9836-35.9623C580.749,1.278,534.0236,0,490.005,0h0Z"/>
      </g>
      <g>
        <path class="cls-4" d="M436.4191,365.4053c-22.0361,0-42.0718-2.2529-61.251-6.8887-26.1499-6.3047-45.627-16.3525-59.5415-30.7153-9.8726-10.1836-17.3423-23.2725-21.6011-37.8501-1.9048-6.4883-3.1665-13.2441-3.7471-20.0718-.3618-4.2886-.4863-8.5933-.3711-12.7993,1.4175-54.021,40.8467-106.6523,93.7534-125.1377,14.6738-5.1255,30.5029-7.7246,47.0479-7.7246,17.5317,0,35.2998,2.8794,52.811,8.5576l1.2383.4126c29.1421,9.6768,58.0718,27.2305,85.9312,52.1562,6.52,5.8281,12.187,11.3687,17.3237,16.937,5.2983,5.7437,10.0449,11.583,14.1074,17.3564,7.1025,10.0615,12.4712,20.4551,15.9507,30.8838,8.7446,26.1743,4.8477,53.4209-10.1719,71.105-14.9346,17.5981-37.7046,23.9136-59.7471,28.8735-30.8145,6.9395-71.3623,14.9053-111.7329,14.9053Z"/>
        <path class="cls-2" d="M430.7084,130.7178c17.1808-.0004,34.4476,2.936,50.8066,8.2408.3801.13.76.25,1.14.38,31.2001,10.36,59.2001,28.93,83.7001,50.85,5.84,5.22,11.5301,10.7,16.8799,16.5,4.8801,5.29,9.4601,10.85,13.5701,16.69,6.3599,9.01,11.5999,18.71,15.0999,29.2,7.2301,21.64,5.8099,47.45-8.9599,64.84-13.6801,16.1201-35.6,22.1-56.2202,26.7401-36.1534,8.142-73.4231,14.7469-110.3059,14.7469-20.1039,0-40.0916-1.962-59.724-6.7069-20.82-5.02-41.5-13.54-56.4001-28.92-9.4899-9.79-16.2-22.04-20.0299-35.15-1.8001-6.1299-2.9701-12.45-3.51-18.8-.3401-4.0299-.4601-8.06-.3501-12.07,1.38-52.59,40.2301-102,89.4001-119.18,14.4279-5.0399,29.632-7.3605,44.9034-7.3608M430.7116,117.7178v13l-.001-13c-17.2799.0004-33.8298,2.7216-49.1926,8.088-26.4393,9.2379-50.8303,27.248-68.6807,50.7132-18.2457,23.9847-28.6967,52.5375-29.4278,80.3986-.1216,4.433.01,8.9818.3916,13.5042.6181,7.2692,1.9604,14.4562,3.9906,21.3697,4.5486,15.5703,12.5621,29.5933,23.1689,40.5355,14.7951,15.2715,35.3011,25.9064,62.6872,32.5096,19.6791,4.7562,40.214,7.069,62.7711,7.069,41.0107,0,82.0182-8.0508,113.162-15.0646,22.1011-4.9732,47.0421-11.8815,63.2758-31.0107,16.4791-19.4024,20.8402-49.0508,11.3781-77.3712-3.6789-11.0262-9.3349-21.9885-16.8093-32.5773-4.2169-5.9918-9.1445-12.0555-14.6356-18.0079-5.2784-5.7226-11.0918-11.4071-17.7716-17.3778-28.5065-25.5046-58.1898-43.4991-88.2188-53.4791-.2179-.0741-.4357-.1461-.6536-.2177-.1415-.0466-.2831-.0928-.4247-.1413l-.098-.0335-.0985-.0319c-18.1601-5.8889-36.602-8.8747-54.8134-8.8747h0Z"/>
      </g>
    </g>
  </g>
</svg>