<?xml version="1.0" encoding="UTF-8"?>
<svg id="Capa_2" xmlns="http://www.w3.org/2000/svg" viewBox="0 0 908.2906 466.7463">
  <defs>
    <style>
      .cls-1 {
        fill: #eac3b5;
      }

      .cls-2 {
        fill: #a86d45;
      }

      .cls-3 {
        fill: #d8a28f;
      }

      .cls-4 {
        fill: #c48458;
      }
    </style>
  </defs>
  <g id="Capa_1-2" data-name="Capa_1">
    <g>
      <g>
        <path class="cls-1" d="M888.835,305.8786c-7.6101,38.47-24.23,76.1201-52.6801,103.11-48.5599,46.06-116.9,29.31-178.12,34.5-110.6899,9.39-440.95,12.52-512.95,0-35.33-6.14-66.39-26.14-89.0601-52.13-9.52-10.9-17.56-22.86-23.8199-35.3-4.45-8.86-8.02-18.26-10.72-28.04-19.08-69.07,4.81-156.68,60.7-200.48,32.7-25.63,74.37-34.03,112.31-48.76,45.24-17.57,87.12-42.02,134.9001-52.69,47.25-10.55,96.0199-10.81,144.1899-11.04,49.5699-.23,100.22-.29,147.1299,15.7,36.3201,12.37,68.5601,33.65,102.4701,51.1299,15.0499,7.75,31.08,13.2401,47.0699,18.7401,15.8201,5.45,31.6001,10.91,46.3601,18.6,3.45,1.8,6.84,3.72,10.1599,5.79,21.1001,13.14,36.5901,30.92,47.29,51.31,20.22,38.53,23.3301,86.33,14.77,129.56Z"/>
        <path class="cls-3" d="M489.9946,15c44.2716,0,88.9755,1.519,130.7203,15.7485,36.32,12.3701,68.56,33.6501,102.47,51.1301,15.05,7.75,31.08,13.24,47.07,18.74,15.82,5.45,31.6002,10.9099,46.3602,18.5999,3.4498,1.8,6.8398,3.72,10.1599,5.79,21.1002,13.1401,36.5901,30.9202,47.29,51.3101,20.22,38.53,23.3301,86.3301,14.77,129.5601-7.61,38.47-24.2299,76.1199-52.68,103.1099-32.2942,30.6318-73.3472,33.4846-115.2259,33.4846-9.578,0-19.1916-.1489-28.7624-.1492-11.5065,0-22.937.2156-34.1317,1.1646-59.2364,5.0251-181.372,8.2578-293.1403,8.2578-97.0834,0-186.3409-2.438-219.8096-8.2578-35.3302-6.1399-66.3902-26.1399-89.0602-52.1299-9.52-10.9001-17.56-22.8601-23.8198-35.3-4.4502-8.8601-8.0202-18.26-10.7202-28.04-19.08-69.0701,4.81-156.6799,60.7-200.48,32.7-25.6299,74.37-34.03,112.31-48.76,45.24-17.5701,87.12-42.02,134.9001-52.6899,47.25-10.55,96.0199-10.8101,144.1899-11.04,5.458-.0254,10.9319-.0486,16.4096-.0486M489.9946,0c-5.5334,0-10.9526.0232-16.4794.0488-48.3949.231-98.4355.47-147.3889,11.4001-33.1288,7.3982-63.4215,21.0635-92.7171,34.2788-14.4666,6.5259-29.4255,13.2742-44.3448,19.0684-10,3.8823-20.1557,7.2727-30.9077,10.8621-29.1995,9.748-59.3932,19.8279-85.2251,40.0745-29.0869,22.7949-51.6751,57.7209-63.6029,98.3438-11.5899,39.4717-12.4074,81.3555-2.3023,117.9363,2.9838,10.8083,6.9455,21.1643,11.7743,30.7783,6.8949,13.7017,15.616,26.6296,25.9265,38.4348,26.5482,30.436,61.2794,50.6963,97.7895,57.041,42.4278,7.3777,157.5383,8.4795,222.378,8.4795,115.6572,0,236.7222-3.418,294.4081-8.3115,11.6128-.9846,23.6631-1.1108,32.8637-1.1108,4.7237,0,9.5676.0378,14.2518.074,4.7493.0369,9.66.0752,14.5106.0752,43.468,0,88.9674-2.9036,125.5486-37.6018,28.2663-26.8154,48.0012-65.2268,57.0721-111.082,4.6688-23.5781,5.9197-48.116,3.6169-70.9578-2.5433-25.2278-9.2115-48.269-19.8197-68.4832-12.5634-23.9412-30.2751-43.1431-52.6428-57.0728-3.5046-2.1851-7.2583-4.325-11.15-6.3557-15.8928-8.28-32.4254-13.9753-48.4137-19.4834l-.4418-.1519c-15.786-5.4297-30.6966-10.5581-44.6466-17.7417-9.8599-5.0828-19.8531-10.6484-29.5174-16.0308-23.6866-13.1921-48.1797-26.8335-74.9839-35.9629C580.749,1.2781,534.0185,0,489.9946,0h0Z"/>
      </g>
      <g>
        <path class="cls-4" d="M602.945,317.4186c-13.6801,16.12-35.6,22.1-56.2201,26.74-55.8599,12.58-114.3799,21.49-170.0299,8.04-20.8199-5.02-41.5-13.54-56.4-28.92-9.49-9.79-16.2-22.04-20.03-35.15-1.8-6.1299-2.97-12.45-3.51-18.8-.34-4.03-.46-8.06-.35-12.07,1.38-52.59,40.2301-102,89.4-119.18,30.6599-10.71,64.8101-9.14,95.71.88.3801.13.76.25,1.14.38,31.2001,10.36,59.2001,28.93,83.7001,50.85,5.84,5.22,11.53,10.7,16.8799,16.5,4.8801,5.29,9.4601,10.85,13.5701,16.69,6.36,9.01,11.6,18.71,15.1,29.2,7.2301,21.64,5.8099,47.45-8.96,64.84Z"/>
        <path class="cls-2" d="M430.7087,130.7178c17.1808-.0005,34.4472,2.936,50.8062,8.2407.3802.1301.76.25,1.14.3801,31.2001,10.3599,59.2001,28.9299,83.7001,50.8499,5.84,5.2202,11.5301,10.7002,16.8799,16.5,4.8801,5.29,9.4601,10.8501,13.5701,16.6902,6.3599,9.01,11.5999,18.71,15.0999,29.2,7.2301,21.6399,5.8099,47.45-8.9599,64.8401-13.6801,16.1199-35.6,22.0999-56.2202,26.74-36.1534,8.1418-73.423,14.7468-110.3058,14.7468-20.1039,0-40.0917-1.9619-59.7241-6.707-20.8199-5.0198-41.5-13.5398-56.4-28.9199-9.49-9.79-16.2001-22.04-20.03-35.1499-1.8001-6.1301-2.97-12.45-3.51-18.8-.34-4.03-.46-8.0601-.3501-12.0701,1.38-52.5898,40.2301-102,89.4001-119.1799,14.4279-5.0398,29.6323-7.3606,44.9037-7.3608M430.7118,117.7178v13l-.001-13c-17.2799.0005-33.8299,2.7217-49.1929,8.0881-26.4393,9.2378-50.8302,27.248-68.6807,50.7131-18.2457,23.9846-28.6967,52.5376-29.4278,80.3984-.1216,4.4331.0101,8.9817.3916,13.5039.6182,7.2698,1.9606,14.4568,3.9906,21.3701,4.5487,15.5703,12.5622,29.593,23.1691,40.5354,14.7949,15.2717,35.301,25.9065,62.6872,32.5095,19.6789,4.7561,40.2139,7.0691,62.7711,7.0691,41.0107,0,82.0182-8.0508,113.1619-15.0645,22.1012-4.9734,47.0422-11.8818,63.2758-31.0107,16.4791-19.4026,20.8402-49.051,11.3781-77.3713-3.6789-11.0259-9.3349-21.9883-16.8093-32.5771-4.2166-5.9915-9.1442-12.0554-14.6355-18.0081-5.2784-5.7222-11.0916-11.4067-17.7715-17.3777-28.507-25.5049-58.1864-43.498-88.2151-53.4778-.2191-.0747-.4382-.147-.6573-.2192-.1401-.0459-.2804-.0918-.4207-.1399l-.1001-.0342-.1006-.0327c-18.1599-5.8887-36.6017-8.8745-54.8131-8.8745h0Z"/>
      </g>
    </g>
  </g>
</svg>