<?xml version="1.0" encoding="UTF-8"?>
<svg id="Capa_2" xmlns="http://www.w3.org/2000/svg" viewBox="0 0 908.2905 466.7463">
  <defs>
    <style>
      .cls-1 {
        fill: #a04040;
      }

      .cls-2 {
        fill: #f48787;
      }

      .cls-3 {
        fill: #dd6262;
      }

      .cls-4 {
        fill: #ba5858;
      }
    </style>
  </defs>
  <g id="Capa_1-2" data-name="Capa_1">
    <g>
      <g>
        <path class="cls-2" d="M888.835,305.8785c-7.6101,38.47-24.23,76.1201-52.6801,103.11-48.5599,46.06-116.9,29.31-178.12,34.5-110.6899,9.39-440.95,12.52-512.95,0-35.33-6.14-66.39-26.14-89.0601-52.13-9.52-10.9-17.56-22.86-23.8199-35.3-4.45-8.86-8.02-18.26-10.72-28.04-19.08-69.07,4.81-156.68,60.7-200.48,32.7-25.63,74.37-34.03,112.31-48.76,45.24-17.57,87.12-42.02,134.9001-52.69,47.25-10.55,96.0199-10.81,144.1899-11.04,49.5699-.23,100.22-.29,147.1299,15.7,36.3201,12.37,68.5601,33.65,102.4701,51.1299,15.0499,7.75,31.08,13.2401,47.0699,18.7401,15.8201,5.45,31.6001,10.91,46.3601,18.6,3.45,1.8,6.84,3.72,10.1599,5.79,21.1001,13.14,36.5901,30.92,47.29,51.31,20.22,38.53,23.3301,86.33,14.77,129.56Z"/>
        <path class="cls-3" d="M489.9982,15c44.2715-.0002,88.9717,1.5191,130.7168,15.7486,36.3198,12.3701,68.5601,33.65,102.4702,51.1299,15.0498,7.75,31.0796,13.2402,47.0698,18.7402,15.8198,5.4498,31.6001,10.91,46.3599,18.6,3.4502,1.8,6.8403,3.7198,10.1602,5.7899,21.1001,13.1401,36.5898,30.9202,47.29,51.31,20.2197,38.5302,23.3301,86.3301,14.77,129.56-7.6104,38.47-24.23,76.1201-52.6802,103.1101-32.2944,30.6317-73.3481,33.4845-115.2266,33.4845-9.5781,0-19.1895-.1489-28.7603-.149-11.5063,0-22.9385.2154-34.1333,1.1645-59.2363,5.0251-181.3735,8.2576-293.1416,8.2576-97.0835,0-186.3394-2.4379-219.8081-8.2576-35.3301-6.1401-66.3901-26.1401-89.0601-52.13-9.52-10.9001-17.5601-22.86-23.8198-35.3-4.4502-8.8602-8.02-18.26-10.7202-28.04-19.0801-69.07,4.8101-156.68,60.7002-200.48,32.6997-25.63,74.3696-34.0302,112.3096-48.76,45.2402-17.57,87.1201-42.0201,134.9004-52.69,47.25-10.55,96.02-10.81,144.1899-11.04,5.458-.0254,10.9355-.0486,16.4131-.0486M490.005,0v15l-.0024-15c-5.541,0-10.9604.0231-16.4873.0488-48.395.2311-98.4355.47-147.3892,11.4003-33.1284,7.398-63.4209,21.063-92.7158,34.2783-14.4668,6.5261-29.4263,13.2743-44.3457,19.0687-10,3.8823-20.1558,7.2726-30.9077,10.862-29.1992,9.748-59.3931,19.8279-85.2251,40.0748-29.0864,22.7948-51.6748,57.7208-63.603,98.3436-11.5898,39.4716-12.4072,81.3553-2.3022,117.9362,2.9849,10.8102,6.9463,21.1661,11.7744,30.7786,6.8945,13.7012,15.6157,26.6292,25.9263,38.4346,26.5479,30.4359,61.2793,50.696,97.7896,57.0412,42.4272,7.3777,157.5371,8.4792,222.3765,8.4792,115.6572,0,236.7227-3.4177,294.4097-8.3114,11.6128-.9845,23.6636-1.1108,32.8652-1.1108,4.7261,0,9.5718.0375,14.2583.074,4.7461.0368,9.6538.0749,14.502.0749,43.4678,0,88.9678-2.9034,125.5493-37.6014,28.2661-26.8152,48.001-65.2266,57.0723-111.0823,4.6689-23.5783,5.9194-48.1161,3.6167-70.9578-2.543-25.2278-9.2114-48.2689-19.8193-68.4832-12.564-23.9414-30.2759-43.1434-52.6426-57.0726-3.5054-2.1857-7.2598-4.3257-11.1519-6.3561-15.8926-8.28-32.4243-13.9752-48.4121-19.4829l-.437-.1505c-15.7881-5.4301-30.7002-10.559-44.6509-17.7433-9.8604-5.0826-19.854-10.6485-29.5186-16.0309-23.6865-13.1921-48.1797-26.8332-74.9834-35.9623C580.7491,1.278,534.0236,0,490.005,0h0Z"/>
      </g>
      <g>
        <path class="cls-4" d="M602.945,317.4186c-13.6801,16.12-35.6,22.1-56.2201,26.74-55.8599,12.58-114.3799,21.49-170.0299,8.04-20.8199-5.02-41.5-13.54-56.4-28.92-9.49-9.79-16.2-22.04-20.03-35.15-1.8-6.1299-2.97-12.45-3.51-18.8-.34-4.03-.46-8.06-.35-12.07,1.38-52.59,40.2301-102,89.4-119.18,30.6599-10.71,64.8101-9.14,95.71.88.3801.13.76.25,1.14.38,31.2001,10.36,59.2001,28.93,83.7001,50.85,5.84,5.22,11.53,10.7,16.8799,16.5,4.8801,5.29,9.4601,10.85,13.5701,16.69,6.36,9.01,11.6,18.71,15.1,29.2,7.2301,21.64,5.8099,47.45-8.96,64.84Z"/>
        <path class="cls-1" d="M430.7081,130.7178c17.1812-.0004,34.4478,2.936,50.8066,8.2408.3804.13.7603.25,1.1401.38,31.2002,10.36,59.2002,28.93,83.7002,50.85,5.8398,5.22,11.5298,10.7,16.8799,16.5,4.8799,5.29,9.46,10.85,13.5698,16.69,6.3604,9.01,11.6001,18.71,15.1001,29.2,7.23,21.64,5.8101,47.45-8.96,64.84-13.6802,16.1201-35.6001,22.1-56.2202,26.74-36.1533,8.142-73.4233,14.7469-110.3062,14.7469-20.104,0-40.0913-1.962-59.7236-6.7069-20.8198-5.02-41.5-13.54-56.3999-28.92-9.4902-9.79-16.2002-22.04-20.0303-35.15-1.7998-6.1299-2.9697-12.45-3.5098-18.8-.3398-4.0299-.46-8.06-.3501-12.07,1.3799-52.59,40.23-102,89.3999-119.18,14.4282-5.0399,29.6323-7.3605,44.9033-7.3608M430.7115,117.7178v13l-.001-13c-17.2798.0004-33.8301,2.7216-49.1929,8.088-26.4395,9.2379-50.8301,27.248-68.6807,50.7132-18.2456,23.9848-28.6968,52.5375-29.4277,80.3986-.1211,4.4321.0103,8.9803.3916,13.5034.6182,7.2697,1.9604,14.4566,3.9902,21.3699,4.5493,15.5713,12.563,29.5942,23.1699,40.5361,14.7944,15.2712,35.3003,25.9062,62.6865,32.5094,19.6792,4.7562,40.2144,7.0691,62.771,7.0691,41.0112,0,82.0186-8.0508,113.1621-15.0646,22.1011-4.9732,47.042-11.8816,63.2759-31.0107,16.4795-19.4022,20.8403-49.0506,11.3784-77.3712-3.6792-11.0273-9.3354-21.9897-16.8096-32.5776-4.2163-5.9907-9.1436-12.0544-14.6353-18.0074-5.2793-5.7233-11.0923-11.4077-17.7715-17.3777-28.5068-25.5048-58.1904-43.4994-88.2192-53.4794-.2192-.0745-.438-.1468-.6572-.2189-.1411-.0464-.2817-.0925-.4229-.1407l-.0972-.0331-.0977-.0316c-18.1597-5.8889-36.6016-8.8747-54.813-8.8747h0Z"/>
      </g>
    </g>
  </g>
</svg>