<?xml version="1.0" encoding="UTF-8"?>
<svg id="Capa_2" data-name="Capa 2" xmlns="http://www.w3.org/2000/svg" viewBox="0 0 92.73 92.75">
  <defs>
    <style>
      .cls-1 {
        fill: #3682ab;
      }

      .cls-2 {
        fill: #5c9dd1;
      }

      .cls-3 {
        fill: #4690c0;
      }
    </style>
  </defs>
  <g id="Capa_1-2" data-name="Capa 1">
    <g>
      <path class="cls-3" d="M91.52,58.01c-.87,3.24-3.62,5.23-5.02,8.13-1.45,3.01-1.2,6.34-3.59,9.02-1.72,1.94-4.2,3.04-6.11,4.8-1.97,1.81-3.29,4.31-5.48,5.85-3.19,2.23-7.48,1.99-11.07,3.5-2.41,1.02-4.5,2.83-7.07,3.31-3.07.56-6.14-.89-9.25-.98-2.71-.07-5.47.9-8.1.22-2.94-.76-4.88-3.26-7.51-4.6-3.91-1.99-7.69-.4-10.29-4.79-1.17-1.99-2.04-4.3-3.94-5.61-1.55-1.08-3.61-1.34-5.02-2.6-2.37-2.1-1.91-5.84-2.73-8.89-1.11-4.11-4.77-7.41-5.96-11.31-.27-.88-.41-1.79-.37-2.74.08-2.01,1-3.93,1.09-5.94.08-1.89-.57-3.73-.65-5.62-.11-2.6,1.02-4.29,2.2-6.06h0c.69-1.02,1.38-2.05,1.87-3.29.89-2.27.35-5.6,1.58-7.69,1.66-2.82,4.89-3.56,7.09-5.97,1.94-2.12,2.8-5.96,5.11-7.7,3-2.26,7.3-1.66,10.84-3.16,3.8-1.61,6.88-5.25,11.18-5.81,3.04-.39,5.91.79,8.92.79,2.85,0,5.82-.78,8.55.37,2.22.94,3.82,3.02,6.06,3.91,2.43.96,5.38.41,7.56,1.84,1.9,1.23,2.68,3.6,4.2,5.29,2.01,2.25,5.18,3.14,7.29,5.3,3.46,3.54,2.42,9.38,4.81,13.63.28.5.59.98.92,1.46.49.72,1.01,1.42,1.52,2.13,1.09,1.54,2.1,3.12,2.44,4.97.04.19.06.38.09.58.31,2.87-.93,5.74-1.12,8.65-.19,3.01.73,6.09-.04,9.01Z"/>
      <path class="cls-1" d="M91.52,58.01c-.87,3.24-3.62,5.23-5.02,8.13-1.45,3.01-1.2,6.34-3.59,9.02-1.72,1.94-4.2,3.04-6.11,4.8-1.97,1.81-3.29,4.31-5.48,5.85-3.19,2.23-7.48,1.99-11.07,3.5-2.41,1.02-4.5,2.83-7.07,3.31-3.07.56-6.14-.89-9.25-.98-2.71-.07-5.47.9-8.1.22-2.94-.76-4.88-3.26-7.51-4.6-3.91-1.99-7.69-.4-10.29-4.79-1.17-1.99-2.04-4.3-3.94-5.61-1.55-1.08-3.61-1.34-5.02-2.6-2.37-2.1-1.91-5.84-2.73-8.89-1.11-4.11-4.77-7.41-5.96-11.31.61.3,1.27.59,2,.87,4.35,1.64,6.4.94,8.61,3.26,1.85,1.93,1.49,3.53,3.91,5.48,1.77,1.41,2.62,1.1,4.18,2.34,2.37,1.91,2.35,4.21,3.39,6.26,3.11,6.17,15.12,9.05,22.7,6.53,1.83-.62,3.72-1.65,7.04-1.9,3.38-.26,4.07.61,6.52,0,2.83-.71,4.69-2.55,6.78-4.63,2.88-2.85,2.38-3.59,4.7-5.47,3.22-2.62,4.57-1.48,6.78-3.7,1.3-1.3.91-1.77,3.65-8.57,1.74-4.3,2.53-5.67,2.87-6.26,1.69-2.85,3.37-4.58,3.92-5.21,1.84-2.12,2.54-5.12,2.72-8.26,1.09,1.54,2.1,3.12,2.44,4.97.04.19.06.38.09.58.31,2.87-.93,5.74-1.12,8.65-.19,3.01.73,6.09-.04,9.01Z"/>
      <path class="cls-2" d="M43.71,6.63c-3.24.09-5.38.98-8.08,1.66-3.5.88-2.92.14-5.13.88-4.52,1.52-7.73,4.87-8.67,5.87-.68.73-.82.96-2.52,2.84-2.45,2.69-2.67,2.76-3.37,3.72-1.06,1.47-3.03,4.2-2.27,6.07.67,1.64,3.16,1.91,4.71,1.66,1.22-.2,2.18-.77,4.04-2.35,4.04-3.43,4.01-4.55,6.73-6.55,2.34-1.72,4.57-2.53,5.98-3.03,2.16-.78,4.81-1.41,5.89-1.66,2.55-.6,3.62-.72,5.05-1.76.91-.66,2.41-1.76,2.44-3.42.03-1.84-1.75-3.1-1.94-3.23-.99-.68-1.99-.71-2.86-.68Z"/>
      <path class="cls-2" d="M14.51,32.75c-.07-.07-1.01-1-2.35-.98-.87.01-1.39.42-4.11,2.61-1.44,1.16-2.17,1.75-2.28,1.89-1.57,1.94-1.66,4.21-1.7,5.15-.05,1.36-.08,2.17.46,2.93,1.06,1.49,3.42,1.51,4.76,1.24,2.49-.51,3.85-2.52,4.43-3.39,1.28-1.9,1.45-3.73,1.57-4.96.16-1.74.32-3.38-.78-4.5Z"/>
    </g>
  </g>
</svg>