<?xml version="1.0" encoding="UTF-8"?>
<svg id="Capa_2" data-name="Capa 2" xmlns="http://www.w3.org/2000/svg" viewBox="0 0 145.77 224.44">
  <defs>
    <style>
      .cls-1 {
        fill: #ef7735;
      }

      .cls-2 {
        fill: #f18949;
      }

      .cls-3 {
        fill: #f39868;
      }

      .cls-4 {
        fill: #e46524;
      }
    </style>
  </defs>
  <g id="Capa_1-2" data-name="Capa 1">
    <g>
      <g>
        <path class="cls-2" d="M143.24,29.4c-1.29,5.35-3.2,8.65-3.47,9.37-.35.92-.51,4.66-8.27,8.53-3.22,1.61-7.94,10.27-9.07,13.75-.77,2.36-.89,4.43-2.85,6.19-1.16,1.04-2.6,1.63-5.49,2.81-2.64,1.07-3.42,1.11-4.69,2.14-.85.69-1.45,1.62-2.62,3.45-2.4,3.76-2.29,4.62-3.97,6.41-.35.38-1.26,1.12-3.08,2.62-2.37,1.95-3.06,2.16-3.77,3.24-5.04,7.7-1.37,13.08-2.23,15.24-.26.65-1.25,3.26-1.18,7.6.07,4.57,1.22,34.69.96,38.2-.1,1.37-.27,1.26-1.67,6.74-1.03,4-1.54,6.02-1.52,7.15.06,3.43,1.46,3.58,1.97,7.64.45,3.47-.19,6.41-.6,8.32-.88,4.09-1.87,4.54-1.84,7.34.03,2.39.75,2.45,1.33,6.05.3,1.81.77,4.71.13,8.04-.49,2.59-1.13,2.69-2.77,7.59-1.19,3.59-.75,3.26-1.49,5.11-.59,1.5-2.77,6.76-8.15,9.72-1.97,1.08-5.82,1.66-6.83,1.43-.02,0-.03-.01-.04-.01-1.4-.07-3.63-.55-5.16-1.39-5.38-2.96-7.56-8.22-8.15-9.72-.74-1.85-.3-1.52-1.49-5.11-1.63-4.9-2.28-4.99-2.77-7.59-.64-3.32-.17-6.22.13-8.04.58-3.59,1.31-3.66,1.33-6.05.03-2.8-.95-3.25-1.84-7.34-.41-1.9-1.04-4.85-.6-8.32.51-4.06,1.91-4.2,1.97-7.63.02-1.14-.49-3.16-1.51-7.16-.84-3.25-1.24-4.53-1.44-5.32-.15-.55-.2-.86-.24-1.41-.25-3.51.89-33.64.96-38.21.07-4.34-.92-6.95-1.18-7.6-.86-2.16,2.39-10.79-2.23-15.24-.93-.89-1.4-1.29-3.77-3.24-1.82-1.49-2.73-2.24-3.08-2.62-1.68-1.79-1.57-2.64-3.97-6.41-1.17-1.83-1.77-2.76-2.62-3.45-1.26-1.03-2.05-1.06-4.69-2.14-2.88-1.18-4.33-1.77-5.49-2.81-1.96-1.76-2.08-3.83-2.85-6.19-1.13-3.48-5.85-12.14-9.07-13.75-7.75-3.87-7.92-7.6-8.26-8.52-.28-.73-2.19-4.03-3.48-9.38-1-4.16.09-7.29-.06-7.76C1.23,17.73-.02,16.38.39,13.81c.25-1.59.97-2.65,1.99-4.14,2.27-3.33,6.57-3.25,7.59-3.84,1.25-.74,3.01-2.7,11.73-2.63,6.39.05,4.94-3.01,9.98-2.86,1.03.03,1.9.2,2.66.45.16,2.02.04,4.15,1.45,5.49,1.81,1.71,7.12.28,6.77,5.95-.06.85-.48,1.66-.42,2.51.08,1.21,1.24,2,2.2,2.74,5.25,4.04,2.33,9.52,6.98,13.24,1.29,1.03,3.13,1.48,3.93,2.93.83,1.49.25,3.57,1.38,4.85.79.91,2.25,1.15,2.77,2.23.37.74.16,1.61.13,2.43-.13,3.48,2.86,6,5.96,7.87.33.2.67.38,1,.57,2.01,2.93,5.89,3.97,9.24,3.11,1.78.01,3.44-.48,4.75-1.79,1.08-1.08,1.7-2.57,2.86-3.56,1.45-1.23,3.62-1.59,4.7-3.15,1.39-2,.25-4.78.87-7.13,1.03-3.88,6.23-5.14,8.02-8.74,1.21-2.44.64-5.61,2.33-7.76,1.44-1.83,4.13-2.35,5.47-4.26,1.96-2.79.01-6.8,1.23-9.99,1.04-2.69,4.05-4.09,5.56-6.54.24-.39.43-.8.61-1.22.58-.15,1.23-.24,1.96-.26,5.04-.16,3.59,2.91,9.98,2.86,1.98-.02,3.61.07,4.94.23,4.55.52,5.82,1.82,6.8,2.39,1.01.6,5.31.52,7.58,3.85,1.02,1.49,1.74,2.55,2,4.14.4,2.57-.85,3.91-2.09,7.86-.15.47.94,3.6-.06,7.76Z"/>
        <path class="cls-4" d="M72.69,224.44c-.28,0-.52-.02-.69-.06h-.03c-1.44-.09-3.67-.56-5.25-1.43-3.67-2.02-6.54-5.44-8.29-9.88-.36-.9-.45-1.31-.57-1.87-.13-.59-.31-1.4-.92-3.26-.77-2.32-1.33-3.58-1.74-4.49-.47-1.05-.78-1.74-1.04-3.14-.65-3.4-.16-6.37.13-8.15.28-1.72.59-2.65.84-3.4.27-.81.47-1.4.48-2.61.02-1.53-.27-2.31-.7-3.48-.33-.89-.74-2-1.13-3.79-.39-1.83-1.05-4.88-.6-8.42.25-2.01.72-3.09,1.14-4.04.43-.99.8-1.85.83-3.56.02-1.12-.52-3.24-1.5-7.08-.54-2.1-.9-3.38-1.14-4.23-.13-.47-.23-.81-.3-1.09-.15-.55-.21-.88-.25-1.46-.17-2.41.3-17.12.65-27.86.16-4.99.29-8.93.31-10.38.06-3.83-.7-6.33-1.16-7.48-.3-.75-.16-2.1.02-3.8.37-3.54.88-8.4-2.17-11.34-.91-.87-1.33-1.23-3.75-3.22-1.79-1.46-2.74-2.25-3.11-2.65-.98-1.05-1.38-1.8-1.97-2.93-.45-.85-1.01-1.92-2.03-3.53-1.12-1.75-1.73-2.71-2.55-3.38-.83-.68-1.42-.89-2.6-1.32-.54-.2-1.18-.43-2.01-.77-2.95-1.21-4.39-1.8-5.58-2.87-1.58-1.42-2.02-3.04-2.48-4.76-.14-.5-.28-1.03-.45-1.56-1.18-3.63-5.86-12.04-8.92-13.57-7.04-3.52-7.96-7.01-8.31-8.33-.04-.15-.07-.27-.1-.36-.05-.13-.16-.36-.31-.68-.69-1.42-2.13-4.39-3.17-8.74-.75-3.1-.36-5.61-.15-6.95.05-.35.11-.7.09-.79-.4-1.28-.8-2.27-1.16-3.15-.73-1.83-1.22-3.03-.93-4.84.26-1.67,1.01-2.76,2.04-4.26,1.74-2.55,4.64-3.18,6.38-3.56.58-.13,1.08-.24,1.31-.37.14-.08.28-.18.45-.29,1.33-.9,3.54-2.38,10.99-2.38.2,0,.4,0,.61,0,3.14,0,4.25-.78,5.33-1.53C28.22.65,29.22-.03,31.69.04c.98.03,1.88.18,2.75.46l.2.06.02.2c.03.31.04.63.06.94.1,1.7.19,3.3,1.29,4.35.52.49,1.42.71,2.37.94,2.11.51,4.75,1.14,4.49,5.25-.03.4-.12.77-.22,1.14-.12.46-.23.9-.2,1.33.07.98.98,1.67,1.86,2.35l.22.17c2.8,2.15,3.35,4.69,3.88,7.15.49,2.25.94,4.37,3.11,6.1.44.35.97.65,1.49.93.97.53,1.96,1.08,2.52,2.09.4.72.5,1.56.58,2.36.1.93.2,1.8.76,2.43.31.36.74.6,1.2.86.63.36,1.28.74,1.62,1.43.32.64.26,1.33.2,2.01-.02.19-.03.38-.04.57-.1,2.73,1.74,5.14,5.81,7.59.21.13.42.24.63.36l.47.3c1.81,2.64,5.47,3.86,8.91,2.99h.08s.03,0,.05,0c1.84,0,3.35-.57,4.48-1.7.47-.47.87-1.05,1.25-1.61.47-.69.97-1.41,1.63-1.97.63-.53,1.38-.91,2.1-1.27,1.01-.5,1.96-.97,2.54-1.82.76-1.09.7-2.46.64-3.91-.04-1.04-.09-2.11.18-3.12.58-2.2,2.44-3.59,4.24-4.94,1.48-1.11,3.02-2.27,3.81-3.86.51-1.03.7-2.23.88-3.4.24-1.55.49-3.14,1.49-4.41.73-.93,1.76-1.53,2.76-2.12,1.05-.62,2.05-1.2,2.7-2.13,1.02-1.45.92-3.27.81-5.19-.09-1.59-.18-3.24.39-4.73.61-1.58,1.86-2.73,3.08-3.84.92-.84,1.87-1.71,2.51-2.75.24-.4.43-.82.59-1.18l.06-.14.15-.04c.61-.16,1.3-.25,2.03-.27,2.5-.08,3.47.61,4.51,1.33,1.07.75,2.18,1.53,5.33,1.53.05,0,.1,0,.15,0,1.87-.02,3.54.06,4.98.23,3.92.45,5.44,1.46,6.45,2.13.17.11.32.21.47.3.23.14.74.25,1.33.38,1.73.38,4.62,1.02,6.35,3.56,1.03,1.51,1.78,2.59,2.05,4.26.28,1.81-.2,3.01-.93,4.82-.36.88-.76,1.88-1.17,3.18-.01.08.04.44.09.78.21,1.35.6,3.85-.15,6.96h0c-1.04,4.33-2.47,7.29-3.16,8.71-.16.32-.27.56-.32.69-.04.09-.07.22-.11.38-.35,1.32-1.29,4.82-8.31,8.32-3.05,1.53-7.74,9.94-8.92,13.57-.17.54-.32,1.06-.45,1.56-.47,1.72-.91,3.35-2.48,4.76-1.2,1.08-2.67,1.68-5.58,2.87-.8.32-1.43.55-1.96.75-1.21.44-1.81.66-2.66,1.35-.82.67-1.44,1.63-2.55,3.38-1.03,1.61-1.59,2.68-2.04,3.53-.59,1.13-.98,1.87-1.97,2.92-.33.36-1.09.98-2.61,2.24l-.5.41c-.86.71-1.49,1.18-1.99,1.56-.89.67-1.29.97-1.72,1.62-3.44,5.25-2.74,9.41-2.29,12.17.21,1.27.38,2.28.08,3.01-.46,1.15-1.22,3.64-1.16,7.48.02,1.43.15,5.31.31,10.23.35,10.79.83,25.57.65,28-.06.84-.15,1.16-.49,2.38-.24.86-.61,2.16-1.18,4.42-1.03,4.02-1.53,6-1.51,7.07.03,1.71.4,2.57.83,3.56.41.95.88,2.04,1.13,4.04.45,3.49-.18,6.43-.6,8.38-.4,1.85-.81,2.96-1.14,3.86-.43,1.17-.72,1.94-.7,3.46.02,1.21.21,1.79.48,2.59.25.75.56,1.68.84,3.41.29,1.77.79,4.73.13,8.15-.26,1.4-.57,2.09-1.04,3.15-.41.92-.97,2.17-1.74,4.48-.62,1.86-.79,2.67-.92,3.26-.12.56-.21.96-.57,1.87-1.75,4.44-4.61,7.85-8.29,9.88-1.7.93-4.77,1.52-6.35,1.52ZM72.16,223.79c1.08.16,4.71-.38,6.59-1.41,3.55-1.95,6.32-5.26,8.01-9.56.34-.86.42-1.22.54-1.77.13-.6.31-1.43.94-3.32.78-2.34,1.35-3.61,1.76-4.54.47-1.05.75-1.69,1-3.01.64-3.31.16-6.2-.13-7.93-.27-1.69-.58-2.59-.82-3.31-.28-.83-.5-1.48-.51-2.78-.02-1.64.3-2.5.74-3.68.32-.88.73-1.97,1.11-3.73.42-1.95,1.04-4.83.6-8.22-.24-1.92-.69-2.96-1.09-3.88-.44-1.01-.85-1.96-.88-3.8-.02-1.16.45-3.05,1.53-7.23.58-2.26.95-3.57,1.19-4.43.34-1.2.42-1.48.47-2.25.18-2.39-.3-17.15-.65-27.93-.16-4.92-.29-8.8-.31-10.24-.06-3.95.73-6.53,1.2-7.72.23-.58.08-1.51-.12-2.69-.47-2.85-1.19-7.16,2.38-12.61.49-.74.97-1.1,1.86-1.77.5-.38,1.13-.84,1.97-1.54l.5-.41c1.45-1.19,2.25-1.85,2.55-2.18.93-.99,1.28-1.67,1.87-2.79.46-.87,1.02-1.95,2.06-3.58,1.15-1.8,1.79-2.79,2.69-3.52.93-.75,1.6-1,2.83-1.45.52-.19,1.14-.42,1.93-.74,2.85-1.16,4.28-1.75,5.4-2.75,1.44-1.3,1.84-2.76,2.3-4.47.14-.51.28-1.04.46-1.59,1.07-3.3,5.79-12.21,9.23-13.93,6.78-3.38,7.63-6.57,7.99-7.93.05-.18.09-.33.13-.44.05-.15.17-.39.34-.74.68-1.4,2.09-4.32,3.12-8.59h0c.72-2.98.34-5.41.14-6.72-.1-.62-.13-.88-.07-1.06.41-1.32.82-2.33,1.18-3.22.69-1.72,1.15-2.86.9-4.5-.25-1.53-.96-2.57-1.95-4.01-1.59-2.34-4.23-2.92-5.98-3.31-.67-.15-1.19-.26-1.5-.45-.15-.09-.32-.2-.5-.32-.96-.64-2.4-1.6-6.18-2.03-1.41-.17-3.05-.25-4.9-.23-3.46.02-4.72-.86-5.84-1.64-.99-.69-1.86-1.3-4.14-1.22-.63.02-1.22.09-1.75.21-.15.35-.34.74-.57,1.12-.69,1.11-1.67,2.01-2.62,2.88-1.21,1.11-2.36,2.16-2.92,3.61-.52,1.37-.43,2.95-.35,4.47.11,1.94.22,3.96-.92,5.58-.73,1.04-1.83,1.69-2.89,2.31-.99.58-1.93,1.13-2.59,1.97-.9,1.14-1.12,2.59-1.36,4.13-.19,1.21-.38,2.46-.94,3.58-.86,1.72-2.45,2.92-3.99,4.07-1.79,1.34-3.48,2.62-4.01,4.61-.24.92-.2,1.95-.16,2.94.06,1.49.12,3.02-.75,4.29-.68.98-1.75,1.51-2.78,2.02-.69.34-1.41.7-1.98,1.18-.6.51-1.05,1.16-1.52,1.85-.4.58-.81,1.18-1.32,1.69-1.25,1.25-2.94,1.9-4.93,1.88-3.65.92-7.53-.39-9.49-3.18l-.3-.17c-.22-.12-.43-.24-.65-.37-2.69-1.62-6.25-4.23-6.11-8.14,0-.2.02-.4.04-.6.05-.61.1-1.19-.14-1.68-.25-.53-.8-.84-1.38-1.17-.48-.28-.98-.56-1.35-.99-.68-.77-.8-1.79-.9-2.77-.09-.78-.17-1.51-.51-2.13-.47-.85-1.35-1.34-2.28-1.85-.54-.3-1.09-.6-1.58-.99-2.33-1.87-2.84-4.2-3.33-6.45-.51-2.35-1.03-4.77-3.65-6.79l-.22-.17c-.94-.72-2.01-1.54-2.1-2.79-.04-.53.09-1.04.22-1.53.09-.35.18-.69.2-1.03.22-3.6-1.94-4.11-4.02-4.62-1.04-.25-2.01-.48-2.65-1.09-1.28-1.22-1.39-3.02-1.49-4.76-.01-.24-.03-.48-.04-.72-.75-.23-1.53-.35-2.38-.37-2.29-.07-3.14.53-4.13,1.22-1.1.77-2.34,1.64-5.68,1.64-.19,0-.4,0-.59,0-7.27,0-9.46,1.48-10.66,2.28-.17.12-.33.22-.48.31-.31.18-.83.29-1.49.44-1.75.38-4.4.96-6,3.31-.99,1.44-1.7,2.49-1.94,4.01-.26,1.64.2,2.79.9,4.52.36.89.76,1.9,1.17,3.2.06.19.02.45-.07,1.07-.2,1.31-.58,3.73.14,6.71,1.03,4.29,2.45,7.21,3.13,8.61.16.34.28.58.34.73.04.11.08.25.12.42.33,1.24,1.19,4.54,7.99,7.93,3.43,1.72,8.15,10.63,9.23,13.93.18.54.32,1.08.46,1.59.46,1.7.86,3.17,2.3,4.46,1.11,1,2.52,1.57,5.33,2.73.89.36,1.53.6,2.06.79,1.21.44,1.87.68,2.78,1.42.9.73,1.53,1.72,2.68,3.52,1.04,1.63,1.6,2.71,2.06,3.57.59,1.13.95,1.8,1.88,2.8.34.37,1.33,1.19,3.05,2.59,2.41,1.98,2.87,2.38,3.79,3.26,3.27,3.15,2.74,8.17,2.36,11.84-.16,1.55-.3,2.89-.06,3.5.48,1.19,1.26,3.78,1.2,7.72-.02,1.45-.15,5.39-.31,10.39-.35,10.73-.82,25.42-.65,27.8.04.54.09.83.23,1.35.07.28.17.62.3,1.08.24.86.6,2.14,1.14,4.24.99,3.9,1.54,6.04,1.52,7.24-.03,1.83-.45,2.78-.88,3.79-.4.91-.85,1.95-1.09,3.87-.44,3.44.18,6.31.59,8.22.38,1.75.78,2.84,1.11,3.71.44,1.19.76,2.05.74,3.7-.01,1.31-.23,1.97-.51,2.8-.25.73-.55,1.63-.82,3.3-.29,1.74-.77,4.64-.13,7.93.25,1.33.53,1.96,1,3,.41.93.98,2.2,1.76,4.55.63,1.9.81,2.72.94,3.32.12.55.2.91.54,1.77,1.7,4.31,4.47,7.61,8.01,9.56,1.45.8,3.63,1.28,5.03,1.35l.11.03Z"/>
      </g>
      <path class="cls-1" d="M143.24,29.4c-1.29,5.35-3.2,8.65-3.47,9.37-.35.92-.51,4.66-8.27,8.53-3.22,1.61-7.94,10.27-9.07,13.75-.77,2.36-.89,4.43-2.85,6.19-1.16,1.04-2.6,1.63-5.49,2.81-2.64,1.07-3.42,1.11-4.69,2.14-.85.69-1.45,1.62-2.62,3.45-2.4,3.76-2.29,4.62-3.97,6.41-.35.38-1.26,1.12-3.08,2.62-2.37,1.95-3.06,2.16-3.77,3.24-5.04,7.7-1.37,13.08-2.23,15.24-.26.65-1.25,3.26-1.18,7.6.07,4.57,1.22,34.69.96,38.2-.1,1.37-.27,1.26-1.67,6.74-1.03,4-1.54,6.02-1.52,7.15.06,3.43,1.46,3.58,1.97,7.64.45,3.47-.19,6.41-.6,8.32-.88,4.09-1.87,4.54-1.84,7.34.03,2.39.75,2.45,1.33,6.05.3,1.81.77,4.71.13,8.04-.49,2.59-1.13,2.69-2.77,7.59-1.19,3.59-.75,3.26-1.49,5.11-.59,1.5-2.77,6.76-8.15,9.72-1.97,1.08-5.82,1.66-6.83,1.43-.02,0-.03-.01-.04-.01-1.4-.07-3.63-.55-5.16-1.39-5.38-2.96-7.56-8.22-8.15-9.72-.74-1.85-.3-1.52-1.49-5.11-1.63-4.9-2.28-4.99-2.77-7.59-.64-3.32-.17-6.22.13-8.04.58-3.59,1.31-3.66,1.33-6.05.03-2.8-.95-3.25-1.84-7.34-.41-1.9-1.04-4.85-.6-8.32.51-4.06,1.91-4.2,1.97-7.63.02-1.14-.49-3.16-1.51-7.16-.84-3.25-1.24-4.53-1.44-5.32,2.67,1.81,4.72,4.98,5.16,5.66.56.85,3.07,4.9,3.13,10.17.03,2.2-.39,3.26,0,6,.27,1.9.81,3.77,1.31,5.48.91,3.15,1.03,2.76,1.17,3.78.33,2.45-.57,3.33-1.43,7.7-.3,1.5-.62,3.12-.66,5.21-.05,3.22-.09,5.37,1.31,7.05,2.14,2.55,6.15,2.2,7.43,2.08,1.22-.1,4.93-.43,6.79-3.13.74-1.08.9-3.21,1.17-7.43.31-4.8.01-4.58.36-5.48,1.42-3.64,4.92-3.28,6.55-7.17.82-1.95.71-3.85.66-4.57-.19-2.72-1.32-3.56-1.57-6.26-.16-1.75.16-3.02.65-4.96.88-3.44,1.86-3.98,3.13-8.08.67-2.16,1.01-3.24.92-4.44-.18-2.32-1.31-3.11-2.09-6,0,0-.62-32.27-.52-34.82.16-4.56,2.5-5.22,3.13-9.13.74-4.63-2.27-5.33-1.7-10.57.11-1.01.55-5.05,3.52-7.96,2.26-2.2,3.6-1.44,6.53-4.3.76-.74,2.37-2.32,3.65-4.83.98-1.93.86-2.62,1.95-4.04,1.39-1.8,3.11-2.67,3.79-3,.93-.46,1.13-.4,4.82-1.43,3.29-.92,3.63-1.11,3.92-1.31,1.34-.91,1.89-2.17,2.87-4.82,2.6-7.04,2.07-7.09,3.13-8.65,1.67-2.45,4.03-3.83,6.16-5.08,2.3-1.35,2.97-1.25,5.28-2.74,1.64-1.05,3.34-2.15,4.8-4.01,3.05-3.91,3.03-8.66,3.03-10.18,0-3.55-1.03-3.55-.69-6.55.4-3.51,1.86-4.08,1.76-7.24-.02-.87-.11-3.85-2.15-5.67-.72-.65-1.62-1.02-3.42-1.76-1.98-.82-2.56-.77-3.82-1.47-1.49-.83-2.36-1.83-2.83-2.35-.22-.24-.45-.47-.69-.7,4.55.52,5.82,1.82,6.8,2.39,1.01.6,5.31.52,7.58,3.85,1.02,1.49,1.74,2.55,2,4.14.4,2.57-.85,3.91-2.09,7.86-.15.47.94,3.6-.06,7.76Z"/>
      <path class="cls-3" d="M12.6,6.94c-2.05.59-3.09.9-4.01,1.66-1.67,1.39-2.21,3.18-2.35,3.72-.43,1.61-.18,3,0,4.01.22,1.24.42,1.22.59,2.25.24,1.47-.04,2.3-.39,4.5-.36,2.3-.55,3.45-.49,4.79.07,1.59.15,3.42,1.47,4.7.61.59,1.94,1.5,2.93,1.08,1.06-.45,1.22-2.16,1.47-5.28.13-1.66.14-3,.1-5.67-.08-5.47-.18-5.41,0-5.97,1.05-3.24,4.48-5.64,5.09-6.07,1.31-.92,2.9-1.72,2.93-3.03,0-.13,0-.71-.39-1.17-1.03-1.21-3.7-.44-6.95.49Z"/>
      <path class="cls-3" d="M40.12,65.8c-1.36-2.35-4.13-1.17-6.91-3.26-1.64-1.23-2.44-3.08-4.04-6.78-.48-1.11-1.44-3.5-1.63-3.98-1.06-2.65-1.26-3.27-1.96-4.17-1.01-1.32-2.16-2.06-3-2.61-.57-.37-1.32-.8-3.59-1.7-4-1.58-6.01-2.36-6.65-1.63-.39.44-.21,1.26,0,1.7.48,1.02,1.61,1.1,3.39,1.89,0,0,1.82.81,3.65,2.28.62.5,2.02,1.71,3.13,3.52,1.22,1.98.81,2.59,2.09,6.39,1.12,3.34,2.29,5.44,2.61,6,1.34,2.35,2.01,3.53,3.46,4.5,2.35,1.59,4.84,1.44,6.13,1.37,1.29-.07,3.12-.18,3.65-1.3.43-.91-.22-2.04-.33-2.22Z"/>
      <path class="cls-3" d="M56.68,92.8c-.5-.03-.59,1.83-2.09,5.97-.66,1.82-1.11,2.75-1.04,4.27.05,1.11.31,1.07.52,2.67.35,2.62-.25,3.36.46,4.43.61.93,1.86,1.58,2.48,1.24.2-.11.55-.44.33-4.04-.15-2.52-.34-2.69-.33-4.24,0-.81.11-1.8.33-3.78.22-2.04.31-2.43.26-3.33-.07-1.18-.4-3.16-.91-3.2Z"/>
    </g>
  </g>
</svg>