<?xml version="1.0" encoding="UTF-8"?>
<svg id="Capa_2" data-name="Capa 2" xmlns="http://www.w3.org/2000/svg" viewBox="0 0 142.82 261.32">
  <defs>
    <style>
      .cls-1 {
        fill: #b23241;
      }

      .cls-2 {
        fill: #d5414b;
      }

      .cls-3 {
        fill: #e4606d;
      }

      .cls-4 {
        fill: #c03442;
      }
    </style>
  </defs>
  <g id="Capa_1-2" data-name="Capa 1">
    <g>
      <g>
        <path class="cls-2" d="M142.2,57.46c-.78,2.47-2.9,3.95-5.82,5.99-2.02,1.41-2.83,1.53-4.13,2.98-1.59,1.79-2.22,3.61-2.58,4.69-1.16,3.5.01,4.01-.97,6.13-.97,2.1-3.06,3.31-7.23,5.72-2.93,1.69-3.42,1.57-4.21,2.6-1.82,2.36-.38,4.5-1.12,7.77-1.51,6.62-10.11,9.57-10.58,9.72-3.38,1.11-4.5.22-9.56.37-1.46.05-2.94-.45-4.4-1.07-3.26-1.38-6.81,1.26-6.4,4.78,1.83,15.39,1.41,63.66-1.6,77.84l-1.4,6.64c5.18,16.8,5.5,35.35.93,52.43l-.93,3.46c0,7.45-4.81,13.5-10.73,13.5-3.2,0-6.07-1.76-8.04-4.56-1.68-2.38-2.7-5.5-2.7-8.94l-.88-3.29c-4.3-16.01-4.33-32.87-.09-48.9l.97-3.7-1.16-5.15c-3.09-13.7-1.22-63.79,1.2-79.99.68-4.6-4.35-7.87-8.29-5.41-2.15,1.34-4.17,2.41-5.66,2.36-5.06-.15-6.17.74-9.56-.37-.46-.15-9.07-3.1-10.57-9.72-.75-3.27.69-5.41-1.12-7.77-.8-1.03-1.29-.91-4.22-2.6-4.17-2.41-6.25-3.62-7.23-5.72-.98-2.12.19-2.63-.97-6.13-.36-1.08-.98-2.9-2.58-4.69-1.3-1.45-2.11-1.57-4.12-2.98-2.92-2.04-5.05-3.52-5.83-5.99-.92-2.93.36-6.26,1.93-8.19,1.49-1.83,2.36-1.35,3.33-3.04,2.24-3.92-.95-8.41.57-12.3.42-1.09,1.27-1.96,2.04-2.84,1.99-2.29,3.63-5.03,3.94-8.04.18-1.71-.08-3.44.16-5.14.39-2.91,2.31-5.57,4.94-6.86,1.53-.76,3.46-1.18,4.62-2.52,1.26-1.44,1.73-3.49,3.02-4.99,1.32-1.54,2.5-2.92,4.37-3.2,1.08-.16,2.18.24,4.38,1.03.01,0,.02,0,.03.01,1.36.49,2.27,1.76,2.35,3.21.11,1.95.69,3.86.16,5.91-.31,1.23-.87,2.41-1.02,3.67-.18,1.57.3,3.16.99,4.58.62,1.28,1.42,2.51,1.65,3.91.56,3.37-1.93,6.68-2.55,9.93-.76,3.96.88,8.01,3.16,11.35,1.22,5.04,5.35,8.94,10.51,9.83.81.88,2,1.89,3.66,2.57,1.79.74,3.77,1.26,5.65.55,2.02-.76,3.91-2.25,6.18-1.99,1.07.13,1.91.71,2.93,1.01,1.09.33,2.26.41,3.39.23,1.7-.28,3.25-1.12,4.9-1.56,1.13-.31,2.33-.43,3.47-.17,1.7.37,3.1,1.5,4.75,2,1.57.47,3.53.61,5.1.18.31-.08,1.23-.35,2.25-1.04.58-.38,3.03-1.45,4.2-2.38,2.92-1.06,5.35-3.13,6.89-5.79,1.2-.86,3.38-3.59,3.98-5.63.34-1.17.15-2.75.23-3.05.33-1.25.72-2.63.68-3.98-.06-1.66-.62-3.22-1.16-4.67-.71-1.87-1-3.61-.8-5.69.14-1.51.31-3.1.81-4.44.5-1.35.9-2.92.57-4.37-.25-1.15-.94-2.04-1.29-3.13-.08-.58-.15-1.14-.22-1.67.06-1.15.48-2.23.73-3.33.18-.83.26-1.68.27-2.53.02-1.56.94-2.96,2.41-3.49l.12-.04c2.2-.79,3.3-1.19,4.38-1.03,1.87.28,3.05,1.66,4.37,3.2,1.29,1.5,1.76,3.55,3.01,4.99.08.09.16.18.25.26,1.18,1.14,2.94,1.55,4.38,2.26,2.63,1.29,4.54,3.95,4.94,6.86.23,1.7-.02,3.43.15,5.14.31,3.01,1.96,5.75,3.95,8.04.77.88,1.61,1.75,2.04,2.84,1.52,3.89-1.67,8.38.57,12.3.96,1.69,1.84,1.21,3.33,3.04,1.57,1.93,2.85,5.26,1.92,8.19Z"/>
        <path class="cls-1" d="M71.47,261.32c-3.17,0-6.19-1.71-8.29-4.69-1.77-2.51-2.75-5.73-2.76-9.08l-.87-3.25c-4.31-16.03-4.34-33-.09-49.06l.95-3.63-1.14-5.08c-3.16-14-1.15-64.38,1.2-80.1.3-2-.57-3.93-2.27-5.04-1.7-1.11-3.83-1.14-5.56-.06-1.96,1.22-4.18,2.45-5.83,2.41-1.89-.05-3.25.04-4.35.11-1.89.13-3.13.21-5.3-.5-.38-.12-9.22-3.07-10.77-9.94-.31-1.38-.25-2.56-.2-3.61.08-1.52.14-2.73-.86-4.04-.46-.59-.81-.77-1.73-1.23-.55-.28-1.31-.66-2.4-1.29-4.21-2.44-6.33-3.66-7.36-5.86-.5-1.08-.48-1.77-.45-2.57.03-.85.06-1.81-.53-3.6-.33-.98-.94-2.82-2.52-4.58-.81-.9-1.4-1.25-2.29-1.79-.5-.3-1.06-.64-1.78-1.14-3-2.09-5.14-3.59-5.95-6.15-.94-3.01.32-6.42,1.98-8.48.75-.92,1.34-1.28,1.87-1.6.54-.33.97-.59,1.43-1.4,1.15-2.01.81-4.15.45-6.42-.31-1.95-.63-3.96.1-5.84.39-1,1.11-1.82,1.81-2.6l.29-.33c2.3-2.65,3.6-5.29,3.87-7.87.08-.78.07-1.59.06-2.37-.01-.91-.03-1.85.1-2.78.41-3.03,2.36-5.75,5.11-7.09.45-.22.94-.42,1.42-.61,1.14-.46,2.33-.94,3.1-1.83.6-.69,1.02-1.52,1.46-2.41.44-.89.89-1.8,1.56-2.58,1.33-1.55,2.58-3.01,4.56-3.3,1.15-.17,2.26.23,4.47,1.02l-.02.32.1-.29c1.48.53,2.48,1.9,2.57,3.49.03.57.11,1.15.18,1.71.18,1.37.36,2.79-.02,4.3-.12.47-.27.93-.42,1.38-.26.77-.5,1.49-.58,2.25-.15,1.32.16,2.76.96,4.42.15.3.3.61.46.91.51.97,1.03,1.97,1.21,3.08.36,2.2-.51,4.34-1.35,6.42-.51,1.25-.98,2.43-1.21,3.61-.81,4.23,1.24,8.38,3.11,11.12l.04.1c1.2,4.96,5.23,8.73,10.26,9.6l.1.02.07.08c1.02,1.11,2.21,1.95,3.55,2.49,1.53.63,3.53,1.26,5.42.55.57-.22,1.15-.5,1.71-.77,1.43-.7,2.91-1.43,4.61-1.23.69.08,1.29.34,1.87.59.36.16.73.32,1.11.43,1.05.32,2.17.39,3.25.22.96-.16,1.91-.51,2.82-.86.66-.25,1.35-.51,2.05-.7,1.32-.36,2.54-.42,3.62-.17.96.21,1.84.66,2.68,1.09.67.34,1.37.7,2.09.92,1.64.49,3.53.56,4.93.18.33-.09,1.21-.35,2.16-1,.21-.14.62-.34,1.13-.6.97-.49,2.3-1.16,3.05-1.76l.09-.05c2.82-1.02,5.21-3.03,6.73-5.66l.09-.1c1.15-.82,3.28-3.48,3.86-5.47.22-.74.21-1.69.2-2.31,0-.4,0-.6.03-.73l.06-.22c.32-1.2.65-2.45.61-3.67-.06-1.54-.55-2.98-1.14-4.57-.76-2-1.01-3.8-.82-5.83.15-1.61.33-3.17.83-4.52.64-1.73.82-3.06.56-4.19-.13-.61-.4-1.15-.68-1.71-.22-.44-.45-.9-.6-1.39-.07-.45-.12-.83-.17-1.21l-.07-.51c.04-.88.26-1.66.47-2.41.1-.34.19-.68.27-1.03.17-.76.25-1.59.27-2.46.02-1.73,1.04-3.21,2.61-3.77l.12-.04c2.27-.82,3.39-1.21,4.53-1.04,1.98.3,3.23,1.75,4.55,3.3.68.79,1.13,1.71,1.57,2.6.43.88.84,1.71,1.44,2.39.07.08.14.16.22.23.78.75,1.86,1.19,2.9,1.6.47.19.96.39,1.42.61,2.73,1.34,4.69,4.06,5.11,7.09.13.93.11,1.87.1,2.79-.01.78-.02,1.58.05,2.37.26,2.56,1.57,5.21,3.88,7.87l.27.3c.7.79,1.43,1.61,1.83,2.62.74,1.88.42,3.9.1,5.84-.36,2.27-.7,4.41.45,6.42.46.81.89,1.07,1.43,1.4.53.32,1.13.68,1.87,1.6,1.67,2.05,2.93,5.47,1.97,8.48h0c-.81,2.57-2.96,4.07-5.94,6.15-.72.5-1.28.84-1.78,1.14-.9.54-1.49.89-2.3,1.79-1.58,1.78-2.19,3.6-2.52,4.58-.59,1.78-.56,2.74-.53,3.59.03.8.05,1.49-.45,2.57-1.01,2.19-3.13,3.42-7.35,5.86-1.08.62-1.84,1.01-2.39,1.29-.95.48-1.27.64-1.73,1.24-1.01,1.31-.95,2.52-.87,4.05.05,1.05.12,2.23-.19,3.6-1.58,6.94-10.7,9.92-10.79,9.94-2.16.71-3.41.62-5.29.5-1.09-.08-2.46-.17-4.35-.11-1.6.05-3.18-.52-4.53-1.09-1.44-.61-3.04-.41-4.28.52-1.24.93-1.87,2.4-1.69,3.94,1.77,14.91,1.53,63.17-1.6,77.94l-1.38,6.56c5.16,16.78,5.48,35.43.91,52.52l-.92,3.42c-.02,7.59-4.96,13.77-11.04,13.77ZM55.37,99.92c1.1,0,2.19.32,3.16.95,1.9,1.24,2.87,3.41,2.54,5.65-2.34,15.69-4.35,65.93-1.2,79.88l1.18,5.22-.99,3.77c-4.22,15.96-4.19,32.81.09,48.74l.89,3.37c0,3.24.94,6.35,2.64,8.76,1.98,2.82,4.82,4.43,7.79,4.43,5.75,0,10.42-5.92,10.42-13.19v-.08s.94-3.46.94-3.46c4.55-17,4.22-35.56-.93-52.26l-.02-.08,1.42-6.72c3.13-14.73,3.36-62.86,1.6-77.74-.2-1.76.52-3.44,1.94-4.5,1.42-1.07,3.25-1.29,4.89-.6,1.29.54,2.8,1.1,4.27,1.04,1.92-.06,3.3.04,4.41.11,1.82.12,3.02.21,5.06-.47.09-.03,8.87-2.89,10.38-9.5.29-1.29.23-2.38.18-3.43-.08-1.53-.15-2.97,1-4.46.54-.71.98-.93,1.94-1.41.55-.28,1.29-.65,2.36-1.27,4.11-2.38,6.17-3.57,7.1-5.58.44-.94.42-1.54.39-2.29-.03-.86-.06-1.92.56-3.81.34-1.02.97-2.92,2.64-4.8.87-.97,1.53-1.37,2.44-1.91.49-.29,1.04-.62,1.74-1.11,2.88-2.01,4.95-3.46,5.7-5.83h0c.88-2.79-.3-5.98-1.87-7.9-.68-.83-1.21-1.15-1.71-1.46-.57-.34-1.1-.67-1.65-1.62-1.25-2.2-.88-4.55-.52-6.82.31-1.95.6-3.79-.07-5.52-.36-.91-1.05-1.69-1.71-2.44l-.27-.31c-2.39-2.75-3.75-5.52-4.02-8.21-.08-.82-.07-1.64-.06-2.44.01-.89.03-1.81-.09-2.69-.39-2.83-2.22-5.37-4.77-6.62-.43-.21-.89-.4-1.37-.59-1.09-.44-2.22-.89-3.08-1.72-.09-.08-.18-.18-.27-.28-.65-.75-1.1-1.65-1.53-2.53-.42-.86-.86-1.74-1.48-2.47-1.31-1.52-2.43-2.83-4.18-3.1-1-.15-2.06.23-4.17.99l-.18.07c-1.32.48-2.19,1.73-2.2,3.2-.01.92-.1,1.79-.28,2.59-.08.36-.18.71-.28,1.06-.2.72-.41,1.47-.45,2.22l.06.46c.05.37.1.76.15,1.15.13.4.34.82.56,1.26.28.57.58,1.17.73,1.85.38,1.65-.15,3.38-.58,4.54-.48,1.28-.65,2.79-.79,4.36-.19,1.93.06,3.64.78,5.55.61,1.64,1.12,3.13,1.18,4.77.04,1.32-.32,2.66-.63,3.85l-.06.22c-.02.07-.01.33,0,.56,0,.66.02,1.66-.22,2.49-.63,2.15-2.82,4.85-4.04,5.75-1.58,2.71-4.06,4.78-6.97,5.85-.81.63-2.14,1.3-3.12,1.8-.48.24-.89.45-1.07.57-1.03.7-1.98.99-2.34,1.08-1.52.42-3.49.35-5.27-.18-.78-.24-1.5-.6-2.19-.96-.84-.43-1.64-.84-2.53-1.03-.98-.22-2.1-.17-3.32.17-.67.18-1.34.43-1.99.68-.94.35-1.91.72-2.94.89-1.18.19-2.4.1-3.53-.24-.42-.12-.81-.29-1.18-.45-.56-.24-1.09-.47-1.7-.55-1.52-.18-2.85.48-4.27,1.17-.57.28-1.17.57-1.77.8-2.1.79-4.24.12-5.88-.55-1.39-.57-2.63-1.43-3.7-2.57-5.21-.94-9.37-4.85-10.64-9.99-1.93-2.83-4.02-7.12-3.18-11.53.24-1.25.75-2.51,1.24-3.73.81-2,1.64-4.06,1.31-6.09-.17-1.02-.65-1.93-1.15-2.9-.16-.31-.32-.61-.47-.92-.85-1.76-1.18-3.32-1.02-4.75.09-.83.36-1.61.61-2.37.15-.44.3-.89.41-1.34.35-1.39.19-2.69.01-4.07-.07-.57-.15-1.16-.18-1.75-.08-1.34-.92-2.5-2.15-2.94v-.32s-.1.29-.1.29c-2.11-.76-3.18-1.14-4.17-.99-1.75.26-2.88,1.57-4.18,3.09-.63.73-1.06,1.61-1.49,2.46-.44.88-.89,1.79-1.54,2.54-.87,1.01-2.12,1.51-3.34,2-.49.2-.95.38-1.38.59-2.53,1.24-4.4,3.84-4.77,6.63-.12.88-.11,1.8-.1,2.68.01.8.02,1.63-.06,2.45-.28,2.7-1.63,5.47-4.01,8.21l-.29.33c-.66.75-1.35,1.52-1.69,2.42-.67,1.73-.38,3.57-.07,5.52.36,2.27.74,4.62-.52,6.82-.55.95-1.08,1.28-1.65,1.62-.51.31-1.03.63-1.71,1.46-1.56,1.92-2.75,5.11-1.88,7.9.75,2.36,2.81,3.8,5.68,5.81.74.52,1.29.85,1.78,1.14.91.54,1.56.94,2.43,1.91,1.66,1.86,2.3,3.77,2.64,4.8.63,1.89.59,2.95.56,3.81-.02.75-.04,1.35.39,2.29.94,2.02,3,3.21,7.1,5.58,1.07.62,1.82,1,2.37,1.27.96.48,1.39.7,1.94,1.41,1.14,1.49,1.07,2.92.99,4.44-.05,1.06-.11,2.15.19,3.45,1.48,6.54,10.28,9.47,10.37,9.5,2.05.67,3.25.59,5.07.47,1.11-.08,2.48-.17,4.41-.11,1.47.04,3.61-1.14,5.49-2.31.95-.59,2-.89,3.06-.89Z"/>
      </g>
      <path class="cls-4" d="M142.2,57.46c-.78,2.47-2.9,3.95-5.82,5.99-2.02,1.41-2.83,1.53-4.13,2.98-1.59,1.79-2.22,3.61-2.58,4.69-1.16,3.5.01,4.01-.97,6.13-.97,2.1-3.06,3.31-7.23,5.72-2.93,1.69-3.42,1.57-4.21,2.6-1.82,2.36-.38,4.5-1.12,7.77-1.51,6.62-10.11,9.57-10.58,9.72-3.38,1.11-4.5.22-9.56.37-1.46.05-2.94-.45-4.4-1.07-3.26-1.38-6.81,1.26-6.4,4.78,1.83,15.39,1.41,63.66-1.6,77.84l-1.4,6.64c5.18,16.8,5.5,35.35.93,52.43l-.93,3.46c0,7.45-4.81,13.5-10.73,13.5-3.2,0-6.07-1.76-8.04-4.56,1.38.05,2.86-.13,4.36-.69,2.35-.89,5.26-2.93,5.22-5.09-.03-1.63-1.73-2.28-1.6-3.91.15-1.78,2.34-2.87,3.29-3.47,3.25-2.04,4.13-5.99,5.87-13.88.6-2.69,2.54-12.39,0-23.35-.87-3.77-1.91-6.14-3.26-8.22-2.43-3.74-5.94-4.06-5.9-6.13.04-1.97,2.96-2.35,5.64-5.64,1.91-2.33,2.49-4.65,3.23-7.73,1.49-6.2,1.78-42.96,1.56-55.14-.2-11.37-.33-17.11-1.79-19.4-.88-1.38-3.07-4.33-2.08-6.78.75-1.88,3.01-2.58,3.13-2.61,1.35-.4,2.3-.02,5.73.91,1.52.42,3.06.75,4.57,1.18,3.99,1.11,10.7,2.98,15-.2,2.72-2.01,3.53-5.35,3.72-6.12.39-1.62.83-3.44,0-5.23-.57-1.22-1.38-1.65-1.37-2.74,0-1.3,1.18-2.29,1.73-2.74,2.4-1.95,4.21-1.01,8.18-2.41,2.32-.82,4.3-1.51,5.35-3.39.81-1.45.85-3.22.91-6.13.05-2.14-.17-2.56.22-3.65.06-.16,1.05-2.79,3.43-3.52,1.21-.37,1.61.1,2.87,0,2.44-.2,5.21-2.29,6-5.09.99-3.5-1.49-6.75-1.82-7.17-.62-.79-.96-.92-1.31-1.7-.69-1.57-.02-2.7.26-5.35.2-1.83.34-3.19-.13-4.82-.65-2.27-2.15-3.84-2.87-4.57-1.29-1.33-1.54-1.02-2.47-2.09-2.07-2.36-2.21-5.4-2.22-5.87-.09-2.68,1.07-3.06.65-5.34-.31-1.69-1.21-2.91-1.96-3.92-1.37-1.85-2.32-2.2-3.26-3.26-.61-.69-1.06-1.53-1.39-2.4,1.18,1.14,2.94,1.55,4.38,2.26,2.63,1.29,4.54,3.95,4.94,6.86.23,1.7-.02,3.43.15,5.14.31,3.01,1.96,5.75,3.95,8.04.77.88,1.61,1.75,2.04,2.84,1.52,3.89-1.67,8.38.57,12.3.96,1.69,1.84,1.21,3.33,3.04,1.57,1.93,2.85,5.26,1.92,8.19Z"/>
      <path class="cls-3" d="M3.62,58.67c-1.16-1.29-1.74-1.94-1.99-2.54-1-2.44.4-5.93,2.48-6.78.5-.2,1.46-.43,1.83,0,.35.41.01,1.23-.1,1.5-.37.9-.91,1.12-1.34,1.7-.69.94-.54,2.13-.39,3.29.38,2.95,1.36,3.79,1.11,3.98-.25.19-1.28-.79-1.6-1.14Z"/>
      <path class="cls-3" d="M35.96,100.28c-2.31.48-4.58-2.37-5.35-3.33-.75-.95-2.55-3.21-2.22-6,.06-.46.28-2.35,1.37-2.67.95-.29,2.12.75,2.67,1.63.58.91.32,1.38.78,3,.19.66.56,1.95,1.43,3.13,1.38,1.87,3.03,2.13,2.93,3-.06.61-.94,1.09-1.63,1.24Z"/>
      <path class="cls-3" d="M46.72,99.89c-.13-.39-1.58.19-4.17,0-1.79-.13-2.7-.52-3.13,0-.32.4-.22,1.14.13,1.57.44.54,1.22.49,2.74.39,1.07-.07,1.87-.13,2.8-.59.64-.31,1.75-1.01,1.63-1.37Z"/>
      <path class="cls-3" d="M14.54,20.59c.44-2.01.66-3.02,1.27-4.11,1.23-2.18,3.14-3.25,4.01-3.72,1.02-.55,2.94-1.59,5.38-1.27.59.08,3.38.44,3.91,2.15.39,1.24-.62,2.55-1.37,3.52-.5.65-1.25,1.45-4.21,3.33-3.41,2.16-3.84,2-4.7,3.13-.92,1.21-1.41,2.69-1.86,4.01-.57,1.7-.33,1.72-.78,2.74-.85,1.94-2.21,3.02-3.33,3.91-1.27,1.01-2.28,1.82-3.03,1.47-.59-.28-.87-1.2-.78-1.96.18-1.62,1.94-1.65,3.33-3.62.74-1.05,1.02-2.66,1.57-5.87.32-1.85.24-2.11.59-3.72Z"/>
    </g>
  </g>
</svg>