<?xml version="1.0" encoding="UTF-8"?>
<svg id="Capa_2" data-name="Capa 2" xmlns="http://www.w3.org/2000/svg" viewBox="0 0 72.12 71.18">
  <defs>
    <style>
      .cls-1 {
        fill: #a2a0a0;
      }

      .cls-2 {
        fill: #6e6c6c;
      }

      .cls-3 {
        fill: #878585;
      }
    </style>
  </defs>
  <g id="Capa_1-2" data-name="Capa 1">
    <g>
      <path class="cls-3" d="M71.44,52.66c-.08.3.11,1.88-.23,3.05-.6,2.04-2.78,4.77-3.98,5.63-1.54,2.66-3.97,4.73-6.89,5.79-1.17.93-3.62,2-4.2,2.38-1.02.69-1.94.96-2.25,1.04-1.57.43-3.53.29-5.1-.18-1.65-.5-3.05-1.63-4.75-2-1.14-.26-2.34-.14-3.47.17-1.65.44-3.2,1.28-4.9,1.56-1.13.18-2.3.1-3.39-.23-1.02-.3-1.86-.88-2.93-1.01-2.27-.26-4.16,1.23-6.18,1.99-1.88.71-3.86.19-5.65-.55-1.66-.68-2.85-1.69-3.66-2.57-5.16-.89-9.29-4.79-10.51-9.83-.6-.88-1.15-1.8-1.63-2.76-1.35-2.7-2.09-5.67-1.53-8.59.61-3.18,2.78-6.07,2.66-9.39-.02-.58-.14-1.14-.3-1.68h0c-.29-.93-.74-1.8-1.18-2.68C.65,31.37-.04,29.94.05,28.31c.09-1.77,1.21-3.36,1.39-5.13.16-1.47-.34-2.92-.58-4.38-.08-.5.01-1.39.24-2.44.48-2.2,1.57-5.09,2.91-6.43,1.03-2.43,2.78-4.47,4.97-5.89.97-1.1,2.09-2.18,2.74-2.44,1.37-.55,2.75-1.24,4.25-1.24,1.24.01,2.42.49,3.6.86.88.28,1.79.51,2.71.52.61,0,1.62-.11,2.2-.51-.02.03-.04.04-.06.06C26.56.09,29.23.04,31.57.8c1.05.34,2.11.86,3.2,1.12h2.3c1.2-.32,2.25-1.06,3.49-1.24,2.42-.35,4.34,1.54,6.83.91,1.05-.27,2.04-.73,3.07-1.05,4.64-1.45,8.67.2,11.86,3.1,1.58.9,2.96,2.12,4.04,3.57h.02c.54.17,1.24,1.02,1.91,2.09,1.05,1.68,2.04,3.91,2.23,4.86.15.75.28,1.51.37,2.28.2,1.65.22,3.33-.13,4.94-.25,1.1-.67,2.18-.73,3.33-.02.34,0,.69.06,1.05.04.22.09.42.16.62.35,1.09,1.04,1.98,1.29,3.13.33,1.45-.07,3.02-.57,4.37-.5,1.34-.67,2.93-.81,4.44-.2,2.08.09,3.82.8,5.69.54,1.45,1.1,3.01,1.16,4.67.04,1.35-.35,2.73-.68,3.98Z"/>
      <path class="cls-2" d="M71.44,52.66c-.08.3.11,1.88-.23,3.05-.6,2.04-2.78,4.77-3.98,5.63-1.54,2.66-3.97,4.73-6.89,5.79-1.17.93-3.62,2-4.2,2.38-1.02.69-1.94.96-2.25,1.04-1.57.43-3.53.29-5.1-.18-1.65-.5-3.05-1.63-4.75-2-1.14-.26-2.34-.14-3.47.17-1.65.44-3.2,1.28-4.9,1.56-1.13.18-2.3.1-3.39-.23-1.02-.3-1.86-.88-2.93-1.01-2.27-.26-4.16,1.23-6.18,1.99-1.88.71-3.86.19-5.65-.55-1.66-.68-2.85-1.69-3.66-2.57-5.16-.89-9.29-4.79-10.51-9.83-.6-.88-1.15-1.8-1.63-2.76,1.28,1.02,1.65,1.32,3.79,1.77.57.12,2.79,2.37,4.76,2.93,1.53.43,4.01-.09,5.24.32,2.51.82,3,.99,5.06,1.11,3.39.2,3.43-1.18,6.46-.91,3.03.26,3.52,1.69,6.26,1.76,2.04.05,3.06-.7,5.48-1.7,5.61-2.29,7.2-1.13,11.67-2.83,3.43-1.31,7.43-2.69,8.48-5.78.22-.64.35-1.46,1-3.39.28-.82.74-2.17,1.48-3.78,1.4-3.06,1.95-2.99,2.22-4.43.39-2.13-.76-2.42-.59-4.63.21-2.76,2.07-3,2.84-6.2.52-2.21-.23-2.68,0-5.48.26-3.36,1.58-5.63,2.05-6.65,1.01-2.22.95-5.05.37-7.96,1.05,1.68,2.04,3.91,2.23,4.86.15.75.28,1.51.37,2.28.2,1.65.22,3.33-.13,4.94-.25,1.1-.67,2.18-.73,3.33-.02.34,0,.69.06,1.05.04.22.09.42.16.62.35,1.09,1.04,1.98,1.29,3.13.33,1.45-.07,3.02-.57,4.37-.5,1.34-.67,2.93-.81,4.44-.2,2.08.09,3.82.8,5.69.54,1.45,1.1,3.01,1.16,4.67.04,1.35-.35,2.73-.68,3.98Z"/>
      <path class="cls-1" d="M21.03,3.95c-.71-1.22-3.37-.81-4.37-.65-1.21.19-2.28.67-4.43,1.63-2.69,1.2-3.15,1.68-3.46,2.15-.68,1.03-.75,2.2-.78,2.8-.05.88-.09,1.44.26,1.76.7.65,2.43-.17,3.59-.72,2.13-1.01,2.15-1.63,4.11-2.41,1.04-.41,1.32-.35,2.54-.91,1.95-.89,2.33-1.55,2.48-1.89.07-.16.46-1.07.07-1.76Z"/>
      <path class="cls-1" d="M8.96,14.39c-1.72-.03-1.96-.41-2.87-.13-1.07.33-1.68,1.15-1.89,1.43-.15.21-.98,1.39-.78,2.87.16,1.21.82,1.22.98,2.48.07.54-.09,1.24-.39,2.61-.29,1.32-.38,1.4-.52,2.09-.13.66-.45,2.22-.08,3.85.41,1.78,1.19,1.66,1.64,3.52.13.55.07.57.2,3.26.13,2.72.21,3.02.46,3.33.8,1,2.62,1.25,3.91.65,1.85-.85,2.2-3.22,2.35-4.24.16-1.06.06-1.82-.72-5.41-1.05-4.89-1.11-4.6-1.11-5.22.01-1.31.03-4.46,1.89-6.98.42-.57,1.09-1.32.98-2.28-.08-.73-.59-1.42-1.24-1.76-.74-.39-1.1-.03-2.8-.07Z"/>
    </g>
  </g>
</svg>