<?xml version="1.0" encoding="UTF-8"?>
<svg id="Capa_2" data-name="Capa 2" xmlns="http://www.w3.org/2000/svg" viewBox="0 0 138.39 261.32">
  <defs>
    <style>
      .cls-1 {
        fill: #ef7735;
      }

      .cls-2 {
        fill: #f18949;
      }

      .cls-3 {
        fill: #f39868;
      }

      .cls-4 {
        fill: #e46524;
      }
    </style>
  </defs>
  <g id="Capa_1-2" data-name="Capa 1">
    <g>
      <path class="cls-3" d="M5.53,47.93c-.67-.14-1.41,1.02-1.71,1.71-.45,1.03-.56,2.5,0,2.79.44.22,1.15-.36,1.42-.59.2-.17,1.13-.94,1.12-2.15,0-.64-.27-1.64-.83-1.76Z"/>
      <path class="cls-3" d="M3.44,54.83c-.74-.1-1.99,1.84-2.07,3.82-.1,2.44,1.57,4.92,2.64,4.79.56-.07.89-.84.93-.93.41-.96-.32-1.53-.44-3.38-.07-1.03.14-1.09,0-2.01-.04-.25-.36-2.2-1.06-2.3Z"/>
      <g>
        <g>
          <path class="cls-2" d="M135.06,65.86c-.67,1.54-.43,3.04-.22,4.31.05.32.12.67.68,2.54,1.21,4.02,1.36,4.04,1.38,4.86.07,4.57-4.12,6.68-6,10.34-.78,1.5-1.05,3.2-1.69,4.76-1.13,2.78-3.55,5.1-6.49,5.73-1.48.32-3.01.21-4.52.26-4.8.15-9.77,1.92-13.45,5.05-.86.73-1.67,1.55-2.7,2.02-1.93.87-4.16.31-6.26,0-2.45-.36-4.99-.35-7.36.37-2.47.76-5.89,2.81-6.22,5.66-.25,2.09,1.5,6.85,3.05,11.28.8,2.27,1.48,4.21.92,6.48-.45,1.82-1.23,1.96-2.45,4.71-.34.77-1.2,2.76-1.55,5.31-.3,2.25-.18,34.69,0,38.24.07,1.26.13,2.05-.35,2.95-.74,1.38-1.83,1.22-3.14,2.8-.32.38-.91,3.19.22,4.81,3.71,5.28,6.66,3.72,10.99,4.26,3.84.47,6.57.81,9.02,2.65,1.49,1.12,3.51,3.28,4.28,6.18.54,2.07,0,2.83.92,4.42,1.09,1.94,2.41,1.75,3.97,3.68,1.71,2.12,1.96,4.58,1.99,5.6.06,2.34-.9,2.3-2.14,7.07-.98,3.72-.86,5.51-.62,6.78.27,1.4.56,1.43.92,2.79.11.4,1.59,6.28-1.53,9.87-1.96,2.26-3.7,1.27-5.8,3.98-.73.93-1.25,2.09-2.3,4.42-1.18,2.62-1.19,3.26-2.14,4.27-1.26,1.34-2.79,1.86-3.82,2.21-.58.2-2.45.78-4.89.59-1.85-.15-2-.58-3.21-.59-2.35-.02-3.22,1.62-5.65,2.94-3.01,1.64-7.08,2.05-9.7.93-2.63,1.12-6.69.71-9.7-.93-2.44-1.32-3.31-2.96-5.66-2.94-1.2.01-1.35.44-3.21.59-2.44.19-4.3-.39-4.89-.59-1.03-.35-2.56-.87-3.82-2.21-.95-1.01-.96-1.65-2.14-4.27-1.05-2.33-1.57-3.49-2.29-4.42-2.1-2.71-3.85-1.72-5.81-3.98-3.11-3.59-1.63-9.47-1.53-9.87.36-1.36.65-1.39.92-2.79.24-1.27.36-3.06-.61-6.78-1.25-4.77-2.21-4.73-2.14-7.07.02-.48.07-1.26.31-2.19.27-1.05.76-2.28,1.67-3.41,1.57-1.93,2.88-1.74,3.98-3.68.9-1.59.37-2.35.91-4.42.77-2.9,2.8-5.06,4.28-6.18,2.45-1.84,5.18-2.18,9.02-2.65,4.33-.54,7.28,1.02,10.99-4.26,1.14-1.62.54-4.43.22-4.81-1.31-1.58-2.4-1.42-3.14-2.8-.48-.9-.42-1.69-.35-2.95.18-3.55.31-35.99,0-38.24-.35-2.55-1.21-4.54-1.55-5.31-1.22-2.75-2-2.89-2.45-4.71-.56-2.27.12-4.21.92-6.48,1.55-4.43,3.3-9.19,3.06-11.28-.32-2.67-3.47-4.37-5.2-5.3-4.76-2.57-10.32,1.15-15.14-1.03-2.01-.9-3.44-2.73-5.28-3.93-3-1.94-6.77-2.07-10.33-2.42-3.55-.34-7.41-1.14-9.67-3.9-1.46-1.78-2.02-4.11-2.81-6.27-1.1-3.05-3.54-4.37-5-7.03-.43-.77-1.3-2.35-1.27-4.31.02-.82.17-.84,1.38-4.86.56-1.87.64-2.22.69-2.54.2-1.27.44-2.77-.23-4.31-.15-.34-.33-.64-.69-1.22-.69-1.12-1.22-1.72-1.49-2.1-.94-1.3-.88-2.85-.8-4.86.04-1.18.1-2.73.92-4.41.41-.87.89-1.47,1.47-2.99.27-.69.29-.87.59-1.54.68-1.56.97-1.51,1.26-2.43.07-.23.48-1.58,0-3.1-.2-.63-.32-.54-.8-1.54-.38-.78-.95-1.97-1.03-3.43-.06-.95.11-1.64.34-2.54.07-.28.42-1.61,1.37-3.42,1.07-2.02,1.61-2.2,1.61-3.2,0-.67-.23-.74-.57-2.32-.22-.99-.3-1.73-.35-2.21-.12-1.17-.29-2.75,0-4.42.09-.53.43-2.18,1.84-4.31,2.05-3.11,4.38-4.22,6.87-6.18C19.83,4.93,20.9-.2,22.36.36c1.91.72-.97,8.02,2.98,11.48.52.45,1.1.79,1.71,1.04h0c-1.18,1.78-2.31,3.47-2.2,6.07.08,1.89.73,3.73.65,5.62-.09,2.01-1.01,3.93-1.09,5.94-.21,5.2,4.97,9.02,6.33,14.05.82,3.05.36,6.79,2.73,8.89,1.41,1.26,3.47,1.52,5.02,2.6,1.9,1.31,2.77,3.62,3.94,5.61,2.6,4.39,6.38,2.8,10.29,4.79,2.63,1.34,4.57,3.84,7.51,4.6,2.63.68,5.39-.29,8.1-.22,3.11.09,6.18,1.54,9.25.98,2.57-.48,4.66-2.29,7.07-3.31,3.59-1.51,7.88-1.27,11.07-3.5,2.19-1.54,3.51-4.04,5.48-5.85,1.91-1.76,4.39-2.86,6.11-4.8,2.39-2.68,2.14-6.01,3.59-9.02,1.4-2.9,4.15-4.89,5.02-8.13.77-2.92-.15-6,.04-9.01.19-2.91,1.43-5.78,1.12-8.65-.03-.2-.05-.39-.09-.58-.5-2.69-2.4-4.81-3.96-7.1.01,0,.02-.01.03-.02,3.94-3.46,1.06-10.76,2.98-11.48,1.46-.56,2.52,4.57,8.48,9.28,2.49,1.96,4.82,3.07,6.88,6.18,1.4,2.13,1.74,3.78,1.83,4.31.29,1.67.12,3.25,0,4.42-.05.48-.13,1.22-.34,2.21-.35,1.58-.58,1.65-.58,2.32,0,1,.54,1.18,1.61,3.2.96,1.81,1.3,3.14,1.37,3.42.23.9.4,1.59.35,2.54-.09,1.46-.66,2.65-1.03,3.43-.48,1-.6.91-.81,1.54-.48,1.52-.07,2.87,0,3.1.2.6.39.79.69,1.29.15.26.34.6.57,1.14.3.67.32.85.59,1.54.59,1.52,1.06,2.12,1.48,2.99.81,1.68.87,3.23.91,4.41.08,2.01.14,3.56-.8,4.86-.27.38-.79.98-1.49,2.1-.36.58-.54.88-.69,1.22Z"/>
          <path class="cls-4" d="M72.67,261.32c-1.27,0-2.47-.2-3.47-.6-2.68,1.08-6.8.67-9.85-.99-.88-.48-1.56-.99-2.16-1.45-1.08-.82-1.91-1.43-3.34-1.45-.53,0-.84.1-1.22.21-.43.13-.97.29-1.97.38-2.28.18-4.12-.3-5.01-.61-1.05-.36-2.63-.89-3.95-2.29-.69-.73-.92-1.29-1.37-2.4-.2-.5-.46-1.13-.83-1.95-1.05-2.32-1.56-3.46-2.25-4.36-1.06-1.37-2-1.74-2.99-2.13-.9-.35-1.83-.72-2.81-1.84-3.06-3.53-1.87-9.07-1.6-10.15.17-.64.33-1,.47-1.33.17-.38.31-.71.45-1.45.23-1.24.35-3-.61-6.64-.58-2.21-1.1-3.38-1.47-4.23-.45-1-.71-1.61-.67-2.92.02-.57.08-1.34.32-2.26.35-1.35.93-2.53,1.73-3.53.76-.93,1.46-1.39,2.09-1.8.7-.46,1.31-.86,1.87-1.84.49-.86.53-1.46.57-2.22.04-.58.07-1.23.31-2.12.93-3.51,3.6-5.75,4.39-6.35,2.53-1.9,5.31-2.24,9.17-2.71,1.03-.13,1.96-.14,2.87-.15,2.88-.04,5.15-.06,7.9-3.98,1.04-1.48.49-4.12.24-4.43-.59-.72-1.12-1.05-1.64-1.37-.57-.36-1.11-.69-1.54-1.49-.51-.95-.46-1.76-.39-3v-.11c.21-4.09.3-36.06,0-38.18-.35-2.56-1.24-4.57-1.53-5.23-.57-1.28-1.04-1.99-1.42-2.56-.44-.67-.8-1.19-1.05-2.2-.58-2.37.12-4.35.93-6.66l.34-.97c1.43-4.08,2.92-8.3,2.7-10.17-.3-2.52-3.38-4.17-5.04-5.06-2.37-1.28-4.92-.95-7.61-.6-2.51.33-5.1.67-7.51-.43-1.23-.55-2.25-1.44-3.24-2.3-.66-.58-1.35-1.17-2.08-1.65-2.6-1.68-5.84-1.97-8.98-2.26-.41-.04-.81-.07-1.21-.11-3.33-.32-7.46-1.07-9.88-4.01-1.19-1.45-1.8-3.25-2.39-5-.15-.46-.31-.91-.47-1.36-.61-1.68-1.62-2.81-2.7-4-.81-.89-1.64-1.82-2.28-2.99-.4-.72-1.34-2.4-1.31-4.46.01-.56.09-.79.44-1.89.2-.63.51-1.57.95-3.06.57-1.89.64-2.21.68-2.5.2-1.27.42-2.69-.21-4.14-.14-.32-.31-.6-.67-1.18-.5-.81-.9-1.33-1.2-1.71-.11-.14-.2-.26-.28-.37-1-1.39-.94-3-.86-5.05.04-1.17.09-2.78.95-4.53.14-.31.3-.58.46-.88.29-.52.63-1.12,1-2.09.11-.27.17-.47.23-.64.1-.27.18-.5.36-.92.36-.82.61-1.2.81-1.52.18-.28.31-.47.44-.88.13-.45.41-1.63,0-2.91-.09-.3-.16-.4-.28-.59-.11-.18-.27-.42-.5-.91-.36-.75-.97-2-1.06-3.55-.06-1.02.13-1.77.35-2.63.12-.48.5-1.77,1.4-3.49.42-.8.77-1.32,1.02-1.71.39-.59.55-.83.55-1.35,0-.3-.05-.44-.15-.76-.1-.3-.24-.72-.41-1.5-.23-1.03-.31-1.82-.36-2.24-.13-1.22-.29-2.82,0-4.5.13-.79.56-2.42,1.89-4.43,1.57-2.38,3.29-3.6,5.11-4.9.59-.42,1.21-.86,1.83-1.35,3.28-2.59,5.07-5.32,6.25-7.12,1.04-1.58,1.66-2.54,2.54-2.2.98.37.96,1.87.93,3.77-.04,2.59-.09,5.82,2.14,7.77.47.4,1.01.74,1.62.99l.19.08v.3l-.05.09c-1.16,1.75-2.25,3.38-2.15,5.88.03.81.18,1.63.32,2.43.18,1.04.38,2.12.33,3.22-.05,1.03-.3,2.04-.55,3.02-.24.96-.5,1.94-.54,2.92-.12,2.9,1.49,5.35,3.2,7.94,1.24,1.89,2.53,3.84,3.12,6.02.26.97.39,2.01.53,3.01.29,2.24.56,4.36,2.11,5.73.74.66,1.66,1.03,2.64,1.42.8.32,1.63.65,2.35,1.16,1.52,1.05,2.4,2.7,3.26,4.3.25.47.51.95.77,1.4,1.58,2.67,3.58,3.02,5.9,3.43,1.38.24,2.8.5,4.26,1.24,1.08.55,2.06,1.3,3,2.02,1.42,1.09,2.75,2.11,4.45,2.55,1.55.4,3.14.21,4.82,0,1.05-.13,2.14-.27,3.21-.23,1.29.04,2.57.3,3.82.56,1.85.38,3.6.75,5.37.42,1.55-.29,2.9-1.07,4.34-1.89.86-.49,1.74-1,2.67-1.4,1.51-.64,3.15-.97,4.74-1.29,2.29-.47,4.46-.91,6.28-2.18,1.23-.86,2.16-2.02,3.15-3.25.71-.88,1.45-1.8,2.3-2.58.85-.78,1.81-1.44,2.75-2.08,1.18-.8,2.4-1.64,3.34-2.7,1.41-1.58,1.87-3.39,2.35-5.29.3-1.21.62-2.46,1.2-3.65.6-1.25,1.45-2.33,2.27-3.38,1.15-1.48,2.24-2.87,2.73-4.69.45-1.71.31-3.45.15-5.3-.1-1.2-.2-2.43-.12-3.65.08-1.2.33-2.41.58-3.57.37-1.73.72-3.37.54-5.03l-.03-.18c-.02-.13-.03-.25-.06-.37-.39-2.08-1.62-3.79-2.93-5.6-.33-.46-.66-.92-.98-1.39l-.33-.48h.47c2.15-1.96,2.11-5.14,2.07-7.7-.03-1.91-.05-3.41.94-3.78.88-.34,1.5.62,2.53,2.2,1.18,1.81,2.97,4.54,6.25,7.13.62.49,1.24.93,1.83,1.35,1.82,1.3,3.54,2.52,5.11,4.9,1.32,2.01,1.74,3.64,1.88,4.43.29,1.68.13,3.28,0,4.45-.05.48-.13,1.26-.35,2.3-.17.77-.31,1.19-.42,1.49-.11.32-.16.46-.16.77,0,.52.16.76.55,1.35.25.38.6.91,1.02,1.7.9,1.7,1.28,3.01,1.4,3.49.22.86.41,1.61.36,2.63-.09,1.51-.67,2.72-1.05,3.53-.25.52-.4.76-.52.94-.12.18-.19.29-.29.59-.4,1.28-.13,2.46,0,2.91.13.4.26.6.44.87.07.1.14.22.22.35.17.3.36.65.59,1.18.18.41.26.64.36.91.06.17.13.37.23.64.38.99.72,1.59,1.02,2.12.16.28.31.55.45.85.85,1.75.9,3.36.94,4.53.08,2.05.15,3.66-.86,5.05-.07.1-.17.23-.28.37-.29.38-.7.91-1.2,1.71-.36.58-.53.87-.67,1.18-.64,1.47-.4,2.95-.2,4.14.05.32.13.69.67,2.5.45,1.48.75,2.42.95,3.06.35,1.1.43,1.32.44,1.88.05,3.03-1.72,5.04-3.42,6.98-.96,1.09-1.94,2.21-2.61,3.51-.44.85-.72,1.79-.99,2.69-.2.68-.41,1.37-.69,2.04-1.23,3.02-3.8,5.29-6.71,5.91-1.11.24-2.25.25-3.36.25-.41,0-.81,0-1.22.02-4.89.15-9.72,1.97-13.26,4.98-.17.14-.33.29-.5.44-.69.61-1.4,1.23-2.27,1.63-1.74.79-3.67.47-5.54.17-.3-.05-.6-.1-.89-.14-2.7-.4-5.13-.28-7.22.36-2.69.83-5.71,2.87-6,5.4-.22,1.87,1.26,6.09,2.7,10.18l.34.97c.81,2.3,1.51,4.29.93,6.65-.25,1.01-.6,1.54-1.05,2.2-.38.57-.86,1.28-1.42,2.56-.29.66-1.17,2.66-1.53,5.23-.27,2.05-.19,34.34,0,38.18v.11c.07,1.23.12,2.05-.39,3-.43.8-.97,1.13-1.54,1.49-.51.32-1.04.65-1.63,1.36-.26.32-.8,2.96.23,4.44,2.75,3.92,5.03,3.94,7.9,3.98.91.01,1.84.02,2.87.15,3.85.47,6.64.81,9.17,2.71.79.6,3.46,2.82,4.39,6.35.23.89.27,1.54.31,2.12.05.76.08,1.36.58,2.23.55.98,1.16,1.38,1.86,1.84.62.41,1.33.87,2.08,1.8,1.7,2.11,2.02,4.53,2.06,5.78.03,1.31-.25,1.95-.68,2.91-.38.85-.89,2.02-1.47,4.25-.96,3.65-.85,5.4-.62,6.64.14.73.28,1.07.45,1.45.14.32.3.68.46,1.32.07.25,1.7,6.36-1.6,10.15-.97,1.12-1.9,1.49-2.8,1.84-.99.39-1.93.76-2.99,2.13-.7.9-1.22,2.04-2.24,4.31-.39.87-.65,1.5-.85,2-.45,1.11-.68,1.67-1.37,2.4-1.32,1.4-2.9,1.93-3.95,2.29-.88.3-2.7.79-5.01.61-.99-.08-1.53-.24-1.96-.37-.39-.12-.69-.21-1.23-.22-1.43,0-2.27.63-3.35,1.46-.6.46-1.28.97-2.15,1.45-1.91,1.04-4.24,1.59-6.37,1.59ZM69.2,260.05l.12.05c2.52,1.08,6.48.69,9.43-.92.83-.45,1.49-.95,2.07-1.4,1.12-.86,2.06-1.6,3.73-1.58.63,0,1.01.12,1.41.24.42.13.9.27,1.83.35,2.28.18,4.09-.34,4.76-.58.99-.34,2.49-.84,3.7-2.13.61-.65.81-1.14,1.24-2.21.21-.51.46-1.14.84-1.98,1.07-2.37,1.59-3.53,2.34-4.48,1.16-1.5,2.22-1.92,3.25-2.32.87-.34,1.69-.67,2.56-1.67,3.08-3.55,1.48-9.53,1.47-9.59-.16-.59-.3-.92-.44-1.24-.17-.4-.33-.78-.49-1.58-.25-1.31-.37-3.15.62-6.92.59-2.27,1.12-3.47,1.51-4.34.42-.95.65-1.48.62-2.65-.04-1.17-.33-3.44-1.92-5.41-.69-.86-1.33-1.27-1.94-1.67-.74-.48-1.44-.94-2.06-2.05-.57-.99-.61-1.69-.66-2.49-.03-.55-.07-1.17-.29-2-.89-3.34-3.41-5.45-4.17-6.01-2.4-1.8-5.11-2.13-8.87-2.59-1-.12-1.92-.14-2.8-.15-2.93-.04-5.47-.07-8.4-4.24-1.19-1.7-.64-4.67-.2-5.18.66-.79,1.25-1.16,1.78-1.49.54-.34.97-.61,1.32-1.26.42-.79.39-1.5.32-2.67v-.11c-.16-3.1-.33-35.83,0-38.3.36-2.65,1.27-4.71,1.57-5.39.59-1.33,1.08-2.06,1.47-2.65.43-.64.74-1.1.96-2.01.54-2.19-.13-4.09-.91-6.3l-.34-.97c-1.46-4.15-2.97-8.44-2.73-10.45.33-2.8,3.56-5.03,6.44-5.92,2.18-.66,4.7-.79,7.5-.38.3.04.6.09.9.14,1.77.29,3.61.59,5.18-.12.79-.36,1.43-.93,2.12-1.53.17-.15.34-.3.51-.44,3.64-3.1,8.62-4.97,13.64-5.12.41-.01.82-.02,1.24-.02,1.07,0,2.18,0,3.23-.24,2.71-.58,5.12-2.71,6.27-5.54.26-.64.47-1.33.67-1.99.28-.94.57-1.9,1.04-2.8.7-1.36,1.71-2.52,2.7-3.63,1.7-1.94,3.31-3.77,3.27-6.56-.01-.47-.06-.63-.41-1.71-.21-.64-.51-1.58-.96-3.07-.55-1.85-.63-2.24-.69-2.58-.21-1.26-.47-2.84.24-4.48h0c.15-.35.33-.65.71-1.26.52-.83.93-1.37,1.23-1.76.11-.14.2-.25.27-.35.88-1.22.82-2.67.74-4.67-.04-1.12-.09-2.65-.88-4.29-.14-.29-.28-.54-.44-.82-.31-.55-.65-1.17-1.05-2.19-.11-.28-.18-.48-.24-.66-.09-.26-.17-.48-.34-.87-.22-.53-.4-.85-.56-1.11-.07-.12-.14-.23-.21-.33-.19-.29-.35-.54-.51-1.02-.16-.51-.46-1.84,0-3.29.12-.37.23-.53.35-.73.11-.17.25-.39.47-.85.37-.78.91-1.93,1-3.32.05-.88-.1-1.5-.34-2.44-.12-.46-.47-1.71-1.34-3.35-.41-.77-.73-1.26-.99-1.65-.41-.62-.65-.99-.65-1.69,0-.4.08-.63.19-.96.1-.29.23-.69.4-1.42.21-1,.29-1.77.33-2.17.12-1.19.28-2.73,0-4.34-.13-.74-.53-2.28-1.78-4.19-1.51-2.28-3.18-3.47-4.96-4.74-.6-.43-1.22-.87-1.86-1.37-3.36-2.65-5.18-5.44-6.38-7.28-.81-1.23-1.39-2.12-1.8-1.96-.59.22-.57,1.6-.54,3.2.04,2.51.08,5.92-2.17,8.07.27.39.54.77.82,1.15,1.29,1.79,2.62,3.63,3.04,5.84.03.13.05.27.07.41l.03.18c.19,1.77-.18,3.53-.55,5.24-.24,1.14-.49,2.32-.57,3.48-.07,1.17.03,2.38.12,3.56.15,1.82.31,3.7-.17,5.51-.52,1.94-1.7,3.45-2.84,4.91-.8,1.03-1.63,2.09-2.2,3.27-.55,1.14-.86,2.36-1.15,3.54-.48,1.9-.97,3.86-2.48,5.55-1,1.12-2.25,1.98-3.46,2.8-.91.62-1.86,1.27-2.68,2.02-.82.75-1.54,1.65-2.24,2.51-.97,1.21-1.98,2.45-3.28,3.37-1.93,1.35-4.26,1.82-6.51,2.28-1.56.32-3.17.64-4.62,1.25-.89.38-1.76.88-2.6,1.36-1.42.82-2.88,1.66-4.53,1.97-1.88.34-3.78-.05-5.61-.43-1.22-.25-2.48-.51-3.71-.55-1.02-.02-2.09.1-3.12.23-1.66.2-3.39.41-5.05-.02-1.82-.47-3.27-1.58-4.67-2.66-.92-.71-1.87-1.44-2.9-1.96-1.39-.71-2.76-.95-4.09-1.18-2.37-.42-4.6-.81-6.32-3.72-.27-.46-.53-.95-.79-1.43-.82-1.54-1.66-3.12-3.06-4.09-.67-.46-1.46-.78-2.23-1.09-.99-.39-2-.8-2.82-1.53-1.72-1.52-2.02-3.86-2.31-6.11-.13-.98-.26-2-.51-2.93-.56-2.08-1.82-3.99-3.04-5.84-1.68-2.56-3.43-5.2-3.3-8.3.04-1.04.3-2.06.55-3.05.24-.95.49-1.92.54-2.89.04-1.03-.13-2.02-.32-3.08-.14-.82-.29-1.66-.33-2.51-.11-2.55.91-4.23,2.05-5.95-.54-.25-1.03-.57-1.46-.94-2.44-2.14-2.39-5.67-2.35-8.24.02-1.59.04-2.97-.54-3.18-.42-.16-1,.73-1.81,1.96-1.21,1.84-3.03,4.62-6.38,7.27-.63.5-1.25.94-1.85,1.37-1.77,1.26-3.45,2.46-4.95,4.74-1.27,1.92-1.67,3.45-1.79,4.19-.28,1.6-.12,3.15,0,4.28.05.5.13,1.23.35,2.23.16.74.29,1.14.39,1.43.11.33.19.56.19.96,0,.7-.25,1.08-.65,1.69-.26.39-.58.88-.99,1.65-.89,1.7-1.25,3-1.34,3.35-.24.94-.39,1.57-.33,2.44.08,1.42.66,2.61,1,3.32.22.45.36.67.47.84.13.2.23.37.35.74.46,1.45.15,2.78,0,3.28-.16.5-.32.75-.51,1.04-.19.29-.43.66-.76,1.43-.18.39-.25.61-.34.87-.06.18-.13.38-.24.66-.38,1.01-.73,1.62-1.03,2.17-.16.28-.3.54-.44.84-.8,1.64-.85,3.17-.89,4.29-.08,2.01-.14,3.45.74,4.67.07.1.16.22.27.35.29.37.72.93,1.24,1.77.38.6.56.91.71,1.26.7,1.62.45,3.2.25,4.47-.06.36-.14.73-.7,2.59-.45,1.49-.75,2.43-.96,3.07-.35,1.07-.4,1.24-.41,1.71-.03,1.9.82,3.42,1.23,4.15.61,1.12,1.42,2.01,2.2,2.88,1.07,1.18,2.17,2.4,2.82,4.2.17.45.32.91.48,1.37.57,1.69,1.16,3.44,2.28,4.8,2.27,2.77,6.25,3.48,9.46,3.79.4.04.8.08,1.21.11,3.21.29,6.53.59,9.26,2.35.77.5,1.47,1.11,2.15,1.7,1,.87,1.94,1.69,3.09,2.21,2.25,1.02,4.64.71,7.18.38,2.67-.35,5.44-.71,7.98.66,1.75.94,5.02,2.7,5.36,5.53.23,2.01-1.28,6.3-2.73,10.44l-.34.97c-.78,2.21-1.45,4.12-.91,6.3.22.91.53,1.37.96,2.01.39.59.88,1.33,1.47,2.65.3.68,1.21,2.74,1.57,5.39.33,2.41.16,35.18,0,38.3v.12c-.07,1.17-.11,1.88.31,2.67.35.65.78.92,1.32,1.25.53.33,1.13.7,1.78,1.49.44.52.99,3.49-.21,5.18-2.93,4.17-5.47,4.21-8.4,4.24-.89.01-1.81.02-2.8.15-3.76.46-6.48.79-8.87,2.59-.75.57-3.29,2.69-4.17,6.01-.22.83-.26,1.46-.29,2-.05.8-.09,1.5-.65,2.49-.63,1.11-1.33,1.57-2.06,2.05-.61.4-1.25.82-1.95,1.67-.74.92-1.29,2.03-1.61,3.29-.22.87-.28,1.59-.3,2.13-.04,1.17.2,1.7.62,2.65.39.87.92,2.07,1.51,4.33.98,3.76.86,5.61.62,6.92-.16.8-.32,1.18-.49,1.58-.14.32-.28.64-.43,1.23-.16.62-1.45,6.22,1.46,9.59.87,1.01,1.7,1.33,2.57,1.67,1.03.4,2.09.82,3.25,2.32.74.95,1.26,2.12,2.3,4.43.4.88.65,1.52.86,2.02.44,1.07.63,1.56,1.25,2.21,1.21,1.29,2.71,1.79,3.69,2.13.85.29,2.59.75,4.77.58.93-.08,1.41-.22,1.84-.35.4-.12.77-.24,1.39-.24,1.61,0,2.6.72,3.72,1.58.58.44,1.25.95,2.09,1.4,2.95,1.6,6.91,1.99,9.43.92l.12-.05Z"/>
        </g>
        <path class="cls-1" d="M135.06,65.86c-.67,1.54-.43,3.04-.22,4.31.05.32.12.67.68,2.54,1.21,4.02,1.36,4.04,1.38,4.86.07,4.57-4.12,6.68-6,10.34-.78,1.5-1.05,3.2-1.69,4.76-1.13,2.78-3.55,5.1-6.49,5.73-1.48.32-3.01.21-4.52.26-4.8.15-9.77,1.92-13.45,5.05-.86.73-1.67,1.55-2.7,2.02-1.93.87-4.16.31-6.26,0-2.45-.36-4.99-.35-7.36.37-2.47.76-5.89,2.81-6.22,5.66-.25,2.09,1.5,6.85,3.05,11.28.8,2.27,1.48,4.21.92,6.48-.45,1.82-1.23,1.96-2.45,4.71-.34.77-1.2,2.76-1.55,5.31-.3,2.25-.18,34.69,0,38.24.07,1.26.13,2.05-.35,2.95-.74,1.38-1.83,1.22-3.14,2.8-.32.38-.91,3.19.22,4.81,3.71,5.28,6.66,3.72,10.99,4.26,3.84.47,6.57.81,9.02,2.65,1.49,1.12,3.51,3.28,4.28,6.18.54,2.07,0,2.83.92,4.42,1.09,1.94,2.41,1.75,3.97,3.68,1.71,2.12,1.96,4.58,1.99,5.6.06,2.34-.9,2.3-2.14,7.07-.98,3.72-.86,5.51-.62,6.78.27,1.4.56,1.43.92,2.79.11.4,1.59,6.28-1.53,9.87-1.96,2.26-3.7,1.27-5.8,3.98-.73.93-1.25,2.09-2.3,4.42-1.18,2.62-1.19,3.26-2.14,4.27-1.26,1.34-2.79,1.86-3.82,2.21-.58.2-2.45.78-4.89.59-1.85-.15-2-.58-3.21-.59-2.35-.02-3.22,1.62-5.65,2.94-3.01,1.64-7.08,2.05-9.7.93-2.63,1.12-6.69.71-9.7-.93-2.44-1.32-3.31-2.96-5.66-2.94-1.2.01-1.35.44-3.21.59-2.44.19-4.3-.39-4.89-.59-1.03-.35-2.56-.87-3.82-2.21-.95-1.01-.96-1.65-2.14-4.27-1.05-2.33-1.57-3.49-2.29-4.42-2.1-2.71-3.85-1.72-5.81-3.98-3.11-3.59-1.63-9.47-1.53-9.87.36-1.36.65-1.39.92-2.79.24-1.27.36-3.06-.61-6.78-1.25-4.77-2.21-4.73-2.14-7.07.02-.48.07-1.26.31-2.19,1.07,1,2.56,2.58,4.6,4.74,3.69,3.91,3.95,5.01,4.04,5.61.4,2.7-1.33,4.55-.13,6.26.49.69.81.44,2.22,1.43.47.34,1.72,1.27,4.04,4.57,2.01,2.84,1.56,2.83,2.35,3.65,2.53,2.62,5.25.83,10.18,2.74,3.64,1.42,3.06,2.75,7.82,4.96,2.04.94,4.4,2.04,7.57,2.22,1.67.09,2.01-.16,9.78-2.09,5.4-1.34,6.19-1.46,7.17-2.48,2.02-2.09.79-3.77,2.87-6.39,2.12-2.66,3.93-1.6,6.13-4.44,1.86-2.38,2.24-5.29,2.35-6.13.34-2.54-.37-2.71.13-4.56.73-2.68,2.34-2.74,3.26-5.61.27-.83.9-2.79.13-4.7-.74-1.83-1.97-1.62-3.52-3.65-1.72-2.25-.81-3.29-2.48-6.13-.43-.73-1.73-2.88-4.17-4.3-1.61-.94-3.46-1.19-7.18-1.7-2.81-.38-3.5-.25-5.6-.78-2.12-.53-3.17-.8-4.31-1.57-1.87-1.27-2.77-3.15-4.56-6.91-1.04-2.17-1.13-2.82-2.13-4.04-1.48-1.82-2.85-2.3-2.7-2.87.28-1.02,4.64.68,7.57-1.44,2.11-1.52,2.48-4.31,2.87-7.17.31-2.34.88-36.6-1.57-39.39-1.26-1.44-2.7-1.8-2.61-2.74.12-1.27,2.78-1.09,4.04-3,.4-.6.77-1.57-.39-6.91-.83-3.84-1.29-4.57-2.08-8.22-.13-.59-.64-2.97-1.05-6.13-.34-2.7-.48-4.93-.26-7.44.3-3.38.96-4.04,1.31-4.3,1.19-.91,2.92-.46,4.56,0,7.19,2,9.12,3.13,12.78,3.85,3.26.63,6.67,1.29,8.81-.59,1.51-1.33.88-2.62,3.04-4.89.6-.63,2.33-2.4,4.98-2.94,1.43-.29,1.83.05,3.72,0,2.52-.05,4.35-.7,6.26-1.37,3.62-1.27,6.25-2.19,7.24-4.5.36-.85.21-1.2.78-2.34.93-1.86,1.91-2.08,2.74-3.33,1.2-1.8.92-3.94.59-6.46-.5-3.79-1.72-3.89-1.37-5.67.57-2.96,4.01-3.05,5.48-6.46.99-2.31.21-4.14,0-6.26-.19-1.81.06-3.68.56-5.47.15.26.34.6.57,1.14.3.67.32.85.59,1.54.59,1.52,1.06,2.12,1.48,2.99.81,1.68.87,3.23.91,4.41.08,2.01.14,3.56-.8,4.86-.27.38-.79.98-1.49,2.1-.36.58-.54.88-.69,1.22Z"/>
        <path class="cls-3" d="M6.75,26.26c-.8-3.12,0-5.87,0-5.87.32-1.09,1.13-3.71,3.62-5.58.94-.71,3.15-2.35,4.99-1.47.97.47,1.9,1.67,1.76,2.84-.23,1.99-3.3,1.72-4.79,4.6-.72,1.39-.27,1.96-1.27,4.4-.65,1.57-.73,2.61-1.57,2.93-.58.23-1.29.07-1.76-.24-.6-.4-.83-1.03-.98-1.61Z"/>
        <path class="cls-3" d="M38.25,201.5c1.08-2.53,2.57-3.31,4.11-4.66,1.8-1.58,3.75-2.12,4.6-2.35,1.56-.41,1.35-.02,5.48-.39,2.31-.21,3.07-.39,4.11.1,1,.47,2.2,1.55,2.05,2.54-.08.57-.58.94-3.91,2.45-2.93,1.32-3.4,1.42-4.7,2.15-.67.38-1.98,1.12-3.42,2.35-.95.81-2.55,2.18-3.82,4.4-1.27,2.23-1.16,3.5-2.15,3.78-.96.27-2.23-.57-2.87-1.57-1.25-1.96-.98-5.27.52-8.8Z"/>
      </g>
    </g>
  </g>
</svg>