<?xml version="1.0" encoding="UTF-8"?>
<svg id="Capa_2" data-name="Capa 2" xmlns="http://www.w3.org/2000/svg" viewBox="0 0 101.18 89.47">
  <defs>
    <style>
      .cls-1 {
        fill: #e9a94a;
      }

      .cls-2 {
        fill: #db9538;
      }

      .cls-3 {
        fill: #c07f2c;
      }
    </style>
  </defs>
  <g id="Capa_1-2" data-name="Capa 1">
    <g>
      <path class="cls-2" d="M100.94,14.35c-.05.18-.21.72-.66,1.19-.37.4-.65.43-1.22,1.01-.16.16-.31.31-.47.54-.1.15-.43.64-.56,1.44-.79,4.77-5.68,8.86-7.35,13.99-.27.85-.51,1.7-.84,2.52-.18.42-.37.83-.61,1.22-1.51,2.45-4.52,3.85-5.56,6.54-1.22,3.19.73,7.2-1.23,9.99-1.34,1.91-4.03,2.43-5.47,4.26-1.69,2.15-1.12,5.32-2.33,7.76-1.79,3.6-6.99,4.86-8.02,8.74-.62,2.35.52,5.13-.87,7.13-1.08,1.56-3.25,1.92-4.7,3.15-1.16.99-1.78,2.48-2.86,3.56-1.31,1.31-2.97,1.8-4.75,1.79-3.35.86-7.23-.18-9.24-3.11-.33-.19-.67-.37-1-.57-3.1-1.87-6.09-4.39-5.96-7.87.03-.82.24-1.69-.13-2.43-.52-1.08-1.98-1.32-2.77-2.23-1.13-1.28-.55-3.36-1.38-4.85-.8-1.45-2.64-1.9-3.93-2.93-4.65-3.72-1.73-9.2-6.98-13.24-.96-.74-2.12-1.53-2.2-2.74-.02-.34.03-.67.1-1.01.12-.5.28-.99.32-1.5.35-5.67-4.96-4.24-6.77-5.95-1.41-1.34-1.29-3.47-1.45-5.49-.1-1.19-.3-2.35-.98-3.28-2.23-3.04-5.52-2.87-7.25-6.21-1.51-2.95-.73-5.19-1.23-8.46-.25-1.62-1.39-2.94-2.12-4.4C-.55,10.87.09,6.94,2.49,5.94c.92-.38,1.33.13,2.61-.19.72-.19,1.15-.49,2.41-1.44,3.32-2.5,3.09-2.41,3.33-2.54.34-.19,2.79-1.51,5.54-.85,1.53.37,2.88,1.28,3.39,1.63,1.05.71,1.06.95,1.86,1.3,2.8,1.24,3.97-.9,6.47-1.05,2.79-.17,5.49,2.13,8.28,1.07,1.17-.45,2-1.48,2.98-2.26,2.66-2.09,6.72-2.15,9.44-.13,1.51,1.12,2.78,2.86,4.66,3.02,2.01.17,3.74-1.6,5.76-1.63,2.28-.04,4.44,2.15,6.57,1.34,1.3-.5,2.03-2.08,3.39-2.4,4.79-1.15,5.04,3.4,7.72,2.57.79-.25,1.42-.91,2.24-1,1.26-.14,2.35,1.12,3.62,1.04.82-.05,1.48-.64,2.18-1.06,2.91-1.7,6.59-.38,9.68.96,1.82.78,3.56,1.96,4.8,3.47,1.44,1.76,2.18,3.98,1.52,6.56Z"/>
      <path class="cls-3" d="M100.94,14.35c-.05.18-.21.72-.66,1.19-.37.4-.65.43-1.22,1.01-.16.16-.31.31-.47.54-.1.15-.43.64-.56,1.44-.79,4.77-5.68,8.86-7.35,13.99-.27.85-.51,1.7-.84,2.52-.18.42-.37.83-.61,1.22-1.51,2.45-4.52,3.85-5.56,6.54-1.22,3.19.73,7.2-1.23,9.99-1.34,1.91-4.03,2.43-5.47,4.26-1.69,2.15-1.12,5.32-2.33,7.76-1.79,3.6-6.99,4.86-8.02,8.74-.62,2.35.52,5.13-.87,7.13-1.08,1.56-3.25,1.92-4.7,3.15-1.16.99-1.78,2.48-2.86,3.56-1.31,1.31-2.97,1.8-4.75,1.79-3.35.86-7.23-.18-9.24-3.11-.33-.19-.67-.37-1-.57-3.1-1.87-6.09-4.39-5.96-7.87.03-.82.24-1.69-.13-2.43-.52-1.08-1.98-1.32-2.77-2.23-1.13-1.28-.55-3.36-1.38-4.85-.8-1.45-2.64-1.9-3.93-2.93-4.65-3.72-1.73-9.2-6.98-13.24-.96-.74-2.12-1.53-2.2-2.74-.02-.34.03-.67.1-1.01,2.12.24,4.76,1.45,6.41,2.74.61.47,2.14,1.66,3.2,3.72.94,1.83.46,2.29,1.3,3.32,1.57,1.92,3.69.94,5.35,2.94.11.12.51,1.02,1.31,2.8,1.32,2.96,1.39,3.2,1.72,3.79.43.73,1.33,2.24,3.04,3.52.64.48,2.74,2,5.77,2.05,1.06.02,2.76.05,4.3-.98,2.27-1.5,1.4-3.42,3.62-5.38,2.13-1.87,3.74-.83,5.29-2.74.47-.59.81-2.03,1.46-4.89.85-3.71.81-4.22,1.37-5.28,1.24-2.34,2.51-1.7,3.62-3.62,1.67-2.87-.64-4.95.98-8.77.87-2.06,2.38-3.44,2.54-3.59,1.66-1.49,2.97-1.6,4.5-3.39.83-.96,1-1.57,1.5-2.41,2.24-3.79,5.51-3.05,8.09-6,2.79-3.19.5-5.78,3.52-9.79,1.53-2.02,2.87-2.35,5.48-4.1,2.19-1.47,3.83-2.97,5.1-4.35,1.44,1.76,2.18,3.98,1.52,6.56Z"/>
      <path class="cls-1" d="M23.95,6.55c-4.57-1.47-7.28-1.41-8.93-1.08-1.05.22-3.89,1-5.67,3.72-.24.36-2.12,3.32-1.17,6.36.49,1.59,1.19,1.38,2.84,4.01,1.8,2.87,1.39,3.81,2.84,4.99,1.16.94,3.23,1.82,4.79,1.08,2.23-1.07,1.68-3.25,1.73-4.37.09-2.01-2.73-4.53-2.28-5.66.56-1.43-.11-4.36,3-4.54,3.88-.23,6.05-.9,5.87-1.76-.16-.78-.67-1.99-3-2.74Z"/>
      <path class="cls-1" d="M28.92,37.38c-.15-2.71-3.03-3.03-4.65-6.85-.43-1.03-.5-1.66-1.22-2.25-1.04-.85-2.67-.96-3.91-.49-.77.29-1.23.74-1.32.83-.06.06-1.29,1.33-1.03,2.64.18.88.86.94,2.35,2.35,1.14,1.08.9,1.19,2.49,2.89,1.21,1.29,1.81,1.93,2.74,2.45.43.24,2.7,1.49,3.86.59.77-.6.7-1.87.68-2.15Z"/>
    </g>
  </g>
</svg>