<?xml version="1.0" encoding="UTF-8"?>
<svg id="Capa_2" data-name="Capa 2" xmlns="http://www.w3.org/2000/svg" viewBox="0 0 328.57 599.85">
  <defs>
    <style>
      .cls-1 {
        fill: #3682ab;
      }

      .cls-2 {
        fill: #6eaadd;
      }

      .cls-3 {
        fill: #5c9dd1;
      }

      .cls-4 {
        fill: #86bde7;
      }

      .cls-5 {
        fill: #4690c0;
      }
    </style>
  </defs>
  <g id="Capa_1-2" data-name="Capa 1">
    <g>
      <g>
        <path class="cls-2" d="M204.77,335.96h0c-5.12,0-9.16,3.29-8.78,7.15l1.82,18.3c.04.42.03.85-.03,1.27l-1.08,7.01c-.93,6.04-1,12.19-.19,18.25l1.12,8.45c.05.4.06.81.01,1.21l-.76,6.93c-1.06,9.66-.63,19.42,1.27,28.95l.57,2.87c.12.62.13,1.27.02,1.89l-3.37,18.56c-.05.3-.08.6-.08.91v10.89c0,3.67,3.94,6.65,8.81,6.65h1.56c4.86,0,8.81-2.98,8.81-6.65v-11.63c0-.34-.03-.67-.1-1l-3.33-16.53c-.13-.64-.13-1.31,0-1.95l.6-3.12c1.88-9.86,2.2-19.95.93-29.91l-.93-7.27c-.06-.48-.05-.97.02-1.45l.89-5.47c1.16-7.13,1.11-14.4-.16-21.52l-1.06-5.97c-.09-.5-.1-1.01-.04-1.52l2.27-18.05c.49-3.9-3.57-7.28-8.77-7.28Z"/>
        <path class="cls-5" d="M205.65,475.62h-1.56c-5.05,0-9.16-3.14-9.16-7v-10.89c0-.32.03-.65.09-.97l3.37-18.56c.11-.58.1-1.18-.02-1.76l-.57-2.87c-1.91-9.58-2.34-19.36-1.28-29.06l.76-6.93c.04-.37.04-.75-.01-1.13l-1.12-8.45c-.81-6.1-.75-12.27.19-18.35l1.08-7.02c.06-.39.07-.79.03-1.18l-1.82-18.3c-.16-1.6.41-3.21,1.6-4.52,1.71-1.89,4.53-3.02,7.54-3.02s5.89,1.15,7.6,3.09c1.18,1.34,1.72,2.97,1.52,4.59l-2.27,18.05c-.06.47-.05.94.04,1.41l1.06,5.97c1.27,7.17,1.33,14.45.16,21.64l-.89,5.47c-.07.45-.08.9-.02,1.35l.93,7.27c1.28,10.01.96,20.11-.93,30.02l-.6,3.12c-.12.6-.11,1.21,0,1.81l3.33,16.53c.07.35.11.72.11,1.08v11.63c0,3.86-4.11,7-9.16,7ZM204.77,336.32c-2.81,0-5.43,1.04-7.01,2.78-1.07,1.18-1.56,2.55-1.42,3.97l1.82,18.3c.04.45.03.91-.04,1.36l-1.08,7.02c-.93,6.01-1,12.12-.19,18.15l1.12,8.45c.06.43.06.87.02,1.3l-.76,6.93c-1.05,9.64-.63,19.34,1.27,28.85l.57,2.87c.13.67.14,1.35.02,2.03l-3.37,18.56c-.05.28-.08.56-.08.84v10.89c0,3.47,3.79,6.29,8.45,6.29h1.56c4.66,0,8.45-2.82,8.45-6.29v-11.63c0-.31-.03-.63-.09-.94l-3.33-16.53c-.14-.69-.14-1.39-.01-2.09l.6-3.12c1.88-9.84,2.19-19.86.92-29.8l-.93-7.27c-.07-.52-.06-1.04.03-1.55l.89-5.47c1.16-7.11,1.1-14.31-.16-21.4l-1.06-5.97c-.1-.54-.11-1.08-.04-1.62l2.27-18.05c.18-1.43-.29-2.83-1.35-4.03-1.57-1.78-4.22-2.85-7.07-2.85Z"/>
      </g>
      <path class="cls-5" d="M244.19,582.88c.48,6.83-7.37,12.08-8.61,12.91-8.67,5.8-18.79,3.93-23.09,3.13-4.9-.91-17.95-3.32-22.69-12.91-2.65-5.36.02-7.45-.39-24.65-.18-7.47-.29-11.9-1.57-17.61-1.77-7.9-3.91-9.9-9.78-23.09-3.98-8.93-6.42-14.39-7.79-19.32-.39-1.41-.7-2.77-.93-4.16-1.19-7.1-2.96-17.72,2.46-25.82,8.41-12.57,30.58-13.81,45.78-7.05,1.31.58,8.19,3.77,14.3,10.3h.01c3.66,3.93,7.04,9.05,8.78,15.53,3.52,13.15-1.64,24.81-3.13,28.17-6.08,13.74-14.26,14.1-15.65,25.05-.77,5.99.41,15.94,6.65,21.91,3.62,3.46,7.88,4.57,12.52,10.96,2.88,3.96,3.09,6.07,3.13,6.65Z"/>
      <g>
        <g>
          <g>
            <path class="cls-2" d="M328.26,96.25c.06,2.98-1.63,5.28-1.79,5.5-1.03,1.37-2.32,2.19-3.06,2.66-.65.41-1.27.73-2.25,1.22-2.12,1.07-2.18.92-2.78,1.32-1.84,1.23-1.15,2.59-2.9,4.29-1.68,1.63-3.95,1.96-4.53,2.05-1,.14-2.2.13-4.22.11-1.35-.02-1.81-.06-2.44.19-1,.39-1.34,1.17-2.35,2.6-1.38,1.98-2.08,2.97-2.73,3.36-1.84,1.08-2.99-.32-6.09.59-1.47.42-2.48,1.1-3.24,1.61-2.39,1.62-2.1,2.49-4.14,4.03-2.18,1.64-4.67,2.28-6.48,2.74-1.86.48-2.2.32-3.48.87-2.05.88-2.02,1.64-4.09,2.84-1.14.65-4.01,2.3-6.46,1.24-.97-.42-1.59-1.15-1.89-1.5-.93-1.1-.52-1.95-1.48-3.41-.26-.4-.72-1.08-1.56-1.62-1.09-.72-1.58-.37-2.6-.95-.97-.56-1.85-1.64-2.1-2.84-.32-1.57.68-2.1.21-3.36-.35-.9-1.18-1.41-2.27-2.07-1.25-.76-1.48-.53-2.37-1.1-.6-.39-1.08-.87-1.44-1.37-.49-.17-.85-.36-1.04-.47-.53-.3-2.36-1.32-3.13-3.33-.38-.98-.1-1.16-.59-2.54-.42-1.2-.75-2.12-1.56-2.64-1.13-.73-1.86.15-3.33-.49-1.12-.49-2-1.57-2.35-2.64-.35-1.12.09-1.52-.39-2.74-.36-.93-.93-1.52-1.27-1.86-1.23-1.24-2.15-1.01-3.03-2.15-.28-.36-.86-1.12-1.08-2.15-.54-2.62,1.68-5.1,2.55-6.07,1.59-1.78,2.33-1.59,3.62-3.42.79-1.14.71-1.51,1.56-3.23.03-.07.07-.14.1-.21.82-1.66,1.94-3.84,3.91-5.56,1.93-1.69,2.73-1.22,4.8-3.23.65-.64,1.53-1.49,2.25-2.84,1.52-2.85.39-4.26,1.82-5.84.51-.56,1.63-1.03,3.85-1.99,1.61-.68,2.44-.86,3.03-1.76.38-.56.42-1.02.69-2.34.39-1.99.63-3.17.98-4.11.19-.55.98-2.7,2.93-4.01,2.02-1.37,3.21-.42,4.79-1.96.52-.5.38-.6,1.86-2.45.69-.85,1.12-1.4,1.67-1.95.61-.63,1.68-1.72,3.22-2.45.28-.13,3.35-1.51,6.56-.39,1.66.58,1.49,1.19,3.13,1.57,1.8.42,2.45-.21,4.2.39.56.19,1.64.57,2.45,1.56.62.76.49,1.15,1.17,2.64.61,1.33,1.01,2.21,1.77,2.84,1.32,1.1,2.39.29,4.2.98,2.29.88,3.44,3.25,4.21,4.99,1.35,3.03.38,3.59,1.86,6.06.13.22.29.48.5.76,1.32.49,2.79,1.18,3.31,2.06,1.19,2.04,2.57,3.55,3.39,4.32,2.12,1.95,2.87,1.12,5.56,3.06,1.54,1.11,3.63,2.72,4.01,5.14.31,1.92-.71,2.8.1,4.32.46.87,1.24,1.45,2.41,2.31,1.32.97,1.73.93,2.35,1.69.8,1,.95,2.13,1.02,2.71.23,1.85-.52,2.35-.48,4.2.04,1.68.66,1.64.89,3.39.03.28.05.56.06.83Z"/>
            <path class="cls-5" d="M266.99,134.13c-.63,0-1.27-.11-1.88-.38-1.03-.44-1.68-1.21-1.99-1.57-.53-.63-.67-1.17-.81-1.74-.13-.51-.26-1.04-.7-1.71-.21-.33-.66-1.01-1.47-1.53-.54-.35-.91-.42-1.3-.5-.38-.07-.77-.15-1.29-.44-1.12-.64-2-1.84-2.25-3.04-.17-.85,0-1.42.16-1.93.15-.47.26-.85.06-1.39-.31-.81-1.12-1.3-2.14-1.91-.63-.38-.98-.5-1.31-.61-.31-.1-.61-.2-1.06-.49-.57-.37-1.06-.83-1.47-1.37-.45-.16-.79-.34-1-.46-1.64-.93-2.73-2.1-3.26-3.49-.19-.5-.23-.81-.27-1.14-.04-.35-.08-.71-.33-1.41-.39-1.13-.7-2.01-1.44-2.48-.49-.31-.88-.28-1.37-.23-.53.05-1.12.11-1.92-.24-1.13-.5-2.12-1.6-2.52-2.83-.18-.57-.17-.96-.16-1.34,0-.4.01-.78-.22-1.38-.35-.9-.93-1.48-1.2-1.75-.56-.57-1.05-.81-1.52-1.03-.53-.26-1.04-.5-1.53-1.15-.27-.35-.9-1.16-1.14-2.27-.57-2.78,1.75-5.37,2.62-6.34.74-.83,1.31-1.25,1.82-1.62.59-.44,1.1-.81,1.78-1.77.45-.64.6-1.02.83-1.59.16-.39.36-.89.71-1.6.01-.02.03-.07.05-.11l.04-.09c.71-1.45,1.9-3.85,3.99-5.67.93-.81,1.6-1.14,2.26-1.46.75-.37,1.45-.71,2.53-1.75.7-.69,1.51-1.49,2.19-2.76.73-1.36.82-2.37.91-3.26.09-.95.17-1.77.96-2.64.54-.59,1.59-1.04,3.7-1.96l.25-.11c.31-.13.58-.24.83-.34,1.05-.42,1.63-.65,2.06-1.31.29-.42.36-.79.53-1.67l.11-.57c.39-2.01.63-3.19.99-4.16.35-1.02,1.22-2.93,3.05-4.16,1.01-.69,1.83-.82,2.56-.94.76-.13,1.42-.24,2.19-.98.22-.21.31-.34.49-.61.22-.33.55-.82,1.34-1.81l.25-.3c.55-.68.95-1.18,1.45-1.67.59-.61,1.69-1.74,3.31-2.51.35-.16,3.5-1.55,6.79-.4.82.29,1.23.59,1.58.85.38.28.7.52,1.51.71.79.19,1.35.16,1.9.13.66-.03,1.34-.07,2.33.27.51.17,1.71.58,2.59,1.66.4.49.52.85.68,1.35.11.34.25.76.53,1.36.6,1.31.99,2.15,1.69,2.73.66.55,1.24.56,1.98.58.61.01,1.3.03,2.14.35,2.53.97,3.74,3.69,4.38,5.15.66,1.48.78,2.4.89,3.2.11.85.21,1.58.95,2.82.11.19.25.42.43.66,1.82.69,2.93,1.39,3.38,2.16,1.3,2.24,2.77,3.72,3.34,4.25,1.06.98,1.76,1.22,2.57,1.51.77.27,1.64.58,2.96,1.53,1.3.94,3.72,2.68,4.13,5.34.14.89.02,1.57-.09,2.17-.14.72-.24,1.29.16,2.05.43.82,1.23,1.4,2.32,2.21.53.39.92.62,1.22.8.46.27.78.46,1.18.95.87,1.09,1.02,2.34,1.09,2.87.13,1.05-.04,1.71-.21,2.35-.14.53-.28,1.07-.27,1.88.02.83.19,1.2.38,1.63.18.4.39.86.51,1.73.03.29.05.58.06.86h0c.06,2.85-1.4,5.08-1.85,5.69-1.07,1.42-2.42,2.28-3.15,2.74-.69.43-1.35.77-2.28,1.24-1.14.57-1.69.8-2.05.95-.31.13-.44.18-.7.35-.89.6-1.13,1.22-1.41,1.94-.27.69-.57,1.46-1.44,2.31-1.15,1.11-2.72,1.83-4.67,2.13-1.06.15-2.28.14-4.3.12h-.41c-1.02-.02-1.41-.03-1.92.17-.71.28-1.05.78-1.67,1.7-.16.24-.34.5-.54.79-1.46,2.09-2.13,3.03-2.82,3.45-1.02.6-1.83.5-2.78.4-.89-.1-1.9-.21-3.38.22-1.42.41-2.38,1.05-3.15,1.56-1.25.85-1.73,1.47-2.25,2.12-.45.57-.91,1.17-1.89,1.91-2.25,1.69-4.76,2.33-6.59,2.79-.76.2-1.28.29-1.7.36-.61.11-1.01.18-1.74.49-1.08.46-1.55.89-2.1,1.38-.47.42-.99.89-1.96,1.45-.96.55-2.86,1.63-4.85,1.63ZM242.36,105.66c.38,0,.77.07,1.22.36.91.58,1.27,1.61,1.68,2.8.27.76.32,1.17.36,1.54.04.31.06.56.23.99.72,1.89,2.42,2.85,2.98,3.16.22.13.56.3,1.01.46l.09.03.06.08c.37.51.83.94,1.36,1.29.39.25.64.33.92.43.35.12.75.25,1.44.67,1.08.65,2,1.21,2.4,2.22.28.74.11,1.28-.05,1.79-.14.46-.29.92-.15,1.62.22,1.04.98,2.08,1.95,2.64.43.24.75.31,1.1.37.44.08.89.17,1.52.59.92.59,1.41,1.35,1.65,1.71.5.75.65,1.36.78,1.89.13.52.24.98.67,1.48.29.34.88,1.03,1.78,1.42,2.29.99,5.01-.55,6.17-1.21.93-.54,1.41-.97,1.87-1.38.56-.5,1.1-.98,2.27-1.48.79-.34,1.25-.42,1.87-.53.41-.07.91-.16,1.65-.35,1.78-.45,4.23-1.07,6.37-2.69.91-.69,1.33-1.23,1.78-1.79.52-.66,1.05-1.35,2.38-2.25.77-.52,1.82-1.22,3.33-1.65,1.6-.47,2.72-.34,3.62-.24.9.1,1.56.17,2.4-.32.58-.35,1.27-1.31,2.63-3.27.2-.29.38-.55.54-.78.64-.95,1.07-1.58,1.95-1.93.62-.25,1.1-.24,2.15-.22h.4c1.99.03,3.19.04,4.17-.1,1.85-.29,3.31-.95,4.36-1.97.78-.76,1.04-1.44,1.3-2.09.31-.79.59-1.53,1.65-2.23.31-.2.49-.28.81-.41.35-.15.89-.36,2-.93.91-.46,1.56-.79,2.22-1.21.74-.47,1.98-1.26,2.98-2.58.3-.41,1.78-2.58,1.73-5.31,0-.26-.03-.53-.06-.81-.1-.77-.28-1.17-.46-1.55-.21-.47-.41-.91-.44-1.87-.02-.9.14-1.51.29-2.05.17-.63.31-1.18.2-2.12-.06-.52-.19-1.6-.96-2.56-.33-.4-.59-.55-1.02-.8-.32-.19-.72-.42-1.28-.83-1.16-.85-2-1.47-2.5-2.41-.5-.95-.37-1.68-.22-2.45.11-.58.22-1.17.09-1.96-.38-2.41-2.66-4.06-3.89-4.94-1.24-.9-2.04-1.18-2.8-1.45-.84-.29-1.63-.57-2.79-1.64-.59-.55-2.1-2.09-3.45-4.39-.38-.64-1.44-1.29-3.15-1.93l-.08-.03-.05-.07c-.22-.3-.4-.58-.52-.79-.81-1.35-.92-2.18-1.03-3.06-.11-.8-.22-1.63-.84-3.03-.61-1.38-1.75-3.95-4.04-4.83-.74-.28-1.35-.3-1.93-.31-.79-.02-1.53-.03-2.35-.72-.81-.67-1.22-1.56-1.84-2.92-.3-.66-.45-1.1-.56-1.45-.16-.47-.25-.75-.58-1.15-.77-.94-1.81-1.29-2.31-1.46-.89-.3-1.45-.27-2.1-.24-.56.03-1.19.06-2.07-.14-.93-.22-1.33-.51-1.74-.81-.34-.25-.69-.51-1.42-.77-3.07-1.07-6,.23-6.33.38-1.52.72-2.56,1.8-3.13,2.38-.47.47-.87.96-1.41,1.63l-.24.3c-.78.97-1.1,1.45-1.31,1.77-.19.28-.31.45-.57.71-.9.88-1.68,1.01-2.51,1.15-.7.12-1.42.24-2.32.85-1.68,1.13-2.48,2.9-2.81,3.86-.34.93-.58,2.09-.97,4.07l-.11.57c-.18.91-.27,1.36-.62,1.89-.53.81-1.25,1.1-2.34,1.54-.25.1-.52.21-.82.33l-.25.11c-1.96.85-3.04,1.32-3.49,1.8-.65.72-.71,1.37-.8,2.28-.09.9-.19,2.02-.98,3.5-.72,1.36-1.61,2.23-2.26,2.87-1.19,1.16-1.98,1.54-2.73,1.91-.65.32-1.26.62-2.13,1.38-1.84,1.61-2.91,3.58-3.84,5.46-.01.02-.03.07-.05.11l-.04.09c-.35.71-.54,1.19-.7,1.57-.24.59-.41,1.01-.89,1.71-.73,1.04-1.31,1.46-1.92,1.91-.5.37-1.02.75-1.72,1.54-.82.91-2.99,3.33-2.48,5.8.21.98.78,1.71,1.02,2.02.41.53.83.73,1.31.97.49.24,1.06.51,1.69,1.15.31.31.94.94,1.34,1.97.28.71.27,1.17.26,1.61,0,.35-.01.68.13,1.15.35,1.06,1.2,2.02,2.18,2.45.65.28,1.14.23,1.61.19.18-.02.36-.03.54-.03Z"/>
          </g>
          <path class="cls-3" d="M328.26,96.25c.06,2.98-1.63,5.28-1.79,5.5-1.03,1.37-2.32,2.19-3.06,2.66-.65.41-1.27.73-2.25,1.22-2.12,1.07-2.18.92-2.78,1.32-1.84,1.23-1.15,2.59-2.9,4.29-1.68,1.63-3.95,1.96-4.53,2.05-1,.14-2.2.13-4.22.11-1.35-.02-1.81-.06-2.44.19-1,.39-1.34,1.17-2.35,2.6-1.38,1.98-2.08,2.97-2.73,3.36-1.84,1.08-2.99-.32-6.09.59-1.47.42-2.48,1.1-3.24,1.61-2.39,1.62-2.1,2.49-4.14,4.03-2.18,1.64-4.67,2.28-6.48,2.74-1.86.48-2.2.32-3.48.87-2.05.88-2.02,1.64-4.09,2.84-1.14.65-4.01,2.3-6.46,1.24-.97-.42-1.59-1.15-1.89-1.5-.93-1.1-.52-1.95-1.48-3.41-.26-.4-.72-1.08-1.56-1.62-1.09-.72-1.58-.37-2.6-.95-.97-.56-1.85-1.64-2.1-2.84-.32-1.57.68-2.1.21-3.36-.35-.9-1.18-1.41-2.27-2.07-1.25-.76-1.48-.53-2.37-1.1-.6-.39-1.08-.87-1.44-1.37-.49-.17-.85-.36-1.04-.47-.53-.3-2.36-1.32-3.13-3.33-.38-.98-.1-1.16-.59-2.54-.42-1.2-.75-2.12-1.56-2.64-1.13-.73-1.86.15-3.33-.49-1.12-.49-2-1.57-2.35-2.64-.35-1.12.09-1.52-.39-2.74-.36-.93-.93-1.52-1.27-1.86-1.23-1.24-2.15-1.01-3.03-2.15-.28-.36-.86-1.12-1.08-2.15-.54-2.62,1.68-5.1,2.55-6.07,1.59-1.78,2.33-1.59,3.62-3.42.79-1.14.71-1.51,1.56-3.23.03-.07.07-.14.1-.21.16,1.39.4,3.21.78,5.6.86,5.35,1.3,6.33,2.09,7.23,1.99,2.29,3.79,1.29,7.17,4.14,1.22,1.03.61.83,4.05,4.43,2.04,2.14,3.15,3.14,4.3,4.05,1.25.98,2.11,1.5,3,2.08,4.83,3.17,4.43,4.2,7.04,5.48,1.26.62,4.26,2.09,7.31,1.18,1.94-.59,1.94-1.55,4.54-2.48,1.16-.42,2.56-.58,5.37-.92,3.56-.42,3.98-.25,5.22-.78,1.94-.83,1.65-1.58,3.52-2.48,1.99-.95,3.92-.88,6.78-.78,3.08.11,3.15.59,4.7.26,1.75-.37,3.03-1.26,4.96-2.61,2.15-1.5,1.91-1.77,3.39-2.61,1.16-.66,1.95-.86,5.34-1.82,2.88-.82,4.32-1.22,4.57-1.31,1.92-.64,3.28-2.06,4.34-3.72Z"/>
          <path class="cls-4" d="M292.81,52.47c-1.75-1.03-2.95-1.65-4.7-2.54-2.48-1.28-2.92-1.51-3.82-1.66-.35-.06-1.62-.25-3.23.1-.62.14-2.68.66-4.4,2.45-.85.89-.5.91-1.27,1.66-1.18,1.14-2.61,1.67-4.79,2.45-1.27.45-1.36.4-1.81.68-.77.49-1.24,1.11-2.3,3.03-1.93,3.53-1.77,4.06-1.66,4.3.46,1.03,2.02,1.24,2.25,1.27,2.22.28,3.31-1.51,7.83-4.01,2.04-1.13,3.4-1.64,3.72-1.76,1.46-.54,3.3-1.21,5.67-1.17.1,0,1.11.13,3.13.39,2.33.3,3.51.46,5.09.39,2.33-.1,2.77-.56,2.93-.78.69-.92.15-2.32.1-2.45-.34-.83-.94-1.29-2.74-2.35Z"/>
          <path class="cls-4" d="M261.51,66.26c-.41-.19-1.14-.15-3.82,2.25-2.92,2.63-4.38,3.94-4.11,5.09.36,1.51,2.92,2.68,4.6,2.05.92-.34.63-.87,2.93-4.4.77-1.18,1.28-1.86,1.27-2.93,0-.12-.04-1.67-.88-2.05Z"/>
        </g>
        <g>
          <g>
            <path class="cls-2" d="M267.87,30.53c1.53,2.56,1.2,5.39,1.17,5.66-.22,1.7-.93,3.05-1.34,3.83-.36.68-.74,1.26-1.35,2.17-1.31,1.98-1.44,1.88-1.76,2.52-.99,1.98.28,2.82-.4,5.16-.65,2.25-2.46,3.66-2.92,4.02-.8.62-1.85,1.2-3.61,2.19-1.18.65-1.6.84-2.03,1.37-.68.83-.58,1.68-.75,3.42-.22,2.4-.34,3.61-.71,4.27-1.06,1.85-2.76,1.2-5,3.53-1.07,1.09-1.61,2.18-2.02,3-1.27,2.59-.59,3.2-1.6,5.55-1.08,2.5-2.93,4.29-4.27,5.59-1.38,1.34-1.75,1.37-2.59,2.48-1.35,1.78-.94,2.43-2.15,4.49-.67,1.13-2.34,3.98-5,4.28-1.05.12-1.95-.21-2.38-.37-1.35-.5-1.42-1.44-2.97-2.23-.42-.22-1.16-.58-2.16-.63-1.3-.09-1.56.46-2.73.46-1.12,0-2.42-.51-3.23-1.43-1.06-1.21-.45-2.16-1.48-3.02-.75-.61-1.72-.64-3-.67-1.46-.04-1.55.27-2.6.22-.71-.04-1.37-.22-1.93-.48-.51.09-.92.11-1.14.11-.61,0-2.7.02-4.37-1.34-.82-.66-.66-.96-1.77-1.91-.96-.83-1.7-1.47-2.66-1.52-1.34-.07-1.54,1.05-3.14,1.22-1.22.13-2.52-.37-3.35-1.13-.86-.8-.67-1.37-1.7-2.19-.77-.63-1.56-.86-2.02-.99-1.68-.47-2.37.19-3.7-.37-.42-.17-1.3-.55-2-1.33-1.77-2.01-1.07-5.26-.79-6.54.5-2.33,1.24-2.54,1.45-4.76.12-1.38-.13-1.66-.24-3.58,0-.08,0-.16-.02-.23-.11-1.85-.22-4.3.64-6.77.84-2.42,1.77-2.41,2.57-5.18.25-.88.59-2.05.55-3.58-.09-3.23-1.77-3.89-1.31-5.98.17-.74.91-1.7,2.36-3.64,1.06-1.39,1.69-1.96,1.76-3.03.05-.67-.14-1.09-.56-2.37-.65-1.92-1.02-3.07-1.18-4.06-.11-.57-.49-2.83.56-4.93,1.08-2.19,2.58-1.95,3.19-4.07.2-.69.03-.71.4-3.05.18-1.08.28-1.77.49-2.52.22-.85.61-2.33,1.58-3.72.18-.25,2.16-2.97,5.51-3.59,1.73-.32,1.88.3,3.5-.19,1.77-.53,2.02-1.4,3.84-1.74.58-.11,1.71-.32,2.9.14.91.35,1,.76,2.32,1.71,1.19.85,1.97,1.42,2.94,1.59,1.69.3,2.22-.93,4.13-1.23,2.43-.37,4.6,1.12,6.13,2.25,2.67,1.96,2.11,2.93,4.62,4.34.22.13.49.27.81.41,1.39-.23,3.01-.36,3.9.15,2.04,1.18,3.99,1.81,5.08,2.07,2.81.64,3.05-.45,6.35-.09,1.89.2,4.5.57,6.03,2.48,1.22,1.51.77,2.78,2.23,3.7.83.53,1.8.65,3.24.81,1.63.19,1.96-.05,2.88.3,1.19.47,1.88,1.38,2.23,1.85,1.12,1.49.71,2.3,1.66,3.89.87,1.44,1.39,1.1,2.45,2.5.16.23.32.46.46.69Z"/>
            <path class="cls-5" d="M231.09,94.41c-.9,0-1.64-.27-2.03-.4-.78-.28-1.16-.69-1.57-1.11-.36-.38-.74-.77-1.45-1.14-.35-.18-1.06-.55-2.03-.6-.64-.04-1,.08-1.38.21-.36.12-.74.25-1.34.25-1.29,0-2.65-.61-3.46-1.53-.57-.65-.7-1.24-.81-1.75-.11-.48-.19-.87-.63-1.24-.67-.55-1.62-.57-2.81-.6-.74-.02-1.1.05-1.44.12-.33.06-.63.13-1.17.1-.68-.04-1.34-.2-1.95-.46-.47.08-.86.1-1.1.09h-.04c-1.86,0-3.38-.48-4.52-1.41-.42-.34-.6-.59-.8-.86-.21-.28-.42-.58-.98-1.06-.9-.78-1.61-1.4-2.48-1.45-.58-.03-.9.19-1.3.48-.43.3-.92.65-1.78.74-1.23.13-2.64-.34-3.59-1.21-.44-.41-.63-.75-.81-1.09-.19-.35-.37-.68-.87-1.09-.75-.61-1.54-.83-1.91-.93-.77-.21-1.31-.18-1.84-.14-.59.04-1.15.08-1.9-.24-.4-.17-1.35-.56-2.11-1.41-1.87-2.13-1.14-5.53-.86-6.81.23-1.09.52-1.74.78-2.31.3-.67.56-1.25.67-2.42.07-.78.01-1.18-.07-1.79-.06-.42-.13-.94-.18-1.74,0-.03,0-.07,0-.12v-.1c-.1-1.61-.26-4.28.65-6.9.4-1.16.83-1.79,1.24-2.39.47-.69.91-1.34,1.33-2.77.27-.95.58-2.04.54-3.49-.04-1.54-.46-2.47-.83-3.29-.39-.87-.73-1.62-.48-2.76.17-.78.87-1.69,2.24-3.53l.17-.23c.2-.26.39-.5.56-.71.71-.89,1.1-1.38,1.15-2.16.04-.51-.08-.86-.36-1.71l-.18-.55c-.65-1.94-1.03-3.09-1.19-4.1-.2-1.06-.39-3.15.59-5.12.54-1.1,1.19-1.62,1.76-2.09.6-.49,1.12-.91,1.41-1.93.09-.3.1-.45.12-.78.03-.39.07-.98.27-2.24l.06-.4c.14-.86.24-1.49.43-2.16.21-.82.6-2.35,1.63-3.82.22-.32,2.28-3.08,5.7-3.71.86-.16,1.36-.1,1.8-.04.47.06.87.1,1.67-.13.78-.23,1.25-.54,1.71-.83.55-.35,1.13-.72,2.16-.92.53-.1,1.77-.34,3.07.16.59.23.87.48,1.26.83.26.24.59.53,1.13.92,1.17.84,1.92,1.38,2.82,1.54.85.15,1.36-.12,2-.47.53-.29,1.14-.62,2.03-.75,2.68-.41,5.07,1.36,6.36,2.31,1.31.96,1.87,1.69,2.36,2.34.52.68.97,1.27,2.23,1.98.2.11.43.24.7.36,1.92-.31,3.23-.24,4.01.2,2.24,1.3,4.25,1.86,5,2.04,1.41.32,2.14.19,2.98.04.8-.15,1.71-.31,3.33-.14,1.59.17,4.55.49,6.24,2.59.57.71.79,1.36.99,1.93.24.69.43,1.24,1.16,1.7.78.5,1.71.6,3.11.77.66.08,1.1.08,1.46.09.53,0,.91.01,1.5.24,1.3.51,2.05,1.52,2.36,1.95.64.85.81,1.51.98,2.15.14.53.28,1.07.7,1.76.43.71.76.95,1.14,1.22.36.26.77.56,1.3,1.25.17.24.33.48.48.71h0c1.46,2.45,1.29,5.1,1.21,5.86-.22,1.77-.97,3.18-1.38,3.94-.38.72-.79,1.34-1.37,2.2-.7,1.06-1.07,1.53-1.31,1.84-.2.26-.3.38-.43.65-.48.96-.38,1.62-.27,2.39.11.73.23,1.55-.11,2.72-.44,1.53-1.46,2.93-3,4.16-.85.66-1.91,1.25-3.67,2.23l-.36.2c-.9.49-1.24.68-1.58,1.1-.48.59-.53,1.2-.61,2.3-.02.29-.05.6-.08.96-.23,2.54-.35,3.69-.75,4.39-.59,1.02-1.34,1.35-2.22,1.72-.82.35-1.76.76-2.83,1.87-1.03,1.06-1.55,2.09-1.96,2.92-.67,1.35-.78,2.13-.9,2.95-.11.72-.21,1.47-.7,2.59-1.11,2.58-2.98,4.38-4.34,5.69-.57.55-.97.89-1.3,1.16-.47.39-.79.65-1.26,1.29-.71.93-.91,1.54-1.14,2.23-.2.59-.42,1.26-.98,2.23-.68,1.14-2.44,4.12-5.23,4.43-.16.02-.32.03-.48.03ZM223.75,90.53c.09,0,.19,0,.29,0,1.1.06,1.9.47,2.28.67.8.41,1.24.86,1.62,1.26.37.39.7.73,1.32.96.42.15,1.28.46,2.25.35,2.49-.27,4.08-2.96,4.76-4.11.54-.93.74-1.54.94-2.13.24-.72.47-1.4,1.23-2.41.52-.69.87-.98,1.36-1.39.32-.26.71-.59,1.26-1.12,1.33-1.28,3.14-3.03,4.21-5.49.45-1.05.55-1.72.65-2.44.12-.83.25-1.69.95-3.13.41-.83.97-1.96,2.07-3.08,1.16-1.2,2.19-1.65,3.03-2,.84-.36,1.44-.62,1.93-1.46.33-.59.45-1.76.67-4.15.03-.35.06-.66.08-.94.09-1.15.14-1.9.74-2.64.42-.52.84-.75,1.76-1.25l.36-.2c1.73-.97,2.78-1.55,3.57-2.16,1.46-1.16,2.4-2.46,2.81-3.87.3-1.04.19-1.76.09-2.46-.12-.83-.24-1.62.32-2.75.17-.33.29-.49.5-.76.23-.3.59-.76,1.28-1.8.57-.85.97-1.46,1.34-2.15.41-.77,1.1-2.07,1.31-3.72.06-.5.27-3.13-1.13-5.47-.14-.22-.29-.45-.45-.67-.47-.62-.82-.87-1.16-1.12-.42-.3-.81-.59-1.3-1.4-.46-.77-.62-1.38-.77-1.92-.17-.63-.31-1.18-.88-1.94-.31-.42-.96-1.3-2.1-1.75-.48-.19-.78-.19-1.28-.2-.37,0-.83,0-1.52-.09-1.43-.17-2.47-.29-3.37-.86-.91-.57-1.15-1.28-1.41-2.02-.19-.55-.39-1.13-.89-1.75-1.52-1.91-4.32-2.21-5.82-2.37-1.53-.16-2.35-.01-3.15.13-.87.16-1.7.31-3.23-.04-.79-.19-2.86-.77-5.17-2.11-.65-.37-1.89-.41-3.69-.11h-.09s-.08-.02-.08-.02c-.34-.15-.62-.3-.84-.43-1.37-.77-1.88-1.44-2.41-2.14-.49-.65-1-1.31-2.23-2.22-1.21-.9-3.47-2.56-5.9-2.19-.78.12-1.32.41-1.83.69-.69.37-1.35.73-2.4.54-1.03-.18-1.83-.76-3.04-1.62-.59-.43-.93-.73-1.21-.98-.37-.33-.59-.53-1.07-.71-1.13-.44-2.21-.23-2.73-.13-.92.17-1.39.48-1.94.83-.47.3-1.01.65-1.87.9-.92.27-1.4.22-1.91.15-.42-.05-.85-.1-1.61.04-3.19.59-5.1,3.17-5.31,3.46-.96,1.37-1.34,2.84-1.54,3.62-.18.64-.28,1.25-.41,2.1l-.06.4c-.19,1.23-.24,1.8-.27,2.18-.03.34-.04.55-.15.9-.35,1.21-.96,1.71-1.61,2.24-.55.45-1.12.91-1.6,1.88-.93,1.88-.68,3.94-.53,4.74.16.98.53,2.1,1.17,4.01l.18.55c.29.88.44,1.32.39,1.95-.06.97-.54,1.57-1.28,2.5-.17.21-.35.44-.55.7l-.17.23c-1.28,1.71-1.99,2.65-2.13,3.29-.21.95.06,1.55.44,2.38.37.83.83,1.85.88,3.52.04,1.54-.29,2.73-.54,3.61-.46,1.6-.95,2.32-1.43,3.02-.41.6-.79,1.16-1.17,2.25-.81,2.31-.75,4.55-.63,6.65l.02.21c.05.79.12,1.3.17,1.71.09.63.15,1.08.07,1.93-.12,1.27-.41,1.92-.72,2.61-.25.57-.52,1.16-.74,2.19-.26,1.2-.95,4.37.72,6.27.67.75,1.52,1.1,1.89,1.25.62.26,1.08.23,1.62.19.55-.04,1.17-.08,2.04.17.42.11,1.28.35,2.14,1.04.6.48.81.88,1.03,1.27.17.31.32.59.68.93.83.75,2.05,1.16,3.11,1.05.7-.08,1.11-.36,1.49-.63.44-.31.9-.64,1.69-.59,1.08.06,1.9.77,2.85,1.6.61.53.86.86,1.07,1.16.19.26.33.46.69.75,1.56,1.28,3.53,1.27,4.16,1.27.26,0,.63-.01,1.1-.1l.1-.02.09.04c.57.26,1.18.41,1.82.45.46.02.71-.03,1.01-.09.36-.07.77-.15,1.58-.13,1.26.03,2.34.06,3.18.74.61.51.73,1.05.84,1.58.1.46.21.95.67,1.48.7.8,1.88,1.32,3,1.32.49,0,.8-.11,1.14-.22.36-.12.74-.25,1.32-.25Z"/>
          </g>
          <path class="cls-3" d="M267.87,30.53c1.53,2.56,1.2,5.39,1.17,5.66-.22,1.7-.93,3.05-1.34,3.83-.36.68-.74,1.26-1.35,2.17-1.31,1.98-1.44,1.88-1.76,2.52-.99,1.98.28,2.82-.4,5.16-.65,2.25-2.46,3.66-2.92,4.02-.8.62-1.85,1.2-3.61,2.19-1.18.65-1.6.84-2.03,1.37-.68.83-.58,1.68-.75,3.42-.22,2.4-.34,3.61-.71,4.27-1.06,1.85-2.76,1.2-5,3.53-1.07,1.09-1.61,2.18-2.02,3-1.27,2.59-.59,3.2-1.6,5.55-1.08,2.5-2.93,4.29-4.27,5.59-1.38,1.34-1.75,1.37-2.59,2.48-1.35,1.78-.94,2.43-2.15,4.49-.67,1.13-2.34,3.98-5,4.28-1.05.12-1.95-.21-2.38-.37-1.35-.5-1.42-1.44-2.97-2.23-.42-.22-1.16-.58-2.16-.63-1.3-.09-1.56.46-2.73.46-1.12,0-2.42-.51-3.23-1.43-1.06-1.21-.45-2.16-1.48-3.02-.75-.61-1.72-.64-3-.67-1.46-.04-1.55.27-2.6.22-.71-.04-1.37-.22-1.93-.48-.51.09-.92.11-1.14.11-.61,0-2.7.02-4.37-1.34-.82-.66-.66-.96-1.77-1.91-.96-.83-1.7-1.47-2.66-1.52-1.34-.07-1.54,1.05-3.14,1.22-1.22.13-2.52-.37-3.35-1.13-.86-.8-.67-1.37-1.7-2.19-.77-.63-1.56-.86-2.02-.99-1.68-.47-2.37.19-3.7-.37-.42-.17-1.3-.55-2-1.33-1.77-2.01-1.07-5.26-.79-6.54.5-2.33,1.24-2.54,1.45-4.76.12-1.38-.13-1.66-.24-3.58,0-.08,0-.16-.02-.23.83,1.13,1.94,2.59,3.45,4.48,3.4,4.22,4.26,4.86,5.4,5.25,2.86,1,3.93-.76,8.28.05,1.57.29.94.42,5.71,1.84,2.83.85,4.29,1.17,5.74,1.39,1.57.23,2.58.26,3.64.32,5.77.36,5.93,1.46,8.83,1.27,1.4-.09,4.74-.29,6.94-2.59,1.39-1.47.92-2.31,2.72-4.4.8-.94,1.94-1.77,4.21-3.46,2.88-2.13,3.33-2.19,4.15-3.26,1.27-1.68.65-2.19,1.83-3.9,1.26-1.81,2.97-2.71,5.5-4.03,2.73-1.43,3.03-1.05,4.21-2.1,1.34-1.19,2.01-2.6,3.02-4.72,1.13-2.37.78-2.48,1.65-3.95.68-1.15,1.27-1.71,3.74-4.23,2.1-2.14,3.15-3.2,3.32-3.4,1.35-1.51,1.83-3.41,1.93-5.38Z"/>
          <path class="cls-4" d="M215.39,10.04c-2.03-.03-3.38.03-5.34.12-2.79.12-3.29.14-4.14.44-.33.12-1.54.58-2.76,1.68-.47.43-2,1.9-2.61,4.3-.3,1.19.02,1.04-.28,2.07-.46,1.58-1.44,2.74-2.95,4.5-.88,1.02-.98,1.02-1.23,1.49-.43.81-.53,1.58-.49,3.77.07,4.02.47,4.41.69,4.56.91.66,2.37.08,2.58,0,2.07-.86,2.13-2.95,4.81-7.36,1.21-1.99,2.14-3.11,2.36-3.37,1-1.19,2.27-2.68,4.35-3.83.09-.05,1.03-.44,2.91-1.21,2.17-.89,3.27-1.34,4.61-2.18,1.97-1.24,2.13-1.86,2.16-2.13.15-1.14-1.02-2.09-1.13-2.17-.71-.56-1.46-.65-3.54-.68Z"/>
          <path class="cls-4" d="M195.02,37.53c-.45.04-1.07.43-2.2,3.84-1.24,3.73-1.85,5.59-1.05,6.45,1.06,1.13,3.86.88,5.01-.49.63-.75.12-1.07.37-5.28.08-1.41.19-2.26-.35-3.18-.06-.1-.86-1.43-1.78-1.35Z"/>
        </g>
        <g>
          <g>
            <path class="cls-2" d="M182.05,4.51c2.63,1.39,3.82,3.99,3.94,4.24.7,1.57.79,3.09.84,3.97.04.77.02,1.46-.03,2.56-.09,2.37-.25,2.35-.2,3.07.18,2.21,1.71,2.26,2.34,4.62.61,2.26-.2,4.4-.41,4.96-.36.94-.95,1.99-1.95,3.74-.67,1.17-.93,1.55-1.02,2.23-.14,1.06.37,1.74,1.13,3.32,1.06,2.17,1.59,3.26,1.61,4.02.05,2.13-1.73,2.46-2.44,5.61-.35,1.49-.24,2.7-.17,3.61.26,2.88,1.16,3.04,1.51,5.58.38,2.7-.27,5.19-.75,7-.48,1.86-.79,2.08-.93,3.46-.23,2.22.45,2.56.5,4.95.01,1.31.06,4.62-2.05,6.25-.84.64-1.78.83-2.23.92-1.41.28-1.96-.49-3.7-.36-.48.03-1.29.11-2.17.58-1.16.6-1.09,1.2-2.09,1.81-.96.58-2.33.82-3.5.46-1.53-.48-1.51-1.61-2.84-1.81-.96-.13-1.81.35-2.91.98-1.27.72-1.18,1.04-2.11,1.54-.63.34-1.28.52-1.9.59-.39.35-.73.57-.92.68-.52.32-2.3,1.42-4.43,1.12-1.04-.14-1.06-.48-2.51-.72-1.25-.22-2.22-.37-3.07.08-1.19.63-.77,1.7-2.05,2.67-.97.74-2.34.99-3.45.77-1.15-.24-1.29-.82-2.58-.99-.99-.14-1.78.08-2.24.21-1.68.47-1.93,1.39-3.35,1.6-.45.07-1.4.21-2.4-.1-2.55-.8-3.64-3.95-4.07-5.18-.78-2.25-.26-2.81-1.23-4.83-.61-1.24-.98-1.35-2.07-2.93-.05-.06-.09-.13-.14-.19-1.05-1.52-2.42-3.56-2.96-6.12-.54-2.51.26-2.98-.49-5.76-.24-.88-.56-2.06-1.39-3.35-1.75-2.71-3.53-2.41-4.22-4.43-.24-.72-.11-1.93.13-4.33.19-1.74.43-2.55-.07-3.5-.31-.6-.69-.86-1.71-1.74-1.55-1.31-2.47-2.09-3.12-2.85-.39-.43-1.88-2.17-2.08-4.51-.22-2.43,1.19-3.01.61-5.14-.18-.7-.34-.62-1.24-2.82-.41-1.02-.68-1.66-.89-2.41-.25-.84-.69-2.3-.58-4,.02-.31.31-3.66,2.84-5.92,1.31-1.17,1.76-.72,2.89-1.97,1.24-1.37,1.01-2.24,2.38-3.48.44-.4,1.29-1.16,2.55-1.38.97-.17,1.24.13,2.88.26,1.46.11,2.42.19,3.34-.17,1.6-.62,1.41-1.95,2.9-3.2,1.88-1.57,4.51-1.43,6.41-1.26,3.3.29,3.32,1.41,6.2,1.32.26,0,.56-.02.91-.07,1.07-.92,2.39-1.87,3.41-1.89,2.36-.05,4.35-.52,5.42-.87,2.73-.91,2.37-1.97,5.37-3.37,1.72-.81,4.14-1.85,6.44-1.01,1.83.66,2.1,1.98,3.83,2.01.98.02,1.87-.38,3.19-.99,1.49-.68,1.65-1.06,2.62-1.23,1.26-.21,2.32.2,2.86.42,1.73.7,1.8,1.6,3.44,2.46,1.49.78,1.75.22,3.4.87.26.11.51.23.75.35Z"/>
            <path class="cls-5" d="M134.88,88.22c-.43,0-.93-.05-1.44-.21-2.71-.85-3.84-4.13-4.27-5.37-.37-1.05-.46-1.76-.54-2.38-.09-.73-.17-1.36-.68-2.41-.35-.7-.6-1.02-.99-1.5-.27-.33-.6-.74-1.05-1.4-.02-.02-.04-.06-.07-.1l-.06-.08c-.92-1.33-2.44-3.53-3.02-6.24-.26-1.2-.22-1.96-.18-2.69.04-.83.08-1.61-.31-3.06-.26-.95-.57-2.05-1.35-3.26-.84-1.3-1.68-1.87-2.41-2.38-.79-.54-1.46-1-1.84-2.12-.25-.75-.14-1.9.09-4.18l.03-.28c.04-.33.07-.62.11-.89.14-1.13.22-1.75-.14-2.44-.23-.46-.51-.7-1.2-1.27l-.44-.38c-1.56-1.32-2.48-2.1-3.15-2.89-.72-.8-1.97-2.49-2.16-4.68-.11-1.22.17-2,.42-2.7.26-.73.48-1.36.2-2.39-.08-.3-.15-.43-.3-.73-.18-.35-.45-.88-.93-2.05l-.15-.36c-.33-.81-.57-1.4-.76-2.07-.25-.81-.7-2.32-.59-4.11.03-.39.34-3.81,2.95-6.13.65-.58,1.11-.79,1.51-.97.43-.19.8-.36,1.35-.98.55-.6.79-1.11,1.03-1.6.29-.59.59-1.2,1.37-1.91.4-.36,1.34-1.21,2.71-1.46.62-.11.99-.04,1.51.06.35.07.78.15,1.45.2,1.43.11,2.36.18,3.21-.15.8-.31,1.09-.81,1.47-1.45.31-.52.65-1.12,1.34-1.7,2.08-1.74,5.04-1.47,6.63-1.33,1.61.14,2.47.48,3.23.78.8.31,1.48.59,2.93.54.23,0,.49-.02.79-.05,1.48-1.26,2.64-1.88,3.53-1.91,2.59-.05,4.59-.61,5.34-.85,1.37-.45,1.92-.95,2.57-1.52.61-.54,1.3-1.15,2.77-1.84,1.45-.68,4.15-1.95,6.68-1.02.85.31,1.38.75,1.85,1.14.57.47,1.01.84,1.87.85.93.03,1.77-.37,3.06-.96.6-.28.98-.5,1.29-.68.45-.27.78-.46,1.4-.57,1.38-.23,2.54.24,3.03.44.98.4,1.48.87,1.95,1.33.39.38.8.77,1.51,1.15.73.38,1.14.42,1.61.46.44.04.95.08,1.76.4.27.11.53.24.78.36h0c2.52,1.34,3.75,3.69,4.07,4.38.72,1.62.82,3.22.87,4.08.05.81.02,1.55-.03,2.59-.05,1.27-.12,1.86-.17,2.25-.04.33-.06.48-.03.78.09,1.07.52,1.58,1.01,2.18.47.57,1,1.21,1.32,2.38.42,1.54.28,3.26-.41,5.11-.39,1.01-1.02,2.13-1.98,3.81l-.21.36c-.51.89-.71,1.22-.77,1.76-.1.76.17,1.3.68,2.29.13.26.27.54.43.86,1.12,2.29,1.62,3.33,1.64,4.14.03,1.18-.45,1.85-1,2.62-.52.73-1.11,1.56-1.45,3.06-.34,1.44-.24,2.59-.16,3.51.13,1.5.44,2.23.76,2.99.28.67.58,1.36.75,2.58.39,2.78-.28,5.29-.76,7.12-.2.76-.37,1.26-.51,1.66-.2.58-.33.97-.41,1.76-.12,1.17.02,1.79.18,2.5.14.61.29,1.3.31,2.41.02,1.33.05,4.79-2.17,6.5-.89.68-1.87.88-2.34.98-.81.16-1.35.02-1.92-.14-.51-.14-1.04-.28-1.83-.22-.39.03-1.2.08-2.05.54-.57.3-.81.59-1.07.89-.25.29-.5.6-1.01.91-1.1.66-2.58.85-3.75.49-.83-.26-1.24-.69-1.61-1.08-.34-.36-.61-.64-1.18-.73-.86-.12-1.68.35-2.71.94-.64.37-.91.61-1.17.85-.24.22-.48.44-.95.69-.6.32-1.24.53-1.91.62-.36.31-.68.53-.89.65-1.61.98-3.16,1.37-4.63,1.16-.53-.07-.82-.19-1.13-.32-.33-.14-.66-.28-1.39-.4-1.18-.2-2.1-.36-2.87.05-.51.27-.67.63-.86,1.09-.21.48-.45,1.03-1.14,1.56-.98.75-2.43,1.07-3.69.83-.58-.12-.93-.32-1.26-.51-.35-.2-.67-.39-1.31-.48-.96-.13-1.74.09-2.12.2-.77.22-1.22.53-1.65.83-.48.34-.94.66-1.74.78-.23.04-.62.1-1.1.1ZM119.23,11.13c-.15,0-.3.01-.49.05-1.19.22-2.01.95-2.4,1.31-.69.63-.94,1.13-1.23,1.72-.25.5-.53,1.07-1.13,1.74-.64.71-1.09.91-1.56,1.13-.38.17-.78.35-1.36.87-2.42,2.16-2.72,5.36-2.74,5.72-.11,1.67.33,3.12.57,3.89.18.64.42,1.22.74,2.02l.15.36c.47,1.15.73,1.66.91,2,.16.3.25.49.34.85.33,1.21.06,1.96-.22,2.75-.24.67-.48,1.35-.38,2.44.17,2.01,1.33,3.58,2.01,4.33.64.75,1.55,1.52,3.09,2.82l.44.38c.71.6,1.06.9,1.34,1.46.45.86.35,1.63.2,2.8-.03.27-.07.56-.1.88l-.03.27c-.21,2.13-.33,3.3-.12,3.93.31.92.86,1.29,1.61,1.81.75.51,1.68,1.15,2.58,2.55.83,1.29,1.17,2.49,1.41,3.36.44,1.61.39,2.48.35,3.32-.04.72-.07,1.41.17,2.53.51,2.39,1.72,4.28,2.91,6.01.02.02.04.06.07.1l.06.08c.45.65.77,1.05,1.04,1.37.4.49.69.85,1.06,1.61.55,1.15.64,1.86.74,2.61.08.62.16,1.26.51,2.25.4,1.16,1.46,4.23,3.87,4.98.96.29,1.87.15,2.27.09.66-.1,1.04-.37,1.48-.68.45-.32.96-.67,1.83-.92.41-.12,1.28-.36,2.37-.22.76.1,1.15.33,1.54.55.3.17.58.34,1.07.44,1.09.21,2.35-.07,3.2-.72.56-.43.76-.88.95-1.32.22-.5.44-1.01,1.14-1.38.95-.51,2.02-.33,3.26-.11.79.13,1.18.29,1.52.44.29.12.52.22.98.28,2,.28,3.67-.73,4.21-1.07.22-.13.53-.34.89-.66l.07-.06h.1c.62-.08,1.23-.27,1.79-.57.4-.22.6-.4.82-.6.27-.25.58-.53,1.28-.93,1.09-.62,2.03-1.16,3.11-1.02.78.12,1.17.52,1.54.91.33.34.67.7,1.35.91,1.01.31,2.29.15,3.25-.43.42-.26.63-.51.86-.78.28-.34.58-.69,1.25-1.04.97-.52,1.86-.58,2.29-.61.9-.07,1.5.09,2.04.24.52.14.97.26,1.63.13.44-.09,1.33-.27,2.1-.87,1.98-1.52,1.95-4.65,1.93-5.98-.02-1.07-.16-1.7-.3-2.31-.17-.74-.32-1.44-.2-2.7.09-.86.24-1.29.44-1.89.13-.39.3-.87.49-1.62.47-1.78,1.11-4.22.74-6.88-.16-1.13-.42-1.76-.71-2.42-.33-.77-.67-1.58-.81-3.17-.08-.92-.18-2.18.17-3.71.37-1.62,1.02-2.54,1.55-3.28.53-.74.91-1.28.89-2.25-.02-.68-.53-1.74-1.58-3.89-.15-.32-.29-.6-.42-.85-.52-1.02-.87-1.7-.74-2.65.09-.66.33-1.07.85-1.98l.2-.35c.95-1.66,1.57-2.76,1.93-3.7.65-1.76.78-3.35.4-4.76-.28-1.05-.75-1.61-1.2-2.15-.54-.65-1.05-1.26-1.15-2.52-.03-.37,0-.57.03-.9.04-.38.11-.95.16-2.2.04-1.02.07-1.75.03-2.53-.05-.88-.14-2.34-.81-3.86-.21-.46-1.39-2.81-3.8-4.09-.23-.12-.48-.23-.73-.34-.72-.29-1.16-.32-1.58-.35-.51-.04-1-.08-1.84-.52-.79-.42-1.25-.86-1.65-1.25-.47-.45-.88-.85-1.76-1.2-.49-.2-1.5-.61-2.7-.41-.51.09-.77.24-1.2.5-.32.19-.72.42-1.35.71-1.31.6-2.24,1.04-3.32,1.01-1.07-.02-1.65-.49-2.25-.99-.45-.37-.92-.76-1.67-1.03-2.29-.84-4.84.36-6.21,1-1.39.65-2.02,1.21-2.62,1.75-.66.59-1.29,1.15-2.79,1.64-.77.25-2.85.83-5.51.88-.75.02-1.83.63-3.21,1.82l-.07.06h-.09c-.37.06-.7.08-.94.08-1.58.05-2.35-.26-3.18-.58-.75-.3-1.53-.6-3.06-.74-1.5-.14-4.3-.39-6.18,1.19-.61.51-.91,1.03-1.21,1.54-.4.68-.77,1.32-1.77,1.71-.98.38-1.96.3-3.45.19-.72-.06-1.17-.14-1.54-.21-.31-.06-.54-.1-.8-.1Z"/>
          </g>
          <path class="cls-3" d="M182.05,4.51c2.63,1.39,3.82,3.99,3.94,4.24.7,1.57.79,3.09.84,3.97.04.77.02,1.46-.03,2.56-.09,2.37-.25,2.35-.2,3.07.18,2.21,1.71,2.26,2.34,4.62.61,2.26-.2,4.4-.41,4.96-.36.94-.95,1.99-1.95,3.74-.67,1.17-.93,1.55-1.02,2.23-.14,1.06.37,1.74,1.13,3.32,1.06,2.17,1.59,3.26,1.61,4.02.05,2.13-1.73,2.46-2.44,5.61-.35,1.49-.24,2.7-.17,3.61.26,2.88,1.16,3.04,1.51,5.58.38,2.7-.27,5.19-.75,7-.48,1.86-.79,2.08-.93,3.46-.23,2.22.45,2.56.5,4.95.01,1.31.06,4.62-2.05,6.25-.84.64-1.78.83-2.23.92-1.41.28-1.96-.49-3.7-.36-.48.03-1.29.11-2.17.58-1.16.6-1.09,1.2-2.09,1.81-.96.58-2.33.82-3.5.46-1.53-.48-1.51-1.61-2.84-1.81-.96-.13-1.81.35-2.91.98-1.27.72-1.18,1.04-2.11,1.54-.63.34-1.28.52-1.9.59-.39.35-.73.57-.92.68-.52.32-2.3,1.42-4.43,1.12-1.04-.14-1.06-.48-2.51-.72-1.25-.22-2.22-.37-3.07.08-1.19.63-.77,1.7-2.05,2.67-.97.74-2.34.99-3.45.77-1.15-.24-1.29-.82-2.58-.99-.99-.14-1.78.08-2.24.21-1.68.47-1.93,1.39-3.35,1.6-.45.07-1.4.21-2.4-.1-2.55-.8-3.64-3.95-4.07-5.18-.78-2.25-.26-2.81-1.23-4.83-.61-1.24-.98-1.35-2.07-2.93-.05-.06-.09-.13-.14-.19,1.29.53,3,1.21,5.27,2.04,5.09,1.85,6.17,1.94,7.34,1.68,2.97-.63,2.97-2.69,7.1-4.26,1.49-.57,1.02-.13,5.84-1.39,2.86-.74,4.27-1.23,5.63-1.79,1.46-.62,2.34-1.12,3.28-1.61,5.12-2.68,5.82-1.83,8.21-3.49,1.15-.8,3.9-2.71,4.58-5.82.43-1.98-.41-2.45.04-5.17.2-1.22.74-2.52,1.8-5.14,1.36-3.32,1.71-3.6,1.85-4.94.22-2.1-.58-2.21-.46-4.28.14-2.2,1.13-3.85,2.61-6.31,1.59-2.64,2.05-2.47,2.51-3.98.53-1.71.37-3.26.13-5.6-.27-2.61-.62-2.53-.64-4.23-.01-1.33.19-2.12,1-5.55.68-2.92,1.03-4.37,1.07-4.63.37-1.99-.21-3.87-1.14-5.6Z"/>
          <path class="cls-4" d="M126.56,14.24c-1.75,1.03-2.87,1.78-4.5,2.87-2.32,1.55-2.74,1.82-3.31,2.53-.22.27-1.01,1.3-1.48,2.87-.18.61-.72,2.67,0,5.04.36,1.17.56.88.84,1.92.43,1.59.19,3.09-.19,5.38-.22,1.33-.31,1.39-.28,1.92.05.91.36,1.62,1.54,3.48,2.15,3.4,2.69,3.52,2.96,3.54,1.12.09,2.07-1.16,2.2-1.35,1.32-1.8.29-3.62.29-8.79,0-2.33.21-3.77.27-4.1.23-1.54.55-3.47,1.73-5.53.05-.09.65-.91,1.86-2.55,1.39-1.89,2.1-2.84,2.81-4.26,1.05-2.08.85-2.69.74-2.95-.47-1.05-1.96-1.26-2.09-1.27-.89-.11-1.59.2-3.38,1.25Z"/>
          <path class="cls-4" d="M123.41,48.3c-.36.27-.69.93.11,4.43.88,3.83,1.32,5.74,2.45,6.06,1.49.42,3.76-1.25,4.03-3.02.15-.97-.45-.97-2.42-4.7-.66-1.25-1.01-2.03-1.95-2.54-.1-.06-1.48-.78-2.22-.23Z"/>
        </g>
        <g>
          <g>
            <path class="cls-2" d="M95.13,25.44c2.98-.12,5.31,1.52,5.54,1.67,1.39,1,2.24,2.27,2.72,3,.42.64.76,1.25,1.27,2.22,1.11,2.1.97,2.16,1.38,2.75,1.27,1.81,2.61,1.1,4.35,2.81,1.67,1.65,2.04,3.91,2.14,4.49.16,1,.18,2.2.2,4.22,0,1.35-.02,1.81.24,2.44.41.99,1.2,1.32,2.65,2.29,2.01,1.34,3.01,2.02,3.42,2.66,1.12,1.82-.26,3,.72,6.08.45,1.46,1.15,2.46,1.68,3.21,1.67,2.36,2.53,2.05,4.12,4.05,1.69,2.14,2.38,4.62,2.88,6.42.52,1.85.37,2.19.94,3.46.92,2.03,1.68,1.99,2.93,4.03.67,1.13,2.38,3.96,1.38,6.43-.4.98-1.12,1.61-1.46,1.92-1.08.95-1.94.56-3.38,1.55-.39.27-1.06.74-1.59,1.59-.7,1.1-.34,1.59-.9,2.62-.54.98-1.6,1.88-2.8,2.16-1.56.35-2.11-.64-3.36-.14-.89.37-1.38,1.21-2.02,2.31-.73,1.27-.5,1.49-1.05,2.39-.38.61-.85,1.1-1.34,1.47-.16.49-.34.86-.45,1.05-.29.54-1.27,2.39-3.26,3.2-.97.4-1.16.12-2.53.64-1.19.45-2.1.79-2.61,1.62-.71,1.15.19,1.86-.42,3.34-.47,1.13-1.53,2.03-2.59,2.41-1.11.37-1.52-.06-2.73.45-.92.38-1.5.96-1.83,1.31-1.21,1.26-.96,2.17-2.09,3.07-.35.29-1.1.88-2.13,1.13-2.61.59-5.13-1.57-6.12-2.42-1.81-1.55-1.64-2.3-3.5-3.55-1.16-.77-1.52-.68-3.26-1.49-.07-.03-.14-.07-.21-.1-1.68-.78-3.88-1.86-5.64-3.79-1.73-1.89-1.28-2.7-3.33-4.73-.65-.64-1.52-1.5-2.89-2.19-2.88-1.46-4.27-.3-5.88-1.7-.57-.5-1.06-1.61-2.07-3.81-.71-1.6-.91-2.42-1.82-2.99-.57-.37-1.03-.4-2.35-.64-2-.35-3.18-.56-4.13-.89-.55-.18-2.72-.92-4.07-2.84-1.41-1.99-.49-3.2-2.06-4.75-.51-.51-.61-.37-2.49-1.81-.86-.67-1.42-1.09-1.98-1.63-.64-.6-1.75-1.64-2.52-3.17-.14-.28-1.58-3.32-.53-6.55.54-1.67,1.16-1.51,1.5-3.16.38-1.81-.26-2.44.3-4.21.18-.56.54-1.65,1.51-2.48.75-.64,1.14-.51,2.61-1.23,1.32-.64,2.19-1.06,2.8-1.83,1.07-1.34.24-2.4.89-4.22.83-2.31,3.18-3.51,4.9-4.31,3-1.41,3.58-.46,6.02-1.99.22-.13.47-.3.75-.52.46-1.33,1.12-2.81,1.99-3.35,2.01-1.23,3.5-2.64,4.25-3.48,1.9-2.16,1.06-2.89,2.94-5.62,1.08-1.56,2.64-3.69,5.05-4.12,1.91-.35,2.81.65,4.32-.19.86-.48,1.42-1.27,2.26-2.46.94-1.34.89-1.75,1.64-2.39.98-.82,2.11-.99,2.69-1.08,1.84-.27,2.36.47,4.21.39,1.68-.08,1.63-.69,3.37-.96.28-.04.56-.06.83-.08Z"/>
            <path class="cls-5" d="M94.23,122.17c-2.39,0-4.54-1.85-5.41-2.6-.85-.73-1.28-1.29-1.66-1.78-.45-.58-.83-1.09-1.81-1.74-.65-.43-1.03-.58-1.61-.79-.4-.15-.89-.34-1.61-.67-.03-.01-.07-.03-.11-.05l-.09-.04c-1.46-.68-3.88-1.82-5.75-3.87-.83-.91-1.18-1.58-1.51-2.23-.38-.74-.74-1.44-1.81-2.49-.7-.68-1.52-1.48-2.81-2.13-1.38-.7-2.39-.77-3.28-.84-.95-.07-1.77-.13-2.66-.9-.6-.52-1.08-1.57-2.03-3.65l-.12-.26c-.13-.3-.25-.57-.36-.82-.44-1.05-.69-1.62-1.35-2.04-.43-.28-.79-.34-1.67-.5l-.57-.1c-2.02-.35-3.2-.57-4.18-.91-1.03-.33-2.96-1.16-4.22-2.96-.71-1-.86-1.82-1-2.54-.14-.76-.27-1.42-1.03-2.16-.22-.22-.34-.3-.62-.48-.33-.21-.83-.53-1.84-1.31l-.31-.24c-.69-.54-1.19-.93-1.7-1.41-.62-.58-1.78-1.65-2.58-3.25-.17-.35-1.62-3.47-.54-6.78.27-.83.56-1.24.82-1.6.27-.38.51-.72.68-1.53.17-.8.13-1.36.09-1.9-.05-.66-.1-1.33.22-2.34.16-.51.54-1.72,1.6-2.62.48-.41.84-.54,1.33-.71.33-.12.75-.27,1.35-.56,1.29-.63,2.13-1.03,2.7-1.74.54-.67.54-1.25.54-1.99,0-.61,0-1.3.31-2.14.92-2.55,3.61-3.81,5.06-4.49,1.47-.69,2.38-.83,3.18-.96.85-.13,1.58-.24,2.8-1.01.19-.12.41-.26.65-.44.65-1.83,1.33-2.96,2.09-3.43,2.21-1.35,3.66-2.84,4.18-3.42.95-1.08,1.19-1.79,1.45-2.6.25-.77.54-1.65,1.46-2.99.91-1.32,2.6-3.77,5.25-4.25.89-.16,1.57-.05,2.17.05.73.12,1.3.21,2.05-.21.81-.45,1.38-1.25,2.16-2.37.38-.54.6-.93.77-1.24.26-.46.44-.79.92-1.2,1.07-.89,2.31-1.07,2.84-1.15,1.05-.15,1.71,0,2.35.16.53.13,1.08.26,1.89.23.83-.04,1.19-.21,1.62-.42.4-.19.86-.41,1.72-.54.29-.04.58-.06.86-.08h0c2.84-.11,5.1,1.29,5.72,1.73,1.45,1.04,2.33,2.37,2.81,3.09.41.63.73,1.2,1.28,2.25.6,1.13.83,1.67.99,2.03.13.3.19.44.37.69.61.88,1.24,1.11,1.97,1.37.69.25,1.47.54,2.34,1.39,1.13,1.12,1.88,2.68,2.23,4.62.17,1.07.19,2.35.21,4.3v.41c0,1.02,0,1.41.22,1.91.29.71.8,1.04,1.73,1.63.24.16.51.33.8.53,2.12,1.41,3.07,2.06,3.5,2.75.62,1,.54,1.82.46,2.77-.08.89-.17,1.9.29,3.38.44,1.41,1.1,2.35,1.63,3.11.87,1.23,1.5,1.7,2.17,2.2.58.44,1.19.89,1.95,1.85,1.74,2.21,2.43,4.71,2.93,6.53.21.76.32,1.28.4,1.69.12.6.2,1,.53,1.72.48,1.07.92,1.53,1.42,2.07.43.46.91.98,1.49,1.93.75,1.25,2.46,4.11,1.4,6.71-.42,1.03-1.17,1.7-1.53,2.02-.62.55-1.16.69-1.73.85-.51.14-1.03.28-1.69.74-.32.22-.99.68-1.5,1.5-.34.54-.41.92-.47,1.31-.06.38-.13.77-.41,1.29-.62,1.13-1.8,2.04-3,2.31-.85.19-1.42.03-1.93-.12-.48-.14-.85-.25-1.39-.03-.8.33-1.27,1.15-1.87,2.18-.37.64-.48.99-.58,1.33-.1.32-.19.62-.47,1.07-.36.58-.81,1.08-1.34,1.5-.15.45-.32.8-.44,1.01-.89,1.66-2.04,2.77-3.42,3.34-.5.2-.81.25-1.14.29-.35.05-.71.1-1.4.36-1.12.42-2,.75-2.45,1.49-.3.49-.26.88-.2,1.37.06.53.13,1.12-.2,1.92-.47,1.14-1.56,2.15-2.77,2.58-1.16.39-1.55-.04-2.71.44-.9.37-1.46.96-1.73,1.24-.56.57-.78,1.07-1,1.55-.25.54-.48,1.05-1.11,1.56-.34.28-1.13.92-2.25,1.18-.33.08-.66.11-.98.11ZM76.66,32.43c-.24,0-.5.02-.79.07-2.4.43-4,2.75-4.86,3.99-.87,1.26-1.13,2.06-1.39,2.83-.28.84-.54,1.64-1.58,2.82-.54.6-2.04,2.15-4.32,3.54-.63.39-1.26,1.47-1.86,3.19l-.03.09-.07.06c-.29.23-.56.4-.78.54-1.33.84-2.16.96-3.04,1.1-.8.12-1.63.25-3.02.9-1.37.64-3.91,1.83-4.74,4.14-.27.75-.27,1.35-.27,1.94,0,.79,0,1.53-.67,2.37-.65.82-1.54,1.25-2.88,1.9-.65.32-1.09.47-1.44.59-.46.17-.75.27-1.14.6-.92.79-1.26,1.84-1.41,2.34-.28.89-.24,1.45-.2,2.11.04.56.09,1.19-.1,2.07-.2.94-.48,1.34-.78,1.76-.24.34-.49.7-.74,1.44-1,3.08.35,6,.51,6.32.75,1.5,1.86,2.53,2.45,3.08.48.46.97.84,1.65,1.37l.31.24c.99.76,1.47,1.07,1.79,1.27.29.19.46.3.72.56.9.88,1.04,1.66,1.2,2.49.13.69.27,1.41.9,2.3,1.16,1.65,2.95,2.42,3.91,2.73.93.33,2.1.54,4.09.88l.57.1c.91.16,1.37.24,1.9.58.82.51,1.12,1.23,1.59,2.31.1.25.22.51.35.81l.12.26c.89,1.94,1.37,3,1.87,3.44.73.63,1.39.68,2.3.75.9.07,2.03.15,3.52.9,1.37.7,2.26,1.56,2.91,2.2,1.19,1.17,1.58,1.94,1.97,2.69.33.64.65,1.25,1.42,2.1,1.65,1.81,3.64,2.83,5.54,3.72l.2.09c.72.33,1.2.52,1.58.66.59.22,1.02.39,1.73.86,1.06.71,1.49,1.28,1.95,1.88.38.5.77,1.01,1.57,1.69.93.8,3.4,2.92,5.85,2.36.97-.23,1.69-.81,2-1.06.52-.42.71-.84.94-1.33.23-.5.49-1.07,1.12-1.72.3-.31.92-.96,1.94-1.38,1.26-.53,1.69-.1,2.75-.45,1.05-.37,2-1.25,2.4-2.23.27-.65.21-1.14.16-1.62-.06-.54-.13-1.09.29-1.77.56-.92,1.58-1.3,2.76-1.74.75-.29,1.17-.34,1.53-.39.31-.04.56-.08.98-.25,1.88-.76,2.8-2.48,3.1-3.05.12-.22.29-.56.43-1.01l.03-.09.08-.06c.5-.38.93-.84,1.26-1.39.24-.39.32-.64.41-.93.11-.35.23-.75.64-1.45.63-1.09,1.17-2.03,2.17-2.44.74-.29,1.27-.14,1.79.01.46.13.93.27,1.62.11,1.04-.24,2.05-1.03,2.59-2.01.23-.43.29-.76.35-1.1.07-.44.15-.89.56-1.53.57-.93,1.32-1.44,1.67-1.68.74-.51,1.35-.68,1.88-.82.52-.14.97-.27,1.47-.71.33-.3,1.01-.9,1.38-1.81.94-2.31-.66-4.99-1.34-6.14-.56-.92-1-1.39-1.42-1.85-.52-.55-1-1.08-1.53-2.23-.36-.79-.45-1.24-.57-1.86-.08-.4-.18-.91-.39-1.65-.49-1.77-1.16-4.2-2.82-6.31-.71-.9-1.25-1.31-1.83-1.74-.67-.5-1.37-1.03-2.29-2.33-.54-.76-1.26-1.79-1.72-3.29-.5-1.59-.4-2.71-.32-3.61.08-.91.14-1.56-.37-2.39-.36-.57-1.33-1.24-3.32-2.56-.29-.2-.55-.37-.79-.52-.97-.62-1.6-1.03-1.97-1.91-.26-.61-.26-1.09-.26-2.14v-.41c-.02-1.91-.04-3.18-.2-4.17-.33-1.84-1.02-3.29-2.06-4.32-.77-.76-1.46-1.01-2.12-1.25-.79-.29-1.54-.56-2.27-1.6-.21-.3-.29-.49-.43-.8-.15-.35-.38-.88-.97-1.98-.54-1.03-.85-1.59-1.25-2.2-.49-.73-1.3-1.95-2.65-2.92-.58-.41-2.69-1.72-5.34-1.62-.26.02-.53.04-.8.08-.77.12-1.16.31-1.54.49-.46.22-.9.43-1.86.48-.89.04-1.51-.11-2.06-.24-.64-.16-1.19-.29-2.12-.15-.52.07-1.6.23-2.54,1.01-.39.33-.54.6-.78,1.03-.18.32-.41.73-.8,1.29-.83,1.18-1.43,2.03-2.36,2.55-.94.52-1.67.4-2.45.27-.37-.06-.75-.12-1.17-.12Z"/>
          </g>
          <path class="cls-3" d="M95.13,25.44c2.98-.12,5.31,1.52,5.54,1.67,1.39,1,2.24,2.27,2.72,3,.42.64.76,1.25,1.27,2.22,1.11,2.1.97,2.16,1.38,2.75,1.27,1.81,2.61,1.1,4.35,2.81,1.67,1.65,2.04,3.91,2.14,4.49.16,1,.18,2.2.2,4.22,0,1.35-.02,1.81.24,2.44.41.99,1.2,1.32,2.65,2.29,2.01,1.34,3.01,2.02,3.42,2.66,1.12,1.82-.26,3,.72,6.08.45,1.46,1.15,2.46,1.68,3.21,1.67,2.36,2.53,2.05,4.12,4.05,1.69,2.14,2.38,4.62,2.88,6.42.52,1.85.37,2.19.94,3.46.92,2.03,1.68,1.99,2.93,4.03.67,1.13,2.38,3.96,1.38,6.43-.4.98-1.12,1.61-1.46,1.92-1.08.95-1.94.56-3.38,1.55-.39.27-1.06.74-1.59,1.59-.7,1.1-.34,1.59-.9,2.62-.54.98-1.6,1.88-2.8,2.16-1.56.35-2.11-.64-3.36-.14-.89.37-1.38,1.21-2.02,2.31-.73,1.27-.5,1.49-1.05,2.39-.38.61-.85,1.1-1.34,1.47-.16.49-.34.86-.45,1.05-.29.54-1.27,2.39-3.26,3.2-.97.4-1.16.12-2.53.64-1.19.45-2.1.79-2.61,1.62-.71,1.15.19,1.86-.42,3.34-.47,1.13-1.53,2.03-2.59,2.41-1.11.37-1.52-.06-2.73.45-.92.38-1.5.96-1.83,1.31-1.21,1.26-.96,2.17-2.09,3.07-.35.29-1.1.88-2.13,1.13-2.61.59-5.13-1.57-6.12-2.42-1.81-1.55-1.64-2.3-3.5-3.55-1.16-.77-1.52-.68-3.26-1.49-.07-.03-.14-.07-.21-.1,1.39-.19,3.2-.47,5.58-.9,5.33-.97,6.3-1.43,7.18-2.24,2.25-2.04,1.21-3.82,3.99-7.26,1-1.24.82-.63,4.34-4.14,2.1-2.08,3.07-3.22,3.96-4.38.95-1.27,1.46-2.14,2.02-3.04,3.07-4.9,4.11-4.52,5.33-7.15.59-1.27,2-4.3,1.03-7.33-.63-1.93-1.59-1.91-2.57-4.49-.44-1.15-.63-2.55-1.03-5.35-.49-3.55-.33-3.97-.89-5.2-.87-1.92-1.61-1.62-2.55-3.47-.99-1.97-.96-3.9-.92-6.76.05-3.08.52-3.16.16-4.7-.41-1.74-1.32-3-2.71-4.9-1.54-2.12-1.81-1.87-2.68-3.33-.68-1.15-.9-1.93-1.93-5.3-.88-2.86-1.31-4.29-1.41-4.54-.68-1.91-2.13-3.24-3.81-4.26Z"/>
          <path class="cls-4" d="M52.1,61.8c-.99,1.77-1.58,2.98-2.44,4.75-1.23,2.51-1.45,2.96-1.58,3.85-.05.35-.22,1.63.17,3.23.15.62.72,2.67,2.54,4.35.9.83.92.48,1.69,1.24,1.17,1.16,1.72,2.58,2.55,4.74.48,1.26.43,1.35.72,1.8.5.76,1.13,1.22,3.08,2.23,3.57,1.86,4.1,1.69,4.34,1.57,1.02-.49,1.2-2.05,1.22-2.28.23-2.22-1.58-3.27-4.17-7.74-1.17-2.01-1.71-3.37-1.84-3.68-.57-1.44-1.28-3.28-1.29-5.65,0-.1.11-1.11.33-3.14.25-2.34.38-3.51.28-5.09-.15-2.33-.62-2.76-.84-2.92-.94-.67-2.33-.1-2.45-.05-.83.36-1.27.97-2.29,2.79Z"/>
          <path class="cls-4" d="M66.54,92.81c-.18.41-.13,1.15,2.33,3.77,2.69,2.86,4.03,4.3,5.17,4,1.5-.39,2.62-2.97,1.96-4.64-.36-.91-.88-.61-4.46-2.84-1.2-.74-1.89-1.25-2.96-1.21-.12,0-1.67.07-2.04.92Z"/>
        </g>
        <g>
          <g>
            <path class="cls-2" d="M31.15,86.26c2.53-1.58,5.37-1.3,5.64-1.28,1.7.18,3.07.87,3.85,1.27.69.35,1.28.72,2.2,1.31,2,1.27,1.91,1.4,2.56,1.71,2,.95,2.81-.34,5.17.29,2.26.61,3.71,2.39,4.08,2.84.63.79,1.24,1.82,2.26,3.57.67,1.17.88,1.59,1.41,2,.85.66,1.69.55,3.44.69,2.41.17,3.62.27,4.28.62,1.87,1.03,1.26,2.73,3.63,4.93,1.11,1.05,2.21,1.57,3.04,1.96,2.62,1.22,3.21.53,5.58,1.49,2.53,1.03,4.35,2.84,5.67,4.16,1.36,1.35,1.4,1.73,2.53,2.54,1.81,1.31,2.44.9,4.53,2.06,1.14.65,4.03,2.27,4.37,4.91.14,1.05-.17,1.95-.32,2.39-.47,1.36-1.41,1.45-2.17,3.02-.21.43-.56,1.17-.59,2.17-.06,1.31.49,1.55.52,2.72.02,1.12-.46,2.43-1.36,3.26-1.18,1.08-2.15.49-2.99,1.54-.59.76-.61,1.74-.62,3.01-.01,1.46.3,1.54.27,2.6-.03.72-.19,1.37-.44,1.94.1.51.13.91.13,1.13.01.61.07,2.7-1.26,4.39-.65.83-.95.68-1.88,1.81-.82.98-1.44,1.73-1.47,2.69-.05,1.34,1.08,1.52,1.28,3.11.15,1.21-.32,2.52-1.06,3.37-.78.87-1.35.7-2.15,1.74-.61.79-.83,1.58-.95,2.04-.44,1.69.23,2.36-.29,3.7-.17.42-.52,1.31-1.29,2.03-1.97,1.81-5.24,1.17-6.52.92-2.34-.45-2.56-1.19-4.79-1.36-1.38-.09-1.66.16-3.57.31-.08.01-.16.01-.23.02-1.85.15-4.29.3-6.78-.51-2.44-.79-2.45-1.72-5.23-2.47-.88-.23-2.06-.55-3.59-.48-3.23.15-3.86,1.85-5.95,1.43-.74-.15-1.72-.87-3.68-2.29-1.41-1.03-1.99-1.66-3.06-1.7-.68-.04-1.09.16-2.36.61-1.91.68-3.05,1.08-4.03,1.26-.57.12-2.82.54-4.94-.46-2.21-1.03-2-2.54-4.14-3.11-.7-.19-.71-.02-3.06-.34-1.08-.16-1.78-.25-2.53-.44-.85-.2-2.34-.56-3.75-1.51-.26-.17-3.01-2.1-3.69-5.43-.35-1.72.26-1.89-.25-3.49-.56-1.76-1.43-2-1.82-3.81-.12-.58-.35-1.7.09-2.9.34-.92.74-1.01,1.67-2.36.83-1.2,1.38-2,1.53-2.97.27-1.7-.97-2.2-1.31-4.11-.42-2.42,1.03-4.62,2.13-6.17,1.91-2.71,2.89-2.16,4.25-4.7.12-.22.26-.49.4-.82-.26-1.38-.42-3,.07-3.9,1.14-2.07,1.73-4.03,1.97-5.12.59-2.82-.51-3.04-.22-6.34.16-1.89.48-4.51,2.36-6.08,1.49-1.25,2.77-.82,3.66-2.3.51-.84.61-1.81.75-3.25.16-1.63-.09-1.96.25-2.88.45-1.2,1.34-1.91,1.81-2.26,1.47-1.14,2.28-.76,3.85-1.74,1.42-.89,1.07-1.41,2.46-2.5.23-.17.46-.33.68-.48Z"/>
            <path class="cls-5" d="M74.95,171.55c-1.16,0-2.2-.2-2.79-.32-1.1-.21-1.75-.49-2.33-.73-.68-.29-1.26-.53-2.43-.62-.78-.05-1.18,0-1.79.1-.42.07-.94.15-1.74.21-.03,0-.07,0-.12.01h-.1c-1.61.13-4.27.35-6.91-.52-1.17-.38-1.8-.79-2.42-1.19-.7-.45-1.35-.88-2.8-1.27-.95-.25-2.05-.54-3.5-.47-1.54.07-2.46.51-3.27.89-.86.41-1.6.76-2.76.53-.78-.16-1.71-.83-3.58-2.18l-.22-.16c-.27-.2-.5-.38-.72-.54-.9-.69-1.4-1.07-2.18-1.1-.51-.03-.86.09-1.7.4l-.55.19c-1.92.69-3.06,1.09-4.08,1.27-1.06.22-3.14.45-5.13-.49-1.11-.52-1.65-1.15-2.12-1.72-.5-.59-.93-1.1-1.96-1.37-.3-.08-.45-.09-.78-.11-.39-.02-.98-.05-2.24-.23l-.4-.06c-.87-.12-1.49-.21-2.17-.39-.82-.19-2.36-.56-3.85-1.55-.32-.22-3.13-2.22-3.82-5.63-.17-.85-.12-1.35-.08-1.8.05-.47.09-.87-.17-1.66-.25-.77-.56-1.24-.86-1.7-.37-.55-.74-1.11-.96-2.14-.11-.53-.38-1.76.1-3.07.22-.59.46-.88.81-1.28.23-.27.52-.6.9-1.15.81-1.18,1.34-1.95,1.48-2.85.13-.85-.15-1.35-.51-1.99-.3-.53-.64-1.13-.79-2.02-.46-2.67,1.26-5.1,2.18-6.4.93-1.33,1.66-1.9,2.3-2.4.67-.53,1.25-.99,1.94-2.27.11-.2.23-.43.35-.71-.34-1.92-.3-3.23.12-4.01,1.25-2.27,1.78-4.28,1.94-5.04.3-1.41.15-2.14-.02-2.98-.16-.8-.34-1.71-.2-3.32.14-1.59.4-4.56,2.47-6.29.69-.58,1.34-.82,1.92-1.03.69-.25,1.23-.45,1.68-1.19.48-.79.58-1.77.71-3.12.06-.66.06-1.1.06-1.46,0-.53,0-.91.21-1.5.49-1.31,1.48-2.07,1.91-2.4.84-.65,1.49-.84,2.13-1.02.52-.15,1.06-.3,1.75-.73.7-.44.93-.77,1.2-1.16.25-.37.54-.78,1.23-1.32.24-.18.47-.34.71-.49h0c2.41-1.51,5.07-1.4,5.83-1.33,1.77.19,3.2.91,3.97,1.3.73.37,1.35.76,2.23,1.32,1.08.68,1.55,1.04,1.86,1.27.26.2.38.29.66.42.97.46,1.63.35,2.39.22.73-.12,1.55-.26,2.72.06,1.54.41,2.96,1.4,4.22,2.92.67.84,1.29,1.89,2.3,3.63l.21.36c.51.89.7,1.22,1.13,1.55.6.47,1.21.5,2.32.56.29.02.6.03.96.06,2.54.18,3.69.28,4.41.66,1.03.57,1.37,1.32,1.77,2.18.37.82.79,1.74,1.92,2.79,1.08,1.01,2.12,1.51,2.96,1.9,1.37.64,2.15.74,2.97.84.72.09,1.47.19,2.61.65,2.6,1.06,4.43,2.89,5.77,4.23.56.56.91.95,1.18,1.27.4.47.67.77,1.31,1.24.95.69,1.55.88,2.26,1.1.6.19,1.27.4,2.25.94,1.26.71,4.17,2.36,4.53,5.14.14,1.11-.18,2.06-.33,2.52-.27.78-.66,1.17-1.08,1.59-.37.37-.76.76-1.11,1.48-.17.35-.53,1.08-.56,2.05-.03.64.1,1,.24,1.37.13.36.27.73.28,1.33.02,1.29-.56,2.66-1.46,3.49-.64.58-1.22.73-1.74.85-.48.12-.86.21-1.22.66-.53.68-.54,1.63-.55,2.82,0,.74.07,1.1.15,1.44.07.32.14.63.12,1.17-.03.68-.17,1.34-.43,1.96.09.47.11.85.12,1.1.04,1.88-.4,3.42-1.32,4.59-.33.42-.58.61-.84.81-.28.21-.57.43-1.04,1-.77.92-1.37,1.64-1.4,2.51-.02.58.21.89.5,1.29.31.43.67.91.78,1.77.15,1.22-.29,2.64-1.14,3.61-.4.44-.74.64-1.07.83-.35.2-.68.39-1.07.9-.6.76-.8,1.55-.89,1.93-.2.77-.15,1.32-.11,1.84.05.59.1,1.15-.2,1.9-.16.41-.53,1.36-1.37,2.14-1.13,1.03-2.64,1.31-4,1.31ZM66.88,169.24c.17,0,.36,0,.58.02,1.27.1,1.93.38,2.62.67.58.24,1.17.49,2.2.69,1.2.23,4.39.86,6.25-.84.73-.68,1.07-1.54,1.21-1.91.25-.62.21-1.09.16-1.62-.05-.55-.1-1.17.12-2.04.11-.42.33-1.29,1-2.16.47-.61.87-.83,1.25-1.05.3-.17.59-.33.92-.7.73-.84,1.12-2.07.99-3.13-.09-.7-.38-1.1-.66-1.48-.32-.44-.65-.89-.62-1.68.04-1.08.73-1.91,1.54-2.88.51-.62.85-.87,1.14-1.1.25-.19.45-.34.73-.7,1.25-1.59,1.21-3.54,1.19-4.18,0-.26-.03-.63-.12-1.1l-.02-.1.04-.09c.25-.58.39-1.19.41-1.83.01-.46-.04-.71-.11-1.01-.08-.36-.17-.77-.16-1.58,0-1.26.02-2.34.68-3.2.5-.62,1.04-.75,1.56-.88.46-.11.94-.23,1.47-.7.78-.72,1.28-1.91,1.26-3.03-.01-.49-.12-.8-.24-1.13-.15-.42-.31-.85-.27-1.61.04-1.1.43-1.9.62-2.29.39-.81.84-1.25,1.23-1.64.38-.38.71-.71.93-1.34.14-.42.43-1.28.31-2.25-.32-2.48-3.04-4.02-4.2-4.67-.94-.52-1.55-.71-2.15-.9-.72-.23-1.4-.44-2.43-1.19-.7-.51-1-.85-1.42-1.33-.27-.31-.6-.7-1.15-1.24-1.3-1.3-3.09-3.08-5.57-4.1-1.06-.43-1.73-.52-2.45-.61-.83-.11-1.7-.21-3.15-.89-.84-.4-1.98-.94-3.12-2.01-1.22-1.13-1.69-2.16-2.06-2.99-.38-.83-.65-1.43-1.5-1.9-.6-.32-1.77-.42-4.16-.59-.35-.03-.66-.04-.95-.06-1.15-.06-1.9-.11-2.66-.69-.53-.4-.76-.82-1.29-1.73l-.2-.36c-1-1.71-1.6-2.75-2.23-3.53-1.19-1.44-2.51-2.36-3.92-2.74-1.05-.28-1.77-.16-2.46-.04-.83.14-1.62.27-2.76-.27-.33-.16-.5-.28-.77-.48-.31-.23-.77-.58-1.82-1.25-.86-.55-1.48-.94-2.17-1.29-.78-.4-2.09-1.06-3.74-1.23-.5-.05-3.14-.21-5.44,1.23-.22.14-.44.3-.66.46-.61.48-.86.84-1.1,1.18-.29.42-.57.82-1.38,1.33-.76.48-1.37.65-1.91.81-.63.18-1.18.34-1.92.92-.42.32-1.28.99-1.71,2.13-.18.49-.17.79-.17,1.28,0,.37,0,.83-.06,1.52-.14,1.44-.24,2.47-.79,3.38-.56.92-1.25,1.18-1.99,1.45-.55.2-1.12.41-1.73.93-1.73,1.44-2.07,3.78-2.25,5.87-.13,1.53.03,2.35.19,3.15.18.87.34,1.69.02,3.23-.17.79-.72,2.88-2.01,5.21-.36.66-.37,1.9-.04,3.69l.02.09-.03.08c-.14.34-.29.62-.41.85-.74,1.38-1.4,1.9-2.1,2.46-.63.5-1.29,1.02-2.17,2.28-.87,1.23-2.5,3.52-2.08,5.94.14.78.44,1.31.72,1.82.39.69.75,1.33.59,2.39-.16,1.04-.72,1.85-1.57,3.08-.41.6-.71.94-.95,1.22-.32.37-.52.6-.69,1.09-.41,1.14-.18,2.22-.07,2.73.19.92.51,1.38.87,1.93.31.47.67.99.94,1.85.29.91.24,1.4.19,1.91-.04.42-.08.85.07,1.61.65,3.17,3.27,5.04,3.57,5.24,1.39.93,2.86,1.28,3.65,1.47.65.16,1.26.25,2.11.37l.39.06c1.23.17,1.81.2,2.19.22.34.02.55.03.91.13,1.21.32,1.73.93,2.27,1.57.46.54.93,1.1,1.92,1.56,1.9.9,3.96.61,4.75.44.98-.18,2.1-.57,3.99-1.25l.55-.19c.87-.31,1.31-.46,1.94-.43.97.04,1.58.51,2.52,1.23.21.16.45.34.71.53l.22.16c1.74,1.25,2.69,1.94,3.34,2.08.95.19,1.54-.09,2.37-.48.82-.39,1.84-.87,3.5-.95,1.54-.08,2.74.24,3.62.47,1.6.43,2.33.91,3.04,1.37.61.4,1.18.77,2.27,1.12,2.33.76,4.57.66,6.66.5l.21-.02c.79-.06,1.3-.14,1.71-.21.47-.07.84-.13,1.35-.13Z"/>
          </g>
          <path class="cls-3" d="M31.15,86.26c2.53-1.58,5.37-1.3,5.64-1.28,1.7.18,3.07.87,3.85,1.27.69.35,1.28.72,2.2,1.31,2,1.27,1.91,1.4,2.56,1.71,2,.95,2.81-.34,5.17.29,2.26.61,3.71,2.39,4.08,2.84.63.79,1.24,1.82,2.26,3.57.67,1.17.88,1.59,1.41,2,.85.66,1.69.55,3.44.69,2.41.17,3.62.27,4.28.62,1.87,1.03,1.26,2.73,3.63,4.93,1.11,1.05,2.21,1.57,3.04,1.96,2.62,1.22,3.21.53,5.58,1.49,2.53,1.03,4.35,2.84,5.67,4.16,1.36,1.35,1.4,1.73,2.53,2.54,1.81,1.31,2.44.9,4.53,2.06,1.14.65,4.03,2.27,4.37,4.91.14,1.05-.17,1.95-.32,2.39-.47,1.36-1.41,1.45-2.17,3.02-.21.43-.56,1.17-.59,2.17-.06,1.31.49,1.55.52,2.72.02,1.12-.46,2.43-1.36,3.26-1.18,1.08-2.15.49-2.99,1.54-.59.76-.61,1.74-.62,3.01-.01,1.46.3,1.54.27,2.6-.03.72-.19,1.37-.44,1.94.1.51.13.91.13,1.13.01.61.07,2.7-1.26,4.39-.65.83-.95.68-1.88,1.81-.82.98-1.44,1.73-1.47,2.69-.05,1.34,1.08,1.52,1.28,3.11.15,1.21-.32,2.52-1.06,3.37-.78.87-1.35.7-2.15,1.74-.61.79-.83,1.58-.95,2.04-.44,1.69.23,2.36-.29,3.7-.17.42-.52,1.31-1.29,2.03-1.97,1.81-5.24,1.17-6.52.92-2.34-.45-2.56-1.19-4.79-1.36-1.38-.09-1.66.16-3.57.31-.08.01-.16.01-.23.02,1.11-.85,2.55-1.99,4.41-3.54,4.15-3.48,4.77-4.36,5.14-5.5.95-2.88-.83-3.92-.12-8.28.26-1.58.4-.95,1.73-5.75.79-2.85,1.08-4.31,1.28-5.77.2-1.58.21-2.58.25-3.64.25-5.77,1.34-5.96,1.1-8.85-.11-1.4-.39-4.73-2.73-6.88-1.5-1.36-2.32-.87-4.46-2.63-.95-.78-1.81-1.9-3.54-4.14-2.18-2.84-2.25-3.29-3.34-4.08-1.71-1.24-2.2-.61-3.93-1.75-1.84-1.22-2.76-2.92-4.14-5.42-1.48-2.7-1.11-3.01-2.18-4.17-1.21-1.31-2.63-1.96-4.78-2.92-2.39-1.08-2.5-.73-3.98-1.58-1.16-.66-1.74-1.23-4.3-3.65-2.18-2.05-3.26-3.09-3.47-3.25-1.53-1.32-3.45-1.76-5.42-1.82Z"/>
          <path class="cls-4" d="M11.7,139.14c.01,2.03.1,3.38.22,5.34.17,2.79.2,3.29.53,4.13.13.33.61,1.53,1.74,2.72.44.46,1.94,1.97,4.36,2.53,1.2.28,1.04-.04,2.08.24,1.59.43,2.77,1.39,4.56,2.86,1.04.86,1.04.96,1.52,1.21.82.42,1.59.5,3.78.42,4.02-.15,4.4-.56,4.55-.78.64-.92.03-2.37-.06-2.58-.9-2.05-2.99-2.07-7.45-4.67-2.01-1.17-3.15-2.08-3.42-2.29-1.21-.97-2.73-2.22-3.91-4.27-.05-.09-.46-1.02-1.27-2.89-.94-2.16-1.4-3.25-2.27-4.57-1.28-1.95-1.9-2.09-2.18-2.12-1.15-.12-2.07,1.06-2.15,1.17-.54.72-.62,1.47-.61,3.56Z"/>
          <path class="cls-4" d="M39.58,158.96c.05.45.45,1.06,3.89,2.12,3.75,1.16,5.63,1.74,6.47.92,1.11-1.08.81-3.88-.59-5-.76-.61-1.07-.1-5.28-.27-1.41-.06-2.26-.15-3.17.41-.1.06-1.42.89-1.31,1.81Z"/>
        </g>
        <g>
          <g>
            <path class="cls-2" d="M3.92,172.94c1.25-2.71,3.77-4.04,4.01-4.17,1.52-.78,3.04-.96,3.91-1.06.76-.09,1.46-.1,2.56-.12,2.37-.04,2.36.12,3.08.02,2.19-.3,2.16-1.83,4.48-2.6,2.22-.73,4.41-.04,4.97.13.96.31,2.04.84,3.85,1.74,1.21.61,1.6.84,2.28.89,1.07.08,1.72-.47,3.25-1.32,2.11-1.18,3.17-1.77,3.92-1.83,2.13-.17,2.55,1.59,5.74,2.12,1.51.26,2.71.09,3.62-.04,2.86-.42,2.98-1.33,5.48-1.82,2.68-.53,5.2-.02,7.03.36,1.88.38,2.12.67,3.51.73,2.23.1,2.53-.6,4.92-.77,1.31-.09,4.61-.32,6.35,1.7.69.8.93,1.73,1.05,2.17.36,1.4-.38,1.98-.15,3.71.06.47.18,1.29.7,2.14.67,1.12,1.26,1.02,1.93,1.99.63.93.95,2.28.65,3.47-.4,1.55-1.53,1.59-1.65,2.93-.08.96.45,1.78,1.14,2.85.79,1.23,1.1,1.12,1.65,2.02.37.61.59,1.25.7,1.86.37.37.61.69.73.88.35.5,1.55,2.22,1.37,4.36-.09,1.05-.42,1.09-.58,2.54-.15,1.26-.25,2.23.25,3.06.7,1.15,1.74.68,2.78,1.89.79.93,1.12,2.28.96,3.4-.17,1.16-.74,1.33-.84,2.64-.08.99.17,1.77.33,2.23.57,1.65,1.49,1.85,1.79,3.26.1.45.29,1.38.03,2.41-.66,2.59-3.74,3.86-4.94,4.35-2.21.91-2.79.42-4.75,1.5-1.21.68-1.3,1.05-2.81,2.23-.06.05-.12.1-.18.15-1.46,1.14-3.42,2.61-5.94,3.3-2.47.68-2.99-.09-5.73.81-.86.29-2.03.67-3.26,1.57-2.61,1.9-2.21,3.66-4.18,4.46-.7.28-1.92.22-4.33.11-1.75-.09-2.57-.29-3.49.26-.59.34-.82.73-1.64,1.81-1.22,1.62-1.95,2.58-2.67,3.27-.41.41-2.06,2-4.39,2.33-2.42.35-3.07-1.02-5.17-.32-.69.22-.6.37-2.74,1.39-.99.46-1.62.77-2.35,1.03-.82.3-2.26.82-3.97.8-.31,0-3.67-.1-6.07-2.51-1.24-1.25-.82-1.72-2.13-2.78-1.44-1.16-2.3-.88-3.61-2.18-.42-.42-1.23-1.23-1.52-2.47-.23-.95.06-1.25.1-2.89.03-1.46.05-2.43-.35-3.33-.71-1.57-2.02-1.3-3.35-2.71-1.68-1.79-1.68-4.42-1.61-6.33.11-3.32,1.22-3.4.97-6.26-.02-.25-.05-.56-.12-.9-.97-1.02-2-2.28-2.08-3.3-.18-2.35-.77-4.32-1.17-5.37-1.06-2.68-2.09-2.26-3.67-5.18-.9-1.67-2.08-4.03-1.37-6.37.56-1.86,1.86-2.21,1.79-3.93-.03-.98-.48-1.85-1.16-3.13-.77-1.45-1.15-1.59-1.38-2.55-.28-1.25.07-2.33.26-2.88.6-1.77,1.49-1.89,2.26-3.57.7-1.53.12-1.76.68-3.44.1-.26.2-.53.31-.77Z"/>
            <path class="cls-5" d="M27.23,246.1s-.05,0-.07,0c-.39,0-3.83-.13-6.29-2.6-.61-.62-.85-1.06-1.06-1.46-.22-.42-.41-.78-1.05-1.3-.63-.51-1.15-.73-1.65-.94-.61-.26-1.23-.52-1.98-1.26-.38-.38-1.28-1.27-1.61-2.62-.15-.61-.1-.99-.03-1.51.05-.35.1-.79.12-1.45.03-1.44.05-2.37-.33-3.19-.35-.78-.87-1.05-1.53-1.38-.54-.28-1.15-.59-1.77-1.25-1.85-1.98-1.75-4.95-1.7-6.55.05-1.62.34-2.5.6-3.27.27-.81.5-1.52.37-2.96-.02-.23-.04-.49-.1-.78-1.34-1.41-2.03-2.53-2.1-3.42-.2-2.58-.87-4.55-1.15-5.28-.53-1.34-1.05-1.87-1.66-2.48-.57-.58-1.23-1.23-2-2.66-.76-1.41-2.18-4.03-1.39-6.61.26-.87.67-1.42,1.03-1.91.44-.59.78-1.06.75-1.92-.03-.93-.47-1.75-1.13-3-.31-.58-.56-.95-.75-1.25-.29-.44-.51-.75-.65-1.37-.31-1.36.1-2.55.27-3.06.34-1.01.79-1.52,1.22-2.02.35-.41.72-.84,1.06-1.58.34-.75.35-1.16.37-1.63.01-.44.02-.95.3-1.78.1-.28.21-.55.32-.8h0c1.19-2.59,3.47-3.96,4.14-4.31,1.58-.81,3.17-1,4.03-1.1.81-.09,1.55-.11,2.59-.12,1.28-.02,1.87.02,2.26.04.33.02.48.03.78-.01,1.06-.15,1.55-.6,2.12-1.13.54-.5,1.15-1.07,2.31-1.45,1.52-.5,3.24-.46,5.13.12,1.03.33,2.11.87,3.92,1.77l.37.18c.92.46,1.26.64,1.8.68.76.06,1.29-.25,2.24-.8.25-.14.52-.3.83-.48,2.22-1.24,3.24-1.8,4.04-1.87,1.18-.09,1.87.35,2.68.85.76.48,1.62,1.02,3.14,1.27,1.45.25,2.59.09,3.51-.04,1.5-.22,2.2-.56,2.95-.93.65-.32,1.33-.65,2.53-.89,2.75-.54,5.29-.02,7.15.36.77.16,1.28.3,1.69.41.59.17.98.28,1.78.31,1.17.05,1.78-.12,2.49-.32.6-.17,1.28-.37,2.39-.45,1.32-.09,4.78-.32,6.61,1.81.73.85.98,1.81,1.11,2.28.21.8.09,1.35-.03,1.93-.11.52-.22,1.05-.11,1.84.05.39.15,1.19.66,2.02.33.55.63.78.95,1.02.31.23.63.47.96.96.72,1.07,1,2.53.7,3.72-.21.84-.62,1.28-.99,1.66-.34.36-.61.65-.66,1.22-.07.87.44,1.66,1.09,2.66.4.62.66.88.92,1.12.24.23.46.45.74.91.35.58.6,1.21.72,1.87.33.34.56.65.7.85,1.07,1.55,1.54,3.08,1.42,4.56-.04.53-.15.83-.26,1.14-.12.33-.24.68-.32,1.41-.14,1.19-.24,2.12.21,2.86.3.49.67.63,1.13.8.5.18,1.06.39,1.62,1.05.8.94,1.21,2.37,1.04,3.64-.09.59-.27.94-.44,1.28-.18.36-.35.69-.4,1.34-.08.97.19,1.73.32,2.1.26.76.6,1.18.92,1.6.37.46.71.9.88,1.7.09.43.31,1.43.03,2.54-.7,2.75-3.91,4.07-5.12,4.56-1.03.42-1.73.55-2.34.67-.72.13-1.35.25-2.37.82-.68.39-.98.66-1.44,1.07-.31.29-.71.64-1.33,1.13-.02.02-.06.05-.09.07l-.08.06c-1.27.99-3.38,2.63-6.06,3.36-1.19.33-1.94.33-2.67.33-.83,0-1.62,0-3.04.48-.93.31-2.01.68-3.18,1.53-1.25.91-1.77,1.78-2.24,2.54-.49.81-.92,1.52-2.01,1.96-.74.3-1.89.25-4.18.15h-.28c-.33-.03-.63-.05-.9-.07-1.14-.08-1.76-.12-2.43.28-.44.26-.67.55-1.2,1.26l-.35.46c-1.23,1.63-1.96,2.59-2.71,3.31-.76.77-2.38,2.11-4.55,2.41-1.21.18-2.01-.06-2.72-.27-.74-.22-1.38-.41-2.39-.07-.29.1-.42.17-.71.34-.34.2-.85.5-2,1.04l-.36.17c-.8.37-1.37.64-2.03.87-.78.29-2.24.82-4,.82ZM4.2,173.07c-.11.24-.21.49-.3.75-.24.74-.25,1.17-.27,1.59-.01.51-.03,1-.42,1.87-.37.82-.79,1.3-1.15,1.72-.43.5-.8.93-1.1,1.82-.17.5-.53,1.53-.26,2.72.12.5.29.75.56,1.17.21.31.46.69.79,1.3.67,1.27,1.16,2.2,1.2,3.26.04,1.07-.4,1.67-.87,2.3-.35.47-.71.96-.94,1.73-.71,2.34.63,4.81,1.34,6.14.73,1.35,1.32,1.95,1.89,2.52.63.63,1.22,1.23,1.79,2.69.29.76.98,2.8,1.19,5.46.06.74.73,1.79,2,3.11l.06.06.02.09c.07.36.1.67.12.94.14,1.57-.12,2.36-.4,3.2-.25.77-.52,1.56-.57,3.1-.05,1.51-.15,4.31,1.53,6.11.54.58,1.08.85,1.6,1.12.7.36,1.36.7,1.8,1.68.44.96.41,1.94.38,3.43-.02.73-.08,1.18-.12,1.55-.06.49-.1.78.02,1.29.28,1.18,1.07,1.95,1.44,2.32.66.66,1.18.88,1.79,1.13.52.22,1.1.46,1.8,1.03.75.6.97,1.03,1.21,1.49.19.37.4.76.95,1.31,2.29,2.3,5.5,2.41,5.86,2.42,1.67-.01,3.09-.5,3.85-.78.63-.22,1.2-.48,1.97-.85l.35-.17c1.12-.53,1.62-.83,1.95-1.02.29-.17.47-.28.83-.39,1.19-.4,1.95-.17,2.76.06.68.2,1.38.41,2.46.25,2.08-.29,3.64-1.67,4.21-2.24.72-.68,1.44-1.63,2.65-3.24l.35-.46c.56-.74.84-1.11,1.38-1.42.83-.5,1.61-.44,2.78-.36.27.02.56.04.88.06h.28c2.13.1,3.31.15,3.92-.09.9-.36,1.24-.93,1.71-1.71.47-.77,1.06-1.74,2.4-2.72,1.25-.91,2.42-1.31,3.28-1.6,1.58-.52,2.45-.53,3.29-.53.72,0,1.41,0,2.51-.31,2.36-.65,4.18-1.96,5.84-3.25.02-.02.06-.05.09-.07l.08-.06c.62-.48,1-.83,1.31-1.11.47-.43.81-.73,1.55-1.15,1.11-.62,1.82-.75,2.56-.88.61-.11,1.25-.23,2.22-.63,1.13-.46,4.14-1.7,4.76-4.14.24-.97.05-1.88-.04-2.27-.14-.65-.43-1.02-.76-1.44-.34-.43-.73-.92-1.02-1.78-.14-.41-.44-1.26-.35-2.35.06-.76.27-1.17.47-1.57.16-.31.31-.6.38-1.09.15-1.1-.2-2.34-.89-3.16-.46-.54-.92-.71-1.37-.87-.51-.19-1.03-.38-1.44-1.06-.56-.92-.44-2-.3-3.25.09-.8.23-1.2.35-1.54.1-.3.19-.53.23-.99.17-2.02-.94-3.62-1.3-4.15-.14-.21-.37-.51-.71-.85l-.07-.07-.02-.1c-.11-.62-.33-1.21-.66-1.75-.24-.39-.43-.57-.65-.79-.26-.26-.56-.55-1-1.23-.68-1.06-1.28-1.97-1.19-3.04.07-.79.46-1.2.82-1.59.33-.35.66-.71.84-1.39.26-1.03.02-2.3-.61-3.22-.28-.41-.54-.6-.82-.81-.36-.26-.72-.54-1.11-1.19-.57-.94-.68-1.83-.74-2.26-.12-.9,0-1.51.12-2.05.11-.53.21-.99.04-1.63-.11-.43-.35-1.31-.98-2.05-1.63-1.89-4.75-1.69-6.08-1.6-1.07.08-1.69.26-2.29.43-.73.21-1.42.4-2.69.35-.86-.04-1.3-.16-1.92-.34-.4-.11-.89-.25-1.64-.4-1.8-.37-4.27-.88-6.91-.36-1.12.22-1.73.52-2.38.84-.76.37-1.54.75-3.12.98-.92.13-2.17.3-3.71.04-1.64-.27-2.6-.88-3.36-1.36-.77-.49-1.33-.84-2.3-.76-.68.06-1.71.63-3.8,1.8-.31.17-.58.33-.82.47-.99.58-1.65.96-2.6.88-.66-.05-1.09-.27-2.03-.74l-.36-.18c-1.78-.88-2.85-1.42-3.8-1.72-1.79-.55-3.39-.59-4.78-.13-1.03.34-1.56.84-2.08,1.32-.62.57-1.2,1.12-2.45,1.29-.36.05-.57.04-.9.02-.38-.02-.96-.06-2.21-.04-1.02.01-1.75.03-2.53.11-.87.1-2.33.27-3.81,1.03-.45.24-2.73,1.55-3.87,4.02Z"/>
          </g>
          <path class="cls-3" d="M3.92,172.94c1.25-2.71,3.77-4.04,4.01-4.17,1.52-.78,3.04-.96,3.91-1.06.76-.09,1.46-.1,2.56-.12,2.37-.04,2.36.12,3.08.02,2.19-.3,2.16-1.83,4.48-2.6,2.22-.73,4.41-.04,4.97.13.96.31,2.04.84,3.85,1.74,1.21.61,1.6.84,2.28.89,1.07.08,1.72-.47,3.25-1.32,2.11-1.18,3.17-1.77,3.92-1.83,2.13-.17,2.55,1.59,5.74,2.12,1.51.26,2.71.09,3.62-.04,2.86-.42,2.98-1.33,5.48-1.82,2.68-.53,5.2-.02,7.03.36,1.88.38,2.12.67,3.51.73,2.23.1,2.53-.6,4.92-.77,1.31-.09,4.61-.32,6.35,1.7.69.8.93,1.73,1.05,2.17.36,1.4-.38,1.98-.15,3.71.06.47.18,1.29.7,2.14.67,1.12,1.26,1.02,1.93,1.99.63.93.95,2.28.65,3.47-.4,1.55-1.53,1.59-1.65,2.93-.08.96.45,1.78,1.14,2.85.79,1.23,1.1,1.12,1.65,2.02.37.61.59,1.25.7,1.86.37.37.61.69.73.88.35.5,1.55,2.22,1.37,4.36-.09,1.05-.42,1.09-.58,2.54-.15,1.26-.25,2.23.25,3.06.7,1.15,1.74.68,2.78,1.89.79.93,1.12,2.28.96,3.4-.17,1.16-.74,1.33-.84,2.64-.08.99.17,1.77.33,2.23.57,1.65,1.49,1.85,1.79,3.26.1.45.29,1.38.03,2.41-.66,2.59-3.74,3.86-4.94,4.35-2.21.91-2.79.42-4.75,1.5-1.21.68-1.3,1.05-2.81,2.23-.06.05-.12.1-.18.15.46-1.32,1.04-3.06,1.74-5.38,1.56-5.19,1.59-6.26,1.27-7.42-.79-2.93-2.85-2.81-4.65-6.85-.65-1.46-.19-1.01-1.71-5.75-.9-2.82-1.47-4.2-2.1-5.52-.7-1.43-1.24-2.27-1.79-3.18-2.96-4.96-2.16-5.71-3.95-8-.86-1.11-2.92-3.74-6.06-4.25-2-.31-2.42.55-5.17.25-1.23-.13-2.56-.59-5.23-1.51-3.39-1.17-3.69-1.51-5.04-1.57-2.11-.1-2.17.7-4.25.7-2.21-.01-3.91-.92-6.44-2.25-2.72-1.44-2.58-1.9-4.12-2.28-1.74-.43-3.28-.19-5.6.19-2.59.41-2.49.76-4.19.87-1.33.09-2.13-.08-5.6-.69-2.95-.52-4.42-.79-4.68-.81-2.01-.26-3.85.42-5.53,1.46Z"/>
          <path class="cls-4" d="M16.74,227.8c1.12,1.69,1.94,2.77,3.12,4.34,1.68,2.23,1.97,2.63,2.71,3.16.29.2,1.35.94,2.95,1.32.62.15,2.7.57,5.03-.28,1.15-.42.84-.6,1.87-.94,1.56-.51,3.08-.36,5.38-.11,1.34.15,1.4.23,1.93.17.91-.1,1.6-.45,3.39-1.73,3.28-2.34,3.37-2.88,3.37-3.15.03-1.13-1.28-2-1.47-2.13-1.87-1.22-3.63-.09-8.79.2-2.33.13-3.78,0-4.11-.04-1.55-.15-3.5-.35-5.62-1.42-.09-.04-.94-.6-2.65-1.72-1.97-1.29-2.96-1.94-4.41-2.57-2.14-.93-2.74-.7-2.98-.58-1.03.53-1.15,2.03-1.15,2.16-.06.9.29,1.57,1.44,3.31Z"/>
          <path class="cls-4" d="M50.92,229.04c.29.35.96.64,4.41-.36,3.77-1.09,5.66-1.64,5.92-2.79.33-1.51-1.46-3.68-3.24-3.85-.97-.09-.95.51-4.56,2.68-1.21.73-1.97,1.12-2.42,2.09-.05.11-.7,1.52-.1,2.23Z"/>
        </g>
        <g>
          <g>
            <path class="cls-2" d="M25.59,258.22c-.08-2.98,1.59-5.29,1.75-5.51,1.02-1.38,2.3-2.21,3.04-2.68.65-.42,1.26-.74,2.24-1.24,2.11-1.09,2.17-.94,2.77-1.34,1.83-1.24,1.13-2.6,2.87-4.31,1.67-1.64,3.93-1.99,4.51-2.09,1-.15,2.2-.15,4.22-.14,1.35,0,1.81.05,2.44-.21,1-.4,1.33-1.18,2.33-2.62,1.36-1.99,2.06-2.99,2.7-3.38,1.83-1.09,2.99.3,6.09-.64,1.47-.43,2.47-1.12,3.23-1.64,2.38-1.64,2.08-2.51,4.11-4.06,2.17-1.66,4.65-2.32,6.46-2.79,1.86-.49,2.2-.34,3.47-.9,2.04-.9,2.01-1.66,4.07-2.87,1.13-.66,3.99-2.33,6.45-1.29.97.41,1.6,1.14,1.9,1.49.94,1.09.54,1.95,1.51,3.4.26.4.73,1.07,1.57,1.61,1.1.71,1.58.36,2.61.93.97.55,1.86,1.63,2.12,2.82.33,1.57-.66,2.11-.18,3.36.36.9,1.19,1.4,2.29,2.05,1.26.75,1.48.52,2.38,1.08.6.39,1.09.86,1.45,1.36.49.17.85.35,1.04.46.53.3,2.37,1.3,3.16,3.31.39.98.11,1.16.61,2.54.43,1.2.77,2.11,1.58,2.63,1.14.72,1.86-.16,3.33.46,1.12.48,2.01,1.55,2.37,2.62.36,1.12-.08,1.52.41,2.74.37.93.94,1.51,1.28,1.85,1.24,1.23,2.16.99,3.05,2.13.28.36.87,1.11,1.1,2.14.56,2.62-1.64,5.11-2.5,6.09-1.58,1.79-2.32,1.61-3.59,3.45-.78,1.15-.7,1.52-1.53,3.24-.03.07-.07.14-.1.21-.81,1.67-1.91,3.85-3.87,5.59-1.92,1.7-2.72,1.24-4.77,3.27-.65.65-1.52,1.5-2.23,2.86-1.5,2.86-.36,4.26-1.77,5.85-.51.56-1.62,1.04-3.83,2.02-1.6.69-2.43.88-3.02,1.78-.38.56-.41,1.02-.67,2.35-.37,1.99-.61,3.17-.95,4.12-.19.55-.96,2.71-2.9,4.03-2.01,1.39-3.21.44-4.77,2-.52.5-.38.6-1.84,2.46-.68.86-1.11,1.41-1.65,1.96-.6.63-1.67,1.73-3.2,2.47-.28.13-3.34,1.54-6.56.44-1.66-.57-1.5-1.18-3.14-1.55-1.8-.41-2.45.23-4.2-.36-.56-.19-1.64-.56-2.46-1.54-.63-.76-.5-1.15-1.19-2.63-.62-1.33-1.03-2.2-1.79-2.83-1.33-1.09-2.39-.27-4.21-.95-2.3-.86-3.47-3.22-4.25-4.96-1.37-3.02-.41-3.59-1.91-6.05-.13-.22-.29-.48-.51-.76-1.32-.48-2.8-1.16-3.33-2.03-1.21-2.03-2.6-3.53-3.42-4.29-2.13-1.93-2.88-1.1-5.58-3.02-1.55-1.1-3.65-2.69-4.05-5.11-.32-1.92.69-2.81-.13-4.32-.47-.87-1.25-1.44-2.43-2.29-1.33-.96-1.74-.92-2.36-1.67-.81-.99-.97-2.12-1.04-2.7-.24-1.85.5-2.35.45-4.2-.05-1.68-.67-1.63-.92-3.38-.03-.28-.05-.56-.07-.83Z"/>
            <path class="cls-5" d="M74.71,314.4c-.84,0-1.75-.12-2.67-.43-.82-.28-1.23-.58-1.59-.84-.38-.28-.71-.52-1.52-.7-.79-.18-1.36-.15-1.9-.11-.66.04-1.33.08-2.33-.25-.51-.17-1.71-.57-2.6-1.64-.4-.49-.52-.84-.69-1.34-.12-.34-.26-.76-.54-1.36-.61-1.3-1-2.14-1.71-2.72-.66-.54-1.25-.55-1.98-.56-.61,0-1.3-.02-2.14-.33-2.54-.95-3.76-3.66-4.42-5.12-.67-1.48-.8-2.39-.91-3.2-.12-.85-.22-1.58-.98-2.82-.12-.19-.26-.42-.43-.66-1.83-.67-2.94-1.37-3.4-2.13-1.32-2.23-2.8-3.7-3.37-4.23-1.07-.97-1.77-1.21-2.58-1.49-.77-.26-1.65-.56-2.97-1.5-1.31-.93-3.74-2.65-4.18-5.31-.15-.89-.03-1.57.08-2.17.13-.72.23-1.29-.18-2.05-.44-.82-1.19-1.36-2.34-2.19-.54-.39-.92-.61-1.23-.79-.46-.26-.79-.45-1.19-.94-.88-1.08-1.04-2.33-1.11-2.86-.14-1.05.03-1.71.19-2.35.14-.53.27-1.07.25-1.88-.03-.83-.2-1.2-.39-1.62-.19-.4-.4-.86-.52-1.73-.03-.29-.06-.58-.07-.86h0c-.08-2.84,1.36-5.08,1.8-5.7,1.06-1.43,2.35-2.27,3.12-2.77.69-.44,1.35-.78,2.27-1.25,1.13-.58,1.68-.81,2.04-.96.3-.13.44-.19.7-.36.89-.6,1.12-1.23,1.4-1.95.26-.69.56-1.47,1.42-2.32,1.14-1.12,2.7-1.85,4.65-2.16,1.07-.16,2.29-.16,4.3-.15h.42c1.02.01,1.4.02,1.91-.19.71-.28,1.04-.79,1.66-1.71.16-.24.33-.51.54-.8,1.44-2.1,2.11-3.05,2.8-3.47,1.01-.6,1.83-.52,2.78-.42.89.09,1.9.2,3.38-.25,1.42-.42,2.37-1.07,3.13-1.59,1.25-.86,1.73-1.48,2.23-2.14.44-.58.9-1.17,1.87-1.92,2.23-1.71,4.74-2.36,6.57-2.84.76-.2,1.28-.3,1.7-.38.61-.11,1.01-.19,1.73-.51,1.07-.47,1.54-.9,2.09-1.39.46-.42.99-.9,1.95-1.46,1.15-.67,4.14-2.4,6.73-1.31,1.03.44,1.69,1.19,2,1.56.54.62.68,1.17.83,1.74.13.51.27,1.04.71,1.7.22.33.66,1,1.48,1.52.54.35.91.42,1.3.49.38.07.77.14,1.29.43,1.12.63,2.01,1.82,2.27,3.03.18.85,0,1.42-.15,1.93-.14.47-.26.85-.05,1.39.32.81,1.13,1.29,2.16,1.9.63.38.98.49,1.32.6.32.1.61.2,1.07.48.57.37,1.07.82,1.48,1.36.45.16.79.33,1.01.45,1.65.91,2.75,2.08,3.29,3.46.2.5.24.81.27,1.14.04.35.09.71.34,1.4.4,1.12.72,2.01,1.46,2.47.49.31.88.27,1.37.22.53-.05,1.12-.12,1.92.22,1.13.49,2.13,1.59,2.54,2.81.18.57.18.96.17,1.34,0,.4,0,.78.23,1.38.36.9.94,1.47,1.21,1.75.57.56,1.06.8,1.53,1.02.53.25,1.04.5,1.54,1.13.27.34.91,1.15,1.16,2.26.59,2.77-1.71,5.38-2.57,6.36-.74.84-1.3,1.26-1.81,1.64-.59.44-1.1.82-1.77,1.78-.44.65-.59,1.03-.81,1.6-.16.4-.35.89-.7,1.6,0,.02-.03.07-.05.11l-.04.09c-.7,1.45-1.87,3.86-3.95,5.7-.92.82-1.6,1.16-2.25,1.48-.74.37-1.44.72-2.51,1.77-.69.69-1.5,1.5-2.17,2.78-.72,1.37-.8,2.38-.88,3.27-.08.95-.15,1.77-.94,2.64-.53.59-1.58,1.06-3.68,1.98l-.26.11c-.31.13-.58.24-.83.35-1.05.43-1.63.67-2.05,1.32-.28.43-.35.79-.52,1.67l-.11.57c-.38,2.01-.61,3.19-.96,4.16-.34,1.02-1.2,2.94-3.01,4.18-1.01.69-1.83.84-2.56.96-.76.13-1.42.25-2.18,1-.22.21-.3.34-.49.62-.22.33-.54.82-1.33,1.82l-.25.32c-.54.68-.94,1.18-1.43,1.67-.58.61-1.67,1.76-3.29,2.54-.25.12-1.95.88-4.12.88ZM67.69,311.68c.39,0,.83.03,1.37.15.93.21,1.33.5,1.75.8.34.25.69.5,1.43.75,3.07,1.04,6-.27,6.33-.43,1.51-.73,2.55-1.82,3.11-2.41.47-.48.85-.96,1.39-1.63l.25-.31c.77-.98,1.09-1.46,1.3-1.78.19-.28.3-.46.57-.72.89-.88,1.67-1.02,2.5-1.16.7-.12,1.42-.25,2.31-.87,1.73-1.18,2.52-3.11,2.78-3.88.34-.93.57-2.1.94-4.08l.11-.57c.17-.91.26-1.37.61-1.89.52-.81,1.24-1.11,2.33-1.55.25-.1.52-.21.82-.34l.26-.11c1.95-.86,3.03-1.34,3.47-1.83.64-.72.7-1.38.78-2.29.08-.9.18-2.03.95-3.5.72-1.37,1.6-2.25,2.24-2.89,1.18-1.17,1.96-1.56,2.72-1.93.65-.32,1.26-.63,2.12-1.39,1.83-1.62,2.88-3.61,3.79-5.49,0-.02.03-.07.05-.11l.04-.09c.34-.71.53-1.19.68-1.58.23-.59.4-1.01.88-1.72.73-1.05,1.3-1.47,1.9-1.93.5-.37,1.02-.76,1.71-1.55.81-.92,2.96-3.36,2.43-5.82-.22-.98-.79-1.71-1.04-2.02-.41-.52-.83-.73-1.32-.96-.5-.24-1.06-.5-1.7-1.14-.31-.3-.95-.93-1.35-1.95-.29-.71-.28-1.17-.28-1.61,0-.35,0-.68-.14-1.15-.35-1.06-1.22-2.01-2.2-2.43-.65-.28-1.14-.23-1.61-.18-.54.06-1.09.12-1.76-.31-.91-.58-1.28-1.6-1.71-2.78-.28-.76-.33-1.17-.37-1.54-.04-.31-.07-.56-.24-.99-.74-1.88-2.44-2.83-3-3.14-.22-.13-.56-.3-1.01-.45l-.09-.03-.06-.08c-.37-.5-.84-.94-1.37-1.28-.39-.24-.64-.33-.93-.42-.35-.11-.75-.24-1.44-.66-1.08-.64-2.01-1.2-2.41-2.2-.28-.74-.12-1.27.04-1.79.14-.46.28-.93.13-1.62-.23-1.04-1-2.07-1.97-2.62-.43-.24-.75-.3-1.1-.36-.44-.08-.89-.16-1.52-.58-.93-.59-1.42-1.34-1.66-1.7-.5-.75-.66-1.35-.8-1.89-.14-.52-.25-.97-.69-1.48-.29-.34-.89-1.02-1.79-1.4-2.3-.98-5,.59-6.16,1.26-.92.54-1.4.98-1.86,1.4-.56.51-1.09.99-2.25,1.5-.79.35-1.24.43-1.87.55-.41.08-.91.17-1.65.37-1.78.47-4.22,1.11-6.35,2.74-.91.7-1.32,1.23-1.76,1.81-.51.67-1.04,1.36-2.36,2.26-.77.53-1.81,1.23-3.31,1.68-1.6.48-2.72.36-3.62.27-.91-.09-1.56-.16-2.4.33-.58.35-1.25,1.32-2.61,3.29-.2.29-.37.55-.53.79-.63.96-1.05,1.59-1.94,1.94-.62.25-1.09.24-2.14.23h-.41c-1.99,0-3.19-.01-4.17.14-1.85.3-3.3.97-4.34,2-.77.76-1.03,1.44-1.28,2.1-.3.79-.58,1.53-1.63,2.24-.3.21-.49.29-.8.42-.35.15-.88.37-2,.94-.91.46-1.56.8-2.22,1.22-.74.48-1.97,1.28-2.96,2.61-.42.58-1.76,2.68-1.69,5.32.01.26.03.53.06.81.11.77.29,1.16.47,1.55.22.47.42.91.45,1.86.03.9-.13,1.51-.27,2.05-.16.64-.3,1.18-.18,2.12.07.52.21,1.6.97,2.55.33.4.59.55,1.02.8.32.18.72.41,1.28.82,1.17.85,2.01,1.46,2.52,2.39.51.94.38,1.68.24,2.45-.1.58-.21,1.18-.08,1.96.4,2.41,2.69,4.03,3.92,4.91,1.25.89,2.05,1.16,2.81,1.42.84.29,1.63.56,2.8,1.62.59.55,2.12,2.07,3.48,4.36.38.64,1.45,1.28,3.17,1.9l.08.03.05.07c.22.29.39.56.52.78.82,1.34.94,2.17,1.06,3.05.11.8.23,1.63.86,3.03.62,1.38,1.78,3.93,4.08,4.8.74.28,1.35.29,1.93.29.79.01,1.53.02,2.36.7.81.66,1.23,1.55,1.86,2.9.31.66.46,1.1.58,1.45.16.47.26.75.59,1.15.78.93,1.82,1.28,2.32,1.45.89.3,1.45.26,2.1.22.22-.01.45-.03.7-.03Z"/>
          </g>
          <path class="cls-3" d="M25.59,258.22c-.08-2.98,1.59-5.29,1.75-5.51,1.02-1.38,2.3-2.21,3.04-2.68.65-.42,1.26-.74,2.24-1.24,2.11-1.09,2.17-.94,2.77-1.34,1.83-1.24,1.13-2.6,2.87-4.31,1.67-1.64,3.93-1.99,4.51-2.09,1-.15,2.2-.15,4.22-.14,1.35,0,1.81.05,2.44-.21,1-.4,1.33-1.18,2.33-2.62,1.36-1.99,2.06-2.99,2.7-3.38,1.83-1.09,2.99.3,6.09-.64,1.47-.43,2.47-1.12,3.23-1.64,2.38-1.64,2.08-2.51,4.11-4.06,2.17-1.66,4.65-2.32,6.46-2.79,1.86-.49,2.2-.34,3.47-.9,2.04-.9,2.01-1.66,4.07-2.87,1.13-.66,3.99-2.33,6.45-1.29.97.41,1.6,1.14,1.9,1.49.94,1.09.54,1.95,1.51,3.4.26.4.73,1.07,1.57,1.61,1.1.71,1.58.36,2.61.93.97.55,1.86,1.63,2.12,2.82.33,1.57-.66,2.11-.18,3.36.36.9,1.19,1.4,2.29,2.05,1.26.75,1.48.52,2.38,1.08.6.39,1.09.86,1.45,1.36.49.17.85.35,1.04.46.53.3,2.37,1.3,3.16,3.31.39.98.11,1.16.61,2.54.43,1.2.77,2.11,1.58,2.63,1.14.72,1.86-.16,3.33.46,1.12.48,2.01,1.55,2.37,2.62.36,1.12-.08,1.52.41,2.74.37.93.94,1.51,1.28,1.85,1.24,1.23,2.16.99,3.05,2.13.28.36.87,1.11,1.1,2.14.56,2.62-1.64,5.11-2.5,6.09-1.58,1.79-2.32,1.61-3.59,3.45-.78,1.15-.7,1.52-1.53,3.24-.03.07-.07.14-.1.21-.17-1.39-.42-3.21-.82-5.59-.9-5.34-1.35-6.32-2.15-7.21-2.01-2.27-3.8-1.26-7.2-4.08-1.23-1.02-.62-.83-4.08-4.4-2.06-2.12-3.17-3.12-4.33-4.02-1.26-.97-2.12-1.48-3.02-2.06-4.85-3.13-4.46-4.17-7.08-5.43-1.26-.61-4.28-2.06-7.32-1.12-1.94.61-1.93,1.57-4.52,2.52-1.16.43-2.56.6-5.36.96-3.56.45-3.98.28-5.21.82-1.93.85-1.64,1.59-3.5,2.51-1.98.97-3.91.91-6.77.83-3.08-.09-3.15-.57-4.7-.22-1.75.38-3.02,1.28-4.94,2.65-2.14,1.52-1.9,1.78-3.37,2.64-1.15.67-1.94.88-5.33,1.86-2.87.84-4.31,1.25-4.56,1.35-1.92.65-3.26,2.09-4.31,3.75Z"/>
          <path class="cls-4" d="M61.38,301.73c1.76,1.02,2.96,1.62,4.72,2.51,2.49,1.26,2.94,1.49,3.83,1.63.35.06,1.63.24,3.23-.12.62-.14,2.68-.68,4.38-2.48.85-.89.49-.92,1.26-1.67,1.17-1.15,2.6-1.69,4.77-2.48,1.27-.46,1.36-.41,1.81-.7.77-.49,1.24-1.12,2.27-3.05,1.9-3.55,1.74-4.07,1.63-4.32-.47-1.02-2.03-1.23-2.26-1.25-2.22-.26-3.3,1.53-7.79,4.07-2.03,1.15-3.39,1.67-3.7,1.79-1.45.55-3.29,1.23-5.66,1.22-.1,0-1.11-.12-3.13-.37-2.33-.28-3.51-.43-5.09-.35-2.33.12-2.77.58-2.93.81-.69.93-.13,2.32-.08,2.45.34.83.95,1.28,2.76,2.33Z"/>
          <path class="cls-4" d="M92.57,287.7c.41.18,1.14.14,3.8-2.28,2.9-2.65,4.35-3.98,4.07-5.12-.37-1.51-2.94-2.66-4.61-2.02-.91.35-.63.87-2.9,4.42-.76,1.19-1.27,1.87-1.25,2.94,0,.12.05,1.67.9,2.05Z"/>
        </g>
        <g>
          <g>
            <path class="cls-2" d="M86.19,319.77c-1.48-2.59-1.09-5.42-1.05-5.69.25-1.7.99-3.03,1.42-3.8.38-.67.77-1.25,1.39-2.15,1.35-1.95,1.48-1.85,1.81-2.49,1.03-1.96-.23-2.82.5-5.15.7-2.23,2.54-3.61,3-3.96.81-.6,1.87-1.16,3.66-2.11,1.2-.63,1.62-.81,2.05-1.33.69-.82.62-1.67.82-3.41.27-2.4.41-3.6.79-4.26,1.1-1.83,2.78-1.15,5.07-3.43,1.09-1.07,1.65-2.15,2.08-2.96,1.33-2.56.66-3.19,1.71-5.52,1.13-2.48,3.01-4.23,4.39-5.5,1.41-1.31,1.78-1.33,2.64-2.43,1.38-1.75.99-2.41,2.24-4.45.69-1.12,2.43-3.94,5.08-4.17,1.05-.09,1.95.25,2.38.42,1.34.52,1.39,1.47,2.93,2.29.42.23,1.15.61,2.14.68,1.3.11,1.57-.43,2.74-.41,1.12.03,2.41.56,3.2,1.49,1.03,1.23.41,2.17,1.42,3.05.74.62,1.71.68,2.98.74,1.46.07,1.55-.24,2.61-.16.71.06,1.36.25,1.92.52.51-.08.92-.09,1.14-.08.61.01,2.7.03,4.34,1.43.8.68.64.97,1.73,1.95.94.85,1.67,1.5,2.63,1.57,1.34.1,1.56-1.02,3.16-1.16,1.22-.1,2.51.42,3.33,1.2.84.82.65,1.38,1.65,2.22.76.65,1.54.89,2,1.03,1.67.5,2.37-.14,3.69.44.42.18,1.29.57,1.98,1.37,1.73,2.04.96,5.28.66,6.55-.55,2.32-1.29,2.51-1.55,4.73-.15,1.38.1,1.67.17,3.58,0,.08,0,.16.01.23.07,1.85.13,4.3-.78,6.75-.89,2.41-1.82,2.38-2.68,5.13-.27.87-.63,2.04-.62,3.57.03,3.23,1.69,3.93,1.19,6-.18.74-.94,1.68-2.43,3.59-1.09,1.37-1.73,1.92-1.82,2.99-.07.67.12,1.1.51,2.39.61,1.93.96,3.09,1.1,4.08.1.57.43,2.84-.66,4.92-1.12,2.17-2.62,1.9-3.27,4.01-.22.69-.05.71-.46,3.04-.2,1.08-.32,1.76-.54,2.51-.24.84-.65,2.31-1.66,3.69-.18.25-2.22,2.93-5.58,3.47-1.74.28-1.88-.33-3.5.11-1.78.49-2.05,1.35-3.88,1.66-.58.1-1.71.28-2.9-.2-.91-.37-.98-.78-2.29-1.76-1.17-.88-1.94-1.46-2.91-1.65-1.68-.34-2.24.89-4.16,1.14-2.43.32-4.57-1.21-6.08-2.37-2.63-2.02-2.05-2.97-4.53-4.44-.22-.13-.48-.28-.8-.43-1.39.2-3.01.3-3.89-.23-2.02-1.22-3.95-1.89-5.04-2.18-2.79-.7-3.06.39-6.35-.03-1.88-.24-4.49-.66-5.98-2.6-1.19-1.54-.71-2.8-2.15-3.75-.82-.54-1.78-.68-3.22-.88-1.62-.22-1.96,0-2.87-.36-1.18-.5-1.85-1.42-2.19-1.89-1.09-1.52-.67-2.31-1.58-3.92-.84-1.46-1.36-1.13-2.4-2.55-.16-.23-.31-.47-.45-.7Z"/>
            <path class="cls-5" d="M144.79,349.01c-.54,0-1.18-.08-1.82-.34-.58-.24-.86-.5-1.24-.86-.26-.24-.58-.54-1.11-.94-1.15-.86-1.89-1.42-2.79-1.59-.84-.17-1.36.1-2.01.43-.54.28-1.15.59-2.05.71-2.69.35-5.04-1.46-6.31-2.44-1.29-.99-1.83-1.73-2.31-2.39-.5-.69-.94-1.29-2.19-2.03-.19-.12-.42-.25-.69-.38-1.93.27-3.24.18-4-.28-2.21-1.34-4.21-1.95-4.96-2.14-1.4-.35-2.13-.23-2.98-.1-.8.13-1.72.28-3.33.07-1.59-.2-4.54-.58-6.18-2.72-.55-.72-.77-1.37-.95-1.95-.23-.7-.4-1.25-1.12-1.72-.77-.51-1.7-.64-3.09-.83-.66-.09-1.1-.1-1.45-.11-.53-.02-.91-.03-1.49-.27-1.29-.54-2.01-1.56-2.32-2-.62-.86-.78-1.53-.94-2.17-.13-.53-.26-1.07-.66-1.78-.41-.72-.74-.96-1.11-1.25-.35-.27-.76-.57-1.27-1.28-.17-.24-.32-.49-.46-.72h0c-1.41-2.47-1.19-5.12-1.09-5.88.26-1.76,1.04-3.16,1.46-3.91.4-.71.82-1.32,1.41-2.17.73-1.05,1.1-1.51,1.35-1.81.21-.26.3-.37.45-.64.5-.95.41-1.61.32-2.38-.09-.73-.2-1.56.16-2.72.48-1.52,1.51-2.9,3.09-4.1.87-.64,1.94-1.21,3.72-2.16l.37-.19c.91-.47,1.25-.65,1.6-1.07.49-.58.55-1.19.66-2.29.03-.29.06-.6.1-.95.28-2.53.42-3.68.84-4.38.61-1.01,1.37-1.32,2.25-1.68.83-.34,1.77-.72,2.86-1.81,1.05-1.03,1.59-2.05,2.02-2.88.7-1.34.82-2.12.96-2.94.12-.72.24-1.46.75-2.58,1.17-2.55,3.07-4.31,4.46-5.6.58-.54.99-.87,1.32-1.13.48-.38.8-.64,1.29-1.26.73-.92.94-1.52,1.19-2.21.21-.59.45-1.26,1.03-2.21.7-1.13,2.52-4.07,5.32-4.32,1.11-.1,2.05.26,2.5.43.77.3,1.15.71,1.55,1.15.36.39.72.79,1.43,1.17.34.19,1.05.57,2.02.64.64.05,1-.06,1.38-.18.37-.12.74-.24,1.34-.23,1.29.03,2.63.66,3.43,1.6.56.67.68,1.25.78,1.77.1.49.17.87.61,1.25.66.56,1.6.6,2.79.66.73.03,1.1-.03,1.45-.09.33-.06.64-.11,1.17-.07.68.05,1.33.22,1.94.5.47-.07.86-.08,1.1-.07,1.88.03,3.4.54,4.53,1.51.41.35.59.6.78.88.2.29.41.59.96,1.08.88.8,1.58,1.43,2.45,1.5.58.04.9-.18,1.31-.45.44-.3.94-.63,1.8-.71,1.23-.1,2.63.4,3.56,1.28.43.42.61.77.79,1.1.18.36.36.69.85,1.11.74.63,1.52.86,1.89.97.77.23,1.31.21,1.83.18.59-.03,1.15-.05,1.89.27.4.18,1.34.59,2.08,1.46,1.83,2.17,1.03,5.55.72,6.82-.26,1.09-.56,1.73-.82,2.29-.31.67-.58,1.24-.72,2.4-.08.78-.04,1.18.03,1.79.05.42.11.95.14,1.74v.22c.07,1.61.18,4.29-.79,6.89-.43,1.15-.86,1.77-1.29,2.37-.48.68-.94,1.32-1.38,2.75-.29.94-.62,2.03-.61,3.48.01,1.54.41,2.48.76,3.3.37.88.7,1.63.42,2.77-.19.77-.9,1.68-2.31,3.48l-.17.22c-.21.26-.4.49-.57.7-.72.87-1.12,1.36-1.19,2.13-.05.51.06.86.33,1.71l.17.56c.61,1.95.97,3.1,1.11,4.13.18,1.07.33,3.16-.69,5.11-.56,1.09-1.22,1.6-1.8,2.05-.61.48-1.14.89-1.45,1.9-.09.29-.11.44-.14.77-.04.39-.09.98-.32,2.23l-.07.39c-.16.86-.27,1.48-.47,2.15-.23.81-.65,2.34-1.71,3.78-.23.31-2.34,3.03-5.78,3.6-.86.14-1.36.07-1.8,0-.47-.07-.87-.12-1.67.1-.78.22-1.26.51-1.73.79-.56.34-1.14.7-2.18.87-.26.05-.71.12-1.24.12ZM137.32,344.6c.19,0,.4.02.62.06,1.03.2,1.82.79,3.01,1.69.58.44.92.75,1.19,1,.36.34.58.54,1.06.74,1.13.46,2.21.27,2.73.18.92-.16,1.4-.45,1.96-.79.48-.29,1.02-.62,1.89-.86.92-.26,1.4-.19,1.92-.12.42.06.85.12,1.61,0,3.2-.52,5.17-3.07,5.38-3.35.99-1.35,1.39-2.81,1.61-3.59.19-.64.3-1.25.46-2.09l.07-.39c.22-1.22.27-1.8.31-2.18.03-.34.05-.55.16-.9.37-1.2,1-1.69,1.66-2.21.56-.44,1.13-.88,1.63-1.85.97-1.86.76-3.93.63-4.73-.14-.98-.49-2.12-1.09-4.04l-.17-.56c-.28-.88-.41-1.32-.35-1.95.08-.96.58-1.56,1.33-2.47.17-.21.36-.43.56-.69l.17-.22c1.32-1.68,2.04-2.61,2.2-3.25.23-.94-.03-1.55-.39-2.39-.36-.83-.8-1.87-.81-3.54-.01-1.54.35-2.73.61-3.6.5-1.59,1-2.3,1.49-2.99.42-.59.81-1.15,1.21-2.22.85-2.3.84-4.54.76-6.63v-.22c-.04-.79-.1-1.3-.15-1.71-.07-.63-.13-1.08-.03-1.93.15-1.27.45-1.91.77-2.6.27-.57.54-1.15.78-2.17.28-1.19,1.03-4.35-.59-6.28-.65-.76-1.5-1.13-1.86-1.29-.61-.27-1.08-.25-1.62-.22-.55.03-1.17.05-2.04-.21-.41-.12-1.28-.38-2.11-1.09-.59-.49-.8-.9-1-1.29-.16-.31-.31-.6-.66-.94-.81-.77-2.02-1.2-3.08-1.11-.7.06-1.11.34-1.51.6-.45.3-.91.62-1.7.56-1.08-.08-1.88-.81-2.81-1.65-.6-.54-.84-.88-1.05-1.18-.18-.26-.32-.46-.67-.76-1.54-1.31-3.49-1.35-4.13-1.36-.26,0-.64,0-1.1.08l-.1.02-.09-.04c-.57-.27-1.17-.44-1.81-.49-.46-.03-.72.01-1.02.07-.36.06-.78.14-1.58.1-1.26-.06-2.34-.11-3.17-.81-.6-.52-.71-1.07-.81-1.6-.09-.47-.19-.95-.64-1.49-.69-.81-1.85-1.35-2.97-1.38-.5-.02-.81.09-1.14.2-.42.13-.86.27-1.62.21-1.1-.08-1.88-.51-2.26-.71-.8-.43-1.22-.89-1.59-1.29-.37-.4-.68-.74-1.3-.98-.42-.16-1.26-.48-2.24-.4-2.49.22-4.14,2.88-4.84,4.01-.56.91-.78,1.52-.99,2.11-.26.71-.5,1.39-1.28,2.38-.53.68-.89.96-1.39,1.36-.32.26-.72.58-1.28,1.1-1.35,1.25-3.2,2.96-4.32,5.4-.47,1.04-.58,1.71-.7,2.42-.14.83-.28,1.69-1.02,3.11-.43.83-1.01,1.94-2.14,3.04-1.18,1.18-2.23,1.6-3.07,1.94-.84.34-1.45.59-1.96,1.42-.34.58-.49,1.75-.75,4.13-.04.35-.07.66-.1.94-.11,1.14-.18,1.9-.8,2.63-.43.51-.85.73-1.78,1.22l-.36.19c-1.75.93-2.81,1.49-3.62,2.09-1.49,1.13-2.45,2.41-2.89,3.81-.32,1.04-.23,1.76-.14,2.46.11.84.21,1.63-.38,2.75-.17.33-.3.48-.51.75-.24.3-.61.74-1.32,1.77-.58.84-1,1.44-1.38,2.12-.43.77-1.14,2.05-1.38,3.69-.09.71-.3,3.19,1.01,5.49.13.23.28.46.44.68.46.63.8.89,1.14,1.14.41.31.8.6,1.27,1.43.45.78.6,1.4.73,1.94.15.64.29,1.19.84,1.95.3.43.94,1.32,2.06,1.79.48.2.78.21,1.27.22.37.01.83.03,1.52.12,1.43.2,2.46.34,3.35.93.9.59,1.12,1.3,1.37,2.05.18.56.37,1.14.86,1.77,1.48,1.94,4.27,2.29,5.77,2.48,1.52.19,2.35.06,3.15-.07.88-.14,1.7-.27,3.23.11.78.21,2.84.83,5.13,2.21.64.38,1.88.45,3.69.19h.09s.08.02.08.02c.34.15.61.31.83.44,1.35.8,1.85,1.48,2.37,2.19.48.65.97,1.33,2.19,2.26,1.2.92,3.42,2.63,5.85,2.31.79-.11,1.33-.38,1.85-.65.55-.28,1.08-.55,1.79-.55Z"/>
          </g>
          <path class="cls-3" d="M86.19,319.77c-1.48-2.59-1.09-5.42-1.05-5.69.25-1.7.99-3.03,1.42-3.8.38-.67.77-1.25,1.39-2.15,1.35-1.95,1.48-1.85,1.81-2.49,1.03-1.96-.23-2.82.5-5.15.7-2.23,2.54-3.61,3-3.96.81-.6,1.87-1.16,3.66-2.11,1.2-.63,1.62-.81,2.05-1.33.69-.82.62-1.67.82-3.41.27-2.4.41-3.6.79-4.26,1.1-1.83,2.78-1.15,5.07-3.43,1.09-1.07,1.65-2.15,2.08-2.96,1.33-2.56.66-3.19,1.71-5.52,1.13-2.48,3.01-4.23,4.39-5.5,1.41-1.31,1.78-1.33,2.64-2.43,1.38-1.75.99-2.41,2.24-4.45.69-1.12,2.43-3.94,5.08-4.17,1.05-.09,1.95.25,2.38.42,1.34.52,1.39,1.47,2.93,2.29.42.23,1.15.61,2.14.68,1.3.11,1.57-.43,2.74-.41,1.12.03,2.41.56,3.2,1.49,1.03,1.23.41,2.17,1.42,3.05.74.62,1.71.68,2.98.74,1.46.07,1.55-.24,2.61-.16.71.06,1.36.25,1.92.52.51-.08.92-.09,1.14-.08.61.01,2.7.03,4.34,1.43.8.68.64.97,1.73,1.95.94.85,1.67,1.5,2.63,1.57,1.34.1,1.56-1.02,3.16-1.16,1.22-.1,2.51.42,3.33,1.2.84.82.65,1.38,1.65,2.22.76.65,1.54.89,2,1.03,1.67.5,2.37-.14,3.69.44.42.18,1.29.57,1.98,1.37,1.73,2.04.96,5.28.66,6.55-.55,2.32-1.29,2.51-1.55,4.73-.15,1.38.1,1.67.17,3.58,0,.08,0,.16.01.23-.8-1.14-1.88-2.63-3.36-4.55-3.31-4.29-4.16-4.94-5.29-5.36-2.84-1.06-3.95.68-8.28-.21-1.56-.32-.93-.44-5.67-1.96-2.81-.91-4.27-1.26-5.71-1.51-1.57-.26-2.57-.31-3.63-.4-5.76-.48-5.9-1.58-8.8-1.45-1.4.06-4.74.2-6.99,2.45-1.42,1.44-.96,2.29-2.81,4.35-.82.92-1.97,1.73-4.28,3.37-2.93,2.07-3.38,2.12-4.21,3.18-1.31,1.66-.7,2.18-1.91,3.86-1.3,1.78-3.02,2.64-5.58,3.92-2.76,1.37-3.05.99-4.25,2.02-1.36,1.16-2.06,2.55-3.11,4.66-1.17,2.34-.83,2.47-1.73,3.91-.7,1.13-1.3,1.69-3.82,4.15-2.14,2.1-3.21,3.13-3.39,3.33-1.38,1.48-1.9,3.38-2.04,5.34Z"/>
          <path class="cls-4" d="M138.24,341.32c2.03.07,3.38.04,5.34,0,2.79-.06,3.29-.07,4.15-.36.33-.11,1.55-.55,2.79-1.63.48-.42,2.04-1.86,2.7-4.25.33-1.18,0-1.04.32-2.07.49-1.57,1.5-2.71,3.04-4.44.9-1.01,1-1,1.26-1.47.45-.8.57-1.57.57-3.76,0-4.02-.38-4.41-.59-4.58-.9-.68-2.37-.13-2.58-.04-2.08.81-2.19,2.9-4.96,7.26-1.25,1.97-2.2,3.07-2.43,3.32-1.02,1.17-2.33,2.64-4.43,3.74-.09.05-1.04.41-2.94,1.15-2.19.85-3.3,1.27-4.66,2.08-2,1.2-2.16,1.82-2.21,2.09-.17,1.14.98,2.11,1.08,2.2.7.57,1.45.68,3.53.76Z"/>
          <path class="cls-4" d="M159.16,314.25c.45-.03,1.08-.41,2.28-3.8,1.31-3.7,1.97-5.56,1.18-6.43-1.04-1.15-3.84-.96-5.02.39-.64.74-.14,1.06-.48,5.27-.11,1.4-.24,2.25.28,3.19.06.1.83,1.45,1.75,1.38Z"/>
        </g>
        <g>
          <g>
            <path class="cls-2" d="M172.73,347.58c-2.64-1.39-3.83-3.98-3.95-4.23-.7-1.56-.8-3.09-.85-3.96-.04-.77-.02-1.46.02-2.56.09-2.37.25-2.35.19-3.07-.19-2.21-1.71-2.26-2.35-4.61-.61-2.26.19-4.41.4-4.96.36-.94.95-1.99,1.94-3.75.67-1.17.93-1.56,1.01-2.23.14-1.06-.38-1.74-1.14-3.31-1.07-2.17-1.59-3.26-1.62-4.01-.06-2.13,1.73-2.46,2.43-5.62.34-1.49.24-2.7.16-3.61-.26-2.88-1.16-3.04-1.53-5.57-.38-2.7.26-5.19.73-7,.48-1.86.78-2.08.92-3.47.22-2.22-.46-2.56-.51-4.95-.02-1.31-.07-4.62,2.04-6.25.84-.65,1.78-.84,2.23-.93,1.41-.28,1.96.49,3.7.35.48-.03,1.29-.11,2.17-.58,1.16-.61,1.09-1.2,2.09-1.82.96-.58,2.33-.83,3.5-.46,1.53.48,1.51,1.61,2.84,1.81.96.13,1.8-.35,2.91-.99,1.27-.73,1.18-1.04,2.11-1.54.63-.34,1.28-.52,1.9-.6.39-.35.73-.57.91-.68.52-.32,2.3-1.43,4.43-1.13,1.04.14,1.06.47,2.51.71,1.25.21,2.22.37,3.07-.09,1.19-.64.77-1.7,2.04-2.68.97-.74,2.34-.99,3.45-.78,1.15.24,1.29.81,2.59.98.99.13,1.78-.08,2.24-.21,1.68-.48,1.92-1.39,3.35-1.61.45-.07,1.4-.21,2.4.09,2.55.79,3.65,3.94,4.08,5.17.79,2.25.27,2.81,1.24,4.82.62,1.24.98,1.35,2.07,2.93.05.06.09.13.14.19,1.06,1.52,2.42,3.55,2.98,6.11.55,2.51-.25,2.98.51,5.76.25.88.56,2.06,1.4,3.34,1.76,2.71,3.54,2.4,4.23,4.42.24.72.11,1.92-.12,4.33-.18,1.74-.43,2.55.08,3.5.31.6.69.86,1.71,1.74,1.55,1.3,2.47,2.08,3.12,2.85.39.43,1.89,2.16,2.09,4.5.22,2.43-1.18,3.01-.6,5.14.19.7.34.62,1.25,2.81.41,1.02.68,1.66.9,2.4.26.84.69,2.3.59,4-.02.31-.3,3.66-2.83,5.93-1.31,1.17-1.76.73-2.89,1.98-1.24,1.37-1,2.25-2.37,3.49-.44.4-1.29,1.16-2.55,1.39-.97.18-1.24-.13-2.88-.25-1.46-.11-2.42-.18-3.34.18-1.6.62-1.41,1.95-2.89,3.2-1.88,1.58-4.51,1.44-6.4,1.27-3.31-.28-3.33-1.4-6.2-1.3-.26,0-.56.02-.91.07-1.07.92-2.38,1.87-3.4,1.9-2.36.06-4.35.53-5.42.88-2.73.91-2.37,1.97-5.37,3.39-1.72.81-4.14,1.86-6.44,1.02-1.83-.66-2.11-1.98-3.83-2-.98-.02-1.87.38-3.19.99-1.49.69-1.65,1.06-2.62,1.24-1.26.22-2.32-.2-2.87-.42-1.73-.69-1.81-1.59-3.44-2.45-1.49-.78-1.75-.22-3.4-.86-.26-.11-.51-.23-.76-.35Z"/>
            <path class="cls-5" d="M194.63,352.04c-.63,0-1.27-.09-1.9-.32-.85-.31-1.39-.75-1.86-1.13-.57-.47-1.01-.84-1.87-.85-.91-.01-1.77.37-3.05.96-.6.28-.98.5-1.29.69-.45.27-.78.46-1.4.58-1.38.23-2.54-.23-3.04-.44-.99-.4-1.48-.87-1.96-1.32-.39-.38-.8-.76-1.52-1.14-.73-.38-1.14-.42-1.61-.45-.44-.04-.95-.07-1.76-.39-.27-.12-.54-.24-.78-.36h0c-2.52-1.33-3.76-3.68-4.08-4.36-.73-1.62-.83-3.22-.88-4.08-.05-.81-.02-1.55.02-2.59.05-1.27.12-1.86.16-2.25.04-.33.06-.48.03-.78-.09-1.07-.52-1.58-1.02-2.18-.47-.56-1.01-1.2-1.33-2.38-.42-1.54-.29-3.26.39-5.12.38-1.01.98-2.06,1.97-3.82l.21-.36c.51-.89.7-1.22.77-1.75.1-.76-.18-1.3-.68-2.28-.13-.26-.28-.54-.43-.86-1.12-2.28-1.62-3.33-1.65-4.14-.03-1.18.44-1.85,1-2.63.52-.73,1.1-1.56,1.44-3.07.33-1.44.23-2.59.15-3.51-.14-1.51-.45-2.23-.77-2.99-.29-.67-.58-1.36-.75-2.58-.39-2.78.26-5.29.74-7.12.2-.76.37-1.26.5-1.66.2-.58.33-.97.41-1.76.12-1.17-.03-1.79-.19-2.5-.14-.61-.3-1.3-.32-2.41-.02-1.32-.07-4.79,2.16-6.5.88-.68,1.87-.89,2.34-.98.81-.16,1.35-.02,1.92.13.51.14,1.04.28,1.83.21.39-.03,1.2-.09,2.05-.55.57-.3.81-.59,1.07-.9.25-.3.5-.6,1.01-.91,1.1-.67,2.58-.86,3.75-.5.83.26,1.24.69,1.61,1.07.34.36.61.64,1.19.73.86.12,1.68-.35,2.71-.95.64-.37.91-.61,1.17-.85.24-.22.47-.44.95-.69.6-.32,1.24-.53,1.91-.62.36-.31.68-.53.89-.65,1.6-.99,3.16-1.38,4.63-1.17.53.07.82.19,1.13.32.33.13.66.27,1.39.39,1.18.2,2.1.36,2.87-.06.51-.27.67-.63.86-1.09.21-.48.45-1.03,1.14-1.56.98-.75,2.43-1.08,3.69-.84.58.12.93.32,1.26.51.35.2.67.39,1.31.47.96.13,1.74-.09,2.12-.2.77-.22,1.21-.53,1.64-.83.48-.34.94-.66,1.74-.79.43-.07,1.44-.23,2.54.1,2.71.84,3.85,4.12,4.28,5.36.37,1.05.46,1.76.54,2.38.09.73.18,1.36.69,2.41.35.7.6,1.02.99,1.49.27.33.6.74,1.06,1.39.02.02.04.06.07.1l.06.08c.92,1.33,2.45,3.52,3.03,6.24.26,1.2.22,1.96.19,2.69-.04.83-.08,1.61.31,3.06.26.94.57,2.04,1.36,3.26.84,1.29,1.68,1.87,2.42,2.37.79.54,1.47,1,1.85,2.11.26.75.14,1.9-.08,4.19l-.03.27c-.03.33-.07.62-.1.89-.14,1.13-.22,1.75.15,2.44.23.46.51.69,1.2,1.27l.44.38c1.56,1.31,2.48,2.09,3.16,2.88.72.8,1.98,2.49,2.17,4.68.11,1.22-.17,2-.41,2.7-.26.73-.48,1.36-.2,2.39.08.3.15.43.3.73.18.35.45.88.93,2.05l.15.36c.33.81.57,1.4.76,2.07.25.81.71,2.32.6,4.11-.03.39-.34,3.82-2.93,6.14-.65.58-1.11.79-1.51.98-.43.2-.8.36-1.35.98-.54.6-.79,1.11-1.03,1.6-.29.59-.58,1.2-1.37,1.91-.4.36-1.33,1.21-2.7,1.46-.62.11-.99.04-1.51-.05-.35-.06-.78-.15-1.45-.2-1.43-.11-2.36-.18-3.21.16-.8.31-1.09.81-1.46,1.45-.31.53-.65,1.12-1.34,1.7-2.08,1.75-5.04,1.48-6.63,1.34-1.62-.14-2.47-.47-3.23-.77-.8-.31-1.48-.58-2.93-.53-.23,0-.49.02-.79.06-1.48,1.26-2.63,1.89-3.53,1.92-2.59.06-4.59.62-5.33.86-1.37.46-1.92.95-2.56,1.52-.61.54-1.3,1.16-2.77,1.85-1.09.51-2.87,1.36-4.77,1.36ZM188.93,349.12s.05,0,.07,0c1.07.02,1.65.49,2.25.99.45.37.92.76,1.67,1.03,2.29.83,4.84-.37,6.2-1.01,1.39-.66,2.01-1.21,2.62-1.75.66-.59,1.29-1.15,2.78-1.65.77-.25,2.85-.83,5.51-.89.75-.02,1.83-.64,3.21-1.83l.07-.06h.09c.36-.06.68-.08.94-.08,1.57-.06,2.35.25,3.18.57.75.29,1.53.6,3.06.73,1.5.13,4.3.38,6.18-1.2.61-.51.91-1.04,1.21-1.54.4-.68.77-1.32,1.77-1.71.98-.38,1.96-.31,3.45-.2.72.06,1.18.14,1.54.21.49.09.78.14,1.29.05,1.19-.22,2.01-.96,2.4-1.31.69-.63.94-1.14,1.23-1.72.25-.5.52-1.08,1.13-1.74.64-.71,1.08-.92,1.55-1.13.38-.17.78-.36,1.36-.87,2.42-2.16,2.7-5.36,2.73-5.72.1-1.67-.34-3.12-.58-3.89-.19-.64-.42-1.22-.74-2.02l-.15-.36c-.47-1.15-.74-1.66-.91-2-.16-.3-.25-.49-.35-.85-.33-1.21-.07-1.96.21-2.75.24-.67.48-1.36.38-2.44-.18-2.09-1.47-3.72-2.02-4.33-.65-.75-1.55-1.52-3.09-2.82l-.44-.37c-.71-.6-1.06-.89-1.35-1.46-.45-.85-.36-1.63-.21-2.8.03-.27.07-.56.1-.88l.03-.27c.21-2.13.32-3.3.11-3.93-.31-.92-.86-1.29-1.61-1.8-.75-.51-1.68-1.15-2.59-2.55-.84-1.29-1.17-2.49-1.42-3.36-.44-1.6-.4-2.47-.35-3.32.04-.72.07-1.41-.17-2.53-.52-2.4-1.73-4.28-2.93-6-.02-.02-.04-.06-.07-.1l-.06-.08c-.45-.65-.78-1.05-1.04-1.37-.4-.49-.69-.84-1.07-1.61-.56-1.15-.65-1.85-.75-2.6-.08-.62-.16-1.26-.51-2.25-.4-1.16-1.47-4.23-3.88-4.97-.96-.29-1.87-.15-2.27-.08-.66.1-1.04.37-1.48.68-.45.32-.96.68-1.83.92-.42.12-1.28.37-2.37.22-.76-.1-1.16-.33-1.54-.55-.3-.17-.59-.34-1.07-.44-1.1-.21-2.35.08-3.2.72-.56.43-.76.88-.95,1.32-.22.5-.44,1.01-1.14,1.38-.95.51-2.02.33-3.26.12-.79-.13-1.18-.29-1.52-.43-.29-.12-.52-.22-.98-.28-2-.28-3.66.74-4.21,1.08-.22.13-.53.34-.89.66l-.07.06h-.1c-.62.09-1.23.28-1.79.58-.4.22-.6.4-.82.6-.27.25-.58.53-1.28.94-1.09.63-2.03,1.16-3.1,1.02-.78-.12-1.17-.52-1.54-.91-.33-.34-.67-.7-1.35-.91-1.02-.31-2.29-.14-3.25.44-.42.26-.63.51-.85.78-.28.34-.58.69-1.25,1.05-.97.52-1.86.59-2.29.62-.9.06-1.5-.09-2.04-.23-.52-.14-.97-.26-1.63-.13-.44.09-1.33.27-2.1.87-1.98,1.53-1.94,4.65-1.92,5.99.02,1.07.17,1.7.3,2.31.17.74.33,1.44.2,2.7-.09.86-.23,1.29-.44,1.9-.13.39-.3.88-.49,1.62-.47,1.78-1.1,4.22-.73,6.88.16,1.13.43,1.76.71,2.42.33.77.67,1.57.82,3.17.08.93.19,2.18-.16,3.71-.36,1.63-1.01,2.55-1.54,3.29-.53.74-.91,1.28-.88,2.25.02.68.53,1.74,1.59,3.89.15.32.3.59.42.85.52,1.02.87,1.7.74,2.64-.08.66-.32,1.07-.85,1.98l-.21.36c-.98,1.73-1.57,2.77-1.92,3.7-.64,1.76-.77,3.35-.39,4.77.29,1.05.75,1.61,1.2,2.15.54.65,1.05,1.26,1.16,2.52.03.37,0,.57-.03.9-.04.38-.11.95-.16,2.2-.05,1.17-.06,1.81-.02,2.53.05.88.14,2.34.82,3.86.3.65,1.47,2.84,3.81,4.08.23.12.48.23.73.34.72.28,1.16.32,1.58.35.51.04,1,.08,1.84.52.8.42,1.25.86,1.66,1.24.47.45.88.85,1.76,1.2.49.2,1.5.6,2.7.4.51-.09.77-.25,1.19-.5.32-.19.71-.42,1.34-.72,1.28-.59,2.21-1.02,3.25-1.02Z"/>
          </g>
          <path class="cls-3" d="M172.73,347.58c-2.64-1.39-3.83-3.98-3.95-4.23-.7-1.56-.8-3.09-.85-3.96-.04-.77-.02-1.46.02-2.56.09-2.37.25-2.35.19-3.07-.19-2.21-1.71-2.26-2.35-4.61-.61-2.26.19-4.41.4-4.96.36-.94.95-1.99,1.94-3.75.67-1.17.93-1.56,1.01-2.23.14-1.06-.38-1.74-1.14-3.31-1.07-2.17-1.59-3.26-1.62-4.01-.06-2.13,1.73-2.46,2.43-5.62.34-1.49.24-2.7.16-3.61-.26-2.88-1.16-3.04-1.53-5.57-.38-2.7.26-5.19.73-7,.48-1.86.78-2.08.92-3.47.22-2.22-.46-2.56-.51-4.95-.02-1.31-.07-4.62,2.04-6.25.84-.65,1.78-.84,2.23-.93,1.41-.28,1.96.49,3.7.35.48-.03,1.29-.11,2.17-.58,1.16-.61,1.09-1.2,2.09-1.82.96-.58,2.33-.83,3.5-.46,1.53.48,1.51,1.61,2.84,1.81.96.13,1.8-.35,2.91-.99,1.27-.73,1.18-1.04,2.11-1.54.63-.34,1.28-.52,1.9-.6.39-.35.73-.57.91-.68.52-.32,2.3-1.43,4.43-1.13,1.04.14,1.06.47,2.51.71,1.25.21,2.22.37,3.07-.09,1.19-.64.77-1.7,2.04-2.68.97-.74,2.34-.99,3.45-.78,1.15.24,1.29.81,2.59.98.99.13,1.78-.08,2.24-.21,1.68-.48,1.92-1.39,3.35-1.61.45-.07,1.4-.21,2.4.09,2.55.79,3.65,3.94,4.08,5.17.79,2.25.27,2.81,1.24,4.82.62,1.24.98,1.35,2.07,2.93.05.06.09.13.14.19-1.29-.53-3-1.2-5.28-2.02-5.1-1.83-6.17-1.92-7.34-1.67-2.97.63-2.96,2.69-7.09,4.27-1.49.57-1.02.13-5.84,1.4-2.86.75-4.27,1.24-5.62,1.81-1.46.62-2.33,1.12-3.27,1.62-5.11,2.7-5.82,1.85-8.2,3.51-1.15.8-3.89,2.72-4.57,5.83-.42,1.98.42,2.45-.02,5.17-.19,1.22-.73,2.52-1.79,5.15-1.35,3.32-1.71,3.6-1.84,4.95-.21,2.1.59,2.21.47,4.28-.13,2.2-1.13,3.86-2.6,6.31-1.59,2.64-2.04,2.47-2.5,3.99-.52,1.71-.36,3.26-.11,5.6.27,2.61.63,2.53.65,4.23.02,1.33-.19,2.12-.99,5.55-.67,2.92-1.02,4.37-1.06,4.63-.37,1.99.22,3.87,1.16,5.6Z"/>
          <path class="cls-4" d="M228.2,337.72c1.75-1.03,2.87-1.79,4.5-2.88,2.32-1.56,2.74-1.83,3.3-2.54.22-.27,1.01-1.3,1.48-2.87.18-.61.72-2.67-.01-5.04-.36-1.17-.56-.87-.84-1.92-.43-1.59-.2-3.09.18-5.38.22-1.33.31-1.39.28-1.92-.05-.91-.37-1.62-1.54-3.48-2.16-3.4-2.7-3.52-2.96-3.54-1.12-.09-2.07,1.17-2.2,1.35-1.32,1.81-.28,3.62-.27,8.79,0,2.33-.21,3.77-.26,4.11-.23,1.54-.54,3.48-1.72,5.53-.05.09-.65.91-1.86,2.55-1.39,1.9-2.1,2.85-2.8,4.26-1.04,2.08-.85,2.7-.73,2.95.47,1.05,1.96,1.25,2.09,1.27.89.11,1.59-.2,3.38-1.26Z"/>
          <path class="cls-4" d="M231.26,303.65c.36-.27.69-.93-.12-4.43-.89-3.83-1.33-5.74-2.47-6.06-1.49-.41-3.76,1.26-4.02,3.03-.14.97.45.97,2.43,4.7.66,1.24,1.01,2.03,1.95,2.53.11.06,1.48.78,2.22.22Z"/>
        </g>
      </g>
      <path class="cls-1" d="M244.19,582.88c.48,6.83-7.37,12.08-8.61,12.91-8.67,5.8-18.79,3.93-23.09,3.13-4.9-.91-17.95-3.32-22.69-12.91-2.65-5.36.02-7.45-.39-24.65-.18-7.47-.29-11.9-1.57-17.61-1.77-7.9-3.91-9.9-9.78-23.09-3.98-8.93-6.42-14.39-7.79-19.32,3.2,2.43,7.08,8.54,12.37,16.88,2.43,3.84,6.32,10.05,9.39,18.98,3.49,10.16,5.53,16.09,5.28,24.26-.13,4.18-.84,8.48,1.96,11.93,1.18,1.46,3.08,2.41,6.88,4.31,4.94,2.46,7.41,3.69,10.73,3.71.46.01,7.03-.01,8.21-3.13.71-1.87-.96-3.69-3.52-7.63-.95-1.46-5.34-8.22-7.12-13.89-.38-1.2-2.54-8.41,0-15.94,1.6-4.75,3.52-5.05,10.45-13.8,5.8-7.34,9.06-11.45,10.95-17.21,2.21-6.73,1.5-12.48.79-17.81-.94-7-2.82-12.76-4.75-17.38,3.66,3.92,7.04,9.04,8.78,15.52,3.52,13.15-1.64,24.81-3.13,28.17-6.08,13.74-14.26,14.1-15.65,25.05-.77,5.99.41,15.94,6.65,21.91,3.62,3.46,7.88,4.57,12.52,10.96,2.88,3.96,3.09,6.07,3.13,6.65Z"/>
      <path class="cls-3" d="M174.13,473.22c.22-.46,1.8-3.74,4.6-6.26,6.61-5.97,16.31-4.42,18.88-4.01,1.43.23,7.01,1.12,7.26,3.23.19,1.6-2.77,3.23-2.96,3.33-.75.41-1.65.73-4.79.98-4.55.36-5.15-.11-7.53.49-1.39.35-2.36.8-4.21,1.66-2.38,1.11-4.02,2.18-4.7,2.64-1.24.84-1.86,1.26-2.35,1.76-1.72,1.79-1.6,3.18-3.13,3.91-.61.29-1.73.6-2.35.1-.82-.67-.38-2.46.1-4.4.25-1.02.5-2,1.17-3.42Z"/>
      <path class="cls-3" d="M175.01,487.16c.06-1.31.1-2.41-.59-2.93-.66-.5-1.61-.18-1.71-.15-.87.3-1.26,1.09-1.47,1.52-.37.77-.28,1.19-.34,3.72-.03,1.13-.06,1.68-.05,2.84.01,1.43.08,1.89.29,2.4.19.44.59,1.39,1.47,1.61.85.22,1.63-.39,1.76-.49,1.18-.91,1.36-2.76,1.12-4.01-.2-1.06-.6-1.19-.68-2.35-.06-.86.15-.96.2-2.15Z"/>
    </g>
  </g>
</svg>