<?xml version="1.0" encoding="UTF-8"?>
<svg id="Capa_2" xmlns="http://www.w3.org/2000/svg" viewBox="0 0 1663.3329 228.9927">
  <defs>
    <style>
      .cls-1 {
        fill: #70569b;
      }

      .cls-2 {
        fill: #604593;
      }

      .cls-3 {
        fill: #47327c;
      }

      .cls-4 {
        fill: #a486ce;
      }
    </style>
  </defs>
  <g id="Capa_1-2" data-name="Capa_1">
    <g>
      <g>
        <path class="cls-4" d="M1607.8319,223.9929c-4.4746,0-13.9756-1.9404-29.7158-5.1553-39.0303-7.9717-111.6787-22.8096-200.8525-26.4277-16.0029-.6494-32.7998-.9653-51.3525-.9653-56.5449,0-118.7979,3.0166-184.7061,6.2104-77.0078,3.7314-156.6377,7.5898-241.1055,7.5908-7.3896,0-14.8037-.0308-22.0361-.0913-60.1426-.5068-139.6729-5.9375-223.873-11.6865-103.373-7.0581-220.5391-15.0581-324.2305-15.3838-1.8779-.0059-3.7656-.0083-5.6367-.0083-64.1611,0-131.7061,3.2788-200.7822,9.7456l-.1934.1826-1.7773.0093c-6.7949.6318-13.2451,1.2798-18.1191,1.7749-32.2422,3.2905-57.0264,6.459-73.4258,8.5557-12.0879,1.5454-17.0732,2.1724-19.082,2.1724-.791,0-1.8398-.0791-2.9365-.6982-2.1689-1.2231-3.3203-3.5464-2.9287-5.9165.5615-3.4023,2.5869-6.2251,24.7354-14.1558,13.5244-4.8428,32.2061-10.6914,54.0244-16.9136,49.6582-14.1606,104.7002-27.2827,151.0127-36.0015,31.5254-5.9341,58.4531-10.0732,80.0908-13.3994,18.8047-2.8906,36.8027-5.6572,45.5098-8.0239-6.5215-2.4468-21.0586-6.5874-53.3711-13.147-31.9316-6.4819-72.2832-13.5552-107.8848-19.7954-26.3623-4.6211-51.2627-8.9858-69.249-12.4937-9.6592-1.8838-16.7275-3.4023-21.6094-4.6426-6.2695-1.5923-11.6846-2.9678-11.6416-7.9077.0527-5.6992,6.7246-5.6992,8.918-5.6992,4.6201,0,12.5137.6318,24.4639,1.5879,28.8418,2.3081,77.1143,6.1709,142.4902,6.1709,24.7285,0,49.9424-.5693,74.9443-1.6914,70.0312-3.145,140.7236-12.1021,209.0879-20.7642,85.4639-10.8281,173.8369-22.0254,261.9658-22.0254,14.0371,0,27.9658.2856,41.4004.8491,90.376,3.7808,180.7422,19.272,268.1318,34.2534,38.9248,6.6729,79.1738,13.5728,118.8369,19.334,70.1807,10.1948,140.9834,15.3643,210.4404,15.3643h.0146c21.1064,0,42.5273-.4746,63.6758-1.4111,1.4688-.0669,8.0938-.6152,16.4814-1.3096,21.6895-1.7949,62.0615-5.1367,88.6113-6.3994,7.2646-.3525,13.1816-.5317,17.5811-.5317,7.3936,0,13.7822.0005,14.5361,5.396.1582,1.0933-.0186,2.2114-.5127,3.2451-.2285.4844-.5283.9443-.9131,1.4048l-.0859.0996c-1.3428,1.52-3.8418,4.3496-31.209,11.9575-39.0781,10.8413-116.9854,27.6348-202.9473,40.7153-20.1191,3.0576-34.1055,5.1982-44.7891,7.0259-4.6016.7822-16.2842,2.7681-22.6846,4.7993,16.7793,5.5337,64.1592,18.292,106.7314,29.7554,35.21,9.4814,71.6182,19.2856,99.8682,27.3413,49.2031,14.0317,50.7246,16.1714,52.207,18.5762.0908.1411.2598.4185.4189.7979.2803.6548.4268,1.3647.4268,2.0713v.3359l-.0449.3726c-.1562,1.1611-1.1182,4.9497-6.9092,4.9502Z"/>
        <path class="cls-1" d="M818.5668,9.9998c13.708,0,27.4243.2673,41.189.8445,130.2798,5.4502,257.7898,34.8501,386.46,53.54,70.3318,10.2166,140.5032,15.4163,211.1582,15.4163,21.2554,0,42.5498-.4705,63.9116-1.4163,5.51-.25,68.1201-5.95,105.1101-7.71,6.825-.3311,12.78-.5254,17.3423-.5256,5.9124,0,9.4861.3267,9.5876,1.1057.02.1199-.01.25-.0798.3899-.05.1101-.1301.22-.2302.3401-1.8899,2.1399-12.1799,5.8298-28.7998,10.45-40.1902,11.1499-117.3901,27.6599-202.3601,40.5901-19.3499,2.9399-33.95,5.1699-44.8799,7.0398-24.8801,4.2302-30.8401,6.6001-30.8201,11.28.03,4.8401,258.6399,68.8101,263.55,76.78.02.03.04.0601.05.0901.0198.04.0298.0801.0298.1199v.04c-.0571.4224-.7183.6184-1.9539.6184-14.3867,0-106.6619-26.5596-230.366-31.5784-16.6243-.675-33.833-.9697-51.5579-.9697-121.3623-.0012-267.5813,13.8008-425.8027,13.8008-7.3113,0-14.6382-.0295-21.9995-.0911-134.0901-1.1299-360.1899-26.48-548.1299-27.0701-1.8887-.0056-3.7766-.0085-5.6575-.0085-77.5391,0-148.3181,4.7737-202.9525,9.9287-.01.01-.03.01-.0403.01-6.3497.5898-12.4797,1.2-18.3798,1.7998-53.2253,5.4316-87.4968,10.7021-92.0029,10.7021-.256,0-.4153-.0171-.4771-.052-9.17-5.1699,119.5-43.8,225.3098-63.72,81.76-15.3901,133.9802-18.9001,133.8601-26.1101-.26-14.25-268-51.28-267.9399-58.1699.0048-.52,1.3302-.7424,3.917-.7424,15.2823,0,74.6904,7.7585,166.9553,7.7585,23.0664,0,48.1677-.4841,75.1677-1.696,157.7834-7.0864,312.5693-42.7847,470.8311-42.7847M818.5666,0c-88.4448,0-176.9773,11.217-262.5947,22.0652-68.2656,8.6492-138.8557,17.593-208.6848,20.7292-24.927,1.1189-50.0662,1.686-74.7188,1.686-65.177,0-113.3252-3.8525-142.0928-6.1548-12.0693-.9658-20.0427-1.6038-24.8628-1.6038-1.9932,0-3.454.1052-4.7369.3413-6.2864,1.1572-9.1403,6.0117-9.1796,10.3093-.0245,2.8035,1.047,7.9192,8.4974,10.7373,1.674.6333,3.9348,1.3086,6.9124,2.0649,4.974,1.2637,12.1322,2.8022,21.884,4.7043,18.0332,3.5168,42.9572,7.8857,69.3444,12.511,34.6533,6.074,73.9304,12.9585,105.3862,19.292,15.6677,3.1545,27.1753,5.7395,35.627,7.8298-7.7043,1.2932-16.4949,2.6445-25.1667,3.9775-21.6738,3.3315-48.6479,7.4778-80.2551,13.4275-46.4561,8.7458-101.6604,21.9062-151.4589,36.1072-21.9225,6.2515-40.7128,12.135-54.3395,17.0144-7.0345,2.5188-12.592,4.739-16.5182,6.5991-5.025,2.3806-10.4696,5.4248-11.4644,11.449-.7378,4.4675,1.3859,8.8201,5.4098,11.0886,2.3682,1.3411,4.6414,1.3411,5.3882,1.3411,2.2983,0,6.5702-.5322,19.7271-2.2141,16.3737-2.0933,41.1172-5.2563,73.2911-8.5396,4.7819-.4863,11.1041-1.1216,17.8276-1.7483h3.679l.3909-.387c68.2787-6.3389,135.0272-9.5518,198.4598-9.5518,1.8708,0,3.7488.0029,5.6274.0085,103.5256.325,220.6035,8.3191,323.8987,15.3718,84.2791,5.7544,163.884,11.1897,224.177,11.6978,7.2559.0608,14.6858.0916,22.0837.0916,84.5874,0,164.2756-3.8618,241.3398-7.5964,65.8455-3.1909,128.0388-6.2051,184.4629-6.2046,18.491.0002,35.2231.3149,51.1521.9617,88.7732,3.6016,161.1658,18.3872,200.0576,26.3306,17.845,3.6448,25.9358,5.2561,30.7141,5.2561,7.832,0,11.2859-4.9993,11.8638-9.2805l.0901-.666v-.6719c0-1.3157-.2468-2.6089-.7185-3.8079-.0002-.0005-.0002-.0007-.0005-.0012-.001-.0022-.0017-.0046-.0027-.0071-.2441-.624-.5471-1.2175-.9185-1.7986-2.1802-3.469-5.3188-5.3589-19.9153-10.1411-8.2463-2.7021-19.7366-6.1492-35.1272-10.5381-28.2854-8.0664-64.7129-17.8755-99.9409-27.3613-30.3064-8.1609-65.4153-17.615-88.1711-24.1611,1.1577-.2053,2.3767-.417,3.6609-.6353,10.6633-1.824,24.6238-3.9604,44.7061-7.0115,86.1721-13.1133,164.3142-29.9607,203.531-40.8406,26.5974-7.3938,31.0808-10.5889,33.6221-13.4666l.0942-.1069.0913-.1094c.6411-.7688,1.1514-1.5549,1.5554-2.3972.9504-1.9622,1.2822-4.1052.9634-6.2188-.4648-3.1492-2.5903-8.3423-11.4226-9.3037-1.9746-.2148-4.6094-.3193-8.0547-.3193-4.4788,0-10.4768.1809-17.8267.5376-26.6274,1.2668-65.531,4.4868-88.7754,6.4104-8.0066.6628-14.9214,1.2351-16.3037,1.2979-21.0667.9329-42.4209,1.406-63.4583,1.406-69.2139,0-139.7742-5.1519-209.7207-15.3125-39.6001-5.752-79.8176-12.6465-118.7107-19.3137-87.5459-15.0083-178.0723-30.5271-268.7688-34.3215-13.5022-.5659-27.5012-.8528-41.6072-.8528h0Z"/>
      </g>
      <g>
        <path class="cls-2" d="M868.4647,178.6292c-10.2803,0-18.2051-1.6436-21.1885-2.2627-10.6416-2.2036-30.4463-6.3052-46.2842-24.02-1.8984-2.1221-3.665-4.356-5.251-6.6401-12.0225-17.2163-13.3066-35.4863-13.3008-42.542.0039-4.2939.9844-42.5415,33.623-62.7783,11.0732-6.8667,24.0137-10.4961,37.4219-10.4961,10.6787,0,21.5068,2.3716,30.4893,6.6777,2.0312.9746,4.543,2.8076,7.6768,5.604,6.9678,6.1938,16.793,16.8647,31.665,33.0171,14.7744,16.0425,17.9551,21.1602,20.0127,28.394,4.5801,16.0557-.7529,30.522-3.2578,35.9966-7.9297,17.3516-22.5098,24.9326-31.2217,29.4619-12.2256,6.3623-25.8125,9.5879-40.3848,9.5879Z"/>
        <path class="cls-3" d="M853.4889,32.8022c10.25,0,20.6294,2.2698,29.2244,6.3906,1.759.8442,4.1138,2.5774,7.0068,5.1592,6.8496,6.0886,16.6316,16.7122,31.4541,32.8108,14.3726,15.605,17.438,20.4827,19.3542,27.2214,4.313,15.1189-.7351,28.802-3.1067,33.9854-7.5129,16.439-21.5369,23.731-29.9177,28.0889-11.8052,6.1433-24.9397,9.2583-39.0391,9.2583-9.9817,0-17.6941-1.5999-20.5991-2.2024-10.3115-2.1357-29.5056-6.1108-44.7043-23.1106-1.8159-2.0303-3.5081-4.1697-5.0369-6.3708-11.5439-16.5325-12.7771-34.0864-12.7715-40.8662.0034-4.1284.9373-40.8943,32.2454-60.3057,10.6108-6.5798,23.0205-10.0583,35.8889-10.0588h.0015M853.4853,26.9768c-12.8892.0007-26.519,3.2209-38.9568,10.9336-34.2732,21.2498-34.9976,61.4141-35.0007,65.2515-.0042,5.0193.4868,25.1101,13.8206,44.2061,1.6177,2.3289,3.4365,4.6448,5.4714,6.9197,16.4734,18.4253,36.8892,22.658,47.8647,24.9312,3.7537.7786,11.6309,2.3235,21.7805,2.3235,11.8088,0,26.6934-2.0923,41.7283-9.9163,8.6589-4.5024,24.1826-12.5774,32.5269-30.835,1.9917-4.353,8.5166-20.105,3.4102-38.0049-2.3081-8.1174-6.2207-13.8801-20.6711-29.5698-14.9421-16.2283-24.7988-26.9338-31.8687-33.2183-3.3196-2.9622-6.0303-4.9407-8.3569-6.0571-9.0291-4.3289-20.085-6.9646-31.7483-6.9641h0Z"/>
      </g>
    </g>
  </g>
</svg>