<?xml version="1.0" encoding="UTF-8"?>
<svg id="Capa_2" xmlns="http://www.w3.org/2000/svg" viewBox="0 0 1047.4929 347.4998">
  <defs>
    <style>
      .cls-1 {
        fill: #599dd1;
      }

      .cls-2 {
        fill: #1e86c6;
      }

      .cls-3 {
        fill: #0476af;
      }

      .cls-4 {
        fill: #4291c1;
      }

      .cls-5 {
        fill: #86bfea;
      }
    </style>
  </defs>
  <g id="Capa_1-2" data-name="Capa_1">
    <g>
      <g>
        <path class="cls-5" d="M1037.2449,187.6233c-7.04,28.96-150.0601,43.59-295.04,91.5699-81.98,27.13-151.73,62.9501-237.9299,57.8099-77.11-4.5999-126.26-37.49-195.16-72.47-35.44-18.01-76.1-36.5599-128.48-52.1199-40.24-11.9601-87.39-22.1401-144.4-28.9301-8.53-1.02-28.51-8.9801-26.03-18.5699,3.3-12.7301,23.54-11.5701,31.79-11.5,17.87.1399,35.74-1.28,53.41-3.9401,35.76-5.38,70.57-15.82,104.46-28.28,69.53-25.57,135.51-59.93,205.55-84.2,54.83-19,112.76-31.47,171.02-25.48,73.9699,7.61,141.4699,43.79,207.31,78.33,15.8301,8.3,32.35,15.61,49.04,22.11,39.6899,15.48,80.33,26.47,114.84,35.62,54.35,14.4,93.4601,24.28,89.62,40.05Z"/>
        <path class="cls-4" d="M546.4546,10.0001c9.9766-.0002,19.9702.484,29.98,1.5132,73.9702,7.61,141.4702,43.7899,207.3101,78.33,15.8301,8.3,32.3501,15.61,49.04,22.11,39.6899,15.48,80.3301,26.47,114.8403,35.62,54.3496,14.4,93.46,24.28,89.6196,40.05-7.04,28.96-150.0601,43.59-295.04,91.5699-76.6211,25.3566-142.5679,58.3068-221.2373,58.3068-5.502,0-11.0576-.1609-16.6924-.4968-77.1104-4.5999-126.26-37.4899-195.1602-72.47-35.4399-18.01-76.0999-36.5599-128.48-52.1198-40.24-11.9602-87.3899-22.1403-144.3999-28.9302-8.53-1.02-28.51-8.9802-26.03-18.5698,2.7302-10.5321,17.0566-11.5568,26.5942-11.5568,1.9905,0,3.7712.0446,5.1958.0568.804.0062,1.6106.0094,2.4143.0094,17.0657,0,34.1206-1.4093,50.9956-3.9496,35.76-5.38,70.5701-15.8201,104.46-28.28,69.53-25.5699,135.51-59.9299,205.55-84.2,45.4094-15.7356,92.9514-26.9922,141.0398-26.9932M546.4595,0v10l-.002-10c-43.6274.001-90.833,9.011-144.3171,27.5444-37.7922,13.0957-74.8457,29.2888-110.6787,44.9489-30.947,13.5243-62.9475,27.5092-95.0483,39.3146-38.8103,14.2689-71.3794,23.0952-102.4963,27.7766-16.9189,2.5469-33.5754,3.8383-49.5078,3.8383-.7776,0-1.5581-.0028-2.3357-.009-.4861-.0042-1.0234-.0125-1.5984-.0214-1.1091-.017-2.3479-.0356-3.676-.0356-4.8955,0-12.1697.2354-18.7888,2.2704-11.7976,3.6274-16.0205,11.1256-17.4854,16.777-1.2415,4.7993-.2639,9.8696,2.751,14.2822,7.1956,10.5325,24.8313,15.8964,31.7717,16.7262,52.2798,6.2266,98.9683,15.5773,142.738,28.5864,54.2078,16.1028,94.5171,35.0442,126.7986,51.4492,11.1021,5.6364,21.7336,11.2421,32.0151,16.6633,53.8252,28.3806,100.3108,52.891,167.0798,56.8739,5.7256.3416,11.542.5144,17.2881.5144,62.0181,0,115.5854-19.6102,172.2979-40.3721,16.856-6.1708,34.2856-12.5516,52.0815-18.4408,59.5962-19.723,120.0806-34.0612,168.6802-45.5819,88.3159-20.9359,127.5864-31.119,132.9351-53.1196,1.0386-4.2657,1.4419-12.6055-7.54-20.4871-4.4976-3.9468-10.9033-7.5026-20.1587-11.1903-15.8203-6.3035-38.4478-12.2931-64.6484-19.2284l-4.4287-1.1729c-38.4077-10.1833-76.0107-20.5439-113.7676-35.2699-17.3857-6.771-33.5435-14.0546-48.0303-21.65l-4.6367-2.4332C718.7862,44.4543,651.6089,9.1943,577.4581,1.5657c-10.1045-1.0389-20.5337-1.5657-30.9985-1.5657h0Z"/>
      </g>
      <g>
        <path class="cls-2" d="M573.9848,208.0032c-.31,24.6602-14.57,42.1801-18.75,46.9501-17.52,20.01-40.29,24.37-52.99,26.7999-41.01,7.8601-73.83-9.24-83.5-14.46-13.07-7.05-37.38-20.1699-51.3-49.8099-1.72-3.66-3.15-7.29-4.32-10.86-9.68-29.3-2.68-54.99-.77-61.3601,1.46-4.8699,17.62-55.58,69.19-69.5499,35.65-9.66,70.59,3.01,91.26,21.79,2.53,2.3,5.22,5.84,8.31,10.86,6.59,10.66,15.04,27.9901,27.85,54.2601,12.39,25.3999,15.17,34.2,15.02,45.3799Z"/>
        <path class="cls-3" d="M456.5547,72.3918v5.8253c22.7676,0,46.0693,8.8215,62.3315,23.5969,2.0728,1.8837,4.4497,5.0248,7.2734,9.6123,6.4351,10.4093,14.8384,27.6431,27.5693,53.7509,12.4922,25.6088,14.5601,33.1346,14.4312,42.7527-.27,21.4578-12.1929,37.3483-17.3081,43.1859-16.2036,18.5065-37.1733,22.5186-49.7041,24.916-6.6787,1.2802-13.5342,1.9293-20.375,1.9293-19.9082,0-39.8467-5.314-59.2627-15.795-12.4712-6.7272-35.6851-19.2489-48.7932-47.1605-1.5679-3.3362-2.9326-6.7667-4.061-10.2097-8.5493-25.8782-3.3525-49.0839-.7212-57.8599,1.6016-5.3423,17.0366-52.571,65.1335-65.6001,7.6367-2.0693,15.5386-3.1187,23.4863-3.1188v-5.8253M456.5543,72.3918c-8.1768,0-16.5732,1.0355-25.0093,3.3214-51.5701,13.97-67.7302,64.6801-69.1902,69.5499-1.9099,6.3701-8.9099,32.0601.77,61.3601,1.1699,3.5699,2.6001,7.2,4.3201,10.86,13.9199,29.64,38.23,42.7599,51.2998,49.8099,7.9116,4.2709,31.3164,16.4933,62.0283,16.4933,6.8252,0,14.0151-.6041,21.4717-2.0333,12.7002-2.4299,35.4702-6.7899,52.9902-26.7999,4.1797-4.77,18.4399-22.2899,18.75-46.9501.1499-11.1799-2.6299-19.98-15.02-45.3799-12.8101-26.27-21.2603-43.6-27.8501-54.26-3.0898-5.02-5.7798-8.5601-8.3101-10.86-15.7788-14.3361-39.8726-25.1117-66.2505-25.1115h0Z"/>
      </g>
      <circle class="cls-1" cx="160.8586" cy="165.3307" r="12.861"/>
      <circle class="cls-1" cx="286.6908" cy="135.9941" r="18.1988"/>
      <circle class="cls-1" cx="664.5201" cy="154.1929" r="18.1988"/>
      <circle class="cls-1" cx="230.1723" cy="189.3154" r="6.4305"/>
      <circle class="cls-1" cx="473.7636" cy="47.5358" r="6.4305"/>
      <circle class="cls-1" cx="822.7401" cy="153.7286" r="6.4305"/>
      <circle class="cls-1" cx="810.2505" cy="199.1923" r="14.6473"/>
      <circle class="cls-1" cx="751.6264" cy="237.5612" r="9.0784"/>
      <circle class="cls-1" cx="712.0422" cy="263.325" r="9.0784"/>
      <circle class="cls-1" cx="639.466" cy="82.0134" r="11.1378"/>
      <circle class="cls-1" cx="395.694" cy="277.9722" r="11.1378"/>
      <circle class="cls-1" cx="942.7375" cy="172.3916" r="11.1378"/>
      <circle class="cls-1" cx="93.9983" cy="172.3916" r="8.5811"/>
      <circle class="cls-1" cx="496.6505" cy="309.3521" r="7.3643"/>
      <circle class="cls-1" cx="550.6505" cy="53.9663" r="11.1378"/>
      <circle class="cls-1" cx="879.6955" cy="183.2821" r="11.1378"/>
      <circle class="cls-1" cx="550.6505" cy="289.3555" r="5.5689"/>
      <circle class="cls-1" cx="631.8036" cy="277.9722" r="5.5689"/>
      <circle class="cls-1" cx="585.1283" cy="103.6116" r="11.1378"/>
      <circle class="cls-1" cx="304.8895" cy="207.3906" r="23.2871"/>
      <circle class="cls-1" cx="745.4934" cy="128.461" r="19.7801"/>
      <circle class="cls-1" cx="353.1994" cy="84.2804" r="14.8606"/>
      <circle class="cls-1" cx="618.5418" cy="225.9897" r="22.2756"/>
    </g>
  </g>
</svg>