<?xml version="1.0" encoding="UTF-8"?>
<svg id="Capa_2" xmlns="http://www.w3.org/2000/svg" viewBox="0 0 1663.3329 228.9927">
  <defs>
    <style>
      .cls-1 {
        fill: #fc9b65;
      }

      .cls-2 {
        fill: #c64e12;
      }

      .cls-3 {
        fill: #e56525;
      }

      .cls-4 {
        fill: #d8601d;
      }
    </style>
  </defs>
  <g id="Capa_1-2" data-name="Capa_1">
    <g>
      <g>
        <path class="cls-1" d="M1653.3256,71.2543c.02.12-.01.25-.0798.39-.05.11-.1301.22-.2302.3401-1.8899,2.1399-12.1799,5.8298-28.7999,10.45-40.1901,11.1499-117.39,27.6599-202.36,40.59-19.35,2.9401-33.95,5.17-44.88,7.0399-24.88,4.2301-30.84,6.6001-30.8199,11.28.03,4.8401,258.6399,68.8101,263.5499,76.78.02.03.04.0601.05.0901.0199.0399.0299.08.0299.1199v.04c-.72,5.3401-97.99-25.51-232.3199-30.96-135.71-5.51-309.4301,14.33-499.36,12.74-134.0901-1.13-360.19-26.48-548.13-27.0701-79.75-.24-152.65,4.6401-208.61,9.92-.01.01-.03.01-.04.01-6.35.59-12.48,1.2001-18.3799,1.7999-56.25,5.7401-91.33,11.3-92.48,10.6501-9.17-5.17,119.5-43.8,225.31-63.7201,81.76-15.39,133.98-18.9,133.86-26.11-.26-14.25-268-51.28-267.94-58.1699.04-4.3601,92.7599,12.2,246.04,5.3199,171.45-7.7001,339.34-49.1801,512.02-41.9401,130.2799,5.4501,257.7899,34.8501,386.46,53.54,91.49,13.29,182.7001,18.0901,275.0699,14,5.51-.25,68.1201-5.95,105.1101-7.71,15.6699-.76,26.75-.8,26.9299.58Z"/>
        <path class="cls-3" d="M818.5667,9.9999c13.708,0,27.4243.2673,41.189.8445,130.28,5.45,257.79,34.85,386.46,53.5399,70.3318,10.2166,140.5051,15.4161,211.1604,15.4161,21.2554,0,42.5479-.4702,63.9097-1.4161,5.5098-.25,68.1201-5.95,105.1099-7.71,6.8252-.3311,12.7798-.5255,17.3418-.5255,5.9126,0,9.4868.3265,9.5884,1.1055.02.12-.0103.25-.0801.39-.0498.11-.1299.22-.23.34-1.8901,2.14-12.1802,5.8301-28.7998,10.4501-40.1904,11.15-117.3901,27.66-202.3604,40.59-19.3496,2.9401-33.9497,5.17-44.8799,7.04-24.8799,4.23-30.8398,6.6-30.8198,11.28.0298,4.84,258.6396,68.8099,263.5498,76.7799.02.03.04.0601.0503.0901.0195.0399.0298.08.0298.12v.0399c-.0571.4225-.7183.6184-1.9541.6184-14.3867,0-106.6621-26.5594-230.3657-31.5784-16.624-.6749-33.8335-.9695-51.5586-.9697-121.3623-.0011-267.5835,13.8008-425.8047,13.8008-7.3113,0-14.6355-.0294-21.9968-.0911-134.0901-1.13-360.1902-26.48-548.1301-27.0699-1.8887-.0057-3.7769-.0085-5.6577-.0085-77.5391-.0001-148.3176,4.7736-202.9521,9.9285-.01.01-.03.01-.04.01-6.3501.59-12.48,1.2001-18.3801,1.8-53.2253,5.4313-87.4963,10.7019-92.0027,10.7019-.2561,0-.4155-.017-.4773-.0519-9.1699-5.17,119.5-43.8,225.3101-63.7201,81.76-15.39,133.98-18.8999,133.8601-26.11-.26-14.25-268-51.28-267.9402-58.1699.0049-.52,1.3298-.7426,3.9167-.7426,15.2822,0,74.689,7.7588,166.9539,7.7588,23.0662,0,48.1694-.4844,75.1694-1.6963,157.7834-7.0862,312.5696-42.7844,470.8311-42.7844M818.5664,0c-88.4446,0-176.9766,11.217-262.5935,22.0649-68.2661,8.6494-138.8567,17.5935-208.686,20.7294-24.927,1.1189-50.0667,1.6862-74.7207,1.6862-65.177,0-113.3245-3.8528-142.0916-6.1548-12.0691-.9659-20.0425-1.6039-24.8625-1.6039-1.9932,0-3.4541.1052-4.7371.3416-6.2861,1.1573-9.1396,6.0116-9.179,10.3091-.0244,2.8037,1.0474,7.9193,8.4976,10.7375,1.6738.6329,3.9348,1.3086,6.9124,2.0649,4.9741,1.2634,12.1326,2.8024,21.8845,4.7041,18.0334,3.5173,42.9575,7.886,69.3452,12.5114,34.6533,6.0741,73.9302,12.9587,105.3855,19.2919,15.6677,3.1545,27.1748,5.7396,35.6265,7.8297-7.7053,1.2936-16.4944,2.6445-25.1675,3.9778-21.6736,3.3314-48.6472,7.4775-80.2544,13.427-46.4563,8.7462-101.6609,21.9066-151.459,36.1073-21.9226,6.2516-40.7129,12.135-54.3396,17.0144-7.0347,2.5188-12.592,4.739-16.5183,6.599-5.0249,2.3807-10.4695,5.425-11.4641,11.4491-.7378,4.4675,1.3857,8.8201,5.4097,11.0886,2.3682,1.3409,4.6414,1.3409,5.3884,1.3409,2.2986,0,6.5701-.532,19.7261-2.2139,16.3738-2.0931,41.1174-5.2563,73.2917-8.5396,7.0298-.715,12.5554-1.2568,17.8286-1.7484h3.6782l.3911-.3868c68.2771-6.339,135.0254-9.5518,198.4592-9.5515,1.8708,0,3.749.0027,5.6277.0084,103.5269.325,220.6057,8.3188,323.9021,15.3718,84.2776,5.7545,163.8816,11.1897,224.1738,11.6976,7.2559.0609,14.6851.0917,22.0808.0917,84.5867,0,164.2749-3.8618,241.3394-7.5964,65.8464-3.1912,128.0413-6.205,184.4656-6.2045,18.4917.0001,35.2236.3147,51.1528.9615,88.7729,3.6016,161.1655,18.3872,200.0571,26.3304,17.8452,3.6448,25.9365,5.2561,30.7144,5.2561,7.832,0,11.2861-4.9993,11.8643-9.2804l.0898-.6659v-.6721c0-1.3335-.2539-2.6444-.7383-3.8573-.2402-.6075-.5376-1.1859-.8994-1.7529-2.1802-3.4719-5.3154-5.3612-19.918-10.1459-8.2466-2.7018-19.7368-6.1488-35.1279-10.538-28.2856-8.0665-64.7134-17.8756-99.9419-27.3618-30.3057-8.1606-65.4131-17.6143-88.1689-24.1605,1.1577-.2051,2.3765-.4166,3.6606-.6349,10.6616-1.8241,24.6226-3.9607,44.7056-7.0121,86.1724-13.1129,164.3145-29.9607,203.5317-40.8405,26.5967-7.3937,31.0801-10.5889,33.6216-13.4663l.0913-.1035.0884-.1058c.6587-.7886,1.1802-1.5964,1.5903-2.4644.9263-1.9419,1.2485-4.0582.9365-6.1453-.4609-3.1465-2.5791-8.3546-11.4253-9.317-1.9746-.2147-4.6094-.3193-8.0547-.3193-4.4766,0-10.4741.1808-17.8262.5374-26.6274,1.2667-65.5312,4.4868-88.7759,6.4106-8.0063.6627-14.9209,1.235-16.3027,1.2977-21.0635.9327-42.417,1.4059-63.4565,1.4059-69.2163,0-139.7773-5.1519-209.7229-15.3123-39.5991-5.7521-79.8154-12.6464-118.7078-19.3136-87.5466-15.0082-178.074-30.5273-268.7717-34.3217-13.502-.5659-27.501-.8529-41.6072-.8529h0Z"/>
      </g>
      <g>
        <path class="cls-4" d="M946.1303,102.786c5.1064,17.9-1.4186,33.6521-3.4103,38.0051-8.3442,18.2574-23.8679,26.3324-32.5267,30.8348-27.9574,14.5488-55.3877,9.2773-63.5089,7.5928-10.9756-2.273-31.3914-6.5058-47.8647-24.9311-2.035-2.275-3.8538-4.5909-5.4715-6.9196-13.3337-19.0959-13.8248-39.1868-13.8205-44.2062.0031-3.8373.7277-44.0015,35.0009-65.2514,23.6923-14.6918,51.698-13.0822,70.705-3.9695,2.3268,1.1163,5.0373,3.0949,8.3569,6.0571,7.0699,6.2843,16.9266,16.99,31.8687,33.2182,14.4503,15.6897,18.363,21.4526,20.6711,29.5698Z"/>
        <path class="cls-2" d="M853.489,32.8022c10.25,0,20.6294,2.2699,29.2246,6.3907,1.7585.8438,4.113,2.577,7.0066,5.1591,6.8486,6.0875,16.6284,16.709,31.4541,32.8105,14.3723,15.6052,17.4377,20.4828,19.3542,27.2214,4.3127,15.1194-.7354,28.8022-3.1069,33.9856-7.5129,16.4385-21.5369,23.7308-29.9175,28.0886-11.8052,6.1434-24.9399,9.2584-39.0391,9.2584-9.9814,0-17.6941-1.5997-20.5994-2.2024-10.3115-2.1355-29.5051-6.1104-44.7043-23.1107-1.8145-2.0282-3.5063-4.1678-5.0369-6.3705-11.5439-16.5328-12.7771-34.0868-12.7715-40.8666.0034-4.1283.9373-40.8938,32.2456-60.3053,10.6108-6.58,23.0203-10.0583,35.8889-10.059h.0015M853.4854,26.9769c-12.8892.0006-26.5193,3.2208-38.9568,10.9335-34.2732,21.2499-34.9978,61.4141-35.001,65.2513-.0042,5.0194.4871,25.1104,13.8206,44.2063,1.6179,2.3286,3.4365,4.6447,5.4717,6.9196,16.4731,18.4253,36.8892,22.6581,47.8645,24.931,3.7539.7787,11.6311,2.3235,21.7808,2.3235,11.8091,0,26.6934-2.0922,41.7283-9.9163,8.6587-4.5024,24.1824-12.5774,32.5266-30.8347,1.9917-4.353,8.5166-20.1051,3.4104-38.0051-2.3083-8.1172-6.2209-13.88-20.6711-29.5698-14.9421-16.2281-24.7988-26.9338-31.8689-33.2181-3.3196-2.9623-6.03-4.9408-8.3567-6.0571-9.0291-4.3289-20.085-6.9646-31.7483-6.964h0Z"/>
      </g>
    </g>
  </g>
</svg>