<?xml version="1.0" encoding="UTF-8"?>
<svg id="Capa_2" xmlns="http://www.w3.org/2000/svg" viewBox="0 0 1047.4928 347.4999">
  <defs>
    <style>
      .cls-1 {
        fill: #898686;
      }

      .cls-2 {
        fill: #a3a2a2;
      }

      .cls-3 {
        fill: #c4c2c2;
      }

      .cls-4 {
        fill: #938989;
      }

      .cls-5 {
        fill: #847a7a;
      }
    </style>
  </defs>
  <g id="Capa_1-2" data-name="Capa_1">
    <g>
      <g>
        <path class="cls-3" d="M1037.2447,187.6233c-7.04,28.96-150.0601,43.59-295.04,91.5699-81.98,27.13-151.73,62.9501-237.9299,57.8099-77.11-4.5999-126.26-37.49-195.16-72.47-35.44-18.01-76.1-36.5599-128.48-52.1199-40.24-11.9601-87.39-22.1401-144.4-28.9301-8.53-1.02-28.51-8.9801-26.03-18.5699,3.3-12.7301,23.54-11.5701,31.79-11.5,17.87.1399,35.74-1.28,53.41-3.9401,35.76-5.38,70.57-15.82,104.46-28.28,69.53-25.57,135.51-59.93,205.55-84.2,54.83-19,112.76-31.47,171.02-25.48,73.9699,7.61,141.4699,43.79,207.31,78.33,15.8301,8.3,32.35,15.61,49.04,22.11,39.6899,15.48,80.33,26.47,114.84,35.62,54.35,14.4,93.4601,24.28,89.62,40.05Z"/>
        <path class="cls-1" d="M546.4545,10.0001c9.9763-.0002,19.9705.484,29.9802,1.5132,73.97,7.6099,141.47,43.7899,207.3101,78.33,15.8301,8.3,32.3499,15.61,49.04,22.11,39.6899,15.4799,80.3298,26.4698,114.8398,35.62,54.3501,14.4,93.4602,24.28,89.6201,40.05-7.04,28.96-150.0601,43.59-295.04,91.57-76.6211,25.3566-142.5679,58.3066-221.2375,58.3066-5.5022,0-11.0576-.1608-16.6924-.4968-77.1101-4.5999-126.26-37.4897-195.1602-72.47-35.4399-18.01-76.0999-36.5598-128.48-52.1198-40.24-11.96-87.3899-22.1402-144.3999-28.93-8.53-1.02-28.51-8.9802-26.03-18.57,2.7302-10.5321,17.0574-11.5566,26.595-11.5566,1.9905,0,3.7705.0446,5.1951.0566.804.0063,1.6106.0094,2.4146.0094,17.0657,0,34.1204-1.4091,50.9954-3.9494,35.76-5.38,70.5701-15.82,104.46-28.28,69.53-25.5701,135.51-59.93,205.55-84.2001,45.4094-15.7355,92.9514-26.9921,141.0398-26.993M546.4591,0v10l-.0015-10c-43.6274.0008-90.833,9.0106-144.3174,27.5443-37.7925,13.0959-74.8457,29.2889-110.6792,44.9489-30.9468,13.5244-62.947,27.5093-95.0481,39.3146-38.8098,14.2688-71.3789,23.0952-102.4961,27.7766-16.9182,2.5469-33.575,3.8381-49.5076,3.8381-.7778,0-1.5583-.0029-2.3362-.009-.4854-.0042-1.022-.0125-1.5964-.0212-1.1094-.0171-2.3484-.0357-3.677-.0357-4.8958,0-12.1699.2354-18.7888,2.2703-11.7983,3.6274-16.0212,11.1255-17.4861,16.777-1.2412,4.7994-.2637,9.8696,2.751,14.2823,7.1958,10.5323,24.8315,15.8963,31.7717,16.7261,52.2786,6.2263,98.967,15.5769,142.7383,28.5863,54.2087,16.1034,94.5173,35.0445,126.7983,51.4492,11.1018,5.6362,21.7329,11.2418,32.0142,16.6628,53.8259,28.3809,100.3115,52.8915,167.0811,56.8745,5.7253.3414,11.542.5145,17.2878.5145,62.0186,0,115.5857-19.6104,172.2981-40.3722,16.8557-6.1708,34.2856-12.5516,52.0813-18.4408,59.5964-19.723,120.0806-34.0612,168.6804-45.582,88.3159-20.9358,127.5864-31.1189,132.9348-53.1195,1.0388-4.2659,1.4419-12.6055-7.54-20.4871-4.4976-3.947-10.9033-7.5028-20.1589-11.1905-15.8206-6.3035-38.4485-12.2932-64.6494-19.2286l-4.4277-1.1724c-38.408-10.1837-76.0115-20.5445-113.7673-35.27-17.3845-6.7704-33.5425-14.054-48.0298-21.65l-4.637-2.4334C718.786,44.4543,651.6086,9.1942,577.4582,1.5657c-10.1045-1.0389-20.5339-1.5657-30.999-1.5657h0Z"/>
      </g>
      <g>
        <path class="cls-4" d="M573.9847,208.0031c-.31,24.6602-14.57,42.1801-18.75,46.9501-17.52,20.01-40.29,24.37-52.99,26.7999-41.01,7.8601-73.83-9.24-83.5-14.46-13.07-7.05-37.38-20.1699-51.3-49.8099-1.72-3.66-3.15-7.29-4.32-10.86-9.68-29.3-2.68-54.99-.77-61.3601,1.46-4.8699,17.62-55.58,69.19-69.5499,35.65-9.66,70.59,3.01,91.26,21.79,2.53,2.3,5.22,5.84,8.31,10.86,6.59,10.66,15.04,27.9901,27.85,54.2601,12.39,25.3999,15.17,34.2,15.02,45.3799Z"/>
        <path class="cls-5" d="M456.5548,72.3917v5.8254c22.7676,0,46.0693,8.8215,62.3313,23.5964,2.0728,1.8845,4.4502,5.0258,7.2734,9.6128,6.4336,10.4069,14.8345,27.6347,27.5696,53.7508,12.4919,25.6092,14.5596,33.135,14.4307,42.7527-.2698,21.459-12.1926,37.3486-17.3079,43.1859-16.2034,18.5062-37.1731,22.5186-49.7039,24.9162-6.679,1.2802-13.5342,1.9292-20.375,1.9292-19.9082,0-39.8464-5.3139-59.2627-15.795-12.4714-6.7271-35.6851-19.2487-48.7935-47.1605-1.5679-3.3363-2.9326-6.7668-4.061-10.2098-8.5493-25.8783-3.3525-49.0838-.7212-57.8598,1.6016-5.3423,17.0361-52.5709,65.1333-65.6002,7.637-2.0693,15.5388-3.1186,23.4863-3.1187l.0005-5.8254M456.5544,72.3918c-8.177,0-16.5737,1.0355-25.0098,3.3214-51.5698,13.97-67.73,64.6801-69.1899,69.5499-1.9099,6.3701-8.9099,32.0601.77,61.3601,1.1699,3.5699,2.6001,7.2,4.3201,10.86,13.9199,29.64,38.23,42.7599,51.3,49.8099,7.9116,4.2709,31.3164,16.4933,62.0283,16.4933,6.8252,0,14.0151-.6041,21.4717-2.0333,12.7-2.43,35.47-6.79,52.99-26.8,4.1799-4.77,18.4399-22.2899,18.75-46.9501.1499-11.1799-2.6301-19.98-15.02-45.3799-12.8101-26.27-21.26-43.6-27.8501-54.2601-3.0898-5.02-5.78-8.56-8.3101-10.86-15.7788-14.336-39.8723-25.1116-66.2502-25.1114h0Z"/>
      </g>
      <circle class="cls-2" cx="160.8585" cy="165.3306" r="12.861"/>
      <circle class="cls-2" cx="286.6906" cy="135.994" r="18.1988"/>
      <circle class="cls-2" cx="664.5199" cy="154.1928" r="18.1988"/>
      <circle class="cls-2" cx="230.1721" cy="189.3154" r="6.4305"/>
      <circle class="cls-2" cx="473.7634" cy="47.5357" r="6.4305"/>
      <circle class="cls-2" cx="822.7399" cy="153.7285" r="6.4305"/>
      <circle class="cls-2" cx="810.2504" cy="199.1923" r="14.6473"/>
      <circle class="cls-2" cx="751.6262" cy="237.5611" r="9.0784"/>
      <circle class="cls-2" cx="712.042" cy="263.3249" r="9.0784"/>
      <circle class="cls-2" cx="639.4658" cy="82.0134" r="11.1378"/>
      <circle class="cls-2" cx="395.6938" cy="277.9722" r="11.1378"/>
      <circle class="cls-2" cx="942.7373" cy="172.3916" r="11.1378"/>
      <circle class="cls-2" cx="93.9982" cy="172.3916" r="8.5811"/>
      <circle class="cls-2" cx="496.6503" cy="309.352" r="7.3643"/>
      <circle class="cls-2" cx="550.6503" cy="53.9662" r="11.1378"/>
      <circle class="cls-2" cx="879.6953" cy="183.282" r="11.1378"/>
      <circle class="cls-2" cx="550.6503" cy="289.3554" r="5.5689"/>
      <circle class="cls-2" cx="631.8034" cy="277.9722" r="5.5689"/>
      <circle class="cls-2" cx="585.1281" cy="103.6116" r="11.1378"/>
      <circle class="cls-2" cx="304.8894" cy="207.3906" r="23.2871"/>
      <circle class="cls-2" cx="745.4932" cy="128.4609" r="19.7801"/>
      <circle class="cls-2" cx="353.1992" cy="84.2804" r="14.8606"/>
      <circle class="cls-2" cx="618.5416" cy="225.9896" r="22.2756"/>
    </g>
  </g>
</svg>