<?xml version="1.0" encoding="UTF-8"?>
<svg id="Capa_2" xmlns="http://www.w3.org/2000/svg" viewBox="0 0 1663.333 228.9927">
  <defs>
    <style>
      .cls-1 {
        fill: #1e86c6;
      }

      .cls-2 {
        fill: #0476af;
      }

      .cls-3 {
        fill: #4291c1;
      }

      .cls-4 {
        fill: #86bfea;
      }
    </style>
  </defs>
  <g id="Capa_1-2" data-name="Capa_1">
    <g>
      <g>
        <path class="cls-4" d="M1653.3258,71.2542c.02.12-.01.25-.0798.39-.05.11-.1301.22-.2302.3401-1.8899,2.1399-12.1799,5.8298-28.7999,10.45-40.1901,11.1499-117.39,27.6599-202.36,40.59-19.35,2.9401-33.95,5.17-44.88,7.0399-24.88,4.2301-30.84,6.6001-30.8199,11.28.03,4.8401,258.6399,68.8101,263.5499,76.78.02.03.04.0601.05.0901.0199.0399.0299.08.0299.1199v.04c-.72,5.3401-97.99-25.51-232.3199-30.96-135.71-5.51-309.4301,14.33-499.36,12.74-134.0901-1.13-360.19-26.48-548.13-27.0701-79.75-.24-152.65,4.6401-208.61,9.92-.01.01-.03.01-.04.01-6.35.59-12.48,1.2001-18.3799,1.7999-56.25,5.7401-91.33,11.3-92.48,10.6501-9.17-5.17,119.5-43.8,225.31-63.7201,81.76-15.39,133.98-18.9,133.86-26.11-.26-14.25-268-51.28-267.94-58.1699.04-4.3601,92.7599,12.2,246.04,5.3199,171.45-7.7001,339.34-49.1801,512.02-41.9401,130.2799,5.4501,257.7899,34.8501,386.46,53.54,91.49,13.29,182.7001,18.0901,275.0699,14,5.51-.25,68.1201-5.95,105.1101-7.71,15.6699-.76,26.75-.8,26.9299.58Z"/>
        <path class="cls-3" d="M818.5669,9.9998c13.708,0,27.4243.2673,41.189.8445,130.2798,5.45,257.79,34.8501,386.46,53.54,70.332,10.2166,140.5034,15.4163,211.1582,15.4163,21.2554,0,42.5498-.4705,63.9116-1.4163,5.5103-.25,68.1201-5.95,105.1104-7.71,6.8252-.3311,12.7808-.5254,17.3428-.5256,5.9126,0,9.4854.3267,9.5869,1.1055.02.1201-.0098.25-.0796.3901-.0503.1099-.1304.22-.2305.3401-1.8896,2.1399-12.1797,5.8298-28.7998,10.45-40.1899,11.1499-117.3901,27.6599-202.3599,40.5898-19.3501,2.9402-33.9502,5.1702-44.8799,7.04-24.8804,4.23-30.8403,6.6001-30.8203,11.28.0303,4.8401,258.6401,68.8101,263.5503,76.78.02.03.04.0601.0498.0901.02.0398.0298.0798.0298.1199v.04c-.0571.4224-.7183.6184-1.9541.6184-14.3857,0-106.6616-26.5596-230.3657-31.5784-16.624-.675-33.8335-.9697-51.5581-.9697-121.3628-.0012-267.584,13.8005-425.8052,13.8005-7.311,0-14.6353-.0293-21.9966-.0908-134.0903-1.1301-360.1899-26.48-548.1301-27.0701-1.8887-.0056-3.7766-.0085-5.6575-.0085-77.5391,0-148.3176,4.7737-202.9524,9.9285-.01.01-.03.01-.04.01-6.3501.5901-12.48,1.2002-18.3799,1.8-53.2253,5.4314-87.4968,10.7021-92.0032,10.7021-.2561,0-.4153-.0171-.4771-.052-9.1699-5.1702,119.5-43.8,225.3101-63.7202,81.76-15.3899,133.98-18.8999,133.8601-26.1099-.26-14.25-268-51.28-267.9399-58.1699.0046-.52,1.3301-.7424,3.917-.7424,15.2822,0,74.6882,7.7585,166.9534,7.7585,23.0662,0,48.1694-.4844,75.1694-1.6963,157.7837-7.0862,312.5693-42.7844,470.8311-42.7844M818.5669,0c-88.4448,0-176.9766,11.217-262.5938,22.0649-68.2661,8.6492-138.8564,17.5933-208.686,20.7292-24.927,1.1189-50.0667,1.686-74.7209,1.686-65.177,0-113.3242-3.8525-142.0911-6.1545-12.0688-.9658-20.042-1.6038-24.8621-1.6038-1.9932,0-3.4541.1052-4.7371.3413-6.2864,1.1572-9.1401,6.0117-9.1794,10.3093-.0247,2.8035,1.0469,7.9192,8.4976,10.7373,1.6738.6333,3.9346,1.3086,6.9121,2.0649,4.9741,1.2637,12.1323,2.8022,21.884,4.7043,18.0332,3.5168,42.9573,7.8857,69.3445,12.511,34.6533,6.074,73.9304,12.9585,105.3862,19.292,15.6677,3.1545,27.1753,5.7395,35.627,7.8298-7.7053,1.2935-16.4944,2.6445-25.1675,3.9778-21.6738,3.3313-48.6475,7.4773-80.2544,13.427-46.4563,8.7461-101.6609,21.9065-151.4587,36.1072-21.9226,6.2517-40.7131,12.135-54.3398,17.0144-7.0347,2.5188-12.592,4.7393-16.5183,6.5994-5.0249,2.3806-10.4695,5.4248-11.4644,11.449-.7375,4.4673,1.3857,8.8198,5.4097,11.0886,2.3684,1.3411,4.6416,1.3411,5.3884,1.3411,2.2983,0,6.5698-.5322,19.7253-2.2139,16.374-2.0933,41.1182-5.2566,73.293-8.5398,4.7808-.4863,11.1025-1.1213,17.8286-1.7485h3.6782l.3909-.387c68.2805-6.3389,135.0288-9.5515,198.4595-9.5515,1.8708,0,3.7488.0029,5.6274.0085,103.5264.325,220.605,8.3191,323.9009,15.3718,84.2783,5.7544,163.8823,11.1897,224.1748,11.6978,7.2563.0608,14.6851.0916,22.0811.0916,84.5869,0,164.2749-3.8618,241.3394-7.5964,65.8462-3.1912,128.041-6.2051,184.4658-6.2046,18.4912.0002,35.2231.3149,51.1523.9617,88.7739,3.6016,161.1665,18.3872,200.0581,26.3308,17.8447,3.6445,25.9355,5.2559,30.7134,5.2559,7.8359,0,11.2886-5.0022,11.8647-9.2856l.0894-.6636v-.6692c0-1.3188-.2476-2.6138-.7207-3.8145-.2437-.6238-.5469-1.2173-.918-1.7983-2.1802-3.4702-5.3174-5.3599-19.9165-10.1431-8.2461-2.7021-19.7363-6.1492-35.1274-10.5383-28.2856-8.0664-64.7134-17.8752-99.9414-27.3613-30.3062-8.1609-65.4146-17.6145-88.1704-24.1609,1.1577-.2051,2.377-.4167,3.6611-.635,10.6558-1.823,24.6191-3.96,44.7061-7.012,86.1719-13.1133,164.314-29.9604,203.5308-40.8403,26.5977-7.3938,31.0811-10.5894,33.6221-13.467l.0942-.1067.0908-.1091c.6484-.7776,1.1631-1.5725,1.5698-2.4258.9346-1.9431,1.2632-4.063.9541-6.1558-.4546-3.1455-2.563-8.3735-11.4268-9.3381-1.9751-.2148-4.6094-.3193-8.0547-.3193-4.479,0-10.4771.1809-17.8271.5376-26.627,1.2668-65.5308,4.4866-88.7749,6.4104-8.0068.6628-14.9219,1.2351-16.3042,1.2979-21.0669.9329-42.4209,1.406-63.4585,1.406-69.2139,0-139.7739-5.1519-209.7207-15.3125-39.5996-5.752-79.8174-12.6465-118.7104-19.3137-87.5459-15.0083-178.0723-30.5271-268.769-34.3215-13.502-.5659-27.501-.8528-41.6069-.8528h0Z"/>
      </g>
      <g>
        <path class="cls-1" d="M946.1305,102.786c5.1064,17.9-1.4186,33.6521-3.4103,38.0051-8.3442,18.2574-23.8679,26.3324-32.5267,30.8348-27.9574,14.5488-55.3877,9.2773-63.5089,7.5928-10.9756-2.273-31.3914-6.5058-47.8647-24.9311-2.035-2.275-3.8538-4.5909-5.4715-6.9196-13.3337-19.0959-13.8248-39.1868-13.8205-44.2062.0031-3.8373.7277-44.0015,35.0009-65.2514,23.6923-14.6918,51.698-13.0822,70.705-3.9695,2.3268,1.1163,5.0373,3.0949,8.3569,6.0571,7.0699,6.2843,16.9266,16.99,31.8687,33.2182,14.4503,15.6897,18.363,21.4526,20.6711,29.5698Z"/>
        <path class="cls-2" d="M853.4892,32.8022c10.25,0,20.6294,2.2698,29.2251,6.3909,1.7583.8438,4.1128,2.5769,7.0063,5.1589,6.8452,6.0845,16.6177,16.6978,31.4102,32.7629l.0435.0474c14.3726,15.6055,17.438,20.4832,19.354,27.2217,4.313,15.1191-.7349,28.8022-3.1064,33.9856-7.5132,16.439-21.5371,23.731-29.9175,28.0886-11.8052,6.1433-24.9395,9.2583-39.0386,9.2583-9.9814,0-17.6943-1.5999-20.6001-2.2024-10.311-2.1355-29.5044-6.1101-44.7036-23.1101-1.8159-2.0298-3.5078-4.1697-5.0371-6.3711-11.543-16.531-12.7769-34.0864-12.772-40.8662.0039-4.1284.9399-40.8958,32.2456-60.3057,10.6113-6.5798,23.0205-10.0583,35.8892-10.0588h.0015M853.4853,26.9768c-12.8892.0007-26.519,3.2209-38.9565,10.9336-34.2734,21.2498-34.9976,61.4141-35.001,65.2512-.0039,5.0195.4868,25.1104,13.8208,44.2063,1.6177,2.3286,3.4365,4.6448,5.4712,6.9197,16.4736,18.4253,36.8892,22.658,47.8647,24.9309,3.7539.7786,11.6313,2.3235,21.7812,2.3235,11.8091,0,26.6929-2.092,41.7275-9.9163,8.6592-4.5024,24.1826-12.5774,32.5269-30.8347,1.9917-4.353,8.5166-20.105,3.4102-38.0051-2.3081-8.1172-6.2207-13.8799-20.6709-29.5698-14.9424-16.228-24.7988-26.9338-31.8687-33.218-3.3198-2.9624-6.0303-4.9409-8.3569-6.0571-9.0293-4.3289-20.085-6.9646-31.7485-6.9641h0Z"/>
      </g>
    </g>
  </g>
</svg>