<?xml version="1.0" encoding="UTF-8"?>
<svg id="Capa_2" xmlns="http://www.w3.org/2000/svg" viewBox="0 0 596.3302 605.3528">
  <defs>
    <style>
      .cls-1 {
        fill: #599dd1;
      }

      .cls-2 {
        fill: #1e86c6;
      }

      .cls-3 {
        fill: #0476af;
      }

      .cls-4 {
        fill: #4291c1;
      }

      .cls-5 {
        fill: #86bfea;
      }
    </style>
  </defs>
  <g id="Capa_1-2" data-name="Capa_1">
    <g>
      <g>
        <path class="cls-5" d="M187.4112,600.3525c-1.0264,0-2.0498-.0542-3.1289-.1655-4.2959-.438-14.9707-2.373-21.167-10.8442-4.0479-5.5127-3.9922-10.7461-3.9385-15.8076.0254-2.3394.0508-4.7583-.3008-7.4512-2.2227-17.0791-17.2344-28.457-18.9385-29.6982-7.5254-5.4922-13.7383-5.6284-20.9326-5.7861-7.2002-.1582-15.3623-.3374-24.2227-6.5933-.4434-.3184-.8643-.624-1.2734-.939-7.1455-5.4624-11.1602-12.7832-16.9492-26.1416-.8779-2.0093-1.8027-4.186-2.7949-6.5234l-.5635-1.3271c-4.7227-11.1299-6.3623-17.938-7.6797-23.4087-1.3701-5.6875-2.2754-9.4448-6.2441-15.5205-4.3896-6.7202-7.9883-9.3496-11.7969-12.1328-4.3027-3.144-8.752-6.395-13.6611-14.4863-3.4482-5.6758-5.5947-11.6357-7.2939-20.333-1.3936-1.6934-2.9121-3.5967-4.8037-5.9741-5.5322-6.9595-8.8721-11.1597-9.833-16.5776-.6738-3.7695-.2744-7.4712,3.873-19.4258,2.1211-6.1025,3.8398-11.0449,5.4668-14.7622-.2012-3.2524-.7295-6.7349-2.2793-12.1377-1.3096-4.5596-2.6396-8.0234-3.8125-11.0796-2.4473-6.376-4.3809-11.4121-3.1963-19.4595.793-5.3623,2.5039-8.9438,4.0127-12.104,1.6514-3.457,3.0771-6.4424,3.2949-11.8833.3027-7.6963-2.0771-14.5439-3.5225-17.9404-1.9854-4.624-4.0049-7.0405-5.7861-9.1729-2.252-2.6953-4.5801-5.4819-4.9023-10.606-.8604-13.603,13.7568-23.9106,15.4258-25.041,5.5381-3.7979,9.8291-4.5317,13.2764-5.1216,3.0537-.5225,5.2598-.8999,8.4443-3.4644,5.6143-4.5083,9.4043-11.8037,9.6602-18.5918.0664-1.7554-.1182-2.5278-.3994-3.6978-.3545-1.4814-.7969-3.3252-.7021-6.5591.2363-7.9961,3.4482-15.9224,9.5469-23.5596,4.9893-6.2539,9.9844-9.2866,13.999-11.7236,4.2773-2.5967,6.209-3.8828,7.1738-7.1636.3174-1.085.3271-1.6807.3447-2.7622.0244-1.5933.0596-3.7754,1.1064-7.4775,1.8193-6.3398,4.7832-11.8232,8.8135-16.3159,3.2588-3.6367,5.7393-4.9238,8.6123-6.4136,2.415-1.2524,5.4209-2.8115,10.4307-6.7031,6.3604-4.939,7.377-6.9805,7.8301-8.5063.7412-2.4839.6094-5.6602.5303-7.5576-.084-2.1587-.3154-3.354-.5615-4.6201-.1992-1.0293-.4258-2.1963-.5303-3.6982-.4053-5.7354,1.3008-11.9033,4.8047-17.3608.7949-1.2236,7.8584-11.5825,20.458-13.3086,1.0615-.1453,2.0566-.2158,3.042-.2158,4.2441,0,7.377,1.3582,10.6934,2.7961,3.2168,1.3948,7.2197,3.1306,14.0068,4.446,3.2578.6348,8.4854,1.3901,14.9131,1.3901.3262,0,.6543-.002.9873-.0059,8.1064-.0977,15.1064-.1821,22.2617-4.1543,3.9502-2.1919,8.0068-4.4429,10.04-8.7812.418-.8923.6572-1.6687.9336-2.5676.5684-1.8457,1.2744-4.1428,3.5029-6.6917,3.6973-4.2073,8.3965-5.5625,12.1729-6.6514,2.4209-.7014,5.4326-1.5745,8.917-1.5745,1.9717,0,3.9014.2898,5.7344.8606,2.4287.7651,3.6543,1.7004,4.7363,2.5256.6348.4849,1.2354.9431,2.3574,1.5747.9189.5164,5.8008,3.1035,11.2764,3.1035.9619,0,1.9023-.0808,2.7969-.2395,1.623-.2886,3.6641-1.3972,7.7314-3.6062,4.7393-2.5635,9.8037-5.8865,15.1279-9.9182,2.5967-1.9678,4.3408-3.4104,5.7412-4.5696,2.9131-2.4094,4.6719-3.8638,8.1865-4.6562,1.4355-.3242,2.9287-.489,4.4346-.489,5.6641,0,10.3682,2.343,12.377,3.3435,6.873,3.4023,10.2314,8.0505,12.6826,11.4446,2.0957,2.9004,2.7686,3.6418,3.8643,3.7288.0898.0076.1699.011.2461.011.7051,0,1.3887-.3245,2.7461-.9995,2.3037-1.1453,5.459-2.7141,10.5889-2.7141.2979,0,.6006.0054.9131.0164,3.8896.1396,6.7939,1.083,8.7158,1.7073,4.9912,1.6384,7.6328,3.6438,9.7549,5.2554,1.6484,1.2522,2.6436,2.0081,4.6025,2.491.6475.1609,1.3125.2349,2.1016.2349,1.9014,0,4.4736-.4146,8.3672-1.042,3.8594-.6235,5.5635-1.2151,7.0674-1.7368,1.6367-.5679,3.3291-1.1553,6.3203-1.2715.3574-.0139.7129-.0205,1.0654-.0205,11.1562,0,19.3232,6.7856,20.8477,8.146,2.8301,2.5566,3.8418,4.4783,4.7334,6.1738.668,1.2693,1.2451,2.3655,2.9561,4.2056,5.2715,5.6772,11.8506,7.9966,14.6592,8.9873,4.7627,1.6694,8.1006,1.8799,11.0449,2.0659,3.8535.2427,7.8369.4941,11.5059,4.3359,3.4248,3.604,3.5918,7.2954,3.7139,9.9907.0908,1.9917.1621,3.5649,1.3838,5.6392,3.3447,5.668,11.3506,7.9243,19.2646,9.7495l1.8359.4165c4.3574.9922,6.6367,1.0757,8.4277,1.0757l1.9062-.0122c2.4346,0,4.7744.2051,8.2793,1.2051.4385.1294,1.3535.3994,2.6719.8711,6.5029,2.3579,22.0605,9.3818,26.4824,23.7905,1.6221,5.3091.7783,8.7544-.0381,12.0859-.751,3.0605-1.6006,6.5293-1.2256,13.377.1104,1.9741.1846,2.2568.7607,4.458.6758,2.584,1.9346,7.3936,4.2979,19.0972l.1797.8921c1.5918,7.9229,2.4189,11.5215,5.3438,13.7949q.373.2905,1.4189.7075c.7959.3169,1.999.7964,3.832,1.6304,8.6836,3.9517,14.9023,6.7822,19.4678,12.4443,6.3125,7.8115,6.3164,16.9941,6.2539,18.7554-.1807,5.1553-1.8496,8.0317-3.4639,10.813-1.2402,2.1367-2.5225,4.3462-3.7266,8.4404-1.3877,4.7339-3.4775,11.8623-.8799,18.439.624,1.5781,1.1855,2.3281,2.0352,3.4639,1.1621,1.5518,2.6074,3.4834,4.1045,7.3569.8018,2.064,3.251,8.3691,2.7793,16.0801-.3623,5.96-2.2832,9.8306-3.6846,12.6567-1.333,2.6846-1.7354,3.6118-1.3467,5.2471.1729.7217.1914.7397,1.1533,1.7031,1.1768,1.1772,2.9541,2.9561,4.9727,6.5723,4.8428,8.6987,5.2334,17.231,5.0361,21.5435-.3496,7.9619-3.1006,13.8716-4.1357,16.0967-2.2676,4.8726-4.7197,7.6294-6.6904,9.8442-1.9639,2.2065-2.8604,3.2139-3.1855,5.627-.2383,1.7666-.0771,2.6558.2432,4.4268.3223,1.7822.7236,4.0005.7871,7.5669.166,9.5742-2.2998,16.79-4.6836,23.7681-2.3369,6.8389-4.1992,9.9565-5.5596,12.2334-1.1738,1.9639-1.6592,2.7769-2.0732,5.52-.6074,4.0269-.1182,6.8511.3555,9.582.6475,3.7285,1.3799,7.9541-1.3799,13.1147-1.8467,3.4536-3.9971,5.0068-5.7246,6.2554-1.458,1.0527-2.4209,1.7485-3.542,3.9463-.5146,1.002-2.9609,6.1606-1.2529,10.6729.3379.8853.541,1.1128,2.0215,2.623.8369.853,1.9824,2.022,3.4434,3.689l.083.0952c7.0801,8.126,11.7578,13.4941,10.3535,19.9531-1.8506,8.5576-13.5049,11.6304-20.2871,12.7002-1.6719.2661-3.2188.3965-4.7227.3965-1.8096,0-3.3359-.1812-4.9521-.373-1.8945-.2246-4.042-.4795-7.249-.4795-.582,0-1.1973.0083-1.8525.0264-6.9258.188-10.0547.2729-13.5264,1.625-7.0947,2.7529-13.6084,9.5308-16.2139,16.8682-.2715.7563-.5029,1.5264-.749,2.3418-.7148,2.375-1.6035,5.3306-3.8408,9.0801-1.3633,2.2983-3.7422,5.7329-7.2939,8.9761-3.6602,3.3423-6.4531,4.5303-11.5225,6.6875-2.0537.8735-4.6104,1.9614-7.9043,3.4751-10.8682,5.0078-11.875,6.4595-12.6836,7.6265-1.8652,2.6934-2.3682,5.6426-2.6104,7.0601-.4932,2.9077-.167,4.7808.2109,6.9492.4902,2.8096,1.0459,5.9937-.3818,10.4146-.7676,2.3745-2.707,6.8618-7.0859,10.2598-2.4961,1.9307-6.6768,4.1514-16.9971,4.2349l-.4844.0015c-5.7539,0-9.5908-.6865-20.9795-2.7246l-.2891-.0518c-8.9648-1.6069-13.5371-2.4165-15.2852-2.6699-6.2588-.9038-11.2783-1.3623-14.916-1.3623-3.5293,0-4.6807.4282-5.1719.6113-1.1074.4111-1.5732.6992-2.5938,1.3296-1.3691.8467-3.2451,2.0059-7.3252,3.9092l-.1211.0562c-2.4814,1.1494-7.1016,3.29-11.6133,4.6162-1.3799.4043-5.5664,1.6309-14.1338,1.6309-2.0264,0-4.1982-.0693-6.4551-.2061-8.1074-.4961-13.1299-1.6006-16.7979-2.4077-2.4922-.5483-4.293-.9443-6.0869-.9443-1.168,0-2.375.1646-3.7998.5176-2.2021.542-3.1201,1.0723-4.5107,1.8755-1.75,1.0112-3.9287,2.2695-8.3633,3.4868-4.3975,1.2021-8.7207,1.7617-13.6113,1.7617-2.3125,0-4.7773-.1211-7.7568-.3813-11.4385-.9946-17.4766-3.2432-21.8848-4.8853-3.1514-1.1733-5.2334-1.9487-8.2988-1.9487-.9102,0-1.877.0654-2.9551.1997-10.126,1.2559-25.251,6.5752-30.9443,8.5781-1.1885.4165-2.2891.8125-3.3252,1.1851-5.8828,2.1157-10.1328,3.644-15.5742,3.644Z"/>
        <path class="cls-4" d="M312.8944,10c4.4651,0,8.2488,1.8728,10.1487,2.8191,11.3506,5.6189,11.1626,15.1089,18.3789,15.6821.2202.0178.4348.0264.6431.0264,4.345,0,6.2756-3.7134,13.3342-3.7134.2402,0,.4849.0044.7371.0132,3.1384.1128,5.5249.8738,7.3479,1.4658,8.1277,2.6685,8.6069,6.3423,14.7051,7.8457,1.0603.2634,2.1201.3801,3.2986.3801,2.3096,0,5.0767-.4473,9.2078-1.113,8.3154-1.3435,8.1465-2.7625,12.7412-2.9409.2925-.0115.5835-.0168.8716-.0168,9.6887,0,16.8323,6.2646,17.5168,6.876,4.1719,3.7678,2.8938,5.2527,7.3572,10.054,5.9946,6.4553,13.2485,9.0955,16.6594,10.2983,11.5762,4.0591,16.2366.573,20.5964,5.1396,4.1436,4.3599.5918,8.2405,4.4067,14.7144,4.4351,7.5171,13.8501,10.1011,22.4475,12.0835.6108.1411,1.2214.2725,1.823.4136,4.7407,1.0796,7.4021,1.2068,9.5647,1.2068.6677,0,1.2878-.012,1.9072-.012,1.8784-.0002,3.7476.1116,6.907,1.0132.2537.0752,1.0994.3196,2.3584.7705,5.6753,2.0576,19.6099,8.2405,23.387,20.5496,2.4526,8.0242-2.302,9.1799-1.4751,24.2703.2913,5.2244.7046,2.2551,5.1492,24.2703,1.7383,8.6257,2.6777,14.0098,7.3572,17.6462,1.5315,1.1934,1.8699.949,6.2485,2.9409,8.3625,3.8054,13.8123,6.2766,17.646,11.031,5.3369,6.6055,5.1772,14.6487,5.1492,15.438-.2539,7.2539-4.0122,7.8928-6.991,18.022-1.5032,5.1304-3.9651,13.5022-.7329,21.6863,1.8699,4.7263,3.7869,4.7358,6.1265,10.7869.8645,2.2268,2.8469,7.5171,2.4524,13.9722-.6201,10.1855-6.5117,12.6096-4.9048,19.3657.9771,4.0776,3.157,3.345,6.6243,9.5557,4.5664,8.2029,4.5291,16.218,4.4067,18.8772-.3005,6.8496-2.6028,11.9143-3.6738,14.2163-4.2754,9.1895-9.321,9.6687-10.2983,16.9131-.6389,4.7451.8645,5.9197.9866,12.7507.1504,8.6914-2.1235,15.3533-4.416,22.0623-4.3506,12.7319-6.7278,11.219-7.8459,18.6233-1.5879,10.533,3.1101,14.3572-.4885,21.085-2.7532,5.1492-6.145,4.0779-9.3115,10.2888-.686,1.3342-3.9653,8.137-1.4753,14.7144,1.1089,2.9036,2.396,3.2888,6.3801,7.8364,6.239,7.1599,10.1853,11.6702,9.3115,15.6917-1.3999,6.4741-14.6299,8.5789-16.1802,8.823-1.5288.2437-2.7893.3354-3.9434.3354-3.5176,0-6.0498-.8521-12.2009-.8521-.6248,0-1.2861.0088-1.9905.0281-7.2725.1973-10.9089.2913-15.2029,1.9639-8.4756,3.2886-16.0581,11.2566-19.1121,19.854-1.1367,3.1665-1.5315,6.1077-4.1719,10.5332-.9302,1.5691-3.0161,4.7827-6.3706,7.8459-4.322,3.9463-6.8967,4.1436-18.144,9.3115-10.8901,5.0176-13.0701,6.9626-14.7051,9.321-2.4524,3.5422-3.1194,7.2539-3.4294,9.0674-1.325,7.8081,2.02,10.4109,0,16.6687-.3853,1.1934-1.7854,5.0457-5.3933,7.8459-1.4941,1.1555-4.6326,3.1099-13.9724,3.1853-.1489.001-.2974.0015-.4438.0015-5.3557,0-9.0918-.677-20.3875-2.6982-9.0671-1.6257-13.6338-2.4336-15.4473-2.6968-7.3816-1.0657-12.2961-1.4141-15.635-1.4141-4.2266,0-5.929.5581-6.9158.9255-3.3638,1.2495-3.1384,2.0576-10.2888,5.3933-2.4336,1.1277-6.8123,3.1665-11.0312,4.4067-1.4463.4241-5.1624,1.4277-12.7219,1.4277-1.8213,0-3.8655-.0581-6.155-.1968-13.4912-.8252-17.7271-3.3606-23.1858-3.3608-1.5022-.0002-3.0964.1919-5.0027.6643-5.9573,1.4656-5.6001,3.3638-12.9949,5.3933-4.2124,1.1521-8.145,1.5837-12.2874,1.5837-2.3442,0-4.7554-.1382-7.3225-.3623-19.197-1.6697-21.5896-6.853-30.6191-6.8533-1.0825,0-2.26.0745-3.5737.2385-10.6082,1.3154-25.8394,6.6619-31.9846,8.823-7.5703,2.6538-11.813,4.5459-17.2412,4.5459-.8374,0-1.7021-.0449-2.6128-.1392-1.7478-.1785-12.093-1.231-17.6462-8.823-4.6509-6.333-2.1516-12.0271-3.3167-20.9536-2.5088-19.2808-19.2622-31.8623-20.9536-33.0933-17.073-12.4592-29.5229-1.3438-45.2144-12.4219-.3665-.2629-.7424-.5354-1.1089-.8174-6.427-4.9143-10.0632-11.8298-15.4097-24.167-1.043-2.3867-2.1423-4.9895-3.345-7.8176-9.6875-22.8328-5.948-26.8638-14.3386-39.7085-9.8286-15.0432-16.6313-12.0737-25.3699-26.4783-3.4766-5.7222-5.3745-11.6982-6.8967-19.9387-1.6255-1.9451-3.439-4.2188-5.5625-6.8875-5.3936-6.7839-8.0996-10.2605-8.823-14.3386-.4417-2.4709-.4041-5.1584,3.6738-16.9131,2.3679-6.8123,4.1531-11.9238,5.7974-15.4473-.1689-4.0967-.7141-8.1465-2.5276-14.4702-4.0872-14.2258-8.3625-18.2756-6.8684-28.4329,1.522-10.2888,6.8875-12.7881,7.3572-24.5146.3477-8.8418-2.3584-16.4338-3.9182-20.0984-4.7358-11.0312-9.8755-11.407-10.2983-18.1345-.6858-10.834,11.9897-19.7415,13.2393-20.5872,9.4807-6.5022,13.803-2.1892,22.053-8.8325,6.4834-5.2056,11.2002-13.803,11.5198-22.2971.1877-4.8953-1.2498-5.1772-1.0996-10.2981.3008-10.1763,6.2581-17.834,8.4568-20.5872,9.5276-11.9426,19.1587-10.7212,22.0623-20.5964,1.1182-3.8149-.1316-4.6416,1.4658-10.2888.5637-1.9639,2.4805-8.4941,7.7236-14.3386,5.1865-5.7881,7.4041-3.9746,18.3882-12.5063,6.897-5.3557,8.7009-8.1558,9.5559-11.0312.968-3.2415.8269-6.9341.7329-9.1895-.1689-4.3596-.9019-5.6094-1.0991-8.4565-.5168-7.3008,3.3167-13.2109,4.0403-14.3386.3665-.5635,6.4175-9.5935,16.9131-11.031.8459-.1157,1.6272-.1697,2.3633-.1697,6.6719,0,9.6501,4.4177,23.7488,7.1511,2.0337.396,8.0159,1.4814,15.8638,1.4814.3467,0,.6956-.002,1.0493-.0063,8.5601-.1033,16.3682-.1973,24.6274-4.7827,4.2-2.3301,9.415-5.2148,12.1399-11.031,1.541-3.2888,1.259-5.3276,3.6738-8.0901,2.7249-3.1008,6.2485-4.1155,9.8003-5.1396,2.2156-.6421,4.7559-1.377,7.5247-1.377,1.3647,0,2.7847.1785,4.2488.6345,2.7437.8645,2.7717,1.7947,6.1262,3.6833,1.0408.5842,6.842,3.7463,13.7302,3.7463,1.198,0,2.4272-.0955,3.6716-.3167,2.4336-.4324,4.7263-1.6821,9.3115-4.1721,3.2136-1.7383,8.4941-4.8389,15.6917-10.2888,7.9585-6.0322,8.4661-7.5356,12.0083-8.3342,1.1396-.2576,2.2576-.3667,3.335-.3667M312.8944,0c-1.8767,0-3.7405.2061-5.5393.6128-4.6755,1.054-7.1438,3.0957-10.2686,5.6804-1.3647,1.1287-3.0632,2.5334-5.5759,4.4382-5.1179,3.8752-9.9673,7.0601-14.4089,9.4626l-.0857.0464c-2.894,1.572-5.3938,2.9292-6.2173,3.0757-.6069.1079-1.2529.1624-1.9221.1624-3.2786,0-6.8086-1.3286-8.8354-2.4663-.8074-.4546-1.2095-.7615-1.7661-1.1863-1.582-1.2078-3.2505-2.3699-6.2498-3.3149-2.3472-.731-4.7771-1.0967-7.2542-1.0967-4.1938,0-7.728,1.0244-10.3083,1.7722-4.1631,1.2004-9.8743,2.8472-14.5283,8.1436-2.946,3.3701-3.9021,6.4756-4.5344,8.5305-.2397.7786-.4128,1.3413-.6829,1.9172-1.3464,2.8738-4.5352,4.6431-7.9111,6.5159-6.0786,3.3748-11.8848,3.4448-19.9209,3.5417-.3164.0039-.6238.0056-.9294.0056-4.7,0-9.6553-.4607-13.9531-1.2974-6.2581-1.2131-9.8279-2.761-12.9775-4.1265-3.6387-1.5774-7.4011-3.2087-12.6819-3.2087-1.1982,0-2.4495.0884-3.7195.262-14.7991,2.0271-23.0483,14.1157-23.9404,15.4875l-.0164.0251-.0161.0251c-4.0984,6.3838-6.0815,13.6362-5.5994,20.4458.1243,1.7927.3931,3.1772.6089,4.2898.2261,1.1648.4045,2.0847.4729,3.8477.0627,1.51.1777,4.2664-.3223,5.9407-.4216,1.418-4.0073,4.3638-6.1074,5.9946-4.6506,3.6123-7.3152,4.9941-9.6663,6.2136-3.031,1.572-6.165,3.1975-10.0361,7.5176-4.5344,5.0544-7.8625,11.197-9.8879,18.2529-1.2356,4.3677-1.2778,7.0325-1.3057,8.7959-.0154.9724-.0195,1.0127-.1445,1.4395-.3872,1.3164-.7905,1.7549-4.9692,4.2917-4.1228,2.5029-9.7695,5.9309-15.314,12.8809-6.7869,8.4985-10.3662,17.4253-10.6353,26.5281-.1145,3.9011.4587,6.2913.8381,7.8728.2405,1.0034.3052,1.2732.2644,2.3372-.2004,5.3257-3.3298,11.3037-7.7878,14.8831-2.1841,1.7585-3.2676,1.9441-6.1631,2.4395-3.7195.6365-8.812,1.5081-15.272,5.9348-3.2046,2.176-18.5879,13.4946-17.5764,29.4746.4246,6.7542,3.6785,10.6492,6.0547,13.4932,1.7134,2.0508,3.3315,3.9878,5.0347,7.9546,1.2693,2.9819,3.3794,9.0359,3.115,15.7607-.1765,4.406-1.2244,6.5999-2.8103,9.9207-1.5791,3.3062-3.5442,7.4209-4.447,13.5234-1.3757,9.3513.98,15.4888,3.4739,21.9866,1.1365,2.9609,2.4248,6.3171,3.6758,10.6711,1.2407,4.3264,1.7688,7.2869,2.0056,9.916-1.5515,3.7195-3.1648,8.3606-5.1099,13.9565-4.0942,11.802-5.0073,16.7253-4.0723,21.9563,1.1802,6.6528,5.0227,11.4861,10.8394,18.8022,1.5559,1.9553,2.8623,3.5935,4.0608,5.0664,1.7825,8.6519,4.072,14.7903,7.6797,20.7288,5.4241,8.9409,10.5024,12.6516,14.9829,15.9253,3.7266,2.7231,6.6702,4.8738,10.5618,10.8301,3.4956,5.3513,4.2317,8.4077,5.5679,13.9561,1.2888,5.3516,3.0542,12.6809,7.9365,24.1887l.6233,1.4666c.9683,2.2798,1.8831,4.4331,2.7644,6.4497,5.2932,12.2146,9.7266,21.3989,18.4985,28.1064.4314.332.8979.6716,1.3533.9985l.031.0222.0312.022c10.1082,7.1362,19.4724,7.3418,26.9968,7.5073,6.8721.1509,11.8372.2598,18.0903,4.8232.6194.4509,14.9451,11.0352,16.9319,26.3057.3064,2.3479.2837,4.4883.2595,6.7546-.0569,5.3298-.1277,11.9631,4.9136,18.8279,7.1045,9.7129,18.5181,12.2222,24.6882,12.8518,1.2217.1265,2.447.1912,3.6309.1912,6.3142,0,11.1487-1.7388,17.2693-3.9397,1.0237-.3684,2.1113-.7595,3.28-1.1692,5.5659-1.9575,20.3257-7.1479,29.907-8.3359.8665-.1084,1.6519-.1626,2.3425-.1626,2.0825,0,3.4324.4719,6.5547,1.6348,4.677,1.7417,11.0825,4.127,23.1987,5.1809,3.1243.2727,5.7275.3999,8.189.3999,5.3489,0,10.0916-.616,14.9258-1.938,5.0635-1.3896,7.656-2.8875,9.5493-3.981,1.2317-.7117,1.6929-.9778,3.196-1.3477,1.3577-.3364,2.1409-.3748,2.6133-.3748,1.1948,0,2.5403.2837,5.0125.8274,3.8279.842,9.0703,1.9954,17.5635,2.5149,2.3628.1431,4.637.2153,6.7654.2153,9.2886,0,13.9907-1.3787,15.5359-1.8318,4.8813-1.4351,9.7236-3.6792,12.325-4.8848l.0967-.0447c4.3674-2.0376,6.4707-3.3369,7.8623-4.197.9436-.583,1.0649-.658,1.7043-.8955.7473-.2781,2.8169-.2996,3.4336-.2996,3.3994,0,8.179.4412,14.2058,1.3115,1.6555.24,6.3887,1.0784,15.1118,2.6423l.3018.054c11.3918,2.0386,15.6545,2.8013,21.8503,2.8013l.511-.0017c9.231-.0745,15.4021-1.7012,20.0227-5.2744,5.4551-4.2339,7.8491-9.7637,8.792-12.6838,1.8071-5.5979,1.0803-9.7661.5496-12.8093-.3474-1.9919-.5569-3.1943-.2065-5.259.1936-1.1335.5583-3.2661,1.792-5.0481.6855-.9888,4.2759-2.9861,10.668-5.9312,3.2222-1.4805,5.7427-2.5527,7.7678-3.4143,5.2058-2.2148,8.6448-3.678,12.9343-7.5947,4.0078-3.6597,6.6875-7.5293,8.23-10.1311,2.5386-4.2551,3.5686-7.678,4.3208-10.177.2358-.7837.4395-1.4602.6609-2.0771,2.1255-5.9834,7.5972-11.6904,13.3174-13.9097,2.552-.9941,4.8643-1.1008,11.7905-1.2888l.0664-.0017c.6111-.0168,1.1809-.0244,1.7192-.0244,2.9116,0,4.8171.2261,6.6599.4446,1.689.2002,3.4355.4075,5.541.4075,1.7705,0,3.5754-.1506,5.5176-.4602,8.0278-1.2639,21.8975-5.1038,24.3801-16.5847,1.9346-8.9041-3.9841-15.6965-11.4778-24.2959l-.0686-.0789c-1.5708-1.793-2.7737-3.0195-3.6519-3.915-.334-.3408-.7339-.7483-.9504-.9871-.7385-2.0791.3586-5.1592,1.0515-6.5066.5879-1.1531.7522-1.2717,2.03-2.1946,1.9172-1.385,4.8149-3.4783,7.2068-7.9517,3.5715-6.6768,2.6038-12.2544,1.8972-16.3269-.4429-2.5522-.8252-4.7566-.3389-7.9824.2666-1.7673.376-1.9502,1.4211-3.6995,1.3909-2.3276,3.4924-5.845,5.9993-13.1812,2.4058-7.0405,5.1323-15.0203,4.9517-25.4685-.071-3.9758-.5308-6.5178-.8665-8.374-.2888-1.5964-.3408-1.8843-.208-2.8694.1094-.8118.1208-.8967,1.9653-2.9697,2.0728-2.3296,4.9119-5.52,7.4893-11.0596,1.1497-2.4717,4.2041-9.0369,4.5974-17.9963.2217-4.8206-.2173-14.4028-5.6599-24.1794-2.145-3.8423-4.1196-5.9749-5.4292-7.2998.2085-.4685.5117-1.0798.7568-1.574,1.5022-3.0278,3.7725-7.6038,4.197-14.5759.5378-8.7983-2.209-15.8738-3.1118-18.199-1.7405-4.5015-3.4851-6.8333-4.759-8.5356-.7561-1.0105-1.011-1.3511-1.3909-2.311-1.9641-4.9734-.2373-10.8672,1.0237-15.1709,1.0383-3.531,2.1167-5.3892,3.2585-7.3562,1.7432-3.0032,3.9126-6.741,4.137-13.1523.0735-2.0674.0654-12.8765-7.3647-22.0725-5.3035-6.5769-12.3232-9.7712-21.2104-13.8154l-.072-.0327c-1.9438-.8845-3.2141-1.3906-4.0547-1.7256-.1313-.0525-.2493-.0984-.3574-.1416-1.3374-1.2002-2.0044-3.9893-3.3528-10.6995l-.1797-.8943c-2.3914-11.8447-3.6733-16.7437-4.3623-19.3755q-.5229-1.9985-.6052-3.4758c-.3342-6.0964.3894-9.0493,1.0891-11.9045.8855-3.6145,1.9878-8.1128-.0354-14.7322-5.0852-16.5718-22.3533-24.4214-29.5417-27.0276-1.4871-.5327-2.5017-.8323-2.8835-.9448l-.0488-.0144-.0903-.0264c-4.303-1.2278-7.1816-1.3972-9.6511-1.3972-.3359,0-.6719.0032-1.0142.0066-.2903.0027-.5862.0056-.8931.0056-1.5161,0-3.457-.0737-7.3198-.9517-.3499-.0818-.7024-.1609-1.0562-.2402-.2532-.0564-.5071-.1133-.761-.1719-6.8582-1.5815-13.7461-3.4563-16.0854-7.4216-.5671-.9624-.6089-1.4426-.6941-3.3223-.1399-3.0862-.374-8.2512-5.0769-13.1995-5.0342-5.2732-10.6919-5.6301-14.823-5.8904-2.7502-.1736-5.5942-.3528-9.7131-1.7971-2.6536-.9355-8.2097-2.895-12.6406-7.6663-1.261-1.3567-1.593-1.9878-2.196-3.1335-1.2209-2.3208-2.5823-4.6436-5.7861-7.5371l-.021-.019-.0212-.0188c-1.7612-1.5725-11.2036-9.417-24.1772-9.417-.4167,0-.8381.0083-1.2612.0247-3.7324.145-5.9678.9207-7.7639,1.5439-1.3748.4771-2.7964.9702-6.1826,1.5173-3.5662.5747-6.1123.9851-7.6128.9851-.4802,0-.718-.043-.887-.085-.9141-.2253-1.2021-.4138-2.7944-1.623-2.1626-1.6421-5.4309-4.1238-11.2029-6.0188-2.0847-.6772-5.5225-1.7935-10.1082-1.9583-.3794-.0134-.741-.0198-1.0962-.0198-6.1228,0-10.1436,1.9116-12.6008,3.1309-.2693-.3623-.5481-.7483-.791-1.0847-2.6021-3.6023-6.5342-9.0461-14.5278-13.0032-2.3025-1.1467-7.7446-3.8572-14.5852-3.8572h0Z"/>
      </g>
      <g>
        <path class="cls-2" d="M299.9874,478.2437c-19.7217,0-39.9434-3.8267-60.1025-11.3745-40.8857-15.3032-75.791-44.624-95.7656-80.4443-20.6582-37.0396-25.6553-82.1499-13.3662-120.6699.3135-1.0112.6514-2.0371,1.0098-3.0635,19.0967-55.269,66.2051-112.5923,119.2861-115.2017,2.084-.1035,4.1934-.1558,6.2686-.1558,1.9473,0,3.9189.0464,5.8574.1372,18.3379.8662,34.2285,7.418,44.7451,18.4482,9.5986,10.0674,14.792,24.3545,13.8926,38.2178-.6416,9.9351.1514,41.5298,3.3018,52.7729.1045.3535.1934.6582.29.9409,3.1475,9.3818,12.6055,15.1938,21.752,20.8145,23.4199,14.4146,55.7637,37.5356,66.5693,71.9829,8.4434,26.9385,2.3232,58.5879-15.9717,82.5981-16.7695,21.9883-43.4424,37.6167-73.1787,42.8784-7.9453,1.4062-16.2178,2.1187-24.5879,2.1187Z"/>
        <path class="cls-3" d="M257.3172,150.1689c1.9065,0,3.8147.0444,5.7253.1345,15.7966.7458,31.9131,6.127,42.8262,17.5728,9.0837,9.5276,13.9675,22.9358,13.115,36.0776-.6836,10.5845.1865,42.249,3.4009,53.7214.1155.3906.2219.7546.3374,1.092,3.4719,10.3538,13.6746,16.6138,22.9805,22.3323,27.873,17.1553,55.5239,39.1765,65.3181,70.3972,8.4443,26.9407,1.5894,57.5752-15.5215,80.0315-17.1199,22.4475-43.6165,36.8857-71.4185,41.8052-7.9636,1.4089-16.0264,2.0752-24.0933,2.0752-20.0955,0-40.2395-4.1299-59.1084-11.1946-39.2388-14.6868-73.8779-42.5776-94.2832-79.1702-19.8992-35.6782-25.5466-79.5435-13.1418-118.427.3108-1.0034.6394-1.998.9856-2.9924,17.6082-50.96,62.9207-110.6572,116.7488-113.3032,2.0405-.1011,4.0835-.1523,6.1289-.1523M257.3172,144.499c-2.1208,0-4.2773.0535-6.4094.1592-26.0889,1.2822-52.3057,15.2251-75.8145,40.3206-19.6133,20.937-36.3843,48.9275-46.0129,76.7939-.3701,1.0632-.7224,2.1326-1.0427,3.1665-6.2466,19.5796-8.2429,41.2922-5.7593,62.7454,2.4277,20.9697,9.1243,41.7593,19.3655,60.1213,10.3462,18.5535,24.2781,35.1741,41.4084,49.3999,16.6108,13.7939,35.3977,24.6677,55.8391,32.3186,20.4773,7.6667,41.033,11.5544,61.0959,11.5544,8.5349,0,16.9734-.7275,25.0811-2.1621,30.4297-5.3843,57.7439-21.4033,74.9392-43.95,18.845-24.7322,25.1375-57.365,16.4236-85.1658-4.8064-15.3208-13.7336-29.3198-27.2927-42.7986-10.5-10.438-23.3577-20.2031-40.4641-30.7317-8.751-5.3774-17.7627-10.9153-20.5764-19.3062-.095-.2773-.1704-.5398-.2529-.8193l-.0115-.0383c-2.8506-10.2434-3.8887-40.9917-3.1914-51.7876.9495-14.6384-4.5344-29.7253-14.6697-40.3557-11.0229-11.561-27.5945-18.4236-46.6626-19.324-1.9829-.0935-3.9988-.1406-5.9927-.1406h0Z"/>
      </g>
      <circle class="cls-1" cx="74.9458" cy="312.7888" r="14.8951"/>
      <circle class="cls-1" cx="311.2415" cy="66.4212" r="21.077"/>
      <circle class="cls-1" cx="444.047" cy="476.8393" r="21.077"/>
      <circle class="cls-1" cx="113.8803" cy="119.5632" r="7.4475"/>
      <circle class="cls-1" cx="160.1982" cy="76.8592" r="7.4475"/>
      <circle class="cls-1" cx="510.6023" cy="441.6632" r="7.4475"/>
      <circle class="cls-1" cx="450.4967" cy="235.5611" r="16.9638"/>
      <circle class="cls-1" cx="428.2415" cy="538.7545" r="10.5142"/>
      <circle class="cls-1" cx="377.4328" cy="538.7545" r="10.5142"/>
      <circle class="cls-1" cx="468.2993" cy="326.2806" r="12.8993"/>
      <circle class="cls-1" cx="182.2002" cy="517.8929" r="12.8993"/>
      <circle class="cls-1" cx="516.0541" cy="181.8025" r="12.8993"/>
      <circle class="cls-1" cx="195.0996" cy="125.5735" r="9.9383"/>
      <circle class="cls-1" cx="555.1372" cy="267.828" r="8.529"/>
      <circle class="cls-1" cx="138.6634" cy="455.1003" r="12.8993"/>
      <circle class="cls-1" cx="382.3968" cy="92.7667" r="12.8993"/>
      <circle class="cls-1" cx="450.4967" cy="112.1157" r="6.4497"/>
      <circle class="cls-1" cx="317.2168" cy="555.7184" r="6.4497"/>
      <circle class="cls-1" cx="382.3968" cy="179.0735" r="12.8993"/>
      <circle class="cls-1" cx="80.6255" cy="206.2407" r="26.9701"/>
      <circle class="cls-1" cx="540.9583" cy="335.6973" r="22.9085"/>
      <circle class="cls-1" cx="58.208" cy="389.315" r="22.9085"/>
      <circle class="cls-1" cx="244.9653" cy="541.5324" r="25.7987"/>
    </g>
  </g>
</svg>