<?xml version="1.0" encoding="UTF-8"?>
<svg id="Capa_2" xmlns="http://www.w3.org/2000/svg" viewBox="0 0 596.3301 605.3529">
  <defs>
    <style>
      .cls-1 {
        fill: #44911c;
      }

      .cls-2 {
        fill: #639648;
      }

      .cls-3 {
        fill: #367710;
      }

      .cls-4 {
        fill: #94c67d;
      }

      .cls-5 {
        fill: #70a856;
      }
    </style>
  </defs>
  <g id="Capa_1-2" data-name="Capa_1">
    <g>
      <g>
        <path class="cls-4" d="M586.2959,321.4182c-.3007,6.8497-2.6028,11.9143-3.6739,14.2163-4.2753,9.1895-9.3211,9.6687-10.2982,16.9131-.6389,4.7451.8644,5.9196.9866,12.7507.1504,8.6915-2.1235,15.3533-4.4162,22.0622-4.3504,12.7319-6.7276,11.219-7.8458,18.6233-1.588,10.5331,3.1101,14.3573-.4886,21.085-2.7531,5.1491-6.1451,4.0779-9.3116,10.2888-.6859,1.3343-3.9652,8.1371-1.4752,14.7145,1.1087,2.9034,2.396,3.2887,6.38,7.8364,6.2391,7.1599,10.1855,11.6701,9.3117,15.6916-1.4,6.4741-14.6299,8.5788-16.1803,8.8232-6.6619,1.0617-8.2217-.7611-18.1346-.4886-7.2726.1973-10.909.2912-15.203,1.9638-8.4754,3.2887-16.0581,11.2566-19.1119,19.8542-1.1369,3.1665-1.5315,6.1075-4.1719,10.5331-.9302,1.5692-3.0161,4.7827-6.3706,7.8459-4.3222,3.9464-6.8968,4.1436-18.144,9.3115-10.8902,5.0176-13.0701,6.9626-14.7051,9.3211-2.4524,3.5423-3.1195,7.2538-3.4296,9.0673-1.3249,7.8082,2.0201,10.4109,0,16.6688-.3853,1.1933-1.7853,5.0456-5.3934,7.8458-1.494,1.1557-4.6324,3.1101-13.9722,3.1853-5.6001.0376-9.227-.6202-20.8313-2.6968-9.0673-1.6255-13.6339-2.4335-15.4473-2.6966-16.7252-2.4149-20.7844-1.1463-22.5509-.4886-3.3638,1.2497-3.1383,2.0577-10.2888,5.3934-2.4336,1.1275-6.8122,3.1665-11.0311,4.4068-1.7946.5262-7.0847,1.9451-18.8769,1.231-17.2044-1.0524-19.3562-4.886-28.1886-2.6967-5.9572,1.4657-5.6001,3.3638-12.9949,5.3934-6.5961,1.8041-12.5063,1.8416-19.6098,1.2214-21.4985-1.8698-21.9213-8.1464-34.1927-6.6148-10.6083,1.3155-25.8395,6.6619-31.9846,8.823-8.7384,3.0632-13.0419,5.1115-19.8542,4.4068-1.7477-.1785-12.0929-1.231-17.6461-8.8229-4.6511-6.3331-2.1517-12.0272-3.3168-20.9535-2.5088-19.281-19.2622-31.8625-20.9535-33.0934-17.0729-12.4594-29.5229-1.3437-45.2145-12.4218-.3665-.263-.7423-.5355-1.1088-.8175-6.427-4.9142-10.0633-11.8298-15.4097-24.167-1.043-2.3867-2.1424-4.9894-3.345-7.8177-9.6875-22.8327-5.9478-26.8637-14.3386-39.7083-9.8284-15.0433-16.6313-12.074-25.3697-26.4784-3.4766-5.7222-5.3747-11.6982-6.8968-19.9387-1.6255-1.9451-3.439-4.2189-5.5625-6.8875-5.3934-6.784-8.0995-10.2606-8.823-14.3386-.4416-2.4711-.404-5.1585,3.6739-16.9131,2.3678-6.8122,4.1531-11.9237,5.7974-15.4473-.1691-4.0967-.7141-8.1464-2.5276-14.4702-4.0873-14.2258-8.3626-18.2755-6.8686-28.4328,1.5222-10.2889,6.8874-12.7883,7.3572-24.5147.3477-8.8417-2.3585-16.4339-3.9182-20.0985-4.7357-11.0311-9.8754-11.407-10.2982-18.1346-.6859-10.8338,11.9895-19.7414,13.2392-20.5871,9.4808-6.5022,13.803-2.1893,22.0529-8.8324,6.4834-5.2055,11.2002-13.8029,11.5197-22.2971.1879-4.8954-1.2497-5.1773-1.0994-10.2982.3007-10.1761,6.2579-17.8339,8.4566-20.5871,9.5277-11.9426,19.1588-10.7211,22.0623-20.5965,1.1181-3.8149-.1316-4.6417,1.4658-10.2888.5637-1.9639,2.4806-8.4942,7.7236-14.3386,5.1867-5.7881,7.4042-3.9746,18.3883-12.5064,6.8968-5.3558,8.7009-8.1558,9.5559-11.0311.9678-3.2416.8269-6.9343.7329-9.1895-.1691-4.3597-.9021-5.6095-1.0993-8.4566-.5168-7.3009,3.3168-13.211,4.0404-14.3386.3665-.5636,6.4176-9.5935,16.9131-11.0311,8.5129-1.1651,10.458,3.9465,26.112,6.9814,2.1235.4135,8.5506,1.5786,16.9131,1.4752,8.56-.1032,16.3682-.1973,24.6274-4.7826,4.2001-2.3302,9.415-5.2148,12.1399-11.0311,1.541-3.2887,1.2591-5.3277,3.6739-8.0901,2.7249-3.1008,6.2484-4.1155,9.8002-5.1397,3.3074-.9584,7.3384-2.1235,11.7734-.7423,2.7437.8645,2.7719,1.7947,6.1263,3.6833,1.2215.6859,9.0016,4.9236,17.4018,3.4296,2.4336-.4323,4.7263-1.682,9.3116-4.172,3.2135-1.7383,8.4941-4.8391,15.6916-10.2889,7.9585-6.0323,8.466-7.5356,12.0083-8.3343,5.8633-1.3249,11.1251,1.2779,13.4836,2.4524,11.3506,5.6189,11.1627,15.109,18.3789,15.6822,4.9706.4041,6.6901-3.9558,14.7144-3.6739,3.1384.1129,5.525.8739,7.3478,1.4659,8.1277,2.6686,8.6069,6.3424,14.7051,7.8458,3.1383.7798,6.2672.2725,12.5063-.7328,8.3156-1.3437,8.1465-2.7625,12.7412-2.9411,10.1291-.3946,17.6836,6.2298,18.3883,6.8593,4.1719,3.7679,2.894,5.2526,7.3572,10.0539,5.9948,6.4553,13.2487,9.0956,16.6595,10.2983,11.5761,4.0591,16.2366.5732,20.5964,5.1397,4.1437,4.3598.592,8.2405,4.4068,14.7145,4.435,7.517,13.85,10.1009,22.4475,12.0835.6107.141,1.2215.2724,1.8229.4135,10.6458,2.4242,10.8056.0469,18.3789,2.208.2537.0752,1.0993.3196,2.3585.7706,5.6753,2.0577,19.6098,8.2405,23.3871,20.5495,2.4524,8.0244-2.302,9.1801-1.4752,24.2703.2913,5.2243.7047,2.2551,5.1492,24.2704,1.7383,8.6256,2.6779,14.0096,7.3572,17.6461,1.5315,1.1933,1.8698.949,6.2484,2.9409,8.3626,3.8055,13.8124,6.2767,17.6461,11.0311,5.337,6.6055,5.1773,14.6487,5.1491,15.438-.2537,7.2539-4.0122,7.8928-6.9908,18.0219-1.5034,5.1303-3.9652,13.5023-.7329,21.6864,1.8699,4.7263,3.7867,4.7357,6.1263,10.7868.8644,2.2269,2.8471,7.517,2.4524,13.9721-.6201,10.1856-6.5116,12.6097-4.9048,19.3656.9772,4.0778,3.1571,3.345,6.6243,9.5559,4.5665,8.2029,4.529,16.2178,4.4068,18.877Z"/>
        <path class="cls-2" d="M312.8946,10c4.4648,0,8.2483,1.8729,10.1482,2.8192,11.3506,5.6188,11.1628,15.109,18.3792,15.6821.2202.0179.4348.0265.6431.0265,4.3452,0,6.2744-3.7135,13.3345-3.7135.2397,0,.4851.0043.7368.0131,3.1382.1128,5.5249.8739,7.3477,1.4658,8.1279,2.6687,8.6069,6.3425,14.7051,7.8458,1.0605.2636,2.1201.3801,3.2991.3801,2.3093,0,5.0767-.4473,9.2073-1.1129,8.3157-1.3437,8.1465-2.7625,12.7412-2.9411.2925-.0114.583-.0169.8711-.0169,9.689,0,16.833,6.2649,17.5173,6.8761,4.1719,3.7679,2.894,5.2526,7.3572,10.0539,5.9949,6.4553,13.2488,9.0956,16.6594,10.2983,11.5762,4.0591,16.2366.5732,20.5964,5.1397,4.1438,4.3599.592,8.2405,4.407,14.7145,4.4348,7.5169,13.8499,10.1009,22.4475,12.0835.6106.1409,1.2214.2724,1.8228.4134,4.7407,1.0795,7.4023,1.2069,9.5649,1.2069.6677,0,1.2881-.0121,1.9072-.0121,1.8784,0,3.7473.1117,6.9067,1.0132.2537.0752,1.0994.3196,2.3584.7706,5.6753,2.0577,19.6099,8.2404,23.3872,20.5494,2.4524,8.0244-2.302,9.1801-1.4753,24.2704.2915,5.2243.7048,2.2551,5.1492,24.2704,1.7383,8.6256,2.678,14.0096,7.3574,17.6461,1.5315,1.1933,1.8696.949,6.2483,2.9408,8.3625,3.8056,13.8125,6.2767,17.646,11.0312,5.3372,6.6055,5.1772,14.6487,5.1492,15.438-.2537,7.2539-4.0122,7.8928-6.9907,18.0219-1.5034,5.1303-3.9651,13.5023-.7329,21.6864,1.8699,4.7263,3.7866,4.7357,6.1262,10.7868.8645,2.2268,2.8472,7.5169,2.4524,13.9721-.6201,10.1856-6.5115,12.6097-4.9048,19.3656.9773,4.0778,3.1572,3.345,6.6243,9.5559,4.5667,8.2028,4.5291,16.2178,4.407,18.877-.3008,6.8498-2.6028,11.9143-3.6738,14.2163-4.2754,9.1895-9.3213,9.6688-10.2983,16.9132-.6389,4.7451.8645,5.9196.9866,12.7507.1504,8.6915-2.1235,15.3533-4.4163,22.0622-4.3503,12.7319-6.7275,11.219-7.8457,18.6233-1.5879,10.5331,3.1101,14.3573-.4888,21.085-2.7529,5.1491-6.145,4.0779-9.3115,10.2888-.6858,1.3343-3.9651,8.1371-1.4751,14.7145,1.1086,2.9034,2.396,3.2886,6.3799,7.8364,6.239,7.1599,10.1855,11.6701,9.3118,15.6915-1.4001,6.4742-14.6299,8.5789-16.1804,8.8232-1.5288.2437-2.7891.3354-3.9431.3354-3.5176,0-6.05-.8521-12.2009-.8521-.6248,0-1.2861.0088-1.9905.0281-7.2727.1973-10.9089.2912-15.2031,1.9638-8.4753,3.2886-16.0581,11.2566-19.1118,19.8541-1.137,3.1665-1.5315,6.1075-4.1719,10.5331-.9302,1.5692-3.0161,4.7827-6.3706,7.8459-4.3223,3.9464-6.897,4.1436-18.144,9.3115-10.8901,5.0177-13.0701,6.9627-14.7051,9.3211-2.4524,3.5423-3.1196,7.2538-3.4297,9.0674-1.3247,7.8081,2.0203,10.4109,0,16.6688-.3853,1.1933-1.7852,5.0456-5.3933,7.8458-1.4939,1.1557-4.6323,3.1101-13.9722,3.1853-.1489.001-.2976.0015-.4438.0015-5.3557,0-9.092-.677-20.3875-2.6983-9.0674-1.6255-13.634-2.4335-15.4473-2.6966-7.3806-1.0657-12.2961-1.414-15.635-1.4141-4.2278-.0001-5.929.558-6.916.9255-3.3638,1.2496-3.1382,2.0577-10.2888,5.3934-2.4336,1.1275-6.8123,3.1665-11.031,4.4067-1.4463.4241-5.1631,1.4279-12.7224,1.4279-1.8213,0-3.865-.0582-6.1545-.1969-13.4912-.8253-17.7271-3.3608-23.186-3.3611-1.5022,0-3.0964.1919-5.0027.6644-5.957,1.4657-5.6001,3.3638-12.9949,5.3934-4.2119,1.152-8.1455,1.5838-12.2874,1.5838-2.3445,0-4.7549-.1382-7.3225-.3624-19.197-1.6696-21.5896-6.853-30.6189-6.8532-1.0825,0-2.26.0745-3.5737.2384-10.6084,1.3155-25.8396,6.6619-31.9846,8.823-7.5706,2.6538-11.813,4.546-17.2412,4.546-.8376,0-1.7024-.045-2.613-.1392-1.7476-.1785-12.0928-1.231-17.646-8.8229-4.6511-6.3332-2.1519-12.0272-3.3169-20.9536-2.5088-19.281-19.2622-31.8625-20.9534-33.0933-17.073-12.4594-29.5229-1.3437-45.2146-12.4219-.3665-.263-.7422-.5355-1.1086-.8174-6.427-4.9142-10.0635-11.8298-15.4099-24.167-1.043-2.3867-2.1423-4.9895-3.345-7.8177-9.6875-22.8327-5.9478-26.8637-14.3386-39.7083-9.8284-15.0433-16.6312-12.074-25.3696-26.4784-3.4767-5.7223-5.3746-11.6982-6.8969-19.9387-1.6255-1.9451-3.439-4.2189-5.5625-6.8875-5.3934-6.784-8.0995-10.2606-8.8231-14.3386-.4415-2.4711-.4039-5.1585,3.674-16.9131,2.3678-6.8123,4.1532-11.9237,5.7975-15.4473-.1692-4.0967-.7141-8.1464-2.5276-14.4702-4.0873-14.2258-8.3625-18.2755-6.8687-28.4327,1.5222-10.2889,6.8875-12.7883,7.3573-24.5147.3477-8.8418-2.3585-16.434-3.9182-20.0985-4.7357-11.0311-9.8754-11.407-10.2982-18.1346-.6859-10.8338,11.9895-19.7414,13.2391-20.5871,9.4808-6.5022,13.803-2.1892,22.0529-8.8324,6.4834-5.2055,11.2003-13.803,11.5198-22.2972.188-4.8953-1.2496-5.1773-1.0994-10.2981.3007-10.1762,6.2579-17.834,8.4565-20.5871,9.5277-11.9427,19.1589-10.7211,22.0623-20.5965,1.1182-3.8149-.1316-4.6417,1.4658-10.2888.5637-1.9639,2.4807-8.4942,7.7236-14.3386,5.1868-5.7881,7.4043-3.9746,18.3884-12.5064,6.8967-5.3558,8.7009-8.1558,9.5559-11.0311.9678-3.2416.8269-6.9343.7329-9.1895-.1692-4.3597-.9021-5.6095-1.0994-8.4566-.5168-7.3008,3.3169-13.2109,4.0403-14.3386.3665-.5636,6.4177-9.5934,16.9133-11.0311.8459-.1158,1.6274-.1696,2.3635-.1696,6.6716,0,9.6497,4.4176,23.7483,7.151,2.0339.3961,8.0159,1.4817,15.8647,1.4817.3462,0,.6951-.0021,1.0483-.0065,8.5601-.1032,16.3684-.1973,24.6274-4.7826,4.2002-2.3303,9.415-5.2149,12.1399-11.0311,1.541-3.2887,1.2593-5.3277,3.6741-8.0901,2.7249-3.101,6.2483-4.1156,9.8-5.1397,2.2156-.6421,4.7559-1.3768,7.5247-1.3768,1.3647,0,2.7847.1784,4.2488.6344,2.7439.8645,2.772,1.7947,6.1265,3.6833,1.0405.5844,6.8416,3.7465,13.73,3.7465,1.1978,0,2.4272-.0955,3.6716-.3168,2.4336-.4323,4.7263-1.682,9.3118-4.172,3.2134-1.7383,8.4941-4.8391,15.6917-10.2889,7.9585-6.0322,8.4658-7.5356,12.0083-8.3342,1.1396-.2576,2.2578-.3668,3.3352-.3668M312.8946,0c-1.8767,0-3.7405.2062-5.5396.6128-4.6758,1.0541-7.1438,3.0957-10.2686,5.6804-1.3647,1.1288-3.063,2.5337-5.5759,4.4383-5.1177,3.8751-9.9668,7.0598-14.4092,9.4629l-.0864.0469c-2.8938,1.5714-5.3928,2.9285-6.2163,3.0746-.6077.1081-1.2539.1627-1.9226.1627-3.2788,0-6.8081-1.3284-8.834-2.466-.8083-.4551-1.2107-.762-1.7671-1.1868-1.5823-1.2076-3.251-2.3698-6.2505-3.3148-2.3467-.731-4.7766-1.0966-7.2537-1.0966-4.1938,0-7.7278,1.0242-10.3081,1.772-4.1631,1.2004-9.8743,2.8472-14.5286,8.1437-2.9458,3.3699-3.9019,6.4755-4.5344,8.5306-.2397.7786-.4131,1.3412-.6829,1.9173-1.3464,2.8737-4.5352,4.6428-7.9111,6.5158-6.0784,3.3747-11.8848,3.4447-19.9214,3.5416-.3154.004-.623.0058-.928.0058-4.7014,0-9.6567-.4607-13.9536-1.2974-6.2588-1.2134-9.8284-2.7611-12.9778-4.1266-3.6384-1.5775-7.4009-3.2087-12.6816-3.2087-1.1982,0-2.4497.0882-3.7197.262-14.7983,2.0271-23.0486,14.1154-23.9404,15.4871l-.0171.0261-.0166.0261c-4.0979,6.3852-6.0803,13.6367-5.5984,20.4441.1243,1.7931.3931,3.1779.6089,4.2905.2261,1.1649.4048,2.085.4731,3.8478.0627,1.5093.1777,4.2654-.3225,5.9409-.4214,1.4167-4.0071,4.3628-6.1074,5.9938-4.6506,3.6123-7.3152,4.9943-9.6663,6.2136-3.0308,1.5719-6.1648,3.1974-10.0359,7.5173-4.5349,5.0552-7.8633,11.1978-9.8882,18.2533-1.2356,4.3673-1.2778,7.0323-1.3059,8.7957-.0154.9722-.0193,1.0126-.1444,1.4392-.3871,1.3168-.7905,1.7554-4.9691,4.2922-4.1229,2.5029-9.7694,5.9308-15.3138,12.8807-6.787,8.4982-10.3661,17.4249-10.6351,26.5281-.1145,3.9008.4587,6.2911.838,7.8728.2406,1.0033.3052,1.2729.2644,2.3369-.2004,5.3261-3.3301,11.3041-7.788,14.8833-2.1838,1.7586-3.2673,1.944-6.163,2.4395-3.7173.6361-8.8068,1.5071-15.2616,5.9276-3.1826,2.159-18.5995,13.4843-17.5867,29.4819.4244,6.754,3.6786,10.649,6.0546,13.4931,1.7133,2.0507,3.3317,3.9878,5.0347,7.9546,1.2692,2.982,3.3793,9.0366,3.1149,15.7607-.1765,4.4061-1.2244,6.6-2.8103,9.9208-1.579,3.3062-3.5441,7.4208-4.447,13.5232-1.3754,9.3516.9802,15.4889,3.4742,21.9866,1.1365,2.9611,2.4247,6.3173,3.6755,10.6711,1.2407,4.3261,1.7688,7.2864,2.0056,9.9162-1.5524,3.7211-3.1652,8.3614-5.11,13.9568-4.094,11.8009-5.007,16.7242-4.0724,21.955,1.1808,6.654,5.0233,11.4871,10.8397,18.803,1.5566,1.9564,2.8636,3.5953,4.0607,5.0664,1.7826,8.652,4.0719,14.7908,7.6799,20.7291,5.4238,8.9406,10.5021,12.6512,14.9823,15.925,3.7268,2.7231,6.6704,4.874,10.5619,10.8304,3.4958,5.3514,4.2319,8.4077,5.5681,13.9561,1.2889,5.3516,3.0541,12.6809,7.9365,24.1885l.6221,1.4637c.9686,2.2807,1.8837,4.4349,2.7651,6.4523,5.2936,12.215,9.7269,21.3994,18.4991,28.1068.4324.3325.8977.6717,1.3528.9981l.0312.0224.0315.0222c10.1082,7.1363,19.4724,7.342,26.9968,7.5072,6.8721.1509,11.8372.2599,18.0903,4.8232.6194.4509,14.9448,11.0355,16.9319,26.3059.3064,2.3477.2834,4.4882.2593,6.7544-.0569,5.33-.1277,11.9634,4.9141,18.8282,7.1038,9.7117,18.5166,12.2213,24.6865,12.8515,1.2236.1266,2.449.1913,3.6323.1913,6.3137,0,11.1477-1.7384,17.2676-3.9393,1.0242-.3684,2.1123-.7598,3.2817-1.1697,5.5654-1.9573,20.324-7.1476,29.907-8.336.8782-.1096,1.6418-.1624,2.3433-.1624,2.0815,0,3.4314.4719,6.5537,1.6346,4.677,1.7418,11.0823,4.1272,23.1987,5.181,3.1243.2728,5.7273.4,8.189.4,5.3484,0,10.0911-.6158,14.9255-1.9381,5.0637-1.3898,7.6565-2.8874,9.5496-3.9809,1.2319-.7117,1.6931-.9779,3.1963-1.3478,1.3574-.3364,2.1406-.3748,2.613-.3748,1.1948,0,2.5405.2839,5.0127.8277,3.8279.842,9.0703,1.9952,17.5632,2.5147,2.365.1432,4.6389.2156,6.7651.2156,9.2888,0,13.991-1.3788,15.5364-1.8319,4.8777-1.434,9.7183-3.6769,12.3188-4.8819l.1021-.0473c4.3684-2.0378,6.4714-3.3374,7.8633-4.1973.9434-.583,1.0645-.658,1.7041-.8955.7473-.2782,2.8167-.2996,3.4333-.2996,3.4004,0,8.1799.4413,14.2061,1.3115,1.6506.2395,6.385,1.0778,15.1118,2.6423l.2954.0528c11.3958,2.0393,15.6597,2.8024,21.8567,2.8024l.511-.0017c9.2322-.0743,15.4036-1.7014,20.0239-5.2756,5.4539-4.2327,7.8481-9.7628,8.7908-12.6834,1.8071-5.5972,1.0801-9.7655.5493-12.8091-.3472-1.9919-.5569-3.1942-.2065-5.2589.1936-1.1329.5581-3.2653,1.7925-5.0479.6851-.9885,4.2756-2.9857,10.6677-5.931,3.2224-1.4806,5.7429-2.5529,7.7681-3.4146,5.2056-2.2146,8.6445-3.6777,12.9341-7.5943,4.0081-3.6602,6.688-7.5298,8.2302-10.1315,2.5381-4.2545,3.5681-7.6768,4.3203-10.1758.2358-.7836.4395-1.4604.6611-2.0774,2.1252-5.9839,7.5969-11.6909,13.3174-13.9105,2.5518-.994,4.864-1.1006,11.7908-1.2885l.0662-.0018c.6111-.0168,1.1809-.0244,1.7192-.0244,2.9114,0,4.8169.226,6.6597.4446,1.689.2003,3.4355.4075,5.5413.4075,1.7703,0,3.575-.1505,5.5173-.4601,8.0286-1.265,21.8977-5.1058,24.3804-16.5848,1.9346-8.9039-3.9839-15.6959-11.4771-24.295l-.0696-.0798c-1.571-1.7934-2.7739-3.0201-3.6523-3.9158-.3337-.3403-.7329-.7475-.9495-.986-.7385-2.0795.3589-5.1603,1.0518-6.5082.5872-1.1517.7515-1.2703,2.0293-2.1934,1.9175-1.385,4.8152-3.4782,7.207-7.9519,3.5713-6.6764,2.6038-12.254,1.8972-16.3266-.4429-2.5524-.8252-4.7566-.3389-7.9825.2668-1.7674.376-1.9502,1.4211-3.6995,1.3909-2.3276,3.4924-5.8451,5.999-13.1811,2.4058-7.0398,5.1326-15.0193,4.9519-25.4686-.071-3.9757-.5308-6.5177-.8665-8.3737-.2888-1.5966-.3408-1.8843-.208-2.8696.1094-.8118.1208-.8969,1.9653-2.9697,2.0728-2.3296,4.9119-5.52,7.4893-11.0596,1.1497-2.4713,4.2039-9.036,4.5974-17.9959.2212-4.8222-.2183-14.4049-5.6604-24.1799-2.1445-3.842-4.1191-5.9747-5.4287-7.2998.2083-.4685.5117-1.0798.7568-1.5738,1.5022-3.0279,3.7725-7.6036,4.1968-14.5759.5381-8.7979-2.209-15.8738-3.1118-18.199-1.7405-4.5016-3.4849-6.8332-4.7588-8.5356-.7561-1.0105-1.011-1.3509-1.3909-2.311-1.9644-4.9745-.2371-10.8689,1.0242-15.1728,1.0378-3.5294,2.1162-5.3874,3.2578-7.3544,1.7434-3.0033,3.9126-6.7411,4.137-13.1527.0735-2.0685.064-12.8781-7.3647-22.0723-5.3025-6.5763-12.3215-9.7704-21.2078-13.8143l-.0745-.034c-1.9438-.8841-3.2136-1.3903-4.054-1.7252-.1316-.0524-.2498-.0984-.3579-.1416-1.3379-1.2003-2.0049-3.9895-3.3535-10.7008l-.1794-.893c-2.3916-11.8464-3.6736-16.7451-4.3623-19.3768q-.5229-1.9981-.6055-3.4751c-.3337-6.0959.3896-9.0486,1.0894-11.904.8857-3.6144,1.988-8.1127-.0352-14.732-5.0854-16.5717-22.3535-24.4216-29.5417-27.0278-1.4858-.5323-2.5002-.8318-2.8823-.9445l-.0493-.0147-.0916-.0265c-4.3027-1.2278-7.1812-1.397-9.6506-1.397-.3354,0-.6711.0031-1.0134.0063-.2905.0028-.5867.0058-.8938.0058-1.5159,0-3.4565-.0737-7.3176-.9512-.3525-.0825-.708-.1622-1.0647-.242-.252-.0563-.5044-.1128-.7568-.171-6.856-1.581-13.7441-3.456-16.0833-7.4209-.5654-.9595-.6106-1.481-.6941-3.3226-.1399-3.0861-.3743-8.2514-5.0774-13.1998-5.0342-5.2729-10.6917-5.6296-14.8225-5.8902-2.7505-.1734-5.5945-.3527-9.7134-1.797-2.6533-.9357-8.2095-2.8949-12.6409-7.6665-1.2605-1.3562-1.5925-1.9874-2.1956-3.1333-1.2212-2.3207-2.5828-4.6434-5.7864-7.5369l-.0205-.0185-.0205-.0185c-1.761-1.5727-11.2019-9.4179-24.179-9.4179-.4167,0-.8376.008-1.2607.0245-3.7327.1451-5.9678.9207-7.7639,1.544-1.3748.4771-2.7964.9703-6.1829,1.5175-3.5649.5745-6.1116.9849-7.6121.9849-.481,0-.7183-.0429-.887-.0849-.9148-.2254-1.2024-.4137-2.7949-1.623-2.1626-1.6421-5.4307-4.1238-11.2029-6.019-2.085-.6771-5.5227-1.7935-10.1079-1.9583-.3809-.0134-.7424-.0196-1.0959-.0196-6.1238,0-10.144,1.9114-12.6011,3.1307-.2695-.3623-.5483-.7484-.7913-1.0847-2.6021-3.6023-6.5344-9.0462-14.5281-13.0031-2.3018-1.1465-7.7439-3.8572-14.5845-3.8572h0Z"/>
      </g>
      <g>
        <path class="cls-1" d="M395.499,431.5284c-17.1198,22.4476-43.6165,36.8858-71.4184,41.8051-27.8019,4.9193-56.7583.7814-83.2016-9.1193-39.2388-14.6868-73.8781-42.5775-94.2833-79.1702-19.8992-35.6782-25.5465-79.5433-13.1418-118.427.3108-1.0033.6394-1.9979.9857-2.9924,17.6082-50.9599,62.9206-110.6572,116.7486-113.3033,3.9425-.1953,7.894-.2042,11.8542-.0178,15.7968.746,31.9132,6.1269,42.8262,17.5727,9.0838,9.5278,13.9676,22.9359,13.1151,36.0777-.6837,10.5845.1865,42.249,3.4009,53.7214.1154.3908.222.7547.3374,1.0922,3.4719,10.3536,13.6746,16.6138,22.9803,22.3321,27.873,17.1553,55.524,39.1767,65.3181,70.3973,8.4445,26.9406,1.5894,57.5751-15.5215,80.0315Z"/>
        <path class="cls-3" d="M257.3155,150.169c1.9072,0,3.8157.0445,5.7268.1345,15.7969.746,31.9133,6.127,42.8262,17.5727,9.0837,9.5277,13.9675,22.9359,13.1152,36.0777-.6838,10.5844.1865,42.2489,3.4009,53.7214.1155.3908.2219.7548.3374,1.0922,3.4719,10.3536,13.6746,16.6138,22.9802,22.3322,27.873,17.1553,55.5242,39.1767,65.3181,70.3973,8.4446,26.9406,1.5896,57.5751-15.5215,80.0315-17.1196,22.4476-43.6165,36.8858-71.4182,41.8051-7.9636,1.4091-16.0269,2.0753-24.0935,2.0753-20.0957,0-40.2393-4.1298-59.1082-11.1947-39.2388-14.6868-73.8782-42.5775-94.2832-79.1702-19.8992-35.6782-25.5466-79.5433-13.1418-118.427.3108-1.0033.6392-1.9979.9856-2.9924,17.6082-50.9599,62.9207-110.6572,116.7485-113.3033,2.0398-.101,4.0828-.1522,6.1274-.1522M257.3155,144.4989c-2.1201,0-4.2761.0536-6.408.1592-26.0886,1.2825-52.3057,15.2252-75.8142,40.3208-19.6133,20.9372-36.3843,48.9275-46.0129,76.7939-.3679,1.0557-.7202,2.1255-1.0425,3.1662-6.2468,19.5799-8.2432,41.2927-5.7595,62.7457,2.4277,20.9697,9.1243,41.7593,19.3655,60.1212,10.3459,18.5536,24.2778,35.1743,41.4084,49.4,16.6106,13.7939,35.3977,24.6675,55.8391,32.3186,20.4768,7.6669,41.0327,11.5544,61.0957,11.5544,8.5349,0,16.9736-.7274,25.0815-2.1621,30.4294-5.3842,57.7437-21.4034,74.9387-43.95,18.8452-24.7322,25.1377-57.3651,16.4236-85.1659-4.8062-15.3206-13.7334-29.3197-27.2925-42.7984-10.5002-10.4379-23.3579-20.2031-40.4644-30.7317-8.7505-5.3773-17.7625-10.9152-20.5762-19.3061-.0952-.2781-.1709-.5411-.2537-.8216l-.0103-.035c-2.8513-10.2429-3.8896-40.9928-3.1919-51.7886.9492-14.6387-4.5347-29.7255-14.6699-40.356-11.0225-11.5607-27.594-18.4234-46.6626-19.3239-1.9834-.0934-4-.1408-5.9941-.1408h0Z"/>
      </g>
      <circle class="cls-5" cx="74.9457" cy="312.7889" r="14.8951"/>
      <circle class="cls-5" cx="311.2414" cy="66.4212" r="21.077"/>
      <circle class="cls-5" cx="444.047" cy="476.8394" r="21.077"/>
      <circle class="cls-5" cx="113.8802" cy="119.5633" r="7.4475"/>
      <circle class="cls-5" cx="160.1981" cy="76.8592" r="7.4475"/>
      <circle class="cls-5" cx="510.6022" cy="441.6633" r="7.4475"/>
      <circle class="cls-5" cx="450.4966" cy="235.5612" r="16.9638"/>
      <circle class="cls-5" cx="428.2414" cy="538.7546" r="10.5142"/>
      <circle class="cls-5" cx="377.4327" cy="538.7546" r="10.5142"/>
      <circle class="cls-5" cx="468.2992" cy="326.2807" r="12.8993"/>
      <circle class="cls-5" cx="182.2001" cy="517.893" r="12.8993"/>
      <circle class="cls-5" cx="516.054" cy="181.8026" r="12.8993"/>
      <circle class="cls-5" cx="195.0995" cy="125.5736" r="9.9383"/>
      <circle class="cls-5" cx="555.1371" cy="267.8281" r="8.529"/>
      <circle class="cls-5" cx="138.6633" cy="455.1004" r="12.8993"/>
      <circle class="cls-5" cx="382.3967" cy="92.7667" r="12.8993"/>
      <circle class="cls-5" cx="450.4966" cy="112.1157" r="6.4497"/>
      <circle class="cls-5" cx="317.2167" cy="555.7185" r="6.4497"/>
      <circle class="cls-5" cx="382.3967" cy="179.0735" r="12.8993"/>
      <circle class="cls-5" cx="80.6254" cy="206.2408" r="26.9701"/>
      <circle class="cls-5" cx="540.9582" cy="335.6974" r="22.9085"/>
      <circle class="cls-5" cx="58.2079" cy="389.3151" r="22.9085"/>
      <circle class="cls-5" cx="244.9652" cy="541.5325" r="25.7987"/>
    </g>
  </g>
</svg>