<?xml version="1.0" encoding="UTF-8"?>
<svg id="Capa_2" xmlns="http://www.w3.org/2000/svg" viewBox="0 0 596.3301 605.3528">
  <defs>
    <style>
      .cls-1 {
        fill: #70569b;
      }

      .cls-2 {
        fill: #604593;
      }

      .cls-3 {
        fill: #47327c;
      }

      .cls-4 {
        fill: #a486ce;
      }

      .cls-5 {
        fill: #8566b2;
      }
    </style>
  </defs>
  <g id="Capa_1-2" data-name="Capa_1">
    <g>
      <g>
        <path class="cls-4" d="M187.4088,600.3528c-1.0264,0-2.0488-.0542-3.127-.1655-4.2988-.4395-14.9727-2.376-21.167-10.845-4.0479-5.512-3.9922-10.7458-3.9385-15.8074.0254-2.3394.0508-4.7583-.3008-7.4509-2.2236-17.0867-17.2334-28.4573-18.9375-29.6975-7.5264-5.4927-13.7393-5.6292-20.9326-5.7871-7.2012-.158-15.3623-.3374-24.2236-6.5928-.4434-.3184-.8643-.6243-1.2754-.9404-7.1436-5.4626-11.1582-12.783-16.9473-26.1404-.8398-1.9233-1.7236-4.002-2.6689-6.2266l-.6885-1.6221c-4.7236-11.1316-6.3633-17.9399-7.6807-23.4106-1.3701-5.6877-2.2754-9.4451-6.2441-15.5205-4.3896-6.7202-7.9873-9.3494-11.7969-12.1326-4.3027-3.144-8.752-6.3948-13.6602-14.4871-3.4492-5.6768-5.5967-11.6377-7.2949-20.3333-1.3857-1.6843-2.9072-3.5908-4.8027-5.9724-5.5342-6.9626-8.874-11.1636-9.833-16.5801-.6748-3.7649-.2754-7.4663,3.873-19.4243,2.1191-6.0999,3.8359-11.0408,5.4658-14.762-.2012-3.2529-.7295-6.7356-2.2793-12.1382-1.3096-4.5603-2.6387-8.0242-3.8125-11.0801-2.4463-6.3757-4.3799-11.4119-3.1963-19.4587.793-5.3623,2.5039-8.9443,4.0137-12.1047,1.6504-3.4568,3.0762-6.4421,3.2939-11.8826.3027-7.696-2.0771-14.5437-3.5225-17.9402-1.9854-4.6245-4.0039-7.0413-5.7861-9.1736-2.251-2.6951-4.5791-5.4819-4.9014-10.6057-.8623-13.6101,13.7578-23.9116,15.4277-25.0415,5.5361-3.7969,9.8262-4.5312,13.2744-5.1213,3.0527-.5225,5.2598-.8999,8.4443-3.4646,5.6143-4.5078,9.4033-11.8032,9.6592-18.5903.0664-1.7559-.1182-2.5288-.3994-3.6985-.3545-1.4814-.7969-3.325-.7021-6.5588.2363-7.998,3.4492-15.9248,9.5488-23.5608,4.9883-6.2529,9.9834-9.2859,13.998-11.7227,4.2773-2.5969,6.209-3.8833,7.1738-7.1641.3174-1.0842.3271-1.6799.3447-2.7617.0244-1.5933.0596-3.7754,1.1064-7.4773,1.8193-6.3401,4.7832-11.8237,8.8135-16.3164,3.2588-3.637,5.7393-4.9238,8.6123-6.4136,2.415-1.2524,5.4199-2.8113,10.4297-6.7026,6.3604-4.9382,7.377-6.9802,7.8301-8.5068.7422-2.4814.6094-5.6589.5303-7.5576-.083-2.1589-.3154-3.3542-.5615-4.6196-.1992-1.0298-.4258-2.1965-.5303-3.6987-.4053-5.7332,1.3008-11.9006,4.8047-17.3589.7959-1.2256,7.8604-11.5847,20.459-13.3103,1.0615-.1453,2.0566-.2158,3.042-.2158,4.2441,0,7.377,1.3582,10.6934,2.7961,3.2168,1.3948,7.2197,3.1306,14.0068,4.4465,3.2607.6343,8.4912,1.3901,14.9131,1.3901.3252,0,.6533-.0022.9863-.0061,8.1074-.0979,15.1074-.1824,22.2627-4.1548,3.9492-2.1907,8.0059-4.4414,10.0391-8.7805.418-.8928.6572-1.6692.9336-2.5681.5684-1.8457,1.2744-4.1428,3.5029-6.6917,3.6973-4.2073,8.3975-5.5625,12.1738-6.6516,2.4199-.7014,5.4326-1.5742,8.916-1.5742,1.9717,0,3.9023.2896,5.7354.8606,2.4287.7654,3.6543,1.7004,4.7344,2.5254.6357.4851,1.2363.9431,2.3584,1.575.9189.5156,5.8047,3.1035,11.2773,3.1035.9609,0,1.9023-.0808,2.7949-.2395,1.624-.2886,3.665-1.3972,7.7324-3.6062,4.7383-2.5627,9.8027-5.886,15.1289-9.9185,2.5957-1.967,4.3389-3.4094,5.7402-4.5684,2.9131-2.4099,4.6719-3.8647,8.1865-4.657,1.4355-.3245,2.9287-.4893,4.4346-.4893,5.6641,0,10.3682,2.343,12.377,3.3435,6.873,3.4023,10.2314,8.0505,12.6826,11.4446,2.0957,2.9004,2.7686,3.6418,3.8643,3.7288.0898.0076.1699.011.2461.011.7051,0,1.3887-.3245,2.7461-.9995,2.3037-1.1455,5.459-2.7144,10.5898-2.7144.2969,0,.6006.0054.9121.0164,3.8926.1401,6.7959,1.0835,8.7168,1.7075,4.9902,1.6384,7.6318,3.644,9.7539,5.2554,1.6494,1.2524,2.6445,2.0083,4.6035,2.4912.6465.1606,1.3125.2346,2.1016.2346,1.9014,0,4.4727-.4146,8.3662-1.042,3.8604-.6235,5.5654-1.2151,7.0684-1.7368,1.6367-.5681,3.3291-1.1553,6.3203-1.2717.3574-.0139.7129-.0205,1.0654-.0205,11.168,0,19.3271,6.7878,20.8486,8.1487,2.8291,2.5542,3.8398,4.4761,4.7324,6.1716.668,1.2695,1.2451,2.3657,2.9551,4.2058,5.2705,5.6753,11.8506,7.9961,14.6602,8.9871,4.7617,1.6694,8.0996,1.8799,11.0449,2.0657,3.8525.2429,7.8369.4941,11.5049,4.3367,3.4248,3.6033,3.5918,7.2942,3.7139,9.9893.0908,1.9917.1621,3.5647,1.3848,5.6389,3.3447,5.6692,11.3496,7.9253,19.2627,9.75,0,0,1.4941.3364,1.8418.418,4.3535.9912,6.6318,1.0747,8.4229,1.0747l1.9072-.012c2.4336,0,4.7734.2048,8.2793,1.2051l.1074.0315c.3447.1021,1.2607.3728,2.5645.8398,6.502,2.3577,22.0596,9.3811,26.4814,23.7896,1.6221,5.3096.7783,8.7549-.0381,12.0864-.75,3.0608-1.6006,6.53-1.2256,13.3777.1104,1.9727.1846,2.2556.7607,4.4565.6758,2.5837,1.9346,7.3928,4.2979,19.0979l.1797.8928c1.5918,7.9226,2.4189,11.521,5.3447,13.7947q.3711.2896,1.416.7061c.7969.3174,2,.7969,3.834,1.6313,8.6807,3.95,14.9014,6.7808,19.4678,12.4438,6.3008,7.7981,6.3154,16.9868,6.2549,18.7498-.1807,5.1614-1.8506,8.0376-3.4648,10.8188-1.2402,2.137-2.5225,4.3464-3.7266,8.4404-1.3877,4.7371-3.4756,11.8645-.8799,18.4397.625,1.5779,1.1865,2.3281,2.0361,3.4639,1.1611,1.5518,2.6064,3.4832,4.1035,7.356.8027,2.0669,3.251,8.3745,2.7793,16.0803-.3623,5.96-2.2822,9.8301-3.6846,12.656-1.332,2.6848-1.7344,3.6121-1.3457,5.2471.1729.7234.1914.7417,1.1533,1.7048,1.1768,1.177,2.9541,2.9561,4.9717,6.571,4.8467,8.7051,5.2354,17.2354,5.0361,21.5457-.3486,7.957-3.0996,13.8691-4.1357,16.095-2.2676,4.873-4.7197,7.6294-6.6904,9.8442-1.9639,2.207-2.8594,3.2144-3.1855,5.6279-.2373,1.7651-.0771,2.6543.2432,4.4255.3223,1.7825.7236,4.0007.7871,7.5671.166,9.5793-2.2998,16.7927-4.6836,23.7686-2.3369,6.8386-4.1992,9.9563-5.5596,12.2327-1.1738,1.9641-1.6592,2.7771-2.0732,5.5203-.6074,4.0261-.1172,6.8501.3564,9.5813.6475,3.7285,1.3809,7.9543-1.3799,13.1152-1.8477,3.4539-3.998,5.0071-5.7256,6.2551-1.457,1.0527-2.4199,1.7483-3.541,3.9463-.5156,1.0042-2.9629,6.1575-1.2539,10.6731.3379.8855.541,1.113,2.0215,2.623.8369.8533,1.9824,2.0217,3.4434,3.689l.0762.0879c7.085,8.1294,11.7646,13.5,10.3604,19.9604-1.8506,8.561-13.5049,11.6321-20.2871,12.7002-1.6709.2664-3.2178.3965-4.7217.3965-1.8105,0-3.3369-.1812-4.9521-.3728-1.8945-.2246-4.042-.4792-7.249-.4792-.582,0-1.1973.0081-1.8525.0261-6.9248.1877-10.0547.2727-13.5264,1.6248-7.0947,2.7529-13.6094,9.531-16.2148,16.8687-.2715.7559-.5029,1.5261-.749,2.3413-.7148,2.3752-1.6035,5.3313-3.8408,9.0803-1.3604,2.2959-3.7373,5.73-7.292,8.9761-3.6611,3.3418-6.4521,4.5298-11.5205,6.6858-2.0547.8743-4.6113,1.9622-7.9082,3.4771-10.0508,4.6309-11.6904,6.1936-12.6836,7.626-1.8623,2.6897-2.3682,5.6433-2.6104,7.063-.4932,2.9048-.167,4.7776.2119,6.946.4893,2.8096,1.0449,5.9941-.3828,10.4148-.7637,2.3699-2.7012,6.8569-7.085,10.2593-2.4961,1.9312-6.6777,4.1523-16.998,4.2356l-.4834.0017c-5.752,0-9.5879-.6863-20.9727-2.7236l-.2959-.053c-8.9697-1.6082-13.5439-2.4177-15.2842-2.6702-6.2598-.9038-11.2803-1.3623-14.918-1.3623-3.5293,0-4.6787.4282-5.1699.6111-1.1094.4121-1.5752.7-2.5967,1.3308-1.3691.8464-3.2451,2.0056-7.3232,3.9082l-.1162.0535c-2.4824,1.1504-7.1045,3.2917-11.6191,4.6191-1.3779.4041-5.5615,1.6306-14.1318,1.6306-2.0273,0-4.2002-.0693-6.457-.2061-8.1074-.4958-13.1299-1.6006-16.7969-2.4072-2.4932-.5483-4.2939-.9446-6.0869-.9446-1.168,0-2.375.1646-3.7998.5176-2.2021.542-3.1211,1.0725-4.5117,1.8757-1.75,1.011-3.9287,2.2693-8.3633,3.4863-4.3955,1.2024-8.7188,1.762-13.6094,1.762-2.3125,0-4.7773-.1211-7.7578-.3811-11.4395-.9951-17.4775-3.2437-21.8857-4.8855-3.1514-1.1736-5.2334-1.949-8.2988-1.949-.9102,0-1.877.0654-2.9551.2-10.1191,1.2549-25.249,6.5754-30.9443,8.5784-1.1885.4165-2.29.8125-3.3262,1.1853-5.8818,2.1155-10.1328,3.6438-15.5752,3.6438Z"/>
        <path class="cls-1" d="M312.8944,10c4.4651,0,8.2485,1.8728,10.1484,2.8191,11.3508,5.6189,11.1628,15.1089,18.3792,15.6821.2202.0178.4346.0264.6431.0264,4.3452,0,6.2747-3.7136,13.335-3.7136.2395,0,.4846.0044.7363.0132,3.1382.113,5.5249.874,7.3479,1.4661,8.1277,2.6685,8.6069,6.3423,14.7048,7.8457,1.0605.2634,2.1201.3801,3.2988.3801,2.3096,0,5.0767-.4473,9.2075-1.113,8.3157-1.3435,8.1465-2.7625,12.7412-2.9412.2925-.0115.583-.0168.8711-.0168,9.689,0,16.833,6.2649,17.5173,6.8762,4.1719,3.7678,2.894,5.2524,7.3572,10.054,5.9949,6.4553,13.2488,9.0955,16.6594,10.2983,11.5762,4.0591,16.2366.573,20.5964,5.1396,4.1438,4.3599.592,8.2405,4.407,14.7144,4.4348,7.5171,13.8499,10.1008,22.4475,12.0835.6106.1409,1.2214.2725,1.8228.4136,4.7407,1.0796,7.4021,1.2068,9.5647,1.2068.6677,0,1.2881-.012,1.9072-.012,1.8787-.0002,3.7476.1116,6.907,1.0132.2537.0752,1.0994.3193,2.3584.7705,5.6753,2.0576,19.6099,8.2405,23.3872,20.5493,2.4524,8.0244-2.302,9.1802-1.4753,24.2705.2915,5.2241.7048,2.2551,5.1492,24.2703,1.7383,8.6257,2.678,14.0098,7.3574,17.6462,1.5315,1.1931,1.8696.949,6.2483,2.9407,8.3628,3.8057,13.8125,6.2769,17.646,11.0312,5.3372,6.6055,5.1775,14.6487,5.1492,15.438-.2537,7.2539-4.0122,7.8928-6.9907,18.022-1.5034,5.1301-3.9651,13.5022-.7329,21.6863,1.8699,4.7263,3.7866,4.7358,6.1262,10.7869.8645,2.2268,2.8472,7.5168,2.4524,13.9722-.6201,10.1855-6.5115,12.6096-4.9048,19.3655.9773,4.0779,3.1572,3.3452,6.6245,9.5559,4.5664,8.2029,4.5288,16.2178,4.4067,18.8772-.3008,6.8496-2.6028,11.9143-3.6738,14.2163-4.2754,9.1895-9.321,9.6687-10.2983,16.9131-.6389,4.7451.8645,5.9197.9866,12.7507.1504,8.6914-2.1235,15.3533-4.4163,22.0623-4.3503,12.7317-6.7275,11.219-7.8457,18.6233-1.5879,10.533,3.1101,14.3572-.4888,21.085-2.7529,5.1492-6.145,4.0779-9.3115,10.2888-.6858,1.3342-3.9651,8.137-1.4751,14.7144,1.1086,2.9033,2.396,3.2886,6.3799,7.8364,6.239,7.1599,10.1855,11.6702,9.3118,15.6917-1.4001,6.4741-14.6299,8.5789-16.1804,8.823-1.5288.2437-2.7893.3354-3.9434.3354-3.5173,0-6.0496-.8521-12.2007-.8521-.6248,0-1.2861.0088-1.9905.0281-7.2727.1973-10.9089.2913-15.2031,1.9639-8.4753,3.2886-16.0581,11.2566-19.1118,19.854-1.137,3.1665-1.5315,6.1077-4.1719,10.5332-.9302,1.5691-3.0161,4.7827-6.3706,7.8459-4.3223,3.9463-6.8967,4.1436-18.144,9.3115-10.8901,5.0176-13.0701,6.9624-14.7051,9.321-2.4524,3.5422-3.1196,7.2537-3.4297,9.0674-1.3247,7.8081,2.0203,10.4109,0,16.6687-.3853,1.1934-1.7852,5.0457-5.3933,7.8457-1.4939,1.1558-4.6323,3.1101-13.9722,3.1855-.1489.001-.2976.0015-.4438.0015-5.3557,0-9.092-.677-20.3875-2.6985-9.0674-1.6255-13.634-2.4333-15.4473-2.6965-7.3816-1.0657-12.2961-1.4141-15.6353-1.4141-4.2266,0-5.929.5581-6.9158.9255-3.3638,1.2495-3.1382,2.0576-10.2888,5.3933-2.4336,1.1274-6.8123,3.1665-11.031,4.4067-1.4463.4241-5.1624,1.4277-12.7219,1.4277-1.8213,0-3.8655-.0581-6.155-.1968-13.4912-.8252-17.7271-3.3606-23.1858-3.3608-1.5022-.0002-3.0964.1919-5.0027.6643-5.9573,1.4656-5.6003,3.3638-12.9951,5.3933-4.2124,1.1521-8.145,1.5837-12.2874,1.5837-2.3442,0-4.7554-.1382-7.3225-.3623-19.1968-1.6697-21.5894-6.853-30.6187-6.8533-1.0825,0-2.2603.0745-3.574.2385-10.6084,1.3154-25.8396,6.6619-31.9846,8.823-7.5706,2.6536-11.8135,4.5459-17.2415,4.5459-.8376,0-1.7021-.0449-2.6128-.1392-1.7476-.1785-12.0928-1.231-17.646-8.823-4.6511-6.333-2.1516-12.0271-3.3169-20.9536-2.5088-19.281-19.2622-31.8623-20.9534-33.0933-17.073-12.4595-29.5229-1.3438-45.2146-12.4219-.3665-.2629-.7422-.5354-1.1086-.8174-6.427-4.9143-10.0635-11.8298-15.4099-24.167-1.043-2.3867-2.1423-4.9895-3.345-7.8176-9.6875-22.8328-5.9478-26.8638-14.3386-39.7085-9.8284-15.0432-16.6311-12.074-25.3696-26.4783-3.4766-5.7222-5.3748-11.6982-6.8967-19.9387-1.6257-1.9451-3.4392-4.219-5.5627-6.8875-5.3933-6.7842-8.0994-10.2605-8.823-14.3386-.4417-2.4712-.4041-5.1584,3.6741-16.9131,2.3677-6.8123,4.1531-11.9238,5.7974-15.4473-.1692-4.0969-.7141-8.1465-2.5276-14.4702-4.0874-14.2258-8.3625-18.2756-6.8687-28.4329,1.5222-10.2888,6.8875-12.7883,7.3572-24.5146.3477-8.8418-2.3584-16.4338-3.918-20.0984-4.7358-11.0312-9.8755-11.407-10.2983-18.1348-.686-10.8337,11.9895-19.7412,13.2393-20.5869,9.4807-6.5022,13.803-2.1895,22.0527-8.8325,6.4834-5.2056,11.2002-13.803,11.5198-22.2971.188-4.8955-1.2498-5.1772-1.0994-10.2981.3008-10.1763,6.2578-17.834,8.4565-20.5872,9.5278-11.9426,19.1589-10.7212,22.0623-20.5964,1.1182-3.8149-.1316-4.6418,1.4658-10.2888.5637-1.9639,2.4807-8.4941,7.7236-14.3386,5.1868-5.7881,7.4043-3.9746,18.3884-12.5063,6.8967-5.3557,8.7009-8.1558,9.5559-11.0312.9678-3.2415.8269-6.9341.7329-9.1895-.1692-4.3596-.9021-5.6094-1.0994-8.4565-.5168-7.3008,3.3169-13.2109,4.0403-14.3386.3665-.5635,6.4177-9.5935,16.9133-11.031.8459-.1157,1.6277-.1697,2.3638-.1697,6.6716,0,9.6494,4.4175,23.748,7.1511,2.0337.396,8.0159,1.4814,15.864,1.4814.3467,0,.6956-.002,1.0493-.0063,8.5598-.1033,16.3682-.1973,24.6274-4.7827,4.2-2.3301,9.4148-5.2148,12.1396-11.031,1.541-3.2888,1.2593-5.3276,3.6741-8.0901,2.7249-3.1008,6.2483-4.1157,9.8003-5.1399,2.2156-.6418,4.7559-1.3767,7.5247-1.3767,1.3645,0,2.7844.1785,4.2485.6345,2.7439.8645,2.772,1.7947,6.1265,3.6833,1.0405.5842,6.8418,3.7463,13.73,3.7463,1.198,0,2.4272-.0955,3.6716-.3167,2.4336-.4324,4.7263-1.6821,9.3118-4.1721,3.2134-1.7383,8.4941-4.8391,15.6917-10.2888,7.9585-6.0322,8.4658-7.5356,12.0083-8.3342,1.1399-.2576,2.2576-.3667,3.335-.3667M312.8944,0c-1.8767,0-3.7405.2061-5.5393.6128-4.6758,1.054-7.1438,3.0955-10.2686,5.6802-1.3645,1.1289-3.063,2.5337-5.5759,4.4385-5.1177,3.875-9.967,7.0598-14.4092,9.4629l-.0862.0466c-2.8938,1.5715-5.3933,2.9287-6.2168,3.0752-.6069.1079-1.2529.1624-1.9221.1624-3.2788,0-6.8083-1.3284-8.8345-2.4658-.8079-.4551-1.2102-.762-1.7666-1.1868-1.5823-1.2078-3.251-2.3699-6.2505-3.3149-2.3469-.731-4.7769-1.0967-7.2537-1.0967-4.1924,0-7.7268,1.0239-10.3076,1.7717-4.1628,1.2004-9.8748,2.8472-14.5291,8.1438-2.946,3.3704-3.9021,6.4756-4.5347,8.5308-.2397.7786-.4128,1.3411-.6829,1.9172-1.3464,2.874-4.5352,4.6431-7.9109,6.5159-6.0786,3.3748-11.8848,3.4448-19.9209,3.5417-.3164.0039-.624.0056-.9294.0056-4.7002,0-9.6555-.4607-13.9534-1.2974-6.2581-1.2131-9.8276-2.761-12.9771-4.1265-3.6384-1.5774-7.4009-3.2087-12.6816-3.2087-1.1985,0-2.45.0884-3.72.262-14.7993,2.0271-23.0486,14.1157-23.9407,15.4875l-.0168.0259-.0166.0259c-4.0979,6.3855-6.0803,13.6367-5.5984,20.4443.1243,1.793.3931,3.1777.6091,4.2903.2261,1.165.4045,2.085.4729,3.8479.0627,1.509.1775,4.2656-.3225,5.9407-.4214,1.417-4.0071,4.363-6.1074,5.9939-4.6504,3.6123-7.3152,4.9944-9.6663,6.2136-3.0308,1.572-6.1648,3.1973-10.0359,7.5173-4.5349,5.0552-7.863,11.1978-9.8882,18.2532-1.2356,4.3674-1.2778,7.0325-1.3057,8.7959-.0154.9724-.0195,1.0127-.1445,1.4395-.3872,1.3164-.7905,1.7551-4.9692,4.2917-4.1228,2.5029-9.7693,5.9309-15.314,12.8806-6.7869,8.4988-10.366,17.4253-10.635,26.5283-.1145,3.9009.4587,6.291.8379,7.8728.2407,1.0032.3052,1.2729.2644,2.3369-.2004,5.3259-3.3298,11.304-7.7878,14.8833-2.1838,1.7585-3.2673,1.9438-6.1631,2.4395-3.7163.636-8.8044,1.5071-15.2571,5.9248-3.1736,2.1519-18.6047,13.4797-17.5911,29.4849.4243,6.7539,3.6787,10.6489,6.0547,13.4929,1.7134,2.0508,3.3315,3.9878,5.0347,7.9546,1.269,2.9819,3.3792,9.0366,3.1147,15.7607-.1765,4.406-1.2244,6.5999-2.8103,9.9207-1.5791,3.3062-3.5442,7.4209-4.447,13.5232-1.3755,9.3518.9802,15.4893,3.4744,21.9871,1.1365,2.9612,2.4246,6.3171,3.6755,10.6709,1.2405,4.3259,1.7686,7.2864,2.0054,9.916-1.5522,3.7214-3.165,8.3618-5.1099,13.957-4.0942,11.801-5.0073,16.7246-4.0723,21.9556,1.1804,6.6523,5.0227,11.4858,10.8391,18.8022,1.5579,1.9575,2.8652,3.5969,4.061,5.0664,1.7825,8.6516,4.0718,14.7903,7.6802,20.729,5.4238,8.9407,10.502,12.6514,14.9822,15.925,3.7268,2.7231,6.6704,4.874,10.562,10.8303,3.4958,5.3513,4.2317,8.4077,5.5681,13.9561,1.2888,5.3516,3.054,12.6809,7.9363,24.1887l.6233,1.4666c.9683,2.2798,1.8831,4.4331,2.7644,6.4497,5.293,12.2144,9.7263,21.3987,18.499,28.1064.4304.3315.897.6714,1.3528.9985l.031.0222.0315.022c10.1079,7.1362,19.4724,7.3418,26.9968,7.5071,6.8718.1509,11.8369.26,18.0901,4.8232.6191.4507,14.9451,11.0364,16.9319,26.3059.3066,2.3481.2837,4.4888.2595,6.7551-.0566,5.3298-.1274,11.9629,4.9141,18.8274,7.1042,9.7126,18.5176,12.2219,24.6875,12.8518,1.2395.1282,2.4307.1912,3.6311.1912,6.3135,0,11.1472-1.7383,17.2673-3.9392,1.0242-.3684,2.1125-.7598,3.282-1.1697,5.5659-1.9575,20.325-7.1477,29.9072-8.3359.8665-.1084,1.6519-.1626,2.3425-.1626,2.0825,0,3.4324.4719,6.5547,1.6348,4.677,1.7417,11.0823,4.127,23.1985,5.1809,3.1243.2727,5.7275.3999,8.189.3999,5.3489,0,10.0916-.616,14.9258-1.938,5.0632-1.3896,7.656-2.8875,9.5493-3.9807,1.2319-.7117,1.6931-.978,3.1963-1.3479,1.3577-.3364,2.1406-.3748,2.613-.3748,1.1951,0,2.5405.2837,5.0127.8274,3.8279.842,9.0703,1.9954,17.5635,2.5149,2.3628.1431,4.637.2153,6.7654.2153,9.2886,0,13.9907-1.3787,15.5356-1.8318,4.8782-1.4341,9.7185-3.677,12.3188-4.8818l.1023-.0474c4.3682-2.0378,6.4714-3.3374,7.863-4.1973.9436-.583,1.0647-.658,1.7041-.8955.7473-.2781,2.8169-.2996,3.4336-.2996,3.3994,0,8.1792.4412,14.2063,1.3115,1.6523.2397,6.3862,1.0779,15.1116,2.6421l.2979.0535c11.3943,2.0391,15.6575,2.802,21.8542,2.802l.511-.0017c9.2324-.0745,15.4038-1.7017,20.0239-5.2759,5.4531-4.2319,7.8477-9.762,8.7905-12.6824,1.8074-5.5979,1.0806-9.7661.5498-12.8098-.3474-1.9919-.5571-3.1941-.2068-5.2588.1936-1.1333.5579-3.2649,1.7925-5.0479.6853-.9888,4.2756-2.9861,10.6677-5.9312,3.2222-1.4805,5.7424-2.5527,7.7676-3.4143,5.2056-2.2148,8.6448-3.678,12.9346-7.5945,4.0076-3.6597,6.6875-7.5295,8.23-10.1313,2.5383-4.2544,3.5684-7.6768,4.3203-10.1758.2358-.7837.4397-1.4607.6611-2.0774,2.1255-5.9844,7.5972-11.6912,13.3174-13.9109,2.5522-.9939,4.8645-1.1006,11.791-1.2886l.0662-.0017c.6108-.0168,1.1809-.0244,1.7192-.0244,2.9116,0,4.8169.2261,6.6597.4446,1.689.2002,3.4355.4075,5.541.4075,1.7705,0,3.5754-.1506,5.5176-.4602,8.0273-1.2637,21.8972-5.103,24.3801-16.5845,1.9346-8.9043-3.9839-15.6963-11.4768-24.2952l-.0696-.0798c-1.5708-1.7932-2.7739-3.02-3.6523-3.9158-.3337-.3403-.7332-.7478-.9497-.9863-.7383-2.0791.3591-5.1597,1.0518-6.5076.5874-1.1521.7517-1.2705,2.0293-2.1936,1.9175-1.385,4.8154-3.4783,7.2073-7.9519,3.5713-6.6765,2.6035-12.2542,1.8972-16.3267-.4429-2.5522-.8252-4.7566-.3391-7.9824.2671-1.7673.3762-1.9502,1.4216-3.6997,1.3904-2.3276,3.4922-5.845,5.9988-13.1809,2.4058-7.04,5.1328-15.0198,4.9519-25.4685-.071-3.9756-.5308-6.5176-.8665-8.3738-.2888-1.5967-.3408-1.8843-.208-2.8696.1094-.8118.1208-.897,1.9656-2.9697,2.0728-2.3296,4.9116-5.52,7.4888-11.0596,1.1497-2.4709,4.2041-9.0352,4.5977-17.9958.2212-4.8228-.2188-14.4055-5.6599-24.1799-2.1453-3.8425-4.1199-5.9749-5.4294-7.3.2085-.4685.512-1.0798.7568-1.5735,1.5024-3.0281,3.7725-7.6038,4.197-14.5762.5381-8.7976-2.209-15.8735-3.1118-18.199-1.7402-4.5015-3.4849-6.833-4.7585-8.5352-.7563-1.0107-1.011-1.3513-1.3909-2.3115-1.9646-4.9744-.2373-10.8687,1.0239-15.1726,1.0378-3.5295,2.1162-5.3875,3.2581-7.3545,1.7432-3.0034,3.9126-6.741,4.1367-13.1528.074-2.0642.0684-12.8728-7.365-22.072-5.3025-6.5767-12.322-9.771-21.209-13.8152l-.0732-.0332c-1.9436-.8843-3.2134-1.3904-4.0537-1.7253-.1316-.0525-.25-.0984-.3582-.1416-1.3376-1.2004-2.0049-3.9897-3.3533-10.7007l-.1794-.8931c-2.3916-11.8457-3.6736-16.7446-4.3623-19.3762q-.5229-1.9985-.6052-3.4756c-.334-6.0959.3894-9.0486,1.0891-11.9041.8857-3.6145,1.9878-8.1128-.0349-14.7322-5.0857-16.5718-22.354-24.4214-29.5422-27.0276-1.4851-.5322-2.5005-.8318-2.8828-.9446l-.0488-.0144-.0911-.0266c-4.303-1.2278-7.1814-1.3972-9.6511-1.3972-.3357,0-.6716.0032-1.0142.0066-.29.0027-.5862.0056-.8931.0056-1.5151,0-3.4539-.0735-7.3108-.9495-.3562-.0835-.7153-.1641-1.0759-.2446-.2502-.0562-.5012-.1123-.7522-.1702-6.8562-1.5811-13.7441-3.4561-16.0833-7.4209-.5654-.9595-.6106-1.481-.6941-3.3225-.1401-3.0862-.3743-8.2515-5.0771-13.1997-5.0342-5.2729-10.6919-5.6299-14.823-5.8901-2.7502-.1736-5.5942-.3528-9.7131-1.7971-2.6533-.9355-8.21-2.8953-12.6409-7.6665-1.2605-1.3562-1.5925-1.9873-2.1956-3.1333-1.2212-2.3208-2.5825-4.6436-5.7864-7.5371l-.0205-.0186-.0208-.0183c-1.7607-1.5728-11.2017-9.418-24.1787-9.418-.4167,0-.8374.0081-1.2607.0244-3.7327.1453-5.9678.9209-7.7639,1.5442-1.3745.4771-2.7961.9702-6.1826,1.5173-3.5659.5747-6.1121.9851-7.6125.9851-.4805,0-.7183-.043-.8875-.085-.9138-.2253-1.2014-.4138-2.7939-1.6228-2.1626-1.6423-5.4307-4.124-11.2029-6.019-2.0847-.6772-5.5225-1.7935-10.1074-1.9585-.3816-.0134-.7429-.0198-1.0962-.0198-6.1238,0-10.1443,1.9116-12.6016,3.1309-.2693-.3623-.5481-.7483-.791-1.0845-2.6023-3.6023-6.5344-9.0464-14.5281-13.0032-2.3025-1.1467-7.7446-3.8572-14.585-3.8572h0Z"/>
      </g>
      <g>
        <path class="cls-2" d="M299.9879,478.2437c-19.7227,0-39.9443-3.8269-60.1035-11.3745-40.8857-15.3035-75.791-44.6245-95.7656-80.4443-20.6572-37.0398-25.6543-82.1499-13.3662-120.6694.3135-1.012.6523-2.0381,1.0107-3.0642,19.0957-55.2688,66.2031-112.5923,119.2852-115.2017,2.084-.1033,4.1914-.1555,6.2646-.1555,1.9492,0,3.9219.0461,5.8633.1377,18.3359.8657,34.2266,7.4172,44.7441,18.448,9.5986,10.0674,14.792,24.3542,13.8926,38.2178-.6416,9.9346.1514,41.5283,3.3008,52.7732.0928.312.1885.6382.291.9402,3.1465,9.3826,12.6055,15.1943,21.752,20.8152,23.4199,14.4138,55.7617,37.5347,66.5684,71.9822,8.4443,26.9377,2.3242,58.5874-15.9717,82.5984-16.7686,21.9883-43.4414,37.6167-73.1787,42.8787-7.9453,1.4058-16.2178,2.1184-24.5869,2.1184Z"/>
        <path class="cls-3" d="M257.3134,150.1689c1.908,0,3.8171.0444,5.729.1345,15.7969.7458,31.9133,6.127,42.8262,17.5725,9.084,9.5278,13.9675,22.936,13.1152,36.0779-.6838,10.5845.1865,42.2488,3.4009,53.7214.1155.3906.2219.7546.3374,1.092,3.4719,10.3538,13.6746,16.6138,22.9802,22.3323,27.873,17.1553,55.5242,39.1765,65.3181,70.3972,8.4446,26.9407,1.5896,57.5752-15.5215,80.0315-17.1196,22.4475-43.6165,36.8857-71.4182,41.8052-7.9636,1.4089-16.0264,2.0752-24.0933,2.0752-20.0955,0-40.2395-4.1299-59.1084-11.1946-39.2388-14.687-73.8782-42.5776-94.2832-79.1702-19.8992-35.6782-25.5466-79.5435-13.1418-118.427.3108-1.0034.6394-1.998.9856-2.9924,17.6082-50.96,62.9207-110.6572,116.7485-113.3035,2.0391-.1011,4.0813-.1521,6.1252-.1521M257.317,144.4988v5.6702l-.0012-5.6702c-2.1221,0-4.2773.0535-6.4082.1592-26.0889,1.2825-52.3057,15.2251-75.8142,40.3208-19.6133,20.9373-36.3843,48.9275-46.0129,76.7939-.3701,1.0632-.7224,2.1326-1.0427,3.1665-6.2466,19.5796-8.2429,41.2922-5.7593,62.7454,2.4277,20.9697,9.1243,41.7593,19.3655,60.1213,10.3459,18.5535,24.2778,35.1741,41.4084,49.3999,16.6106,13.7939,35.3977,24.6675,55.8389,32.3186,20.4775,7.6667,41.0332,11.5544,61.0962,11.5544,8.5349,0,16.9734-.7275,25.0811-2.1621,30.4297-5.3843,57.7439-21.4036,74.939-43.95,18.8452-24.7322,25.1377-57.365,16.4236-85.166-4.8062-15.3206-13.7334-29.3196-27.2925-42.7983-10.5002-10.4377-23.3579-20.2031-40.4644-30.7317-8.751-5.3777-17.7625-10.9155-20.5762-19.3062-.095-.2773-.1704-.5398-.2529-.8193l-.0105-.0352c-2.8518-10.2412-3.8901-40.9944-3.1924-51.7905.9492-14.6389-4.5347-29.7258-14.6699-40.3562-11.0227-11.5608-27.5945-18.4233-46.6626-19.3237-1.9846-.0935-4.0007-.1409-5.9927-.1409h0Z"/>
      </g>
      <circle class="cls-5" cx="74.9457" cy="312.7888" r="14.8951"/>
      <circle class="cls-5" cx="311.2415" cy="66.4211" r="21.077"/>
      <circle class="cls-5" cx="444.047" cy="476.8393" r="21.077"/>
      <circle class="cls-5" cx="113.8803" cy="119.5632" r="7.4475"/>
      <circle class="cls-5" cx="160.1981" cy="76.8591" r="7.4475"/>
      <circle class="cls-5" cx="510.6023" cy="441.6632" r="7.4475"/>
      <circle class="cls-5" cx="450.4967" cy="235.5611" r="16.9638"/>
      <circle class="cls-5" cx="428.2415" cy="538.7545" r="10.5142"/>
      <circle class="cls-5" cx="377.4328" cy="538.7545" r="10.5142"/>
      <circle class="cls-5" cx="468.2993" cy="326.2805" r="12.8993"/>
      <circle class="cls-5" cx="182.2002" cy="517.8928" r="12.8993"/>
      <circle class="cls-5" cx="516.0541" cy="181.8024" r="12.8993"/>
      <circle class="cls-5" cx="195.0995" cy="125.5734" r="9.9383"/>
      <circle class="cls-5" cx="555.1372" cy="267.828" r="8.529"/>
      <circle class="cls-5" cx="138.6633" cy="455.1003" r="12.8993"/>
      <circle class="cls-5" cx="382.3967" cy="92.7666" r="12.8993"/>
      <circle class="cls-5" cx="450.4967" cy="112.1156" r="6.4497"/>
      <circle class="cls-5" cx="317.2168" cy="555.7183" r="6.4497"/>
      <circle class="cls-5" cx="382.3967" cy="179.0734" r="12.8993"/>
      <circle class="cls-5" cx="80.6255" cy="206.2406" r="26.9701"/>
      <circle class="cls-5" cx="540.9583" cy="335.6973" r="22.9085"/>
      <circle class="cls-5" cx="58.208" cy="389.315" r="22.9085"/>
      <circle class="cls-5" cx="244.9653" cy="541.5324" r="25.7987"/>
    </g>
  </g>
</svg>