<?xml version="1.0" encoding="UTF-8"?>
<svg id="Capa_2" data-name="Capa 2" xmlns="http://www.w3.org/2000/svg" viewBox="0 0 283.95 204.68">
  <defs>
    <style>
      .cls-1 {
        fill: #a2a0a0;
      }

      .cls-2 {
        fill: #837a7c;
      }

      .cls-3 {
        fill: #878585;
      }

      .cls-4 {
        fill: #c4c1c2;
      }
    </style>
  </defs>
  <g id="Capa_1-2" data-name="Capa 1">
    <g>
      <path class="cls-3" d="M197.95,204.68c-.06,0-.12,0-.18,0-2.31-.04-4.39-.83-5.85-2.24-1.96-1.88-2.66-4.21-3.33-6.47-.69-2.33-1.29-4.34-3.18-5.72-.67-.49-.82-1.43-.33-2.1.49-.67,1.43-.82,2.1-.33,2.71,1.98,3.55,4.8,4.29,7.29.58,1.97,1.14,3.83,2.53,5.16.91.87,2.3,1.38,3.83,1.41,2.93.04,5.41-1.41,8.02-2.94,1.93-1.14,3.93-2.31,6.23-2.95.61-.17,1.21-.29,1.79-.4.91-.18,1.77-.35,2.52-.68,3.35-1.48,5.34-6.48,5.34-10.45,0-.83.67-1.5,1.5-1.5h0c.83,0,1.5.67,1.5,1.5,0,4.98-2.44,11.12-7.12,13.19-1.05.47-2.12.68-3.16.88-.53.1-1.06.21-1.57.35-1.92.53-3.66,1.56-5.5,2.64-2.81,1.65-5.71,3.36-9.4,3.36Z"/>
      <path class="cls-3" d="M126.31,202.12c-5.37,0-10.67-3.88-13.86-8.3-.51-.7-.95-1.32-1.48-1.65-.71-.44-1.75-.46-2.85-.49-.28,0-.55-.01-.83-.03-2-.09-3.6-.54-4.89-1.37-1.75-1.12-2.73-2.92-2.91-5.34-.06-.83.56-1.55,1.38-1.61.83-.07,1.55.56,1.61,1.38.11,1.47.6,2.43,1.54,3.04.84.54,1.95.83,3.41.9.25.01.51.02.76.02,1.38.03,2.95.07,4.36.94,1.04.64,1.71,1.57,2.3,2.39,3.38,4.67,9.3,8.66,14.42,6.51,1.34-.56,2.65-1.63,3.88-3.16,1.86-2.31,2.49-4.62,1.86-6.85-.22-.8.24-1.62,1.04-1.85.8-.23,1.63.24,1.85,1.04.9,3.18.06,6.48-2.41,9.55-1.55,1.93-3.25,3.29-5.06,4.05-1.36.57-2.74.83-4.12.83Z"/>
      <path class="cls-3" d="M42.7,194.36c-1.79,0-3.52-.51-4.88-1l-.85-.31c-1.99-.73-3.87-1.42-5.66-1.13-.88.14-1.76.53-2.7.95-.86.38-1.74.77-2.72,1.02-4.86,1.23-10.03-1.73-11.53-6.59-.24-.79.2-1.63.99-1.88.79-.24,1.63.2,1.88.99,1.02,3.31,4.64,5.4,7.92,4.57.73-.19,1.47-.51,2.24-.85,1.07-.47,2.17-.96,3.43-1.17,2.56-.41,5.01.48,7.17,1.27l.82.3c2.75.98,4.66,1.08,6.01.32,1.19-.67,1.71-1.86,2.3-3.24.7-1.62,1.5-3.46,3.53-4.61.72-.41,1.64-.15,2.04.57s.15,1.64-.57,2.04c-1.15.65-1.66,1.83-2.25,3.19-.71,1.64-1.52,3.5-3.59,4.66-1.15.65-2.39.89-3.61.89Z"/>
      <g>
        <g>
          <path class="cls-4" d="M31.81,181.79c-.06,3.63-7.22,6.46-16.02,6.31-7.23-.13-13.28-2.21-15.18-4.97-.41-.6-.63-1.22-.62-1.87L2.55,28.7h0c.14,3.55,7.14,6.52,15.79,6.67,7.25.13,13.39-1.78,15.36-4.49.38-.52.6-1.08.64-1.66h0s-2.55,152.56-2.55,152.56Z"/>
          <path class="cls-1" d="M34.36,29.06c0,.06,0,.11-.01.17-.27,3.56-7.36,6.29-16,6.14s-15.64-3.11-15.79-6.67c0-.06,0-.11,0-.17.06-3.63,7.23-6.46,16.02-6.31,8.79.15,15.86,3.21,15.8,6.84Z"/>
        </g>
        <g>
          <path class="cls-2" d="M27.9,100.63c-.04,4.64-20.07,4.52-20.11,9.09l.05-5.83c.04-4.57,20.07-4.45,20.11-9.09l-.05,5.83Z"/>
          <path class="cls-2" d="M27.73,119.13c-.04,4.64-20.07,4.52-20.11,9.09l.05-5.83c.04-4.57,20.07-4.45,20.11-9.09l-.05,5.83Z"/>
          <path class="cls-2" d="M28.23,63.64c-.04,4.64-20.07,4.52-20.11,9.09l.05-5.83c.04-4.57,20.07-4.45,20.11-9.09l-.05,5.83Z"/>
          <path class="cls-2" d="M28.07,82.13c-.04,4.64-20.07,4.52-20.11,9.09l.05-5.83c.04-4.57,20.07-4.45,20.11-9.09l-.05,5.83Z"/>
          <path class="cls-3" d="M27.78,113.62c.04-4.64-19.99-4.88-19.95-9.46l-.05,5.83c-.04,4.57,19.99,4.82,19.95,9.46l.05-5.83Z"/>
          <path class="cls-3" d="M28.12,76.62c.04-4.64-19.99-4.88-19.95-9.46l-.05,5.83c-.04,4.57,19.99,4.82,19.95,9.46l.05-5.83Z"/>
          <path class="cls-2" d="M28.4,45.14c-.04,4.64-20.07,4.52-20.11,9.09l.05-5.83c.04-4.57,17.85-5.11,17.89-9.74l2.17,6.48Z"/>
          <path class="cls-3" d="M28.28,58.12c.04-4.64-19.99-4.88-19.95-9.46l-.05,5.83c-.04,4.57,19.99,4.82,19.95,9.46l.05-5.83Z"/>
          <path class="cls-3" d="M27.95,95.12c.04-4.64-19.99-4.88-19.95-9.46l-.05,5.83c-.04,4.57,19.99,4.82,19.95,9.46l.05-5.83Z"/>
          <path class="cls-2" d="M27.07,156.13c-.04,4.64-20.07,4.52-20.11,9.09l.05-5.83c.04-4.57,20.07-4.45,20.11-9.09l-.05,5.83Z"/>
          <path class="cls-2" d="M26.9,174.63c-.04,4.64-20.07,4.52-20.11,9.09l.05-5.83c.04-4.57,20.07-4.45,20.11-9.09l-.05,5.83Z"/>
          <path class="cls-2" d="M27.24,137.63c-.04,4.64-20.07,4.52-20.11,9.09l.05-5.83c.04-4.57,20.07-4.45,20.11-9.09l-.05,5.83Z"/>
          <path class="cls-3" d="M26.95,169.11c.04-4.64-19.99-4.88-19.95-9.46l-.05,5.83c-.04,4.57,19.99,4.82,19.95,9.46l.05-5.83Z"/>
          <path class="cls-3" d="M27.29,132.11c.04-4.64-19.99-4.88-19.95-9.46l-.05,5.83c-.04,4.57,19.99,4.82,19.95,9.46l.05-5.83Z"/>
          <path class="cls-3" d="M27.12,150.61c.04-4.64-19.99-4.88-19.95-9.46l-.05,5.83c-.04,4.57,19.99,4.82,19.95,9.46l.05-5.83Z"/>
        </g>
        <path class="cls-1" d="M31.81,181.79c-.06,3.63-7.22,6.46-16.02,6.31-7.23-.13-13.28-2.21-15.18-4.97,2.92.59,10.22,2.86,13.12,2.23,6.54-1.4,9.39-2.12,12.27-8.15,6.44-13.49,3.47-36.12,3.38-51.06-.12-19.6,1.96-39.5,3.08-59.05.19-3.36.4-23.57,1.24-36.21.38-.52.6-1.08.64-1.66h0s-2.55,152.56-2.55,152.56Z"/>
      </g>
      <g>
        <g>
          <path class="cls-4" d="M67.4,181.51c-.3,3.62-7.65,5.95-16.41,5.2-7.2-.62-13.1-3.11-14.8-6-.37-.62-.54-1.26-.49-1.91L48.64,26.79h0c-.1,3.56,6.67,6.99,15.29,7.74,7.22.62,13.48-.86,15.64-3.43.41-.5.68-1.04.76-1.61h0s-12.95,152.03-12.95,152.03Z"/>
          <path class="cls-1" d="M80.36,29.31c0,.06,0,.11-.02.17-.51,3.53-7.77,5.77-16.39,5.04s-15.39-4.17-15.3-7.74c0-.06,0-.11,0-.17.31-3.62,7.65-5.95,16.41-5.21,8.76.75,15.6,4.29,15.29,7.91Z"/>
        </g>
        <g>
          <path class="cls-2" d="M69.03,100.28c-.36,4.62-20.33,3.14-20.69,7.7l.45-5.81c.35-4.56,20.33-3.08,20.69-7.7l-.45,5.81Z"/>
          <path class="cls-2" d="M67.6,118.73c-.36,4.62-20.33,3.14-20.69,7.7l.45-5.81c.35-4.56,20.33-3.08,20.69-7.7l-.45,5.81Z"/>
          <path class="cls-2" d="M71.89,63.39c-.36,4.62-20.33,3.14-20.69,7.7l.45-5.81c.35-4.56,20.33-3.08,20.69-7.7l-.45,5.81Z"/>
          <path class="cls-2" d="M70.46,81.84c-.36,4.62-20.33,3.14-20.69,7.7l.45-5.81c.35-4.56,20.33-3.08,20.69-7.7l-.45,5.81Z"/>
          <path class="cls-3" d="M68.03,113.23c.36-4.62-19.61-6.24-19.26-10.79l-.45,5.81c-.35,4.56,19.61,6.17,19.26,10.79l.45-5.81Z"/>
          <path class="cls-3" d="M70.88,76.34c.36-4.62-19.61-6.24-19.26-10.79l-.45,5.81c-.35,4.56,19.61,6.17,19.26,10.79l.45-5.81Z"/>
          <path class="cls-2" d="M73.32,44.95c-.36,4.62-20.33,3.14-20.69,7.7l.45-5.81c.35-4.56,18.16-3.88,18.51-8.5l1.72,6.61Z"/>
          <path class="cls-3" d="M72.31,57.89c.36-4.62-19.61-6.24-19.26-10.79l-.45,5.81c-.35,4.56,19.61,6.17,19.26,10.79l.45-5.81Z"/>
          <path class="cls-3" d="M69.45,94.78c.36-4.62-19.61-6.24-19.26-10.79l-.45,5.81c-.35,4.56,19.61,6.17,19.26,10.79l.45-5.81Z"/>
          <path class="cls-2" d="M64.42,155.59c-.36,4.62-20.33,3.14-20.69,7.7l.45-5.81c.35-4.56,20.33-3.08,20.69-7.7l-.45,5.81Z"/>
          <path class="cls-2" d="M62.99,174.04c-.36,4.62-20.33,3.14-20.69,7.7l.45-5.81c.35-4.56,20.33-3.08,20.69-7.7l-.45,5.81Z"/>
          <path class="cls-2" d="M65.85,137.15c-.36,4.62-20.33,3.14-20.69,7.7l.45-5.81c.35-4.56,20.33-3.08,20.69-7.7l-.45,5.81Z"/>
          <path class="cls-3" d="M63.41,168.53c.36-4.62-19.61-6.24-19.26-10.79l-.45,5.81c-.35,4.56,19.61,6.17,19.26,10.79l.45-5.81Z"/>
          <path class="cls-3" d="M66.27,131.65c.36-4.62-19.61-6.24-19.26-10.79l-.45,5.81c-.35,4.56,19.61,6.17,19.26,10.79l.45-5.81Z"/>
          <path class="cls-3" d="M64.84,150.09c.36-4.62-19.61-6.24-19.26-10.79l-.45,5.81c-.35,4.56,19.61,6.17,19.26,10.79l.45-5.81Z"/>
        </g>
        <path class="cls-1" d="M67.4,181.51c-.3,3.62-7.65,5.95-16.41,5.2-7.2-.62-13.1-3.11-14.8-6,2.88.79,10,3.55,12.94,3.12,6.62-.95,9.51-1.47,12.8-7.29,7.34-13.02,5.93-35.8,6.86-50.71,1.22-19.56,4.65-39.27,7.1-58.7.42-3.34,2-23.48,3.71-36.05.41-.5.68-1.04.76-1.61h0s-12.95,152.03-12.95,152.03Z"/>
      </g>
      <g>
        <g>
          <path class="cls-4" d="M114.25,180.03c0,3.63-7.13,6.56-15.92,6.54-7.23-.02-13.31-2.02-15.25-4.75-.42-.59-.64-1.21-.65-1.86l.34-152.57h0c.2,3.55,7.23,6.42,15.88,6.45,7.25.02,13.37-1.97,15.3-4.71.37-.53.59-1.09.62-1.67h0s-.34,152.58-.34,152.58Z"/>
          <path class="cls-1" d="M114.59,27.28c0,.06,0,.11-.01.17-.22,3.56-7.26,6.39-15.91,6.37s-15.68-2.88-15.89-6.45c0-.06,0-.11,0-.17,0-3.63,7.13-6.56,15.92-6.54s15.9,2.99,15.9,6.62Z"/>
        </g>
        <g>
          <path class="cls-2" d="M109.16,98.94c.02,4.64-20.01,4.81-19.98,9.38l-.03-5.83c-.02-4.57,20.01-4.74,19.98-9.38l.03,5.83Z"/>
          <path class="cls-2" d="M109.26,117.44c.02,4.64-20.01,4.81-19.98,9.38l-.03-5.83c-.02-4.57,20.01-4.74,19.98-9.38l.03,5.83Z"/>
          <path class="cls-2" d="M108.97,61.94c.02,4.64-20.01,4.81-19.98,9.38l-.03-5.83c-.02-4.57,20.01-4.74,19.98-9.38l.03,5.83Z"/>
          <path class="cls-2" d="M109.07,80.44c.02,4.64-20.01,4.81-19.98,9.38l-.03-5.83c-.02-4.57,20.01-4.74,19.98-9.38l.03,5.83Z"/>
          <path class="cls-3" d="M109.23,111.92c-.02-4.64-20.06-4.59-20.08-9.17l.03,5.83c.02,4.57,20.06,4.53,20.08,9.17l-.03-5.83Z"/>
          <path class="cls-3" d="M109.04,74.92c-.02-4.64-20.06-4.59-20.08-9.17l.03,5.83c.02,4.57,20.06,4.53,20.08,9.17l-.03-5.83Z"/>
          <path class="cls-2" d="M108.87,43.44c.02,4.64-20.01,4.81-19.98,9.38l-.03-5.83c-.02-4.57,17.77-5.37,17.75-10l2.26,6.45Z"/>
          <path class="cls-3" d="M108.94,56.42c-.02-4.64-20.06-4.59-20.08-9.17l.03,5.83c.02,4.57,20.06,4.53,20.08,9.17l-.03-5.83Z"/>
          <path class="cls-3" d="M109.14,93.42c-.02-4.64-20.06-4.59-20.08-9.17l.03,5.83c.02,4.57,20.06,4.53,20.08,9.17l-.03-5.83Z"/>
          <path class="cls-2" d="M109.14,154.44c.02,4.64-20.01,4.81-19.98,9.38l-.03-5.83c-.02-4.57,20.01-4.74,19.98-9.38l.03,5.83Z"/>
          <path class="cls-2" d="M109.24,172.94c.02,4.64-20.01,4.81-19.98,9.38l-.03-5.83c-.02-4.57,20.01-4.74,19.98-9.38l.03,5.83Z"/>
          <path class="cls-2" d="M109.04,135.94c.02,4.64-20.01,4.81-19.98,9.38l-.03-5.83c-.02-4.57,20.01-4.74,19.98-9.38l.03,5.83Z"/>
          <path class="cls-3" d="M109.21,167.42c-.02-4.64-20.06-4.59-20.08-9.17l.03,5.83c.02,4.57,20.06,4.53,20.08,9.17l-.03-5.83Z"/>
          <path class="cls-3" d="M109.01,130.42c-.02-4.64-20.06-4.59-20.08-9.17l.03,5.83c.02,4.57,20.06,4.53,20.08,9.17l-.03-5.83Z"/>
          <path class="cls-3" d="M109.11,148.92c-.02-4.64-20.06-4.59-20.08-9.17l.03,5.83c.02,4.57,20.06,4.53,20.08,9.17l-.03-5.83Z"/>
        </g>
        <path class="cls-1" d="M114.25,180.03c0,3.63-7.13,6.56-15.92,6.54-7.23-.02-13.31-2.02-15.25-4.75,2.93.55,10.26,2.71,13.15,2.04,6.52-1.5,9.36-2.25,12.15-8.33,6.24-13.58,2.95-36.16,2.65-51.1-.4-19.59,1.39-39.52,2.23-59.09.14-3.36.06-23.57.72-36.23.37-.53.59-1.09.62-1.67h0s-.34,152.58-.34,152.58Z"/>
      </g>
      <g>
        <g>
          <path class="cls-4" d="M151.82,183.29c-.2,3.63-7.47,6.18-16.25,5.69-7.22-.4-13.19-2.72-14.97-5.55-.39-.61-.58-1.24-.55-1.9l8.44-152.34h0c0,3.56,6.88,6.79,15.52,7.28,7.24.41,13.45-1.26,15.53-3.89.4-.51.65-1.06.71-1.64h0s-8.44,152.35-8.44,152.35Z"/>
          <path class="cls-1" d="M160.26,30.77c0,.06,0,.11-.02.17-.41,3.54-7.59,6-16.23,5.52s-15.51-3.71-15.52-7.28c0-.06,0-.11,0-.17.2-3.62,7.47-6.18,16.25-5.69,8.78.49,15.72,3.82,15.52,7.45Z"/>
        </g>
        <g>
          <path class="cls-2" d="M151.04,102.05c-.22,4.63-20.23,3.74-20.45,8.31l.28-5.82c.22-4.57,20.23-3.68,20.45-8.31l-.28,5.82Z"/>
          <path class="cls-2" d="M150.16,120.53c-.22,4.63-20.23,3.74-20.45,8.31l.28-5.82c.22-4.57,20.23-3.68,20.45-8.31l-.28,5.82Z"/>
          <path class="cls-2" d="M152.81,65.09c-.22,4.63-20.23,3.74-20.45,8.31l.28-5.82c.22-4.57,20.23-3.68,20.45-8.31l-.28,5.82Z"/>
          <path class="cls-2" d="M151.92,83.57c-.22,4.63-20.23,3.74-20.45,8.31l.28-5.82c.22-4.57,20.23-3.68,20.45-8.31l-.28,5.82Z"/>
          <path class="cls-3" d="M150.42,115.01c.22-4.63-19.78-5.65-19.57-10.22l-.28,5.82c-.22,4.57,19.79,5.59,19.57,10.22l.28-5.82Z"/>
          <path class="cls-3" d="M152.19,78.06c.22-4.63-19.78-5.65-19.57-10.22l-.28,5.82c-.22,4.57,19.79,5.59,19.57,10.22l.28-5.82Z"/>
          <path class="cls-2" d="M153.69,46.61c-.22,4.63-20.23,3.74-20.45,8.31l.28-5.82c.22-4.57,18.03-4.42,18.25-9.05l1.92,6.56Z"/>
          <path class="cls-3" d="M153.07,59.58c.22-4.63-19.78-5.65-19.57-10.22l-.28,5.82c-.22,4.57,19.79,5.59,19.57,10.22l.28-5.82Z"/>
          <path class="cls-3" d="M151.3,96.54c.22-4.63-19.78-5.65-19.57-10.22l-.28,5.82c-.22,4.57,19.79,5.59,19.57,10.22l.28-5.82Z"/>
          <path class="cls-2" d="M148.07,157.47c-.22,4.63-20.23,3.74-20.45,8.31l.28-5.82c.22-4.57,20.23-3.68,20.45-8.31l-.28,5.82Z"/>
          <path class="cls-2" d="M147.19,175.95c-.22,4.63-20.23,3.74-20.45,8.31l.28-5.82c.22-4.57,20.23-3.68,20.45-8.31l-.28,5.82Z"/>
          <path class="cls-2" d="M148.95,138.99c-.22,4.63-20.23,3.74-20.45,8.31l.28-5.82c.22-4.57,20.23-3.68,20.45-8.31l-.28,5.82Z"/>
          <path class="cls-3" d="M147.45,170.44c.22-4.63-19.78-5.65-19.57-10.22l-.28,5.82c-.22,4.57,19.79,5.59,19.57,10.22l.28-5.82Z"/>
          <path class="cls-3" d="M149.21,133.48c.22-4.63-19.78-5.65-19.57-10.22l-.28,5.82c-.22,4.57,19.79,5.59,19.57,10.22l.28-5.82Z"/>
          <path class="cls-3" d="M148.33,151.96c.22-4.63-19.78-5.65-19.57-10.22l-.28,5.82c-.22,4.57,19.79,5.59,19.57,10.22l.28-5.82Z"/>
        </g>
        <path class="cls-1" d="M151.82,183.29c-.2,3.63-7.47,6.18-16.25,5.69-7.22-.4-13.19-2.72-14.97-5.55,2.9.71,10.1,3.25,13.02,2.74,6.59-1.15,9.46-1.75,12.57-7.67,6.95-13.23,4.87-35.96,5.35-50.89.64-19.59,3.48-39.39,5.36-58.88.32-3.35,1.31-23.53,2.64-36.14.4-.51.65-1.06.71-1.64h0s-8.44,152.35-8.44,152.35Z"/>
      </g>
      <g>
        <g>
          <path class="cls-4" d="M200.48,183.16c.1,3.63-6.94,6.76-15.73,6.99-7.22.18-13.37-1.64-15.38-4.32-.44-.58-.68-1.19-.7-1.85l-4.01-152.52h0c.3,3.54,7.41,6.21,16.06,5.99,7.24-.18,13.31-2.35,15.16-5.15.35-.54.56-1.11.57-1.69h0s4.01,152.53,4.01,152.53Z"/>
          <path class="cls-1" d="M196.46,30.47c0,.06,0,.11,0,.17-.12,3.56-7.08,6.6-15.73,6.83s-15.76-2.44-16.06-5.99c-.01-.06-.01-.11-.01-.17-.1-3.63,6.94-6.77,15.73-7,8.79-.23,15.98,2.53,16.08,6.16Z"/>
        </g>
        <g>
          <path class="cls-2" d="M193.08,102.25c.16,4.63-19.86,5.38-19.71,9.95l-.2-5.82c-.16-4.57,19.86-5.31,19.71-9.95l.2,5.82Z"/>
          <path class="cls-2" d="M193.71,120.74c.16,4.63-19.86,5.38-19.71,9.95l-.2-5.82c-.16-4.57,19.86-5.31,19.71-9.95l.2,5.82Z"/>
          <path class="cls-2" d="M191.83,65.28c.16,4.63-19.86,5.38-19.71,9.95l-.2-5.82c-.16-4.57,19.86-5.31,19.71-9.95l.2,5.82Z"/>
          <path class="cls-2" d="M192.45,83.76c.16,4.63-19.86,5.38-19.71,9.95l-.2-5.82c-.16-4.57,19.86-5.31,19.71-9.95l.2,5.82Z"/>
          <path class="cls-3" d="M193.52,115.23c-.16-4.63-20.18-4.02-20.33-8.59l.2,5.82c.16,4.57,20.18,3.95,20.33,8.59l-.2-5.82Z"/>
          <path class="cls-3" d="M192.27,78.25c-.16-4.63-20.18-4.02-20.33-8.59l.2,5.82c.16,4.57,20.18,3.95,20.33,8.59l-.2-5.82Z"/>
          <path class="cls-2" d="M191.2,46.79c.16,4.63-19.86,5.38-19.71,9.95l-.2-5.82c-.16-4.57,17.61-5.87,17.46-10.5l2.45,6.38Z"/>
          <path class="cls-3" d="M191.64,59.76c-.16-4.63-20.18-4.02-20.33-8.59l.2,5.82c.16,4.57,20.18,3.95,20.33,8.59l-.2-5.82Z"/>
          <path class="cls-3" d="M192.89,96.74c-.16-4.63-20.18-4.02-20.33-8.59l.2,5.82c.16,4.57,20.18,3.95,20.33,8.59l-.2-5.82Z"/>
          <path class="cls-2" d="M194.64,157.73c.16,4.63-19.86,5.38-19.71,9.95l-.2-5.82c-.16-4.57,19.86-5.31,19.71-9.95l.2,5.82Z"/>
          <path class="cls-2" d="M195.26,176.22c.16,4.63-19.86,5.38-19.71,9.95l-.2-5.82c-.16-4.57,19.86-5.31,19.71-9.95l.2,5.82Z"/>
          <path class="cls-2" d="M194.01,139.24c.16,4.63-19.86,5.38-19.71,9.95l-.2-5.82c-.16-4.57,19.86-5.31,19.71-9.95l.2,5.82Z"/>
          <path class="cls-3" d="M195.08,170.71c-.16-4.63-20.18-4.02-20.33-8.59l.2,5.82c.16,4.57,20.18,3.95,20.33,8.59l-.2-5.82Z"/>
          <path class="cls-3" d="M193.82,133.73c-.16-4.63-20.18-4.02-20.33-8.59l.2,5.82c.16,4.57,20.18,3.95,20.33,8.59l-.2-5.82Z"/>
          <path class="cls-3" d="M194.45,152.22c-.16-4.63-20.18-4.02-20.33-8.59l.2,5.82c.16,4.57,20.18,3.95,20.33,8.59l-.2-5.82Z"/>
        </g>
        <path class="cls-1" d="M200.48,183.16c.1,3.63-6.94,6.76-15.73,6.99-7.22.18-13.37-1.64-15.38-4.32,2.95.47,10.33,2.41,13.2,1.67,6.47-1.68,9.29-2.52,11.91-8.67,5.85-13.75,1.92-36.23,1.19-51.16-.96-19.57.26-39.55.54-59.13.04-3.36-.61-23.56-.32-36.23.35-.54.56-1.11.57-1.69h0s4.01,152.53,4.01,152.53Z"/>
      </g>
      <g>
        <g>
          <path class="cls-4" d="M235.94,185.02c-.21,3.63-7.5,6.14-16.28,5.61-7.21-.44-13.17-2.79-14.95-5.63-.38-.61-.57-1.25-.54-1.9l9.21-152.29h0c-.01,3.56,6.84,6.83,15.48,7.36,7.23.44,13.46-1.19,15.55-3.81.4-.51.65-1.06.72-1.63h0s-9.21,152.31-9.21,152.31Z"/>
          <path class="cls-1" d="M245.16,32.55c0,.06,0,.11-.02.17-.42,3.54-7.62,5.96-16.26,5.44s-15.49-3.79-15.48-7.36c0-.06,0-.11,0-.17.22-3.62,7.5-6.14,16.28-5.61,8.77.53,15.7,3.9,15.48,7.53Z"/>
        </g>
        <g>
          <path class="cls-2" d="M235.57,103.78c-.24,4.63-20.25,3.64-20.49,8.2l.31-5.82c.24-4.57,20.25-3.57,20.49-8.2l-.31,5.82Z"/>
          <path class="cls-2" d="M234.6,122.25c-.24,4.63-20.25,3.64-20.49,8.2l.31-5.82c.24-4.57,20.25-3.57,20.49-8.2l-.31,5.82Z"/>
          <path class="cls-2" d="M237.53,66.83c-.24,4.63-20.25,3.64-20.49,8.2l.31-5.82c.24-4.57,20.25-3.57,20.49-8.2l-.31,5.82Z"/>
          <path class="cls-2" d="M236.55,85.3c-.24,4.63-20.25,3.64-20.49,8.2l.31-5.82c.24-4.57,20.25-3.57,20.49-8.2l-.31,5.82Z"/>
          <path class="cls-3" d="M234.89,116.74c.24-4.63-19.76-5.75-19.51-10.32l-.31,5.82c-.24,4.57,19.76,5.69,19.51,10.32l.31-5.82Z"/>
          <path class="cls-3" d="M236.84,79.79c.24-4.63-19.76-5.75-19.51-10.32l-.31,5.82c-.24,4.57,19.76,5.69,19.51,10.32l.31-5.82Z"/>
          <path class="cls-2" d="M238.5,48.35c-.24,4.63-20.25,3.64-20.49,8.2l.31-5.82c.24-4.57,18.05-4.32,18.3-8.95l1.89,6.57Z"/>
          <path class="cls-3" d="M237.82,61.32c.24-4.63-19.76-5.75-19.51-10.32l-.31,5.82c-.24,4.57,19.76,5.69,19.51,10.32l.31-5.82Z"/>
          <path class="cls-3" d="M235.87,98.27c.24-4.63-19.76-5.75-19.51-10.32l-.31,5.82c-.24,4.57,19.76,5.69,19.51,10.32l.31-5.82Z"/>
          <path class="cls-2" d="M232.32,159.18c-.24,4.63-20.25,3.64-20.49,8.2l.31-5.82c.24-4.57,20.25-3.57,20.49-8.2l-.31,5.82Z"/>
          <path class="cls-2" d="M231.35,177.66c-.24,4.63-20.25,3.64-20.49,8.2l.31-5.82c.24-4.57,20.25-3.57,20.49-8.2l-.31,5.82Z"/>
          <path class="cls-2" d="M233.3,140.71c-.24,4.63-20.25,3.64-20.49,8.2l.31-5.82c.24-4.57,20.25-3.57,20.49-8.2l-.31,5.82Z"/>
          <path class="cls-3" d="M231.64,172.15c.24-4.63-19.76-5.75-19.51-10.32l-.31,5.82c-.24,4.57,19.76,5.69,19.51,10.32l.31-5.82Z"/>
          <path class="cls-3" d="M233.59,135.2c.24-4.63-19.76-5.75-19.51-10.32l-.31,5.82c-.24,4.57,19.76,5.69,19.51,10.32l.31-5.82Z"/>
          <path class="cls-3" d="M232.61,153.67c.24-4.63-19.76-5.75-19.51-10.32l-.31,5.82c-.24,4.57,19.76,5.69,19.51,10.32l.31-5.82Z"/>
        </g>
        <path class="cls-1" d="M235.94,185.02c-.21,3.63-7.5,6.14-16.28,5.61-7.21-.44-13.17-2.79-14.95-5.63,2.9.72,10.08,3.3,13.01,2.8,6.59-1.12,9.47-1.7,12.61-7.61,7.02-13.19,5.05-35.93,5.61-50.86.74-19.58,3.68-39.38,5.66-58.86.33-3.35,1.43-23.53,2.82-36.13.4-.51.65-1.06.72-1.63h0s-9.21,152.31-9.21,152.31Z"/>
      </g>
      <g>
        <g>
          <path class="cls-4" d="M281.41,183.94c-.06,3.63-7.22,6.46-16.02,6.31-7.23-.13-13.28-2.21-15.18-4.97-.41-.6-.63-1.22-.62-1.87l2.55-152.55h0c.14,3.55,7.14,6.52,15.79,6.67,7.25.13,13.39-1.78,15.36-4.49.38-.52.6-1.08.64-1.66h0s-2.55,152.56-2.55,152.56Z"/>
          <path class="cls-1" d="M283.95,31.21c0,.06,0,.11-.01.17-.27,3.56-7.36,6.29-16,6.14s-15.64-3.11-15.79-6.67c0-.06,0-.11,0-.17.06-3.63,7.23-6.46,16.02-6.31,8.79.15,15.86,3.21,15.8,6.84Z"/>
        </g>
        <g>
          <path class="cls-2" d="M277.49,102.79c-.04,4.64-20.07,4.52-20.11,9.09l.05-5.83c.04-4.57,20.07-4.45,20.11-9.09l-.05,5.83Z"/>
          <path class="cls-2" d="M277.32,121.29c-.04,4.64-20.07,4.52-20.11,9.09l.05-5.83c.04-4.57,20.07-4.45,20.11-9.09l-.05,5.83Z"/>
          <path class="cls-2" d="M277.83,65.79c-.04,4.64-20.07,4.52-20.11,9.09l.05-5.83c.04-4.57,20.07-4.45,20.11-9.09l-.05,5.83Z"/>
          <path class="cls-2" d="M277.66,84.29c-.04,4.64-20.07,4.52-20.11,9.09l.05-5.83c.04-4.57,20.07-4.45,20.11-9.09l-.05,5.83Z"/>
          <path class="cls-3" d="M277.37,115.77c.04-4.64-19.99-4.88-19.95-9.46l-.05,5.83c-.04,4.57,19.99,4.82,19.95,9.46l.05-5.83Z"/>
          <path class="cls-3" d="M277.71,78.77c.04-4.64-19.99-4.88-19.95-9.46l-.05,5.83c-.04,4.57,19.99,4.82,19.95,9.46l.05-5.83Z"/>
          <path class="cls-2" d="M277.99,47.29c-.04,4.64-20.07,4.52-20.11,9.09l.05-5.83c.04-4.57,17.85-5.11,17.89-9.74l2.17,6.48Z"/>
          <path class="cls-3" d="M277.88,60.27c.04-4.64-19.99-4.88-19.95-9.46l-.05,5.83c-.04,4.57,19.99,4.82,19.95,9.46l.05-5.83Z"/>
          <path class="cls-3" d="M277.54,97.27c.04-4.64-19.99-4.88-19.95-9.46l-.05,5.83c-.04,4.57,19.99,4.82,19.95,9.46l.05-5.83Z"/>
          <path class="cls-2" d="M276.66,158.28c-.04,4.64-20.07,4.52-20.11,9.09l.05-5.83c.04-4.57,20.07-4.45,20.11-9.09l-.05,5.83Z"/>
          <path class="cls-2" d="M276.49,176.78c-.04,4.64-20.07,4.52-20.11,9.09l.05-5.83c.04-4.57,20.07-4.45,20.11-9.09l-.05,5.83Z"/>
          <path class="cls-2" d="M276.83,139.78c-.04,4.64-20.07,4.52-20.11,9.09l.05-5.83c.04-4.57,20.07-4.45,20.11-9.09l-.05,5.83Z"/>
          <path class="cls-3" d="M276.54,171.26c.04-4.64-19.99-4.88-19.95-9.46l-.05,5.83c-.04,4.57,19.99,4.82,19.95,9.46l.05-5.83Z"/>
          <path class="cls-3" d="M276.88,134.27c.04-4.64-19.99-4.88-19.95-9.46l-.05,5.83c-.04,4.57,19.99,4.82,19.95,9.46l.05-5.83Z"/>
          <path class="cls-3" d="M276.71,152.76c.04-4.64-19.99-4.88-19.95-9.46l-.05,5.83c-.04,4.57,19.99,4.82,19.95,9.46l.05-5.83Z"/>
        </g>
        <path class="cls-1" d="M281.41,183.94c-.06,3.63-7.22,6.46-16.02,6.31-7.23-.13-13.28-2.21-15.18-4.97,2.92.59,10.22,2.86,13.12,2.23,6.54-1.4,9.39-2.12,12.27-8.15,6.44-13.49,3.47-36.12,3.38-51.06-.12-19.6,1.96-39.5,3.08-59.05.19-3.36.4-23.57,1.24-36.21.38-.52.6-1.08.64-1.66h0s-2.55,152.56-2.55,152.56Z"/>
      </g>
      <path class="cls-3" d="M64.47,29.44c-.34,0-.68-.11-.96-.34-.64-.53-.73-1.47-.2-2.11,1.69-2.03,2.56-4.71,2.39-7.35-.07-1.17-.34-2.35-.63-3.59-.3-1.3-.6-2.64-.69-4.05-.28-4.4,1.85-8.72,5.32-10.75,3.94-2.31,9.35-1.28,11.8,2.26,1.3,1.88,1.68,4.16,1.94,6.15l.05.41c.22,1.72.42,3.34,1.12,4.7,1.05,2.03,2.47,2,5.35,1.73,1.07-.1,2.17-.2,3.3-.12,2.31.18,4.32,1.03,5.68,2.4,2.18,2.2,2.74,5.84,1.4,9.05-.32.77-1.2,1.12-1.96.81-.76-.32-1.13-1.2-.81-1.96.86-2.07.55-4.45-.77-5.79-.85-.86-2.19-1.4-3.77-1.52-.88-.07-1.81.02-2.8.11-2.79.26-6.26.58-8.29-3.34-.94-1.83-1.19-3.8-1.43-5.7l-.05-.4c-.22-1.71-.51-3.5-1.43-4.82-1.57-2.26-5.22-2.91-7.82-1.38-2.51,1.47-4.05,4.67-3.84,7.97.07,1.17.34,2.34.63,3.58.3,1.31.61,2.66.7,4.08.21,3.39-.91,6.83-3.08,9.45-.3.36-.72.54-1.16.54Z"/>
      <path class="cls-3" d="M179.83,32.13c-.78,0-1.44-.61-1.5-1.4-.17-2.58-1.26-3.97-2.64-5.72-.82-1.04-1.75-2.23-2.52-3.76-1.06-2.13-1.06-4.33-1.06-6.28,0-2.61,0-4.67-2.25-6.31-2-1.46-4.93-1.55-6.96-.23-.85.55-1.59,1.34-2.37,2.18-.83.89-1.69,1.81-2.78,2.55-.95.65-1.96,1.08-2.94,1.5-.91.39-1.77.76-2.5,1.26-2.37,1.66-2.94,4.24-3.6,7.22-.6,2.68-1.21,5.46-3.25,7.73-.55.62-1.5.67-2.12.11s-.67-1.5-.11-2.12c1.51-1.68,2.02-3.96,2.55-6.37.7-3.14,1.49-6.71,4.81-9.03.98-.69,2.03-1.13,3.04-1.57.88-.38,1.72-.73,2.43-1.22.81-.55,1.52-1.31,2.27-2.12.87-.93,1.77-1.89,2.93-2.65,3.09-2.01,7.35-1.88,10.37.32,3.49,2.54,3.49,5.83,3.48,8.73,0,1.77,0,3.44.74,4.93.63,1.26,1.43,2.27,2.19,3.25,1.49,1.9,3.04,3.87,3.27,7.38.05.83-.57,1.54-1.4,1.59-.03,0-.07,0-.1,0Z"/>
      <path class="cls-3" d="M229.28,33.09c-.19,0-.38-.04-.56-.11-.77-.31-1.14-1.19-.83-1.95,1.62-3.98,4.03-7.91,6.63-10.77,2.75-3.03,6.11-4.87,9.46-5.19.95-.09,1.89-.06,2.79-.04,1.54.04,3,.09,4.17-.48.64-.31,1.24-.82,1.87-1.37.55-.48,1.13-.97,1.8-1.4,4.56-2.88,10.53-.56,13.45,3.24,3.51,4.58,4.51,11.52,2.36,16.51-.33.76-1.21,1.11-1.97.79-.76-.33-1.11-1.21-.79-1.97,1.71-3.98.86-9.79-1.99-13.5-2.12-2.77-6.43-4.44-9.47-2.53-.48.31-.95.71-1.44,1.13-.75.65-1.53,1.32-2.52,1.8-1.83.88-3.73.83-5.56.77-.85-.02-1.66-.05-2.42.02-2.61.25-5.28,1.75-7.53,4.22-2.37,2.61-4.58,6.21-6.07,9.88-.24.58-.8.94-1.39.94Z"/>
    </g>
  </g>
</svg>