<?xml version="1.0" encoding="UTF-8"?>
<svg id="Capa_2" data-name="Capa 2" xmlns="http://www.w3.org/2000/svg" viewBox="0 0 161.83 214.49">
  <defs>
    <style>
      .cls-1 {
        fill: #70579c;
      }

      .cls-2 {
        fill: #a185bd;
      }

      .cls-3 {
        fill: #60498d;
      }

      .cls-4 {
        fill: #604694;
      }

      .cls-5 {
        fill: #47327e;
      }

      .cls-6 {
        fill: #47327d;
      }

      .cls-7 {
        fill: #8467aa;
      }
    </style>
  </defs>
  <g id="Capa_1-2" data-name="Capa 1">
    <g>
      <path class="cls-1" d="M22.84,200.32c-2.78,0-5.31-.9-7.23-2.59-2.16-1.9-3.41-4.71-3.52-7.89-.03-.83.62-1.52,1.45-1.55.83-.03,1.52.62,1.55,1.45.08,2.39.95,4.38,2.51,5.75,1.57,1.38,3.76,2.02,6.19,1.79,4.51-.41,8.5-3.08,11.26-7.51l.38-.62c.71-1.17,1.44-2.37,2.58-3.35,2.26-1.93,5.09-2.12,7.81-2.31,1.88-.13,3.66-.25,5.15-.92,3.46-1.57,3.91-5.57,4.08-9.53.04-.83.73-1.48,1.56-1.43.83.04,1.47.74,1.43,1.56-.15,3.62-.41,9.67-5.84,12.14-1.98.9-4.12,1.05-6.18,1.19-2.35.16-4.56.31-6.07,1.6-.77.66-1.34,1.61-1.95,2.61l-.4.65c-3.26,5.25-8.07,8.41-13.53,8.91-.41.04-.81.06-1.22.06Z"/>
      <path class="cls-1" d="M83.83,214.49c-3.02,0-6.2-1.28-8.93-3.69-6.25-5.5-4.72-15.17-4.53-16.25.15-.82.93-1.35,1.74-1.21.82.15,1.36.93,1.21,1.74-.07.36-1.55,8.97,3.56,13.46,2.87,2.53,6.27,3.51,9.08,2.62,2.27-.72,3.87-2.58,4.51-5.23.79-3.31,3.67-4.63,6.45-5.9,2.53-1.16,5.14-2.36,6.72-5.07.42-.72,1.34-.96,2.05-.54.72.42.96,1.33.54,2.05-2.06,3.53-5.38,5.06-8.06,6.28-2.69,1.23-4.35,2.08-4.79,3.88-.88,3.67-3.26,6.36-6.52,7.39-.98.31-2,.46-3.04.46Z"/>
      <g>
        <g>
          <path class="cls-1" d="M62.88,20.5l12.34,152.08c.29,3.62-6.56,7.13-15.33,7.85-8.76.71-16.1-1.65-16.39-5.27L31.16,23.07h0c.5,3.53,7.74,5.8,16.37,5.1s15.41-4.11,15.33-7.68h0Z"/>
          <path class="cls-3" d="M62.87,20.33c0,.06,0,.11,0,.17.08,3.57-6.71,6.98-15.33,7.68s-15.87-1.57-16.37-5.1c-.01-.06-.02-.11-.02-.17-.29-3.62,6.56-7.13,15.33-7.85s16.1,1.65,16.39,5.27Z"/>
        </g>
        <g>
          <path class="cls-6" d="M63.41,92.19c.41,4.62-19.54,6.46-19.13,11.01l-.52-5.81c-.4-4.55,19.54-6.39,19.13-11.01l.52,5.81Z"/>
          <path class="cls-6" d="M65.05,110.62c.41,4.62-19.54,6.46-19.13,11.01l-.52-5.81c-.4-4.55,19.54-6.39,19.13-11.01l.52,5.81Z"/>
          <path class="cls-6" d="M60.14,55.34c.41,4.62-19.54,6.46-19.13,11.01l-.52-5.81c-.4-4.55,19.54-6.39,19.13-11.01l.52,5.81Z"/>
          <path class="cls-6" d="M61.77,73.77c.41,4.62-19.54,6.46-19.13,11.01l-.52-5.81c-.4-4.55,19.54-6.39,19.13-11.01l.52,5.81Z"/>
          <path class="cls-4" d="M64.56,105.12c-.41-4.62-20.37-2.91-20.77-7.47l.52,5.81c.4,4.55,20.36,2.85,20.77,7.47l-.52-5.81Z"/>
          <path class="cls-4" d="M61.28,68.27c-.41-4.62-20.37-2.91-20.77-7.47l.52,5.81c.4,4.55,20.36,2.85,20.77,7.47l-.52-5.81Z"/>
          <path class="cls-6" d="M58.5,36.91c.41,4.62-19.54,6.46-19.13,11.01l-.52-5.81c-.4-4.55,17.27-6.82,16.86-11.44l2.79,6.24Z"/>
          <path class="cls-4" d="M59.65,49.84c-.41-4.62-20.37-2.91-20.77-7.47l.52,5.81c.4,4.55,20.36,2.85,20.77,7.47l-.52-5.81Z"/>
          <path class="cls-4" d="M62.92,86.7c-.41-4.62-20.37-2.91-20.77-7.47l.52,5.81c.4,4.55,20.36,2.85,20.77,7.47l-.52-5.81Z"/>
          <path class="cls-6" d="M67.99,147.5c.41,4.62-19.54,6.46-19.13,11.01l-.52-5.81c-.4-4.55,19.54-6.39,19.13-11.01l.52,5.81Z"/>
          <path class="cls-6" d="M69.63,165.93c.41,4.62-19.54,6.46-19.13,11.01l-.52-5.81c-.4-4.55,19.54-6.39,19.13-11.01l.52,5.81Z"/>
          <path class="cls-6" d="M66.36,129.08c.41,4.62-19.54,6.46-19.13,11.01l-.52-5.81c-.4-4.55,19.54-6.39,19.13-11.01l.52,5.81Z"/>
          <path class="cls-4" d="M69.14,160.44c-.41-4.62-20.37-2.91-20.77-7.47l.52,5.81c.4,4.55,20.36,2.85,20.77,7.47l-.52-5.81Z"/>
          <path class="cls-4" d="M65.87,123.58c-.41-4.62-20.37-2.91-20.77-7.47l.52,5.81c.4,4.55,20.36,2.85,20.77,7.47l-.52-5.81Z"/>
          <path class="cls-4" d="M67.51,142.01c-.41-4.62-20.37-2.91-20.77-7.47l.52,5.81c.4,4.55,20.36,2.85,20.77,7.47l-.52-5.81Z"/>
        </g>
      </g>
      <g>
        <g>
          <path class="cls-1" d="M100.18,24.31l-.49,10.61-6.51,141.81c-.17,3.62-7.42,6.24-16.2,5.84-6.24-.29-11.56-2.02-14.06-4.3-1.03-.93-1.58-1.95-1.53-3l7.01-152.42h.01c.04,3.56,6.95,6.73,15.59,7.13,8.64.4,15.8-2.13,16.17-5.67h.01Z"/>
          <path class="cls-3" d="M100.19,24.14c0,.06,0,.11-.02.17-.37,3.55-7.54,6.07-16.18,5.67s-15.54-3.57-15.59-7.13c0-.06,0-.11,0-.17.17-3.63,7.41-6.25,16.2-5.84,8.78.4,15.76,3.68,15.59,7.3Z"/>
        </g>
        <g>
          <path class="cls-6" d="M91.63,95.49c-.18,4.63-20.2,3.93-20.37,8.5l.22-5.82c.18-4.57,20.19-3.87,20.37-8.5l-.22,5.82Z"/>
          <path class="cls-6" d="M90.92,113.98c-.18,4.63-20.2,3.93-20.37,8.5l.22-5.82c.18-4.57,20.19-3.87,20.37-8.5l-.22,5.82Z"/>
          <path class="cls-6" d="M93.05,58.52c-.18,4.63-20.2,3.93-20.37,8.5l.22-5.82c.18-4.57,20.19-3.87,20.37-8.5l-.22,5.82Z"/>
          <path class="cls-6" d="M92.34,77.01c-.18,4.63-20.2,3.93-20.37,8.5l.22-5.82c.18-4.57,20.19-3.87,20.37-8.5l-.22,5.82Z"/>
          <path class="cls-4" d="M91.13,108.47c.18-4.63-19.84-5.47-19.66-10.03l-.22,5.82c-.18,4.57,19.84,5.4,19.66,10.03l.22-5.82Z"/>
          <path class="cls-4" d="M92.55,71.49c.18-4.63-19.84-5.47-19.66-10.03l-.22,5.82c-.18,4.57,19.84,5.4,19.66,10.03l.22-5.82Z"/>
          <path class="cls-6" d="M93.76,40.03c-.18,4.63-20.2,3.93-20.37,8.5l.22-5.82c.18-4.57,17.99-4.58,18.17-9.22l1.98,6.54Z"/>
          <path class="cls-4" d="M93.26,53.01c.18-4.63-19.84-5.47-19.66-10.03l-.22,5.82c-.18,4.57,19.84,5.4,19.66,10.03l.22-5.82Z"/>
          <path class="cls-4" d="M91.84,89.98c.18-4.63-19.84-5.47-19.66-10.03l-.22,5.82c-.18,4.57,19.84,5.4,19.66,10.03l.22-5.82Z"/>
          <path class="cls-6" d="M89.18,150.94c-.18,4.63-20.2,3.93-20.37,8.5l.22-5.82c.18-4.57,20.19-3.87,20.37-8.5l-.22,5.82Z"/>
          <path class="cls-6" d="M88.47,169.43c-.18,4.63-20.2,3.93-20.37,8.5l.22-5.82c.18-4.57,20.19-3.87,20.37-8.5l-.22,5.82Z"/>
          <path class="cls-6" d="M89.89,132.45c-.18,4.63-20.2,3.93-20.37,8.5l.22-5.82c.18-4.57,20.19-3.87,20.37-8.5l-.22,5.82Z"/>
          <path class="cls-4" d="M88.68,163.91c.18-4.63-19.84-5.47-19.66-10.03l-.22,5.82c-.18,4.57,19.84,5.4,19.66,10.03l.22-5.82Z"/>
          <path class="cls-4" d="M90.1,126.94c.18-4.63-19.84-5.47-19.66-10.03l-.22,5.82c-.18,4.57,19.84,5.4,19.66,10.03l.22-5.82Z"/>
          <path class="cls-4" d="M89.39,145.43c.18-4.63-19.84-5.47-19.66-10.03l-.22,5.82c-.18,4.57,19.84,5.4,19.66,10.03l.22-5.82Z"/>
        </g>
        <path class="cls-4" d="M99.69,34.92l-6.51,141.81c-.17,3.62-7.42,6.24-16.2,5.84-6.24-.29-11.56-2.02-14.06-4.3,2.06,1.87,6.75,1.35,9.32,1.34,3.75,0,7.65-.42,10.89-2.45,2.74-1.71,3.59-2.11,4.84-5.09,2.42-5.74,3.31-14.42,3.3-20.52-.04-22.08,3.37-44.01,4.15-66.07.73-20.72,2.7-39.51,4.26-50.57Z"/>
      </g>
      <g>
        <g>
          <path class="cls-1" d="M136.75,22.76l3.29,152.54c.08,3.63-6.98,6.73-15.76,6.92s-15.97-2.61-16.05-6.24l-3.29-152.54h.01c.29,3.55,7.39,6.25,16.03,6.07s15.62-3.19,15.76-6.75h.01Z"/>
          <path class="cls-3" d="M136.75,22.59c0,.06,0,.11,0,.17-.13,3.56-7.11,6.56-15.76,6.75s-15.75-2.51-16.03-6.07c-.01-.06-.01-.11-.01-.17-.08-3.63,6.98-6.73,15.76-6.92,8.79-.19,15.97,2.61,16.05,6.24Z"/>
        </g>
        <g>
          <path class="cls-6" d="M133.02,94.36c.14,4.63-19.89,5.28-19.75,9.85l-.17-5.83c-.13-4.57,19.89-5.22,19.75-9.85l.17,5.83Z"/>
          <path class="cls-6" d="M133.56,112.85c.14,4.63-19.89,5.28-19.75,9.85l-.17-5.83c-.13-4.57,19.89-5.22,19.75-9.85l.17,5.83Z"/>
          <path class="cls-6" d="M131.94,57.38c.14,4.63-19.89,5.28-19.75,9.85l-.17-5.83c-.13-4.57,19.89-5.22,19.75-9.85l.17,5.83Z"/>
          <path class="cls-6" d="M132.48,75.87c.14,4.63-19.89,5.28-19.75,9.85l-.17-5.83c-.13-4.57,19.89-5.22,19.75-9.85l.17,5.83Z"/>
          <path class="cls-4" d="M133.4,107.34c-.14-4.63-20.16-4.12-20.29-8.69l.17,5.83c.13,4.57,20.16,4.05,20.29,8.69l-.17-5.83Z"/>
          <path class="cls-4" d="M132.32,70.35c-.14-4.63-20.16-4.12-20.29-8.69l.17,5.83c.13,4.57,20.16,4.05,20.29,8.69l-.17-5.83Z"/>
          <path class="cls-6" d="M131.4,38.88c.14,4.63-19.89,5.28-19.75,9.85l-.17-5.83c-.13-4.57,17.64-5.79,17.51-10.42l2.42,6.39Z"/>
          <path class="cls-4" d="M131.78,51.86c-.14-4.63-20.16-4.12-20.29-8.69l.17,5.83c.13,4.57,20.16,4.05,20.29,8.69l-.17-5.83Z"/>
          <path class="cls-4" d="M132.86,88.84c-.14-4.63-20.16-4.12-20.29-8.69l.17,5.83c.13,4.57,20.16,4.05,20.29,8.69l-.17-5.83Z"/>
          <path class="cls-6" d="M134.31,149.85c.14,4.63-19.89,5.28-19.75,9.85l-.17-5.83c-.13-4.57,19.89-5.22,19.75-9.85l.17,5.83Z"/>
          <path class="cls-6" d="M134.85,168.34c.14,4.63-19.89,5.28-19.75,9.85l-.17-5.83c-.13-4.57,19.89-5.22,19.75-9.85l.17,5.83Z"/>
          <path class="cls-6" d="M133.77,131.35c.14,4.63-19.89,5.28-19.75,9.85l-.17-5.83c-.13-4.57,19.89-5.22,19.75-9.85l.17,5.83Z"/>
          <path class="cls-4" d="M134.69,162.82c-.14-4.63-20.16-4.12-20.29-8.69l.17,5.83c.13,4.57,20.16,4.05,20.29,8.69l-.17-5.83Z"/>
          <path class="cls-4" d="M133.61,125.84c-.14-4.63-20.16-4.12-20.29-8.69l.17,5.83c.13,4.57,20.16,4.05,20.29,8.69l-.17-5.83Z"/>
          <path class="cls-4" d="M134.15,144.33c-.14-4.63-20.16-4.12-20.29-8.69l.17,5.83c.13,4.57,20.16,4.05,20.29,8.69l-.17-5.83Z"/>
        </g>
      </g>
      <g>
        <g>
          <path class="cls-7" d="M51.36,37.9l-19.79,151.29c-.47,3.6-7.91,5.6-16.63,4.46-8.72-1.14-15.39-4.99-14.92-8.59L19.81,33.77h0c-.25,3.56,6.36,7.3,14.93,8.42s15.93-.79,16.6-4.29h0Z"/>
          <path class="cls-4" d="M51.39,37.73c0,.06-.01.11-.03.17-.67,3.5-8.02,5.42-16.6,4.29s-15.19-4.86-14.93-8.42c0-.06,0-.11.01-.17.47-3.6,7.91-5.6,16.63-4.46,8.72,1.14,15.39,4.99,14.92,8.59Z"/>
        </g>
        <g>
          <path class="cls-6" d="M36.86,108.11c-.57,4.6-20.46,2.22-21.01,6.76l.71-5.78c.56-4.54,20.45-2.16,21.01-6.76l-.71,5.78Z"/>
          <path class="cls-6" d="M34.6,126.47c-.57,4.6-20.46,2.22-21.01,6.76l.71-5.78c.56-4.54,20.45-2.16,21.01-6.76l-.71,5.78Z"/>
          <path class="cls-6" d="M41.38,71.39c-.57,4.6-20.46,2.22-21.01,6.76l.71-5.78c.56-4.54,20.45-2.16,21.01-6.76l-.71,5.78Z"/>
          <path class="cls-6" d="M39.12,89.75c-.57,4.6-20.46,2.22-21.01,6.76l.71-5.78c.56-4.54,20.45-2.16,21.01-6.76l-.71,5.78Z"/>
          <path class="cls-3" d="M35.28,121c.57-4.6-19.31-7.11-18.75-11.65l-.71,5.78c-.56,4.54,19.31,7.05,18.75,11.65l.71-5.78Z"/>
          <path class="cls-3" d="M39.8,84.27c.57-4.6-19.31-7.11-18.75-11.65l-.71,5.78c-.56,4.54,19.31,7.05,18.75,11.65l.71-5.78Z"/>
          <path class="cls-6" d="M43.64,53.03c-.57,4.6-20.46,2.22-21.01,6.76l.71-5.78c.56-4.54,18.31-3.06,18.88-7.66l1.42,6.68Z"/>
          <path class="cls-3" d="M42.06,65.91c.57-4.6-19.31-7.11-18.75-11.65l-.71,5.78c-.56,4.54,19.31,7.05,18.75,11.65l.71-5.78Z"/>
          <path class="cls-3" d="M37.54,102.63c.57-4.6-19.31-7.11-18.75-11.65l-.71,5.78c-.56,4.54,19.31,7.05,18.75,11.65l.71-5.78Z"/>
          <path class="cls-6" d="M29.76,163.16c-.57,4.6-20.46,2.22-21.01,6.76l.71-5.78c.56-4.54,20.45-2.16,21.01-6.76l-.71,5.78Z"/>
          <path class="cls-6" d="M27.5,181.52c-.57,4.6-20.46,2.22-21.01,6.76l.71-5.78c.56-4.54,20.45-2.16,21.01-6.76l-.71,5.78Z"/>
          <path class="cls-6" d="M32.02,144.79c-.57,4.6-20.46,2.22-21.01,6.76l.71-5.78c.56-4.54,20.45-2.16,21.01-6.76l-.71,5.78Z"/>
          <path class="cls-3" d="M28.17,176.04c.57-4.6-19.31-7.11-18.75-11.65l-.71,5.78c-.56,4.54,19.31,7.05,18.75,11.65l.71-5.78Z"/>
          <path class="cls-3" d="M32.69,139.32c.57-4.6-19.31-7.11-18.75-11.65l-.71,5.78c-.56,4.54,19.31,7.05,18.75,11.65l.71-5.78Z"/>
          <path class="cls-3" d="M30.43,157.68c.57-4.6-19.31-7.11-18.75-11.65l-.71,5.78c-.56,4.54,19.31,7.05,18.75,11.65l.71-5.78Z"/>
        </g>
      </g>
      <g>
        <g>
          <path class="cls-7" d="M150,29.66l11.82,152.12c.28,3.62-6.59,7.11-15.35,7.79-8.76.68-16.09-1.71-16.37-5.33l-11.82-152.12h0c.49,3.53,7.72,5.83,16.35,5.16,8.62-.67,15.42-4.06,15.36-7.62h0Z"/>
          <path class="cls-1" d="M149.98,29.49c0,.06,0,.11,0,.17.07,3.57-6.73,6.95-15.36,7.62-8.62.67-15.86-1.63-16.35-5.16-.01-.06-.02-.11-.02-.17-.28-3.62,6.59-7.11,15.35-7.79,8.76-.68,16.09,1.71,16.37,5.33Z"/>
        </g>
        <g>
          <path class="cls-6" d="M150.28,101.35c.39,4.62-19.56,6.39-19.17,10.94l-.5-5.81c-.39-4.56,19.56-6.32,19.17-10.94l.5,5.81Z"/>
          <path class="cls-6" d="M151.86,119.79c.39,4.62-19.56,6.39-19.17,10.94l-.5-5.81c-.39-4.56,19.56-6.32,19.17-10.94l.5,5.81Z"/>
          <path class="cls-6" d="M147.14,64.49c.39,4.62-19.56,6.39-19.17,10.94l-.5-5.81c-.39-4.56,19.56-6.32,19.17-10.94l.5,5.81Z"/>
          <path class="cls-6" d="M148.71,82.92c.39,4.62-19.56,6.39-19.17,10.94l-.5-5.81c-.39-4.56,19.56-6.32,19.17-10.94l.5,5.81Z"/>
          <path class="cls-3" d="M151.39,114.29c-.39-4.62-20.36-2.98-20.75-7.54l.5,5.81c.39,4.56,20.35,2.92,20.75,7.54l-.5-5.81Z"/>
          <path class="cls-3" d="M148.24,77.42c-.39-4.62-20.36-2.98-20.75-7.54l.5,5.81c.39,4.56,20.35,2.92,20.75,7.54l-.5-5.81Z"/>
          <path class="cls-6" d="M145.56,46.05c.39,4.62-19.56,6.39-19.17,10.94l-.5-5.81c-.39-4.56,17.29-6.76,16.89-11.38l2.77,6.25Z"/>
          <path class="cls-3" d="M146.67,58.99c-.39-4.62-20.36-2.98-20.75-7.54l.5,5.81c.39,4.56,20.35,2.92,20.75,7.54l-.5-5.81Z"/>
          <path class="cls-3" d="M149.81,95.86c-.39-4.62-20.36-2.98-20.75-7.54l.5,5.81c.39,4.56,20.35,2.92,20.75,7.54l-.5-5.81Z"/>
          <path class="cls-6" d="M154.68,156.68c.39,4.62-19.56,6.39-19.17,10.94l-.5-5.81c-.39-4.56,19.56-6.32,19.17-10.94l.5,5.81Z"/>
          <path class="cls-6" d="M156.25,175.11c.39,4.62-19.56,6.39-19.17,10.94l-.5-5.81c-.39-4.56,19.56-6.32,19.17-10.94l.5,5.81Z"/>
          <path class="cls-6" d="M153.1,138.25c.39,4.62-19.56,6.39-19.17,10.94l-.5-5.81c-.39-4.56,19.56-6.32,19.17-10.94l.5,5.81Z"/>
          <path class="cls-3" d="M155.78,169.62c-.39-4.62-20.36-2.98-20.75-7.54l.5,5.81c.39,4.56,20.35,2.92,20.75,7.54l-.5-5.81Z"/>
          <path class="cls-3" d="M152.63,132.75c-.39-4.62-20.36-2.98-20.75-7.54l.5,5.81c.39,4.56,20.35,2.92,20.75,7.54l-.5-5.81Z"/>
          <path class="cls-3" d="M154.21,151.18c-.39-4.62-20.36-2.98-20.75-7.54l.5,5.81c.39,4.56,20.35,2.92,20.75,7.54l-.5-5.81Z"/>
        </g>
      </g>
      <g>
        <g>
          <path class="cls-2" d="M86.41,190.32c.32,3.62-6.52,7.17-15.28,7.93-7.2.62-13.44-.83-15.61-3.38-.47-.55-.75-1.15-.81-1.8l-13.2-152h.01c.51,3.52,7.77,5.75,16.39,5.01,7.22-.62,13.14-3.15,14.82-6.05.32-.56.49-1.14.47-1.72h.01l13.2,152.01Z"/>
          <path class="cls-7" d="M73.19,38.14c0,.06,0,.11,0,.17.1,3.56-6.67,7.01-15.29,7.76s-15.88-1.48-16.4-5.01c-.02-.06-.02-.11-.02-.17-.31-3.62,6.52-7.17,15.28-7.93s16.11,1.56,16.42,5.18Z"/>
        </g>
        <g>
          <path class="cls-6" d="M74.14,110c.44,4.62-19.5,6.57-19.07,11.12l-.55-5.8c-.43-4.55,19.51-6.5,19.07-11.12l.55,5.8Z"/>
          <path class="cls-6" d="M75.88,128.42c.44,4.62-19.5,6.57-19.07,11.12l-.55-5.8c-.43-4.55,19.51-6.5,19.07-11.12l.55,5.8Z"/>
          <path class="cls-6" d="M70.66,73.17c.44,4.62-19.5,6.57-19.07,11.12l-.55-5.8c-.43-4.55,19.51-6.5,19.07-11.12l.55,5.8Z"/>
          <path class="cls-6" d="M72.4,91.58c.44,4.62-19.5,6.57-19.07,11.12l-.55-5.8c-.43-4.55,19.51-6.5,19.07-11.12l.55,5.8Z"/>
          <path class="cls-1" d="M75.36,122.93c-.44-4.62-20.38-2.8-20.82-7.35l.55,5.8c.43,4.55,20.38,2.73,20.82,7.35l-.55-5.8Z"/>
          <path class="cls-1" d="M71.88,86.09c-.44-4.62-20.38-2.8-20.82-7.35l.55,5.8c.43,4.55,20.38,2.73,20.82,7.35l-.55-5.8Z"/>
          <path class="cls-6" d="M68.92,54.75c.44,4.62-19.5,6.57-19.07,11.12l-.55-5.8c-.43-4.55,17.23-6.92,16.79-11.54l2.83,6.22Z"/>
          <path class="cls-1" d="M70.14,67.67c-.44-4.62-20.38-2.8-20.82-7.35l.55,5.8c.43,4.55,20.38,2.73,20.82,7.35l-.55-5.8Z"/>
          <path class="cls-1" d="M73.62,104.51c-.44-4.62-20.38-2.8-20.82-7.35l.55,5.8c.43,4.55,20.38,2.73,20.82,7.35l-.55-5.8Z"/>
          <path class="cls-6" d="M79.04,165.29c.44,4.62-19.5,6.57-19.07,11.12l-.55-5.8c-.43-4.55,19.51-6.5,19.07-11.12l.55,5.8Z"/>
          <path class="cls-6" d="M80.78,183.7c.44,4.62-19.5,6.57-19.07,11.12l-.55-5.8c-.43-4.55,19.51-6.5,19.07-11.12l.55,5.8Z"/>
          <path class="cls-6" d="M77.3,146.87c.44,4.62-19.5,6.57-19.07,11.12l-.55-5.8c-.43-4.55,19.51-6.5,19.07-11.12l.55,5.8Z"/>
          <path class="cls-1" d="M80.26,178.21c-.44-4.62-20.38-2.8-20.82-7.35l.55,5.8c.43,4.55,20.38,2.73,20.82,7.35l-.55-5.8Z"/>
          <path class="cls-1" d="M76.78,141.38c-.44-4.62-20.38-2.8-20.82-7.35l.55,5.8c.43,4.55,20.38,2.73,20.82,7.35l-.55-5.8Z"/>
          <path class="cls-1" d="M78.52,159.79c-.44-4.62-20.38-2.8-20.82-7.35l.55,5.8c.43,4.55,20.38,2.73,20.82,7.35l-.55-5.8Z"/>
        </g>
        <path class="cls-7" d="M86.41,190.32c.32,3.62-6.52,7.17-15.28,7.93-7.2.62-13.44-.83-15.61-3.38,2.97.29,10.46,1.79,13.28.87,6.36-2.07,9.12-3.07,11.36-9.37,5.01-14.08-.27-36.28-1.9-51.13-2.14-19.48-2.13-39.49-3.03-59.05-.16-3.36-2.03-23.48-2.5-36.15.32-.56.49-1.14.47-1.72h.01l13.2,152.01Z"/>
      </g>
      <g>
        <path class="cls-2" d="M132.97,45.14l-2.6,26.84-12.09,125.03c-.34,3.61-7.72,5.86-16.46,5.02-6.1-.59-11.26-2.53-13.7-4.87-1.07-1.02-1.62-2.12-1.51-3.21l14.69-151.88h.01c-.13,3.57,6.6,7.08,15.21,7.92,8.61.83,15.89-1.33,16.44-4.85h.01Z"/>
        <path class="cls-7" d="M132.98,44.97c0,.06-.01.11-.03.17-.55,3.52-7.83,5.68-16.44,4.85-8.61-.83-15.34-4.35-15.21-7.91,0-.06,0-.11,0-.17.35-3.61,7.72-5.86,16.47-5.02s15.55,4.47,15.2,8.08Z"/>
        <g>
          <path class="cls-6" d="M120.84,115.8c-.41,4.62-20.37,2.91-20.77,7.46l.52-5.8c.41-4.55,20.36-2.84,20.77-7.46l-.52,5.8Z"/>
          <path class="cls-6" d="M119.2,134.23c-.41,4.62-20.37,2.91-20.77,7.46l.52-5.8c.41-4.55,20.36-2.84,20.77-7.46l-.52,5.8Z"/>
          <path class="cls-6" d="M124.12,78.94c-.41,4.62-20.37,2.91-20.77,7.46l.52-5.8c.41-4.55,20.36-2.84,20.77-7.46l-.52,5.8Z"/>
          <path class="cls-6" d="M122.48,97.37c-.41,4.62-20.37,2.91-20.77,7.46l.52-5.8c.41-4.55,20.36-2.84,20.77-7.46l-.52,5.8Z"/>
          <path class="cls-1" d="M119.69,128.73c.41-4.62-19.54-6.46-19.13-11.01l-.52,5.8c-.41,4.55,19.54,6.4,19.13,11.01l.52-5.8Z"/>
          <path class="cls-1" d="M122.97,91.88c.41-4.62-19.54-6.46-19.13-11.01l-.52,5.8c-.41,4.55,19.54,6.4,19.13,11.01l.52-5.8Z"/>
          <path class="cls-6" d="M125.76,60.52c-.41,4.62-20.37,2.91-20.77,7.46l.52-5.8c.41-4.55,18.2-3.67,18.61-8.29l1.65,6.63Z"/>
          <path class="cls-1" d="M124.61,73.45c.41-4.62-19.54-6.46-19.13-11.01l-.52,5.8c-.41,4.55,19.54,6.4,19.13,11.01l.52-5.8Z"/>
          <path class="cls-1" d="M121.33,110.3c.41-4.62-19.54-6.46-19.13-11.01l-.52,5.8c-.41,4.55,19.54,6.4,19.13,11.01l.52-5.8Z"/>
          <path class="cls-6" d="M115.59,171.05c-.41,4.62-20.37,2.91-20.77,7.46l.52-5.8c.41-4.55,20.36-2.84,20.77-7.46l-.52,5.8Z"/>
          <path class="cls-6" d="M113.95,189.48c-.41,4.62-20.37,2.91-20.77,7.46l.52-5.8c.41-4.55,20.36-2.84,20.77-7.46l-.52,5.8Z"/>
          <path class="cls-6" d="M117.23,152.62c-.41,4.62-20.37,2.91-20.77,7.46l.52-5.8c.41-4.55,20.36-2.84,20.77-7.46l-.52,5.8Z"/>
          <path class="cls-1" d="M114.44,183.98c.41-4.62-19.54-6.46-19.13-11.01l-.52,5.8c-.41,4.55,19.54,6.4,19.13,11.01l.52-5.8Z"/>
          <path class="cls-1" d="M117.72,147.13c.41-4.62-19.54-6.46-19.13-11.01l-.52,5.8c-.41,4.55,19.54,6.4,19.13,11.01l.52-5.8Z"/>
          <path class="cls-1" d="M116.08,165.56c.41-4.62-19.54-6.46-19.13-11.01l-.52,5.8c-.41,4.55,19.54,6.4,19.13,11.01l.52-5.8Z"/>
        </g>
        <path class="cls-7" d="M130.37,71.98l-12.09,125.03c-.34,3.61-7.72,5.86-16.46,5.02-6.1-.59-11.26-2.53-13.7-4.87,2.93.11,8.16,1.1,12.06.79,9.37-.74,12.26-2.58,12.93-3.13,4.26-3.47,4.24-16.17,4.62-19.09,2.61-20.04,6.74-64.99,8.16-74.07,1.77-11.27,3.24-21.1,4.48-29.68Z"/>
      </g>
      <path class="cls-5" d="M58.51,40.8s0,0,0,0c-.83,0-1.5-.68-1.49-1.51,0-.22-.01-5.31-4.23-8-3.37-2.15-7.71-1.81-9.65-.13-.33.29-.54.57-.89,1.03-.46.61-1.09,1.45-2.32,2.7-1.06,1.08-2.2,2.09-3.38,3-.66.51-1.6.39-2.1-.27-.51-.66-.39-1.6.27-2.1,1.08-.83,2.12-1.75,3.08-2.73,1.09-1.11,1.63-1.82,2.06-2.4.4-.54.75-1,1.33-1.5,3.2-2.77,9.01-2.83,13.23-.13,5.5,3.51,5.62,9.84,5.61,10.55,0,.82-.68,1.49-1.5,1.49Z"/>
      <path class="cls-5" d="M84.29,25.54c-.83,0-1.5-.67-1.5-1.5,0-2.79-1.01-3.06-3.02-3.59-2.4-.64-6.02-1.6-5.02-8.68.25-1.75.46-4.23-.52-5.59-1.28-1.78-3.24-2.79-6-3.1-5.59-.62-10.51,2.56-13.16,8.52-.24.54-.45,1.1-.65,1.66-.41,1.11-.84,2.25-1.51,3.33-1.45,2.33-3.94,4-6.65,4.47-.81.14-1.59-.41-1.73-1.22-.14-.82.41-1.59,1.22-1.73,1.88-.32,3.6-1.48,4.61-3.1.51-.82.87-1.78,1.24-2.79.23-.62.46-1.23.73-1.83C55.5,3.27,61.71-.67,68.57.1c3.6.4,6.32,1.86,8.1,4.33,1.59,2.21,1.4,5.31,1.05,7.76-.63,4.45.6,4.78,2.82,5.37,2.09.56,5.25,1.4,5.25,6.49,0,.83-.67,1.5-1.5,1.5Z"/>
      <path class="cls-5" d="M117.03,44.87c-.25,0-.5-.06-.73-.19-.72-.4-.98-1.32-.58-2.04.82-1.48-.29-3.58-1.02-4.7-.37-.57-.78-1.11-1.22-1.69-.74-.98-1.5-1.99-2.09-3.15-1.64-3.18-1.57-6.93.18-9.55,1.35-2.02,3.63-3.46,6.98-4.39,3.11-.86,7.53-1.39,10.92,1,3.07,2.17,4.76,6.21,4.2,10.07-.12.82-.88,1.39-1.7,1.27-.82-.12-1.39-.88-1.27-1.7.39-2.72-.82-5.68-2.96-7.18-2.43-1.72-5.9-1.25-8.39-.56-2.63.73-4.36,1.76-5.29,3.16-1.15,1.73-1.16,4.28,0,6.51.48.94,1.14,1.8,1.83,2.72.44.59.9,1.2,1.33,1.84,1.94,2.95,2.33,5.65,1.14,7.8-.27.49-.79.77-1.31.77Z"/>
    </g>
  </g>
</svg>