<?xml version="1.0" encoding="UTF-8"?>
<svg id="Capa_2" xmlns="http://www.w3.org/2000/svg" viewBox="0 0 1651.8103 1256.0262">
  <defs>
    <style>
      .cls-1 {
        fill: #898686;
      }

      .cls-2 {
        fill: #a3a2a2;
      }

      .cls-3 {
        fill: #c4c2c2;
      }
    </style>
  </defs>
  <g id="Capa_1-2" data-name="Capa_1">
    <g>
      <g>
        <path class="cls-3" d="M1515.9653,277.5508c-6.0798,20.85-17.4199,39.71-28.71,58.27-11.51,18.93-23.3199,38.12-39.8599,52.87-17.4601,15.57-39.4001,25.39-61.9302,31.68-56.4299,15.75-118.8799,9.77-170.6499-17.67-28.13-14.91-52.91-36.15-72.1699-61.53-8.1101-10.66-15.2301-22.06-21.2201-34.02-1.73-3.4399-3.36-6.9399-4.9-10.48-21.95-50.57-10.09-101.92,8.3501-151.69,10.8199-29.2,23.0399-58.67,43.8099-81.88,28.92-32.33,72.3099-49.37,115.5699-52.51,3.8701-.28,7.74-.46,11.6001-.54,39.3899-.82,78.6399,8.38,115.9099,21.46,25.05,8.8,50.3401,19.97,67.95,39.84,5.7201,6.45,10.4102,13.55,14.3101,21.1,4.6801,9.06,8.22,18.76,11.05,28.77v.01c4.1499,14.63,6.79,29.92,9.25,44.84,6.11,36.99,12.1499,75.48,1.6399,111.48Z"/>
        <path class="cls-1" d="M1300.7526,10c37.7432,0,75.2871,8.9729,111.0127,21.5107,25.0503,8.8,50.3403,19.97,67.9502,39.84,5.7197,6.4501,10.4102,13.55,14.3101,21.1001,4.6797,9.0599,8.2197,18.76,11.0498,28.7699v.01c4.1499,14.63,6.79,29.92,9.25,44.8401,6.1099,36.99,12.1499,75.48,1.6401,111.48-6.0801,20.85-17.4199,39.71-28.71,58.27-11.5103,18.9299-23.3203,38.12-39.8599,52.87-17.4604,15.5699-39.4004,25.39-61.9302,31.6799-20.4966,5.7207-41.7876,8.5747-63.0723,8.5747-37.3154,0-74.6113-8.7715-107.5776-26.2446-28.1304-14.91-52.9102-36.15-72.1699-61.53-8.1104-10.66-15.2305-22.0601-21.2202-34.02-1.73-3.4399-3.3599-6.9399-4.8999-10.48-21.9502-50.5701-10.0903-101.92,8.3501-151.6901,10.8198-29.2,23.0396-58.6699,43.8096-81.88,28.9204-32.33,72.3101-49.37,115.5703-52.51,3.8701-.2799,7.7397-.46,11.6001-.5399,1.6323-.0339,3.2651-.0508,4.897-.0508M1300.7531,0h-.0005c-1.7012,0-3.4189.0179-5.105.053-4.0142.0831-8.0903.2728-12.1133.5638-23.2197,1.6854-46.1968,7.2599-66.4497,16.1212-22.1797,9.7042-40.9712,23.0598-55.8525,39.6956-22.3784,25.0076-35.3408,57.0251-45.7334,85.0726-17.5854,47.4628-32.3057,103.4871-8.1465,159.1462,1.6538,3.8005,3.3813,7.496,5.1396,10.9912,6.229,12.4385,13.6992,24.415,22.1953,35.582,20.1963,26.6144,46.2876,48.8561,75.4453,64.3107,33.8301,17.9312,72.6489,27.4089,112.2607,27.4089,22.375,0,44.5-3.0088,65.7607-8.9427,26.9888-7.5348,49.1597-18.923,65.897-33.8483,17.9629-16.0189,30.5996-36.8018,41.749-55.1381,10.8711-17.8712,23.1934-38.1288,29.7656-60.6659,11.3501-38.8778,4.5903-79.8022-1.374-115.9092-2.5073-15.2085-5.0967-30.0741-9.1162-44.5853v-.0116l-.3774-1.3441c-3.2856-11.6212-7.1411-21.6432-11.7876-30.6385-4.4551-8.6245-9.7417-16.4117-15.7129-23.1456-19.6245-22.1431-47.4688-33.9808-72.1177-42.64-42.3286-14.8551-79.7241-22.0759-114.3267-22.0759h0Z"/>
      </g>
      <g>
        <path class="cls-3" d="M416.8999,759.729c-9.0099,25.59-16.3,52.5-32.6,74.19-16.47,21.92-40.65,36.49-64.21,50.52-18.69,11.13-37.72,22.41-58.81,27.75-22.43,5.68-46.15,4.34-68.81-.28-28.6-5.83-56.17-16.92-80.68-32.73-7.4-4.7599-14.52-9.96-21.31-15.57-19.9-16.45-36.57-36.55-49.48-58.85-17.26-29.8-27.82-63.54-30.46-97.83-4.98-64.79,25.48-112.34,71.66-155.17,29.19-27.08,61.69-52.81,100.34-62.37,37.01-9.16,76.76-2.41,111.42,13.46,2.77,1.26,5.5,2.58,8.2,3.95,6.52,3.3,12.88,6.9,19.08,10.77,17.38,10.79,33.55,23.6,48.77,37.43,5.38,4.88,10.65,9.9,15.8,15,25.04,24.77,48.91,53.92,53.39,88.86,4.44,34.51-10.7401,68.05-22.3,100.8701Z"/>
        <path class="cls-1" d="M217.3027,485.2546c26.261-.0005,52.6763,6.614,76.6572,17.5944,2.77,1.26,5.5,2.58,8.2,3.95,6.52,3.3,12.8801,6.9,19.0801,10.77,17.3799,10.79,33.55,23.6,48.77,37.4299,5.3799,4.88,10.6499,9.9,15.8,15,25.0398,24.77,48.9099,53.9202,53.3899,88.8601,4.4399,34.51-10.74,68.05-22.3,100.8699-9.01,25.5901-16.3,52.5-32.5999,74.1902-16.47,21.9199-40.6501,36.49-64.2102,50.5198-18.6899,11.1301-37.72,22.4102-58.8098,27.75-10.3445,2.6196-20.9663,3.7463-31.6289,3.7463-12.4575,0-24.9717-1.5369-37.1812-4.0261-28.6001-5.8301-56.1699-16.9202-80.6799-32.7302-7.4001-4.7598-14.52-9.96-21.3101-15.5698-19.8999-16.45-36.5701-36.55-49.48-58.8501-17.26-29.8-27.8201-63.54-30.46-97.8301-4.98-64.7898,25.48-112.3398,71.6599-155.1699,29.1899-27.08,61.6899-52.8099,100.3401-62.37,11.4031-2.8221,23.0686-4.1342,34.7627-4.1343M217.3056,475.2546v10l-.0012-10c-12.7939.0001-25.2981,1.4897-37.167,4.4272-41.9912,10.3864-76.5103,38.5581-104.7388,64.746-26.2476,24.3438-44.9402,47.9551-57.1445,72.1823-14.4121,28.6095-20.1968,58.4037-17.6848,91.0851,2.7424,35.6208,13.7307,70.9177,31.7773,102.0757,13.8179,23.8687,31.2336,44.5762,51.762,61.5457,7.063,5.8354,14.5554,11.3098,22.2717,16.2727,25.1685,16.2349,54.251,28.0352,84.0923,34.1182,13.7588,2.8054,26.9407,4.2278,39.1785,4.2278,11.9985,0,23.4661-1.3635,34.0837-4.0522,22.6543-5.7361,42.3879-17.4875,61.4717-28.8521,23.0623-13.7334,49.2017-29.2993,67.0884-53.1047,14.5359-19.3433,22.2188-42.0784,29.6484-64.0652,1.4268-4.2217,2.9019-8.5872,4.3889-12.811,1.6406-4.6577,3.3989-9.4492,5.0991-14.083,10.7175-29.209,21.8003-59.4121,17.6868-91.384-5.0791-39.6123-32.7424-71.4138-56.2754-94.6932-5.4302-5.3771-10.8528-10.5251-16.1143-15.2976-17.1672-15.5994-33.5945-28.2009-50.2139-38.5189-6.4861-4.0485-13.1677-7.8198-19.8389-11.1964-2.8962-1.4696-5.7844-2.8607-8.5754-4.1302-26.4126-12.0939-54.3589-18.4918-80.7947-18.4918h0Z"/>
      </g>
      <g>
        <path class="cls-3" d="M809.9399,502.349c.1201,15.4-.8899,32.84-4.26,50.03-4.26,21.79-18.8499,96.28-83.7399,136.85-43.29,27.06-89.24,26.7-108.26,26.55-6-.05-32.19-.49-65.36-10.21-46.04-13.49-79.38-37.19-100.08-55.15-14.72-14.72-32.08-36.2-44.94-65.36-11.44-25.96-15.42-49.15-17.18-67.42-.57-6-.91-11.47-1.2-16.33-.95-16.05-2.08-35.25,1.58-57.45,1.06-6.47,2.54-13.19,4.54-20.16,16.23-56.45,55.71-89.34,71.49-102.13,16.2-13.13,50.25-40.02,102.13-46.98,45.53-6.11,80.63,6.37,102.13,14.3,21.23,7.83,67.34,24.83,100.08,69.44,15.98,21.77,25.7101,45.93,31.41,64.2,3.1,9.89,5.01,18.05,6.1,23.17.12.56.67,3.18,1.2999,6.59.3601,1.98,4.0601,22.85,4.26,50.06Z"/>
        <path class="cls-1" d="M588.9413,272.9601c33.8262-.0009,60.343,9.4722,77.8486,15.9288,21.23,7.8301,67.3401,24.8301,100.0798,69.4401,15.98,21.77,25.71,45.9299,31.4102,64.2,3.1001,9.89,5.0098,18.05,6.1001,23.17.1196.5599.6699,3.1799,1.2998,6.59.3599,1.98,4.0601,22.85,4.2598,50.0601.1201,15.3999-.8896,32.84-4.2598,50.0299-4.2603,21.79-18.8501,96.2802-83.7397,136.85-39.7551,24.8501-81.7534,26.5759-103.0781,26.5759-1.8965,0-3.6289-.0137-5.1821-.0259-6-.05-32.1899-.49-65.3599-10.21-46.04-13.49-79.3801-37.1899-100.0801-55.1499-14.72-14.7202-32.0801-36.2001-44.9399-65.3601-11.4402-25.96-15.4202-49.15-17.1802-67.42-.5698-6-.9099-11.47-1.2-16.33-.95-16.05-2.0801-35.25,1.5801-57.45,1.0601-6.4701,2.54-13.1901,4.54-20.16,16.23-56.4501,55.71-89.34,71.49-102.13,16.2-13.13,50.25-40.02,102.1299-46.98,8.459-1.1351,16.5627-1.6287,24.2815-1.6289M588.9462,262.9602v10l-.002-10c-8.5056.0001-17.1223.578-25.6145,1.7177-55.7097,7.4738-91.7195,36.6594-107.0964,49.1224-14.1897,11.501-57.3706,46.5001-74.804,107.1355-2.022,7.0466-3.6357,14.2135-4.7979,21.3064-3.845,23.3207-2.6523,43.4685-1.6941,59.6576.3057,5.1243.6521,10.6292,1.2273,16.6846,1.5723,16.3224,5.1458,41.3738,17.9844,70.5073,11.1921,25.3779,27.0115,48.3896,47.0195,68.3984l.2505.2502.2673.2319c30.916,26.8237,65.8467,46.0664,103.8218,57.1931,30.7007,8.9966,55.8372,10.511,68.0884,10.6133,1.582.0125,3.3406.0261,5.2654.0261,15.6885,0,63.4307,0,108.3784-28.0962,29.2681-18.2986,52.2715-45.123,68.3721-79.7288,12.8164-27.5459,17.7676-52.8688,19.8813-63.6821,3.0957-15.7888,4.5918-33.2948,4.4453-52.0267-.2036-27.7982-3.9893-49.3987-4.4204-51.7701-.7021-3.8013-1.2944-6.5867-1.3594-6.8918-1.6982-7.9747-3.8311-16.0758-6.3374-24.0712-5.5225-17.7009-15.7153-43.7279-32.8906-67.1262-14.8862-20.2833-34.1704-37.5085-57.3164-51.1963-19.0508-11.2659-36.7668-17.8-47.3521-21.704-16.7915-6.1932-44.8745-16.5511-81.3167-16.5511h0Z"/>
      </g>
      <g>
        <path class="cls-3" d="M1641.54,896.479c-2.8601,66.9-31.27,136.21-87.8401,172.03-30.8699,19.54-67.95,27.85-104.48,27.88-65.98.06-132.05-27.42-176.72-75.86-1.65-1.78-3.27-3.6-4.86-5.44-8.61-9.99-16.1-20.51-22.5-31.42-74.11-126.21-3.5699-305.19,150.7599-327.4901,34.6201-5,70.1201-.5,102.8601,11.67,10.5601,3.93,20.83,8.66,30.6899,14.13,20.5601,11.3799,39.3201,25.97,55.1801,43.2,11.23,12.18,20.99,25.68,28.92,40.31,21.53,39.7401,29.9199,85.83,27.99,130.9901Z"/>
        <path class="cls-1" d="M1424.0822,654.1705c25.4209-.0007,50.7817,4.7959,74.6777,13.6785,10.5601,3.9299,20.8301,8.6599,30.6899,14.1299,20.5601,11.3801,39.3198,25.97,55.1802,43.2,11.23,12.1802,20.9897,25.6802,28.9199,40.3101,21.5298,39.74,29.9199,85.8301,27.9897,130.99-2.8599,66.9001-31.27,136.21-87.8398,172.03-30.8701,19.54-67.9502,27.8501-104.48,27.8801h-.2148c-65.9121,0-131.8818-27.4705-176.5054-75.8601-1.6499-1.78-3.27-3.6001-4.8599-5.4399-8.6099-9.99-16.1001-20.51-22.5-31.4199-74.1099-126.2102-3.5698-305.1902,150.7598-327.4902,9.3525-1.3506,18.7739-2.0081,28.1826-2.0083M1424.0876,644.1705v10l-.002-10c-9.9546.0002-19.9175.7104-29.6152,2.1111-72.4795,10.4729-132.689,55.2502-165.1914,122.8511-16.3037,33.9089-24.4907,71.7083-23.6768,109.3115.8477,39.1528,11.5376,77.2898,30.9146,110.2883,6.7783,11.5552,14.7017,22.6206,23.5483,32.885,1.7749,2.0542,3.4409,3.9187,5.1006,5.7095,22.6699,24.5833,51.6133,44.811,83.6831,58.4775,31.6006,13.4666,66.2339,20.5845,100.1562,20.5845h.2271c41.4771-.0342,79.4521-10.2109,109.8159-29.4304,28.1685-17.8364,51.5859-44.9707,67.7222-78.47,14.6587-30.4314,23.2202-65.5581,24.7603-101.5828,2.1333-49.907-7.96-96.9973-29.188-136.1804-8.2012-15.1299-18.4155-29.3694-30.3604-42.3252-16.4849-17.9082-35.896-33.1079-57.6895-45.1707-10.27-5.6975-21.0547-10.6626-32.0449-14.7527-25.5396-9.4934-51.835-14.3064-78.1602-14.3064h0Z"/>
      </g>
      <g>
        <path class="cls-3" d="M1152.5099,334.059c-15.41,40.4-34.1001,88.21-91.91,130.73-42.9301,31.56-74.6,20.79-104.17,24.51-35.6099,4.47-79.5699,13.36-134.8099-13.3-57.5399-27.78-69.97-63.89-89.69-97-1.91-3.2-3.63-6.41-5.18-9.62-16.08-33.03-14.54-65.9-13.39-90.47,3.36-71.86,39.07-121.47,51.0699-136.85,12.48-16,43.51-54.73,100.0801-75.57,15.36-5.66,79.02-27.11,149.11,0,22.5299,8.71,40.0599,20.25,53.74,31.31v.01c9.7999,7.91,17.62,15.5699,23.88,21.78,16.88,16.75,46.4399,46.77,61.27,96,5.1799,17.19,19.9399,66.19,0,118.47Z"/>
        <path class="cls-1" d="M940.6354,53.0809c22.041-.001,47.0688,3.384,72.9844,13.4081,22.5298,8.71,40.0601,20.25,53.7402,31.3099v.01c9.7998,7.91,17.6196,15.5699,23.8799,21.78,16.8799,16.75,46.4399,46.77,61.27,96,5.1797,17.1899,19.9399,66.1899,0,118.47-15.4102,40.4-34.1001,88.21-91.9102,130.73-42.9302,31.5601-74.6001,20.79-104.1699,24.51-16.479,2.0686-34.7515,5.0842-55.0977,5.0842-23.6196,0-50.0356-4.0616-79.7124-18.3843-57.54-27.7799-69.9697-63.8899-89.6899-97-1.9102-3.2-3.6299-6.4099-5.1802-9.62-16.0796-33.0299-14.54-65.8999-13.3896-90.47,3.3599-71.86,39.0698-121.47,51.0698-136.85,12.48-16,43.5098-54.73,100.0801-75.5699,9.6807-3.5673,38.5557-13.4065,76.1255-13.4081M940.6442,43.0809v10l-.0029-10c-36.1387.0015-65.3765,8.7876-79.5889,14.0249-25.4497,9.3754-48.8965,23.3197-69.6875,41.4453-17.7534,15.4771-29.2803,30.2554-34.8203,37.3574-18.4766,23.6809-49.9546,73.6893-53.1738,142.5333-1.1851,25.3181-2.8086,59.9902,14.3877,95.3141,1.6943,3.5085,3.5781,7.0065,5.5845,10.3684,2.9248,4.9103,5.6543,9.8345,8.5444,15.0477,8.1143,14.6376,16.5044,29.7734,29.3774,44.4773,14.6074,16.6848,32.9272,30.212,56.0073,41.355,27.0195,13.0402,54.5156,19.3788,84.0601,19.3788,17.4058,0,33.3901-2.1282,47.4932-4.0057,3.0698-.4087,5.9692-.7948,8.8501-1.1564,6.9272-.8715,14.2256-.8773,21.9521-.8834,23.2905-.0184,52.2764-.0415,86.8955-25.4917,26.8481-19.7474,47.9238-42.3009,64.4326-68.9508,14.6226-23.6046,23.6465-47.2627,30.8975-66.2723,21.1577-55.472,5.4072-107.7424.2314-124.9188-15.8564-52.6379-48.2388-84.771-63.8013-100.2133-5.8701-5.8232-12.7104-12.4927-20.9233-19.3986v-.0579l-3.7129-3.0118c-17.623-14.2473-36.0786-24.9961-56.4214-32.8607-24.1553-9.3431-49.9219-14.0808-76.5815-14.0808h0Z"/>
      </g>
      <g>
        <path class="cls-3" d="M808.4599,963.8189c-3.12,34.24-19.27,66.46-41.62,92.58-44.69,52.23-115.53,80.89-183.97,74.42-51.65-4.88-100.88-29.66-136.59-67.18-11.62-12.19-21.81-25.74-30.18-40.38-6-10.49-11.04-21.4-15.2-32.61-15.97-42.97-19.03-90.41-13.27-135.79,7.27-57.35,45.06-103.5699,93.64-134.41,37.42-23.76,83.04-35.72,126.85-29.04,12.37,1.88,24.42,5.21,36.03,9.75,27.66,10.81,52.79,28.49,73.63,49.81,2.54,2.6,5.02,5.25,7.44,7.95,4.29,4.78,8.4,9.71,12.34,14.77,6.08,7.81,11.77,15.94,17.09,24.31,8.04,12.61,15.2599,25.78,21.82,39.25,3.25,6.65,6.3201,13.38,9.26,20.16,14.5901,33.63,26.05,69.9,22.73,106.41Z"/>
        <path class="cls-1" d="M583.6164,689.5721c8.1895-.0002,16.3748.5974,24.5034,1.8369,12.3701,1.8799,24.4202,5.21,36.03,9.75,27.6602,10.8098,52.7903,28.49,73.6301,49.8098,2.54,2.6001,5.02,5.25,7.4399,7.9502,4.29,4.7798,8.3999,9.71,12.3398,14.7698,6.0801,7.8101,11.77,15.9402,17.0903,24.3101,8.0396,12.6101,15.2598,25.78,21.8198,39.25,3.25,6.6501,6.3198,13.3801,9.2598,20.1602,14.5903,33.6299,26.0503,69.8999,22.73,106.4099-3.1196,34.24-19.27,66.46-41.6196,92.5801-40.5083,47.343-102.511,75.3228-164.728,75.3228-6.4224,0-12.8384-.2974-19.2422-.9028-51.6499-4.8801-100.8799-29.6599-136.5898-67.1799-11.6201-12.1902-21.8101-25.74-30.1802-40.3801-6-10.49-11.0398-21.3999-15.2-32.6099-15.97-42.9702-19.03-90.4102-13.27-135.79,7.27-57.3501,45.0601-103.5701,93.6401-134.4102,30.4768-19.3513,66.3989-30.8755,102.3464-30.8767M583.6232,679.5721v10l-.0022-10c-36.522.0012-74.7727,11.5203-107.7114,32.4346-56.2795,35.728-91.1548,86.0142-98.2004,141.5947-6.3972,50.4006-1.6194,98.9963,13.8171,140.5312,4.4204,11.9114,9.7681,23.3828,15.8931,34.0911,8.6643,15.155,19.304,29.3923,31.6223,42.3152,18.7007,19.6484,40.6121,35.7639,65.1204,47.8926,24.8503,12.2981,51.0149,19.8154,77.7671,22.3433,6.6492.6284,13.4399.947,20.1829.947,65.6746,0,130.0957-29.4658,172.3262-78.8213,12.1646-14.2168,22.0889-29.5405,29.4976-45.5457,8.0034-17.2898,12.8765-34.9966,14.4824-52.6284,1.6479-18.1201.0508-36.9353-4.8823-57.5227-3.8999-16.2759-9.9946-33.8657-18.6323-53.7747-3.1987-7.3772-6.29-14.1064-9.4492-20.571-7.0381-14.4517-14.5674-27.9929-22.3721-40.2351-5.5801-8.7783-11.5146-17.2192-17.6318-25.0769-4.1274-5.301-8.4297-10.4504-12.7886-15.3066-2.4971-2.7861-5.0991-5.5667-7.7285-8.2583-22.7529-23.2769-49.428-41.3044-77.1436-52.136-12.5503-4.908-25.3923-8.3811-38.1675-10.3225-8.4858-1.2939-17.2349-1.9504-25.999-1.9504h0Z"/>
      </g>
      <g>
        <path class="cls-3" d="M1235.2399,1143.9289c-18.23,24.45-68.65,92.07-156.26,101.11-53.85,5.56-97.3301-13.53-122.72-28.13-8.14-4.68-14.42-8.9-18.5901-11.7-15.97-10.73-48.3599-35.35-72.5699-76.67-8.83-15.07-16.5699-32.36-22.0299-52.01-4.4501-16-16.9401-63.33,0-119.49,23.3999-77.61,90.95-132.1,159.3099-147.06,38.17-8.36,70.65-3.09,89.6801,0,8.71,1.41,22.96,3.83,40.24,9.15,20.23,6.24,44.6399,16.46,69.23,33.74,1.79,1.25,3.6399,2.67,5.5599,4.25,21.13,17.34,49.33,53.94,64.91,106.05,25.38,84.91-18.48,156.24-36.76,180.7599Z"/>
        <path class="cls-1" d="M1044.86,805.4774c19.4697-.0002,35.7627,2.6443,47.1997,4.5015,8.71,1.4102,22.96,3.8301,40.2402,9.1501,20.23,6.24,44.6396,16.46,69.23,33.74,1.79,1.25,3.6396,2.6699,5.5601,4.25,21.1299,17.3398,49.3296,53.9399,64.9097,106.05,25.3804,84.9099-18.48,156.24-36.7598,180.7598-18.23,24.4502-68.6499,92.0701-156.2603,101.1101-6.5405.6753-12.9355.9873-19.1562.9873-44.9961,0-81.2578-16.2905-103.5635-29.1172-8.1401-4.6802-14.4199-8.9001-18.5903-11.7002-15.9697-10.73-48.3599-35.3499-72.5698-76.6699-8.8301-15.0701-16.5698-32.3601-22.0298-52.01-4.4502-16-16.9399-63.3301,0-119.49,23.3999-77.6101,90.9497-132.1001,159.3101-147.0601,15.2295-3.3354,29.5552-4.5012,42.48-4.5015M1044.863,795.4774v10l-.001-10c-15.271.0002-30.2832,1.5928-44.6216,4.7329-36.0356,7.886-71.9116,26.4705-101.0171,52.3291-31.356,27.8572-54.084,62.9944-65.7275,101.6128-7.5977,25.1873-10.4302,51.5781-8.4189,78.4382,1.6968,22.6653,6.5366,40.0671,8.3589,46.6182,5.2847,19.0188,13.0352,37.3176,23.0361,54.3857,23.2461,39.6748,53.9536,65.3569,75.6206,79.9148l.0596.04c4.2686,2.866,10.7188,7.1968,19.1235,12.0291,35.1348,20.2036,71.6558,30.448,108.5479,30.448,6.7085,0,13.499-.3501,20.1831-1.0403,39.4224-4.0676,76.2451-19.873,109.4448-46.9768,26.7925-21.8728,44.3647-45.4412,53.8057-58.103,8.9351-11.9851,25.5264-37.1018,36.2603-70.6648,12.9009-40.3406,13.5952-80.3564,2.0635-118.9363-7.4248-24.8335-18.0498-47.9358-31.5806-68.6658-11.0977-17.002-24.0835-32.0068-36.5664-42.2505-2.1807-1.7944-4.2051-3.3403-6.1782-4.7185-21.6792-15.2344-45.9146-27.0483-72.0083-35.0969-18.7192-5.7632-34.166-8.2642-41.5894-9.4661-11.3525-1.843-28.5151-4.6299-48.7949-4.6299h0Z"/>
      </g>
      <g>
        <path class="cls-3" d="M1348.6798,744.5889c-47.77,55.64-125.3199,86.63-197.09,71.54-1.24-.26-2.49-.54-3.72-.83-34.9501-8.12-67.0699-26.56-93.11-51.4-9.2-8.78-17.64-18.36-25.1899-28.56-77.74-105.14-55.51-253.62,64.4299-316.13,60.39-31.48,133.47-33.89,198.5801-13.45,5.0199,1.58,9.99,3.29,14.9099,5.14,8.9199,3.34,17.77,7.18,26.26,11.63,18.09,9.46,34.5601,21.7,46.72,37.94,2.25,3.02,4.3401,6.15,6.26,9.36,12.37,20.66,18.1001,45.03,20.77,69.12,8.0801,72.89-11.05,150-58.8201,205.64Z"/>
        <path class="cls-1" d="M1207.257,392.557c28.8281-.0012,57.7832,4.5564,85.3228,13.2019,5.02,1.5801,9.9902,3.29,14.9102,5.14,8.9199,3.3401,17.77,7.1801,26.2598,11.63,18.0903,9.4601,34.5601,21.7001,46.7202,37.9401,2.25,3.02,4.3398,6.15,6.2598,9.36,12.3701,20.66,18.1001,45.03,20.77,69.12,8.0801,72.89-11.0498,149.9999-58.8198,205.64-39.6235,46.1516-99.7446,75.3459-160.0527,75.3459-12.3989,0-24.7979-1.2327-37.0371-3.8059-1.2402-.26-2.4902-.54-3.7202-.8301-34.9502-8.1201-67.0698-26.5601-93.1099-51.3999-9.2002-8.78-17.6401-18.3601-25.1899-28.5601-77.7402-105.1401-55.5103-253.62,64.4297-316.13,34.8467-18.1648,73.9297-26.6504,113.2573-26.652M1207.2682,382.557v10l-.0044-10c-42.2578.0017-83.02,9.6094-117.8867,27.7845-56.6904,29.5457-95.6421,79.3114-109.6797,140.1289-7.2534,31.4264-7.4229,65.1737-.4907,97.5939,7.1816,33.5881,21.4214,64.9519,42.3228,93.22,7.9038,10.6782,16.7603,20.7197,26.3267,29.8491,28.2832,26.9797,62.0845,45.6196,97.7505,53.906,1.3193.3113,2.6528.6086,3.9316.8767,12.6812,2.6663,25.8345,4.0188,39.0889,4.0188,30.8413,0,62.6797-7.3767,92.0723-21.3328,28.9375-13.7397,55.0684-33.6226,75.5679-57.499,24.2207-28.2114,41.853-61.9263,52.4067-100.2078,9.9365-36.0441,12.9673-75.1355,8.7646-113.0481-3.3125-29.8884-10.5513-53.8177-22.1294-73.1553-2.0981-3.5081-4.3936-6.9404-6.8203-10.1975-11.9478-15.9565-28.8008-29.6863-50.1055-40.827-8.3228-4.3625-17.54-8.4464-27.3867-12.1335-4.9976-1.8792-10.188-3.6686-15.4146-5.3137-28.8823-9.067-58.5933-13.6632-88.314-13.6632h0Z"/>
      </g>
      <g>
        <path class="cls-3" d="M1077.9599,767.7689c-21.3199,52.3-59.5601,79.61-79.6599,93.96-20.5601,14.68-58.6901,41.18-114.3801,44.94-79.2799,5.35-134.96-39.35-149.1099-51.07-8.73-7.22-22.23-18.63-35.12-35.34-8.19-10.62-16.14-23.39-22.44-38.59-1.32-3.16-2.56-6.4301-3.72-9.8101-13.73-40.03-8.7599-74.86-6.12-91.92,1.49-9.7,6.64-38.58,24.51-71.49,9.44-17.38,46.34-85.35,118.46-106.21,35.15-10.16,65.88-9.59,121.5399-3.26,20.0601,2.28,33.1602,6.68,41.8701,9.39,41.8899,13.02,69.5599,46.21,86.0499,73.5099,9.7101,16.07,15.54,30.11,18.12,36.79.5,1.29,1.1001,2.89,1.78,4.79,7.64,21.45,24.3201,80.27-1.78,144.31Z"/>
        <path class="cls-1" d="M868.2292,494.3838c17.874-.0004,38.1572,1.6914,63.6904,4.5952,20.0601,2.2799,33.1602,6.6799,41.8701,9.39,41.8901,13.0199,69.5601,46.21,86.0503,73.5099,9.71,16.0701,15.54,30.11,18.1196,36.7902.5,1.2898,1.1001,2.8899,1.7803,4.7898,7.6401,21.4502,24.3198,80.27-1.7803,144.3101-21.3198,52.3-59.5601,79.6101-79.6597,93.96-20.5601,14.6802-58.6899,41.1802-114.3804,44.9402-4.4419.2998-8.8149.4424-13.106.4424-72.2881,0-122.647-40.4492-136.0039-51.5125-8.73-7.22-22.23-18.6301-35.1196-35.3401-8.1904-10.6199-16.1401-23.3899-22.4402-38.5898-1.3201-3.1602-2.5601-6.4302-3.72-9.8101-13.73-40.03-8.76-74.8601-6.1201-91.9202,1.49-9.7,6.6401-38.5798,24.5103-71.4899,9.4399-17.38,46.3398-85.35,118.46-106.21,19.0254-5.4993,36.7598-7.855,57.8491-7.8552M868.2331,484.3837v10l-.0015-10c-22.1963.0004-40.894,2.5443-60.6284,8.2487-32.417,9.3763-61.8232,28.6682-87.4033,57.3403-20.1909,22.6316-32.0112,44.3948-37.0588,53.6881-17.1472,31.5784-23.4084,60.3928-25.6152,74.7598-2.4751,15.9941-8.2749,53.4751,6.5452,96.6829,1.2253,3.5706,2.5547,7.0759,3.9517,10.4202,5.9709,14.4062,13.9648,28.1562,23.749,40.8425,14.0957,18.2734,28.7773,30.4158,36.665,36.939,5.5762,4.6187,22.5625,18.6877,47.8511,31.1665,30.4438,15.0227,62.2471,22.6399,94.5259,22.6399,4.5688,0,9.2051-.1565,13.7793-.4651,59.6421-4.0269,100.083-32.9023,119.5181-46.7791,10.0981-7.2095,25.3594-18.105,40.7314-33.9163,18.4224-18.9492,32.6802-40.6189,42.3774-64.4072,11.8374-29.0452,16.6338-60.2112,14.2559-92.6326-1.8501-25.2214-7.7183-45.9009-12.3154-58.8076-.647-1.8071-1.2764-3.5007-1.877-5.0491-3.4595-8.959-9.5488-22.8962-18.8843-38.3472-16.7603-27.7469-46.2651-63.7843-91.6411-77.8878l-1.8105-.5662c-8.8599-2.7784-22.2495-6.9772-41.8984-9.2103-28.7168-3.2659-48.1011-4.6594-64.8159-4.6594h0Z"/>
      </g>
      <path class="cls-2" d="M25.2506,685.9609c-15.5566-21.3201,17.5386-66.5391,21.4468-71.879,5.5276-7.5525,7.8313-9.233,47.4893-45.456,35.6569-32.5684,37.874-34.9359,45.9575-39.4799,21.5428-12.11,40.6704-14.8993,62.8085-18.1275,27.2861-3.9789,43.2393-6.0747,59.7447,2.8123,3.735,2.011,23.8741,12.8545,24.5106,30.6344.5365,14.9884-13.1082,25.9219-16.8511,28.9211-15.7427,12.6146-30.3586,10.0814-62.8085,15.0887-12.3521,1.906-34.4961,6.0169-58.2128,14.287-34.8553,12.1541-53.3902,18.6173-67.4042,36.1317-20.0512,25.0597-13.6798,51.2878-30.6383,56.4395-9.1576,2.782-20.6246-1.9471-26.0425-9.3723Z"/>
      <path class="cls-2" d="M409.7612,419.2936c-5.983-14.1943,11.7597-33.2938,47.4893-70.9136,39.882-41.9918,55.7107-49.0704,64.3405-52.2839,8.4007-3.1283,41.0216-15.2757,58.2128,0,.9587.8519,8.7911,8.0198,9.1915,18.5818.5269,13.8976-12.1841,23.9015-16.8511,27.5745-15.9557,12.5575-26.6517,8.0748-50.5532,16.8511-5.1293,1.8834-25.1752,9.6313-42.8936,26.0426-25.2731,23.4086-24.405,44.6166-41.3617,47.4894-10.4713,1.774-23.6916-4.1299-27.5745-13.3417Z"/>
      <path class="cls-2" d="M618.1016,296.0961c14.6038-6.5906,28.5789-2.4347,36.766,0,10.6656,3.1718,25.67,7.6338,29.1064,20.1137,2.1742,7.8962-.7169,17.4247-6.7236,22.9787-10.1531,9.3878-26.5946,5.0039-45.3615,0-17.1404-4.5702-20.8984-5.4031-22.4681-15.383-1.5464-9.8315-.5352-23.5503,8.6808-27.7095Z"/>
      <path class="cls-2" d="M984.0963,82.799c-9.7528-15.1001-34.3944-14.0449-53.4841-13.2275-42.8208,1.8336-73.1047,21.4833-82.7234,28.2375-24.0116,16.8607-35.4238,34.9413-38.8519,40.6987-7.226,12.1359-21.2474,35.6846-11.7013,49.0213,6.6544,9.2968,22.6034,10.6167,33.7021,7.6596,16.3323-4.3515,16.5049-16.4572,34.0621-27.5745,8.04-5.091,23.7324-7.5484,54.7889-12.2553,33.0396-5.0075,42.3206-4.6566,52.0851-13.7872,9.3884-8.779,12.6027-20.1318,13.7872-24.5106,1.3745-5.0809,6.041-22.3313-1.6648-34.2619Z"/>
      <path class="cls-2" d="M771.2931,202.8481c-7.0516-2.973-16.3944,2.1723-21.4468,6.9728-6.8156,6.4757-6.3762,12.8487-10.7234,41.2254-4.1237,26.9176-6.1438,31.7885-1.8923,37.5105,5.931,7.9825,18.4588,10.0727,27.9349,7.5393,15.3854-4.1132,20.6116-19.8492,21.4468-22.364,1.5885-4.783,1.7833-8.8151-3.0638-34.118-5.9501-31.0599-8.1708-35.0439-12.2552-36.766Z"/>
      <path class="cls-2" d="M1173.0928,83.8191c-1.3954-20.4236,36.6611-36.9161,53.9891-44.4255,37.4272-16.2198,70.9454-15.834,94.4751-15.3192,5.8353.1277,39.1274,1.1288,77.0994,15.3192,14.4298,5.3925,25.7456,11.2733,33.7021,22.9787,2.3424,3.446,12.4208,18.2731,7.6595,32.1702-6.5768,19.1964-36.8463,23.1282-47.4894,24.5107-22.4542,2.9167-40.4879-2.1859-64.3405-9.1915-38.1896-11.2165-41.1299-19.6483-58.2128-17.4108-24.0306,3.1475-26.9856,20.9818-49.1996,22.0066-21.6793,1.0001-46.5946-14.7069-47.6831-30.6383Z"/>
      <path class="cls-2" d="M1236.7194,112.3744c-11.6744-2.908-23.808,2.6843-29.255,13.4117-3.2547,6.4099-6.8959,13.7656-10.7688,21.913-17.6296,37.0872-18.7817,45.8129-16.3357,54.2711,3.3167,11.469,13.2288,22.3776,25.9971,25.3884,16.9242,3.9908,32.4316-7.4115,39.8297-16.851,2.4998-3.1895,5.4114-7.8618,10.7234-45.9575,4.2256-30.304,3.3712-34.4331,1.1403-38.2979-4.4826-7.7655-12.985-11.799-21.3309-13.8779Z"/>
      <path class="cls-2" d="M926.0165,513.8308c-14.3466-17.2299-48.1813-8.9877-73.532-2.8123-24.4653,5.9598-41.7078,15.4148-58.3694,24.5514-21.1996,11.625-34.5021,18.9195-47.8433,33.597-8.7676,9.6457-15.4963,23.1789-28.5958,49.8514-15.9544,32.4857-23.9316,48.7285-28.5957,65.3617-9.8173,35.0107-17.1593,52.0248-8.1702,67.4043,6.6591,11.393,20.9456,21.0036,31.787,17.925,9.9893-2.8366,12.9093-15.2691,22.1736-43.9379,13.0414-40.357,19.5621-60.5355,27.1902-72.3037,3.614-5.5755,22.9324-34.2664,57.7427-47.2217,28.9106-10.7597,40.684-.3106,71.4636-15.2003,11.6564-5.6388,26.4758-13.067,34.7491-29.7749,6.2799-12.6822,10.7054-34.583,0-47.44Z"/>
      <path class="cls-2" d="M1125.0577,455.7357c-.9372-7.4145,26.1244-18.755,51.9221-21.1058,14.6607-1.336,40.1038-3.6546,49.8044,11.7092,5.2326,8.2874,4.7705,19.9549,0,28.6775-5.7287,10.4747-17.2727,15.9752-27.2105,15.7513-13.0314-.2936-15.739-10.26-34.8798-20.6108-22.9793-12.4266-38.9251-8.7955-39.6362-14.4213Z"/>
      <path class="cls-2" d="M1094.9342,469.8191c-8.5976-5.5121-29.6748,12.1216-40.9569,27.3693-6.2303,8.4203-13.4288,18.1492-9.7775,26.7673,3.5722,8.4311,16.0125,12.2214,25.3672,10.3376,16.3992-3.3024,22.7526-23.9292,25.3671-32.4175.8766-2.8461,8.2456-26.7703,0-32.0567Z"/>
      <path class="cls-2" d="M408.6178,926.5363c-19.2421-9.8933-11.0057-64.6653,0-97.7328,3.5754-10.7424,23.739-71.3256,72.1221-87.6984,7.5502-2.555,22.5199-7.3857,34.7234,0,12.7518,7.7175,15.0689,24.2866,16.3405,33.3793.6364,4.5508,4.4413,31.759-12.2553,50.8318-17.6025,20.1076-38.1093,8.4614-52.6027,26.7951-13.8887,17.5687.041,34.4637-14.8016,54.907-10.5537,14.536-31.7944,25.55-43.5263,19.518Z"/>
      <path class="cls-2" d="M613.6799,715.7789c-11.9803-15.6168-39.6826-12.6486-55.323,0-16.2665,13.1548-16.3749,34.2643-16.3404,37.4857,20.5245,21.5078,50.2362,22.8005,65.3617,8.7324,11.8334-11.0062,16.4427-32.9988,6.3017-46.2181Z"/>
      <path class="cls-2" d="M1321.2505,805.4775c-19.7046,11.0821-17.6459,14.3263-28.5957,18.8174-23.1339,9.4885-40.0609-1.8185-47.5149,8.4048-4.8384,6.6359-1.6731,16.84,0,22.2335,3.3829,10.9057,9.0127,12.9248,18.9191,26.5532,12.7177,17.4959,9.4579,22.4483,17.8807,29.1606,10.6614,8.4962,27.2133,9.5902,39.3108,5.5628,35.2374-11.7309,38.9004-68.9835,39.8298-83.5101.7028-10.9846,2.1119-33.0108-8.1703-38.0218-6.6741-3.2525-15.7897,1.8742-31.6595,10.7996Z"/>
      <path class="cls-2" d="M1380.4845,737.1781c-7.9497-10.9865,9.1804-33.607,25.532-55.1991,5.8425-7.715,10.9027-13.1783,18.3829-13.9394,7.4235-.7553,15.0475,3.3427,19.0747,9.1915,6.145,8.9243,2.5712,19.9713,0,27.9193-1.9463,6.0164-8.6733,26.8103-29.2875,34.3786-9.6937,3.5589-27.6007,6.0813-33.7021-2.3509Z"/>
      <path class="cls-2" d="M955.8888,915.9351c-3.1989-3.5522-14.8716,9.648-38.2979,12.2862-21.1697,2.3841-28.6202-6.483-39.3967,0-8.4222,5.0667-10.8904,14.7053-15.7522,33.6906-3.0361,11.8562-3.556,21.4361-4.5958,40.5958-1.3424,24.7368.3832,30.0745,3.0638,34.4681.5557.9107,9.3564,14.908,21.4469,13.7872,9.734-.9023,15.5922-11.0468,17.6169-14.5532,7.9401-13.7498,2.2024-22.6629,6.6591-39.0638,2.1936-8.0728,4.6854-9.9679,19.3835-30.6383,21.9819-30.9139,33.2063-46.8702,29.8723-50.5726Z"/>
      <path class="cls-2" d="M1006.4421,881.9545c-1.0089-3.3242,12.4174-4.8924,26.8085-19.9149,17.837-18.6196,16.9718-36.8382,32.1703-40.9107,6.6267-1.7757,14.3239-.3306,16.0851,0,6.1538,1.1553,12.4508,2.3374,16.0851,7.2085,5.3287,7.1422,2.0072,18.2937-1.532,24.5106-5.0695,8.905-13.6294,13.0333-23.6538,16.8511-27.8127,10.5925-64.2808,17.7983-65.9631,12.2553Z"/>
    </g>
  </g>
</svg>