<?xml version="1.0" encoding="UTF-8"?>
<svg id="Capa_2" xmlns="http://www.w3.org/2000/svg" viewBox="0 0 1651.8105 1256.0264">
  <defs>
    <style>
      .cls-1 {
        fill: #70569b;
      }

      .cls-2 {
        fill: #a486ce;
      }

      .cls-3 {
        fill: #8566b2;
      }
    </style>
  </defs>
  <g id="Capa_1-2" data-name="Capa_1">
    <g>
      <g>
        <path class="cls-2" d="M1322.393,433.9456c-38.7979,0-76.8076-9.2766-109.9199-26.8268-28.5186-15.1161-54.042-36.8752-73.8115-62.9253-8.3037-10.9161-15.6084-22.6273-21.707-34.8035-1.7188-3.4183-3.4072-7.0289-5.0146-10.7245-23.4551-54.0393-8.9932-108.8916,8.2471-155.4218,10.2334-27.6176,22.9775-59.1213,44.7725-83.4772,27.6797-30.9437,71.0293-50.6855,118.9336-54.1626,3.9395-.2849,7.9287-.4706,11.8584-.552,1.667-.0347,3.334-.0519,5.001-.0519,34.0303,0,70.8848,7.1285,112.668,21.7928,24.0459,8.447,51.1689,19.9521,70.0371,41.2416,5.6953,6.4232,10.7461,13.8665,15.0098,22.1219,4.4912,8.6923,8.2266,18.4088,11.4199,29.704l.1885.6671v.012c4.0586,14.4834,6.6611,29.4193,9.1836,44.718,5.876,35.5796,12.5371,75.908,1.5059,113.6946-6.3867,21.9016-18.5273,41.8591-29.2383,59.4673-10.9658,18.0356-23.3955,38.4788-40.8037,54.0032-16.1631,14.4132-37.666,25.4365-63.9131,32.7642-20.8232,5.8119-42.4961,8.7588-64.417,8.7588Z"/>
        <path class="cls-1" d="M1300.7514,10c37.7456-.001,75.2861,8.9717,111.0139,21.5107,25.05,8.8003,50.3401,19.9702,67.95,39.8403,5.72,6.4497,10.4102,13.5498,14.3101,21.0996,4.6799,9.0601,8.22,18.7603,11.05,28.77v.0103c4.1499,14.6299,6.79,29.9199,9.25,44.8398,6.1099,36.9902,12.1499,75.48,1.6399,111.48-6.0798,20.8501-17.4199,39.71-28.71,58.27-11.51,18.9302-23.3201,38.1201-39.8599,52.8701-17.4602,15.5698-39.4001,25.3901-61.9302,31.6802-20.4966,5.7207-41.7874,8.5747-63.072,8.5747-37.3152,0-74.6118-8.7715-107.5779-26.2451-28.1301-14.9097-52.9102-36.1499-72.1699-61.5298-8.1101-10.6602-15.2302-22.0601-21.2202-34.02-1.73-3.4399-3.3599-6.9399-4.8999-10.48-21.95-50.5698-10.0901-101.9199,8.3501-151.6899,10.8198-29.2002,23.0398-58.6699,43.8098-81.8799,28.9202-32.3301,72.3101-49.3701,115.5701-52.5103,3.8701-.2798,7.74-.46,11.6001-.54,1.6301-.0337,3.2666-.0508,4.896-.0508M1300.7577,0v10l-.0022-10c-1.7073,0-3.4243.0181-5.1082.0527-4.0142.0835-8.0898.2734-12.1133.564-23.22,1.6855-46.1968,7.2603-66.4497,16.1216-22.1797,9.7046-40.9712,23.0601-55.8523,39.6958-22.3792,25.0083-35.3411,57.0254-45.7336,85.0723-17.5854,47.4629-32.3052,103.4873-8.1462,159.146,1.6533,3.8008,3.3813,7.4961,5.1392,10.9917,6.2297,12.438,13.6997,24.4146,22.1956,35.5815,20.1968,26.6147,46.2878,48.8564,75.4453,64.3105,33.8301,17.9316,72.6492,27.4097,112.261,27.4097,22.3748,0,44.4998-3.0088,65.7603-8.9429,26.989-7.5347,49.1597-18.9229,65.8975-33.8486,17.9641-16.02,30.6003-36.8022,41.749-55.1382,10.8711-17.8716,23.1938-38.1294,29.7654-60.666,11.3501-38.877,4.5903-79.8018-1.3735-115.9092-2.5078-15.2085-5.0972-30.0742-9.1165-44.585v-.0117l-.3772-1.3442c-3.2859-11.6216-7.1416-21.6436-11.7881-30.6387-4.4558-8.6255-9.7424-16.4131-15.7131-23.1455-19.6238-22.1426-47.468-33.9805-72.1172-42.6396-42.3279-14.8555-79.7222-22.0762-114.322-22.0762h0Z"/>
      </g>
      <g>
        <path class="cls-2" d="M229.6508,920.9351c-11.9023,0-24.748-1.3884-38.1797-4.127-29.2373-5.9597-57.7285-17.5188-82.3916-33.4275-7.5479-4.8552-14.8789-10.2117-21.7842-15.9172-20.0703-16.5901-37.1016-36.8438-50.623-60.1992-17.6719-30.5112-28.4326-65.074-31.1182-99.9512-2.4395-31.7478,3.1748-60.6809,17.165-88.4534,11.9316-23.686,30.2764-46.834,56.0801-70.7666,27.7607-25.7533,61.6523-53.4443,102.54-63.5577,11.4766-2.8403,23.5762-4.2806,35.9639-4.2806,25.7246,0,52.9512,6.241,78.7383,18.0483,2.709,1.2321,5.5322,2.5923,8.3809,4.0372,6.5303,3.3051,13.0811,7.0024,19.4648,10.9872,16.3467,10.1487,32.5371,22.5712,49.4854,37.9712,5.2012,4.7173,10.5703,9.8147,15.9561,15.1477,22.9609,22.7136,49.9453,53.6738,54.8301,91.7769,3.958,30.7556-6.9102,60.3745-17.4199,89.0181-1.7061,4.6499-3.4707,9.458-5.123,14.1489-1.4971,4.2524-2.9775,8.6328-4.4082,12.8689-7.3037,21.613-14.8555,43.9619-28.9102,62.6638-17.2949,23.0166-42.9834,38.3147-65.6484,51.812-18.7773,11.1816-38.1934,22.7439-60.1416,28.3013-10.2168,2.5872-21.2715,3.8989-32.8564,3.8989Z"/>
        <path class="cls-1" d="M217.3029,485.2549c26.261-.0005,52.6758,6.6138,76.657,17.5942,2.77,1.2598,5.5,2.5801,8.2,3.9497,6.52,3.3003,12.8799,6.9004,19.0801,10.77,17.3799,10.79,33.5498,23.6001,48.77,37.4302,5.3799,4.8799,10.6499,9.8999,15.7998,15,25.04,24.77,48.9102,53.9199,53.3901,88.8599,4.4399,34.5103-10.74,68.0503-22.3,100.8701-9.01,25.5898-16.3,52.5-32.6001,74.1899-16.47,21.9199-40.6499,36.4902-64.21,50.52-18.6899,11.1299-37.72,22.4102-58.8101,27.75-10.3442,2.6196-20.9658,3.7461-31.6284,3.7461-12.4573,0-24.9719-1.5366-37.1815-4.0259-28.6-5.8301-56.1699-16.9204-80.6799-32.73-7.4-4.7603-14.52-9.96-21.3101-15.5703-19.8999-16.4497-36.5699-36.5498-49.48-58.8501-17.26-29.7998-27.8199-63.5396-30.46-97.8296-4.98-64.79,25.48-112.3403,71.66-155.1704,29.1899-27.0796,61.6899-52.8096,100.34-62.3696,11.403-2.8223,23.069-4.1343,34.7631-4.1343M217.3061,475.2549v10l-.0012-10c-12.7949,0-25.2991,1.4897-37.1675,4.4272-41.9907,10.3862-76.5099,38.5576-104.7386,64.7456-26.2478,24.3438-44.9403,47.9551-57.1448,72.1826-14.412,28.6094-20.1967,58.4038-17.6847,91.0854,2.7426,35.6211,13.7308,70.9175,31.7772,102.0747,13.8182,23.8696,31.234,44.5771,51.7621,61.5459,7.0588,5.8325,14.5514,11.3071,22.2712,16.2729,25.1698,16.2354,54.2521,28.0352,84.0925,34.1182,13.7598,2.8052,26.9414,4.2275,39.179,4.2275,11.9983,0,23.4656-1.3633,34.0833-4.0522,22.6531-5.7354,42.3872-17.4873,61.4717-28.8521,23.062-13.7329,49.2009-29.2983,67.0881-53.105,14.5364-19.3428,22.219-42.0776,29.6489-64.0645,1.4265-4.2217,2.9019-8.5874,4.3889-12.811,1.6406-4.6582,3.3989-9.4492,5.0989-14.083,10.7178-29.209,21.8005-59.4126,17.687-91.3843-5.0791-39.6128-32.7427-71.4141-56.2759-94.6934-5.427-5.3745-10.8499-10.5229-16.1138-15.2974-17.1682-15.6001-33.5955-28.2017-50.2139-38.5195-6.4888-4.0493-13.1702-7.8208-19.8384-11.1958-2.9062-1.4746-5.7944-2.8652-8.5767-4.1309-26.4121-12.0933-54.3582-18.4912-80.7935-18.4912h0Z"/>
      </g>
      <g>
        <path class="cls-2" d="M618.8627,720.8049c-1.9111,0-3.6572-.0137-5.2217-.0261-11.9941-.0999-36.6074-1.5854-66.7275-10.4116-37.2793-10.9229-71.5801-29.8218-101.9502-56.1716l-.1338-.116-.125-.125c-19.5703-19.5701-35.0391-42.071-45.9795-66.8779-12.5469-28.4714-16.0439-52.9912-17.582-68.958-.5703-6.0037-.9131-11.4486-1.2148-16.5117-.9424-15.9448-2.1162-35.7853,1.6377-58.5612,1.1309-6.9004,2.7021-13.8751,4.668-20.7258,17-59.127,59.2607-93.3796,73.1475-104.6353,15.0508-12.1984,50.2959-40.7642,104.6133-48.0513,8.2734-1.1104,16.667-1.6733,24.9463-1.6733,35.5547,0,63.1133,10.1647,79.5791,16.2379,22.3252,8.2336,68.7568,25.3582,102.3809,71.1726,16.7656,22.8405,26.7383,48.3181,32.1523,65.6692,2.4551,7.8328,4.5479,15.7809,6.2178,23.6173.1074.5048.6738,3.194,1.3262,6.7238.4258,2.3457,4.1416,23.5742,4.3428,50.9313.1436,18.3947-1.3213,35.564-4.3535,51.0287-2.0791,10.6326-6.9482,35.5376-19.5068,62.5298-15.6865,33.7136-38.0566,59.8215-66.4893,77.5981-43.7314,27.3362-90.3945,27.3362-105.7275,27.3362Z"/>
        <path class="cls-1" d="M588.9408,272.96c33.8262-.0005,60.3433,9.4722,77.8489,15.9292,21.2302,7.8301,67.3401,24.8301,100.0801,69.4399,15.98,21.77,25.7102,45.9297,31.4102,64.1997,3.0999,9.8901,5.01,18.0503,6.0999,23.1704.1201.5596.6702,3.1797,1.3,6.5898.3601,1.98,4.0601,22.8501,4.26,50.0601.1201,15.3999-.8899,32.8398-4.26,50.0298-4.26,21.79-18.8499,96.2803-83.74,136.8501-39.7495,24.8467-81.7439,26.5757-103.0715,26.5757-1.8997,0-3.6328-.0137-5.1885-.0259-6-.0498-32.1899-.4897-65.3601-10.21-46.04-13.4897-79.3799-37.1899-100.0798-55.1499-14.72-14.7197-32.0801-36.1997-44.9402-65.3599-11.4399-25.96-15.4199-49.1499-17.1799-67.4199-.5701-6-.9099-11.4702-1.2-16.3301-.95-16.0503-2.0801-35.25,1.5801-57.4502,1.0598-6.4697,2.5398-13.1899,4.5398-20.1597,16.2302-56.4502,55.7102-89.3403,71.49-102.1304,16.2002-13.1299,50.25-40.02,102.1301-46.98,8.459-1.1353,16.5623-1.6284,24.281-1.6289M588.9448,262.96v10l-.0015-10c-8.5054.0005-17.1221.5781-25.6135,1.7178-55.7087,7.4736-91.7192,36.6592-107.0964,49.1221-14.1899,11.5015-57.3708,46.501-74.8042,107.1362-2.0222,7.0469-3.6357,14.2139-4.7976,21.3062-3.845,23.3208-2.6523,43.4688-1.6941,59.6577.3059,5.1284.6526,10.6367,1.2273,16.6851,1.5723,16.3218,5.1458,41.373,17.9841,70.5068,11.1926,25.3789,27.012,48.3906,47.02,68.3984l.2502.25.2673.2319c30.9165,26.8242,65.8472,46.0669,103.8215,57.1934,30.7043,8.9976,55.8391,10.5112,68.0889,10.6128,1.583.0127,3.3428.0264,5.2717.0264,15.6868,0,63.4243,0,108.3718-28.0962,29.2681-18.2983,52.2715-45.123,68.3726-79.7285,12.8164-27.5469,17.7671-52.8691,19.8811-63.6826,3.0955-15.7891,4.5916-33.2954,4.4456-52.0264-.2046-27.8145-3.9902-49.4014-4.4211-51.771-.7305-3.9556-1.3362-6.7817-1.3616-6.9004-1.6936-7.9565-3.8262-16.0581-6.3347-24.0615-5.5222-17.7007-15.7148-43.7266-32.8911-67.1265-14.8865-20.2832-34.1709-37.5088-57.3171-51.1963-19.0505-11.2661-36.7668-17.7998-47.3521-21.7041-16.7905-6.1929-44.873-16.5513-81.3171-16.5513h0Z"/>
      </g>
      <g>
        <path class="cls-2" d="M1449.0043,1101.3889c-68.0889,0-135.4463-28.9607-180.1807-77.4702-1.5918-1.7178-3.2656-3.5916-4.9668-5.5605-8.6553-10.0417-16.4023-20.8601-23.0293-32.1594-18.9443-32.2622-29.3975-69.561-30.2266-107.8623-.7969-36.8208,7.2197-73.8333,23.1836-107.0366,31.7686-66.075,90.5967-109.8386,161.4004-120.0693,9.4629-1.3669,19.1855-2.0598,28.8975-2.0598,25.7314,0,51.4434,4.7075,76.4199,13.9917,10.7598,4.0046,21.3145,8.8643,31.373,14.4446,21.3184,11.7991,40.3066,26.6663,56.4336,44.1858,11.6611,12.6482,21.6338,26.5491,29.6367,41.3135,20.7988,38.3906,30.6846,84.5837,28.5889,133.5864-1.5107,35.3516-9.9023,69.8015-24.2686,99.6262-15.7305,32.656-38.5146,59.0798-65.8916,76.4146-29.5645,18.7134-66.6162,28.6223-107.1504,28.6555h-.2197Z"/>
        <path class="cls-1" d="M1424.0827,654.1709c25.4209-.0005,50.7817,4.7959,74.6772,13.6782,10.5601,3.9297,20.8298,8.6597,30.6899,14.1299,20.5601,11.3799,39.3201,25.9702,55.1799,43.2002,11.23,12.1797,20.99,25.6797,28.9202,40.3096,21.53,39.7402,29.9199,85.8301,27.99,130.9902-2.8601,66.8999-31.27,136.21-87.8401,172.0298-30.8699,19.54-67.95,27.8501-104.48,27.8804h-.2158c-65.9119,0-131.8806-27.4702-176.5042-75.8604-1.6501-1.7798-3.27-3.5996-4.8601-5.4399-8.6099-9.9897-16.0999-20.5098-22.5-31.4199-74.1099-126.21-3.5698-305.1899,150.76-327.4897,9.3523-1.3506,18.7739-2.0083,28.1829-2.0083M1424.0881,644.1709v10l-.0022-10c-9.9543,0-19.9172.7104-29.6152,2.1108-72.4795,10.4731-132.6892,55.2505-165.1919,122.8511-16.3035,33.9092-24.4907,71.708-23.6765,109.3115.8479,39.1528,11.5378,77.2896,30.9143,110.2881,6.7791,11.5562,14.7026,22.6216,23.5486,32.8853,1.7761,2.0557,3.4424,3.9204,5.1018,5.71,22.6689,24.5825,51.6121,44.8105,83.6816,58.4771,31.5999,13.4663,66.2332,20.5845,100.1555,20.5845h.228c41.4778-.0342,79.4529-10.2114,109.8162-29.4307,28.1685-17.8364,51.5859-44.9702,67.7222-78.4697,14.6582-30.4316,23.2202-65.5581,24.7603-101.5825,2.1331-49.9077-7.9602-96.998-29.188-136.1812-8.2014-15.1299-18.416-29.3691-30.3608-42.3247-16.4849-17.9087-35.896-33.1084-57.6895-45.1704-10.2705-5.6982-21.0549-10.6636-32.0449-14.7529-25.5391-9.4932-51.8347-14.3062-78.1594-14.3062h0Z"/>
      </g>
      <g>
        <path class="cls-2" d="M901.3324,499.3833c-28.7754,0-55.5605-6.1761-81.8857-18.8812-50.1914-24.2322-66.9658-54.4917-83.1865-83.7549-2.7812-5.017-5.6572-10.2046-8.626-15.1897-1.9277-3.2292-3.7412-6.5963-5.3867-10.0034-16.6318-34.1624-15.043-68.0969-13.8828-92.875,3.1553-67.4662,34.0117-116.4823,52.123-139.6958,11.8242-15.1591,43.2324-55.4285,102.2939-77.186,13.9004-5.1224,42.5-13.7163,77.8535-13.7163,26.0459,0,51.209,4.6245,74.7881,13.7448,19.8516,7.6743,37.8682,18.1696,55.0801,32.0852l1.8564,1.5009v.0231c8.8369,7.2797,15.9023,14.1578,22.4014,20.6045,15.2705,15.1532,47.0459,46.6835,62.5361,98.1074,5.0547,16.7726,20.4346,67.8145-.1152,121.6942-15.1455,39.7057-33.9941,89.1205-93.6191,132.976-33.3008,24.4805-60.2031,24.5018-83.9395,24.5208-7.8867.0063-15.3359.0122-22.5693.9224-2.9072.3649-5.8691.7593-8.8887,1.1614-13.9492,1.8571-29.7588,3.9619-46.833,3.9619Z"/>
        <path class="cls-1" d="M940.6352,53.0811c22.0413-.001,47.0688,3.3843,72.9846,13.4082,22.53,8.71,40.0601,20.25,53.74,31.3096v.0103c9.8,7.9102,17.6201,15.5698,23.8801,21.7798,16.8799,16.75,46.4399,46.77,61.27,96,5.1799,17.1899,19.9399,66.1899,0,118.4702-15.4102,40.3999-34.1001,88.21-91.9102,130.73-42.9299,31.5601-74.5999,20.79-104.1699,24.5098-16.4792,2.0688-34.7522,5.0845-55.0981,5.0845-23.6199,0-50.0352-4.0615-79.7119-18.3843-57.5398-27.7798-69.97-63.8901-89.6899-97-1.9099-3.2002-3.6301-6.4102-5.1799-9.6201-16.0801-33.0298-14.54-65.8999-13.3901-90.4697,3.3601-71.8604,39.0701-121.4702,51.0701-136.8501,12.48-16,43.51-54.73,100.0801-75.5698,9.6804-3.5674,38.5557-13.4067,76.1252-13.4082M940.6442,43.0811v10l-.0032-10c-36.1389.0015-65.3767,8.7876-79.5889,14.0249-25.4495,9.3755-48.896,23.3198-69.6873,41.4453-17.7534,15.4771-29.2805,30.2554-34.8201,37.3574-18.4766,23.6807-49.9551,73.689-53.1741,142.5332-1.1851,25.3223-2.8079,59.9927,14.3879,95.314,1.6907,3.502,3.5742,7,5.584,10.3677,2.925,4.9111,5.6545,9.835,8.5442,15.0483,8.1143,14.6372,16.5046,29.7734,29.3777,44.4775,14.6074,16.6846,32.9275,30.2124,56.0076,41.355,27.0193,13.04,54.5149,19.3789,84.0596,19.3789,17.406,0,33.3909-2.1284,47.4937-4.0059,3.0698-.4087,5.9692-.7949,8.8501-1.1562,6.9272-.8716,14.2253-.8774,21.9517-.8838,23.2908-.0181,52.2766-.041,86.8958-25.4912,26.8486-19.7476,47.9241-42.3013,64.4331-68.9512,14.6223-23.6045,23.6462-47.2627,30.8972-66.272,21.1582-55.4741,5.4072-107.7432.2314-124.9194-15.8567-52.6377-48.239-84.7705-63.801-100.2129-5.8687-5.8218-12.709-12.4912-20.9238-19.3984v-.0581l-3.7131-3.0122c-17.623-14.2471-36.0786-24.9956-56.4209-32.8599-24.1555-9.3433-49.9219-14.0811-76.5815-14.0811h0Z"/>
      </g>
      <g>
        <path class="cls-2" d="M602.1117,1136.7219c-6.5869,0-13.2197-.3113-19.7129-.925-51.916-4.9053-102.8496-29.9495-139.7412-68.7109-12.0352-12.6257-22.4316-26.5371-30.8984-41.3452-5.9893-10.4712-11.2197-21.6929-15.5469-33.3523-15.1562-40.78-19.8389-88.5557-13.542-138.1592,6.8545-54.0754,40.9189-103.0854,95.9199-138.0015,32.1494-20.4133,69.4482-31.6558,105.0264-31.6558,8.5166,0,17.0146.6375,25.2568,1.894,12.4072,1.8857,24.8896,5.2625,37.0977,10.0361,27.0586,10.5752,53.126,28.2009,75.3838,50.9717,2.585,2.6455,5.1377,5.373,7.5889,8.1079,4.2773,4.7659,8.5039,9.8252,12.5615,15.0352,6.0186,7.7317,11.8604,16.0417,17.3643,24.7,7.6963,12.0701,15.1309,25.4434,22.0957,39.7427,3.1172,6.3787,6.1777,13.0405,9.3516,20.3601,12.71,29.2959,26.8242,68.1443,23.1221,108.8523-3.8223,41.9558-25.3838,75.0244-42.7998,95.3777-41.2939,48.2603-104.2949,77.0723-168.5273,77.0723Z"/>
        <path class="cls-1" d="M583.6164,689.5723c8.1895-.0005,16.3745.5977,24.5034,1.8369,12.3701,1.8799,24.4199,5.21,36.03,9.75,27.6599,10.8101,52.79,28.4897,73.6299,49.8101,2.54,2.5996,5.02,5.25,7.4402,7.9497,4.29,4.7803,8.3999,9.71,12.3398,14.77,6.0801,7.8101,11.77,15.9399,17.0901,24.3101,8.04,12.6099,15.26,25.7798,21.8201,39.25,3.25,6.6499,6.3201,13.3799,9.26,20.1602,14.5901,33.6299,26.05,69.8999,22.73,106.4097-3.1201,34.2402-19.27,66.46-41.6201,92.5801-40.5085,47.3428-102.5105,75.3228-164.7273,75.3228-6.4224,0-12.8389-.2974-19.2427-.9028-51.6499-4.8799-100.8799-29.6597-136.5901-67.1797-11.6199-12.1899-21.8098-25.7402-30.1799-40.3804-6-10.4897-11.04-21.3999-15.2-32.6099-15.97-42.9697-19.03-90.4102-13.27-135.79,7.27-57.3501,45.0601-103.5698,93.6401-134.4097,30.4768-19.3516,66.3989-30.8755,102.3464-30.877M583.6232,679.5723v10l-.0022-10c-36.522.0015-74.7729,11.5205-107.7114,32.4351-56.2795,35.7275-91.1548,86.0137-98.2004,141.5938-6.3972,50.4014-1.6196,98.9971,13.8171,140.5317,4.4199,11.9106,9.7676,23.3818,15.8931,34.0908,8.665,15.1558,19.3044,29.3936,31.6221,42.3154,18.7007,19.6484,40.6123,35.7637,65.1206,47.8926,24.8503,12.2979,51.0151,19.8154,77.7671,22.3428,6.6489.6289,13.4397.9473,20.1833.9473,65.6741,0,130.095-29.4658,172.3254-78.8213,12.1646-14.2163,22.0891-29.54,29.498-45.5459,8.0032-17.2891,12.876-34.9961,14.4827-52.6279,1.6477-18.1201.0505-36.9355-4.8828-57.5229-3.8999-16.2754-9.9946-33.8652-18.6321-53.7744-3.1973-7.374-6.2886-14.1035-9.4495-20.5713-7.0391-14.4536-14.5684-27.9951-22.3726-40.2349-5.5781-8.7764-11.5127-17.2173-17.6311-25.0771-4.124-5.2964-8.4265-10.4458-12.7883-15.3062-2.5054-2.7949-5.1074-5.5747-7.73-8.2593-22.7512-23.2754-49.4263-41.3032-77.1423-52.1353-12.551-4.9077-25.3931-8.3813-38.1677-10.3223-8.4858-1.2939-17.2349-1.9507-25.999-1.9507h0Z"/>
      </g>
      <g>
        <path class="cls-2" d="M1059.8237,1251.0261c-36.0068,0-71.6885-10.0203-106.0557-29.7827-8.2461-4.7405-14.6074-9.0107-18.8164-11.8367-21.3047-14.3145-51.3965-39.4788-74.166-78.3401-9.7822-16.696-17.3643-34.5947-22.5332-53.199-11.7305-42.1758-11.7207-83.3145.0303-122.2725,11.377-37.7317,33.5977-72.0754,64.2617-99.3179,28.4766-25.2993,63.5527-43.4763,98.7666-51.1829,13.9883-3.0635,28.6406-4.6169,43.5498-4.6169,19.8799,0,36.8027,2.7478,48.001,4.5662,7.3076,1.1829,22.5205,3.6455,40.9092,9.3064,25.5957,7.8953,49.3594,19.4783,70.6338,34.428,1.8486,1.2913,3.7705,2.7593,5.8613,4.4792,21.8359,17.9194,50.7822,55.8301,66.5234,108.4792,11.2383,37.5969,10.5537,76.6187-2.0342,115.9817-10.5127,32.8708-26.7588,57.4646-35.5068,69.1992-9.3115,12.489-26.6436,35.7354-52.959,57.2185-32.4307,26.4756-68.3623,41.9109-106.7959,45.8767-6.5146.6726-13.1328,1.0134-19.6699,1.0134Z"/>
        <path class="cls-1" d="M1044.8603,805.4775c19.4695,0,35.7625,2.6445,47.1997,4.5015,8.71,1.4102,22.96,3.8301,40.24,9.1499,20.23,6.2402,44.6399,16.46,69.23,33.7402,1.79,1.25,3.6399,2.6699,5.5598,4.25,21.1301,17.3398,49.3301,53.9399,64.9102,106.0498,25.3799,84.9102-18.48,156.2402-36.76,180.7603-18.23,24.4497-68.6501,92.0698-156.26,101.1099-6.5405.6753-12.9353.9873-19.156.9873-44.9963,0-81.2581-16.291-103.564-29.1172-8.1401-4.6802-14.4202-8.9004-18.5901-11.7002-15.97-10.73-48.3599-35.3501-72.5701-76.6699-8.8298-15.0698-16.5698-32.3599-22.0298-52.0103-4.4502-16-16.9402-63.3296,0-119.4897,23.3999-77.6099,90.95-132.1001,159.3098-147.0601,15.2295-3.3354,29.5557-4.501,42.4805-4.5015M1044.863,795.4775v10l-.001-10c-15.271.0005-30.2832,1.5928-44.6216,4.7329-36.0354,7.8862-71.9114,26.4702-101.0173,52.3291-31.3555,27.8574-54.0837,62.9946-65.7273,101.6128-7.5977,25.1875-10.4304,51.5781-8.4192,78.4385,1.6968,22.6646,6.5369,40.0664,8.3591,46.6177,5.2844,19.0186,13.0352,37.3174,23.0361,54.3857,23.2471,39.6763,53.9543,65.3579,75.6211,79.915l.061.0415c4.2681,2.8652,10.7183,7.1963,19.1216,12.0278,35.1357,20.2036,71.6567,30.4478,108.5483,30.4478,6.708,0,13.4985-.3501,20.1831-1.04,39.4216-4.0679,76.2444-19.873,109.4443-46.9771,26.7917-21.8726,44.3647-45.4409,53.8054-58.1025,8.9351-11.9854,25.5266-37.1021,36.2605-70.665,12.9011-40.3408,13.5955-80.3569,2.0637-118.9365-7.4248-24.8335-18.05-47.936-31.5808-68.666-11.0974-17.0015-24.0837-32.0068-36.5667-42.2505-2.1782-1.7925-4.2026-3.3389-6.1782-4.7183-21.6777-15.2339-45.9126-27.0479-72.0078-35.0972-18.7202-5.7632-34.1663-8.2642-41.5894-9.4658-11.3521-1.8433-28.5144-4.6299-48.7952-4.6299h0Z"/>
      </g>
      <g>
        <path class="cls-2" d="M1188.6274,824.9351c-12.9092,0-25.7168-1.3167-38.0664-3.9131-1.2773-.2678-2.5684-.5569-3.8389-.8564-34.7793-8.0803-67.7783-26.2874-95.4131-52.6487-9.3623-8.9343-18.0283-18.7593-25.7578-29.2031-40.7217-55.074-55.6582-123.1294-40.9814-186.7183,13.7031-59.3704,51.7451-107.9608,107.1191-136.8204,34.1582-17.8062,74.1221-27.218,115.5684-27.218,29.2197,0,58.4297,4.519,86.8203,13.4316,5.1377,1.6168,10.2412,3.3762,15.1719,5.2303,9.6484,3.6128,18.6748,7.6112,26.8213,11.8816,20.6328,10.7894,36.9189,24.0367,48.4014,39.3716,2.334,3.1322,4.5352,6.4229,6.5488,9.7903,11.2002,18.7059,18.2158,41.9752,21.4482,71.1357,4.1338,37.2883,1.1543,75.7297-8.6152,111.1685-10.3564,37.5654-27.6436,70.6316-51.3799,98.2795-20.0479,23.3501-45.6084,42.7971-73.9189,56.2395-28.7275,13.6396-59.8232,20.8494-89.9277,20.8494Z"/>
        <path class="cls-1" d="M1207.2575,392.5571c28.8281-.0015,57.7827,4.5562,85.3225,13.2017,5.0198,1.5801,9.99,3.29,14.9099,5.1401,8.9199,3.3403,17.77,7.1802,26.26,11.6299,18.0898,9.4604,34.5601,21.7002,46.72,37.9404,2.25,3.02,4.3401,6.1499,6.26,9.3599,12.3699,20.6602,18.1001,45.0298,20.77,69.1201,8.0801,72.8896-11.05,150-58.8201,205.6396-39.6238,46.1519-99.7439,75.3462-160.0522,75.3462-12.3989,0-24.7988-1.2329-37.0378-3.8062-1.24-.2598-2.49-.54-3.72-.8301-34.95-8.1196-67.0698-26.5601-93.1099-51.3999-9.2-8.7798-17.6401-18.3599-25.1899-28.5601-77.74-105.1396-55.51-253.6196,64.4299-316.1299,34.8467-18.1646,73.9297-26.6504,113.2576-26.6519M1207.2685,382.5566v10l-.0042-10c-42.2585.002-83.0205,9.6099-117.8867,27.7847-56.6907,29.5464-95.6426,79.312-109.6797,140.1299-7.2534,31.4263-7.4233,65.1733-.491,97.5933,7.1819,33.5884,21.4211,64.9517,42.3223,93.2197,7.9036,10.6777,16.76,20.7192,26.3267,29.8491,28.2842,26.9805,62.0852,45.6201,97.751,53.9062,1.3276.313,2.6616.6108,3.9326.877,12.6797,2.666,25.8335,4.0186,39.0881,4.0186,30.8413,0,62.6792-7.3765,92.072-21.3325,28.9373-13.7402,55.0681-33.623,75.5674-57.4995,24.2212-28.2114,41.8533-61.9258,52.407-100.2075,9.937-36.0439,12.9678-75.1357,8.7649-113.0479-3.3123-29.8877-10.5508-53.8174-22.1292-73.1553-2.0972-3.5063-4.3928-6.9385-6.8206-10.1973-11.9468-15.9556-28.7996-29.6855-50.105-40.8276-8.323-4.3623-17.54-8.4458-27.3872-12.1333-4.9963-1.8789-10.1868-3.6685-15.4146-5.314-28.8823-9.0669-58.593-13.6636-88.314-13.6636h0Z"/>
      </g>
      <g>
        <path class="cls-2" d="M870.8129,912.1116c-48.7607,0-98.1934-18.7024-139.1924-52.6619-7.7344-6.3962-22.1357-18.3066-35.8896-36.1367-9.5146-12.3364-17.2861-25.7034-23.1006-39.7295-1.3516-3.2375-2.6416-6.6401-3.8301-10.1016-14.4189-42.0403-8.752-78.6672-6.332-94.3076,2.1572-14.0403,8.2822-42.2166,25.0566-73.1111,4.9756-9.1584,16.6025-30.5652,36.4082-52.7637,24.9434-27.9583,53.5605-46.7535,85.0576-55.8636,19.2666-5.5688,37.5361-8.0521,59.2383-8.0521,16.5195,0,35.7363,1.3839,64.2559,4.6272,19.1719,2.1791,32.2861,6.2914,40.9639,9.0125l1.8262.5713c43.876,13.6371,72.5322,48.6926,88.8447,75.699,9.1504,15.1428,15.1133,28.7913,18.5039,37.5745.5879,1.5171,1.2031,3.1699,1.8242,4.9065,10.1758,28.5671,23.4619,85.7566-1.8584,147.8816-21.8701,53.6526-60.585,81.2927-81.3838,96.1421-19.0605,13.6094-58.7236,41.928-116.9492,45.8594-4.4629.301-8.9863.4539-13.4434.4539Z"/>
        <path class="cls-1" d="M868.2299,494.3838c17.8743-.0005,38.1565,1.6914,63.6899,4.5952,20.0601,2.2798,33.1602,6.6802,41.8701,9.3901,41.8899,13.02,69.5598,46.21,86.0498,73.5098,9.7102,16.0703,15.54,30.1099,18.1201,36.79.5,1.29,1.1001,2.8901,1.78,4.79,7.6399,21.4502,24.3201,80.27-1.78,144.3101-21.3201,52.2998-59.5601,79.6099-79.6599,93.96-20.5601,14.6802-58.6902,41.1802-114.3801,44.9399-4.4421.2998-8.8154.4424-13.1062.4424-72.2883,0-122.6467-40.4492-136.0039-51.5122-8.73-7.2202-22.23-18.6299-35.1199-35.3403-8.1899-10.6196-16.1401-23.3896-22.4399-38.5898-1.3201-3.1602-2.5601-6.4302-3.7202-9.8101-13.73-40.0298-8.7598-74.8599-6.1199-91.9199,1.49-9.7002,6.6399-38.5801,24.51-71.4897,9.4399-17.3804,46.3401-85.3501,118.46-106.21,19.0254-5.4995,36.7607-7.855,57.8501-7.8555M868.2341,484.3838v10l-.0017-10c-22.1965.0005-40.8945,2.5444-60.6294,8.2485-32.4177,9.3765-61.8242,28.6689-87.4043,57.3418-20.1909,22.6323-32.0112,44.395-37.0586,53.688-17.1462,31.5767-23.4075,60.3916-25.6143,74.7588-2.4751,15.9941-8.2749,53.4751,6.5449,96.6826,1.2261,3.5718,2.5554,7.0771,3.9519,10.4199,5.97,14.4048,13.9636,28.1548,23.7485,40.8423,14.0942,18.2715,28.7771,30.4155,36.6653,36.9395,5.5769,4.6191,22.5642,18.6885,47.8511,31.1665,30.4438,15.0225,62.2471,22.6396,94.5261,22.6396,4.5688,0,9.2051-.1562,13.7795-.4648,59.6418-4.0269,100.0828-32.9023,119.5176-46.7793,10.0984-7.2095,25.3596-18.105,40.7317-33.9165,18.4224-18.9487,32.6802-40.6187,42.3777-64.4067,11.8374-29.0449,16.6338-60.2109,14.2554-92.6328-1.8499-25.2202-7.7183-45.9004-12.3152-58.8071-.645-1.8027-1.2747-3.4966-1.8762-5.0488-3.4614-8.9624-9.5518-22.9009-18.8855-38.3477-16.7598-27.7471-46.2642-63.7842-91.6406-77.8877l-1.8127-.5669c-8.8596-2.7783-22.2485-6.9771-41.8962-9.21-28.7158-3.2656-48.1001-4.6592-64.8149-4.6592h0Z"/>
      </g>
      <path class="cls-3" d="M25.2505,685.961c-15.5566-21.3201,17.5386-66.5391,21.4468-71.879,5.5276-7.5525,7.8313-9.233,47.4893-45.456,35.6569-32.5684,37.874-34.9359,45.9575-39.4799,21.5428-12.11,40.6704-14.8993,62.8085-18.1275,27.2861-3.9789,43.2393-6.0747,59.7447,2.8123,3.735,2.011,23.8741,12.8545,24.5106,30.6344.5365,14.9884-13.1082,25.9219-16.8511,28.9211-15.7427,12.6146-30.3586,10.0814-62.8085,15.0887-12.3521,1.906-34.4961,6.0169-58.2128,14.287-34.8553,12.1541-53.3902,18.6173-67.4042,36.1317-20.0512,25.0597-13.6798,51.2878-30.6383,56.4395-9.1576,2.782-20.6246-1.9471-26.0425-9.3723Z"/>
      <path class="cls-3" d="M409.7612,419.2937c-5.983-14.1943,11.7597-33.2938,47.4893-70.9136,39.882-41.9918,55.7107-49.0704,64.3405-52.2839,8.4007-3.1283,41.0216-15.2757,58.2128,0,.9587.8519,8.7911,8.0198,9.1915,18.5818.5269,13.8976-12.1841,23.9015-16.8511,27.5745-15.9557,12.5575-26.6517,8.0748-50.5532,16.8511-5.1293,1.8834-25.1752,9.6313-42.8936,26.0426-25.2731,23.4086-24.405,44.6166-41.3617,47.4894-10.4713,1.774-23.6916-4.1299-27.5745-13.3417Z"/>
      <path class="cls-3" d="M618.1016,296.0962c14.6038-6.5906,28.5789-2.4347,36.766,0,10.6656,3.1718,25.67,7.6338,29.1064,20.1137,2.1742,7.8962-.7169,17.4247-6.7236,22.9787-10.1531,9.3878-26.5946,5.0039-45.3615,0-17.1404-4.5702-20.8984-5.4031-22.4681-15.383-1.5464-9.8315-.5352-23.5503,8.6808-27.7095Z"/>
      <path class="cls-3" d="M984.0963,82.7991c-9.7528-15.1001-34.3944-14.0449-53.4841-13.2275-42.8208,1.8336-73.1047,21.4833-82.7234,28.2375-24.0116,16.8607-35.4238,34.9413-38.8519,40.6987-7.226,12.1359-21.2474,35.6846-11.7013,49.0213,6.6544,9.2968,22.6034,10.6167,33.7021,7.6596,16.3323-4.3515,16.5049-16.4572,34.0621-27.5745,8.04-5.091,23.7324-7.5484,54.7889-12.2553,33.0396-5.0075,42.3206-4.6566,52.0851-13.7872,9.3884-8.779,12.6027-20.1318,13.7872-24.5106,1.3745-5.0809,6.041-22.3313-1.6648-34.2619Z"/>
      <path class="cls-3" d="M771.2931,202.8482c-7.0516-2.973-16.3944,2.1723-21.4468,6.9728-6.8156,6.4757-6.3762,12.8487-10.7234,41.2254-4.1237,26.9176-6.1438,31.7885-1.8923,37.5105,5.931,7.9825,18.4588,10.0727,27.9349,7.5393,15.3854-4.1132,20.6116-19.8492,21.4468-22.364,1.5885-4.783,1.7833-8.8151-3.0638-34.118-5.9501-31.0599-8.1708-35.0439-12.2552-36.766Z"/>
      <path class="cls-3" d="M1173.0928,83.8192c-1.3954-20.4236,36.6611-36.9161,53.9891-44.4255,37.4272-16.2198,70.9454-15.834,94.4751-15.3192,5.8353.1277,39.1274,1.1288,77.0994,15.3192,14.4298,5.3925,25.7456,11.2733,33.7021,22.9787,2.3424,3.446,12.4208,18.2731,7.6595,32.1702-6.5768,19.1964-36.8463,23.1282-47.4894,24.5107-22.4542,2.9167-40.4879-2.1859-64.3405-9.1915-38.1896-11.2165-41.1299-19.6483-58.2128-17.4108-24.0306,3.1475-26.9856,20.9818-49.1996,22.0066-21.6793,1.0001-46.5946-14.7069-47.6831-30.6383Z"/>
      <path class="cls-3" d="M1236.7194,112.3745c-11.6744-2.908-23.808,2.6843-29.255,13.4117-3.2547,6.4099-6.8959,13.7656-10.7688,21.913-17.6296,37.0872-18.7817,45.8129-16.3357,54.2711,3.3167,11.469,13.2288,22.3776,25.9971,25.3884,16.9242,3.9908,32.4316-7.4115,39.8297-16.851,2.4998-3.1895,5.4114-7.8618,10.7234-45.9575,4.2256-30.304,3.3712-34.4331,1.1403-38.2979-4.4826-7.7655-12.985-11.799-21.3309-13.8779Z"/>
      <path class="cls-3" d="M926.0165,513.8309c-14.3466-17.2299-48.1813-8.9877-73.532-2.8123-24.4653,5.9598-41.7078,15.4148-58.3694,24.5514-21.1996,11.625-34.5021,18.9195-47.8433,33.597-8.7676,9.6457-15.4963,23.1789-28.5958,49.8514-15.9544,32.4857-23.9316,48.7285-28.5957,65.3617-9.8173,35.0107-17.1593,52.0248-8.1702,67.4043,6.6591,11.393,20.9456,21.0036,31.787,17.925,9.9893-2.8366,12.9093-15.2691,22.1736-43.9379,13.0414-40.357,19.5621-60.5355,27.1902-72.3037,3.614-5.5755,22.9324-34.2664,57.7427-47.2217,28.9106-10.7597,40.684-.3106,71.4636-15.2003,11.6564-5.6388,26.4758-13.067,34.7491-29.7749,6.2799-12.6822,10.7054-34.583,0-47.44Z"/>
      <path class="cls-3" d="M1125.0577,455.7358c-.9372-7.4145,26.1244-18.755,51.9221-21.1058,14.6607-1.336,40.1038-3.6546,49.8044,11.7092,5.2326,8.2874,4.7705,19.9549,0,28.6775-5.7287,10.4747-17.2727,15.9752-27.2105,15.7513-13.0314-.2936-15.739-10.26-34.8798-20.6108-22.9793-12.4266-38.9251-8.7955-39.6362-14.4213Z"/>
      <path class="cls-3" d="M1094.9341,469.8192c-8.5976-5.5121-29.6748,12.1216-40.9569,27.3693-6.2303,8.4203-13.4288,18.1492-9.7775,26.7673,3.5722,8.4311,16.0125,12.2214,25.3672,10.3376,16.3992-3.3024,22.7526-23.9292,25.3671-32.4175.8766-2.8461,8.2456-26.7703,0-32.0567Z"/>
      <path class="cls-3" d="M408.6178,926.5364c-19.2421-9.8933-11.0057-64.6653,0-97.7328,3.5754-10.7424,23.739-71.3256,72.1221-87.6984,7.5502-2.555,22.5199-7.3857,34.7234,0,12.7518,7.7175,15.0689,24.2866,16.3405,33.3793.6364,4.5508,4.4413,31.759-12.2553,50.8318-17.6025,20.1076-38.1093,8.4614-52.6027,26.7951-13.8887,17.5687.041,34.4637-14.8016,54.907-10.5537,14.536-31.7944,25.55-43.5263,19.518Z"/>
      <path class="cls-3" d="M613.6799,715.779c-11.9803-15.6168-39.6826-12.6486-55.323,0-16.2665,13.1548-16.3749,34.2643-16.3404,37.4857,20.5245,21.5078,50.2362,22.8005,65.3617,8.7324,11.8334-11.0062,16.4427-32.9988,6.3017-46.2181Z"/>
      <path class="cls-3" d="M1321.2505,805.4776c-19.7046,11.0821-17.6459,14.3263-28.5957,18.8174-23.1339,9.4885-40.0609-1.8185-47.5149,8.4048-4.8384,6.6359-1.6731,16.84,0,22.2335,3.3829,10.9057,9.0127,12.9248,18.9191,26.5532,12.7177,17.4959,9.4579,22.4483,17.8807,29.1606,10.6614,8.4962,27.2133,9.5902,39.3108,5.5628,35.2374-11.7309,38.9004-68.9835,39.8298-83.5101.7028-10.9846,2.1119-33.0108-8.1703-38.0218-6.6741-3.2525-15.7897,1.8742-31.6595,10.7996Z"/>
      <path class="cls-3" d="M1380.4845,737.1782c-7.9497-10.9865,9.1804-33.607,25.532-55.1991,5.8425-7.715,10.9027-13.1783,18.3829-13.9394,7.4235-.7553,15.0475,3.3427,19.0747,9.1915,6.145,8.9243,2.5712,19.9713,0,27.9193-1.9463,6.0164-8.6733,26.8103-29.2875,34.3786-9.6937,3.5589-27.6007,6.0813-33.7021-2.3509Z"/>
      <path class="cls-3" d="M955.8888,915.9352c-3.1989-3.5522-14.8716,9.648-38.2979,12.2862-21.1697,2.3841-28.6202-6.483-39.3967,0-8.4222,5.0667-10.8904,14.7053-15.7522,33.6906-3.0361,11.8562-3.556,21.4361-4.5958,40.5958-1.3424,24.7368.3832,30.0745,3.0638,34.4681.5557.9107,9.3564,14.908,21.4469,13.7872,9.734-.9023,15.5922-11.0468,17.6169-14.5532,7.9401-13.7498,2.2024-22.6629,6.6591-39.0638,2.1936-8.0728,4.6854-9.9679,19.3835-30.6383,21.9819-30.9139,33.2063-46.8702,29.8723-50.5726Z"/>
      <path class="cls-3" d="M1006.442,881.9546c-1.0089-3.3242,12.4174-4.8924,26.8085-19.9149,17.837-18.6196,16.9718-36.8382,32.1703-40.9107,6.6267-1.7757,14.3239-.3306,16.0851,0,6.1538,1.1553,12.4508,2.3374,16.0851,7.2085,5.3287,7.1422,2.0072,18.2937-1.532,24.5106-5.0695,8.905-13.6294,13.0333-23.6538,16.8511-27.8127,10.5925-64.2808,17.7983-65.9631,12.2553Z"/>
    </g>
  </g>
</svg>