<?xml version="1.0" encoding="UTF-8"?>
<svg id="Capa_2" xmlns="http://www.w3.org/2000/svg" viewBox="0 0 879.9081 717.606">
  <defs>
    <style>
      .cls-1 {
        fill: #70569b;
      }

      .cls-2 {
        fill: #604593;
      }

      .cls-3 {
        fill: #47327c;
      }

      .cls-4 {
        fill: #a486ce;
      }

      .cls-5 {
        fill: #8566b2;
      }
    </style>
  </defs>
  <g id="Capa_1-2" data-name="Capa_1">
    <g>
      <g>
        <path class="cls-4" d="M275.7432,714.7822c-.9727-.5347-1.4814-1.5197-1.5234-2.9323-.1543-5.1798,6.4014-29.9611,26.667-42.7374,3.9072-2.4656,7.002-3.6448,9.9951-4.7852,3.9619-1.5095,7.7041-2.9353,13.5742-7.3569,5.4971-4.1407,13.8047-10.3979,17.5234-21.0381,2.6455-7.5487,2.0449-14.5398,1.4092-21.9414-.3955-4.6029-.9893-6.9832-1.8896-10.5863-.5166-2.0686-1.1592-4.6431-1.8975-8.2111-3.666-17.6676-6.0762-29.2858-3.0576-42.3011,1.0791-4.6476,2.4062-7.5883,3.4727-9.951,1.3604-3.0134,2.1816-4.8323,1.834-8.594-.8125-8.948-7.373-17.6938-11.6758-17.6938-.0693,0-.1377.0023-.2061.0072-.9492.0665-1.4248.6218-3.0479,2.9679-1.5527,2.2428-3.6777,5.3143-7.7764,8.7455-6.457,5.4128-13.3164,8.692-20.3867,9.7457-1.5312.2275-3.0625.3429-4.5518.3429-3.3389,0-6.0449-.5718-8.2188-1.0312-1.5312-.3235-2.8525-.6028-3.9834-.6028-1.1045,0-1.9697.2665-2.8955.8909-3.332,2.2476-4.2129,7.3494-5.0645,12.2832-.7041,4.0559-.3828,6.3137-.043,8.7042.3584,2.5215.7285,5.1289.0488,9.4948-1.3809,8.915-5.6992,15.5814-8.1494,18.7615-2.4375,3.162-4.2627,4.5349-5.7295,5.6383-1.2754.959-2.1973,1.652-3.335,3.4321-4.0879,6.3776-2.7686,14.0587-2.0605,18.1853.417,2.4312.8896,5.1864-1.7656,5.8201l-.2852.0681-.3447.0059c-1.4902.0005-2.7793-1.1165-4.4492-3.8558-3.54-5.8053-8.1729-18.2642-3.083-28.1356,1.4492-2.8181,3.1621-4.3291,4.8184-5.7902,1.8291-1.6139,3.7207-3.2827,6.0068-7.1873,2.376-4.053,5.6299-9.6014,3.668-13.9608-1.2715-2.8228-4.6455-5.3937-7.0781-5.3937-.2617,0-.5117.03-.7412.089-1.9053.4875-2.6152,3.5725-3.6162,8.5658-1.2461,6.2131-2.9521,14.7223-9.8428,21.2745-4.0361,3.8352-7.499,4.818-10.8467,5.7683-3.125.8868-6.0762,1.7244-9.9082,5.0808-8.1436,7.1277-10.2363,16.9902-11.2422,21.73-.5771,2.7203-1.0332,4.8691-3.3906,4.8723l-.249.0004-.2764-.0521c-1.8486-.365-2.3623-2.3274-2.5557-3.0662-1.5947-6.097-1.8877-27.4883,11.3828-38.8168,4.3604-3.7184,8.4111-4.8132,11.9854-5.7789,3.8047-1.0282,6.8096-1.8401,9.9531-5.491,3.1309-3.6296,3.4443-6.7465,3.8418-10.6926.417-4.1471.8896-8.8474,4.4502-14.9897,7.7715-13.3925,21.6787-18.8463,25.7559-20.199,4.6621-1.5507,7.6299-1.6698,10.7725-1.7958,3.3066-.1328,6.7266-.27,13.0732-2.0669,5.2188-1.4741,11.7119-3.308,18.374-8.0862,8.0059-5.7373,11.9072-12.5035,15.3496-18.4733,4.1611-7.2378,9.2959-16.1703,9.6484-28.8744.1689-5.9506.5195-18.3296-6.9375-25.941-.2666-.2698-.3564-.347-1.0889-.9652-1.0488-.8848-3.2305-2.726-8.7314-7.5436-3.125-2.7322-5.3662-4.7198-6.8496-6.0754-1.5488-1.444-2.0869-2.0314-2.6494-2.7382-3.4023-4.1992-4.4512-7.502-5.2168-9.9136-.6367-2.0029-.9023-2.7245-1.8135-3.2943-.8086-.5044-1.9648-.7719-3.3428-.7719-6.292,0-16.1279,5.4293-20.7393,13.5115-2.167,3.8007-2.3086,6.6626-2.4727,9.9763-.1865,3.7837-.3984,8.0721-3.6436,13.918-3.165,5.7152-7.4209,9.2181-15.1465,15.577-6.5332,5.3728-10.4463,7.7377-13.8984,9.8243-2.5527,1.5427-4.7568,2.875-7.5352,5.202-10.8174,9.0647-14.9756,20.1248-17.209,26.0667-1.2998,3.4561-2.0156,5.3597-4.2246,5.3604h-.415s-.4736-.1476-.4736-.1476c-1.0381-.3551-1.7412-1.2222-2.0928-2.5779-1.3623-5.261.8994-25.5785,14.0645-40.1635.5049-.5619.6562-.6981,2.5068-2.3666,2.0146-1.8159,6.207-5.5944,15.4111-14.0129,9.957-9.1039,12.125-11.1689,13.8564-15.1354.5537-1.2562,5.2354-12.4078.2129-19.9204-4.1152-6.1656-12.9248-7.0859-17.8105-7.0859-4.1572,0-8.5557.6132-12.3838,1.7268-2.7676.7981-3.5703,1.3789-8.7881,5.1586-3.1904,2.311-8.0117,5.8036-15.7764,11.1234-3.3369,2.2871-6.0283,4.0978-8.2422,5.587-7.4033,4.9794-9.1621,6.1624-11.9199,9.5182-6.0059,7.2942-8.2617,14.5985-10.252,21.0431-2.2002,7.1426-2.4688,11.8623-2.7051,16.0265-.2969,5.2108-.5527,9.7111-4.4707,16.0217-1.5898,2.5627-2.9287,4.1426-4.4785,5.9718-1.7998,2.1238-3.8398,4.531-7.0508,9.3796-6.1553,9.2986-9.2461,13.9659-10.3389,20.5115-.5537,3.3124-.2285,4.7794.6406,8.6998.6377,2.8776,1.5107,6.8184,2.4297,13.3186,1.7168,12.1528,2.6543,18.7939,1.5322,27.0852-.6025,4.4698-2.2031,16.348-10.5078,26.3059-9.8779,11.8342-25.3125,16.2448-32.7217,16.2451-1.7998.0001-4.2969-.2261-5.1846-2.1832-1.2822-2.8391,1.6016-4.407,5.5938-6.5769,6.5088-3.5383,18.625-10.1248,23.4531-22.9189,3.2109-8.4999,2.5703-17.9589,2.1455-24.2181-.3701-5.4813-1.1719-8.7506-1.9473-11.9122-.915-3.7273-1.7783-7.2477-1.8887-13.6039-.1094-6.0081-.2754-15.0916,4.0488-24.736,2.3838-5.3275,4.7939-7.811,7.125-10.2129,2.2031-2.2701,4.2842-4.4144,6.7158-9.2058,2.8438-5.6187,7.6025-15.0208,3.8047-22.9484-2.9795-6.2109-9.8516-8.7795-13.6826-9.7577-1.9395-.4969-3.9541-.7487-5.9912-.7487-8.9209,0-16.4365,4.6993-19.6455,6.7059-8.4199,5.2582-11.4033,10.6072-14.8584,16.8007-3.2363,5.8011-6.9043,12.3762-15.4561,19.897-11.0615,9.7334-22.2471,13.9719-32.1152,17.7117-15.9102,6.0178-30.751,8.1952-36.8574,8.1952-1.7207,0-4.9229,0-5.5615-2.5072-.749-2.8871,1.624-3.8397,10.4551-7.3842,9.3066-3.7358,24.8848-9.9886,40.3926-19.9937,8.4414-5.4434,13.8164-10.0841,18.5518-16.0184,1.4209-1.7798,2.1006-2.8317,3.335-4.7412,1.1934-1.8473,2.8291-4.3772,6.0078-8.9388,7.1641-10.3145,11.1123-15.9979,15.0439-18.4357,3.3809-2.0966,5.5732-2.3259,9.5527-2.7422,2.6445-.2766,6.2676-.6556,11.9863-1.7207,7.5898-1.4091,15.4248-2.8636,24.0059-6.4397,7.5117-3.124,12.2559-6.4368,20.8691-12.4508l.1016-.0714c7.0049-4.894,13.0557-9.121,19.1787-16.3995,6.9736-8.2751,7.8477-12.9879,8.1348-14.5366.3213-1.6833,1.1689-6.1198-.4346-11.1786-.7617-2.4272-1.5781-3.4614-3.0605-5.3386-1.0107-1.2789-2.2676-2.8707-3.8125-5.3247-2.8008-4.4319-3.8135-7.3645-4.7061-9.9518-.8096-2.3459-1.5088-4.3718-3.4502-7.3867-1.4541-2.2487-2.9453-4.042-10.3096-10.7334l-3.1836-2.8998c-10.7871-9.8308-17.2988-15.7646-21.083-16.4056-.7529-.1284-3.0381-.5178-6-.5178-4.7871,0-11.5029,1.0292-16.3057,5.9324-3.4375,3.5081-5.4336,8.4315-5.9346,14.6335-.3096,3.8596.3633,6.0415,1.1436,8.568.75,2.4292,1.5996,5.1826,1.4131,9.3708-.3037,7.0574-3.252,13.9249-8.7637,20.4075-4.7119,5.5559-13.4404,12.4327-28.2471,13.6321-1.1719.095-2.3633.1428-3.5469.1428-12.8916.0001-24.3096-5.838-26.5635-8.8376-.8477-1.1292-.7266-2.153-.5791-2.6627.2734-.9572,1.1807-1.9917,2.8984-1.9917.8359,0,1.9336.2321,3.5938.583,3.2373.6847,8.1299,1.7194,14.1387,1.7194,4.7656,0,9.3848-.6744,13.7285-2.0048,4.0176-1.2264,11.4922-3.5084,15.4238-10.1176,1.5869-2.6747,3.3477-7.334,2.7188-14.3284-.292-3.3208-1.0898-5.124-1.8613-6.8678-.9092-2.0551-1.8496-4.1801-1.7168-7.8951.0889-2.5306.6025-4.344,6.3711-16.1764.8174-1.6715,1.5361-3.1274,2.1689-4.4066,3.5684-7.2213,4.0068-8.2408,3.7383-9.9369-.3506-2.2073-2.9004-4.9457-7.5303-9.9171-2.6914-2.8987-4.3945-4.4174-5.8965-5.7573-1.7295-1.5431-3.2236-2.8757-5.4443-5.6105-2.4678-3.0197-5.5449-6.7854-7.5654-12.4803-1.0488-2.9604-3.2041-9.0457-1.6143-16.189.5156-2.3528,1.1826-3.5955,2.1914-5.4768.7168-1.3354,1.6973-3.1643,3.0654-6.2289,1.5898-3.5552,2.501-6.0924,4.0107-10.2959,3.2041-8.879,5.3115-16.6704,6.707-21.826,1.9541-7.2241,2.418-8.9407,4.8252-8.9407h.1855l.2041.0291c.7812.1222,1.4463.5624,1.8906,1.2423,1.7676,2.71,1.3281,18.2697-2.9033,34.2117-1.7646,6.6306-3.3076,10.0854-4.4355,12.608-1.1416,2.5553-1.6631,3.7216-1.6104,6.4529.3145,17.4059,23.3613,30.9202,30.9346,35.3612,6.8613,4.0258,10.4551,5.0275,14.2588,6.0878,3.8262,1.0665,7.7832,2.1694,14.8203,6.1647,16.001,9.0836,25.9326,20.7668,37.4316,34.295,9.1533,10.7557,13.4355,17.5286,16.2695,22.0103,3.2012,5.0634,4.3984,6.9579,8.9326,9.098,2.6191,1.238,4.5029,1.698,6.9521,1.698,2.3125,0,5.2158-.4302,9.2344-1.0256,6.958-1.031,17.4717-2.5892,35.459-3.5779,2.1377-.1169,4.1152-.2111,5.9492-.2985,12.2588-.5836,17.332-.8253,21.5117-5.0942,2.5723-2.6207,3.1279-4.9994,3.8975-8.2913.8818-3.7732,1.9795-8.4691,6.6377-14.4379,2.8115-3.5994,5.1191-5.3632,7.3516-7.0687,2.4717-1.8895,5.0283-3.8431,8.7148-8.7206,1.7188-2.2771,2.7949-4.0181,3.6592-5.417,1.5469-2.5026,2.665-4.3105,5.5752-6.3597,3.8838-2.7249,7.002-3.0997,9.7529-3.4305,2.3613-.2838,4.2266-.5081,6.582-2.1758,4.7178-3.3425,7.6475-9.962,7.124-16.0972-.2012-2.3412-.9365-5.137-7.6309-13.5-5.5859-6.9797-9.0488-10.0068-12.7148-13.2115-3.2979-2.8828-6.708-5.8638-11.7432-11.745-1.2529-1.4624-2.3555-2.8114-3.3779-4.0627-3.7314-4.5687-6.1973-7.5869-11.1846-10.1495-2.29-1.1702-5.3955-2.7572-8.46-2.7572-.8506,0-1.6328.1188-2.3916.3633-2.8613.9243-4.2119,3.4098-8.0498,11.1277-.5303,1.0649-1.1006,2.2124-1.7236,3.4484-6.457,12.821-9.6982,19.257-14.1123,24.4867-2.5479,3.028-8.5205,10.1255-18.8057,14.4799-3.3701,1.4204-10.2373,3.8004-18.4023,3.8005-3.9258.0001-7.75-.5474-11.3672-1.6273-5.4697-1.6322-8.2422-3.8134-10.6875-5.7379-2.3906-1.8807-4.4541-3.505-9.0645-4.5381-1.7383-.3894-3.3154-.5787-4.8223-.5787-2.0391,0-3.6768.343-5.4102.7062-1.7646.3698-3.5908.7522-5.7979.7523-1.9346.0001-3.9209-.2996-6.0713-.9159-9.0176-2.5918-15.1387-9.145-20.5391-14.9269-3.4199-3.6608-4.8857-5.9655-6.0625-7.817-1.0889-1.7113-1.875-2.9476-3.9668-4.7781-8.5781-7.4799-19.5732-7.8287-23.1865-7.9434-1.207-.0385-3.7168-.118-3.7168-2.618v-.1661l.0215-.1648c.3936-2.9459,5.6943-2.9459,10.8203-2.9459,8.3506,0,23.54,1.5574,31.4414,11.9872.9805,1.2921,1.7227,2.558,2.4395,3.7822,1.3926,2.3737,2.707,4.6156,5.7725,6.9769,3.9824,3.0599,8.8447,4.7781,14.4502,5.1049.8125.0449,2.0518.1135,3.4004.1135,5.2705,0,7.168-1.0823,7.458-1.7218.209-.4633-1.1201-2.1525-2.1875-3.5096-2.0391-2.5919-4.8311-6.1416-6.5928-11.5295-2.0498-6.246-1.5732-11.6566-.624-22.436.3799-4.3412.8574-7.1208,1.2412-9.3542.5215-3.0343.7832-4.5574.3135-7.387-.5312-3.2091-1.7969-7.4009-7.1543-14.1678-6.9668-8.8042-16-15.9716-26.8506-21.3035-1.125-.5529-2.2891-1.1246-2.2891-2.7183v-.6332l1.0107-1.8668,1.5195-.007c2.2676,0,45.5449,13.2223,48.4131,37.959.2705,2.3503.1045,4.1924-.1475,6.9806-.3164,3.5111-.7949,8.8171-.8564,19.3619-.0498,8.0061.2041,12.1438,1.9023,17.0471,1.6621,4.7322,4.5605,9.5005,8.1592,13.4167,3.6143,3.9408,10.3389,11.2731,20.7949,11.9669.5449.0364,1.082.0535,1.6074.0535,3.3955,0,8.626-.7419,14.2568-4.2762,5.9922-3.74,8.9785-8.9352,12.4375-14.9508,1.6152-2.8079,2.1777-4.2493,2.8906-6.0742.7432-1.901,1.585-4.0557,3.7041-8.131l.0469-.0914c3.0918-5.9504,5.7617-11.0895,10.4648-16.7009,3.1172-3.7261,5.6182-5.8444,7.4443-7.3911,2.2148-1.875,3.2246-2.7308,3.8047-4.9224.5117-1.944.2256-3.0071-1.208-7.7095-.5029-1.6488-1.1279-3.7007-1.8535-6.2993-1.1348-4.0696-3.792-13.5988-4.666-21.3312-1.0361-9.061.3086-15.8589,1.7324-23.0559,1.3848-7.0352,3.0996-11.9917,4.6133-16.3649,2.0977-6.0607,3.7539-10.8479,3.8486-18.9293.0703-5.8306-.7188-9.069-2.7227-11.1787-1.9932-2.1193-5.1045-2.7197-11.9219-4.0353-4.1191-.7997-7.665-1.488-11.4531-1.488-1.0605,0-2.0908.052-3.1514.1588-3.6367.3608-6.043,1.4543-8.8291,2.7205-1.8799.8544-4.0107,1.8226-6.6982,2.635-12.5205,3.7657-20.0762,6.0382-26.459,6.0385-1.8057.0001-3.4795-.181-5.1191-.5537-9.2656-2.1007-18.5762-8.9646-23.7168-17.4865-1.6094-2.6755-2.4277-4.8961-3.1494-6.8555-.9766-2.6534-1.8213-4.9451-4.4707-8.1682-3.3799-4.114-7.0098-6.4148-9.1787-7.7894-1.8447-1.1696-4.1416-2.6251-3.0869-5.0166.8877-2.0475,3.6055-2.0475,4.498-2.0475,3.6133,0,11.8301,1.6559,17.0664,7.923,2.4229,2.8911,2.9326,5.2998,3.4248,7.6293.3896,1.8428.793,3.7482,2.2773,6.3422,3.4258,6.0133,9.7354,10.7761,16.4678,12.4342,1.5244.3771,2.9561.5524,4.5088.5524,3.8926,0,8.4395-1.1582,15.3232-2.9113,4.1328-1.0535,6.5928-1.9718,8.9707-2.8599,3.002-1.1211,5.8379-2.1799,11.2812-3.3115,5.7207-1.1898,9.1553-1.9042,12.7686-1.9042.9922,0,1.9717.0546,2.9932.1669,2.166.239,3.8027.6233,6.0674,1.1553,2.3711.5569,5.6191,1.3197,11.1045,2.266,1.5303.2656,2.8906.4851,4.082.4851,1.2432,0,2.1514-.2388,2.9443-.7738.7705-.5165,1.8047-1.5677,2.3906-3.6652.1738-.6471.4922-1.8352-1.0098-7.1984-.8496-3.0189-1.6875-5.2522-2.1885-6.5865l-.1846-.4962c-1.9258-5.2383-3.2773-9.6932-3.8076-12.5443-1.75-9.3652,1.9922-17.4531,3.5898-20.9067,3.665-7.9414,9.0049-12.6511,12.1953-15.4652,4.1904-3.7231,7.8066-5.7716,14.3711-9.4902,6.1074-3.459,9.7031-5.0323,12.3291-6.1813,2.7598-1.2073,4.2793-1.8724,6.7676-3.8287,6.7871-5.3368,9.7773-11.7173,11.2139-14.7838.8164-1.7423,1.4609-3.1187,3.2295-3.1187h.5732l.5498.2581c.5225.2552,1.4082.9086,1.5332,2.4493.2539,3.1456-3.0273,18.4762-15.1309,27.0317-3.627,2.5643-6.3311,3.2974-8.9473,4.0062-2.6621.7216-5.1768,1.4031-9.1074,4.1674-8.1582,5.7397-12.043,13.2875-13.5059,16.1289-2.793,5.3948-5.6787,10.9678-4.8525,17.6073.3994,3.2015,1.4014,4.7714,2.7891,6.9438,1.1855,1.8572,2.6611,4.1682,3.9111,7.8885,2.7471,8.1659,1.6953,15.1333.1016,25.6796-.8828,5.8452-1.7305,8.7028-3.1348,13.4369-1.0107,3.4062-2.2686,7.6455-4.0645,14.7152-4.3447,17.1361-4.832,23.4438-5.041,26.1373-.8955,12.0946.1016,18.4677,1.0889,20.2203.1621-.1335.3379-.2843.4971-.4205,1.0039-.8586,2.5195-2.1562,4.9541-3.4718,3.4229-1.8523,5.8594-2.2122,8.2148-2.5603,1.6738-.2473,3.4053-.5032,5.7451-1.3357,5.8574-2.0879,9.6719-5.6941,11.7207-7.6315,4.2939-4.0649,6.4355-8.0665,8.7031-12.303,3.1104-5.8103,4.4824-10.1964,5.9355-14.8401,1.2314-3.9374,2.5059-8.0088,4.8809-13.2689.5449-1.2062,1.0312-2.4253,1.5449-3.7161.6826-1.7119,1.3887-3.4822,2.2412-5.2107.2852-.5796.5479-1.0966.7861-1.5658,1.0537-2.0706,1.3564-2.7131,1.3359-3.7404-.0215-1.233-.4863-2.0084-1.4521-3.5078-.4023-.6238-.8574-1.3309-1.3066-2.1594-2.0889-3.8604-2.2988-7.05-2.6787-12.8406l-.0068-.1064c-.3594-5.6077-.7646-11.9585,2.6348-18.9565,2.5928-5.3353,6.2832-8.807,8.9219-10.7799,1.2812-.9673,4.71-3.5552,9.7236-4.8484,1.6943-.4358,3.1953-.6385,4.7236-.6385.8281,0,1.5322.0596,2.1533.1122.4473.0378.8682.0765,1.2949.0765.5156,0,1.1152-.0533,2.001-.4403,1.7334-.7544,2.3164-1.764,3.1992-3.2924.9795-1.6976,2.1992-3.8104,5.1592-5.4528,2.1865-1.2178,4.7158-1.8363,7.5127-1.8363,3.7227,0,6.9746,1.072,8.7217,1.6481,3.4922,1.1439,8.9854,3.9385,10.252,6.5647.3926.8145.4492,1.6918.1602,2.4703-.1621.4427-.8711,1.9227-3.0088,1.9231-.8584.0001-1.8291-.2288-3.1729-.5453-1.8877-.4447-4.4736-1.054-7.2578-1.054-2.1982,0-4.1592.3658-5.9961,1.1185-2.1699.8866-3.2246,1.9257-4.5615,3.2412-1.6416,1.6165-3.5029,3.4486-7.4102,4.9493-2.9355,1.1232-4.9756,1.278-6.7432,1.278-.2773,0-1.2793-.0148-1.5117-.0148-1.0518,0-2.043.0543-3.5244.7222-6.8125,3.0771-9.1201,12.35-9.7959,16.1938-.4814,2.6686-1.9395,10.7568,2.2256,16.0635.6436.8243,1.2275,1.3348,1.9678,1.9812,1.0889.9514,2.4453,2.1356,4.2139,4.5577,1.6348,2.2461,2.4551,3.9282,3.0537,5.1564.6094,1.2518.7178,1.3962.9141,1.4707.1709.0652.3594.0962.5811.0962,2.3105,0,6.1289-3.1073,8.4854-6.1115,1.1885-1.5137,1.5811-2.4517,2.3643-4.3203.3711-.8862.833-1.9893,1.4795-3.3683l.5938-1.2708c2.8838-6.1891,5.374-11.5342,10.3994-15.0383,6.7354-4.6927,13.7627-4.799,18.4121-4.8691.2246-.0037.4521-.0055.6787-.0055,5.2568,0,14.167,1.1804,16.6006,3.714.625.65.9502,1.4639.917,2.2916-.1426,3.1615-3.4873,3.2806-9.0283,3.4778-7.9395.2827-21.2285.7557-26.0967,8.3333-1.3818,2.1498-1.6699,4.2189-2.0039,6.6146-.4697,3.3722-1.0029,7.1941-4.6992,11.3624-3.5674,4.0299-7.6641,5.6809-13.8652,8.1802-6.0811,2.4496-9.6943,2.9493-12.333,3.3142-2.3271.322-3.6094.4994-5.5479,1.8556-1.707,1.1952-2.9424,2.7028-10.3447,21.6703-1.7422,4.4669-2.8965,7.5116-3.7344,9.7218-1.6924,4.4658-2.1475,5.666-3.5449,8.2566-2.8828,5.3629-6.834,12.7126-14.5527,19.1256-4.6787,3.8823-8.4482,5.5065-11.4775,6.8114-3.1846,1.3723-5.1074,2.2007-6.6523,5.0479-1.5684,2.896-2.8164,8.0216.1455,15.986,1.8936,5.0768,5.4395,9.2321,10.541,12.3486,1.9971,1.2329,7.2842,4.0867,13.4395,4.0867,1.1943,0,2.3779-.1079,3.5176-.3208,4.6689-.8713,7.0078-3.202,12.1309-8.3087,1.5654-1.5598,3.3389-3.3279,5.4814-5.3516,9.9463-9.3839,16.3633-13.4325,21.0488-16.3887,4.9512-3.1243,7.4375-4.6925,10.3018-10.1803,1.0654-2.0377,1.8682-4.0164,2.7178-6.1112,1.8701-4.6079,3.8027-9.3727,8.5635-14.5195,3.0176-3.2635,5.8623-6.3406,10.7168-8.4292,1.8057-.7754,3.2422-1.1384,4.3965-1.4301,1.6621-.4202,2.2207-.5892,2.9053-1.3478.7207-.7993.8047-1.394.9414-2.9957.1387-1.6138.3281-3.8239,1.7354-6.6606.9707-1.947,1.8301-2.7933,2.8252-3.7732.832-.8201,1.8682-1.8407,3.5371-4.0868,2.8984-3.8998,4.2119-5.666,4.6562-8.1498.6602-3.6971-.8516-6.9165-1.8516-9.0469-2.0781-4.4355-5.0332-7.0159-6.4531-8.256-2.6562-2.319-1.4395-3.7882-1.04-4.271.5127-.6079,1.2305-.9333,2.0352-.9333,2.3828,0,11.877,4.4413,15.5146,14.2482.3711.9956,3.5176,9.9968-.8232,18.0553-1.083,2.0176-2.1895,3.132-3.166,4.1154-1.0186,1.0259-1.8984,1.912-2.9258,3.9812-2.2949,4.6451-2.4443,7.7405-1.8213,8.3691.1953.1976.6846.3113,1.3398.3113,1.709,0,3.9834-.7349,5.6436-1.2715,2.3916-.7728,5.3076-2.0768,10.4033-6.3472,4.0068-3.3649,6.7617-6.3728,9.9473-9.9551,6.2305-7.0219,9.6787-11.2858,11.3359-13.3348,1.7061-2.1105,2.165-2.6776,3.4609-2.6776h.7871l.6572.4551c.4102.296,1.2637,1.0905,1.0469,2.5717-.415,2.8458-11.4463,31.7437-35.3633,40.1163-6.4385,2.2543-11.6162,2.2938-16.1836,2.3286-5.4326.0414-9.3564.0713-13.6494,3.7339-3.5332,3.0078-4.2568,5.8182-5.3506,10.0721-1.0244,3.9849-2.2998,8.9442-6.4434,15.2577-3.2275,4.9124-5.5918,6.7031-14.3896,13.3658-3.2646,2.4725-7.3281,5.5496-12.7139,9.7446-23.1152,18.0171-25.2441,21.3269-25.625,23.7812-1.9668,12.7946,15.8838,26.0415,21.4014,29.7968,2.9307,1.993,3.9883,2.3394,7.4951,3.4866,3.6611,1.1979,9.7891,3.2026,22.707,8.6067,2.2764.9525,4.3281,1.828,6.2031,2.6285,10.2617,4.3796,14.9453,6.3785,22.4785,6.458l.4375.0022c4.04,0,10.2559-.6066,16.9219-3.4961,3.3066-1.432,17.7324-9.2014,21.3926-12.1287,13.6377-10.9133,25.4561-42.2217,29.8008-57.2517.043-.1514.0986-.3694.168-.6405,3.1885-12.4414,9.9336-22.9518,20.0488-31.239,2.4268-1.9888,4.2598-3.8511,6.1992-5.8226,3.4102-3.4656,7.2754-7.3937,15.3848-13.1699,7.1709-5.1166,10.249-10.4615,13.2256-15.6302.8262-1.4353,1.6074-2.7909,2.4639-4.1187.8486-1.339,4.3281-11.5138-.7334-24.2731-1.2119-3.0544-2.4893-4.2266-4.8076-6.3545-2.082-1.911-4.6738-4.2893-8.1426-8.88-6.5273-8.6505-10.791-17.1758-12.6914-25.3623-3.5771-15.3762,1.0684-32.224,5.6475-37.9911,1.2383-1.5594,2.498-2.3175,3.8516-2.3175h.1143l.1914.014c3.5996.3438,3.6543,4.4132,3.7432,11.1553.1406,10.5173.374,28.1202,12.083,39.6639,2.6084,2.5673,5.0117,4.0719,7.335,5.5269,3.707,2.3217,7.208,4.5145,10.4395,10.15,6.2646,10.9098,4.5957,22.6227,3.377,31.1749-.8779,6.0995-2.6855,18.6582-11.7891,29.6804-4.1963,5.0903-7.3535,6.7527-11.3516,8.8575-3.0332,1.5968-6.4717,3.4069-11.498,7.3312-6.4482,5.0249-18.374,15.9187-25.8184,32.4366-3.3643,7.4764-7.9717,17.715-5.9414,30.2324.6309,3.8555.1748,7.9509-.2275,11.5642-.3721,3.3451-.7949,7.1364.168,8.303.0879.1062.3545.4297,1.3721.5112.7432.0576,1.6514.1738,2.7021.3083,2.4531.3141,5.8125.7441,9.6533.7441,9.9365,0,18.168-2.8302,25.1641-8.6523,9.0547-7.55,24.1172-15.9619,39.2305-16.9232,3.4082-.2139,7.0566-.3177,11.1572-.3177,5.2959,0,10.2227.1761,14.1816.3175,2.5273.0905,4.71.1685,6.1904.1685.9893,0,1.4023-.0353,1.5537-.0544,7.1875-2.8625,6.667-7.4227,4.8154-17.3921-2.124-11.4377-5.0342-27.1023,9.8867-44.6464,1.4814-1.7496,5.0596-3.3875,13.7305-7.2513,4.2656-1.9009,9.5752-4.2664,15.6895-7.1764,24.0293-11.4393,29.0244-14.7469,34.6953-19.5674,1.8232-1.553,6.6387-13.76,7.291-29.3398.5898-14.3153-10.1816-25.3657-14.7812-30.0846-1.9834-2.0344-2.6514-2.7198-2.6055-4.0369l.0371-1.0671.8223-.7719c.4922-.4329,1.1182-.6647,1.7764-.6647,2.8447,0,13.1885,7.4232,20.7568,15.7662,7.3174,8.0665,15.7383,20.7728,14.3008,35.4965-1.5791,16.0543-14.0674,27.4708-18.1719,31.2223-3.9805,3.6522-6.5625,4.9886-14.2256,8.9554-4.2959,2.224-10.1797,5.2699-18.9404,10.0626-19.5635,10.7062-22.7812,13.3727-24.3945,17.5983-.6504,1.7126-1.9053,2.9672-3.2344,4.2953-3.0859,3.0848-6.9268,6.9242-5.3027,19.2157,1.7129,12.9446,6.6572,21.4388,14.2969,24.5635.3379.1385.7119.2054,1.1465.2054,3.3955,0,9.624-3.9838,18.2441-9.4976,2.4609-1.5746,5.1611-3.3016,8.1289-5.1547.4043-.2517.8838-.5707,1.4424-.9421,4.8506-3.2224,14.9434-9.928,31.5713-12.0077,2.0996-.2657,5.5449-.5828,10.0195-.5828,6.6182,0,16.4775.7135,25.8633,4.1128,8.0801,2.927,10.4512,4.386,13.7324,6.4053,2.0654,1.2709,4.6357,2.8525,9.5127,5.2888,13.3193,6.6489,24.3672,9.6141,35.8213,9.6141.3271,0,.6543-.0026.9834-.0074,26.6172-.4152,45.1807-10.6696,52.1689-14.5299,2.2773-1.2584,2.8896-1.5966,3.793-1.5966h1.6826l.709,1.5945c.1602.4006.4404,1.4215-.3105,2.5311-1.9717,2.9117-36.4141,27.2201-70.2422,27.2219-8.7656.0004-16.752-1.6903-23.7393-5.0253-3.5264-1.6803-6.332-3.542-9.3018-5.5129-5.0713-3.3646-10.3145-6.8438-19.9512-9.7817-4.1367-1.2634-12.7412-3.8916-22.4756-3.8916-5.9746,0-11.6172.9855-16.7725,2.9294-4.9326,1.8666-6.7109,3.5398-9.6562,6.312-2.6016,2.4476-5.8379,5.4938-12.3184,9.7747-9.1943,6.089-26.3115,17.4257-46.0859,17.4265-1.5176.0001-3.0439-.068-4.5361-.2024-5.7285-.5204-8.6787-1.8207-11.8018-3.1974-3.373-1.4869-7.1963-3.1721-15.9463-4.5636-5.2363-.8319-10.6504-1.6923-16.5098-1.6923-4.6025,0-8.8896.537-13.1035,1.6416-6.5381,1.715-12.9434,5.9103-26.8086,15.2361-6.9707,4.6902-11.7461,8.2141-15.2324,10.7872-6.8174,5.0309-9.6396,7.1132-15.4658,7.858-1.1846.1511-2.3408.2278-3.4385.2278-4.4287.0002-7.5342-1.2122-10.5371-2.3849-3.1113-1.2146-6.0498-2.3619-10.7617-2.3619-.6357,0-1.2988.0216-1.9717.0643-11.6338.7427-25.6426,7.7156-26.2666,15.5924-.7607,9.7059,1.5225,23.209,4.2129,24.9091,2.7881,1.7639,5.874,2.5853,9.7139,2.5854h.001c3.4531,0,7.0986-.6527,10.958-1.3438,4.2549-.7617,8.6553-1.5494,13.2607-1.5494,4.5205,0,8.5801.7727,12.4102,2.3622,6.8408,2.8416,10.2041,5.4121,13.7646,8.1335,3.667,2.8024,7.8223,5.9788,16.9766,10.2611,11.1104,5.1952,16.6631,7.792,23.5283,8.0056.3496.011.6934.0165,1.0293.0165,7.0498,0,10.9258-2.3481,15.832-5.321,4.9502-2.999,10.5605-6.3981,20.4473-7.9753,2.5986-.4133,7.415-1.1796,13.2607-1.1796,9.9854,0,18.7979,2.2086,26.1914,6.5641,2.8467,1.6754,5.0664,3.4225,7.0254,4.9639,3.1221,2.4573,5.1855,4.0807,7.832,4.0807.2959,0,.6045-.0201.918-.0602,2.626-.3337,4.0508-1.8341,6.0225-3.9106,2.2227-2.3403,4.9883-5.2532,10.1084-6.3538,1.1953-.2562,2.3975-.386,3.5742-.386,2.7852,0,5.0215.6957,6.9951,1.3096,1.4639.4554,2.7285.8489,3.9014.8489.7939,0,1.5254-.1818,2.3018-.5719,1.7705-.8906,2.3838-2.172,3.4014-4.5481.8291-1.9344,1.8604-4.3419,4.0566-6.7159,4.3633-4.7203,10.9648-7.0154,20.1826-7.0154,2.8447,0,5.4707.2205,7.3877.3816,8.8896.7438,13.5703,3.1355,19.4951,6.1632,4.4561,2.2767,9.5049,4.8571,17.8262,7.5389,9.1377,2.9431,17.0156,5.4806,25.7246,5.4806,1.3047,0,2.627-.0579,3.9307-.1719,16.5938-1.4421,27.8574-11.4011,33.2705-16.1873,2.375-2.1003,3.2646-2.8862,4.6055-2.8862.7764,0,1.5107.3319,2.0156.9106.2998.3467.7725,1.0823.6553,2.2096-.3174,3.0533-7.8145,14.1346-18.6152,22.3534-9.123,6.9589-18.4893,10.5024-27.8359,10.5305h-.1104c-9.0068.0006-19.6543-3.2756-25.2002-5.2286-3.9717-1.4069-6.7656-2.6995-9.2305-3.8398-3.5215-1.6293-6.5635-3.0363-11.9785-4.3079-4.542-1.0647-8.7969-2.0621-12.5146-2.0621-2.834,0-5.084.5619-7.0811,1.7683-2.4941,1.5055-3.2295,3.2327-4.1592,5.4196-1.0059,2.3647-2.2578,5.3077-5.9238,7.8383-3.4814,2.3945-6.627,2.7172-9.2451,2.7172-.9688,0-1.9521-.0507-2.9033-.0996-.9824-.0507-1.999-.1031-3.0381-.1031-2.1436,0-5.0752.199-8.751,1.7511-6.3994,2.6807-10.6074,6.4783-11.8545,10.6959-2.1699,7.3442,4.7051,15.5089,9.7246,21.4707,11.8906,14.1133,26.8174,20.7803,34.6572,23.4982,10.377,3.6099,21.1553,5.3643,32.9541,5.3643,1.8564,0,3.4893-.0386,4.8682-.0712,1.0439-.0247,1.9482-.0455,2.6992-.0455,1.6904,0,4.8359,0,5.0615,2.8042.041.4836-.0186,1.4521-.8828,2.3922-2.4453,2.6605-11.7334,4.5914-22.0859,4.5917-7.832.0001-16.0811-1.0094-24.5176-3.0005-21.1494-4.9874-36.4746-13.0756-44.3164-23.3899-4.5127-5.9425-6.6143-7.8289-8.8389-9.8259-2.4697-2.218-5.0254-4.5117-10.5781-11.9865-.3779-.5067-.7285-1.2129-1.4854-2.7615-3.0459-6.2268-11.1348-22.7677-25.7578-23.5933-1.623-.0908-3.0303-.5151-4.5205-.9644-2.0068-.6049-4.2812-1.2905-7.7695-1.2905-4.1826,0-9.2783.9658-15.5781,2.953-10.251,3.236-17.5928,6.4807-23.6699,9.2681l-.7588.3488c-4.8281,2.2178-7.4873,3.4395-9.6299,3.4395l-.1035-.001c-9.4033-.1921-13.7949-2.8497-19.8721-6.5277-5.1768-3.1328-11.6191-7.0315-23.9883-11.4474-7.0068-2.5096-16.6016-5.9456-24.335-5.9456-3.958,0-6.9238.9382-8.8164,2.7886-.3818.3744-.8887.6735-2.001,1.3287-4.2158,2.4835-15.4141,9.0808-16.4092,18.9155-1.084,10.6635,4.5605,14.8405,9.541,18.5259,2.2705,1.6798,4.2305,3.1305,5.249,5.089.4482.8613.9678,1.6541,1.5879,2.4237,6.5234,8.1775,22.0459,10.2196,45.541,13.311,9.3916,1.2367,14.833,1.3915,19.2051,1.516,5.5449.1578,9.208.2621,16.0225,2.6426,14.4873,5.0763,26.8828,13.6786,35.8477,24.8777,5.1855,6.472,8.0947,12.4019,10.4316,17.1665,3.1221,6.3643,4.7871,9.4519,8.4746,10.0928,2.4385.4219,4.3213,1.457,6.1406,2.4581,2.3252,1.2788,4.5215,2.4867,8.0791,2.4867,1.4814,0,3.1484-.214,4.9531-.636.1406-.0359.6211-.2169,1.0449-.3768,2.7432-1.0352,9.167-3.4594,18.9062-3.4594,3.0938,0,6.3154.2448,9.5742.7274,7.7803,1.151,12.542,1.7039,16.7422,2.1915,4.7012.5459,8.7607,1.0173,15.4795,2.1569,1.4355.2444,2.9424.5931,4.5371.9624,4.0303.9329,8.5986,1.9902,14.3828,1.9902,3.457,0,6.9023-.3741,10.5332-1.1437,18.0361-3.8203,30.1514-18.5983,35.3252-24.9089,2.501-3.0505,3.3438-4.0781,4.918-4.0781.7207,0,1.3936.2832,1.8955.7975,1.3037,1.3378.6641,3.1992.4238,3.9-2.5332,7.3707-21.6982,36.1455-50.9033,40.1521-2.5332.347-5.3008.5229-8.2285.5231-8.8066.0001-17.4355-1.5542-23.1465-2.5826-5.5859-1.0035-10.04-2.1523-13.9707-3.1658-5.6816-1.4655-10.1699-2.6229-15.2783-2.6229-1.8604,0-3.7275.151-5.709.4614-8.7275,1.3618-17.1309,5.1204-17.292,7.734-.1396,2.191,5.7793,7.6846,28.8438,14.406,7.8916,2.3108,12.3525,2.8129,17.5166,3.3939,3.9609.4458,8.4512.9512,15.0029,2.3945,13.7988,3.0442,29.4375,6.4943,41.9248,16.9336,18.4492,15.4283,23.2266,40.5779,22.1104,48.4662-.1074.759-.4336,3.0686-2.2949,3.8893-.3789.1663-.7744.2499-1.1807.2504h-.0039c-2.5234.0001-3.4629-2.4242-5.5186-7.7324-4.0186-10.3744-11.498-29.6852-30.8916-39.1383-5.2227-2.5454-14.1543-4.0131-24.4971-5.7124-3.7383-.6144-7.6035-1.2495-11.6182-1.9857-11.0664-2.033-17.7334-2.9159-22.6006-3.5605-7.6133-1.0082-11.0879-1.4684-19.9404-4.7219-.3418-.1259-1.1797-.3265-2.0664-.5391-6.2891-1.5071-22.9961-5.5104-34.8574-22.1674-4.4512-6.254-5.9697-10.5648-7.4375-14.7336-1.5488-4.3942-3.0107-8.5448-7.8682-15.3198-4.043-5.6324-12.4258-17.3113-26.5752-23.6875-4.7373-2.1388-7.1094-2.3413-13.4482-2.8828-5.0547-.4316-12.6924-1.0841-25.7412-3.1265-15.4209-2.415-23.1621-3.6273-30.1562-6.4065-9.5-3.788-16.2607-8.5813-20.7354-11.7532-1.8799-1.3331-3.9639-2.8102-5.1416-3.3395.2451,1.2008,1.1074,3.3483,1.8291,5.1453,2.4355,6.062,6.1162,15.223,4.999,26.5299-.9043,9.1084-4.4111,14.7946-7.5049,19.8115-3.2549,5.2788-5.8262,9.4485-4.7705,16.4816.4502,2.9912,1.2598,4.5106,2.4844,6.8105,1.5156,2.8453,3.5908,6.7426,5.8848,15.1525,3.2783,12.0112,2.9092,18.0488,2.3457,21.5453-.6797,4.2701-1.8564,6.6696-2.9941,8.9899-.8154,1.6643-1.6592,3.3854-2.4365,6.0123-3.332,11.3174-.2461,21.6497.7686,25.045,3.9092,13.15,13.3281,20.9017,18.3887,25.0662,2.8965,2.3845,5.1855,4.2681,3.4365,6.6351-.4199.5656-1.2402,1.2346-2.7832,1.2349-4.5557.0005-23.4717-7.9044-32.1094-25.3621-3.8516-7.804-5.5244-16.2057-4.8398-24.2993.3096-3.6625.9863-5.6995,1.7021-7.8561.6953-2.0946,1.4824-4.4689,2.1436-9.1339,1.0107-7.1514,1.9639-13.9044-.6514-21.3066-1.1484-3.2429-2.3037-4.6461-3.5264-6.1315-1.3535-1.6432-2.8857-3.5056-4.1562-7.4442-2.791-8.6604-.9277-16.5709.7158-23.5502,1.6572-7.0491,3.4238-10.3923,4.8428-13.0786,1.1748-2.2213,2.1016-3.9757,2.8018-7.3904,2.5469-12.4216-2.0957-26.9475-11.5537-36.1458-2.5811-2.5168-9.4336-9.1969-16.5723-9.1969-.6523,0-1.3018.056-1.9307.167-2.9395.5214-4.4062,2.0455-6.6279,4.3528-2.3955,2.4891-5.3779,5.5867-11.1484,8.2195-5.6289,2.5785-10.6709,3.0681-20.7158,4.0438-4.1699.4087-6.9385.4924-9.8125.4924l-3.0654-.0098c-2.0449,0-4.4131.0354-7.8584.2922l-1.8271.1351c-10.7832.7952-16.7236,1.2333-19.8613,3.5294-11.7783,8.6083-11.3887,29.0452-8.2529,40.6819,1.1787,4.3694,2.542,6.826,3.8594,9.2015,1.7129,3.0885,3.3311,6.0056,3.876,11.8984.5742,6.1274-.5303,9.7406-1.8105,13.9241-1.0352,3.3845-2.208,7.2205-2.7793,13.4832-.8096,8.8347-1.5752,17.1777,2.7812,25.4366,2.8086,5.323,8.832,12.6078,21.5869,17.084,2.9746,1.0404,4.4805,1.1821,6.7598,1.3969,2.4463.2303,5.4912.517,11.3799,1.9132,10.7393,2.5426,16.6553,3.9434,23.0674,8.4349,8.2715,5.7626,14.0664,13.894,16.3105,22.8927,1.8848,7.5295,1.3447,15.4697-1.6055,23.5978-2.918,8.0505-7.1836,12.1896-10.6104,15.5153-3.126,3.0328-5.3838,5.2241-6.1279,9.4186-1.5459,8.7094,5.3525,17.0348,9.4746,22.0089,2.8662,3.4584,5.1299,6.1899,2.834,8.4398-.4336.4286-1.2354.9481-2.5498.9482-4.7373.0006-18.3447-8.2465-23.0146-21.8312-1.416-4.1772-3.293-12.5223.0156-21.5895,2.5449-6.9684,6.6221-10.1504,10.2197-12.9576,3.082-2.4055,5.5166-4.3055,6.5732-8.2782,2.3223-8.7473-3.9873-21.3904-12.2754-24.5955-1.0879-.4188-2.0371-.6062-3.0742-.6062-.9736,0-1.9971.1556-3.292.3524-1.9424.2952-4.3594.6626-7.7627.6626-1.6318,0-3.3066-.0822-5.1221-.2515-3.7344-.3506-11.4316-1.0732-19.2344-4.8374-7.6748-3.6949-12.6865-9.0282-15.8359-12.5731.8545,3.402,1.9756,7.9902,2.5605,13.9054.5098,5.1959,1.3633,13.8896-1.6221,23.938-3.0176,10.1169-8.543,16.8119-11.1982,20.0293-6.9434,8.434-14.1963,12.9014-18.9971,15.8574-6.2617,3.8643-10.1201,5.2964-13.8525,6.6813-2.4648.9148-4.793,1.7787-7.7256,3.3529-14.3447,7.6909-21.1641,20.3986-24.4414,26.5054-1.6895,3.1472-2.3887,4.45-4.2393,4.4502h-.6367s-.6318-.3235-.6318-.3235Z"/>
        <path class="cls-1" d="M360.1371,4.9995c.0112,0,.0221.0029.0326.0078.84.4102-1.84,16.6299-13.9501,25.1899-6.83,4.8301-9.83,2.3901-18.0499,8.1699-8.4701,5.96-12.5599,13.6699-14.29,17.0303-2.9301,5.6597-6.0299,11.6699-5.11,19.0596.85,6.8203,4.24,7.6704,6.8101,15.3203,2.5,7.4297,1.6499,13.5898,0,24.5098-1.47,9.7402-2.8201,10.8604-7.1501,27.9102-4.1199,16.25-4.8198,22.8101-5.1099,26.5601-.23,3.1001-1.54,21.9199,3.0699,23.1499.1382.0361.2705.0537.3993.0537,1.4373,0,2.4558-2.1616,6.7507-4.4839,5.36-2.8999,7.6799-1.6299,13.61-3.7397,6.34-2.2603,10.4-6.0898,12.6-8.1699,4.5-4.2603,6.76-8.3999,9.1899-12.9399,5.8301-10.8901,5.7201-16.8101,10.8901-28.2603,1.3199-2.9199,2.33-5.9697,3.75-8.8501,1.5599-3.1699,2.4199-4.3896,2.3799-6.46-.0499-2.7798-1.6299-4.1699-3.0599-6.8101-1.84-3.3999-2.02-6.29-2.39-11.9199-.35-5.4697-.72-11.2998,2.39-17.6997,2.5699-5.29,6.3099-8.48,8.17-9.8701,1.4299-1.0801,4.4299-3.29,8.85-4.4302,1.7026-.4375,3.0073-.5591,4.0989-.5591,1.3607,0,2.3905.1885,3.4491.1885.905,0,1.8307-.1377,3.002-.6494,4.8501-2.1099,3.74-6.1699,8.5701-8.8501,2.0354-1.1333,4.2256-1.522,6.2997-1.522,3.3063,0,6.318.9878,7.9403,1.522,4.7,1.54,9.27,4.6602,8.85,5.79-.0765.209-.3052.2939-.6655.2939-1.5634,0-5.6039-1.5991-10.4305-1.5991-2.2043,0-4.5726.3335-6.9438,1.3052-5.53,2.2603-5.4102,5.6704-11.92,8.1704-2.5758.9854-4.3213,1.1113-5.8455,1.1113-.5225,0-1.0188-.0146-1.5139-.0146-1.3582,0-2.7058.1108-4.5507.9429-8.7,3.9302-10.87,15.9902-11.23,18.04-.52,2.8804-2.13,11.8604,2.72,18.04,1.8501,2.3701,3.3401,2.6499,6.13,6.4702,3.37,4.6299,2.99,6.6899,5.1,7.4897.4647.1772.957.2588,1.4675.2588,3.5531,0,8.0043-3.9468,10.4525-7.0688,2.0499-2.6099,2.1801-3.9897,4.14-8.1699,3.05-6.5098,5.37-11.98,10.1599-15.3198,6.1001-4.25,12.3801-4.3501,17.02-4.4199.2131-.0034.4277-.0049.6416-.0049,7.3552,0,15.0768,1.9668,15.0184,3.4048-.12,2.6699-26.5699-2.1401-34.73,10.5601-3.8099,5.9302-.76,11.23-6.4701,17.6699-3.1699,3.5801-6.8999,5.0898-12.9299,7.52-11.37,4.5801-13.4199,1.9702-18.38,5.4399-2.34,1.6401-3.7,3.4902-11.24,22.8101-5.23,13.4102-5.17,14.0298-7.15,17.7002-2.79,5.1899-6.6199,12.2998-13.95,18.3896-9.52,7.9004-15.0901,5.8804-18.73,12.5903-3.98,7.3496-.74,16.0601,0,18.0498,3.08,8.2603,9.4199,12.29,11.58,13.6099,2.1552,1.3301,7.8756,4.4536,14.7441,4.4536,1.2903,0,2.6207-.1104,3.976-.3633,7.0199-1.3101,9.5299-5.48,18.8699-14.3003,20.53-19.3701,25.79-15.6201,31.8501-27.23,3.53-6.75,4.3799-13.04,10.8999-20.0898,2.9401-3.1802,5.5-5.9502,9.8701-7.8301,4.1199-1.77,6.1499-1.1602,8.1699-3.3999,2.5601-2.8398.5901-5.2402,3.0601-10.2202,1.51-3.0298,2.4299-2.5,6.1299-7.48,3.04-4.0898,4.5601-6.1299,5.1101-9.1997.8-4.48-.97-8.25-2.05-10.5503-3.12-6.6597-8.0701-9.5801-7.8301-9.8701.0155-.0186.0526-.0278.1094-.0278,1.113,0,9.8215,3.5884,13.1707,12.6182.25.6699,3.16,8.8701-.6799,16-1.97,3.6699-3.88,3.6401-6.13,8.1699-.42.8501-4.16,8.4102-1.36,11.2397.764.7715,1.874,1.0527,3.1179,1.0527,2.094,0,4.5677-.7964,6.4121-1.3926,3.25-1.0498,6.4199-2.77,11.24-6.8101,4.1799-3.5098,7-6.6001,10.21-10.21,9.8334-11.0825,12.6466-15.1733,12.9279-15.1733.0048,0,.0088.001.0121.0034.47.3398-10,29.98-33.71,38.2798-13.71,4.8003-21.71-1.0898-30.63,6.52-7.87,6.7002-4.0099,13.29-12.2599,25.8604-4.1001,6.2397-6.6001,6.9697-26.55,22.5098-24.53,19.1201-26.0601,22.1499-26.5601,25.3701-2.36,15.3599,19.5901,30.29,22.47,32.25,6.47,4.3999,5.1101,1.6499,30.6401,12.3301,14.9399,6.25,20.1499,9.1797,29.6199,9.2798.1456.0015.3015.0024.4664.0024,3.2543,0,10.1851-.3521,17.9137-3.7021,3.1399-1.3604,17.97-9.2803,21.96-12.4702,15.3199-12.2598,27.49-47.6099,30.6399-58.5098.7101-2.4902,3.6801-17.7603,19.4001-30.6401,6.8099-5.5801,8.8298-9.8999,21.45-18.8901,9.6699-6.8999,12.47-14.4297,16.34-20.4297,1.12-1.7402,4.9601-12.7603-.51-26.5503-2.62-6.6001-5.98-6.1602-13.2799-15.8198-2.1201-2.8101-9.5-12.5703-12.25-24.4199-4.296-18.4639,3.7421-37.2437,7.0623-37.2437.0264,0,.0519.001.0776.0034,4.1899.3999-4.11,31.96,14.3,50.1099,6.96,6.8501,12.47,6.6104,17.36,15.1401,5.84,10.1699,4.24,21.3799,3.0699,29.5898-.86,5.9702-2.5599,17.9204-11.24,28.4302-6.95,8.4302-10.6899,6.6201-22.46,15.8101-5.66,4.4102-18.52,15.54-26.5601,33.3799-3.51,7.8003-8.28,18.3999-6.1299,31.6602,1.58,9.6499-4.4001,21.8301,3.58,22.4697,2.3757.1846,6.9252,1.061,12.5558,1.061,7.8073,0,17.6948-1.6836,26.7642-9.231,8.3101-6.9297,23.01-15.4097,37.79-16.3501,3.6766-.231,7.4136-.3125,10.9949-.3125,8.7295,0,16.5439.4858,20.3735.4858,1.2012,0,2.0095-.0479,2.3315-.1733,20.9301-8.1699-10.22-32.1699,15.8302-62.7998,1.8799-2.2202,12.2-5.9897,28.5898-13.79,24.24-11.54,29.3701-14.9302,35.24-19.9199,2.6301-2.2402,7.51-15.3701,8.1702-31.1401.8098-19.6797-18.1902-33.46-17.3601-34.1997.0227-.02.0601-.0298.1111-.0298,2.3887,0,35.2026,21.5464,32.5688,48.5195-1.48,15.0503-13.4099,26-17.3699,29.6201-5.8201,5.3398-8.1101,5.23-32.6799,18.6699-19.99,10.9399-23.5901,13.8198-25.53,18.8999-1.72,4.5303-11.1201,6.2603-8.6802,24.73,2.7202,20.5503,12.7002,25.27,15.8301,26.5503.6438.2642,1.3379.3916,2.0928.3916,5.1914,0,13.2659-6.022,27.6973-15.0317,3.74-2.3301,13.9299-10.3301,32-12.5898,2.5127-.3179,5.8691-.5635,9.709-.5635,7.3926,0,16.5801.9097,25.011,3.9634,13.03,4.7197,10.49,5.3398,22.98,11.5801,12.4492,6.2148,24.113,9.8774,36.9375,9.8774.3406,0,.6799-.0024,1.0225-.0078,33.0654-.5156,54.4558-16.126,55.9243-16.126.0405,0,.0657.0117.0757.0361.47,1.1748-34.8735,26.3115-68.2383,26.3115-7.8262,0-15.5403-1.3823-22.6616-4.7812-9.3801-4.4702-14.02-10.6802-29.6001-15.4302-4.9382-1.5083-13.4155-4.0005-23.2056-4.0005-5.5947,0-11.6179.814-17.6543,3.0903-9.9102,3.75-8.6201,7.1899-22.47,16.3403-9.0879,6.0181-25.7224,17.0122-44.7087,17.0122-1.4253,0-2.8618-.0615-4.3113-.1924-11.2301-1.02-10.3502-5-27.5802-7.7402-5.241-.8325-10.85-1.7231-16.9025-1.7231-4.3411,0-8.9093.4575-13.7374,1.7231-7.0901,1.8604-14.01,6.4604-27.5701,15.5801-20.39,13.7202-21.72,17.23-29.62,18.2402-1.1228.1431-2.1575.2075-3.121.2075-8.2877,0-11.3795-4.7471-21.2992-4.7471-.6769,0-1.3854.022-2.1298.0693-12.6901.8101-27.8501,8.4199-28.6001,17.8901-.6799,8.6699.97,24.4399,5.3701,27.2202,3.5258,2.231,7.2162,2.9717,11.0477,2.9717,7.573,0,15.7019-2.8931,24.2201-2.8931,3.7472,0,7.5682.5596,11.4521,2.1714,13.53,5.6196,12.45,9.8398,30.6399,18.3496,11.42,5.3403,17.1201,8.0103,24.51,8.2402.3762.0117.7455.0176,1.1067.0176,15.2136,0,17.5084-10.2705,36.6733-13.3276,2.5597-.4072,7.2123-1.1484,12.8671-1.1484,7.4019,0,16.5217,1.269,24.9231,6.2183,7.3701,4.3384,10.5808,9.3906,16.126,9.3906.3987,0,.8086-.0264,1.2339-.0806,7.1602-.9097,7.78-8.46,16.3401-10.2998,1.0906-.2339,2.1018-.3306,3.0493-.3306,4.4824,0,7.5474,2.1587,10.8958,2.1587,1.0918,0,2.2136-.2295,3.4248-.8384,4.77-2.3999,3.8501-7.1299,8.1702-11.7998,4.7485-5.1372,12.1509-6.2129,18.3472-6.2129,2.7419,0,5.2471.2104,7.1829.373,14.8198,1.2397,17.1199,7.2598,36.76,13.5898,9.2942,2.9937,17.3845,5.6011,26.4912,5.6011,1.3579,0,2.7383-.0581,4.1487-.1812,22.5151-1.957,35.9167-19.064,37.6582-19.064.0562,0,.1001.0176.1318.0542.77.8896-6.1699,12.2397-17.5901,20.9297-7.25,5.5303-16.3098,9.9902-26.3298,10.02h-.1033c-9.9819,0-22.2842-4.3525-24.4067-5.1001-9.4001-3.3296-11.8901-5.9697-21.4302-8.21-4.6863-1.0986-9.0684-2.1284-13.0857-2.1284-3.0034,0-5.8032.5757-8.3743,2.1284-6.28,3.79-3.98,9.04-10.21,13.3403-2.7356,1.8813-5.2195,2.2749-7.825,2.2749-1.8716,0-3.8057-.2031-5.9414-.2031-2.7935,0-5.9312.3472-9.7236,1.9482-2.03.8496-11.02,4.6499-13.28,12.29-2.55,8.6299,4.8801,17.46,10.21,23.7896,13.4302,15.9404,30.27,22.3501,35.75,24.25,13.8118,4.8047,25.822,5.5024,33.7739,5.5024,3.2532,0,5.8271-.1167,7.5674-.1167,1.6377,0,2.5366.103,2.5688.5044.1184,1.4023-7.5686,4.2837-20.4773,4.2837-6.696,0-14.7961-.7749-23.9429-2.9336-8.8198-2.0801-32.02-8.1602-42.8999-22.4702-9.6599-12.7197-8.97-7.75-19.3999-21.79-1.7002-2.2798-10.1602-26.2896-29.1101-27.3599-3.354-.1875-6.0504-2.2588-12.4302-2.2588-3.8159,0-8.9493.7412-16.33,3.0688-10.74,3.3901-18.51,6.8799-23.96,9.3799-4.6804,2.147-7.6572,3.5605-9.3469,3.5605-.0179,0-.0355,0-.0531-.0005-16.15-.3301-15.62-8.0298-43.0699-17.8301-7.0802-2.5356-17.0293-6.0908-25.1758-6.0908-4.2224-.0005-7.9596.9546-10.5642,3.501-1.0701,1.0498-17.8201,8.6401-19.15,21.7798-1.7301,17.02,12.47,20.04,15.0599,25.02.53,1.02,1.15,1.9604,1.8601,2.8403,7.1399,8.9497,23.22,11.0698,47.1599,14.2197,21.72,2.8604,23.25.0303,34.73,4.04,4.6801,1.6401,21.72,7.8403,34.72,24.0801,11.73,14.6401,11.51,26.6099,20.4301,28.1602,4.9604.8579,7.5435,4.9814,14.6472,4.9814,1.5891,0,3.4043-.2061,5.5229-.7017,1.5593-.3696,8.0061-3.7705,19.3821-3.7705,2.7761,0,5.8435.2026,9.2078.7007,16.6301,2.46,19.6101,2.21,32.1702,4.3398,4.8538.8267,10.9023,2.9878,19.3381,2.9878,3.2959,0,6.9556-.3296,11.0518-1.1978,24.4246-5.1738,37.9951-28.9331,39.7249-28.9331.0422,0,.0771.0142.1052.043,1.53,1.5703-18.05,35.5801-49.03,39.8301-2.5798.3535-5.2373.5-7.8884.5-8.6023,0-17.1384-1.541-22.7417-2.5498-13.5615-2.4365-20.5757-5.8213-29.6545-5.8213-1.9136,0-3.9177.1499-6.0955.4912-7.3699,1.1499-19.0798,4.8599-19.3999,10.0498-.5,7.8604,25.3201,15.4102,30.6401,16.96,14.4099,4.2202,18.0198,2.6001,32.6799,5.8301,13.6899,3.02,28.8499,6.3701,40.8599,16.4102,20.5801,17.21,23.29,46.8799,20.4102,48.1499-.0574.0254-.116.0376-.1743.0376-3.0247,0-7.6018-33.1089-35.3157-46.6177-7.49-3.6499-21.3301-5.0801-36.76-7.9097-28.0901-5.1602-27.9001-2.9399-42.1301-8.1704-3.3398-1.23-22.54-3.2598-35.7501-21.8096-8.7599-12.3101-5.48-16.3501-15.3099-30.0601-4.22-5.8804-12.7999-17.8501-27.58-24.5103-9.17-4.1396-10.4399-1.6001-39.8301-6.1997-15.26-2.3901-22.8999-3.5903-29.6199-6.2603-16.0046-6.3818-23.6722-15.4702-27.4653-15.4712-.4208-.0005-.7932.1113-1.1248.3511-3.83,2.77,7.96,15.27,6.13,33.7803-1.7899,18.0298-14.5199,21.8398-12.26,36.9102,1.12,7.4297,4.3199,7.1797,8.4301,22.25,3.3,12.0898,2.73,17.7598,2.29,20.4897-1.0901,6.8398-3.4102,8.1001-5.3601,14.6899-3.53,11.9902-.29,22.9199.77,26.4702,5.8301,19.6099,23.37,27.9297,22.21,29.5-.1088.1465-.3741.2207-.7729.2207-4.0338,0-21.7495-7.563-29.8669-23.9707-1.1801-2.3901-5.5601-11.52-4.5901-22.98.5801-6.8604,2.47-7.25,3.8301-16.8501,1.01-7.1499,2.05-14.5103-.77-22.4902-2.6001-7.3398-5.42-6.5601-7.66-13.5098-2.5199-7.8198-.9401-14.9502.77-22.21,2.9301-12.4702,5.98-12.3501,7.66-20.54,2.76-13.46-2.4-28.8501-12.26-38.4399-2.902-2.8291-10.1676-9.9048-18.3162-9.9053-.781,0-1.5697.0649-2.3639.2051-7.4401,1.3203-7.64,7.8599-18.38,12.7603-5.24,2.3999-10.1399,2.8799-19.9199,3.8296-4.2881.4204-7.0249.481-9.568.481-1.0258,0-2.0208-.0098-3.0728-.0098-2.1725,0-4.59.042-8.0393.2988-12.65.9404-19.0699,1.2803-22.98,4.1401-13.08,9.5601-12.4801,31.1401-9.1901,43.3501,2.8101,10.4102,6.76,10.9502,7.66,20.6802.9801,10.4497-3.2999,12.79-4.59,26.9497-.8301,9.0503-1.64,17.9199,3.0601,26.8301,6.6199,12.5498,19.96,17.2202,22.98,18.2798,6.49,2.27,6.9099.6602,18.3799,3.3804,10.5601,2.5,16.2001,3.8398,22.2101,8.0498,2.5699,1.79,12.14,8.7002,15.3199,21.4502,2.6001,10.3896-.4299,19.1099-1.53,22.1396-5.2999,14.6201-15.03,15.0903-16.8499,25.3501-2.6101,14.7002,15,27.1602,13.0199,29.1001-.1583.1562-.4315.2339-.7999.2339-3.5873,0-16.2428-7.3208-20.6501-20.144-.7899-2.3296-3.3499-10.7397,0-19.9199,4.4701-12.2397,14.2401-11.6001,16.8601-21.4497,2.73-10.2803-4.48-23.9702-13.79-27.5703-1.4935-.5752-2.7384-.7744-3.9756-.7744-2.793,0-5.5496,1.0151-11.054,1.0151-1.429,0-3.0425-.0684-4.8904-.2407-3.6201-.3398-10.9601-1.02-18.3801-4.6001-12.2749-5.9097-17.2162-16.1118-19.5525-16.1123-.1266,0-.2455.0303-.3574.0923-1.76.9702,1.86,7.7104,3.0601,19.8501.5399,5.5,1.26,13.5903-1.53,22.98-2.8101,9.4199-7.8,15.6001-10.73,19.1504-6.52,7.9199-13.3301,12.21-18.3801,15.3198-10.2899,6.3501-13.96,5.9399-21.45,9.96-19.8337,10.6343-26.0377,30.6587-27.4979,30.6587-.0255,0-.0494-.0063-.0721-.0186-1.49-.8203,4.2001-28.0703,25.28-41.3604,8.7001-5.4897,13.04-4.1997,23.74-12.2598,6.2001-4.6699,14.49-11.0801,18.3801-22.21,2.8199-8.0503,2.2-15.29,1.5399-22.98-.65-7.5703-1.84-9.4702-3.83-19.0903-3.66-17.6396-5.97-28.73-3.0701-41.23,2.41-10.3799,6.0701-11.6597,5.3601-19.3398-.901-9.9189-8.1016-19.9629-14.1654-19.9634-.1289,0-.257.0044-.3846.0137-4.28.2998-4.2,5.5498-12.25,12.2896-1.98,1.6602-9.22,7.7104-19.15,9.1904-1.5118.2246-2.9005.3154-4.183.3154-5.4409,0-8.9977-1.6338-12.2029-1.6343-1.4565,0-2.8396.3374-4.2942,1.3188-4.21,2.8398-5.1899,8.4897-6.1299,13.9297-1.5,8.6499,1.28,10.02,0,18.2402-1.3701,8.8398-5.8101,15.2197-7.66,17.6196-4.4,5.7104-6.39,4.8701-9.1901,9.25-6.48,10.1104-1,22.6104-2.3,22.9204-.0161.0039-.0332.0059-.051.0059-1.6857,0-11.3448-16.6401-5.3088-28.3462,2.6699-5.1899,6.1299-4.9497,10.76-12.8599,2.58-4.3999,6.28-10.7202,3.7899-16.25-1.5632-3.4731-5.6757-6.8672-9.3574-6.8677-.4633,0-.9189.0537-1.3625.1675-7.58,1.9404-2.76,19.23-14.5599,30.4502-7.24,6.8799-12.24,3.3901-20.6801,10.7798-11.9316,10.4443-11.7241,25.9834-12.9884,25.9834-.0105,0-.021-.001-.0316-.0029-1.62-.3203-4.1799-25.4604,9.9601-37.5303,8.3499-7.1201,15.3199-3.54,22.21-11.54,7.09-8.2197,1.79-14.3799,8.5599-26.0601,7.7301-13.3198,22.2101-18.3599,24.38-19.0801,9.02-3,10.99-.2197,23.74-3.8296,5.7-1.6104,12.29-3.54,19.15-8.46,8.4701-6.0703,12.63-13.3101,16.09-19.3101,4.15-7.2202,9.5801-16.6602,9.95-30,.1702-5.9902.55-19.3901-7.6499-27.7603-.88-.8901-.62-.46-9.96-8.6401-3.5-3.0596-5.54-4.8799-6.8101-6.0396-1.47-1.3701-1.9099-1.8604-2.38-2.4502-5.9301-7.3198-4-11.48-7.66-13.77-1.2566-.7837-2.8591-1.1523-4.6687-1.1523-7.2625-.0005-17.8679,5.9346-22.9113,14.7725-5.08,8.9097-.38,13.5601-6.13,23.9199-2.88,5.1997-6.8101,8.4897-14.55,14.8599-11.4299,9.3999-14.8099,9.48-21.45,15.04-15.7963,13.2378-18.1383,30.8438-19.829,30.8438-.0271,0-.0541-.0044-.0809-.0137-1.8701-.6401-1.1602-22.9902,13.0199-38.7002.89-.9897.28-.23,17.75-16.21,10.03-9.1699,12.5-11.4897,14.4601-15.98.6799-1.54,5.7899-13.6499,0-22.3101-4.1052-6.1514-12.1115-8.1958-19.8873-8.1963-4.7635,0-9.4396.7666-13.0826,1.8267-5.1001,1.4697-4.7001,2.52-25.28,16.6196-14.53,9.96-16.8,10.8604-20.6801,15.5801-6.34,7.7002-8.75,15.5503-10.73,21.96-5.01,16.2603-.34,20.8501-6.89,31.3999-3.27,5.27-5.4299,6.1401-11.49,15.29-6.21,9.3804-9.54,14.4102-10.72,21.48-1.0801,6.46.87,7.2803,3.0599,22.7803,1.6901,11.96,2.61,18.4297,1.53,26.3999-.61,4.5298-2.11,15.6401-9.95,25.04-9.6364,11.5444-24.5272,15.3467-30.8011,15.3467-1.6495,0-2.7029-.2627-2.9089-.7168-1.0699-2.3701,21.7101-7.9697,29.1101-27.5801,3.3999-9,2.74-18.79,2.2999-25.27-.8099-12.02-3.63-13.8398-3.83-25.3896-.11-6.04-.25-14.5703,3.83-23.6699,4.35-9.7202,8.51-8.9102,13.79-19.3101,2.9399-5.8101,8.16-16.1201,3.83-25.1602-3.9299-8.1899-13.4399-10.6201-15.3199-11.1001-2.2595-.5791-4.474-.8262-6.6095-.8262-9.4037-.0005-17.2952,4.7881-20.9706,7.0864-16.99,10.6099-13.22,21.6196-30.64,36.9399-10.74,9.4497-21.61,13.5601-31.3999,17.27-15.0527,5.6934-29.6847,8.0142-35.9214,8.0142-1.9132,0-3.0354-.2183-3.1387-.6245-.53-2.0396,24.5601-8.3896,49.78-24.6597,7.63-4.9199,13.7-9.73,19.15-16.5601,2.89-3.6201,2.89-4.4102,9.4399-13.8101,7.2101-10.3799,10.89-15.6201,14.3101-17.7402,4.87-3.0195,6.34-1.46,20.6799-4.1299,7.8101-1.4497,15.6801-2.9097,24.51-6.5898,7.79-3.2402,12.79-6.7402,21.4401-12.7803,7.5-5.2397,13.46-9.4697,19.6599-16.8398,6.8601-8.1401,8.2201-13.21,8.6801-15.6899.39-2.04,1.24-6.8701-.51-12.3901-1.48-4.7197-3.4-5.2998-7.14-11.2397-5.12-8.1001-3.8099-10.5903-8.1699-17.3599-1.6101-2.4902-3.29-4.4702-10.7301-11.2305-13.7899-12.5396-20.63-19.0898-25.5299-19.9199-.8328-.1421-3.2574-.5527-6.4177-.5527-5.3029-.0005-12.6786,1.1562-18.0923,6.6831-5.8201,5.9399-6.4601,13.9497-6.64,16.1899-.67,8.3301,2.9,10.1997,2.5499,18.02-.4199,9.77-6.4099,16.8296-8.1699,18.8999-9.67,11.3999-23.3401,12.5-26.55,12.7598-1.1293.0913-2.244.1343-3.3394.1343-14.1135,0-25.0931-7.0884-24.7406-8.3042.0374-.1313.2067-.188.4969-.188,1.85,0,8.634,2.3022,17.7328,2.3022,4.3811,0,9.2966-.5332,14.4602-2.1143,4.75-1.4497,12.51-3.9497,16.8401-11.23,3.88-6.54,3.23-13.9399,3.0599-15.8301-.67-7.6196-3.79-8.2998-3.5699-14.4497.0699-2,.46-3.5601,6.12-15.1699,5.5-11.25,6.61-12.8003,6.13-15.8301-.4701-2.9502-3.03-5.71-8.17-11.23-5.86-6.3101-7.26-6.3501-11.23-11.2402-2.64-3.23-5.3201-6.5801-7.15-11.7397-.96-2.71-2.97-8.3403-1.53-14.8101.78-3.5601,1.85-3.9502,5.1-11.23,1.6001-3.5801,2.51-6.1001,4.0801-10.4702,5.9818-16.5742,8.1033-29.1113,9.1796-29.1113.007,0,.0135.0005.0204.0015,1.15.1797,1.5,15.1602-3.0599,32.3398-3.5901,13.4902-6.25,13.46-6.13,19.75.34,18.8003,24.36,32.8901,32.1699,37.4702,14.01,8.2197,15.3,4.4297,29.1101,12.27,15.2899,8.6797,24.75,19.6099,36.7599,33.7397,19.54,22.96,16.38,27.1899,26.04,31.75,2.9672,1.4023,5.2386,1.9375,8.0201,1.9375,6.6206,0,16.1353-3.0298,44.8298-4.6074,16.65-.9102,23.53-.4399,29.11-6.1401,6.4-6.52,2.4401-12.3301,10.7201-22.9399,5.6799-7.27,8.8799-6.2798,16.0898-15.8198,4.7101-6.2402,4.6602-8.4102,8.6802-11.2402,6.5698-4.6099,10.45-1.4399,16.3398-5.6099,5.73-4.0601,8.73-11.79,8.17-18.3501-.2599-3.0298-1.3099-6.2798-8.17-14.8501-10.74-13.4199-13.98-12.7197-24.51-25.02-5.9399-6.9297-8.4299-11.2695-15.3199-14.8096-2.4386-1.2466-5.9221-3.0337-9.6022-3.0337-1.0435-.0005-2.1019.1431-3.1577.4834-4.55,1.4702-6.0901,5.6201-11.2401,15.8301-6.38,12.6699-9.5699,19-13.7899,24-2.8101,3.3398-8.3501,9.7603-17.8701,13.79-2.7043,1.1396-9.3092,3.603-17.4277,3.603-3.3491,0-6.9548-.4189-10.6522-1.5229-10.3199-3.0801-9.88-8.0703-19.9199-10.3203-2.0792-.4658-3.8279-.6392-5.3691-.6392-4.4719,0-7.201,1.4585-11.2075,1.4585-1.5464,0-3.2826-.2173-5.3834-.8193-8.35-2.3999-14.0199-8.4697-19.3999-14.23-6.53-6.9897-5.49-8.6396-10.2101-12.77-11.25-9.8096-26.0499-8.2397-26.0499-8.6797.0284-.2134,3.4558-.7769,8.3418-.7769,8.8593,0,22.5194,1.8506,29.4481,10.9966,2.77,3.6504,3.5901,7.3101,8.6801,11.23,6.52,5.0103,13.6,5.4902,15.83,5.6201.8837.0488,2.1447.1177,3.5459.1177,3.7521,0,8.5109-.4937,9.7341-3.1875,1.67-3.7002-5.4301-6.9102-8.6801-16.8501-1.8899-5.7598-1.4299-10.9902-.5099-21.4399.9099-10.3999,2.4399-11.8901,1.5299-17.3701-.6899-4.1699-2.49-8.7798-7.6599-15.3101-12.62-15.9497-28.6001-22.21-28.6001-22.4697.0026-.0049.0129-.0068.0305-.0068,1.3037,0,43.2557,12.689,45.9296,35.7466.5499,4.77-.91,7.0601-1.02,26.04-.05,8.0698.1899,12.54,2.04,17.8799.6,1.71,2.9099,8.0103,8.6799,14.29,3.7699,4.1104,11.0199,12.0103,22.47,12.77.6021.04,1.1938.0591,1.7743.0591,7.9714,0,13.8334-3.5591,15.5857-4.6592,6.52-4.0698,9.75-9.6899,13.28-15.8296,3.37-5.8604,2.48-6.29,6.64-14.29,3.0499-5.8701,5.66-10.9102,10.21-16.3403,6.86-8.1997,10.37-8.0601,11.75-13.2798.9601-3.6499-.3099-5.4302-3.0699-15.3198-1.16-4.1602-3.74-13.4204-4.5901-20.9404-.99-8.6597.3-15.21,1.7001-22.2896,3.25-16.5103,8.34-21.2202,8.51-35.75.08-6.6401-.9301-10.3203-3.41-12.9302-2.54-2.7002-6.12-3.3901-13.27-4.77-4.2463-.8242-7.9012-1.5312-11.9175-1.5312-1.1005,0-2.2281.0532-3.4025.1714-6.65.6597-9.55,3.5-16,5.4497-12.2844,3.6948-19.7268,5.9316-25.7355,5.9316-1.6021,0-3.1016-.1592-4.5646-.4917-9.13-2.0698-17.5699-8.7798-22.13-16.3398-3.58-5.9502-2.84-9.25-7.83-15.3198-5.9399-7.23-12.39-9.1201-11.91-10.21.1508-.3477.9731-.5562,2.2117-.5562,3.609,0,10.7559,1.7695,15.1484,7.0259,3.8199,4.5601,1.8799,7.3701,5.45,13.6099,3.8,6.6704,10.77,11.8301,18.04,13.6201,1.7323.4287,3.3864.625,5.1064.625,4.2179,0,8.8363-1.1797,16.0034-3.0049,9.26-2.3599,10.4601-4.1299,20.0801-6.1299,5.5487-1.1538,8.8984-1.8521,12.2611-1.8521.8917,0,1.7841.0493,2.7189.1519,4.26.4702,6.47,1.5801,17.02,3.3999,1.6047.2788,3.1052.5215,4.5068.5215,1.5681,0,3.0126-.3037,4.3431-1.2012,2.49-1.6699,3.25-4.5303,3.41-5.1001.34-1.27.52-3.0103-1.02-8.5103-.96-3.4097-1.89-5.8096-2.39-7.1499-.37-1.0098-2.9301-7.8999-3.74-12.2598-1.6-8.5601,1.85-16.0503,3.4-19.3999,3.36-7.2803,8.1-11.5703,11.58-14.6401,3.9401-3.5,7.33-5.4399,13.9501-9.1899,12.4299-7.04,14.1199-6.0601,19.4099-10.2202,9.7141-7.6372,12.1923-17.3677,12.8975-17.3677M360.1371,0c-3.3577,0-4.6426,2.7427-5.4929,4.5576-1.3546,2.8916-4.1736,8.9092-10.4948,13.8789-2.2374,1.7593-3.5702,2.3428-6.2251,3.5044-2.6755,1.1704-6.3397,2.7734-12.5587,6.2959-6.4915,3.6772-10.4097,5.8965-14.8065,9.8022-3.3256,2.9336-8.913,7.8628-12.7992,16.2832-1.6962,3.665-5.6731,12.2598-3.7751,22.4141.7091,3.8164,2.5208,9.1436,3.9156,12.9399l.0446.1211.1503.4023c.5181,1.3804,1.3008,3.4668,2.1215,6.3823.5951,2.125,1.2523,4.8628,1.0081,5.8433-.4126,1.4468-1.0337,2.0342-1.3701,2.2598-.2776.187-.6497.3535-1.5581.3535-.9913,0-2.2402-.2026-3.6516-.4478-5.4172-.9346-8.4923-1.6567-10.963-2.2368-2.2617-.5312-4.0481-.9512-6.3636-1.2065-1.1152-.1226-2.1832-.1821-3.2675-.1821-3.8708,0-7.6012.7759-13.2477,1.9502-5.6606,1.1768-8.7195,2.3188-11.6775,3.4233-2.3162.8652-4.7113,1.7593-8.6508,2.7632l-.0621.0161c-6.7008,1.7065-11.1277,2.834-14.7065,2.834-1.3452,0-2.5861-.1519-3.9053-.4785-6.0031-1.478-11.8481-5.8901-14.8967-11.2417-1.2939-2.2612-1.6239-3.8208-2.0057-5.626-.5304-2.5068-1.1313-5.3481-3.9558-8.7197-5.0602-6.0547-13.3873-8.8149-18.9813-8.8149-3.4843,0-5.7716,1.1997-6.7983,3.5654-.793,1.8003-.7245,4.5059,1.8783,6.6255.6045.4927,1.295.9302,2.1694,1.4844,2.1743,1.3779,5.4602,3.4604,8.5856,7.2646,2.3821,2.8979,3.1212,4.9048,4.0571,7.4453.7601,2.0635,1.6216,4.4023,3.3519,7.2783,5.561,9.2197,15.2577,16.3599,25.3087,18.6387,1.8204.4136,3.676.6152,5.6702.6152,6.751,0,14.4388-2.3125,27.1757-6.1436,2.853-.8623,5.0646-1.8677,7.0156-2.7539,2.6909-1.2231,4.8165-2.189,8.0377-2.5083.9847-.0991,1.9338-.147,2.9091-.147,3.546,0,6.8199.6353,10.9647,1.4395,6.5126,1.2573,9.2042,1.8242,10.5808,3.2876,1.0664,1.1226,2.1285,3.106,2.0521,9.4443-.0897,7.6772-1.688,12.2954-3.7114,18.1421-1.5402,4.4502-3.2858,9.4941-4.7047,16.7021-1.3969,7.064-2.8422,14.3726-1.7618,23.8232.8958,7.9238,3.5906,17.5884,4.7415,21.7153.733,2.627,1.3632,4.6938,1.8695,6.3545,1.4021,4.5986,1.5016,5.1328,1.1812,6.3506-.3533,1.3364-.7064,1.7046-3.0015,3.6479-1.8956,1.605-4.4918,3.8032-7.7479,7.6953-4.8767,5.8203-7.7378,11.3267-10.7667,17.1567l-.0452.0869c-2.1804,4.1929-3.0858,6.5112-3.8134,8.3735-.701,1.7949-1.2076,3.0918-2.7242,5.729-3.4308,5.9673-6.1378,10.6753-11.5931,14.0806-5.1371,3.2251-9.8701,3.9009-12.9381,3.9009-.4801,0-.9651-.0161-1.4418-.0479-9.457-.6279-15.5044-7.2212-19.1177-11.1611-4.5577-4.9604-6.7471-10.0015-7.6467-12.5654-1.5491-4.4712-1.8081-8.1323-1.7582-16.1934.0605-10.4419.5336-15.6851.8467-19.1543.2654-2.9424.4408-4.8857.1405-7.4897-1.3135-11.3276-10.0719-21.5298-26.0322-30.3262-10.3223-5.6895-22.4692-9.8477-24.8643-9.8477h-2.9564l-1.4553,2.5972-.6189,1.1255v1.2842c0,3.1509,2.4894,4.374,3.6857,4.9614,10.5145,5.1665,19.26,12.1006,25.9934,20.6108,5.0056,6.3228,6.1696,10.1313,6.6479,13.0234.4012,2.416.193,3.6284-.3102,6.5576-.3708,2.1587-.8788,5.1152-1.2677,9.561-.9479,10.7661-1.4701,16.6982.74,23.4341,1.8976,5.8037,4.9696,9.709,7.0024,12.293.2153.2739.4562.5801.6899.8838-.8611.1626-2.1412.3022-3.9956.3022-1.2788,0-2.4767-.0659-3.2694-.1099-5.0809-.2964-9.4797-1.8413-13.0598-4.5923-2.6764-2.0615-3.762-3.9131-5.1366-6.2573-.7548-1.2871-1.5354-2.6187-2.6071-4.0308-8.5516-11.2881-24.6165-12.9741-33.4312-12.9741-2.3009,0-4.63.1211-6.5582.3408-2.1664.2466-6.1987.7056-6.7399,4.7773l-.0437.3276v.3311c0,2.3296,1.703,4.8169,4.9576,5.0645.2709.0205.6693.0361,1.1796.0522,3.3928.1074,13.7177.4351,21.6267,7.3315,1.8149,1.5884,2.448,2.5835,3.4967,4.2329,1.233,1.9385,2.7676,4.3516,6.3457,8.1816,5.621,6.0186,11.9923,12.8403,21.6724,15.6226,2.381.6826,4.5925,1.0137,6.7646,1.0137,2.4663,0,4.5089-.4282,6.311-.8057,1.6726-.3501,3.1172-.6528,4.8964-.6528,1.3213,0,2.7198.1694,4.2758.5181,4.0564.9092,5.7379,2.2324,8.0652,4.0635,2.4917,1.9604,5.5925,4.4004,11.5183,6.1689,3.8485,1.1489,7.9137,1.7319,12.0822,1.7319,8.6041,0,15.8287-2.5034,19.3694-3.9956,10.8466-4.5913,17.0889-12.0103,19.7544-15.1782,4.6012-5.4517,7.8857-11.9751,14.4298-24.9707.6243-1.2378,1.1974-2.3896,1.7291-3.459,3.4822-7.0015,4.6748-9.2456,6.5825-9.8618.5032-.1621,1.0342-.2417,1.6198-.2412,2.4648,0,5.2615,1.4297,7.3035,2.4736,4.5378,2.3315,6.7462,5.0347,10.4052,9.5137,1.0026,1.2271,2.1388,2.6177,3.418,4.1099,5.1508,6.0171,8.6302,9.0586,11.995,12,3.58,3.1294,6.9612,6.085,12.4075,12.8906,6.7756,8.4644,6.9661,10.6841,7.0919,12.1528.4447,5.2095-2.1118,11.0322-6.0789,13.8433-1.8368,1.3003-3.191,1.4629-5.4347,1.7329-2.8926.3477-6.4927.7808-10.8864,3.8638-3.3357,2.3481-4.6953,4.5474-6.2697,7.0942-.8812,1.4253-1.8799,3.041-3.5295,5.2266-3.4789,4.603-5.7898,6.3691-8.2363,8.2388-2.3569,1.8018-4.7942,3.6641-7.8027,7.5151-4.9978,6.4038-6.1648,11.397-7.1025,15.4082-.7272,3.1108-1.1661,4.9888-3.2457,7.1074-3.3378,3.4097-7.426,3.7593-19.8474,4.3506-1.8398.0879-3.823.1821-5.9673.2993-18.1028.9951-28.6857,2.5635-35.6886,3.6016-3.9126.5796-6.7395.9985-8.8684.9985-2.0663,0-3.606-.3813-5.8835-1.458-3.8783-1.8306-4.7278-3.1743-7.889-8.1743-2.8712-4.541-7.2104-11.4043-16.4797-22.2959-11.6497-13.7061-21.7123-25.5449-38.0992-34.8472-7.3046-4.147-11.5968-5.3433-15.3838-6.3989-3.6431-1.0156-7.0841-1.9746-13.6646-5.8354-7.2751-4.2666-29.4116-17.2485-29.7008-33.248-.0416-2.1787.2911-2.9229,1.3937-5.3901,1.0964-2.4536,2.7531-6.1606,4.5688-12.9834,2.4949-9.3994,3.4282-17.4756,3.7721-22.5957.7186-10.7002-.6196-12.7515-1.191-13.627-.8236-1.2622-2.1288-2.1162-3.5807-2.3433l-.3838-.0601-.4088-.0015c-3.9823,0-5.2302,3.8843-5.7,5.3472-.4265,1.3276-.9177,3.1431-1.5394,5.4419-1.3839,5.1157-3.4753,12.8472-6.6432,21.625-1.495,4.1606-2.3959,6.668-3.9419,10.1274-1.3322,2.9834-2.2496,4.6938-2.9868,6.0679-1.0284,1.917-1.8407,3.4312-2.4325,6.1318-1.7423,7.8286.6622,14.6172,1.6891,17.5161,2.1779,6.1401,5.4082,10.0928,8.0038,13.2681,2.3368,2.8784,3.9758,4.3408,5.7112,5.8887,1.4611,1.3032,3.1169,2.7803,5.7262,5.5898,3.8707,4.1567,6.6641,7.1562,6.8964,8.6143.1473.9307-.3953,2.1274-3.5104,8.4307-.634,1.2827-1.3555,2.7427-2.1738,4.4165-5.8523,12.0044-6.517,14.0967-6.6251,17.1914-.1534,4.2861.9531,6.7866,1.9292,8.9927.7521,1.6997,1.4016,3.1675,1.6569,6.0698.5706,6.3389-.9791,10.481-2.3792,12.8408-3.4346,5.7744-10.0482,7.793-13.9998,8.999-4.1111,1.2588-8.4836,1.8965-13.0004,1.8965-5.7483,0-10.4869-1.002-13.6226-1.665-1.8141-.3838-3.0125-.6372-4.1104-.6372-3.1147,0-4.8053,2.0581-5.3063,3.8208-.2705.9321-.5125,2.8374.9884,4.8354,2.6517,3.5298,14.4639,9.8359,28.5615,9.8359,1.2494,0,2.5088-.0508,3.7427-.1509,15.6659-1.2676,24.9386-8.5894,29.9597-14.5088,5.8766-6.9126,9.0243-14.2886,9.3523-21.9194.2067-4.6138-.7114-7.5879-1.5212-10.2114-.7327-2.374-1.3114-4.2495-1.0402-7.6226.4504-5.6079,2.209-10.0107,5.2275-13.0918,4.1963-4.2832,10.2125-5.1826,14.5208-5.1821,2.7504,0,4.8787.3623,5.578.4814,3.0645.5195,10.0922,6.9238,19.819,15.7881l3.1869,2.9023c7.3947,6.7192,8.6713,8.353,9.8951,10.2461,1.7734,2.7534,2.3956,4.5566,3.1835,6.8398.9373,2.7163,1.9996,5.7949,4.9587,10.4766,1.6115,2.5596,2.9143,4.209,3.9611,5.5347,1.4242,1.8032,2.0137,2.5493,2.6345,4.5298,1.4181,4.4731.6566,8.4556.37,9.9551-.6958,3.751-3.2484,8.2524-7.5923,13.4067-5.9147,7.0308-11.8396,11.1704-18.7002,15.9634l-.1005.0703c-8.4701,5.9141-13.1359,9.1724-20.3964,12.1919-8.3403,3.4761-15.7008,4.8423-23.4935,6.2891-5.6327,1.0483-9.1979,1.4214-11.8009,1.6938-4.2039.4399-6.7415.7056-10.61,3.104-4.3706,2.709-8.1842,8.1992-15.7817,19.1372-3.1987,4.5903-4.8475,7.1416-6.0516,9.0039-1.2295,1.9023-1.8466,2.8569-3.1893,4.5391-4.5553,5.709-9.7561,10.1929-17.952,15.4775-15.3082,9.8755-30.7467,16.0728-39.9709,19.7749-2.952,1.1851-5.2836,2.1211-6.9645,2.9106-1.5222.7153-6.1547,2.8916-4.9745,7.4341,1.1106,4.3667,6.0997,4.3667,7.978,4.3667,6.2899,0,21.5178-2.2207,37.6902-8.3374l.0519-.0195c10.0675-3.8154,21.4781-8.1396,32.8821-18.1733,8.8735-7.8042,12.6526-14.5786,15.9867-20.5552,3.4225-6.1353,6.1257-10.981,13.9988-15.8979,3.0299-1.8945,10.1189-6.3276,18.322-6.3271,1.8287,0,3.6349.2251,5.3683.6694,3.4135.8716,9.5117,3.1226,12.0535,8.4199,3.2634,6.813-1.1458,15.5269-3.7802,20.7334-2.2612,4.4536-4.2142,6.4663-6.2817,8.5967-2.3665,2.4385-5.0486,5.2021-7.6141,10.9346-4.5502,10.1489-4.3787,19.5698-4.2651,25.8037.1147,6.6304,1.0526,10.4531,1.9595,14.1494.7849,3.1992,1.5261,6.2207,1.8809,11.4849.4106,6.0444,1.0308,15.1748-1.9885,23.167-4.5004,11.9263-15.6487,17.9863-22.3094,21.6069-1.6295.8857-2.9166,1.5854-3.9246,2.2749-4.3616,2.9829-3.2122,6.5117-2.7559,7.5225,1.6617,3.6597,6.0304,3.6597,7.4661,3.6597,8.1724,0,24.1414-4.5654,34.6396-17.1426,8.7689-10.5142,10.4382-22.9102,11.0667-27.5767,1.1697-8.6318.2137-15.396-1.5216-27.6763l-.0128-.0908c-.932-6.5962-1.8174-10.5923-2.464-13.5098-.8363-3.7744-1.0889-4.9131-.6152-7.7461,1.0049-6.021,3.9962-10.5396,9.9557-19.5415,3.1312-4.728,5.1204-7.0757,6.8754-9.1465,1.5469-1.8257,3.0079-3.5498,4.6959-6.2705,4.2531-6.8501,4.5386-11.8755,4.8409-17.1963.2286-4.022.4877-8.5806,2.5789-15.3677l.021-.0679c1.9221-6.2227,4.1007-13.2754,9.7906-20.186,2.4519-2.9829,3.9335-4.0215,11.3912-9.0381,2.1879-1.4717,4.9106-3.3032,8.2559-5.5962,7.7896-5.3369,12.6268-8.8408,15.8279-11.1592,5.2676-3.8154,5.7214-4.1206,8.0098-4.7803,3.568-1.0376,7.8273-1.6309,11.6978-1.6309,4.3859,0,12.2614.7764,15.7286,5.9717,3.4794,5.2041,1.3759,13.458-.4152,17.5156-1.4811,3.3926-3.2028,5.1143-13.2598,14.3086-9.2133,8.4277-13.3973,12.1987-15.4082,14.0107-1.8926,1.7061-2.0905,1.8843-2.686,2.5464-13.9821,15.4907-16.125,36.6504-14.6212,42.458.7539,2.9111,2.6418,3.9536,3.7002,4.3159.5493.188,1.1211.2832,1.7001.2832,3.9408,0,5.2156-3.3906,6.5651-6.98,2.1531-5.7271,6.1609-16.3877,16.4755-25.0317,2.63-2.2021,4.6565-3.4268,7.2219-4.9775,3.3502-2.0249,7.5198-4.5454,14.1924-10.0327,7.7021-6.3389,12.3501-10.1641,15.748-16.2993,3.5247-6.3506,3.7618-11.1484,3.9524-15.0039.16-3.2388.2756-5.5791,2.1473-8.8618,4.119-7.2183,13.0917-12.2495,18.5674-12.249,1.2544,0,1.8323.2759,2.0226.3945.0399.0249.0575.0405.0576.0405.1597.208.4681,1.1792.6934,1.8882.7798,2.4546,1.958,6.1641,5.6704,10.7466.6184.7759,1.2135,1.4297,2.856,2.9604l.0186.0171.0188.0171c1.5161,1.3848,3.7703,3.3838,6.891,6.1118,5.5226,4.8369,7.7146,6.6865,8.7679,7.5752.7234.6099.7388.6255.9271.8159,6.6982,6.8374,6.3668,18.499,6.2075,24.103-.3347,12.0752-5.2943,20.7041-9.2794,27.6377l-.0352.061c-3.3158,5.75-7.074,12.2671-14.6399,17.6895-6.3058,4.5225-12.5664,6.291-17.5968,7.7124-6.064,1.7168-9.3334,1.8477-12.495,1.9746-3.1779.1274-6.4637.2593-11.4636,1.9219-4.285,1.4224-18.9148,7.165-27.1265,21.3149-3.832,6.6113-4.3555,11.8145-4.7759,15.9951-.3939,3.915-.6316,6.2783-3.2456,9.3091-2.6459,3.0718-5.0598,3.7241-8.7137,4.7114-3.6387.9834-8.1671,2.2075-12.9545,6.2896-14.1694,12.0952-13.8763,34.8652-12.1805,41.3511.7317,2.7993,2.2441,4.4438,4.495,4.8887l.4803.0952.5209.0029c4.3855,0,5.2609-4.1245,5.84-6.854,1.0225-4.8188,2.9257-13.7881,10.4417-20.3672,3.4106-2.9858,5.9755-3.7139,8.9451-4.5566,3.4705-.9854,7.4039-2.1016,11.8861-6.3608,7.465-7.0981,9.2612-16.0557,10.5726-22.5957.4648-2.3184,1.1594-5.7822,1.8662-6.6455.0117-.001.0249-.001.0394-.001,1.3243,0,3.8893,1.9009,4.7979,3.9199,1.4329,3.1816-1.5619,8.2891-3.5435,11.6685-2.0848,3.562-3.746,5.0273-5.5046,6.5791-1.7446,1.5391-3.7219,3.2837-5.3883,6.5229-5.5944,10.8486-.6403,24.3232,3.1694,30.5737,1.6014,2.6279,3.5077,5.0596,6.5853,5.0596.4001,0,.8-.0464,1.1884-.1367,2.054-.4902,4.3257-2.3765,4.0441-6.0991-.0564-.7441-.1956-1.5552-.3718-2.5815-.6965-4.0586-1.8627-10.8521,1.7002-16.4106.8979-1.4048,1.5115-1.8662,2.7339-2.7856,1.5038-1.1309,3.5636-2.6797,6.2072-6.1108,2.5966-3.3682,7.1726-10.4346,8.6405-19.9053.7367-4.731.3214-7.6519-.0449-10.229-.3381-2.3789-.6052-4.2578.0304-7.9229.7638-4.4209,1.553-8.9888,3.9995-10.6392.5779-.3896.9723-.4639,1.498-.4639.869,0,2.0723.2544,3.4656.5488,2.2883.4834,5.1362,1.0854,8.7372,1.0854,1.6106,0,3.2651-.1245,4.9175-.3696,7.537-1.1235,14.8129-4.5903,21.6282-10.3047,4.3541-3.6455,6.683-7.0107,8.224-9.2373.4669-.6748,1.0287-1.4868,1.3776-1.8779,2.4438.3857,8.2363,6.917,9.0065,15.396.2877,3.1128-.3107,4.4385-1.6219,7.3433-1.1113,2.4629-2.4946,5.5273-3.6292,10.4136-3.1437,13.5508-.6888,25.3828,3.0272,43.292l.0175.0845c.7479,3.6157,1.3978,6.2178,1.92,8.3086.9016,3.6104,1.4459,5.7896,1.8241,10.1938.6382,7.436,1.1893,13.8579-1.277,20.8994-3.4697,9.9263-11.0989,15.6729-16.6696,19.8691-5.5873,4.2085-9.1686,5.5732-12.9602,7.0176-3.1075,1.1841-6.3209,2.4082-10.4398,5.0073-21.468,13.5347-27.9994,39.2339-27.8308,44.9248.0917,3.0942,1.7983,4.4883,2.8075,5.0439.7681.4204,1.6226.6387,2.4836.6387,3.3466,0,4.7125-2.5454,6.4418-5.7681,3.1614-5.8911,9.74-18.1499,23.4188-25.4839,2.7833-1.4941,4.9299-2.2905,7.4153-3.2129,3.6671-1.3608,7.8234-2.9033,14.298-6.8989,4.9371-3.0405,12.4044-7.6387,19.6144-16.397,2.756-3.3394,8.4989-10.2983,11.6611-20.8989,3.1261-10.5205,2.2426-19.5205,1.7147-24.8975-.2063-2.0874-.4818-4.0317-.7882-5.8193,2.7977,2.4443,6.2507,4.9399,10.493,6.9824,8.2042,3.9585,16.2047,4.7095,20.0494,5.0703,1.9292.1797,3.6807.2656,5.39.2656,3.5923,0,6.1127-.3833,8.1381-.6909,1.191-.1812,2.1317-.3242,2.9156-.3242.5376,0,1.174.0532,2.1796.4404,7.1263,2.7559,12.7583,14.0728,10.7538,21.6211-.803,3.0181-2.5049,4.458-5.6951,6.9478-3.6705,2.8643-8.2388,6.4297-11.0292,14.0698-3.5714,9.7876-1.5571,18.7622-.0386,23.2407,5.0212,14.6094,19.288,23.5386,25.3854,23.5386,2.1628,0,3.5399-.9121,4.3142-1.6772.7775-.7617,3.1375-3.6406.2261-8.0806-.7142-1.0894-1.7267-2.311-2.8992-3.7256-4.0944-4.9409-10.2819-12.4077-8.938-19.9766.5774-3.2554,2.1626-4.9136,5.4069-8.062,3.6113-3.5044,8.1057-7.8657,11.2206-16.458,3.1228-8.6006,3.6882-17.0322,1.6798-25.0576-2.3901-9.583-8.5388-18.228-17.3129-24.3394-6.7933-4.7588-13.2382-6.2842-23.9158-8.8125-6.0553-1.436-9.3296-1.7441-11.7205-1.9692-2.2449-.2114-3.4814-.3281-6.1604-1.2651-11.994-4.208-17.6091-10.9653-20.2084-15.8931-4.011-7.6035-3.3124-15.2207-2.5035-24.0405.5474-6.0078,1.6807-9.7124,2.6805-12.981,1.3009-4.2529,2.5297-8.2695,1.9086-14.8921-.5929-6.4102-2.4158-9.6968-4.1786-12.875-1.3021-2.3477-2.5321-4.5654-3.6324-8.6416-2.9554-10.9683-3.4476-30.145,7.3132-38.0103,2.5624-1.874,8.5859-2.3184,18.5657-3.0547l1.8347-.1357c3.3632-.2505,5.6731-.2852,7.6687-.2852.5209,0,1.0277.0024,1.5314.0049.5133.0024,1.0234.0049,1.5411.0049,2.9459,0,5.7833-.0859,10.056-.5049,9.9924-.9702,15.4993-1.5049,21.514-4.2598,6.1975-2.8276,9.4967-6.2549,11.9058-8.7573,2.2224-2.3086,3.2064-3.2603,5.2659-3.626.48-.0845.9833-.1279,1.4902-.1279,6.1216.0005,12.4453,6.165,14.8259,8.4854,8.8752,8.6323,13.2347,22.2363,10.8522,33.8555-.6285,3.064-1.4398,4.5991-2.5627,6.7236-1.4865,2.813-3.3365,6.3135-5.0667,13.6772-1.718,7.2935-3.666,15.5635-.6616,24.8872,1.4159,4.3926,3.1841,6.5405,4.6049,8.2661,1.1725,1.4243,2.0985,2.5488,3.1011,5.3794,2.411,6.8223,1.4987,13.2817.5326,20.1201-.6293,4.4414-1.3473,6.6045-2.0416,8.6963-.7302,2.2002-1.4854,4.4751-1.8201,8.4331-.7236,8.5488,1.0361,17.4062,5.089,25.6147,8.7344,17.6548,28.0363,26.7573,34.3502,26.7573,2.7186,0,4.1665-1.4038,4.7876-2.2402.4738-.6416,2.6144-3.979-1.0811-7.6582-.7019-.6992-1.6151-1.4507-2.7712-2.4023-4.8539-3.9946-13.8888-11.4302-17.5796-23.8447-.9633-3.2261-3.889-13.0259-.7662-23.6333.7156-2.4185,1.4767-3.9712,2.2825-5.6147,1.2185-2.4858,2.4786-5.0566,3.2188-9.7002.5989-3.7168,1.0028-10.1123-2.4042-22.5938-2.3673-8.6802-4.5189-12.7202-6.09-15.6699-1.1815-2.2188-1.8323-3.4404-2.2195-6.0083-.9185-6.1255,1.2084-9.5747,4.4276-14.7954,3.0754-4.9873,6.9027-11.1943,7.8638-20.876,1.0557-10.6768-1.8981-19.4146-4.3413-25.6401,4.5469,3.2017,11.0714,7.5806,19.974,11.1309,7.2606,2.8848,15.0934,4.1113,30.6982,6.5557,13.1353,2.0557,20.8257,2.7124,25.9147,3.147,6.3646.5439,8.2854.708,12.6316,2.6699,13.5436,6.103,21.3619,16.9976,25.5623,22.8506,4.6616,6.5015,6.0663,10.4888,7.5533,14.7104,1.526,4.3315,3.1039,8.811,7.7578,15.3511,12.4059,17.4204,29.7742,21.5825,36.3127,23.1494.687.1646,1.5422.3696,1.7922.4565,9.1064,3.3472,12.9038,3.8501,20.4688,4.8521,4.8416.6411,11.4722,1.519,22.4771,3.541,4.0376.7402,7.9141,1.377,11.6628,1.9932,10.1497,1.6675,18.915,3.1079,23.8103,5.4932,18.5127,9.0239,25.7615,27.7397,29.6555,37.7944,2.1758,5.6177,3.6133,9.3286,7.8503,9.3286.7559,0,1.4917-.1548,2.1868-.4604,2.0837-.9189,3.3494-2.8794,3.7668-5.8286.6138-4.3384-.3284-13.0015-3.8169-22.5757-2.9006-7.96-8.5798-19.3066-19.165-28.1582-12.9573-10.832-28.9128-14.3521-42.9905-17.4575-6.6804-1.4717-11.2393-1.9849-15.2615-2.4375-5.0491-.5679-9.4094-1.0586-17.0901-3.3081-20.6125-6.0049-25.6794-10.5039-26.8083-11.8662,1.6296-1.6235,7.5845-4.2583,14.9336-5.4048,1.855-.2905,3.5957-.4316,5.3247-.4316,4.792,0,9.145,1.1226,14.6565,2.5439,3.9722,1.0244,8.4741,2.1851,14.1138,3.1982,5.8352,1.0508,14.5972,2.6289,23.6257,2.6289,3.04,0,5.9226-.1841,8.5671-.5464,30.3472-4.1631,50.29-34.1367,52.929-41.8159.6299-1.8325.9685-4.4409-.9963-6.457-.978-1.0024-2.2864-1.5537-3.6863-1.5537-2.7581,0-4.1262,1.6689-6.8521,4.9937-5.0071,6.1074-16.7329,20.4097-33.9089,24.0479-3.459.7329-6.7349,1.0894-10.0156,1.0894-5.4988,0-9.9189-1.0229-13.8186-1.9258-1.6321-.3774-3.1738-.7344-4.6799-.9907-6.7866-1.1514-10.8767-1.626-15.6125-2.1758-4.1826-.4858-8.9231-1.0361-16.6655-2.1816-3.3794-.5005-6.7236-.7544-9.9395-.7544-10.1931,0-16.9172,2.5371-19.7886,3.6201-.2974.1123-.6619.2495-.8206.3022-1.5747.3638-3.0247.5498-4.2959.5498-2.9146,0-4.6614-.9604-6.8733-2.1772-1.9072-1.0488-4.0691-2.2378-6.9218-2.731-2.38-.4136-3.6455-2.5972-6.6544-8.7305-2.3912-4.875-5.3674-10.9414-10.7257-17.6294-9.2556-11.562-22.0394-20.4399-36.9683-25.6724-7.1853-2.5098-11.0024-2.6182-16.7806-2.7827-4.3149-.123-9.6852-.2759-18.9503-1.4956-22.0713-2.9043-38.0177-5.0024-43.9042-12.3809-.5319-.6592-.9617-1.3154-1.3318-2.0273-1.286-2.4727-3.5665-4.1602-5.981-5.9468-4.6614-3.4492-9.4814-7.0161-8.5416-16.2622.8683-8.5781,11.2749-14.7085,15.1925-17.0161,1.2528-.7383,1.8818-1.1084,2.485-1.7002,1.4031-1.3721,3.7811-2.0708,7.0623-2.0703,7.3003,0,17.0432,3.4893,23.4904,5.7983,12.1356,4.3325,18.4581,8.1587,23.5383,11.2334,6.1693,3.7334,11.0421,6.6821,21.115,6.8882l.1554.0015c2.6885,0,5.5214-1.3013,10.6641-3.6636l.7678-.3525c6.0071-2.7554,13.2635-5.9629,23.38-9.1562,6.0519-1.9087,10.9015-2.8369,14.8248-2.8369,3.1193,0,5.1163.6021,7.0475,1.1841,1.5648.4717,3.1829.9595,5.1035,1.0669,13.1582.7432,20.7803,16.3267,23.6497,22.1934.771,1.5767,1.1958,2.4453,1.7317,3.1636,5.697,7.6689,8.3469,10.0479,10.9094,12.3486,2.1335,1.9155,4.1487,3.7246,8.5166,9.4761,8.1987,10.7832,24.0127,19.1899,45.7341,24.313,8.623,2.0347,17.0652,3.0669,25.0906,3.0669,8.7485,0,20.2644-1.4146,23.9277-5.3999,1.1194-1.2183,1.6636-2.7471,1.5317-4.3047-.1519-1.8906-1.5017-4.3281-4.8008-4.9067-.7075-.124-1.5303-.1772-2.7502-.1772-.7681,0-1.6914.0215-2.7581.0464-1.4011.0332-2.9895.0708-4.8093.0708-11.5146,0-22.0247-1.709-32.1313-5.2251-7.6013-2.6353-22.0632-9.0933-33.5688-22.749-4.6533-5.5264-11.0278-13.0967-9.2385-19.1509,1.0305-3.4849,4.7297-6.7148,10.4153-9.0947,3.2588-1.376,5.7673-1.5605,7.7932-1.5605.9744,0,1.9143.0483,2.9097.1001.9824.0503,1.998.103,3.0317.103,2.8264,0,6.5925-.3589,10.6584-3.1553,4.2693-2.9468,5.738-6.4004,6.8103-8.9214.8977-2.1108,1.3481-3.1704,3.1497-4.2578,1.5925-.9619,3.4321-1.4092,5.7908-1.4092,3.4285,0,7.5471.9653,11.9072,1.9878,5.2031,1.2217,7.9971,2.5142,11.5347,4.1509,2.5146,1.1631,5.3647,2.4819,9.4045,3.9126,5.7417,2.0225,16.6973,5.3872,26.0762,5.3872h.1204c9.7629-.0293,19.9111-3.8481,29.3452-11.0444,10.4441-7.9473,19.1052-19.4727,19.5837-24.0815.1587-1.5298-.2834-2.9844-1.2456-4.0957-.99-1.1372-2.4124-1.7822-3.9124-1.7822-2.2878,0-3.6992,1.248-6.261,3.5132-5.2124,4.6089-16.0588,14.1987-31.8301,15.5698-1.2346.1074-2.4839.1621-3.7158.1621-8.3159,0-16.0203-2.4814-24.9417-5.355-8.145-2.625-13.0994-5.1567-17.4707-7.3906-5.926-3.0283-11.0439-5.6436-20.4221-6.4277-1.9607-.165-4.6482-.3911-7.5996-.3911-9.8145,0-17.2227,2.6309-22.0188,7.8193-2.4878,2.6895-3.613,5.3164-4.5173,7.4272-.9644,2.251-1.2856,2.8257-2.2283,3.2998-.5342.2686-.8953.3052-1.1777.3052-.7927,0-1.8892-.3413-3.1587-.7358-2.0374-.6338-4.573-1.4229-7.7371-1.4229-1.3523,0-2.731.1484-4.0974.4414-5.8779,1.2637-9.0684,4.6235-11.3977,7.0767-1.9299,2.0322-2.8535,2.9399-4.5247,3.1523-.2144.0273-.4104.0405-.6035.0405-1.7019,0-3.3257-1.2158-6.2859-3.5454-2.0208-1.5903-4.3115-3.3926-7.3037-5.1543-7.7825-4.5845-17.0217-6.9092-27.4594-6.9092-6.0436,0-10.9875.7866-13.6437,1.209-10.3812,1.6562-16.4685,5.3442-21.3596,8.3081-4.7518,2.8789-8.1849,4.959-14.5372,4.959-.3102,0-.6273-.0049-.9504-.0151-6.3512-.1978-11.4126-2.5645-22.5023-7.7505l-.0459-.0215c-8.9078-4.1675-12.7754-7.1235-16.5159-9.9819-3.6938-2.8232-7.1829-5.4897-14.3241-8.4561-4.141-1.7188-8.514-2.5537-13.37-2.5537-4.8284,0-9.3395.8076-13.702,1.5884-3.7474.6709-7.287,1.3047-10.5182,1.3047-3.2842,0-5.9094-.6733-8.246-2.1167-1.9285-2.1445-3.8809-13.8384-3.1871-22.6841.4636-5.8545,12.5426-12.5645,23.934-13.2915.6184-.0391,1.2285-.0591,1.8112-.0591,4.2411,0,6.8417,1.0151,9.8529,2.1909,3.0687,1.1982,6.5471,2.5562,11.4463,2.5562,1.2028,0,2.4658-.0835,3.7539-.2476,6.472-.8281,9.6565-3.1777,16.6338-8.3267,3.4684-2.5596,8.2186-6.0649,15.1445-10.7251,13.6223-9.1616,19.9042-13.2803,26.0477-14.8921,4.0035-1.0493,8.0823-1.5596,12.4683-1.5596,5.6622,0,10.9778.8447,16.1183,1.6611,8.4296,1.3408,12.0958,2.9565,15.3304,4.3823,3.3159,1.4619,6.4479,2.8423,12.5818,3.3994,1.5691.1416,3.1704.2129,4.7637.2129,20.5237,0,38.0525-11.6074,47.4695-17.8433,6.6538-4.3965,10.1182-7.6567,12.6477-10.0371,2.8118-2.6465,4.3608-4.1045,8.8311-5.7959,4.8662-1.835,10.2124-2.7666,15.8848-2.7666,9.3613,0,17.7253,2.5547,21.7449,3.7822,9.29,2.8325,14.3784,6.209,19.2993,9.4741,2.9119,1.9326,5.9233,3.9307,9.6104,5.688,7.322,3.4946,15.6711,5.2676,24.813,5.2676,17.9963,0,35.8826-6.8481,47.718-12.5928,11.0657-5.3706,22.5583-12.7202,24.5945-15.7275,1.0017-1.4795,1.2085-3.2466.5679-4.8481-.7947-1.9448-2.6411-3.1792-4.718-3.1792-1.5479,0-2.5591.5586-5.0024,1.9082-6.8389,3.7778-25.0056,13.813-51,14.2183-.3145.0049-.6289.0073-.9443.0073-11.0466,0-21.7498-2.8838-34.7041-9.3511-4.7759-2.3857-7.189-3.8706-9.3176-5.1807-3.4087-2.0972-5.8713-3.6128-14.1929-6.627-9.7253-3.5229-19.895-4.2622-26.7139-4.2622-4.6047,0-8.1628.3281-10.3367.603-17.2061,2.1519-27.6289,9.0771-32.6382,12.4058-.5349.3555-.9934.6611-1.3779.9009-2.9885,1.8652-5.7363,3.623-8.1609,5.1738-7.6348,4.8838-14.2285,9.1016-16.8926,9.1016-.1421,0-.1946-.0171-.1951-.0176-8.5486-3.4971-11.6628-14.2095-12.771-22.5806-1.4619-11.0664,1.7544-14.2817,4.5923-17.1187,1.457-1.4561,2.9634-2.9619,3.8054-5.1807,1.2468-3.2646,3.5759-5.5176,23.2561-16.2881,8.7349-4.7783,14.604-7.8164,18.8894-10.0347,7.8848-4.082,10.541-5.457,14.7703-9.3374,4.2722-3.9053,17.2935-15.8086,18.9658-32.8149,1.2087-12.3784-3.9563-25.3174-14.936-37.4219-4.8582-5.3555-9.6855-9.2686-12.8799-11.6084-6.7961-4.9785-8.7771-4.9785-9.729-4.9785-1.2666,0-2.4795.4536-3.4146,1.2764-1.0527.9385-1.6711,2.2568-1.7197,3.6387-.084,2.3853,1.1951,3.6973,3.314,5.8711,4.3743,4.4883,14.6184,14.998,14.0737,28.2378-.6099,14.5654-4.9202,25.6982-6.5173,27.625-5.4529,4.6235-10.429,7.8823-34.0464,19.126-6.0867,2.897-11.3799,5.2554-15.6333,7.1509-8.7271,3.8887-12.71,5.6636-14.623,7.9229-15.6849,18.4424-12.5248,35.4561-10.4337,46.7144,1.8724,10.0806,1.855,12.4678-2.9376,14.4727-.1919.0088-.5004.0171-.9747.0171-1.4365,0-3.5988-.0771-6.1027-.1665-3.9786-.1426-8.9303-.3193-14.271-.3193-4.1522,0-7.8512.1055-11.3081.3223-15.7198,1.0005-31.3198,9.6958-40.679,17.5005-6.5247,5.4297-14.2332,8.0708-23.562,8.0708-3.6814,0-6.9502-.4189-9.3369-.7241-.9155-.1177-1.7257-.2212-2.4449-.2886-.1533-1.3682.1558-4.1436.3712-6.0776.4203-3.7734.8967-8.0503.2094-12.2485-1.9084-11.7695,2.3407-21.2119,5.7549-28.7993,7.2227-16.0264,18.8098-26.6079,25.0739-31.4883,4.8538-3.79,8.1866-5.5449,11.1272-7.0928,4.0781-2.147,7.6001-4.0015,12.1177-9.481,9.5452-11.5576,11.4215-24.5845,12.3232-30.8447l.0077-.0532c1.2007-8.4253,3.0117-21.1343-3.683-32.7925-3.5403-6.1758-7.4749-8.6396-11.2798-11.0225-2.311-1.4473-4.4939-2.8145-6.9089-5.1914-10.9749-10.8198-11.2003-27.7798-11.335-37.9131-.0372-2.7954-.0665-5.0034-.291-6.793-.6926-5.5244-3.8724-6.6426-5.7062-6.8179-.197-.0181-.3721-.0259-.5527-.0259-2.135,0-4.0891,1.0977-5.808,3.2627-5.012,6.3115-9.9285,23.7637-6.1241,40.1138,1.9788,8.5264,6.3905,17.3682,13.1123,26.2769,3.6246,4.7964,6.4222,7.3643,8.4651,9.2393,2.1792,2,3.1737,2.9131,4.1752,5.4355,4.4307,11.1699,1.8256,20.3101.9094,22.0669-.8716,1.356-1.6903,2.7778-2.4828,4.1538-2.8434,4.937-5.7837,10.0425-12.5135,14.8442-8.2842,5.9019-12.2312,9.9126-15.7134,13.4517-1.9738,2.0054-3.6783,3.7378-6.0015,5.6416-10.5353,8.6313-17.5626,19.584-20.8866,32.5522-.0625.2437-.1117.4404-.1528.584-3.4265,11.8574-15.3185,45.064-28.9556,55.9771-3.4464,2.7554-17.6779,10.4233-20.8237,11.7861-6.2728,2.7192-12.1228,3.29-15.926,3.29l-.4178-.0024c-7.0321-.0742-11.2737-1.8843-21.5215-6.2583-1.8795-.8022-3.9354-1.6797-6.2172-2.6343-13.011-5.4429-19.1982-7.4673-22.895-8.6768-3.5001-1.145-4.2284-1.3833-6.8632-3.1753-10.743-7.3115-21.7255-18.3359-20.3396-27.356.2562-1.6499,3.3911-5.583,24.6919-22.186,5.3717-4.1841,9.4277-7.2559,12.6868-9.7241,8.8374-6.6924,11.5046-8.7124,14.968-13.9834,4.373-6.6631,5.7054-11.8452,6.776-16.0093,1.0438-4.0605,1.6187-6.2969,4.5465-8.7896,3.6041-3.0747,6.7831-3.0986,12.0499-3.1392,4.5269-.0342,10.1606-.0771,16.9911-2.4688,25.4526-8.9102,36.5552-38.9839,37.0116-42.1157.2866-1.9658-.4698-3.811-2.0233-4.9346l-1.3116-.9487-1.631-.0034c-2.4888,0-3.5859,1.3564-5.4036,3.604-1.6453,2.0347-5.0688,6.2686-11.2643,13.251-3.2184,3.6191-5.7993,6.4365-9.6852,9.6992-4.4984,3.7705-7.0763,5.0781-9.5616,5.8813-1.1143.3599-2.6755.8643-3.9312,1.0645.2115-1.1582.766-2.938,1.7793-4.9888.8445-1.7002,1.5212-2.3818,2.4579-3.3252,1.0422-1.0498,2.3394-2.3564,3.5963-4.6978,4.8594-9.0229,1.3726-19.0044.9589-20.1128-4.0751-10.9873-14.5587-15.8701-17.8551-15.8701-1.5345,0-2.9694.6597-3.9365,1.8101-1.4896,1.8008-1.7952,4.7666.4537,7.0103.2493.2485.5111.4775.8427.7671,1.2916,1.1274,3.979,3.4741,5.833,7.4316.9196,1.9585,2.1764,4.6348,1.6558,7.5503-.3254,1.8164-1.264,3.145-4.1821,7.0708-1.5728,2.1167-2.4928,3.0225-3.3044,3.8218-1.058,1.042-2.152,2.1196-3.3063,4.4355-1.6219,3.2705-1.8436,5.856-1.9901,7.5669-.1132,1.3188-.1429,1.3521-.3087,1.5356-.1635.1816-.2075.2305-1.6602.5977-1.1747.2964-2.7834.7031-4.7697,1.5562-5.3461,2.2998-8.5078,5.7197-11.5654,9.0273-5.0717,5.4839-7.1829,10.688-9.0457,15.2793-.8265,2.0371-1.6073,3.9619-2.616,5.8906-2.5542,4.8931-4.5646,6.1616-9.4214,9.2261-4.7719,3.0107-11.3074,7.1338-21.4293,16.6841-2.1689,2.0483-3.9554,3.8286-5.5315,5.3999-5.3676,5.3501-7.0815,6.9233-10.8243,7.6221-.9896.1846-2.0187.2783-3.0587.2783-5.5146,0-10.3115-2.5933-12.118-3.7085-4.6311-2.8296-7.828-6.561-9.5211-11.1021-2.6335-7.082-1.6105-11.48-.2883-13.9219,1.0782-1.9878,2.1663-2.5293,5.4426-3.9404,3.0087-1.2964,7.1294-3.0718,12.0837-7.1831,8.0947-6.7251,12.347-14.6353,15.161-19.8701,1.4734-2.731,1.9852-4.0815,3.6813-8.5566.8385-2.2124,1.9869-5.2427,3.7229-9.6943,6.3535-16.2793,8.1101-19.5918,9.4515-20.5322,1.441-1.0078,2.2003-1.1128,4.4545-1.4248,2.7672-.3828,6.557-.9067,12.9241-3.4717,6.2961-2.5371,10.8448-4.3706,14.8052-8.8433,4.1947-4.731,4.8086-9.1343,5.302-12.6729.3174-2.2764.5466-3.9209,1.6311-5.6089,4.1616-6.4771,16.6317-6.9209,24.0823-7.186,2.0507-.0732,3.8218-.1362,5.2078-.3115,5.4275-.6855,6.1637-4.103,6.2283-5.5405.0624-1.5361-.5096-3.0015-1.6099-4.147-3.531-3.6772-14.4818-4.4824-18.4033-4.4824-.2406,0-.4822.0015-.7217.0054-4.9493.0747-12.4358.1875-19.7982,5.3169-5.5779,3.8892-8.3264,9.7866-11.2362,16.0303l-.5933,1.2705c-.6685,1.4263-1.1417,2.5562-1.522,3.4644-.7384,1.7632-1.0441,2.4932-2.0223,3.7388-1.9961,2.5449-4.4139,4.3652-5.7891,4.9536-.6033-1.2378-1.514-3.0938-3.2565-5.4873-1.9384-2.6543-3.4106-3.9404-4.5936-4.9736-.6895-.6021-1.145-1-1.6375-1.6309-3.4812-4.4355-2.1714-11.6909-1.741-14.0752.4772-2.7163,2.4783-11.7109,8.368-14.3716,1.0332-.4658,1.6309-.4995,2.4921-.4995.2181,0,.4377.0034.6603.0068.2795.0039.563.0078.8538.0078,1.911,0,4.3124-.1714,7.6323-1.4414,4.4-1.6899,6.5482-3.8047,8.2744-5.5044,1.2286-1.2095,2.0403-2.0088,3.7505-2.7075,1.5344-.6289,3.1855-.9336,5.0521-.9336,2.4949,0,4.8185.5474,6.6857.9873,1.4508.3418,2.5968.6118,3.7449.6118,2.9883,0,4.7288-1.8472,5.3613-3.5762.5194-1.3975.4302-2.9697-.2605-4.4028-1.8171-3.77-8.4664-6.7876-11.7285-7.8564-1.7397-.5732-5.3755-1.7705-9.4971-1.7705-3.2278,0-6.1656.7246-8.7322,2.1533-3.5593,1.9751-5.0305,4.5244-6.1049,6.3857-.8517,1.4756-1.0885,1.8398-2.0272,2.248-.4979.2173-.7408.2344-1.0074.2344-.2849,0-.6556-.0312-1.0848-.0674-.6371-.0542-1.4301-.1211-2.3643-.1211-1.7198,0-3.4678.2344-5.3438.7163-5.5048,1.4204-9.2201,4.2266-10.6188,5.2832-2.8407,2.123-6.8418,5.8867-9.6537,11.6748-3.6896,7.5923-3.2421,14.5854-2.8824,20.2041l.0072.1099c.3904,5.9429.6262,9.5298,2.9751,13.8706.4951.9136.9775,1.6631,1.4033,2.3242.8982,1.395,1.0461,1.7031,1.0549,2.1958.0076.3926-.1417.7515-1.0651,2.5664-.243.478-.5107,1.0044-.8019,1.5962-.8936,1.812-1.6172,3.6274-2.317,5.3828-.5044,1.2651-.9806,2.46-1.5028,3.6152-2.4385,5.4004-3.7352,9.5454-4.9893,13.5542-1.4778,4.7241-2.754,8.8042-5.7529,14.4058-2.2634,4.229-4.218,7.8809-8.2194,11.6689-2.0472,1.9355-5.4777,5.1787-10.8416,7.0913-2.1062.749-3.6427.9761-5.2695,1.2163-2.4504.3623-5.228.7725-9.0406,2.8354-1.0962.5928-2.0186,1.1787-2.8,1.7275-.4113-3.1035-.6006-8.3159-.0542-15.6802.202-2.6143.6785-8.7729,4.9701-25.7012,1.7826-7.0186,3.0326-11.2314,4.037-14.6162,1.3864-4.6724,2.3024-7.7588,3.2106-13.7764,1.6476-10.9048,2.7361-18.1094-.2051-26.8506-1.3468-4.0083-2.9137-6.4629-4.1727-8.4351-1.3447-2.1064-2.0854-3.2666-2.4147-5.9087-.7305-5.8682,1.8531-10.8589,4.5885-16.1426,1.3915-2.7026,5.0739-9.8545,12.7271-15.2402,3.5701-2.5098,5.7726-3.1069,8.323-3.7979,2.6943-.7305,5.7482-1.5581,9.7367-4.3784,12.3231-8.7109,16.5667-24.4707,16.1788-29.2734-.2325-2.8804-2.121-4.1011-2.9221-4.4922l-1.0382-.5068-1.188-.0073h0Z"/>
      </g>
      <g>
        <path class="cls-2" d="M368.212,414.2712c-6.5566,0-13.4375-1.2332-18.4082-3.2988-7.0186-2.9087-12.3906-10.1161-14.0186-18.8091-.6465-3.4454-.8555-7.0066-.6221-10.5839,1.4131-21.3214,18.2783-40.923,39.2305-45.5962,3.4121-.7616,6.957-1.1478,10.5352-1.1478,13.6377,0,26.9229,5.4452,36.4492,14.9393.2139.2024.4404.4395.667.6771,1.0791,1.1199,2.1074,2.298,3.0527,3.4963,4.7979,6.0964,7.5605,12.8224,7.9893,19.4521.6338,9.7433-4.1484,19.0786-11.8994,23.2292-4.3955,2.3668-9.3467,2.9905-14.1338,3.5935-1.3242.1667-2.6465.333-3.9531.5363-4.9727.7804-8.6396,3.2943-12.5215,5.9558-3.1377,2.1515-6.3818,4.3762-10.501,5.8268-3.207,1.1312-7.3105,1.7292-11.8662,1.7292Z"/>
        <path class="cls-3" d="M384.9285,336.3354c13.0488,0,26.1171,5.2593,35.3912,14.502.22.21.4299.4297.6399.6499,1.04,1.0801,2.03,2.21,2.9601,3.3901,4.25,5.3999,7.23,11.8096,7.67,18.6196.5599,8.6001-3.51,17.7402-11.1101,21.8101-5.33,2.8701-11.6299,3.04-17.61,3.9702-9.4301,1.48-14.2899,8.6797-23.2899,11.8501-3.2111,1.1323-7.2124,1.644-11.3674,1.644-6.3391,0-13.0364-1.1909-17.8326-3.1841-7.0699-2.9302-11.71-10.1699-13.12-17.7002-.64-3.4102-.8201-6.8301-.6-10.21,1.37-20.6602,17.9301-39.7402,38.0599-44.23,3.3552-.749,6.7817-1.1118,10.2089-1.1118M384.9295,333.3354h-.0001c-3.689,0-7.3439.3984-10.8632,1.1841-21.5754,4.812-38.9438,25-40.3999,46.959-.2415,3.709-.0244,7.3955.6449,10.9619,1.7197,9.1841,7.4368,16.8169,14.9198,19.9185,5.1406,2.1362,12.2374,3.4126,18.9813,3.4126,4.7228,0,8.9987-.6274,12.3651-1.8149,4.3041-1.5161,7.6317-3.7974,10.8499-6.0039,3.9-2.6743,7.2682-4.9834,11.9075-5.7114,1.2744-.1982,2.6128-.3672,3.907-.5298,4.924-.6206,10.0156-1.2617,14.6603-3.7627,8.2546-4.4204,13.3533-14.3267,12.6814-24.6465-.4479-6.9316-3.3202-13.9453-8.3063-20.2803-.9725-1.2339-2.0342-2.4502-3.1565-3.6157-.2246-.2354-.4595-.48-.7046-.7148-9.8042-9.7593-23.4658-15.356-37.4866-15.356h0Z"/>
      </g>
      <path class="cls-5" d="M594.4795,468.6762c.1534-2.2591-1.423-4.5044-3.5745-4.8511-2.6238-.4227-5.2365,2.1177-5.1063,4.8511.1025,2.1524,1.9019,4.3416,4.3417,4.3404,2.4147-.0011,4.1902-2.1471,4.3391-4.3404Z"/>
      <path class="cls-5" d="M488.782,372.4671c-.7144-4.657-5.4343-8.1678-10.2126-7.6596-4.3489.4626-7.3342,4.1041-8.1702,7.6596-.0823.3501-1.3003,5.931,2.5532,9.1915,3.3647,2.8469,8.2573,1.9461,11.2339,0,2.5815-1.6879,5.217-5.1399,4.5957-9.1915Z"/>
      <path class="cls-5" d="M642.2288,274.4246c2.5847-2.4617,2.1235-6.7832,0-9.1915-2.7688-3.1399-8.4858-3.1654-10.7292,0-1.925,2.7163-.7788,7.0576,2.0334,9.1915,2.3416,1.7766,6.2463,2.3328,8.6958,0Z"/>
      <path class="cls-5" d="M334.0982,255.5309c2.5847-2.4617,2.1235-6.7832,0-9.1915-2.7688-3.1399-8.4858-3.1654-10.7292,0-1.925,2.7163-.7788,7.0576,2.0334,9.1915,2.3416,1.7766,6.2463,2.3328,8.6958,0Z"/>
      <path class="cls-5" d="M400.4416,310.6799c-.3899-6.2569-7.0066-10.4617-12.7659-10.2128-5.7065.2466-8.9771,4.7971-9.1917,5.1064-2.6616,3.8361-3.3943,9.8756,0,13.7872,3.6052,4.1547,9.5735,3.2668,10.7234,3.0638,5.0483-.891,11.6394-5.2426,11.2341-11.7447Z"/>
      <path class="cls-5" d="M405.8122,434.8365c-.1949-3.1285-3.5033-5.2308-6.3829-5.1064-2.8533.1233-4.4885,2.3985-4.5958,2.5532-1.3308,1.918-1.6971,4.9378,0,6.8936,1.8026,2.0773,4.7867,1.6334,5.3617,1.5319,2.5242-.4455,5.8197-2.6213,5.6171-5.8723Z"/>
      <path class="cls-5" d="M352.2239,574.9352c-.1949-3.1285-3.5033-5.2308-6.3829-5.1064-2.8533.1233-4.4885,2.3985-4.5958,2.5532-1.3308,1.918-1.6971,4.9378,0,6.8936,1.8026,2.0773,4.7867,1.6334,5.3617,1.5319,2.5242-.4455,5.8197-2.6213,5.6171-5.8723Z"/>
      <path class="cls-5" d="M342.6249,508.4208c-.1949-3.1285-3.5033-5.2308-6.3829-5.1064-2.8533.1233-4.4885,2.3985-4.5958,2.5532-1.3308,1.918-1.6971,4.9378,0,6.8936,1.8026,2.0773,4.7867,1.6334,5.3617,1.5319,2.5242-.4455,5.8197-2.6213,5.6171-5.8723Z"/>
      <path class="cls-5" d="M500.9923,288.2066c-.1949-3.1285-3.5033-5.2308-6.3829-5.1064-2.8533.1233-4.4885,2.3985-4.5958,2.5532-1.3308,1.918-1.6971,4.9378,0,6.8936,1.8026,2.0773,4.7867,1.6334,5.3617,1.5319,2.5242-.4455,5.8197-2.6213,5.6171-5.8723Z"/>
      <path class="cls-5" d="M165.503,456.6744c-.1949-3.1285-3.5033-5.2308-6.3829-5.1064-2.8533.1233-4.4885,2.3985-4.5958,2.5532-1.3308,1.918-1.6971,4.9378,0,6.8936,1.8026,2.0773,4.7867,1.6334,5.3617,1.5319,2.5242-.4455,5.8197-2.6213,5.6171-5.8723Z"/>
      <path class="cls-5" d="M364.697,443.9565c1.3108-3.1723-.812-8.0093-4.5957-10.2128-3.8127-2.2205-9.3921-1.8131-12.2554,2.0425-2.2261,2.9976-2.2454,7.3187,0,10.7234,7.9131,3.7625,15.2268,1.3777,16.8511-2.5532Z"/>
      <path class="cls-5" d="M219.5799,401.8693c1.3108-3.1723-.812-8.0093-4.5957-10.2128-3.8127-2.2205-9.3921-1.8131-12.2554,2.0425-2.2261,2.9976-2.2454,7.3187,0,10.7234,7.9131,3.7625,15.2268,1.3777,16.8511-2.5532Z"/>
      <path class="cls-5" d="M215.4482,285.6793c.7136-1.7271-.4421-4.3606-2.5021-5.5602-2.0758-1.2089-5.1134-.9871-6.6723,1.112-1.212,1.632-1.2225,3.9846,0,5.8382,4.3082,2.0484,8.29.7501,9.1744-1.39Z"/>
      <path class="cls-5" d="M320.782,397.4884c2.7314-4.3516.644-11.1389-4.085-14.0168-3.0005-1.826-7.4084-2.2874-10.7234,0-4.5671,3.1514-5.3367,10.3315-2.0427,14.5274,4.0867,5.2058,13.5669,4.7214,16.8511-.5106Z"/>
      <path class="cls-5" d="M341.7182,339.4643c-2.5063-2.7508-7.4041-2.6223-10.2129,0-3.1548,2.9453-3.1484,8.5457,0,11.0453,2.3599,1.8737,5.885,1.529,8.1704,0,3.4634-2.3172,4.9031-7.9059,2.0425-11.0453Z"/>
      <path class="cls-5" d="M308.1985,116.0737c-1.2532-1.3754-3.702-1.3112-5.1064,0-1.5774,1.4727-1.5742,4.2728,0,5.5227,1.1799.9368,2.9425.7645,4.0852,0,1.7317-1.1586,2.4515-3.9529,1.0212-5.5227Z"/>
      <path class="cls-5" d="M563.3352,119.6587c-1.2532-1.3754-3.702-1.3112-5.1064,0-1.5774,1.4727-1.5742,4.2728,0,5.5227,1.1799.9368,2.9425.7645,4.0852,0,1.7317-1.1586,2.4515-3.9529,1.0212-5.5227Z"/>
      <path class="cls-5" d="M127.7609,311.7916c-2.5063-2.7508-7.4041-2.6223-10.2129,0-3.1548,2.9453-3.1484,8.5457,0,11.0453,2.3599,1.8737,5.885,1.529,8.1704,0,3.4634-2.3172,4.9031-7.9059,2.0425-11.0453Z"/>
      <path class="cls-5" d="M456.6118,419.9565c3.5127-5.6391,1.7676-13.9929-3.5745-18.2897-6.6028-5.3109-16.5171-2.6677-21.3965,2.9706-3.2671,3.7752-5.7312,10.5739-2.6035,15.8298,3.6011,6.0516,12.0276,5.7092,14.2979,5.617,2.3352-.0948,9.7051-.3943,13.2766-6.1276Z"/>
      <path class="cls-5" d="M452.3206,332.1048c.5884-1.4258-2.218-4.8035-4.2328-4.1469-1.2566.4095-2.2009,2.3871-1.7872,4.7038,3.0657.9435,5.5813.5063,6.02-.5568Z"/>
    </g>
  </g>
</svg>