<?xml version="1.0" encoding="UTF-8"?>
<svg id="Capa_2" xmlns="http://www.w3.org/2000/svg" viewBox="0 0 409.3018 409.309">
  <defs>
    <style>
      .cls-1 {
        fill: #ffcb80;
      }

      .cls-2 {
        fill: #db963b;
      }

      .cls-3 {
        fill: #d1831c;
      }

      .cls-4 {
        fill: #e09528;
      }
    </style>
  </defs>
  <g id="Capa_1-2" data-name="Capa_1">
    <g>
      <g>
        <path class="cls-1" d="M401.5141,204.6509c0,25.0389-11.9278,47.8564-20.4508,69.8825-9.9822,25.8085-17.9897,50.107-37.2063,69.3236-14.6938,14.6938-41.0323,24.6035-59.7552,34.0847-26.6797,13.4959-47.5152,23.5797-79.451,23.5797-25.2495,0-45.7076-9.6119-67.8934-18.2801-22.1859-8.6609-46.0996-16.3707-63.523-32.0011-.4937-.4428-.9873-.9002-1.4664-1.3648-9.1836-8.7481-15.6448-19.8264-21.322-31.5219-4.9148-10.0911-9.2417-20.6468-14.2509-30.5637-13.4669-26.6433-28.4075-51.2395-28.4075-83.1389,0-21.3147,8.6899-34.7453,14.9624-53.9691,6.8387-20.9953,11.8117-47.537,24.8575-64.7645,15.7102-20.7484,37.3878-32.2915,59.9802-45.4607,29.0899-16.9588,60.9676-32.669,97.0632-32.669,26.0553,0,49.1124,10.5993,71.8718,19.7902,24.7268,9.9895,48.7857,19.3182,67.3344,37.867,13.3725,13.3798,21.2203,31.1517,28.9012,48.8873,1.873,4.3123,3.7315,8.6246,5.6553,12.8643.2033.4428.3993.8857.6026,1.3213,11.0712,24.3057,22.498,47.6604,22.498,76.1332Z"/>
        <path class="cls-2" d="M204.6509,7.7876c26.0552,0,49.1123,10.5992,71.8716,19.7902,24.7268,9.9895,48.7859,19.3182,67.3345,37.8669,13.3726,13.3798,21.2205,31.1517,28.9011,48.8873,1.873,4.3124,3.7317,8.6246,5.6555,12.8643.2031.4429.3992.8857.6025,1.3213,11.071,24.3058,22.498,47.6605,22.498,76.1333,0,25.0389-11.928,47.8564-20.4509,69.8826-9.9822,25.8085-17.9897,50.1069-37.2063,69.3235-14.6938,14.6938-41.0322,24.6035-59.7551,34.0847-26.6797,13.496-47.5151,23.5797-79.4509,23.5797-25.2495,0-45.7075-9.6119-67.8936-18.2802-22.1858-8.6608-46.0996-16.3707-63.5229-32.001-.4937-.4429-.9873-.9003-1.4666-1.3649-9.1836-8.748-15.6448-19.8264-21.3218-31.5219-4.915-10.0912-9.2417-20.6469-14.251-30.5637-13.467-26.6433-28.4075-51.2395-28.4075-83.1389,0-21.3147,8.6899-34.7452,14.9624-53.9691,6.8386-20.9954,11.8115-47.5371,24.8574-64.7645,15.7102-20.7484,37.3877-32.2914,59.9802-45.4607,29.0898-16.9587,60.9675-32.6689,97.0632-32.6689M204.6509,0c-37.9045,0-70.9363,16.2107-100.9854,33.7286-1.7939,1.0458-3.5825,2.0814-5.3625,3.1121-21.3411,12.3573-41.4985,24.0293-56.9043,44.3755-10.7515,14.1978-16.1313,33.0258-21.3342,51.2339-1.594,5.5787-3.0999,10.848-4.7192,15.8198-1.7126,5.2493-3.655,10.152-5.5337,14.8932-5.0457,12.7355-9.8115,24.7648-9.8115,41.4878,0,29.9922,12.4185,54.0229,24.4282,77.2627,1.5869,3.0708,3.2278,6.2462,4.8167,9.3893,2.6716,5.2893,5.2249,10.9454,7.6938,16.4153,2.084,4.6168,4.2388,9.3907,6.5059,14.0454,4.9907,10.2815,12.1108,23.4138,22.9265,33.7263.5161.4996,1.0752,1.0199,1.6626,1.5469,16.1653,14.5017,36.9026,22.3955,56.9573,30.0294,2.9453,1.1211,5.991,2.2805,8.9343,3.4296,2.7246,1.0645,5.4773,2.1652,8.1392,3.2296,19.1606,7.6614,38.9734,15.5836,62.5864,15.5836,34.6948,0,57.0645-11.3157,82.9663-24.4182,4.2808-2.1677,8.9783-4.3625,13.9514-6.6862,16.6755-7.7911,35.5759-16.6218,47.7949-28.8409,18.5457-18.5455,27.0918-40.9432,36.1399-64.656.9307-2.439,1.8677-4.895,2.8232-7.365,1.6138-4.1707,3.3284-8.313,5.1438-12.6986,7.7832-18.8022,15.8313-38.2446,15.8313-59.9932,0-28.6219-10.8779-52.4116-21.3977-75.418-.6001-1.3123-1.2009-2.6265-1.8008-3.9435l-.0154-.0337-.0156-.0336c-.1089-.2333-.2153-.4691-.3225-.7058l-.2576-.5669c-1.6365-3.6063-3.2791-7.3918-4.8674-11.0527l-.7236-1.6671c-7.4265-17.1486-15.8474-36.5936-30.5359-51.2902-19.0586-19.0585-43.6733-28.9899-67.478-38.5944l-2.4475-.988c-2.2222-.8973-4.4463-1.8079-6.6758-2.7206C251.5837,8.9658,229.6824,0,204.6509,0h0Z"/>
      </g>
      <g>
        <path class="cls-4" d="M340.3277,242.1247c-3.7431,24.8853-16.2809,47.8753-32.7125,66.9477-14.4569,16.7885-32.4904,31.1343-53.6009,37.8909-24.1478,7.732-50.6984,4.9882-74.7194-3.1245-30.9203-10.4362-58.9539-29.8576-78.5338-55.9722-20.0478-26.7489-30.6427-60.4844-29.5483-93.8075.2855-8.8502,1.3957-17.6608,3.3704-26.3128,11.4514-50.1592,54.624-97.1859,106.1392-100.9528,10.1746-.7375,20.6743.2062,31.3168,3.1404,19.683,5.4402,37.5579,16.1065,53.9182,28.335,10.0318,7.4941,19.6433,15.6861,28.446,24.6077,11.1341,11.2769,20.9994,23.7354,28.8425,37.4945,14.0525,24.6395,21.3087,53.704,17.0819,81.7535Z"/>
        <path class="cls-3" d="M187.3308,66.5541c8.0898-.0001,16.354,1.0767,24.7083,3.3799,19.6831,5.4402,37.5579,16.1064,53.9182,28.335,10.0317,7.4941,19.6433,15.6862,28.446,24.6077,11.134,11.277,20.9993,23.7355,28.8425,37.4946,14.0525,24.6394,21.3086,53.704,17.0818,81.7534-3.7432,24.8854-16.2808,47.8752-32.7124,66.9478-14.457,16.7885-32.4905,31.1343-53.6011,37.8909-9.8999,3.1699-20.2073,4.5795-30.5752,4.5795-14.9211,0-29.9712-2.9172-44.144-7.704-30.9204-10.4362-58.9539-29.8575-78.5339-55.9722-20.0479-26.7489-30.6426-60.4844-29.5483-93.8075.2856-8.8502,1.3958-17.6608,3.3704-26.3127,11.4514-50.1592,54.624-97.1859,106.1392-100.9528,2.1877-.1586,4.3926-.2395,6.6086-.2395M187.3325,62.0175h-.0017c-2.3025,0-4.6365.0846-6.9365.2515-25.2517,1.8463-50.4509,14.0566-70.959,34.3817-19.3977,19.2246-33.3459,44.1149-39.2751,70.0859-2.0129,8.8203-3.1843,17.9635-3.4817,27.1761-.5618,17.1052,1.8113,34.2238,7.0527,50.8774,5.248,16.6743,13.1208,32.0828,23.3997,45.7971,19.6187,26.166,48.283,46.6041,80.7134,57.5498,15.6035,5.27,30.9441,7.9423,45.5947,7.9423,11.2686,0,22.0208-1.6135,31.9587-4.7955,20.0193-6.4073,38.7446-19.6134,55.6553-39.2511,18.5042-21.4784,30.1787-45.4191,33.7607-69.2333,4.1328-27.4261-2.1272-57.4983-17.6272-84.6758-7.6069-13.3448-17.551-26.2764-29.5549-38.4344-8.519-8.6339-18.2627-17.064-28.9592-25.0548-19.9204-14.8894-37.5322-24.1278-55.4248-29.0731-8.53-2.3518-17.2483-3.5438-25.915-3.5438h0Z"/>
      </g>
    </g>
  </g>
</svg>