<?xml version="1.0" encoding="UTF-8"?>
<svg id="Capa_2" xmlns="http://www.w3.org/2000/svg" viewBox="0 0 409.3018 409.3091">
  <defs>
    <style>
      .cls-1 {
        fill: #70569b;
      }

      .cls-2 {
        fill: #604593;
      }

      .cls-3 {
        fill: #47327c;
      }

      .cls-4 {
        fill: #a486ce;
      }
    </style>
  </defs>
  <g id="Capa_1-2" data-name="Capa_1">
    <g>
      <g>
        <path class="cls-4" d="M204.6509,405.4153c-22.8643,0-41.457-7.4346-61.1416-15.3059-2.7051-1.0815-5.4238-2.1687-8.1689-3.2415-2.9639-1.1567-5.959-2.2971-8.9658-3.4417-19.7217-7.5071-40.1143-15.27-55.7412-29.2876-.5312-.4775-1.0625-.9697-1.5771-1.4695-10.3506-9.8596-17.2568-22.6108-22.1133-32.6152-2.2393-4.5979-4.3818-9.3447-6.4541-13.9353-2.4863-5.5088-5.0576-11.2053-7.7695-16.573-1.5986-3.1636-3.2188-6.2988-4.833-9.4209-12.3379-23.8765-23.9922-46.4287-23.9922-75.4739,0-15.98,4.6328-27.6738,9.5371-40.0544,1.9004-4.7959,3.8652-9.7554,5.6162-15.1226,1.6416-5.0378,3.1572-10.3408,4.7607-15.9551,5.1045-17.8633,10.3838-36.335,20.6943-49.9521,14.9326-19.7202,34.7598-31.2009,55.751-43.356,1.7832-1.0327,3.5752-2.0703,5.373-3.1182C135.2036,19.8499,167.6704,3.8938,204.6509,3.8938c24.2646,0,45.8037,8.8176,66.6348,17.3447,2.2363.9155,4.4668,1.8289,6.6953,2.7285l2.4482.988c24.5225,9.8943,47.6846,19.2397,66.1807,37.7363,14.166,14.1738,22.4307,33.2568,29.7217,50.0933l.7383,1.7012c1.5889,3.6626,3.2324,7.4497,4.8896,11.1013l2.4023,5.2622c10.3467,22.6279,21.0459,46.0264,21.0459,73.8015,0,20.9751-7.8975,40.0544-15.5361,58.5056-1.8242,4.4065-3.5469,8.5686-5.1768,12.7822-.957,2.4731-1.8955,4.9333-2.8281,7.3762-8.8955,23.3149-17.2979,45.3367-35.2568,63.2954-11.7334,11.7344-30.3037,20.4109-46.6885,28.0662-5.002,2.3372-9.7275,4.5447-14.0605,6.739-25.459,12.8784-47.4443,23.9998-81.21,23.9998Z"/>
        <path class="cls-1" d="M204.6509,7.7876c26.0552,0,49.1123,10.5991,71.8716,19.79,24.7271,9.9897,48.7856,19.3184,67.3345,37.8672,13.3726,13.3799,21.2202,31.1514,28.9014,48.8872,1.873,4.3125,3.7314,8.6248,5.6553,12.8643.2031.4429.3994.8857.6025,1.3213,11.0713,24.3057,22.498,47.6604,22.498,76.1333,0,25.0388-11.9277,47.8564-20.4507,69.8826-9.9824,25.8086-17.9897,50.1069-37.2065,69.3235-14.6938,14.6938-41.0322,24.6035-59.7554,34.0847-26.6797,13.4958-47.5151,23.5798-79.4507,23.5798-25.2495,0-45.7075-9.6121-67.8936-18.2803-22.186-8.6609-46.0996-16.3706-63.5229-32.001-.4937-.4429-.9873-.9001-1.4666-1.3647-9.1836-8.7483-15.6448-19.8264-21.322-31.522-4.9148-10.0911-9.2415-20.647-14.2507-30.5637-13.467-26.6433-28.4075-51.2395-28.4075-83.1389,0-21.3147,8.6899-34.7454,14.9624-53.9692,6.8386-20.9951,11.8115-47.5371,24.8574-64.7642,15.7102-20.7485,37.3877-32.2915,59.98-45.4609,29.0903-16.959,60.9678-32.6689,97.0635-32.6689M204.6509,0c-37.9048,0-70.9365,16.2104-100.9858,33.7285-1.7942,1.0464-3.583,2.082-5.3635,3.1128-21.3406,12.3574-41.4973,24.0293-56.9028,44.375-10.7515,14.1973-16.1313,33.0254-21.3342,51.2334-1.594,5.5789-3.0999,10.8481-4.7192,15.8201-1.7126,5.2493-3.655,10.1519-5.5337,14.8933-5.0457,12.7356-9.8115,24.7649-9.8115,41.4878,0,29.9922,12.4185,54.0229,24.4282,77.2627,1.5869,3.0708,3.2278,6.2461,4.8167,9.3894,2.6721,5.2898,5.2253,10.9465,7.6946,16.417,2.0837,4.6162,4.2383,9.3896,6.5049,14.0435,4.9915,10.283,12.113,23.417,22.9307,33.7305.5137.4973,1.0715,1.0161,1.6587,1.5427,16.1653,14.502,36.9023,22.3958,56.957,30.0295,2.9453,1.1211,5.9912,2.2805,8.9346,3.4294,2.7246,1.0647,5.4775,2.1653,8.1396,3.23,19.1606,7.6614,38.9731,15.5835,62.5859,15.5835,34.6938,0,57.0635-11.3157,82.9658-24.4182,4.2808-2.1677,8.978-4.3623,13.9512-6.686,16.6758-7.7913,35.5767-16.6218,47.7959-28.8411,18.5449-18.5449,27.0913-40.9421,36.1392-64.6541.9307-2.4397,1.8682-4.8962,2.8237-7.3669,1.6138-4.1707,3.3286-8.313,5.144-12.6985,7.7832-18.8022,15.8311-38.2449,15.8311-59.9934,0-28.6233-10.8784-52.4136-21.3989-75.4207-.5996-1.3115-1.2002-2.6248-1.7998-3.9409l-.0142-.0315-.0146-.0315c-.1089-.2334-.2153-.4695-.3228-.7061l-.2593-.5708c-1.6328-3.5986-3.272-7.3762-4.8574-11.0295l-.7334-1.6904c-7.4272-17.1489-15.8486-36.5942-30.5361-51.29-19.0586-19.0581-43.6729-28.9897-67.4771-38.5942l-2.4487-.9883c-2.2222-.8975-4.4463-1.8081-6.6758-2.7207C251.584,8.9658,229.6826,0,204.6509,0h0Z"/>
      </g>
      <g>
        <path class="cls-2" d="M223.4399,353.811c-14.4033,0-29.501-2.6321-44.8711-7.8232-32-10.8005-60.2764-30.9585-79.6221-56.7605-20.4668-27.3071-31.1211-61.1316-30.002-95.2427.2939-9.0667,1.4463-18.0647,3.4277-26.7429,5.834-25.5571,19.5635-50.0544,38.6592-68.98,20.124-19.9446,44.8154-31.9236,69.5254-33.7305,2.2471-.1628,4.5254-.2454,6.7725-.2454,8.4658,0,16.9814,1.1646,25.3125,3.4612,17.6133,4.8684,34.9863,13.9893,54.6738,28.7051,10.6035,7.9221,20.2607,16.2766,28.7012,24.8313,11.8652,12.0166,21.6895,24.7898,29.1992,37.9644,15.248,26.7358,21.4111,56.2891,17.3545,83.2148-3.5186,23.3899-15.0117,46.9353-33.2373,68.0901-16.6338,19.3157-35.0127,32.293-54.6279,38.571-9.7139,3.1101-20.2324,4.6873-31.2656,4.6873Z"/>
        <path class="cls-3" d="M187.3306,66.5542c8.0898-.0005,16.3545,1.0762,24.7085,3.3799,19.6831,5.4399,37.5581,16.1064,53.918,28.335,10.0322,7.4941,19.6436,15.686,28.4463,24.6077,11.1343,11.2769,20.9995,23.7354,28.8423,37.4944,14.0527,24.6396,21.3091,53.7041,17.082,81.7537-3.7432,24.8853-16.2808,47.8752-32.7124,66.9475-14.457,16.7886-32.4907,31.1345-53.6011,37.8911-9.8999,3.1699-20.207,4.5793-30.5747,4.5793-14.9214,0-29.9717-2.9172-44.1445-7.7039-30.9204-10.4363-58.9541-29.8577-78.5339-55.9722-20.0479-26.749-30.6428-60.4844-29.5483-93.8076.2854-8.8501,1.3958-17.6609,3.3704-26.3127,11.4514-50.1594,54.624-97.1858,106.1392-100.9529,2.188-.1587,4.3921-.2393,6.6084-.2393M187.3315,62.0176h-.0015c-2.3022,0-4.6357.0845-6.936.251-25.2515,1.8467-50.4507,14.0571-70.959,34.3818-19.3975,19.2246-33.3457,44.1152-39.2749,70.0862-2.0132,8.8213-3.1848,17.9648-3.4817,27.1763-.562,17.105,1.811,34.2236,7.0527,50.8774,5.248,16.6743,13.1208,32.0828,23.3997,45.7971,19.6182,26.1658,48.2827,46.6038,80.7134,57.5498,15.604,5.2698,30.9448,7.9421,45.5952,7.9421,11.2681,0,22.0205-1.6135,31.958-4.7954,20.0195-6.4075,38.7446-19.6135,55.6553-39.2515,18.5044-21.4778,30.1787-45.4185,33.7612-69.2329,4.1328-27.4258-2.1274-57.498-17.6274-84.676-7.6069-13.3447-17.5508-26.2761-29.5552-38.4341-8.5195-8.6348-18.2632-17.0649-28.9595-25.0547-19.9199-14.8896-37.5317-24.1284-55.4243-29.0732-8.5293-2.3521-17.248-3.5439-25.916-3.5439h0Z"/>
      </g>
    </g>
  </g>
</svg>