<?xml version="1.0" encoding="UTF-8"?>
<svg id="Capa_2" xmlns="http://www.w3.org/2000/svg" viewBox="0 0 736.4037 754.6475">
  <defs>
    <style>
      .cls-1 {
        fill: #599dd1;
      }

      .cls-2 {
        fill: #1e86c6;
      }

      .cls-3 {
        fill: #0476af;
      }

      .cls-4 {
        fill: #4291c1;
      }

      .cls-5 {
        fill: #86bfea;
      }
    </style>
  </defs>
  <g id="Capa_1-2" data-name="Capa_1">
    <g>
      <g>
        <path class="cls-5" d="M229.5286,750.1475c-14.9434,0-27.1006-.4399-38.2607-1.3853-29.7227-2.5366-53.3262-9.0117-74.2861-20.3784-9.3955-5.1016-18.4688-11.332-26.9697-18.519-17.8008-15.0459-25.543-35.7842-33.0312-55.8394-3.1885-8.5405-6.4854-17.3721-10.5352-25.7485-2.1436-4.437-4.335-8.8784-6.5332-13.3374-17.9902-36.4766-36.5938-74.1948-35.3525-119.9434,1.0449-38.5562,15.4463-73.8452,30.6943-111.2056,3.832-9.3877,7.793-19.0952,11.6338-29.0605,2.2393-5.8135,4.4795-11.7158,6.7432-17.6831,19.3008-50.8691,41.1758-108.5249,80.6709-155.2244,31.7188-37.5208,71.4014-62.1709,109.7773-86.0098,8.6455-5.3704,17.585-10.9236,26.1123-16.4424,11.4277-7.3958,22.2354-15.6316,32.6875-23.5962,20.959-15.9709,40.7549-31.0562,64.4678-39.2585,23.3525-8.0852,48.2725-12.0159,76.1816-12.0159,26.6963,0,52.707,3.5173,77.8613,6.9187l2.7402.3704c4.3672.5894,8.7178,1.1487,13.043,1.7046,40.5752,5.2151,78.8994,10.1409,110.4492,36.8186,2.7539,2.3301,5.4639,4.8577,8.0557,7.5134,20.0264,20.5771,31.082,47.4268,41.7734,73.3923l.3076.7468c1.3955,3.3906,2.8008,6.7898,4.2266,10.1792,17.6709,42.0723,36.7646,99.0115,27.4902,166.4573-4.1982,30.5674-19.749,59.2871-36.2129,89.6929-7.3154,13.5098-14.8799,27.48-21.2705,41.5005-5.9912,13.1465-11.2773,26.8159-16.3887,40.0356-12.8652,33.2695-26.167,67.6724-52.2598,98.5332-19.251,22.772-45.1016,41.4082-70.1016,59.4312-9.9834,7.1968-19.4131,13.9951-28.0596,20.8086-9.165,7.2271-17.5625,14.353-25.6836,21.2441-21.0283,17.8438-40.8916,34.6982-67.042,46.7949-47.4551,21.9341-100.7061,22.5483-147.6895,23.0903-5.3691.0615-10.6494.1226-15.8203.2153-7.4658.1362-13.6367.1997-19.4189.1997Z"/>
        <path class="cls-4" d="M443.5286,8.9998c27.356-.0005,54.0464,3.7441,79.999,7.2485,44.5996,6.02,87.3296,8.8699,121.1899,37.5,2.73,2.3101,5.2998,4.72,7.7397,7.22,19.6001,20.1399,30.2402,46.24,41.1401,72.71,1.3999,3.4001,2.8101,6.8101,4.2397,10.21,20.6904,49.26,35.6001,102.8701,27.1802,164.1001-5.9897,43.6101-36.7998,85.3601-57.1201,129.9399-21.0098,46.1001-32.04,95.01-67.9897,137.53-26.5703,31.4299-67.3198,55.8201-97.5103,79.6101-33.3496,26.2998-56.4399,51.1199-91.8296,67.49-51.9902,24.03-111.9302,22-161.7002,22.8899-6.5781.1201-13.0229.1992-19.3413.1992-13.1504,0-25.7539-.3423-37.8789-1.3691-26.1299-2.23-50.0596-7.6702-72.52-19.8501-8.9497-4.8599-17.6699-10.78-26.21-18-24.23-20.48-28.73-51.79-42.4199-80.1099-19.48-40.3101-42.7998-81.03-41.4399-131.2002,1.2803-47.21,22.8101-88.8999,42.0303-138.7698,21.5698-56,43.1299-120.1602,86.6499-171.6201,38.5498-45.6001,89.6099-72.27,134.8999-101.5801,33.9302-21.96,61.23-50.29,96.1802-62.3799,25.3818-8.7876,50.312-11.7678,74.7109-11.7686M443.5379,0v9l-.0034-9c-28.4268.0007-53.8276,4.012-77.6611,12.2637-24.3926,8.4377-44.4683,23.7356-65.7222,39.9319-10.3843,7.9128-21.1221,16.0952-32.4038,23.397-8.4912,5.4954-17.0151,10.7903-26.0396,16.3958-38.6733,24.0234-78.6636,48.865-110.8433,86.9294-39.9917,47.2881-62.0127,105.3284-81.4419,156.5366-2.314,6.0991-4.5,11.8601-6.7334,17.6592-3.8237,9.9216-7.7769,19.6074-11.6001,28.9741C15.6814,419.8394,1.1287,455.4973.0608,494.8743c-1.2705,46.8628,17.5835,85.0898,35.8164,122.0583,2.1553,4.3694,4.3838,8.8877,6.5166,13.3018,3.9585,8.1887,7.2183,16.9197,10.3706,25.3635,7.6904,20.5981,15.6426,41.8977,34.3433,57.7041,8.7334,7.3835,18.0615,13.7883,27.7246,19.0354,21.5288,11.6748,45.6929,18.3176,76.0498,20.9082,11.2944.9565,23.5718,1.4019,38.644,1.4019,5.8101,0,12.0078-.0637,19.5059-.2007,5.1465-.092,10.314-.1516,15.7852-.2148,47.4346-.5469,101.1987-1.1667,149.5264-23.5039,26.7104-12.3552,46.8003-29.4028,68.0698-47.4517,8.0898-6.8647,16.4551-13.9634,25.5571-21.1411,8.5674-6.7512,17.9585-13.5212,27.9009-20.689,25.2212-18.1821,51.3008-36.9832,70.9092-60.1777,26.5811-31.4387,40.0225-66.2012,53.0215-99.8191,5.0879-13.1577,10.3486-26.7634,16.2852-39.7888,6.3257-13.8784,13.8521-27.7783,21.1309-41.2205,15.9316-29.4229,32.4058-59.8477,36.7158-91.2273,9.4229-68.5266-9.9062-126.2114-27.7988-168.8101-1.5171-3.6072-2.9819-7.1553-4.2153-10.1509l-.3052-.741c-10.8545-26.3628-22.0791-53.623-42.7075-74.8196-2.7017-2.7681-5.5166-5.394-8.376-7.8135-32.5679-27.5376-71.5322-32.5457-112.7842-37.8479-4.2603-.5476-8.666-1.1138-13.0151-1.7009l-2.75-.3716c-25.2954-3.4207-51.4521-6.9575-78.4438-6.9575h0Z"/>
      </g>
      <g>
        <path class="cls-2" d="M652.2017,182.6463c-.6055-1.2518-1.2363-2.4857-1.8812-3.6983-16.7026-31.401-43.6947-56.6727-74.5321-74.394-30.8376-17.7213-65.4357-28.1962-100.5036-34.1323-10.1211-1.7132-20.3025.0766-30.5535-.4618-27.5497-1.4469-35.4908,27.5302-14.8676,37.2875,6.33,2.9948,13.7061,2.2373,20.6781,1.5824,34.3971-3.2308,70.1208-2.1701,101.9742,11.2079,31.8532,13.378,59.2901,40.9028,65.2652,74.9307,2.1217,12.0831,3.2979,27.1926,14.6387,31.8706,10.3504,4.2693,22.3978-4.8967,24.9318-15.8024,2.2233-9.5678-.8195-19.4377-5.15-28.3904Z"/>
        <path class="cls-2" d="M527.1725,146.9178c-14.4241-18.7701-64.1143-27.7981-64.1144-27.7979-45.6944-8.3016-68.9806-12.3886-90.4688-9.2452-34.9165,5.1074-44.5041,17.5965-47.7489,23.2403-1.2602,2.192-5.4271,9.4401-2.6008,14.9691,3.974,7.7731,18.9264,6.5865,20.7591,6.4205,11.8375-1.0706,16.9627-7.2809,26.6935-12.6218,17.4903-9.6005,35.3138-8.4093,51.5871-7.3215,10.149.6783,27.9348,1.8669,46.4028,12.1515,5.8923,3.2814,15.1754,9.3382,33.4035,19.1605,9.2245,4.9708,15.1591,7.8985,20.8145,5.4549,5.2797-2.2819,9.1312-8.7343,8.9867-14.7977-.1174-4.9323-2.8531-8.4919-3.7142-9.6128Z"/>
        <path class="cls-2" d="M622.9704,279.0889c.1884-.95.2953-1.9105.3136-2.8623.136-7.062-3.2059-13.66-6.3157-20.0019-11.9281-24.3256-21.9643-50.2814-40.4028-70.1318-3.8574-4.1528-8.7482-8.2626-14.4046-7.9013-13.6025.8689-15.357,19.356-9.2866,28.2904,3.7958,5.5868,9.4862,9.5386,14.8441,13.6512,12.634,9.6976,24.6837,22.0863,27.3295,37.7917,1.1298,6.7067.4636,13.6793,2.1996,20.2552,1.7359,6.5759,7.0345,13.0622,13.8326,12.8572,6.1085-.1842,10.6807-5.8503,11.8903-11.9484Z"/>
        <path class="cls-2" d="M615.755,385.4144c.3426-.9301.6223-1.8831.8384-2.8455,1.4253-6.3544.2668-12.9808-1.1255-19.3428-8.567-39.1489-26.089-76.3748-51.2447-107.5708-25.1556-31.196-57.9439-56.2782-94.8595-71.874-4.0842-1.7255-8.4227-3.367-12.831-2.889-13.104,1.4205-11.5083,18.6731-4.458,25.7492,4.5033,4.5201,10.5419,7.1011,16.3956,9.6404,30.2594,13.1264,60.8755,28.7992,80.9599,54.9639,13.0511,17.0024,20.7954,37.3537,29.7742,56.8165,5.0917,11.0378,10.7767,22.7279,9.0764,34.7643-1.0316,7.3014-4.7703,14.46-3.3307,21.6917,1.0001,5.022,4.6371,9.4411,9.3727,11.3883,4.7355,1.9474,10.4293,1.3653,14.6724-1.5005,3.163-2.1356,5.4332-5.3927,6.7598-8.9917Z"/>
        <path class="cls-2" d="M431.3526,175.677c-4.382-10.9198-26.6033-11.2342-54.3367-11.6262-14.3678-.2033-24.2476,1.2739-44.0072,4.2282-5.7073.8531-15.6409,2.4619-25.6428,9.0683-9.1359,6.0344-10.3064,10.94-10.5817,12.4069-.9201,4.9056.7771,10.8224,4.8717,14.0432,7.0152,5.5183,17.943.6648,22.1667-1.2111,9.7579-4.3337,9.2696-8.8117,18.2592-13.7954,9.8992-5.488,19.7855-5.2112,28.7173-4.9608,9.7877.2739,19.7075.5522,29.4048,6.5747,5.1032,3.1694,8.4647,6.8858,14.8119,7.1151,1.3895.0502,6.8686.0759,11.2298-3.6634,5.0912-4.3654,7.3051-12.7019,5.107-18.1794Z"/>
        <path class="cls-2" d="M485.0553,250.8446c-17.7746-12.9197-31.5507-20.0844-34.7059-21.7055-11.7381-6.0303-38.0394-18.3309-74.4597-23.6102-3.1559-.4577-36.9845-5.087-59.2369,5.1169-5.4319,2.4908-10.4427,5.9887-13.2694,11.7275-.703,1.4269-4.6254,9.3903-.6728,16.9109,3.739,7.1139,11.8025,8.6542,13.517,8.9818,4.4552.8511,8.081.0389,19.789-4.0454,10.2476-3.5746,15.5813-5.7818,18.5804-6.8584,11.4137-4.0961,20.9829-3.2885,35.7755-2.0394,25.5648,2.1584,44.8349,9.947,51.5235,12.8343,8.808,3.8021,28.4019,13.1784,48.2019,31.8572,15.0898,14.2352,23.1907,27.167,31.9174,41.0979,8.9035,14.213,15.7914,25.4308,16.5894,37.5744.4184,6.372,1.4441,12.7239,1.3575,19.1092-.0681,5.0003-.4502,8.0234,1.2206,11.9052.4151.9646,2.9205,6.5432,8.9192,9.3466,6.5621,3.0669,14.4578,1.4831,18.3911-1.4604,12.324-9.2236.974-43.1997-.8992-48.8074-16.739-50.1083-58.6071-80.5403-82.5385-97.9351Z"/>
        <path class="cls-2" d="M505.4168,365.1217c1.9634-8.6847-2.876-17.2455-14.8153-32.9208-12.711-16.6883-19.0662-25.0323-27.7179-32.9189-25.6292-23.3634-51.515-32.4803-64.6704-36.962-24.5561-8.3654-38.2361-7.679-48.3364-5.094-6.1264,1.5682-16.4342,4.3557-18.7703,12.2559-1.6665,5.6349,1.2541,12.0758,5.1711,15.6988,5.1396,4.7539,11.9436,4.6088,21.163,4.4119,8.5439-.1823,11.2761-1.6444,19.432-2.5816,1.0495-.1206,13.5822-1.4889,25.6127.6528,18.814,3.3494,31.4151,14.3959,38.7441,20.8203,9.8676,8.65,18.4359,16.1609,22.2762,28.6175.9876,3.2027,2.2396,8.6048,6.0822,21.5966,1.5066,5.0931,2.9308,9.7296,6.6906,14.6465,2.5467,3.3309,5.3846,7.0419,10.1181,7.8088,6.1548.9969,11.2162-3.6808,12.7573-5.1053.193-.1788,4.8238-4.5612,6.2629-10.9268Z"/>
        <path class="cls-2" d="M639.6043,249.8337c-1.4713-3.2703-5.3464-5.3035-9.0318-4.2044-3.5068,1.0458-5.8825,4.6415-5.2943,8.0974.7295,4.287,5.5616,5.6663,5.9172,5.7616.6322.1695,4.0584,1.0883,6.696-1.09,2.4808-2.0487,2.9708-5.7689,1.7129-8.5646Z"/>
        <path class="cls-2" d="M557.1987,138.1055c-.9968-1.2451-2.9546-1.6393-4.4538-1.0797-2.2402.8362-3.1236,3.6776-2.5643,5.8034.4012,1.5245,1.7127,3.3206,3.644,3.509.1018.0099,1.8219.1504,2.9692-1.0797.745-.7988.825-1.7213.9448-3.1041.1597-1.8415.2637-3.045-.5398-4.0488Z"/>
        <path class="cls-2" d="M397.8087,80.3011c-1.7682-3.5591-6.0125-5.1646-9.4474-5.1286-5.1334.0539-8.2275,3.7717-8.9074,4.5887-.8797,1.0571-5.1948,6.5919-2.4294,12.1466,1.9209,3.8582,6.3626,5.928,10.2572,5.3984,2.9203-.3971,4.7864-2.1543,5.9383-3.2391.4143-.3901,7.7215-7.4601,4.5887-13.7661Z"/>
        <path class="cls-2" d="M323.9071,155.7332c-1.849-2.4356-5.1771-2.3534-5.8067-2.3227-2.4442.1195-5.4039,1.4773-6.6197,4.4131-1.51,3.646.8337,6.9157,1.0452,7.2003,1.7298,2.3278,5.1277,4.0347,7.8971,2.9034,2.0506-.8377,2.8969-2.8801,3.4841-4.297.5476-1.3216,2.1169-5.1086,0-7.8972Z"/>
        <path class="cls-2" d="M451.3885,155.988c-1.2821-2.2512-4.032-3.7209-6.8831-3.2391-2.8976.4897-4.9619,2.8365-5.4659,5.466-.5181,2.7027.6299,5.6109,3.0367,7.0855,1.839,1.1267,4.179,1.273,6.0732.4049,3.3757-1.5471,5.2094-6.2578,3.2391-9.7173Z"/>
        <path class="cls-2" d="M530.8811,392.6438c-4.0524-6.8159-11.8371-7.4699-13.4962-7.5578-1.429-.0758-9.5102-.5042-14.036,5.9383-3.1702,4.5127-3.1101,10.2813-1.0798,14.5759,4.2197,8.9255,15.6145,8.6605,16.1955,8.6375,1.7249-.0682,8.5768-.3391,12.4165-5.9383,3.3911-4.9449,2.5711-11.3311,0-15.6556Z"/>
        <path class="cls-2" d="M619.0909,309.7381c-.6828-3.5922-4.7963-5.7885-8.2675-5.8017-.5369-.002-5.1897.0562-7.1072,3.7711-1.5445,2.9922-.3187,6.4275,1.4504,8.4125.376.4219,2.3053,2.4934,5.2216,2.6108,4.5425.1828,9.5657-4.4525,8.7027-8.9927Z"/>
      </g>
      <g>
        <path class="cls-2" d="M237.8528,721.1069c-6.4258,0-12.7227-.4326-19.249-1.3218-14.5596-1.9912-51.8701-9.7993-83.832-39.2388-15.6348-14.3906-25.0674-29.5654-38.1221-50.5679-5.5811-8.9888-13.9697-22.4985-21.9551-40.9536-9.7188-22.4556-23.0283-53.21-20.6494-91.1226,1.0732-17.0068,4.9834-32.3081,12.6777-49.6138,3.2783-7.3711,6.8975-14.374,10.3975-21.1465,11.5371-22.3154,30.8477-59.6636,71.5605-84.793,35.334-21.8032,70.7539-24.8091,103.7676-24.8091,3.3428,0,6.6113.0249,9.8018.0488,30.3896.2251,72.0088.5327,116.0576,26.3105,9.3721,5.4971,41.8154,26.3057,65.875,63.3398,12.5879,19.3574,21.0645,40.3325,25.1953,62.3418,7.1562,38.1973-.4834,69.2217-4.1006,80.7876-8.4775,27.2217-22.6523,44.6289-50.8926,79.3096-24.8486,30.5083-37.2998,45.7954-59.9805,59.7119-26.8828,16.4912-52.4609,21.8457-69.3867,25.3892-15.5107,3.2539-30.1641,6.3276-47.165,6.3276Z"/>
        <path class="cls-3" d="M252.4475,320.5403c3.3359,0,6.5981.0247,9.7808.0486,29.8975.2209,71.2144.531,114.5645,25.9001,6.3794,3.7415,39.9907,24.0825,64.875,62.3845,10.9844,16.894,20.2593,37.27,24.7627,61.2607,7.5894,40.5122-1.9385,72.6968-4.0166,79.3389-8.3076,26.6804-22.3335,43.8987-50.3828,78.345-24.6255,30.2336-36.9458,45.3628-59.1958,59.0146-26.4131,16.2036-51.3022,21.4238-68.4312,25.0103-15.3535,3.2205-29.8652,6.2637-46.5498,6.2637-5.9595,0-12.1929-.3877-18.8452-1.2944-8.8481-1.21-48.5005-7.4277-82.2056-38.4727-15.3467-14.1252-24.4712-28.8137-37.6348-49.9927-5.7119-9.1975-13.9575-22.5723-21.7212-40.5134-9.5498-22.0662-22.7412-52.5615-20.4077-89.7434,1.209-19.1731,6.1953-34.5718,12.4238-48.5825,3.2256-7.2495,6.7842-14.1416,10.3218-20.988,11.8188-22.8584,30.4702-58.9275,70.4717-83.6177,36.2476-22.3672,72.1616-24.3616,102.1904-24.3616M252.4475,314.5403c-14.5649,0-31.8823.4634-49.8877,3.8994-20.3066,3.8752-38.4453,10.8608-55.4536,21.356-41.4194,25.5657-60.9697,63.3767-72.6504,85.9683-3.521,6.8135-7.1606,13.8577-10.4741,21.3044-7.8467,17.6516-11.8345,33.2703-12.9302,50.644-2.4243,38.634,11.0503,69.7698,20.8896,92.5042,8.0781,18.6687,16.875,32.833,22.1304,41.2959l.0317.0505c13.1787,21.2034,22.7007,36.5234,38.6367,51.1914,32.585,30.0129,70.6172,37.9734,85.4561,40.0024,6.6655.9087,13.0947,1.3499,19.6582,1.3499,17.3105,0,32.1118-3.1045,47.7817-6.3916,17.127-3.5859,43.0132-9.0059,70.3369-25.7681,23.1147-14.1826,35.6733-29.6011,60.6934-60.3188l.0503-.0615c28.481-34.9771,42.7769-52.5334,51.4258-80.3098,3.6826-11.7693,11.4668-43.3584,4.1855-82.2273-4.2041-22.397-12.8271-43.7361-25.6299-63.4265-24.4175-37.5837-57.3564-58.71-66.8701-64.2896-44.7461-26.1863-86.8281-26.4973-117.5552-26.7244-3.1792-.0239-6.4668-.0488-9.8252-.0488h0Z"/>
      </g>
      <circle class="cls-1" cx="56.388" cy="431.1115" r="10.0157"/>
      <circle class="cls-1" cx="185.2832" cy="194.9809" r="14.1726"/>
      <circle class="cls-1" cx="270.3699" cy="136.7769" r="14.1726"/>
      <circle class="cls-1" cx="96.8843" cy="308.9673" r="5.0079"/>
      <circle class="cls-1" cx="685.2458" cy="255.4922" r="5.0079"/>
      <circle class="cls-1" cx="277.4399" cy="239.6136" r="5.0079"/>
      <circle class="cls-1" cx="245.8082" cy="199.9888" r="5.0079"/>
      <circle class="cls-1" cx="46.3722" cy="552.261" r="5.0079"/>
      <circle class="cls-1" cx="229.3935" cy="288.9269" r="11.4068"/>
      <circle class="cls-1" cx="557.8498" cy="564.932" r="7.0699"/>
      <circle class="cls-1" cx="432.1994" cy="204.0871" r="7.0699"/>
      <circle class="cls-1" cx="418.2346" cy="680.1201" r="7.0699"/>
      <circle class="cls-1" cx="517.7233" cy="526.2398" r="8.6738"/>
      <circle class="cls-1" cx="650.078" cy="400.7096" r="8.6738"/>
      <circle class="cls-1" cx="510.1778" cy="256.1632" r="4.3369"/>
      <circle class="cls-1" cx="623.288" cy="456.3325" r="8.6738"/>
      <circle class="cls-1" cx="493.397" cy="39.2021" r="8.6738"/>
      <circle class="cls-1" cx="530.8906" cy="189.482" r="8.6738"/>
      <circle class="cls-1" cx="134.6806" cy="244.6214" r="8.6738"/>
      <circle class="cls-1" cx="101.8922" cy="687.1901" r="8.6738"/>
      <circle class="cls-1" cx="398.5871" cy="311.3362" r="8.6738"/>
      <circle class="cls-1" cx="423.9697" cy="347.4845" r="5.7351"/>
      <circle class="cls-1" cx="310.9767" cy="86.2801" r="5.7351"/>
      <circle class="cls-1" cx="291.9181" cy="282.2751" r="8.6738"/>
      <circle class="cls-1" cx="389.9133" cy="43.1427" r="8.6738"/>
      <circle class="cls-1" cx="349.5067" cy="303.9364" r="4.3369"/>
      <circle class="cls-1" cx="330.6283" cy="729.5231" r="4.3369"/>
      <circle class="cls-1" cx="176.6094" cy="267.7348" r="8.6738"/>
      <circle class="cls-1" cx="74.5232" cy="367.2509" r="18.1352"/>
      <circle class="cls-1" cx="533.1274" cy="456.3325" r="15.4041"/>
      <circle class="cls-1" cx="586.4179" cy="75.172" r="15.4041"/>
      <circle class="cls-1" cx="668.7489" cy="146.3479" r="18.6709"/>
      <circle class="cls-1" cx="484.7232" cy="621.4677" r="15.4041"/>
      <circle class="cls-1" cx="650.078" cy="332.9442" r="17.3475"/>
      <path class="cls-3" d="M413.3372,466.144c-.1438-9.2688-.3445-22.1799-9.3231-32.2073-7.5516-8.4335-17.3985-10.4555-28.3934-12.7134-10.6761-2.1923-21.8584-4.4886-33.9022.4237-20.4494,8.3407-26.8184,30.7069-27.9696,34.75-3.8497,13.5196-5.0467,36.6063,8.4757,48.3109,5.6223,4.8665,12.4208,6.5811,21.6128,8.8994,6.3097,1.5913,14.9522,3.771,25.4265,2.5426,5.5638-.6525,28.3805-4.2295,38.9878-23.3079,5.3507-9.6239,5.2066-18.897,5.0855-26.6981Z"/>
      <path class="cls-3" d="M254.7313,404.0753c-6.8943-16.2213-38.3867-16.1943-40.1738-16.1739-21.6033.2467-36.2078,11.8754-40.1741,15.1304-4.2773,3.5103-25.6462,21.0469-21.3911,39.1304,1.5229,6.4728,5.6946,10.3193,11.478,15.6522,4.1809,3.8553,19.4302,17.4938,43.3044,18.7826,2.5994.1404,37.2034,1.6464,45.3914-15.6522,3.6143-7.6355-1.614-11.1268-.5217-31.3043.9106-16.823,4.8035-19.1732,2.0869-25.5652Z"/>
      <path class="cls-3" d="M287.3399,597.9014c-5.7703-15.8904-20.4397-21.8258-22.6956-22.6957-21.7668-8.3933-41.0332,6.9517-43.0435,8.6088-1.8386,1.5157-19.3684,16.3345-15.6523,31.3043,1.8291,7.3682,8.2629,11.9556,21.1306,21.1304,7.3008,5.2056,10.9512,7.8083,16.4348,9.3914,2.4236.6997,18.6592,5.1074,32.0869-4.6957,13.3528-9.7484,17.0186-28.5042,11.739-43.0435Z"/>
      <path class="cls-3" d="M380.0792,561.9014c-1.6853-10.1455-16.7729-12.7783-17.6089-12.9131-2.1611-.3483-9.4001-1.4005-16.0435,3.1305-1.3999.9548-8.1252,5.5419-8.2173,12.9131-.0574,4.5946,2.4917,7.9253,3.9131,9.7826,1.3306,1.7385,5.0349,5.9861,11.3477,7.4347,8.2595,1.8953,14.7793-2.4248,16.4348-3.5217,1.1011-.7296,11.6831-7.7413,10.1741-16.826Z"/>
      <path class="cls-3" d="M232.1661,549.3797c1.5337-3.2666,6.054-13.2776,3.1304-25.826-2.8086-12.0548-10.7288-18.9045-12.9131-20.7391-9.4192-7.9109-20.2493-9.1654-28.9565-10.174-6.3296-.7332-12.4414-.4363-13.3042-.3914-4.9966.2604-8.3857.9001-10.1741,1.174-15.1885,2.3252-20.6912-5.5533-36-3.5217-3.0278.4019-10.657,1.5073-18,7.0435-2.0688,1.5597-6.4785,5.2532-9.7825,11.3479-1.9546,3.6057-2.7644,6.8877-4.3044,13.3043-1.3904,5.7939-2.4272,10.1139-2.739,14.4783-.2163,3.0271-.7222,15.0125,6.2607,26.2174,10.6997,17.1689,31.0698,19.8101,35.2175,20.3478,8.5383,1.1071,15.5522-.2042,20.739-1.174,12.0923-2.2606,13.748-5.4438,26.6086-8.2174,13.782-2.9723,14.6262.0911,22.6958-3.1304,14.2126-5.6738,20.5974-18.7706,21.5217-20.7391Z"/>
    </g>
  </g>
</svg>