<?xml version="1.0" encoding="UTF-8"?>
<svg id="Capa_2" xmlns="http://www.w3.org/2000/svg" viewBox="0 0 736.4042 754.6475">
  <defs>
    <style>
      .cls-1 {
        fill: #70569b;
      }

      .cls-2 {
        fill: #604593;
      }

      .cls-3 {
        fill: #47327c;
      }

      .cls-4 {
        fill: #a486ce;
      }

      .cls-5 {
        fill: #8566b2;
      }
    </style>
  </defs>
  <g id="Capa_1-2" data-name="Capa_1">
    <g>
      <g>
        <path class="cls-4" d="M229.5281,750.1475c-14.9434,0-27.1006-.4402-38.2607-1.3853-29.7217-2.5364-53.3252-9.0117-74.2852-20.3782-9.3945-5.1013-18.4678-11.3318-26.9697-18.5195-17.8018-15.0461-25.5449-35.7854-33.0322-55.8418-3.1885-8.5398-6.4854-17.3704-10.5342-25.7458-2.1426-4.4351-4.333-8.8748-6.5312-13.3315-17.9912-36.4783-36.5957-74.1982-35.3555-119.949,1.0449-38.5562,15.4473-73.8447,30.6953-111.2048,3.8311-9.3882,7.793-19.0957,11.6338-29.0615,2.2393-5.8137,4.4795-11.7163,6.7432-17.6833,19.3008-50.8689,41.1758-108.5249,80.6709-155.2241,31.7197-37.5217,71.4033-62.1726,109.7803-86.012,8.6445-5.3696,17.583-10.9221,26.1094-16.4402,11.4268-7.3955,22.2344-15.6309,32.6855-23.5952,20.959-15.9712,40.7559-31.0569,64.4688-39.2595,23.3535-8.0852,48.2734-12.0159,76.1826-12.0159,26.6963,0,52.707,3.5173,77.8613,6.9187l2.7402.3704c4.3672.5894,8.7178,1.1487,13.043,1.7046,40.5742,5.2151,78.8984,10.1409,110.4492,36.8186,2.7461,2.323,5.4561,4.8503,8.0547,7.5129,20.0293,20.5808,31.0859,47.4353,41.7783,73.4058l.3027.7341c1.3955,3.3894,2.8018,6.7893,4.2275,10.179,17.6709,42.0713,36.7637,99.0103,27.4893,166.4575-4.1982,30.5684-19.75,59.2893-36.2148,89.6965-7.3145,13.5088-14.8779,27.4775-21.2686,41.4968-5.9912,13.1453-11.2764,26.814-16.3877,40.0325-12.8643,33.271-26.167,67.6748-52.2598,98.5364-19.251,22.7722-45.1035,41.4092-70.1045,59.4321-9.9824,7.1968-19.4121,13.9944-28.0576,20.8074-9.1641,7.2266-17.5605,14.3518-25.6807,21.2422-21.0293,17.845-40.8926,34.7002-67.0449,46.7974-47.4551,21.9341-100.707,22.5481-147.6914,23.0898-5.3682.0618-10.6475.1228-15.8174.2151-7.4658.1362-13.6377.2-19.4199.2Z"/>
        <path class="cls-1" d="M443.5291,9c27.3555-.001,54.0459,3.7437,79.9985,7.248,44.6001,6.02,87.3301,8.8701,121.1899,37.5,2.73,2.3101,5.3003,4.7202,7.7402,7.2202,19.6001,20.1401,30.2397,46.2397,41.1401,72.71,1.3999,3.3999,2.8096,6.8101,4.2397,10.21,20.6899,49.2603,35.6001,102.8701,27.1802,164.1001-5.9902,43.6099-36.8003,85.3601-57.1201,129.9399-21.0103,46.1001-32.04,95.01-67.9902,137.53-26.5698,31.4299-67.3198,55.8201-97.5098,79.6101-33.3501,26.2998-56.4399,51.1199-91.8301,67.49-51.9902,24.03-111.9302,22-161.7002,22.8899-6.5781.1201-13.0229.1992-19.3413.1992-13.1504,0-25.7539-.3423-37.8784-1.3691-26.1299-2.23-50.0601-7.6702-72.52-19.8501-8.9502-4.8599-17.6699-10.78-26.21-18-24.23-20.48-28.73-51.79-42.4199-80.1099-19.48-40.3101-42.8003-81.03-41.4404-131.2002,1.2803-47.21,22.8101-88.8999,42.0303-138.77,21.5698-56,43.1299-120.1602,86.6499-171.6201,38.5503-45.5996,89.6099-72.27,134.8999-101.5796,33.9302-21.9604,61.23-50.29,96.1802-62.3804,25.3818-8.7876,50.312-11.7676,74.7114-11.7681M443.5364,0v9l-.0024-9c-28.4258.0005-53.8271,4.0122-77.6606,12.2632-24.3931,8.4385-44.4688,23.7368-65.7231,39.9331-10.3838,7.9126-21.1211,16.0947-32.4028,23.3965-8.4902,5.4946-17.0132,10.7886-26.0361,16.3936-38.6748,24.0244-78.666,48.8657-110.8467,86.9312-39.9917,47.2881-62.0127,105.3284-81.4419,156.5366-2.314,6.0991-4.5,11.8601-6.7334,17.6592-3.8242,9.9219-7.7773,19.6077-11.6001,28.9746C15.6814,419.8394,1.1287,455.4976.0608,494.8743c-1.2705,46.8623,17.5835,85.0889,35.8164,122.0569,2.1553,4.3699,4.3838,8.8887,6.5171,13.3032,3.9585,8.1887,7.2183,16.9197,10.3706,25.3635,7.6904,20.5981,15.6426,41.8977,34.3433,57.7041,8.7344,7.3843,18.063,13.7891,27.7246,19.0354,21.5283,11.6746,45.6924,18.3176,76.0498,20.9082,11.2939.9565,23.5718,1.4019,38.6436,1.4019,5.8101,0,12.0078-.0637,19.5059-.2007,5.1465-.092,10.314-.1516,15.7852-.2148,47.4346-.5469,101.1987-1.1667,149.5264-23.5039,26.71-12.355,46.7998-29.4023,68.0688-47.4507,8.0903-6.865,16.4561-13.9639,25.5581-21.1421,8.5679-6.7515,17.9595-13.522,27.9023-20.6899,25.2207-18.1816,51.3003-36.9827,70.9077-60.1768,26.5811-31.4382,40.0225-66.2002,53.021-99.8176,5.0879-13.1582,10.3491-26.7646,16.2856-39.7903,6.3262-13.8789,13.853-27.7795,21.1318-41.2219,15.9312-29.4226,32.4048-59.8467,36.7153-91.2258,9.4229-68.5249-9.9062-126.2104-27.7988-168.8101-1.4868-3.5342-2.9653-7.1143-4.2153-10.1514l-.3071-.7446c-10.854-26.3613-22.0781-53.6196-42.7056-74.8154-2.7007-2.7676-5.5161-5.3936-8.3765-7.8135-32.5679-27.5376-71.5327-32.5459-112.7852-37.8481-4.2603-.5479-8.6655-1.1138-13.0142-1.7007l-2.7476-.3716c-25.2964-3.4204-51.4546-6.9575-78.4478-6.9575h0Z"/>
      </g>
      <g>
        <path class="cls-2" d="M652.2019,182.6463c-.6055-1.2518-1.2363-2.4857-1.8812-3.6983-16.7026-31.401-43.6947-56.6727-74.5321-74.394-30.8376-17.7213-65.4357-28.1962-100.5036-34.1323-10.1211-1.7132-20.3025.0766-30.5535-.4618-27.5497-1.4469-35.4908,27.5302-14.8676,37.2875,6.33,2.9948,13.7061,2.2373,20.6781,1.5824,34.3971-3.2308,70.1208-2.1701,101.9742,11.2079,31.8532,13.378,59.2901,40.9028,65.2652,74.9307,2.1217,12.0831,3.2979,27.1926,14.6387,31.8706,10.3504,4.2693,22.3978-4.8967,24.9318-15.8024,2.2233-9.5678-.8195-19.4377-5.15-28.3904Z"/>
        <path class="cls-2" d="M527.1726,146.9177c-14.4241-18.7701-64.1143-27.7981-64.1144-27.7979-45.6944-8.3016-68.9806-12.3886-90.4688-9.2452-34.9165,5.1074-44.5041,17.5965-47.7489,23.2403-1.2602,2.192-5.4271,9.4401-2.6008,14.9691,3.974,7.7731,18.9264,6.5865,20.7591,6.4205,11.8375-1.0706,16.9627-7.2809,26.6935-12.6218,17.4903-9.6005,35.3138-8.4093,51.5871-7.3215,10.149.6783,27.9348,1.8669,46.4028,12.1515,5.8923,3.2814,15.1754,9.3382,33.4035,19.1605,9.2245,4.9708,15.1591,7.8985,20.8145,5.4549,5.2797-2.2819,9.1312-8.7343,8.9867-14.7977-.1174-4.9323-2.8531-8.4919-3.7142-9.6128Z"/>
        <path class="cls-2" d="M622.9705,279.0889c.1884-.95.2953-1.9105.3136-2.8623.136-7.062-3.2059-13.66-6.3157-20.0019-11.9281-24.3256-21.9643-50.2814-40.4028-70.1318-3.8574-4.1528-8.7482-8.2626-14.4046-7.9013-13.6025.8689-15.357,19.356-9.2866,28.2904,3.7958,5.5868,9.4862,9.5386,14.8441,13.6512,12.634,9.6976,24.6837,22.0863,27.3295,37.7917,1.1298,6.7067.4636,13.6793,2.1996,20.2552,1.7359,6.5759,7.0345,13.0622,13.8326,12.8572,6.1085-.1842,10.6807-5.8503,11.8903-11.9484Z"/>
        <path class="cls-2" d="M615.7551,385.4144c.3426-.9301.6223-1.8831.8384-2.8455,1.4253-6.3544.2668-12.9808-1.1255-19.3428-8.567-39.1489-26.089-76.3748-51.2447-107.5708-25.1556-31.196-57.9439-56.2782-94.8595-71.874-4.0842-1.7255-8.4227-3.367-12.831-2.889-13.104,1.4205-11.5083,18.6731-4.458,25.7492,4.5033,4.5201,10.5419,7.1011,16.3956,9.6404,30.2594,13.1264,60.8755,28.7992,80.9599,54.9639,13.0511,17.0024,20.7954,37.3537,29.7742,56.8165,5.0917,11.0378,10.7767,22.7279,9.0764,34.7643-1.0316,7.3014-4.7703,14.46-3.3307,21.6917,1.0001,5.022,4.6371,9.4411,9.3727,11.3883,4.7355,1.9474,10.4293,1.3653,14.6724-1.5005,3.163-2.1356,5.4332-5.3927,6.7598-8.9917Z"/>
        <path class="cls-2" d="M431.3528,175.677c-4.382-10.9198-26.6033-11.2342-54.3367-11.6262-14.3678-.2033-24.2476,1.2739-44.0072,4.2282-5.7073.8531-15.6409,2.4619-25.6428,9.0683-9.1359,6.0344-10.3064,10.94-10.5817,12.4069-.9201,4.9056.7771,10.8224,4.8717,14.0432,7.0152,5.5183,17.943.6648,22.1667-1.2111,9.7579-4.3337,9.2696-8.8117,18.2592-13.7954,9.8992-5.488,19.7855-5.2112,28.7173-4.9608,9.7877.2739,19.7075.5522,29.4048,6.5747,5.1032,3.1694,8.4647,6.8858,14.8119,7.1151,1.3895.0502,6.8686.0759,11.2298-3.6634,5.0912-4.3654,7.3051-12.7019,5.107-18.1794Z"/>
        <path class="cls-2" d="M485.0554,250.8446c-17.7746-12.9197-31.5507-20.0844-34.7059-21.7055-11.7381-6.0303-38.0394-18.3309-74.4597-23.6102-3.1559-.4577-36.9845-5.087-59.2369,5.1169-5.4319,2.4908-10.4427,5.9887-13.2694,11.7275-.703,1.4269-4.6254,9.3903-.6728,16.9109,3.739,7.1139,11.8025,8.6542,13.517,8.9818,4.4552.8511,8.081.0389,19.789-4.0454,10.2476-3.5746,15.5813-5.7818,18.5804-6.8584,11.4137-4.0961,20.9829-3.2885,35.7755-2.0394,25.5648,2.1584,44.8349,9.947,51.5235,12.8343,8.808,3.8021,28.4019,13.1784,48.2019,31.8572,15.0898,14.2352,23.1907,27.167,31.9174,41.0979,8.9035,14.213,15.7914,25.4308,16.5894,37.5744.4184,6.372,1.4441,12.7239,1.3575,19.1092-.0681,5.0003-.4502,8.0234,1.2206,11.9052.4151.9646,2.9205,6.5432,8.9192,9.3466,6.5621,3.0669,14.4578,1.4831,18.3911-1.4604,12.324-9.2236.974-43.1997-.8992-48.8074-16.739-50.1083-58.6071-80.5403-82.5385-97.9351Z"/>
        <path class="cls-2" d="M505.4169,365.1217c1.9634-8.6847-2.876-17.2455-14.8153-32.9208-12.711-16.6883-19.0662-25.0323-27.7179-32.9189-25.6292-23.3634-51.515-32.4803-64.6704-36.962-24.5561-8.3654-38.2361-7.679-48.3364-5.094-6.1264,1.5682-16.4342,4.3557-18.7703,12.2559-1.6665,5.6349,1.2541,12.0758,5.1711,15.6988,5.1396,4.7539,11.9436,4.6088,21.163,4.4119,8.5439-.1823,11.2761-1.6444,19.432-2.5816,1.0495-.1206,13.5822-1.4889,25.6127.6528,18.814,3.3494,31.4151,14.3959,38.7441,20.8203,9.8676,8.65,18.4359,16.1609,22.2762,28.6175.9876,3.2027,2.2396,8.6048,6.0822,21.5966,1.5066,5.0931,2.9308,9.7296,6.6906,14.6465,2.5467,3.3309,5.3846,7.0419,10.1181,7.8088,6.1548.9969,11.2162-3.6808,12.7573-5.1053.193-.1788,4.8238-4.5612,6.2629-10.9268Z"/>
        <path class="cls-2" d="M639.6044,249.8337c-1.4713-3.2703-5.3464-5.3035-9.0318-4.2044-3.5068,1.0458-5.8825,4.6415-5.2943,8.0974.7295,4.287,5.5616,5.6663,5.9172,5.7616.6322.1695,4.0584,1.0883,6.696-1.09,2.4808-2.0487,2.9708-5.7689,1.7129-8.5646Z"/>
        <path class="cls-2" d="M557.1988,138.1055c-.9968-1.2451-2.9546-1.6393-4.4538-1.0797-2.2402.8362-3.1236,3.6776-2.5643,5.8034.4012,1.5245,1.7127,3.3206,3.644,3.509.1018.0099,1.8219.1504,2.9692-1.0797.745-.7988.825-1.7213.9448-3.1041.1597-1.8415.2637-3.045-.5398-4.0488Z"/>
        <path class="cls-2" d="M397.8088,80.3011c-1.7682-3.5591-6.0125-5.1646-9.4474-5.1286-5.1334.0539-8.2275,3.7717-8.9074,4.5887-.8797,1.0571-5.1948,6.5919-2.4294,12.1466,1.9209,3.8582,6.3626,5.928,10.2572,5.3984,2.9203-.3971,4.7864-2.1543,5.9383-3.2391.4143-.3901,7.7215-7.4601,4.5887-13.7661Z"/>
        <path class="cls-2" d="M323.9072,155.7332c-1.849-2.4356-5.1771-2.3534-5.8067-2.3227-2.4442.1195-5.4039,1.4773-6.6197,4.4131-1.51,3.646.8337,6.9157,1.0452,7.2003,1.7298,2.3278,5.1277,4.0347,7.8971,2.9034,2.0506-.8377,2.8969-2.8801,3.4841-4.297.5476-1.3216,2.1169-5.1086,0-7.8972Z"/>
        <path class="cls-2" d="M451.3887,155.9879c-1.2821-2.2512-4.032-3.7209-6.8831-3.2391-2.8976.4897-4.9619,2.8365-5.4659,5.466-.5181,2.7027.6299,5.6109,3.0367,7.0855,1.839,1.1267,4.179,1.273,6.0732.4049,3.3757-1.5471,5.2094-6.2578,3.2391-9.7173Z"/>
        <path class="cls-2" d="M530.8812,392.6438c-4.0524-6.8159-11.8371-7.4699-13.4962-7.5578-1.429-.0758-9.5102-.5042-14.036,5.9383-3.1702,4.5127-3.1101,10.2813-1.0798,14.5759,4.2197,8.9255,15.6145,8.6605,16.1955,8.6375,1.7249-.0682,8.5768-.3391,12.4165-5.9383,3.3911-4.9449,2.5711-11.3311,0-15.6556Z"/>
        <path class="cls-2" d="M619.091,309.7381c-.6828-3.5922-4.7963-5.7885-8.2675-5.8017-.5369-.002-5.1897.0562-7.1072,3.7711-1.5445,2.9922-.3187,6.4275,1.4504,8.4125.376.4219,2.3053,2.4934,5.2216,2.6108,4.5425.1828,9.5657-4.4525,8.7027-8.9927Z"/>
      </g>
      <g>
        <path class="cls-2" d="M237.8543,721.1067c-6.4268,0-12.7236-.4324-19.25-1.3218-14.5596-1.991-51.8721-9.7998-83.833-39.2388-15.6328-14.3887-25.0635-29.5608-38.1162-50.5598-5.2461-8.448-13.9678-22.4929-21.9609-40.9612-9.7178-22.4548-23.0273-53.2075-20.6484-91.123,1.0723-17.0029,4.9814-32.304,12.6768-49.6133,3.2803-7.3726,6.8984-14.3748,10.3984-21.1465,11.5381-22.3157,30.8477-59.6641,71.5605-84.7935,35.334-21.8032,70.7539-24.8086,103.7666-24.8086,3.3438,0,6.6123.0247,9.8027.0486,30.3887.2246,72.0068.5322,116.0576,26.3108,9.373,5.498,41.8174,26.3093,65.875,63.3394,12.5879,19.3604,21.0654,40.3354,25.1953,62.3418,7.1572,38.2065-.4844,69.2253-4.1016,80.7881-8.4756,27.2207-22.6514,44.6284-50.8916,79.3088-24.8457,30.5051-37.2988,45.7944-59.9805,59.7119-26.8809,16.4902-52.46,21.8457-69.3857,25.3894-15.5117,3.2539-30.1641,6.3276-47.165,6.3276Z"/>
        <path class="cls-3" d="M252.4475,320.5403c3.3359,0,6.5981.0247,9.7808.0486,29.8975.2209,71.2144.531,114.5645,25.9001,6.3794,3.7415,39.9907,24.0825,64.875,62.3845,10.9849,16.894,20.2598,37.27,24.7627,61.2607,7.5894,40.5122-1.9385,72.6965-4.0161,79.3389-8.3081,26.6804-22.334,43.8987-50.3833,78.345-24.6255,30.2336-36.9458,45.3625-59.1958,59.0146-26.4131,16.2036-51.3022,21.4238-68.4312,25.01-15.353,3.2207-29.8652,6.2639-46.5498,6.2639-5.9595,0-12.1924-.3877-18.8447-1.2944-8.8486-1.21-48.501-7.4277-82.2061-38.4727-15.3467-14.1252-24.4712-28.8137-37.6348-49.9927-5.7119-9.1975-13.9575-22.5725-21.7212-40.5134-9.5498-22.0662-22.7412-52.5615-20.4077-89.7434,1.2095-19.1731,6.1953-34.5718,12.4243-48.5825,3.2251-7.2495,6.7837-14.1416,10.3213-20.988,11.8188-22.8584,30.4702-58.9275,70.4722-83.6177,36.2471-22.3672,72.1611-24.3616,102.1899-24.3616M252.4475,314.5403c-14.5649,0-31.8823.4634-49.8877,3.8994-20.3062,3.8752-38.4453,10.8608-55.4531,21.3562-41.4199,25.5654-60.9702,63.3765-72.6509,85.968-3.521,6.8137-7.1606,13.8579-10.4736,21.3049-7.8467,17.6492-11.8345,33.2678-12.9307,50.6436-2.4243,38.634,11.0503,69.7698,20.8896,92.5042,8.0786,18.6692,16.875,32.8333,22.1304,41.2959l.0317.0505c13.1787,21.2034,22.7007,36.5234,38.6367,51.1914,32.5854,30.0134,70.6177,37.9734,85.4565,40.0024,6.6655.9087,13.0947,1.3499,19.6577,1.3499,17.312,0,32.1123-3.1047,47.7817-6.3918,17.1265-3.5854,43.0122-9.0051,70.3369-25.7678,23.1152-14.1831,35.6738-29.6018,60.6943-60.3203l.0493-.0601c28.481-34.9771,42.7769-52.5334,51.4263-80.3096,3.6821-11.7715,11.4653-43.3638,4.1851-82.2275-4.2036-22.3972-12.8271-43.7363-25.6299-63.4268-24.4175-37.5835-57.3564-58.7097-66.8701-64.2893-44.7461-26.1863-86.8281-26.4973-117.5552-26.7244-3.1792-.0239-6.4668-.0488-9.8252-.0488h0Z"/>
      </g>
      <circle class="cls-5" cx="56.3881" cy="431.1115" r="10.0157"/>
      <circle class="cls-5" cx="185.2833" cy="194.9809" r="14.1726"/>
      <circle class="cls-5" cx="270.3701" cy="136.7769" r="14.1726"/>
      <circle class="cls-5" cx="96.8845" cy="308.9673" r="5.0079"/>
      <circle class="cls-5" cx="685.246" cy="255.4922" r="5.0079"/>
      <circle class="cls-5" cx="277.44" cy="239.6136" r="5.0079"/>
      <circle class="cls-5" cx="245.8083" cy="199.9887" r="5.0079"/>
      <circle class="cls-5" cx="46.3723" cy="552.261" r="5.0079"/>
      <circle class="cls-5" cx="229.3936" cy="288.9268" r="11.4068"/>
      <circle class="cls-5" cx="557.8499" cy="564.932" r="7.0699"/>
      <circle class="cls-5" cx="432.1995" cy="204.0871" r="7.0699"/>
      <circle class="cls-5" cx="418.2348" cy="680.1201" r="7.0699"/>
      <circle class="cls-5" cx="517.7234" cy="526.2397" r="8.6738"/>
      <circle class="cls-5" cx="650.0781" cy="400.7096" r="8.6738"/>
      <circle class="cls-5" cx="510.1779" cy="256.1632" r="4.3369"/>
      <circle class="cls-5" cx="623.2881" cy="456.3325" r="8.6738"/>
      <circle class="cls-5" cx="493.3971" cy="39.2021" r="8.6738"/>
      <circle class="cls-5" cx="530.8907" cy="189.482" r="8.6738"/>
      <circle class="cls-5" cx="134.6807" cy="244.6214" r="8.6738"/>
      <circle class="cls-5" cx="101.8923" cy="687.19" r="8.6738"/>
      <circle class="cls-5" cx="398.5872" cy="311.3362" r="8.6738"/>
      <circle class="cls-5" cx="423.9698" cy="347.4845" r="5.7351"/>
      <circle class="cls-5" cx="310.9768" cy="86.28" r="5.7351"/>
      <circle class="cls-5" cx="291.9183" cy="282.2751" r="8.6738"/>
      <circle class="cls-5" cx="389.9135" cy="43.1427" r="8.6738"/>
      <circle class="cls-5" cx="349.5068" cy="303.9363" r="4.3369"/>
      <circle class="cls-5" cx="330.6284" cy="729.5231" r="4.3369"/>
      <circle class="cls-5" cx="176.6095" cy="267.7348" r="8.6738"/>
      <circle class="cls-5" cx="74.5233" cy="367.2509" r="18.1352"/>
      <circle class="cls-5" cx="533.1275" cy="456.3325" r="15.4041"/>
      <circle class="cls-5" cx="586.418" cy="75.172" r="15.4041"/>
      <circle class="cls-5" cx="668.749" cy="146.3478" r="18.6709"/>
      <circle class="cls-5" cx="484.7233" cy="621.4677" r="15.4041"/>
      <circle class="cls-5" cx="650.0781" cy="332.9442" r="17.3475"/>
      <path class="cls-3" d="M413.3373,466.1439c-.1438-9.2688-.3445-22.1799-9.3231-32.2073-7.5516-8.4335-17.3985-10.4555-28.3934-12.7134-10.6761-2.1923-21.8584-4.4886-33.9022.4237-20.4494,8.3407-26.8184,30.7069-27.9696,34.75-3.8497,13.5196-5.0467,36.6063,8.4757,48.3109,5.6223,4.8665,12.4208,6.5811,21.6128,8.8994,6.3097,1.5913,14.9522,3.771,25.4265,2.5426,5.5638-.6525,28.3805-4.2295,38.9878-23.3079,5.3507-9.6239,5.2066-18.897,5.0855-26.6981Z"/>
      <path class="cls-3" d="M254.7314,404.0753c-6.8943-16.2213-38.3867-16.1943-40.1738-16.1739-21.6033.2467-36.2078,11.8754-40.1741,15.1304-4.2773,3.5103-25.6462,21.0469-21.3911,39.1304,1.5229,6.4728,5.6946,10.3193,11.478,15.6522,4.1809,3.8553,19.4302,17.4938,43.3044,18.7826,2.5994.1404,37.2034,1.6464,45.3914-15.6522,3.6143-7.6355-1.614-11.1268-.5217-31.3043.9106-16.823,4.8035-19.1732,2.0869-25.5652Z"/>
      <path class="cls-3" d="M287.3401,597.9014c-5.7703-15.8904-20.4397-21.8258-22.6956-22.6957-21.7668-8.3933-41.0332,6.9517-43.0435,8.6088-1.8386,1.5157-19.3684,16.3345-15.6523,31.3043,1.8291,7.3682,8.2629,11.9556,21.1306,21.1304,7.3008,5.2056,10.9512,7.8083,16.4348,9.3914,2.4236.6997,18.6592,5.1074,32.0869-4.6957,13.3528-9.7484,17.0186-28.5042,11.739-43.0435Z"/>
      <path class="cls-3" d="M380.0793,561.9014c-1.6853-10.1455-16.7729-12.7783-17.6089-12.9131-2.1611-.3483-9.4001-1.4005-16.0435,3.1305-1.3999.9548-8.1252,5.5419-8.2173,12.9131-.0574,4.5946,2.4917,7.9253,3.9131,9.7826,1.3306,1.7385,5.0349,5.9861,11.3477,7.4347,8.2595,1.8953,14.7793-2.4248,16.4348-3.5217,1.1011-.7296,11.6831-7.7413,10.1741-16.826Z"/>
      <path class="cls-3" d="M232.1662,549.3797c1.5337-3.2666,6.054-13.2776,3.1304-25.826-2.8086-12.0548-10.7288-18.9045-12.9131-20.7391-9.4192-7.9109-20.2493-9.1654-28.9565-10.174-6.3296-.7332-12.4414-.4363-13.3042-.3914-4.9966.2604-8.3857.9001-10.1741,1.174-15.1885,2.3252-20.6912-5.5533-36-3.5217-3.0278.4019-10.657,1.5073-18,7.0435-2.0688,1.5597-6.4785,5.2532-9.7825,11.3479-1.9546,3.6057-2.7644,6.8877-4.3044,13.3043-1.3904,5.7939-2.4272,10.1139-2.739,14.4783-.2163,3.0271-.7222,15.0125,6.2607,26.2174,10.6997,17.1689,31.0698,19.8101,35.2175,20.3478,8.5383,1.1071,15.5522-.2042,20.739-1.174,12.0923-2.2606,13.748-5.4438,26.6086-8.2174,13.782-2.9723,14.6262.0911,22.6958-3.1304,14.2126-5.6738,20.5974-18.7706,21.5217-20.7391Z"/>
    </g>
  </g>
</svg>