<?xml version="1.0" encoding="UTF-8"?>
<svg id="Capa_2" xmlns="http://www.w3.org/2000/svg" viewBox="0 0 736.4037 754.6476">
  <defs>
    <style>
      .cls-1 {
        fill: #ffcb80;
      }

      .cls-2 {
        fill: #db963b;
      }

      .cls-3 {
        fill: #eaa94b;
      }

      .cls-4 {
        fill: #d1831c;
      }

      .cls-5 {
        fill: #e09528;
      }
    </style>
  </defs>
  <g id="Capa_1-2" data-name="Capa_1">
    <g>
      <g>
        <path class="cls-1" d="M725.0177,307.9885c-5.99,43.61-36.8,85.3601-57.1201,129.9399-21.01,46.1001-32.04,95.01-67.99,137.53-26.5701,31.4301-67.3199,55.8201-97.51,79.6101-33.3499,26.2999-56.4399,51.1199-91.83,67.49-51.99,24.03-111.9301,22-161.7001,22.8899-20.2699.3701-39.2699.3501-57.22-1.1699-26.1299-2.23-50.0599-7.67-72.52-19.8501-8.95-4.8599-17.6699-10.7799-26.21-18-24.23-20.48-28.73-51.7899-42.4199-80.1099-19.48-40.3101-42.8-81.03-41.4401-131.2001,1.28-47.21,22.8099-88.9,42.03-138.77,21.5699-56,43.13-120.16,86.65-171.62,38.55-45.6,89.61-72.27,134.8999-101.58,33.9301-21.96,61.23-50.29,96.1801-62.38,53.84-18.64,105.61-11.15,154.7101-4.52,44.5999,6.02,87.3298,8.87,121.1899,37.5,2.73,2.31,5.3,4.72,7.74,7.22,19.6001,20.14,30.24,46.24,41.1401,72.71,1.3999,3.4,2.8098,6.81,4.2397,10.21,20.6902,49.26,35.6001,102.87,27.1802,164.1Z"/>
        <path class="cls-2" d="M443.5286,9.0001c27.3557-.0007,54.0464,3.7439,79.999,7.2483,44.5999,6.02,87.3298,8.87,121.1899,37.5,2.73,2.3101,5.3,4.7201,7.74,7.2201,19.6001,20.1399,30.24,46.24,41.1401,72.71,1.3999,3.4,2.8098,6.8099,4.2397,10.21,20.6902,49.26,35.6001,102.87,27.1802,164.1-5.99,43.6101-36.8,85.3601-57.1201,129.9399-21.01,46.1001-32.04,95.01-67.99,137.53-26.5701,31.4301-67.3198,55.8201-97.51,79.6101-33.3499,26.2999-56.4399,51.1199-91.8298,67.49-51.99,24.03-111.9302,22.0001-161.7002,22.89-6.5781.1201-13.0234.1991-19.3413.1991-13.1509,0-25.7537-.3423-37.8787-1.369-26.1299-2.23-50.0598-7.6701-72.52-19.8502-8.95-4.8599-17.6699-10.7799-26.21-18-24.23-20.48-28.73-51.7899-42.4199-80.1099-19.48-40.3101-42.8-81.03-41.4399-131.2001,1.28-47.21,22.8098-88.9,42.03-138.7699,21.5698-56,43.1299-120.16,86.6499-171.62,38.55-45.6001,89.6101-72.27,134.8999-101.5801,33.9302-21.96,61.23-50.29,96.1802-62.38,25.3821-8.7876,50.3118-11.7677,74.7109-11.7683M443.5364,0v9l-.0029-9c-28.4258.0009-53.8269,4.0123-77.6604,12.2637-24.3926,8.4379-44.4678,23.7358-65.7219,39.932-10.384,7.913-21.1218,16.0955-32.4038,23.3971-8.4917,5.4956-17.0154,10.7904-26.0398,16.3964-38.6733,24.0233-78.6636,48.8645-110.843,86.929-39.9917,47.2878-62.0129,105.3284-81.4419,156.5365-2.3142,6.0992-4.5,11.8601-6.7336,17.6589-3.8237,9.9216-7.7766,19.6071-11.5994,28.9739C15.6817,419.8392,1.1287,455.4974.0608,494.8745c-1.2703,46.8624,17.5835,85.0894,35.8164,122.0575,2.155,4.3698,4.3838,8.8883,6.5168,13.3025,3.9585,8.1886,7.2183,16.9198,10.3706,25.3635,7.6904,20.5981,15.6426,41.8976,34.343,57.704,8.7339,7.3838,18.062,13.7886,27.7249,19.0355,21.5283,11.6745,45.6921,18.3176,76.0498,20.9084,11.2947.9565,23.5723,1.4017,38.6436,1.4017,5.8101,0,12.0083-.0638,19.5059-.2007,5.1465-.092,10.3142-.1516,15.7854-.2147,47.4348-.5469,101.1987-1.1668,149.5264-23.5042,26.7104-12.3551,46.8003-29.4028,68.0698-47.4513,8.0898-6.8649,16.4553-13.9635,25.5571-21.1412,8.5676-6.7515,17.9592-13.5219,27.9019-20.6896,25.2209-18.1819,51.3003-36.9828,70.9082-60.1771,26.5808-31.4386,40.0225-66.2008,53.0212-99.8184,5.0879-13.1582,10.3489-26.7642,16.2852-39.7897,6.3262-13.8787,13.8528-27.7788,21.1313-41.2212,15.9316-29.4227,32.4055-59.847,36.7156-91.2264,9.4231-68.5259-9.9062-126.2109-27.7986-168.8101-1.5042-3.5763-2.9749-7.1381-4.2153-10.151l-.3064-.744c-10.8545-26.3617-22.0786-53.6207-42.7063-74.8165-2.7012-2.7677-5.5164-5.3936-8.376-7.8135-32.5681-27.5375-71.5327-32.5458-112.7849-37.8479-4.2603-.5476-8.6658-1.1139-13.0149-1.7008l-2.751-.3718c-25.2957-3.4205-51.4524-6.9575-78.4441-6.9575h0Z"/>
      </g>
      <g>
        <path class="cls-5" d="M652.2019,182.6465c-.6055-1.2518-1.2363-2.4857-1.8812-3.6983-16.7026-31.401-43.6947-56.6727-74.5321-74.394-30.8376-17.7213-65.4357-28.1962-100.5036-34.1323-10.1211-1.7132-20.3025.0766-30.5535-.4618-27.5497-1.4469-35.4908,27.5302-14.8676,37.2875,6.33,2.9948,13.7061,2.2373,20.6781,1.5824,34.3971-3.2308,70.1208-2.1701,101.9742,11.2079,31.8532,13.378,59.2901,40.9028,65.2652,74.9307,2.1217,12.0831,3.2979,27.1926,14.6387,31.8706,10.3504,4.2693,22.3978-4.8967,24.9318-15.8024,2.2233-9.5678-.8195-19.4377-5.15-28.3904Z"/>
        <path class="cls-5" d="M527.1726,146.918c-14.4241-18.7701-64.1143-27.7981-64.1144-27.7979-45.6944-8.3016-68.9806-12.3886-90.4688-9.2452-34.9165,5.1074-44.5041,17.5965-47.7489,23.2403-1.2602,2.192-5.4271,9.4401-2.6008,14.9691,3.974,7.7731,18.9264,6.5865,20.7591,6.4205,11.8375-1.0706,16.9627-7.2809,26.6935-12.6218,17.4903-9.6005,35.3138-8.4093,51.5871-7.3215,10.149.6783,27.9348,1.8669,46.4028,12.1515,5.8923,3.2814,15.1754,9.3382,33.4035,19.1605,9.2245,4.9708,15.1591,7.8985,20.8145,5.4549,5.2797-2.2819,9.1312-8.7343,8.9867-14.7977-.1174-4.9323-2.8531-8.4919-3.7142-9.6128Z"/>
        <path class="cls-5" d="M622.9705,279.0891c.1884-.95.2953-1.9105.3136-2.8623.136-7.062-3.2059-13.66-6.3157-20.0019-11.9281-24.3256-21.9643-50.2814-40.4028-70.1318-3.8574-4.1528-8.7482-8.2626-14.4046-7.9013-13.6025.8689-15.357,19.356-9.2866,28.2904,3.7958,5.5868,9.4862,9.5386,14.8441,13.6512,12.634,9.6976,24.6837,22.0863,27.3295,37.7917,1.1298,6.7067.4636,13.6793,2.1996,20.2552,1.7359,6.5759,7.0345,13.0622,13.8326,12.8572,6.1085-.1842,10.6807-5.8503,11.8903-11.9484Z"/>
        <path class="cls-5" d="M615.7551,385.4146c.3426-.9301.6223-1.8831.8384-2.8455,1.4253-6.3544.2668-12.9808-1.1255-19.3428-8.567-39.1489-26.089-76.3748-51.2447-107.5708-25.1556-31.196-57.9439-56.2782-94.8595-71.874-4.0842-1.7255-8.4227-3.367-12.831-2.889-13.104,1.4205-11.5083,18.6731-4.458,25.7492,4.5033,4.5201,10.5419,7.1011,16.3956,9.6404,30.2594,13.1264,60.8755,28.7992,80.9599,54.9639,13.0511,17.0024,20.7954,37.3537,29.7742,56.8165,5.0917,11.0378,10.7767,22.7279,9.0764,34.7643-1.0316,7.3014-4.7703,14.46-3.3307,21.6917,1.0001,5.022,4.6371,9.4411,9.3727,11.3883,4.7355,1.9474,10.4293,1.3653,14.6724-1.5005,3.163-2.1356,5.4332-5.3927,6.7598-8.9917Z"/>
        <path class="cls-5" d="M431.3528,175.6772c-4.382-10.9198-26.6033-11.2342-54.3367-11.6262-14.3678-.2033-24.2476,1.2739-44.0072,4.2282-5.7073.8531-15.6409,2.4619-25.6428,9.0683-9.1359,6.0344-10.3064,10.94-10.5817,12.4069-.9201,4.9056.7771,10.8224,4.8717,14.0432,7.0152,5.5183,17.943.6648,22.1667-1.2111,9.7579-4.3337,9.2696-8.8117,18.2592-13.7954,9.8992-5.488,19.7855-5.2112,28.7173-4.9608,9.7877.2739,19.7075.5522,29.4048,6.5747,5.1032,3.1694,8.4647,6.8858,14.8119,7.1151,1.3895.0502,6.8686.0759,11.2298-3.6634,5.0912-4.3654,7.3051-12.7019,5.107-18.1794Z"/>
        <path class="cls-5" d="M485.0554,250.8448c-17.7746-12.9197-31.5507-20.0844-34.7059-21.7055-11.7381-6.0303-38.0394-18.3309-74.4597-23.6102-3.1559-.4577-36.9845-5.087-59.2369,5.1169-5.4319,2.4908-10.4427,5.9887-13.2694,11.7275-.703,1.4269-4.6254,9.3903-.6728,16.9109,3.739,7.1139,11.8025,8.6542,13.517,8.9818,4.4552.8511,8.081.0389,19.789-4.0454,10.2476-3.5746,15.5813-5.7818,18.5804-6.8584,11.4137-4.0961,20.9829-3.2885,35.7755-2.0394,25.5648,2.1584,44.8349,9.947,51.5235,12.8343,8.808,3.8021,28.4019,13.1784,48.2019,31.8572,15.0898,14.2352,23.1907,27.167,31.9174,41.0979,8.9035,14.213,15.7914,25.4308,16.5894,37.5744.4184,6.372,1.4441,12.7239,1.3575,19.1092-.0681,5.0003-.4502,8.0234,1.2206,11.9052.4151.9646,2.9205,6.5432,8.9192,9.3466,6.5621,3.0669,14.4578,1.4831,18.3911-1.4604,12.324-9.2236.974-43.1997-.8992-48.8074-16.739-50.1083-58.6071-80.5403-82.5385-97.9351Z"/>
        <path class="cls-5" d="M505.4169,365.1219c1.9634-8.6847-2.876-17.2455-14.8153-32.9208-12.711-16.6883-19.0662-25.0323-27.7179-32.9189-25.6292-23.3634-51.515-32.4803-64.6704-36.962-24.5561-8.3654-38.2361-7.679-48.3364-5.094-6.1264,1.5682-16.4342,4.3557-18.7703,12.2559-1.6665,5.6349,1.2541,12.0758,5.1711,15.6988,5.1396,4.7539,11.9436,4.6088,21.163,4.4119,8.5439-.1823,11.2761-1.6444,19.432-2.5816,1.0495-.1206,13.5822-1.4889,25.6127.6528,18.814,3.3494,31.4151,14.3959,38.7441,20.8203,9.8676,8.65,18.4359,16.1609,22.2762,28.6175.9876,3.2027,2.2396,8.6048,6.0822,21.5966,1.5066,5.0931,2.9308,9.7296,6.6906,14.6465,2.5467,3.3309,5.3846,7.0419,10.1181,7.8088,6.1548.9969,11.2162-3.6808,12.7573-5.1053.193-.1788,4.8238-4.5612,6.2629-10.9268Z"/>
        <path class="cls-5" d="M639.6044,249.8339c-1.4713-3.2703-5.3464-5.3035-9.0318-4.2044-3.5068,1.0458-5.8825,4.6415-5.2943,8.0974.7295,4.287,5.5616,5.6663,5.9172,5.7616.6322.1695,4.0584,1.0883,6.696-1.09,2.4808-2.0487,2.9708-5.7689,1.7129-8.5646Z"/>
        <path class="cls-5" d="M557.1988,138.1057c-.9968-1.2451-2.9546-1.6393-4.4538-1.0797-2.2402.8362-3.1236,3.6776-2.5643,5.8034.4012,1.5245,1.7127,3.3206,3.644,3.509.1018.0099,1.8219.1504,2.9692-1.0797.745-.7988.825-1.7213.9448-3.1041.1597-1.8415.2637-3.045-.5398-4.0488Z"/>
        <path class="cls-5" d="M397.8088,80.3014c-1.7682-3.5591-6.0125-5.1646-9.4474-5.1286-5.1334.0539-8.2275,3.7717-8.9074,4.5887-.8797,1.0571-5.1948,6.5919-2.4294,12.1466,1.9209,3.8582,6.3626,5.928,10.2572,5.3984,2.9203-.3971,4.7864-2.1543,5.9383-3.2391.4143-.3901,7.7215-7.4601,4.5887-13.7661Z"/>
        <path class="cls-5" d="M323.9072,155.7334c-1.849-2.4356-5.1771-2.3534-5.8067-2.3227-2.4442.1195-5.4039,1.4773-6.6197,4.4131-1.51,3.646.8337,6.9157,1.0452,7.2003,1.7298,2.3278,5.1277,4.0347,7.8971,2.9034,2.0506-.8377,2.8969-2.8801,3.4841-4.297.5476-1.3216,2.1169-5.1086,0-7.8972Z"/>
        <path class="cls-5" d="M451.3887,155.9882c-1.2821-2.2512-4.032-3.7209-6.8831-3.2391-2.8976.4897-4.9619,2.8365-5.4659,5.466-.5181,2.7027.6299,5.6109,3.0367,7.0855,1.839,1.1267,4.179,1.273,6.0732.4049,3.3757-1.5471,5.2094-6.2578,3.2391-9.7173Z"/>
        <path class="cls-5" d="M530.8812,392.644c-4.0524-6.8159-11.8371-7.4699-13.4962-7.5578-1.429-.0758-9.5102-.5042-14.036,5.9383-3.1702,4.5127-3.1101,10.2813-1.0798,14.5759,4.2197,8.9255,15.6145,8.6605,16.1955,8.6375,1.7249-.0682,8.5768-.3391,12.4165-5.9383,3.3911-4.9449,2.5711-11.3311,0-15.6556Z"/>
        <path class="cls-5" d="M619.091,309.7383c-.6828-3.5922-4.7963-5.7885-8.2675-5.8017-.5369-.002-5.1897.0562-7.1072,3.7711-1.5445,2.9922-.3187,6.4275,1.4504,8.4125.376.4219,2.3053,2.4934,5.2216,2.6108,4.5425.1828,9.5657-4.4525,8.7027-8.9927Z"/>
      </g>
      <g>
        <path class="cls-5" d="M466.4305,470.1345c7.5892,40.5121-1.9385,72.6967-4.0164,79.3389-8.3078,26.6805-22.3335,43.8987-50.3832,78.3449-24.6254,30.2337-36.9457,45.3627-59.1956,59.0147-26.4132,16.2036-51.3022,21.4238-68.4313,25.0101-20.8371,4.371-40.1181,8.4144-65.3947,4.9693-8.8484-1.2099-48.5006-7.4276-82.2057-38.4726-15.3467-14.1253-24.4712-28.8137-37.635-49.9927-5.7117-9.1974-13.9575-22.5724-21.7213-40.5135-9.5498-22.0662-22.7409-52.5614-20.4075-89.7433,1.2091-19.1732,6.1952-34.5718,12.4241-48.5826,3.2252-7.2495,6.7839-14.1415,10.3216-20.9881,11.8188-22.8584,30.47-58.9274,70.4719-83.6177,40.2737-24.8516,80.1349-24.5531,111.9707-24.3129,29.8978.221,71.2143.531,114.5646,25.9001,6.3793,3.7416,39.9909,24.0826,64.8749,62.3846,10.9848,16.8939,20.2596,37.2699,24.7629,61.2607Z"/>
        <path class="cls-4" d="M252.4475,320.5405c3.3357,0,6.5979.0245,9.7808.0486,29.8977.2209,71.2144.531,114.5645,25.9,6.3794,3.7417,39.991,24.0826,64.875,62.3846,10.9849,16.8939,20.2595,37.2699,24.7627,61.2607,7.5894,40.5121-1.9382,72.6967-4.0164,79.3389-8.3079,26.6804-22.3335,43.8987-50.3831,78.345-24.6255,30.2336-36.9458,45.3627-59.1956,59.0146-26.4133,16.2036-51.3022,21.4238-68.4314,25.0101-15.3533,3.2206-29.8655,6.2639-46.5496,6.2639-5.9595,0-12.1926-.3878-18.845-1.2946-8.8484-1.21-48.5007-7.4276-82.2058-38.4727-15.3467-14.1252-24.4712-28.8137-37.635-49.9927-5.7117-9.1975-13.9575-22.5724-21.7212-40.5134-9.5498-22.0663-22.741-52.5615-20.4077-89.7434,1.2092-19.1731,6.1953-34.5718,12.4241-48.5825,3.2253-7.2495,6.7839-14.1416,10.3218-20.9882,11.8186-22.8584,30.47-58.9274,70.4719-83.6177,36.2473-22.3672,72.1611-24.3615,102.1899-24.3615M252.4475,314.5405c-14.5652,0-31.8826.4633-49.8879,3.8994-20.3062,3.8752-38.4448,10.8608-55.4529,21.356-41.4207,25.5659-60.9702,63.3768-72.6509,85.9681-3.5205,6.8131-7.1602,13.8569-10.4739,21.3048-7.8467,17.6503-11.8345,33.2689-12.9302,50.6438-2.4246,38.6343,11.0503,69.7699,20.8892,92.5042,8.0774,18.6659,16.8745,32.8318,22.1306,41.2958l.0327.0524c13.1787,21.2029,22.7004,36.5222,38.636,51.1896,32.5852,30.0133,70.6174,37.9735,85.4563,40.0027,6.6655.9084,13.0947,1.3499,19.658,1.3499,17.3108,0,32.1116-3.1047,47.7815-6.3917,17.1267-3.5858,43.0125-9.0054,70.3369-25.7679,23.1155-14.1832,35.6743-29.6022,60.6948-60.321l.0464-.0568c28.4827-34.9783,42.7793-52.5353,51.4287-80.3124,3.6824-11.7695,11.4666-43.3586,4.1851-82.2274-4.2043-22.3979-12.8271-43.7371-25.6299-63.4268-24.4158-37.5808-57.3555-58.709-66.8696-64.2893-44.7468-26.1864-86.8289-26.4974-117.5557-26.7245-3.179-.0239-6.467-.0487-9.8252-.0487h0Z"/>
      </g>
      <circle class="cls-3" cx="56.3881" cy="431.1117" r="10.0157"/>
      <circle class="cls-3" cx="185.2833" cy="194.9811" r="14.1726"/>
      <circle class="cls-3" cx="270.3701" cy="136.7772" r="14.1726"/>
      <circle class="cls-3" cx="96.8845" cy="308.9676" r="5.0079"/>
      <circle class="cls-3" cx="685.246" cy="255.4925" r="5.0079"/>
      <circle class="cls-3" cx="277.44" cy="239.6138" r="5.0079"/>
      <circle class="cls-3" cx="245.8083" cy="199.989" r="5.0079"/>
      <circle class="cls-3" cx="46.3724" cy="552.2612" r="5.0079"/>
      <circle class="cls-3" cx="229.3936" cy="288.9271" r="11.4068"/>
      <circle class="cls-3" cx="557.8499" cy="564.9323" r="7.0699"/>
      <circle class="cls-3" cx="432.1995" cy="204.0874" r="7.0699"/>
      <circle class="cls-3" cx="418.2348" cy="680.1204" r="7.0699"/>
      <circle class="cls-3" cx="517.7234" cy="526.24" r="8.6738"/>
      <circle class="cls-3" cx="650.0781" cy="400.7098" r="8.6738"/>
      <circle class="cls-3" cx="510.1779" cy="256.1634" r="4.3369"/>
      <circle class="cls-3" cx="623.2881" cy="456.3328" r="8.6738"/>
      <circle class="cls-3" cx="493.3971" cy="39.2023" r="8.6738"/>
      <circle class="cls-3" cx="530.8907" cy="189.4823" r="8.6738"/>
      <circle class="cls-3" cx="134.6807" cy="244.6217" r="8.6738"/>
      <circle class="cls-3" cx="101.8923" cy="687.1903" r="8.6738"/>
      <circle class="cls-3" cx="398.5872" cy="311.3364" r="8.6738"/>
      <circle class="cls-3" cx="423.9698" cy="347.4847" r="5.7351"/>
      <circle class="cls-3" cx="310.9768" cy="86.2803" r="5.7351"/>
      <circle class="cls-3" cx="291.9183" cy="282.2753" r="8.6738"/>
      <circle class="cls-3" cx="389.9135" cy="43.1429" r="8.6738"/>
      <circle class="cls-3" cx="349.5068" cy="303.9366" r="4.3369"/>
      <circle class="cls-3" cx="330.6284" cy="729.5233" r="4.3369"/>
      <circle class="cls-3" cx="176.6095" cy="267.735" r="8.6738"/>
      <circle class="cls-3" cx="74.5233" cy="367.2511" r="18.1352"/>
      <circle class="cls-3" cx="533.1275" cy="456.3328" r="15.4041"/>
      <circle class="cls-3" cx="586.418" cy="75.1722" r="15.4041"/>
      <circle class="cls-3" cx="668.749" cy="146.3481" r="18.6709"/>
      <circle class="cls-3" cx="484.7233" cy="621.4679" r="15.4041"/>
      <circle class="cls-3" cx="650.0781" cy="332.9444" r="17.3475"/>
      <path class="cls-4" d="M413.3373,466.1442c-.1438-9.2688-.3445-22.1799-9.3231-32.2073-7.5516-8.4335-17.3985-10.4555-28.3934-12.7134-10.6761-2.1923-21.8584-4.4886-33.9022.4237-20.4494,8.3407-26.8184,30.7069-27.9696,34.75-3.8497,13.5196-5.0467,36.6063,8.4757,48.3109,5.6223,4.8665,12.4208,6.5811,21.6128,8.8994,6.3097,1.5913,14.9522,3.771,25.4265,2.5426,5.5638-.6525,28.3805-4.2295,38.9878-23.3079,5.3507-9.6239,5.2066-18.897,5.0855-26.6981Z"/>
      <path class="cls-4" d="M254.7314,404.0755c-6.8943-16.2213-38.3867-16.1943-40.1738-16.1739-21.6033.2467-36.2078,11.8754-40.1741,15.1304-4.2773,3.5103-25.6462,21.0469-21.3911,39.1304,1.5229,6.4728,5.6946,10.3193,11.478,15.6522,4.1809,3.8553,19.4302,17.4938,43.3044,18.7826,2.5994.1404,37.2034,1.6464,45.3914-15.6522,3.6143-7.6355-1.614-11.1268-.5217-31.3043.9106-16.823,4.8035-19.1732,2.0869-25.5652Z"/>
      <path class="cls-4" d="M287.3401,597.9017c-5.7703-15.8904-20.4397-21.8258-22.6956-22.6957-21.7668-8.3933-41.0332,6.9517-43.0435,8.6088-1.8386,1.5157-19.3684,16.3345-15.6523,31.3043,1.8291,7.3682,8.2629,11.9556,21.1306,21.1304,7.3008,5.2056,10.9512,7.8083,16.4348,9.3914,2.4236.6997,18.6592,5.1074,32.0869-4.6957,13.3528-9.7484,17.0186-28.5042,11.739-43.0435Z"/>
      <path class="cls-4" d="M380.0793,561.9017c-1.6853-10.1455-16.7729-12.7783-17.6089-12.9131-2.1611-.3483-9.4001-1.4005-16.0435,3.1305-1.3999.9548-8.1252,5.5419-8.2173,12.9131-.0574,4.5946,2.4917,7.9253,3.9131,9.7826,1.3306,1.7385,5.0349,5.9861,11.3477,7.4347,8.2595,1.8953,14.7793-2.4248,16.4348-3.5217,1.1011-.7296,11.6831-7.7413,10.1741-16.826Z"/>
      <path class="cls-4" d="M232.1662,549.3799c1.5337-3.2666,6.054-13.2776,3.1304-25.826-2.8086-12.0548-10.7288-18.9045-12.9131-20.7391-9.4192-7.9109-20.2493-9.1654-28.9565-10.174-6.3296-.7332-12.4414-.4363-13.3042-.3914-4.9966.2604-8.3857.9001-10.1741,1.174-15.1885,2.3252-20.6912-5.5533-36-3.5217-3.0278.4019-10.657,1.5073-18,7.0435-2.0688,1.5597-6.4785,5.2532-9.7825,11.3479-1.9546,3.6057-2.7644,6.8877-4.3044,13.3043-1.3904,5.7939-2.4272,10.1139-2.739,14.4783-.2163,3.0271-.7222,15.0125,6.2607,26.2174,10.6997,17.1689,31.0698,19.8101,35.2175,20.3478,8.5383,1.1071,15.5522-.2042,20.739-1.174,12.0923-2.2606,13.748-5.4438,26.6086-8.2174,13.782-2.9723,14.6262.0911,22.6958-3.1304,14.2126-5.6738,20.5974-18.7706,21.5217-20.7391Z"/>
    </g>
  </g>
</svg>