<?xml version="1.0" encoding="UTF-8"?>
<svg id="Capa_2" data-name="Capa 2" xmlns="http://www.w3.org/2000/svg" viewBox="0 0 131.59 192.93">
  <defs>
    <style>
      .cls-1 {
        fill: #ba0c1c;
      }

      .cls-2 {
        fill: #e55e6c;
      }

      .cls-3 {
        fill: #d6404a;
      }

      .cls-4 {
        fill: #b22f3f;
      }

      .cls-5 {
        fill: #a5071b;
      }
    </style>
  </defs>
  <g id="Capa_1-2" data-name="Capa 1">
    <g>
      <path class="cls-5" d="M95.47,157.54c12.95,4.2,31.5,11.97,28.79,19.46-7.91,21.84-44.28,14.87-58.22,14.87-28.18,0-58.84,2.32-58.84-10.48,0-7.55,15.57-19.26,27.91-23.48V54.26c-5.69-1.41-10.85-3.22-15.31-5.34C8.78,43.74.34,38.85.34,31.04c0-4.89,4.33-11.68,9.05-15.72,2.55-2.19,5.69-4.2,9.33-6.01C30.27,3.59,46.82,0,65.21,0c33.4,0,62.86,12.81,65.18,27.78.11.69-15.29,21.53-34.92,26.44v103.32Z"/>
      <path class="cls-1" d="M63.75,15.53c-2.05-3.58-5.88-5.12-8-5.96-4.4-1.76-7.29-1.26-7.34-1.89-.09-1.02,7.41-3.16,15.34-3.46,8.93-.34,18.21.97,18.28,2.61.02.51-1.7.2-6.8,2.56-6.49,2.99-6.75,4.36-7.56,5.6-1.59,2.45-1.27,5.04-1.96,5.06-.63.01-.62-2.18-1.96-4.52Z"/>
      <g>
        <path class="cls-3" d="M5.84,118.22c-1.47,12.67-3.14,25.37-3.71,38.01-.53,11.68,1.22,25.66,11.61,31.01,9.98,5.14,22.9-1.57,27.97-11.59,5.07-10.01,4.17-21.97,2.01-32.98-2.16-11.02-5.47-22.01-4.81-33.22.63-10.69,6.76-21.16,11.29-30.6,5.4-11.27,12.2-23.66,13.36-36.3.63-6.85-1.03-14.24-5.96-19.04-10.17-9.89-30.14-9.08-42.45-4.54-4.89,1.8-9.75,4.74-11.88,9.49-1.99,4.44-1.23,9.57-.33,14.35,2.33,12.31,5.43,24.61,5.6,37.2s-1.23,25.56-2.69,38.2Z"/>
        <path class="cls-4" d="M21.18,191.02c-2.95,0-5.77-.67-8.36-2C3.76,184.35-.63,172.98.13,156.14c.49-10.81,1.79-21.82,3.05-32.46.22-1.9.45-3.8.67-5.7,1.56-13.48,2.85-25.65,2.68-37.95-.13-9.84-2.13-19.74-4.07-29.31-.51-2.52-1.02-5.03-1.49-7.54-.98-5.16-1.75-10.61.46-15.54,2.05-4.57,6.43-8.12,13.02-10.54,13.86-5.11,34.17-5.1,44.54,4.98,4.94,4.8,7.33,12.33,6.56,20.65-1.05,11.4-6.58,22.69-11.45,32.66-.71,1.46-1.42,2.9-2.1,4.32-.74,1.54-1.52,3.11-2.31,4.7-4.07,8.16-8.28,16.61-8.78,25.15-.49,8.43,1.39,17.01,3.21,25.3.53,2.43,1.08,4.94,1.57,7.42,1.82,9.27,3.57,22.91-2.19,34.27-3.15,6.22-8.99,11.22-15.62,13.36-2.27.74-4.52,1.1-6.7,1.1ZM34.1,17.79c-6.74,0-13.39,1.27-18.27,3.07-5.54,2.04-9.16,4.88-10.75,8.43-1.74,3.88-1.04,8.62-.19,13.16.47,2.5.98,4.99,1.48,7.49,1.97,9.75,4.01,19.83,4.15,30.05.17,12.54-1.13,24.84-2.71,38.46h0c-.22,1.9-.45,3.8-.67,5.71-1.25,10.57-2.54,21.5-3.03,32.17-.48,10.58.96,24.22,10.53,29.14,4.47,2.3,8.99,1.62,11.99.65,5.55-1.8,10.64-6.15,13.28-11.36,5.2-10.26,3.53-23,1.83-31.7-.48-2.44-1.02-4.92-1.55-7.33-1.88-8.56-3.82-17.41-3.29-26.39.55-9.36,5.14-18.57,9.19-26.7.79-1.57,1.56-3.12,2.29-4.65.69-1.43,1.4-2.88,2.11-4.35,4.96-10.13,10.08-20.6,11.06-31.27.65-7.01-1.36-13.52-5.37-17.42-5.38-5.24-13.81-7.16-22.1-7.16Z"/>
      </g>
      <g>
        <path class="cls-3" d="M125.75,117.72c1.47,12.67,3.14,25.37,3.71,38.01.53,11.68-1.22,25.66-11.61,31.01-9.98,5.14-22.9-1.57-27.97-11.59-5.07-10.01-4.17-21.97-2.01-32.98,2.16-11.02,5.47-22.01,4.81-33.22-.63-10.69-6.76-21.16-11.29-30.6-5.4-11.27-12.2-23.66-13.36-36.3-.63-6.85,1.03-14.24,5.96-19.04,10.17-9.89,30.14-9.08,42.45-4.54,4.89,1.8,9.75,4.74,11.88,9.49,1.99,4.44,1.23,9.57.33,14.35-2.33,12.31-5.43,24.61-5.6,37.2-.17,12.74,1.23,25.56,2.69,38.2Z"/>
        <path class="cls-4" d="M110.41,190.52c-2.18,0-4.43-.37-6.7-1.1-6.63-2.15-12.46-7.14-15.62-13.36-5.76-11.36-4-25-2.19-34.27.49-2.48,1.04-4.99,1.57-7.42,1.82-8.29,3.7-16.87,3.21-25.3-.5-8.55-4.71-16.99-8.78-25.15-.79-1.59-1.58-3.16-2.31-4.7-.68-1.42-1.39-2.87-2.1-4.32-4.87-9.96-10.4-21.26-11.45-32.65-.77-8.33,1.62-15.85,6.56-20.66,10.36-10.08,30.68-10.08,44.54-4.98,6.59,2.43,10.97,5.98,13.02,10.54,2.21,4.94,1.44,10.38.46,15.54-.48,2.51-.98,5.02-1.49,7.53-1.94,9.58-3.94,19.48-4.07,29.33-.17,12.29,1.12,24.46,2.68,37.95h0c.22,1.89.44,3.78.67,5.68,1.26,10.65,2.56,21.65,3.05,32.47.76,16.84-3.63,28.21-12.69,32.88-2.59,1.33-5.41,2-8.36,2ZM97.49,17.28c-8.29,0-16.71,1.93-22.1,7.16-4.01,3.9-6.01,10.41-5.37,17.42.98,10.67,6.11,21.14,11.06,31.26.72,1.47,1.43,2.92,2.11,4.35.73,1.52,1.5,3.07,2.29,4.64,4.05,8.13,8.64,17.34,9.19,26.7.53,8.98-1.42,17.83-3.29,26.39-.53,2.41-1.07,4.89-1.55,7.33-1.71,8.69-3.37,21.43,1.83,31.7,2.64,5.21,7.73,9.57,13.28,11.36,3,.97,7.52,1.65,11.99-.65,9.57-4.93,11.01-18.57,10.53-29.14-.48-10.68-1.78-21.61-3.03-32.19-.22-1.9-.45-3.79-.67-5.68h0c-1.58-13.63-2.88-25.93-2.71-38.46.14-10.22,2.18-20.31,4.15-30.06.5-2.49,1.01-4.99,1.48-7.48.86-4.53,1.55-9.28-.19-13.16-1.59-3.55-5.21-6.39-10.75-8.43-4.88-1.8-11.53-3.07-18.27-3.07Z"/>
      </g>
      <path class="cls-2" d="M15.2,25c-3.06.27-5.69,2.79-6.87,5.51-1.48,3.43-1.69,7.4-.53,10.95.31.95.74,1.91,1.56,2.49.77.55,1.82.66,2.71.33.89-.33,1.6-1.08,1.93-1.97.53-1.43.09-3.01-.02-4.53-.25-3.48,1.3-6.87,3.37-9.68.42-.57.89-1.24.72-1.93-.2-.79-1.14-1.13-1.95-1.18-.31-.02-.62-.01-.92.01Z"/>
      <path class="cls-2" d="M26.73,20.53c-.85-1.01-3.34-.06-5.18.65-1,.38-1.49.69-1.76,1.24-.25.52-.33,1.34.13,1.92.43.55,1.12.61,1.34.63.21.02.68.03,1.9-.6,1.03-.53.98-.68,2.01-1.24,1.11-.6,1.5-.61,1.73-1.08.21-.45.18-1.12-.16-1.53Z"/>
      <path class="cls-2" d="M75,28.16c.4-.7,1.01-1.35,1.4-1.82.92-1.14,1.97-2.18,3.21-2.98,1.58-1.01,3.39-1.58,5.2-2.07,1.44-.39,2.94-.74,4.43-.54.61.09,1.31.36,1.45.96.12.47-.17.96-.57,1.24s-.88.39-1.34.52c-3.92,1.07-7.44,3.36-10.42,6.12-.35.32-.7.66-1.11.9-.41.25-.89.4-1.36.32-.54-.09-1.02-.5-1.2-1.02-.17-.53,0-1.09.31-1.64Z"/>
      <path class="cls-2" d="M96.38,19.42c-.72-.53-1.64-.33-2.35-.18-.78.17-1.37.3-1.59.82-.25.57.05,1.37.56,1.66.32.18.41,0,1.82-.14.64-.06,1.01-.06,1.52-.28.32-.14.59-.26.69-.52.17-.44-.24-1.04-.65-1.35Z"/>
      <path class="cls-2" d="M73.85,33.25c-.17-.09-.47-.24-.78-.2-.43.07-.68.48-.88.82-.23.4-.98,1.67-.46,2.25.45.5,1.64.28,2.28-.36.52-.51.8-1.42.46-1.99-.18-.29-.51-.47-.62-.52Z"/>
    </g>
  </g>
</svg>