<?xml version="1.0" encoding="UTF-8"?>
<svg id="Capa_2" data-name="Capa 2" xmlns="http://www.w3.org/2000/svg" viewBox="0 0 144.68 230.33">
  <defs>
    <style>
      .cls-1 {
        fill: #fcb28d;
      }

      .cls-2 {
        fill: #ff8c42;
      }

      .cls-3 {
        fill: #fc9b65;
      }

      .cls-4 {
        fill: #c64e12;
      }

      .cls-5 {
        fill: #e56525;
      }

      .cls-6 {
        fill: #d8601d;
      }
    </style>
  </defs>
  <g id="Capa_1-2" data-name="Capa 1">
    <g>
      <path class="cls-4" d="M103.7,160.54c13.19,4.28,21.81,11.29,21.81,19.21,0,6.59-5.96,8.3-15.57,8.36-9.37.06-22.22-1.44-36.41-1.44-28.69,0-51.96,6.12-51.96-6.92,0-7.69,8.11-14.53,20.67-18.84V55.3c-5.79-1.44-11.04-3.28-15.59-5.44-11.22-5.29-18.12-12.49-18.12-20.45,0-4.98,2.72-9.68,7.53-13.8,2.59-2.24,5.79-4.28,9.5-6.12C37.31,3.66,54.16,0,72.88,0c34.01,0,61.85,12.05,64.21,27.31.11.7.17,1.4.17,2.1,0,11.16-13.58,20.84-33.56,25.85v105.28Z"/>
      <g>
        <path class="cls-2" d="M31.3,10.54c-1.9-.02-3.79.18-5.64.62C2.76,16.53,3.68,46.45,2.64,64.8c-1.43,25.28-.15,50.6.6,75.87.25,8.58.47,17.29,3.08,25.47,2.6,8.18,7.99,15.89,15.9,19.22,11.55,4.86,26.02-1.65,31.63-12.86,4.92-9.84,3.76-21.47,2.79-32.43-2.3-26.05-2.84-52.3-.3-78.33.74-7.58,1.74-15.21,1.11-22.8-.63-7.59-3.07-15.3-8.33-20.82-4.58-4.8-11.19-7.53-17.8-7.59Z"/>
        <path class="cls-5" d="M30.53,189c-3.11,0-6.2-.58-9.09-1.79-7.71-3.25-13.92-10.7-17.03-20.46-2.64-8.3-2.9-17.08-3.16-25.56v-.45c-.14-4.1-.27-8.19-.41-12.29-.69-20.89-1.4-42.49-.2-63.75.09-1.64.17-3.38.25-5.18C1.74,40.49,2.89,14.45,25.2,9.21c1.98-.46,4-.68,6.12-.67,7.31.07,14.32,3.06,19.23,8.21,6.38,6.68,8.35,15.67,8.88,22.03.56,6.74-.13,13.51-.8,20.05-.11,1.04-.21,2.07-.31,3.11-2.32,23.81-2.22,49.31.31,77.96l.06.72c.99,11.14,2.01,22.65-3.06,32.78-4.82,9.64-15.08,15.6-25.1,15.61ZM31.07,12.54c-1.69,0-3.35.19-4.95.57C6.75,17.65,5.68,41.95,4.89,59.68c-.08,1.82-.16,3.57-.25,5.23-1.19,21.09-.48,42.6.21,63.4.14,4.1.27,8.21.39,12.31v.45c.26,8.21.51,16.7,2.98,24.47,2.75,8.64,8.13,15.2,14.77,17.99,10.17,4.28,23.75-1.29,29.06-11.91,4.56-9.12,3.59-20.06,2.65-30.64l-.06-.72c-2.55-28.89-2.65-54.63-.3-78.7.1-1.04.21-2.08.31-3.13.65-6.36,1.32-12.94.79-19.31-.48-5.72-2.22-13.76-7.79-19.6-4.11-4.31-10.23-6.91-16.37-6.97h0c-.07,0-.14,0-.21,0Z"/>
      </g>
      <g>
        <path class="cls-2" d="M113.38,10.54c1.9-.02,3.79.18,5.64.62,22.89,5.37,21.98,35.29,23.02,53.64,1.43,25.28.15,50.6-.6,75.87-.25,8.58-.47,17.29-3.08,25.47-2.6,8.18-7.99,15.89-15.9,19.22-11.55,4.86-26.02-1.65-31.63-12.86-4.92-9.84-3.76-21.47-2.79-32.43,2.3-26.05,2.84-52.3.3-78.33-.74-7.58-1.74-15.21-1.11-22.8s3.07-15.3,8.33-20.82c4.58-4.8,11.19-7.53,17.8-7.59Z"/>
        <path class="cls-5" d="M114.15,189c-10.02,0-20.28-5.97-25.1-15.6-5.07-10.13-4.04-21.65-3.06-32.78l.06-.72c2.53-28.64,2.63-54.14.31-77.96-.1-1.03-.21-2.06-.31-3.1-.67-6.55-1.36-13.32-.8-20.06.53-6.36,2.5-15.35,8.88-22.03,4.91-5.15,11.92-8.14,19.23-8.21h0c2.1,0,4.14.21,6.12.67,22.31,5.24,23.46,31.28,24.3,50.3.08,1.8.16,3.54.25,5.18,1.2,21.27.49,42.88-.21,63.78-.13,4.09-.27,8.18-.39,12.27v.45c-.26,8.49-.52,17.26-3.17,25.56-3.11,9.76-9.31,17.21-17.03,20.46-2.89,1.22-5.98,1.79-9.09,1.79ZM113.39,12.54c-6.14.06-12.26,2.66-16.37,6.97-5.57,5.84-7.31,13.88-7.79,19.6-.53,6.37.14,12.96.79,19.32.11,1.04.21,2.08.31,3.12,2.35,24.06,2.25,49.81-.3,78.7l-.06.72c-.94,10.58-1.91,21.52,2.65,30.64,5.31,10.63,18.89,16.2,29.06,11.91,6.63-2.79,12.02-9.35,14.77-17.99,2.47-7.77,2.72-16.26,2.97-24.47v-.45c.13-4.09.27-8.19.41-12.28.69-20.81,1.4-42.32.21-63.42-.09-1.66-.17-3.41-.25-5.23-.79-17.74-1.86-42.03-21.22-46.58-1.67-.39-3.4-.58-5.17-.56h0Z"/>
      </g>
      <path class="cls-6" d="M45.68,6.13c-.02.51.55.93.94,1.28,1.32,1.18,2.96,1.72,4.5,2.6,1.31.75,4.11,3.26,6,5.65,1.25,1.57,3.9.58,5.83.02,4.21-1.21,8.61-2.41,12.91-1.59,2.3.44,4.45,1.45,6.61,2.36.95.4,1.96.8,2.99.73,1.97-.13,3.4-1.83,4.79-3.23,2.38-2.4,5.33-4.24,8.53-5.33.52-.18,1.13-.41,1.3-.93.27-.83-.74-1.47-1.56-1.75-4.14-1.37-8.49-2.01-12.83-2.44-12.43-1.23-25.04-.78-37.35,1.34-.69.12-2.01.22-2.47.84-.12.16-.17.31-.18.46Z"/>
      <path class="cls-3" d="M26.4,15.01c-.07,0-.15.02-.22.02-2.18.25-4.35.79-6.29,1.83-1.22.66-2.34,1.51-3.25,2.56-.66.76-2.15,2.44-1.05,3.4.38.33.92.42,1.41.33s.94-.33,1.36-.61c1.52-.99,2.77-2.36,4.34-3.27,1.43-.82,3.05-1.21,4.65-1.62.58-.15,1.23-.37,1.45-.92.23-.59-.19-1.28-.76-1.54-.51-.24-1.08-.23-1.65-.18Z"/>
      <path class="cls-3" d="M15.31,24.65c-.1-.34-.45-.56-.73-.64-.91-.26-1.87.7-2.32,1.15-.19.19-2.14,2.13-1.49,3.45.18.36.56.69.98.73.71.07,1.3-.7,1.86-1.42.48-.62.27-.56,1.03-1.76.52-.81.8-1.13.68-1.52Z"/>
      <path class="cls-3" d="M108.65,15.23c-3.7.75-7.08,2.77-9.79,5.41-1.87,1.82-3.43,3.94-4.74,6.19-.89,1.52-3.1,4.66-1.43,6.34.74.75,2.05.65,2.93.06.88-.59,1.44-1.54,1.99-2.44,2.6-4.33,5.67-8.67,10.19-10.92,1.04-.52,2.17-.94,3.01-1.73.59-.56,1.03-1.44.68-2.17-.22-.46-.7-.74-1.2-.83s-1.01-.02-1.51.08c-.05,0-.09.02-.14.03Z"/>
      <path class="cls-3" d="M93.56,40.01c.01-.15.03-.31.06-.46.18-.83.76-1.65.49-2.46-.23-.68-1.06-1.05-1.76-.87-2.36.58-2.02,4.67-1.59,6.37.15.6.43,1.26,1.02,1.46.6.2,1.27-.2,1.57-.76s.3-1.22.26-1.85c-.03-.47-.09-.96-.06-1.43Z"/>
      <g>
        <path class="cls-2" d="M91.4,188.93c0,10.38-8.41,18.78-18.78,18.78-7.12,0-13.31-3.96-16.49-9.8-1.46-2.66-2.29-5.72-2.29-8.98,0-10.37,8.41-18.78,18.78-18.78,7.04,0,13.17,3.87,16.38,9.6,1.53,2.72,2.4,5.85,2.4,9.18Z"/>
        <path class="cls-5" d="M72.62,170.15c7.04,0,13.17,3.87,16.38,9.6,1.53,2.72,2.4,5.85,2.4,9.18,0,10.38-8.41,18.78-18.78,18.78-7.12,0-13.31-3.96-16.49-9.8-1.46-2.66-2.29-5.72-2.29-8.98,0-10.37,8.41-18.78,18.78-18.78M72.62,166.15c-12.56,0-22.78,10.22-22.78,22.78,0,3.82.96,7.59,2.78,10.9,3.99,7.32,11.65,11.88,20,11.88,12.56,0,22.78-10.22,22.78-22.78,0-3.9-1.01-7.75-2.91-11.14-4.02-7.18-11.63-11.64-19.87-11.64h0Z"/>
      </g>
      <path class="cls-1" d="M57.75,181.17c2.12-2.92,4.42-4.66,5.92-5.62,1.49-.96,4.43-2.8,8.41-2.93,1.31-.04,4.24-.14,4.89,1.32.49,1.11-.47,2.76-1.57,3.67-1.38,1.14-2.66.86-6.26,1.37-2.68.38-4.05.58-5.62,1.22-3.95,1.61-5.75,4.65-6.41,4.21-.26-.17-.31-.87.64-3.23Z"/>
      <path class="cls-2" d="M91.4,188.93c0,10.38-8.41,18.78-18.78,18.78-7.12,0-13.31-3.96-16.49-9.8,1.97.96,4.18,1.77,6.64,2.3,3.41.74,10.01,2.17,16.04-1.43,4.68-2.79,6.68-7.22,7.83-9.85,1.41-3.22,2.09-6.32,2.36-9.18,1.53,2.72,2.4,5.85,2.4,9.18Z"/>
      <path class="cls-5" d="M27.49,230.33c-1.46,0-3-.26-4.55-.79-4.36-1.48-7.96-4.69-9.89-8.79-3.94-8.39.3-19.43,9.07-23.61.82-.39,1.67-.72,2.48-1.04,1.84-.72,3.59-1.4,4.65-2.64,1.16-1.36,1.68-3.69,1.38-6.22-.13-1.1.66-2.09,1.75-2.22,1.09-.12,2.09.65,2.22,1.75.43,3.68-.41,7.07-2.32,9.29-1.72,2-4.12,2.94-6.24,3.77-.78.31-1.52.59-2.22.92-6.86,3.27-10.21,11.82-7.17,18.3,1.45,3.08,4.27,5.58,7.56,6.7,1.33.45,3.88,1.05,6.1-.02,1.72-.83,2.99-2.55,4.33-4.36,1.08-1.46,2.2-2.97,3.67-4.21,6.35-5.36,14.26-3.34,21.25-1.55,3.93,1.01,7.64,1.96,10.92,1.7,1.43-.11,2.45-.47,3.01-1.06.47-.5.76-1.33.79-2.29.04-1.14-.23-2.38-.5-3.57-.24-1.08.44-2.15,1.52-2.38,1.08-.24,2.14.44,2.38,1.52.3,1.37.64,2.92.59,4.56-.06,1.96-.74,3.71-1.9,4.92-1.26,1.32-3.15,2.09-5.59,2.28-3.95.31-8.15-.77-12.23-1.81-6.64-1.7-12.91-3.3-17.68.73-1.12.94-2.05,2.2-3.04,3.54-1.57,2.12-3.2,4.32-5.81,5.58-1.38.67-2.94,1-4.59,1Z"/>
    </g>
  </g>
</svg>