<?xml version="1.0" encoding="UTF-8"?>
<svg id="Capa_2" data-name="Capa 2" xmlns="http://www.w3.org/2000/svg" viewBox="0 0 102.09 185.76">
  <defs>
    <style>
      .cls-1 {
        fill: #ba0c1c;
      }

      .cls-2 {
        fill: #d6404a;
      }

      .cls-3 {
        fill: #b22f3f;
      }

      .cls-4 {
        fill: #9e2539;
      }

      .cls-5 {
        fill: #a5071b;
      }
    </style>
  </defs>
  <g id="Capa_1-2" data-name="Capa 1">
    <g>
      <path class="cls-5" d="M74.52,157.54c10.05,4.2,18.72,3.6,16.62,11.08-6.14,21.84-29.46,16.04-40.28,16.04-21.86,0-40.79,1.19-40.79-11.61,0-7.55,8.05-10.92,17.62-15.14V54.26c-4.41-1.41-8.42-3.22-11.88-5.34C7.26,43.74,2,36.67,2,28.86c0-4.89,2.08-9.5,5.74-13.54,1.98-2.19,4.41-4.2,7.24-6.01C23.93,3.59,36.77,0,51.04,0c25.92,0,47.12,11.83,48.92,26.8.08.69.13,1.38.13,2.06,0,10.95-10.34,20.46-25.57,25.36v103.32Z"/>
      <g>
        <path class="cls-2" d="M50.94,156.52c.15,4.99-.95,10.05-3.35,14.44-3.97,7.31-11.82,12.57-20.15,12.8-8.32.21-16.72-4.98-19.64-12.8-3.85-10.35,2.39-22.22,3.48-32.7,1.2-11.47.82-23.05-.32-34.48-2-20.3-6.34-40.3-8.44-60.58-.43-4.13-.75-8.38-.34-12.5.15-1.48.39-2.92.77-4.34.34-1.37.79-2.68,1.37-3.97,3.5-7.69,10.12-11.54,17.15-12.2,1.01-.11,2.04-.15,3.05-.11,11.6.36,17.28,7.63,22.86,22.51,4.72,12.6,3.91,25.36,3.58,38.82-.24,10.14.23,21.07,0,31.21-.28,11.06-.24,46.88-.01,53.9Z"/>
        <path class="cls-3" d="M26.97,185.76c-9.18,0-17.96-5.86-21.04-14.1-2.8-7.51-.77-15.45,1.19-23.14.94-3.68,1.83-7.15,2.17-10.47,1.06-10.16.96-21.3-.32-34.07-1.02-10.3-2.67-20.72-4.27-30.8-1.54-9.73-3.14-19.78-4.17-29.77-.43-4.14-.77-8.57-.34-12.9.17-1.67.44-3.19.82-4.65.36-1.47.85-2.88,1.48-4.28,3.51-7.71,10.36-12.58,18.79-13.37,1.07-.12,2.2-.16,3.31-.12,13.25.41,19.26,9.41,24.66,23.8,4.47,11.93,4.14,23.76,3.79,36.28l-.09,3.29c-.12,5.03-.06,10.37,0,15.53.06,5.2.12,10.57,0,15.67-.27,10.71-.24,46.74-.01,53.79h0c.16,5.5-1.08,10.85-3.59,15.46-4.43,8.17-13.01,13.6-21.85,13.84-.18,0-.35,0-.53,0ZM23.77,12.08c-.69,0-1.38.04-2.07.11-7.1.66-12.62,4.58-15.55,11.04-.52,1.17-.93,2.35-1.25,3.62-.34,1.29-.57,2.61-.72,4.06-.4,3.97-.07,8.16.34,12.09,1.02,9.88,2.61,19.88,4.14,29.56,1.61,10.13,3.27,20.61,4.3,31.03,1.3,13.04,1.41,24.45.32,34.88-.37,3.61-1.34,7.39-2.27,11.05-1.81,7.09-3.68,14.42-1.32,20.75,2.51,6.72,9.73,11.5,17.28,11.5.15,0,.29,0,.44,0,7.44-.2,14.68-4.81,18.44-11.75,2.18-4,3.25-8.64,3.11-13.43-.24-7.34-.27-43.03.01-54.01.12-5.03.06-10.37,0-15.53-.06-5.2-.12-10.57,0-15.67l.09-3.3c.34-12.12.66-23.56-3.54-34.76-5.76-15.36-11.27-20.91-21.05-21.21-.23,0-.47-.01-.7-.01Z"/>
      </g>
      <g>
        <path class="cls-2" d="M91.13,103.79c-1.15,11.43-1.52,23.01-.32,34.47,1.08,10.48,7.33,22.36,3.48,32.71-2.92,7.82-11.32,13-19.65,12.79-8.32-.22-16.18-5.48-20.14-12.79-2.4-4.4-3.5-9.45-3.35-14.45.22-7.01.27-42.84-.02-53.89-.24-10.14.24-21.07,0-31.21-.34-13.45-1.15-26.22,3.57-38.82,5.58-14.87,11.26-22.15,22.86-22.5,1.01-.04,2.04,0,3.05.11.38.04.76.08,1.13.13,6.61.96,12.72,4.79,16.03,12.07.58,1.29,1.03,2.6,1.36,3.96.18.68.33,1.35.45,2.03.14.77.24,1.53.32,2.31.41,4.12.09,8.37-.34,12.5-2.09,20.28-6.43,40.28-8.43,60.58Z"/>
        <path class="cls-3" d="M75.13,185.76c-.18,0-.36,0-.54,0-8.85-.23-17.42-5.67-21.85-13.84-2.51-4.61-3.76-9.96-3.59-15.46.2-6.51.27-42.52-.02-53.78-.12-5.11-.06-10.48,0-15.68.06-5.16.12-10.5,0-15.54l-.09-3.26c-.35-12.53-.69-24.37,3.79-36.31,5.4-14.4,11.41-23.4,24.67-23.8,1.07-.04,2.2,0,3.33.12.39.04.79.08,1.18.14,8,1.16,14.23,5.86,17.58,13.22.64,1.42,1.12,2.83,1.48,4.32.19.71.35,1.42.48,2.15.14.75.25,1.56.34,2.45.43,4.33.09,8.76-.34,12.91-1.03,9.99-2.62,20.05-4.17,29.78-1.6,10.07-3.25,20.49-4.26,30.79h0c-1.28,12.75-1.39,23.89-.32,34.07.34,3.33,1.23,6.81,2.17,10.49,1.96,7.68,3.99,15.62,1.2,23.13-3.08,8.24-11.86,14.1-21.04,14.1ZM78.33,12.08c-.23,0-.46,0-.69.01-9.79.3-15.3,5.84-21.07,21.2-4.2,11.21-3.87,22.66-3.53,34.79l.09,3.27c.12,5.11.06,10.48,0,15.68-.06,5.16-.12,10.5,0,15.53.3,11.49.24,47.15.02,54-.14,4.8.93,9.44,3.11,13.43,3.76,6.94,11,11.55,18.44,11.75,7.67.19,15.17-4.64,17.72-11.49,2.36-6.33.49-13.66-1.32-20.74-.93-3.66-1.9-7.44-2.27-11.06-1.09-10.45-.99-21.86.32-34.87h0c1.03-10.41,2.69-20.89,4.29-31.02,1.53-9.68,3.12-19.69,4.14-29.57.41-3.94.73-8.13.34-12.1-.08-.79-.18-1.49-.3-2.15-.11-.63-.25-1.24-.42-1.87-.31-1.29-.72-2.47-1.25-3.65-2.76-6.08-7.91-9.95-14.49-10.91-.33-.04-.69-.08-1.05-.12-.7-.08-1.39-.11-2.07-.11Z"/>
      </g>
      <path class="cls-3" d="M24.11,21.03c-.05.85.21,1.73-.01,2.56-.25.92-1.03,1.49-1.43,2.31-.41.85-.34,1.8-1.02,2.56-.49.55-1.19.87-1.74,1.37-.56.51-.93,1.22-1.55,1.66-.91.63-2.13.57-3.15.99-.68.29-1.28.81-2.01.94-.87.16-1.74-.25-2.63-.27-.77-.02-1.55.25-2.3.06-.83-.22-1.39-.93-2.13-1.31-1.11-.56-2.19-.11-2.93-1.36-.33-.57-.58-1.22-1.12-1.59-.03-.02-.06-.04-.09-.06.12-.68.27-1.35.45-2.03.03-.12.06-.24.1-.36.31-1.23.73-2.42,1.26-3.6,3.31-7.28,9.42-11.11,16.03-12.07.56.48,1.29.74,1.81,1.27.26.27.43.58.55.92.34.93.32,2.06.82,2.95.07.14.16.28.26.42.14.2.28.4.43.6.31.44.6.89.69,1.41.01.06.02.11.03.17.09.82-.27,1.63-.32,2.46Z"/>
      <path class="cls-4" d="M24.11,21.03c-.05.85.21,1.73-.01,2.56-.25.92-1.03,1.49-1.43,2.31-.41.85-.34,1.8-1.02,2.56-.49.55-1.19.87-1.74,1.37-.56.51-.93,1.22-1.55,1.66-.91.63-2.13.57-3.15.99-.68.29-1.28.81-2.01.94-.87.16-1.74-.25-2.63-.27-.77-.02-1.55.25-2.3.06-.83-.22-1.39-.93-2.13-1.31-1.11-.56-2.19-.11-2.93-1.36-.33-.57-.58-1.22-1.12-1.59-.03-.02-.06-.04-.09-.06.12-.68.27-1.35.45-2.03.03-.12.06-.24.1-.36.58.46,1.34,1.06,2.38,1.78.64.44,1.31.89,2.3,1.12.92.21,1.39.07,2.64,0,2.64-.14,2.6.41,4.35.15,1.81-.26,3.18-1.04,3.57-1.27.22-.13.74-.5,1.76-1.23.86-.6,1.05-.76,1.28-1.02.41-.49.41-.75.88-1.67.55-1.08.68-.98,1.02-1.71.18-.38.64-1.39.59-2.64-.01-.26-.03-.29-.59-2.49-.25-1.02-.32-1.28-.39-1.62-.37-1.71-.34-2.17-.24-2.54.01-.05.04-.18.1-.34.34.93.32,2.06.82,2.95.07.14.16.28.26.42.14.2.28.4.43.6.31.44.6.89.69,1.41.01.06.02.11.03.17.09.82-.27,1.63-.32,2.46Z"/>
      <path class="cls-3" d="M77.99,21.03c.05.85-.21,1.73.01,2.56.25.92,1.03,1.49,1.43,2.31.41.85.34,1.8,1.02,2.56.49.55,1.19.87,1.74,1.37.56.51.93,1.22,1.55,1.66.91.63,2.13.57,3.15.99.68.29,1.28.81,2.01.94.87.16,1.74-.25,2.63-.27.77-.02,1.55.25,2.3.06.83-.22,1.39-.93,2.13-1.31,1.11-.56,2.19-.11,2.93-1.36.33-.57.58-1.22,1.12-1.59.03-.02.06-.04.09-.06-.12-.68-.27-1.35-.45-2.03-.03-.12-.06-.24-.1-.36-.31-1.23-.73-2.42-1.26-3.6-3.31-7.28-9.42-11.11-16.03-12.07-.56.48-1.29.74-1.81,1.27-.26.27-.43.58-.55.92-.34.93-.32,2.06-.82,2.95-.07.14-.16.28-.26.42-.14.2-.28.4-.43.6-.31.44-.6.89-.69,1.41-.01.06-.02.11-.03.17-.09.82.27,1.63.32,2.46Z"/>
      <path class="cls-4" d="M77.99,21.03c.05.85-.21,1.73.01,2.56.25.92,1.03,1.49,1.43,2.31.41.85.34,1.8,1.02,2.56.49.55,1.19.87,1.74,1.37.56.51.93,1.22,1.55,1.66.91.63,2.13.57,3.15.99.68.29,1.28.81,2.01.94.87.16,1.74-.25,2.63-.27.77-.02,1.55.25,2.3.06.83-.22,1.39-.93,2.13-1.31,1.11-.56,2.19-.11,2.93-1.36.33-.57.58-1.22,1.12-1.59.03-.02.06-.04.09-.06-.12-.68-.27-1.35-.45-2.03-.03-.12-.06-.24-.1-.36-.58.46-1.34,1.06-2.38,1.78-.64.44-1.31.89-2.3,1.12-.92.21-1.39.07-2.64,0-2.64-.14-2.6.41-4.35.15-1.81-.26-3.18-1.04-3.57-1.27-.22-.13-.74-.5-1.76-1.23-.86-.6-1.05-.76-1.28-1.02-.41-.49-.41-.75-.88-1.67-.55-1.08-.68-.98-1.02-1.71-.18-.38-.64-1.39-.59-2.64.01-.26.03-.29.59-2.49.25-1.02.32-1.28.39-1.62.37-1.71.34-2.17.24-2.54-.01-.05-.04-.18-.1-.34-.34.93-.32,2.06-.82,2.95-.07.14-.16.28-.26.42-.14.2-.28.4-.43.6-.31.44-.6.89-.69,1.41-.01.06-.02.11-.03.17-.09.82.27,1.63.32,2.46Z"/>
      <path class="cls-1" d="M48.62,13.5c-2.05-3.58-5.88-5.12-8-5.96-4.4-1.76-7.29-1.26-7.34-1.89-.09-1.02,7.41-3.16,15.34-3.46,8.93-.34,18.21.97,18.28,2.61.02.51-1.7.2-6.8,2.56-6.49,2.99-6.75,4.36-7.56,5.6-1.59,2.45-1.27,5.04-1.96,5.06-.63.01-.62-2.18-1.96-4.52Z"/>
    </g>
  </g>
</svg>