<?xml version="1.0" encoding="UTF-8"?>
<svg id="Capa_2" data-name="Capa 2" xmlns="http://www.w3.org/2000/svg" viewBox="0 0 152.82 191.02">
  <defs>
    <style>
      .cls-1 {
        fill: #44911c;
      }

      .cls-2 {
        fill: #639648;
      }

      .cls-3 {
        fill: #367710;
      }

      .cls-4 {
        fill: #94c67d;
      }

      .cls-5 {
        fill: #7bb662;
      }
    </style>
  </defs>
  <g id="Capa_1-2" data-name="Capa 1">
    <g>
      <path class="cls-3" d="M110.97,158.49c14.83,4.23,15.6,6.59,15.31,14.4-.59,15.62-30.4,17.22-46.37,17.22-32.27,0-54.59-2.19-54.59-15.07,0-7.6,2.39-11.93,16.52-16.18V54.59c-6.51-1.42-12.42-3.24-17.53-5.37C11.69,44,3.93,36.89,3.93,29.03c0-4.92,3.06-9.56,8.47-13.62,2.92-2.21,6.51-4.23,10.68-6.04C36.29,3.61,55.25,0,76.31,0c38.25,0,69.56,11.9,72.21,26.96.12.69.19,1.38.19,2.08,0,11.02-15.27,20.58-37.75,25.52v103.94Z"/>
      <g>
        <path class="cls-5" d="M59.85,118.22c1.47,12.67,3.14,25.37,3.71,38.01.53,11.68-1.22,25.66-11.61,31.01-9.98,5.14-22.9-1.57-27.97-11.59-5.07-10.01-4.17-21.97-2.01-32.98,2.16-11.02,5.47-22.01,4.81-33.22-.63-10.69-6.76-21.16-11.29-30.6-5.4-11.27-12.2-23.66-13.36-36.3-.63-6.85,1.03-14.24,5.96-19.04,10.17-9.89,30.14-9.08,42.45-4.54,4.89,1.8,9.75,4.74,11.88,9.49,1.99,4.44,1.23,9.57.33,14.35-2.33,12.31-5.43,24.61-5.6,37.2s1.23,25.56,2.69,38.2Z"/>
        <path class="cls-2" d="M44.51,191.02c-2.18,0-4.43-.37-6.7-1.1-6.63-2.15-12.46-7.14-15.62-13.36-5.76-11.36-4-25-2.19-34.27.49-2.48,1.04-4.99,1.57-7.42,1.82-8.29,3.7-16.87,3.21-25.3-.5-8.55-4.71-16.99-8.78-25.16-.79-1.59-1.57-3.16-2.31-4.7-.68-1.42-1.39-2.86-2.1-4.32C6.72,65.43,1.19,54.13.14,42.74c-.77-8.33,1.62-15.85,6.56-20.65,10.36-10.08,30.68-10.09,44.54-4.98,6.59,2.43,10.97,5.98,13.02,10.54,2.21,4.93,1.44,10.38.46,15.54-.48,2.51-.98,5.02-1.49,7.54-1.94,9.57-3.94,19.47-4.07,29.32-.17,12.31,1.12,24.47,2.68,37.95h0c.22,1.89.44,3.78.67,5.67,1.26,10.65,2.56,21.65,3.05,32.48.76,16.84-3.63,28.21-12.69,32.88-2.59,1.33-5.41,2-8.36,2ZM31.59,17.79c-8.29,0-16.71,1.93-22.1,7.16-4.01,3.9-6.01,10.41-5.37,17.42.98,10.67,6.11,21.14,11.06,31.27.72,1.47,1.43,2.92,2.11,4.35.73,1.52,1.5,3.07,2.29,4.64,4.05,8.13,8.65,17.34,9.19,26.71.53,8.98-1.41,17.83-3.29,26.39-.53,2.41-1.07,4.9-1.55,7.33-1.71,8.69-3.37,21.43,1.83,31.7,2.64,5.21,7.73,9.57,13.28,11.36,3,.97,7.52,1.65,11.99-.65,9.57-4.93,11.01-18.57,10.53-29.14-.48-10.68-1.78-21.61-3.03-32.19-.22-1.9-.45-3.79-.67-5.68h0c-1.58-13.62-2.88-25.92-2.71-38.46.14-10.22,2.18-20.3,4.15-30.06.5-2.5,1.01-4.99,1.48-7.49.86-4.53,1.55-9.28-.18-13.16-1.59-3.55-5.21-6.39-10.75-8.43-4.88-1.8-11.53-3.07-18.27-3.07Z"/>
      </g>
      <g>
        <path class="cls-5" d="M92.97,117.72c-1.47,12.67-3.14,25.37-3.71,38.01-.53,11.68,1.22,25.66,11.61,31.01,9.98,5.14,22.9-1.57,27.97-11.59,5.07-10.01,4.17-21.97,2.01-32.98-2.16-11.02-5.47-22.01-4.81-33.22.63-10.69,6.76-21.16,11.29-30.6,5.4-11.27,12.2-23.66,13.36-36.3.63-6.85-1.03-14.24-5.96-19.04-10.17-9.89-30.14-9.08-42.45-4.54-4.89,1.8-9.75,4.74-11.88,9.49-1.99,4.44-1.23,9.57-.33,14.35,2.33,12.31,5.43,24.61,5.6,37.2s-1.23,25.56-2.69,38.2Z"/>
        <path class="cls-2" d="M108.31,190.52c-2.95,0-5.77-.67-8.36-2-9.06-4.67-13.45-16.04-12.69-32.88.49-10.82,1.79-21.83,3.05-32.48.22-1.89.45-3.78.67-5.67,1.56-13.49,2.85-25.65,2.68-37.95-.13-9.85-2.13-19.75-4.07-29.33-.51-2.51-1.02-5.02-1.49-7.53-.98-5.16-1.75-10.61.46-15.54,2.05-4.57,6.43-8.12,13.02-10.54,13.86-5.11,34.17-5.1,44.54,4.98,4.94,4.8,7.33,12.33,6.56,20.65-1.05,11.4-6.57,22.69-11.45,32.65-.71,1.46-1.42,2.9-2.1,4.33-.74,1.54-1.52,3.11-2.31,4.7-4.07,8.17-8.28,16.61-8.78,25.15-.49,8.43,1.39,17.01,3.21,25.3.53,2.43,1.08,4.94,1.57,7.42,1.82,9.27,3.57,22.91-2.19,34.27-3.15,6.22-8.99,11.22-15.62,13.36-2.27.74-4.52,1.1-6.7,1.1ZM121.23,17.28c-6.74,0-13.39,1.27-18.27,3.07-5.54,2.04-9.16,4.88-10.75,8.43-1.74,3.88-1.04,8.63-.19,13.16.47,2.49.98,4.98,1.48,7.48,1.97,9.76,4.01,19.84,4.15,30.06.17,12.53-1.13,24.83-2.71,38.46h0c-.22,1.89-.44,3.79-.67,5.68-1.25,10.58-2.54,21.51-3.03,32.19-.48,10.58.96,24.22,10.53,29.14,4.47,2.3,8.99,1.62,11.99.65,5.55-1.8,10.64-6.15,13.28-11.37,5.2-10.26,3.53-23,1.83-31.7-.48-2.44-1.02-4.92-1.55-7.33-1.88-8.56-3.82-17.41-3.29-26.39.55-9.36,5.14-18.58,9.19-26.7.78-1.57,1.56-3.12,2.29-4.64.69-1.43,1.4-2.88,2.12-4.35,4.95-10.13,10.07-20.6,11.06-31.26.65-7.01-1.36-13.52-5.37-17.42-5.38-5.24-13.8-7.16-22.1-7.16Z"/>
      </g>
      <path class="cls-1" d="M76.2,15.76c-2.91.38-3.15-.5-7.75-.64-3.13-.1-3.05.31-4.87.17-4.01-.31-5.68-2.36-9.34-4.18-6.56-3.26-11.79-1.95-11.88-2.95-.13-1.33,9.19-4.05,20.05-5.32,23.63-2.76,46.62,2.27,46.49,4.83-.03.57-3.35.33-10.12,2.37-2.55.77-4.49,1.52-6.32,3.12-1.15,1-1.1,1.33-2.09,1.92-2.59,1.54-4.52,1.13-5.58.95-1.31-.22-1.24-.4-2.44-.55-2.08-.25-4.48.07-6.15.28Z"/>
      <path class="cls-4" d="M17.6,23.06c1.11-.56,2.47-.94,2.99-1.09,3.76-1.08,7.66-1.61,11.57-1.88,2.61-.18,5.26-.24,7.82.32,1.16.25,2.46.78,2.8,1.92.29.94-.24,1.99-1.03,2.57-.79.58-1.8.79-2.78.89-3.85.4-7.7-.59-11.56-.79-2.76-.14-5.53.13-8.21.8-.52.13-1.05.28-1.59.26-.54-.01-1.1-.22-1.41-.66-.68-.96.22-1.76,1.4-2.36Z"/>
      <path class="cls-4" d="M12.36,25.89c-2.29.44-4.44,2.06-5.15,4.31-.08.26-.15.54-.1.81.13.8,1.15,1.17,1.92.94s1.34-.87,1.9-1.45c.89-.93,1.84-1.79,2.85-2.59.25-.19.5-.39.68-.65s.27-.6.15-.89c-.2-.5-.86-.61-1.4-.58-.28.02-.56.05-.84.11Z"/>
      <path class="cls-4" d="M93.3,36.25c.11-2.86,1.04-5.73,2.75-7.99,2.25-2.99,5.99-4.45,9.3-5.9,1.49-.66,3.03-1.35,4.66-1.38.62-.01,1.25.08,1.79.39.53.31.95.86.99,1.48.04.67-.39,1.3-.92,1.7-.54.4-1.19.63-1.81.87-3.42,1.32-6.57,3.38-9,6.12-2.44,2.74-4.13,6.16-4.65,9.78-.08.53-.2,1.18-.71,1.36-.6.22-1.16-.4-1.44-.97-.4-.83-.63-1.72-.77-2.63-.15-.93-.2-1.88-.16-2.84Z"/>
      <path class="cls-4" d="M119.47,19.39c-.48-.09-1.25-.22-2.22,0-.83.19-1.68.39-2.09,1.14-.26.48-.33,1.18,0,1.73.35.58.97.72,1.5.85,1.26.3,2.31-.13,2.93-.39.86-.35,1.37-.56,1.57-1.11.23-.64-.09-1.42-.59-1.83-.29-.24-.58-.29-1.11-.39Z"/>
    </g>
  </g>
</svg>