<?xml version="1.0" encoding="UTF-8"?>
<svg id="Capa_2" data-name="Capa 2" xmlns="http://www.w3.org/2000/svg" viewBox="0 0 148.24 188.41">
  <defs>
    <style>
      .cls-1 {
        fill: #46327c;
      }

      .cls-2 {
        fill: #9570c2;
      }

      .cls-3 {
        fill: #71579c;
      }

      .cls-4 {
        fill: #5f4693;
      }

      .cls-5 {
        fill: #a486ce;
      }
    </style>
  </defs>
  <g id="Capa_1-2" data-name="Capa 1">
    <g>
      <path class="cls-1" d="M104.68,158.49c13.19,4.23,21.81,11.15,21.81,18.97,0,6.51-5.96,8.19-15.57,8.25-9.37.06-22.22-1.42-36.41-1.42-28.69,0-51.96,6.04-51.96-6.83,0-7.6,8.11-14.35,20.67-18.6V54.59c-5.79-1.42-11.04-3.24-15.59-5.37-11.22-5.22-18.12-12.33-18.12-20.19,0-4.92,2.72-9.56,7.53-13.62,2.59-2.21,5.79-4.23,9.5-6.04C38.29,3.61,55.14,0,73.86,0c34.01,0,61.85,11.9,64.21,26.96.11.69.17,1.38.17,2.08,0,11.02-13.58,20.58-33.56,25.52v103.94Z"/>
      <g>
        <path class="cls-2" d="M33.79,10.12c-.82-.03-1.64,0-2.47.06C4.44,12.36,3.84,51.23,2.58,70.84c-1.86,28.88.94,57.9,5.88,86.35,1.1,6.35,2.39,12.89,6.06,18.19,4.62,6.69,12.96,10.62,21.06,9.93,8.1-.69,15.65-5.97,19.08-13.35,4.11-8.86,2.28-19.19.71-28.83-4.57-28.15-6.09-57.09-.88-85.13,2.15-11.58,5.33-24.11.1-34.66-3.83-7.73-12.19-12.95-20.79-13.22Z"/>
        <path class="cls-3" d="M33.71,187.4c-8.17,0-16.18-4.13-20.84-10.87-3.81-5.51-5.19-12.12-6.38-18.98C.84,125.02-1.09,96.62.58,70.71c.08-1.16.15-2.4.22-3.68C2.05,45.84,4.15,10.37,31.16,8.19c.89-.07,1.79-.09,2.69-.06h0c9.37.3,18.41,6.05,22.52,14.33,5.03,10.16,2.83,21.57.71,32.61-.21,1.11-.43,2.21-.63,3.3-4.6,24.78-4.32,52.4.88,84.45l.13.79c1.53,9.39,3.26,20.03-1,29.2-3.74,8.06-11.87,13.75-20.72,14.5-.68.06-1.36.09-2.03.09ZM33.09,12.11c-.54,0-1.08.02-1.6.06C7.93,14.08,5.97,47.37,4.8,67.27c-.08,1.3-.15,2.53-.22,3.71-1.65,25.59.26,53.68,5.85,85.88,1.11,6.4,2.39,12.55,5.73,17.39,4.25,6.15,11.81,9.7,19.24,9.08,7.33-.62,14.34-5.53,17.43-12.2,3.74-8.06,2.18-17.63.68-26.88l-.13-.79c-5.27-32.51-5.56-60.58-.87-85.82.21-1.1.42-2.21.63-3.33,2-10.39,4.07-21.13-.36-30.07-3.47-6.99-11.12-11.86-19.06-12.11-.21,0-.43-.01-.64-.01Z"/>
      </g>
      <g>
        <path class="cls-2" d="M114.46,11.14c.82-.03,1.64,0,2.47.06,26.88,2.17,27.48,41.04,28.75,60.66,1.86,28.88-.94,57.9-5.88,86.35-1.1,6.35-2.39,12.89-6.06,18.19-4.62,6.69-12.96,10.62-21.06,9.93s-15.65-5.97-19.08-13.35c-4.11-8.86-2.28-19.19-.71-28.83,4.57-28.15,6.09-57.09.88-85.13-2.15-11.58-5.33-24.11-.1-34.66,3.83-7.73,12.19-12.95,20.79-13.22Z"/>
        <path class="cls-3" d="M114.54,188.41c-.68,0-1.36-.03-2.03-.09-8.85-.75-16.98-6.44-20.72-14.5-4.26-9.18-2.53-19.82-1-29.2l.13-.79c5.2-32.05,5.49-59.67.88-84.45-.2-1.09-.42-2.2-.63-3.31-2.13-11.04-4.33-22.45.71-32.61,4.1-8.28,13.15-14.03,22.52-14.33h0c.9-.03,1.81,0,2.69.06,27.02,2.18,29.11,37.65,30.36,58.84.08,1.29.15,2.52.22,3.68,1.67,25.91-.26,54.31-5.9,86.82-1.19,6.86-2.57,13.48-6.38,18.98-4.66,6.75-12.68,10.87-20.84,10.87ZM114.52,13.14c-7.93.25-15.59,5.12-19.06,12.11-4.43,8.95-2.36,19.69-.36,30.07.21,1.12.43,2.23.63,3.33,4.69,25.24,4.41,53.31-.87,85.82l-.13.79c-1.5,9.25-3.06,18.82.68,26.88,3.09,6.67,10.1,11.58,17.43,12.2,7.33.63,15.06-3.02,19.25-9.08,3.34-4.84,4.62-10.99,5.73-17.39,5.59-32.2,7.5-60.3,5.85-85.88-.08-1.17-.15-2.41-.22-3.71-1.17-19.89-3.14-53.19-26.69-55.09-.74-.06-1.49-.08-2.24-.05h0Z"/>
      </g>
      <path class="cls-4" d="M60.98,16.73c-1.52-.72-2.4-2.49-3.4-3.93-1.73-2.49-4.35-4.35-7.26-5.18-2.06-.58-3.84-1.5-.83-3.18,2.11-1.18,9.33-1.81,11.67-1.98,9.9-.72,14.37-.19,24.29.25,4.13.18,10.86.74,14.78,2.06.66.22,1.44.72,1.26,1.39-.07.25-.26.44-.44.62-3.03,2.95-8.61,5.65-11.64,8.6-.66.64-1.35,1.31-2.23,1.61-1.19.41-2.5.06-3.71-.27-5.75-1.53-11.95-2.5-17.57-.55-1.39.48-2.85,1.15-4.28.79-.22-.06-.43-.13-.63-.23Z"/>
      <path class="cls-5" d="M33.82,13.89c-1.35-.39-4.07-.77-8.22,1.27-1.82.9-6.25,3.41-10.17,9.88-4.17,6.87-5.24,14.04-4.6,14.28.57.21,2.17-5.04,7.63-11.64,2-2.42,3.49-4.19,6.07-5.77,2.73-1.68,4.81-2.96,7.24-3.42.07-.01,1.59-.3,3.23-1.32.74-.46,1.48-.94,1.47-1.51-.02-1.01-2.34-1.68-2.64-1.76Z"/>
      <path class="cls-5" d="M112.25,14.7c-.35-.64-2.68-.37-4.3.78-1.11.78-2.04,2.07-1.76,2.48.18.27.84.13,1.43,0,.67-.14.87-.32,2.02-.8,1.24-.52,1.39-.48,1.76-.8.48-.42,1.08-1.24.85-1.66Z"/>
      <path class="cls-5" d="M103.9,18.99c-.06-.03-.13-.06-.2-.07-.28-.05-.56.06-.81.2-.89.47-1.64,1.17-2.35,1.89-1.14,1.18-2.18,2.46-3.1,3.82s-2.01,2.81-1.58,4.49c.08.31.22.63.48.81.39.27.94.17,1.37-.04.8-.4,1.4-1.1,1.86-1.86s.79-1.59,1.2-2.38c.65-1.25,1.48-2.4,2.41-3.47.32-.37.65-.73.89-1.15s.4-.91.34-1.39c-.04-.34-.23-.68-.51-.83Z"/>
    </g>
  </g>
</svg>