<?xml version="1.0" encoding="UTF-8"?>
<svg id="Capa_2" data-name="Capa 2" xmlns="http://www.w3.org/2000/svg" viewBox="0 0 124.18 187.73">
  <defs>
    <style>
      .cls-1 {
        fill: #599dd1;
      }

      .cls-2 {
        fill: #9cd1f2;
      }

      .cls-3 {
        fill: #6cace4;
      }

      .cls-4 {
        fill: #ff8c42;
      }

      .cls-5 {
        fill: #c64e12;
      }

      .cls-6 {
        fill: #e56525;
      }

      .cls-7 {
        fill: #d8601d;
      }
    </style>
  </defs>
  <g id="Capa_1-2" data-name="Capa 1">
    <g>
      <path class="cls-5" d="M85.71,159.5c11.33,4.67,18.58,11.88,18.27,19.69-.25,6.51-5.52,7.99-13.89,7.72-8.17-.26-19.31-2.17-31.69-2.65-25.01-.97-45.53,4.28-45.03-8.58.29-7.59,7.62-14.06,18.74-17.88l4.05-104.2c-4.99-1.62-9.5-3.61-13.38-5.89-9.57-5.6-15.32-12.93-15.01-20.78.19-4.92,2.75-9.46,7.09-13.35,2.35-2.12,5.21-4.03,8.52-5.72C33.85,2.49,48.68-.55,65,.08c29.65,1.15,53.45,13.98,54.92,29.11.07.7.1,1.39.07,2.08-.43,11.01-12.63,20.1-30.25,24.36l-4.04,103.86Z"/>
      <g>
        <path class="cls-4" d="M53.52,158.49c.15,4.99-.95,10.05-3.35,14.44-3.97,7.31-11.82,12.57-20.15,12.8-8.32.21-16.72-4.98-19.64-12.8-3.85-10.35,2.39-22.22,3.48-32.7,1.2-11.47.82-23.05-.32-34.48-2-20.3-6.34-40.3-8.44-60.58-.43-4.13-.75-8.38-.34-12.5.15-1.48.39-2.92.77-4.34.34-1.37.79-2.68,1.37-3.97,3.5-7.69,10.12-11.54,17.15-12.2,1.01-.11,2.04-.15,3.05-.11,11.6.36,23.2,8.87,22.86,22.51-.34,13.45-.65,26.9-.99,40.35-.24,10.14-.49,20.26-.73,30.4-.28,11.06-2.41,21.87.6,32.7,1.89,6.75,4.45,13.45,4.68,20.47Z"/>
        <path class="cls-6" d="M29.55,187.73c-9.18,0-17.96-5.86-21.04-14.1-2.8-7.51-.77-15.45,1.19-23.14.94-3.68,1.83-7.15,2.17-10.47,1.06-10.15.96-21.3-.32-34.07-1.02-10.3-2.67-20.73-4.27-30.81-1.54-9.72-3.14-19.78-4.17-29.76-.43-4.14-.77-8.58-.34-12.9.17-1.67.44-3.19.82-4.65.36-1.47.85-2.88,1.48-4.28,3.51-7.71,10.36-12.58,18.79-13.37,1.07-.12,2.19-.16,3.31-.12,12.47.38,25.16,9.67,24.79,24.55-.17,6.73-.33,13.45-.5,20.18-.16,6.72-.33,13.45-.5,20.17l-.73,30.4c-.08,2.99-.29,5.99-.49,8.89-.57,8.03-1.1,15.62,1.02,23.23.41,1.48.86,2.95,1.31,4.43,1.6,5.3,3.26,10.78,3.44,16.51h0c.17,5.5-1.08,10.85-3.59,15.46-4.43,8.17-13,13.6-21.85,13.84-.18,0-.35,0-.53,0ZM26.34,14.05c-.7,0-1.39.04-2.07.11-7.1.66-12.62,4.58-15.56,11.04-.52,1.16-.93,2.35-1.24,3.62-.34,1.29-.57,2.61-.72,4.06-.4,3.97-.07,8.15.34,12.09,1.02,9.88,2.61,19.88,4.14,29.55,1.61,10.14,3.27,20.62,4.3,31.04,1.3,13.05,1.41,24.46.32,34.88-.37,3.61-1.34,7.39-2.27,11.05-1.81,7.09-3.68,14.42-1.32,20.75,2.56,6.85,10.02,11.7,17.72,11.5,7.44-.2,14.68-4.81,18.44-11.75,2.18-4,3.25-8.64,3.11-13.43-.17-5.2-1.68-10.19-3.27-15.48-.46-1.5-.91-3.01-1.33-4.51-2.3-8.28-1.72-16.57-1.15-24.59.2-2.85.41-5.8.48-8.7l.73-30.4c.17-6.73.33-13.45.5-20.17.16-6.73.33-13.46.5-20.18.31-12.39-10.4-20.13-20.92-20.46-.23,0-.47-.01-.7-.01Z"/>
      </g>
      <g>
        <path class="cls-4" d="M97.49,12.06c8.11-.25,16.22,3.51,20.22,12.3,2.92,6.41,2.52,13.79,1.79,20.8-2.1,20.28-6.44,40.29-8.45,60.58-1.13,11.44-1.52,23.02-.32,34.48,1.1,10.49,7.35,22.36,3.48,32.71-2.92,7.81-11.31,13-19.64,12.79s-16.18-5.48-20.16-12.8c-2.39-4.39-3.48-9.44-3.33-14.44.21-7.02,2.78-13.71,4.66-20.47,3.01-10.83.88-21.64.61-32.7-.25-10.13-.49-20.27-.74-30.4-.33-13.45-.66-26.9-.99-40.35-.33-13.64,11.27-22.16,22.85-22.51Z"/>
        <path class="cls-6" d="M95.08,187.72c-.18,0-.37,0-.55,0-8.83-.23-17.42-5.66-21.86-13.84-2.5-4.6-3.74-9.95-3.57-15.45.17-5.71,1.82-11.16,3.41-16.44.45-1.5.91-3,1.33-4.5,2.12-7.6,1.59-15.18,1.03-23.2-.2-2.91-.41-5.91-.49-8.91l-1.73-70.74c-.36-14.89,12.32-24.18,24.79-24.56h0c9.86-.3,18.13,4.74,22.1,13.47,3.17,6.97,2.67,14.93,1.96,21.83-1.03,9.98-2.63,20.02-4.17,29.74-1.6,10.09-3.26,20.52-4.28,30.83-1.27,12.85-1.37,23.99-.32,34.07.35,3.32,1.23,6.79,2.17,10.46,1.97,7.69,4,15.65,1.19,23.17-3.08,8.24-11.85,14.09-21.01,14.09ZM97.55,14.06h0c-10.52.32-21.22,8.06-20.91,20.46l1.73,70.74c.07,2.91.28,5.87.48,8.73.56,8.01,1.14,16.28-1.16,24.55-.43,1.53-.89,3.06-1.35,4.59-1.59,5.26-3.09,10.23-3.24,15.4-.14,4.8.92,9.44,3.09,13.42,3.78,6.95,11.02,11.56,18.45,11.75,7.66.2,15.15-4.63,17.71-11.49,2.37-6.34.49-13.68-1.32-20.77-.93-3.65-1.9-7.42-2.28-11.03-1.08-10.35-.98-21.76.32-34.88,1.03-10.42,2.7-20.92,4.31-31.06,1.53-9.66,3.12-19.66,4.14-29.52.66-6.38,1.14-13.7-1.62-19.77-3.29-7.22-10.09-11.37-18.34-11.13Z"/>
      </g>
      <g>
        <path class="cls-6" d="M28.27,23.04c-.06.94.22,1.91-.02,2.82-.26,1.01-1.12,1.63-1.57,2.54-.45.94-.37,1.98-1.12,2.82-.54.6-1.31.95-1.91,1.5-.62.56-1.03,1.35-1.72,1.83-.99.69-2.34.62-3.46,1.1-.75.32-1.4.88-2.21,1.03-.97.17-1.93-.28-2.9-.3-.86-.02-1.72.28-2.54.06-.92-.22-1.53-1.01-2.36-1.44-1.22-.62-2.39-.11-3.22-1.5-.15-.28-.3-.56-.47-.84.15-1.48.39-2.92.77-4.34.34-1.37.79-2.68,1.37-3.97,3.5-7.69,10.12-11.54,17.15-12.2.52.32,1.08.6,1.5,1.03,1.09,1.1.77,2.94,1.52,4.27.07.15.19.32.28.47.15.22.32.43.47.65.36.49.67.97.77,1.55.02.07.02.13.04.19.09.9-.3,1.8-.36,2.71Z"/>
        <path class="cls-6" d="M28.27,23.04c-.06.94.22,1.91-.02,2.82-.26,1.01-1.12,1.63-1.57,2.54-.45.94-.37,1.98-1.12,2.82-.54.6-1.31.95-1.91,1.5-.62.56-1.03,1.35-1.72,1.83-.99.69-2.34.62-3.46,1.1-.75.32-1.4.88-2.21,1.03-.97.17-1.93-.28-2.9-.3-.86-.02-1.72.28-2.54.06-.92-.22-1.53-1.01-2.36-1.44-1.22-.62-2.39-.11-3.22-1.5-.15-.28-.3-.56-.47-.84.15-1.48.39-2.92.77-4.34l.04.04c.73.6.73,1.31,1.07,1.95.97,1.95,4.73,2.84,7.11,2.06.56-.21,1.16-.52,2.19-.6,1.07-.07,1.27.19,2.06,0,.88-.22,1.46-.8,2.11-1.46.9-.88.75-1.12,1.48-1.7,1.01-.82,1.42-.47,2.11-1.16.41-.41.28-.56,1.14-2.69.54-1.35.8-1.76.9-1.95.54-.9,1.07-1.44,1.23-1.65.58-.65.79-1.59.84-2.58.36.49.67.97.77,1.55.02.07.02.13.04.19.09.9-.3,1.8-.36,2.71Z"/>
      </g>
      <g>
        <path class="cls-3" d="M26.01,24.14c-.25.92-1.03,1.49-1.43,2.31-.41.86-.34,1.8-1.02,2.56-.49.55-1.19.86-1.74,1.36-.56.51-.94,1.22-1.56,1.66-.91.63-2.13.57-3.15.99-.68.29-1.28.8-2.01.94-.87.16-1.75-.25-2.63-.28-.77-.02-1.55.26-2.3.06-.84-.22-1.39-.93-2.13-1.31-1.11-.57-2.19-.11-2.92-1.36-.33-.57-.58-1.22-1.12-1.59-.44-.31-1.03-.38-1.43-.74-.67-.6-.54-1.66-.78-2.53-.32-1.17-1.36-2.11-1.69-3.21-.08-.25-.12-.51-.11-.78.02-.57.28-1.12.31-1.69.02-.54-.16-1.06-.18-1.6-.03-.74.29-1.22.63-1.72h0c.2-.29.39-.58.53-.94.25-.65.1-1.59.45-2.19.47-.8,1.39-1.01,2.02-1.7.55-.6.8-1.69,1.45-2.19.85-.64,2.07-.47,3.08-.9,1.08-.46,1.96-1.49,3.18-1.65.86-.11,1.68.22,2.54.22.81,0,1.65-.22,2.43.11.63.27,1.09.86,1.72,1.11.69.27,1.53.12,2.15.52.54.35.76,1.02,1.19,1.5.57.64,1.47.89,2.07,1.51.98,1.01.69,2.67,1.37,3.87.08.14.17.28.26.41.14.2.29.4.43.61.31.44.6.89.69,1.41.01.05.02.11.03.16.09.82-.26,1.63-.32,2.46-.05.86.21,1.73-.01,2.56Z"/>
        <path class="cls-1" d="M26.01,24.14c-.25.92-1.03,1.49-1.43,2.31-.41.86-.34,1.8-1.02,2.56-.49.55-1.19.86-1.74,1.36-.56.51-.94,1.22-1.56,1.66-.91.63-2.13.57-3.15.99-.68.29-1.28.8-2.01.94-.87.16-1.75-.25-2.63-.28-.77-.02-1.55.26-2.3.06-.84-.22-1.39-.93-2.13-1.31-1.11-.57-2.19-.11-2.92-1.36-.33-.57-.58-1.22-1.12-1.59-.44-.31-1.03-.38-1.43-.74-.67-.6-.54-1.66-.78-2.53-.32-1.17-1.36-2.11-1.69-3.21.17.09.36.17.57.25,1.24.47,1.82.27,2.45.93.53.55.42,1,1.11,1.56.5.4.74.31,1.19.67.67.54.67,1.2.96,1.78.88,1.75,4.3,2.57,6.45,1.86.52-.18,1.06-.47,2-.54.96-.07,1.16.17,1.85,0,.8-.2,1.33-.72,1.93-1.32.82-.81.68-1.02,1.34-1.55.92-.74,1.3-.42,1.93-1.05.37-.37.26-.5,1.04-2.44.49-1.22.72-1.61.82-1.78.48-.81.96-1.3,1.11-1.48.52-.6.72-1.46.77-2.35.31.44.6.89.69,1.41.01.05.02.11.03.16.09.82-.26,1.63-.32,2.46-.05.86.21,1.73-.01,2.56Z"/>
        <path class="cls-2" d="M12.42,9.54c-.92.03-1.53.28-2.3.47-1,.25-.83.04-1.46.25-1.28.43-2.2,1.38-2.46,1.67-.19.21-.23.27-.72.81-.69.76-.76.78-.96,1.06-.3.42-.86,1.19-.65,1.72.19.47.9.54,1.34.47.35-.06.62-.22,1.15-.67,1.15-.97,1.14-1.29,1.91-1.86.66-.49,1.3-.72,1.7-.86.61-.22,1.37-.4,1.67-.47.72-.17,1.03-.2,1.44-.5.26-.19.68-.5.69-.97,0-.52-.5-.88-.55-.92-.28-.19-.57-.2-.81-.19Z"/>
        <path class="cls-2" d="M4.12,16.96s-.29-.28-.67-.28c-.25,0-.39.12-1.17.74-.41.33-.62.5-.65.54-.45.55-.47,1.2-.48,1.46-.01.39-.02.62.13.83.3.42.97.43,1.35.35.71-.14,1.09-.72,1.26-.96.36-.54.41-1.06.44-1.41.05-.49.09-.96-.22-1.28Z"/>
      </g>
      <g>
        <path class="cls-6" d="M95.92,23.43c.06.94-.22,1.91.02,2.82.26,1.01,1.12,1.63,1.57,2.54.45.94.37,1.98,1.12,2.82.54.6,1.31.95,1.91,1.5.62.56,1.03,1.35,1.72,1.83.99.69,2.34.62,3.46,1.1.75.32,1.4.88,2.21,1.03.97.17,1.93-.28,2.9-.3.86-.02,1.72.28,2.54.06.92-.22,1.53-1.01,2.36-1.44,1.22-.62,2.39-.11,3.22-1.5.15-.28.3-.56.47-.84-.15-1.48-.39-2.92-.77-4.34-.34-1.37-.79-2.68-1.37-3.97-3.5-7.69-10.12-11.54-17.15-12.2-.52.32-1.08.6-1.5,1.03-1.09,1.1-.77,2.94-1.52,4.27-.07.15-.19.32-.28.47-.15.22-.32.43-.47.65-.36.49-.67.97-.77,1.55-.02.07-.02.13-.04.19-.09.9.3,1.8.36,2.71Z"/>
        <path class="cls-6" d="M95.92,23.43c.06.94-.22,1.91.02,2.82.26,1.01,1.12,1.63,1.57,2.54.45.94.37,1.98,1.12,2.82.54.6,1.31.95,1.91,1.5.62.56,1.03,1.35,1.72,1.83.99.69,2.34.62,3.46,1.1.75.32,1.4.88,2.21,1.03.97.17,1.93-.28,2.9-.3.86-.02,1.72.28,2.54.06.92-.22,1.53-1.01,2.36-1.44,1.22-.62,2.39-.11,3.22-1.5.15-.28.3-.56.47-.84-.15-1.48-.39-2.92-.77-4.34l-.04.04c-.73.6-.73,1.31-1.07,1.95-.97,1.95-4.73,2.84-7.11,2.06-.56-.21-1.16-.52-2.19-.6-1.07-.07-1.27.19-2.06,0-.88-.22-1.46-.8-2.11-1.46-.9-.88-.75-1.12-1.48-1.7-1.01-.82-1.42-.47-2.11-1.16-.41-.41-.28-.56-1.14-2.69-.54-1.35-.8-1.76-.9-1.95-.54-.9-1.07-1.44-1.23-1.65-.58-.65-.79-1.59-.84-2.58-.36.49-.67.97-.77,1.55-.02.07-.02.13-.04.19-.09.9.3,1.8.36,2.71Z"/>
      </g>
      <g>
        <path class="cls-3" d="M98.17,24.52c.25.92,1.03,1.49,1.43,2.31.41.86.34,1.8,1.02,2.56.49.55,1.19.86,1.74,1.36.56.51.94,1.22,1.56,1.66.91.63,2.13.57,3.15.99.68.29,1.28.8,2.01.94.87.16,1.75-.25,2.63-.28.77-.02,1.55.26,2.3.06.84-.22,1.39-.93,2.13-1.31,1.11-.57,2.19-.11,2.92-1.36.33-.57.58-1.22,1.12-1.59.44-.31,1.03-.38,1.43-.74.67-.6.54-1.66.78-2.53.32-1.17,1.36-2.11,1.69-3.21.08-.25.12-.51.11-.78-.02-.57-.28-1.12-.31-1.69-.02-.54.16-1.06.18-1.6.03-.74-.29-1.22-.63-1.72h0c-.2-.29-.39-.58-.53-.94-.25-.65-.1-1.59-.45-2.19-.47-.8-1.39-1.01-2.02-1.7-.55-.6-.8-1.69-1.45-2.19-.85-.64-2.07-.47-3.08-.9-1.08-.46-1.96-1.49-3.18-1.65-.86-.11-1.68.22-2.54.22-.81,0-1.65-.22-2.43.11-.63.27-1.09.86-1.72,1.11-.69.27-1.53.12-2.15.52-.54.35-.76,1.02-1.19,1.5-.57.64-1.47.89-2.07,1.51-.98,1.01-.69,2.67-1.37,3.87-.08.14-.17.28-.26.41-.14.2-.29.4-.43.61-.31.44-.6.89-.69,1.41-.01.05-.02.11-.03.16-.09.82.26,1.63.32,2.46.05.86-.21,1.73.01,2.56Z"/>
        <path class="cls-1" d="M98.17,24.52c.25.92,1.03,1.49,1.43,2.31.41.86.34,1.8,1.02,2.56.49.55,1.19.86,1.74,1.36.56.51.94,1.22,1.56,1.66.91.63,2.13.57,3.15.99.68.29,1.28.8,2.01.94.87.16,1.75-.25,2.63-.28.77-.02,1.55.26,2.3.06.84-.22,1.39-.93,2.13-1.31,1.11-.57,2.19-.11,2.92-1.36.33-.57.58-1.22,1.12-1.59.44-.31,1.03-.38,1.43-.74.67-.6.54-1.66.78-2.53.32-1.17,1.36-2.11,1.69-3.21-.17.09-.36.17-.57.25-1.24.47-1.82.27-2.45.93-.53.55-.42,1-1.11,1.56-.5.4-.74.31-1.19.67-.67.54-.67,1.2-.96,1.78-.88,1.75-4.3,2.57-6.45,1.86-.52-.18-1.06-.47-2-.54-.96-.07-1.16.17-1.85,0-.8-.2-1.33-.72-1.93-1.32-.82-.81-.68-1.02-1.34-1.55-.92-.74-1.3-.42-1.93-1.05-.37-.37-.26-.5-1.04-2.44-.49-1.22-.72-1.61-.82-1.78-.48-.81-.96-1.3-1.11-1.48-.52-.6-.72-1.46-.77-2.35-.31.44-.6.89-.69,1.41-.01.05-.02.11-.03.16-.09.82.26,1.63.32,2.46.05.86-.21,1.73.01,2.56Z"/>
        <path class="cls-2" d="M111.76,9.92c.92.03,1.53.28,2.3.47,1,.25.83.04,1.46.25,1.28.43,2.2,1.38,2.46,1.67.19.21.23.27.72.81.69.76.76.78.96,1.06.3.42.86,1.19.65,1.72-.19.47-.9.54-1.34.47-.35-.06-.62-.22-1.15-.67-1.15-.97-1.14-1.29-1.91-1.86-.66-.49-1.3-.72-1.7-.86-.61-.22-1.37-.4-1.67-.47-.72-.17-1.03-.2-1.44-.5-.26-.19-.68-.5-.69-.97,0-.52.5-.88.55-.92.28-.19.57-.2.81-.19Z"/>
        <path class="cls-2" d="M120.06,17.35s.29-.28.67-.28c.25,0,.39.12,1.17.74.41.33.62.5.65.54.45.55.47,1.2.48,1.46.01.39.02.62-.13.83-.3.42-.97.43-1.35.35-.71-.14-1.09-.72-1.26-.96-.36-.54-.41-1.06-.44-1.41-.05-.49-.09-.96.22-1.28Z"/>
      </g>
      <path class="cls-7" d="M35.57,7.57c.1,1.09,5.03.02,9.87,3.46,2.59,1.84,3.22,3.6,5.77,4.12,2.16.44,2.98-.56,5.57-1.05,7.07-1.35,11.14,4.15,15.59,1.8,1.22-.64.88-1.04,2.65-2.71,5.89-5.55,13.55-4.86,13.59-6.16.04-1.27-7.24-2.77-15.39-3.67-13.89-1.54-22.03-.44-25.74.19-6.26,1.06-12.02,2.83-11.92,4.01Z"/>
    </g>
  </g>
</svg>